<?xml version="1.0" encoding="UTF-8" standalone="no"?>
<!DOCTYPE svg PUBLIC "-//W3C//DTD SVG 1.1//EN"
 "http://www.w3.org/Graphics/SVG/1.1/DTD/svg11.dtd">
<!-- Generated by graphviz version 10.0.1 (20240210.2158)
 -->
<!-- Title: mergeApplicationDefinition Pages: 1 -->
<svg width="465pt" height="431pt"
 viewBox="0.00 0.00 464.75 430.50" xmlns="http://www.w3.org/2000/svg" xmlns:xlink="http://www.w3.org/1999/xlink">
<g id="graph0" class="graph" transform="scale(1 1) rotate(0) translate(4 426.5)">
<title>mergeApplicationDefinition</title>
<!-- Node1 -->
<g id="Node000001" class="node">
<title>Node1</title>
<g id="a_Node000001"><a xlink:title=" ">
<polygon fill="#999999" stroke="#666666" points="132.25,-220.88 0,-220.88 0,-201.62 132.25,-201.62 132.25,-220.88"/>
<text text-anchor="middle" x="66.12" y="-207.38" font-family="Helvetica,sans-Serif" font-size="10.00">mergeApplicationDefinition</text>
</a>
</g>
</g>
<!-- Node2 -->
<g id="Node000002" class="node">
<title>Node2</title>
<g id="a_Node000002"><a xlink:href="$class_symfony_1_1_component_1_1_console_1_1_command_1_1_lazy_command.html#a154e8997a5c7e497d5d54dcf340a80b1" xlink:title=" ">
<polygon fill="white" stroke="#666666" points="242.75,-220.88 168.25,-220.88 168.25,-201.62 242.75,-201.62 242.75,-220.88"/>
<text text-anchor="middle" x="205.5" y="-207.38" font-family="Helvetica,sans-Serif" font-size="10.00">getCommand</text>
</a>
</g>
</g>
<!-- Node1&#45;&gt;Node2 -->
<g id="edge21_Node000001_Node000002" class="edge">
<title>Node1&#45;&gt;Node2</title>
<g id="a_edge21_Node000001_Node000002"><a xlink:title=" ">
<path fill="none" stroke="#63b8ff" d="M132.59,-211.25C140.67,-211.25 148.81,-211.25 156.55,-211.25"/>
<polygon fill="#63b8ff" stroke="#63b8ff" points="156.44,-214.75 166.44,-211.25 156.44,-207.75 156.44,-214.75"/>
</a>
</g>
</g>
<!-- Node3 -->
<g id="Node000003" class="node">
<title>Node3</title>
<g id="a_Node000003"><a xlink:href="$class_symfony_1_1_component_1_1_console_1_1_command_1_1_command.html#a1e9e143d493aedb855d3c5edadb17bb2" xlink:title=" ">
<polygon fill="white" stroke="#666666" points="448.12,-422.5 287.38,-422.5 287.38,-392 448.12,-392 448.12,-422.5"/>
<text text-anchor="start" x="295.38" y="-409" font-family="Helvetica,sans-Serif" font-size="10.00">Symfony\Component\Console</text>
<text text-anchor="middle" x="367.75" y="-397.75" font-family="Helvetica,sans-Serif" font-size="10.00">\Command\Command\getAliases</text>
</a>
</g>
</g>
<!-- Node2&#45;&gt;Node3 -->
<g id="edge22_Node000002_Node000003" class="edge">
<title>Node2&#45;&gt;Node3</title>
<g id="a_edge22_Node000002_Node000003"><a xlink:title=" ">
<path fill="none" stroke="#63b8ff" d="M207.69,-221.07C211.76,-250.25 227.8,-337.21 278.75,-382.25 280.01,-383.37 281.33,-384.44 282.68,-385.46"/>
<polygon fill="#63b8ff" stroke="#63b8ff" points="280.54,-388.25 290.85,-390.71 284.33,-382.36 280.54,-388.25"/>
</a>
</g>
</g>
<!-- Node4 -->
<g id="Node000004" class="node">
<title>Node4</title>
<g id="a_Node000004"><a xlink:href="$class_symfony_1_1_component_1_1_console_1_1_command_1_1_command.html#ab2019a6d5eaa4bde2a1a780dea55aca6" xlink:title=" ">
<polygon fill="white" stroke="#666666" points="456,-373.5 279.5,-373.5 279.5,-343 456,-343 456,-373.5"/>
<text text-anchor="start" x="287.5" y="-360" font-family="Helvetica,sans-Serif" font-size="10.00">Symfony\Component\Console</text>
<text text-anchor="middle" x="367.75" y="-348.75" font-family="Helvetica,sans-Serif" font-size="10.00">\Command\Command\getApplication</text>
</a>
</g>
</g>
<!-- Node2&#45;&gt;Node4 -->
<g id="edge23_Node000002_Node000004" class="edge">
<title>Node2&#45;&gt;Node4</title>
<g id="a_edge23_Node000002_Node000004"><a xlink:title=" ">
<path fill="none" stroke="#63b8ff" d="M209.53,-221.19C217.15,-244.49 239.36,-302.9 278.75,-333.25 280.5,-334.59 282.31,-335.87 284.18,-337.07"/>
<polygon fill="#63b8ff" stroke="#63b8ff" points="282.2,-339.97 292.63,-341.8 285.62,-333.86 282.2,-339.97"/>
</a>
</g>
</g>
<!-- Node5 -->
<g id="Node000005" class="node">
<title>Node5</title>
<g id="a_Node000005"><a xlink:href="$class_symfony_1_1_component_1_1_console_1_1_command_1_1_command.html#a2e7bb35c71bf1824456ceb944cb7a845" xlink:title=" ">
<polygon fill="white" stroke="#666666" points="456.75,-324.5 278.75,-324.5 278.75,-294 456.75,-294 456.75,-324.5"/>
<text text-anchor="start" x="286.75" y="-311" font-family="Helvetica,sans-Serif" font-size="10.00">Symfony\Component\Console</text>
<text text-anchor="middle" x="367.75" y="-299.75" font-family="Helvetica,sans-Serif" font-size="10.00">\Command\Command\getDescription</text>
</a>
</g>
</g>
<!-- Node2&#45;&gt;Node5 -->
<g id="edge24_Node000002_Node000005" class="edge">
<title>Node2&#45;&gt;Node5</title>
<g id="a_edge24_Node000002_Node000005"><a xlink:title=" ">
<path fill="none" stroke="#63b8ff" d="M213.73,-221.36C225.54,-237.15 250.5,-267.56 278.75,-284.25 281.57,-285.92 284.51,-287.48 287.52,-288.94"/>
<polygon fill="#63b8ff" stroke="#63b8ff" points="286.08,-292.13 296.65,-292.92 288.88,-285.71 286.08,-292.13"/>
</a>
</g>
</g>
<!-- Node6 -->
<g id="Node000006" class="node">
<title>Node6</title>
<g id="a_Node000006"><a xlink:href="$class_symfony_1_1_component_1_1_console_1_1_command_1_1_command.html#ab1ffe5022cd0569add0ffdd3493e8ff0" xlink:title=" ">
<polygon fill="white" stroke="#666666" points="453.75,-275.5 281.75,-275.5 281.75,-245 453.75,-245 453.75,-275.5"/>
<text text-anchor="start" x="289.75" y="-262" font-family="Helvetica,sans-Serif" font-size="10.00">Symfony\Component\Console</text>
<text text-anchor="middle" x="367.75" y="-250.75" font-family="Helvetica,sans-Serif" font-size="10.00">\Command\Command\getHelperSet</text>
</a>
</g>
</g>
<!-- Node2&#45;&gt;Node6 -->
<g id="edge25_Node000002_Node000006" class="edge">
<title>Node2&#45;&gt;Node6</title>
<g id="a_edge25_Node000002_Node000006"><a xlink:title=" ">
<path fill="none" stroke="#63b8ff" d="M235.93,-221.35C249,-225.75 264.6,-230.89 278.75,-235.25 285.42,-237.31 292.4,-239.39 299.38,-241.44"/>
<polygon fill="#63b8ff" stroke="#63b8ff" points="298.27,-244.76 308.85,-244.19 300.23,-238.04 298.27,-244.76"/>
</a>
</g>
</g>
<!-- Node7 -->
<g id="Node000007" class="node">
<title>Node7</title>
<g id="a_Node000007"><a xlink:href="$class_symfony_1_1_component_1_1_console_1_1_command_1_1_command.html#a3d0963e68bb313b163a73f2803c64600" xlink:title=" ">
<polygon fill="white" stroke="#666666" points="445.12,-226.5 290.38,-226.5 290.38,-196 445.12,-196 445.12,-226.5"/>
<text text-anchor="start" x="298.38" y="-213" font-family="Helvetica,sans-Serif" font-size="10.00">Symfony\Component\Console</text>
<text text-anchor="middle" x="367.75" y="-201.75" font-family="Helvetica,sans-Serif" font-size="10.00">\Command\Command\getName</text>
</a>
</g>
</g>
<!-- Node2&#45;&gt;Node7 -->
<g id="edge26_Node000002_Node000007" class="edge">
<title>Node2&#45;&gt;Node7</title>
<g id="a_edge26_Node000002_Node000007"><a xlink:title=" ">
<path fill="none" stroke="#63b8ff" d="M242.86,-211.25C253.72,-211.25 266.12,-211.25 278.79,-211.25"/>
<polygon fill="#63b8ff" stroke="#63b8ff" points="278.44,-214.75 288.44,-211.25 278.44,-207.75 278.44,-214.75"/>
</a>
</g>
</g>
<!-- Node8 -->
<g id="Node000008" class="node">
<title>Node8</title>
<g id="a_Node000008"><a xlink:href="$class_symfony_1_1_component_1_1_console_1_1_command_1_1_command.html#acbd42dc98fc1c0649ae7b1aeaf842b3d" xlink:title=" ">
<polygon fill="white" stroke="#666666" points="444.38,-177.5 291.12,-177.5 291.12,-147 444.38,-147 444.38,-177.5"/>
<text text-anchor="start" x="299.12" y="-164" font-family="Helvetica,sans-Serif" font-size="10.00">Symfony\Component\Console</text>
<text text-anchor="middle" x="367.75" y="-152.75" font-family="Helvetica,sans-Serif" font-size="10.00">\Command\Command\isHidden</text>
</a>
</g>
</g>
<!-- Node2&#45;&gt;Node8 -->
<g id="edge27_Node000002_Node000008" class="edge">
<title>Node2&#45;&gt;Node8</title>
<g id="a_edge27_Node000002_Node000008"><a xlink:title=" ">
<path fill="none" stroke="#63b8ff" d="M235.93,-201.15C249,-196.75 264.6,-191.61 278.75,-187.25 285.42,-185.19 292.4,-183.11 299.38,-181.06"/>
<polygon fill="#63b8ff" stroke="#63b8ff" points="300.23,-184.46 308.85,-178.31 298.27,-177.74 300.23,-184.46"/>
</a>
</g>
</g>
<!-- Node9 -->
<g id="Node000009" class="node">
<title>Node9</title>
<g id="a_Node000009"><a xlink:href="$class_symfony_1_1_component_1_1_console_1_1_command_1_1_command.html#a587da84fe6cd5996be141fd58ad96404" xlink:title=" ">
<polygon fill="white" stroke="#666666" points="448.12,-128.5 287.38,-128.5 287.38,-98 448.12,-98 448.12,-128.5"/>
<text text-anchor="start" x="295.38" y="-115" font-family="Helvetica,sans-Serif" font-size="10.00">Symfony\Component\Console</text>
<text text-anchor="middle" x="367.75" y="-103.75" font-family="Helvetica,sans-Serif" font-size="10.00">\Command\Command\setAliases</text>
</a>
</g>
</g>
<!-- Node2&#45;&gt;Node9 -->
<g id="edge28_Node000002_Node000009" class="edge">
<title>Node2&#45;&gt;Node9</title>
<g id="a_edge28_Node000002_Node000009"><a xlink:title=" ">
<path fill="none" stroke="#63b8ff" d="M213.73,-201.14C225.54,-185.35 250.5,-154.94 278.75,-138.25 281.57,-136.58 284.51,-135.02 287.52,-133.56"/>
<polygon fill="#63b8ff" stroke="#63b8ff" points="288.88,-136.79 296.65,-129.58 286.08,-130.37 288.88,-136.79"/>
</a>
</g>
</g>
<!-- Node10 -->
<g id="Node000010" class="node">
<title>Node10</title>
<g id="a_Node000010"><a xlink:href="$class_symfony_1_1_component_1_1_console_1_1_command_1_1_command.html#a3eda7afea80371b606cd289c66ab3e7c" xlink:title=" ">
<polygon fill="white" stroke="#666666" points="456.75,-79.5 278.75,-79.5 278.75,-49 456.75,-49 456.75,-79.5"/>
<text text-anchor="start" x="286.75" y="-66" font-family="Helvetica,sans-Serif" font-size="10.00">Symfony\Component\Console</text>
<text text-anchor="middle" x="367.75" y="-54.75" font-family="Helvetica,sans-Serif" font-size="10.00">\Command\Command\setDescription</text>
</a>
</g>
</g>
<!-- Node2&#45;&gt;Node10 -->
<g id="edge29_Node000002_Node000010" class="edge">
<title>Node2&#45;&gt;Node10</title>
<g id="a_edge29_Node000002_Node000010"><a xlink:title=" ">
<path fill="none" stroke="#63b8ff" d="M209.53,-201.31C217.15,-178.01 239.36,-119.6 278.75,-89.25 280.5,-87.91 282.31,-86.63 284.18,-85.43"/>
<polygon fill="#63b8ff" stroke="#63b8ff" points="285.62,-88.64 292.63,-80.7 282.2,-82.53 285.62,-88.64"/>
</a>
</g>
</g>
<!-- Node11 -->
<g id="Node000011" class="node">
<title>Node11</title>
<g id="a_Node000011"><a xlink:href="$class_symfony_1_1_component_1_1_console_1_1_command_1_1_command.html#a88f15de947b7c9596cf3dab5d35ce6af" xlink:title=" ">
<polygon fill="white" stroke="#666666" points="447.38,-30.5 288.12,-30.5 288.12,0 447.38,0 447.38,-30.5"/>
<text text-anchor="start" x="296.12" y="-17" font-family="Helvetica,sans-Serif" font-size="10.00">Symfony\Component\Console</text>
<text text-anchor="middle" x="367.75" y="-5.75" font-family="Helvetica,sans-Serif" font-size="10.00">\Command\Command\setHidden</text>
</a>
</g>
</g>
<!-- Node2&#45;&gt;Node11 -->
<g id="edge30_Node000002_Node000011" class="edge">
<title>Node2&#45;&gt;Node11</title>
<g id="a_edge30_Node000002_Node000011"><a xlink:title=" ">
<path fill="none" stroke="#63b8ff" d="M207.69,-201.43C211.76,-172.25 227.8,-85.29 278.75,-40.25 280.01,-39.13 281.33,-38.06 282.68,-37.04"/>
<polygon fill="#63b8ff" stroke="#63b8ff" points="284.33,-40.14 290.85,-31.79 280.54,-34.25 284.33,-40.14"/>
</a>
</g>
</g>
</g>
</svg>
