<?xml version="1.0" encoding="UTF-8" standalone="no"?>
<!DOCTYPE svg PUBLIC "-//W3C//DTD SVG 1.1//EN"
 "http://www.w3.org/Graphics/SVG/1.1/DTD/svg11.dtd">
<!-- Generated by graphviz version 10.0.1 (20240210.2158)
 -->
<!-- Title: getColumnsNames Pages: 1 -->
<svg width="337pt" height="98pt"
 viewBox="0.00 0.00 337.00 98.12" xmlns="http://www.w3.org/2000/svg" xmlns:xlink="http://www.w3.org/1999/xlink">
<g id="graph0" class="graph" transform="scale(1 1) rotate(0) translate(4 94.12)">
<title>getColumnsNames</title>
<!-- Node1 -->
<g id="Node000001" class="node">
<title>Node1</title>
<g id="a_Node000001"><a xlink:title=" ">
<polygon fill="#999999" stroke="#666666" points="329,-51.88 229,-51.88 229,-32.62 329,-32.62 329,-51.88"/>
<text text-anchor="middle" x="279" y="-38.38" font-family="Helvetica,sans-Serif" font-size="10.00">getColumnsNames</text>
</a>
</g>
</g>
<!-- Node2 -->
<g id="Node000002" class="node">
<title>Node2</title>
<g id="a_Node000002"><a xlink:href="$class_glpi_1_1_system_1_1_diagnostic_1_1_database_schema_consistency_checker.html#a466f383037917be5beb745f690782d27" xlink:title=" ">
<polygon fill="white" stroke="#666666" points="190.75,-90.12 2.25,-90.12 2.25,-48.38 190.75,-48.38 190.75,-90.12"/>
<text text-anchor="start" x="10.25" y="-76.62" font-family="Helvetica,sans-Serif" font-size="10.00">Glpi\System\Diagnostic</text>
<text text-anchor="start" x="10.25" y="-65.38" font-family="Helvetica,sans-Serif" font-size="10.00">\DatabaseSchemaConsistencyChecker</text>
<text text-anchor="middle" x="96.5" y="-54.12" font-family="Helvetica,sans-Serif" font-size="10.00">\getMissingFields</text>
</a>
</g>
</g>
<!-- Node1&#45;&gt;Node2 -->
<g id="edge5_Node000001_Node000002" class="edge">
<title>Node1&#45;&gt;Node2</title>
<g id="a_edge5_Node000001_Node000002"><a xlink:title=" ">
<path fill="none" stroke="#63b8ff" d="M217.41,-51.31C208.94,-52.58 200.09,-53.9 191.19,-55.24"/>
<polygon fill="#63b8ff" stroke="#63b8ff" points="217.81,-54.79 227.18,-49.85 216.77,-47.87 217.81,-54.79"/>
</a>
</g>
</g>
<!-- Node3 -->
<g id="Node000003" class="node">
<title>Node3</title>
<g id="a_Node000003"><a xlink:href="$class_glpi_1_1_system_1_1_diagnostic_1_1_database_keys_checker.html#a28d5c1ed2fd410c41260e85cc0780824" xlink:title=" ">
<polygon fill="white" stroke="#666666" points="193,-30.5 0,-30.5 0,0 193,0 193,-30.5"/>
<text text-anchor="start" x="8" y="-17" font-family="Helvetica,sans-Serif" font-size="10.00">Glpi\System\Diagnostic</text>
<text text-anchor="middle" x="96.5" y="-5.75" font-family="Helvetica,sans-Serif" font-size="10.00">\DatabaseKeysChecker\getMissingKeys</text>
</a>
</g>
</g>
<!-- Node1&#45;&gt;Node3 -->
<g id="edge6_Node000001_Node000003" class="edge">
<title>Node1&#45;&gt;Node3</title>
<g id="a_edge6_Node000001_Node000003"><a xlink:title=" ">
<path fill="none" stroke="#63b8ff" d="M217.48,-33.2C209.65,-32.03 201.49,-30.81 193.27,-29.58"/>
<polygon fill="#63b8ff" stroke="#63b8ff" points="216.77,-36.63 227.18,-34.65 217.81,-29.71 216.77,-36.63"/>
</a>
</g>
</g>
</g>
</svg>
