<?xml version="1.0" encoding="UTF-8" standalone="no"?>
<!DOCTYPE svg PUBLIC "-//W3C//DTD SVG 1.1//EN"
 "http://www.w3.org/Graphics/SVG/1.1/DTD/svg11.dtd">
<!-- Generated by graphviz version 10.0.1 (20240210.2158)
 -->
<!-- Title: macro_dropdownItemsFromItemtypes Pages: 1 -->
<svg width="510pt" height="224pt"
 viewBox="0.00 0.00 509.75 223.88" xmlns="http://www.w3.org/2000/svg" xmlns:xlink="http://www.w3.org/1999/xlink">
<g id="graph0" class="graph" transform="scale(1 1) rotate(0) translate(4 219.88)">
<title>macro_dropdownItemsFromItemtypes</title>
<!-- Node1 -->
<g id="Node000001" class="node">
<title>Node1</title>
<g id="a_Node000001"><a xlink:title=" ">
<polygon fill="#999999" stroke="#666666" points="181,-141.88 0,-141.88 0,-122.62 181,-122.62 181,-141.88"/>
<text text-anchor="middle" x="90.5" y="-128.38" font-family="Helvetica,sans-Serif" font-size="10.00">macro_dropdownItemsFromItemtypes</text>
</a>
</g>
</g>
<!-- Node2 -->
<g id="Node000002" class="node">
<title>Node2</title>
<g id="a_Node000002"><a xlink:href="$class_____twig_template__4cad302603e5c77a607dc9e0bac1ebc3.html#a38152512ea69c5f598112d1e1064e4b5" xlink:title=" ">
<polygon fill="white" stroke="#666666" points="311.75,-215.88 217,-215.88 217,-196.62 311.75,-196.62 311.75,-215.88"/>
<text text-anchor="middle" x="264.38" y="-202.38" font-family="Helvetica,sans-Serif" font-size="10.00">getSourceContext</text>
</a>
</g>
</g>
<!-- Node1&#45;&gt;Node2 -->
<g id="edge23_Node000001_Node000002" class="edge">
<title>Node1&#45;&gt;Node2</title>
<g id="a_edge23_Node000001_Node000002"><a xlink:title=" ">
<path fill="none" stroke="#63b8ff" d="M113.12,-142.29C138.02,-153.76 180.22,-172.92 217,-188.25 219.99,-189.5 223.1,-190.76 226.23,-192.02"/>
<polygon fill="#63b8ff" stroke="#63b8ff" points="224.8,-195.22 235.39,-195.64 227.38,-188.71 224.8,-195.22"/>
</a>
</g>
</g>
<!-- Node3 -->
<g id="Node000003" class="node">
<title>Node3</title>
<g id="a_Node000003"><a xlink:href="$_core_extension_8php.html#a2d50d273b88123237405a3388a6012a5" xlink:title=" ">
<polygon fill="white" stroke="#666666" points="311,-178.88 217.75,-178.88 217.75,-159.62 311,-159.62 311,-178.88"/>
<text text-anchor="middle" x="264.38" y="-165.38" font-family="Helvetica,sans-Serif" font-size="10.00">twig_array_merge</text>
</a>
</g>
</g>
<!-- Node1&#45;&gt;Node3 -->
<g id="edge24_Node000001_Node000003" class="edge">
<title>Node1&#45;&gt;Node3</title>
<g id="a_edge24_Node000001_Node000003"><a xlink:title=" ">
<path fill="none" stroke="#63b8ff" d="M138.47,-142.36C159.37,-146.86 184.18,-152.2 206.16,-156.93"/>
<polygon fill="#63b8ff" stroke="#63b8ff" points="205.37,-160.34 215.88,-159.03 206.84,-153.5 205.37,-160.34"/>
</a>
</g>
</g>
<!-- Node5 -->
<g id="Node000005" class="node">
<title>Node5</title>
<g id="a_Node000005"><a xlink:href="$_core_extension_8php.html#a01c03508433819ad3d9b5afd9ba53193" xlink:title=" ">
<polygon fill="white" stroke="#666666" points="307.62,-104.88 221.12,-104.88 221.12,-85.62 307.62,-85.62 307.62,-104.88"/>
<text text-anchor="middle" x="264.38" y="-91.38" font-family="Helvetica,sans-Serif" font-size="10.00">twig_call_macro</text>
</a>
</g>
</g>
<!-- Node1&#45;&gt;Node5 -->
<g id="edge26_Node000001_Node000005" class="edge">
<title>Node1&#45;&gt;Node5</title>
<g id="a_edge26_Node000001_Node000005"><a xlink:title=" ">
<path fill="none" stroke="#63b8ff" d="M138.47,-122.14C160.49,-117.4 186.84,-111.73 209.65,-106.81"/>
<polygon fill="#63b8ff" stroke="#63b8ff" points="210.36,-110.24 219.4,-104.72 208.88,-103.4 210.36,-110.24"/>
</a>
</g>
</g>
<!-- Node6 -->
<g id="Node000006" class="node">
<title>Node6</title>
<g id="a_Node000006"><a xlink:href="$_core_extension_8php.html#aeb74e277ae38926f0b4c91f83c580705" xlink:title=" ">
<polygon fill="white" stroke="#666666" points="311,-67.88 217.75,-67.88 217.75,-48.62 311,-48.62 311,-67.88"/>
<text text-anchor="middle" x="264.38" y="-54.38" font-family="Helvetica,sans-Serif" font-size="10.00">twig_get_attribute</text>
</a>
</g>
</g>
<!-- Node1&#45;&gt;Node6 -->
<g id="edge27_Node000001_Node000006" class="edge">
<title>Node1&#45;&gt;Node6</title>
<g id="a_edge27_Node000001_Node000006"><a xlink:title=" ">
<path fill="none" stroke="#63b8ff" d="M113.12,-122.21C138.02,-110.74 180.22,-91.58 217,-76.25 219.99,-75 223.1,-73.74 226.23,-72.48"/>
<polygon fill="#63b8ff" stroke="#63b8ff" points="227.38,-75.79 235.39,-68.86 224.8,-69.28 227.38,-75.79"/>
</a>
</g>
</g>
<!-- Node9 -->
<g id="Node000009" class="node">
<title>Node9</title>
<g id="a_Node000009"><a xlink:href="$_core_extension_8php.html#a58143cb7cfe98f1ef38883299f5c1dee" xlink:title=" ">
<polygon fill="white" stroke="#666666" points="300.12,-141.88 228.62,-141.88 228.62,-122.62 300.12,-122.62 300.12,-141.88"/>
<text text-anchor="middle" x="264.38" y="-128.38" font-family="Helvetica,sans-Serif" font-size="10.00">twig_random</text>
</a>
</g>
</g>
<!-- Node1&#45;&gt;Node9 -->
<g id="edge30_Node000001_Node000009" class="edge">
<title>Node1&#45;&gt;Node9</title>
<g id="a_edge30_Node000001_Node000009"><a xlink:title=" ">
<path fill="none" stroke="#63b8ff" d="M181.46,-132.25C193.88,-132.25 206.19,-132.25 217.34,-132.25"/>
<polygon fill="#63b8ff" stroke="#63b8ff" points="216.99,-135.75 226.99,-132.25 216.99,-128.75 216.99,-135.75"/>
</a>
</g>
</g>
<!-- Node4 -->
<g id="Node000004" class="node">
<title>Node4</title>
<g id="a_Node000004"><a xlink:href="$_core_extension_8php.html#add6085b705776ea6e84cec0f1f6c6e8b" xlink:title=" ">
<polygon fill="white" stroke="#666666" points="462,-178.88 387.5,-178.88 387.5,-159.62 462,-159.62 462,-178.88"/>
<text text-anchor="middle" x="424.75" y="-165.38" font-family="Helvetica,sans-Serif" font-size="10.00">twig_to_array</text>
</a>
</g>
</g>
<!-- Node3&#45;&gt;Node4 -->
<g id="edge25_Node000003_Node000004" class="edge">
<title>Node3&#45;&gt;Node4</title>
<g id="a_edge25_Node000003_Node000004"><a xlink:title=" ">
<path fill="none" stroke="#63b8ff" d="M311.18,-169.25C331.44,-169.25 355.26,-169.25 375.76,-169.25"/>
<polygon fill="#63b8ff" stroke="#63b8ff" points="375.57,-172.75 385.57,-169.25 375.57,-165.75 375.57,-172.75"/>
</a>
</g>
</g>
<!-- Node7 -->
<g id="Node000007" class="node">
<title>Node7</title>
<g id="a_Node000007"><a xlink:href="$class_twig_1_1_environment.html#a5023c2a5ed30e298f55126721092f13d" xlink:title=" ">
<polygon fill="white" stroke="#666666" points="501.75,-67.88 347.75,-67.88 347.75,-48.62 501.75,-48.62 501.75,-67.88"/>
<text text-anchor="middle" x="424.75" y="-54.38" font-family="Helvetica,sans-Serif" font-size="10.00">Twig\Environment\getExtension</text>
</a>
</g>
</g>
<!-- Node6&#45;&gt;Node7 -->
<g id="edge28_Node000006_Node000007" class="edge">
<title>Node6&#45;&gt;Node7</title>
<g id="a_edge28_Node000006_Node000007"><a xlink:title=" ">
<path fill="none" stroke="#63b8ff" d="M311.18,-58.25C319.06,-58.25 327.48,-58.25 336.03,-58.25"/>
<polygon fill="#63b8ff" stroke="#63b8ff" points="335.8,-61.75 345.8,-58.25 335.8,-54.75 335.8,-61.75"/>
</a>
</g>
</g>
<!-- Node8 -->
<g id="Node000008" class="node">
<title>Node8</title>
<g id="a_Node000008"><a xlink:href="$class_twig_1_1_environment.html#ab39d5897ee5022ecc92032d769b9c60c" xlink:title=" ">
<polygon fill="white" stroke="#666666" points="488.62,-30.5 360.88,-30.5 360.88,0 488.62,0 488.62,-30.5"/>
<text text-anchor="start" x="368.88" y="-17" font-family="Helvetica,sans-Serif" font-size="10.00">Twig\Environment\isStrict</text>
<text text-anchor="middle" x="424.75" y="-5.75" font-family="Helvetica,sans-Serif" font-size="10.00">Variables</text>
</a>
</g>
</g>
<!-- Node6&#45;&gt;Node8 -->
<g id="edge29_Node000006_Node000008" class="edge">
<title>Node6&#45;&gt;Node8</title>
<g id="a_edge29_Node000006_Node000008"><a xlink:title=" ">
<path fill="none" stroke="#63b8ff" d="M302.51,-48.17C318.1,-43.93 336.77,-38.87 354.72,-33.99"/>
<polygon fill="#63b8ff" stroke="#63b8ff" points="355.58,-37.38 364.32,-31.39 353.75,-30.63 355.58,-37.38"/>
</a>
</g>
</g>
<!-- Node9&#45;&gt;Node4 -->
<g id="edge33_Node000009_Node000004" class="edge">
<title>Node9&#45;&gt;Node4</title>
<g id="a_edge33_Node000009_Node000004"><a xlink:title=" ">
<path fill="none" stroke="#63b8ff" d="M300.52,-140.46C322.71,-145.64 351.66,-152.41 375.92,-158.08"/>
<polygon fill="#63b8ff" stroke="#63b8ff" points="375.04,-161.46 385.57,-160.33 376.63,-154.65 375.04,-161.46"/>
</a>
</g>
</g>
<!-- Node10 -->
<g id="Node000010" class="node">
<title>Node10</title>
<g id="a_Node000010"><a xlink:href="$class_twig_1_1_environment.html#abca2d528da8311b6fcfe040768cbaa24" xlink:title=" ">
<polygon fill="white" stroke="#666666" points="497.25,-141.88 352.25,-141.88 352.25,-122.62 497.25,-122.62 497.25,-141.88"/>
<text text-anchor="middle" x="424.75" y="-128.38" font-family="Helvetica,sans-Serif" font-size="10.00">Twig\Environment\getCharset</text>
</a>
</g>
</g>
<!-- Node9&#45;&gt;Node10 -->
<g id="edge31_Node000009_Node000010" class="edge">
<title>Node9&#45;&gt;Node10</title>
<g id="a_edge31_Node000009_Node000010"><a xlink:title=" ">
<path fill="none" stroke="#63b8ff" d="M300.52,-132.25C312.53,-132.25 326.52,-132.25 340.68,-132.25"/>
<polygon fill="#63b8ff" stroke="#63b8ff" points="340.52,-135.75 350.52,-132.25 340.52,-128.75 340.52,-135.75"/>
</a>
</g>
</g>
<!-- Node11 -->
<g id="Node000011" class="node">
<title>Node11</title>
<g id="a_Node000011"><a xlink:href="$_core_extension_8php.html#ae288325a1d8fc4e036d1e828d7fac1f6" xlink:title=" ">
<polygon fill="white" stroke="#666666" points="482.62,-104.88 366.88,-104.88 366.88,-85.62 482.62,-85.62 482.62,-104.88"/>
<text text-anchor="middle" x="424.75" y="-91.38" font-family="Helvetica,sans-Serif" font-size="10.00">twig_convert_encoding</text>
</a>
</g>
</g>
<!-- Node9&#45;&gt;Node11 -->
<g id="edge32_Node000009_Node000011" class="edge">
<title>Node9&#45;&gt;Node11</title>
<g id="a_edge32_Node000009_Node000011"><a xlink:title=" ">
<path fill="none" stroke="#63b8ff" d="M300.52,-124.04C320.81,-119.3 346.74,-113.24 369.58,-107.9"/>
<polygon fill="#63b8ff" stroke="#63b8ff" points="370.09,-111.38 379.04,-105.7 368.5,-104.56 370.09,-111.38"/>
</a>
</g>
</g>
</g>
</svg>
