<?xml version="1.0" encoding="UTF-8" standalone="no"?>
<!DOCTYPE svg PUBLIC "-//W3C//DTD SVG 1.1//EN"
 "http://www.w3.org/Graphics/SVG/1.1/DTD/svg11.dtd">
<!-- Generated by graphviz version 10.0.1 (20240210.2158)
 -->
<!-- Title: getEntitiesRestrictCriteria Pages: 1 -->
<svg width="280pt" height="138pt"
 viewBox="0.00 0.00 280.00 138.25" xmlns="http://www.w3.org/2000/svg" xmlns:xlink="http://www.w3.org/1999/xlink">
<g id="graph0" class="graph" transform="scale(1 1) rotate(0) translate(4 134.25)">
<title>getEntitiesRestrictCriteria</title>
<!-- Node1 -->
<g id="Node000001" class="node">
<title>Node1</title>
<g id="a_Node000001"><a xlink:title=" ">
<polygon fill="#999999" stroke="#666666" points="128.5,-74.25 0,-74.25 0,-55 128.5,-55 128.5,-74.25"/>
<text text-anchor="middle" x="64.25" y="-60.75" font-family="Helvetica,sans-Serif" font-size="10.00">getEntitiesRestrictCriteria</text>
</a>
</g>
</g>
<!-- Node2 -->
<g id="Node000002" class="node">
<title>Node2</title>
<g id="a_Node000002"><a xlink:href="$db_8function_8php.html#a8f719c1f960a333fca98ba9b5094805c" xlink:title=" ">
<polygon fill="white" stroke="#666666" points="260.38,-130.25 176.12,-130.25 176.12,-111 260.38,-111 260.38,-130.25"/>
<text text-anchor="middle" x="218.25" y="-116.75" font-family="Helvetica,sans-Serif" font-size="10.00">getAncestorsOf</text>
</a>
</g>
</g>
<!-- Node1&#45;&gt;Node2 -->
<g id="edge9_Node000001_Node000002" class="edge">
<title>Node1&#45;&gt;Node2</title>
<g id="a_edge9_Node000001_Node000002"><a xlink:title=" ">
<path fill="none" stroke="#63b8ff" d="M90.86,-74.73C110.84,-82.54 139.34,-93.52 164.5,-102.62 168.37,-104.02 172.4,-105.46 176.45,-106.87"/>
<polygon fill="#63b8ff" stroke="#63b8ff" points="175.03,-110.08 185.63,-110.04 177.32,-103.47 175.03,-110.08"/>
</a>
</g>
</g>
<!-- Node3 -->
<g id="Node000003" class="node">
<title>Node3</title>
<g id="a_Node000003"><a xlink:href="$class_db_utils.html#a5bb7668a0ab5705035e0608178fabcba" xlink:title=" ">
<polygon fill="white" stroke="#666666" points="269,-93.25 167.5,-93.25 167.5,-74 269,-74 269,-93.25"/>
<text text-anchor="middle" x="218.25" y="-79.75" font-family="Helvetica,sans-Serif" font-size="10.00">getItemForItemtype</text>
</a>
</g>
</g>
<!-- Node1&#45;&gt;Node3 -->
<g id="edge10_Node000001_Node000003" class="edge">
<title>Node1&#45;&gt;Node3</title>
<g id="a_edge10_Node000001_Node000003"><a xlink:title=" ">
<path fill="none" stroke="#63b8ff" d="M128.83,-72.57C137.87,-73.7 147.15,-74.86 156.14,-75.99"/>
<polygon fill="#63b8ff" stroke="#63b8ff" points="155.47,-79.43 165.83,-77.2 156.34,-72.48 155.47,-79.43"/>
</a>
</g>
</g>
<!-- Node4 -->
<g id="Node000004" class="node">
<title>Node4</title>
<g id="a_Node000004"><a xlink:href="$db_8function_8php.html#a91adb262d3b5c32d0aecb58855d84fe2" xlink:title=" ">
<polygon fill="white" stroke="#666666" points="272,-56.25 164.5,-56.25 164.5,-37 272,-37 272,-56.25"/>
<text text-anchor="middle" x="218.25" y="-42.75" font-family="Helvetica,sans-Serif" font-size="10.00">getItemTypeForTable</text>
</a>
</g>
</g>
<!-- Node1&#45;&gt;Node4 -->
<g id="edge11_Node000001_Node000004" class="edge">
<title>Node1&#45;&gt;Node4</title>
<g id="a_edge11_Node000001_Node000004"><a xlink:title=" ">
<path fill="none" stroke="#63b8ff" d="M128.83,-57.1C136.7,-56.16 144.76,-55.21 152.64,-54.28"/>
<polygon fill="#63b8ff" stroke="#63b8ff" points="153.01,-57.76 162.53,-53.1 152.19,-50.81 153.01,-57.76"/>
</a>
</g>
</g>
<!-- Node5 -->
<g id="Node000005" class="node">
<title>Node5</title>
<g id="a_Node000005"><a xlink:href="$autoload_8function_8php.html#ab4e318ad07e38b1cd122362832786aca" xlink:title=" ">
<polygon fill="white" stroke="#666666" points="261.5,-19.25 175,-19.25 175,0 261.5,0 261.5,-19.25"/>
<text text-anchor="middle" x="218.25" y="-5.75" font-family="Helvetica,sans-Serif" font-size="10.00">isCommandLine</text>
</a>
</g>
</g>
<!-- Node1&#45;&gt;Node5 -->
<g id="edge12_Node000001_Node000005" class="edge">
<title>Node1&#45;&gt;Node5</title>
<g id="a_edge12_Node000001_Node000005"><a xlink:title=" ">
<path fill="none" stroke="#63b8ff" d="M91.72,-54.53C111.67,-46.97 139.73,-36.46 164.5,-27.62 168.42,-26.23 172.52,-24.79 176.61,-23.36"/>
<polygon fill="#63b8ff" stroke="#63b8ff" points="177.6,-26.72 185.92,-20.16 175.32,-20.11 177.6,-26.72"/>
</a>
</g>
</g>
</g>
</svg>
