<?xml version="1.0" encoding="UTF-8" standalone="no"?>
<!DOCTYPE svg PUBLIC "-//W3C//DTD SVG 1.1//EN"
 "http://www.w3.org/Graphics/SVG/1.1/DTD/svg11.dtd">
<!-- Generated by graphviz version 10.0.1 (20240210.2158)
 -->
<!-- Title: getAdditionalFields Pages: 1 -->
<svg width="466pt" height="39pt"
 viewBox="0.00 0.00 466.25 38.50" xmlns="http://www.w3.org/2000/svg" xmlns:xlink="http://www.w3.org/1999/xlink">
<g id="graph0" class="graph" transform="scale(1 1) rotate(0) translate(4 34.5)">
<title>getAdditionalFields</title>
<!-- Node1 -->
<g id="Node000001" class="node">
<title>Node1</title>
<g id="a_Node000001"><a xlink:title=" ">
<polygon fill="#999999" stroke="#666666" points="98.5,-24.88 0,-24.88 0,-5.63 98.5,-5.63 98.5,-24.88"/>
<text text-anchor="middle" x="49.25" y="-11.38" font-family="Helvetica,sans-Serif" font-size="10.00">getAdditionalFields</text>
</a>
</g>
</g>
<!-- Node2 -->
<g id="Node000002" class="node">
<title>Node2</title>
<g id="a_Node000002"><a xlink:href="$class_common_d_b_t_m.html#a6894cb7a103d230916404731925df253" xlink:title=" ">
<polygon fill="white" stroke="#666666" points="284.75,-30.5 134.5,-30.5 134.5,0 284.75,0 284.75,-30.5"/>
<text text-anchor="start" x="142.5" y="-17" font-family="Helvetica,sans-Serif" font-size="10.00">CommonDBTM\getForeignKey</text>
<text text-anchor="middle" x="209.62" y="-5.75" font-family="Helvetica,sans-Serif" font-size="10.00">Field</text>
</a>
</g>
</g>
<!-- Node1&#45;&gt;Node2 -->
<g id="edge5_Node000001_Node000002" class="edge">
<title>Node1&#45;&gt;Node2</title>
<g id="a_edge5_Node000001_Node000002"><a xlink:title=" ">
<path fill="none" stroke="#63b8ff" d="M98.63,-15.25C106.38,-15.25 114.61,-15.25 122.92,-15.25"/>
<polygon fill="#63b8ff" stroke="#63b8ff" points="122.78,-18.75 132.78,-15.25 122.78,-11.75 122.78,-18.75"/>
</a>
</g>
</g>
<!-- Node3 -->
<g id="Node000003" class="node">
<title>Node3</title>
<g id="a_Node000003"><a xlink:href="$db_8function_8php.html#a0ddaf6f690dbc7aa7490ad91b9fae0a0" xlink:title=" ">
<polygon fill="white" stroke="#666666" points="458.25,-24.88 320.75,-24.88 320.75,-5.63 458.25,-5.63 458.25,-24.88"/>
<text text-anchor="middle" x="389.5" y="-11.38" font-family="Helvetica,sans-Serif" font-size="10.00">getForeignKeyFieldForTable</text>
</a>
</g>
</g>
<!-- Node2&#45;&gt;Node3 -->
<g id="edge6_Node000002_Node000003" class="edge">
<title>Node2&#45;&gt;Node3</title>
<g id="a_edge6_Node000002_Node000003"><a xlink:title=" ">
<path fill="none" stroke="#63b8ff" d="M285.03,-15.25C292.9,-15.25 300.92,-15.25 308.84,-15.25"/>
<polygon fill="#63b8ff" stroke="#63b8ff" points="308.84,-18.75 318.84,-15.25 308.84,-11.75 308.84,-18.75"/>
</a>
</g>
</g>
</g>
</svg>
