<?xml version="1.0" encoding="UTF-8" standalone="no"?>
<!DOCTYPE svg PUBLIC "-//W3C//DTD SVG 1.1//EN"
 "http://www.w3.org/Graphics/SVG/1.1/DTD/svg11.dtd">
<!-- Generated by graphviz version 10.0.1 (20240210.2158)
 -->
<!-- Title: _escapeXML Pages: 1 -->
<svg width="733pt" height="64pt"
 viewBox="0.00 0.00 732.50 64.25" xmlns="http://www.w3.org/2000/svg" xmlns:xlink="http://www.w3.org/1999/xlink">
<g id="graph0" class="graph" transform="scale(1 1) rotate(0) translate(4 60.25)">
<title>_escapeXML</title>
<!-- Node1 -->
<g id="Node000001" class="node">
<title>Node1</title>
<g id="a_Node000001"><a xlink:title=" ">
<polygon fill="#999999" stroke="#666666" points="724.5,-37.25 651.5,-37.25 651.5,-18 724.5,-18 724.5,-37.25"/>
<text text-anchor="middle" x="688" y="-23.75" font-family="Helvetica,sans-Serif" font-size="10.00">_escapeXML</text>
</a>
</g>
</g>
<!-- Node2 -->
<g id="Node000002" class="node">
<title>Node2</title>
<g id="a_Node000002"><a xlink:href="$class_t_c_p_d_f.html#aa2ef7a31b85abd205dda935a274cf8d1" xlink:title=" ">
<polygon fill="white" stroke="#666666" points="615.5,-37.25 522.25,-37.25 522.25,-18 615.5,-18 615.5,-37.25"/>
<text text-anchor="middle" x="568.88" y="-23.75" font-family="Helvetica,sans-Serif" font-size="10.00">TCPDF\_putXMP</text>
</a>
</g>
</g>
<!-- Node1&#45;&gt;Node2 -->
<g id="edge13_Node000001_Node000002" class="edge">
<title>Node1&#45;&gt;Node2</title>
<g id="a_edge13_Node000001_Node000002"><a xlink:title=" ">
<path fill="none" stroke="#63b8ff" d="M639.88,-27.62C631.94,-27.62 623.72,-27.62 615.81,-27.62"/>
<polygon fill="#63b8ff" stroke="#63b8ff" points="639.71,-31.13 649.71,-27.63 639.71,-24.13 639.71,-31.13"/>
</a>
</g>
</g>
<!-- Node3 -->
<g id="Node000003" class="node">
<title>Node3</title>
<g id="a_Node000003"><a xlink:href="$class_t_c_p_d_f.html#a02167c095457b931f89d6be819d33286" xlink:title=" ">
<polygon fill="white" stroke="#666666" points="486.25,-37.25 383.25,-37.25 383.25,-18 486.25,-18 486.25,-37.25"/>
<text text-anchor="middle" x="434.75" y="-23.75" font-family="Helvetica,sans-Serif" font-size="10.00">TCPDF\_putcatalog</text>
</a>
</g>
</g>
<!-- Node2&#45;&gt;Node3 -->
<g id="edge14_Node000002_Node000003" class="edge">
<title>Node2&#45;&gt;Node3</title>
<g id="a_edge14_Node000002_Node000003"><a xlink:title=" ">
<path fill="none" stroke="#63b8ff" d="M510.78,-27.62C502.7,-27.62 494.43,-27.62 486.48,-27.62"/>
<polygon fill="#63b8ff" stroke="#63b8ff" points="510.52,-31.13 520.52,-27.63 510.52,-24.13 510.52,-31.13"/>
</a>
</g>
</g>
<!-- Node4 -->
<g id="Node000004" class="node">
<title>Node4</title>
<g id="a_Node000004"><a xlink:href="$class_t_c_p_d_f.html#ad83ac6a1b1122bcf6fd1fee89e530257" xlink:title=" ">
<polygon fill="white" stroke="#666666" points="347.25,-37.25 257.75,-37.25 257.75,-18 347.25,-18 347.25,-37.25"/>
<text text-anchor="middle" x="302.5" y="-23.75" font-family="Helvetica,sans-Serif" font-size="10.00">TCPDF\_enddoc</text>
</a>
</g>
</g>
<!-- Node3&#45;&gt;Node4 -->
<g id="edge15_Node000003_Node000004" class="edge">
<title>Node3&#45;&gt;Node4</title>
<g id="a_edge15_Node000003_Node000004"><a xlink:title=" ">
<path fill="none" stroke="#63b8ff" d="M371.61,-27.62C363.48,-27.62 355.28,-27.62 347.53,-27.62"/>
<polygon fill="#63b8ff" stroke="#63b8ff" points="371.51,-31.13 381.51,-27.63 371.51,-24.13 371.51,-31.13"/>
</a>
</g>
</g>
<!-- Node5 -->
<g id="Node000005" class="node">
<title>Node5</title>
<g id="a_Node000005"><a xlink:href="$class_t_c_p_d_f.html#a2fd4e06444aa4ace4cab6d6950ba2bb2" xlink:title=" ">
<polygon fill="white" stroke="#666666" points="221.75,-37.25 143.5,-37.25 143.5,-18 221.75,-18 221.75,-37.25"/>
<text text-anchor="middle" x="182.62" y="-23.75" font-family="Helvetica,sans-Serif" font-size="10.00">TCPDF\Close</text>
</a>
</g>
</g>
<!-- Node4&#45;&gt;Node5 -->
<g id="edge16_Node000004_Node000005" class="edge">
<title>Node4&#45;&gt;Node5</title>
<g id="a_edge16_Node000004_Node000005"><a xlink:title=" ">
<path fill="none" stroke="#63b8ff" d="M245.91,-27.62C237.79,-27.62 229.58,-27.62 221.91,-27.62"/>
<polygon fill="#63b8ff" stroke="#63b8ff" points="245.76,-31.13 255.76,-27.63 245.76,-24.13 245.76,-31.13"/>
</a>
</g>
</g>
<!-- Node6 -->
<g id="Node000006" class="node">
<title>Node6</title>
<g id="a_Node000006"><a xlink:href="$class_t_c_p_d_f.html#add9256af326a3df4c577f914fe641c5c" xlink:title=" ">
<polygon fill="white" stroke="#666666" points="107.5,-56.25 0,-56.25 0,-37 107.5,-37 107.5,-56.25"/>
<text text-anchor="middle" x="53.75" y="-42.75" font-family="Helvetica,sans-Serif" font-size="10.00">TCPDF\getPDFData</text>
</a>
</g>
</g>
<!-- Node5&#45;&gt;Node6 -->
<g id="edge17_Node000005_Node000006" class="edge">
<title>Node5&#45;&gt;Node6</title>
<g id="a_edge17_Node000005_Node000006"><a xlink:title=" ">
<path fill="none" stroke="#63b8ff" d="M132.1,-35.04C124.04,-36.25 115.67,-37.5 107.54,-38.72"/>
<polygon fill="#63b8ff" stroke="#63b8ff" points="132.35,-38.54 141.72,-33.6 131.31,-31.62 132.35,-38.54"/>
</a>
</g>
</g>
<!-- Node7 -->
<g id="Node000007" class="node">
<title>Node7</title>
<g id="a_Node000007"><a xlink:href="$class_t_c_p_d_f.html#acd3345feb73cd6addc7ab266fa583e33" xlink:title=" ">
<polygon fill="white" stroke="#666666" points="94.75,-19.25 12.75,-19.25 12.75,0 94.75,0 94.75,-19.25"/>
<text text-anchor="middle" x="53.75" y="-5.75" font-family="Helvetica,sans-Serif" font-size="10.00">TCPDF\Output</text>
</a>
</g>
</g>
<!-- Node5&#45;&gt;Node7 -->
<g id="edge18_Node000005_Node000007" class="edge">
<title>Node5&#45;&gt;Node7</title>
<g id="a_edge18_Node000005_Node000007"><a xlink:title=" ">
<path fill="none" stroke="#63b8ff" d="M131.85,-20.56C119.72,-18.84 106.88,-17.02 95.23,-15.37"/>
<polygon fill="#63b8ff" stroke="#63b8ff" points="131.32,-24.02 141.72,-21.96 132.31,-17.09 131.32,-24.02"/>
</a>
</g>
</g>
</g>
</svg>
