<?xml version="1.0" encoding="UTF-8" standalone="no"?>
<!DOCTYPE svg PUBLIC "-//W3C//DTD SVG 1.1//EN"
 "http://www.w3.org/Graphics/SVG/1.1/DTD/svg11.dtd">
<!-- Generated by graphviz version 10.0.1 (20240210.2158)
 -->
<!-- Title: Scale Pages: 1 -->
<svg width="139pt" height="249pt"
 viewBox="0.00 0.00 139.00 249.25" xmlns="http://www.w3.org/2000/svg" xmlns:xlink="http://www.w3.org/1999/xlink">
<g id="graph0" class="graph" transform="scale(1 1) rotate(0) translate(4 245.25)">
<title>Scale</title>
<!-- Node1 -->
<g id="Node000001" class="node">
<title>Node1</title>
<g id="a_Node000001"><a xlink:title=" ">
<polygon fill="#999999" stroke="#666666" points="131,-130.25 90.25,-130.25 90.25,-111 131,-111 131,-130.25"/>
<text text-anchor="middle" x="110.62" y="-116.75" font-family="Helvetica,sans-Serif" font-size="10.00">Scale</text>
</a>
</g>
</g>
<!-- Node2 -->
<g id="Node000002" class="node">
<title>Node2</title>
<g id="a_Node000002"><a xlink:href="$class_t_c_p_d_f.html#a8af8b8487c6832a6620270dcc279c697" xlink:title=" ">
<polygon fill="white" stroke="#666666" points="51.25,-241.25 3,-241.25 3,-222 51.25,-222 51.25,-241.25"/>
<text text-anchor="middle" x="27.12" y="-227.75" font-family="Helvetica,sans-Serif" font-size="10.00">MirrorH</text>
</a>
</g>
</g>
<!-- Node1&#45;&gt;Node2 -->
<g id="edge15_Node000001_Node000002" class="edge">
<title>Node1&#45;&gt;Node2</title>
<g id="a_edge15_Node000001_Node000002"><a xlink:title=" ">
<path fill="none" stroke="#63b8ff" d="M100.71,-140.92C91.22,-160.96 74.75,-191.72 54.25,-213.62 51.54,-216.52 48.29,-219.21 45.01,-221.58"/>
<polygon fill="#63b8ff" stroke="#63b8ff" points="103.87,-142.43 104.84,-131.88 97.5,-139.52 103.87,-142.43"/>
</a>
</g>
</g>
<!-- Node3 -->
<g id="Node000003" class="node">
<title>Node3</title>
<g id="a_Node000003"><a xlink:href="$class_t_c_p_d_f.html#aca4b587d836caa7271498054a8917c90" xlink:title=" ">
<polygon fill="white" stroke="#666666" points="50.12,-204.25 4.12,-204.25 4.12,-185 50.12,-185 50.12,-204.25"/>
<text text-anchor="middle" x="27.12" y="-190.75" font-family="Helvetica,sans-Serif" font-size="10.00">MirrorL</text>
</a>
</g>
</g>
<!-- Node1&#45;&gt;Node3 -->
<g id="edge16_Node000001_Node000003" class="edge">
<title>Node1&#45;&gt;Node3</title>
<g id="a_edge16_Node000001_Node000003"><a xlink:title=" ">
<path fill="none" stroke="#63b8ff" d="M93.11,-139.01C82.5,-150.39 68.15,-164.99 54.25,-176.62 50.96,-179.38 47.24,-182.13 43.67,-184.62"/>
<polygon fill="#63b8ff" stroke="#63b8ff" points="95.53,-141.55 99.71,-131.81 90.37,-136.82 95.53,-141.55"/>
</a>
</g>
</g>
<!-- Node4 -->
<g id="Node000004" class="node">
<title>Node4</title>
<g id="a_Node000004"><a xlink:href="$class_t_c_p_d_f.html#a0cc4ef9530db693ad7fba412eee7f05a" xlink:title=" ">
<polygon fill="white" stroke="#666666" points="50.88,-167.25 3.38,-167.25 3.38,-148 50.88,-148 50.88,-167.25"/>
<text text-anchor="middle" x="27.12" y="-153.75" font-family="Helvetica,sans-Serif" font-size="10.00">MirrorP</text>
</a>
</g>
</g>
<!-- Node1&#45;&gt;Node4 -->
<g id="edge17_Node000001_Node000004" class="edge">
<title>Node1&#45;&gt;Node4</title>
<g id="a_edge17_Node000001_Node000004"><a xlink:title=" ">
<path fill="none" stroke="#63b8ff" d="M79.46,-134.32C69.78,-138.71 59.25,-143.49 50.26,-147.58"/>
<polygon fill="#63b8ff" stroke="#63b8ff" points="80.86,-137.53 88.52,-130.21 77.97,-131.15 80.86,-137.53"/>
</a>
</g>
</g>
<!-- Node5 -->
<g id="Node000005" class="node">
<title>Node5</title>
<g id="a_Node000005"><a xlink:href="$class_t_c_p_d_f.html#a01ee0807acbf120913f079547f8ca85d" xlink:title=" ">
<polygon fill="white" stroke="#666666" points="50.88,-130.25 3.38,-130.25 3.38,-111 50.88,-111 50.88,-130.25"/>
<text text-anchor="middle" x="27.12" y="-116.75" font-family="Helvetica,sans-Serif" font-size="10.00">MirrorV</text>
</a>
</g>
</g>
<!-- Node1&#45;&gt;Node5 -->
<g id="edge18_Node000001_Node000005" class="edge">
<title>Node1&#45;&gt;Node5</title>
<g id="a_edge18_Node000001_Node000005"><a xlink:title=" ">
<path fill="none" stroke="#63b8ff" d="M78.5,-120.62C69.4,-120.62 59.63,-120.62 51.14,-120.62"/>
<polygon fill="#63b8ff" stroke="#63b8ff" points="78.38,-124.13 88.38,-120.63 78.38,-117.13 78.38,-124.13"/>
</a>
</g>
</g>
<!-- Node6 -->
<g id="Node000006" class="node">
<title>Node6</title>
<g id="a_Node000006"><a xlink:href="$class_t_c_p_d_f.html#a18c34b49ac118ff90b6febe6a611bb78" xlink:title=" ">
<polygon fill="white" stroke="#666666" points="50.88,-93.25 3.38,-93.25 3.38,-74 50.88,-74 50.88,-93.25"/>
<text text-anchor="middle" x="27.12" y="-79.75" font-family="Helvetica,sans-Serif" font-size="10.00">ScaleX</text>
</a>
</g>
</g>
<!-- Node1&#45;&gt;Node6 -->
<g id="edge19_Node000001_Node000006" class="edge">
<title>Node1&#45;&gt;Node6</title>
<g id="a_edge19_Node000001_Node000006"><a xlink:title=" ">
<path fill="none" stroke="#63b8ff" d="M79.46,-106.93C69.78,-102.54 59.25,-97.76 50.26,-93.67"/>
<polygon fill="#63b8ff" stroke="#63b8ff" points="77.97,-110.1 88.52,-111.04 80.86,-103.72 77.97,-110.1"/>
</a>
</g>
</g>
<!-- Node7 -->
<g id="Node000007" class="node">
<title>Node7</title>
<g id="a_Node000007"><a xlink:href="$class_t_c_p_d_f.html#a829b112259b366fd83f0ec5b443d73d6" xlink:title=" ">
<polygon fill="white" stroke="#666666" points="54.25,-56.25 0,-56.25 0,-37 54.25,-37 54.25,-56.25"/>
<text text-anchor="middle" x="27.12" y="-42.75" font-family="Helvetica,sans-Serif" font-size="10.00">ScaleXY</text>
</a>
</g>
</g>
<!-- Node1&#45;&gt;Node7 -->
<g id="edge20_Node000001_Node000007" class="edge">
<title>Node1&#45;&gt;Node7</title>
<g id="a_edge20_Node000001_Node000007"><a xlink:title=" ">
<path fill="none" stroke="#63b8ff" d="M93.11,-102.24C82.5,-90.86 68.15,-76.26 54.25,-64.62 50.96,-61.87 47.24,-59.12 43.67,-56.63"/>
<polygon fill="#63b8ff" stroke="#63b8ff" points="90.37,-104.43 99.71,-109.44 95.53,-99.7 90.37,-104.43"/>
</a>
</g>
</g>
<!-- Node8 -->
<g id="Node000008" class="node">
<title>Node8</title>
<g id="a_Node000008"><a xlink:href="$class_t_c_p_d_f.html#a7361015152a8135faf01ac82e74b19ee" xlink:title=" ">
<polygon fill="white" stroke="#666666" points="50.88,-19.25 3.38,-19.25 3.38,0 50.88,0 50.88,-19.25"/>
<text text-anchor="middle" x="27.12" y="-5.75" font-family="Helvetica,sans-Serif" font-size="10.00">ScaleY</text>
</a>
</g>
</g>
<!-- Node1&#45;&gt;Node8 -->
<g id="edge21_Node000001_Node000008" class="edge">
<title>Node1&#45;&gt;Node8</title>
<g id="a_edge21_Node000001_Node000008"><a xlink:title=" ">
<path fill="none" stroke="#63b8ff" d="M100.71,-100.33C91.22,-80.29 74.75,-49.53 54.25,-27.62 51.54,-24.73 48.29,-22.04 45.01,-19.67"/>
<polygon fill="#63b8ff" stroke="#63b8ff" points="97.5,-101.73 104.84,-109.37 103.87,-98.82 97.5,-101.73"/>
</a>
</g>
</g>
</g>
</svg>
