<?xml version="1.0" encoding="UTF-8" standalone="no"?>
<!DOCTYPE svg PUBLIC "-//W3C//DTD SVG 1.1//EN"
 "http://www.w3.org/Graphics/SVG/1.1/DTD/svg11.dtd">
<!-- Generated by graphviz version 10.0.1 (20240210.2158)
 -->
<!-- Title: SimplePie_Cache_Memcache Pages: 1 -->
<svg width="149pt" height="453pt"
 viewBox="0.00 0.00 149.00 452.50" xmlns="http://www.w3.org/2000/svg" xmlns:xlink="http://www.w3.org/1999/xlink">
<g id="graph0" class="graph" transform="scale(1 1) rotate(0) translate(4 448.5)">
<title>SimplePie_Cache_Memcache</title>
<!-- Node1 -->
<g id="Node000001" class="node">
<title>Node1</title>
<g id="a_Node000001"><a xlink:title=" ">
<polygon fill="#999999" stroke="none" points="141,-165 0,-165 0,0 141,0 141,-165"/>
<text text-anchor="start" x="4.88" y="-151.5" font-family="Helvetica,sans-Serif" font-size="10.00">SimplePie_Cache_Memcache</text>
<text text-anchor="start" x="10.88" y="-136.5" font-family="Helvetica,sans-Serif" font-size="10.00">#</text>
<text text-anchor="start" x="27" y="-136.5" font-family="Helvetica,sans-Serif" font-size="10.00">$cache</text>
<text text-anchor="start" x="10.88" y="-121.5" font-family="Helvetica,sans-Serif" font-size="10.00">#</text>
<text text-anchor="start" x="27" y="-121.5" font-family="Helvetica,sans-Serif" font-size="10.00">$options</text>
<text text-anchor="start" x="10.88" y="-106.5" font-family="Helvetica,sans-Serif" font-size="10.00">#</text>
<text text-anchor="start" x="27" y="-106.5" font-family="Helvetica,sans-Serif" font-size="10.00">$name</text>
<text text-anchor="start" x="10.5" y="-91.5" font-family="Helvetica,sans-Serif" font-size="10.00">+</text>
<text text-anchor="start" x="27" y="-91.5" font-family="Helvetica,sans-Serif" font-size="10.00">__construct($location,</text>
<text text-anchor="start" x="27" y="-80.25" font-family="Helvetica,sans-Serif" font-size="10.00"> $name, $type)</text>
<text text-anchor="start" x="10.5" y="-65.5" font-family="Helvetica,sans-Serif" font-size="10.00">+</text>
<text text-anchor="start" x="27" y="-65.5" font-family="Helvetica,sans-Serif" font-size="10.00">save($data)</text>
<text text-anchor="start" x="10.5" y="-50.5" font-family="Helvetica,sans-Serif" font-size="10.00">+</text>
<text text-anchor="start" x="27" y="-50.5" font-family="Helvetica,sans-Serif" font-size="10.00">load()</text>
<text text-anchor="start" x="10.5" y="-35.5" font-family="Helvetica,sans-Serif" font-size="10.00">+</text>
<text text-anchor="start" x="27" y="-35.5" font-family="Helvetica,sans-Serif" font-size="10.00">mtime()</text>
<text text-anchor="start" x="10.5" y="-20.5" font-family="Helvetica,sans-Serif" font-size="10.00">+</text>
<text text-anchor="start" x="27" y="-20.5" font-family="Helvetica,sans-Serif" font-size="10.00">touch()</text>
<text text-anchor="start" x="10.5" y="-5.5" font-family="Helvetica,sans-Serif" font-size="10.00">+</text>
<text text-anchor="start" x="27" y="-5.5" font-family="Helvetica,sans-Serif" font-size="10.00">unlink()</text>
<polygon fill="#666666" stroke="#666666" points="0,-148 0,-148 141,-148 141,-148 0,-148"/>
<polygon fill="#666666" stroke="#666666" points="0,-103 0,-103 25,-103 25,-103 0,-103"/>
<polygon fill="#666666" stroke="#666666" points="25,-103 25,-103 141,-103 141,-103 25,-103"/>
<polygon fill="none" stroke="#666666" points="0,0 0,-165 141,-165 141,0 0,0"/>
</a>
</g>
</g>
<!-- Node2 -->
<g id="Node000002" class="node">
<title>Node2</title>
<g id="a_Node000002"><a xlink:href="$interface_simple_pie___cache___base.html" xlink:title=" ">
<polygon fill="white" stroke="none" points="128,-337 13,-337 13,-202 128,-202 128,-337"/>
<text text-anchor="start" x="17.62" y="-323.5" font-family="Helvetica,sans-Serif" font-size="10.00">SimplePie_Cache_Base</text>
<text text-anchor="start" x="69" y="-308.5" font-family="Helvetica,sans-Serif" font-size="10.00"> </text>
<text text-anchor="start" x="17" y="-293.5" font-family="Helvetica,sans-Serif" font-size="10.00">+</text>
<text text-anchor="start" x="27" y="-293.5" font-family="Helvetica,sans-Serif" font-size="10.00">__construct($location,</text>
<text text-anchor="start" x="27" y="-282.25" font-family="Helvetica,sans-Serif" font-size="10.00"> $name, $type)</text>
<text text-anchor="start" x="17" y="-267.5" font-family="Helvetica,sans-Serif" font-size="10.00">+</text>
<text text-anchor="start" x="27" y="-267.5" font-family="Helvetica,sans-Serif" font-size="10.00">save($data)</text>
<text text-anchor="start" x="17" y="-252.5" font-family="Helvetica,sans-Serif" font-size="10.00">+</text>
<text text-anchor="start" x="27" y="-252.5" font-family="Helvetica,sans-Serif" font-size="10.00">load()</text>
<text text-anchor="start" x="17" y="-237.5" font-family="Helvetica,sans-Serif" font-size="10.00">+</text>
<text text-anchor="start" x="27" y="-237.5" font-family="Helvetica,sans-Serif" font-size="10.00">mtime()</text>
<text text-anchor="start" x="17" y="-222.5" font-family="Helvetica,sans-Serif" font-size="10.00">+</text>
<text text-anchor="start" x="27" y="-222.5" font-family="Helvetica,sans-Serif" font-size="10.00">touch()</text>
<text text-anchor="start" x="17" y="-207.5" font-family="Helvetica,sans-Serif" font-size="10.00">+</text>
<text text-anchor="start" x="27" y="-207.5" font-family="Helvetica,sans-Serif" font-size="10.00">unlink()</text>
<polygon fill="#666666" stroke="#666666" points="13,-320 13,-320 128,-320 128,-320 13,-320"/>
<polygon fill="#666666" stroke="#666666" points="13,-305 13,-305 128,-305 128,-305 13,-305"/>
<polygon fill="none" stroke="#666666" points="13,-202 13,-337 128,-337 128,-202 13,-202"/>
</a>
</g>
</g>
<!-- Node2&#45;&gt;Node1 -->
<g id="edge5_Node000001_Node000002" class="edge">
<title>Node2&#45;&gt;Node1</title>
<g id="a_edge5_Node000001_Node000002"><a xlink:title=" ">
<path fill="none" stroke="#63b8ff" d="M70.5,-190.99C70.5,-182.34 70.5,-173.5 70.5,-164.81"/>
<polygon fill="none" stroke="#63b8ff" points="67,-190.72 70.5,-200.72 74,-190.72 67,-190.72"/>
</a>
</g>
</g>
<!-- Node3 -->
<g id="Node000003" class="node">
<title>Node3</title>
<g id="a_Node000003"><a xlink:title=" ">
<polygon fill="white" stroke="none" points="87.5,-444.5 53.5,-444.5 53.5,-395.5 87.5,-395.5 87.5,-444.5"/>
<text text-anchor="start" x="58.5" y="-431" font-family="Helvetica,sans-Serif" font-size="10.00">const</text>
<text text-anchor="start" x="69" y="-416" font-family="Helvetica,sans-Serif" font-size="10.00"> </text>
<text text-anchor="start" x="69" y="-401" font-family="Helvetica,sans-Serif" font-size="10.00"> </text>
<polygon fill="#666666" stroke="#666666" points="53.5,-427.5 53.5,-427.5 87.5,-427.5 87.5,-427.5 53.5,-427.5"/>
<polygon fill="#666666" stroke="#666666" points="53.5,-412.5 53.5,-412.5 87.5,-412.5 87.5,-412.5 53.5,-412.5"/>
<polygon fill="none" stroke="#666666" points="53.5,-395.5 53.5,-444.5 87.5,-444.5 87.5,-395.5 53.5,-395.5"/>
</a>
</g>
</g>
<!-- Node3&#45;&gt;Node2 -->
<g id="edge6_Node000002_Node000003" class="edge">
<title>Node3&#45;&gt;Node2</title>
<g id="a_edge6_Node000002_Node000003"><a xlink:title=" ">
<path fill="none" stroke="#63b8ff" d="M70.5,-395.8C70.5,-383.12 70.5,-366.6 70.5,-349.73"/>
<polygon fill="none" stroke="#63b8ff" points="70.5,-349.73 66.5,-343.73 70.5,-337.73 74.5,-343.72 70.5,-349.73"/>
</a>
</g>
<text text-anchor="middle" x="105.38" y="-368" font-family="Helvetica,sans-Serif" font-size="10.00" fill="grey"> +TYPE_FEED</text>
<text text-anchor="middle" x="105.38" y="-356.75" font-family="Helvetica,sans-Serif" font-size="10.00" fill="grey">+TYPE_IMAGE</text>
</g>
</g>
</svg>
