<?xml version="1.0" encoding="UTF-8" standalone="no"?>
<!DOCTYPE svg PUBLIC "-//W3C//DTD SVG 1.1//EN"
 "http://www.w3.org/Graphics/SVG/1.1/DTD/svg11.dtd">
<!-- Generated by graphviz version 10.0.1 (20240210.2158)
 -->
<!-- Title: displayTitle Pages: 1 -->
<svg width="688pt" height="100pt"
 viewBox="0.00 0.00 688.25 100.30" xmlns="http://www.w3.org/2000/svg" xmlns:xlink="http://www.w3.org/1999/xlink">
<g id="graph0" class="graph" transform="scale(1 1) rotate(0) translate(4 96.3)">
<title>displayTitle</title>
<!-- Node1 -->
<g id="Node000001" class="node">
<title>Node1</title>
<g id="a_Node000001"><a xlink:title=" ">
<polygon fill="#999999" stroke="#666666" points="65.5,-37.25 0,-37.25 0,-18 65.5,-18 65.5,-37.25"/>
<text text-anchor="middle" x="32.75" y="-23.75" font-family="Helvetica,sans-Serif" font-size="10.00">displayTitle</text>
</a>
</g>
</g>
<!-- Node2 -->
<g id="Node000002" class="node">
<title>Node2</title>
<g id="a_Node000002"><a xlink:href="$class_html.html#aab149d32ba500a77c832bd2836c143e1" xlink:title=" ">
<polygon fill="white" stroke="#666666" points="168.88,-56.25 126.62,-56.25 126.62,-37 168.88,-37 168.88,-56.25"/>
<text text-anchor="middle" x="147.75" y="-42.75" font-family="Helvetica,sans-Serif" font-size="10.00">image</text>
</a>
</g>
</g>
<!-- Node1&#45;&gt;Node2 -->
<g id="edge19_Node000001_Node000002" class="edge">
<title>Node1&#45;&gt;Node2</title>
<g id="a_edge19_Node000001_Node000002"><a xlink:title=" ">
<path fill="none" stroke="#63b8ff" d="M65.83,-33.02C81.32,-35.62 99.85,-38.74 115.27,-41.33"/>
<polygon fill="#63b8ff" stroke="#63b8ff" points="114.41,-44.74 124.86,-42.94 115.57,-37.83 114.41,-44.74"/>
</a>
</g>
</g>
<!-- Node8 -->
<g id="Node000008" class="node">
<title>Node8</title>
<g id="a_Node000008"><a xlink:href="$class_toolbox.html#a3459a2e0aa476803c4d0864d4d6716ac" xlink:title=" ">
<polygon fill="white" stroke="#666666" points="194,-19.25 101.5,-19.25 101.5,0 194,0 194,-19.25"/>
<text text-anchor="middle" x="147.75" y="-5.75" font-family="Helvetica,sans-Serif" font-size="10.00">Toolbox\stripTags</text>
</a>
</g>
</g>
<!-- Node1&#45;&gt;Node8 -->
<g id="edge27_Node000001_Node000008" class="edge">
<title>Node1&#45;&gt;Node8</title>
<g id="a_edge27_Node000001_Node000008"><a xlink:title=" ">
<path fill="none" stroke="#63b8ff" d="M65.83,-22.52C73.37,-21.31 81.62,-20 89.88,-18.68"/>
<polygon fill="#63b8ff" stroke="#63b8ff" points="90.27,-22.17 99.6,-17.14 89.17,-15.25 90.27,-22.17"/>
</a>
</g>
</g>
<!-- Node3 -->
<g id="Node000003" class="node">
<title>Node3</title>
<g id="a_Node000003"><a xlink:href="$class_html.html#a9b9abcaec3171d20a4ffc10f006bc250" xlink:title=" ">
<polygon fill="white" stroke="#666666" points="261,-75.25 230,-75.25 230,-56 261,-56 261,-75.25"/>
<text text-anchor="middle" x="245.5" y="-61.75" font-family="Helvetica,sans-Serif" font-size="10.00">link</text>
</a>
</g>
</g>
<!-- Node2&#45;&gt;Node3 -->
<g id="edge20_Node000002_Node000003" class="edge">
<title>Node2&#45;&gt;Node3</title>
<g id="a_edge20_Node000002_Node000003"><a xlink:title=" ">
<path fill="none" stroke="#63b8ff" d="M169.06,-50.65C183.49,-53.52 203,-57.39 218.56,-60.48"/>
<polygon fill="#63b8ff" stroke="#63b8ff" points="217.57,-63.85 228.06,-62.36 218.93,-56.98 217.57,-63.85"/>
</a>
</g>
</g>
<!-- Node6 -->
<g id="Node000006" class="node">
<title>Node6</title>
<g id="a_Node000006"><a xlink:href="$class_html.html#a550562c2d86bb618d0f2269fbd91662c" xlink:title=" ">
<polygon fill="white" stroke="#666666" points="413.5,-37.25 331.5,-37.25 331.5,-18 413.5,-18 413.5,-37.25"/>
<text text-anchor="middle" x="372.5" y="-23.75" font-family="Helvetica,sans-Serif" font-size="10.00">parseAttributes</text>
</a>
</g>
</g>
<!-- Node2&#45;&gt;Node6 -->
<g id="edge26_Node000002_Node000006" class="edge">
<title>Node2&#45;&gt;Node6</title>
<g id="a_edge26_Node000002_Node000006"><a xlink:title=" ">
<path fill="none" stroke="#63b8ff" d="M169.31,-44.87C203.24,-41.98 271.96,-36.12 319.81,-32.03"/>
<polygon fill="#63b8ff" stroke="#63b8ff" points="320.02,-35.53 329.69,-31.19 319.42,-28.55 320.02,-35.53"/>
</a>
</g>
</g>
<!-- Node4 -->
<g id="Node000004" class="node">
<title>Node4</title>
<g id="a_Node000004"><a xlink:href="$class_html.html#a0c9a3cf76dd467e2e0da0e7b74a4f3e9" xlink:title=" ">
<polygon fill="white" stroke="#666666" points="680.25,-75.25 600.5,-75.25 600.5,-56 680.25,-56 680.25,-75.25"/>
<text text-anchor="middle" x="640.38" y="-61.75" font-family="Helvetica,sans-Serif" font-size="10.00">cleanInputText</text>
</a>
</g>
</g>
<!-- Node3&#45;&gt;Node4 -->
<g id="edge21_Node000003_Node000004" class="edge">
<title>Node3&#45;&gt;Node4</title>
<g id="a_edge21_Node000003_Node000004"><a xlink:title=" ">
<path fill="none" stroke="#63b8ff" d="M261.16,-72.36C271.05,-76.52 284.53,-81.47 297,-83.62 399.57,-101.36 521.78,-86.46 588.93,-75.24"/>
<polygon fill="#63b8ff" stroke="#63b8ff" points="589.26,-78.74 598.52,-73.6 588.08,-71.84 589.26,-78.74"/>
</a>
</g>
</g>
<!-- Node5 -->
<g id="Node000005" class="node">
<title>Node5</title>
<g id="a_Node000005"><a xlink:href="$class_html.html#a0d3166d4c1316bc69db7652294a4cd6b" xlink:title=" ">
<polygon fill="white" stroke="#666666" points="448,-74.25 297,-74.25 297,-55 448,-55 448,-74.25"/>
<text text-anchor="middle" x="372.5" y="-60.75" font-family="Helvetica,sans-Serif" font-size="10.00">getConfirmationOnActionScript</text>
</a>
</g>
</g>
<!-- Node3&#45;&gt;Node5 -->
<g id="edge22_Node000003_Node000005" class="edge">
<title>Node3&#45;&gt;Node5</title>
<g id="a_edge22_Node000003_Node000005"><a xlink:title=" ">
<path fill="none" stroke="#63b8ff" d="M261.33,-65.51C267.9,-65.45 276.21,-65.39 285.3,-65.31"/>
<polygon fill="#63b8ff" stroke="#63b8ff" points="285.24,-68.82 295.21,-65.24 285.18,-61.82 285.24,-68.82"/>
</a>
</g>
</g>
<!-- Node3&#45;&gt;Node6 -->
<g id="edge23_Node000003_Node000006" class="edge">
<title>Node3&#45;&gt;Node6</title>
<g id="a_edge23_Node000003_Node000006"><a xlink:title=" ">
<path fill="none" stroke="#63b8ff" d="M261.33,-59.12C271.29,-54.9 284.78,-49.5 297,-45.62 304.33,-43.3 312.14,-41.11 319.85,-39.11"/>
<polygon fill="#63b8ff" stroke="#63b8ff" points="320.68,-42.51 329.54,-36.69 318.99,-35.72 320.68,-42.51"/>
</a>
</g>
</g>
<!-- Node7 -->
<g id="Node000007" class="node">
<title>Node7</title>
<g id="a_Node000007"><a xlink:href="$class_html.html#a7b41ed0aea457429973e167a4162ece5" xlink:title=" ">
<polygon fill="white" stroke="#666666" points="564.5,-56.25 484,-56.25 484,-37 564.5,-37 564.5,-56.25"/>
<text text-anchor="middle" x="524.25" y="-42.75" font-family="Helvetica,sans-Serif" font-size="10.00">formatAttribute</text>
</a>
</g>
</g>
<!-- Node6&#45;&gt;Node7 -->
<g id="edge24_Node000006_Node000007" class="edge">
<title>Node6&#45;&gt;Node7</title>
<g id="a_edge24_Node000006_Node000007"><a xlink:title=" ">
<path fill="none" stroke="#63b8ff" d="M413.63,-32.72C431.65,-35 453.12,-37.73 472.27,-40.16"/>
<polygon fill="#63b8ff" stroke="#63b8ff" points="471.67,-43.61 482.03,-41.39 472.55,-36.66 471.67,-43.61"/>
</a>
</g>
</g>
<!-- Node7&#45;&gt;Node4 -->
<g id="edge25_Node000007_Node000004" class="edge">
<title>Node7&#45;&gt;Node4</title>
<g id="a_edge25_Node000007_Node000004"><a xlink:title=" ">
<path fill="none" stroke="#63b8ff" d="M564.85,-53.22C572.63,-54.51 580.9,-55.89 588.99,-57.24"/>
<polygon fill="#63b8ff" stroke="#63b8ff" points="588.3,-60.67 598.74,-58.86 589.45,-53.77 588.3,-60.67"/>
</a>
</g>
</g>
</g>
</svg>
