<?xml version="1.0" encoding="UTF-8" standalone="no"?>
<!DOCTYPE svg PUBLIC "-//W3C//DTD SVG 1.1//EN"
 "http://www.w3.org/Graphics/SVG/1.1/DTD/svg11.dtd">
<!-- Generated by graphviz version 10.0.1 (20240210.2158)
 -->
<!-- Title: doDisplay Pages: 1 -->
<svg width="388pt" height="101pt"
 viewBox="0.00 0.00 388.25 101.25" xmlns="http://www.w3.org/2000/svg" xmlns:xlink="http://www.w3.org/1999/xlink">
<g id="graph0" class="graph" transform="scale(1 1) rotate(0) translate(4 97.25)">
<title>doDisplay</title>
<!-- Node1 -->
<g id="Node000001" class="node">
<title>Node1</title>
<g id="a_Node000001"><a xlink:title=" ">
<polygon fill="#999999" stroke="#666666" points="59.5,-37.25 0,-37.25 0,-18 59.5,-18 59.5,-37.25"/>
<text text-anchor="middle" x="29.75" y="-23.75" font-family="Helvetica,sans-Serif" font-size="10.00">doDisplay</text>
</a>
</g>
</g>
<!-- Node2 -->
<g id="Node000002" class="node">
<title>Node2</title>
<g id="a_Node000002"><a xlink:href="$_escaper_extension_8php.html#aabeb5b51fb981707d997d1c588d7c509" xlink:title=" ">
<polygon fill="white" stroke="#666666" points="190.25,-56.25 95.5,-56.25 95.5,-37 190.25,-37 190.25,-56.25"/>
<text text-anchor="middle" x="142.88" y="-42.75" font-family="Helvetica,sans-Serif" font-size="10.00">twig_escape_filter</text>
</a>
</g>
</g>
<!-- Node1&#45;&gt;Node2 -->
<g id="edge11_Node000001_Node000002" class="edge">
<title>Node1&#45;&gt;Node2</title>
<g id="a_edge11_Node000001_Node000002"><a xlink:title=" ">
<path fill="none" stroke="#63b8ff" d="M59.95,-32.62C67.37,-33.89 75.62,-35.3 83.94,-36.72"/>
<polygon fill="#63b8ff" stroke="#63b8ff" points="83.31,-40.16 93.76,-38.4 84.49,-33.26 83.31,-40.16"/>
</a>
</g>
</g>
<!-- Node6 -->
<g id="Node000006" class="node">
<title>Node6</title>
<g id="a_Node000006"><a xlink:href="$_core_extension_8php.html#a256f713fc398e53c34a8b510a6b252f8" xlink:title=" ">
<polygon fill="white" stroke="#666666" points="176,-19.25 109.75,-19.25 109.75,0 176,0 176,-19.25"/>
<text text-anchor="middle" x="142.88" y="-5.75" font-family="Helvetica,sans-Serif" font-size="10.00">twig_sprintf</text>
</a>
</g>
</g>
<!-- Node1&#45;&gt;Node6 -->
<g id="edge15_Node000001_Node000006" class="edge">
<title>Node1&#45;&gt;Node6</title>
<g id="a_edge15_Node000001_Node000006"><a xlink:title=" ">
<path fill="none" stroke="#63b8ff" d="M59.95,-22.9C71.68,-20.99 85.47,-18.76 98.34,-16.68"/>
<polygon fill="#63b8ff" stroke="#63b8ff" points="98.54,-20.19 107.86,-15.14 97.43,-13.28 98.54,-20.19"/>
</a>
</g>
</g>
<!-- Node3 -->
<g id="Node000003" class="node">
<title>Node3</title>
<g id="a_Node000003"><a xlink:href="$class_twig_1_1_environment.html#abca2d528da8311b6fcfe040768cbaa24" xlink:title=" ">
<polygon fill="white" stroke="#666666" points="375.75,-93.25 230.75,-93.25 230.75,-74 375.75,-74 375.75,-93.25"/>
<text text-anchor="middle" x="303.25" y="-79.75" font-family="Helvetica,sans-Serif" font-size="10.00">Twig\Environment\getCharset</text>
</a>
</g>
</g>
<!-- Node2&#45;&gt;Node3 -->
<g id="edge12_Node000002_Node000003" class="edge">
<title>Node2&#45;&gt;Node3</title>
<g id="a_edge12_Node000002_Node000003"><a xlink:title=" ">
<path fill="none" stroke="#63b8ff" d="M187.15,-56.74C205.92,-61.12 228.1,-66.3 247.96,-70.94"/>
<polygon fill="#63b8ff" stroke="#63b8ff" points="247.02,-74.32 257.55,-73.18 248.61,-67.5 247.02,-74.32"/>
</a>
</g>
</g>
<!-- Node4 -->
<g id="Node000004" class="node">
<title>Node4</title>
<g id="a_Node000004"><a xlink:href="$class_twig_1_1_environment.html#a5023c2a5ed30e298f55126721092f13d" xlink:title=" ">
<polygon fill="white" stroke="#666666" points="380.25,-56.25 226.25,-56.25 226.25,-37 380.25,-37 380.25,-56.25"/>
<text text-anchor="middle" x="303.25" y="-42.75" font-family="Helvetica,sans-Serif" font-size="10.00">Twig\Environment\getExtension</text>
</a>
</g>
</g>
<!-- Node2&#45;&gt;Node4 -->
<g id="edge13_Node000002_Node000004" class="edge">
<title>Node2&#45;&gt;Node4</title>
<g id="a_edge13_Node000002_Node000004"><a xlink:title=" ">
<path fill="none" stroke="#63b8ff" d="M190.54,-46.62C198.19,-46.62 206.33,-46.62 214.6,-46.62"/>
<polygon fill="#63b8ff" stroke="#63b8ff" points="214.4,-50.13 224.4,-46.63 214.4,-43.13 214.4,-50.13"/>
</a>
</g>
</g>
<!-- Node5 -->
<g id="Node000005" class="node">
<title>Node5</title>
<g id="a_Node000005"><a xlink:href="$_core_extension_8php.html#ae288325a1d8fc4e036d1e828d7fac1f6" xlink:title=" ">
<polygon fill="white" stroke="#666666" points="361.12,-19.25 245.38,-19.25 245.38,0 361.12,0 361.12,-19.25"/>
<text text-anchor="middle" x="303.25" y="-5.75" font-family="Helvetica,sans-Serif" font-size="10.00">twig_convert_encoding</text>
</a>
</g>
</g>
<!-- Node2&#45;&gt;Node5 -->
<g id="edge14_Node000002_Node000005" class="edge">
<title>Node2&#45;&gt;Node5</title>
<g id="a_edge14_Node000002_Node000005"><a xlink:title=" ">
<path fill="none" stroke="#63b8ff" d="M187.15,-36.51C205.92,-32.13 228.1,-26.95 247.96,-22.31"/>
<polygon fill="#63b8ff" stroke="#63b8ff" points="248.61,-25.75 257.55,-20.07 247.02,-18.93 248.61,-25.75"/>
</a>
</g>
</g>
</g>
</svg>
