<?xml version="1.0" encoding="UTF-8" standalone="no"?>
<!DOCTYPE svg PUBLIC "-//W3C//DTD SVG 1.1//EN"
 "http://www.w3.org/Graphics/SVG/1.1/DTD/svg11.dtd">
<!-- Generated by graphviz version 10.0.1 (20240210.2158)
 -->
<!-- Title: setError Pages: 1 -->
<svg width="236pt" height="27pt"
 viewBox="0.00 0.00 236.00 27.25" xmlns="http://www.w3.org/2000/svg" xmlns:xlink="http://www.w3.org/1999/xlink">
<g id="graph0" class="graph" transform="scale(1 1) rotate(0) translate(4 23.25)">
<title>setError</title>
<!-- Node1 -->
<g id="Node000001" class="node">
<title>Node1</title>
<g id="a_Node000001"><a xlink:title=" ">
<polygon fill="#999999" stroke="#666666" points="50.5,-19.25 0,-19.25 0,0 50.5,0 50.5,-19.25"/>
<text text-anchor="middle" x="25.25" y="-5.75" font-family="Helvetica,sans-Serif" font-size="10.00">setError</text>
</a>
</g>
</g>
<!-- Node2 -->
<g id="Node000002" class="node">
<title>Node2</title>
<g id="a_Node000002"><a xlink:href="$class_p_h_p_mailer_1_1_p_h_p_mailer_1_1_p_h_p_mailer.html#a702ec4df6918a529cf123d1d09f608b7" xlink:title=" ">
<polygon fill="white" stroke="#666666" points="120.5,-19.25 86.5,-19.25 86.5,0 120.5,0 120.5,-19.25"/>
<text text-anchor="middle" x="103.5" y="-5.75" font-family="Helvetica,sans-Serif" font-size="10.00">lang</text>
</a>
</g>
</g>
<!-- Node1&#45;&gt;Node2 -->
<g id="edge5_Node000001_Node000002" class="edge">
<title>Node1&#45;&gt;Node2</title>
<g id="a_edge5_Node000001_Node000002"><a xlink:title=" ">
<path fill="none" stroke="#63b8ff" d="M50.8,-9.62C58.54,-9.62 67.15,-9.62 75.09,-9.62"/>
<polygon fill="#63b8ff" stroke="#63b8ff" points="74.9,-13.13 84.9,-9.63 74.9,-6.13 74.9,-13.13"/>
</a>
</g>
</g>
<!-- Node3 -->
<g id="Node000003" class="node">
<title>Node3</title>
<g id="a_Node000003"><a xlink:href="$class_p_h_p_mailer_1_1_p_h_p_mailer_1_1_p_h_p_mailer.html#aaf95e152019d45c4721612c4a08dbcd9" xlink:title=" ">
<polygon fill="white" stroke="#666666" points="228,-19.25 156.5,-19.25 156.5,0 228,0 228,-19.25"/>
<text text-anchor="middle" x="192.25" y="-5.75" font-family="Helvetica,sans-Serif" font-size="10.00">setLanguage</text>
</a>
</g>
</g>
<!-- Node2&#45;&gt;Node3 -->
<g id="edge6_Node000002_Node000003" class="edge">
<title>Node2&#45;&gt;Node3</title>
<g id="a_edge6_Node000002_Node000003"><a xlink:title=" ">
<path fill="none" stroke="#63b8ff" d="M120.82,-9.62C127.78,-9.62 136.29,-9.62 144.96,-9.62"/>
<polygon fill="#63b8ff" stroke="#63b8ff" points="144.81,-13.13 154.81,-9.63 144.81,-6.13 144.81,-13.13"/>
</a>
</g>
</g>
</g>
</svg>
