<?xml version="1.0" encoding="UTF-8" standalone="no"?>
<!DOCTYPE svg PUBLIC "-//W3C//DTD SVG 1.1//EN"
 "http://www.w3.org/Graphics/SVG/1.1/DTD/svg11.dtd">
<!-- Generated by graphviz version 10.0.1 (20240210.2158)
 -->
<!-- Title: RedirectMiddleware Pages: 1 -->
<svg width="258pt" height="276pt"
 viewBox="0.00 0.00 257.50 275.50" xmlns="http://www.w3.org/2000/svg" xmlns:xlink="http://www.w3.org/1999/xlink">
<g id="graph0" class="graph" transform="scale(1 1) rotate(0) translate(4 271.5)">
<title>RedirectMiddleware</title>
<!-- Node1 -->
<g id="Node000001" class="node">
<title>Node1</title>
<g id="a_Node000001"><a xlink:title=" ">
<polygon fill="#999999" stroke="none" points="181,-160 19,-160 19,0 181,0 181,-160"/>
<text text-anchor="start" x="56.88" y="-146.5" font-family="Helvetica,sans-Serif" font-size="10.00">RedirectMiddleware</text>
<text text-anchor="start" x="98.5" y="-131.5" font-family="Helvetica,sans-Serif" font-size="10.00"> </text>
<text text-anchor="start" x="23" y="-116.5" font-family="Helvetica,sans-Serif" font-size="10.00">+</text>
<text text-anchor="start" x="33" y="-116.5" font-family="Helvetica,sans-Serif" font-size="10.00">__construct(callable</text>
<text text-anchor="start" x="33" y="-105.25" font-family="Helvetica,sans-Serif" font-size="10.00"> $nextHandler)</text>
<text text-anchor="start" x="23" y="-90.5" font-family="Helvetica,sans-Serif" font-size="10.00">+</text>
<text text-anchor="start" x="33" y="-90.5" font-family="Helvetica,sans-Serif" font-size="10.00">__invoke(RequestInterface</text>
<text text-anchor="start" x="33" y="-79.25" font-family="Helvetica,sans-Serif" font-size="10.00"> $request, array $options)</text>
<text text-anchor="start" x="23" y="-64.5" font-family="Helvetica,sans-Serif" font-size="10.00">+</text>
<text text-anchor="start" x="33" y="-64.5" font-family="Helvetica,sans-Serif" font-size="10.00">checkRedirect(RequestInterface</text>
<text text-anchor="start" x="33" y="-53.25" font-family="Helvetica,sans-Serif" font-size="10.00"> $request, array $options,</text>
<text text-anchor="start" x="33" y="-42" font-family="Helvetica,sans-Serif" font-size="10.00"> ResponseInterface $response)</text>
<text text-anchor="start" x="23" y="-27.5" font-family="Helvetica,sans-Serif" font-size="10.00">+</text>
<text text-anchor="start" x="33" y="-27.5" font-family="Helvetica,sans-Serif" font-size="10.00">modifyRequest(RequestInterface</text>
<text text-anchor="start" x="33" y="-16.25" font-family="Helvetica,sans-Serif" font-size="10.00"> $request, array $options,</text>
<text text-anchor="start" x="33" y="-5" font-family="Helvetica,sans-Serif" font-size="10.00"> ResponseInterface $response)</text>
<polygon fill="#666666" stroke="#666666" points="19,-143 19,-143 181,-143 181,-143 19,-143"/>
<polygon fill="#666666" stroke="#666666" points="19,-128 19,-128 181,-128 181,-128 19,-128"/>
<polygon fill="none" stroke="#666666" points="19,0 19,-160 181,-160 181,0 19,0"/>
</a>
</g>
</g>
<!-- Node2 -->
<g id="Node000002" class="node">
<title>Node2</title>
<g id="a_Node000002"><a xlink:title=" ">
<polygon fill="white" stroke="none" points="34,-267.5 0,-267.5 0,-218.5 34,-218.5 34,-267.5"/>
<text text-anchor="start" x="5" y="-254" font-family="Helvetica,sans-Serif" font-size="10.00">const</text>
<text text-anchor="start" x="15.5" y="-239" font-family="Helvetica,sans-Serif" font-size="10.00"> </text>
<text text-anchor="start" x="15.5" y="-224" font-family="Helvetica,sans-Serif" font-size="10.00"> </text>
<polygon fill="#666666" stroke="#666666" points="0,-250.5 0,-250.5 34,-250.5 34,-250.5 0,-250.5"/>
<polygon fill="#666666" stroke="#666666" points="0,-235.5 0,-235.5 34,-235.5 34,-235.5 0,-235.5"/>
<polygon fill="none" stroke="#666666" points="0,-218.5 0,-267.5 34,-267.5 34,-218.5 0,-218.5"/>
</a>
</g>
</g>
<!-- Node2&#45;&gt;Node1 -->
<g id="edge5_Node000001_Node000002" class="edge">
<title>Node2&#45;&gt;Node1</title>
<g id="a_edge5_Node000001_Node000002"><a xlink:title=" ">
<path fill="none" stroke="#63b8ff" d="M13.55,-218.8C12.6,-206.33 12.93,-190.91 17.75,-178 18.58,-175.77 19.49,-173.56 20.47,-171.36"/>
<polygon fill="none" stroke="#63b8ff" points="20.48,-171.33 19.61,-164.17 25.89,-160.61 26.76,-167.77 20.48,-171.33"/>
</a>
</g>
<text text-anchor="middle" x="89.62" y="-191" font-family="Helvetica,sans-Serif" font-size="10.00" fill="grey"> +HISTORY_HEADER</text>
<text text-anchor="middle" x="89.62" y="-179.75" font-family="Helvetica,sans-Serif" font-size="10.00" fill="grey">+STATUS_HISTORY_HEADER</text>
</g>
<!-- Node3 -->
<g id="Node000003" class="node">
<title>Node3</title>
<g id="a_Node000003"><a xlink:title=" ">
<polygon fill="white" stroke="none" points="200,-267.5 166,-267.5 166,-218.5 200,-218.5 200,-267.5"/>
<text text-anchor="start" x="171" y="-254" font-family="Helvetica,sans-Serif" font-size="10.00">static</text>
<text text-anchor="start" x="181.5" y="-239" font-family="Helvetica,sans-Serif" font-size="10.00"> </text>
<text text-anchor="start" x="181.5" y="-224" font-family="Helvetica,sans-Serif" font-size="10.00"> </text>
<polygon fill="#666666" stroke="#666666" points="166,-250.5 166,-250.5 200,-250.5 200,-250.5 166,-250.5"/>
<polygon fill="#666666" stroke="#666666" points="166,-235.5 166,-235.5 200,-235.5 200,-235.5 166,-235.5"/>
<polygon fill="none" stroke="#666666" points="166,-218.5 166,-267.5 200,-267.5 200,-218.5 166,-218.5"/>
</a>
</g>
</g>
<!-- Node3&#45;&gt;Node1 -->
<g id="edge6_Node000001_Node000003" class="edge">
<title>Node3&#45;&gt;Node1</title>
<g id="a_edge6_Node000001_Node000003"><a xlink:title=" ">
<path fill="none" stroke="#63b8ff" d="M176.41,-218.68C172.56,-206.32 167.24,-191.04 161,-178 159.92,-175.75 158.8,-173.48 157.65,-171.21"/>
<polygon fill="none" stroke="#63b8ff" points="157.66,-171.23 151.32,-167.8 152.04,-160.62 158.39,-164.05 157.66,-171.23"/>
</a>
</g>
<text text-anchor="middle" x="209.75" y="-185.38" font-family="Helvetica,sans-Serif" font-size="10.00" fill="grey"> +$defaultSettings</text>
</g>
</g>
</svg>
