<?xml version="1.0" encoding="UTF-8" standalone="no"?>
<!DOCTYPE svg PUBLIC "-//W3C//DTD SVG 1.1//EN"
 "http://www.w3.org/Graphics/SVG/1.1/DTD/svg11.dtd">
<!-- Generated by graphviz version 10.0.1 (20240210.2158)
 -->
<!-- Title: getUniqueId Pages: 1 -->
<svg width="548pt" height="70pt"
 viewBox="0.00 0.00 547.50 69.88" xmlns="http://www.w3.org/2000/svg" xmlns:xlink="http://www.w3.org/1999/xlink">
<g id="graph0" class="graph" transform="scale(1 1) rotate(0) translate(4 65.88)">
<title>getUniqueId</title>
<!-- Node1 -->
<g id="Node000001" class="node">
<title>Node1</title>
<g id="a_Node000001"><a xlink:title=" ">
<polygon fill="#999999" stroke="#666666" points="68.5,-37.25 0,-37.25 0,-18 68.5,-18 68.5,-37.25"/>
<text text-anchor="middle" x="34.25" y="-23.75" font-family="Helvetica,sans-Serif" font-size="10.00">getUniqueId</text>
</a>
</g>
</g>
<!-- Node2 -->
<g id="Node000002" class="node">
<title>Node2</title>
<g id="a_Node000002"><a xlink:href="$class_laminas_1_1_mail_1_1_storage_1_1_mbox.html#a2af6a7c2f914df81f57a13a6a518661a" xlink:title=" ">
<polygon fill="white" stroke="#666666" points="189.5,-56.25 104.5,-56.25 104.5,-37 189.5,-37 189.5,-56.25"/>
<text text-anchor="middle" x="147" y="-42.75" font-family="Helvetica,sans-Serif" font-size="10.00">countMessages</text>
</a>
</g>
</g>
<!-- Node1&#45;&gt;Node2 -->
<g id="edge9_Node000001_Node000002" class="edge">
<title>Node1&#45;&gt;Node2</title>
<g id="a_edge9_Node000001_Node000002"><a xlink:title=" ">
<path fill="none" stroke="#63b8ff" d="M68.78,-33.38C76.48,-34.7 84.86,-36.14 93.16,-37.56"/>
<polygon fill="#63b8ff" stroke="#63b8ff" points="92.42,-40.98 102.87,-39.22 93.6,-34.08 92.42,-40.98"/>
</a>
</g>
</g>
<!-- Node5 -->
<g id="Node000005" class="node">
<title>Node5</title>
<g id="a_Node000005"><a xlink:href="$class_laminas_1_1_mail_1_1_storage_1_1_mbox.html#a6b957a97e481b439323610898171cf91" xlink:title=" ">
<polygon fill="white" stroke="#666666" points="170.38,-19.25 123.62,-19.25 123.62,0 170.38,0 170.38,-19.25"/>
<text text-anchor="middle" x="147" y="-5.75" font-family="Helvetica,sans-Serif" font-size="10.00">getPos</text>
</a>
</g>
</g>
<!-- Node1&#45;&gt;Node5 -->
<g id="edge12_Node000001_Node000005" class="edge">
<title>Node1&#45;&gt;Node5</title>
<g id="a_edge12_Node000001_Node000005"><a xlink:title=" ">
<path fill="none" stroke="#63b8ff" d="M68.78,-22.18C82.61,-19.93 98.6,-17.33 112.43,-15.08"/>
<polygon fill="#63b8ff" stroke="#63b8ff" points="112.64,-18.59 121.95,-13.53 111.52,-11.68 112.64,-18.59"/>
</a>
</g>
</g>
<!-- Node3 -->
<g id="Node000003" class="node">
<title>Node3</title>
<g id="a_Node000003"><a xlink:href="$class_laminas_1_1_mail_1_1_storage_1_1_abstract_storage.html#ac751e87b3d4c4bf2feb03bee8b092755" xlink:title=" ">
<polygon fill="white" stroke="#666666" points="342,-61.88 225.5,-61.88 225.5,-31.38 342,-31.38 342,-61.88"/>
<text text-anchor="start" x="233.5" y="-48.38" font-family="Helvetica,sans-Serif" font-size="10.00">Laminas\Mail\Storage</text>
<text text-anchor="middle" x="283.75" y="-37.12" font-family="Helvetica,sans-Serif" font-size="10.00">\AbstractStorage\count</text>
</a>
</g>
</g>
<!-- Node2&#45;&gt;Node3 -->
<g id="edge10_Node000002_Node000003" class="edge">
<title>Node2&#45;&gt;Node3</title>
<g id="a_edge10_Node000002_Node000003"><a xlink:title=" ">
<path fill="none" stroke="#63b8ff" d="M189.9,-46.62C197.46,-46.62 205.52,-46.62 213.62,-46.62"/>
<polygon fill="#63b8ff" stroke="#63b8ff" points="213.53,-50.13 223.53,-46.63 213.53,-43.13 213.53,-50.13"/>
</a>
</g>
</g>
<!-- Node4 -->
<g id="Node000004" class="node">
<title>Node4</title>
<g id="a_Node000004"><a xlink:href="$class_laminas_1_1_mail_1_1_storage_1_1_abstract_storage.html#a2af6a7c2f914df81f57a13a6a518661a" xlink:title=" ">
<polygon fill="white" stroke="#666666" points="539.5,-61.88 378,-61.88 378,-31.38 539.5,-31.38 539.5,-61.88"/>
<text text-anchor="start" x="386" y="-48.38" font-family="Helvetica,sans-Serif" font-size="10.00">Laminas\Mail\Storage</text>
<text text-anchor="middle" x="458.75" y="-37.12" font-family="Helvetica,sans-Serif" font-size="10.00">\AbstractStorage\countMessages</text>
</a>
</g>
</g>
<!-- Node3&#45;&gt;Node4 -->
<g id="edge11_Node000003_Node000004" class="edge">
<title>Node3&#45;&gt;Node4</title>
<g id="a_edge11_Node000003_Node000004"><a xlink:title=" ">
<path fill="none" stroke="#63b8ff" d="M342.36,-46.62C350.04,-46.62 358.07,-46.62 366.15,-46.62"/>
<polygon fill="#63b8ff" stroke="#63b8ff" points="366.08,-50.13 376.08,-46.63 366.08,-43.13 366.08,-50.13"/>
</a>
</g>
</g>
</g>
</svg>
