<?xml version="1.0" encoding="UTF-8" standalone="no"?>
<!DOCTYPE svg PUBLIC "-//W3C//DTD SVG 1.1//EN"
 "http://www.w3.org/Graphics/SVG/1.1/DTD/svg11.dtd">
<!-- Generated by graphviz version 10.0.1 (20240210.2158)
 -->
<!-- Title: canViewItem Pages: 1 -->
<svg width="904pt" height="654pt"
 viewBox="0.00 0.00 904.25 654.25" xmlns="http://www.w3.org/2000/svg" xmlns:xlink="http://www.w3.org/1999/xlink">
<g id="graph0" class="graph" transform="scale(1 1) rotate(0) translate(4 650.25)">
<title>canViewItem</title>
<!-- Node1 -->
<g id="Node000001" class="node">
<title>Node1</title>
<g id="a_Node000001"><a xlink:title=" ">
<polygon fill="#999999" stroke="#666666" points="896.25,-249.25 823.25,-249.25 823.25,-230 896.25,-230 896.25,-249.25"/>
<text text-anchor="middle" x="859.75" y="-235.75" font-family="Helvetica,sans-Serif" font-size="10.00">canViewItem</text>
</a>
</g>
</g>
<!-- Node2 -->
<g id="Node000002" class="node">
<title>Node2</title>
<g id="a_Node000002"><a xlink:href="$class_common_d_b_t_m.html#a59be9ea1dca9dfa7b48373f9d60a9332" xlink:title=" ">
<polygon fill="white" stroke="#666666" points="725.75,-455.25 694,-455.25 694,-436 725.75,-436 725.75,-455.25"/>
<text text-anchor="middle" x="709.88" y="-441.75" font-family="Helvetica,sans-Serif" font-size="10.00">can</text>
</a>
</g>
</g>
<!-- Node1&#45;&gt;Node2 -->
<g id="edge71_Node000001_Node000002" class="edge">
<title>Node1&#45;&gt;Node2</title>
<g id="a_edge71_Node000001_Node000002"><a xlink:title=" ">
<path fill="none" stroke="#63b8ff" d="M844.93,-258.88C814.17,-301.73 740.96,-403.71 717.94,-435.79"/>
<polygon fill="#63b8ff" stroke="#63b8ff" points="847.75,-260.96 850.74,-250.79 842.06,-256.87 847.75,-260.96"/>
</a>
</g>
</g>
<!-- Node28 -->
<g id="Node000028" class="node">
<title>Node28</title>
<g id="a_Node000028"><a xlink:href="$class_pending_reason___item.html#ac73fbb33d08471d618cd753ea8a73b75" xlink:title=" ">
<polygon fill="white" stroke="#666666" points="764.75,-279.88 655,-279.88 655,-249.38 764.75,-249.38 764.75,-279.88"/>
<text text-anchor="start" x="663" y="-266.38" font-family="Helvetica,sans-Serif" font-size="10.00">PendingReason_Item</text>
<text text-anchor="middle" x="709.88" y="-255.12" font-family="Helvetica,sans-Serif" font-size="10.00">\canViewItem</text>
</a>
</g>
</g>
<!-- Node1&#45;&gt;Node28 -->
<g id="edge97_Node000001_Node000028" class="edge">
<title>Node1&#45;&gt;Node28</title>
<g id="a_edge97_Node000001_Node000028"><a xlink:title=" ">
<path fill="none" stroke="#63b8ff" d="M811.95,-247.54C797.06,-250.05 780.47,-252.86 765.11,-255.46"/>
<polygon fill="#63b8ff" stroke="#63b8ff" points="812.18,-251.05 821.46,-245.93 811.02,-244.15 812.18,-251.05"/>
</a>
</g>
</g>
<!-- Node29 -->
<g id="Node000029" class="node">
<title>Node29</title>
<g id="a_Node000029"><a xlink:href="$class_planning_external_event.html#a63b4506b8b775709817af588373b6990" xlink:title=" ">
<polygon fill="white" stroke="#666666" points="767.38,-230.88 652.38,-230.88 652.38,-200.38 767.38,-200.38 767.38,-230.88"/>
<text text-anchor="start" x="660.38" y="-217.38" font-family="Helvetica,sans-Serif" font-size="10.00">PlanningExternalEvent</text>
<text text-anchor="middle" x="709.88" y="-206.12" font-family="Helvetica,sans-Serif" font-size="10.00">\getAsVCalendar</text>
</a>
</g>
</g>
<!-- Node1&#45;&gt;Node29 -->
<g id="edge98_Node000001_Node000029" class="edge">
<title>Node1&#45;&gt;Node29</title>
<g id="a_edge98_Node000001_Node000029"><a xlink:title=" ">
<path fill="none" stroke="#63b8ff" d="M811.62,-231.98C797.65,-229.71 782.2,-227.2 767.68,-224.85"/>
<polygon fill="#63b8ff" stroke="#63b8ff" points="811.03,-235.43 821.46,-233.57 812.15,-228.52 811.03,-235.43"/>
</a>
</g>
</g>
<!-- Node30 -->
<g id="Node000030" class="node">
<title>Node30</title>
<g id="a_Node000030"><a xlink:href="$class_common_i_t_i_l_object.html#a6380a1a86ca6891dab61cba770a319e1" xlink:title=" ">
<polygon fill="white" stroke="#666666" points="787.25,-83.88 632.5,-83.88 632.5,-53.38 787.25,-53.38 787.25,-83.88"/>
<text text-anchor="start" x="640.5" y="-70.38" font-family="Helvetica,sans-Serif" font-size="10.00">CommonITILObject\getTimeline</text>
<text text-anchor="middle" x="709.88" y="-59.12" font-family="Helvetica,sans-Serif" font-size="10.00">Items</text>
</a>
</g>
</g>
<!-- Node1&#45;&gt;Node30 -->
<g id="edge99_Node000001_Node000030" class="edge">
<title>Node1&#45;&gt;Node30</title>
<g id="a_edge99_Node000001_Node000030"><a xlink:title=" ">
<path fill="none" stroke="#63b8ff" d="M842.83,-221.21C813.58,-187.39 751.79,-115.93 724.41,-84.28"/>
<polygon fill="#63b8ff" stroke="#63b8ff" points="839.98,-223.27 849.17,-228.55 845.28,-218.69 839.98,-223.27"/>
</a>
</g>
</g>
<!-- Node3 -->
<g id="Node000003" class="node">
<title>Node3</title>
<g id="a_Node000003"><a xlink:href="$class_item___devices.html#abdf0d9b998ee74b014679bcbeb0a68f1" xlink:title=" ">
<polygon fill="white" stroke="#666666" points="586.38,-646.25 454.88,-646.25 454.88,-627 586.38,-627 586.38,-646.25"/>
<text text-anchor="middle" x="520.62" y="-632.75" font-family="Helvetica,sans-Serif" font-size="10.00">Item_Devices\addDevices</text>
</a>
</g>
</g>
<!-- Node2&#45;&gt;Node3 -->
<g id="edge72_Node000002_Node000003" class="edge">
<title>Node2&#45;&gt;Node3</title>
<g id="a_edge72_Node000002_Node000003"><a xlink:title=" ">
<path fill="none" stroke="#63b8ff" d="M701.49,-466.13C687.2,-502.76 652.18,-579.26 596.5,-618.62 592.02,-621.79 587.06,-624.4 581.88,-626.56"/>
<polygon fill="#63b8ff" stroke="#63b8ff" points="704.62,-467.75 704.87,-457.16 698.07,-465.28 704.62,-467.75"/>
</a>
</g>
</g>
<!-- Node4 -->
<g id="Node000004" class="node">
<title>Node4</title>
<g id="a_Node000004"><a xlink:href="$class_common_d_b_t_m.html#a89f2245a9ae902892940c2592056d806" xlink:title=" ">
<polygon fill="white" stroke="#666666" points="554.88,-609.25 486.38,-609.25 486.38,-590 554.88,-590 554.88,-609.25"/>
<text text-anchor="middle" x="520.62" y="-595.75" font-family="Helvetica,sans-Serif" font-size="10.00">canAddItem</text>
</a>
</g>
</g>
<!-- Node2&#45;&gt;Node4 -->
<g id="edge73_Node000002_Node000004" class="edge">
<title>Node2&#45;&gt;Node4</title>
<g id="a_edge73_Node000002_Node000004"><a xlink:title=" ">
<path fill="none" stroke="#63b8ff" d="M698.15,-465.46C680.87,-495.46 643.94,-552.01 596.5,-581.62 584.14,-589.34 568.73,-593.75 555.11,-596.27"/>
<polygon fill="#63b8ff" stroke="#63b8ff" points="701.04,-467.46 702.87,-457.03 694.93,-464.04 701.04,-467.46"/>
</a>
</g>
</g>
<!-- Node5 -->
<g id="Node000005" class="node">
<title>Node5</title>
<g id="a_Node000005"><a xlink:href="$class_common_d_b_t_m.html#acfbef87ffdf7c6582a6ca4a719bbc095" xlink:title=" ">
<polygon fill="white" stroke="#666666" points="545.12,-572.25 496.12,-572.25 496.12,-553 545.12,-553 545.12,-572.25"/>
<text text-anchor="middle" x="520.62" y="-558.75" font-family="Helvetica,sans-Serif" font-size="10.00">canEdit</text>
</a>
</g>
</g>
<!-- Node2&#45;&gt;Node5 -->
<g id="edge74_Node000002_Node000005" class="edge">
<title>Node2&#45;&gt;Node5</title>
<g id="a_edge74_Node000002_Node000005"><a xlink:title=" ">
<path fill="none" stroke="#63b8ff" d="M693.16,-464.14C673.06,-486.63 636.07,-524.07 596.5,-544.62 580.6,-552.88 560.83,-557.43 545.6,-559.88"/>
<polygon fill="#63b8ff" stroke="#63b8ff" points="695.76,-466.49 699.71,-456.66 690.49,-461.88 695.76,-466.49"/>
</a>
</g>
</g>
<!-- Node7 -->
<g id="Node000007" class="node">
<title>Node7</title>
<g id="a_Node000007"><a xlink:href="$class_document.html#a9181814395fc97beade8970240002374" xlink:title=" ">
<polygon fill="white" stroke="#666666" points="579.25,-535.25 462,-535.25 462,-516 579.25,-516 579.25,-535.25"/>
<text text-anchor="middle" x="520.62" y="-521.75" font-family="Helvetica,sans-Serif" font-size="10.00">Document\canViewFile</text>
</a>
</g>
</g>
<!-- Node2&#45;&gt;Node7 -->
<g id="edge76_Node000002_Node000007" class="edge">
<title>Node2&#45;&gt;Node7</title>
<g id="a_edge76_Node000002_Node000007"><a xlink:title=" ">
<path fill="none" stroke="#63b8ff" d="M684.29,-461.73C662.13,-475.61 628.24,-495.31 596.5,-507.62 588.65,-510.67 580.13,-513.31 571.74,-515.55"/>
<polygon fill="#63b8ff" stroke="#63b8ff" points="686.05,-464.75 692.6,-456.43 682.29,-458.85 686.05,-464.75"/>
</a>
</g>
</g>
<!-- Node8 -->
<g id="Node000008" class="node">
<title>Node8</title>
<g id="a_Node000008"><a xlink:href="$class_contact.html#af346fdd9fafa8fa764cccde4a6761494" xlink:title=" ">
<polygon fill="white" stroke="#666666" points="578.88,-498.25 462.38,-498.25 462.38,-479 578.88,-479 578.88,-498.25"/>
<text text-anchor="middle" x="520.62" y="-484.75" font-family="Helvetica,sans-Serif" font-size="10.00">Contact\generateVcard</text>
</a>
</g>
</g>
<!-- Node2&#45;&gt;Node8 -->
<g id="edge77_Node000002_Node000008" class="edge">
<title>Node2&#45;&gt;Node8</title>
<g id="a_edge77_Node000002_Node000008"><a xlink:title=" ">
<path fill="none" stroke="#63b8ff" d="M682.59,-451.66C652.21,-458.64 601.73,-470.23 565.4,-478.57"/>
<polygon fill="#63b8ff" stroke="#63b8ff" points="683.11,-455.13 692.08,-449.48 681.55,-448.31 683.11,-455.13"/>
</a>
</g>
</g>
<!-- Node9 -->
<g id="Node000009" class="node">
<title>Node9</title>
<g id="a_Node000009"><a xlink:href="$class_glpi_1_1_cal_d_a_v_1_1_plugin_1_1_acl.html#a4cd473d3a60b066f09eae2e376fcb878" xlink:title=" ">
<polygon fill="white" stroke="#666666" points="571,-460.88 470.25,-460.88 470.25,-430.38 571,-430.38 571,-460.88"/>
<text text-anchor="start" x="478.25" y="-447.38" font-family="Helvetica,sans-Serif" font-size="10.00">Glpi\CalDAV\Plugin</text>
<text text-anchor="middle" x="520.62" y="-436.12" font-family="Helvetica,sans-Serif" font-size="10.00">\Acl\getAcl</text>
</a>
</g>
</g>
<!-- Node2&#45;&gt;Node9 -->
<g id="edge78_Node000002_Node000009" class="edge">
<title>Node2&#45;&gt;Node9</title>
<g id="a_edge78_Node000002_Node000009"><a xlink:title=" ">
<path fill="none" stroke="#63b8ff" d="M682.4,-445.62C653.63,-445.62 607,-445.62 571.36,-445.62"/>
<polygon fill="#63b8ff" stroke="#63b8ff" points="682.04,-449.13 692.04,-445.63 682.04,-442.13 682.04,-449.13"/>
</a>
</g>
</g>
<!-- Node10 -->
<g id="Node000010" class="node">
<title>Node10</title>
<g id="a_Node000010"><a xlink:href="$class_f_q_d_n.html#a184ab0c3174131928fa39c7cb794e7f5" xlink:title=" ">
<polygon fill="white" stroke="#666666" points="565.38,-412.25 475.88,-412.25 475.88,-393 565.38,-393 565.38,-412.25"/>
<text text-anchor="middle" x="520.62" y="-398.75" font-family="Helvetica,sans-Serif" font-size="10.00">FQDN\getFQDN</text>
</a>
</g>
</g>
<!-- Node2&#45;&gt;Node10 -->
<g id="edge79_Node000002_Node000010" class="edge">
<title>Node2&#45;&gt;Node10</title>
<g id="a_edge79_Node000002_Node000010"><a xlink:title=" ">
<path fill="none" stroke="#63b8ff" d="M682.59,-439.59C652.21,-432.61 601.73,-421.02 565.4,-412.68"/>
<polygon fill="#63b8ff" stroke="#63b8ff" points="681.55,-442.94 692.08,-441.77 683.11,-436.12 681.55,-442.94"/>
</a>
</g>
</g>
<!-- Node11 -->
<g id="Node000011" class="node">
<title>Node11</title>
<g id="a_Node000011"><a xlink:href="$class_common_d_b_t_m.html#a221b3b8879f06136a8961380360b381c" xlink:title=" ">
<polygon fill="white" stroke="#666666" points="544.38,-375.25 496.88,-375.25 496.88,-356 544.38,-356 544.38,-375.25"/>
<text text-anchor="middle" x="520.62" y="-361.75" font-family="Helvetica,sans-Serif" font-size="10.00">getLink</text>
</a>
</g>
</g>
<!-- Node2&#45;&gt;Node11 -->
<g id="edge80_Node000002_Node000011" class="edge">
<title>Node2&#45;&gt;Node11</title>
<g id="a_edge80_Node000002_Node000011"><a xlink:title=" ">
<path fill="none" stroke="#63b8ff" d="M684.29,-429.52C662.13,-415.64 628.24,-395.94 596.5,-383.62 579.67,-377.1 559.77,-372.45 544.72,-369.51"/>
<polygon fill="#63b8ff" stroke="#63b8ff" points="682.29,-432.4 692.6,-434.82 686.05,-426.5 682.29,-432.4"/>
</a>
</g>
</g>
<!-- Node26 -->
<g id="Node000026" class="node">
<title>Node26</title>
<g id="a_Node000026"><a xlink:href="$class_saved_search___user.html#a8514339160707e9b58a5b00109ac1421" xlink:title=" ">
<polygon fill="white" stroke="#666666" points="588.62,-337.88 452.62,-337.88 452.62,-307.38 588.62,-307.38 588.62,-337.88"/>
<text text-anchor="start" x="460.62" y="-324.38" font-family="Helvetica,sans-Serif" font-size="10.00">SavedSearch_User\prepare</text>
<text text-anchor="middle" x="520.62" y="-313.12" font-family="Helvetica,sans-Serif" font-size="10.00">InputForUpdate</text>
</a>
</g>
</g>
<!-- Node2&#45;&gt;Node26 -->
<g id="edge95_Node000002_Node000026" class="edge">
<title>Node2&#45;&gt;Node26</title>
<g id="a_edge95_Node000002_Node000026"><a xlink:title=" ">
<path fill="none" stroke="#63b8ff" d="M692.59,-427.24C672.15,-405.21 635.08,-368.52 596.5,-346.62 591.04,-343.53 585.12,-340.77 579.09,-338.32"/>
<polygon fill="#63b8ff" stroke="#63b8ff" points="689.95,-429.54 699.27,-434.58 695.13,-424.83 689.95,-429.54"/>
</a>
</g>
</g>
<!-- Node27 -->
<g id="Node000027" class="node">
<title>Node27</title>
<g id="a_Node000027"><a xlink:href="$class_sla_level.html#ad9ff7dc815340fcc80632e01c3acb287" xlink:title=" ">
<polygon fill="white" stroke="#666666" points="571.75,-289.25 469.5,-289.25 469.5,-270 571.75,-270 571.75,-289.25"/>
<text text-anchor="middle" x="520.62" y="-275.75" font-family="Helvetica,sans-Serif" font-size="10.00">SlaLevel\showForm</text>
</a>
</g>
</g>
<!-- Node2&#45;&gt;Node27 -->
<g id="edge96_Node000002_Node000027" class="edge">
<title>Node2&#45;&gt;Node27</title>
<g id="a_edge96_Node000002_Node000027"><a xlink:title=" ">
<path fill="none" stroke="#63b8ff" d="M699.23,-425.62C682.77,-393.66 646.15,-331.39 596.5,-298.62 589.11,-293.75 580.56,-290.13 571.93,-287.43"/>
<polygon fill="#63b8ff" stroke="#63b8ff" points="695.92,-426.82 703.52,-434.2 702.18,-423.69 695.92,-426.82"/>
</a>
</g>
</g>
<!-- Node6 -->
<g id="Node000006" class="node">
<title>Node6</title>
<g id="a_Node000006"><a xlink:href="$class_common_i_t_i_l_validation.html#ad9ff7dc815340fcc80632e01c3acb287" xlink:title=" ">
<polygon fill="white" stroke="#666666" points="389.62,-608.88 274.62,-608.88 274.62,-578.38 389.62,-578.38 389.62,-608.88"/>
<text text-anchor="start" x="282.62" y="-595.38" font-family="Helvetica,sans-Serif" font-size="10.00">CommonITILValidation</text>
<text text-anchor="middle" x="332.12" y="-584.12" font-family="Helvetica,sans-Serif" font-size="10.00">\showForm</text>
</a>
</g>
</g>
<!-- Node5&#45;&gt;Node6 -->
<g id="edge75_Node000005_Node000006" class="edge">
<title>Node5&#45;&gt;Node6</title>
<g id="a_edge75_Node000005_Node000006"><a xlink:title=" ">
<path fill="none" stroke="#63b8ff" d="M484.55,-568.45C457.92,-572.88 420.76,-579.06 389.91,-584.19"/>
<polygon fill="#63b8ff" stroke="#63b8ff" points="484.84,-571.95 494.13,-566.86 483.69,-565.05 484.84,-571.95"/>
</a>
</g>
</g>
<!-- Node12 -->
<g id="Node000012" class="node">
<title>Node12</title>
<g id="a_Node000012"><a xlink:href="$class_common_d_b_t_m.html#a210240e14a5989328d7b3957b84a6ddd" xlink:title=" ">
<polygon fill="white" stroke="#666666" points="396.75,-560.25 267.5,-560.25 267.5,-541 396.75,-541 396.75,-560.25"/>
<text text-anchor="middle" x="332.12" y="-546.75" font-family="Helvetica,sans-Serif" font-size="10.00">addMessageOnAddAction</text>
</a>
</g>
</g>
<!-- Node11&#45;&gt;Node12 -->
<g id="edge81_Node000011_Node000012" class="edge">
<title>Node11&#45;&gt;Node12</title>
<g id="a_edge81_Node000011_Node000012"><a xlink:title=" ">
<path fill="none" stroke="#63b8ff" d="M485.58,-366.21C471.23,-368.2 455.42,-372.96 444.75,-383.62 396.55,-431.77 457.01,-484.53 408.75,-532.62 405.31,-536.05 401.34,-538.88 397.06,-541.19"/>
<polygon fill="#63b8ff" stroke="#63b8ff" points="485.52,-369.74 495.14,-365.3 484.85,-362.77 485.52,-369.74"/>
</a>
</g>
</g>
<!-- Node13 -->
<g id="Node000013" class="node">
<title>Node13</title>
<g id="a_Node000013"><a xlink:href="$class_common_d_b_t_m.html#ab82cf640daa4f2e90e7ba50712173550" xlink:title=" ">
<polygon fill="white" stroke="#666666" points="402.38,-523.25 261.88,-523.25 261.88,-504 402.38,-504 402.38,-523.25"/>
<text text-anchor="middle" x="332.12" y="-509.75" font-family="Helvetica,sans-Serif" font-size="10.00">addMessageOnDeleteAction</text>
</a>
</g>
</g>
<!-- Node11&#45;&gt;Node13 -->
<g id="edge82_Node000011_Node000013" class="edge">
<title>Node11&#45;&gt;Node13</title>
<g id="a_edge82_Node000011_Node000013"><a xlink:title=" ">
<path fill="none" stroke="#63b8ff" d="M485.22,-366.7C471.13,-368.81 455.62,-373.54 444.75,-383.62 406.42,-419.18 447.12,-460.11 408.75,-495.62 405.38,-498.74 401.58,-501.35 397.5,-503.52"/>
<polygon fill="#63b8ff" stroke="#63b8ff" points="485.51,-370.19 495.08,-365.64 484.76,-363.23 485.51,-370.19"/>
</a>
</g>
</g>
<!-- Node14 -->
<g id="Node000014" class="node">
<title>Node14</title>
<g id="a_Node000014"><a xlink:href="$class_common_d_b_t_m.html#af01fa3de1ae4b6be783f8815a0e55667" xlink:title=" ">
<polygon fill="white" stroke="#666666" points="400.88,-486.25 263.38,-486.25 263.38,-467 400.88,-467 400.88,-486.25"/>
<text text-anchor="middle" x="332.12" y="-472.75" font-family="Helvetica,sans-Serif" font-size="10.00">addMessageOnPurgeAction</text>
</a>
</g>
</g>
<!-- Node11&#45;&gt;Node14 -->
<g id="edge83_Node000011_Node000014" class="edge">
<title>Node11&#45;&gt;Node14</title>
<g id="a_edge83_Node000011_Node000014"><a xlink:title=" ">
<path fill="none" stroke="#63b8ff" d="M485.27,-367.53C471.45,-369.81 456.12,-374.43 444.75,-383.62 415.99,-406.86 437.54,-435.42 408.75,-458.62 404.86,-461.76 400.52,-464.36 395.93,-466.52"/>
<polygon fill="#63b8ff" stroke="#63b8ff" points="485.42,-371.04 494.9,-366.31 484.54,-364.1 485.42,-371.04"/>
</a>
</g>
</g>
<!-- Node15 -->
<g id="Node000015" class="node">
<title>Node15</title>
<g id="a_Node000015"><a xlink:href="$class_common_d_b_t_m.html#a2cb360c08320f09d72a9668b6076df69" xlink:title=" ">
<polygon fill="white" stroke="#666666" points="405.38,-449.25 258.88,-449.25 258.88,-430 405.38,-430 405.38,-449.25"/>
<text text-anchor="middle" x="332.12" y="-435.75" font-family="Helvetica,sans-Serif" font-size="10.00">addMessageOnRestoreAction</text>
</a>
</g>
</g>
<!-- Node11&#45;&gt;Node15 -->
<g id="edge84_Node000011_Node000015" class="edge">
<title>Node11&#45;&gt;Node15</title>
<g id="a_edge84_Node000011_Node000015"><a xlink:title=" ">
<path fill="none" stroke="#63b8ff" d="M485.25,-369.62C471.95,-372.23 457.01,-376.53 444.75,-383.62 424.61,-395.27 428.9,-410 408.75,-421.62 403.25,-424.79 397.23,-427.41 391.05,-429.56"/>
<polygon fill="#63b8ff" stroke="#63b8ff" points="485.64,-373.1 494.92,-367.99 484.47,-366.2 485.64,-373.1"/>
</a>
</g>
</g>
<!-- Node19 -->
<g id="Node000019" class="node">
<title>Node19</title>
<g id="a_Node000019"><a xlink:href="$class_common_d_b_t_m.html#a4df233376744651b41888e2b4dd5f1c8" xlink:title=" ">
<polygon fill="white" stroke="#666666" points="403.88,-412.25 260.38,-412.25 260.38,-393 403.88,-393 403.88,-412.25"/>
<text text-anchor="middle" x="332.12" y="-398.75" font-family="Helvetica,sans-Serif" font-size="10.00">addMessageOnUpdateAction</text>
</a>
</g>
</g>
<!-- Node11&#45;&gt;Node19 -->
<g id="edge88_Node000011_Node000019" class="edge">
<title>Node11&#45;&gt;Node19</title>
<g id="a_edge88_Node000011_Node000019"><a xlink:title=" ">
<path fill="none" stroke="#63b8ff" d="M485.42,-372.41C457.07,-378.03 416.35,-386.11 384.15,-392.5"/>
<polygon fill="#63b8ff" stroke="#63b8ff" points="485.77,-375.91 494.9,-370.53 484.41,-369.04 485.77,-375.91"/>
</a>
</g>
</g>
<!-- Node20 -->
<g id="Node000020" class="node">
<title>Node20</title>
<g id="a_Node000020"><a xlink:href="$class_group.html#a11bfd4f1c3d20361c73d1a68322d349d" xlink:title=" ">
<polygon fill="white" stroke="#666666" points="383.62,-375.25 280.62,-375.25 280.62,-356 383.62,-356 383.62,-375.25"/>
<text text-anchor="middle" x="332.12" y="-361.75" font-family="Helvetica,sans-Serif" font-size="10.00">Group\getGroupLink</text>
</a>
</g>
</g>
<!-- Node11&#45;&gt;Node20 -->
<g id="edge89_Node000011_Node000020" class="edge">
<title>Node11&#45;&gt;Node20</title>
<g id="a_edge89_Node000011_Node000020"><a xlink:title=" ">
<path fill="none" stroke="#63b8ff" d="M485,-365.62C456.56,-365.62 415.87,-365.62 383.76,-365.62"/>
<polygon fill="#63b8ff" stroke="#63b8ff" points="484.87,-369.13 494.87,-365.63 484.87,-362.13 484.87,-369.13"/>
</a>
</g>
</g>
<!-- Node21 -->
<g id="Node000021" class="node">
<title>Node21</title>
<g id="a_Node000021"><a xlink:href="$class_common_device.html#a059cbcefba05e4e3fa9bf1f9c8136578" xlink:title=" ">
<polygon fill="white" stroke="#666666" points="408.75,-337.88 255.5,-337.88 255.5,-307.38 408.75,-307.38 408.75,-337.88"/>
<text text-anchor="start" x="263.5" y="-324.38" font-family="Helvetica,sans-Serif" font-size="10.00">CommonDevice\getHTMLTable</text>
<text text-anchor="middle" x="332.12" y="-313.12" font-family="Helvetica,sans-Serif" font-size="10.00">CellForItem</text>
</a>
</g>
</g>
<!-- Node11&#45;&gt;Node21 -->
<g id="edge90_Node000011_Node000021" class="edge">
<title>Node11&#45;&gt;Node21</title>
<g id="a_edge90_Node000011_Node000021"><a xlink:title=" ">
<path fill="none" stroke="#63b8ff" d="M485.26,-357.7C461.77,-352.29 429.85,-344.93 401.32,-338.35"/>
<polygon fill="#63b8ff" stroke="#63b8ff" points="484.38,-361.09 494.91,-359.93 485.95,-354.27 484.38,-361.09"/>
</a>
</g>
</g>
<!-- Node22 -->
<g id="Node000022" class="node">
<title>Node22</title>
<g id="a_Node000022"><a xlink:href="$class_common_tree_dropdown.html#ae86d372b2877112c24cfb0fe47fd82d7" xlink:title=" ">
<polygon fill="white" stroke="#666666" points="391.88,-288.88 272.38,-288.88 272.38,-258.38 391.88,-258.38 391.88,-288.88"/>
<text text-anchor="start" x="280.38" y="-275.38" font-family="Helvetica,sans-Serif" font-size="10.00">CommonTreeDropdown</text>
<text text-anchor="middle" x="332.12" y="-264.12" font-family="Helvetica,sans-Serif" font-size="10.00">\getTreeLink</text>
</a>
</g>
</g>
<!-- Node11&#45;&gt;Node22 -->
<g id="edge91_Node000011_Node000022" class="edge">
<title>Node11&#45;&gt;Node22</title>
<g id="a_edge91_Node000011_Node000022"><a xlink:title=" ">
<path fill="none" stroke="#63b8ff" d="M485.09,-361.88C471.66,-359.19 456.66,-354.56 444.75,-346.62 422.56,-331.84 430.4,-314.19 408.75,-298.62 403.7,-294.99 398.08,-291.87 392.26,-289.18"/>
<polygon fill="#63b8ff" stroke="#63b8ff" points="484.45,-365.32 494.89,-363.53 485.61,-358.41 484.45,-365.32"/>
</a>
</g>
</g>
<!-- Node23 -->
<g id="Node000023" class="node">
<title>Node23</title>
<g id="a_Node000023"><a xlink:href="$class_cartridge.html#ad9ff7dc815340fcc80632e01c3acb287" xlink:title=" ">
<polygon fill="white" stroke="#666666" points="384.38,-240.25 279.88,-240.25 279.88,-221 384.38,-221 384.38,-240.25"/>
<text text-anchor="middle" x="332.12" y="-226.75" font-family="Helvetica,sans-Serif" font-size="10.00">Cartridge\showForm</text>
</a>
</g>
</g>
<!-- Node11&#45;&gt;Node23 -->
<g id="edge92_Node000011_Node000023" class="edge">
<title>Node11&#45;&gt;Node23</title>
<g id="a_edge92_Node000011_Node000023"><a xlink:title=" ">
<path fill="none" stroke="#63b8ff" d="M485.11,-363.76C471.13,-361.39 455.74,-356.5 444.75,-346.62 410.54,-315.89 442.99,-280.32 408.75,-249.62 401.9,-243.48 393.35,-239.26 384.49,-236.37"/>
<polygon fill="#63b8ff" stroke="#63b8ff" points="484.52,-367.22 494.89,-365.02 485.42,-360.28 484.52,-367.22"/>
</a>
</g>
</g>
<!-- Node24 -->
<g id="Node000024" class="node">
<title>Node24</title>
<g id="a_Node000024"><a xlink:href="$class_notification___notification_template.html#ad9ff7dc815340fcc80632e01c3acb287" xlink:title=" ">
<polygon fill="white" stroke="#666666" points="392.25,-202.88 272,-202.88 272,-172.38 392.25,-172.38 392.25,-202.88"/>
<text text-anchor="start" x="280" y="-189.38" font-family="Helvetica,sans-Serif" font-size="10.00">Notification_Notification</text>
<text text-anchor="middle" x="332.12" y="-178.12" font-family="Helvetica,sans-Serif" font-size="10.00">Template\showForm</text>
</a>
</g>
</g>
<!-- Node11&#45;&gt;Node24 -->
<g id="edge93_Node000011_Node000024" class="edge">
<title>Node11&#45;&gt;Node24</title>
<g id="a_edge93_Node000011_Node000024"><a xlink:title=" ">
<path fill="none" stroke="#63b8ff" d="M485.67,-364.42C471.34,-362.21 455.51,-357.26 444.75,-346.62 400.58,-302.98 451.62,-256.55 408.75,-211.62 404.19,-206.84 398.67,-203.01 392.73,-199.94"/>
<polygon fill="#63b8ff" stroke="#63b8ff" points="484.88,-367.86 495.21,-365.5 485.66,-360.9 484.88,-367.86"/>
</a>
</g>
</g>
<!-- Node25 -->
<g id="Node000025" class="node">
<title>Node25</title>
<g id="a_Node000025"><a xlink:href="$class_rule.html#a59e3cf95d345a38616f62cd1a7ffa1bf" xlink:title=" ">
<polygon fill="white" stroke="#666666" points="391.5,-154.25 272.75,-154.25 272.75,-135 391.5,-135 391.5,-154.25"/>
<text text-anchor="middle" x="332.12" y="-140.75" font-family="Helvetica,sans-Serif" font-size="10.00">Rule\showMinimalForm</text>
</a>
</g>
</g>
<!-- Node11&#45;&gt;Node25 -->
<g id="edge94_Node000011_Node000025" class="edge">
<title>Node11&#45;&gt;Node25</title>
<g id="a_edge94_Node000011_Node000025"><a xlink:title=" ">
<path fill="none" stroke="#63b8ff" d="M485.33,-364.75C470.94,-362.6 455.16,-357.61 444.75,-346.62 387.75,-286.44 465.82,-223.74 408.75,-163.62 404,-158.62 398.14,-154.85 391.8,-152.03"/>
<polygon fill="#63b8ff" stroke="#63b8ff" points="484.63,-368.2 494.94,-365.77 485.36,-361.24 484.63,-368.2"/>
</a>
</g>
</g>
<!-- Node16 -->
<g id="Node000016" class="node">
<title>Node16</title>
<g id="a_Node000016"><a xlink:href="$class_common_d_b_t_m.html#a4de271edefba43057ac846cae3c294de" xlink:title=" ">
<polygon fill="white" stroke="#666666" points="219.5,-449.25 173.5,-449.25 173.5,-430 219.5,-430 219.5,-449.25"/>
<text text-anchor="middle" x="196.5" y="-435.75" font-family="Helvetica,sans-Serif" font-size="10.00">restore</text>
</a>
</g>
</g>
<!-- Node15&#45;&gt;Node16 -->
<g id="edge85_Node000015_Node000016" class="edge">
<title>Node15&#45;&gt;Node16</title>
<g id="a_edge85_Node000015_Node000016"><a xlink:title=" ">
<path fill="none" stroke="#63b8ff" d="M247.03,-439.62C237.08,-439.62 227.67,-439.62 219.79,-439.62"/>
<polygon fill="#63b8ff" stroke="#63b8ff" points="246.93,-443.13 256.93,-439.63 246.93,-436.13 246.93,-443.13"/>
</a>
</g>
</g>
<!-- Node17 -->
<g id="Node000017" class="node">
<title>Node17</title>
<g id="a_Node000017"><a xlink:href="$class_printer.html#ad43c9a1c69b3fa2ac7c216f5a524c010" xlink:title=" ">
<polygon fill="white" stroke="#666666" points="132.25,-468.25 5.25,-468.25 5.25,-449 132.25,-449 132.25,-468.25"/>
<text text-anchor="middle" x="68.75" y="-454.75" font-family="Helvetica,sans-Serif" font-size="10.00">Printer\removeFromTrash</text>
</a>
</g>
</g>
<!-- Node16&#45;&gt;Node17 -->
<g id="edge86_Node000016_Node000017" class="edge">
<title>Node16&#45;&gt;Node17</title>
<g id="a_edge86_Node000016_Node000017"><a xlink:title=" ">
<path fill="none" stroke="#63b8ff" d="M161.78,-444.72C152.71,-446.09 142.61,-447.62 132.5,-449.14"/>
<polygon fill="#63b8ff" stroke="#63b8ff" points="162.16,-448.2 171.52,-443.25 161.11,-441.28 162.16,-448.2"/>
</a>
</g>
</g>
<!-- Node18 -->
<g id="Node000018" class="node">
<title>Node18</title>
<g id="a_Node000018"><a xlink:href="$class_software.html#ad43c9a1c69b3fa2ac7c216f5a524c010" xlink:title=" ">
<polygon fill="white" stroke="#666666" points="137.5,-431.25 0,-431.25 0,-412 137.5,-412 137.5,-431.25"/>
<text text-anchor="middle" x="68.75" y="-417.75" font-family="Helvetica,sans-Serif" font-size="10.00">Software\removeFromTrash</text>
</a>
</g>
</g>
<!-- Node16&#45;&gt;Node18 -->
<g id="edge87_Node000016_Node000018" class="edge">
<title>Node16&#45;&gt;Node18</title>
<g id="a_edge87_Node000016_Node000018"><a xlink:title=" ">
<path fill="none" stroke="#63b8ff" d="M161.65,-434.78C154.23,-433.72 146.11,-432.56 137.88,-431.38"/>
<polygon fill="#63b8ff" stroke="#63b8ff" points="161.13,-438.24 171.52,-436.19 162.12,-431.31 161.13,-438.24"/>
</a>
</g>
</g>
<!-- Node31 -->
<g id="Node000031" class="node">
<title>Node31</title>
<g id="a_Node000031"><a xlink:href="$class_common_i_t_i_l_object.html#a93a8283336cdbc32abed8dd9cbbe2fc9" xlink:title=" ">
<polygon fill="white" stroke="#666666" points="596.5,-104.88 444.75,-104.88 444.75,-74.38 596.5,-74.38 596.5,-104.88"/>
<text text-anchor="start" x="452.75" y="-91.38" font-family="Helvetica,sans-Serif" font-size="10.00">CommonITILObject\addDefault</text>
<text text-anchor="middle" x="520.62" y="-80.12" font-family="Helvetica,sans-Serif" font-size="10.00">FormTab</text>
</a>
</g>
</g>
<!-- Node30&#45;&gt;Node31 -->
<g id="edge100_Node000030_Node000031" class="edge">
<title>Node30&#45;&gt;Node31</title>
<g id="a_edge100_Node000030_Node000031"><a xlink:title=" ">
<path fill="none" stroke="#63b8ff" d="M620.93,-78.49C612.93,-79.39 604.87,-80.29 597,-81.17"/>
<polygon fill="#63b8ff" stroke="#63b8ff" points="621.12,-81.99 630.67,-77.4 620.34,-75.03 621.12,-81.99"/>
</a>
</g>
</g>
<!-- Node35 -->
<g id="Node000035" class="node">
<title>Node35</title>
<g id="a_Node000035"><a xlink:href="$class_common_i_t_i_l_object.html#ad9ff7dc815340fcc80632e01c3acb287" xlink:title=" ">
<polygon fill="white" stroke="#666666" points="595.75,-56.25 445.5,-56.25 445.5,-37 595.75,-37 595.75,-56.25"/>
<text text-anchor="middle" x="520.62" y="-42.75" font-family="Helvetica,sans-Serif" font-size="10.00">CommonITILObject\showForm</text>
</a>
</g>
</g>
<!-- Node30&#45;&gt;Node35 -->
<g id="edge104_Node000030_Node000035" class="edge">
<title>Node30&#45;&gt;Node35</title>
<g id="a_edge104_Node000030_Node000035"><a xlink:title=" ">
<path fill="none" stroke="#63b8ff" d="M620.91,-58.29C612.61,-57.32 604.25,-56.33 596.09,-55.37"/>
<polygon fill="#63b8ff" stroke="#63b8ff" points="620.33,-61.75 630.67,-59.44 621.15,-54.79 620.33,-61.75"/>
</a>
</g>
</g>
<!-- Node36 -->
<g id="Node000036" class="node">
<title>Node36</title>
<g id="a_Node000036"><a xlink:href="$class_ticket.html#ad9ff7dc815340fcc80632e01c3acb287" xlink:title=" ">
<polygon fill="white" stroke="#666666" points="566.5,-19.25 474.75,-19.25 474.75,0 566.5,0 566.5,-19.25"/>
<text text-anchor="middle" x="520.62" y="-5.75" font-family="Helvetica,sans-Serif" font-size="10.00">Ticket\showForm</text>
</a>
</g>
</g>
<!-- Node30&#45;&gt;Node36 -->
<g id="edge105_Node000030_Node000036" class="edge">
<title>Node30&#45;&gt;Node36</title>
<g id="a_edge105_Node000030_Node000036"><a xlink:title=" ">
<path fill="none" stroke="#63b8ff" d="M658.55,-48.88C639.3,-41.69 617.04,-33.82 596.5,-27.62 587.03,-24.77 576.78,-22.06 566.99,-19.65"/>
<polygon fill="#63b8ff" stroke="#63b8ff" points="657.19,-52.1 667.78,-52.36 659.66,-45.56 657.19,-52.1"/>
</a>
</g>
</g>
<!-- Node32 -->
<g id="Node000032" class="node">
<title>Node32</title>
<g id="a_Node000032"><a xlink:href="$class_change.html#ae5e0ec8c762b06578c493e9a6a34e5e4" xlink:title=" ">
<polygon fill="white" stroke="#666666" points="382.12,-117.25 282.12,-117.25 282.12,-98 382.12,-98 382.12,-117.25"/>
<text text-anchor="middle" x="332.12" y="-103.75" font-family="Helvetica,sans-Serif" font-size="10.00">Change\defineTabs</text>
</a>
</g>
</g>
<!-- Node31&#45;&gt;Node32 -->
<g id="edge101_Node000031_Node000032" class="edge">
<title>Node31&#45;&gt;Node32</title>
<g id="a_edge101_Node000031_Node000032"><a xlink:title=" ">
<path fill="none" stroke="#63b8ff" d="M432.98,-97.99C415.65,-99.66 398.01,-101.36 382.48,-102.86"/>
<polygon fill="#63b8ff" stroke="#63b8ff" points="433.18,-101.48 442.8,-97.04 432.51,-94.52 433.18,-101.48"/>
</a>
</g>
</g>
<!-- Node33 -->
<g id="Node000033" class="node">
<title>Node33</title>
<g id="a_Node000033"><a xlink:href="$class_problem.html#ae5e0ec8c762b06578c493e9a6a34e5e4" xlink:title=" ">
<polygon fill="white" stroke="#666666" points="383.25,-80.25 281,-80.25 281,-61 383.25,-61 383.25,-80.25"/>
<text text-anchor="middle" x="332.12" y="-66.75" font-family="Helvetica,sans-Serif" font-size="10.00">Problem\defineTabs</text>
</a>
</g>
</g>
<!-- Node31&#45;&gt;Node33 -->
<g id="edge102_Node000031_Node000033" class="edge">
<title>Node31&#45;&gt;Node33</title>
<g id="a_edge102_Node000031_Node000033"><a xlink:title=" ">
<path fill="none" stroke="#63b8ff" d="M433.21,-80.82C416.21,-79.09 398.91,-77.33 383.58,-75.77"/>
<polygon fill="#63b8ff" stroke="#63b8ff" points="432.5,-84.27 442.8,-81.8 433.21,-77.3 432.5,-84.27"/>
</a>
</g>
</g>
<!-- Node34 -->
<g id="Node000034" class="node">
<title>Node34</title>
<g id="a_Node000034"><a xlink:href="$class_ticket.html#ae5e0ec8c762b06578c493e9a6a34e5e4" xlink:title=" ">
<polygon fill="white" stroke="#666666" points="378.75,-43.25 285.5,-43.25 285.5,-24 378.75,-24 378.75,-43.25"/>
<text text-anchor="middle" x="332.12" y="-29.75" font-family="Helvetica,sans-Serif" font-size="10.00">Ticket\defineTabs</text>
</a>
</g>
</g>
<!-- Node31&#45;&gt;Node34 -->
<g id="edge103_Node000031_Node000034" class="edge">
<title>Node31&#45;&gt;Node34</title>
<g id="a_edge103_Node000031_Node000034"><a xlink:title=" ">
<path fill="none" stroke="#63b8ff" d="M458.36,-70.32C453.74,-68.77 449.16,-67.19 444.75,-65.62 428.57,-59.89 425.14,-56.74 408.75,-51.62 399.22,-48.65 388.87,-45.89 378.99,-43.47"/>
<polygon fill="#63b8ff" stroke="#63b8ff" points="457.11,-73.6 467.7,-73.43 459.32,-66.95 457.11,-73.6"/>
</a>
</g>
</g>
</g>
</svg>
