<?xml version="1.0" encoding="UTF-8" standalone="no"?>
<!DOCTYPE svg PUBLIC "-//W3C//DTD SVG 1.1//EN"
 "http://www.w3.org/Graphics/SVG/1.1/DTD/svg11.dtd">
<!-- Generated by graphviz version 10.0.1 (20240210.2158)
 -->
<!-- Title: moveUploadedDocument Pages: 1 -->
<svg width="283pt" height="64pt"
 viewBox="0.00 0.00 283.00 64.25" xmlns="http://www.w3.org/2000/svg" xmlns:xlink="http://www.w3.org/1999/xlink">
<g id="graph0" class="graph" transform="scale(1 1) rotate(0) translate(4 60.25)">
<title>moveUploadedDocument</title>
<!-- Node1 -->
<g id="Node000001" class="node">
<title>Node1</title>
<g id="a_Node000001"><a xlink:title=" ">
<polygon fill="#999999" stroke="#666666" points="126.25,-37.25 0,-37.25 0,-18 126.25,-18 126.25,-37.25"/>
<text text-anchor="middle" x="63.12" y="-23.75" font-family="Helvetica,sans-Serif" font-size="10.00">moveUploadedDocument</text>
</a>
</g>
</g>
<!-- Node2 -->
<g id="Node000002" class="node">
<title>Node2</title>
<g id="a_Node000002"><a xlink:href="$db_8function_8php.html#a79aa7be8cf7cb17b8049e99ef2dd079b" xlink:title=" ">
<polygon fill="white" stroke="#666666" points="275,-56.25 162.25,-56.25 162.25,-37 275,-37 275,-56.25"/>
<text text-anchor="middle" x="218.62" y="-42.75" font-family="Helvetica,sans-Serif" font-size="10.00">countElementsInTable</text>
</a>
</g>
</g>
<!-- Node1&#45;&gt;Node2 -->
<g id="edge5_Node000001_Node000002" class="edge">
<title>Node1&#45;&gt;Node2</title>
<g id="a_edge5_Node000001_Node000002"><a xlink:title=" ">
<path fill="none" stroke="#63b8ff" d="M126.56,-35.35C134.57,-36.34 142.8,-37.36 150.87,-38.36"/>
<polygon fill="#63b8ff" stroke="#63b8ff" points="150.3,-41.82 160.65,-39.57 151.16,-34.87 150.3,-41.82"/>
</a>
</g>
</g>
<!-- Node3 -->
<g id="Node000003" class="node">
<title>Node3</title>
<g id="a_Node000003"><a xlink:href="$class_toolbox.html#a6048f2ba6e99af5d09db54618117c65f" xlink:title=" ">
<polygon fill="white" stroke="#666666" points="263.75,-19.25 173.5,-19.25 173.5,0 263.75,0 263.75,-19.25"/>
<text text-anchor="middle" x="218.62" y="-5.75" font-family="Helvetica,sans-Serif" font-size="10.00">Toolbox\getMime</text>
</a>
</g>
</g>
<!-- Node1&#45;&gt;Node3 -->
<g id="edge6_Node000001_Node000003" class="edge">
<title>Node1&#45;&gt;Node3</title>
<g id="a_edge6_Node000001_Node000003"><a xlink:title=" ">
<path fill="none" stroke="#63b8ff" d="M126.56,-20.3C138.26,-18.93 150.43,-17.5 161.91,-16.16"/>
<polygon fill="#63b8ff" stroke="#63b8ff" points="162.1,-19.66 171.62,-15.02 161.28,-12.71 162.1,-19.66"/>
</a>
</g>
</g>
</g>
</svg>
