<?xml version="1.0" encoding="UTF-8" standalone="no"?>
<!DOCTYPE svg PUBLIC "-//W3C//DTD SVG 1.1//EN"
 "http://www.w3.org/Graphics/SVG/1.1/DTD/svg11.dtd">
<!-- Generated by graphviz version 10.0.1 (20240210.2158)
 -->
<!-- Title: sign_detached Pages: 1 -->
<svg width="919pt" height="190pt"
 viewBox="0.00 0.00 918.50 189.50" xmlns="http://www.w3.org/2000/svg" xmlns:xlink="http://www.w3.org/1999/xlink">
<g id="graph0" class="graph" transform="scale(1 1) rotate(0) translate(4 185.5)">
<title>sign_detached</title>
<!-- Node1 -->
<g id="Node000001" class="node">
<title>Node1</title>
<g id="a_Node000001"><a xlink:title=" ">
<polygon fill="#999999" stroke="#666666" points="79,-85.88 0,-85.88 0,-66.62 79,-66.62 79,-85.88"/>
<text text-anchor="middle" x="39.5" y="-72.38" font-family="Helvetica,sans-Serif" font-size="10.00">sign_detached</text>
</a>
</g>
</g>
<!-- Node2 -->
<g id="Node000002" class="node">
<title>Node2</title>
<g id="a_Node000002"><a xlink:href="$class_paragon_i_e___sodium___core___curve25519.html#a030f1ca44c10e218be031edf086180af" xlink:title=" ">
<polygon fill="white" stroke="#666666" points="255.5,-137.5 115,-137.5 115,-107 255.5,-107 255.5,-137.5"/>
<text text-anchor="start" x="123" y="-124" font-family="Helvetica,sans-Serif" font-size="10.00">ParagonIE_Sodium_Core</text>
<text text-anchor="middle" x="185.25" y="-112.75" font-family="Helvetica,sans-Serif" font-size="10.00">_Curve25519\ge_p3_tobytes</text>
</a>
</g>
</g>
<!-- Node1&#45;&gt;Node2 -->
<g id="edge25_Node000001_Node000002" class="edge">
<title>Node1&#45;&gt;Node2</title>
<g id="a_edge25_Node000001_Node000002"><a xlink:title=" ">
<path fill="none" stroke="#63b8ff" d="M72.05,-86.34C87.45,-91.27 106.51,-97.37 124.52,-103.14"/>
<polygon fill="#63b8ff" stroke="#63b8ff" points="123.22,-106.4 133.82,-106.11 125.36,-99.73 123.22,-106.4"/>
</a>
</g>
</g>
<!-- Node8 -->
<g id="Node000008" class="node">
<title>Node8</title>
<g id="a_Node000008"><a xlink:href="$class_paragon_i_e___sodium___core___util.html#ac5239a72975aba227b1f5e35b8e22a34" xlink:title=" ">
<polygon fill="white" stroke="#666666" points="417.75,-89.5 291.5,-89.5 291.5,-59 417.75,-59 417.75,-89.5"/>
<text text-anchor="start" x="299.5" y="-76" font-family="Helvetica,sans-Serif" font-size="10.00">ParagonIE_Sodium_Core</text>
<text text-anchor="middle" x="354.62" y="-64.75" font-family="Helvetica,sans-Serif" font-size="10.00">_Util\intToChr</text>
</a>
</g>
</g>
<!-- Node1&#45;&gt;Node8 -->
<g id="edge36_Node000001_Node000008" class="edge">
<title>Node1&#45;&gt;Node8</title>
<g id="a_edge36_Node000001_Node000008"><a xlink:title=" ">
<path fill="none" stroke="#63b8ff" d="M79.21,-76C129.12,-75.68 216.95,-75.12 279.81,-74.72"/>
<polygon fill="#63b8ff" stroke="#63b8ff" points="279.75,-78.22 289.73,-74.66 279.71,-71.22 279.75,-78.22"/>
</a>
</g>
</g>
<!-- Node9 -->
<g id="Node000009" class="node">
<title>Node9</title>
<g id="a_Node000009"><a xlink:href="$class_paragon_i_e___sodium___core___util.html#ae51a8f974736c3ac41265124a556b41d" xlink:title=" ">
<polygon fill="white" stroke="#666666" points="248.38,-30.5 122.12,-30.5 122.12,0 248.38,0 248.38,-30.5"/>
<text text-anchor="start" x="130.12" y="-17" font-family="Helvetica,sans-Serif" font-size="10.00">ParagonIE_Sodium_Core</text>
<text text-anchor="middle" x="185.25" y="-5.75" font-family="Helvetica,sans-Serif" font-size="10.00">_Util\hash_update</text>
</a>
</g>
</g>
<!-- Node1&#45;&gt;Node9 -->
<g id="edge34_Node000001_Node000009" class="edge">
<title>Node1&#45;&gt;Node9</title>
<g id="a_edge34_Node000001_Node000009"><a xlink:title=" ">
<path fill="none" stroke="#63b8ff" d="M64.24,-66.18C83.9,-57.84 112.45,-45.72 136.77,-35.4"/>
<polygon fill="#63b8ff" stroke="#63b8ff" points="138.01,-38.67 145.85,-31.54 135.28,-32.23 138.01,-38.67"/>
</a>
</g>
</g>
<!-- Node3 -->
<g id="Node000003" class="node">
<title>Node3</title>
<g id="a_Node000003"><a xlink:href="$class_paragon_i_e___sodium___core___curve25519.html#abe5662141c750d6cb9c459afd53eebc3" xlink:title=" ">
<polygon fill="white" stroke="#666666" points="417.75,-138.5 291.5,-138.5 291.5,-108 417.75,-108 417.75,-138.5"/>
<text text-anchor="start" x="299.5" y="-125" font-family="Helvetica,sans-Serif" font-size="10.00">ParagonIE_Sodium_Core</text>
<text text-anchor="middle" x="354.62" y="-113.75" font-family="Helvetica,sans-Serif" font-size="10.00">_Curve25519\fe_invert</text>
</a>
</g>
</g>
<!-- Node2&#45;&gt;Node3 -->
<g id="edge26_Node000002_Node000003" class="edge">
<title>Node2&#45;&gt;Node3</title>
<g id="a_edge26_Node000002_Node000003"><a xlink:title=" ">
<path fill="none" stroke="#63b8ff" d="M255.78,-122.67C263.78,-122.71 271.95,-122.76 280,-122.81"/>
<polygon fill="#63b8ff" stroke="#63b8ff" points="279.73,-126.31 289.75,-122.87 279.77,-119.31 279.73,-126.31"/>
</a>
</g>
</g>
<!-- Node4 -->
<g id="Node000004" class="node">
<title>Node4</title>
<g id="a_Node000004"><a xlink:href="$class_paragon_i_e___sodium___core___curve25519.html#a64516f7aacad228d305e021632044d36" xlink:title=" ">
<polygon fill="white" stroke="#666666" points="580,-181.5 453.75,-181.5 453.75,-151 580,-151 580,-181.5"/>
<text text-anchor="start" x="461.75" y="-168" font-family="Helvetica,sans-Serif" font-size="10.00">ParagonIE_Sodium_Core</text>
<text text-anchor="middle" x="516.88" y="-156.75" font-family="Helvetica,sans-Serif" font-size="10.00">_Curve25519\fe_mul</text>
</a>
</g>
</g>
<!-- Node2&#45;&gt;Node4 -->
<g id="edge32_Node000002_Node000004" class="edge">
<title>Node2&#45;&gt;Node4</title>
<g id="a_edge32_Node000002_Node000004"><a xlink:title=" ">
<path fill="none" stroke="#63b8ff" d="M245.5,-137.95C260.43,-141.46 276.48,-144.84 291.5,-147.25 341.46,-155.25 398.26,-160.02 442.21,-162.78"/>
<polygon fill="#63b8ff" stroke="#63b8ff" points="441.97,-166.27 452.16,-163.38 442.39,-159.28 441.97,-166.27"/>
</a>
</g>
</g>
<!-- Node2&#45;&gt;Node8 -->
<g id="edge33_Node000002_Node000008" class="edge">
<title>Node2&#45;&gt;Node8</title>
<g id="a_edge33_Node000002_Node000008"><a xlink:title=" ">
<path fill="none" stroke="#63b8ff" d="M241.05,-106.53C256.16,-102.2 272.7,-97.46 288.33,-92.97"/>
<polygon fill="#63b8ff" stroke="#63b8ff" points="288.88,-96.46 297.53,-90.34 286.95,-89.73 288.88,-96.46"/>
</a>
</g>
</g>
<!-- Node3&#45;&gt;Node4 -->
<g id="edge27_Node000003_Node000004" class="edge">
<title>Node3&#45;&gt;Node4</title>
<g id="a_edge27_Node000003_Node000004"><a xlink:title=" ">
<path fill="none" stroke="#63b8ff" d="M413.93,-138.9C424.43,-141.71 435.46,-144.67 446.24,-147.56"/>
<polygon fill="#63b8ff" stroke="#63b8ff" points="445.32,-150.94 455.88,-150.15 447.13,-144.18 445.32,-150.94"/>
</a>
</g>
</g>
<!-- Node7 -->
<g id="Node000007" class="node">
<title>Node7</title>
<g id="a_Node000007"><a xlink:href="$class_paragon_i_e___sodium___core___curve25519.html#a59f7bf4bc4e4cedd40177472cdc31cb8" xlink:title=" ">
<polygon fill="white" stroke="#666666" points="580,-132.5 453.75,-132.5 453.75,-102 580,-102 580,-132.5"/>
<text text-anchor="start" x="461.75" y="-119" font-family="Helvetica,sans-Serif" font-size="10.00">ParagonIE_Sodium_Core</text>
<text text-anchor="middle" x="516.88" y="-107.75" font-family="Helvetica,sans-Serif" font-size="10.00">_Curve25519\fe_sq</text>
</a>
</g>
</g>
<!-- Node3&#45;&gt;Node7 -->
<g id="edge30_Node000003_Node000007" class="edge">
<title>Node3&#45;&gt;Node7</title>
<g id="a_edge30_Node000003_Node000007"><a xlink:title=" ">
<path fill="none" stroke="#63b8ff" d="M418.04,-120.91C425.93,-120.62 434.05,-120.31 442.09,-120.01"/>
<polygon fill="#63b8ff" stroke="#63b8ff" points="441.99,-123.52 451.85,-119.65 441.73,-116.52 441.99,-123.52"/>
</a>
</g>
</g>
<!-- Node5 -->
<g id="Node000005" class="node">
<title>Node5</title>
<g id="a_Node000005"><a xlink:href="$class_paragon_i_e___sodium___core___curve25519.html#ae05bd0648b1253432e7c969447d1b77e" xlink:title=" ">
<polygon fill="white" stroke="#666666" points="748.25,-156.5 616,-156.5 616,-126 748.25,-126 748.25,-156.5"/>
<text text-anchor="start" x="624" y="-143" font-family="Helvetica,sans-Serif" font-size="10.00">ParagonIE_Sodium_Core</text>
<text text-anchor="middle" x="682.12" y="-131.75" font-family="Helvetica,sans-Serif" font-size="10.00">_Curve25519\fe_normalize</text>
</a>
</g>
</g>
<!-- Node4&#45;&gt;Node5 -->
<g id="edge28_Node000004_Node000005" class="edge">
<title>Node4&#45;&gt;Node5</title>
<g id="a_edge28_Node000004_Node000005"><a xlink:title=" ">
<path fill="none" stroke="#63b8ff" d="M580.06,-156.73C587.96,-155.52 596.12,-154.27 604.21,-153.03"/>
<polygon fill="#63b8ff" stroke="#63b8ff" points="604.73,-156.49 614.09,-151.52 603.68,-149.57 604.73,-156.49"/>
</a>
</g>
</g>
<!-- Node6 -->
<g id="Node000006" class="node">
<title>Node6</title>
<g id="a_Node000006"><a xlink:href="$class_paragon_i_e___sodium___core___curve25519.html#a93bcc24a23d277ecec10386f3f2e38d5" xlink:title=" ">
<polygon fill="white" stroke="#666666" points="910.5,-156.5 784.25,-156.5 784.25,-126 910.5,-126 910.5,-156.5"/>
<text text-anchor="start" x="792.25" y="-143" font-family="Helvetica,sans-Serif" font-size="10.00">ParagonIE_Sodium_Core</text>
<text text-anchor="middle" x="847.38" y="-131.75" font-family="Helvetica,sans-Serif" font-size="10.00">_Curve25519\fe_copy</text>
</a>
</g>
</g>
<!-- Node5&#45;&gt;Node6 -->
<g id="edge29_Node000005_Node000006" class="edge">
<title>Node5&#45;&gt;Node6</title>
<g id="a_edge29_Node000005_Node000006"><a xlink:title=" ">
<path fill="none" stroke="#63b8ff" d="M748.58,-141.25C756.39,-141.25 764.4,-141.25 772.32,-141.25"/>
<polygon fill="#63b8ff" stroke="#63b8ff" points="772.3,-144.75 782.3,-141.25 772.3,-137.75 772.3,-144.75"/>
</a>
</g>
</g>
<!-- Node7&#45;&gt;Node5 -->
<g id="edge31_Node000007_Node000005" class="edge">
<title>Node7&#45;&gt;Node5</title>
<g id="a_edge31_Node000007_Node000005"><a xlink:title=" ">
<path fill="none" stroke="#63b8ff" d="M580.06,-126.39C587.96,-127.55 596.12,-128.75 604.21,-129.94"/>
<polygon fill="#63b8ff" stroke="#63b8ff" points="603.69,-133.4 614.09,-131.39 604.7,-126.48 603.69,-133.4"/>
</a>
</g>
</g>
<!-- Node9&#45;&gt;Node9 -->
<g id="edge35_Node000009_Node000009" class="edge">
<title>Node9&#45;&gt;Node9</title>
<g id="a_edge35_Node000009_Node000009"><a xlink:title=" ">
<path fill="none" stroke="#63b8ff" d="M159.42,-30.99C154.15,-40.06 162.76,-48.5 185.25,-48.5 197.55,-48.5 205.7,-45.97 209.69,-42.2"/>
<polygon fill="#63b8ff" stroke="#63b8ff" points="213.14,-42.84 210.89,-32.49 206.19,-41.98 213.14,-42.84"/>
</a>
</g>
</g>
</g>
</svg>
