<?xml version="1.0" encoding="UTF-8" standalone="no"?>
<!DOCTYPE svg PUBLIC "-//W3C//DTD SVG 1.1//EN"
 "http://www.w3.org/Graphics/SVG/1.1/DTD/svg11.dtd">
<!-- Generated by graphviz version 10.0.1 (20240210.2158)
 -->
<!-- Title: Code128 Pages: 1 -->
<svg width="144pt" height="716pt"
 viewBox="0.00 0.00 144.00 716.00" xmlns="http://www.w3.org/2000/svg" xmlns:xlink="http://www.w3.org/1999/xlink">
<g id="graph0" class="graph" transform="scale(1 1) rotate(0) translate(4 712)">
<title>Code128</title>
<!-- Node1 -->
<g id="Node000001" class="node">
<title>Node1</title>
<g id="a_Node000001"><a xlink:title=" ">
<polygon fill="#999999" stroke="none" points="128,-187 8,-187 8,0 128,0 128,-187"/>
<text text-anchor="start" x="48.5" y="-173.5" font-family="Helvetica,sans-Serif" font-size="10.00">Code128</text>
<text text-anchor="start" x="12.38" y="-158.5" font-family="Helvetica,sans-Serif" font-size="10.00">#</text>
<text text-anchor="start" x="22" y="-158.5" font-family="Helvetica,sans-Serif" font-size="10.00">$utf8StringWrapper</text>
<text text-anchor="start" x="12" y="-143.5" font-family="Helvetica,sans-Serif" font-size="10.00">+</text>
<text text-anchor="start" x="22" y="-143.5" font-family="Helvetica,sans-Serif" font-size="10.00">__construct()</text>
<text text-anchor="start" x="12" y="-128.5" font-family="Helvetica,sans-Serif" font-size="10.00">+</text>
<text text-anchor="start" x="22" y="-128.5" font-family="Helvetica,sans-Serif" font-size="10.00">setUtf8StringWrapper</text>
<text text-anchor="start" x="22" y="-117.25" font-family="Helvetica,sans-Serif" font-size="10.00">(StringWrapperInterface</text>
<text text-anchor="start" x="22" y="-106" font-family="Helvetica,sans-Serif" font-size="10.00"> $utf8StringWrapper)</text>
<text text-anchor="start" x="12" y="-91.5" font-family="Helvetica,sans-Serif" font-size="10.00">+</text>
<text text-anchor="start" x="22" y="-91.5" font-family="Helvetica,sans-Serif" font-size="10.00">getUtf8StringWrapper()</text>
<text text-anchor="start" x="12" y="-76.5" font-family="Helvetica,sans-Serif" font-size="10.00">+</text>
<text text-anchor="start" x="22" y="-76.5" font-family="Helvetica,sans-Serif" font-size="10.00">hasValidCharacters</text>
<text text-anchor="start" x="22" y="-65.25" font-family="Helvetica,sans-Serif" font-size="10.00">($value)</text>
<text text-anchor="start" x="12.38" y="-50.5" font-family="Helvetica,sans-Serif" font-size="10.00">#</text>
<text text-anchor="start" x="22" y="-50.5" font-family="Helvetica,sans-Serif" font-size="10.00">code128($value)</text>
<text text-anchor="start" x="12.38" y="-35.5" font-family="Helvetica,sans-Serif" font-size="10.00">#</text>
<text text-anchor="start" x="22" y="-35.5" font-family="Helvetica,sans-Serif" font-size="10.00">getCodingSet($value)</text>
<text text-anchor="start" x="12.38" y="-20.5" font-family="Helvetica,sans-Serif" font-size="10.00">#</text>
<text text-anchor="start" x="22" y="-20.5" font-family="Helvetica,sans-Serif" font-size="10.00">ord128($value, $set)</text>
<text text-anchor="start" x="12.38" y="-5.5" font-family="Helvetica,sans-Serif" font-size="10.00">#</text>
<text text-anchor="start" x="22" y="-5.5" font-family="Helvetica,sans-Serif" font-size="10.00">chr128($value, $set)</text>
<polygon fill="#666666" stroke="#666666" points="8,-170 8,-170 128,-170 128,-170 8,-170"/>
<polygon fill="#666666" stroke="#666666" points="8,-155 8,-155 20,-155 20,-155 8,-155"/>
<polygon fill="#666666" stroke="#666666" points="20,-155 20,-155 128,-155 128,-155 20,-155"/>
<polygon fill="none" stroke="#666666" points="8,0 8,-187 128,-187 128,0 8,0"/>
</a>
</g>
</g>
<!-- Node2 -->
<g id="Node000002" class="node">
<title>Node2</title>
<g id="a_Node000002"><a xlink:href="$class_laminas_1_1_validator_1_1_barcode_1_1_abstract_adapter.html" xlink:title=" ">
<polygon fill="white" stroke="none" points="136,-500 0,-500 0,-223 136,-223 136,-500"/>
<text text-anchor="start" x="32.75" y="-486.5" font-family="Helvetica,sans-Serif" font-size="10.00">AbstractAdapter</text>
<text text-anchor="start" x="4.38" y="-471.5" font-family="Helvetica,sans-Serif" font-size="10.00">#</text>
<text text-anchor="start" x="14" y="-471.5" font-family="Helvetica,sans-Serif" font-size="10.00">$options</text>
<text text-anchor="start" x="4" y="-456.5" font-family="Helvetica,sans-Serif" font-size="10.00">+</text>
<text text-anchor="start" x="14" y="-456.5" font-family="Helvetica,sans-Serif" font-size="10.00">hasValidLength($value)</text>
<text text-anchor="start" x="4" y="-441.5" font-family="Helvetica,sans-Serif" font-size="10.00">+</text>
<text text-anchor="start" x="14" y="-441.5" font-family="Helvetica,sans-Serif" font-size="10.00">hasValidCharacters</text>
<text text-anchor="start" x="14" y="-430.25" font-family="Helvetica,sans-Serif" font-size="10.00">($value)</text>
<text text-anchor="start" x="4" y="-415.5" font-family="Helvetica,sans-Serif" font-size="10.00">+</text>
<text text-anchor="start" x="14" y="-415.5" font-family="Helvetica,sans-Serif" font-size="10.00">hasValidChecksum(</text>
<text text-anchor="start" x="14" y="-404.25" font-family="Helvetica,sans-Serif" font-size="10.00">$value)</text>
<text text-anchor="start" x="4" y="-389.5" font-family="Helvetica,sans-Serif" font-size="10.00">+</text>
<text text-anchor="start" x="14" y="-389.5" font-family="Helvetica,sans-Serif" font-size="10.00">getLength()</text>
<text text-anchor="start" x="4" y="-374.5" font-family="Helvetica,sans-Serif" font-size="10.00">+</text>
<text text-anchor="start" x="14" y="-374.5" font-family="Helvetica,sans-Serif" font-size="10.00">getCharacters()</text>
<text text-anchor="start" x="4" y="-359.5" font-family="Helvetica,sans-Serif" font-size="10.00">+</text>
<text text-anchor="start" x="14" y="-359.5" font-family="Helvetica,sans-Serif" font-size="10.00">getChecksum()</text>
<text text-anchor="start" x="4" y="-344.5" font-family="Helvetica,sans-Serif" font-size="10.00">+</text>
<text text-anchor="start" x="14" y="-344.5" font-family="Helvetica,sans-Serif" font-size="10.00">useChecksum($check</text>
<text text-anchor="start" x="14" y="-333.25" font-family="Helvetica,sans-Serif" font-size="10.00">=null)</text>
<text text-anchor="start" x="4.38" y="-318.5" font-family="Helvetica,sans-Serif" font-size="10.00">#</text>
<text text-anchor="start" x="14" y="-318.5" font-family="Helvetica,sans-Serif" font-size="10.00">setChecksum($checksum)</text>
<text text-anchor="start" x="4.38" y="-303.5" font-family="Helvetica,sans-Serif" font-size="10.00">#</text>
<text text-anchor="start" x="14" y="-303.5" font-family="Helvetica,sans-Serif" font-size="10.00">setLength($length)</text>
<text text-anchor="start" x="4.38" y="-288.5" font-family="Helvetica,sans-Serif" font-size="10.00">#</text>
<text text-anchor="start" x="14" y="-288.5" font-family="Helvetica,sans-Serif" font-size="10.00">setCharacters($characters)</text>
<text text-anchor="start" x="4.38" y="-273.5" font-family="Helvetica,sans-Serif" font-size="10.00">#</text>
<text text-anchor="start" x="14" y="-273.5" font-family="Helvetica,sans-Serif" font-size="10.00">gtin($value)</text>
<text text-anchor="start" x="4.38" y="-258.5" font-family="Helvetica,sans-Serif" font-size="10.00">#</text>
<text text-anchor="start" x="14" y="-258.5" font-family="Helvetica,sans-Serif" font-size="10.00">identcode($value)</text>
<text text-anchor="start" x="4.38" y="-243.5" font-family="Helvetica,sans-Serif" font-size="10.00">#</text>
<text text-anchor="start" x="14" y="-243.5" font-family="Helvetica,sans-Serif" font-size="10.00">code25($value)</text>
<text text-anchor="start" x="4.38" y="-228.5" font-family="Helvetica,sans-Serif" font-size="10.00">#</text>
<text text-anchor="start" x="14" y="-228.5" font-family="Helvetica,sans-Serif" font-size="10.00">postnet($value)</text>
<polygon fill="#666666" stroke="#666666" points="0,-483 0,-483 136,-483 136,-483 0,-483"/>
<polygon fill="#666666" stroke="#666666" points="0,-468 0,-468 12,-468 12,-468 0,-468"/>
<polygon fill="#666666" stroke="#666666" points="12,-468 12,-468 136,-468 136,-468 12,-468"/>
<polygon fill="none" stroke="#666666" points="0,-223 0,-500 136,-500 136,-223 0,-223"/>
</a>
</g>
</g>
<!-- Node2&#45;&gt;Node1 -->
<g id="edge5_Node000001_Node000002" class="edge">
<title>Node2&#45;&gt;Node1</title>
<g id="a_edge5_Node000001_Node000002"><a xlink:title=" ">
<path fill="none" stroke="#63b8ff" d="M68,-211.98C68,-203.46 68,-195.02 68,-186.82"/>
<polygon fill="none" stroke="#63b8ff" points="64.5,-211.7 68,-221.7 71.5,-211.7 64.5,-211.7"/>
</a>
</g>
</g>
<!-- Node3 -->
<g id="Node000003" class="node">
<title>Node3</title>
<g id="a_Node000003"><a xlink:href="$interface_laminas_1_1_validator_1_1_barcode_1_1_adapter_interface.html" xlink:title=" ">
<polygon fill="white" stroke="none" points="127,-708 9,-708 9,-536 127,-536 127,-708"/>
<text text-anchor="start" x="32" y="-694.5" font-family="Helvetica,sans-Serif" font-size="10.00">AdapterInterface</text>
<text text-anchor="start" x="66.5" y="-679.5" font-family="Helvetica,sans-Serif" font-size="10.00"> </text>
<text text-anchor="start" x="13" y="-664.5" font-family="Helvetica,sans-Serif" font-size="10.00">+</text>
<text text-anchor="start" x="23" y="-664.5" font-family="Helvetica,sans-Serif" font-size="10.00">hasValidLength($value)</text>
<text text-anchor="start" x="13" y="-649.5" font-family="Helvetica,sans-Serif" font-size="10.00">+</text>
<text text-anchor="start" x="23" y="-649.5" font-family="Helvetica,sans-Serif" font-size="10.00">hasValidCharacters</text>
<text text-anchor="start" x="23" y="-638.25" font-family="Helvetica,sans-Serif" font-size="10.00">($value)</text>
<text text-anchor="start" x="13" y="-623.5" font-family="Helvetica,sans-Serif" font-size="10.00">+</text>
<text text-anchor="start" x="23" y="-623.5" font-family="Helvetica,sans-Serif" font-size="10.00">hasValidChecksum(</text>
<text text-anchor="start" x="23" y="-612.25" font-family="Helvetica,sans-Serif" font-size="10.00">$value)</text>
<text text-anchor="start" x="13" y="-597.5" font-family="Helvetica,sans-Serif" font-size="10.00">+</text>
<text text-anchor="start" x="23" y="-597.5" font-family="Helvetica,sans-Serif" font-size="10.00">getLength()</text>
<text text-anchor="start" x="13" y="-582.5" font-family="Helvetica,sans-Serif" font-size="10.00">+</text>
<text text-anchor="start" x="23" y="-582.5" font-family="Helvetica,sans-Serif" font-size="10.00">getCharacters()</text>
<text text-anchor="start" x="13" y="-567.5" font-family="Helvetica,sans-Serif" font-size="10.00">+</text>
<text text-anchor="start" x="23" y="-567.5" font-family="Helvetica,sans-Serif" font-size="10.00">getChecksum()</text>
<text text-anchor="start" x="13" y="-552.5" font-family="Helvetica,sans-Serif" font-size="10.00">+</text>
<text text-anchor="start" x="23" y="-552.5" font-family="Helvetica,sans-Serif" font-size="10.00">useChecksum($check</text>
<text text-anchor="start" x="23" y="-541.25" font-family="Helvetica,sans-Serif" font-size="10.00">=null)</text>
<polygon fill="#666666" stroke="#666666" points="9,-691 9,-691 127,-691 127,-691 9,-691"/>
<polygon fill="#666666" stroke="#666666" points="9,-676 9,-676 127,-676 127,-676 9,-676"/>
<polygon fill="none" stroke="#666666" points="9,-536 9,-708 127,-708 127,-536 9,-536"/>
</a>
</g>
</g>
<!-- Node3&#45;&gt;Node2 -->
<g id="edge6_Node000002_Node000003" class="edge">
<title>Node3&#45;&gt;Node2</title>
<g id="a_edge6_Node000002_Node000003"><a xlink:title=" ">
<path fill="none" stroke="#63b8ff" d="M68,-524.88C68,-516.66 68,-508.25 68,-499.79"/>
<polygon fill="none" stroke="#63b8ff" points="64.5,-524.84 68,-534.84 71.5,-524.84 64.5,-524.84"/>
</a>
</g>
</g>
</g>
</svg>
