<?xml version="1.0" encoding="UTF-8" standalone="no"?>
<!DOCTYPE svg PUBLIC "-//W3C//DTD SVG 1.1//EN"
 "http://www.w3.org/Graphics/SVG/1.1/DTD/svg11.dtd">
<!-- Generated by graphviz version 10.0.1 (20240210.2158)
 -->
<!-- Title: scalar_sub Pages: 1 -->
<svg width="184pt" height="64pt"
 viewBox="0.00 0.00 184.00 64.25" xmlns="http://www.w3.org/2000/svg" xmlns:xlink="http://www.w3.org/1999/xlink">
<g id="graph0" class="graph" transform="scale(1 1) rotate(0) translate(4 60.25)">
<title>scalar_sub</title>
<!-- Node1 -->
<g id="Node000001" class="node">
<title>Node1</title>
<g id="a_Node000001"><a xlink:title=" ">
<polygon fill="#999999" stroke="#666666" points="63.25,-37.25 0,-37.25 0,-18 63.25,-18 63.25,-37.25"/>
<text text-anchor="middle" x="31.62" y="-23.75" font-family="Helvetica,sans-Serif" font-size="10.00">scalar_sub</text>
</a>
</g>
</g>
<!-- Node2 -->
<g id="Node000002" class="node">
<title>Node2</title>
<g id="a_Node000002"><a xlink:href="$class_paragon_i_e___sodium___core___ed25519.html#a22d37d04e5ea458092631a557e061a5e" xlink:title=" ">
<polygon fill="white" stroke="#666666" points="169.25,-56.25 106,-56.25 106,-37 169.25,-37 169.25,-56.25"/>
<text text-anchor="middle" x="137.62" y="-42.75" font-family="Helvetica,sans-Serif" font-size="10.00">scalar_add</text>
</a>
</g>
</g>
<!-- Node1&#45;&gt;Node2 -->
<g id="edge5_Node000001_Node000002" class="edge">
<title>Node1&#45;&gt;Node2</title>
<g id="a_edge5_Node000001_Node000002"><a xlink:title=" ">
<path fill="none" stroke="#63b8ff" d="M63.55,-33.27C73.2,-35.04 84.03,-37.02 94.33,-38.9"/>
<polygon fill="#63b8ff" stroke="#63b8ff" points="93.69,-42.34 104.15,-40.69 94.95,-35.45 93.69,-42.34"/>
</a>
</g>
</g>
<!-- Node3 -->
<g id="Node000003" class="node">
<title>Node3</title>
<g id="a_Node000003"><a xlink:href="$class_paragon_i_e___sodium___core___ed25519.html#acd18007f56ae1462d4bb5eaa113ededf" xlink:title=" ">
<polygon fill="white" stroke="#666666" points="176,-19.25 99.25,-19.25 99.25,0 176,0 176,-19.25"/>
<text text-anchor="middle" x="137.62" y="-5.75" font-family="Helvetica,sans-Serif" font-size="10.00">scalar_negate</text>
</a>
</g>
</g>
<!-- Node1&#45;&gt;Node3 -->
<g id="edge6_Node000001_Node000003" class="edge">
<title>Node1&#45;&gt;Node3</title>
<g id="a_edge6_Node000001_Node000003"><a xlink:title=" ">
<path fill="none" stroke="#63b8ff" d="M63.55,-22.27C71.2,-20.95 79.59,-19.5 87.87,-18.06"/>
<polygon fill="#63b8ff" stroke="#63b8ff" points="88.27,-21.55 97.53,-16.39 87.08,-14.65 88.27,-21.55"/>
</a>
</g>
</g>
</g>
</svg>
