<?xml version="1.0" encoding="UTF-8" standalone="no"?>
<!DOCTYPE svg PUBLIC "-//W3C//DTD SVG 1.1//EN"
 "http://www.w3.org/Graphics/SVG/1.1/DTD/svg11.dtd">
<!-- Generated by graphviz version 10.0.1 (20240210.2158)
 -->
<!-- Title: getTemplateLine Pages: 1 -->
<svg width="856pt" height="992pt"
 viewBox="0.00 0.00 856.00 991.50" xmlns="http://www.w3.org/2000/svg" xmlns:xlink="http://www.w3.org/1999/xlink">
<g id="graph0" class="graph" transform="scale(1 1) rotate(0) translate(4 987.5)">
<title>getTemplateLine</title>
<!-- Node1 -->
<g id="Node000001" class="node">
<title>Node1</title>
<g id="a_Node000001"><a xlink:title=" ">
<polygon fill="#999999" stroke="#666666" points="848,-401.88 760.75,-401.88 760.75,-382.62 848,-382.62 848,-401.88"/>
<text text-anchor="middle" x="804.38" y="-388.38" font-family="Helvetica,sans-Serif" font-size="10.00">getTemplateLine</text>
</a>
</g>
</g>
<!-- Node2 -->
<g id="Node000002" class="node">
<title>Node2</title>
<g id="a_Node000002"><a xlink:href="$class_twig_1_1_node_1_1_expression_1_1_null_coalesce_expression.html#a85a030311ad878abddfd2dc16b4d944a" xlink:title=" ">
<polygon fill="white" stroke="#666666" points="713.5,-714.12 587.25,-714.12 587.25,-672.38 713.5,-672.38 713.5,-714.12"/>
<text text-anchor="start" x="595.25" y="-700.62" font-family="Helvetica,sans-Serif" font-size="10.00">Twig\Node\Expression</text>
<text text-anchor="start" x="595.25" y="-689.38" font-family="Helvetica,sans-Serif" font-size="10.00">\NullCoalesceExpression</text>
<text text-anchor="middle" x="650.38" y="-678.12" font-family="Helvetica,sans-Serif" font-size="10.00">\__construct</text>
</a>
</g>
</g>
<!-- Node1&#45;&gt;Node2 -->
<g id="edge79_Node000001_Node000002" class="edge">
<title>Node1&#45;&gt;Node2</title>
<g id="a_edge79_Node000001_Node000002"><a xlink:title=" ">
<path fill="none" stroke="#63b8ff" d="M803.19,-413.57C801.61,-463.58 790.9,-589.7 724.75,-663.25 721.53,-666.83 717.82,-669.99 713.81,-672.79"/>
<polygon fill="#63b8ff" stroke="#63b8ff" points="806.68,-413.91 803.39,-403.84 799.68,-413.77 806.68,-413.91"/>
</a>
</g>
</g>
<!-- Node3 -->
<g id="Node000003" class="node">
<title>Node3</title>
<g id="a_Node000003"><a xlink:href="$class_twig_1_1_node_1_1_expression_1_1_filter_1_1_default_filter.html#a1cb2d9499f7a963c6082e3e9ed4ab806" xlink:title=" ">
<polygon fill="white" stroke="#666666" points="707.5,-654.12 593.25,-654.12 593.25,-612.38 707.5,-612.38 707.5,-654.12"/>
<text text-anchor="start" x="601.25" y="-640.62" font-family="Helvetica,sans-Serif" font-size="10.00">Twig\Node\Expression</text>
<text text-anchor="start" x="601.25" y="-629.38" font-family="Helvetica,sans-Serif" font-size="10.00">\Filter\DefaultFilter</text>
<text text-anchor="middle" x="650.38" y="-618.12" font-family="Helvetica,sans-Serif" font-size="10.00">\__construct</text>
</a>
</g>
</g>
<!-- Node1&#45;&gt;Node3 -->
<g id="edge80_Node000001_Node000003" class="edge">
<title>Node1&#45;&gt;Node3</title>
<g id="a_edge80_Node000001_Node000003"><a xlink:title=" ">
<path fill="none" stroke="#63b8ff" d="M801.1,-413.53C795.55,-455.29 777.64,-548.67 724.75,-603.25 719.87,-608.29 714.02,-612.51 707.78,-616.04"/>
<polygon fill="#63b8ff" stroke="#63b8ff" points="804.57,-413.96 802.29,-403.61 797.62,-413.12 804.57,-413.96"/>
</a>
</g>
</g>
<!-- Node4 -->
<g id="Node000004" class="node">
<title>Node4</title>
<g id="a_Node000004"><a xlink:href="$class_twig_1_1_node_1_1_expression_1_1_test_1_1_defined_test.html#afdc29171321f8ee69fede365169c7304" xlink:title=" ">
<polygon fill="white" stroke="#666666" points="724,-594.5 576.75,-594.5 576.75,-564 724,-564 724,-594.5"/>
<text text-anchor="start" x="584.75" y="-581" font-family="Helvetica,sans-Serif" font-size="10.00">Twig\Node\Expression</text>
<text text-anchor="middle" x="650.38" y="-569.75" font-family="Helvetica,sans-Serif" font-size="10.00">\Test\DefinedTest\__construct</text>
</a>
</g>
</g>
<!-- Node1&#45;&gt;Node4 -->
<g id="edge81_Node000001_Node000004" class="edge">
<title>Node1&#45;&gt;Node4</title>
<g id="a_edge81_Node000001_Node000004"><a xlink:title=" ">
<path fill="none" stroke="#63b8ff" d="M798.26,-412.99C789.03,-446.3 766.56,-511.86 724.75,-550.25 718.9,-555.62 711.93,-560.05 704.65,-563.68"/>
<polygon fill="#63b8ff" stroke="#63b8ff" points="801.53,-414.31 800.69,-403.75 794.76,-412.53 801.53,-414.31"/>
</a>
</g>
</g>
<!-- Node5 -->
<g id="Node000005" class="node">
<title>Node5</title>
<g id="a_Node000005"><a xlink:href="$class_twig_1_1_compiler.html#a0ad243b29e0ed2f647f2be2f6cb541b4" xlink:title=" ">
<polygon fill="white" stroke="#666666" points="721.38,-507.88 579.38,-507.88 579.38,-488.62 721.38,-488.62 721.38,-507.88"/>
<text text-anchor="middle" x="650.38" y="-494.38" font-family="Helvetica,sans-Serif" font-size="10.00">Twig\Compiler\addDebugInfo</text>
</a>
</g>
</g>
<!-- Node1&#45;&gt;Node5 -->
<g id="edge82_Node000001_Node000005" class="edge">
<title>Node1&#45;&gt;Node5</title>
<g id="a_edge82_Node000001_Node000005"><a xlink:title=" ">
<path fill="none" stroke="#63b8ff" d="M789.6,-411.33C775.31,-429.84 751.36,-457.52 724.75,-474.25 715.45,-480.1 704.57,-484.66 694.09,-488.17"/>
<polygon fill="#63b8ff" stroke="#63b8ff" points="792.22,-413.67 795.42,-403.57 786.62,-409.47 792.22,-413.67"/>
</a>
</g>
</g>
<!-- Node8 -->
<g id="Node000008" class="node">
<title>Node8</title>
<g id="a_Node000008"><a xlink:href="$class_twig_1_1_node_1_1_deprecated_node.html#aed43bf58315e7fc1bb85d23433150438" xlink:title=" ">
<polygon fill="white" stroke="#666666" points="525,-983.5 386,-983.5 386,-953 525,-953 525,-983.5"/>
<text text-anchor="start" x="394" y="-970" font-family="Helvetica,sans-Serif" font-size="10.00">Twig\Node\DeprecatedNode</text>
<text text-anchor="middle" x="455.5" y="-958.75" font-family="Helvetica,sans-Serif" font-size="10.00">\compile</text>
</a>
</g>
</g>
<!-- Node1&#45;&gt;Node8 -->
<g id="edge106_Node000001_Node000008" class="edge">
<title>Node1&#45;&gt;Node8</title>
<g id="a_edge106_Node000001_Node000008"><a xlink:title=" ">
<path fill="none" stroke="#63b8ff" d="M796.13,-412.68C785.14,-440.65 761.55,-490.43 724.75,-517.25 669.6,-557.43 620.3,-503.35 576,-555.25 519.64,-621.28 595.37,-877.38 540,-944.25 535.86,-949.25 530.76,-953.24 525.13,-956.43"/>
<polygon fill="#63b8ff" stroke="#63b8ff" points="799.31,-414.17 799.54,-403.58 792.75,-411.72 799.31,-414.17"/>
</a>
</g>
</g>
<!-- Node17 -->
<g id="Node000017" class="node">
<title>Node17</title>
<g id="a_Node000017"><a xlink:href="$class_twig_1_1_node_1_1_import_node.html#aed43bf58315e7fc1bb85d23433150438" xlink:title=" ">
<polygon fill="white" stroke="#666666" points="513.75,-177.5 397.25,-177.5 397.25,-147 513.75,-147 513.75,-177.5"/>
<text text-anchor="start" x="405.25" y="-164" font-family="Helvetica,sans-Serif" font-size="10.00">Twig\Node\ImportNode</text>
<text text-anchor="middle" x="455.5" y="-152.75" font-family="Helvetica,sans-Serif" font-size="10.00">\compile</text>
</a>
</g>
</g>
<!-- Node1&#45;&gt;Node17 -->
<g id="edge109_Node000001_Node000017" class="edge">
<title>Node1&#45;&gt;Node17</title>
<g id="a_edge109_Node000001_Node000017"><a xlink:title=" ">
<path fill="none" stroke="#63b8ff" d="M783,-409.43C767.97,-420.93 746.44,-435.04 724.75,-441.25 661.19,-459.43 625.91,-484.61 576,-441.25 489.59,-366.19 615.09,-272.63 540,-186.25 533.17,-178.4 523.96,-173.03 514.14,-169.39"/>
<polygon fill="#63b8ff" stroke="#63b8ff" points="785.05,-412.28 790.69,-403.31 780.69,-406.8 785.05,-412.28"/>
</a>
</g>
</g>
<!-- Node25 -->
<g id="Node000025" class="node">
<title>Node25</title>
<g id="a_Node000025"><a xlink:href="$class_twig_1_1_node_1_1_expression_1_1_array_expression.html#afd3d0a8b2c1149849a678af8aeb941a0" xlink:title=" ">
<polygon fill="white" stroke="#666666" points="723.25,-383.5 577.5,-383.5 577.5,-353 723.25,-353 723.25,-383.5"/>
<text text-anchor="start" x="585.5" y="-370" font-family="Helvetica,sans-Serif" font-size="10.00">Twig\Node\Expression</text>
<text text-anchor="middle" x="650.38" y="-358.75" font-family="Helvetica,sans-Serif" font-size="10.00">\ArrayExpression\addElement</text>
</a>
</g>
</g>
<!-- Node1&#45;&gt;Node25 -->
<g id="edge102_Node000001_Node000025" class="edge">
<title>Node1&#45;&gt;Node25</title>
<g id="a_edge102_Node000001_Node000025"><a xlink:title=" ">
<path fill="none" stroke="#63b8ff" d="M749.52,-383.75C741.16,-382.43 732.41,-381.05 723.72,-379.67"/>
<polygon fill="#63b8ff" stroke="#63b8ff" points="748.71,-387.16 759.14,-385.26 749.8,-380.25 748.71,-387.16"/>
</a>
</g>
</g>
<!-- Node26 -->
<g id="Node000026" class="node">
<title>Node26</title>
<g id="a_Node000026"><a xlink:href="$class_twig_1_1_node_1_1_embed_node.html#a117e1feb42b55f4e550dbe428c4c5a9d" xlink:title=" ">
<polygon fill="white" stroke="#666666" points="710.12,-334.5 590.62,-334.5 590.62,-304 710.12,-304 710.12,-334.5"/>
<text text-anchor="start" x="598.62" y="-321" font-family="Helvetica,sans-Serif" font-size="10.00">Twig\Node\EmbedNode</text>
<text text-anchor="middle" x="650.38" y="-309.75" font-family="Helvetica,sans-Serif" font-size="10.00">\addGetTemplate</text>
</a>
</g>
</g>
<!-- Node1&#45;&gt;Node26 -->
<g id="edge103_Node000001_Node000026" class="edge">
<title>Node1&#45;&gt;Node26</title>
<g id="a_edge103_Node000001_Node000026"><a xlink:title=" ">
<path fill="none" stroke="#63b8ff" d="M779.95,-376.07C764.7,-366.01 744.11,-353.32 724.75,-344.25 717.56,-340.88 709.79,-337.74 702.08,-334.89"/>
<polygon fill="#63b8ff" stroke="#63b8ff" points="777.62,-378.72 787.87,-381.38 781.52,-372.91 777.62,-378.72"/>
</a>
</g>
</g>
<!-- Node27 -->
<g id="Node000027" class="node">
<title>Node27</title>
<g id="a_Node000027"><a xlink:href="$class_twig_1_1_node_1_1_include_node.html#a117e1feb42b55f4e550dbe428c4c5a9d" xlink:title=" ">
<polygon fill="white" stroke="#666666" points="710.5,-432.5 590.25,-432.5 590.25,-402 710.5,-402 710.5,-432.5"/>
<text text-anchor="start" x="598.25" y="-419" font-family="Helvetica,sans-Serif" font-size="10.00">Twig\Node\IncludeNode</text>
<text text-anchor="middle" x="650.38" y="-407.75" font-family="Helvetica,sans-Serif" font-size="10.00">\addGetTemplate</text>
</a>
</g>
</g>
<!-- Node1&#45;&gt;Node27 -->
<g id="edge104_Node000001_Node000027" class="edge">
<title>Node1&#45;&gt;Node27</title>
<g id="a_edge104_Node000001_Node000027"><a xlink:title=" ">
<path fill="none" stroke="#63b8ff" d="M749.43,-401.12C736.92,-403.18 723.54,-405.38 710.81,-407.47"/>
<polygon fill="#63b8ff" stroke="#63b8ff" points="749.84,-404.6 759.14,-399.53 748.7,-397.7 749.84,-404.6"/>
</a>
</g>
</g>
<!-- Node28 -->
<g id="Node000028" class="node">
<title>Node28</title>
<g id="a_Node000028"><a xlink:href="$class_twig_1_1_node_1_1_expression_1_1_get_attr_expression.html#aed43bf58315e7fc1bb85d23433150438" xlink:title=" ">
<polygon fill="white" stroke="#666666" points="718.38,-285.5 582.38,-285.5 582.38,-255 718.38,-255 718.38,-285.5"/>
<text text-anchor="start" x="590.38" y="-272" font-family="Helvetica,sans-Serif" font-size="10.00">Twig\Node\Expression</text>
<text text-anchor="middle" x="650.38" y="-260.75" font-family="Helvetica,sans-Serif" font-size="10.00">\GetAttrExpression\compile</text>
</a>
</g>
</g>
<!-- Node1&#45;&gt;Node28 -->
<g id="edge107_Node000001_Node000028" class="edge">
<title>Node1&#45;&gt;Node28</title>
<g id="a_edge107_Node000001_Node000028"><a xlink:title=" ">
<path fill="none" stroke="#63b8ff" d="M791.99,-372.33C778.55,-350.49 754.26,-315.83 724.75,-295.25 719.67,-291.71 714.05,-288.63 708.24,-285.97"/>
<polygon fill="#63b8ff" stroke="#63b8ff" points="788.95,-374.07 797.07,-380.87 794.96,-370.49 788.95,-374.07"/>
</a>
</g>
</g>
<!-- Node29 -->
<g id="Node000029" class="node">
<title>Node29</title>
<g id="a_Node000029"><a xlink:href="$class_twig_1_1_node_1_1_expression_1_1_method_call_expression.html#aed43bf58315e7fc1bb85d23433150438" xlink:title=" ">
<polygon fill="white" stroke="#666666" points="709,-237.12 591.75,-237.12 591.75,-195.38 709,-195.38 709,-237.12"/>
<text text-anchor="start" x="599.75" y="-223.62" font-family="Helvetica,sans-Serif" font-size="10.00">Twig\Node\Expression</text>
<text text-anchor="start" x="599.75" y="-212.38" font-family="Helvetica,sans-Serif" font-size="10.00">\MethodCallExpression</text>
<text text-anchor="middle" x="650.38" y="-201.12" font-family="Helvetica,sans-Serif" font-size="10.00">\compile</text>
</a>
</g>
</g>
<!-- Node1&#45;&gt;Node29 -->
<g id="edge108_Node000001_Node000029" class="edge">
<title>Node1&#45;&gt;Node29</title>
<g id="a_edge108_Node000001_Node000029"><a xlink:title=" ">
<path fill="none" stroke="#63b8ff" d="M797.21,-371.42C786.98,-340.21 763.68,-281.26 724.75,-246.25 720.15,-242.11 714.89,-238.5 709.36,-235.35"/>
<polygon fill="#63b8ff" stroke="#63b8ff" points="793.82,-372.31 800.14,-380.81 800.5,-370.22 793.82,-372.31"/>
</a>
</g>
</g>
<!-- Node30 -->
<g id="Node000030" class="node">
<title>Node30</title>
<g id="a_Node000030"><a xlink:href="$class_twig_1_1_node_1_1_expression_1_1_call_expression.html#a3546f967ad32236268c7e2ef810b707a" xlink:title=" ">
<polygon fill="white" stroke="#666666" points="724.75,-177.5 576,-177.5 576,-147 724.75,-147 724.75,-177.5"/>
<text text-anchor="start" x="584" y="-164" font-family="Helvetica,sans-Serif" font-size="10.00">Twig\Node\Expression</text>
<text text-anchor="middle" x="650.38" y="-152.75" font-family="Helvetica,sans-Serif" font-size="10.00">\CallExpression\getArguments</text>
</a>
</g>
</g>
<!-- Node1&#45;&gt;Node30 -->
<g id="edge110_Node000001_Node000030" class="edge">
<title>Node1&#45;&gt;Node30</title>
<g id="a_edge110_Node000001_Node000030"><a xlink:title=" ">
<path fill="none" stroke="#63b8ff" d="M801.27,-371.14C796.02,-329.76 778.64,-237.59 724.75,-186.25 721.35,-183.01 717.51,-180.21 713.42,-177.79"/>
<polygon fill="#63b8ff" stroke="#63b8ff" points="797.78,-371.41 802.39,-380.96 804.73,-370.62 797.78,-371.41"/>
</a>
</g>
</g>
<!-- Node36 -->
<g id="Node000036" class="node">
<title>Node36</title>
<g id="a_Node000036"><a xlink:href="$class_twig_1_1_node_visitor_1_1_macro_auto_import_node_visitor.html#a4cc01934748f1d74931c884f27a8b921" xlink:title=" ">
<polygon fill="white" stroke="#666666" points="722.5,-128.5 578.25,-128.5 578.25,-98 722.5,-98 722.5,-128.5"/>
<text text-anchor="start" x="586.25" y="-115" font-family="Helvetica,sans-Serif" font-size="10.00">Twig\NodeVisitor\MacroAuto</text>
<text text-anchor="middle" x="650.38" y="-103.75" font-family="Helvetica,sans-Serif" font-size="10.00">ImportNodeVisitor\leaveNode</text>
</a>
</g>
</g>
<!-- Node1&#45;&gt;Node36 -->
<g id="edge116_Node000001_Node000036" class="edge">
<title>Node1&#45;&gt;Node36</title>
<g id="a_edge116_Node000001_Node000036"><a xlink:title=" ">
<path fill="none" stroke="#63b8ff" d="M802.98,-370.72C800.91,-322.42 789.15,-204.5 724.75,-138.25 721.28,-134.68 717.28,-131.62 712.97,-129"/>
<polygon fill="#63b8ff" stroke="#63b8ff" points="799.48,-370.75 803.29,-380.64 806.47,-370.53 799.48,-370.75"/>
</a>
</g>
</g>
<!-- Node37 -->
<g id="Node000037" class="node">
<title>Node37</title>
<g id="a_Node000037"><a xlink:href="$class_twig_1_1_parser.html#a614794aaad36713b9b1ad2c56c2ae9fa" xlink:title=" ">
<polygon fill="white" stroke="#666666" points="704.88,-79.88 595.88,-79.88 595.88,-60.62 704.88,-60.62 704.88,-79.88"/>
<text text-anchor="middle" x="650.38" y="-66.38" font-family="Helvetica,sans-Serif" font-size="10.00">Twig\Parser\setBlock</text>
</a>
</g>
</g>
<!-- Node1&#45;&gt;Node37 -->
<g id="edge117_Node000001_Node000037" class="edge">
<title>Node1&#45;&gt;Node37</title>
<g id="a_edge117_Node000001_Node000037"><a xlink:title=" ">
<path fill="none" stroke="#63b8ff" d="M800.7,-371.18C792.41,-309.28 765.3,-129.78 724.75,-89.25 719.26,-83.76 712.4,-79.79 705.1,-76.94"/>
<polygon fill="#63b8ff" stroke="#63b8ff" points="797.18,-371.25 801.94,-380.72 804.12,-370.35 797.18,-371.25"/>
</a>
</g>
</g>
<!-- Node6 -->
<g id="Node000006" class="node">
<title>Node6</title>
<g id="a_Node000006"><a xlink:href="$class_twig_1_1_node_1_1_block_node.html#aed43bf58315e7fc1bb85d23433150438" xlink:title=" ">
<polygon fill="white" stroke="#666666" points="512.25,-372.5 398.75,-372.5 398.75,-342 512.25,-342 512.25,-372.5"/>
<text text-anchor="start" x="406.75" y="-359" font-family="Helvetica,sans-Serif" font-size="10.00">Twig\Node\BlockNode</text>
<text text-anchor="middle" x="455.5" y="-347.75" font-family="Helvetica,sans-Serif" font-size="10.00">\compile</text>
</a>
</g>
</g>
<!-- Node5&#45;&gt;Node6 -->
<g id="edge83_Node000005_Node000006" class="edge">
<title>Node5&#45;&gt;Node6</title>
<g id="a_edge83_Node000005_Node000006"><a xlink:title=" ">
<path fill="none" stroke="#63b8ff" d="M588.48,-483.32C583.96,-480.76 579.72,-477.76 576,-474.25 544.08,-444.1 572.3,-412 540,-382.25 532.21,-375.07 522.44,-369.95 512.35,-366.3"/>
<polygon fill="#63b8ff" stroke="#63b8ff" points="586.85,-486.42 597.38,-487.6 589.88,-480.11 586.85,-486.42"/>
</a>
</g>
</g>
<!-- Node7 -->
<g id="Node000007" class="node">
<title>Node7</title>
<g id="a_Node000007"><a xlink:href="$class_twig_1_1_node_1_1_block_reference_node.html#aed43bf58315e7fc1bb85d23433150438" xlink:title=" ">
<polygon fill="white" stroke="#666666" points="523.12,-323.5 387.88,-323.5 387.88,-293 523.12,-293 523.12,-323.5"/>
<text text-anchor="start" x="395.88" y="-310" font-family="Helvetica,sans-Serif" font-size="10.00">Twig\Node\BlockReference</text>
<text text-anchor="middle" x="455.5" y="-298.75" font-family="Helvetica,sans-Serif" font-size="10.00">Node\compile</text>
</a>
</g>
</g>
<!-- Node5&#45;&gt;Node7 -->
<g id="edge84_Node000005_Node000007" class="edge">
<title>Node5&#45;&gt;Node7</title>
<g id="a_edge84_Node000005_Node000007"><a xlink:title=" ">
<path fill="none" stroke="#63b8ff" d="M586.53,-482.89C582.68,-480.43 579.11,-477.57 576,-474.25 531.8,-427.03 584.79,-379.91 540,-333.25 535.28,-328.34 529.65,-324.38 523.56,-321.19"/>
<polygon fill="#63b8ff" stroke="#63b8ff" points="584.8,-485.94 595.27,-487.53 588.08,-479.75 584.8,-485.94"/>
</a>
</g>
</g>
<!-- Node5&#45;&gt;Node8 -->
<g id="edge85_Node000005_Node000008" class="edge">
<title>Node5&#45;&gt;Node8</title>
<g id="a_edge85_Node000005_Node000008"><a xlink:title=" ">
<path fill="none" stroke="#63b8ff" d="M584.14,-514.33C581.12,-516.63 578.37,-519.26 576,-522.25 517.56,-596.03 599.77,-871.54 540,-944.25 535.88,-949.26 530.79,-953.26 525.17,-956.46"/>
<polygon fill="#63b8ff" stroke="#63b8ff" points="585.91,-517.36 592.6,-509.15 582.25,-511.39 585.91,-517.36"/>
</a>
</g>
</g>
<!-- Node9 -->
<g id="Node000009" class="node">
<title>Node9</title>
<g id="a_Node000009"><a xlink:href="$class_twig_1_1_node_1_1_do_node.html#aed43bf58315e7fc1bb85d23433150438" xlink:title=" ">
<polygon fill="white" stroke="#666666" points="524.62,-274.88 386.38,-274.88 386.38,-255.62 524.62,-255.62 524.62,-274.88"/>
<text text-anchor="middle" x="455.5" y="-261.38" font-family="Helvetica,sans-Serif" font-size="10.00">Twig\Node\DoNode\compile</text>
</a>
</g>
</g>
<!-- Node5&#45;&gt;Node9 -->
<g id="edge86_Node000005_Node000009" class="edge">
<title>Node5&#45;&gt;Node9</title>
<g id="a_edge86_Node000005_Node000009"><a xlink:title=" ">
<path fill="none" stroke="#63b8ff" d="M585.61,-482.65C582.08,-480.24 578.82,-477.46 576,-474.25 519.27,-409.69 599.66,-346.12 540,-284.25 535.67,-279.75 530.51,-276.22 524.91,-273.46"/>
<polygon fill="#63b8ff" stroke="#63b8ff" points="583.78,-485.64 594.22,-487.47 587.2,-479.53 583.78,-485.64"/>
</a>
</g>
</g>
<!-- Node10 -->
<g id="Node000010" class="node">
<title>Node10</title>
<g id="a_Node000010"><a xlink:href="$class_twig_1_1_node_1_1_expression_1_1_arrow_function_expression.html#aed43bf58315e7fc1bb85d23433150438" xlink:title=" ">
<polygon fill="white" stroke="#666666" points="520.88,-237.12 390.12,-237.12 390.12,-195.38 520.88,-195.38 520.88,-237.12"/>
<text text-anchor="start" x="398.12" y="-223.62" font-family="Helvetica,sans-Serif" font-size="10.00">Twig\Node\Expression</text>
<text text-anchor="start" x="398.12" y="-212.38" font-family="Helvetica,sans-Serif" font-size="10.00">\ArrowFunctionExpression</text>
<text text-anchor="middle" x="455.5" y="-201.12" font-family="Helvetica,sans-Serif" font-size="10.00">\compile</text>
</a>
</g>
</g>
<!-- Node5&#45;&gt;Node10 -->
<g id="edge87_Node000005_Node000010" class="edge">
<title>Node5&#45;&gt;Node10</title>
<g id="a_edge87_Node000005_Node000010"><a xlink:title=" ">
<path fill="none" stroke="#63b8ff" d="M585.32,-482.63C581.88,-480.22 578.72,-477.45 576,-474.25 509.47,-396.16 605.4,-325.29 540,-246.25 534.89,-240.08 528.42,-235.18 521.34,-231.28"/>
<polygon fill="#63b8ff" stroke="#63b8ff" points="583.28,-485.49 593.69,-487.43 586.76,-479.42 583.28,-485.49"/>
</a>
</g>
</g>
<!-- Node11 -->
<g id="Node000011" class="node">
<title>Node11</title>
<g id="a_Node000011"><a xlink:href="$class_twig_1_1_node_1_1_expression_1_1_block_reference_expression.html#aed43bf58315e7fc1bb85d23433150438" xlink:title=" ">
<polygon fill="white" stroke="#666666" points="524.25,-935.12 386.75,-935.12 386.75,-893.38 524.25,-893.38 524.25,-935.12"/>
<text text-anchor="start" x="394.75" y="-921.62" font-family="Helvetica,sans-Serif" font-size="10.00">Twig\Node\Expression</text>
<text text-anchor="start" x="394.75" y="-910.38" font-family="Helvetica,sans-Serif" font-size="10.00">\BlockReferenceExpression</text>
<text text-anchor="middle" x="455.5" y="-899.12" font-family="Helvetica,sans-Serif" font-size="10.00">\compile</text>
</a>
</g>
</g>
<!-- Node5&#45;&gt;Node11 -->
<g id="edge88_Node000005_Node000011" class="edge">
<title>Node5&#45;&gt;Node11</title>
<g id="a_edge88_Node000005_Node000011"><a xlink:title=" ">
<path fill="none" stroke="#63b8ff" d="M584.65,-514.03C581.44,-516.4 578.51,-519.13 576,-522.25 474.73,-648.28 639.45,-756.77 540,-884.25 535.74,-889.72 530.39,-894.19 524.48,-897.84"/>
<polygon fill="#63b8ff" stroke="#63b8ff" points="586.25,-517.15 593.03,-509.01 582.65,-511.15 586.25,-517.15"/>
</a>
</g>
</g>
<!-- Node12 -->
<g id="Node000012" class="node">
<title>Node12</title>
<g id="a_Node000012"><a xlink:href="$class_twig_1_1_node_1_1_expression_1_1_name_expression.html#aed43bf58315e7fc1bb85d23433150438" xlink:title=" ">
<polygon fill="white" stroke="#666666" points="520.88,-875.5 390.12,-875.5 390.12,-845 520.88,-845 520.88,-875.5"/>
<text text-anchor="start" x="398.12" y="-862" font-family="Helvetica,sans-Serif" font-size="10.00">Twig\Node\Expression</text>
<text text-anchor="middle" x="455.5" y="-850.75" font-family="Helvetica,sans-Serif" font-size="10.00">\NameExpression\compile</text>
</a>
</g>
</g>
<!-- Node5&#45;&gt;Node12 -->
<g id="edge89_Node000005_Node000012" class="edge">
<title>Node5&#45;&gt;Node12</title>
<g id="a_edge89_Node000005_Node000012"><a xlink:title=" ">
<path fill="none" stroke="#63b8ff" d="M584.7,-514.08C581.48,-516.44 578.53,-519.14 576,-522.25 487.45,-630.73 629.91,-727.9 540,-835.25 534.85,-841.4 528.25,-846.07 521.03,-849.62"/>
<polygon fill="#63b8ff" stroke="#63b8ff" points="586.31,-517.2 593.11,-509.08 582.73,-511.18 586.31,-517.2"/>
</a>
</g>
</g>
<!-- Node13 -->
<g id="Node000013" class="node">
<title>Node13</title>
<g id="a_Node000013"><a xlink:href="$class_twig_1_1_node_1_1_expression_1_1_parent_expression.html#aed43bf58315e7fc1bb85d23433150438" xlink:title=" ">
<polygon fill="white" stroke="#666666" points="522,-826.5 389,-826.5 389,-796 522,-796 522,-826.5"/>
<text text-anchor="start" x="397" y="-813" font-family="Helvetica,sans-Serif" font-size="10.00">Twig\Node\Expression</text>
<text text-anchor="middle" x="455.5" y="-801.75" font-family="Helvetica,sans-Serif" font-size="10.00">\ParentExpression\compile</text>
</a>
</g>
</g>
<!-- Node5&#45;&gt;Node13 -->
<g id="edge90_Node000005_Node000013" class="edge">
<title>Node5&#45;&gt;Node13</title>
<g id="a_edge90_Node000005_Node000013"><a xlink:title=" ">
<path fill="none" stroke="#63b8ff" d="M584.95,-514.02C581.64,-516.39 578.61,-519.12 576,-522.25 500.16,-613.19 616.98,-696.27 540,-786.25 535.08,-792 528.9,-796.46 522.13,-799.91"/>
<polygon fill="#63b8ff" stroke="#63b8ff" points="586.71,-517.04 593.59,-508.99 583.18,-511 586.71,-517.04"/>
</a>
</g>
</g>
<!-- Node14 -->
<g id="Node000014" class="node">
<title>Node14</title>
<g id="a_Node000014"><a xlink:href="$class_twig_1_1_node_1_1_flush_node.html#aed43bf58315e7fc1bb85d23433150438" xlink:title=" ">
<polygon fill="white" stroke="#666666" points="511.88,-777.5 399.12,-777.5 399.12,-747 511.88,-747 511.88,-777.5"/>
<text text-anchor="start" x="407.12" y="-764" font-family="Helvetica,sans-Serif" font-size="10.00">Twig\Node\FlushNode</text>
<text text-anchor="middle" x="455.5" y="-752.75" font-family="Helvetica,sans-Serif" font-size="10.00">\compile</text>
</a>
</g>
</g>
<!-- Node5&#45;&gt;Node14 -->
<g id="edge91_Node000005_Node000014" class="edge">
<title>Node5&#45;&gt;Node14</title>
<g id="a_edge91_Node000005_Node000014"><a xlink:title=" ">
<path fill="none" stroke="#63b8ff" d="M585.36,-513.9C581.91,-516.3 578.74,-519.06 576,-522.25 512.57,-596.06 604.76,-665.6 540,-738.25 532.67,-746.47 522.74,-751.95 512.27,-755.59"/>
<polygon fill="#63b8ff" stroke="#63b8ff" points="586.79,-517.11 593.74,-509.11 583.32,-511.03 586.79,-517.11"/>
</a>
</g>
</g>
<!-- Node15 -->
<g id="Node000015" class="node">
<title>Node15</title>
<g id="a_Node000015"><a xlink:href="$class_twig_1_1_node_1_1_for_node.html#aed43bf58315e7fc1bb85d23433150438" xlink:title=" ">
<polygon fill="white" stroke="#666666" points="525.38,-728.88 385.62,-728.88 385.62,-709.62 525.38,-709.62 525.38,-728.88"/>
<text text-anchor="middle" x="455.5" y="-715.38" font-family="Helvetica,sans-Serif" font-size="10.00">Twig\Node\ForNode\compile</text>
</a>
</g>
</g>
<!-- Node5&#45;&gt;Node15 -->
<g id="edge92_Node000005_Node000015" class="edge">
<title>Node5&#45;&gt;Node15</title>
<g id="a_edge92_Node000005_Node000015"><a xlink:title=" ">
<path fill="none" stroke="#63b8ff" d="M585.66,-513.88C582.11,-516.29 578.84,-519.06 576,-522.25 522.09,-582.9 596.98,-643.47 540,-701.25 535.83,-705.47 530.93,-708.82 525.63,-711.45"/>
<polygon fill="#63b8ff" stroke="#63b8ff" points="587.24,-517.01 594.27,-509.08 583.84,-510.89 587.24,-517.01"/>
</a>
</g>
</g>
<!-- Node16 -->
<g id="Node000016" class="node">
<title>Node16</title>
<g id="a_Node000016"><a xlink:href="$class_twig_1_1_node_1_1_if_node.html#aed43bf58315e7fc1bb85d23433150438" xlink:title=" ">
<polygon fill="white" stroke="#666666" points="521.25,-691.88 389.75,-691.88 389.75,-672.62 521.25,-672.62 521.25,-691.88"/>
<text text-anchor="middle" x="455.5" y="-678.38" font-family="Helvetica,sans-Serif" font-size="10.00">Twig\Node\IfNode\compile</text>
</a>
</g>
</g>
<!-- Node5&#45;&gt;Node16 -->
<g id="edge93_Node000005_Node000016" class="edge">
<title>Node5&#45;&gt;Node16</title>
<g id="a_edge93_Node000005_Node000016"><a xlink:title=" ">
<path fill="none" stroke="#63b8ff" d="M586.53,-513.61C582.68,-516.07 579.11,-518.93 576,-522.25 531.8,-569.47 586.33,-618.12 540,-663.25 534.68,-668.44 528.25,-672.32 521.34,-675.22"/>
<polygon fill="#63b8ff" stroke="#63b8ff" points="588.08,-516.75 595.27,-508.97 584.8,-510.56 588.08,-516.75"/>
</a>
</g>
</g>
<!-- Node5&#45;&gt;Node17 -->
<g id="edge94_Node000005_Node000017" class="edge">
<title>Node5&#45;&gt;Node17</title>
<g id="a_edge94_Node000005_Node000017"><a xlink:title=" ">
<path fill="none" stroke="#63b8ff" d="M584.74,-482.39C581.51,-480.04 578.55,-477.34 576,-474.25 493.94,-374.72 623.85,-284.27 540,-186.25 533.23,-178.34 524.05,-172.95 514.24,-169.3"/>
<polygon fill="#63b8ff" stroke="#63b8ff" points="582.78,-485.3 593.16,-487.38 586.34,-479.28 582.78,-485.3"/>
</a>
</g>
</g>
<!-- Node18 -->
<g id="Node000018" class="node">
<title>Node18</title>
<g id="a_Node000018"><a xlink:href="$class_twig_1_1_node_1_1_include_node.html#aed43bf58315e7fc1bb85d23433150438" xlink:title=" ">
<polygon fill="white" stroke="#666666" points="515.62,-128.5 395.38,-128.5 395.38,-98 515.62,-98 515.62,-128.5"/>
<text text-anchor="start" x="403.38" y="-115" font-family="Helvetica,sans-Serif" font-size="10.00">Twig\Node\IncludeNode</text>
<text text-anchor="middle" x="455.5" y="-103.75" font-family="Helvetica,sans-Serif" font-size="10.00">\compile</text>
</a>
</g>
</g>
<!-- Node5&#45;&gt;Node18 -->
<g id="edge95_Node000005_Node000018" class="edge">
<title>Node5&#45;&gt;Node18</title>
<g id="a_edge95_Node000005_Node000018"><a xlink:title=" ">
<path fill="none" stroke="#63b8ff" d="M619.07,-482.47C603.56,-472.74 585.89,-458.76 576,-441.25 509.29,-323.18 627.27,-242.05 540,-138.25 533.67,-130.72 525.17,-125.4 516.01,-121.66"/>
<polygon fill="#63b8ff" stroke="#63b8ff" points="617.16,-485.4 627.55,-487.47 620.72,-479.37 617.16,-485.4"/>
</a>
</g>
</g>
<!-- Node19 -->
<g id="Node000019" class="node">
<title>Node19</title>
<g id="a_Node000019"><a xlink:href="$class_twig_1_1_node_1_1_macro_node.html#aed43bf58315e7fc1bb85d23433150438" xlink:title=" ">
<polygon fill="white" stroke="#666666" points="513.38,-654.5 397.62,-654.5 397.62,-624 513.38,-624 513.38,-654.5"/>
<text text-anchor="start" x="405.62" y="-641" font-family="Helvetica,sans-Serif" font-size="10.00">Twig\Node\MacroNode</text>
<text text-anchor="middle" x="455.5" y="-629.75" font-family="Helvetica,sans-Serif" font-size="10.00">\compile</text>
</a>
</g>
</g>
<!-- Node5&#45;&gt;Node19 -->
<g id="edge96_Node000005_Node000019" class="edge">
<title>Node5&#45;&gt;Node19</title>
<g id="a_edge96_Node000005_Node000019"><a xlink:title=" ">
<path fill="none" stroke="#63b8ff" d="M588.48,-513.18C583.96,-515.74 579.72,-518.74 576,-522.25 544.08,-552.4 572.3,-584.5 540,-614.25 532.54,-621.12 523.27,-626.1 513.64,-629.72"/>
<polygon fill="#63b8ff" stroke="#63b8ff" points="589.88,-516.39 597.38,-508.9 586.85,-510.08 589.88,-516.39"/>
</a>
</g>
</g>
<!-- Node20 -->
<g id="Node000020" class="node">
<title>Node20</title>
<g id="a_Node000020"><a xlink:href="$class_twig_1_1_node_1_1_print_node.html#aed43bf58315e7fc1bb85d23433150438" xlink:title=" ">
<polygon fill="white" stroke="#666666" points="510,-605.5 401,-605.5 401,-575 510,-575 510,-605.5"/>
<text text-anchor="start" x="409" y="-592" font-family="Helvetica,sans-Serif" font-size="10.00">Twig\Node\PrintNode</text>
<text text-anchor="middle" x="455.5" y="-580.75" font-family="Helvetica,sans-Serif" font-size="10.00">\compile</text>
</a>
</g>
</g>
<!-- Node5&#45;&gt;Node20 -->
<g id="edge97_Node000005_Node000020" class="edge">
<title>Node5&#45;&gt;Node20</title>
<g id="a_edge97_Node000005_Node000020"><a xlink:title=" ">
<path fill="none" stroke="#63b8ff" d="M594.79,-512.27C588.19,-515.05 581.75,-518.36 576,-522.25 555.36,-536.22 560.82,-551.54 540,-565.25 531.03,-571.16 520.61,-575.71 510.24,-579.21"/>
<polygon fill="#63b8ff" stroke="#63b8ff" points="595.71,-515.66 603.81,-508.83 593.22,-509.12 595.71,-515.66"/>
</a>
</g>
</g>
<!-- Node21 -->
<g id="Node000021" class="node">
<title>Node21</title>
<g id="a_Node000021"><a xlink:href="$class_twig_1_1_node_1_1_sandbox_node.html#aed43bf58315e7fc1bb85d23433150438" xlink:title=" ">
<polygon fill="white" stroke="#666666" points="519,-556.5 392,-556.5 392,-526 519,-526 519,-556.5"/>
<text text-anchor="start" x="400" y="-543" font-family="Helvetica,sans-Serif" font-size="10.00">Twig\Node\SandboxNode</text>
<text text-anchor="middle" x="455.5" y="-531.75" font-family="Helvetica,sans-Serif" font-size="10.00">\compile</text>
</a>
</g>
</g>
<!-- Node5&#45;&gt;Node21 -->
<g id="edge98_Node000005_Node000021" class="edge">
<title>Node5&#45;&gt;Node21</title>
<g id="a_edge98_Node000005_Node000021"><a xlink:title=" ">
<path fill="none" stroke="#63b8ff" d="M593.13,-510.79C569.99,-515.95 543.1,-521.94 519.32,-527.24"/>
<polygon fill="#63b8ff" stroke="#63b8ff" points="593.68,-514.25 602.68,-508.66 592.16,-507.42 593.68,-514.25"/>
</a>
</g>
</g>
<!-- Node22 -->
<g id="Node000022" class="node">
<title>Node22</title>
<g id="a_Node000022"><a xlink:href="$class_twig_1_1_node_1_1_set_node.html#aed43bf58315e7fc1bb85d23433150438" xlink:title=" ">
<polygon fill="white" stroke="#666666" points="525.75,-507.88 385.25,-507.88 385.25,-488.62 525.75,-488.62 525.75,-507.88"/>
<text text-anchor="middle" x="455.5" y="-494.38" font-family="Helvetica,sans-Serif" font-size="10.00">Twig\Node\SetNode\compile</text>
</a>
</g>
</g>
<!-- Node5&#45;&gt;Node22 -->
<g id="edge99_Node000005_Node000022" class="edge">
<title>Node5&#45;&gt;Node22</title>
<g id="a_edge99_Node000005_Node000022"><a xlink:title=" ">
<path fill="none" stroke="#63b8ff" d="M567.48,-498.25C553.71,-498.25 539.54,-498.25 526.12,-498.25"/>
<polygon fill="#63b8ff" stroke="#63b8ff" points="567.41,-501.75 577.41,-498.25 567.41,-494.75 567.41,-501.75"/>
</a>
</g>
</g>
<!-- Node23 -->
<g id="Node000023" class="node">
<title>Node23</title>
<g id="a_Node000023"><a xlink:href="$class_twig_1_1_node_1_1_text_node.html#aed43bf58315e7fc1bb85d23433150438" xlink:title=" ">
<polygon fill="white" stroke="#666666" points="509.25,-470.5 401.75,-470.5 401.75,-440 509.25,-440 509.25,-470.5"/>
<text text-anchor="start" x="409.75" y="-457" font-family="Helvetica,sans-Serif" font-size="10.00">Twig\Node\TextNode</text>
<text text-anchor="middle" x="455.5" y="-445.75" font-family="Helvetica,sans-Serif" font-size="10.00">\compile</text>
</a>
</g>
</g>
<!-- Node5&#45;&gt;Node23 -->
<g id="edge100_Node000005_Node000023" class="edge">
<title>Node5&#45;&gt;Node23</title>
<g id="a_edge100_Node000005_Node000023"><a xlink:title=" ">
<path fill="none" stroke="#63b8ff" d="M593.19,-485.72C566.84,-479.85 535.6,-472.89 509.65,-467.1"/>
<polygon fill="#63b8ff" stroke="#63b8ff" points="592.16,-489.08 602.68,-487.84 593.68,-482.25 592.16,-489.08"/>
</a>
</g>
</g>
<!-- Node24 -->
<g id="Node000024" class="node">
<title>Node24</title>
<g id="a_Node000024"><a xlink:href="$class_twig_1_1_node_1_1_with_node.html#aed43bf58315e7fc1bb85d23433150438" xlink:title=" ">
<polygon fill="white" stroke="#666666" points="510,-421.5 401,-421.5 401,-391 510,-391 510,-421.5"/>
<text text-anchor="start" x="409" y="-408" font-family="Helvetica,sans-Serif" font-size="10.00">Twig\Node\WithNode</text>
<text text-anchor="middle" x="455.5" y="-396.75" font-family="Helvetica,sans-Serif" font-size="10.00">\compile</text>
</a>
</g>
</g>
<!-- Node5&#45;&gt;Node24 -->
<g id="edge101_Node000005_Node000024" class="edge">
<title>Node5&#45;&gt;Node24</title>
<g id="a_edge101_Node000005_Node000024"><a xlink:title=" ">
<path fill="none" stroke="#63b8ff" d="M594.79,-484.23C588.19,-481.45 581.75,-478.14 576,-474.25 555.36,-460.28 560.82,-444.96 540,-431.25 531.03,-425.34 520.61,-420.79 510.24,-417.29"/>
<polygon fill="#63b8ff" stroke="#63b8ff" points="593.22,-487.38 603.81,-487.67 595.71,-480.84 593.22,-487.38"/>
</a>
</g>
</g>
<!-- Node27&#45;&gt;Node18 -->
<g id="edge105_Node000027_Node000018" class="edge">
<title>Node27&#45;&gt;Node18</title>
<g id="a_edge105_Node000027_Node000018"><a xlink:title=" ">
<path fill="none" stroke="#63b8ff" d="M580.71,-397.14C579.02,-395.63 577.45,-394 576,-392.25 503.28,-304.43 614.35,-224.69 540,-138.25 533.59,-130.79 525.05,-125.51 515.87,-121.78"/>
<polygon fill="#63b8ff" stroke="#63b8ff" points="578.5,-399.87 588.65,-402.91 582.62,-394.2 578.5,-399.87"/>
</a>
</g>
</g>
<!-- Node31 -->
<g id="Node000031" class="node">
<title>Node31</title>
<g id="a_Node000031"><a xlink:href="$class_twig_1_1_node_1_1_expression_1_1_call_expression.html#a9f2ea6c2b72edf8f002dad7b3ffa2793" xlink:title=" ">
<polygon fill="white" stroke="#666666" points="540,-79.5 371,-79.5 371,-49 540,-49 540,-79.5"/>
<text text-anchor="start" x="379" y="-66" font-family="Helvetica,sans-Serif" font-size="10.00">Twig\Node\Expression</text>
<text text-anchor="middle" x="455.5" y="-54.75" font-family="Helvetica,sans-Serif" font-size="10.00">\CallExpression\compileArguments</text>
</a>
</g>
</g>
<!-- Node30&#45;&gt;Node31 -->
<g id="edge111_Node000030_Node000031" class="edge">
<title>Node30&#45;&gt;Node31</title>
<g id="a_edge111_Node000030_Node000031"><a xlink:title=" ">
<path fill="none" stroke="#63b8ff" d="M582.22,-141.35C580.07,-140.06 577.99,-138.7 576,-137.25 554.42,-121.59 561.87,-104.51 540,-89.25 534.79,-85.61 529.04,-82.5 523.07,-79.83"/>
<polygon fill="#63b8ff" stroke="#63b8ff" points="580.18,-144.23 590.66,-145.84 583.47,-138.05 580.18,-144.23"/>
</a>
</g>
</g>
<!-- Node32 -->
<g id="Node000032" class="node">
<title>Node32</title>
<g id="a_Node000032"><a xlink:href="$class_twig_1_1_node_1_1_expression_1_1_call_expression.html#ad6c619bb599026fc7849850d99018f19" xlink:title=" ">
<polygon fill="white" stroke="#666666" points="335,-79.5 178,-79.5 178,-49 335,-49 335,-79.5"/>
<text text-anchor="start" x="186" y="-66" font-family="Helvetica,sans-Serif" font-size="10.00">Twig\Node\Expression</text>
<text text-anchor="middle" x="256.5" y="-54.75" font-family="Helvetica,sans-Serif" font-size="10.00">\CallExpression\compileCallable</text>
</a>
</g>
</g>
<!-- Node31&#45;&gt;Node32 -->
<g id="edge112_Node000031_Node000032" class="edge">
<title>Node31&#45;&gt;Node32</title>
<g id="a_edge112_Node000031_Node000032"><a xlink:title=" ">
<path fill="none" stroke="#63b8ff" d="M359.33,-64.25C351.29,-64.25 343.21,-64.25 335.32,-64.25"/>
<polygon fill="#63b8ff" stroke="#63b8ff" points="359.16,-67.75 369.16,-64.25 359.16,-60.75 359.16,-67.75"/>
</a>
</g>
</g>
<!-- Node33 -->
<g id="Node000033" class="node">
<title>Node33</title>
<g id="a_Node000033"><a xlink:href="$class_twig_1_1_node_1_1_expression_1_1_filter_expression.html#aed43bf58315e7fc1bb85d23433150438" xlink:title=" ">
<polygon fill="white" stroke="#666666" points="134.12,-128.5 7.88,-128.5 7.88,-98 134.12,-98 134.12,-128.5"/>
<text text-anchor="start" x="15.88" y="-115" font-family="Helvetica,sans-Serif" font-size="10.00">Twig\Node\Expression</text>
<text text-anchor="middle" x="71" y="-103.75" font-family="Helvetica,sans-Serif" font-size="10.00">\FilterExpression\compile</text>
</a>
</g>
</g>
<!-- Node32&#45;&gt;Node33 -->
<g id="edge113_Node000032_Node000033" class="edge">
<title>Node32&#45;&gt;Node33</title>
<g id="a_edge113_Node000032_Node000033"><a xlink:title=" ">
<path fill="none" stroke="#63b8ff" d="M185.61,-82.91C167.53,-87.74 148.25,-92.89 130.8,-97.55"/>
<polygon fill="#63b8ff" stroke="#63b8ff" points="186.46,-86.31 195.22,-80.35 184.66,-79.55 186.46,-86.31"/>
</a>
</g>
</g>
<!-- Node34 -->
<g id="Node000034" class="node">
<title>Node34</title>
<g id="a_Node000034"><a xlink:href="$class_twig_1_1_node_1_1_expression_1_1_function_expression.html#aed43bf58315e7fc1bb85d23433150438" xlink:title=" ">
<polygon fill="white" stroke="#666666" points="142,-79.5 0,-79.5 0,-49 142,-49 142,-79.5"/>
<text text-anchor="start" x="8" y="-66" font-family="Helvetica,sans-Serif" font-size="10.00">Twig\Node\Expression</text>
<text text-anchor="middle" x="71" y="-54.75" font-family="Helvetica,sans-Serif" font-size="10.00">\FunctionExpression\compile</text>
</a>
</g>
</g>
<!-- Node32&#45;&gt;Node34 -->
<g id="edge114_Node000032_Node000034" class="edge">
<title>Node32&#45;&gt;Node34</title>
<g id="a_edge114_Node000032_Node000034"><a xlink:title=" ">
<path fill="none" stroke="#63b8ff" d="M166.35,-64.25C158.3,-64.25 150.22,-64.25 142.37,-64.25"/>
<polygon fill="#63b8ff" stroke="#63b8ff" points="166.17,-67.75 176.17,-64.25 166.17,-60.75 166.17,-67.75"/>
</a>
</g>
</g>
<!-- Node35 -->
<g id="Node000035" class="node">
<title>Node35</title>
<g id="a_Node000035"><a xlink:href="$class_twig_1_1_node_1_1_expression_1_1_test_expression.html#aed43bf58315e7fc1bb85d23433150438" xlink:title=" ">
<polygon fill="white" stroke="#666666" points="132.62,-30.5 9.38,-30.5 9.38,0 132.62,0 132.62,-30.5"/>
<text text-anchor="start" x="17.38" y="-17" font-family="Helvetica,sans-Serif" font-size="10.00">Twig\Node\Expression</text>
<text text-anchor="middle" x="71" y="-5.75" font-family="Helvetica,sans-Serif" font-size="10.00">\TestExpression\compile</text>
</a>
</g>
</g>
<!-- Node32&#45;&gt;Node35 -->
<g id="edge115_Node000032_Node000035" class="edge">
<title>Node32&#45;&gt;Node35</title>
<g id="a_edge115_Node000032_Node000035"><a xlink:title=" ">
<path fill="none" stroke="#63b8ff" d="M185.61,-45.59C167.53,-40.76 148.25,-35.61 130.8,-30.95"/>
<polygon fill="#63b8ff" stroke="#63b8ff" points="184.66,-48.95 195.22,-48.15 186.46,-42.19 184.66,-48.95"/>
</a>
</g>
</g>
</g>
</svg>
