<?xml version="1.0" encoding="UTF-8" standalone="no"?>
<!DOCTYPE svg PUBLIC "-//W3C//DTD SVG 1.1//EN"
 "http://www.w3.org/Graphics/SVG/1.1/DTD/svg11.dtd">
<!-- Generated by graphviz version 10.0.1 (20240210.2158)
 -->
<!-- Title: getTimelineItems Pages: 1 -->
<svg width="375pt" height="138pt"
 viewBox="0.00 0.00 374.75 138.25" xmlns="http://www.w3.org/2000/svg" xmlns:xlink="http://www.w3.org/1999/xlink">
<g id="graph0" class="graph" transform="scale(1 1) rotate(0) translate(4 134.25)">
<title>getTimelineItems</title>
<!-- Node1 -->
<g id="Node000001" class="node">
<title>Node1</title>
<g id="a_Node000001"><a xlink:title=" ">
<polygon fill="#999999" stroke="#666666" points="366.75,-56.25 275.75,-56.25 275.75,-37 366.75,-37 366.75,-56.25"/>
<text text-anchor="middle" x="321.25" y="-42.75" font-family="Helvetica,sans-Serif" font-size="10.00">getTimelineItems</text>
</a>
</g>
</g>
<!-- Node2 -->
<g id="Node000002" class="node">
<title>Node2</title>
<g id="a_Node000002"><a xlink:href="$class_common_i_t_i_l_object.html#a93a8283336cdbc32abed8dd9cbbe2fc9" xlink:title=" ">
<polygon fill="white" stroke="#666666" points="239.75,-93.25 138.25,-93.25 138.25,-74 239.75,-74 239.75,-93.25"/>
<text text-anchor="middle" x="189" y="-79.75" font-family="Helvetica,sans-Serif" font-size="10.00">addDefaultFormTab</text>
</a>
</g>
</g>
<!-- Node1&#45;&gt;Node2 -->
<g id="edge13_Node000001_Node000002" class="edge">
<title>Node1&#45;&gt;Node2</title>
<g id="a_edge13_Node000001_Node000002"><a xlink:title=" ">
<path fill="none" stroke="#63b8ff" d="M273.95,-59.78C258.04,-64.3 240.48,-69.29 225.55,-73.53"/>
<polygon fill="#63b8ff" stroke="#63b8ff" points="274.54,-63.25 283.2,-57.15 272.63,-56.51 274.54,-63.25"/>
</a>
</g>
</g>
<!-- Node6 -->
<g id="Node000006" class="node">
<title>Node6</title>
<g id="a_Node000006"><a xlink:href="$class_common_i_t_i_l_object.html#ad9ff7dc815340fcc80632e01c3acb287" xlink:title=" ">
<polygon fill="white" stroke="#666666" points="219.88,-56.25 158.12,-56.25 158.12,-37 219.88,-37 219.88,-56.25"/>
<text text-anchor="middle" x="189" y="-42.75" font-family="Helvetica,sans-Serif" font-size="10.00">showForm</text>
</a>
</g>
</g>
<!-- Node1&#45;&gt;Node6 -->
<g id="edge17_Node000001_Node000006" class="edge">
<title>Node1&#45;&gt;Node6</title>
<g id="a_edge17_Node000001_Node000006"><a xlink:title=" ">
<path fill="none" stroke="#63b8ff" d="M264.07,-46.62C248.98,-46.62 233.23,-46.62 220.16,-46.62"/>
<polygon fill="#63b8ff" stroke="#63b8ff" points="263.91,-50.13 273.91,-46.63 263.91,-43.13 263.91,-50.13"/>
</a>
</g>
</g>
<!-- Node7 -->
<g id="Node000007" class="node">
<title>Node7</title>
<g id="a_Node000007"><a xlink:href="$class_ticket.html#ad9ff7dc815340fcc80632e01c3acb287" xlink:title=" ">
<polygon fill="white" stroke="#666666" points="234.88,-19.25 143.12,-19.25 143.12,0 234.88,0 234.88,-19.25"/>
<text text-anchor="middle" x="189" y="-5.75" font-family="Helvetica,sans-Serif" font-size="10.00">Ticket\showForm</text>
</a>
</g>
</g>
<!-- Node1&#45;&gt;Node7 -->
<g id="edge18_Node000001_Node000007" class="edge">
<title>Node1&#45;&gt;Node7</title>
<g id="a_edge18_Node000001_Node000007"><a xlink:title=" ">
<path fill="none" stroke="#63b8ff" d="M273.95,-33.47C258.04,-28.95 240.48,-23.96 225.55,-19.72"/>
<polygon fill="#63b8ff" stroke="#63b8ff" points="272.63,-36.74 283.2,-36.1 274.54,-30 272.63,-36.74"/>
</a>
</g>
</g>
<!-- Node3 -->
<g id="Node000003" class="node">
<title>Node3</title>
<g id="a_Node000003"><a xlink:href="$class_change.html#ae5e0ec8c762b06578c493e9a6a34e5e4" xlink:title=" ">
<polygon fill="white" stroke="#666666" points="101.12,-130.25 1.12,-130.25 1.12,-111 101.12,-111 101.12,-130.25"/>
<text text-anchor="middle" x="51.12" y="-116.75" font-family="Helvetica,sans-Serif" font-size="10.00">Change\defineTabs</text>
</a>
</g>
</g>
<!-- Node2&#45;&gt;Node3 -->
<g id="edge14_Node000002_Node000003" class="edge">
<title>Node2&#45;&gt;Node3</title>
<g id="a_edge14_Node000002_Node000003"><a xlink:title=" ">
<path fill="none" stroke="#63b8ff" d="M140.18,-96.65C123.45,-101.2 104.93,-106.25 89.21,-110.53"/>
<polygon fill="#63b8ff" stroke="#63b8ff" points="140.68,-100.14 149.41,-94.13 138.84,-93.38 140.68,-100.14"/>
</a>
</g>
</g>
<!-- Node4 -->
<g id="Node000004" class="node">
<title>Node4</title>
<g id="a_Node000004"><a xlink:href="$class_problem.html#ae5e0ec8c762b06578c493e9a6a34e5e4" xlink:title=" ">
<polygon fill="white" stroke="#666666" points="102.25,-93.25 0,-93.25 0,-74 102.25,-74 102.25,-93.25"/>
<text text-anchor="middle" x="51.12" y="-79.75" font-family="Helvetica,sans-Serif" font-size="10.00">Problem\defineTabs</text>
</a>
</g>
</g>
<!-- Node2&#45;&gt;Node4 -->
<g id="edge15_Node000002_Node000004" class="edge">
<title>Node2&#45;&gt;Node4</title>
<g id="a_edge15_Node000002_Node000004"><a xlink:title=" ">
<path fill="none" stroke="#63b8ff" d="M126.3,-83.62C118.36,-83.62 110.31,-83.62 102.58,-83.62"/>
<polygon fill="#63b8ff" stroke="#63b8ff" points="126.28,-87.13 136.28,-83.63 126.28,-80.13 126.28,-87.13"/>
</a>
</g>
</g>
<!-- Node5 -->
<g id="Node000005" class="node">
<title>Node5</title>
<g id="a_Node000005"><a xlink:href="$class_ticket.html#ae5e0ec8c762b06578c493e9a6a34e5e4" xlink:title=" ">
<polygon fill="white" stroke="#666666" points="97.75,-56.25 4.5,-56.25 4.5,-37 97.75,-37 97.75,-56.25"/>
<text text-anchor="middle" x="51.12" y="-42.75" font-family="Helvetica,sans-Serif" font-size="10.00">Ticket\defineTabs</text>
</a>
</g>
</g>
<!-- Node2&#45;&gt;Node5 -->
<g id="edge16_Node000002_Node000005" class="edge">
<title>Node2&#45;&gt;Node5</title>
<g id="a_edge16_Node000002_Node000005"><a xlink:title=" ">
<path fill="none" stroke="#63b8ff" d="M140.18,-70.6C123.45,-66.05 104.93,-61 89.21,-56.72"/>
<polygon fill="#63b8ff" stroke="#63b8ff" points="138.84,-73.87 149.41,-73.12 140.68,-67.11 138.84,-73.87"/>
</a>
</g>
</g>
</g>
</svg>
