<?xml version="1.0" encoding="UTF-8" standalone="no"?>
<!DOCTYPE svg PUBLIC "-//W3C//DTD SVG 1.1//EN"
 "http://www.w3.org/Graphics/SVG/1.1/DTD/svg11.dtd">
<!-- Generated by graphviz version 10.0.1 (20240210.2158)
 -->
<!-- Title: lock Pages: 1 -->
<svg width="129pt" height="64pt"
 viewBox="0.00 0.00 128.50 64.25" xmlns="http://www.w3.org/2000/svg" xmlns:xlink="http://www.w3.org/1999/xlink">
<g id="graph0" class="graph" transform="scale(1 1) rotate(0) translate(4 60.25)">
<title>lock</title>
<!-- Node1 -->
<g id="Node000001" class="node">
<title>Node1</title>
<g id="a_Node000001"><a xlink:title=" ">
<polygon fill="#999999" stroke="#666666" points="34,-37.25 0,-37.25 0,-18 34,-18 34,-37.25"/>
<text text-anchor="middle" x="17" y="-23.75" font-family="Helvetica,sans-Serif" font-size="10.00">lock</text>
</a>
</g>
</g>
<!-- Node2 -->
<g id="Node000002" class="node">
<title>Node2</title>
<g id="a_Node000002"><a xlink:href="$class_sabre_1_1_d_a_v_1_1_locks_1_1_backend_1_1_file.html#a81a67162a6288d78fc4c55283325f0b4" xlink:title=" ">
<polygon fill="white" stroke="#666666" points="120.5,-56.25 70,-56.25 70,-37 120.5,-37 120.5,-56.25"/>
<text text-anchor="middle" x="95.25" y="-42.75" font-family="Helvetica,sans-Serif" font-size="10.00">getData</text>
</a>
</g>
</g>
<!-- Node1&#45;&gt;Node2 -->
<g id="edge5_Node000001_Node000002" class="edge">
<title>Node1&#45;&gt;Node2</title>
<g id="a_edge5_Node000001_Node000002"><a xlink:title=" ">
<path fill="none" stroke="#63b8ff" d="M34.17,-31.65C41.34,-33.44 50.09,-35.62 58.67,-37.76"/>
<polygon fill="#63b8ff" stroke="#63b8ff" points="57.67,-41.12 68.22,-40.14 59.37,-34.33 57.67,-41.12"/>
</a>
</g>
</g>
<!-- Node3 -->
<g id="Node000003" class="node">
<title>Node3</title>
<g id="a_Node000003"><a xlink:href="$class_sabre_1_1_d_a_v_1_1_locks_1_1_backend_1_1_file.html#ad2d40420e87f194d90d883910f80b937" xlink:title=" ">
<polygon fill="white" stroke="#666666" points="120.5,-19.25 70,-19.25 70,0 120.5,0 120.5,-19.25"/>
<text text-anchor="middle" x="95.25" y="-5.75" font-family="Helvetica,sans-Serif" font-size="10.00">putData</text>
</a>
</g>
</g>
<!-- Node1&#45;&gt;Node3 -->
<g id="edge6_Node000001_Node000003" class="edge">
<title>Node1&#45;&gt;Node3</title>
<g id="a_edge6_Node000001_Node000003"><a xlink:title=" ">
<path fill="none" stroke="#63b8ff" d="M34.17,-23.81C41.34,-22.11 50.09,-20.05 58.67,-18.03"/>
<polygon fill="#63b8ff" stroke="#63b8ff" points="59.29,-21.47 68.22,-15.77 57.68,-14.66 59.29,-21.47"/>
</a>
</g>
</g>
</g>
</svg>
