<?xml version="1.0" encoding="UTF-8" standalone="no"?>
<!DOCTYPE svg PUBLIC "-//W3C//DTD SVG 1.1//EN"
 "http://www.w3.org/Graphics/SVG/1.1/DTD/svg11.dtd">
<!-- Generated by graphviz version 10.0.1 (20240210.2158)
 -->
<!-- Title: parseMailServerConnectString Pages: 1 -->
<svg width="538pt" height="150pt"
 viewBox="0.00 0.00 537.50 150.25" xmlns="http://www.w3.org/2000/svg" xmlns:xlink="http://www.w3.org/1999/xlink">
<g id="graph0" class="graph" transform="scale(1 1) rotate(0) translate(4 146.25)">
<title>parseMailServerConnectString</title>
<!-- Node1 -->
<g id="Node000001" class="node">
<title>Node1</title>
<g id="a_Node000001"><a xlink:title=" ">
<polygon fill="#999999" stroke="#666666" points="529.5,-83.25 380.75,-83.25 380.75,-64 529.5,-64 529.5,-83.25"/>
<text text-anchor="middle" x="455.12" y="-69.75" font-family="Helvetica,sans-Serif" font-size="10.00">parseMailServerConnectString</text>
</a>
</g>
</g>
<!-- Node2 -->
<g id="Node000002" class="node">
<title>Node2</title>
<g id="a_Node000002"><a xlink:href="$class_mail_collector.html#a78572828d11dcdf2a498497d9001d557" xlink:title=" ">
<polygon fill="white" stroke="#666666" points="323,-142.25 212.5,-142.25 212.5,-123 323,-123 323,-142.25"/>
<text text-anchor="middle" x="267.75" y="-128.75" font-family="Helvetica,sans-Serif" font-size="10.00">MailCollector\connect</text>
</a>
</g>
</g>
<!-- Node1&#45;&gt;Node2 -->
<g id="edge13_Node000001_Node000002" class="edge">
<title>Node1&#45;&gt;Node2</title>
<g id="a_edge13_Node000001_Node000002"><a xlink:title=" ">
<path fill="none" stroke="#63b8ff" d="M419.61,-87.84C398.27,-96.31 370.19,-106.88 344.75,-114.62 335.41,-117.47 325.31,-120.14 315.62,-122.5"/>
<polygon fill="#63b8ff" stroke="#63b8ff" points="420.72,-91.17 428.69,-84.2 418.11,-84.67 420.72,-91.17"/>
</a>
</g>
</g>
<!-- Node4 -->
<g id="Node000004" class="node">
<title>Node4</title>
<g id="a_Node000004"><a xlink:href="$class_auth.html#a5ad9df2724c99b447843b60df08e3a46" xlink:title=" ">
<polygon fill="white" stroke="#666666" points="324.12,-105.25 211.38,-105.25 211.38,-86 324.12,-86 324.12,-105.25"/>
<text text-anchor="middle" x="267.75" y="-91.75" font-family="Helvetica,sans-Serif" font-size="10.00">Auth\connection_imap</text>
</a>
</g>
</g>
<!-- Node1&#45;&gt;Node4 -->
<g id="edge15_Node000001_Node000004" class="edge">
<title>Node1&#45;&gt;Node4</title>
<g id="a_edge15_Node000001_Node000004"><a xlink:title=" ">
<path fill="none" stroke="#63b8ff" d="M368.9,-83.74C353.86,-85.52 338.55,-87.34 324.58,-89"/>
<polygon fill="#63b8ff" stroke="#63b8ff" points="369.31,-87.22 378.82,-82.56 368.48,-80.26 369.31,-87.22"/>
</a>
</g>
</g>
<!-- Node5 -->
<g id="Node000005" class="node">
<title>Node5</title>
<g id="a_Node000005"><a xlink:href="$class_glpi_1_1_system_1_1_status_1_1_status_checker.html#ab5c846fe253a2fbb818afeadd5b7b1be" xlink:title=" ">
<polygon fill="white" stroke="#666666" points="344.75,-67.88 190.75,-67.88 190.75,-37.38 344.75,-37.38 344.75,-67.88"/>
<text text-anchor="start" x="198.75" y="-54.38" font-family="Helvetica,sans-Serif" font-size="10.00">Glpi\System\Status</text>
<text text-anchor="middle" x="267.75" y="-43.12" font-family="Helvetica,sans-Serif" font-size="10.00">\StatusChecker\getIMAPStatus</text>
</a>
</g>
</g>
<!-- Node1&#45;&gt;Node5 -->
<g id="edge16_Node000001_Node000005" class="edge">
<title>Node1&#45;&gt;Node5</title>
<g id="a_edge16_Node000001_Node000005"><a xlink:title=" ">
<path fill="none" stroke="#63b8ff" d="M369.07,-63.99C361.05,-63.08 352.96,-62.16 345.03,-61.27"/>
<polygon fill="#63b8ff" stroke="#63b8ff" points="368.49,-67.45 378.82,-65.09 369.28,-60.49 368.49,-67.45"/>
</a>
</g>
</g>
<!-- Node6 -->
<g id="Node000006" class="node">
<title>Node6</title>
<g id="a_Node000006"><a xlink:href="$class_toolbox.html#a9aa094aa95725751cb0c91996e1a7032" xlink:title=" ">
<polygon fill="white" stroke="#666666" points="324.88,-19.25 210.62,-19.25 210.62,0 324.88,0 324.88,-19.25"/>
<text text-anchor="middle" x="267.75" y="-5.75" font-family="Helvetica,sans-Serif" font-size="10.00">showMailServerConfig</text>
</a>
</g>
</g>
<!-- Node1&#45;&gt;Node6 -->
<g id="edge17_Node000001_Node000006" class="edge">
<title>Node1&#45;&gt;Node6</title>
<g id="a_edge17_Node000001_Node000006"><a xlink:title=" ">
<path fill="none" stroke="#63b8ff" d="M421.76,-58.86C400.23,-49.39 371.16,-37.31 344.75,-28.62 334.8,-25.35 323.96,-22.33 313.67,-19.7"/>
<polygon fill="#63b8ff" stroke="#63b8ff" points="420.33,-62.05 430.89,-62.92 423.18,-55.65 420.33,-62.05"/>
</a>
</g>
</g>
<!-- Node3 -->
<g id="Node000003" class="node">
<title>Node3</title>
<g id="a_Node000003"><a xlink:href="$class_mail_collector.html#a4b9e00d224db85ed6760efd0f5e124a8" xlink:title=" ">
<polygon fill="white" stroke="#666666" points="154.75,-142.25 0,-142.25 0,-123 154.75,-123 154.75,-142.25"/>
<text text-anchor="middle" x="77.38" y="-128.75" font-family="Helvetica,sans-Serif" font-size="10.00">MailCollector\displayFoldersList</text>
</a>
</g>
</g>
<!-- Node2&#45;&gt;Node3 -->
<g id="edge14_Node000002_Node000003" class="edge">
<title>Node2&#45;&gt;Node3</title>
<g id="a_edge14_Node000002_Node000003"><a xlink:title=" ">
<path fill="none" stroke="#63b8ff" d="M200.9,-132.62C186.07,-132.62 170.2,-132.62 154.97,-132.62"/>
<polygon fill="#63b8ff" stroke="#63b8ff" points="200.5,-136.13 210.5,-132.63 200.5,-129.13 200.5,-136.13"/>
</a>
</g>
</g>
<!-- Node7 -->
<g id="Node000007" class="node">
<title>Node7</title>
<g id="a_Node000007"><a xlink:href="$class_auth_mail.html#ad9ff7dc815340fcc80632e01c3acb287" xlink:title=" ">
<polygon fill="white" stroke="#666666" points="128.88,-19.25 25.88,-19.25 25.88,0 128.88,0 128.88,-19.25"/>
<text text-anchor="middle" x="77.38" y="-5.75" font-family="Helvetica,sans-Serif" font-size="10.00">AuthMail\showForm</text>
</a>
</g>
</g>
<!-- Node6&#45;&gt;Node7 -->
<g id="edge18_Node000006_Node000007" class="edge">
<title>Node6&#45;&gt;Node7</title>
<g id="a_edge18_Node000006_Node000007"><a xlink:title=" ">
<path fill="none" stroke="#63b8ff" d="M198.79,-9.62C175.79,-9.62 150.51,-9.62 129.08,-9.62"/>
<polygon fill="#63b8ff" stroke="#63b8ff" points="198.72,-13.13 208.72,-9.63 198.72,-6.13 198.72,-13.13"/>
</a>
</g>
</g>
</g>
</svg>
