<?xml version="1.0" encoding="UTF-8" standalone="no"?>
<!DOCTYPE svg PUBLIC "-//W3C//DTD SVG 1.1//EN"
 "http://www.w3.org/Graphics/SVG/1.1/DTD/svg11.dtd">
<!-- Generated by graphviz version 10.0.1 (20240210.2158)
 -->
<!-- Title: assumedNextLine Pages: 1 -->
<svg width="560pt" height="619pt"
 viewBox="0.00 0.00 559.75 619.25" xmlns="http://www.w3.org/2000/svg" xmlns:xlink="http://www.w3.org/1999/xlink">
<g id="graph0" class="graph" transform="scale(1 1) rotate(0) translate(4 615.25)">
<title>assumedNextLine</title>
<!-- Node1 -->
<g id="Node000001" class="node">
<title>Node1</title>
<g id="a_Node000001"><a xlink:title=" ">
<polygon fill="#999999" stroke="#666666" points="551.75,-278.25 457,-278.25 457,-259 551.75,-259 551.75,-278.25"/>
<text text-anchor="middle" x="504.38" y="-264.75" font-family="Helvetica,sans-Serif" font-size="10.00">assumedNextLine</text>
</a>
</g>
</g>
<!-- Node2 -->
<g id="Node000002" class="node">
<title>Node2</title>
<g id="a_Node000002"><a xlink:href="$class_laminas_1_1_mail_1_1_protocol_1_1_imap.html#ab10ea11736fd728de44d4a1e4284f947" xlink:title=" ">
<polygon fill="white" stroke="#666666" points="159.5,-611.25 109,-611.25 109,-592 159.5,-592 159.5,-611.25"/>
<text text-anchor="middle" x="134.25" y="-597.75" font-family="Helvetica,sans-Serif" font-size="10.00">connect</text>
</a>
</g>
</g>
<!-- Node1&#45;&gt;Node2 -->
<g id="edge49_Node000001_Node000002" class="edge">
<title>Node1&#45;&gt;Node2</title>
<g id="a_edge49_Node000001_Node000002"><a xlink:title=" ">
<path fill="none" stroke="#63b8ff" d="M486.3,-287.1C438.66,-338.07 298.97,-483.51 165.5,-583.62 161.78,-586.41 157.61,-589.13 153.57,-591.58"/>
<polygon fill="#63b8ff" stroke="#63b8ff" points="488.82,-289.53 493.07,-279.82 483.7,-284.76 488.82,-289.53"/>
</a>
</g>
</g>
<!-- Node4 -->
<g id="Node000004" class="node">
<title>Node4</title>
<g id="a_Node000004"><a xlink:href="$class_laminas_1_1_mail_1_1_protocol_1_1_imap.html#a316e24e6eb7c30e6c1d116c0cebf1327" xlink:title=" ">
<polygon fill="white" stroke="#666666" points="421,-259.25 347.25,-259.25 347.25,-240 421,-240 421,-259.25"/>
<text text-anchor="middle" x="384.12" y="-245.75" font-family="Helvetica,sans-Serif" font-size="10.00">sendRequest</text>
</a>
</g>
</g>
<!-- Node1&#45;&gt;Node4 -->
<g id="edge51_Node000001_Node000004" class="edge">
<title>Node1&#45;&gt;Node4</title>
<g id="a_edge51_Node000001_Node000004"><a xlink:title=" ">
<path fill="none" stroke="#63b8ff" d="M445.48,-259.32C437.25,-258 428.97,-256.67 421.31,-255.44"/>
<polygon fill="#63b8ff" stroke="#63b8ff" points="444.72,-262.74 455.15,-260.88 445.83,-255.83 444.72,-262.74"/>
</a>
</g>
</g>
<!-- Node3 -->
<g id="Node000003" class="node">
<title>Node3</title>
<g id="a_Node000003"><a xlink:href="$class_laminas_1_1_mail_1_1_protocol_1_1_imap.html#a87a59e698ead370f4b1f5ec7ebbd054f" xlink:title=" ">
<polygon fill="white" stroke="#666666" points="67,-611.25 0,-611.25 0,-592 67,-592 67,-611.25"/>
<text text-anchor="middle" x="33.5" y="-597.75" font-family="Helvetica,sans-Serif" font-size="10.00">__construct</text>
</a>
</g>
</g>
<!-- Node2&#45;&gt;Node3 -->
<g id="edge50_Node000002_Node000003" class="edge">
<title>Node2&#45;&gt;Node3</title>
<g id="a_edge50_Node000002_Node000003"><a xlink:title=" ">
<path fill="none" stroke="#63b8ff" d="M97.19,-601.62C87.45,-601.62 76.97,-601.62 67.41,-601.62"/>
<polygon fill="#63b8ff" stroke="#63b8ff" points="97.07,-605.13 107.07,-601.63 97.07,-598.13 97.07,-605.13"/>
</a>
</g>
</g>
<!-- Node5 -->
<g id="Node000005" class="node">
<title>Node5</title>
<g id="a_Node000005"><a xlink:href="$class_laminas_1_1_mail_1_1_protocol_1_1_imap.html#a220c0b04b6a3c27f90a1082afb716bcc" xlink:title=" ">
<polygon fill="white" stroke="#666666" points="301.88,-185.25 210.88,-185.25 210.88,-166 301.88,-166 301.88,-185.25"/>
<text text-anchor="middle" x="256.38" y="-171.75" font-family="Helvetica,sans-Serif" font-size="10.00">examineOrSelect</text>
</a>
</g>
</g>
<!-- Node4&#45;&gt;Node5 -->
<g id="edge52_Node000004_Node000005" class="edge">
<title>Node4&#45;&gt;Node5</title>
<g id="a_edge52_Node000004_Node000005"><a xlink:title=" ">
<path fill="none" stroke="#63b8ff" d="M356.32,-233.85C331.56,-219.28 295.53,-198.08 274.47,-185.68"/>
<polygon fill="#63b8ff" stroke="#63b8ff" points="354.47,-236.82 364.86,-238.88 358.02,-230.79 354.47,-236.82"/>
</a>
</g>
</g>
<!-- Node8 -->
<g id="Node000008" class="node">
<title>Node8</title>
<g id="a_Node000008"><a xlink:href="$class_laminas_1_1_mail_1_1_protocol_1_1_imap.html#a01709c006c1e418de4ef623a7e0f3052" xlink:title=" ">
<polygon fill="white" stroke="#666666" points="275.25,-148.25 237.5,-148.25 237.5,-129 275.25,-129 275.25,-148.25"/>
<text text-anchor="middle" x="256.38" y="-134.75" font-family="Helvetica,sans-Serif" font-size="10.00">fetch</text>
</a>
</g>
</g>
<!-- Node4&#45;&gt;Node8 -->
<g id="edge55_Node000004_Node000008" class="edge">
<title>Node4&#45;&gt;Node8</title>
<g id="a_edge55_Node000004_Node000008"><a xlink:title=" ">
<path fill="none" stroke="#63b8ff" d="M372.6,-229.87C360.45,-208.86 338.59,-176.05 311.25,-156.62 300.64,-149.09 286.65,-144.54 275.58,-141.9"/>
<polygon fill="#63b8ff" stroke="#63b8ff" points="369.38,-231.29 377.31,-238.32 375.5,-227.88 369.38,-231.29"/>
</a>
</g>
</g>
<!-- Node9 -->
<g id="Node000009" class="node">
<title>Node9</title>
<g id="a_Node000009"><a xlink:href="$class_laminas_1_1_mail_1_1_protocol_1_1_imap.html#a2034a041286b07b7aae958bc564dc138" xlink:title=" ">
<polygon fill="white" stroke="#666666" points="311.25,-333.25 201.5,-333.25 201.5,-314 311.25,-314 311.25,-333.25"/>
<text text-anchor="middle" x="256.38" y="-319.75" font-family="Helvetica,sans-Serif" font-size="10.00">requestAndResponse</text>
</a>
</g>
</g>
<!-- Node4&#45;&gt;Node9 -->
<g id="edge56_Node000004_Node000009" class="edge">
<title>Node4&#45;&gt;Node9</title>
<g id="a_edge56_Node000004_Node000009"><a xlink:title=" ">
<path fill="none" stroke="#63b8ff" d="M356.32,-265.4C331.56,-279.97 295.53,-301.17 274.47,-313.57"/>
<polygon fill="#63b8ff" stroke="#63b8ff" points="358.02,-268.46 364.86,-260.37 354.47,-262.43 358.02,-268.46"/>
</a>
</g>
</g>
<!-- Node6 -->
<g id="Node000006" class="node">
<title>Node6</title>
<g id="a_Node000006"><a xlink:href="$class_laminas_1_1_mail_1_1_protocol_1_1_imap.html#ae3bc418a0e98c6cb402dc1176364ae39" xlink:title=" ">
<polygon fill="white" stroke="#666666" points="160.62,-19.25 107.88,-19.25 107.88,0 160.62,0 160.62,-19.25"/>
<text text-anchor="middle" x="134.25" y="-5.75" font-family="Helvetica,sans-Serif" font-size="10.00">examine</text>
</a>
</g>
</g>
<!-- Node5&#45;&gt;Node6 -->
<g id="edge53_Node000005_Node000006" class="edge">
<title>Node5&#45;&gt;Node6</title>
<g id="a_edge53_Node000005_Node000006"><a xlink:title=" ">
<path fill="none" stroke="#63b8ff" d="M202.65,-158.78C202.26,-158.4 201.87,-158.02 201.5,-157.62 160.23,-114.14 201.88,-75.28 165.5,-27.62 163.13,-24.52 160.05,-21.84 156.77,-19.57"/>
<polygon fill="#63b8ff" stroke="#63b8ff" points="200.51,-161.55 210.65,-164.62 204.64,-155.9 200.51,-161.55"/>
</a>
</g>
</g>
<!-- Node7 -->
<g id="Node000007" class="node">
<title>Node7</title>
<g id="a_Node000007"><a xlink:href="$class_laminas_1_1_mail_1_1_protocol_1_1_imap.html#ac56c4c52035da9e38144962031c35ec1" xlink:title=" ">
<polygon fill="white" stroke="#666666" points="155.38,-56.25 113.12,-56.25 113.12,-37 155.38,-37 155.38,-56.25"/>
<text text-anchor="middle" x="134.25" y="-42.75" font-family="Helvetica,sans-Serif" font-size="10.00">select</text>
</a>
</g>
</g>
<!-- Node5&#45;&gt;Node7 -->
<g id="edge54_Node000005_Node000007" class="edge">
<title>Node5&#45;&gt;Node7</title>
<g id="a_edge54_Node000005_Node000007"><a xlink:title=" ">
<path fill="none" stroke="#63b8ff" d="M203.45,-159.37C202.78,-158.8 202.13,-158.22 201.5,-157.62 169.43,-127.03 194.11,-98.48 165.5,-64.62 162.74,-61.36 159.23,-58.53 155.58,-56.15"/>
<polygon fill="#63b8ff" stroke="#63b8ff" points="201.44,-162.23 211.72,-164.79 205.28,-156.38 201.44,-162.23"/>
</a>
</g>
</g>
<!-- Node9&#45;&gt;Node2 -->
<g id="edge59_Node000009_Node000002" class="edge">
<title>Node9&#45;&gt;Node2</title>
<g id="a_edge59_Node000009_Node000002"><a xlink:title=" ">
<path fill="none" stroke="#63b8ff" d="M209.59,-339.65C206.56,-341.97 203.8,-344.61 201.5,-347.62 137.16,-431.99 224.77,-495.62 165.5,-583.62 163.38,-586.77 160.52,-589.44 157.39,-591.7"/>
<polygon fill="#63b8ff" stroke="#63b8ff" points="211.4,-342.65 218.08,-334.43 207.73,-336.69 211.4,-342.65"/>
</a>
</g>
</g>
<!-- Node10 -->
<g id="Node000010" class="node">
<title>Node10</title>
<g id="a_Node000010"><a xlink:href="$class_laminas_1_1_mail_1_1_protocol_1_1_imap.html#a3e6fa685fb40dc9833de8b3fc70bb571" xlink:title=" ">
<polygon fill="white" stroke="#666666" points="158,-463.25 110.5,-463.25 110.5,-444 158,-444 158,-463.25"/>
<text text-anchor="middle" x="134.25" y="-449.75" font-family="Helvetica,sans-Serif" font-size="10.00">append</text>
</a>
</g>
</g>
<!-- Node9&#45;&gt;Node10 -->
<g id="edge57_Node000009_Node000010" class="edge">
<title>Node9&#45;&gt;Node10</title>
<g id="a_edge57_Node000009_Node000010"><a xlink:title=" ">
<path fill="none" stroke="#63b8ff" d="M212.11,-339.13C208.24,-341.59 204.62,-344.41 201.5,-347.62 172.08,-377.96 193.08,-403.61 165.5,-435.62 162.87,-438.68 159.58,-441.36 156.15,-443.65"/>
<polygon fill="#63b8ff" stroke="#63b8ff" points="213.63,-342.29 220.75,-334.44 210.29,-336.14 213.63,-342.29"/>
</a>
</g>
</g>
<!-- Node11 -->
<g id="Node000011" class="node">
<title>Node11</title>
<g id="a_Node000011"><a xlink:href="$class_laminas_1_1_mail_1_1_protocol_1_1_imap.html#ab2c24006bbccb7984767e680dc4c3e92" xlink:title=" ">
<polygon fill="white" stroke="#666666" points="162.88,-426.25 105.62,-426.25 105.62,-407 162.88,-407 162.88,-426.25"/>
<text text-anchor="middle" x="134.25" y="-412.75" font-family="Helvetica,sans-Serif" font-size="10.00">capability</text>
</a>
</g>
</g>
<!-- Node9&#45;&gt;Node11 -->
<g id="edge58_Node000009_Node000011" class="edge">
<title>Node9&#45;&gt;Node11</title>
<g id="a_edge58_Node000009_Node000011"><a xlink:title=" ">
<path fill="none" stroke="#63b8ff" d="M215.17,-338.58C210.33,-341.22 205.63,-344.23 201.5,-347.62 180.06,-365.23 185.87,-379.79 165.5,-398.62 162.36,-401.53 158.67,-404.19 154.98,-406.53"/>
<polygon fill="#63b8ff" stroke="#63b8ff" points="216.41,-341.87 223.86,-334.34 213.34,-335.58 216.41,-341.87"/>
</a>
</g>
</g>
<!-- Node12 -->
<g id="Node000012" class="node">
<title>Node12</title>
<g id="a_Node000012"><a xlink:href="$class_laminas_1_1_mail_1_1_protocol_1_1_imap.html#a09db8536417435310c39251744fce861" xlink:title=" ">
<polygon fill="white" stroke="#666666" points="152.75,-389.25 115.75,-389.25 115.75,-370 152.75,-370 152.75,-389.25"/>
<text text-anchor="middle" x="134.25" y="-375.75" font-family="Helvetica,sans-Serif" font-size="10.00">copy</text>
</a>
</g>
</g>
<!-- Node9&#45;&gt;Node12 -->
<g id="edge60_Node000009_Node000012" class="edge">
<title>Node9&#45;&gt;Node12</title>
<g id="a_edge60_Node000009_Node000012"><a xlink:title=" ">
<path fill="none" stroke="#63b8ff" d="M221.93,-338.33C215.15,-341.37 208.08,-344.57 201.5,-347.62 185.05,-355.26 166.46,-364.27 153.17,-370.78"/>
<polygon fill="#63b8ff" stroke="#63b8ff" points="223.14,-341.63 230.85,-334.36 220.29,-335.23 223.14,-341.63"/>
</a>
</g>
</g>
<!-- Node13 -->
<g id="Node000013" class="node">
<title>Node13</title>
<g id="a_Node000013"><a xlink:href="$class_laminas_1_1_mail_1_1_protocol_1_1_imap.html#a4268b06dd43a2def38878292064b4c01" xlink:title=" ">
<polygon fill="white" stroke="#666666" points="155.75,-352.25 112.75,-352.25 112.75,-333 155.75,-333 155.75,-352.25"/>
<text text-anchor="middle" x="134.25" y="-338.75" font-family="Helvetica,sans-Serif" font-size="10.00">create</text>
</a>
</g>
</g>
<!-- Node9&#45;&gt;Node13 -->
<g id="edge61_Node000009_Node000013" class="edge">
<title>Node9&#45;&gt;Node13</title>
<g id="a_edge61_Node000009_Node000013"><a xlink:title=" ">
<path fill="none" stroke="#63b8ff" d="M189.95,-333.97C177.64,-335.92 165.63,-337.82 156.02,-339.34"/>
<polygon fill="#63b8ff" stroke="#63b8ff" points="190.46,-337.44 199.79,-332.42 189.37,-330.52 190.46,-337.44"/>
</a>
</g>
</g>
<!-- Node14 -->
<g id="Node000014" class="node">
<title>Node14</title>
<g id="a_Node000014"><a xlink:href="$class_laminas_1_1_mail_1_1_protocol_1_1_imap.html#abe2eae520db8d2054856289aa8eda9d7" xlink:title=" ">
<polygon fill="white" stroke="#666666" points="155.38,-315.25 113.12,-315.25 113.12,-296 155.38,-296 155.38,-315.25"/>
<text text-anchor="middle" x="134.25" y="-301.75" font-family="Helvetica,sans-Serif" font-size="10.00">delete</text>
</a>
</g>
</g>
<!-- Node9&#45;&gt;Node14 -->
<g id="edge62_Node000009_Node000014" class="edge">
<title>Node9&#45;&gt;Node14</title>
<g id="a_edge62_Node000009_Node000014"><a xlink:title=" ">
<path fill="none" stroke="#63b8ff" d="M190.25,-313.87C177.71,-311.99 165.47,-310.15 155.73,-308.69"/>
<polygon fill="#63b8ff" stroke="#63b8ff" points="189.38,-317.28 199.79,-315.3 190.42,-310.35 189.38,-317.28"/>
</a>
</g>
</g>
<!-- Node15 -->
<g id="Node000015" class="node">
<title>Node15</title>
<g id="a_Node000015"><a xlink:href="$class_laminas_1_1_mail_1_1_protocol_1_1_imap.html#a94c7ce426c94d037b77e23e4e17b4fa5" xlink:title=" ">
<polygon fill="white" stroke="#666666" points="160.62,-278.25 107.88,-278.25 107.88,-259 160.62,-259 160.62,-278.25"/>
<text text-anchor="middle" x="134.25" y="-264.75" font-family="Helvetica,sans-Serif" font-size="10.00">expunge</text>
</a>
</g>
</g>
<!-- Node9&#45;&gt;Node15 -->
<g id="edge63_Node000009_Node000015" class="edge">
<title>Node9&#45;&gt;Node15</title>
<g id="a_edge63_Node000009_Node000015"><a xlink:title=" ">
<path fill="none" stroke="#63b8ff" d="M223.02,-308.81C202.15,-299.26 175.56,-287.08 157.14,-278.65"/>
<polygon fill="#63b8ff" stroke="#63b8ff" points="221.42,-311.93 231.97,-312.91 224.33,-305.56 221.42,-311.93"/>
</a>
</g>
</g>
<!-- Node16 -->
<g id="Node000016" class="node">
<title>Node16</title>
<g id="a_Node000016"><a xlink:href="$class_laminas_1_1_mail_1_1_protocol_1_1_imap.html#a0d34beed5bb0f1596684b4c3fe6c91f9" xlink:title=" ">
<polygon fill="white" stroke="#666666" points="165.5,-241.25 103,-241.25 103,-222 165.5,-222 165.5,-241.25"/>
<text text-anchor="middle" x="134.25" y="-227.75" font-family="Helvetica,sans-Serif" font-size="10.00">listMailbox</text>
</a>
</g>
</g>
<!-- Node9&#45;&gt;Node16 -->
<g id="edge64_Node000009_Node000016" class="edge">
<title>Node9&#45;&gt;Node16</title>
<g id="a_edge64_Node000009_Node000016"><a xlink:title=" ">
<path fill="none" stroke="#63b8ff" d="M236.11,-306.31C218.36,-290.71 190.98,-267.54 165.5,-249.62 161.6,-246.88 157.27,-244.14 153.13,-241.65"/>
<polygon fill="#63b8ff" stroke="#63b8ff" points="233.52,-308.69 243.33,-312.71 238.17,-303.45 233.52,-308.69"/>
</a>
</g>
</g>
<!-- Node17 -->
<g id="Node000017" class="node">
<title>Node17</title>
<g id="a_Node000017"><a xlink:href="$class_laminas_1_1_mail_1_1_protocol_1_1_imap.html#ae99dd092732ecd5e009bbaf741cbd8f4" xlink:title=" ">
<polygon fill="white" stroke="#666666" points="152.38,-204.25 116.12,-204.25 116.12,-185 152.38,-185 152.38,-204.25"/>
<text text-anchor="middle" x="134.25" y="-190.75" font-family="Helvetica,sans-Serif" font-size="10.00">login</text>
</a>
</g>
</g>
<!-- Node9&#45;&gt;Node17 -->
<g id="edge65_Node000009_Node000017" class="edge">
<title>Node9&#45;&gt;Node17</title>
<g id="a_edge65_Node000009_Node000017"><a xlink:title=" ">
<path fill="none" stroke="#63b8ff" d="M242.79,-304.15C226.83,-280.5 197.53,-240.35 165.5,-212.62 161.62,-209.27 157.03,-206.17 152.61,-203.53"/>
<polygon fill="#63b8ff" stroke="#63b8ff" points="239.87,-306.08 248.3,-312.49 245.7,-302.22 239.87,-306.08"/>
</a>
</g>
</g>
<!-- Node18 -->
<g id="Node000018" class="node">
<title>Node18</title>
<g id="a_Node000018"><a xlink:href="$class_laminas_1_1_mail_1_1_protocol_1_1_imap.html#a082405d89acd6835c3a7c7a08a7adbab" xlink:title=" ">
<polygon fill="white" stroke="#666666" points="155.38,-167.25 113.12,-167.25 113.12,-148 155.38,-148 155.38,-167.25"/>
<text text-anchor="middle" x="134.25" y="-153.75" font-family="Helvetica,sans-Serif" font-size="10.00">logout</text>
</a>
</g>
</g>
<!-- Node9&#45;&gt;Node18 -->
<g id="edge66_Node000009_Node000018" class="edge">
<title>Node9&#45;&gt;Node18</title>
<g id="a_edge66_Node000009_Node000018"><a xlink:title=" ">
<path fill="none" stroke="#63b8ff" d="M246.88,-303.22C233.32,-272.55 204.31,-214.09 165.5,-175.62 162.46,-172.61 158.82,-169.9 155.14,-167.55"/>
<polygon fill="#63b8ff" stroke="#63b8ff" points="243.54,-304.32 250.71,-312.12 249.97,-301.55 243.54,-304.32"/>
</a>
</g>
</g>
<!-- Node20 -->
<g id="Node000020" class="node">
<title>Node20</title>
<g id="a_Node000020"><a xlink:href="$class_laminas_1_1_mail_1_1_protocol_1_1_imap.html#a5b0d7b9e52bc856532f248f24da5d2d7" xlink:title=" ">
<polygon fill="white" stroke="#666666" points="152.75,-130.25 115.75,-130.25 115.75,-111 152.75,-111 152.75,-130.25"/>
<text text-anchor="middle" x="134.25" y="-116.75" font-family="Helvetica,sans-Serif" font-size="10.00">noop</text>
</a>
</g>
</g>
<!-- Node9&#45;&gt;Node20 -->
<g id="edge68_Node000009_Node000020" class="edge">
<title>Node9&#45;&gt;Node20</title>
<g id="a_edge68_Node000009_Node000020"><a xlink:title=" ">
<path fill="none" stroke="#63b8ff" d="M247.16,-303.09C229.87,-260.54 189.35,-164.58 165.5,-138.62 162.03,-134.85 157.58,-131.61 153.16,-128.96"/>
<polygon fill="#63b8ff" stroke="#63b8ff" points="243.84,-304.2 250.82,-312.16 250.33,-301.58 243.84,-304.2"/>
</a>
</g>
</g>
<!-- Node21 -->
<g id="Node000021" class="node">
<title>Node21</title>
<g id="a_Node000021"><a xlink:href="$class_laminas_1_1_mail_1_1_protocol_1_1_imap.html#a36135424173a2680ef2982c551a3268f" xlink:title=" ">
<polygon fill="white" stroke="#666666" points="158.38,-93.25 110.12,-93.25 110.12,-74 158.38,-74 158.38,-93.25"/>
<text text-anchor="middle" x="134.25" y="-79.75" font-family="Helvetica,sans-Serif" font-size="10.00">rename</text>
</a>
</g>
</g>
<!-- Node9&#45;&gt;Node21 -->
<g id="edge69_Node000009_Node000021" class="edge">
<title>Node9&#45;&gt;Node21</title>
<g id="a_edge69_Node000009_Node000021"><a xlink:title=" ">
<path fill="none" stroke="#63b8ff" d="M246.61,-303.11C235.81,-277.71 216.98,-233.11 201.5,-194.62 184.96,-153.51 194.11,-135.48 165.5,-101.62 162.9,-98.54 159.62,-95.86 156.2,-93.56"/>
<polygon fill="#63b8ff" stroke="#63b8ff" points="243.36,-304.41 250.5,-312.23 249.8,-301.66 243.36,-304.41"/>
</a>
</g>
</g>
<!-- Node22 -->
<g id="Node000022" class="node">
<title>Node22</title>
<g id="a_Node000022"><a xlink:href="$class_laminas_1_1_mail_1_1_protocol_1_1_imap.html#af59dcdcc6bc2d69f996e2dff149a4a7d" xlink:title=" ">
<polygon fill="white" stroke="#666666" points="156.88,-574.25 111.62,-574.25 111.62,-555 156.88,-555 156.88,-574.25"/>
<text text-anchor="middle" x="134.25" y="-560.75" font-family="Helvetica,sans-Serif" font-size="10.00">search</text>
</a>
</g>
</g>
<!-- Node9&#45;&gt;Node22 -->
<g id="edge70_Node000009_Node000022" class="edge">
<title>Node9&#45;&gt;Node22</title>
<g id="a_edge70_Node000009_Node000022"><a xlink:title=" ">
<path fill="none" stroke="#63b8ff" d="M209.69,-339.72C206.63,-342.02 203.84,-344.64 201.5,-347.62 146.01,-418.33 216.73,-472.78 165.5,-546.62 163.34,-549.74 160.45,-552.4 157.32,-554.64"/>
<polygon fill="#63b8ff" stroke="#63b8ff" points="211.49,-342.72 218.2,-334.52 207.85,-336.75 211.49,-342.72"/>
</a>
</g>
</g>
<!-- Node23 -->
<g id="Node000023" class="node">
<title>Node23</title>
<g id="a_Node000023"><a xlink:href="$class_laminas_1_1_mail_1_1_protocol_1_1_imap.html#a4b1439124aee157f144e90431085e47d" xlink:title=" ">
<polygon fill="white" stroke="#666666" points="153.12,-537.25 115.38,-537.25 115.38,-518 153.12,-518 153.12,-537.25"/>
<text text-anchor="middle" x="134.25" y="-523.75" font-family="Helvetica,sans-Serif" font-size="10.00">store</text>
</a>
</g>
</g>
<!-- Node9&#45;&gt;Node23 -->
<g id="edge71_Node000009_Node000023" class="edge">
<title>Node9&#45;&gt;Node23</title>
<g id="a_edge71_Node000009_Node000023"><a xlink:title=" ">
<path fill="none" stroke="#63b8ff" d="M210.23,-339.52C206.98,-341.87 204.01,-344.56 201.5,-347.62 154.83,-404.73 208.74,-449.87 165.5,-509.62 162.42,-513.88 157.99,-517.31 153.48,-519.99"/>
<polygon fill="#63b8ff" stroke="#63b8ff" points="211.85,-342.63 218.65,-334.51 208.27,-336.62 211.85,-342.63"/>
</a>
</g>
</g>
<!-- Node24 -->
<g id="Node000024" class="node">
<title>Node24</title>
<g id="a_Node000024"><a xlink:href="$class_laminas_1_1_mail_1_1_protocol_1_1_imap.html#a58f82ee20073f81fcf7102d8cb791af4" xlink:title=" ">
<polygon fill="white" stroke="#666666" points="163.25,-500.25 105.25,-500.25 105.25,-481 163.25,-481 163.25,-500.25"/>
<text text-anchor="middle" x="134.25" y="-486.75" font-family="Helvetica,sans-Serif" font-size="10.00">subscribe</text>
</a>
</g>
</g>
<!-- Node9&#45;&gt;Node24 -->
<g id="edge72_Node000009_Node000024" class="edge">
<title>Node9&#45;&gt;Node24</title>
<g id="a_edge72_Node000009_Node000024"><a xlink:title=" ">
<path fill="none" stroke="#63b8ff" d="M211.01,-339.29C207.5,-341.7 204.25,-344.47 201.5,-347.62 163.55,-391.24 200.82,-426.85 165.5,-472.62 163.11,-475.72 160.03,-478.39 156.74,-480.66"/>
<polygon fill="#63b8ff" stroke="#63b8ff" points="212.53,-342.45 219.47,-334.45 209.05,-336.38 212.53,-342.45"/>
</a>
</g>
</g>
<!-- Node19 -->
<g id="Node000019" class="node">
<title>Node19</title>
<g id="a_Node000019"><a xlink:href="$class_laminas_1_1_mail_1_1_protocol_1_1_imap.html#a421831a265621325e1fdd19aace0c758" xlink:title=" ">
<polygon fill="white" stroke="#666666" points="64.38,-167.25 2.62,-167.25 2.62,-148 64.38,-148 64.38,-167.25"/>
<text text-anchor="middle" x="33.5" y="-153.75" font-family="Helvetica,sans-Serif" font-size="10.00">__destruct</text>
</a>
</g>
</g>
<!-- Node18&#45;&gt;Node19 -->
<g id="edge67_Node000018_Node000019" class="edge">
<title>Node18&#45;&gt;Node19</title>
<g id="a_edge67_Node000018_Node000019"><a xlink:title=" ">
<path fill="none" stroke="#63b8ff" d="M101.6,-157.62C89.77,-157.62 76.38,-157.62 64.68,-157.62"/>
<polygon fill="#63b8ff" stroke="#63b8ff" points="101.28,-161.13 111.28,-157.63 101.28,-154.13 101.28,-161.13"/>
</a>
</g>
</g>
</g>
</svg>
