<?xml version="1.0" encoding="UTF-8" standalone="no"?>
<!DOCTYPE svg PUBLIC "-//W3C//DTD SVG 1.1//EN"
 "http://www.w3.org/Graphics/SVG/1.1/DTD/svg11.dtd">
<!-- Generated by graphviz version 10.0.1 (20240210.2158)
 -->
<!-- Title: getPath Pages: 1 -->
<svg width="216pt" height="137pt"
 viewBox="0.00 0.00 216.25 136.50" xmlns="http://www.w3.org/2000/svg" xmlns:xlink="http://www.w3.org/1999/xlink">
<g id="graph0" class="graph" transform="scale(1 1) rotate(0) translate(4 132.5)">
<title>getPath</title>
<!-- Node1 -->
<g id="Node000001" class="node">
<title>Node1</title>
<g id="a_Node000001"><a xlink:title=" ">
<polygon fill="#999999" stroke="#666666" points="208.25,-73.88 158.5,-73.88 158.5,-54.62 208.25,-54.62 208.25,-73.88"/>
<text text-anchor="middle" x="183.38" y="-60.38" font-family="Helvetica,sans-Serif" font-size="10.00">getPath</text>
</a>
</g>
</g>
<!-- Node2 -->
<g id="Node000002" class="node">
<title>Node2</title>
<g id="a_Node000002"><a xlink:href="$class_sabre_1_1_cal_d_a_v_1_1_schedule_1_1_plugin.html#a396fc5b0651647fc89f861438c8264cb" xlink:title=" ">
<polygon fill="white" stroke="#666666" points="122.5,-128.5 0,-128.5 0,-98 122.5,-98 122.5,-128.5"/>
<text text-anchor="start" x="8" y="-115" font-family="Helvetica,sans-Serif" font-size="10.00">Sabre\CalDAV\Schedule</text>
<text text-anchor="middle" x="61.25" y="-103.75" font-family="Helvetica,sans-Serif" font-size="10.00">\Plugin\propFind</text>
</a>
</g>
</g>
<!-- Node1&#45;&gt;Node2 -->
<g id="edge7_Node000001_Node000002" class="edge">
<title>Node1&#45;&gt;Node2</title>
<g id="a_edge7_Node000001_Node000002"><a xlink:title=" ">
<path fill="none" stroke="#63b8ff" d="M147.42,-78.51C132.78,-84.48 115.71,-91.44 100.71,-97.56"/>
<polygon fill="#63b8ff" stroke="#63b8ff" points="148.73,-81.76 156.66,-74.74 146.08,-75.27 148.73,-81.76"/>
</a>
</g>
</g>
<!-- Node3 -->
<g id="Node000003" class="node">
<title>Node3</title>
<g id="a_Node000003"><a xlink:href="$class_sabre_1_1_d_a_v_1_1_core_plugin.html#a396fc5b0651647fc89f861438c8264cb" xlink:title=" ">
<polygon fill="white" stroke="#666666" points="118.75,-79.5 3.75,-79.5 3.75,-49 118.75,-49 118.75,-79.5"/>
<text text-anchor="start" x="11.75" y="-66" font-family="Helvetica,sans-Serif" font-size="10.00">Sabre\DAV\CorePlugin</text>
<text text-anchor="middle" x="61.25" y="-54.75" font-family="Helvetica,sans-Serif" font-size="10.00">\propFind</text>
</a>
</g>
</g>
<!-- Node1&#45;&gt;Node3 -->
<g id="edge8_Node000001_Node000003" class="edge">
<title>Node1&#45;&gt;Node3</title>
<g id="a_edge8_Node000001_Node000003"><a xlink:title=" ">
<path fill="none" stroke="#63b8ff" d="M146.7,-64.25C137.91,-64.25 128.29,-64.25 118.79,-64.25"/>
<polygon fill="#63b8ff" stroke="#63b8ff" points="146.55,-67.75 156.55,-64.25 146.55,-60.75 146.55,-67.75"/>
</a>
</g>
</g>
<!-- Node4 -->
<g id="Node000004" class="node">
<title>Node4</title>
<g id="a_Node000004"><a xlink:href="$class_sabre_1_1_d_a_v_1_1_core_plugin.html#add83a4b5a885afce3770beeb20423168" xlink:title=" ">
<polygon fill="white" stroke="#666666" points="118.75,-30.5 3.75,-30.5 3.75,0 118.75,0 118.75,-30.5"/>
<text text-anchor="start" x="11.75" y="-17" font-family="Helvetica,sans-Serif" font-size="10.00">Sabre\DAV\CorePlugin</text>
<text text-anchor="middle" x="61.25" y="-5.75" font-family="Helvetica,sans-Serif" font-size="10.00">\propFindLate</text>
</a>
</g>
</g>
<!-- Node1&#45;&gt;Node4 -->
<g id="edge9_Node000001_Node000004" class="edge">
<title>Node1&#45;&gt;Node4</title>
<g id="a_edge9_Node000001_Node000004"><a xlink:title=" ">
<path fill="none" stroke="#63b8ff" d="M147.42,-49.99C132.78,-44.02 115.71,-37.06 100.71,-30.94"/>
<polygon fill="#63b8ff" stroke="#63b8ff" points="146.08,-53.23 156.66,-53.76 148.73,-46.74 146.08,-53.23"/>
</a>
</g>
</g>
</g>
</svg>
