<?xml version="1.0" encoding="UTF-8" standalone="no"?>
<!DOCTYPE svg PUBLIC "-//W3C//DTD SVG 1.1//EN"
 "http://www.w3.org/Graphics/SVG/1.1/DTD/svg11.dtd">
<!-- Generated by graphviz version 10.0.1 (20240210.2158)
 -->
<!-- Title: getTabNameForItem Pages: 1 -->
<svg width="297pt" height="101pt"
 viewBox="0.00 0.00 296.50 101.25" xmlns="http://www.w3.org/2000/svg" xmlns:xlink="http://www.w3.org/1999/xlink">
<g id="graph0" class="graph" transform="scale(1 1) rotate(0) translate(4 97.25)">
<title>getTabNameForItem</title>
<!-- Node1 -->
<g id="Node000001" class="node">
<title>Node1</title>
<g id="a_Node000001"><a xlink:title=" ">
<polygon fill="#999999" stroke="#666666" points="105.25,-56.25 0,-56.25 0,-37 105.25,-37 105.25,-56.25"/>
<text text-anchor="middle" x="52.62" y="-42.75" font-family="Helvetica,sans-Serif" font-size="10.00">getTabNameForItem</text>
</a>
</g>
</g>
<!-- Node2 -->
<g id="Node000002" class="node">
<title>Node2</title>
<g id="a_Node000002"><a xlink:href="$db_8function_8php.html#a79aa7be8cf7cb17b8049e99ef2dd079b" xlink:title=" ">
<polygon fill="white" stroke="#666666" points="271.25,-93.25 158.5,-93.25 158.5,-74 271.25,-74 271.25,-93.25"/>
<text text-anchor="middle" x="214.88" y="-79.75" font-family="Helvetica,sans-Serif" font-size="10.00">countElementsInTable</text>
</a>
</g>
</g>
<!-- Node1&#45;&gt;Node2 -->
<g id="edge7_Node000001_Node000002" class="edge">
<title>Node1&#45;&gt;Node2</title>
<g id="a_edge7_Node000001_Node000002"><a xlink:title=" ">
<path fill="none" stroke="#63b8ff" d="M97.41,-56.74C116.4,-61.12 138.85,-66.3 158.94,-70.94"/>
<polygon fill="#63b8ff" stroke="#63b8ff" points="158.13,-74.35 168.66,-73.19 159.71,-67.53 158.13,-74.35"/>
</a>
</g>
</g>
<!-- Node3 -->
<g id="Node000003" class="node">
<title>Node3</title>
<g id="a_Node000003"><a xlink:href="$class_common_g_l_p_i.html#abb29311a8c685526e191a099577a092d" xlink:title=" ">
<polygon fill="white" stroke="#666666" points="288.5,-56.25 141.25,-56.25 141.25,-37 288.5,-37 288.5,-56.25"/>
<text text-anchor="middle" x="214.88" y="-42.75" font-family="Helvetica,sans-Serif" font-size="10.00">CommonGLPI\createTabEntry</text>
</a>
</g>
</g>
<!-- Node1&#45;&gt;Node3 -->
<g id="edge8_Node000001_Node000003" class="edge">
<title>Node1&#45;&gt;Node3</title>
<g id="a_edge8_Node000001_Node000003"><a xlink:title=" ">
<path fill="none" stroke="#63b8ff" d="M105.65,-46.62C113.29,-46.62 121.32,-46.62 129.41,-46.62"/>
<polygon fill="#63b8ff" stroke="#63b8ff" points="129.34,-50.13 139.34,-46.63 129.34,-43.13 129.34,-50.13"/>
</a>
</g>
</g>
<!-- Node4 -->
<g id="Node000004" class="node">
<title>Node4</title>
<g id="a_Node000004"><a xlink:href="$class_project.html#ad85cd59496993b8ba622266fe36807ef" xlink:title=" ">
<polygon fill="white" stroke="#666666" points="270.12,-19.25 159.62,-19.25 159.62,0 270.12,0 270.12,-19.25"/>
<text text-anchor="middle" x="214.88" y="-5.75" font-family="Helvetica,sans-Serif" font-size="10.00">Project\getTypeName</text>
</a>
</g>
</g>
<!-- Node1&#45;&gt;Node4 -->
<g id="edge9_Node000001_Node000004" class="edge">
<title>Node1&#45;&gt;Node4</title>
<g id="a_edge9_Node000001_Node000004"><a xlink:title=" ">
<path fill="none" stroke="#63b8ff" d="M97.41,-36.51C116.4,-32.13 138.85,-26.95 158.94,-22.31"/>
<polygon fill="#63b8ff" stroke="#63b8ff" points="159.71,-25.72 168.66,-20.06 158.13,-18.9 159.71,-25.72"/>
</a>
</g>
</g>
</g>
</svg>
