<?xml version="1.0" encoding="UTF-8" standalone="no"?>
<!DOCTYPE svg PUBLIC "-//W3C//DTD SVG 1.1//EN"
 "http://www.w3.org/Graphics/SVG/1.1/DTD/svg11.dtd">
<!-- Generated by graphviz version 10.0.1 (20240210.2158)
 -->
<!-- Title: CacheItem Pages: 1 -->
<svg width="271pt" height="651pt"
 viewBox="0.00 0.00 271.00 651.00" xmlns="http://www.w3.org/2000/svg" xmlns:xlink="http://www.w3.org/1999/xlink">
<g id="graph0" class="graph" transform="scale(1 1) rotate(0) translate(4 647)">
<title>CacheItem</title>
<!-- Node1 -->
<g id="Node000001" class="node">
<title>Node1</title>
<g id="a_Node000001"><a xlink:title=" ">
<polygon fill="#999999" stroke="none" points="167.5,-337 34.5,-337 34.5,0 167.5,0 167.5,-337"/>
<text text-anchor="start" x="77" y="-323.5" font-family="Helvetica,sans-Serif" font-size="10.00">CacheItem</text>
<text text-anchor="start" x="38.88" y="-308.5" font-family="Helvetica,sans-Serif" font-size="10.00">#</text>
<text text-anchor="start" x="48.5" y="-308.5" font-family="Helvetica,sans-Serif" font-size="10.00">$key</text>
<text text-anchor="start" x="38.88" y="-293.5" font-family="Helvetica,sans-Serif" font-size="10.00">#</text>
<text text-anchor="start" x="48.5" y="-293.5" font-family="Helvetica,sans-Serif" font-size="10.00">$value</text>
<text text-anchor="start" x="38.88" y="-278.5" font-family="Helvetica,sans-Serif" font-size="10.00">#</text>
<text text-anchor="start" x="48.5" y="-278.5" font-family="Helvetica,sans-Serif" font-size="10.00">$isHit</text>
<text text-anchor="start" x="38.88" y="-263.5" font-family="Helvetica,sans-Serif" font-size="10.00">#</text>
<text text-anchor="start" x="48.5" y="-263.5" font-family="Helvetica,sans-Serif" font-size="10.00">$expiry</text>
<text text-anchor="start" x="38.88" y="-248.5" font-family="Helvetica,sans-Serif" font-size="10.00">#</text>
<text text-anchor="start" x="48.5" y="-248.5" font-family="Helvetica,sans-Serif" font-size="10.00">$metadata</text>
<text text-anchor="start" x="38.88" y="-233.5" font-family="Helvetica,sans-Serif" font-size="10.00">#</text>
<text text-anchor="start" x="48.5" y="-233.5" font-family="Helvetica,sans-Serif" font-size="10.00">$newMetadata</text>
<text text-anchor="start" x="38.88" y="-218.5" font-family="Helvetica,sans-Serif" font-size="10.00">#</text>
<text text-anchor="start" x="48.5" y="-218.5" font-family="Helvetica,sans-Serif" font-size="10.00">$innerItem</text>
<text text-anchor="start" x="38.88" y="-203.5" font-family="Helvetica,sans-Serif" font-size="10.00">#</text>
<text text-anchor="start" x="48.5" y="-203.5" font-family="Helvetica,sans-Serif" font-size="10.00">$poolHash</text>
<text text-anchor="start" x="38.88" y="-188.5" font-family="Helvetica,sans-Serif" font-size="10.00">#</text>
<text text-anchor="start" x="48.5" y="-188.5" font-family="Helvetica,sans-Serif" font-size="10.00">$isTaggable</text>
<text text-anchor="start" x="38.5" y="-173.5" font-family="Helvetica,sans-Serif" font-size="10.00">+</text>
<text text-anchor="start" x="48.5" y="-173.5" font-family="Helvetica,sans-Serif" font-size="10.00">getKey()</text>
<text text-anchor="start" x="38.5" y="-158.5" font-family="Helvetica,sans-Serif" font-size="10.00">+</text>
<text text-anchor="start" x="48.5" y="-158.5" font-family="Helvetica,sans-Serif" font-size="10.00">get()</text>
<text text-anchor="start" x="38.5" y="-143.5" font-family="Helvetica,sans-Serif" font-size="10.00">+</text>
<text text-anchor="start" x="48.5" y="-143.5" font-family="Helvetica,sans-Serif" font-size="10.00">isHit()</text>
<text text-anchor="start" x="38.5" y="-128.5" font-family="Helvetica,sans-Serif" font-size="10.00">+</text>
<text text-anchor="start" x="48.5" y="-128.5" font-family="Helvetica,sans-Serif" font-size="10.00">set($value)</text>
<text text-anchor="start" x="38.5" y="-113.5" font-family="Helvetica,sans-Serif" font-size="10.00">+</text>
<text text-anchor="start" x="48.5" y="-113.5" font-family="Helvetica,sans-Serif" font-size="10.00">expiresAt($expiration)</text>
<text text-anchor="start" x="38.5" y="-98.5" font-family="Helvetica,sans-Serif" font-size="10.00">+</text>
<text text-anchor="start" x="48.5" y="-98.5" font-family="Helvetica,sans-Serif" font-size="10.00">expiresAfter($time)</text>
<text text-anchor="start" x="38.5" y="-83.5" font-family="Helvetica,sans-Serif" font-size="10.00">+</text>
<text text-anchor="start" x="48.5" y="-83.5" font-family="Helvetica,sans-Serif" font-size="10.00">tag($tags)</text>
<text text-anchor="start" x="38.5" y="-68.5" font-family="Helvetica,sans-Serif" font-size="10.00">+</text>
<text text-anchor="start" x="48.5" y="-68.5" font-family="Helvetica,sans-Serif" font-size="10.00">getMetadata()</text>
<text text-anchor="start" x="38.5" y="-53.5" font-family="Helvetica,sans-Serif" font-size="10.00">+</text>
<text text-anchor="start" x="48.5" y="-53.5" font-family="Helvetica,sans-Serif" font-size="10.00">static validateKey</text>
<text text-anchor="start" x="48.5" y="-42.25" font-family="Helvetica,sans-Serif" font-size="10.00">($key)</text>
<text text-anchor="start" x="38.5" y="-27.5" font-family="Helvetica,sans-Serif" font-size="10.00">+</text>
<text text-anchor="start" x="48.5" y="-27.5" font-family="Helvetica,sans-Serif" font-size="10.00">static log(?LoggerInterface</text>
<text text-anchor="start" x="48.5" y="-16.25" font-family="Helvetica,sans-Serif" font-size="10.00"> $logger, string $message,</text>
<text text-anchor="start" x="48.5" y="-5" font-family="Helvetica,sans-Serif" font-size="10.00"> array $context=[])</text>
<polygon fill="#666666" stroke="#666666" points="34.5,-320 34.5,-320 167.5,-320 167.5,-320 34.5,-320"/>
<polygon fill="#666666" stroke="#666666" points="34.5,-185 34.5,-185 46.5,-185 46.5,-185 34.5,-185"/>
<polygon fill="#666666" stroke="#666666" points="46.5,-185 46.5,-185 167.5,-185 167.5,-185 46.5,-185"/>
<polygon fill="none" stroke="#666666" points="34.5,0 34.5,-337 167.5,-337 167.5,0 34.5,0"/>
</a>
</g>
</g>
<!-- Node2 -->
<g id="Node000002" class="node">
<title>Node2</title>
<g id="a_Node000002"><a xlink:href="$interface_symfony_1_1_contracts_1_1_cache_1_1_item_interface.html" xlink:title=" ">
<polygon fill="white" stroke="none" points="140,-438 62,-438 62,-374 140,-374 140,-438"/>
<text text-anchor="start" x="72.12" y="-424.5" font-family="Helvetica,sans-Serif" font-size="10.00">ItemInterface</text>
<text text-anchor="start" x="99.5" y="-409.5" font-family="Helvetica,sans-Serif" font-size="10.00"> </text>
<text text-anchor="start" x="66" y="-394.5" font-family="Helvetica,sans-Serif" font-size="10.00">+</text>
<text text-anchor="start" x="76" y="-394.5" font-family="Helvetica,sans-Serif" font-size="10.00">tag($tags)</text>
<text text-anchor="start" x="66" y="-379.5" font-family="Helvetica,sans-Serif" font-size="10.00">+</text>
<text text-anchor="start" x="76" y="-379.5" font-family="Helvetica,sans-Serif" font-size="10.00">getMetadata()</text>
<polygon fill="#666666" stroke="#666666" points="62,-421 62,-421 140,-421 140,-421 62,-421"/>
<polygon fill="#666666" stroke="#666666" points="62,-406 62,-406 140,-406 140,-406 62,-406"/>
<polygon fill="none" stroke="#666666" points="62,-374 62,-438 140,-438 140,-374 62,-374"/>
</a>
</g>
</g>
<!-- Node2&#45;&gt;Node1 -->
<g id="edge7_Node000001_Node000002" class="edge">
<title>Node2&#45;&gt;Node1</title>
<g id="a_edge7_Node000001_Node000002"><a xlink:title=" ">
<path fill="none" stroke="#63b8ff" d="M101,-362.71C101,-354.7 101,-345.88 101,-336.56"/>
<polygon fill="none" stroke="#63b8ff" points="97.5,-362.7 101,-372.7 104.5,-362.7 97.5,-362.7"/>
</a>
</g>
</g>
<!-- Node3 -->
<g id="Node000003" class="node">
<title>Node3</title>
<g id="a_Node000003"><a xlink:href="$interface_psr_1_1_cache_1_1_cache_item_interface.html" xlink:title=" ">
<polygon fill="white" stroke="none" points="112,-643 0,-643 0,-519 112,-519 112,-643"/>
<text text-anchor="start" x="12.88" y="-629.5" font-family="Helvetica,sans-Serif" font-size="10.00">CacheItemInterface</text>
<text text-anchor="start" x="54.5" y="-614.5" font-family="Helvetica,sans-Serif" font-size="10.00"> </text>
<text text-anchor="start" x="4" y="-599.5" font-family="Helvetica,sans-Serif" font-size="10.00">+</text>
<text text-anchor="start" x="14" y="-599.5" font-family="Helvetica,sans-Serif" font-size="10.00">getKey()</text>
<text text-anchor="start" x="4" y="-584.5" font-family="Helvetica,sans-Serif" font-size="10.00">+</text>
<text text-anchor="start" x="14" y="-584.5" font-family="Helvetica,sans-Serif" font-size="10.00">get()</text>
<text text-anchor="start" x="4" y="-569.5" font-family="Helvetica,sans-Serif" font-size="10.00">+</text>
<text text-anchor="start" x="14" y="-569.5" font-family="Helvetica,sans-Serif" font-size="10.00">isHit()</text>
<text text-anchor="start" x="4" y="-554.5" font-family="Helvetica,sans-Serif" font-size="10.00">+</text>
<text text-anchor="start" x="14" y="-554.5" font-family="Helvetica,sans-Serif" font-size="10.00">set($value)</text>
<text text-anchor="start" x="4" y="-539.5" font-family="Helvetica,sans-Serif" font-size="10.00">+</text>
<text text-anchor="start" x="14" y="-539.5" font-family="Helvetica,sans-Serif" font-size="10.00">expiresAt($expiration)</text>
<text text-anchor="start" x="4" y="-524.5" font-family="Helvetica,sans-Serif" font-size="10.00">+</text>
<text text-anchor="start" x="14" y="-524.5" font-family="Helvetica,sans-Serif" font-size="10.00">expiresAfter($time)</text>
<polygon fill="#666666" stroke="#666666" points="0,-626 0,-626 112,-626 112,-626 0,-626"/>
<polygon fill="#666666" stroke="#666666" points="0,-611 0,-611 112,-611 112,-611 0,-611"/>
<polygon fill="none" stroke="#666666" points="0,-519 0,-643 112,-643 112,-519 0,-519"/>
</a>
</g>
</g>
<!-- Node3&#45;&gt;Node2 -->
<g id="edge8_Node000002_Node000003" class="edge">
<title>Node3&#45;&gt;Node2</title>
<g id="a_edge8_Node000002_Node000003"><a xlink:title=" ">
<path fill="none" stroke="#63b8ff" d="M74.75,-507.91C81.12,-483.44 87.89,-457.39 92.96,-437.89"/>
<polygon fill="none" stroke="#63b8ff" points="71.38,-506.98 72.25,-517.54 78.15,-508.75 71.38,-506.98"/>
</a>
</g>
</g>
<!-- Node4 -->
<g id="Node000004" class="node">
<title>Node4</title>
<g id="a_Node000004"><a xlink:title=" ">
<polygon fill="white" stroke="none" points="164,-605.5 130,-605.5 130,-556.5 164,-556.5 164,-605.5"/>
<text text-anchor="start" x="135" y="-592" font-family="Helvetica,sans-Serif" font-size="10.00">const</text>
<text text-anchor="start" x="145.5" y="-577" font-family="Helvetica,sans-Serif" font-size="10.00"> </text>
<text text-anchor="start" x="145.5" y="-562" font-family="Helvetica,sans-Serif" font-size="10.00"> </text>
<polygon fill="#666666" stroke="#666666" points="130,-588.5 130,-588.5 164,-588.5 164,-588.5 130,-588.5"/>
<polygon fill="#666666" stroke="#666666" points="130,-573.5 130,-573.5 164,-573.5 164,-573.5 130,-573.5"/>
<polygon fill="none" stroke="#666666" points="130,-556.5 130,-605.5 164,-605.5 164,-556.5 130,-556.5"/>
</a>
</g>
</g>
<!-- Node4&#45;&gt;Node2 -->
<g id="edge9_Node000002_Node000004" class="edge">
<title>Node4&#45;&gt;Node2</title>
<g id="a_edge9_Node000002_Node000004"><a xlink:title=" ">
<path fill="none" stroke="#63b8ff" d="M140.8,-556.67C133.56,-529.44 121.43,-483.83 112.46,-450.11"/>
<polygon fill="none" stroke="#63b8ff" points="112.51,-450.3 107.1,-445.53 109.43,-438.7 114.84,-443.47 112.51,-450.3"/>
</a>
</g>
<text text-anchor="middle" x="194" y="-491.5" font-family="Helvetica,sans-Serif" font-size="10.00" fill="grey"> +METADATA_CTIME</text>
<text text-anchor="middle" x="194" y="-480.25" font-family="Helvetica,sans-Serif" font-size="10.00" fill="grey">+METADATA_EXPIRY</text>
<text text-anchor="middle" x="194" y="-469" font-family="Helvetica,sans-Serif" font-size="10.00" fill="grey">+METADATA_TAGS</text>
<text text-anchor="middle" x="194" y="-457.75" font-family="Helvetica,sans-Serif" font-size="10.00" fill="grey">+RESERVED_CHARACTERS</text>
</g>
</g>
</svg>
