<?xml version="1.0" encoding="UTF-8" standalone="no"?>
<!DOCTYPE svg PUBLIC "-//W3C//DTD SVG 1.1//EN"
 "http://www.w3.org/Graphics/SVG/1.1/DTD/svg11.dtd">
<!-- Generated by graphviz version 10.0.1 (20240210.2158)
 -->
<!-- Title: fileExists Pages: 1 -->
<svg width="609pt" height="27pt"
 viewBox="0.00 0.00 609.00 27.25" xmlns="http://www.w3.org/2000/svg" xmlns:xlink="http://www.w3.org/1999/xlink">
<g id="graph0" class="graph" transform="scale(1 1) rotate(0) translate(4 23.25)">
<title>fileExists</title>
<!-- Node1 -->
<g id="Node000001" class="node">
<title>Node1</title>
<g id="a_Node000001"><a xlink:title=" ">
<polygon fill="#999999" stroke="#666666" points="56.5,-19.25 0,-19.25 0,0 56.5,0 56.5,-19.25"/>
<text text-anchor="middle" x="28.25" y="-5.75" font-family="Helvetica,sans-Serif" font-size="10.00">fileExists</text>
</a>
</g>
</g>
<!-- Node2 -->
<g id="Node000002" class="node">
<title>Node2</title>
<g id="a_Node000002"><a xlink:href="$class_t_c_p_d_f___s_t_a_t_i_c.html#a9e14c837e0fcb7de0b1b272f5b2384f7" xlink:title=" ">
<polygon fill="white" stroke="#666666" points="230,-19.25 92.5,-19.25 92.5,0 230,0 230,-19.25"/>
<text text-anchor="middle" x="161.25" y="-5.75" font-family="Helvetica,sans-Serif" font-size="10.00">TCPDF_STATIC\file_exists</text>
</a>
</g>
</g>
<!-- Node1&#45;&gt;Node2 -->
<g id="edge7_Node000001_Node000002" class="edge">
<title>Node1&#45;&gt;Node2</title>
<g id="a_edge7_Node000001_Node000002"><a xlink:title=" ">
<path fill="none" stroke="#63b8ff" d="M56.71,-9.62C63.96,-9.62 72.17,-9.62 80.7,-9.62"/>
<polygon fill="#63b8ff" stroke="#63b8ff" points="80.55,-13.13 90.55,-9.63 80.55,-6.13 80.55,-13.13"/>
</a>
</g>
</g>
<!-- Node3 -->
<g id="Node000003" class="node">
<title>Node3</title>
<g id="a_Node000003"><a xlink:href="$class_t_c_p_d_f___s_t_a_t_i_c.html#adeb9b51fef0b87a0befbdbb11e85f39b" xlink:title=" ">
<polygon fill="white" stroke="#666666" points="401.25,-19.25 266,-19.25 266,0 401.25,0 401.25,-19.25"/>
<text text-anchor="middle" x="333.62" y="-5.75" font-family="Helvetica,sans-Serif" font-size="10.00">TCPDF_STATIC\url_exists</text>
</a>
</g>
</g>
<!-- Node2&#45;&gt;Node3 -->
<g id="edge8_Node000002_Node000003" class="edge">
<title>Node2&#45;&gt;Node3</title>
<g id="a_edge8_Node000002_Node000003"><a xlink:title=" ">
<path fill="none" stroke="#63b8ff" d="M230.08,-9.62C238.02,-9.62 246.18,-9.62 254.26,-9.62"/>
<polygon fill="#63b8ff" stroke="#63b8ff" points="254.07,-13.13 264.07,-9.63 254.07,-6.13 254.07,-13.13"/>
</a>
</g>
</g>
<!-- Node4 -->
<g id="Node000004" class="node">
<title>Node4</title>
<g id="a_Node000004"><a xlink:href="$class_t_c_p_d_f___s_t_a_t_i_c.html#a79813ccb2446fdc8ec2b1a1f346a3809" xlink:title=" ">
<polygon fill="white" stroke="#666666" points="601,-19.25 437.25,-19.25 437.25,0 601,0 601,-19.25"/>
<text text-anchor="middle" x="519.12" y="-5.75" font-family="Helvetica,sans-Serif" font-size="10.00">TCPDF_STATIC\encodeUrlQuery</text>
</a>
</g>
</g>
<!-- Node3&#45;&gt;Node4 -->
<g id="edge9_Node000003_Node000004" class="edge">
<title>Node3&#45;&gt;Node4</title>
<g id="a_edge9_Node000003_Node000004"><a xlink:title=" ">
<path fill="none" stroke="#63b8ff" d="M401.65,-9.62C409.45,-9.62 417.5,-9.62 425.56,-9.62"/>
<polygon fill="#63b8ff" stroke="#63b8ff" points="425.42,-13.13 435.42,-9.63 425.42,-6.13 425.42,-13.13"/>
</a>
</g>
</g>
</g>
</svg>
