<?xml version="1.0" encoding="UTF-8" standalone="no"?>
<!DOCTYPE svg PUBLIC "-//W3C//DTD SVG 1.1//EN"
 "http://www.w3.org/Graphics/SVG/1.1/DTD/svg11.dtd">
<!-- Generated by graphviz version 10.0.1 (20240210.2158)
 -->
<!-- Title: serialize Pages: 1 -->
<svg width="358pt" height="137pt"
 viewBox="0.00 0.00 357.50 136.50" xmlns="http://www.w3.org/2000/svg" xmlns:xlink="http://www.w3.org/1999/xlink">
<g id="graph0" class="graph" transform="scale(1 1) rotate(0) translate(4 132.5)">
<title>serialize</title>
<!-- Node1 -->
<g id="Node000001" class="node">
<title>Node1</title>
<g id="a_Node000001"><a xlink:title=" ">
<polygon fill="#999999" stroke="#666666" points="52,-73.88 0,-73.88 0,-54.62 52,-54.62 52,-73.88"/>
<text text-anchor="middle" x="26" y="-60.38" font-family="Helvetica,sans-Serif" font-size="10.00">serialize</text>
</a>
</g>
</g>
<!-- Node2 -->
<g id="Node000002" class="node">
<title>Node2</title>
<g id="a_Node000002"><a xlink:href="$class_sabre_1_1_v_object_1_1_node.html#ac751e87b3d4c4bf2feb03bee8b092755" xlink:title=" ">
<polygon fill="white" stroke="#666666" points="200.75,-128.5 94.75,-128.5 94.75,-98 200.75,-98 200.75,-128.5"/>
<text text-anchor="start" x="102.75" y="-115" font-family="Helvetica,sans-Serif" font-size="10.00">Sabre\VObject\Node</text>
<text text-anchor="middle" x="147.75" y="-103.75" font-family="Helvetica,sans-Serif" font-size="10.00">\count</text>
</a>
</g>
</g>
<!-- Node1&#45;&gt;Node2 -->
<g id="edge9_Node000001_Node000002" class="edge">
<title>Node1&#45;&gt;Node2</title>
<g id="a_edge9_Node000001_Node000002"><a xlink:title=" ">
<path fill="none" stroke="#63b8ff" d="M51.52,-74.28C64.99,-79.8 82.19,-86.83 98.24,-93.4"/>
<polygon fill="#63b8ff" stroke="#63b8ff" points="96.6,-96.51 107.18,-97.06 99.25,-90.03 96.6,-96.51"/>
</a>
</g>
</g>
<!-- Node4 -->
<g id="Node000004" class="node">
<title>Node4</title>
<g id="a_Node000004"><a xlink:href="$class_sabre_1_1_v_object_1_1_property.html#ab449d43ad919a6167a711c76301efcd2" xlink:title=" ">
<polygon fill="white" stroke="#666666" points="207.5,-79.5 88,-79.5 88,-49 207.5,-49 207.5,-79.5"/>
<text text-anchor="start" x="96" y="-66" font-family="Helvetica,sans-Serif" font-size="10.00">Sabre\VObject\Property</text>
<text text-anchor="middle" x="147.75" y="-54.75" font-family="Helvetica,sans-Serif" font-size="10.00">\getParts</text>
</a>
</g>
</g>
<!-- Node1&#45;&gt;Node4 -->
<g id="edge11_Node000001_Node000004" class="edge">
<title>Node1&#45;&gt;Node4</title>
<g id="a_edge11_Node000001_Node000004"><a xlink:title=" ">
<path fill="none" stroke="#63b8ff" d="M52.4,-64.25C59.65,-64.25 67.93,-64.25 76.51,-64.25"/>
<polygon fill="#63b8ff" stroke="#63b8ff" points="76.37,-67.75 86.37,-64.25 76.37,-60.75 76.37,-67.75"/>
</a>
</g>
</g>
<!-- Node5 -->
<g id="Node000005" class="node">
<title>Node5</title>
<g id="a_Node000005"><a xlink:href="$class_sabre_1_1_v_object_1_1_property.html#aa403fc13592fed1a41f8617b18e90912" xlink:title=" ">
<polygon fill="white" stroke="#666666" points="207.5,-30.5 88,-30.5 88,0 207.5,0 207.5,-30.5"/>
<text text-anchor="start" x="96" y="-17" font-family="Helvetica,sans-Serif" font-size="10.00">Sabre\VObject\Property</text>
<text text-anchor="middle" x="147.75" y="-5.75" font-family="Helvetica,sans-Serif" font-size="10.00">\parameters</text>
</a>
</g>
</g>
<!-- Node1&#45;&gt;Node5 -->
<g id="edge12_Node000001_Node000005" class="edge">
<title>Node1&#45;&gt;Node5</title>
<g id="a_edge12_Node000001_Node000005"><a xlink:title=" ">
<path fill="none" stroke="#63b8ff" d="M51.52,-54.22C64.99,-48.7 82.19,-41.67 98.24,-35.1"/>
<polygon fill="#63b8ff" stroke="#63b8ff" points="99.25,-38.47 107.18,-31.44 96.6,-31.99 99.25,-38.47"/>
</a>
</g>
</g>
<!-- Node3 -->
<g id="Node000003" class="node">
<title>Node3</title>
<g id="a_Node000003"><a xlink:href="$class_sabre_1_1_v_object_1_1_node.html#a7a9f937c2958e6f4dd7b030f86fb70b7" xlink:title=" ">
<polygon fill="white" stroke="#666666" points="349.5,-128.5 243.5,-128.5 243.5,-98 349.5,-98 349.5,-128.5"/>
<text text-anchor="start" x="251.5" y="-115" font-family="Helvetica,sans-Serif" font-size="10.00">Sabre\VObject\Node</text>
<text text-anchor="middle" x="296.5" y="-103.75" font-family="Helvetica,sans-Serif" font-size="10.00">\getIterator</text>
</a>
</g>
</g>
<!-- Node2&#45;&gt;Node3 -->
<g id="edge10_Node000002_Node000003" class="edge">
<title>Node2&#45;&gt;Node3</title>
<g id="a_edge10_Node000002_Node000003"><a xlink:title=" ">
<path fill="none" stroke="#63b8ff" d="M200.9,-113.25C210.84,-113.25 221.34,-113.25 231.6,-113.25"/>
<polygon fill="#63b8ff" stroke="#63b8ff" points="231.51,-116.75 241.51,-113.25 231.51,-109.75 231.51,-116.75"/>
</a>
</g>
</g>
</g>
</svg>
