<?xml version="1.0" encoding="UTF-8" standalone="no"?>
<!DOCTYPE svg PUBLIC "-//W3C//DTD SVG 1.1//EN"
 "http://www.w3.org/Graphics/SVG/1.1/DTD/svg11.dtd">
<!-- Generated by graphviz version 10.0.1 (20240210.2158)
 -->
<!-- Title: setFooterFont Pages: 1 -->
<svg width="234pt" height="64pt"
 viewBox="0.00 0.00 233.50 64.25" xmlns="http://www.w3.org/2000/svg" xmlns:xlink="http://www.w3.org/1999/xlink">
<g id="graph0" class="graph" transform="scale(1 1) rotate(0) translate(4 60.25)">
<title>setFooterFont</title>
<!-- Node1 -->
<g id="Node000001" class="node">
<title>Node1</title>
<g id="a_Node000001"><a xlink:title=" ">
<polygon fill="#999999" stroke="#666666" points="225.5,-37.25 148.75,-37.25 148.75,-18 225.5,-18 225.5,-37.25"/>
<text text-anchor="middle" x="187.12" y="-23.75" font-family="Helvetica,sans-Serif" font-size="10.00">setFooterFont</text>
</a>
</g>
</g>
<!-- Node2 -->
<g id="Node000002" class="node">
<title>Node2</title>
<g id="a_Node000002"><a xlink:href="$class_t_c_p_d_f.html#ad9c7865a75fb9ee51d4b8188afd00192" xlink:title=" ">
<polygon fill="white" stroke="#666666" points="89.88,-56.25 22.88,-56.25 22.88,-37 89.88,-37 89.88,-56.25"/>
<text text-anchor="middle" x="56.38" y="-42.75" font-family="Helvetica,sans-Serif" font-size="10.00">__construct</text>
</a>
</g>
</g>
<!-- Node1&#45;&gt;Node2 -->
<g id="edge5_Node000001_Node000002" class="edge">
<title>Node1&#45;&gt;Node2</title>
<g id="a_edge5_Node000001_Node000002"><a xlink:title=" ">
<path fill="none" stroke="#63b8ff" d="M137.31,-34.83C121.49,-37.16 104.33,-39.7 89.98,-41.81"/>
<polygon fill="#63b8ff" stroke="#63b8ff" points="137.66,-38.32 147.04,-33.39 136.64,-31.39 137.66,-38.32"/>
</a>
</g>
</g>
<!-- Node3 -->
<g id="Node000003" class="node">
<title>Node3</title>
<g id="a_Node000003"><a xlink:href="$class_g_l_p_i_p_d_f.html#ae2cc1d417e408685ee8d80de75ee3860" xlink:title=" ">
<polygon fill="white" stroke="#666666" points="112.75,-19.25 0,-19.25 0,0 112.75,0 112.75,-19.25"/>
<text text-anchor="middle" x="56.38" y="-5.75" font-family="Helvetica,sans-Serif" font-size="10.00">GLPIPDF\__construct</text>
</a>
</g>
</g>
<!-- Node1&#45;&gt;Node3 -->
<g id="edge6_Node000001_Node000003" class="edge">
<title>Node1&#45;&gt;Node3</title>
<g id="a_edge6_Node000001_Node000003"><a xlink:title=" ">
<path fill="none" stroke="#63b8ff" d="M137.22,-20.79C129.29,-19.68 121.03,-18.52 112.95,-17.4"/>
<polygon fill="#63b8ff" stroke="#63b8ff" points="136.65,-24.24 147.04,-22.16 137.62,-17.31 136.65,-24.24"/>
</a>
</g>
</g>
</g>
</svg>
