<?xml version="1.0" encoding="UTF-8" standalone="no"?>
<!DOCTYPE svg PUBLIC "-//W3C//DTD SVG 1.1//EN"
 "http://www.w3.org/Graphics/SVG/1.1/DTD/svg11.dtd">
<!-- Generated by graphviz version 10.0.1 (20240210.2158)
 -->
<!-- Title: prepareInputForUpdate Pages: 1 -->
<svg width="484pt" height="200pt"
 viewBox="0.00 0.00 483.50 199.88" xmlns="http://www.w3.org/2000/svg" xmlns:xlink="http://www.w3.org/1999/xlink">
<g id="graph0" class="graph" transform="scale(1 1) rotate(0) translate(4 195.88)">
<title>prepareInputForUpdate</title>
<!-- Node1 -->
<g id="Node000001" class="node">
<title>Node1</title>
<g id="a_Node000001"><a xlink:title=" ">
<polygon fill="#999999" stroke="#666666" points="115.75,-105.25 0,-105.25 0,-86 115.75,-86 115.75,-105.25"/>
<text text-anchor="middle" x="57.88" y="-91.75" font-family="Helvetica,sans-Serif" font-size="10.00">prepareInputForUpdate</text>
</a>
</g>
</g>
<!-- Node2 -->
<g id="Node000002" class="node">
<title>Node2</title>
<g id="a_Node000002"><a xlink:href="$class_common_d_b_t_m.html#a6894cb7a103d230916404731925df253" xlink:title=" ">
<polygon fill="white" stroke="#666666" points="302,-191.88 151.75,-191.88 151.75,-161.38 302,-161.38 302,-191.88"/>
<text text-anchor="start" x="159.75" y="-178.38" font-family="Helvetica,sans-Serif" font-size="10.00">CommonDBTM\getForeignKey</text>
<text text-anchor="middle" x="226.88" y="-167.12" font-family="Helvetica,sans-Serif" font-size="10.00">Field</text>
</a>
</g>
</g>
<!-- Node1&#45;&gt;Node2 -->
<g id="edge15_Node000001_Node000002" class="edge">
<title>Node1&#45;&gt;Node2</title>
<g id="a_edge15_Node000001_Node000002"><a xlink:title=" ">
<path fill="none" stroke="#63b8ff" d="M72.77,-105.61C90.43,-117.96 122.2,-139.01 151.75,-152.62 154.9,-154.08 158.17,-155.48 161.5,-156.83"/>
<polygon fill="#63b8ff" stroke="#63b8ff" points="160.24,-160.1 170.83,-160.4 162.75,-153.56 160.24,-160.1"/>
</a>
</g>
</g>
<!-- Node4 -->
<g id="Node000004" class="node">
<title>Node4</title>
<g id="a_Node000004"><a xlink:href="$class_common_i_t_i_l_task.html#a3fea6464d2d20d9bfe6684e2196d9634" xlink:title=" ">
<polygon fill="white" stroke="#666666" points="281.38,-143.25 172.38,-143.25 172.38,-124 281.38,-124 281.38,-143.25"/>
<text text-anchor="middle" x="226.88" y="-129.75" font-family="Helvetica,sans-Serif" font-size="10.00">getItilObjectItemType</text>
</a>
</g>
</g>
<!-- Node1&#45;&gt;Node4 -->
<g id="edge17_Node000001_Node000004" class="edge">
<title>Node1&#45;&gt;Node4</title>
<g id="a_edge17_Node000001_Node000004"><a xlink:title=" ">
<path fill="none" stroke="#63b8ff" d="M103.19,-105.71C123.84,-110.41 148.63,-116.05 170.51,-121.03"/>
<polygon fill="#63b8ff" stroke="#63b8ff" points="169.64,-124.42 180.17,-123.22 171.19,-117.59 169.64,-124.42"/>
</a>
</g>
</g>
<!-- Node5 -->
<g id="Node000005" class="node">
<title>Node5</title>
<g id="a_Node000005"><a xlink:href="$class_common_g_l_p_i.html#a3dadfbfaa3d8e3b5fe01a60e28640ddb" xlink:title=" ">
<polygon fill="white" stroke="#666666" points="464.62,-124.25 348.88,-124.25 348.88,-105 464.62,-105 464.62,-124.25"/>
<text text-anchor="middle" x="406.75" y="-110.75" font-family="Helvetica,sans-Serif" font-size="10.00">CommonGLPI\getType</text>
</a>
</g>
</g>
<!-- Node1&#45;&gt;Node5 -->
<g id="edge19_Node000001_Node000005" class="edge">
<title>Node1&#45;&gt;Node5</title>
<g id="a_edge19_Node000001_Node000005"><a xlink:title=" ">
<path fill="none" stroke="#63b8ff" d="M116.15,-98.76C176.78,-102.08 272.46,-107.32 337.09,-110.86"/>
<polygon fill="#63b8ff" stroke="#63b8ff" points="336.7,-114.35 346.87,-111.4 337.08,-107.36 336.7,-114.35"/>
</a>
</g>
</g>
<!-- Node6 -->
<g id="Node000006" class="node">
<title>Node6</title>
<g id="a_Node000006"><a xlink:href="$class_toolbox.html#a91a798d57725b71c234e7b678be0130f" xlink:title=" ">
<polygon fill="white" stroke="#666666" points="300.12,-67.88 153.62,-67.88 153.62,-37.38 300.12,-37.38 300.12,-67.88"/>
<text text-anchor="start" x="161.62" y="-54.38" font-family="Helvetica,sans-Serif" font-size="10.00">Toolbox\manageBeginAndEnd</text>
<text text-anchor="middle" x="226.88" y="-43.12" font-family="Helvetica,sans-Serif" font-size="10.00">PlanDates</text>
</a>
</g>
</g>
<!-- Node1&#45;&gt;Node6 -->
<g id="edge20_Node000001_Node000006" class="edge">
<title>Node1&#45;&gt;Node6</title>
<g id="a_edge20_Node000001_Node000006"><a xlink:title=" ">
<path fill="none" stroke="#63b8ff" d="M98.03,-85.54C114.63,-81.27 134.53,-76.15 153.62,-71.23"/>
<polygon fill="#63b8ff" stroke="#63b8ff" points="154.47,-74.63 163.28,-68.74 152.72,-67.85 154.47,-74.63"/>
</a>
</g>
</g>
<!-- Node7 -->
<g id="Node000007" class="node">
<title>Node7</title>
<g id="a_Node000007"><a xlink:href="$class_common_i_t_i_l_task.html#a8bf0511ea607db8f133f36d4d00e5528" xlink:title=" ">
<polygon fill="white" stroke="#666666" points="267.88,-19.25 185.88,-19.25 185.88,0 267.88,0 267.88,-19.25"/>
<text text-anchor="middle" x="226.88" y="-5.75" font-family="Helvetica,sans-Serif" font-size="10.00">test_valid_date</text>
</a>
</g>
</g>
<!-- Node1&#45;&gt;Node7 -->
<g id="edge21_Node000001_Node000007" class="edge">
<title>Node1&#45;&gt;Node7</title>
<g id="a_edge21_Node000001_Node000007"><a xlink:title=" ">
<path fill="none" stroke="#63b8ff" d="M69.73,-85.67C86.23,-71.06 119.16,-43.89 151.75,-28.62 158.95,-25.26 166.83,-22.42 174.68,-20.06"/>
<polygon fill="#63b8ff" stroke="#63b8ff" points="175.51,-23.46 184.22,-17.43 173.65,-16.71 175.51,-23.46"/>
</a>
</g>
</g>
<!-- Node3 -->
<g id="Node000003" class="node">
<title>Node3</title>
<g id="a_Node000003"><a xlink:href="$db_8function_8php.html#a0ddaf6f690dbc7aa7490ad91b9fae0a0" xlink:title=" ">
<polygon fill="white" stroke="#666666" points="475.5,-186.25 338,-186.25 338,-167 475.5,-167 475.5,-186.25"/>
<text text-anchor="middle" x="406.75" y="-172.75" font-family="Helvetica,sans-Serif" font-size="10.00">getForeignKeyFieldForTable</text>
</a>
</g>
</g>
<!-- Node2&#45;&gt;Node3 -->
<g id="edge16_Node000002_Node000003" class="edge">
<title>Node2&#45;&gt;Node3</title>
<g id="a_edge16_Node000002_Node000003"><a xlink:title=" ">
<path fill="none" stroke="#63b8ff" d="M302.28,-176.62C310.15,-176.62 318.17,-176.62 326.09,-176.62"/>
<polygon fill="#63b8ff" stroke="#63b8ff" points="326.09,-180.13 336.09,-176.63 326.09,-173.13 326.09,-180.13"/>
</a>
</g>
</g>
<!-- Node4&#45;&gt;Node5 -->
<g id="edge18_Node000004_Node000005" class="edge">
<title>Node4&#45;&gt;Node5</title>
<g id="a_edge18_Node000004_Node000005"><a xlink:title=" ">
<path fill="none" stroke="#63b8ff" d="M281.73,-127.87C299.25,-126 318.95,-123.9 337.39,-121.93"/>
<polygon fill="#63b8ff" stroke="#63b8ff" points="337.61,-125.42 347.18,-120.88 336.86,-118.46 337.61,-125.42"/>
</a>
</g>
</g>
</g>
</svg>
