<?xml version="1.0" encoding="UTF-8" standalone="no"?>
<!DOCTYPE svg PUBLIC "-//W3C//DTD SVG 1.1//EN"
 "http://www.w3.org/Graphics/SVG/1.1/DTD/svg11.dtd">
<!-- Generated by graphviz version 10.0.1 (20240210.2158)
 -->
<!-- Title: isInTheManagerGroup Pages: 1 -->
<svg width="414pt" height="64pt"
 viewBox="0.00 0.00 413.75 64.25" xmlns="http://www.w3.org/2000/svg" xmlns:xlink="http://www.w3.org/1999/xlink">
<g id="graph0" class="graph" transform="scale(1 1) rotate(0) translate(4 60.25)">
<title>isInTheManagerGroup</title>
<!-- Node1 -->
<g id="Node000001" class="node">
<title>Node1</title>
<g id="a_Node000001"><a xlink:title=" ">
<polygon fill="#999999" stroke="#666666" points="405.75,-37.25 293.75,-37.25 293.75,-18 405.75,-18 405.75,-37.25"/>
<text text-anchor="middle" x="349.75" y="-23.75" font-family="Helvetica,sans-Serif" font-size="10.00">isInTheManagerGroup</text>
</a>
</g>
</g>
<!-- Node2 -->
<g id="Node000002" class="node">
<title>Node2</title>
<g id="a_Node000002"><a xlink:href="$class_project.html#aaa02d022328bc6d794a0484f73828102" xlink:title=" ">
<polygon fill="white" stroke="#666666" points="257.75,-56.25 145.75,-56.25 145.75,-37 257.75,-37 257.75,-56.25"/>
<text text-anchor="middle" x="201.75" y="-42.75" font-family="Helvetica,sans-Serif" font-size="10.00">canModifyGlobalState</text>
</a>
</g>
</g>
<!-- Node1&#45;&gt;Node2 -->
<g id="edge7_Node000001_Node000002" class="edge">
<title>Node1&#45;&gt;Node2</title>
<g id="a_edge7_Node000001_Node000002"><a xlink:title=" ">
<path fill="none" stroke="#63b8ff" d="M282.22,-36.28C274.13,-37.34 265.93,-38.4 258.02,-39.43"/>
<polygon fill="#63b8ff" stroke="#63b8ff" points="282.59,-39.76 292.05,-35 281.68,-32.82 282.59,-39.76"/>
</a>
</g>
</g>
<!-- Node4 -->
<g id="Node000004" class="node">
<title>Node4</title>
<g id="a_Node000004"><a xlink:href="$class_project.html#ac73fbb33d08471d618cd753ea8a73b75" xlink:title=" ">
<polygon fill="white" stroke="#666666" points="238.25,-19.25 165.25,-19.25 165.25,0 238.25,0 238.25,-19.25"/>
<text text-anchor="middle" x="201.75" y="-5.75" font-family="Helvetica,sans-Serif" font-size="10.00">canViewItem</text>
</a>
</g>
</g>
<!-- Node1&#45;&gt;Node4 -->
<g id="edge9_Node000001_Node000004" class="edge">
<title>Node1&#45;&gt;Node4</title>
<g id="a_edge9_Node000001_Node000004"><a xlink:title=" ">
<path fill="none" stroke="#63b8ff" d="M282.18,-19.42C267.15,-17.57 251.76,-15.67 238.58,-14.04"/>
<polygon fill="#63b8ff" stroke="#63b8ff" points="281.7,-22.88 292.05,-20.63 282.55,-15.94 281.7,-22.88"/>
</a>
</g>
</g>
<!-- Node3 -->
<g id="Node000003" class="node">
<title>Node3</title>
<g id="a_Node000003"><a xlink:href="$class_project.html#a96d5ba9f6df5e6b0faaee1a2206d2d35" xlink:title=" ">
<polygon fill="white" stroke="#666666" points="109.75,-56.25 0,-56.25 0,-37 109.75,-37 109.75,-56.25"/>
<text text-anchor="middle" x="54.88" y="-42.75" font-family="Helvetica,sans-Serif" font-size="10.00">canOrderKanbanCard</text>
</a>
</g>
</g>
<!-- Node2&#45;&gt;Node3 -->
<g id="edge8_Node000002_Node000003" class="edge">
<title>Node2&#45;&gt;Node3</title>
<g id="a_edge8_Node000002_Node000003"><a xlink:title=" ">
<path fill="none" stroke="#63b8ff" d="M134.19,-46.62C126.07,-46.62 117.86,-46.62 109.95,-46.62"/>
<polygon fill="#63b8ff" stroke="#63b8ff" points="134.05,-50.13 144.05,-46.63 134.05,-43.13 134.05,-50.13"/>
</a>
</g>
</g>
</g>
</svg>
