<?xml version="1.0" encoding="UTF-8" standalone="no"?>
<!DOCTYPE svg PUBLIC "-//W3C//DTD SVG 1.1//EN"
 "http://www.w3.org/Graphics/SVG/1.1/DTD/svg11.dtd">
<!-- Generated by graphviz version 10.0.1 (20240210.2158)
 -->
<!-- Title: showMassiveActionsSubForm Pages: 1 -->
<svg width="294pt" height="64pt"
 viewBox="0.00 0.00 294.25 64.25" xmlns="http://www.w3.org/2000/svg" xmlns:xlink="http://www.w3.org/1999/xlink">
<g id="graph0" class="graph" transform="scale(1 1) rotate(0) translate(4 60.25)">
<title>showMassiveActionsSubForm</title>
<!-- Node1 -->
<g id="Node000001" class="node">
<title>Node1</title>
<g id="a_Node000001"><a xlink:title=" ">
<polygon fill="#999999" stroke="#666666" points="148.75,-37.25 0,-37.25 0,-18 148.75,-18 148.75,-37.25"/>
<text text-anchor="middle" x="74.38" y="-23.75" font-family="Helvetica,sans-Serif" font-size="10.00">showMassiveActionsSubForm</text>
</a>
</g>
</g>
<!-- Node2 -->
<g id="Node000002" class="node">
<title>Node2</title>
<g id="a_Node000002"><a xlink:href="$autoload_8function_8php.html#a2111ba1b23d22b49aee91462961bda8a" xlink:title=" ">
<polygon fill="white" stroke="#666666" points="249.9,-56.25 221.1,-56.25 221.1,-37 249.9,-37 249.9,-56.25"/>
<text text-anchor="middle" x="235.5" y="-42.75" font-family="Helvetica,sans-Serif" font-size="10.00">_x</text>
</a>
</g>
</g>
<!-- Node1&#45;&gt;Node2 -->
<g id="edge5_Node000001_Node000002" class="edge">
<title>Node1&#45;&gt;Node2</title>
<g id="a_edge5_Node000001_Node000002"><a xlink:title=" ">
<path fill="none" stroke="#63b8ff" d="M148.88,-36.4C170.69,-39.01 193.1,-41.68 209.52,-43.64"/>
<polygon fill="#63b8ff" stroke="#63b8ff" points="208.96,-47.1 219.3,-44.81 209.79,-40.15 208.96,-47.1"/>
</a>
</g>
</g>
<!-- Node3 -->
<g id="Node000003" class="node">
<title>Node3</title>
<g id="a_Node000003"><a xlink:href="$db_8function_8php.html#a5bb7668a0ab5705035e0608178fabcba" xlink:title=" ">
<polygon fill="white" stroke="#666666" points="286.25,-19.25 184.75,-19.25 184.75,0 286.25,0 286.25,-19.25"/>
<text text-anchor="middle" x="235.5" y="-5.75" font-family="Helvetica,sans-Serif" font-size="10.00">getItemForItemtype</text>
</a>
</g>
</g>
<!-- Node1&#45;&gt;Node3 -->
<g id="edge6_Node000001_Node000003" class="edge">
<title>Node1&#45;&gt;Node3</title>
<g id="a_edge6_Node000001_Node000003"><a xlink:title=" ">
<path fill="none" stroke="#63b8ff" d="M148.88,-19.31C156.98,-18.39 165.16,-17.47 173.09,-16.57"/>
<polygon fill="#63b8ff" stroke="#63b8ff" points="173.44,-20.05 182.98,-15.45 172.65,-13.1 173.44,-20.05"/>
</a>
</g>
</g>
</g>
</svg>
