<?xml version="1.0" encoding="UTF-8" standalone="no"?>
<!DOCTYPE svg PUBLIC "-//W3C//DTD SVG 1.1//EN"
 "http://www.w3.org/Graphics/SVG/1.1/DTD/svg11.dtd">
<!-- Generated by graphviz version 10.0.1 (20240210.2158)
 -->
<!-- Title: printTemplate Pages: 1 -->
<svg width="291pt" height="88pt"
 viewBox="0.00 0.00 290.50 87.50" xmlns="http://www.w3.org/2000/svg" xmlns:xlink="http://www.w3.org/1999/xlink">
<g id="graph0" class="graph" transform="scale(1 1) rotate(0) translate(4 83.5)">
<title>printTemplate</title>
<!-- Node1 -->
<g id="Node000001" class="node">
<title>Node1</title>
<g id="a_Node000001"><a xlink:title=" ">
<polygon fill="#999999" stroke="#666666" points="74.5,-48.88 0,-48.88 0,-29.62 74.5,-29.62 74.5,-48.88"/>
<text text-anchor="middle" x="37.25" y="-35.38" font-family="Helvetica,sans-Serif" font-size="10.00">printTemplate</text>
</a>
</g>
</g>
<!-- Node2 -->
<g id="Node000002" class="node">
<title>Node2</title>
<g id="a_Node000002"><a xlink:href="$class_t_c_p_d_f___s_t_a_t_i_c.html#a5e311abad71449e634216a5d897a65b6" xlink:title=" ">
<polygon fill="white" stroke="#666666" points="256.62,-79.5 136.38,-79.5 136.38,-49 256.62,-49 256.62,-79.5"/>
<text text-anchor="start" x="144.38" y="-66" font-family="Helvetica,sans-Serif" font-size="10.00">TCPDF_STATIC\empty</text>
<text text-anchor="middle" x="196.5" y="-54.75" font-family="Helvetica,sans-Serif" font-size="10.00">_string</text>
</a>
</g>
</g>
<!-- Node1&#45;&gt;Node2 -->
<g id="edge5_Node000001_Node000002" class="edge">
<title>Node1&#45;&gt;Node2</title>
<g id="a_edge5_Node000001_Node000002"><a xlink:title=" ">
<path fill="none" stroke="#63b8ff" d="M74.72,-45.05C89.68,-47.43 107.53,-50.26 124.86,-53.02"/>
<polygon fill="#63b8ff" stroke="#63b8ff" points="124.21,-56.46 134.64,-54.57 125.31,-49.55 124.21,-56.46"/>
</a>
</g>
</g>
<!-- Node3 -->
<g id="Node000003" class="node">
<title>Node3</title>
<g id="a_Node000003"><a xlink:href="$class_t_c_p_d_f___s_t_a_t_i_c.html#a4f999a8d4eb1934900c87343ec99ea12" xlink:title=" ">
<polygon fill="white" stroke="#666666" points="282.5,-30.5 110.5,-30.5 110.5,0 282.5,0 282.5,-30.5"/>
<text text-anchor="start" x="118.5" y="-17" font-family="Helvetica,sans-Serif" font-size="10.00">TCPDF_STATIC\getTransformation</text>
<text text-anchor="middle" x="196.5" y="-5.75" font-family="Helvetica,sans-Serif" font-size="10.00">MatrixProduct</text>
</a>
</g>
</g>
<!-- Node1&#45;&gt;Node3 -->
<g id="edge6_Node000001_Node000003" class="edge">
<title>Node1&#45;&gt;Node3</title>
<g id="a_edge6_Node000001_Node000003"><a xlink:title=" ">
<path fill="none" stroke="#63b8ff" d="M74.72,-33.68C82.17,-32.55 90.33,-31.3 98.78,-30.01"/>
<polygon fill="#63b8ff" stroke="#63b8ff" points="99.18,-33.49 108.53,-28.52 98.12,-26.57 99.18,-33.49"/>
</a>
</g>
</g>
</g>
</svg>
