<?xml version="1.0" encoding="UTF-8" standalone="no"?>
<!DOCTYPE svg PUBLIC "-//W3C//DTD SVG 1.1//EN"
 "http://www.w3.org/Graphics/SVG/1.1/DTD/svg11.dtd">
<!-- Generated by graphviz version 10.0.1 (20240210.2158)
 -->
<!-- Title: context Pages: 1 -->
<svg width="177pt" height="64pt"
 viewBox="0.00 0.00 177.25 64.25" xmlns="http://www.w3.org/2000/svg" xmlns:xlink="http://www.w3.org/1999/xlink">
<g id="graph0" class="graph" transform="scale(1 1) rotate(0) translate(4 60.25)">
<title>context</title>
<!-- Node1 -->
<g id="Node000001" class="node">
<title>Node1</title>
<g id="a_Node000001"><a xlink:title=" ">
<polygon fill="#999999" stroke="#666666" points="169.25,-37.25 121,-37.25 121,-18 169.25,-18 169.25,-37.25"/>
<text text-anchor="middle" x="145.12" y="-23.75" font-family="Helvetica,sans-Serif" font-size="10.00">context</text>
</a>
</g>
</g>
<!-- Node2 -->
<g id="Node000002" class="node">
<title>Node2</title>
<g id="a_Node000002"><a xlink:href="$class_paragon_i_e___sodium___core32___b_l_a_k_e2b.html#aa0ec189d2d64d2f8573a8e75203cbf6d" xlink:title=" ">
<polygon fill="white" stroke="#666666" points="56.9,-56.25 28.1,-56.25 28.1,-37 56.9,-37 56.9,-56.25"/>
<text text-anchor="middle" x="42.5" y="-42.75" font-family="Helvetica,sans-Serif" font-size="10.00">init</text>
</a>
</g>
</g>
<!-- Node1&#45;&gt;Node2 -->
<g id="edge5_Node000001_Node000002" class="edge">
<title>Node1&#45;&gt;Node2</title>
<g id="a_edge5_Node000001_Node000002"><a xlink:title=" ">
<path fill="none" stroke="#63b8ff" d="M109.32,-34.2C91.45,-37.57 70.69,-41.49 57.34,-44.01"/>
<polygon fill="#63b8ff" stroke="#63b8ff" points="109.87,-37.66 119.05,-32.36 108.57,-30.78 109.87,-37.66"/>
</a>
</g>
</g>
<!-- Node3 -->
<g id="Node000003" class="node">
<title>Node3</title>
<g id="a_Node000003"><a xlink:href="$class_paragon_i_e___sodium___core32___b_l_a_k_e2b.html#a5d061a8eca971a2c9cc6bf2398296c00" xlink:title=" ">
<polygon fill="white" stroke="#666666" points="85,-19.25 0,-19.25 0,0 85,0 85,-19.25"/>
<text text-anchor="middle" x="42.5" y="-5.75" font-family="Helvetica,sans-Serif" font-size="10.00">stringToContext</text>
</a>
</g>
</g>
<!-- Node1&#45;&gt;Node3 -->
<g id="edge6_Node000001_Node000003" class="edge">
<title>Node1&#45;&gt;Node3</title>
<g id="a_edge6_Node000001_Node000003"><a xlink:title=" ">
<path fill="none" stroke="#63b8ff" d="M109.37,-21.41C101.67,-20.03 93.43,-18.56 85.47,-17.13"/>
<polygon fill="#63b8ff" stroke="#63b8ff" points="108.58,-24.82 119.04,-23.14 109.82,-17.93 108.58,-24.82"/>
</a>
</g>
</g>
</g>
</svg>
