<?xml version="1.0" encoding="UTF-8" standalone="no"?>
<!DOCTYPE svg PUBLIC "-//W3C//DTD SVG 1.1//EN"
 "http://www.w3.org/Graphics/SVG/1.1/DTD/svg11.dtd">
<!-- Generated by graphviz version 10.0.1 (20240210.2158)
 -->
<!-- Title: LineFormatter Pages: 1 -->
<svg width="239pt" height="994pt"
 viewBox="0.00 0.00 239.00 994.00" xmlns="http://www.w3.org/2000/svg" xmlns:xlink="http://www.w3.org/1999/xlink">
<g id="graph0" class="graph" transform="scale(1 1) rotate(0) translate(4 990)">
<title>LineFormatter</title>
<!-- Node1 -->
<g id="Node000001" class="node">
<title>Node1</title>
<g id="a_Node000001"><a xlink:title=" ">
<polygon fill="#999999" stroke="none" points="231,-403 0,-403 0,0 231,0 231,-403"/>
<text text-anchor="start" x="85.5" y="-389.5" font-family="Helvetica,sans-Serif" font-size="10.00">LineFormatter</text>
<text text-anchor="start" x="4" y="-374.5" font-family="Helvetica,sans-Serif" font-size="10.00">+</text>
<text text-anchor="start" x="14" y="-374.5" font-family="Helvetica,sans-Serif" font-size="10.00">const SIMPLE_FORMAT</text>
<text text-anchor="start" x="4.38" y="-359.5" font-family="Helvetica,sans-Serif" font-size="10.00">#</text>
<text text-anchor="start" x="14" y="-359.5" font-family="Helvetica,sans-Serif" font-size="10.00">$format</text>
<text text-anchor="start" x="4.38" y="-344.5" font-family="Helvetica,sans-Serif" font-size="10.00">#</text>
<text text-anchor="start" x="14" y="-344.5" font-family="Helvetica,sans-Serif" font-size="10.00">$allowInlineLineBreaks</text>
<text text-anchor="start" x="4.38" y="-329.5" font-family="Helvetica,sans-Serif" font-size="10.00">#</text>
<text text-anchor="start" x="14" y="-329.5" font-family="Helvetica,sans-Serif" font-size="10.00">$ignoreEmptyContextAndExtra</text>
<text text-anchor="start" x="4.38" y="-314.5" font-family="Helvetica,sans-Serif" font-size="10.00">#</text>
<text text-anchor="start" x="14" y="-314.5" font-family="Helvetica,sans-Serif" font-size="10.00">$includeStacktraces</text>
<text text-anchor="start" x="4.38" y="-299.5" font-family="Helvetica,sans-Serif" font-size="10.00">#</text>
<text text-anchor="start" x="14" y="-299.5" font-family="Helvetica,sans-Serif" font-size="10.00">$stacktracesParser</text>
<text text-anchor="start" x="4" y="-284.5" font-family="Helvetica,sans-Serif" font-size="10.00">+</text>
<text text-anchor="start" x="14" y="-284.5" font-family="Helvetica,sans-Serif" font-size="10.00">__construct(?string</text>
<text text-anchor="start" x="14" y="-273.25" font-family="Helvetica,sans-Serif" font-size="10.00"> $format=null, ?string</text>
<text text-anchor="start" x="14" y="-262" font-family="Helvetica,sans-Serif" font-size="10.00"> $dateFormat=null, bool</text>
<text text-anchor="start" x="14" y="-250.75" font-family="Helvetica,sans-Serif" font-size="10.00"> $allowInlineLineBreaks</text>
<text text-anchor="start" x="14" y="-239.5" font-family="Helvetica,sans-Serif" font-size="10.00">=false, bool $ignoreEmptyContext</text>
<text text-anchor="start" x="14" y="-228.25" font-family="Helvetica,sans-Serif" font-size="10.00">AndExtra=false, bool $includeStacktraces=false)</text>
<text text-anchor="start" x="4" y="-213.5" font-family="Helvetica,sans-Serif" font-size="10.00">+</text>
<text text-anchor="start" x="14" y="-213.5" font-family="Helvetica,sans-Serif" font-size="10.00">includeStacktraces</text>
<text text-anchor="start" x="14" y="-202.25" font-family="Helvetica,sans-Serif" font-size="10.00">(bool $include=true,</text>
<text text-anchor="start" x="14" y="-191" font-family="Helvetica,sans-Serif" font-size="10.00"> ?callable $parser=null)</text>
<text text-anchor="start" x="4" y="-176.5" font-family="Helvetica,sans-Serif" font-size="10.00">+</text>
<text text-anchor="start" x="14" y="-176.5" font-family="Helvetica,sans-Serif" font-size="10.00">allowInlineLineBreaks</text>
<text text-anchor="start" x="14" y="-165.25" font-family="Helvetica,sans-Serif" font-size="10.00">(bool $allow=true)</text>
<text text-anchor="start" x="4" y="-150.5" font-family="Helvetica,sans-Serif" font-size="10.00">+</text>
<text text-anchor="start" x="14" y="-150.5" font-family="Helvetica,sans-Serif" font-size="10.00">ignoreEmptyContextAndExtra</text>
<text text-anchor="start" x="14" y="-139.25" font-family="Helvetica,sans-Serif" font-size="10.00">(bool $ignore=true)</text>
<text text-anchor="start" x="4" y="-124.5" font-family="Helvetica,sans-Serif" font-size="10.00">+</text>
<text text-anchor="start" x="14" y="-124.5" font-family="Helvetica,sans-Serif" font-size="10.00">format(array $record)</text>
<text text-anchor="start" x="4" y="-109.5" font-family="Helvetica,sans-Serif" font-size="10.00">+</text>
<text text-anchor="start" x="14" y="-109.5" font-family="Helvetica,sans-Serif" font-size="10.00">formatBatch(array</text>
<text text-anchor="start" x="14" y="-98.25" font-family="Helvetica,sans-Serif" font-size="10.00"> $records)</text>
<text text-anchor="start" x="4" y="-83.5" font-family="Helvetica,sans-Serif" font-size="10.00">+</text>
<text text-anchor="start" x="14" y="-83.5" font-family="Helvetica,sans-Serif" font-size="10.00">stringify($value)</text>
<text text-anchor="start" x="4.38" y="-68.5" font-family="Helvetica,sans-Serif" font-size="10.00">#</text>
<text text-anchor="start" x="14" y="-68.5" font-family="Helvetica,sans-Serif" font-size="10.00">normalizeException</text>
<text text-anchor="start" x="14" y="-57.25" font-family="Helvetica,sans-Serif" font-size="10.00">(\Throwable $e, int</text>
<text text-anchor="start" x="14" y="-46" font-family="Helvetica,sans-Serif" font-size="10.00"> $depth=0)</text>
<text text-anchor="start" x="4.38" y="-31.5" font-family="Helvetica,sans-Serif" font-size="10.00">#</text>
<text text-anchor="start" x="14" y="-31.5" font-family="Helvetica,sans-Serif" font-size="10.00">convertToString($data)</text>
<text text-anchor="start" x="4.38" y="-16.5" font-family="Helvetica,sans-Serif" font-size="10.00">#</text>
<text text-anchor="start" x="14" y="-16.5" font-family="Helvetica,sans-Serif" font-size="10.00">replaceNewlines(string</text>
<text text-anchor="start" x="14" y="-5.25" font-family="Helvetica,sans-Serif" font-size="10.00"> $str)</text>
<polygon fill="#666666" stroke="#666666" points="0,-386 0,-386 231,-386 231,-386 0,-386"/>
<polygon fill="#666666" stroke="#666666" points="0,-296 0,-296 12,-296 12,-296 0,-296"/>
<polygon fill="#666666" stroke="#666666" points="12,-296 12,-296 231,-296 231,-296 12,-296"/>
<polygon fill="none" stroke="#666666" points="0,0 0,-403 231,-403 231,0 0,0"/>
</a>
</g>
</g>
<!-- Node2 -->
<g id="Node000002" class="node">
<title>Node2</title>
<g id="a_Node000002"><a xlink:href="$class_monolog_1_1_formatter_1_1_normalizer_formatter.html" xlink:title=" ">
<polygon fill="white" stroke="none" points="192,-875 39,-875 39,-439 192,-439 192,-875"/>
<text text-anchor="start" x="70.88" y="-861.5" font-family="Helvetica,sans-Serif" font-size="10.00">NormalizerFormatter</text>
<text text-anchor="start" x="43" y="-846.5" font-family="Helvetica,sans-Serif" font-size="10.00">+</text>
<text text-anchor="start" x="53" y="-846.5" font-family="Helvetica,sans-Serif" font-size="10.00">const SIMPLE_DATE</text>
<text text-anchor="start" x="43.38" y="-831.5" font-family="Helvetica,sans-Serif" font-size="10.00">#</text>
<text text-anchor="start" x="53" y="-831.5" font-family="Helvetica,sans-Serif" font-size="10.00">$dateFormat</text>
<text text-anchor="start" x="43.38" y="-816.5" font-family="Helvetica,sans-Serif" font-size="10.00">#</text>
<text text-anchor="start" x="53" y="-816.5" font-family="Helvetica,sans-Serif" font-size="10.00">$maxNormalizeDepth</text>
<text text-anchor="start" x="43.38" y="-801.5" font-family="Helvetica,sans-Serif" font-size="10.00">#</text>
<text text-anchor="start" x="53" y="-801.5" font-family="Helvetica,sans-Serif" font-size="10.00">$maxNormalizeItemCount</text>
<text text-anchor="start" x="43" y="-786.5" font-family="Helvetica,sans-Serif" font-size="10.00">+</text>
<text text-anchor="start" x="53" y="-786.5" font-family="Helvetica,sans-Serif" font-size="10.00">__construct(?string</text>
<text text-anchor="start" x="53" y="-775.25" font-family="Helvetica,sans-Serif" font-size="10.00"> $dateFormat=null)</text>
<text text-anchor="start" x="43" y="-760.5" font-family="Helvetica,sans-Serif" font-size="10.00">+</text>
<text text-anchor="start" x="53" y="-760.5" font-family="Helvetica,sans-Serif" font-size="10.00">format(array $record)</text>
<text text-anchor="start" x="43" y="-745.5" font-family="Helvetica,sans-Serif" font-size="10.00">+</text>
<text text-anchor="start" x="53" y="-745.5" font-family="Helvetica,sans-Serif" font-size="10.00">formatBatch(array</text>
<text text-anchor="start" x="53" y="-734.25" font-family="Helvetica,sans-Serif" font-size="10.00"> $records)</text>
<text text-anchor="start" x="43" y="-719.5" font-family="Helvetica,sans-Serif" font-size="10.00">+</text>
<text text-anchor="start" x="53" y="-719.5" font-family="Helvetica,sans-Serif" font-size="10.00">getDateFormat()</text>
<text text-anchor="start" x="43" y="-704.5" font-family="Helvetica,sans-Serif" font-size="10.00">+</text>
<text text-anchor="start" x="53" y="-704.5" font-family="Helvetica,sans-Serif" font-size="10.00">setDateFormat(string</text>
<text text-anchor="start" x="53" y="-693.25" font-family="Helvetica,sans-Serif" font-size="10.00"> $dateFormat)</text>
<text text-anchor="start" x="43" y="-678.5" font-family="Helvetica,sans-Serif" font-size="10.00">+</text>
<text text-anchor="start" x="53" y="-678.5" font-family="Helvetica,sans-Serif" font-size="10.00">getMaxNormalizeDepth()</text>
<text text-anchor="start" x="43" y="-663.5" font-family="Helvetica,sans-Serif" font-size="10.00">+</text>
<text text-anchor="start" x="53" y="-663.5" font-family="Helvetica,sans-Serif" font-size="10.00">setMaxNormalizeDepth</text>
<text text-anchor="start" x="53" y="-652.25" font-family="Helvetica,sans-Serif" font-size="10.00">(int $maxNormalizeDepth)</text>
<text text-anchor="start" x="43" y="-637.5" font-family="Helvetica,sans-Serif" font-size="10.00">+</text>
<text text-anchor="start" x="53" y="-637.5" font-family="Helvetica,sans-Serif" font-size="10.00">getMaxNormalizeItemCount()</text>
<text text-anchor="start" x="43" y="-622.5" font-family="Helvetica,sans-Serif" font-size="10.00">+</text>
<text text-anchor="start" x="53" y="-622.5" font-family="Helvetica,sans-Serif" font-size="10.00">setMaxNormalizeItemCount</text>
<text text-anchor="start" x="53" y="-611.25" font-family="Helvetica,sans-Serif" font-size="10.00">(int $maxNormalizeItemCount)</text>
<text text-anchor="start" x="43" y="-596.5" font-family="Helvetica,sans-Serif" font-size="10.00">+</text>
<text text-anchor="start" x="53" y="-596.5" font-family="Helvetica,sans-Serif" font-size="10.00">setJsonPrettyPrint</text>
<text text-anchor="start" x="53" y="-585.25" font-family="Helvetica,sans-Serif" font-size="10.00">(bool $enable)</text>
<text text-anchor="start" x="43" y="-570.5" font-family="Helvetica,sans-Serif" font-size="10.00">+</text>
<text text-anchor="start" x="53" y="-570.5" font-family="Helvetica,sans-Serif" font-size="10.00">addJsonEncodeOption</text>
<text text-anchor="start" x="53" y="-559.25" font-family="Helvetica,sans-Serif" font-size="10.00">(int $option)</text>
<text text-anchor="start" x="43" y="-544.5" font-family="Helvetica,sans-Serif" font-size="10.00">+</text>
<text text-anchor="start" x="53" y="-544.5" font-family="Helvetica,sans-Serif" font-size="10.00">removeJsonEncodeOption</text>
<text text-anchor="start" x="53" y="-533.25" font-family="Helvetica,sans-Serif" font-size="10.00">(int $option)</text>
<text text-anchor="start" x="43.38" y="-518.5" font-family="Helvetica,sans-Serif" font-size="10.00">#</text>
<text text-anchor="start" x="53" y="-518.5" font-family="Helvetica,sans-Serif" font-size="10.00">normalizeException</text>
<text text-anchor="start" x="53" y="-507.25" font-family="Helvetica,sans-Serif" font-size="10.00">(Throwable $e, int </text>
<text text-anchor="start" x="53" y="-496" font-family="Helvetica,sans-Serif" font-size="10.00">$depth=0)</text>
<text text-anchor="start" x="43.38" y="-481.5" font-family="Helvetica,sans-Serif" font-size="10.00">#</text>
<text text-anchor="start" x="53" y="-481.5" font-family="Helvetica,sans-Serif" font-size="10.00">toJson($data, bool</text>
<text text-anchor="start" x="53" y="-470.25" font-family="Helvetica,sans-Serif" font-size="10.00"> $ignoreErrors=false)</text>
<text text-anchor="start" x="43.38" y="-455.5" font-family="Helvetica,sans-Serif" font-size="10.00">#</text>
<text text-anchor="start" x="53" y="-455.5" font-family="Helvetica,sans-Serif" font-size="10.00">formatDate(\DateTimeInterface</text>
<text text-anchor="start" x="53" y="-444.25" font-family="Helvetica,sans-Serif" font-size="10.00"> $date)</text>
<polygon fill="#666666" stroke="#666666" points="39,-858 39,-858 192,-858 192,-858 39,-858"/>
<polygon fill="#666666" stroke="#666666" points="39,-798 39,-798 51,-798 51,-798 39,-798"/>
<polygon fill="#666666" stroke="#666666" points="51,-798 51,-798 192,-798 192,-798 51,-798"/>
<polygon fill="none" stroke="#666666" points="39,-439 39,-875 192,-875 192,-439 39,-439"/>
</a>
</g>
</g>
<!-- Node2&#45;&gt;Node1 -->
<g id="edge5_Node000001_Node000002" class="edge">
<title>Node2&#45;&gt;Node1</title>
<g id="a_edge5_Node000001_Node000002"><a xlink:title=" ">
<path fill="none" stroke="#63b8ff" d="M115.5,-427.78C115.5,-419.4 115.5,-411.02 115.5,-402.69"/>
<polygon fill="none" stroke="#63b8ff" points="112,-427.7 115.5,-437.7 119,-427.7 112,-427.7"/>
</a>
</g>
</g>
<!-- Node3 -->
<g id="Node000003" class="node">
<title>Node3</title>
<g id="a_Node000003"><a xlink:href="$interface_monolog_1_1_formatter_1_1_formatter_interface.html" xlink:title=" ">
<polygon fill="white" stroke="none" points="169.5,-986 61.5,-986 61.5,-911 169.5,-911 169.5,-986"/>
<text text-anchor="start" x="75.38" y="-972.5" font-family="Helvetica,sans-Serif" font-size="10.00">FormatterInterface</text>
<text text-anchor="start" x="114" y="-957.5" font-family="Helvetica,sans-Serif" font-size="10.00"> </text>
<text text-anchor="start" x="65.5" y="-942.5" font-family="Helvetica,sans-Serif" font-size="10.00">+</text>
<text text-anchor="start" x="75.5" y="-942.5" font-family="Helvetica,sans-Serif" font-size="10.00">format(array $record)</text>
<text text-anchor="start" x="65.5" y="-927.5" font-family="Helvetica,sans-Serif" font-size="10.00">+</text>
<text text-anchor="start" x="75.5" y="-927.5" font-family="Helvetica,sans-Serif" font-size="10.00">formatBatch(array</text>
<text text-anchor="start" x="75.5" y="-916.25" font-family="Helvetica,sans-Serif" font-size="10.00"> $records)</text>
<polygon fill="#666666" stroke="#666666" points="61.5,-969 61.5,-969 169.5,-969 169.5,-969 61.5,-969"/>
<polygon fill="#666666" stroke="#666666" points="61.5,-954 61.5,-954 169.5,-954 169.5,-954 61.5,-954"/>
<polygon fill="none" stroke="#666666" points="61.5,-911 61.5,-986 169.5,-986 169.5,-911 61.5,-911"/>
</a>
</g>
</g>
<!-- Node3&#45;&gt;Node2 -->
<g id="edge6_Node000002_Node000003" class="edge">
<title>Node3&#45;&gt;Node2</title>
<g id="a_edge6_Node000002_Node000003"><a xlink:title=" ">
<path fill="none" stroke="#63b8ff" d="M115.5,-899.63C115.5,-891.95 115.5,-883.59 115.5,-874.75"/>
<polygon fill="none" stroke="#63b8ff" points="112,-899.61 115.5,-909.61 119,-899.61 112,-899.61"/>
</a>
</g>
</g>
</g>
</svg>
