<?xml version="1.0" encoding="UTF-8" standalone="no"?>
<!DOCTYPE svg PUBLIC "-//W3C//DTD SVG 1.1//EN"
 "http://www.w3.org/Graphics/SVG/1.1/DTD/svg11.dtd">
<!-- Generated by graphviz version 10.0.1 (20240210.2158)
 -->
<!-- Title: OpPathValue Pages: 1 -->
<svg width="105pt" height="276pt"
 viewBox="0.00 0.00 105.00 276.25" xmlns="http://www.w3.org/2000/svg" xmlns:xlink="http://www.w3.org/1999/xlink">
<g id="graph0" class="graph" transform="scale(1 1) rotate(0) translate(4 272.25)">
<title>OpPathValue</title>
<!-- Node1 -->
<g id="Node000001" class="node">
<title>Node1</title>
<g id="a_Node000001"><a xlink:title=" ">
<polygon fill="#999999" stroke="none" points="97,-60 0,-60 0,0 97,0 97,-60"/>
<text text-anchor="start" x="20" y="-46.5" font-family="Helvetica,sans-Serif" font-size="10.00">OpPathValue</text>
<text text-anchor="start" x="4" y="-31.5" font-family="Helvetica,sans-Serif" font-size="10.00">+</text>
<text text-anchor="start" x="14" y="-31.5" font-family="Helvetica,sans-Serif" font-size="10.00">$value</text>
<text text-anchor="start" x="4" y="-16.5" font-family="Helvetica,sans-Serif" font-size="10.00">+</text>
<text text-anchor="start" x="14" y="-16.5" font-family="Helvetica,sans-Serif" font-size="10.00">__construct($path</text>
<text text-anchor="start" x="14" y="-5.25" font-family="Helvetica,sans-Serif" font-size="10.00">=null, $value=null)</text>
<polygon fill="#666666" stroke="#666666" points="0,-43 0,-43 97,-43 97,-43 0,-43"/>
<polygon fill="#666666" stroke="#666666" points="0,-28 0,-28 12,-28 12,-28 0,-28"/>
<polygon fill="#666666" stroke="#666666" points="12,-28 12,-28 97,-28 97,-28 12,-28"/>
<polygon fill="none" stroke="#666666" points="0,0 0,-60 97,-60 97,0 0,0"/>
</a>
</g>
</g>
<!-- Node2 -->
<g id="Node000002" class="node">
<title>Node2</title>
<g id="a_Node000002"><a xlink:href="$class_swaggest_1_1_json_diff_1_1_json_patch_1_1_op_path.html" xlink:title=" ">
<polygon fill="white" stroke="none" points="96.5,-172 0.5,-172 0.5,-97 96.5,-97 96.5,-172"/>
<text text-anchor="start" x="32" y="-158.5" font-family="Helvetica,sans-Serif" font-size="10.00">OpPath</text>
<text text-anchor="start" x="4.5" y="-143.5" font-family="Helvetica,sans-Serif" font-size="10.00">+</text>
<text text-anchor="start" x="14.5" y="-143.5" font-family="Helvetica,sans-Serif" font-size="10.00">$op</text>
<text text-anchor="start" x="4.5" y="-128.5" font-family="Helvetica,sans-Serif" font-size="10.00">+</text>
<text text-anchor="start" x="14.5" y="-128.5" font-family="Helvetica,sans-Serif" font-size="10.00">$path</text>
<text text-anchor="start" x="4.5" y="-113.5" font-family="Helvetica,sans-Serif" font-size="10.00">+</text>
<text text-anchor="start" x="14.5" y="-113.5" font-family="Helvetica,sans-Serif" font-size="10.00">__construct($path</text>
<text text-anchor="start" x="14.5" y="-102.25" font-family="Helvetica,sans-Serif" font-size="10.00">=null)</text>
<polygon fill="#666666" stroke="#666666" points="0.5,-155 0.5,-155 96.5,-155 96.5,-155 0.5,-155"/>
<polygon fill="#666666" stroke="#666666" points="0.5,-125 0.5,-125 12.5,-125 12.5,-125 0.5,-125"/>
<polygon fill="#666666" stroke="#666666" points="12.5,-125 12.5,-125 96.5,-125 96.5,-125 12.5,-125"/>
<polygon fill="none" stroke="#666666" points="0.5,-97 0.5,-172 96.5,-172 96.5,-97 0.5,-97"/>
</a>
</g>
</g>
<!-- Node2&#45;&gt;Node1 -->
<g id="edge5_Node000001_Node000002" class="edge">
<title>Node2&#45;&gt;Node1</title>
<g id="a_edge5_Node000001_Node000002"><a xlink:title=" ">
<path fill="none" stroke="#63b8ff" d="M48.5,-85.67C48.5,-76.87 48.5,-67.93 48.5,-59.91"/>
<polygon fill="none" stroke="#63b8ff" points="45,-85.56 48.5,-95.56 52,-85.56 45,-85.56"/>
</a>
</g>
</g>
<!-- Node3 -->
<g id="Node000003" class="node">
<title>Node3</title>
<g id="a_Node000003"><a xlink:title=" ">
<polygon fill="white" stroke="none" points="65.5,-268.25 31.5,-268.25 31.5,-219.25 65.5,-219.25 65.5,-268.25"/>
<text text-anchor="start" x="36.5" y="-254.75" font-family="Helvetica,sans-Serif" font-size="10.00">const</text>
<text text-anchor="start" x="47" y="-239.75" font-family="Helvetica,sans-Serif" font-size="10.00"> </text>
<text text-anchor="start" x="47" y="-224.75" font-family="Helvetica,sans-Serif" font-size="10.00"> </text>
<polygon fill="#666666" stroke="#666666" points="31.5,-251.25 31.5,-251.25 65.5,-251.25 65.5,-251.25 31.5,-251.25"/>
<polygon fill="#666666" stroke="#666666" points="31.5,-236.25 31.5,-236.25 65.5,-236.25 65.5,-236.25 31.5,-236.25"/>
<polygon fill="none" stroke="#666666" points="31.5,-219.25 31.5,-268.25 65.5,-268.25 65.5,-219.25 31.5,-219.25"/>
</a>
</g>
</g>
<!-- Node3&#45;&gt;Node2 -->
<g id="edge6_Node000002_Node000003" class="edge">
<title>Node3&#45;&gt;Node2</title>
<g id="a_edge6_Node000002_Node000003"><a xlink:title=" ">
<path fill="none" stroke="#63b8ff" d="M48.5,-219.48C48.5,-209.25 48.5,-196.83 48.5,-184.72"/>
<polygon fill="none" stroke="#63b8ff" points="48.5,-184.7 44.5,-178.7 48.5,-172.7 52.5,-178.7 48.5,-184.7"/>
</a>
</g>
<text text-anchor="middle" x="60.12" y="-191.75" font-family="Helvetica,sans-Serif" font-size="10.00" fill="grey"> +OP</text>
</g>
</g>
</svg>
