<?xml version="1.0" encoding="UTF-8" standalone="no"?>
<!DOCTYPE svg PUBLIC "-//W3C//DTD SVG 1.1//EN"
 "http://www.w3.org/Graphics/SVG/1.1/DTD/svg11.dtd">
<!-- Generated by graphviz version 10.0.1 (20240210.2158)
 -->
<!-- Title: compile Pages: 1 -->
<svg width="229pt" height="101pt"
 viewBox="0.00 0.00 229.00 101.25" xmlns="http://www.w3.org/2000/svg" xmlns:xlink="http://www.w3.org/1999/xlink">
<g id="graph0" class="graph" transform="scale(1 1) rotate(0) translate(4 97.25)">
<title>compile</title>
<!-- Node1 -->
<g id="Node000001" class="node">
<title>Node1</title>
<g id="a_Node000001"><a xlink:title=" ">
<polygon fill="#999999" stroke="#666666" points="49.75,-56.25 0,-56.25 0,-37 49.75,-37 49.75,-56.25"/>
<text text-anchor="middle" x="24.88" y="-42.75" font-family="Helvetica,sans-Serif" font-size="10.00">compile</text>
</a>
</g>
</g>
<!-- Node2 -->
<g id="Node000002" class="node">
<title>Node2</title>
<g id="a_Node000002"><a xlink:href="$class_twig_1_1_node_1_1_node.html#a76f53ae42dd14ec98eabc351b45273b3" xlink:title=" ">
<polygon fill="white" stroke="#666666" points="217.62,-93.25 89.12,-93.25 89.12,-74 217.62,-74 217.62,-93.25"/>
<text text-anchor="middle" x="153.38" y="-79.75" font-family="Helvetica,sans-Serif" font-size="10.00">Twig\Node\Node\getNode</text>
</a>
</g>
</g>
<!-- Node1&#45;&gt;Node2 -->
<g id="edge7_Node000001_Node000002" class="edge">
<title>Node1&#45;&gt;Node2</title>
<g id="a_edge7_Node000001_Node000002"><a xlink:title=" ">
<path fill="none" stroke="#63b8ff" d="M49.98,-54.54C60.87,-58.04 73.93,-62.15 85.75,-65.62 91.28,-67.25 97.09,-68.9 102.88,-70.51"/>
<polygon fill="#63b8ff" stroke="#63b8ff" points="101.86,-73.86 112.43,-73.13 103.72,-67.11 101.86,-73.86"/>
</a>
</g>
</g>
<!-- Node3 -->
<g id="Node000003" class="node">
<title>Node3</title>
<g id="a_Node000003"><a xlink:href="$class_twig_1_1_compiler.html#a01f345a64ec10225d4205181cf82c811" xlink:title=" ">
<polygon fill="white" stroke="#666666" points="221,-56.25 85.75,-56.25 85.75,-37 221,-37 221,-56.25"/>
<text text-anchor="middle" x="153.38" y="-42.75" font-family="Helvetica,sans-Serif" font-size="10.00">Twig\Compiler\getVarName</text>
</a>
</g>
</g>
<!-- Node1&#45;&gt;Node3 -->
<g id="edge8_Node000001_Node000003" class="edge">
<title>Node1&#45;&gt;Node3</title>
<g id="a_edge8_Node000001_Node000003"><a xlink:title=" ">
<path fill="none" stroke="#63b8ff" d="M49.97,-46.62C57.09,-46.62 65.32,-46.62 73.94,-46.62"/>
<polygon fill="#63b8ff" stroke="#63b8ff" points="73.93,-50.13 83.93,-46.63 73.93,-43.13 73.93,-50.13"/>
</a>
</g>
</g>
<!-- Node4 -->
<g id="Node000004" class="node">
<title>Node4</title>
<g id="a_Node000004"><a xlink:href="$class_twig_1_1_compiler.html#a1f006c202b671ff562d729a486cbaaff" xlink:title=" ">
<polygon fill="white" stroke="#666666" points="201.88,-19.25 104.88,-19.25 104.88,0 201.88,0 201.88,-19.25"/>
<text text-anchor="middle" x="153.38" y="-5.75" font-family="Helvetica,sans-Serif" font-size="10.00">Twig\Compiler\raw</text>
</a>
</g>
</g>
<!-- Node1&#45;&gt;Node4 -->
<g id="edge9_Node000001_Node000004" class="edge">
<title>Node1&#45;&gt;Node4</title>
<g id="a_edge9_Node000001_Node000004"><a xlink:title=" ">
<path fill="none" stroke="#63b8ff" d="M49.98,-38.71C60.87,-35.21 73.93,-31.1 85.75,-27.62 91.28,-26 97.09,-24.35 102.88,-22.74"/>
<polygon fill="#63b8ff" stroke="#63b8ff" points="103.72,-26.14 112.43,-20.12 101.86,-19.39 103.72,-26.14"/>
</a>
</g>
</g>
</g>
</svg>
