<?xml version="1.0" encoding="UTF-8" standalone="no"?>
<!DOCTYPE svg PUBLIC "-//W3C//DTD SVG 1.1//EN"
 "http://www.w3.org/Graphics/SVG/1.1/DTD/svg11.dtd">
<!-- Generated by graphviz version 10.0.1 (20240210.2158)
 -->
<!-- Title: divQR Pages: 1 -->
<svg width="254pt" height="64pt"
 viewBox="0.00 0.00 254.00 64.25" xmlns="http://www.w3.org/2000/svg" xmlns:xlink="http://www.w3.org/1999/xlink">
<g id="graph0" class="graph" transform="scale(1 1) rotate(0) translate(4 60.25)">
<title>divQR</title>
<!-- Node1 -->
<g id="Node000001" class="node">
<title>Node1</title>
<g id="a_Node000001"><a xlink:title=" ">
<polygon fill="#999999" stroke="#666666" points="246,-37.25 202.25,-37.25 202.25,-18 246,-18 246,-37.25"/>
<text text-anchor="middle" x="224.12" y="-23.75" font-family="Helvetica,sans-Serif" font-size="10.00">divQR</text>
</a>
</g>
</g>
<!-- Node2 -->
<g id="Node000002" class="node">
<title>Node2</title>
<g id="a_Node000002"><a xlink:href="$class_brick_1_1_math_1_1_internal_1_1_calculator.html#a8d4fb232238ee2a2e5bc7e0a081783a6" xlink:title=" ">
<polygon fill="white" stroke="#666666" points="153.12,-56.25 95.88,-56.25 95.88,-37 153.12,-37 153.12,-56.25"/>
<text text-anchor="middle" x="124.5" y="-42.75" font-family="Helvetica,sans-Serif" font-size="10.00">divRound</text>
</a>
</g>
</g>
<!-- Node1&#45;&gt;Node2 -->
<g id="edge7_Node000001_Node000002" class="edge">
<title>Node1&#45;&gt;Node2</title>
<g id="a_edge7_Node000001_Node000002"><a xlink:title=" ">
<path fill="none" stroke="#63b8ff" d="M190.88,-33.9C178.73,-36.26 165.03,-38.93 153.32,-41.21"/>
<polygon fill="#63b8ff" stroke="#63b8ff" points="191.31,-37.38 200.46,-32.04 189.97,-30.51 191.31,-37.38"/>
</a>
</g>
</g>
<!-- Node3 -->
<g id="Node000003" class="node">
<title>Node3</title>
<g id="a_Node000003"><a xlink:href="$class_brick_1_1_math_1_1_internal_1_1_calculator.html#ae103c2c8972a5661520f6f2077c06361" xlink:title=" ">
<polygon fill="white" stroke="#666666" points="166.25,-19.25 82.75,-19.25 82.75,0 166.25,0 166.25,-19.25"/>
<text text-anchor="middle" x="124.5" y="-5.75" font-family="Helvetica,sans-Serif" font-size="10.00">toArbitraryBase</text>
</a>
</g>
</g>
<!-- Node1&#45;&gt;Node3 -->
<g id="edge8_Node000001_Node000003" class="edge">
<title>Node1&#45;&gt;Node3</title>
<g id="a_edge8_Node000001_Node000003"><a xlink:title=" ">
<path fill="none" stroke="#63b8ff" d="M190.83,-21.67C183.11,-20.25 174.77,-18.71 166.72,-17.22"/>
<polygon fill="#63b8ff" stroke="#63b8ff" points="189.98,-25.07 200.45,-23.44 191.25,-18.19 189.98,-25.07"/>
</a>
</g>
</g>
<!-- Node4 -->
<g id="Node000004" class="node">
<title>Node4</title>
<g id="a_Node000004"><a xlink:href="$class_brick_1_1_math_1_1_internal_1_1_calculator.html#a80825cbce2eab7a6546ab3d519f60349" xlink:title=" ">
<polygon fill="white" stroke="#666666" points="46.75,-19.25 0,-19.25 0,0 46.75,0 46.75,-19.25"/>
<text text-anchor="middle" x="23.38" y="-5.75" font-family="Helvetica,sans-Serif" font-size="10.00">toBase</text>
</a>
</g>
</g>
<!-- Node3&#45;&gt;Node4 -->
<g id="edge9_Node000003_Node000004" class="edge">
<title>Node3&#45;&gt;Node4</title>
<g id="a_edge9_Node000003_Node000004"><a xlink:title=" ">
<path fill="none" stroke="#63b8ff" d="M70.94,-9.62C62.59,-9.62 54.34,-9.62 47.17,-9.62"/>
<polygon fill="#63b8ff" stroke="#63b8ff" points="70.81,-13.13 80.81,-9.63 70.81,-6.13 70.81,-13.13"/>
</a>
</g>
</g>
</g>
</svg>
