<?xml version="1.0" encoding="UTF-8" standalone="no"?>
<!DOCTYPE svg PUBLIC "-//W3C//DTD SVG 1.1//EN"
 "http://www.w3.org/Graphics/SVG/1.1/DTD/svg11.dtd">
<!-- Generated by graphviz version 10.0.1 (20240210.2158)
 -->
<!-- Title: Maildir Pages: 1 -->
<svg width="390pt" height="938pt"
 viewBox="0.00 0.00 390.00 938.25" xmlns="http://www.w3.org/2000/svg" xmlns:xlink="http://www.w3.org/1999/xlink">
<g id="graph0" class="graph" transform="scale(1 1) rotate(0) translate(4 934.25)">
<title>Maildir</title>
<!-- Node1 -->
<g id="Node000001" class="node">
<title>Node1</title>
<g id="a_Node000001"><a xlink:title=" ">
<polygon fill="#999999" stroke="none" points="304,-165 170,-165 170,0 304,0 304,-165"/>
<text text-anchor="start" x="222.75" y="-151.5" font-family="Helvetica,sans-Serif" font-size="10.00">Maildir</text>
<text text-anchor="start" x="174.38" y="-136.5" font-family="Helvetica,sans-Serif" font-size="10.00">#</text>
<text text-anchor="start" x="184" y="-136.5" font-family="Helvetica,sans-Serif" font-size="10.00">$rootFolder</text>
<text text-anchor="start" x="174.38" y="-121.5" font-family="Helvetica,sans-Serif" font-size="10.00">#</text>
<text text-anchor="start" x="184" y="-121.5" font-family="Helvetica,sans-Serif" font-size="10.00">$rootdir</text>
<text text-anchor="start" x="174.38" y="-106.5" font-family="Helvetica,sans-Serif" font-size="10.00">#</text>
<text text-anchor="start" x="184" y="-106.5" font-family="Helvetica,sans-Serif" font-size="10.00">$currentFolder</text>
<text text-anchor="start" x="174.38" y="-91.5" font-family="Helvetica,sans-Serif" font-size="10.00">#</text>
<text text-anchor="start" x="184" y="-91.5" font-family="Helvetica,sans-Serif" font-size="10.00">$delim</text>
<text text-anchor="start" x="174" y="-76.5" font-family="Helvetica,sans-Serif" font-size="10.00">+</text>
<text text-anchor="start" x="184" y="-76.5" font-family="Helvetica,sans-Serif" font-size="10.00">__construct($params)</text>
<text text-anchor="start" x="174" y="-61.5" font-family="Helvetica,sans-Serif" font-size="10.00">+</text>
<text text-anchor="start" x="184" y="-61.5" font-family="Helvetica,sans-Serif" font-size="10.00">getFolders($rootFolder</text>
<text text-anchor="start" x="184" y="-50.25" font-family="Helvetica,sans-Serif" font-size="10.00">=null)</text>
<text text-anchor="start" x="174" y="-35.5" font-family="Helvetica,sans-Serif" font-size="10.00">+</text>
<text text-anchor="start" x="184" y="-35.5" font-family="Helvetica,sans-Serif" font-size="10.00">selectFolder($globalName)</text>
<text text-anchor="start" x="174" y="-20.5" font-family="Helvetica,sans-Serif" font-size="10.00">+</text>
<text text-anchor="start" x="184" y="-20.5" font-family="Helvetica,sans-Serif" font-size="10.00">getCurrentFolder()</text>
<text text-anchor="start" x="174.38" y="-5.5" font-family="Helvetica,sans-Serif" font-size="10.00">#</text>
<text text-anchor="start" x="184" y="-5.5" font-family="Helvetica,sans-Serif" font-size="10.00">buildFolderTree()</text>
<polygon fill="#666666" stroke="#666666" points="170,-148 170,-148 304,-148 304,-148 170,-148"/>
<polygon fill="#666666" stroke="#666666" points="170,-88 170,-88 182,-88 182,-88 170,-88"/>
<polygon fill="#666666" stroke="#666666" points="182,-88 182,-88 304,-88 304,-88 182,-88"/>
<polygon fill="none" stroke="#666666" points="170,0 170,-165 304,-165 304,0 170,0"/>
</a>
</g>
</g>
<!-- Node2 -->
<g id="Node000002" class="node">
<title>Node2</title>
<g id="a_Node000002"><a xlink:href="$class_laminas_1_1_mail_1_1_storage_1_1_maildir.html" xlink:title=" ">
<polygon fill="white" stroke="none" points="230,-531 90,-531 90,-202 230,-202 230,-531"/>
<text text-anchor="start" x="145.75" y="-517.5" font-family="Helvetica,sans-Serif" font-size="10.00">Maildir</text>
<text text-anchor="start" x="94.38" y="-502.5" font-family="Helvetica,sans-Serif" font-size="10.00">#</text>
<text text-anchor="start" x="104" y="-502.5" font-family="Helvetica,sans-Serif" font-size="10.00">$messageClass</text>
<text text-anchor="start" x="94.38" y="-487.5" font-family="Helvetica,sans-Serif" font-size="10.00">#</text>
<text text-anchor="start" x="104" y="-487.5" font-family="Helvetica,sans-Serif" font-size="10.00">$files</text>
<text text-anchor="start" x="94" y="-472.5" font-family="Helvetica,sans-Serif" font-size="10.00">+</text>
<text text-anchor="start" x="104" y="-472.5" font-family="Helvetica,sans-Serif" font-size="10.00">countMessages($flags</text>
<text text-anchor="start" x="104" y="-461.25" font-family="Helvetica,sans-Serif" font-size="10.00">=null)</text>
<text text-anchor="start" x="94" y="-446.5" font-family="Helvetica,sans-Serif" font-size="10.00">+</text>
<text text-anchor="start" x="104" y="-446.5" font-family="Helvetica,sans-Serif" font-size="10.00">getSize($id=null)</text>
<text text-anchor="start" x="94" y="-431.5" font-family="Helvetica,sans-Serif" font-size="10.00">+</text>
<text text-anchor="start" x="104" y="-431.5" font-family="Helvetica,sans-Serif" font-size="10.00">getMessage($id)</text>
<text text-anchor="start" x="94" y="-416.5" font-family="Helvetica,sans-Serif" font-size="10.00">+</text>
<text text-anchor="start" x="104" y="-416.5" font-family="Helvetica,sans-Serif" font-size="10.00">getRawHeader($id,</text>
<text text-anchor="start" x="104" y="-405.25" font-family="Helvetica,sans-Serif" font-size="10.00"> $part=null, $topLines=0)</text>
<text text-anchor="start" x="94" y="-390.5" font-family="Helvetica,sans-Serif" font-size="10.00">+</text>
<text text-anchor="start" x="104" y="-390.5" font-family="Helvetica,sans-Serif" font-size="10.00">getRawContent($id,</text>
<text text-anchor="start" x="104" y="-379.25" font-family="Helvetica,sans-Serif" font-size="10.00"> $part=null)</text>
<text text-anchor="start" x="94" y="-364.5" font-family="Helvetica,sans-Serif" font-size="10.00">+</text>
<text text-anchor="start" x="104" y="-364.5" font-family="Helvetica,sans-Serif" font-size="10.00">__construct($params)</text>
<text text-anchor="start" x="94" y="-349.5" font-family="Helvetica,sans-Serif" font-size="10.00">+</text>
<text text-anchor="start" x="104" y="-349.5" font-family="Helvetica,sans-Serif" font-size="10.00">close()</text>
<text text-anchor="start" x="94" y="-334.5" font-family="Helvetica,sans-Serif" font-size="10.00">+</text>
<text text-anchor="start" x="104" y="-334.5" font-family="Helvetica,sans-Serif" font-size="10.00">noop()</text>
<text text-anchor="start" x="94" y="-319.5" font-family="Helvetica,sans-Serif" font-size="10.00">+</text>
<text text-anchor="start" x="104" y="-319.5" font-family="Helvetica,sans-Serif" font-size="10.00">removeMessage($id)</text>
<text text-anchor="start" x="94" y="-304.5" font-family="Helvetica,sans-Serif" font-size="10.00">+</text>
<text text-anchor="start" x="104" y="-304.5" font-family="Helvetica,sans-Serif" font-size="10.00">getUniqueId($id=null)</text>
<text text-anchor="start" x="94" y="-289.5" font-family="Helvetica,sans-Serif" font-size="10.00">+</text>
<text text-anchor="start" x="104" y="-289.5" font-family="Helvetica,sans-Serif" font-size="10.00">getNumberByUniqueId($id)</text>
<text text-anchor="start" x="94.38" y="-274.5" font-family="Helvetica,sans-Serif" font-size="10.00">#</text>
<text text-anchor="start" x="104" y="-274.5" font-family="Helvetica,sans-Serif" font-size="10.00">getFileData($id, </text>
<text text-anchor="start" x="104" y="-263.25" font-family="Helvetica,sans-Serif" font-size="10.00">$field=null)</text>
<text text-anchor="start" x="94.38" y="-248.5" font-family="Helvetica,sans-Serif" font-size="10.00">#</text>
<text text-anchor="start" x="104" y="-248.5" font-family="Helvetica,sans-Serif" font-size="10.00">isMaildir($dirname)</text>
<text text-anchor="start" x="94.38" y="-233.5" font-family="Helvetica,sans-Serif" font-size="10.00">#</text>
<text text-anchor="start" x="104" y="-233.5" font-family="Helvetica,sans-Serif" font-size="10.00">openMaildir($dirname)</text>
<text text-anchor="start" x="94.38" y="-218.5" font-family="Helvetica,sans-Serif" font-size="10.00">#</text>
<text text-anchor="start" x="104" y="-218.5" font-family="Helvetica,sans-Serif" font-size="10.00">getMaildirFiles($dh,</text>
<text text-anchor="start" x="104" y="-207.25" font-family="Helvetica,sans-Serif" font-size="10.00"> $dirname, $defaultFlags=[])</text>
<polygon fill="#666666" stroke="#666666" points="90,-514 90,-514 230,-514 230,-514 90,-514"/>
<polygon fill="#666666" stroke="#666666" points="90,-484 90,-484 102,-484 102,-484 90,-484"/>
<polygon fill="#666666" stroke="#666666" points="102,-484 102,-484 230,-484 230,-484 102,-484"/>
<polygon fill="none" stroke="#666666" points="90,-202 90,-531 230,-531 230,-202 90,-202"/>
</a>
</g>
</g>
<!-- Node2&#45;&gt;Node1 -->
<g id="edge15_Node000001_Node000002" class="edge">
<title>Node2&#45;&gt;Node1</title>
<g id="a_edge15_Node000001_Node000002"><a xlink:title=" ">
<path fill="none" stroke="#63b8ff" d="M207.52,-191.45C210.02,-182.3 212.47,-173.35 214.81,-164.76"/>
<polygon fill="none" stroke="#63b8ff" points="204.22,-190.25 204.97,-200.82 210.98,-192.09 204.22,-190.25"/>
</a>
</g>
</g>
<!-- Node3 -->
<g id="Node000003" class="node">
<title>Node3</title>
<g id="a_Node000003"><a xlink:href="$class_laminas_1_1_mail_1_1_storage_1_1_abstract_storage.html" xlink:title=" ">
<polygon fill="white" stroke="none" points="174,-844.25 48,-844.25 48,-578.25 174,-578.25 174,-844.25"/>
<text text-anchor="start" x="75.75" y="-830.75" font-family="Helvetica,sans-Serif" font-size="10.00">AbstractStorage</text>
<text text-anchor="start" x="52.38" y="-815.75" font-family="Helvetica,sans-Serif" font-size="10.00">#</text>
<text text-anchor="start" x="62" y="-815.75" font-family="Helvetica,sans-Serif" font-size="10.00">$has</text>
<text text-anchor="start" x="52.38" y="-800.75" font-family="Helvetica,sans-Serif" font-size="10.00">#</text>
<text text-anchor="start" x="62" y="-800.75" font-family="Helvetica,sans-Serif" font-size="10.00">$iterationPos</text>
<text text-anchor="start" x="52.38" y="-785.75" font-family="Helvetica,sans-Serif" font-size="10.00">#</text>
<text text-anchor="start" x="62" y="-785.75" font-family="Helvetica,sans-Serif" font-size="10.00">$iterationMax</text>
<text text-anchor="start" x="52.38" y="-770.75" font-family="Helvetica,sans-Serif" font-size="10.00">#</text>
<text text-anchor="start" x="62" y="-770.75" font-family="Helvetica,sans-Serif" font-size="10.00">$messageClass</text>
<text text-anchor="start" x="52" y="-755.75" font-family="Helvetica,sans-Serif" font-size="10.00">+</text>
<text text-anchor="start" x="62" y="-755.75" font-family="Helvetica,sans-Serif" font-size="10.00">__get($var)</text>
<text text-anchor="start" x="52" y="-740.75" font-family="Helvetica,sans-Serif" font-size="10.00">+</text>
<text text-anchor="start" x="62" y="-740.75" font-family="Helvetica,sans-Serif" font-size="10.00">getCapabilities()</text>
<text text-anchor="start" x="52" y="-725.75" font-family="Helvetica,sans-Serif" font-size="10.00">+</text>
<text text-anchor="start" x="62" y="-725.75" font-family="Helvetica,sans-Serif" font-size="10.00">countMessages()</text>
<text text-anchor="start" x="52" y="-710.75" font-family="Helvetica,sans-Serif" font-size="10.00">+</text>
<text text-anchor="start" x="62" y="-710.75" font-family="Helvetica,sans-Serif" font-size="10.00">getSize($id=0)</text>
<text text-anchor="start" x="52" y="-695.75" font-family="Helvetica,sans-Serif" font-size="10.00">+</text>
<text text-anchor="start" x="62" y="-695.75" font-family="Helvetica,sans-Serif" font-size="10.00">getMessage($id)</text>
<text text-anchor="start" x="52" y="-680.75" font-family="Helvetica,sans-Serif" font-size="10.00">+</text>
<text text-anchor="start" x="62" y="-680.75" font-family="Helvetica,sans-Serif" font-size="10.00">getRawHeader($id,</text>
<text text-anchor="start" x="62" y="-669.5" font-family="Helvetica,sans-Serif" font-size="10.00"> $part=null, $topLines=0)</text>
<text text-anchor="start" x="52" y="-654.75" font-family="Helvetica,sans-Serif" font-size="10.00">+</text>
<text text-anchor="start" x="62" y="-654.75" font-family="Helvetica,sans-Serif" font-size="10.00">getRawContent($id,</text>
<text text-anchor="start" x="62" y="-643.5" font-family="Helvetica,sans-Serif" font-size="10.00"> $part=null)</text>
<text text-anchor="start" x="52" y="-628.75" font-family="Helvetica,sans-Serif" font-size="10.00">+</text>
<text text-anchor="start" x="62" y="-628.75" font-family="Helvetica,sans-Serif" font-size="10.00">__construct($params)</text>
<text text-anchor="start" x="52" y="-613.75" font-family="Helvetica,sans-Serif" font-size="10.00">+</text>
<text text-anchor="start" x="62" y="-613.75" font-family="Helvetica,sans-Serif" font-size="10.00">__destruct()</text>
<text text-anchor="start" x="52" y="-598.75" font-family="Helvetica,sans-Serif" font-size="10.00">+</text>
<text text-anchor="start" x="62" y="-598.75" font-family="Helvetica,sans-Serif" font-size="10.00">close()</text>
<text text-anchor="start" x="62" y="-583.75" font-family="Helvetica,sans-Serif" font-size="10.00">et 15 de plus...</text>
<polygon fill="#666666" stroke="#666666" points="48,-827.25 48,-827.25 174,-827.25 174,-827.25 48,-827.25"/>
<polygon fill="#666666" stroke="#666666" points="48,-767.25 48,-767.25 60,-767.25 60,-767.25 48,-767.25"/>
<polygon fill="#666666" stroke="#666666" points="60,-767.25 60,-767.25 174,-767.25 174,-767.25 60,-767.25"/>
<polygon fill="none" stroke="#666666" points="48,-578.25 48,-844.25 174,-844.25 174,-578.25 48,-578.25"/>
</a>
</g>
</g>
<!-- Node3&#45;&gt;Node2 -->
<g id="edge16_Node000002_Node000003" class="edge">
<title>Node3&#45;&gt;Node2</title>
<g id="a_edge16_Node000002_Node000003"><a xlink:title=" ">
<path fill="none" stroke="#63b8ff" d="M131.39,-567.63C133.13,-555.48 134.89,-543.14 136.65,-530.86"/>
<polygon fill="none" stroke="#63b8ff" points="127.97,-566.82 130.02,-577.22 134.9,-567.81 127.97,-566.82"/>
</a>
</g>
</g>
<!-- Node4 -->
<g id="Node000004" class="node">
<title>Node4</title>
<g id="a_Node000004"><a xlink:title=" ">
<polygon fill="white" stroke="none" points="66,-930.25 0,-930.25 0,-881.25 66,-881.25 66,-930.25"/>
<text text-anchor="start" x="4.88" y="-916.75" font-family="Helvetica,sans-Serif" font-size="10.00">ArrayAccess</text>
<text text-anchor="start" x="31.5" y="-901.75" font-family="Helvetica,sans-Serif" font-size="10.00"> </text>
<text text-anchor="start" x="31.5" y="-886.75" font-family="Helvetica,sans-Serif" font-size="10.00"> </text>
<polygon fill="#666666" stroke="#666666" points="0,-913.25 0,-913.25 66,-913.25 66,-913.25 0,-913.25"/>
<polygon fill="#666666" stroke="#666666" points="0,-898.25 0,-898.25 66,-898.25 66,-898.25 0,-898.25"/>
<polygon fill="none" stroke="#666666" points="0,-881.25 0,-930.25 66,-930.25 66,-881.25 0,-881.25"/>
</a>
</g>
</g>
<!-- Node4&#45;&gt;Node3 -->
<g id="edge17_Node000003_Node000004" class="edge">
<title>Node4&#45;&gt;Node3</title>
<g id="a_edge17_Node000003_Node000004"><a xlink:title=" ">
<path fill="none" stroke="#63b8ff" d="M46.62,-871.13C49.92,-862.98 53.65,-853.78 57.61,-844.02"/>
<polygon fill="none" stroke="#63b8ff" points="43.49,-869.54 42.98,-880.13 49.98,-872.17 43.49,-869.54"/>
</a>
</g>
</g>
<!-- Node5 -->
<g id="Node000005" class="node">
<title>Node5</title>
<g id="a_Node000005"><a xlink:title=" ">
<polygon fill="white" stroke="none" points="138,-930.25 84,-930.25 84,-881.25 138,-881.25 138,-930.25"/>
<text text-anchor="start" x="88.88" y="-916.75" font-family="Helvetica,sans-Serif" font-size="10.00">Countable</text>
<text text-anchor="start" x="109.5" y="-901.75" font-family="Helvetica,sans-Serif" font-size="10.00"> </text>
<text text-anchor="start" x="109.5" y="-886.75" font-family="Helvetica,sans-Serif" font-size="10.00"> </text>
<polygon fill="#666666" stroke="#666666" points="84,-913.25 84,-913.25 138,-913.25 138,-913.25 84,-913.25"/>
<polygon fill="#666666" stroke="#666666" points="84,-898.25 84,-898.25 138,-898.25 138,-898.25 84,-898.25"/>
<polygon fill="none" stroke="#666666" points="84,-881.25 84,-930.25 138,-930.25 138,-881.25 84,-881.25"/>
</a>
</g>
</g>
<!-- Node5&#45;&gt;Node3 -->
<g id="edge18_Node000003_Node000005" class="edge">
<title>Node5&#45;&gt;Node3</title>
<g id="a_edge18_Node000003_Node000005"><a xlink:title=" ">
<path fill="none" stroke="#63b8ff" d="M111,-870.29C111,-862.36 111,-853.45 111,-844.02"/>
<polygon fill="none" stroke="#63b8ff" points="107.5,-870.02 111,-880.02 114.5,-870.02 107.5,-870.02"/>
</a>
</g>
</g>
<!-- Node6 -->
<g id="Node000006" class="node">
<title>Node6</title>
<g id="a_Node000006"><a xlink:title=" ">
<polygon fill="white" stroke="none" points="237.5,-930.25 156.5,-930.25 156.5,-881.25 237.5,-881.25 237.5,-930.25"/>
<text text-anchor="start" x="161.38" y="-916.75" font-family="Helvetica,sans-Serif" font-size="10.00">SeekableIterator</text>
<text text-anchor="start" x="195.5" y="-901.75" font-family="Helvetica,sans-Serif" font-size="10.00"> </text>
<text text-anchor="start" x="195.5" y="-886.75" font-family="Helvetica,sans-Serif" font-size="10.00"> </text>
<polygon fill="#666666" stroke="#666666" points="156.5,-913.25 156.5,-913.25 237.5,-913.25 237.5,-913.25 156.5,-913.25"/>
<polygon fill="#666666" stroke="#666666" points="156.5,-898.25 156.5,-898.25 237.5,-898.25 237.5,-898.25 156.5,-898.25"/>
<polygon fill="none" stroke="#666666" points="156.5,-881.25 156.5,-930.25 237.5,-930.25 237.5,-881.25 156.5,-881.25"/>
</a>
</g>
</g>
<!-- Node6&#45;&gt;Node3 -->
<g id="edge19_Node000003_Node000006" class="edge">
<title>Node6&#45;&gt;Node3</title>
<g id="a_edge19_Node000003_Node000006"><a xlink:title=" ">
<path fill="none" stroke="#63b8ff" d="M181.98,-871.13C178.34,-862.98 174.23,-853.78 169.87,-844.02"/>
<polygon fill="none" stroke="#63b8ff" points="178.73,-872.45 186.01,-880.15 185.13,-869.59 178.73,-872.45"/>
</a>
</g>
</g>
<!-- Node7 -->
<g id="Node000007" class="node">
<title>Node7</title>
<g id="a_Node000007"><a xlink:title=" ">
<polygon fill="white" stroke="none" points="226,-735.75 192,-735.75 192,-686.75 226,-686.75 226,-735.75"/>
<text text-anchor="start" x="197" y="-722.25" font-family="Helvetica,sans-Serif" font-size="10.00">static</text>
<text text-anchor="start" x="207.5" y="-707.25" font-family="Helvetica,sans-Serif" font-size="10.00"> </text>
<text text-anchor="start" x="207.5" y="-692.25" font-family="Helvetica,sans-Serif" font-size="10.00"> </text>
<polygon fill="#666666" stroke="#666666" points="192,-718.75 192,-718.75 226,-718.75 226,-718.75 192,-718.75"/>
<polygon fill="#666666" stroke="#666666" points="192,-703.75 192,-703.75 226,-703.75 226,-703.75 192,-703.75"/>
<polygon fill="none" stroke="#666666" points="192,-686.75 192,-735.75 226,-735.75 226,-686.75 192,-686.75"/>
</a>
</g>
</g>
<!-- Node7&#45;&gt;Node2 -->
<g id="edge20_Node000002_Node000007" class="edge">
<title>Node7&#45;&gt;Node2</title>
<g id="a_edge20_Node000002_Node000007"><a xlink:title=" ">
<path fill="none" stroke="#63b8ff" d="M205.67,-686.96C201.32,-656.56 193.31,-600.52 185.2,-543.77"/>
<polygon fill="none" stroke="#63b8ff" points="185.18,-543.66 180.37,-538.28 183.49,-531.78 188.29,-537.15 185.18,-543.66"/>
</a>
</g>
<text text-anchor="middle" x="221" y="-550.75" font-family="Helvetica,sans-Serif" font-size="10.00" fill="grey"> #$knownFlags</text>
</g>
<!-- Node8 -->
<g id="Node000008" class="node">
<title>Node8</title>
<g id="a_Node000008"><a xlink:href="$interface_laminas_1_1_mail_1_1_storage_1_1_folder_1_1_folder_interface.html" xlink:title=" ">
<polygon fill="white" stroke="none" points="382,-411.5 248,-411.5 248,-321.5 382,-321.5 382,-411.5"/>
<text text-anchor="start" x="282.38" y="-398" font-family="Helvetica,sans-Serif" font-size="10.00">FolderInterface</text>
<text text-anchor="start" x="313.5" y="-383" font-family="Helvetica,sans-Serif" font-size="10.00"> </text>
<text text-anchor="start" x="252" y="-368" font-family="Helvetica,sans-Serif" font-size="10.00">+</text>
<text text-anchor="start" x="262" y="-368" font-family="Helvetica,sans-Serif" font-size="10.00">getFolders($rootFolder</text>
<text text-anchor="start" x="262" y="-356.75" font-family="Helvetica,sans-Serif" font-size="10.00">=null)</text>
<text text-anchor="start" x="252" y="-342" font-family="Helvetica,sans-Serif" font-size="10.00">+</text>
<text text-anchor="start" x="262" y="-342" font-family="Helvetica,sans-Serif" font-size="10.00">selectFolder($globalName)</text>
<text text-anchor="start" x="252" y="-327" font-family="Helvetica,sans-Serif" font-size="10.00">+</text>
<text text-anchor="start" x="262" y="-327" font-family="Helvetica,sans-Serif" font-size="10.00">getCurrentFolder()</text>
<polygon fill="#666666" stroke="#666666" points="248,-394.5 248,-394.5 382,-394.5 382,-394.5 248,-394.5"/>
<polygon fill="#666666" stroke="#666666" points="248,-379.5 248,-379.5 382,-379.5 382,-379.5 248,-379.5"/>
<polygon fill="none" stroke="#666666" points="248,-321.5 248,-411.5 382,-411.5 382,-321.5 248,-321.5"/>
</a>
</g>
</g>
<!-- Node8&#45;&gt;Node1 -->
<g id="edge21_Node000001_Node000008" class="edge">
<title>Node8&#45;&gt;Node1</title>
<g id="a_edge21_Node000001_Node000008"><a xlink:title=" ">
<path fill="none" stroke="#63b8ff" d="M299.86,-310.77C288.4,-269.32 272.46,-211.71 259.51,-164.87"/>
<polygon fill="none" stroke="#63b8ff" points="296.46,-311.58 302.49,-320.29 303.2,-309.72 296.46,-311.58"/>
</a>
</g>
</g>
</g>
</svg>
