<?xml version="1.0" encoding="UTF-8" standalone="no"?>
<!DOCTYPE svg PUBLIC "-//W3C//DTD SVG 1.1//EN"
 "http://www.w3.org/Graphics/SVG/1.1/DTD/svg11.dtd">
<!-- Generated by graphviz version 10.0.1 (20240210.2158)
 -->
<!-- Title: canCreateItem Pages: 1 -->
<svg width="463pt" height="101pt"
 viewBox="0.00 0.00 462.50 101.25" xmlns="http://www.w3.org/2000/svg" xmlns:xlink="http://www.w3.org/1999/xlink">
<g id="graph0" class="graph" transform="scale(1 1) rotate(0) translate(4 97.25)">
<title>canCreateItem</title>
<!-- Node1 -->
<g id="Node000001" class="node">
<title>Node1</title>
<g id="a_Node000001"><a xlink:title=" ">
<polygon fill="#999999" stroke="#666666" points="80.5,-56.25 0,-56.25 0,-37 80.5,-37 80.5,-56.25"/>
<text text-anchor="middle" x="40.25" y="-42.75" font-family="Helvetica,sans-Serif" font-size="10.00">canCreateItem</text>
</a>
</g>
</g>
<!-- Node2 -->
<g id="Node000002" class="node">
<title>Node2</title>
<g id="a_Node000002"><a xlink:href="$db_8function_8php.html#a79aa7be8cf7cb17b8049e99ef2dd079b" xlink:title=" ">
<polygon fill="white" stroke="#666666" points="270.12,-93.25 157.38,-93.25 157.38,-74 270.12,-74 270.12,-93.25"/>
<text text-anchor="middle" x="213.75" y="-79.75" font-family="Helvetica,sans-Serif" font-size="10.00">countElementsInTable</text>
</a>
</g>
</g>
<!-- Node1&#45;&gt;Node2 -->
<g id="edge9_Node000001_Node000002" class="edge">
<title>Node1&#45;&gt;Node2</title>
<g id="a_edge9_Node000001_Node000002"><a xlink:title=" ">
<path fill="none" stroke="#63b8ff" d="M79.04,-56.66C90.98,-59.7 104.26,-62.94 116.5,-65.62 125.97,-67.7 136,-69.75 145.87,-71.67"/>
<polygon fill="#63b8ff" stroke="#63b8ff" points="144.93,-75.06 155.41,-73.51 146.25,-68.18 144.93,-75.06"/>
</a>
</g>
</g>
<!-- Node3 -->
<g id="Node000003" class="node">
<title>Node3</title>
<g id="a_Node000003"><a xlink:href="$class_common_d_b_connexity.html#ade9838c9396e0210b6000d379ccf60ec" xlink:title=" ">
<polygon fill="white" stroke="#666666" points="311,-56.25 116.5,-56.25 116.5,-37 311,-37 311,-56.25"/>
<text text-anchor="middle" x="213.75" y="-42.75" font-family="Helvetica,sans-Serif" font-size="10.00">CommonDBConnexity\getConnexityItem</text>
</a>
</g>
</g>
<!-- Node1&#45;&gt;Node3 -->
<g id="edge10_Node000001_Node000003" class="edge">
<title>Node1&#45;&gt;Node3</title>
<g id="a_edge10_Node000001_Node000003"><a xlink:title=" ">
<path fill="none" stroke="#63b8ff" d="M80.6,-46.62C88.09,-46.62 96.26,-46.62 104.75,-46.62"/>
<polygon fill="#63b8ff" stroke="#63b8ff" points="104.53,-50.13 114.53,-46.63 104.53,-43.13 104.53,-50.13"/>
</a>
</g>
</g>
<!-- Node4 -->
<g id="Node000004" class="node">
<title>Node4</title>
<g id="a_Node000004"><a xlink:href="$class_common_d_b_t_m.html#a581a21ebf625fb327fd53c86f84b66d1" xlink:title=" ">
<polygon fill="white" stroke="#666666" points="275.75,-19.25 151.75,-19.25 151.75,0 275.75,0 275.75,-19.25"/>
<text text-anchor="middle" x="213.75" y="-5.75" font-family="Helvetica,sans-Serif" font-size="10.00">CommonDBTM\getTable</text>
</a>
</g>
</g>
<!-- Node1&#45;&gt;Node4 -->
<g id="edge11_Node000001_Node000004" class="edge">
<title>Node1&#45;&gt;Node4</title>
<g id="a_edge11_Node000001_Node000004"><a xlink:title=" ">
<path fill="none" stroke="#63b8ff" d="M79.04,-36.59C90.98,-33.55 104.26,-30.31 116.5,-27.62 125.41,-25.67 134.82,-23.74 144.12,-21.92"/>
<polygon fill="#63b8ff" stroke="#63b8ff" points="144.73,-25.36 153.89,-20.03 143.41,-18.49 144.73,-25.36"/>
</a>
</g>
</g>
<!-- Node5 -->
<g id="Node000005" class="node">
<title>Node5</title>
<g id="a_Node000005"><a xlink:href="$db_8function_8php.html#af5d54dd0f42dddbdb9951111643af5f6" xlink:title=" ">
<polygon fill="white" stroke="#666666" points="454.5,-19.25 347,-19.25 347,0 454.5,0 454.5,-19.25"/>
<text text-anchor="middle" x="400.75" y="-5.75" font-family="Helvetica,sans-Serif" font-size="10.00">getTableForItemType</text>
</a>
</g>
</g>
<!-- Node4&#45;&gt;Node5 -->
<g id="edge12_Node000004_Node000005" class="edge">
<title>Node4&#45;&gt;Node5</title>
<g id="a_edge12_Node000004_Node000005"><a xlink:title=" ">
<path fill="none" stroke="#63b8ff" d="M276.1,-9.62C295.09,-9.62 316.06,-9.62 335.26,-9.62"/>
<polygon fill="#63b8ff" stroke="#63b8ff" points="335.12,-13.13 345.12,-9.63 335.12,-6.13 335.12,-13.13"/>
</a>
</g>
</g>
</g>
</svg>
