<?xml version="1.0" encoding="UTF-8" standalone="no"?>
<!DOCTYPE svg PUBLIC "-//W3C//DTD SVG 1.1//EN"
 "http://www.w3.org/Graphics/SVG/1.1/DTD/svg11.dtd">
<!-- Generated by graphviz version 10.0.1 (20240210.2158)
 -->
<!-- Title: doDisplay Pages: 1 -->
<svg width="354pt" height="64pt"
 viewBox="0.00 0.00 353.75 64.25" xmlns="http://www.w3.org/2000/svg" xmlns:xlink="http://www.w3.org/1999/xlink">
<g id="graph0" class="graph" transform="scale(1 1) rotate(0) translate(4 60.25)">
<title>doDisplay</title>
<!-- Node1 -->
<g id="Node000001" class="node">
<title>Node1</title>
<g id="a_Node000001"><a xlink:title=" ">
<polygon fill="#999999" stroke="#666666" points="59.5,-37.25 0,-37.25 0,-18 59.5,-18 59.5,-37.25"/>
<text text-anchor="middle" x="29.75" y="-23.75" font-family="Helvetica,sans-Serif" font-size="10.00">doDisplay</text>
</a>
</g>
</g>
<!-- Node2 -->
<g id="Node000002" class="node">
<title>Node2</title>
<g id="a_Node000002"><a xlink:href="$class_twig_1_1_template.html#a838c5ee902977925f3ed5872570053b9" xlink:title=" ">
<polygon fill="white" stroke="#666666" points="235.25,-56.25 95.5,-56.25 95.5,-37 235.25,-37 235.25,-56.25"/>
<text text-anchor="middle" x="165.38" y="-42.75" font-family="Helvetica,sans-Serif" font-size="10.00">Twig\Template\loadTemplate</text>
</a>
</g>
</g>
<!-- Node1&#45;&gt;Node2 -->
<g id="edge7_Node000001_Node000002" class="edge">
<title>Node1&#45;&gt;Node2</title>
<g id="a_edge7_Node000001_Node000002"><a xlink:title=" ">
<path fill="none" stroke="#63b8ff" d="M59.74,-31.75C67.06,-32.79 75.27,-33.96 83.79,-35.17"/>
<polygon fill="#63b8ff" stroke="#63b8ff" points="83.24,-38.62 93.63,-36.57 84.23,-31.69 83.24,-38.62"/>
</a>
</g>
</g>
<!-- Node3 -->
<g id="Node000003" class="node">
<title>Node3</title>
<g id="a_Node000003"><a xlink:href="$_core_extension_8php.html#a2d50d273b88123237405a3388a6012a5" xlink:title=" ">
<polygon fill="white" stroke="#666666" points="212,-19.25 118.75,-19.25 118.75,0 212,0 212,-19.25"/>
<text text-anchor="middle" x="165.38" y="-5.75" font-family="Helvetica,sans-Serif" font-size="10.00">twig_array_merge</text>
</a>
</g>
</g>
<!-- Node1&#45;&gt;Node3 -->
<g id="edge8_Node000001_Node000003" class="edge">
<title>Node1&#45;&gt;Node3</title>
<g id="a_edge8_Node000001_Node000003"><a xlink:title=" ">
<path fill="none" stroke="#63b8ff" d="M59.74,-23.72C73.65,-21.85 90.82,-19.53 107.2,-17.33"/>
<polygon fill="#63b8ff" stroke="#63b8ff" points="107.42,-20.83 116.86,-16.03 106.48,-13.89 107.42,-20.83"/>
</a>
</g>
</g>
<!-- Node4 -->
<g id="Node000004" class="node">
<title>Node4</title>
<g id="a_Node000004"><a xlink:href="$_core_extension_8php.html#add6085b705776ea6e84cec0f1f6c6e8b" xlink:title=" ">
<polygon fill="white" stroke="#666666" points="345.75,-19.25 271.25,-19.25 271.25,0 345.75,0 345.75,-19.25"/>
<text text-anchor="middle" x="308.5" y="-5.75" font-family="Helvetica,sans-Serif" font-size="10.00">twig_to_array</text>
</a>
</g>
</g>
<!-- Node3&#45;&gt;Node4 -->
<g id="edge9_Node000003_Node000004" class="edge">
<title>Node3&#45;&gt;Node4</title>
<g id="a_edge9_Node000003_Node000004"><a xlink:title=" ">
<path fill="none" stroke="#63b8ff" d="M212.19,-9.62C227.33,-9.62 244.21,-9.62 259.5,-9.62"/>
<polygon fill="#63b8ff" stroke="#63b8ff" points="259.32,-13.13 269.32,-9.63 259.32,-6.13 259.32,-13.13"/>
</a>
</g>
</g>
</g>
</svg>
