<?xml version="1.0" encoding="UTF-8" standalone="no"?>
<!DOCTYPE svg PUBLIC "-//W3C//DTD SVG 1.1//EN"
 "http://www.w3.org/Graphics/SVG/1.1/DTD/svg11.dtd">
<!-- Generated by graphviz version 10.0.1 (20240210.2158)
 -->
<!-- Title: AbstractUnary Pages: 1 -->
<svg width="166pt" height="659pt"
 viewBox="0.00 0.00 165.50 659.00" xmlns="http://www.w3.org/2000/svg" xmlns:xlink="http://www.w3.org/1999/xlink">
<g id="graph0" class="graph" transform="scale(1 1) rotate(0) translate(4 655)">
<title>AbstractUnary</title>
<!-- Node1 -->
<g id="Node000001" class="node">
<title>Node1</title>
<g id="a_Node000001"><a xlink:title=" ">
<polygon fill="#999999" stroke="none" points="120,-112 22,-112 22,0 120,0 120,-112"/>
<text text-anchor="start" x="39.5" y="-98.5" font-family="Helvetica,sans-Serif" font-size="10.00">AbstractUnary</text>
<text text-anchor="start" x="69.5" y="-83.5" font-family="Helvetica,sans-Serif" font-size="10.00"> </text>
<text text-anchor="start" x="26" y="-68.5" font-family="Helvetica,sans-Serif" font-size="10.00">+</text>
<text text-anchor="start" x="36" y="-68.5" font-family="Helvetica,sans-Serif" font-size="10.00">__construct(Node </text>
<text text-anchor="start" x="36" y="-57.25" font-family="Helvetica,sans-Serif" font-size="10.00">$node, int $lineno)</text>
<text text-anchor="start" x="26" y="-42.5" font-family="Helvetica,sans-Serif" font-size="10.00">+</text>
<text text-anchor="start" x="36" y="-42.5" font-family="Helvetica,sans-Serif" font-size="10.00">compile(Compiler </text>
<text text-anchor="start" x="36" y="-31.25" font-family="Helvetica,sans-Serif" font-size="10.00">$compiler)</text>
<text text-anchor="start" x="26" y="-16.5" font-family="Helvetica,sans-Serif" font-size="10.00">+</text>
<text text-anchor="start" x="36" y="-16.5" font-family="Helvetica,sans-Serif" font-size="10.00">operator(Compiler</text>
<text text-anchor="start" x="36" y="-5.25" font-family="Helvetica,sans-Serif" font-size="10.00"> $compiler)</text>
<polygon fill="#666666" stroke="#666666" points="22,-95 22,-95 120,-95 120,-95 22,-95"/>
<polygon fill="#666666" stroke="#666666" points="22,-80 22,-80 120,-80 120,-80 22,-80"/>
<polygon fill="none" stroke="#666666" points="22,0 22,-112 120,-112 120,0 22,0"/>
</a>
</g>
</g>
<!-- Node2 -->
<g id="Node000002" class="node">
<title>Node2</title>
<g id="a_Node000002"><a xlink:href="$class_twig_1_1_node_1_1_expression_1_1_abstract_expression.html" xlink:title=" ">
<polygon fill="white" stroke="none" points="118.5,-197 23.5,-197 23.5,-148 118.5,-148 118.5,-197"/>
<text text-anchor="start" x="28.25" y="-183.5" font-family="Helvetica,sans-Serif" font-size="10.00">AbstractExpression</text>
<text text-anchor="start" x="69.5" y="-168.5" font-family="Helvetica,sans-Serif" font-size="10.00"> </text>
<text text-anchor="start" x="69.5" y="-153.5" font-family="Helvetica,sans-Serif" font-size="10.00"> </text>
<polygon fill="#666666" stroke="#666666" points="23.5,-180 23.5,-180 118.5,-180 118.5,-180 23.5,-180"/>
<polygon fill="#666666" stroke="#666666" points="23.5,-165 23.5,-165 118.5,-165 118.5,-165 23.5,-165"/>
<polygon fill="none" stroke="#666666" points="23.5,-148 23.5,-197 118.5,-197 118.5,-148 23.5,-148"/>
</a>
</g>
</g>
<!-- Node2&#45;&gt;Node1 -->
<g id="edge9_Node000001_Node000002" class="edge">
<title>Node2&#45;&gt;Node1</title>
<g id="a_edge9_Node000001_Node000002"><a xlink:title=" ">
<path fill="none" stroke="#63b8ff" d="M71,-136.65C71,-128.73 71,-120.14 71,-111.62"/>
<polygon fill="none" stroke="#63b8ff" points="67.5,-136.54 71,-146.54 74.5,-136.54 67.5,-136.54"/>
</a>
</g>
</g>
<!-- Node3 -->
<g id="Node000003" class="node">
<title>Node3</title>
<g id="a_Node000003"><a xlink:href="$class_twig_1_1_node_1_1_node.html" xlink:title=" ">
<polygon fill="white" stroke="none" points="141.5,-566 0.5,-566 0.5,-233 141.5,-233 141.5,-566"/>
<text text-anchor="start" x="59.38" y="-552.5" font-family="Helvetica,sans-Serif" font-size="10.00">Node</text>
<text text-anchor="start" x="4.88" y="-537.5" font-family="Helvetica,sans-Serif" font-size="10.00">#</text>
<text text-anchor="start" x="14.5" y="-537.5" font-family="Helvetica,sans-Serif" font-size="10.00">$nodes</text>
<text text-anchor="start" x="4.88" y="-522.5" font-family="Helvetica,sans-Serif" font-size="10.00">#</text>
<text text-anchor="start" x="14.5" y="-522.5" font-family="Helvetica,sans-Serif" font-size="10.00">$attributes</text>
<text text-anchor="start" x="4.88" y="-507.5" font-family="Helvetica,sans-Serif" font-size="10.00">#</text>
<text text-anchor="start" x="14.5" y="-507.5" font-family="Helvetica,sans-Serif" font-size="10.00">$lineno</text>
<text text-anchor="start" x="4.88" y="-492.5" font-family="Helvetica,sans-Serif" font-size="10.00">#</text>
<text text-anchor="start" x="14.5" y="-492.5" font-family="Helvetica,sans-Serif" font-size="10.00">$tag</text>
<text text-anchor="start" x="4.5" y="-477.5" font-family="Helvetica,sans-Serif" font-size="10.00">+</text>
<text text-anchor="start" x="14.5" y="-477.5" font-family="Helvetica,sans-Serif" font-size="10.00">__construct(array</text>
<text text-anchor="start" x="14.5" y="-466.25" font-family="Helvetica,sans-Serif" font-size="10.00"> $nodes=[], array $attributes</text>
<text text-anchor="start" x="14.5" y="-455" font-family="Helvetica,sans-Serif" font-size="10.00">=[], int $lineno=0, string</text>
<text text-anchor="start" x="14.5" y="-443.75" font-family="Helvetica,sans-Serif" font-size="10.00"> $tag=null)</text>
<text text-anchor="start" x="4.5" y="-428.5" font-family="Helvetica,sans-Serif" font-size="10.00">+</text>
<text text-anchor="start" x="14.5" y="-428.5" font-family="Helvetica,sans-Serif" font-size="10.00">__toString()</text>
<text text-anchor="start" x="4.5" y="-413.5" font-family="Helvetica,sans-Serif" font-size="10.00">+</text>
<text text-anchor="start" x="14.5" y="-413.5" font-family="Helvetica,sans-Serif" font-size="10.00">compile(Compiler </text>
<text text-anchor="start" x="14.5" y="-402.25" font-family="Helvetica,sans-Serif" font-size="10.00">$compiler)</text>
<text text-anchor="start" x="4.5" y="-387.5" font-family="Helvetica,sans-Serif" font-size="10.00">+</text>
<text text-anchor="start" x="14.5" y="-387.5" font-family="Helvetica,sans-Serif" font-size="10.00">getTemplateLine()</text>
<text text-anchor="start" x="4.5" y="-372.5" font-family="Helvetica,sans-Serif" font-size="10.00">+</text>
<text text-anchor="start" x="14.5" y="-372.5" font-family="Helvetica,sans-Serif" font-size="10.00">getNodeTag()</text>
<text text-anchor="start" x="4.5" y="-357.5" font-family="Helvetica,sans-Serif" font-size="10.00">+</text>
<text text-anchor="start" x="14.5" y="-357.5" font-family="Helvetica,sans-Serif" font-size="10.00">hasAttribute(string</text>
<text text-anchor="start" x="14.5" y="-346.25" font-family="Helvetica,sans-Serif" font-size="10.00"> $name)</text>
<text text-anchor="start" x="4.5" y="-331.5" font-family="Helvetica,sans-Serif" font-size="10.00">+</text>
<text text-anchor="start" x="14.5" y="-331.5" font-family="Helvetica,sans-Serif" font-size="10.00">getAttribute(string</text>
<text text-anchor="start" x="14.5" y="-320.25" font-family="Helvetica,sans-Serif" font-size="10.00"> $name)</text>
<text text-anchor="start" x="4.5" y="-305.5" font-family="Helvetica,sans-Serif" font-size="10.00">+</text>
<text text-anchor="start" x="14.5" y="-305.5" font-family="Helvetica,sans-Serif" font-size="10.00">setAttribute(string</text>
<text text-anchor="start" x="14.5" y="-294.25" font-family="Helvetica,sans-Serif" font-size="10.00"> $name, $value)</text>
<text text-anchor="start" x="4.5" y="-279.5" font-family="Helvetica,sans-Serif" font-size="10.00">+</text>
<text text-anchor="start" x="14.5" y="-279.5" font-family="Helvetica,sans-Serif" font-size="10.00">removeAttribute(string</text>
<text text-anchor="start" x="14.5" y="-268.25" font-family="Helvetica,sans-Serif" font-size="10.00"> $name)</text>
<text text-anchor="start" x="4.5" y="-253.5" font-family="Helvetica,sans-Serif" font-size="10.00">+</text>
<text text-anchor="start" x="14.5" y="-253.5" font-family="Helvetica,sans-Serif" font-size="10.00">hasNode(string $name)</text>
<text text-anchor="start" x="14.5" y="-238.5" font-family="Helvetica,sans-Serif" font-size="10.00">et 8 de plus...</text>
<polygon fill="#666666" stroke="#666666" points="0.5,-549 0.5,-549 141.5,-549 141.5,-549 0.5,-549"/>
<polygon fill="#666666" stroke="#666666" points="0.5,-489 0.5,-489 12.5,-489 12.5,-489 0.5,-489"/>
<polygon fill="#666666" stroke="#666666" points="12.5,-489 12.5,-489 141.5,-489 141.5,-489 12.5,-489"/>
<polygon fill="none" stroke="#666666" points="0.5,-233 0.5,-566 141.5,-566 141.5,-233 0.5,-233"/>
</a>
</g>
</g>
<!-- Node3&#45;&gt;Node2 -->
<g id="edge10_Node000002_Node000003" class="edge">
<title>Node3&#45;&gt;Node2</title>
<g id="a_edge10_Node000002_Node000003"><a xlink:title=" ">
<path fill="none" stroke="#63b8ff" d="M71,-221.79C71,-212.4 71,-203.9 71,-196.75"/>
<polygon fill="none" stroke="#63b8ff" points="67.5,-221.69 71,-231.69 74.5,-221.69 67.5,-221.69"/>
</a>
</g>
</g>
<!-- Node4 -->
<g id="Node000004" class="node">
<title>Node4</title>
<g id="a_Node000004"><a xlink:title=" ">
<polygon fill="white" stroke="none" points="54,-651 0,-651 0,-602 54,-602 54,-651"/>
<text text-anchor="start" x="4.88" y="-637.5" font-family="Helvetica,sans-Serif" font-size="10.00">Countable</text>
<text text-anchor="start" x="25.5" y="-622.5" font-family="Helvetica,sans-Serif" font-size="10.00"> </text>
<text text-anchor="start" x="25.5" y="-607.5" font-family="Helvetica,sans-Serif" font-size="10.00"> </text>
<polygon fill="#666666" stroke="#666666" points="0,-634 0,-634 54,-634 54,-634 0,-634"/>
<polygon fill="#666666" stroke="#666666" points="0,-619 0,-619 54,-619 54,-619 0,-619"/>
<polygon fill="none" stroke="#666666" points="0,-602 0,-651 54,-651 54,-602 0,-602"/>
</a>
</g>
</g>
<!-- Node4&#45;&gt;Node3 -->
<g id="edge11_Node000003_Node000004" class="edge">
<title>Node4&#45;&gt;Node3</title>
<g id="a_edge11_Node000003_Node000004"><a xlink:title=" ">
<path fill="none" stroke="#63b8ff" d="M33.73,-591.08C35.23,-583.44 36.91,-574.84 38.71,-565.64"/>
<polygon fill="none" stroke="#63b8ff" points="30.32,-590.3 31.83,-600.78 37.19,-591.64 30.32,-590.3"/>
</a>
</g>
</g>
<!-- Node5 -->
<g id="Node000005" class="node">
<title>Node5</title>
<g id="a_Node000005"><a xlink:title=" ">
<polygon fill="white" stroke="none" points="157.5,-651 72.5,-651 72.5,-602 157.5,-602 157.5,-651"/>
<text text-anchor="start" x="77.5" y="-637.5" font-family="Helvetica,sans-Serif" font-size="10.00">IteratorAggregate</text>
<text text-anchor="start" x="113.5" y="-622.5" font-family="Helvetica,sans-Serif" font-size="10.00"> </text>
<text text-anchor="start" x="113.5" y="-607.5" font-family="Helvetica,sans-Serif" font-size="10.00"> </text>
<polygon fill="#666666" stroke="#666666" points="72.5,-634 72.5,-634 157.5,-634 157.5,-634 72.5,-634"/>
<polygon fill="#666666" stroke="#666666" points="72.5,-619 72.5,-619 157.5,-619 157.5,-619 72.5,-619"/>
<polygon fill="none" stroke="#666666" points="72.5,-602 72.5,-651 157.5,-651 157.5,-602 72.5,-602"/>
</a>
</g>
</g>
<!-- Node5&#45;&gt;Node3 -->
<g id="edge12_Node000003_Node000005" class="edge">
<title>Node5&#45;&gt;Node3</title>
<g id="a_edge12_Node000003_Node000005"><a xlink:title=" ">
<path fill="none" stroke="#63b8ff" d="M108.27,-591.08C106.77,-583.44 105.09,-574.84 103.29,-565.64"/>
<polygon fill="none" stroke="#63b8ff" points="104.81,-591.64 110.17,-600.78 111.68,-590.3 104.81,-591.64"/>
</a>
</g>
</g>
</g>
</svg>
