<?xml version="1.0" encoding="UTF-8" standalone="no"?>
<!DOCTYPE svg PUBLIC "-//W3C//DTD SVG 1.1//EN"
 "http://www.w3.org/Graphics/SVG/1.1/DTD/svg11.dtd">
<!-- Generated by graphviz version 10.0.1 (20240210.2158)
 -->
<!-- Title: register Pages: 1 -->
<svg width="571pt" height="235pt"
 viewBox="0.00 0.00 570.75 234.50" xmlns="http://www.w3.org/2000/svg" xmlns:xlink="http://www.w3.org/1999/xlink">
<g id="graph0" class="graph" transform="scale(1 1) rotate(0) translate(4 230.5)">
<title>register</title>
<!-- Node1 -->
<g id="Node000001" class="node">
<title>Node1</title>
<g id="a_Node000001"><a xlink:title=" ">
<polygon fill="#999999" stroke="#666666" points="48.25,-122.88 0,-122.88 0,-103.62 48.25,-103.62 48.25,-122.88"/>
<text text-anchor="middle" x="24.12" y="-109.38" font-family="Helvetica,sans-Serif" font-size="10.00">register</text>
</a>
</g>
</g>
<!-- Node2 -->
<g id="Node000002" class="node">
<title>Node2</title>
<g id="a_Node000002"><a xlink:href="$class_symfony_1_1_component_1_1_console_1_1_application.html#ad02a14485938972f0a2b798c57dda347" xlink:title=" ">
<polygon fill="white" stroke="#666666" points="116,-122.88 84.25,-122.88 84.25,-103.62 116,-103.62 116,-122.88"/>
<text text-anchor="middle" x="100.12" y="-109.38" font-family="Helvetica,sans-Serif" font-size="10.00">add</text>
</a>
</g>
</g>
<!-- Node1&#45;&gt;Node2 -->
<g id="edge17_Node000001_Node000002" class="edge">
<title>Node1&#45;&gt;Node2</title>
<g id="a_edge17_Node000001_Node000002"><a xlink:title=" ">
<path fill="none" stroke="#63b8ff" d="M48.54,-113.25C56.1,-113.25 64.53,-113.25 72.32,-113.25"/>
<polygon fill="#63b8ff" stroke="#63b8ff" points="72.28,-116.75 82.28,-113.25 72.28,-109.75 72.28,-116.75"/>
</a>
</g>
</g>
<!-- Node3 -->
<g id="Node000003" class="node">
<title>Node3</title>
<g id="a_Node000003"><a xlink:href="$class_symfony_1_1_component_1_1_console_1_1_command_1_1_command.html#a1e9e143d493aedb855d3c5edadb17bb2" xlink:title=" ">
<polygon fill="white" stroke="#666666" points="320.62,-226.5 159.88,-226.5 159.88,-196 320.62,-196 320.62,-226.5"/>
<text text-anchor="start" x="167.88" y="-213" font-family="Helvetica,sans-Serif" font-size="10.00">Symfony\Component\Console</text>
<text text-anchor="middle" x="240.25" y="-201.75" font-family="Helvetica,sans-Serif" font-size="10.00">\Command\Command\getAliases</text>
</a>
</g>
</g>
<!-- Node2&#45;&gt;Node3 -->
<g id="edge18_Node000002_Node000003" class="edge">
<title>Node2&#45;&gt;Node3</title>
<g id="a_edge18_Node000002_Node000003"><a xlink:title=" ">
<path fill="none" stroke="#63b8ff" d="M105.33,-123.15C112.54,-138.91 128.75,-169.63 152,-186.25 153.95,-187.65 155.98,-188.96 158.07,-190.21"/>
<polygon fill="#63b8ff" stroke="#63b8ff" points="156.41,-193.29 166.89,-194.82 159.65,-187.08 156.41,-193.29"/>
</a>
</g>
</g>
<!-- Node4 -->
<g id="Node000004" class="node">
<title>Node4</title>
<g id="a_Node000004"><a xlink:href="$class_symfony_1_1_component_1_1_console_1_1_command_1_1_command.html#ada012e6c80eda0d807425b598b1dc611" xlink:title=" ">
<polygon fill="white" stroke="#666666" points="325.12,-177.5 155.38,-177.5 155.38,-147 325.12,-147 325.12,-177.5"/>
<text text-anchor="start" x="163.38" y="-164" font-family="Helvetica,sans-Serif" font-size="10.00">Symfony\Component\Console</text>
<text text-anchor="middle" x="240.25" y="-152.75" font-family="Helvetica,sans-Serif" font-size="10.00">\Command\Command\getDefinition</text>
</a>
</g>
</g>
<!-- Node2&#45;&gt;Node4 -->
<g id="edge19_Node000002_Node000004" class="edge">
<title>Node2&#45;&gt;Node4</title>
<g id="a_edge19_Node000002_Node000004"><a xlink:title=" ">
<path fill="none" stroke="#63b8ff" d="M116.43,-121.27C126.39,-126.28 139.75,-132.64 152,-137.25 157.39,-139.28 163.02,-141.24 168.72,-143.11"/>
<polygon fill="#63b8ff" stroke="#63b8ff" points="167.66,-146.44 178.25,-146.12 169.77,-139.77 167.66,-146.44"/>
</a>
</g>
</g>
<!-- Node6 -->
<g id="Node000006" class="node">
<title>Node6</title>
<g id="a_Node000006"><a xlink:href="$class_symfony_1_1_component_1_1_console_1_1_command_1_1_command.html#a3d0963e68bb313b163a73f2803c64600" xlink:title=" ">
<polygon fill="white" stroke="#666666" points="317.62,-128.5 162.88,-128.5 162.88,-98 317.62,-98 317.62,-128.5"/>
<text text-anchor="start" x="170.88" y="-115" font-family="Helvetica,sans-Serif" font-size="10.00">Symfony\Component\Console</text>
<text text-anchor="middle" x="240.25" y="-103.75" font-family="Helvetica,sans-Serif" font-size="10.00">\Command\Command\getName</text>
</a>
</g>
</g>
<!-- Node2&#45;&gt;Node6 -->
<g id="edge21_Node000002_Node000006" class="edge">
<title>Node2&#45;&gt;Node6</title>
<g id="a_edge21_Node000002_Node000006"><a xlink:title=" ">
<path fill="none" stroke="#63b8ff" d="M116.43,-113.25C125.49,-113.25 137.77,-113.25 151.08,-113.25"/>
<polygon fill="#63b8ff" stroke="#63b8ff" points="150.94,-116.75 160.94,-113.25 150.93,-109.75 150.94,-116.75"/>
</a>
</g>
</g>
<!-- Node7 -->
<g id="Node000007" class="node">
<title>Node7</title>
<g id="a_Node000007"><a xlink:href="$class_symfony_1_1_component_1_1_console_1_1_command_1_1_command.html#ad734dc60b64a242fe183e0c23b192790" xlink:title=" ">
<polygon fill="white" stroke="#666666" points="319.12,-79.5 161.38,-79.5 161.38,-49 319.12,-49 319.12,-79.5"/>
<text text-anchor="start" x="169.38" y="-66" font-family="Helvetica,sans-Serif" font-size="10.00">Symfony\Component\Console</text>
<text text-anchor="middle" x="240.25" y="-54.75" font-family="Helvetica,sans-Serif" font-size="10.00">\Command\Command\isEnabled</text>
</a>
</g>
</g>
<!-- Node2&#45;&gt;Node7 -->
<g id="edge22_Node000002_Node000007" class="edge">
<title>Node2&#45;&gt;Node7</title>
<g id="a_edge22_Node000002_Node000007"><a xlink:title=" ">
<path fill="none" stroke="#63b8ff" d="M116.43,-105.23C126.39,-100.22 139.75,-93.86 152,-89.25 157.39,-87.22 163.02,-85.26 168.72,-83.39"/>
<polygon fill="#63b8ff" stroke="#63b8ff" points="169.77,-86.73 178.25,-80.38 167.66,-80.06 169.77,-86.73"/>
</a>
</g>
</g>
<!-- Node8 -->
<g id="Node000008" class="node">
<title>Node8</title>
<g id="a_Node000008"><a xlink:href="$class_symfony_1_1_component_1_1_console_1_1_command_1_1_command.html#ac08817b122da6241cfda88dab20d1580" xlink:title=" ">
<polygon fill="white" stroke="#666666" points="328.5,-30.5 152,-30.5 152,0 328.5,0 328.5,-30.5"/>
<text text-anchor="start" x="160" y="-17" font-family="Helvetica,sans-Serif" font-size="10.00">Symfony\Component\Console</text>
<text text-anchor="middle" x="240.25" y="-5.75" font-family="Helvetica,sans-Serif" font-size="10.00">\Command\Command\setApplication</text>
</a>
</g>
</g>
<!-- Node2&#45;&gt;Node8 -->
<g id="edge23_Node000002_Node000008" class="edge">
<title>Node2&#45;&gt;Node8</title>
<g id="a_edge23_Node000002_Node000008"><a xlink:title=" ">
<path fill="none" stroke="#63b8ff" d="M105.33,-103.35C112.54,-87.59 128.75,-56.87 152,-40.25 153.95,-38.85 155.98,-37.54 158.07,-36.29"/>
<polygon fill="#63b8ff" stroke="#63b8ff" points="159.65,-39.42 166.89,-31.68 156.41,-33.21 159.65,-39.42"/>
</a>
</g>
</g>
<!-- Node5 -->
<g id="Node000005" class="node">
<title>Node5</title>
<g id="a_Node000005"><a xlink:href="$class_symfony_1_1_component_1_1_console_1_1_command_1_1_command.html#a17ec119cfcc5daca5b53683485c1eb06" xlink:title=" ">
<polygon fill="white" stroke="#666666" points="562.75,-177.5 364.5,-177.5 364.5,-147 562.75,-147 562.75,-177.5"/>
<text text-anchor="start" x="372.5" y="-164" font-family="Helvetica,sans-Serif" font-size="10.00">Symfony\Component\Console</text>
<text text-anchor="middle" x="463.62" y="-152.75" font-family="Helvetica,sans-Serif" font-size="10.00">\Command\Command\getNativeDefinition</text>
</a>
</g>
</g>
<!-- Node4&#45;&gt;Node5 -->
<g id="edge20_Node000004_Node000005" class="edge">
<title>Node4&#45;&gt;Node5</title>
<g id="a_edge20_Node000004_Node000005"><a xlink:title=" ">
<path fill="none" stroke="#63b8ff" d="M325.57,-162.25C334.42,-162.25 343.51,-162.25 352.59,-162.25"/>
<polygon fill="#63b8ff" stroke="#63b8ff" points="352.56,-165.75 362.56,-162.25 352.56,-158.75 352.56,-165.75"/>
</a>
</g>
</g>
<!-- Node9 -->
<g id="Node000009" class="node">
<title>Node9</title>
<g id="a_Node000009"><a xlink:href="$class_symfony_1_1_component_1_1_console_1_1_command_1_1_command.html#aecf1f6a1602177835dc036e8b4fef061" xlink:title=" ">
<polygon fill="white" stroke="#666666" points="549.62,-30.5 377.62,-30.5 377.62,0 549.62,0 549.62,-30.5"/>
<text text-anchor="start" x="385.62" y="-17" font-family="Helvetica,sans-Serif" font-size="10.00">Symfony\Component\Console</text>
<text text-anchor="middle" x="463.62" y="-5.75" font-family="Helvetica,sans-Serif" font-size="10.00">\Command\Command\setHelperSet</text>
</a>
</g>
</g>
<!-- Node8&#45;&gt;Node9 -->
<g id="edge24_Node000008_Node000009" class="edge">
<title>Node8&#45;&gt;Node9</title>
<g id="a_edge24_Node000008_Node000009"><a xlink:title=" ">
<path fill="none" stroke="#63b8ff" d="M328.74,-15.25C340.96,-15.25 353.57,-15.25 365.94,-15.25"/>
<polygon fill="#63b8ff" stroke="#63b8ff" points="365.7,-18.75 375.7,-15.25 365.7,-11.75 365.7,-18.75"/>
</a>
</g>
</g>
</g>
</svg>
