<?xml version="1.0" encoding="UTF-8" standalone="no"?>
<!DOCTYPE svg PUBLIC "-//W3C//DTD SVG 1.1//EN"
 "http://www.w3.org/Graphics/SVG/1.1/DTD/svg11.dtd">
<!-- Generated by graphviz version 10.0.1 (20240210.2158)
 -->
<!-- Title: _disconnect Pages: 1 -->
<svg width="645pt" height="210pt"
 viewBox="0.00 0.00 644.50 209.88" xmlns="http://www.w3.org/2000/svg" xmlns:xlink="http://www.w3.org/1999/xlink">
<g id="graph0" class="graph" transform="scale(1 1) rotate(0) translate(4 205.88)">
<title>_disconnect</title>
<!-- Node1 -->
<g id="Node000001" class="node">
<title>Node1</title>
<g id="a_Node000001"><a xlink:title=" ">
<polygon fill="#999999" stroke="#666666" points="68.5,-93.25 0,-93.25 0,-74 68.5,-74 68.5,-93.25"/>
<text text-anchor="middle" x="34.25" y="-79.75" font-family="Helvetica,sans-Serif" font-size="10.00">_disconnect</text>
</a>
</g>
</g>
<!-- Node2 -->
<g id="Node000002" class="node">
<title>Node2</title>
<g id="a_Node000002"><a xlink:href="$class_laminas_1_1_mail_1_1_protocol_1_1_smtp.html#a24c9a28cada7b725be33705a57dff8e7" xlink:title=" ">
<polygon fill="white" stroke="#666666" points="136.25,-93.25 104.5,-93.25 104.5,-74 136.25,-74 136.25,-93.25"/>
<text text-anchor="middle" x="120.38" y="-79.75" font-family="Helvetica,sans-Serif" font-size="10.00">quit</text>
</a>
</g>
</g>
<!-- Node1&#45;&gt;Node2 -->
<g id="edge21_Node000001_Node000002" class="edge">
<title>Node1&#45;&gt;Node2</title>
<g id="a_edge21_Node000001_Node000002"><a xlink:title=" ">
<path fill="none" stroke="#63b8ff" d="M68.98,-83.62C76.93,-83.62 85.28,-83.62 92.86,-83.62"/>
<polygon fill="#63b8ff" stroke="#63b8ff" points="92.78,-87.13 102.78,-83.63 92.78,-80.13 92.78,-87.13"/>
</a>
</g>
</g>
<!-- Node3 -->
<g id="Node000003" class="node">
<title>Node3</title>
<g id="a_Node000003"><a xlink:href="$class_laminas_1_1_mail_1_1_protocol_1_1_abstract_protocol.html#ad025c6a68277837733e0776e40446f13" xlink:title=" ">
<polygon fill="white" stroke="#666666" points="301.5,-200.88 172.25,-200.88 172.25,-170.38 301.5,-170.38 301.5,-200.88"/>
<text text-anchor="start" x="180.25" y="-187.38" font-family="Helvetica,sans-Serif" font-size="10.00">Laminas\Mail\Protocol</text>
<text text-anchor="middle" x="236.88" y="-176.12" font-family="Helvetica,sans-Serif" font-size="10.00">\AbstractProtocol\_expect</text>
</a>
</g>
</g>
<!-- Node2&#45;&gt;Node3 -->
<g id="edge22_Node000002_Node000003" class="edge">
<title>Node2&#45;&gt;Node3</title>
<g id="a_edge22_Node000002_Node000003"><a xlink:title=" ">
<path fill="none" stroke="#63b8ff" d="M126.45,-93.35C134.49,-108.01 151.41,-135.92 172.25,-153.62 176.9,-157.58 182.13,-161.2 187.53,-164.46"/>
<polygon fill="#63b8ff" stroke="#63b8ff" points="185.61,-167.39 196.04,-169.22 189.02,-161.28 185.61,-167.39"/>
</a>
</g>
</g>
<!-- Node6 -->
<g id="Node000006" class="node">
<title>Node6</title>
<g id="a_Node000006"><a xlink:href="$class_laminas_1_1_mail_1_1_protocol_1_1_abstract_protocol.html#ae0f3637f16d97ccf9b9c16e2676e550f" xlink:title=" ">
<polygon fill="white" stroke="#666666" points="463.75,-152.88 342.75,-152.88 342.75,-122.38 463.75,-122.38 463.75,-152.88"/>
<text text-anchor="start" x="350.75" y="-139.38" font-family="Helvetica,sans-Serif" font-size="10.00">Laminas\Mail\Protocol</text>
<text text-anchor="middle" x="403.25" y="-128.12" font-family="Helvetica,sans-Serif" font-size="10.00">\AbstractProtocol\_send</text>
</a>
</g>
</g>
<!-- Node2&#45;&gt;Node6 -->
<g id="edge25_Node000002_Node000006" class="edge">
<title>Node2&#45;&gt;Node6</title>
<g id="a_edge25_Node000002_Node000006"><a xlink:title=" ">
<path fill="none" stroke="#63b8ff" d="M131.28,-93.47C140.86,-102.31 156.25,-114.76 172.25,-120.62 223.2,-139.3 284.66,-142.96 331.22,-142.28"/>
<polygon fill="#63b8ff" stroke="#63b8ff" points="331.29,-145.78 341.21,-142.05 331.13,-138.78 331.29,-145.78"/>
</a>
</g>
</g>
<!-- Node7 -->
<g id="Node000007" class="node">
<title>Node7</title>
<g id="a_Node000007"><a xlink:href="$class_laminas_1_1_mail_1_1_protocol_1_1_smtp.html#a179c640294162bab4a85587e82572fa7" xlink:title=" ">
<polygon fill="white" stroke="#666666" points="254.25,-93.25 219.5,-93.25 219.5,-74 254.25,-74 254.25,-93.25"/>
<text text-anchor="middle" x="236.88" y="-79.75" font-family="Helvetica,sans-Serif" font-size="10.00">auth</text>
</a>
</g>
</g>
<!-- Node2&#45;&gt;Node7 -->
<g id="edge27_Node000002_Node000007" class="edge">
<title>Node2&#45;&gt;Node7</title>
<g id="a_edge27_Node000002_Node000007"><a xlink:title=" ">
<path fill="none" stroke="#63b8ff" d="M136.34,-83.62C154.43,-83.62 185.24,-83.62 207.8,-83.62"/>
<polygon fill="#63b8ff" stroke="#63b8ff" points="207.53,-87.13 217.53,-83.63 207.53,-80.13 207.53,-87.13"/>
</a>
</g>
</g>
<!-- Node8 -->
<g id="Node000008" class="node">
<title>Node8</title>
<g id="a_Node000008"><a xlink:href="$class_laminas_1_1_mail_1_1_protocol_1_1_smtp.html#ad126695a11f232e0e1f456a7513db2f2" xlink:title=" ">
<polygon fill="white" stroke="#666666" points="271.88,-56.25 201.88,-56.25 201.88,-37 271.88,-37 271.88,-56.25"/>
<text text-anchor="middle" x="236.88" y="-42.75" font-family="Helvetica,sans-Serif" font-size="10.00">stopSession</text>
</a>
</g>
</g>
<!-- Node2&#45;&gt;Node8 -->
<g id="edge29_Node000002_Node000008" class="edge">
<title>Node2&#45;&gt;Node8</title>
<g id="a_edge29_Node000002_Node000008"><a xlink:title=" ">
<path fill="none" stroke="#63b8ff" d="M136.4,-77.65C146.47,-73.73 160.06,-68.62 172.25,-64.62 178.11,-62.7 184.32,-60.8 190.47,-58.98"/>
<polygon fill="#63b8ff" stroke="#63b8ff" points="191.29,-62.39 199.92,-56.25 189.35,-55.66 191.29,-62.39"/>
</a>
</g>
</g>
<!-- Node9 -->
<g id="Node000009" class="node">
<title>Node9</title>
<g id="a_Node000009"><a xlink:href="$class_laminas_1_1_mail_1_1_protocol_1_1_smtp.html#afcd3c8fa9fe06e2ad03a7e2c93361178" xlink:title=" ">
<polygon fill="white" stroke="#666666" points="282.75,-19.25 191,-19.25 191,0 282.75,0 282.75,-19.25"/>
<text text-anchor="middle" x="236.88" y="-5.75" font-family="Helvetica,sans-Serif" font-size="10.00">useCompleteQuit</text>
</a>
</g>
</g>
<!-- Node2&#45;&gt;Node9 -->
<g id="edge30_Node000002_Node000009" class="edge">
<title>Node2&#45;&gt;Node9</title>
<g id="a_edge30_Node000002_Node000009"><a xlink:title=" ">
<path fill="none" stroke="#63b8ff" d="M127.71,-73.77C136.3,-61.2 152.82,-39.66 172.25,-27.62 174.81,-26.04 177.52,-24.58 180.32,-23.26"/>
<polygon fill="#63b8ff" stroke="#63b8ff" points="181.41,-26.59 189.33,-19.56 178.75,-20.12 181.41,-26.59"/>
</a>
</g>
</g>
<!-- Node4 -->
<g id="Node000004" class="node">
<title>Node4</title>
<g id="a_Node000004"><a xlink:href="$class_laminas_1_1_mail_1_1_protocol_1_1_abstract_protocol.html#a1b16678d668491625c5b66ee54a2838f" xlink:title=" ">
<polygon fill="white" stroke="#666666" points="469,-201.88 337.5,-201.88 337.5,-171.38 469,-171.38 469,-201.88"/>
<text text-anchor="start" x="345.5" y="-188.38" font-family="Helvetica,sans-Serif" font-size="10.00">Laminas\Mail\Protocol</text>
<text text-anchor="middle" x="403.25" y="-177.12" font-family="Helvetica,sans-Serif" font-size="10.00">\AbstractProtocol\_receive</text>
</a>
</g>
</g>
<!-- Node3&#45;&gt;Node4 -->
<g id="edge23_Node000003_Node000004" class="edge">
<title>Node3&#45;&gt;Node4</title>
<g id="a_edge23_Node000003_Node000004"><a xlink:title=" ">
<path fill="none" stroke="#63b8ff" d="M301.9,-186.01C309.65,-186.06 317.63,-186.11 325.54,-186.16"/>
<polygon fill="#63b8ff" stroke="#63b8ff" points="325.51,-189.66 335.54,-186.22 325.56,-182.66 325.51,-189.66"/>
</a>
</g>
</g>
<!-- Node5 -->
<g id="Node000005" class="node">
<title>Node5</title>
<g id="a_Node000005"><a xlink:href="$class_laminas_1_1_mail_1_1_protocol_1_1_abstract_protocol.html#aa3b656f64eaf50db2f8e5b1f81724ede" xlink:title=" ">
<polygon fill="white" stroke="#666666" points="636.5,-176.88 505,-176.88 505,-146.38 636.5,-146.38 636.5,-176.88"/>
<text text-anchor="start" x="513" y="-163.38" font-family="Helvetica,sans-Serif" font-size="10.00">Laminas\Mail\Protocol</text>
<text text-anchor="middle" x="570.75" y="-152.12" font-family="Helvetica,sans-Serif" font-size="10.00">\AbstractProtocol\_addLog</text>
</a>
</g>
</g>
<!-- Node4&#45;&gt;Node5 -->
<g id="edge24_Node000004_Node000005" class="edge">
<title>Node4&#45;&gt;Node5</title>
<g id="a_edge24_Node000004_Node000005"><a xlink:title=" ">
<path fill="none" stroke="#63b8ff" d="M469.18,-176.82C477.13,-175.62 485.29,-174.38 493.38,-173.16"/>
<polygon fill="#63b8ff" stroke="#63b8ff" points="493.87,-176.63 503.23,-171.67 492.82,-169.71 493.87,-176.63"/>
</a>
</g>
</g>
<!-- Node6&#45;&gt;Node5 -->
<g id="edge26_Node000006_Node000005" class="edge">
<title>Node6&#45;&gt;Node5</title>
<g id="a_edge26_Node000006_Node000005"><a xlink:title=" ">
<path fill="none" stroke="#63b8ff" d="M464,-146.29C473.62,-147.68 483.69,-149.14 493.63,-150.59"/>
<polygon fill="#63b8ff" stroke="#63b8ff" points="492.87,-154.01 503.27,-151.98 493.88,-147.09 492.87,-154.01"/>
</a>
</g>
</g>
<!-- Node7&#45;&gt;Node7 -->
<g id="edge28_Node000007_Node000007" class="edge">
<title>Node7&#45;&gt;Node7</title>
<g id="a_edge28_Node000007_Node000007"><a xlink:title=" ">
<path fill="none" stroke="#63b8ff" d="M219.21,-92.97C210.05,-101.74 215.94,-111.25 236.88,-111.25 248.98,-111.25 256.05,-108.07 258.1,-103.69"/>
<polygon fill="#63b8ff" stroke="#63b8ff" points="261.48,-102.79 255.01,-94.4 254.84,-105 261.48,-102.79"/>
</a>
</g>
</g>
</g>
</svg>
