<?xml version="1.0" encoding="UTF-8" standalone="no"?>
<!DOCTYPE svg PUBLIC "-//W3C//DTD SVG 1.1//EN"
 "http://www.w3.org/Graphics/SVG/1.1/DTD/svg11.dtd">
<!-- Generated by graphviz version 10.0.1 (20240210.2158)
 -->
<!-- Title: restoreInput Pages: 1 -->
<svg width="350pt" height="46pt"
 viewBox="0.00 0.00 350.00 46.25" xmlns="http://www.w3.org/2000/svg" xmlns:xlink="http://www.w3.org/1999/xlink">
<g id="graph0" class="graph" transform="scale(1 1) rotate(0) translate(4 42.25)">
<title>restoreInput</title>
<!-- Node1 -->
<g id="Node000001" class="node">
<title>Node1</title>
<g id="a_Node000001"><a xlink:title=" ">
<polygon fill="#999999" stroke="#666666" points="67.75,-19.25 0,-19.25 0,0 67.75,0 67.75,-19.25"/>
<text text-anchor="middle" x="33.88" y="-5.75" font-family="Helvetica,sans-Serif" font-size="10.00">restoreInput</text>
</a>
</g>
</g>
<!-- Node2 -->
<g id="Node000002" class="node">
<title>Node2</title>
<g id="a_Node000002"><a xlink:href="$class_common_d_b_t_m.html#a9676fff012745218481e021cfbd93c6a" xlink:title=" ">
<polygon fill="white" stroke="#666666" points="190.25,-38.25 103.75,-38.25 103.75,-19 190.25,-19 190.25,-38.25"/>
<text text-anchor="middle" x="147" y="-24.75" font-family="Helvetica,sans-Serif" font-size="10.00">clearSavedInput</text>
</a>
</g>
</g>
<!-- Node1&#45;&gt;Node2 -->
<g id="edge7_Node000001_Node000002" class="edge">
<title>Node1&#45;&gt;Node2</title>
<g id="a_edge7_Node000001_Node000002"><a xlink:title=" ">
<path fill="none" stroke="#63b8ff" d="M68.22,-15.33C75.86,-16.63 84.18,-18.06 92.45,-19.47"/>
<polygon fill="#63b8ff" stroke="#63b8ff" points="91.67,-22.89 102.11,-21.12 92.85,-15.99 91.67,-22.89"/>
</a>
</g>
</g>
<!-- Node3 -->
<g id="Node000003" class="node">
<title>Node3</title>
<g id="a_Node000003"><a xlink:href="$class_common_g_l_p_i.html#a3dadfbfaa3d8e3b5fe01a60e28640ddb" xlink:title=" ">
<polygon fill="white" stroke="#666666" points="342,-19.25 226.25,-19.25 226.25,0 342,0 342,-19.25"/>
<text text-anchor="middle" x="284.12" y="-5.75" font-family="Helvetica,sans-Serif" font-size="10.00">CommonGLPI\getType</text>
</a>
</g>
</g>
<!-- Node1&#45;&gt;Node3 -->
<g id="edge9_Node000001_Node000003" class="edge">
<title>Node1&#45;&gt;Node3</title>
<g id="a_edge9_Node000001_Node000003"><a xlink:title=" ">
<path fill="none" stroke="#63b8ff" d="M68.1,-9.62C105.32,-9.62 166.7,-9.62 214.37,-9.62"/>
<polygon fill="#63b8ff" stroke="#63b8ff" points="214.35,-13.13 224.35,-9.63 214.35,-6.13 214.35,-13.13"/>
</a>
</g>
</g>
<!-- Node2&#45;&gt;Node3 -->
<g id="edge8_Node000002_Node000003" class="edge">
<title>Node2&#45;&gt;Node3</title>
<g id="a_edge8_Node000002_Node000003"><a xlink:title=" ">
<path fill="none" stroke="#63b8ff" d="M190.38,-22.67C198.15,-21.57 206.44,-20.41 214.74,-19.24"/>
<polygon fill="#63b8ff" stroke="#63b8ff" points="215.12,-22.72 224.53,-17.86 214.14,-15.79 215.12,-22.72"/>
</a>
</g>
</g>
</g>
</svg>
