<?xml version="1.0" encoding="UTF-8" standalone="no"?>
<!DOCTYPE svg PUBLIC "-//W3C//DTD SVG 1.1//EN"
 "http://www.w3.org/Graphics/SVG/1.1/DTD/svg11.dtd">
<!-- Generated by graphviz version 10.0.1 (20240210.2158)
 -->
<!-- Title: defineTabs Pages: 1 -->
<svg width="1238pt" height="512pt"
 viewBox="0.00 0.00 1237.50 512.25" xmlns="http://www.w3.org/2000/svg" xmlns:xlink="http://www.w3.org/1999/xlink">
<g id="graph0" class="graph" transform="scale(1 1) rotate(0) translate(4 508.25)">
<title>defineTabs</title>
<!-- Node1 -->
<g id="Node000001" class="node">
<title>Node1</title>
<g id="a_Node000001"><a xlink:title=" ">
<polygon fill="#999999" stroke="#666666" points="63.25,-75.25 0,-75.25 0,-56 63.25,-56 63.25,-75.25"/>
<text text-anchor="middle" x="31.62" y="-61.75" font-family="Helvetica,sans-Serif" font-size="10.00">defineTabs</text>
</a>
</g>
</g>
<!-- Node2 -->
<g id="Node000002" class="node">
<title>Node2</title>
<g id="a_Node000002"><a xlink:href="$class_common_i_t_i_l_object.html#a93a8283336cdbc32abed8dd9cbbe2fc9" xlink:title=" ">
<polygon fill="white" stroke="#666666" points="258.12,-207.88 106.38,-207.88 106.38,-177.38 258.12,-177.38 258.12,-207.88"/>
<text text-anchor="start" x="114.38" y="-194.38" font-family="Helvetica,sans-Serif" font-size="10.00">CommonITILObject\addDefault</text>
<text text-anchor="middle" x="182.25" y="-183.12" font-family="Helvetica,sans-Serif" font-size="10.00">FormTab</text>
</a>
</g>
</g>
<!-- Node1&#45;&gt;Node2 -->
<g id="edge67_Node000001_Node000002" class="edge">
<title>Node1&#45;&gt;Node2</title>
<g id="a_edge67_Node000001_Node000002"><a xlink:title=" ">
<path fill="none" stroke="#63b8ff" d="M44.29,-75.59C67.81,-95.69 121.47,-141.54 154.2,-169.51"/>
<polygon fill="#63b8ff" stroke="#63b8ff" points="151.81,-172.07 161.69,-175.91 156.36,-166.75 151.81,-172.07"/>
</a>
</g>
</g>
<!-- Node15 -->
<g id="Node000015" class="node">
<title>Node15</title>
<g id="a_Node000015"><a xlink:href="$class_common_d_b_t_m.html#a1ad0e84aef9bfb7fe28ac6fcafa1b14b" xlink:title=" ">
<polygon fill="white" stroke="#666666" points="1031.62,-130.25 894.88,-130.25 894.88,-111 1031.62,-111 1031.62,-130.25"/>
<text text-anchor="middle" x="963.25" y="-116.75" font-family="Helvetica,sans-Serif" font-size="10.00">CommonDBTM\getEntityID</text>
</a>
</g>
</g>
<!-- Node1&#45;&gt;Node15 -->
<g id="edge97_Node000001_Node000015" class="edge">
<title>Node1&#45;&gt;Node15</title>
<g id="a_edge97_Node000001_Node000015"><a xlink:title=" ">
<path fill="none" stroke="#63b8ff" d="M63.52,-68.47C123.84,-73.77 261.55,-84.62 377.62,-84.62 377.62,-84.62 377.62,-84.62 578.62,-84.62 684.78,-84.62 806.75,-98.46 884.12,-108.98"/>
<polygon fill="#63b8ff" stroke="#63b8ff" points="883.33,-112.4 893.71,-110.29 884.28,-105.46 883.33,-112.4"/>
</a>
</g>
</g>
<!-- Node26 -->
<g id="Node000026" class="node">
<title>Node26</title>
<g id="a_Node000026"><a xlink:href="$class_common_g_l_p_i.html#ab1df24e1ccc8526d42442fe90aa627cd" xlink:title=" ">
<polygon fill="white" stroke="#666666" points="258.12,-56.25 106.38,-56.25 106.38,-37 258.12,-37 258.12,-56.25"/>
<text text-anchor="middle" x="182.25" y="-42.75" font-family="Helvetica,sans-Serif" font-size="10.00">CommonGLPI\addStandardTab</text>
</a>
</g>
</g>
<!-- Node1&#45;&gt;Node26 -->
<g id="edge95_Node000001_Node000026" class="edge">
<title>Node1&#45;&gt;Node26</title>
<g id="a_edge95_Node000001_Node000026"><a xlink:title=" ">
<path fill="none" stroke="#63b8ff" d="M63.42,-61.69C72.79,-60.49 83.59,-59.11 94.77,-57.68"/>
<polygon fill="#63b8ff" stroke="#63b8ff" points="95.06,-61.17 104.54,-56.43 94.17,-54.23 95.06,-61.17"/>
</a>
</g>
</g>
<!-- Node28 -->
<g id="Node000028" class="node">
<title>Node28</title>
<g id="a_Node000028"><a xlink:href="$class_common_i_t_i_l_object.html#ac1876b38a7e6f38323e6eeb3a56dff0c" xlink:title=" ">
<polygon fill="white" stroke="#666666" points="265.25,-19.25 99.25,-19.25 99.25,0 265.25,0 265.25,-19.25"/>
<text text-anchor="middle" x="182.25" y="-5.75" font-family="Helvetica,sans-Serif" font-size="10.00">CommonITILObject\hasImpactTab</text>
</a>
</g>
</g>
<!-- Node1&#45;&gt;Node28 -->
<g id="edge98_Node000001_Node000028" class="edge">
<title>Node1&#45;&gt;Node28</title>
<g id="a_edge98_Node000001_Node000028"><a xlink:title=" ">
<path fill="none" stroke="#63b8ff" d="M47.32,-55.5C60.41,-46.93 80.36,-34.89 99.25,-27.62 103.89,-25.84 108.75,-24.21 113.69,-22.73"/>
<polygon fill="#63b8ff" stroke="#63b8ff" points="114.41,-26.16 123.11,-20.12 112.54,-19.42 114.41,-26.16"/>
</a>
</g>
</g>
<!-- Node3 -->
<g id="Node000003" class="node">
<title>Node3</title>
<g id="a_Node000003"><a xlink:href="$class_common_i_t_i_l_object.html#a6380a1a86ca6891dab61cba770a319e1" xlink:title=" ">
<polygon fill="white" stroke="#666666" points="456,-303.88 301.25,-303.88 301.25,-273.38 456,-273.38 456,-303.88"/>
<text text-anchor="start" x="309.25" y="-290.38" font-family="Helvetica,sans-Serif" font-size="10.00">CommonITILObject\getTimeline</text>
<text text-anchor="middle" x="378.62" y="-279.12" font-family="Helvetica,sans-Serif" font-size="10.00">Items</text>
</a>
</g>
</g>
<!-- Node2&#45;&gt;Node3 -->
<g id="edge68_Node000002_Node000003" class="edge">
<title>Node2&#45;&gt;Node3</title>
<g id="a_edge68_Node000002_Node000003"><a xlink:title=" ">
<path fill="none" stroke="#63b8ff" d="M214.91,-208.26C247.81,-224.51 299.46,-250.02 335.72,-267.93"/>
<polygon fill="#63b8ff" stroke="#63b8ff" points="334.1,-271.03 344.62,-272.32 337.2,-264.76 334.1,-271.03"/>
</a>
</g>
</g>
<!-- Node24 -->
<g id="Node000024" class="node">
<title>Node24</title>
<g id="a_Node000024"><a xlink:href="$class_common_g_l_p_i.html#a3dadfbfaa3d8e3b5fe01a60e28640ddb" xlink:title=" ">
<polygon fill="white" stroke="#666666" points="436.5,-221.25 320.75,-221.25 320.75,-202 436.5,-202 436.5,-221.25"/>
<text text-anchor="middle" x="378.62" y="-207.75" font-family="Helvetica,sans-Serif" font-size="10.00">CommonGLPI\getType</text>
</a>
</g>
</g>
<!-- Node2&#45;&gt;Node24 -->
<g id="edge93_Node000002_Node000024" class="edge">
<title>Node2&#45;&gt;Node24</title>
<g id="a_edge93_Node000002_Node000024"><a xlink:title=" ">
<path fill="none" stroke="#63b8ff" d="M258.4,-199.97C275.15,-201.61 292.83,-203.34 309.29,-204.95"/>
<polygon fill="#63b8ff" stroke="#63b8ff" points="308.66,-208.4 318.96,-205.89 309.34,-201.43 308.66,-208.4"/>
</a>
</g>
</g>
<!-- Node25 -->
<g id="Node000025" class="node">
<title>Node25</title>
<g id="a_Node000025"><a xlink:href="$class_common_g_l_p_i.html#ad85cd59496993b8ba622266fe36807ef" xlink:title=" ">
<polygon fill="white" stroke="#666666" points="449.62,-184.25 307.62,-184.25 307.62,-165 449.62,-165 449.62,-184.25"/>
<text text-anchor="middle" x="378.62" y="-170.75" font-family="Helvetica,sans-Serif" font-size="10.00">CommonGLPI\getTypeName</text>
</a>
</g>
</g>
<!-- Node2&#45;&gt;Node25 -->
<g id="edge94_Node000002_Node000025" class="edge">
<title>Node2&#45;&gt;Node25</title>
<g id="a_edge94_Node000002_Node000025"><a xlink:title=" ">
<path fill="none" stroke="#63b8ff" d="M258.4,-185.67C270.67,-184.53 283.43,-183.35 295.85,-182.2"/>
<polygon fill="#63b8ff" stroke="#63b8ff" points="295.99,-185.7 305.63,-181.29 295.35,-178.73 295.99,-185.7"/>
</a>
</g>
</g>
<!-- Node4 -->
<g id="Node000004" class="node">
<title>Node4</title>
<g id="a_Node000004"><a xlink:href="$autoload_8function_8php.html#affc4787304a41a695a489fc24d60877d" xlink:title=" ">
<polygon fill="white" stroke="#666666" points="593.5,-467.25 561.75,-467.25 561.75,-448 593.5,-448 593.5,-467.25"/>
<text text-anchor="middle" x="577.62" y="-453.75" font-family="Helvetica,sans-Serif" font-size="10.00">_sx</text>
</a>
</g>
</g>
<!-- Node3&#45;&gt;Node4 -->
<g id="edge69_Node000003_Node000004" class="edge">
<title>Node3&#45;&gt;Node4</title>
<g id="a_edge69_Node000003_Node000004"><a xlink:title=" ">
<path fill="none" stroke="#63b8ff" d="M386.37,-303.92C400.86,-334.9 438.09,-405.05 492,-439.62 509.36,-450.76 532.44,-455.13 550.12,-456.79"/>
<polygon fill="#63b8ff" stroke="#63b8ff" points="549.63,-460.26 559.84,-457.45 550.1,-453.28 549.63,-460.26"/>
</a>
</g>
</g>
<!-- Node6 -->
<g id="Node000006" class="node">
<title>Node6</title>
<g id="a_Node000006"><a xlink:href="$class_common_g_l_p_i.html#a7b6e78be606d37e5c8eafedb0c09937c" xlink:title=" ">
<polygon fill="white" stroke="#666666" points="640.75,-430.25 514.5,-430.25 514.5,-411 640.75,-411 640.75,-430.25"/>
<text text-anchor="middle" x="577.62" y="-416.75" font-family="Helvetica,sans-Serif" font-size="10.00">CommonGLPI\canCreate</text>
</a>
</g>
</g>
<!-- Node3&#45;&gt;Node6 -->
<g id="edge71_Node000003_Node000006" class="edge">
<title>Node3&#45;&gt;Node6</title>
<g id="a_edge71_Node000003_Node000006"><a xlink:title=" ">
<path fill="none" stroke="#63b8ff" d="M390.36,-304.37C408.3,-329.39 446.91,-377.93 492,-402.62 495.64,-404.62 499.48,-406.39 503.43,-407.97"/>
<polygon fill="#63b8ff" stroke="#63b8ff" points="502.08,-411.2 512.68,-411.2 504.39,-404.6 502.08,-411.2"/>
</a>
</g>
</g>
<!-- Node7 -->
<g id="Node000007" class="node">
<title>Node7</title>
<g id="a_Node000007"><a xlink:href="$class_common_g_l_p_i.html#a99c1b2ead845d02b2e3d8b39a5456c2f" xlink:title=" ">
<polygon fill="white" stroke="#666666" points="640.38,-393.25 514.88,-393.25 514.88,-374 640.38,-374 640.38,-393.25"/>
<text text-anchor="middle" x="577.62" y="-379.75" font-family="Helvetica,sans-Serif" font-size="10.00">CommonGLPI\canDelete</text>
</a>
</g>
</g>
<!-- Node3&#45;&gt;Node7 -->
<g id="edge72_Node000003_Node000007" class="edge">
<title>Node3&#45;&gt;Node7</title>
<g id="a_edge72_Node000003_Node000007"><a xlink:title=" ">
<path fill="none" stroke="#63b8ff" d="M400.14,-304.15C421.93,-320 457.86,-344.38 492,-359.62 501.12,-363.7 511.1,-367.25 520.91,-370.29"/>
<polygon fill="#63b8ff" stroke="#63b8ff" points="519.82,-373.62 530.4,-373.08 521.79,-366.91 519.82,-373.62"/>
</a>
</g>
</g>
<!-- Node8 -->
<g id="Node000008" class="node">
<title>Node8</title>
<g id="a_Node000008"><a xlink:href="$class_common_i_t_i_l_object.html#a17430b190a761ae327e0e345a3668e91" xlink:title=" ">
<polygon fill="white" stroke="#666666" points="650.12,-317.25 505.12,-317.25 505.12,-298 650.12,-298 650.12,-317.25"/>
<text text-anchor="middle" x="577.62" y="-303.75" font-family="Helvetica,sans-Serif" font-size="10.00">CommonITILObject\canSolve</text>
</a>
</g>
</g>
<!-- Node3&#45;&gt;Node8 -->
<g id="edge73_Node000003_Node000008" class="edge">
<title>Node3&#45;&gt;Node8</title>
<g id="a_edge73_Node000003_Node000008"><a xlink:title=" ">
<path fill="none" stroke="#63b8ff" d="M456.35,-296.03C468.6,-297.21 481.31,-298.43 493.69,-299.63"/>
<polygon fill="#63b8ff" stroke="#63b8ff" points="493.14,-303.09 503.43,-300.57 493.81,-296.12 493.14,-303.09"/>
</a>
</g>
</g>
<!-- Node9 -->
<g id="Node000009" class="node">
<title>Node9</title>
<g id="a_Node000009"><a xlink:href="$class_common_i_t_i_l_object.html#aced95372775ee15f9540cf0d02ffdcb4" xlink:title=" ">
<polygon fill="white" stroke="#666666" points="852.88,-362.88 704.12,-362.88 704.12,-332.38 852.88,-332.38 852.88,-362.88"/>
<text text-anchor="start" x="712.12" y="-349.38" font-family="Helvetica,sans-Serif" font-size="10.00">CommonITILObject\getClosed</text>
<text text-anchor="middle" x="778.5" y="-338.12" font-family="Helvetica,sans-Serif" font-size="10.00">StatusArray</text>
</a>
</g>
</g>
<!-- Node3&#45;&gt;Node9 -->
<g id="edge89_Node000003_Node000009" class="edge">
<title>Node3&#45;&gt;Node9</title>
<g id="a_edge89_Node000003_Node000009"><a xlink:title=" ">
<path fill="none" stroke="#63b8ff" d="M417.97,-304.28C439.38,-312.34 466.77,-321.52 492,-326.62 558.56,-340.1 635.4,-345.17 692.59,-346.97"/>
<polygon fill="#63b8ff" stroke="#63b8ff" points="692.15,-350.46 702.24,-347.25 692.35,-343.47 692.15,-350.46"/>
</a>
</g>
</g>
<!-- Node12 -->
<g id="Node000012" class="node">
<title>Node12</title>
<g id="a_Node000012"><a xlink:href="$class_common_g_l_p_i.html#a39eb4a1ba141460eeb8cae957c28c94a" xlink:title=" ">
<polygon fill="white" stroke="#666666" points="641.88,-280.25 513.38,-280.25 513.38,-261 641.88,-261 641.88,-280.25"/>
<text text-anchor="middle" x="577.62" y="-266.75" font-family="Helvetica,sans-Serif" font-size="10.00">CommonGLPI\canUpdate</text>
</a>
</g>
</g>
<!-- Node3&#45;&gt;Node12 -->
<g id="edge77_Node000003_Node000012" class="edge">
<title>Node3&#45;&gt;Node12</title>
<g id="a_edge77_Node000003_Node000012"><a xlink:title=" ">
<path fill="none" stroke="#63b8ff" d="M456.35,-281.61C471.33,-280.25 487.02,-278.81 501.93,-277.45"/>
<polygon fill="#63b8ff" stroke="#63b8ff" points="502.01,-280.96 511.65,-276.56 501.38,-273.99 502.01,-280.96"/>
</a>
</g>
</g>
<!-- Node13 -->
<g id="Node000013" class="node">
<title>Node13</title>
<g id="a_Node000013"><a xlink:href="$class_common_i_t_i_l_object.html#a8875d28d49c7b3a5fe040e3dc894c935" xlink:title=" ">
<polygon fill="white" stroke="#666666" points="663.25,-243.25 492,-243.25 492,-224 663.25,-224 663.25,-243.25"/>
<text text-anchor="middle" x="577.62" y="-229.75" font-family="Helvetica,sans-Serif" font-size="10.00">CommonITILObject\canUpdateItem</text>
</a>
</g>
</g>
<!-- Node3&#45;&gt;Node13 -->
<g id="edge78_Node000003_Node000013" class="edge">
<title>Node3&#45;&gt;Node13</title>
<g id="a_edge78_Node000003_Node000013"><a xlink:title=" ">
<path fill="none" stroke="#63b8ff" d="M423.59,-272.92C444.2,-265.88 469.2,-257.78 492,-251.62 499.03,-249.73 506.43,-247.9 513.81,-246.19"/>
<polygon fill="#63b8ff" stroke="#63b8ff" points="514.48,-249.63 523.47,-244.02 512.95,-242.8 514.48,-249.63"/>
</a>
</g>
</g>
<!-- Node19 -->
<g id="Node000019" class="node">
<title>Node19</title>
<g id="a_Node000019"><a xlink:href="$class_common_d_b_t_m.html#ac73fbb33d08471d618cd753ea8a73b75" xlink:title=" ">
<polygon fill="white" stroke="#666666" points="649.75,-206.25 505.5,-206.25 505.5,-187 649.75,-187 649.75,-206.25"/>
<text text-anchor="middle" x="577.62" y="-192.75" font-family="Helvetica,sans-Serif" font-size="10.00">CommonDBTM\canViewItem</text>
</a>
</g>
</g>
<!-- Node3&#45;&gt;Node19 -->
<g id="edge86_Node000003_Node000019" class="edge">
<title>Node3&#45;&gt;Node19</title>
<g id="a_edge86_Node000003_Node000019"><a xlink:title=" ">
<path fill="none" stroke="#63b8ff" d="M398.26,-273.16C419.59,-256.26 456.22,-229.58 492,-214.62 496.09,-212.91 500.37,-211.36 504.73,-209.95"/>
<polygon fill="#63b8ff" stroke="#63b8ff" points="505.63,-213.33 514.23,-207.14 503.65,-206.61 505.63,-213.33"/>
</a>
</g>
</g>
<!-- Node20 -->
<g id="Node000020" class="node">
<title>Node20</title>
<g id="a_Node000020"><a xlink:href="$class_toolbox.html#a2d970c2444920f6cb87bbc716732bab1" xlink:title=" ">
<polygon fill="white" stroke="#666666" points="628,-169.25 527.25,-169.25 527.25,-150 628,-150 628,-169.25"/>
<text text-anchor="middle" x="577.62" y="-155.75" font-family="Helvetica,sans-Serif" font-size="10.00">Toolbox\deprecated</text>
</a>
</g>
</g>
<!-- Node3&#45;&gt;Node20 -->
<g id="edge88_Node000003_Node000020" class="edge">
<title>Node3&#45;&gt;Node20</title>
<g id="a_edge88_Node000003_Node000020"><a xlink:title=" ">
<path fill="none" stroke="#63b8ff" d="M404.32,-272.93C420.14,-262.17 440.53,-246.93 456,-230.62 475.6,-209.96 468.37,-193.51 492,-177.62 499.27,-172.73 507.63,-169.14 516.2,-166.5"/>
<polygon fill="#63b8ff" stroke="#63b8ff" points="516.84,-169.95 525.63,-164.03 515.07,-163.18 516.84,-169.95"/>
</a>
</g>
</g>
<!-- Node21 -->
<g id="Node000021" class="node">
<title>Node21</title>
<g id="a_Node000021"><a xlink:href="$class_common_d_b_t_m.html#a30dd7fff4fec7a39f9be9d27d4b22a59" xlink:title=" ">
<polygon fill="white" stroke="#666666" points="633.25,-132.25 522,-132.25 522,-113 633.25,-113 633.25,-132.25"/>
<text text-anchor="middle" x="577.62" y="-118.75" font-family="Helvetica,sans-Serif" font-size="10.00">CommonDBTM\getID</text>
</a>
</g>
</g>
<!-- Node3&#45;&gt;Node21 -->
<g id="edge90_Node000003_Node000021" class="edge">
<title>Node3&#45;&gt;Node21</title>
<g id="a_edge90_Node000003_Node000021"><a xlink:title=" ">
<path fill="none" stroke="#63b8ff" d="M407.02,-273.06C423.1,-262.76 442.78,-247.98 456,-230.62 482.1,-196.35 459.05,-168.38 492,-140.62 497.5,-135.99 503.91,-132.46 510.69,-129.78"/>
<polygon fill="#63b8ff" stroke="#63b8ff" points="511.71,-133.13 520.14,-126.71 509.54,-126.47 511.71,-133.13"/>
</a>
</g>
</g>
<!-- Node22 -->
<g id="Node000022" class="node">
<title>Node22</title>
<g id="a_Node000022"><a xlink:href="$class_common_d_b_t_m.html#a16827e3c0e8aee170fc0798896337b31" xlink:title=" ">
<polygon fill="white" stroke="#666666" points="644.88,-504.25 510.38,-504.25 510.38,-485 644.88,-485 644.88,-504.25"/>
<text text-anchor="middle" x="577.62" y="-490.75" font-family="Helvetica,sans-Serif" font-size="10.00">CommonDBTM\isNewItem</text>
</a>
</g>
</g>
<!-- Node3&#45;&gt;Node22 -->
<g id="edge91_Node000003_Node000022" class="edge">
<title>Node3&#45;&gt;Node22</title>
<g id="a_edge91_Node000003_Node000022"><a xlink:title=" ">
<path fill="none" stroke="#63b8ff" d="M384.18,-304.23C395.67,-340.72 429.52,-431.94 492,-476.62 494.49,-478.41 497.12,-480.02 499.86,-481.48"/>
<polygon fill="#63b8ff" stroke="#63b8ff" points="498.2,-484.57 508.75,-485.49 501.07,-478.19 498.2,-484.57"/>
</a>
</g>
</g>
<!-- Node5 -->
<g id="Node000005" class="node">
<title>Node5</title>
<g id="a_Node000005"><a xlink:href="$autoload_8function_8php.html#a2111ba1b23d22b49aee91462961bda8a" xlink:title=" ">
<polygon fill="white" stroke="#666666" points="792.9,-467.25 764.1,-467.25 764.1,-448 792.9,-448 792.9,-467.25"/>
<text text-anchor="middle" x="778.5" y="-453.75" font-family="Helvetica,sans-Serif" font-size="10.00">_x</text>
</a>
</g>
</g>
<!-- Node4&#45;&gt;Node5 -->
<g id="edge70_Node000004_Node000005" class="edge">
<title>Node4&#45;&gt;Node5</title>
<g id="a_edge70_Node000004_Node000005"><a xlink:title=" ">
<path fill="none" stroke="#63b8ff" d="M593.9,-457.62C628.02,-457.62 710.68,-457.62 752.45,-457.62"/>
<polygon fill="#63b8ff" stroke="#63b8ff" points="752.26,-461.13 762.26,-457.63 752.26,-454.13 752.26,-461.13"/>
</a>
</g>
</g>
<!-- Node8&#45;&gt;Node9 -->
<g id="edge74_Node000008_Node000009" class="edge">
<title>Node8&#45;&gt;Node9</title>
<g id="a_edge74_Node000008_Node000009"><a xlink:title=" ">
<path fill="none" stroke="#63b8ff" d="M628.81,-317.72C648.11,-321.6 670.73,-326.15 692.42,-330.51"/>
<polygon fill="#63b8ff" stroke="#63b8ff" points="691.67,-333.93 702.17,-332.47 693.05,-327.07 691.67,-333.93"/>
</a>
</g>
</g>
<!-- Node10 -->
<g id="Node000010" class="node">
<title>Node10</title>
<g id="a_Node000010"><a xlink:href="$class_common_i_t_i_l_object.html#affc2fa9672c5d88b0d734721d6987997" xlink:title=" ">
<polygon fill="white" stroke="#666666" points="857.75,-314.25 699.25,-314.25 699.25,-295 857.75,-295 857.75,-314.25"/>
<text text-anchor="middle" x="778.5" y="-300.75" font-family="Helvetica,sans-Serif" font-size="10.00">CommonITILObject\haveAGroup</text>
</a>
</g>
</g>
<!-- Node8&#45;&gt;Node10 -->
<g id="edge75_Node000008_Node000010" class="edge">
<title>Node8&#45;&gt;Node10</title>
<g id="a_edge75_Node000008_Node000010"><a xlink:title=" ">
<path fill="none" stroke="#63b8ff" d="M650.42,-306.54C662.52,-306.36 675.21,-306.17 687.69,-305.98"/>
<polygon fill="#63b8ff" stroke="#63b8ff" points="687.62,-309.48 697.56,-305.83 687.51,-302.48 687.62,-309.48"/>
</a>
</g>
</g>
<!-- Node11 -->
<g id="Node000011" class="node">
<title>Node11</title>
<g id="a_Node000011"><a xlink:href="$class_common_i_t_i_l_object.html#adedff97e09ed8e0ef277f480da3ee7d6" xlink:title=" ">
<polygon fill="white" stroke="#666666" points="845,-277.25 712,-277.25 712,-258 845,-258 845,-277.25"/>
<text text-anchor="middle" x="778.5" y="-263.75" font-family="Helvetica,sans-Serif" font-size="10.00">CommonITILObject\isUser</text>
</a>
</g>
</g>
<!-- Node8&#45;&gt;Node11 -->
<g id="edge76_Node000008_Node000011" class="edge">
<title>Node8&#45;&gt;Node11</title>
<g id="a_edge76_Node000008_Node000011"><a xlink:title=" ">
<path fill="none" stroke="#63b8ff" d="M628.81,-297.53C655.31,-292.2 688.05,-285.62 716.05,-279.98"/>
<polygon fill="#63b8ff" stroke="#63b8ff" points="716.73,-283.42 725.85,-278.01 715.35,-276.55 716.73,-283.42"/>
</a>
</g>
</g>
<!-- Node14 -->
<g id="Node000014" class="node">
<title>Node14</title>
<g id="a_Node000014"><a xlink:href="$class_common_d_b_t_m.html#a4994fe60f4f6b6328091e914c2b681ac" xlink:title=" ">
<polygon fill="white" stroke="#666666" points="848,-206.25 709,-206.25 709,-187 848,-187 848,-206.25"/>
<text text-anchor="middle" x="778.5" y="-192.75" font-family="Helvetica,sans-Serif" font-size="10.00">CommonDBTM\checkEntity</text>
</a>
</g>
</g>
<!-- Node13&#45;&gt;Node14 -->
<g id="edge79_Node000013_Node000014" class="edge">
<title>Node13&#45;&gt;Node14</title>
<g id="a_edge79_Node000013_Node000014"><a xlink:title=" ">
<path fill="none" stroke="#63b8ff" d="M632.97,-223.51C657.41,-218.97 686.47,-213.56 712.1,-208.79"/>
<polygon fill="#63b8ff" stroke="#63b8ff" points="712.54,-212.27 721.73,-207 711.26,-205.39 712.54,-212.27"/>
</a>
</g>
</g>
<!-- Node14&#45;&gt;Node15 -->
<g id="edge80_Node000014_Node000015" class="edge">
<title>Node14&#45;&gt;Node15</title>
<g id="a_edge80_Node000014_Node000015"><a xlink:title=" ">
<path fill="none" stroke="#63b8ff" d="M799.9,-186.67C822.57,-175.76 860.38,-158.03 893.75,-144.62 902.48,-141.12 911.94,-137.62 920.97,-134.41"/>
<polygon fill="#63b8ff" stroke="#63b8ff" points="921.96,-137.77 930.25,-131.17 919.66,-131.16 921.96,-137.77"/>
</a>
</g>
</g>
<!-- Node16 -->
<g id="Node000016" class="node">
<title>Node16</title>
<g id="a_Node000016"><a xlink:href="$class_common_d_b_t_m.html#abd1fba5cbce28a1d30906bebf5b88ead" xlink:title=" ">
<polygon fill="white" stroke="#666666" points="1224.25,-149.25 1074,-149.25 1074,-130 1224.25,-130 1224.25,-149.25"/>
<text text-anchor="middle" x="1149.12" y="-135.75" font-family="Helvetica,sans-Serif" font-size="10.00">CommonDBTM\isEntityAssign</text>
</a>
</g>
</g>
<!-- Node14&#45;&gt;Node16 -->
<g id="edge82_Node000014_Node000016" class="edge">
<title>Node14&#45;&gt;Node16</title>
<g id="a_edge82_Node000014_Node000016"><a xlink:title=" ">
<path fill="none" stroke="#63b8ff" d="M839.06,-186.53C856.66,-183.6 875.97,-180.43 893.75,-177.62 951.65,-168.49 1017.06,-158.73 1067.05,-151.39"/>
<polygon fill="#63b8ff" stroke="#63b8ff" points="1067.56,-154.85 1076.94,-149.94 1066.54,-147.93 1067.56,-154.85"/>
</a>
</g>
</g>
<!-- Node17 -->
<g id="Node000017" class="node">
<title>Node17</title>
<g id="a_Node000017"><a xlink:href="$class_common_d_b_t_m.html#aaa472e233121aa79f3c5c1298b4bc7cb" xlink:title=" ">
<polygon fill="white" stroke="#666666" points="1032.75,-206.25 893.75,-206.25 893.75,-187 1032.75,-187 1032.75,-206.25"/>
<text text-anchor="middle" x="963.25" y="-192.75" font-family="Helvetica,sans-Serif" font-size="10.00">CommonDBTM\isRecursive</text>
</a>
</g>
</g>
<!-- Node14&#45;&gt;Node17 -->
<g id="edge83_Node000014_Node000017" class="edge">
<title>Node14&#45;&gt;Node17</title>
<g id="a_edge83_Node000014_Node000017"><a xlink:title=" ">
<path fill="none" stroke="#63b8ff" d="M848.33,-196.62C859.41,-196.62 870.96,-196.62 882.27,-196.62"/>
<polygon fill="#63b8ff" stroke="#63b8ff" points="881.97,-200.13 891.97,-196.63 881.97,-193.13 881.97,-200.13"/>
</a>
</g>
</g>
<!-- Node18 -->
<g id="Node000018" class="node">
<title>Node18</title>
<g id="a_Node000018"><a xlink:href="$class_common_d_b_t_m.html#a74710ea062a0f689b4f3a72acbf91a07" xlink:title=" ">
<polygon fill="white" stroke="#666666" points="1229.5,-225.25 1068.75,-225.25 1068.75,-206 1229.5,-206 1229.5,-225.25"/>
<text text-anchor="middle" x="1149.12" y="-211.75" font-family="Helvetica,sans-Serif" font-size="10.00">CommonDBTM\maybeRecursive</text>
</a>
</g>
</g>
<!-- Node14&#45;&gt;Node18 -->
<g id="edge85_Node000014_Node000018" class="edge">
<title>Node14&#45;&gt;Node18</title>
<g id="a_edge85_Node000014_Node000018"><a xlink:title=" ">
<path fill="none" stroke="#63b8ff" d="M829.33,-206.74C849.27,-210.31 872.51,-213.87 893.75,-215.62 947.74,-220.08 1008.39,-220.27 1056.93,-219.25"/>
<polygon fill="#63b8ff" stroke="#63b8ff" points="1056.93,-222.75 1066.84,-219.02 1056.77,-215.76 1056.93,-222.75"/>
</a>
</g>
</g>
<!-- Node15&#45;&gt;Node16 -->
<g id="edge81_Node000015_Node000016" class="edge">
<title>Node15&#45;&gt;Node16</title>
<g id="a_edge81_Node000015_Node000016"><a xlink:title=" ">
<path fill="none" stroke="#63b8ff" d="M1031.93,-127.62C1041.83,-128.64 1052.13,-129.71 1062.33,-130.76"/>
<polygon fill="#63b8ff" stroke="#63b8ff" points="1061.96,-134.24 1072.26,-131.79 1062.68,-127.28 1061.96,-134.24"/>
</a>
</g>
</g>
<!-- Node17&#45;&gt;Node18 -->
<g id="edge84_Node000017_Node000018" class="edge">
<title>Node17&#45;&gt;Node18</title>
<g id="a_edge84_Node000017_Node000018"><a xlink:title=" ">
<path fill="none" stroke="#63b8ff" d="M1033.24,-203.75C1041.07,-204.56 1049.13,-205.4 1057.19,-206.23"/>
<polygon fill="#63b8ff" stroke="#63b8ff" points="1056.73,-209.7 1067.03,-207.25 1057.45,-202.74 1056.73,-209.7"/>
</a>
</g>
</g>
<!-- Node19&#45;&gt;Node14 -->
<g id="edge87_Node000019_Node000014" class="edge">
<title>Node19&#45;&gt;Node14</title>
<g id="a_edge87_Node000019_Node000014"><a xlink:title=" ">
<path fill="none" stroke="#63b8ff" d="M650.14,-196.62C665.47,-196.62 681.75,-196.62 697.38,-196.62"/>
<polygon fill="#63b8ff" stroke="#63b8ff" points="697.1,-200.13 707.1,-196.63 697.1,-193.13 697.1,-200.13"/>
</a>
</g>
</g>
<!-- Node23 -->
<g id="Node000023" class="node">
<title>Node23</title>
<g id="a_Node000023"><a xlink:href="$class_common_d_b_t_m.html#a7cb79784c4f52138c643c5e3d276e3aa" xlink:title=" ">
<polygon fill="white" stroke="#666666" points="841.25,-504.25 715.75,-504.25 715.75,-485 841.25,-485 841.25,-504.25"/>
<text text-anchor="middle" x="778.5" y="-490.75" font-family="Helvetica,sans-Serif" font-size="10.00">CommonDBTM\isNewID</text>
</a>
</g>
</g>
<!-- Node22&#45;&gt;Node23 -->
<g id="edge92_Node000022_Node000023" class="edge">
<title>Node22&#45;&gt;Node23</title>
<g id="a_edge92_Node000022_Node000023"><a xlink:title=" ">
<path fill="none" stroke="#63b8ff" d="M645.12,-494.62C664.01,-494.62 684.68,-494.62 703.96,-494.62"/>
<polygon fill="#63b8ff" stroke="#63b8ff" points="703.92,-498.13 713.92,-494.63 703.92,-491.13 703.92,-498.13"/>
</a>
</g>
</g>
<!-- Node27 -->
<g id="Node000027" class="node">
<title>Node27</title>
<g id="a_Node000027"><a xlink:href="$db_8function_8php.html#a5bb7668a0ab5705035e0608178fabcba" xlink:title=" ">
<polygon fill="white" stroke="#666666" points="429.38,-56.25 327.88,-56.25 327.88,-37 429.38,-37 429.38,-56.25"/>
<text text-anchor="middle" x="378.62" y="-42.75" font-family="Helvetica,sans-Serif" font-size="10.00">getItemForItemtype</text>
</a>
</g>
</g>
<!-- Node26&#45;&gt;Node27 -->
<g id="edge96_Node000026_Node000027" class="edge">
<title>Node26&#45;&gt;Node27</title>
<g id="a_edge96_Node000026_Node000027"><a xlink:title=" ">
<path fill="none" stroke="#63b8ff" d="M258.4,-46.62C277.51,-46.62 297.81,-46.62 316.15,-46.62"/>
<polygon fill="#63b8ff" stroke="#63b8ff" points="316.07,-50.13 326.07,-46.63 316.07,-43.13 316.07,-50.13"/>
</a>
</g>
</g>
<!-- Node29 -->
<g id="Node000029" class="node">
<title>Node29</title>
<g id="a_Node000029"><a xlink:href="$class_common_d_b_t_m.html#af4ff0584e0840581a2027fe27d00288a" xlink:title=" ">
<polygon fill="white" stroke="#666666" points="455.62,-19.25 301.62,-19.25 301.62,0 455.62,0 455.62,-19.25"/>
<text text-anchor="middle" x="378.62" y="-5.75" font-family="Helvetica,sans-Serif" font-size="10.00">CommonDBTM\getLinkedItems</text>
</a>
</g>
</g>
<!-- Node28&#45;&gt;Node29 -->
<g id="edge99_Node000028_Node000029" class="edge">
<title>Node28&#45;&gt;Node29</title>
<g id="a_edge99_Node000028_Node000029"><a xlink:title=" ">
<path fill="none" stroke="#63b8ff" d="M265.68,-9.62C273.7,-9.62 281.85,-9.62 289.92,-9.62"/>
<polygon fill="#63b8ff" stroke="#63b8ff" points="289.73,-13.13 299.73,-9.63 289.73,-6.13 289.73,-13.13"/>
</a>
</g>
</g>
</g>
</svg>
