<?xml version="1.0" encoding="UTF-8" standalone="no"?>
<!DOCTYPE svg PUBLIC "-//W3C//DTD SVG 1.1//EN"
 "http://www.w3.org/Graphics/SVG/1.1/DTD/svg11.dtd">
<!-- Generated by graphviz version 10.0.1 (20240210.2158)
 -->
<!-- Title: __construct Pages: 1 -->
<svg width="1430pt" height="735pt"
 viewBox="0.00 0.00 1429.75 735.25" xmlns="http://www.w3.org/2000/svg" xmlns:xlink="http://www.w3.org/1999/xlink">
<g id="graph0" class="graph" transform="scale(1 1) rotate(0) translate(4 731.25)">
<title>__construct</title>
<!-- Node1 -->
<g id="Node000001" class="node">
<title>Node1</title>
<g id="a_Node000001"><a xlink:title=" ">
<polygon fill="#999999" stroke="#666666" points="67,-389.25 0,-389.25 0,-370 67,-370 67,-389.25"/>
<text text-anchor="middle" x="33.5" y="-375.75" font-family="Helvetica,sans-Serif" font-size="10.00">__construct</text>
</a>
</g>
</g>
<!-- Node2 -->
<g id="Node000002" class="node">
<title>Node2</title>
<g id="a_Node000002"><a xlink:href="$class_t_c_p_d_f.html#a9c05e5315160a62a4feb564def81701e" xlink:title=" ">
<polygon fill="white" stroke="#666666" points="427.88,-689.25 364.62,-689.25 364.62,-670 427.88,-670 427.88,-689.25"/>
<text text-anchor="middle" x="396.25" y="-675.75" font-family="Helvetica,sans-Serif" font-size="10.00">_dochecks</text>
</a>
</g>
</g>
<!-- Node1&#45;&gt;Node2 -->
<g id="edge113_Node000001_Node000002" class="edge">
<title>Node1&#45;&gt;Node2</title>
<g id="a_edge113_Node000001_Node000002"><a xlink:title=" ">
<path fill="none" stroke="#63b8ff" d="M35.4,-389.7C39.7,-435.6 59.83,-624.39 103,-660.62 139.75,-691.47 281.17,-687.16 352.94,-682.77"/>
<polygon fill="#63b8ff" stroke="#63b8ff" points="352.99,-686.27 362.74,-682.14 352.54,-679.29 352.99,-686.27"/>
</a>
</g>
</g>
<!-- Node8 -->
<g id="Node000008" class="node">
<title>Node8</title>
<g id="a_Node000008"><a xlink:href="$class_t_c_p_d_f.html#a74ca1cc63f83dafdc9d3462d35b06ae0" xlink:title=" ">
<polygon fill="white" stroke="#666666" points="221,-727.25 151,-727.25 151,-708 221,-708 221,-727.25"/>
<text text-anchor="middle" x="186" y="-713.75" font-family="Helvetica,sans-Serif" font-size="10.00">getFontsList</text>
</a>
</g>
</g>
<!-- Node1&#45;&gt;Node8 -->
<g id="edge119_Node000001_Node000008" class="edge">
<title>Node1&#45;&gt;Node8</title>
<g id="a_edge119_Node000001_Node000008"><a xlink:title=" ">
<path fill="none" stroke="#63b8ff" d="M35.33,-389.65C39.54,-438.1 60,-647.51 103,-693.62 112.56,-703.88 126.24,-709.83 139.7,-713.27"/>
<polygon fill="#63b8ff" stroke="#63b8ff" points="138.87,-716.67 149.37,-715.28 140.3,-709.82 138.87,-716.67"/>
</a>
</g>
</g>
<!-- Node10 -->
<g id="Node000010" class="node">
<title>Node10</title>
<g id="a_Node000010"><a xlink:href="$class_t_c_p_d_f.html#a0b82d61484ca5ee16ae84b2ecd664402" xlink:title=" ">
<polygon fill="white" stroke="#666666" points="227.38,-651.25 144.62,-651.25 144.62,-632 227.38,-632 227.38,-651.25"/>
<text text-anchor="middle" x="186" y="-637.75" font-family="Helvetica,sans-Serif" font-size="10.00">getGraphicVars</text>
</a>
</g>
</g>
<!-- Node1&#45;&gt;Node10 -->
<g id="edge121_Node000001_Node000010" class="edge">
<title>Node1&#45;&gt;Node10</title>
<g id="a_edge121_Node000001_Node000010"><a xlink:title=" ">
<path fill="none" stroke="#63b8ff" d="M33.98,-389.55C32.62,-426.54 33.09,-557.63 103,-623.62 111.27,-631.43 122.11,-636.15 133.19,-638.94"/>
<polygon fill="#63b8ff" stroke="#63b8ff" points="132.29,-642.33 142.78,-640.83 133.65,-635.46 132.29,-642.33"/>
</a>
</g>
</g>
<!-- Node11 -->
<g id="Node000011" class="node">
<title>Node11</title>
<g id="a_Node000011"><a xlink:href="$class_t_c_p_d_f___s_t_a_t_i_c.html#a52e6f48e439f201fb80dee7f00d3164e" xlink:title=" ">
<polygon fill="white" stroke="#666666" points="269,-614.25 103,-614.25 103,-595 269,-595 269,-614.25"/>
<text text-anchor="middle" x="186" y="-600.75" font-family="Helvetica,sans-Serif" font-size="10.00">TCPDF_STATIC\getRandomSeed</text>
</a>
</g>
</g>
<!-- Node1&#45;&gt;Node11 -->
<g id="edge122_Node000001_Node000011" class="edge">
<title>Node1&#45;&gt;Node11</title>
<g id="a_edge122_Node000001_Node000011"><a xlink:title=" ">
<path fill="none" stroke="#63b8ff" d="M34.56,-389.66C35.32,-423.16 42.55,-532.13 103,-586.62 103.65,-587.21 104.31,-587.78 104.99,-588.33"/>
<polygon fill="#63b8ff" stroke="#63b8ff" points="102.94,-591.17 113.22,-593.74 106.78,-585.32 102.94,-591.17"/>
</a>
</g>
</g>
<!-- Node12 -->
<g id="Node000012" class="node">
<title>Node12</title>
<g id="a_Node000012"><a xlink:href="$class_t_c_p_d_f.html#af1a8f9f715c7f82c06a74c9d033bce70" xlink:title=" ">
<polygon fill="white" stroke="#666666" points="650.88,-501.25 553.12,-501.25 553.12,-482 650.88,-482 650.88,-501.25"/>
<text text-anchor="middle" x="602" y="-487.75" font-family="Helvetica,sans-Serif" font-size="10.00">setAutoPageBreak</text>
</a>
</g>
</g>
<!-- Node1&#45;&gt;Node12 -->
<g id="edge123_Node000001_Node000012" class="edge">
<title>Node1&#45;&gt;Node12</title>
<g id="a_edge123_Node000001_Node000012"><a xlink:title=" ">
<path fill="none" stroke="#63b8ff" d="M38.27,-389.63C46.47,-409.82 68.05,-455.05 103,-473.62 177.32,-513.13 426.34,-502.98 541.57,-495.84"/>
<polygon fill="#63b8ff" stroke="#63b8ff" points="541.69,-499.34 551.45,-495.21 541.24,-492.35 541.69,-499.34"/>
</a>
</g>
</g>
<!-- Node13 -->
<g id="Node000013" class="node">
<title>Node13</title>
<g id="a_Node000013"><a xlink:href="$class_t_c_p_d_f.html#aba1366abebb6f276a61df1c3f9b7e3a0" xlink:title=" ">
<polygon fill="white" stroke="#666666" points="436.88,-214.25 355.62,-214.25 355.62,-195 436.88,-195 436.88,-214.25"/>
<text text-anchor="middle" x="396.25" y="-200.75" font-family="Helvetica,sans-Serif" font-size="10.00">setCellMargins</text>
</a>
</g>
</g>
<!-- Node1&#45;&gt;Node13 -->
<g id="edge124_Node000001_Node000013" class="edge">
<title>Node1&#45;&gt;Node13</title>
<g id="a_edge124_Node000001_Node000013"><a xlink:title=" ">
<path fill="none" stroke="#63b8ff" d="M35.58,-369.66C39.17,-341.71 53.52,-262.43 103,-227.62 174.52,-177.32 281.67,-184.18 344.42,-194.13"/>
<polygon fill="#63b8ff" stroke="#63b8ff" points="343.66,-197.55 354.11,-195.76 344.83,-190.65 343.66,-197.55"/>
</a>
</g>
</g>
<!-- Node15 -->
<g id="Node000015" class="node">
<title>Node15</title>
<g id="a_Node000015"><a xlink:href="$class_t_c_p_d_f.html#aeb5b91e64f0b4e4e2e08536f871e6c9b" xlink:title=" ">
<polygon fill="white" stroke="#666666" points="439.88,-311.25 352.62,-311.25 352.62,-292 439.88,-292 439.88,-311.25"/>
<text text-anchor="middle" x="396.25" y="-297.75" font-family="Helvetica,sans-Serif" font-size="10.00">setCellPaddings</text>
</a>
</g>
</g>
<!-- Node1&#45;&gt;Node15 -->
<g id="edge126_Node000001_Node000015" class="edge">
<title>Node1&#45;&gt;Node15</title>
<g id="a_edge126_Node000001_Node000015"><a xlink:title=" ">
<path fill="none" stroke="#63b8ff" d="M67.37,-380.64C113.31,-381.23 198.96,-379.33 269,-360.62 286.09,-356.06 288.98,-351.14 305,-343.62 324.44,-334.51 346.26,-324.35 363.58,-316.31"/>
<polygon fill="#63b8ff" stroke="#63b8ff" points="364.75,-319.63 372.34,-312.24 361.8,-313.28 364.75,-319.63"/>
</a>
</g>
</g>
<!-- Node16 -->
<g id="Node000016" class="node">
<title>Node16</title>
<g id="a_Node000016"><a xlink:href="$class_t_c_p_d_f.html#ab231450a00f9697c427ceb390361fa08" xlink:title=" ">
<polygon fill="white" stroke="#666666" points="229.62,-464.25 142.38,-464.25 142.38,-445 229.62,-445 229.62,-464.25"/>
<text text-anchor="middle" x="186" y="-450.75" font-family="Helvetica,sans-Serif" font-size="10.00">setCompression</text>
</a>
</g>
</g>
<!-- Node1&#45;&gt;Node16 -->
<g id="edge128_Node000001_Node000016" class="edge">
<title>Node1&#45;&gt;Node16</title>
<g id="a_edge128_Node000001_Node000016"><a xlink:title=" ">
<path fill="none" stroke="#63b8ff" d="M43.22,-389.34C55.34,-402.2 78.54,-424.66 103,-436.62 111.66,-440.86 121.31,-444.11 130.87,-446.6"/>
<polygon fill="#63b8ff" stroke="#63b8ff" points="129.98,-449.98 140.51,-448.84 131.57,-443.17 129.98,-449.98"/>
</a>
</g>
</g>
<!-- Node17 -->
<g id="Node000017" class="node">
<title>Node17</title>
<g id="a_Node000017"><a xlink:href="$class_t_c_p_d_f.html#acfb84172f0fd8212413332ca21c1ef5f" xlink:title=" ">
<polygon fill="white" stroke="#666666" points="229.25,-577.25 142.75,-577.25 142.75,-558 229.25,-558 229.25,-577.25"/>
<text text-anchor="middle" x="186" y="-563.75" font-family="Helvetica,sans-Serif" font-size="10.00">setDisplayMode</text>
</a>
</g>
</g>
<!-- Node1&#45;&gt;Node17 -->
<g id="edge129_Node000001_Node000017" class="edge">
<title>Node1&#45;&gt;Node17</title>
<g id="a_edge129_Node000001_Node000017"><a xlink:title=" ">
<path fill="none" stroke="#63b8ff" d="M35.35,-389.52C38.44,-418.9 51.73,-506.27 103,-549.62 111.01,-556.4 121,-560.79 131.22,-563.59"/>
<polygon fill="#63b8ff" stroke="#63b8ff" points="130.32,-566.98 140.84,-565.73 131.83,-560.14 130.32,-566.98"/>
</a>
</g>
</g>
<!-- Node20 -->
<g id="Node000020" class="node">
<title>Node20</title>
<g id="a_Node000020"><a xlink:href="$class_t_c_p_d_f.html#a72c67d12759f8b67b9085ff0a274ee62" xlink:title=" ">
<polygon fill="white" stroke="#666666" points="210.5,-52.25 161.5,-52.25 161.5,-33 210.5,-33 210.5,-52.25"/>
<text text-anchor="middle" x="186" y="-38.75" font-family="Helvetica,sans-Serif" font-size="10.00">setFont</text>
</a>
</g>
</g>
<!-- Node1&#45;&gt;Node20 -->
<g id="edge133_Node000001_Node000020" class="edge">
<title>Node1&#45;&gt;Node20</title>
<g id="a_edge133_Node000001_Node000020"><a xlink:title=" ">
<path fill="none" stroke="#63b8ff" d="M35.22,-369.7C38.95,-320.82 57.74,-106.09 103,-60.62 115.16,-48.41 133.59,-43.64 149.9,-42.04"/>
<polygon fill="#63b8ff" stroke="#63b8ff" points="149.99,-45.54 159.77,-41.47 149.59,-38.55 149.99,-45.54"/>
</a>
</g>
</g>
<!-- Node31 -->
<g id="Node000031" class="node">
<title>Node31</title>
<g id="a_Node000031"><a xlink:href="$class_t_c_p_d_f.html#af86024b6e4620db5851b73cdd6824a71" xlink:title=" ">
<polygon fill="white" stroke="#666666" points="224.38,-351.25 147.62,-351.25 147.62,-332 224.38,-332 224.38,-351.25"/>
<text text-anchor="middle" x="186" y="-337.75" font-family="Helvetica,sans-Serif" font-size="10.00">setFooterFont</text>
</a>
</g>
</g>
<!-- Node1&#45;&gt;Node31 -->
<g id="edge150_Node000001_Node000031" class="edge">
<title>Node1&#45;&gt;Node31</title>
<g id="a_edge150_Node000001_Node000031"><a xlink:title=" ">
<path fill="none" stroke="#63b8ff" d="M67.16,-371.38C87.35,-366.28 113.64,-359.64 136.26,-353.93"/>
<polygon fill="#63b8ff" stroke="#63b8ff" points="137.06,-357.34 145.9,-351.5 135.35,-350.55 137.06,-357.34"/>
</a>
</g>
</g>
<!-- Node32 -->
<g id="Node000032" class="node">
<title>Node32</title>
<g id="a_Node000032"><a xlink:href="$class_t_c_p_d_f.html#a7f30648e7ae7ab130c788555d22a6ec6" xlink:title=" ">
<polygon fill="white" stroke="#666666" points="226.25,-314.25 145.75,-314.25 145.75,-295 226.25,-295 226.25,-314.25"/>
<text text-anchor="middle" x="186" y="-300.75" font-family="Helvetica,sans-Serif" font-size="10.00">setHeaderFont</text>
</a>
</g>
</g>
<!-- Node1&#45;&gt;Node32 -->
<g id="edge151_Node000001_Node000032" class="edge">
<title>Node1&#45;&gt;Node32</title>
<g id="a_edge151_Node000001_Node000032"><a xlink:title=" ">
<path fill="none" stroke="#63b8ff" d="M43.22,-369.91C55.34,-357.05 78.54,-334.59 103,-322.62 112.72,-317.87 123.69,-314.36 134.38,-311.77"/>
<polygon fill="#63b8ff" stroke="#63b8ff" points="134.84,-315.25 143.87,-309.72 133.35,-308.41 134.84,-315.25"/>
</a>
</g>
</g>
<!-- Node33 -->
<g id="Node000033" class="node">
<title>Node33</title>
<g id="a_Node000033"><a xlink:href="$class_t_c_p_d_f.html#a5ffe841006df43bcd67133d5e2a34ec0" xlink:title=" ">
<polygon fill="white" stroke="#666666" points="218,-277.25 154,-277.25 154,-258 218,-258 218,-277.25"/>
<text text-anchor="middle" x="186" y="-263.75" font-family="Helvetica,sans-Serif" font-size="10.00">setMargins</text>
</a>
</g>
</g>
<!-- Node1&#45;&gt;Node33 -->
<g id="edge152_Node000001_Node000033" class="edge">
<title>Node1&#45;&gt;Node33</title>
<g id="a_edge152_Node000001_Node000033"><a xlink:title=" ">
<path fill="none" stroke="#63b8ff" d="M38.84,-369.52C47.78,-349.98 70.2,-307.05 103,-285.62 114.73,-277.97 129.2,-273.52 142.71,-270.96"/>
<polygon fill="#63b8ff" stroke="#63b8ff" points="142.93,-274.47 152.26,-269.45 141.83,-267.55 142.93,-274.47"/>
</a>
</g>
</g>
<!-- Node34 -->
<g id="Node000034" class="node">
<title>Node34</title>
<g id="a_Node000034"><a xlink:href="$class_t_c_p_d_f.html#a31727d77336d2e92a731d4322ed62f46" xlink:title=" ">
<polygon fill="white" stroke="#666666" points="227.38,-427.25 144.62,-427.25 144.62,-408 227.38,-408 227.38,-427.25"/>
<text text-anchor="middle" x="186" y="-413.75" font-family="Helvetica,sans-Serif" font-size="10.00">setPageFormat</text>
</a>
</g>
</g>
<!-- Node1&#45;&gt;Node34 -->
<g id="edge153_Node000001_Node000034" class="edge">
<title>Node1&#45;&gt;Node34</title>
<g id="a_edge153_Node000001_Node000034"><a xlink:title=" ">
<path fill="none" stroke="#63b8ff" d="M67.16,-387.87C86.68,-392.8 111.91,-399.17 134.01,-404.75"/>
<polygon fill="#63b8ff" stroke="#63b8ff" points="132.88,-408.08 143.44,-407.13 134.6,-401.29 132.88,-408.08"/>
</a>
</g>
</g>
<!-- Node39 -->
<g id="Node000039" class="node">
<title>Node39</title>
<g id="a_Node000039"><a xlink:href="$class_t_c_p_d_f.html#adc3822d56ae676d56de2a85cb3d9c4c1" xlink:title=" ">
<polygon fill="white" stroke="#666666" points="221,-540.25 151,-540.25 151,-521 221,-521 221,-540.25"/>
<text text-anchor="middle" x="186" y="-526.75" font-family="Helvetica,sans-Serif" font-size="10.00">setPageUnit</text>
</a>
</g>
</g>
<!-- Node1&#45;&gt;Node39 -->
<g id="edge161_Node000001_Node000039" class="edge">
<title>Node1&#45;&gt;Node39</title>
<g id="a_edge161_Node000001_Node000039"><a xlink:title=" ">
<path fill="none" stroke="#63b8ff" d="M37.01,-389.59C43.56,-413.52 63.47,-474.63 103,-506.62 113.43,-515.07 126.74,-520.54 139.58,-524.09"/>
<polygon fill="#63b8ff" stroke="#63b8ff" points="138.65,-527.47 149.19,-526.39 140.27,-520.66 138.65,-527.47"/>
</a>
</g>
</g>
<!-- Node40 -->
<g id="Node000040" class="node">
<title>Node40</title>
<g id="a_Node000040"><a xlink:href="$class_t_c_p_d_f.html#a663bc6cfe042b63eedc2c390e452cde1" xlink:title=" ">
<polygon fill="white" stroke="#666666" points="227.38,-163.25 144.62,-163.25 144.62,-144 227.38,-144 227.38,-163.25"/>
<text text-anchor="middle" x="186" y="-149.75" font-family="Helvetica,sans-Serif" font-size="10.00">setPDFVersion</text>
</a>
</g>
</g>
<!-- Node1&#45;&gt;Node40 -->
<g id="edge164_Node000001_Node000040" class="edge">
<title>Node1&#45;&gt;Node40</title>
<g id="a_edge164_Node000001_Node000040"><a xlink:title=" ">
<path fill="none" stroke="#63b8ff" d="M34.81,-369.53C36.36,-336.78 45.79,-232.47 103,-177.62 111.35,-169.62 122.23,-164.26 133.31,-160.69"/>
<polygon fill="#63b8ff" stroke="#63b8ff" points="134.19,-164.07 142.92,-158.07 132.35,-157.32 134.19,-164.07"/>
</a>
</g>
</g>
<!-- Node41 -->
<g id="Node000041" class="node">
<title>Node41</title>
<g id="a_Node000041"><a xlink:href="$class_t_c_p_d_f.html#a2cac0bb8c60ef7d7c9c19221e62dee7e" xlink:title=" ">
<polygon fill="white" stroke="#666666" points="224.38,-126.25 147.62,-126.25 147.62,-107 224.38,-107 224.38,-126.25"/>
<text text-anchor="middle" x="186" y="-112.75" font-family="Helvetica,sans-Serif" font-size="10.00">setSpacesRE</text>
</a>
</g>
</g>
<!-- Node1&#45;&gt;Node41 -->
<g id="edge165_Node000001_Node000041" class="edge">
<title>Node1&#45;&gt;Node41</title>
<g id="a_edge165_Node000001_Node000041"><a xlink:title=" ">
<path fill="none" stroke="#63b8ff" d="M33.96,-369.66C32.55,-332.52 32.86,-200.91 103,-134.62 112,-126.12 124.06,-121.27 136.16,-118.6"/>
<polygon fill="#63b8ff" stroke="#63b8ff" points="136.44,-122.11 145.71,-116.97 135.26,-115.21 136.44,-122.11"/>
</a>
</g>
</g>
<!-- Node42 -->
<g id="Node000042" class="node">
<title>Node42</title>
<g id="a_Node000042"><a xlink:href="$class_t_c_p_d_f.html#ae32b7887a927a6db8e767b1707ecc5d6" xlink:title=" ">
<polygon fill="white" stroke="#666666" points="227.75,-89.25 144.25,-89.25 144.25,-70 227.75,-70 227.75,-89.25"/>
<text text-anchor="middle" x="186" y="-75.75" font-family="Helvetica,sans-Serif" font-size="10.00">setTextShadow</text>
</a>
</g>
</g>
<!-- Node1&#45;&gt;Node42 -->
<g id="edge166_Node000001_Node000042" class="edge">
<title>Node1&#45;&gt;Node42</title>
<g id="a_edge166_Node000001_Node000042"><a xlink:title=" ">
<path fill="none" stroke="#63b8ff" d="M35.52,-369.66C40.37,-324.23 62.57,-137.17 103,-97.62 111.13,-89.68 121.91,-84.9 132.99,-82.1"/>
<polygon fill="#63b8ff" stroke="#63b8ff" points="133.45,-85.58 142.58,-80.21 132.09,-78.71 133.45,-85.58"/>
</a>
</g>
</g>
<!-- Node43 -->
<g id="Node000043" class="node">
<title>Node43</title>
<g id="a_Node000043"><a xlink:href="$class_t_c_p_d_f___f_o_n_t_s.html#ad81778eaf9190d36116b9ab32a38e5c1" xlink:title=" ">
<polygon fill="white" stroke="#666666" points="458.62,-251.25 333.88,-251.25 333.88,-232 458.62,-232 458.62,-251.25"/>
<text text-anchor="middle" x="396.25" y="-237.75" font-family="Helvetica,sans-Serif" font-size="10.00">TCPDF_FONTS\utf8Bidi</text>
</a>
</g>
</g>
<!-- Node1&#45;&gt;Node43 -->
<g id="edge167_Node000001_Node000043" class="edge">
<title>Node1&#45;&gt;Node43</title>
<g id="a_edge167_Node000001_Node000043"><a xlink:title=" ">
<path fill="none" stroke="#63b8ff" d="M36.18,-369.78C41.11,-344.36 58.11,-276.55 103,-248.62 138.25,-226.7 247.8,-229.94 322.29,-235.13"/>
<polygon fill="#63b8ff" stroke="#63b8ff" points="321.74,-238.6 331.96,-235.84 322.24,-231.62 321.74,-238.6"/>
</a>
</g>
</g>
<!-- Node3 -->
<g id="Node000003" class="node">
<title>Node3</title>
<g id="a_Node000003"><a xlink:href="$class_t_c_p_d_f.html#a5afab85a7aaf19395f9a0e86cae76928" xlink:title=" ">
<polygon fill="white" stroke="#666666" points="620.5,-539.25 583.5,-539.25 583.5,-520 620.5,-520 620.5,-539.25"/>
<text text-anchor="middle" x="602" y="-525.75" font-family="Helvetica,sans-Serif" font-size="10.00">Error</text>
</a>
</g>
</g>
<!-- Node2&#45;&gt;Node3 -->
<g id="edge114_Node000002_Node000003" class="edge">
<title>Node2&#45;&gt;Node3</title>
<g id="a_edge114_Node000002_Node000003"><a xlink:title=" ">
<path fill="none" stroke="#63b8ff" d="M428.28,-678.45C446.57,-676.58 469.57,-672.1 487.5,-661.62 534.94,-633.91 572.23,-579 589.87,-549.49"/>
<polygon fill="#63b8ff" stroke="#63b8ff" points="592.9,-551.25 594.89,-540.84 586.84,-547.73 592.9,-551.25"/>
</a>
</g>
</g>
<!-- Node4 -->
<g id="Node000004" class="node">
<title>Node4</title>
<g id="a_Node000004"><a xlink:href="$class_t_c_p_d_f.html#a3f1223ef6da2a75d708d2cf17129e35a" xlink:title=" ">
<polygon fill="white" stroke="#666666" points="823.62,-394.25 770.12,-394.25 770.12,-375 823.62,-375 823.62,-394.25"/>
<text text-anchor="middle" x="796.88" y="-380.75" font-family="Helvetica,sans-Serif" font-size="10.00">_destroy</text>
</a>
</g>
</g>
<!-- Node3&#45;&gt;Node4 -->
<g id="edge115_Node000003_Node000004" class="edge">
<title>Node3&#45;&gt;Node4</title>
<g id="a_edge115_Node000003_Node000004"><a xlink:title=" ">
<path fill="none" stroke="#63b8ff" d="M620.73,-528.24C637.2,-526.29 661.91,-521.64 680.5,-510.62 726.43,-483.41 764.81,-432.17 783.55,-404.15"/>
<polygon fill="#63b8ff" stroke="#63b8ff" points="786.39,-406.2 788.92,-395.91 780.53,-402.38 786.39,-406.2"/>
</a>
</g>
</g>
<!-- Node5 -->
<g id="Node000005" class="node">
<title>Node5</title>
<g id="a_Node000005"><a xlink:href="$class_t_c_p_d_f___s_t_a_t_i_c.html#a9e14c837e0fcb7de0b1b272f5b2384f7" xlink:title=" ">
<polygon fill="white" stroke="#666666" points="1050.75,-133.25 913.25,-133.25 913.25,-114 1050.75,-114 1050.75,-133.25"/>
<text text-anchor="middle" x="982" y="-119.75" font-family="Helvetica,sans-Serif" font-size="10.00">TCPDF_STATIC\file_exists</text>
</a>
</g>
</g>
<!-- Node4&#45;&gt;Node5 -->
<g id="edge116_Node000004_Node000005" class="edge">
<title>Node4&#45;&gt;Node5</title>
<g id="a_edge116_Node000004_Node000005"><a xlink:title=" ">
<path fill="none" stroke="#63b8ff" d="M804.83,-374.71C831.97,-336.03 931.03,-194.85 967.45,-142.94"/>
<polygon fill="#63b8ff" stroke="#63b8ff" points="970.29,-144.98 973.17,-134.79 964.56,-140.96 970.29,-144.98"/>
</a>
</g>
</g>
<!-- Node6 -->
<g id="Node000006" class="node">
<title>Node6</title>
<g id="a_Node000006"><a xlink:href="$class_t_c_p_d_f___s_t_a_t_i_c.html#adeb9b51fef0b87a0befbdbb11e85f39b" xlink:title=" ">
<polygon fill="white" stroke="#666666" points="1222,-133.25 1086.75,-133.25 1086.75,-114 1222,-114 1222,-133.25"/>
<text text-anchor="middle" x="1154.38" y="-119.75" font-family="Helvetica,sans-Serif" font-size="10.00">TCPDF_STATIC\url_exists</text>
</a>
</g>
</g>
<!-- Node5&#45;&gt;Node6 -->
<g id="edge117_Node000005_Node000006" class="edge">
<title>Node5&#45;&gt;Node6</title>
<g id="a_edge117_Node000005_Node000006"><a xlink:title=" ">
<path fill="none" stroke="#63b8ff" d="M1050.83,-123.62C1058.77,-123.62 1066.93,-123.62 1075.01,-123.62"/>
<polygon fill="#63b8ff" stroke="#63b8ff" points="1074.82,-127.13 1084.82,-123.63 1074.82,-120.13 1074.82,-127.13"/>
</a>
</g>
</g>
<!-- Node7 -->
<g id="Node000007" class="node">
<title>Node7</title>
<g id="a_Node000007"><a xlink:href="$class_t_c_p_d_f___s_t_a_t_i_c.html#a79813ccb2446fdc8ec2b1a1f346a3809" xlink:title=" ">
<polygon fill="white" stroke="#666666" points="1421.75,-133.25 1258,-133.25 1258,-114 1421.75,-114 1421.75,-133.25"/>
<text text-anchor="middle" x="1339.88" y="-119.75" font-family="Helvetica,sans-Serif" font-size="10.00">TCPDF_STATIC\encodeUrlQuery</text>
</a>
</g>
</g>
<!-- Node6&#45;&gt;Node7 -->
<g id="edge118_Node000006_Node000007" class="edge">
<title>Node6&#45;&gt;Node7</title>
<g id="a_edge118_Node000006_Node000007"><a xlink:title=" ">
<path fill="none" stroke="#63b8ff" d="M1222.4,-123.62C1230.2,-123.62 1238.25,-123.62 1246.31,-123.62"/>
<polygon fill="#63b8ff" stroke="#63b8ff" points="1246.17,-127.13 1256.17,-123.63 1246.17,-120.13 1246.17,-127.13"/>
</a>
</g>
</g>
<!-- Node9 -->
<g id="Node000009" class="node">
<title>Node9</title>
<g id="a_Node000009"><a xlink:href="$class_t_c_p_d_f___f_o_n_t_s.html#a0472c3b1de3775ad2e664601260c4c94" xlink:title=" ">
<polygon fill="white" stroke="#666666" points="469.12,-727.25 323.38,-727.25 323.38,-708 469.12,-708 469.12,-727.25"/>
<text text-anchor="middle" x="396.25" y="-713.75" font-family="Helvetica,sans-Serif" font-size="10.00">TCPDF_FONTS\_getfontpath</text>
</a>
</g>
</g>
<!-- Node8&#45;&gt;Node9 -->
<g id="edge120_Node000008_Node000009" class="edge">
<title>Node8&#45;&gt;Node9</title>
<g id="a_edge120_Node000008_Node000009"><a xlink:title=" ">
<path fill="none" stroke="#63b8ff" d="M221.39,-717.62C245.98,-717.62 280.17,-717.62 311.74,-717.62"/>
<polygon fill="#63b8ff" stroke="#63b8ff" points="311.71,-721.13 321.71,-717.63 311.71,-714.13 311.71,-721.13"/>
</a>
</g>
</g>
<!-- Node14 -->
<g id="Node000014" class="node">
<title>Node14</title>
<g id="a_Node000014"><a xlink:href="$class_t_c_p_d_f___s_t_a_t_i_c.html#a5e311abad71449e634216a5d897a65b6" xlink:title=" ">
<polygon fill="white" stroke="#666666" points="662.12,-256.88 541.88,-256.88 541.88,-226.38 662.12,-226.38 662.12,-256.88"/>
<text text-anchor="start" x="549.88" y="-243.38" font-family="Helvetica,sans-Serif" font-size="10.00">TCPDF_STATIC\empty</text>
<text text-anchor="middle" x="602" y="-232.12" font-family="Helvetica,sans-Serif" font-size="10.00">_string</text>
</a>
</g>
</g>
<!-- Node13&#45;&gt;Node14 -->
<g id="edge125_Node000013_Node000014" class="edge">
<title>Node13&#45;&gt;Node14</title>
<g id="a_edge125_Node000013_Node000014"><a xlink:title=" ">
<path fill="none" stroke="#63b8ff" d="M437.02,-211.85C463.53,-216.66 499.11,-223.12 530.35,-228.8"/>
<polygon fill="#63b8ff" stroke="#63b8ff" points="529.68,-232.23 540.15,-230.57 530.94,-225.34 529.68,-232.23"/>
</a>
</g>
</g>
<!-- Node15&#45;&gt;Node14 -->
<g id="edge127_Node000015_Node000014" class="edge">
<title>Node15&#45;&gt;Node14</title>
<g id="a_edge127_Node000015_Node000014"><a xlink:title=" ">
<path fill="none" stroke="#63b8ff" d="M431.35,-291.58C460.1,-283.12 502.02,-270.77 537,-260.47"/>
<polygon fill="#63b8ff" stroke="#63b8ff" points="537.55,-263.96 546.16,-257.78 535.58,-257.24 537.55,-263.96"/>
</a>
</g>
</g>
<!-- Node17&#45;&gt;Node3 -->
<g id="edge130_Node000017_Node000003" class="edge">
<title>Node17&#45;&gt;Node3</title>
<g id="a_edge130_Node000017_Node000003"><a xlink:title=" ">
<path fill="none" stroke="#63b8ff" d="M229.37,-565.12C287.61,-561.51 395.65,-554.2 487.5,-544.62 516.32,-541.62 549.13,-537.17 572.03,-533.9"/>
<polygon fill="#63b8ff" stroke="#63b8ff" points="572.45,-537.38 581.84,-532.48 571.45,-530.45 572.45,-537.38"/>
</a>
</g>
</g>
<!-- Node18 -->
<g id="Node000018" class="node">
<title>Node18</title>
<g id="a_Node000018"><a xlink:href="$class_t_c_p_d_f___s_t_a_t_i_c.html#ae0cf162855c5b6fce08fd09f1f1685be" xlink:title=" ">
<polygon fill="white" stroke="#666666" points="487.5,-615.25 305,-615.25 305,-596 487.5,-596 487.5,-615.25"/>
<text text-anchor="middle" x="396.25" y="-601.75" font-family="Helvetica,sans-Serif" font-size="10.00">TCPDF_STATIC\getPageLayoutMode</text>
</a>
</g>
</g>
<!-- Node17&#45;&gt;Node18 -->
<g id="edge131_Node000017_Node000018" class="edge">
<title>Node17&#45;&gt;Node18</title>
<g id="a_edge131_Node000017_Node000018"><a xlink:title=" ">
<path fill="none" stroke="#63b8ff" d="M229.65,-575.41C258.17,-580.61 296.29,-587.57 328.77,-593.49"/>
<polygon fill="#63b8ff" stroke="#63b8ff" points="328.04,-596.92 338.5,-595.27 329.3,-590.03 328.04,-596.92"/>
</a>
</g>
</g>
<!-- Node19 -->
<g id="Node000019" class="node">
<title>Node19</title>
<g id="a_Node000019"><a xlink:href="$class_t_c_p_d_f___s_t_a_t_i_c.html#a06c12ed3610f84bde16b88feb99d3533" xlink:title=" ">
<polygon fill="white" stroke="#666666" points="472.88,-652.25 319.62,-652.25 319.62,-633 472.88,-633 472.88,-652.25"/>
<text text-anchor="middle" x="396.25" y="-638.75" font-family="Helvetica,sans-Serif" font-size="10.00">TCPDF_STATIC\getPageMode</text>
</a>
</g>
</g>
<!-- Node17&#45;&gt;Node19 -->
<g id="edge132_Node000017_Node000019" class="edge">
<title>Node17&#45;&gt;Node19</title>
<g id="a_edge132_Node000017_Node000019"><a xlink:title=" ">
<path fill="none" stroke="#63b8ff" d="M229.67,-571.94C242.9,-574.57 257.12,-578.81 269,-585.62 289.46,-597.36 284.43,-613.09 305,-624.62 307.5,-626.03 310.09,-627.32 312.75,-628.51"/>
<polygon fill="#63b8ff" stroke="#63b8ff" points="311.3,-631.7 321.88,-632.09 313.85,-625.19 311.3,-631.7"/>
</a>
</g>
</g>
<!-- Node21 -->
<g id="Node000021" class="node">
<title>Node21</title>
<g id="a_Node000021"><a xlink:href="$class_t_c_p_d_f.html#a1a0390351695ec7f1a9c01d88d303a87" xlink:title=" ">
<polygon fill="white" stroke="#666666" points="422.62,-96.25 369.88,-96.25 369.88,-77 422.62,-77 422.62,-96.25"/>
<text text-anchor="middle" x="396.25" y="-82.75" font-family="Helvetica,sans-Serif" font-size="10.00">AddFont</text>
</a>
</g>
</g>
<!-- Node20&#45;&gt;Node21 -->
<g id="edge134_Node000020_Node000021" class="edge">
<title>Node20&#45;&gt;Node21</title>
<g id="a_edge134_Node000020_Node000021"><a xlink:title=" ">
<path fill="none" stroke="#63b8ff" d="M210.89,-47.67C247.02,-55.31 315.86,-69.85 358.43,-78.85"/>
<polygon fill="#63b8ff" stroke="#63b8ff" points="357.71,-82.27 368.21,-80.91 359.15,-75.42 357.71,-82.27"/>
</a>
</g>
</g>
<!-- Node22 -->
<g id="Node000022" class="node">
<title>Node22</title>
<g id="a_Node000022"><a xlink:href="$class_t_c_p_d_f.html#a90647c778bef4bd0329a254d3bc155c3" xlink:title=" ">
<polygon fill="white" stroke="#666666" points="639.62,-19.25 564.38,-19.25 564.38,0 639.62,0 639.62,-19.25"/>
<text text-anchor="middle" x="602" y="-5.75" font-family="Helvetica,sans-Serif" font-size="10.00">getFontBuffer</text>
</a>
</g>
</g>
<!-- Node20&#45;&gt;Node22 -->
<g id="edge143_Node000020_Node000022" class="edge">
<title>Node20&#45;&gt;Node22</title>
<g id="a_edge143_Node000020_Node000022"><a xlink:title=" ">
<path fill="none" stroke="#63b8ff" d="M210.75,-40.73C276.77,-35.47 463.49,-20.59 552.57,-13.49"/>
<polygon fill="#63b8ff" stroke="#63b8ff" points="552.75,-16.98 562.44,-12.7 552.2,-10 552.75,-16.98"/>
</a>
</g>
</g>
<!-- Node25 -->
<g id="Node000025" class="node">
<title>Node25</title>
<g id="a_Node000025"><a xlink:href="$class_t_c_p_d_f.html#a3f269a566cb96649d817505c5b28b326" xlink:title=" ">
<polygon fill="white" stroke="#666666" points="648.25,-171.25 555.75,-171.25 555.75,-152 648.25,-152 648.25,-171.25"/>
<text text-anchor="middle" x="602" y="-157.75" font-family="Helvetica,sans-Serif" font-size="10.00">setFontSubBuffer</text>
</a>
</g>
</g>
<!-- Node20&#45;&gt;Node25 -->
<g id="edge149_Node000020_Node000025" class="edge">
<title>Node20&#45;&gt;Node25</title>
<g id="a_edge149_Node000020_Node000025"><a xlink:title=" ">
<path fill="none" stroke="#63b8ff" d="M210.84,-43.66C228.11,-45.36 251.42,-49.7 269,-60.62 290.75,-74.14 283.05,-92.42 305,-105.62 325.25,-117.81 464.46,-140.7 544.56,-153.11"/>
<polygon fill="#63b8ff" stroke="#63b8ff" points="543.53,-156.49 553.95,-154.56 544.6,-149.58 543.53,-156.49"/>
</a>
</g>
</g>
<!-- Node26 -->
<g id="Node000026" class="node">
<title>Node26</title>
<g id="a_Node000026"><a xlink:href="$class_t_c_p_d_f.html#ade17bbfd77ebd28174594d1ac70c77bd" xlink:title=" ">
<polygon fill="white" stroke="#666666" points="430.5,-176.25 362,-176.25 362,-157 430.5,-157 430.5,-176.25"/>
<text text-anchor="middle" x="396.25" y="-162.75" font-family="Helvetica,sans-Serif" font-size="10.00">setFontSize</text>
</a>
</g>
</g>
<!-- Node20&#45;&gt;Node26 -->
<g id="edge144_Node000020_Node000026" class="edge">
<title>Node20&#45;&gt;Node26</title>
<g id="a_edge144_Node000020_Node000026"><a xlink:title=" ">
<path fill="none" stroke="#63b8ff" d="M210.64,-42.31C228.49,-43.26 252.62,-47.27 269,-60.62 299.53,-85.53 275.16,-115.9 305,-141.62 317.59,-152.47 334.5,-158.64 350.29,-162.14"/>
<polygon fill="#63b8ff" stroke="#63b8ff" points="349.55,-165.56 360.02,-163.97 350.84,-158.68 349.55,-165.56"/>
</a>
</g>
</g>
<!-- Node21&#45;&gt;Node3 -->
<g id="edge136_Node000021_Node000003" class="edge">
<title>Node21&#45;&gt;Node3</title>
<g id="a_edge136_Node000021_Node000003"><a xlink:title=" ">
<path fill="none" stroke="#63b8ff" d="M422.96,-96.61C444.1,-106.28 472.88,-123.1 487.5,-147.62 529.01,-217.25 470.38,-449.39 523.5,-510.62 535.33,-524.27 555.21,-528.94 571.87,-530.24"/>
<polygon fill="#63b8ff" stroke="#63b8ff" points="571.64,-533.74 581.76,-530.62 571.9,-526.74 571.64,-533.74"/>
</a>
</g>
</g>
<!-- Node21&#45;&gt;Node5 -->
<g id="edge137_Node000021_Node000005" class="edge">
<title>Node21&#45;&gt;Node5</title>
<g id="a_edge137_Node000021_Node000005"><a xlink:title=" ">
<path fill="none" stroke="#63b8ff" d="M422.74,-81.38C448.14,-76.44 488.32,-69.39 523.5,-66.62 593.06,-61.15 611.03,-60.09 680.5,-66.62 769.15,-74.96 870.6,-96.83 930.05,-110.93"/>
<polygon fill="#63b8ff" stroke="#63b8ff" points="928.99,-114.28 939.53,-113.2 930.62,-107.47 928.99,-114.28"/>
</a>
</g>
</g>
<!-- Node21&#45;&gt;Node14 -->
<g id="edge135_Node000021_Node000014" class="edge">
<title>Node21&#45;&gt;Node14</title>
<g id="a_edge135_Node000021_Node000014"><a xlink:title=" ">
<path fill="none" stroke="#63b8ff" d="M417.71,-96.57C437.56,-107.05 467.54,-125.13 487.5,-147.62 510.72,-173.79 496.7,-195.14 523.5,-217.62 526.03,-219.75 528.74,-221.68 531.59,-223.44"/>
<polygon fill="#63b8ff" stroke="#63b8ff" points="529.88,-226.5 540.36,-228.1 533.17,-220.32 529.88,-226.5"/>
</a>
</g>
</g>
<!-- Node21&#45;&gt;Node22 -->
<g id="edge138_Node000021_Node000022" class="edge">
<title>Node21&#45;&gt;Node22</title>
<g id="a_edge138_Node000021_Node000022"><a xlink:title=" ">
<path fill="none" stroke="#63b8ff" d="M419.34,-76.58C444.34,-65.39 486.42,-47.11 523.5,-33.62 533.72,-29.91 544.82,-26.25 555.34,-22.96"/>
<polygon fill="#63b8ff" stroke="#63b8ff" points="556.06,-26.4 564.59,-20.11 554,-19.7 556.06,-26.4"/>
</a>
</g>
</g>
<!-- Node23 -->
<g id="Node000023" class="node">
<title>Node23</title>
<g id="a_Node000023"><a xlink:href="$class_t_c_p_d_f___f_o_n_t_s.html#a32394898b8badb214439dd0781b011cd" xlink:title=" ">
<polygon fill="white" stroke="#666666" points="877.25,-133.25 716.5,-133.25 716.5,-114 877.25,-114 877.25,-133.25"/>
<text text-anchor="middle" x="796.88" y="-119.75" font-family="Helvetica,sans-Serif" font-size="10.00">TCPDF_FONTS\getFontFullPath</text>
</a>
</g>
</g>
<!-- Node21&#45;&gt;Node23 -->
<g id="edge139_Node000021_Node000023" class="edge">
<title>Node21&#45;&gt;Node23</title>
<g id="a_edge139_Node000021_Node000023"><a xlink:title=" ">
<path fill="none" stroke="#63b8ff" d="M422.81,-90.82C448.27,-94.87 488.49,-100.91 523.5,-104.62 583.77,-111.02 651.79,-115.76 704.78,-118.91"/>
<polygon fill="#63b8ff" stroke="#63b8ff" points="704.49,-122.4 714.68,-119.49 704.9,-115.41 704.49,-122.4"/>
</a>
</g>
</g>
<!-- Node24 -->
<g id="Node000024" class="node">
<title>Node24</title>
<g id="a_Node000024"><a xlink:href="$class_t_c_p_d_f.html#a10adf1445ebb13d2267c8e8810016661" xlink:title=" ">
<polygon fill="white" stroke="#666666" points="639.62,-95.25 564.38,-95.25 564.38,-76 639.62,-76 639.62,-95.25"/>
<text text-anchor="middle" x="602" y="-81.75" font-family="Helvetica,sans-Serif" font-size="10.00">setFontBuffer</text>
</a>
</g>
</g>
<!-- Node21&#45;&gt;Node24 -->
<g id="edge141_Node000021_Node000024" class="edge">
<title>Node21&#45;&gt;Node24</title>
<g id="a_edge141_Node000021_Node000024"><a xlink:title=" ">
<path fill="none" stroke="#63b8ff" d="M423.06,-86.5C455.58,-86.34 512.14,-86.06 552.77,-85.86"/>
<polygon fill="#63b8ff" stroke="#63b8ff" points="552.54,-89.36 562.52,-85.81 552.5,-82.36 552.54,-89.36"/>
</a>
</g>
</g>
<!-- Node21&#45;&gt;Node25 -->
<g id="edge142_Node000021_Node000025" class="edge">
<title>Node21&#45;&gt;Node25</title>
<g id="a_edge142_Node000021_Node000025"><a xlink:title=" ">
<path fill="none" stroke="#63b8ff" d="M422.89,-92.14C441.37,-96.62 466.63,-103.82 487.5,-113.62 504.9,-121.8 506.14,-129.36 523.5,-137.62 531.82,-141.58 540.95,-145.09 549.92,-148.11"/>
<polygon fill="#63b8ff" stroke="#63b8ff" points="548.71,-151.39 559.3,-151.09 550.83,-144.72 548.71,-151.39"/>
</a>
</g>
</g>
<!-- Node23&#45;&gt;Node5 -->
<g id="edge140_Node000023_Node000005" class="edge">
<title>Node23&#45;&gt;Node5</title>
<g id="a_edge140_Node000023_Node000005"><a xlink:title=" ">
<path fill="none" stroke="#63b8ff" d="M877.66,-123.62C885.56,-123.62 893.58,-123.62 901.48,-123.62"/>
<polygon fill="#63b8ff" stroke="#63b8ff" points="901.42,-127.13 911.42,-123.63 901.42,-120.13 901.42,-127.13"/>
</a>
</g>
</g>
<!-- Node27 -->
<g id="Node000027" class="node">
<title>Node27</title>
<g id="a_Node000027"><a xlink:href="$class_t_c_p_d_f.html#a01627a8b7ad5c79ee736572b3d2ef3f5" xlink:title=" ">
<polygon fill="white" stroke="#666666" points="619.38,-208.25 584.62,-208.25 584.62,-189 619.38,-189 619.38,-208.25"/>
<text text-anchor="middle" x="602" y="-194.75" font-family="Helvetica,sans-Serif" font-size="10.00">_out</text>
</a>
</g>
</g>
<!-- Node26&#45;&gt;Node27 -->
<g id="edge145_Node000026_Node000027" class="edge">
<title>Node26&#45;&gt;Node27</title>
<g id="a_edge145_Node000026_Node000027"><a xlink:title=" ">
<path fill="none" stroke="#63b8ff" d="M430.9,-171.91C470.67,-178.16 536.13,-188.44 573.18,-194.26"/>
<polygon fill="#63b8ff" stroke="#63b8ff" points="572.22,-197.65 582.64,-195.74 573.31,-190.73 572.22,-197.65"/>
</a>
</g>
</g>
<!-- Node28 -->
<g id="Node000028" class="node">
<title>Node28</title>
<g id="a_Node000028"><a xlink:href="$class_t_c_p_d_f.html#a2f0c138e82371b95c3899451a330da05" xlink:title=" ">
<polygon fill="white" stroke="#666666" points="836,-245.25 757.75,-245.25 757.75,-226 836,-226 836,-245.25"/>
<text text-anchor="middle" x="796.88" y="-231.75" font-family="Helvetica,sans-Serif" font-size="10.00">getPageBuffer</text>
</a>
</g>
</g>
<!-- Node27&#45;&gt;Node28 -->
<g id="edge146_Node000027_Node000028" class="edge">
<title>Node27&#45;&gt;Node28</title>
<g id="a_edge146_Node000027_Node000028"><a xlink:title=" ">
<path fill="none" stroke="#63b8ff" d="M619.78,-201.84C647.68,-207.2 704.64,-218.12 746.25,-226.11"/>
<polygon fill="#63b8ff" stroke="#63b8ff" points="745.58,-229.54 756.06,-227.99 746.9,-222.67 745.58,-229.54"/>
</a>
</g>
</g>
<!-- Node29 -->
<g id="Node000029" class="node">
<title>Node29</title>
<g id="a_Node000029"><a xlink:href="$class_t_c_p_d_f.html#ac43455b74ede7e3f1d7558feb764eb6f" xlink:title=" ">
<polygon fill="white" stroke="#666666" points="824.75,-208.25 769,-208.25 769,-189 824.75,-189 824.75,-208.25"/>
<text text-anchor="middle" x="796.88" y="-194.75" font-family="Helvetica,sans-Serif" font-size="10.00">setBuffer</text>
</a>
</g>
</g>
<!-- Node27&#45;&gt;Node29 -->
<g id="edge147_Node000027_Node000029" class="edge">
<title>Node27&#45;&gt;Node29</title>
<g id="a_edge147_Node000027_Node000029"><a xlink:title=" ">
<path fill="none" stroke="#63b8ff" d="M619.78,-198.62C650.21,-198.62 715.22,-198.62 757.17,-198.62"/>
<polygon fill="#63b8ff" stroke="#63b8ff" points="757.09,-202.13 767.09,-198.63 757.09,-195.13 757.09,-202.13"/>
</a>
</g>
</g>
<!-- Node30 -->
<g id="Node000030" class="node">
<title>Node30</title>
<g id="a_Node000030"><a xlink:href="$class_t_c_p_d_f.html#af4d8e4aed525c0bded587be897297a7f" xlink:title=" ">
<polygon fill="white" stroke="#666666" points="836,-171.25 757.75,-171.25 757.75,-152 836,-152 836,-171.25"/>
<text text-anchor="middle" x="796.88" y="-157.75" font-family="Helvetica,sans-Serif" font-size="10.00">setPageBuffer</text>
</a>
</g>
</g>
<!-- Node27&#45;&gt;Node30 -->
<g id="edge148_Node000027_Node000030" class="edge">
<title>Node27&#45;&gt;Node30</title>
<g id="a_edge148_Node000027_Node000030"><a xlink:title=" ">
<path fill="none" stroke="#63b8ff" d="M619.78,-195.41C647.68,-190.05 704.64,-179.13 746.25,-171.14"/>
<polygon fill="#63b8ff" stroke="#63b8ff" points="746.9,-174.58 756.06,-169.26 745.58,-167.71 746.9,-174.58"/>
</a>
</g>
</g>
<!-- Node35 -->
<g id="Node000035" class="node">
<title>Node35</title>
<g id="a_Node000035"><a xlink:href="$class_t_c_p_d_f___s_t_a_t_i_c.html#ab4a03a52622c9a4bfa8ea5a60af21df7" xlink:title=" ">
<polygon fill="white" stroke="#666666" points="470.62,-382.88 321.88,-382.88 321.88,-352.38 470.62,-352.38 470.62,-382.88"/>
<text text-anchor="start" x="329.88" y="-369.38" font-family="Helvetica,sans-Serif" font-size="10.00">TCPDF_STATIC\getPageSize</text>
<text text-anchor="middle" x="396.25" y="-358.12" font-family="Helvetica,sans-Serif" font-size="10.00">FromFormat</text>
</a>
</g>
</g>
<!-- Node34&#45;&gt;Node35 -->
<g id="edge154_Node000034_Node000035" class="edge">
<title>Node34&#45;&gt;Node35</title>
<g id="a_edge154_Node000034_Node000035"><a xlink:title=" ">
<path fill="none" stroke="#63b8ff" d="M227.65,-407.87C253.48,-401.66 287.73,-393.44 318.54,-386.04"/>
<polygon fill="#63b8ff" stroke="#63b8ff" points="319.33,-389.45 328.24,-383.71 317.7,-382.65 319.33,-389.45"/>
</a>
</g>
</g>
<!-- Node36 -->
<g id="Node000036" class="node">
<title>Node36</title>
<g id="a_Node000036"><a xlink:href="$class_t_c_p_d_f___s_t_a_t_i_c.html#ad10f3b7c407e370791f314ac10c3ade8" xlink:title=" ">
<polygon fill="white" stroke="#666666" points="680.5,-415.25 523.5,-415.25 523.5,-396 680.5,-396 680.5,-415.25"/>
<text text-anchor="middle" x="602" y="-401.75" font-family="Helvetica,sans-Serif" font-size="10.00">TCPDF_STATIC\setPageBoxes</text>
</a>
</g>
</g>
<!-- Node34&#45;&gt;Node36 -->
<g id="edge155_Node000034_Node000036" class="edge">
<title>Node34&#45;&gt;Node36</title>
<g id="a_edge155_Node000034_Node000036"><a xlink:title=" ">
<path fill="none" stroke="#63b8ff" d="M227.83,-416.44C293.49,-414.54 424.09,-410.75 512.02,-408.2"/>
<polygon fill="#63b8ff" stroke="#63b8ff" points="511.92,-411.71 521.81,-407.92 511.72,-404.71 511.92,-411.71"/>
</a>
</g>
</g>
<!-- Node37 -->
<g id="Node000037" class="node">
<title>Node37</title>
<g id="a_Node000037"><a xlink:href="$class_t_c_p_d_f.html#a15a7df8c183430de8543646532664311" xlink:title=" ">
<polygon fill="white" stroke="#666666" points="445.88,-458.25 346.62,-458.25 346.62,-439 445.88,-439 445.88,-458.25"/>
<text text-anchor="middle" x="396.25" y="-444.75" font-family="Helvetica,sans-Serif" font-size="10.00">setPageOrientation</text>
</a>
</g>
</g>
<!-- Node34&#45;&gt;Node37 -->
<g id="edge156_Node000034_Node000037" class="edge">
<title>Node34&#45;&gt;Node37</title>
<g id="a_edge156_Node000034_Node000037"><a xlink:title=" ">
<path fill="none" stroke="#63b8ff" d="M227.65,-423.68C258.17,-428.22 300.46,-434.51 334.92,-439.64"/>
<polygon fill="#63b8ff" stroke="#63b8ff" points="334.37,-443.1 344.78,-441.11 335.4,-436.18 334.37,-443.1"/>
</a>
</g>
</g>
<!-- Node37&#45;&gt;Node12 -->
<g id="edge158_Node000037_Node000012" class="edge">
<title>Node37&#45;&gt;Node12</title>
<g id="a_edge158_Node000037_Node000012"><a xlink:title=" ">
<path fill="none" stroke="#63b8ff" d="M445.02,-458.71C474.04,-464.83 511.31,-472.7 542.14,-479.2"/>
<polygon fill="#63b8ff" stroke="#63b8ff" points="541.19,-482.58 551.7,-481.22 542.63,-475.73 541.19,-482.58"/>
</a>
</g>
</g>
<!-- Node37&#45;&gt;Node14 -->
<g id="edge157_Node000037_Node000014" class="edge">
<title>Node37&#45;&gt;Node14</title>
<g id="a_edge157_Node000037_Node000014"><a xlink:title=" ">
<path fill="none" stroke="#63b8ff" d="M417.32,-438.67C436.62,-428.51 465.94,-411.44 487.5,-391.62 529.16,-353.34 566.42,-298.18 586.15,-266.51"/>
<polygon fill="#63b8ff" stroke="#63b8ff" points="588.88,-268.75 591.13,-258.4 582.91,-265.09 588.88,-268.75"/>
</a>
</g>
</g>
<!-- Node37&#45;&gt;Node36 -->
<g id="edge159_Node000037_Node000036" class="edge">
<title>Node37&#45;&gt;Node36</title>
<g id="a_edge159_Node000037_Node000036"><a xlink:title=" ">
<path fill="none" stroke="#63b8ff" d="M445.02,-438.54C474.04,-432.42 511.31,-424.55 542.14,-418.05"/>
<polygon fill="#63b8ff" stroke="#63b8ff" points="542.63,-421.52 551.7,-416.03 541.19,-414.67 542.63,-421.52"/>
</a>
</g>
</g>
<!-- Node38 -->
<g id="Node000038" class="node">
<title>Node38</title>
<g id="a_Node000038"><a xlink:href="$class_t_c_p_d_f___s_t_a_t_i_c.html#abb373427f96b239defbc25b3ca5fada1" xlink:title=" ">
<polygon fill="white" stroke="#666666" points="680.12,-463.88 523.88,-463.88 523.88,-433.38 680.12,-433.38 680.12,-463.88"/>
<text text-anchor="start" x="531.88" y="-450.38" font-family="Helvetica,sans-Serif" font-size="10.00">TCPDF_STATIC\swapPageBox</text>
<text text-anchor="middle" x="602" y="-439.12" font-family="Helvetica,sans-Serif" font-size="10.00">Coordinates</text>
</a>
</g>
</g>
<!-- Node37&#45;&gt;Node38 -->
<g id="edge160_Node000037_Node000038" class="edge">
<title>Node37&#45;&gt;Node38</title>
<g id="a_edge160_Node000037_Node000038"><a xlink:title=" ">
<path fill="none" stroke="#63b8ff" d="M446.31,-448.62C466.16,-448.62 489.7,-448.62 512.35,-448.62"/>
<polygon fill="#63b8ff" stroke="#63b8ff" points="512.22,-452.13 522.22,-448.63 512.22,-445.13 512.22,-452.13"/>
</a>
</g>
</g>
<!-- Node39&#45;&gt;Node3 -->
<g id="edge162_Node000039_Node000003" class="edge">
<title>Node39&#45;&gt;Node3</title>
<g id="a_edge162_Node000039_Node000003"><a xlink:title=" ">
<path fill="none" stroke="#63b8ff" d="M221.23,-530.54C300.88,-530.35 497.47,-529.88 571.85,-529.7"/>
<polygon fill="#63b8ff" stroke="#63b8ff" points="571.59,-533.2 581.58,-529.67 571.58,-526.2 571.59,-533.2"/>
</a>
</g>
</g>
<!-- Node39&#45;&gt;Node37 -->
<g id="edge163_Node000039_Node000037" class="edge">
<title>Node39&#45;&gt;Node37</title>
<g id="a_edge163_Node000039_Node000037"><a xlink:title=" ">
<path fill="none" stroke="#63b8ff" d="M212.54,-520.57C249.33,-506.08 317.41,-479.28 359.28,-462.79"/>
<polygon fill="#63b8ff" stroke="#63b8ff" points="360.4,-466.11 368.42,-459.19 357.84,-459.6 360.4,-466.11"/>
</a>
</g>
</g>
<!-- Node43&#45;&gt;Node14 -->
<g id="edge168_Node000043_Node000014" class="edge">
<title>Node43&#45;&gt;Node14</title>
<g id="a_edge168_Node000043_Node000014"><a xlink:title=" ">
<path fill="none" stroke="#63b8ff" d="M458.93,-241.62C481.48,-241.62 507.16,-241.62 530.42,-241.62"/>
<polygon fill="#63b8ff" stroke="#63b8ff" points="530.11,-245.13 540.11,-241.63 530.11,-238.13 530.11,-245.13"/>
</a>
</g>
</g>
</g>
</svg>
