<?xml version="1.0" encoding="UTF-8" standalone="no"?>
<!DOCTYPE svg PUBLIC "-//W3C//DTD SVG 1.1//EN"
 "http://www.w3.org/Graphics/SVG/1.1/DTD/svg11.dtd">
<!-- Generated by graphviz version 10.0.1 (20240210.2158)
 -->
<!-- Title: checkPluginState Pages: 1 -->
<svg width="510pt" height="175pt"
 viewBox="0.00 0.00 510.00 175.25" xmlns="http://www.w3.org/2000/svg" xmlns:xlink="http://www.w3.org/1999/xlink">
<g id="graph0" class="graph" transform="scale(1 1) rotate(0) translate(4 171.25)">
<title>checkPluginState</title>
<!-- Node1 -->
<g id="Node000001" class="node">
<title>Node1</title>
<g id="a_Node000001"><a xlink:title=" ">
<polygon fill="#999999" stroke="#666666" points="92.5,-74.25 0,-74.25 0,-55 92.5,-55 92.5,-74.25"/>
<text text-anchor="middle" x="46.25" y="-60.75" font-family="Helvetica,sans-Serif" font-size="10.00">checkPluginState</text>
</a>
</g>
</g>
<!-- Node2 -->
<g id="Node000002" class="node">
<title>Node2</title>
<g id="a_Node000002"><a xlink:href="$class_plugin.html#ae7866d15a060bbca520bd3f55a81412a" xlink:title=" ">
<polygon fill="white" stroke="#666666" points="209,-93.25 128.5,-93.25 128.5,-74 209,-74 209,-93.25"/>
<text text-anchor="middle" x="168.75" y="-79.75" font-family="Helvetica,sans-Serif" font-size="10.00">checkVersions</text>
</a>
</g>
</g>
<!-- Node1&#45;&gt;Node2 -->
<g id="edge25_Node000001_Node000002" class="edge">
<title>Node1&#45;&gt;Node2</title>
<g id="a_edge25_Node000001_Node000002"><a xlink:title=" ">
<path fill="none" stroke="#63b8ff" d="M92.81,-71.81C100.69,-73.05 108.93,-74.35 116.94,-75.61"/>
<polygon fill="#63b8ff" stroke="#63b8ff" points="116.13,-79.03 126.56,-77.13 117.22,-72.11 116.13,-79.03"/>
</a>
</g>
</g>
<!-- Node12 -->
<g id="Node000012" class="node">
<title>Node12</title>
<g id="a_Node000012"><a xlink:href="$class_plugin.html#a91939ea38d22f5e4dcb055bce31cd79e" xlink:title=" ">
<polygon fill="white" stroke="#666666" points="199.25,-56.25 138.25,-56.25 138.25,-37 199.25,-37 199.25,-56.25"/>
<text text-anchor="middle" x="168.75" y="-42.75" font-family="Helvetica,sans-Serif" font-size="10.00">unactivate</text>
</a>
</g>
</g>
<!-- Node1&#45;&gt;Node12 -->
<g id="edge36_Node000001_Node000012" class="edge">
<title>Node1&#45;&gt;Node12</title>
<g id="a_edge36_Node000001_Node000012"><a xlink:title=" ">
<path fill="none" stroke="#63b8ff" d="M92.81,-57.82C103.87,-56.17 115.63,-54.41 126.48,-52.79"/>
<polygon fill="#63b8ff" stroke="#63b8ff" points="126.95,-56.26 136.32,-51.32 125.92,-49.34 126.95,-56.26"/>
</a>
</g>
</g>
<!-- Node3 -->
<g id="Node000003" class="node">
<title>Node3</title>
<g id="a_Node000003"><a xlink:href="$class_plugin.html#a957daaec1bf411cff674938e0ae5f708" xlink:title=" ">
<polygon fill="white" stroke="#666666" points="345.75,-167.25 254,-167.25 254,-148 345.75,-148 345.75,-167.25"/>
<text text-anchor="middle" x="299.88" y="-153.75" font-family="Helvetica,sans-Serif" font-size="10.00">checkGlpiPlugins</text>
</a>
</g>
</g>
<!-- Node2&#45;&gt;Node3 -->
<g id="edge26_Node000002_Node000003" class="edge">
<title>Node2&#45;&gt;Node3</title>
<g id="a_edge26_Node000002_Node000003"><a xlink:title=" ">
<path fill="none" stroke="#63b8ff" d="M180.72,-93.57C194.74,-105.84 220.17,-126.66 245,-139.62 247.52,-140.94 250.16,-142.19 252.86,-143.37"/>
<polygon fill="#63b8ff" stroke="#63b8ff" points="251.44,-146.57 262.02,-147.02 254.03,-140.07 251.44,-146.57"/>
</a>
</g>
</g>
<!-- Node5 -->
<g id="Node000005" class="node">
<title>Node5</title>
<g id="a_Node000005"><a xlink:href="$class_plugin.html#af5bf232bc65668eae846c153345cd958" xlink:title=" ">
<polygon fill="white" stroke="#666666" points="346.12,-130.25 253.62,-130.25 253.62,-111 346.12,-111 346.12,-130.25"/>
<text text-anchor="middle" x="299.88" y="-116.75" font-family="Helvetica,sans-Serif" font-size="10.00">checkGlpiVersion</text>
</a>
</g>
</g>
<!-- Node2&#45;&gt;Node5 -->
<g id="edge28_Node000002_Node000005" class="edge">
<title>Node2&#45;&gt;Node5</title>
<g id="a_edge28_Node000002_Node000005"><a xlink:title=" ">
<path fill="none" stroke="#63b8ff" d="M205.03,-93.74C219.7,-97.94 236.91,-102.87 252.57,-107.36"/>
<polygon fill="#63b8ff" stroke="#63b8ff" points="251.6,-110.72 262.18,-110.11 253.53,-103.99 251.6,-110.72"/>
</a>
</g>
</g>
<!-- Node8 -->
<g id="Node000008" class="node">
<title>Node8</title>
<g id="a_Node000008"><a xlink:href="$class_plugin.html#a9847d064ffeed69c5db825274c5d524b" xlink:title=" ">
<polygon fill="white" stroke="#666666" points="354,-93.25 245.75,-93.25 245.75,-74 354,-74 354,-93.25"/>
<text text-anchor="middle" x="299.88" y="-79.75" font-family="Helvetica,sans-Serif" font-size="10.00">checkPhpExtensions</text>
</a>
</g>
</g>
<!-- Node2&#45;&gt;Node8 -->
<g id="edge31_Node000002_Node000008" class="edge">
<title>Node2&#45;&gt;Node8</title>
<g id="a_edge31_Node000002_Node000008"><a xlink:title=" ">
<path fill="none" stroke="#63b8ff" d="M209.19,-83.62C217.05,-83.62 225.49,-83.62 233.93,-83.62"/>
<polygon fill="#63b8ff" stroke="#63b8ff" points="233.89,-87.13 243.89,-83.63 233.89,-80.13 233.89,-87.13"/>
</a>
</g>
</g>
<!-- Node9 -->
<g id="Node000009" class="node">
<title>Node9</title>
<g id="a_Node000009"><a xlink:href="$class_plugin.html#aa0b93156e6e5dd7b5b30be30a0d2c25a" xlink:title=" ">
<polygon fill="white" stroke="#666666" points="354.75,-56.25 245,-56.25 245,-37 354.75,-37 354.75,-56.25"/>
<text text-anchor="middle" x="299.88" y="-42.75" font-family="Helvetica,sans-Serif" font-size="10.00">checkPhpParameters</text>
</a>
</g>
</g>
<!-- Node2&#45;&gt;Node9 -->
<g id="edge32_Node000002_Node000009" class="edge">
<title>Node2&#45;&gt;Node9</title>
<g id="a_edge32_Node000002_Node000009"><a xlink:title=" ">
<path fill="none" stroke="#63b8ff" d="M205.03,-73.51C219.7,-69.31 236.91,-64.38 252.57,-59.89"/>
<polygon fill="#63b8ff" stroke="#63b8ff" points="253.53,-63.26 262.18,-57.14 251.6,-56.53 253.53,-63.26"/>
</a>
</g>
</g>
<!-- Node10 -->
<g id="Node000010" class="node">
<title>Node10</title>
<g id="a_Node000010"><a xlink:href="$class_plugin.html#aa8cce9a3947f1e5b1e7a904786aa909e" xlink:title=" ">
<polygon fill="white" stroke="#666666" points="346.12,-19.25 253.62,-19.25 253.62,0 346.12,0 346.12,-19.25"/>
<text text-anchor="middle" x="299.88" y="-5.75" font-family="Helvetica,sans-Serif" font-size="10.00">checkPhpVersion</text>
</a>
</g>
</g>
<!-- Node2&#45;&gt;Node10 -->
<g id="edge33_Node000002_Node000010" class="edge">
<title>Node2&#45;&gt;Node10</title>
<g id="a_edge33_Node000002_Node000010"><a xlink:title=" ">
<path fill="none" stroke="#63b8ff" d="M195.46,-73.56C200.14,-71.25 204.85,-68.59 209,-65.62 227.92,-52.08 225.38,-40.13 245,-27.62 246.84,-26.45 248.76,-25.35 250.74,-24.31"/>
<polygon fill="#63b8ff" stroke="#63b8ff" points="251.96,-27.6 259.61,-20.27 249.05,-21.23 251.96,-27.6"/>
</a>
</g>
</g>
<!-- Node4 -->
<g id="Node000004" class="node">
<title>Node4</title>
<g id="a_Node000004"><a xlink:href="$class_plugin.html#a74ba2f209150f2f691bdcfd21d07db33" xlink:title=" ">
<polygon fill="white" stroke="#666666" points="478.75,-167.25 414,-167.25 414,-148 478.75,-148 478.75,-167.25"/>
<text text-anchor="middle" x="446.38" y="-153.75" font-family="Helvetica,sans-Serif" font-size="10.00">isActivated</text>
</a>
</g>
</g>
<!-- Node3&#45;&gt;Node4 -->
<g id="edge27_Node000003_Node000004" class="edge">
<title>Node3&#45;&gt;Node4</title>
<g id="a_edge27_Node000003_Node000004"><a xlink:title=" ">
<path fill="none" stroke="#63b8ff" d="M346.2,-157.62C364.17,-157.62 384.74,-157.62 402.47,-157.62"/>
<polygon fill="#63b8ff" stroke="#63b8ff" points="402.43,-161.13 412.42,-157.63 402.42,-154.13 402.43,-161.13"/>
</a>
</g>
</g>
<!-- Node6 -->
<g id="Node000006" class="node">
<title>Node6</title>
<g id="a_Node000006"><a xlink:href="$class_plugin.html#a6e30bbc6e2b0960b62d9d56a62e73701" xlink:title=" ">
<polygon fill="white" stroke="#666666" points="486.25,-130.25 406.5,-130.25 406.5,-111 486.25,-111 486.25,-130.25"/>
<text text-anchor="middle" x="446.38" y="-116.75" font-family="Helvetica,sans-Serif" font-size="10.00">getGlpiVersion</text>
</a>
</g>
</g>
<!-- Node5&#45;&gt;Node6 -->
<g id="edge29_Node000005_Node000006" class="edge">
<title>Node5&#45;&gt;Node6</title>
<g id="a_edge29_Node000005_Node000006"><a xlink:title=" ">
<path fill="none" stroke="#63b8ff" d="M346.6,-120.62C362.03,-120.62 379.34,-120.62 395.11,-120.62"/>
<polygon fill="#63b8ff" stroke="#63b8ff" points="394.76,-124.13 404.76,-120.63 394.76,-117.13 394.76,-124.13"/>
</a>
</g>
</g>
<!-- Node7 -->
<g id="Node000007" class="node">
<title>Node7</title>
<g id="a_Node000007"><a xlink:href="$class_plugin.html#a9f5c4d40f01fdaa76d6850c3464e0b44" xlink:title=" ">
<polygon fill="white" stroke="#666666" points="502,-75.25 390.75,-75.25 390.75,-56 502,-56 502,-75.25"/>
<text text-anchor="middle" x="446.38" y="-61.75" font-family="Helvetica,sans-Serif" font-size="10.00">messageIncompatible</text>
</a>
</g>
</g>
<!-- Node5&#45;&gt;Node7 -->
<g id="edge30_Node000005_Node000007" class="edge">
<title>Node5&#45;&gt;Node7</title>
<g id="a_edge30_Node000005_Node000007"><a xlink:title=" ">
<path fill="none" stroke="#63b8ff" d="M332.05,-110.59C339.52,-108.08 347.45,-105.33 354.75,-102.62 373.7,-95.6 394.61,-87.11 411.56,-80.04"/>
<polygon fill="#63b8ff" stroke="#63b8ff" points="412.81,-83.31 420.67,-76.22 410.1,-76.86 412.81,-83.31"/>
</a>
</g>
</g>
<!-- Node10&#45;&gt;Node7 -->
<g id="edge35_Node000010_Node000007" class="edge">
<title>Node10&#45;&gt;Node7</title>
<g id="a_edge35_Node000010_Node000007"><a xlink:title=" ">
<path fill="none" stroke="#63b8ff" d="M332.35,-19.7C339.74,-22.19 347.55,-24.92 354.75,-27.62 374.01,-34.87 395.23,-43.72 412.29,-51.06"/>
<polygon fill="#63b8ff" stroke="#63b8ff" points="410.89,-54.26 421.46,-55.02 413.67,-47.84 410.89,-54.26"/>
</a>
</g>
</g>
<!-- Node11 -->
<g id="Node000011" class="node">
<title>Node11</title>
<g id="a_Node000011"><a xlink:href="$class_plugin.html#a3387e708ca19a61036f28cf50a6e7adc" xlink:title=" ">
<polygon fill="white" stroke="#666666" points="486.25,-19.25 406.5,-19.25 406.5,0 486.25,0 486.25,-19.25"/>
<text text-anchor="middle" x="446.38" y="-5.75" font-family="Helvetica,sans-Serif" font-size="10.00">getPhpVersion</text>
</a>
</g>
</g>
<!-- Node10&#45;&gt;Node11 -->
<g id="edge34_Node000010_Node000011" class="edge">
<title>Node10&#45;&gt;Node11</title>
<g id="a_edge34_Node000010_Node000011"><a xlink:title=" ">
<path fill="none" stroke="#63b8ff" d="M346.6,-9.62C362.03,-9.62 379.34,-9.62 395.11,-9.62"/>
<polygon fill="#63b8ff" stroke="#63b8ff" points="394.76,-13.13 404.76,-9.63 394.76,-6.13 394.76,-13.13"/>
</a>
</g>
</g>
</g>
</svg>
