<?xml version="1.0" encoding="UTF-8" standalone="no"?>
<!DOCTYPE svg PUBLIC "-//W3C//DTD SVG 1.1//EN"
 "http://www.w3.org/Graphics/SVG/1.1/DTD/svg11.dtd">
<!-- Generated by graphviz version 10.0.1 (20240210.2158)
 -->
<!-- Title: showDeleteConfirmForm Pages: 1 -->
<svg width="341pt" height="101pt"
 viewBox="0.00 0.00 341.05 101.25" xmlns="http://www.w3.org/2000/svg" xmlns:xlink="http://www.w3.org/1999/xlink">
<g id="graph0" class="graph" transform="scale(1 1) rotate(0) translate(4 97.25)">
<title>showDeleteConfirmForm</title>
<!-- Node1 -->
<g id="Node000001" class="node">
<title>Node1</title>
<g id="a_Node000001"><a xlink:title=" ">
<polygon fill="#999999" stroke="#666666" points="124.75,-56.25 0,-56.25 0,-37 124.75,-37 124.75,-56.25"/>
<text text-anchor="middle" x="62.38" y="-42.75" font-family="Helvetica,sans-Serif" font-size="10.00">showDeleteConfirmForm</text>
</a>
</g>
</g>
<!-- Node2 -->
<g id="Node000002" class="node">
<title>Node2</title>
<g id="a_Node000002"><a xlink:href="$autoload_8function_8php.html#affc4787304a41a695a489fc24d60877d" xlink:title=" ">
<polygon fill="white" stroke="#666666" points="230.38,-93.25 198.62,-93.25 198.62,-74 230.38,-74 230.38,-93.25"/>
<text text-anchor="middle" x="214.5" y="-79.75" font-family="Helvetica,sans-Serif" font-size="10.00">_sx</text>
</a>
</g>
</g>
<!-- Node1&#45;&gt;Node2 -->
<g id="edge9_Node000001_Node000002" class="edge">
<title>Node1&#45;&gt;Node2</title>
<g id="a_edge9_Node000001_Node000002"><a xlink:title=" ">
<path fill="none" stroke="#63b8ff" d="M104.4,-56.74C130.86,-63.26 164.49,-71.55 187.37,-77.19"/>
<polygon fill="#63b8ff" stroke="#63b8ff" points="186.25,-80.51 196.79,-79.51 187.92,-73.72 186.25,-80.51"/>
</a>
</g>
</g>
<!-- Node4 -->
<g id="Node000004" class="node">
<title>Node4</title>
<g id="a_Node000004"><a xlink:href="$db_8function_8php.html#a91adb262d3b5c32d0aecb58855d84fe2" xlink:title=" ">
<polygon fill="white" stroke="#666666" points="268.25,-56.25 160.75,-56.25 160.75,-37 268.25,-37 268.25,-56.25"/>
<text text-anchor="middle" x="214.5" y="-42.75" font-family="Helvetica,sans-Serif" font-size="10.00">getItemTypeForTable</text>
</a>
</g>
</g>
<!-- Node1&#45;&gt;Node4 -->
<g id="edge11_Node000001_Node000004" class="edge">
<title>Node1&#45;&gt;Node4</title>
<g id="a_edge11_Node000001_Node000004"><a xlink:title=" ">
<path fill="none" stroke="#63b8ff" d="M124.87,-46.62C132.91,-46.62 141.16,-46.62 149.23,-46.62"/>
<polygon fill="#63b8ff" stroke="#63b8ff" points="148.99,-50.13 158.99,-46.63 148.99,-43.13 148.99,-50.13"/>
</a>
</g>
</g>
<!-- Node5 -->
<g id="Node000005" class="node">
<title>Node5</title>
<g id="a_Node000005"><a xlink:href="$db_8function_8php.html#abc846c309dbeaefba6b87b05e65cc409" xlink:title=" ">
<polygon fill="white" stroke="#666666" points="245.75,-19.25 183.25,-19.25 183.25,0 245.75,0 245.75,-19.25"/>
<text text-anchor="middle" x="214.5" y="-5.75" font-family="Helvetica,sans-Serif" font-size="10.00">getSonsOf</text>
</a>
</g>
</g>
<!-- Node1&#45;&gt;Node5 -->
<g id="edge12_Node000001_Node000005" class="edge">
<title>Node1&#45;&gt;Node5</title>
<g id="a_edge12_Node000001_Node000005"><a xlink:title=" ">
<path fill="none" stroke="#63b8ff" d="M104.4,-36.51C125.44,-31.33 151.02,-25.02 172.12,-19.82"/>
<polygon fill="#63b8ff" stroke="#63b8ff" points="172.67,-23.29 181.54,-17.5 170.99,-16.5 172.67,-23.29"/>
</a>
</g>
</g>
<!-- Node3 -->
<g id="Node000003" class="node">
<title>Node3</title>
<g id="a_Node000003"><a xlink:href="$autoload_8function_8php.html#a2111ba1b23d22b49aee91462961bda8a" xlink:title=" ">
<polygon fill="white" stroke="#666666" points="333.05,-93.25 304.25,-93.25 304.25,-74 333.05,-74 333.05,-93.25"/>
<text text-anchor="middle" x="318.65" y="-79.75" font-family="Helvetica,sans-Serif" font-size="10.00">_x</text>
</a>
</g>
</g>
<!-- Node2&#45;&gt;Node3 -->
<g id="edge10_Node000002_Node000003" class="edge">
<title>Node2&#45;&gt;Node3</title>
<g id="a_edge10_Node000002_Node000003"><a xlink:title=" ">
<path fill="none" stroke="#63b8ff" d="M230.57,-83.62C246.86,-83.62 273.08,-83.62 292.49,-83.62"/>
<polygon fill="#63b8ff" stroke="#63b8ff" points="292.31,-87.13 302.31,-83.63 292.31,-80.13 292.31,-87.13"/>
</a>
</g>
</g>
</g>
</svg>
