<?xml version="1.0" encoding="UTF-8" standalone="no"?>
<!DOCTYPE svg PUBLIC "-//W3C//DTD SVG 1.1//EN"
 "http://www.w3.org/Graphics/SVG/1.1/DTD/svg11.dtd">
<!-- Generated by graphviz version 10.0.1 (20240210.2158)
 -->
<!-- Title: encode_code39_ext Pages: 1 -->
<svg width="439pt" height="27pt"
 viewBox="0.00 0.00 438.75 27.25" xmlns="http://www.w3.org/2000/svg" xmlns:xlink="http://www.w3.org/1999/xlink">
<g id="graph0" class="graph" transform="scale(1 1) rotate(0) translate(4 23.25)">
<title>encode_code39_ext</title>
<!-- Node1 -->
<g id="Node000001" class="node">
<title>Node1</title>
<g id="a_Node000001"><a xlink:title=" ">
<polygon fill="#999999" stroke="#666666" points="430.75,-19.25 327.75,-19.25 327.75,0 430.75,0 430.75,-19.25"/>
<text text-anchor="middle" x="379.25" y="-5.75" font-family="Helvetica,sans-Serif" font-size="10.00">encode_code39_ext</text>
</a>
</g>
</g>
<!-- Node2 -->
<g id="Node000002" class="node">
<title>Node2</title>
<g id="a_Node000002"><a xlink:href="$class_t_c_p_d_f_barcode.html#af3202992e3981d23e637cf0345f03cf5" xlink:title=" ">
<polygon fill="white" stroke="#666666" points="291.75,-19.25 204.5,-19.25 204.5,0 291.75,0 291.75,-19.25"/>
<text text-anchor="middle" x="248.12" y="-5.75" font-family="Helvetica,sans-Serif" font-size="10.00">barcode_code39</text>
</a>
</g>
</g>
<!-- Node1&#45;&gt;Node2 -->
<g id="edge7_Node000001_Node000002" class="edge">
<title>Node1&#45;&gt;Node2</title>
<g id="a_edge7_Node000001_Node000002"><a xlink:title=" ">
<path fill="none" stroke="#63b8ff" d="M316.17,-9.62C308.04,-9.62 299.85,-9.62 292.12,-9.62"/>
<polygon fill="#63b8ff" stroke="#63b8ff" points="316.07,-13.13 326.07,-9.63 316.07,-6.13 316.07,-13.13"/>
</a>
</g>
</g>
<!-- Node3 -->
<g id="Node000003" class="node">
<title>Node3</title>
<g id="a_Node000003"><a xlink:href="$class_t_c_p_d_f_barcode.html#a2018878f43819bfa99f35fdc1207ef09" xlink:title=" ">
<polygon fill="white" stroke="#666666" points="168.5,-19.25 103,-19.25 103,0 168.5,0 168.5,-19.25"/>
<text text-anchor="middle" x="135.75" y="-5.75" font-family="Helvetica,sans-Serif" font-size="10.00">setBarcode</text>
</a>
</g>
</g>
<!-- Node2&#45;&gt;Node3 -->
<g id="edge8_Node000002_Node000003" class="edge">
<title>Node2&#45;&gt;Node3</title>
<g id="a_edge8_Node000002_Node000003"><a xlink:title=" ">
<path fill="none" stroke="#63b8ff" d="M192.69,-9.62C184.53,-9.62 176.34,-9.62 168.85,-9.62"/>
<polygon fill="#63b8ff" stroke="#63b8ff" points="192.62,-13.13 202.62,-9.63 192.62,-6.13 192.62,-13.13"/>
</a>
</g>
</g>
<!-- Node4 -->
<g id="Node000004" class="node">
<title>Node4</title>
<g id="a_Node000004"><a xlink:href="$class_t_c_p_d_f_barcode.html#a23947e64d0b36065cdf84f685c9eb0d0" xlink:title=" ">
<polygon fill="white" stroke="#666666" points="67,-19.25 0,-19.25 0,0 67,0 67,-19.25"/>
<text text-anchor="middle" x="33.5" y="-5.75" font-family="Helvetica,sans-Serif" font-size="10.00">__construct</text>
</a>
</g>
</g>
<!-- Node3&#45;&gt;Node4 -->
<g id="edge9_Node000003_Node000004" class="edge">
<title>Node3&#45;&gt;Node4</title>
<g id="a_edge9_Node000003_Node000004"><a xlink:title=" ">
<path fill="none" stroke="#63b8ff" d="M91.5,-9.62C83.36,-9.62 74.98,-9.62 67.22,-9.62"/>
<polygon fill="#63b8ff" stroke="#63b8ff" points="91.24,-13.13 101.24,-9.63 91.24,-6.13 91.24,-13.13"/>
</a>
</g>
</g>
</g>
</svg>
