<?xml version="1.0" encoding="UTF-8" standalone="no"?>
<!DOCTYPE svg PUBLIC "-//W3C//DTD SVG 1.1//EN"
 "http://www.w3.org/Graphics/SVG/1.1/DTD/svg11.dtd">
<!-- Generated by graphviz version 10.0.1 (20240210.2158)
 -->
<!-- Title: canViewItem Pages: 1 -->
<svg width="453pt" height="101pt"
 viewBox="0.00 0.00 452.75 101.25" xmlns="http://www.w3.org/2000/svg" xmlns:xlink="http://www.w3.org/1999/xlink">
<g id="graph0" class="graph" transform="scale(1 1) rotate(0) translate(4 97.25)">
<title>canViewItem</title>
<!-- Node1 -->
<g id="Node000001" class="node">
<title>Node1</title>
<g id="a_Node000001"><a xlink:title=" ">
<polygon fill="#999999" stroke="#666666" points="73,-56.25 0,-56.25 0,-37 73,-37 73,-56.25"/>
<text text-anchor="middle" x="36.5" y="-42.75" font-family="Helvetica,sans-Serif" font-size="10.00">canViewItem</text>
</a>
</g>
</g>
<!-- Node2 -->
<g id="Node000002" class="node">
<title>Node2</title>
<g id="a_Node000002"><a xlink:href="$class_common_g_l_p_i.html#a32f309edfbcb4870662d8d9555895593" xlink:title=" ">
<polygon fill="white" stroke="#666666" points="237.88,-93.25 119.12,-93.25 119.12,-74 237.88,-74 237.88,-93.25"/>
<text text-anchor="middle" x="178.5" y="-79.75" font-family="Helvetica,sans-Serif" font-size="10.00">CommonGLPI\canView</text>
</a>
</g>
</g>
<!-- Node1&#45;&gt;Node2 -->
<g id="edge11_Node000001_Node000002" class="edge">
<title>Node1&#45;&gt;Node2</title>
<g id="a_edge11_Node000001_Node000002"><a xlink:title=" ">
<path fill="none" stroke="#63b8ff" d="M73.14,-56.12C84.59,-59.16 97.33,-62.54 109,-65.62 115.24,-67.28 121.81,-69.01 128.3,-70.72"/>
<polygon fill="#63b8ff" stroke="#63b8ff" points="127.07,-74.01 137.63,-73.17 128.85,-67.24 127.07,-74.01"/>
</a>
</g>
</g>
<!-- Node3 -->
<g id="Node000003" class="node">
<title>Node3</title>
<g id="a_Node000003"><a xlink:href="$class_common_d_b_t_m.html#a1ad0e84aef9bfb7fe28ac6fcafa1b14b" xlink:title=" ">
<polygon fill="white" stroke="#666666" points="246.88,-56.25 110.12,-56.25 110.12,-37 246.88,-37 246.88,-56.25"/>
<text text-anchor="middle" x="178.5" y="-42.75" font-family="Helvetica,sans-Serif" font-size="10.00">CommonDBTM\getEntityID</text>
</a>
</g>
</g>
<!-- Node1&#45;&gt;Node3 -->
<g id="edge12_Node000001_Node000003" class="edge">
<title>Node1&#45;&gt;Node3</title>
<g id="a_edge12_Node000001_Node000003"><a xlink:title=" ">
<path fill="none" stroke="#63b8ff" d="M73.19,-46.62C81.05,-46.62 89.68,-46.62 98.5,-46.62"/>
<polygon fill="#63b8ff" stroke="#63b8ff" points="98.22,-50.13 108.22,-46.63 98.22,-43.13 98.22,-50.13"/>
</a>
</g>
</g>
<!-- Node5 -->
<g id="Node000005" class="node">
<title>Node5</title>
<g id="a_Node000005"><a xlink:href="$class_common_d_b_t_m.html#aaa472e233121aa79f3c5c1298b4bc7cb" xlink:title=" ">
<polygon fill="white" stroke="#666666" points="248,-19.25 109,-19.25 109,0 248,0 248,-19.25"/>
<text text-anchor="middle" x="178.5" y="-5.75" font-family="Helvetica,sans-Serif" font-size="10.00">CommonDBTM\isRecursive</text>
</a>
</g>
</g>
<!-- Node1&#45;&gt;Node5 -->
<g id="edge14_Node000001_Node000005" class="edge">
<title>Node1&#45;&gt;Node5</title>
<g id="a_edge14_Node000001_Node000005"><a xlink:title=" ">
<path fill="none" stroke="#63b8ff" d="M73.14,-37.13C84.59,-34.09 97.33,-30.71 109,-27.62 115.24,-25.97 121.81,-24.24 128.3,-22.53"/>
<polygon fill="#63b8ff" stroke="#63b8ff" points="128.85,-26.01 137.63,-20.08 127.07,-19.24 128.85,-26.01"/>
</a>
</g>
</g>
<!-- Node4 -->
<g id="Node000004" class="node">
<title>Node4</title>
<g id="a_Node000004"><a xlink:href="$class_common_d_b_t_m.html#abd1fba5cbce28a1d30906bebf5b88ead" xlink:title=" ">
<polygon fill="white" stroke="#666666" points="439.5,-56.25 289.25,-56.25 289.25,-37 439.5,-37 439.5,-56.25"/>
<text text-anchor="middle" x="364.38" y="-42.75" font-family="Helvetica,sans-Serif" font-size="10.00">CommonDBTM\isEntityAssign</text>
</a>
</g>
</g>
<!-- Node3&#45;&gt;Node4 -->
<g id="edge13_Node000003_Node000004" class="edge">
<title>Node3&#45;&gt;Node4</title>
<g id="a_edge13_Node000003_Node000004"><a xlink:title=" ">
<path fill="none" stroke="#63b8ff" d="M247.18,-46.62C257.08,-46.62 267.38,-46.62 277.58,-46.62"/>
<polygon fill="#63b8ff" stroke="#63b8ff" points="277.51,-50.13 287.51,-46.63 277.51,-43.13 277.51,-50.13"/>
</a>
</g>
</g>
<!-- Node6 -->
<g id="Node000006" class="node">
<title>Node6</title>
<g id="a_Node000006"><a xlink:href="$class_common_d_b_t_m.html#a74710ea062a0f689b4f3a72acbf91a07" xlink:title=" ">
<polygon fill="white" stroke="#666666" points="444.75,-19.25 284,-19.25 284,0 444.75,0 444.75,-19.25"/>
<text text-anchor="middle" x="364.38" y="-5.75" font-family="Helvetica,sans-Serif" font-size="10.00">CommonDBTM\maybeRecursive</text>
</a>
</g>
</g>
<!-- Node5&#45;&gt;Node6 -->
<g id="edge15_Node000005_Node000006" class="edge">
<title>Node5&#45;&gt;Node6</title>
<g id="a_edge15_Node000005_Node000006"><a xlink:title=" ">
<path fill="none" stroke="#63b8ff" d="M248.49,-9.62C256.32,-9.62 264.38,-9.62 272.44,-9.62"/>
<polygon fill="#63b8ff" stroke="#63b8ff" points="272.28,-13.13 282.28,-9.63 272.28,-6.13 272.28,-13.13"/>
</a>
</g>
</g>
</g>
</svg>
