<?xml version="1.0" encoding="UTF-8" standalone="no"?>
<!DOCTYPE svg PUBLIC "-//W3C//DTD SVG 1.1//EN"
 "http://www.w3.org/Graphics/SVG/1.1/DTD/svg11.dtd">
<!-- Generated by graphviz version 10.0.1 (20240210.2158)
 -->
<!-- Title: StreamHandler Pages: 1 -->
<svg width="509pt" height="905pt"
 viewBox="0.00 0.00 508.50 904.50" xmlns="http://www.w3.org/2000/svg" xmlns:xlink="http://www.w3.org/1999/xlink">
<g id="graph0" class="graph" transform="scale(1 1) rotate(0) translate(4 900.5)">
<title>StreamHandler</title>
<!-- Node1 -->
<g id="Node000001" class="node">
<title>Node1</title>
<g id="a_Node000001"><a xlink:title=" ">
<polygon fill="#999999" stroke="none" points="374.5,-255 242.5,-255 242.5,0 374.5,0 374.5,-255"/>
<text text-anchor="start" x="275.88" y="-241.5" font-family="Helvetica,sans-Serif" font-size="10.00">StreamHandler</text>
<text text-anchor="start" x="246.88" y="-226.5" font-family="Helvetica,sans-Serif" font-size="10.00">#</text>
<text text-anchor="start" x="256.5" y="-226.5" font-family="Helvetica,sans-Serif" font-size="10.00">$streamChunkSize</text>
<text text-anchor="start" x="246.88" y="-211.5" font-family="Helvetica,sans-Serif" font-size="10.00">#</text>
<text text-anchor="start" x="256.5" y="-211.5" font-family="Helvetica,sans-Serif" font-size="10.00">$stream</text>
<text text-anchor="start" x="246.88" y="-196.5" font-family="Helvetica,sans-Serif" font-size="10.00">#</text>
<text text-anchor="start" x="256.5" y="-196.5" font-family="Helvetica,sans-Serif" font-size="10.00">$url</text>
<text text-anchor="start" x="246.88" y="-181.5" font-family="Helvetica,sans-Serif" font-size="10.00">#</text>
<text text-anchor="start" x="256.5" y="-181.5" font-family="Helvetica,sans-Serif" font-size="10.00">$filePermission</text>
<text text-anchor="start" x="246.88" y="-166.5" font-family="Helvetica,sans-Serif" font-size="10.00">#</text>
<text text-anchor="start" x="256.5" y="-166.5" font-family="Helvetica,sans-Serif" font-size="10.00">$useLocking</text>
<text text-anchor="start" x="246.5" y="-151.5" font-family="Helvetica,sans-Serif" font-size="10.00">+</text>
<text text-anchor="start" x="256.5" y="-151.5" font-family="Helvetica,sans-Serif" font-size="10.00">__construct($stream,</text>
<text text-anchor="start" x="256.5" y="-140.25" font-family="Helvetica,sans-Serif" font-size="10.00"> $level=Logger::DEBUG,</text>
<text text-anchor="start" x="256.5" y="-129" font-family="Helvetica,sans-Serif" font-size="10.00"> bool $bubble=true, ?int</text>
<text text-anchor="start" x="256.5" y="-117.75" font-family="Helvetica,sans-Serif" font-size="10.00"> $filePermission=null, bool</text>
<text text-anchor="start" x="256.5" y="-106.5" font-family="Helvetica,sans-Serif" font-size="10.00"> $useLocking=false)</text>
<text text-anchor="start" x="246.5" y="-91.5" font-family="Helvetica,sans-Serif" font-size="10.00">+</text>
<text text-anchor="start" x="256.5" y="-91.5" font-family="Helvetica,sans-Serif" font-size="10.00">close()</text>
<text text-anchor="start" x="246.5" y="-76.5" font-family="Helvetica,sans-Serif" font-size="10.00">+</text>
<text text-anchor="start" x="256.5" y="-76.5" font-family="Helvetica,sans-Serif" font-size="10.00">getStream()</text>
<text text-anchor="start" x="246.5" y="-61.5" font-family="Helvetica,sans-Serif" font-size="10.00">+</text>
<text text-anchor="start" x="256.5" y="-61.5" font-family="Helvetica,sans-Serif" font-size="10.00">getUrl()</text>
<text text-anchor="start" x="246.5" y="-46.5" font-family="Helvetica,sans-Serif" font-size="10.00">+</text>
<text text-anchor="start" x="256.5" y="-46.5" font-family="Helvetica,sans-Serif" font-size="10.00">getStreamChunkSize()</text>
<text text-anchor="start" x="246.88" y="-31.5" font-family="Helvetica,sans-Serif" font-size="10.00">#</text>
<text text-anchor="start" x="256.5" y="-31.5" font-family="Helvetica,sans-Serif" font-size="10.00">write(array $record)</text>
<text text-anchor="start" x="246.88" y="-16.5" font-family="Helvetica,sans-Serif" font-size="10.00">#</text>
<text text-anchor="start" x="256.5" y="-16.5" font-family="Helvetica,sans-Serif" font-size="10.00">streamWrite($stream,</text>
<text text-anchor="start" x="256.5" y="-5.25" font-family="Helvetica,sans-Serif" font-size="10.00"> array $record)</text>
<polygon fill="#666666" stroke="#666666" points="242.5,-238 242.5,-238 374.5,-238 374.5,-238 242.5,-238"/>
<polygon fill="#666666" stroke="#666666" points="242.5,-163 242.5,-163 254.5,-163 254.5,-163 242.5,-163"/>
<polygon fill="#666666" stroke="#666666" points="254.5,-163 254.5,-163 374.5,-163 374.5,-163 254.5,-163"/>
<polygon fill="none" stroke="#666666" points="242.5,0 242.5,-255 374.5,-255 374.5,0 242.5,0"/>
</a>
</g>
</g>
<!-- Node2 -->
<g id="Node000002" class="node">
<title>Node2</title>
<g id="a_Node000002"><a xlink:href="$class_monolog_1_1_handler_1_1_abstract_processing_handler.html" xlink:title=" ">
<polygon fill="white" stroke="none" points="323,-377.5 194,-377.5 194,-313.5 323,-313.5 323,-377.5"/>
<text text-anchor="start" x="198.88" y="-364" font-family="Helvetica,sans-Serif" font-size="10.00">AbstractProcessingHandler</text>
<text text-anchor="start" x="257" y="-349" font-family="Helvetica,sans-Serif" font-size="10.00"> </text>
<text text-anchor="start" x="204.5" y="-334" font-family="Helvetica,sans-Serif" font-size="10.00">+</text>
<text text-anchor="start" x="221" y="-334" font-family="Helvetica,sans-Serif" font-size="10.00">reset()</text>
<text text-anchor="start" x="204.88" y="-319" font-family="Helvetica,sans-Serif" font-size="10.00">#</text>
<text text-anchor="start" x="221" y="-319" font-family="Helvetica,sans-Serif" font-size="10.00">write(array $record)</text>
<polygon fill="#666666" stroke="#666666" points="194,-360.5 194,-360.5 323,-360.5 323,-360.5 194,-360.5"/>
<polygon fill="#666666" stroke="#666666" points="194,-345.5 194,-345.5 323,-345.5 323,-345.5 194,-345.5"/>
<polygon fill="none" stroke="#666666" points="194,-313.5 194,-377.5 323,-377.5 323,-313.5 194,-313.5"/>
</a>
</g>
</g>
<!-- Node2&#45;&gt;Node1 -->
<g id="edge17_Node000001_Node000002" class="edge">
<title>Node2&#45;&gt;Node1</title>
<g id="a_edge17_Node000001_Node000002"><a xlink:title=" ">
<path fill="none" stroke="#63b8ff" d="M268.26,-302.34C271.51,-288.28 275.33,-271.8 279.29,-254.7"/>
<polygon fill="none" stroke="#63b8ff" points="264.85,-301.55 266.01,-312.08 271.67,-303.12 264.85,-301.55"/>
</a>
</g>
</g>
<!-- Node3 -->
<g id="Node000003" class="node">
<title>Node3</title>
<g id="a_Node000003"><a xlink:href="$class_monolog_1_1_handler_1_1_abstract_handler.html" xlink:title=" ">
<polygon fill="white" stroke="none" points="172.5,-601.5 50.5,-601.5 50.5,-414.5 172.5,-414.5 172.5,-601.5"/>
<text text-anchor="start" x="76.25" y="-588" font-family="Helvetica,sans-Serif" font-size="10.00">AbstractHandler</text>
<text text-anchor="start" x="54.88" y="-573" font-family="Helvetica,sans-Serif" font-size="10.00">#</text>
<text text-anchor="start" x="64.5" y="-573" font-family="Helvetica,sans-Serif" font-size="10.00">$level</text>
<text text-anchor="start" x="54.88" y="-558" font-family="Helvetica,sans-Serif" font-size="10.00">#</text>
<text text-anchor="start" x="64.5" y="-558" font-family="Helvetica,sans-Serif" font-size="10.00">$bubble</text>
<text text-anchor="start" x="54.5" y="-543" font-family="Helvetica,sans-Serif" font-size="10.00">+</text>
<text text-anchor="start" x="64.5" y="-543" font-family="Helvetica,sans-Serif" font-size="10.00">__construct($level</text>
<text text-anchor="start" x="64.5" y="-531.75" font-family="Helvetica,sans-Serif" font-size="10.00">=Logger::DEBUG, bool</text>
<text text-anchor="start" x="64.5" y="-520.5" font-family="Helvetica,sans-Serif" font-size="10.00"> $bubble=true)</text>
<text text-anchor="start" x="54.5" y="-506" font-family="Helvetica,sans-Serif" font-size="10.00">+</text>
<text text-anchor="start" x="64.5" y="-506" font-family="Helvetica,sans-Serif" font-size="10.00">isHandling(array </text>
<text text-anchor="start" x="64.5" y="-494.75" font-family="Helvetica,sans-Serif" font-size="10.00">$record)</text>
<text text-anchor="start" x="54.5" y="-480" font-family="Helvetica,sans-Serif" font-size="10.00">+</text>
<text text-anchor="start" x="64.5" y="-480" font-family="Helvetica,sans-Serif" font-size="10.00">setLevel($level)</text>
<text text-anchor="start" x="54.5" y="-465" font-family="Helvetica,sans-Serif" font-size="10.00">+</text>
<text text-anchor="start" x="64.5" y="-465" font-family="Helvetica,sans-Serif" font-size="10.00">getLevel()</text>
<text text-anchor="start" x="54.5" y="-450" font-family="Helvetica,sans-Serif" font-size="10.00">+</text>
<text text-anchor="start" x="64.5" y="-450" font-family="Helvetica,sans-Serif" font-size="10.00">setBubble(bool $bubble)</text>
<text text-anchor="start" x="54.5" y="-435" font-family="Helvetica,sans-Serif" font-size="10.00">+</text>
<text text-anchor="start" x="64.5" y="-435" font-family="Helvetica,sans-Serif" font-size="10.00">getBubble()</text>
<text text-anchor="start" x="54.5" y="-420" font-family="Helvetica,sans-Serif" font-size="10.00">+</text>
<text text-anchor="start" x="64.5" y="-420" font-family="Helvetica,sans-Serif" font-size="10.00">reset()</text>
<polygon fill="#666666" stroke="#666666" points="50.5,-584.5 50.5,-584.5 172.5,-584.5 172.5,-584.5 50.5,-584.5"/>
<polygon fill="#666666" stroke="#666666" points="50.5,-554.5 50.5,-554.5 62.5,-554.5 62.5,-554.5 50.5,-554.5"/>
<polygon fill="#666666" stroke="#666666" points="62.5,-554.5 62.5,-554.5 172.5,-554.5 172.5,-554.5 62.5,-554.5"/>
<polygon fill="none" stroke="#666666" points="50.5,-414.5 50.5,-601.5 172.5,-601.5 172.5,-414.5 50.5,-414.5"/>
</a>
</g>
</g>
<!-- Node3&#45;&gt;Node2 -->
<g id="edge18_Node000002_Node000003" class="edge">
<title>Node3&#45;&gt;Node2</title>
<g id="a_edge18_Node000002_Node000003"><a xlink:title=" ">
<path fill="none" stroke="#63b8ff" d="M180.09,-416.03C180.56,-415.52 181.03,-415.01 181.5,-414.5 193.5,-401.55 207.74,-388.45 220.68,-377.25"/>
<polygon fill="none" stroke="#63b8ff" points="177.53,-413.65 173.49,-423.45 182.76,-418.3 177.53,-413.65"/>
</a>
</g>
</g>
<!-- Node4 -->
<g id="Node000004" class="node">
<title>Node4</title>
<g id="a_Node000004"><a xlink:href="$class_monolog_1_1_handler_1_1_handler.html" xlink:title=" ">
<polygon fill="white" stroke="none" points="102.5,-743.5 6.5,-743.5 6.5,-638.5 102.5,-638.5 102.5,-743.5"/>
<text text-anchor="start" x="37.62" y="-730" font-family="Helvetica,sans-Serif" font-size="10.00">Handler</text>
<text text-anchor="start" x="53" y="-715" font-family="Helvetica,sans-Serif" font-size="10.00"> </text>
<text text-anchor="start" x="10.5" y="-700" font-family="Helvetica,sans-Serif" font-size="10.00">+</text>
<text text-anchor="start" x="20.5" y="-700" font-family="Helvetica,sans-Serif" font-size="10.00">handleBatch(array</text>
<text text-anchor="start" x="20.5" y="-688.75" font-family="Helvetica,sans-Serif" font-size="10.00"> $records)</text>
<text text-anchor="start" x="10.5" y="-674" font-family="Helvetica,sans-Serif" font-size="10.00">+</text>
<text text-anchor="start" x="20.5" y="-674" font-family="Helvetica,sans-Serif" font-size="10.00">close()</text>
<text text-anchor="start" x="10.5" y="-659" font-family="Helvetica,sans-Serif" font-size="10.00">+</text>
<text text-anchor="start" x="20.5" y="-659" font-family="Helvetica,sans-Serif" font-size="10.00">__destruct()</text>
<text text-anchor="start" x="10.5" y="-644" font-family="Helvetica,sans-Serif" font-size="10.00">+</text>
<text text-anchor="start" x="20.5" y="-644" font-family="Helvetica,sans-Serif" font-size="10.00">__sleep()</text>
<polygon fill="#666666" stroke="#666666" points="6.5,-726.5 6.5,-726.5 102.5,-726.5 102.5,-726.5 6.5,-726.5"/>
<polygon fill="#666666" stroke="#666666" points="6.5,-711.5 6.5,-711.5 102.5,-711.5 102.5,-711.5 6.5,-711.5"/>
<polygon fill="none" stroke="#666666" points="6.5,-638.5 6.5,-743.5 102.5,-743.5 102.5,-638.5 6.5,-638.5"/>
</a>
</g>
</g>
<!-- Node4&#45;&gt;Node3 -->
<g id="edge19_Node000003_Node000004" class="edge">
<title>Node4&#45;&gt;Node3</title>
<g id="a_edge19_Node000003_Node000004"><a xlink:title=" ">
<path fill="none" stroke="#63b8ff" d="M74.14,-627.65C76.82,-619.11 79.63,-610.21 82.44,-601.29"/>
<polygon fill="none" stroke="#63b8ff" points="70.8,-626.58 71.14,-637.17 77.48,-628.69 70.8,-626.58"/>
</a>
</g>
</g>
<!-- Node5 -->
<g id="Node000005" class="node">
<title>Node5</title>
<g id="a_Node000005"><a xlink:href="$interface_monolog_1_1_handler_1_1_handler_interface.html" xlink:title=" ">
<polygon fill="white" stroke="none" points="109,-896.5 0,-896.5 0,-780.5 109,-780.5 109,-896.5"/>
<text text-anchor="start" x="18.5" y="-883" font-family="Helvetica,sans-Serif" font-size="10.00">HandlerInterface</text>
<text text-anchor="start" x="53" y="-868" font-family="Helvetica,sans-Serif" font-size="10.00"> </text>
<text text-anchor="start" x="4" y="-853" font-family="Helvetica,sans-Serif" font-size="10.00">+</text>
<text text-anchor="start" x="14" y="-853" font-family="Helvetica,sans-Serif" font-size="10.00">isHandling(array </text>
<text text-anchor="start" x="14" y="-841.75" font-family="Helvetica,sans-Serif" font-size="10.00">$record)</text>
<text text-anchor="start" x="4" y="-827" font-family="Helvetica,sans-Serif" font-size="10.00">+</text>
<text text-anchor="start" x="14" y="-827" font-family="Helvetica,sans-Serif" font-size="10.00">handle(array $record)</text>
<text text-anchor="start" x="4" y="-812" font-family="Helvetica,sans-Serif" font-size="10.00">+</text>
<text text-anchor="start" x="14" y="-812" font-family="Helvetica,sans-Serif" font-size="10.00">handleBatch(array</text>
<text text-anchor="start" x="14" y="-800.75" font-family="Helvetica,sans-Serif" font-size="10.00"> $records)</text>
<text text-anchor="start" x="4" y="-786" font-family="Helvetica,sans-Serif" font-size="10.00">+</text>
<text text-anchor="start" x="14" y="-786" font-family="Helvetica,sans-Serif" font-size="10.00">close()</text>
<polygon fill="#666666" stroke="#666666" points="0,-879.5 0,-879.5 109,-879.5 109,-879.5 0,-879.5"/>
<polygon fill="#666666" stroke="#666666" points="0,-864.5 0,-864.5 109,-864.5 109,-864.5 0,-864.5"/>
<polygon fill="none" stroke="#666666" points="0,-780.5 0,-896.5 109,-896.5 109,-780.5 0,-780.5"/>
</a>
</g>
</g>
<!-- Node5&#45;&gt;Node4 -->
<g id="edge20_Node000004_Node000005" class="edge">
<title>Node5&#45;&gt;Node4</title>
<g id="a_edge20_Node000004_Node000005"><a xlink:title=" ">
<path fill="none" stroke="#63b8ff" d="M54.5,-769.61C54.5,-760.68 54.5,-751.65 54.5,-743.06"/>
<polygon fill="none" stroke="#63b8ff" points="51,-769.32 54.5,-779.32 58,-769.32 51,-769.32"/>
</a>
</g>
</g>
<!-- Node6 -->
<g id="Node000006" class="node">
<title>Node6</title>
<g id="a_Node000006"><a xlink:href="$interface_monolog_1_1_resettable_interface.html" xlink:title=" ">
<polygon fill="white" stroke="none" points="216,-715.5 121,-715.5 121,-666.5 216,-666.5 216,-715.5"/>
<text text-anchor="start" x="125.75" y="-702" font-family="Helvetica,sans-Serif" font-size="10.00">ResettableInterface</text>
<text text-anchor="start" x="167" y="-687" font-family="Helvetica,sans-Serif" font-size="10.00"> </text>
<text text-anchor="start" x="137.5" y="-672" font-family="Helvetica,sans-Serif" font-size="10.00">+</text>
<text text-anchor="start" x="160" y="-672" font-family="Helvetica,sans-Serif" font-size="10.00">reset()</text>
<polygon fill="#666666" stroke="#666666" points="121,-698.5 121,-698.5 216,-698.5 216,-698.5 121,-698.5"/>
<polygon fill="#666666" stroke="#666666" points="121,-683.5 121,-683.5 216,-683.5 216,-683.5 121,-683.5"/>
<polygon fill="none" stroke="#666666" points="121,-666.5 121,-715.5 216,-715.5 216,-666.5 121,-666.5"/>
</a>
</g>
</g>
<!-- Node6&#45;&gt;Node3 -->
<g id="edge21_Node000003_Node000006" class="edge">
<title>Node6&#45;&gt;Node3</title>
<g id="a_edge21_Node000003_Node000006"><a xlink:title=" ">
<path fill="none" stroke="#63b8ff" d="M157.8,-656.04C152.88,-640.4 146.77,-621.01 140.63,-601.49"/>
<polygon fill="none" stroke="#63b8ff" points="154.37,-656.78 160.71,-665.26 161.04,-654.67 154.37,-656.78"/>
</a>
</g>
</g>
<!-- Node7 -->
<g id="Node000007" class="node">
<title>Node7</title>
<g id="a_Node000007"><a xlink:href="$interface_monolog_1_1_handler_1_1_processable_handler_interface.html" xlink:title=" ">
<polygon fill="white" stroke="none" points="326.5,-545.5 190.5,-545.5 190.5,-470.5 326.5,-470.5 326.5,-545.5"/>
<text text-anchor="start" x="195.5" y="-532" font-family="Helvetica,sans-Serif" font-size="10.00">ProcessableHandlerInterface</text>
<text text-anchor="start" x="257" y="-517" font-family="Helvetica,sans-Serif" font-size="10.00"> </text>
<text text-anchor="start" x="198.5" y="-502" font-family="Helvetica,sans-Serif" font-size="10.00">+</text>
<text text-anchor="start" x="212.5" y="-502" font-family="Helvetica,sans-Serif" font-size="10.00">pushProcessor(callable</text>
<text text-anchor="start" x="212.5" y="-490.75" font-family="Helvetica,sans-Serif" font-size="10.00"> $callback)</text>
<text text-anchor="start" x="198.5" y="-476" font-family="Helvetica,sans-Serif" font-size="10.00">+</text>
<text text-anchor="start" x="212.5" y="-476" font-family="Helvetica,sans-Serif" font-size="10.00">popProcessor()</text>
<polygon fill="#666666" stroke="#666666" points="190.5,-528.5 190.5,-528.5 326.5,-528.5 326.5,-528.5 190.5,-528.5"/>
<polygon fill="#666666" stroke="#666666" points="190.5,-513.5 190.5,-513.5 326.5,-513.5 326.5,-513.5 190.5,-513.5"/>
<polygon fill="none" stroke="#666666" points="190.5,-470.5 190.5,-545.5 326.5,-545.5 326.5,-470.5 190.5,-470.5"/>
</a>
</g>
</g>
<!-- Node7&#45;&gt;Node2 -->
<g id="edge22_Node000002_Node000007" class="edge">
<title>Node7&#45;&gt;Node2</title>
<g id="a_edge22_Node000002_Node000007"><a xlink:title=" ">
<path fill="none" stroke="#63b8ff" d="M258.5,-459.24C258.5,-432.74 258.5,-400.56 258.5,-377.37"/>
<polygon fill="none" stroke="#63b8ff" points="255,-459.07 258.5,-469.07 262,-459.07 255,-459.07"/>
</a>
</g>
</g>
<!-- Node8 -->
<g id="Node000008" class="node">
<title>Node8</title>
<g id="a_Node000008"><a xlink:href="$interface_monolog_1_1_handler_1_1_formattable_handler_interface.html" xlink:title=" ">
<polygon fill="white" stroke="none" points="500.5,-545.5 344.5,-545.5 344.5,-470.5 500.5,-470.5 500.5,-545.5"/>
<text text-anchor="start" x="360.62" y="-532" font-family="Helvetica,sans-Serif" font-size="10.00">FormattableHandlerInterface</text>
<text text-anchor="start" x="421" y="-517" font-family="Helvetica,sans-Serif" font-size="10.00"> </text>
<text text-anchor="start" x="348.5" y="-502" font-family="Helvetica,sans-Serif" font-size="10.00">+</text>
<text text-anchor="start" x="358.5" y="-502" font-family="Helvetica,sans-Serif" font-size="10.00">setFormatter(FormatterInterface</text>
<text text-anchor="start" x="358.5" y="-490.75" font-family="Helvetica,sans-Serif" font-size="10.00"> $formatter)</text>
<text text-anchor="start" x="348.5" y="-476" font-family="Helvetica,sans-Serif" font-size="10.00">+</text>
<text text-anchor="start" x="358.5" y="-476" font-family="Helvetica,sans-Serif" font-size="10.00">getFormatter()</text>
<polygon fill="#666666" stroke="#666666" points="344.5,-528.5 344.5,-528.5 500.5,-528.5 500.5,-528.5 344.5,-528.5"/>
<polygon fill="#666666" stroke="#666666" points="344.5,-513.5 344.5,-513.5 500.5,-513.5 500.5,-513.5 344.5,-513.5"/>
<polygon fill="none" stroke="#666666" points="344.5,-470.5 344.5,-545.5 500.5,-545.5 500.5,-470.5 344.5,-470.5"/>
</a>
</g>
</g>
<!-- Node8&#45;&gt;Node2 -->
<g id="edge23_Node000002_Node000008" class="edge">
<title>Node8&#45;&gt;Node2</title>
<g id="a_edge23_Node000002_Node000008"><a xlink:title=" ">
<path fill="none" stroke="#63b8ff" d="M382.03,-462.31C367.64,-446.87 351.13,-429.65 335.5,-414.5 322.56,-401.96 307.85,-388.74 294.78,-377.31"/>
<polygon fill="none" stroke="#63b8ff" points="379.4,-464.61 388.76,-469.57 384.53,-459.86 379.4,-464.61"/>
</a>
</g>
</g>
<!-- Node9 -->
<g id="Node000009" class="node">
<title>Node9</title>
<g id="a_Node000009"><a xlink:title=" ">
<polygon fill="white" stroke="none" points="375.5,-370 341.5,-370 341.5,-321 375.5,-321 375.5,-370"/>
<text text-anchor="start" x="346.5" y="-356.5" font-family="Helvetica,sans-Serif" font-size="10.00">const</text>
<text text-anchor="start" x="357" y="-341.5" font-family="Helvetica,sans-Serif" font-size="10.00"> </text>
<text text-anchor="start" x="357" y="-326.5" font-family="Helvetica,sans-Serif" font-size="10.00"> </text>
<polygon fill="#666666" stroke="#666666" points="341.5,-353 341.5,-353 375.5,-353 375.5,-353 341.5,-353"/>
<polygon fill="#666666" stroke="#666666" points="341.5,-338 341.5,-338 375.5,-338 375.5,-338 341.5,-338"/>
<polygon fill="none" stroke="#666666" points="341.5,-321 341.5,-370 375.5,-370 375.5,-321 341.5,-321"/>
</a>
</g>
</g>
<!-- Node9&#45;&gt;Node1 -->
<g id="edge24_Node000001_Node000009" class="edge">
<title>Node9&#45;&gt;Node1</title>
<g id="a_edge24_Node000001_Node000009"><a xlink:title=" ">
<path fill="none" stroke="#63b8ff" d="M353.15,-321.38C349.91,-307.37 345.47,-288.21 340.65,-267.38"/>
<polygon fill="none" stroke="#63b8ff" points="340.68,-267.52 335.43,-262.57 337.97,-255.83 343.22,-260.77 340.68,-267.52"/>
</a>
</g>
<text text-anchor="middle" x="407.38" y="-286" font-family="Helvetica,sans-Serif" font-size="10.00" fill="grey"> #DEFAULT_CHUNK_SIZE</text>
<text text-anchor="middle" x="407.38" y="-274.75" font-family="Helvetica,sans-Serif" font-size="10.00" fill="grey">#MAX_CHUNK_SIZE</text>
</g>
</g>
</svg>
