<?xml version="1.0" encoding="UTF-8" standalone="no"?>
<!DOCTYPE svg PUBLIC "-//W3C//DTD SVG 1.1//EN"
 "http://www.w3.org/Graphics/SVG/1.1/DTD/svg11.dtd">
<!-- Generated by graphviz version 10.0.1 (20240210.2158)
 -->
<!-- Title: set_https_domains Pages: 1 -->
<svg width="325pt" height="82pt"
 viewBox="0.00 0.00 325.25 82.25" xmlns="http://www.w3.org/2000/svg" xmlns:xlink="http://www.w3.org/1999/xlink">
<g id="graph0" class="graph" transform="scale(1 1) rotate(0) translate(4 78.25)">
<title>set_https_domains</title>
<!-- Node1 -->
<g id="Node000001" class="node">
<title>Node1</title>
<g id="a_Node000001"><a xlink:title=" ">
<polygon fill="#999999" stroke="#666666" points="98.5,-37.25 0,-37.25 0,-18 98.5,-18 98.5,-37.25"/>
<text text-anchor="middle" x="49.25" y="-23.75" font-family="Helvetica,sans-Serif" font-size="10.00">set_https_domains</text>
</a>
</g>
</g>
<!-- Node2 -->
<g id="Node000002" class="node">
<title>Node2</title>
<g id="a_Node000002"><a xlink:href="$class_simple_pie.html#a5482cabe0e60f30caee78f368cb9bea9" xlink:title=" ">
<polygon fill="white" stroke="#666666" points="184.25,-37.25 134.5,-37.25 134.5,-18 184.25,-18 184.25,-37.25"/>
<text text-anchor="middle" x="159.38" y="-23.75" font-family="Helvetica,sans-Serif" font-size="10.00">sanitize</text>
</a>
</g>
</g>
<!-- Node1&#45;&gt;Node2 -->
<g id="edge11_Node000001_Node000002" class="edge">
<title>Node1&#45;&gt;Node2</title>
<g id="a_edge11_Node000001_Node000002"><a xlink:title=" ">
<path fill="none" stroke="#63b8ff" d="M98.94,-27.62C106.95,-27.62 115.13,-27.62 122.76,-27.62"/>
<polygon fill="#63b8ff" stroke="#63b8ff" points="122.66,-31.13 132.66,-27.63 122.66,-24.13 122.66,-31.13"/>
</a>
</g>
</g>
<!-- Node2&#45;&gt;Node2 -->
<g id="edge15_Node000002_Node000002" class="edge">
<title>Node2&#45;&gt;Node2</title>
<g id="a_edge15_Node000002_Node000002"><a xlink:title=" ">
<path fill="none" stroke="#63b8ff" d="M142.25,-37.54C134.44,-46.15 140.15,-55.25 159.38,-55.25 169.89,-55.25 176.36,-52.53 178.79,-48.65"/>
<polygon fill="#63b8ff" stroke="#63b8ff" points="182.25,-48.11 176.8,-39.02 175.39,-49.52 182.25,-48.11"/>
</a>
</g>
</g>
<!-- Node3 -->
<g id="Node000003" class="node">
<title>Node3</title>
<g id="a_Node000003"><a xlink:href="$class_simple_pie.html#a40cb575dd22d6e5c29213ffd8254566f" xlink:title=" ">
<polygon fill="white" stroke="#666666" points="317.25,-56.25 220.25,-56.25 220.25,-37 317.25,-37 317.25,-56.25"/>
<text text-anchor="middle" x="268.75" y="-42.75" font-family="Helvetica,sans-Serif" font-size="10.00">enable_exceptions</text>
</a>
</g>
</g>
<!-- Node2&#45;&gt;Node3 -->
<g id="edge12_Node000002_Node000003" class="edge">
<title>Node2&#45;&gt;Node3</title>
<g id="a_edge12_Node000002_Node000003"><a xlink:title=" ">
<path fill="none" stroke="#63b8ff" d="M184.74,-31.94C191.97,-33.22 200.22,-34.68 208.65,-36.17"/>
<polygon fill="#63b8ff" stroke="#63b8ff" points="207.82,-39.57 218.27,-37.87 209.04,-32.68 207.82,-39.57"/>
</a>
</g>
</g>
<!-- Node4 -->
<g id="Node000004" class="node">
<title>Node4</title>
<g id="a_Node000004"><a xlink:href="$class_simple_pie.html#a43b8d30b879d4f09ceb059b02af2bc02" xlink:title=" ">
<polygon fill="white" stroke="#666666" points="286.5,-19.25 251,-19.25 251,0 286.5,0 286.5,-19.25"/>
<text text-anchor="middle" x="268.75" y="-5.75" font-family="Helvetica,sans-Serif" font-size="10.00">error</text>
</a>
</g>
</g>
<!-- Node2&#45;&gt;Node4 -->
<g id="edge14_Node000002_Node000004" class="edge">
<title>Node2&#45;&gt;Node4</title>
<g id="a_edge14_Node000002_Node000004"><a xlink:title=" ">
<path fill="none" stroke="#63b8ff" d="M184.74,-23.54C201.03,-20.81 222.51,-17.21 239.54,-14.35"/>
<polygon fill="#63b8ff" stroke="#63b8ff" points="239.73,-17.87 249.01,-12.77 238.57,-10.97 239.73,-17.87"/>
</a>
</g>
</g>
<!-- Node3&#45;&gt;Node3 -->
<g id="edge13_Node000003_Node000003" class="edge">
<title>Node3&#45;&gt;Node3</title>
<g id="a_edge13_Node000003_Node000003"><a xlink:title=" ">
<path fill="none" stroke="#63b8ff" d="M251.63,-56.54C243.82,-65.15 249.52,-74.25 268.75,-74.25 279.26,-74.25 285.74,-71.53 288.16,-67.65"/>
<polygon fill="#63b8ff" stroke="#63b8ff" points="291.63,-67.11 286.18,-58.02 284.77,-68.52 291.63,-67.11"/>
</a>
</g>
</g>
</g>
</svg>
