<?xml version="1.0" encoding="UTF-8" standalone="no"?>
<!DOCTYPE svg PUBLIC "-//W3C//DTD SVG 1.1//EN"
 "http://www.w3.org/Graphics/SVG/1.1/DTD/svg11.dtd">
<!-- Generated by graphviz version 10.0.1 (20240210.2158)
 -->
<!-- Title: getVisibilityCriteria Pages: 1 -->
<svg width="414pt" height="64pt"
 viewBox="0.00 0.00 413.75 64.25" xmlns="http://www.w3.org/2000/svg" xmlns:xlink="http://www.w3.org/1999/xlink">
<g id="graph0" class="graph" transform="scale(1 1) rotate(0) translate(4 60.25)">
<title>getVisibilityCriteria</title>
<!-- Node1 -->
<g id="Node000001" class="node">
<title>Node1</title>
<g id="a_Node000001"><a xlink:title=" ">
<polygon fill="#999999" stroke="#666666" points="97.75,-37.25 0,-37.25 0,-18 97.75,-18 97.75,-37.25"/>
<text text-anchor="middle" x="48.88" y="-23.75" font-family="Helvetica,sans-Serif" font-size="10.00">getVisibilityCriteria</text>
</a>
</g>
</g>
<!-- Node2 -->
<g id="Node000002" class="node">
<title>Node2</title>
<g id="a_Node000002"><a xlink:href="$db_8function_8php.html#a3666d52463c05ed559cff4e3067774df" xlink:title=" ">
<polygon fill="white" stroke="#666666" points="262.25,-56.25 133.75,-56.25 133.75,-37 262.25,-37 262.25,-56.25"/>
<text text-anchor="middle" x="198" y="-42.75" font-family="Helvetica,sans-Serif" font-size="10.00">getEntitiesRestrictCriteria</text>
</a>
</g>
</g>
<!-- Node1&#45;&gt;Node2 -->
<g id="edge7_Node000001_Node000002" class="edge">
<title>Node1&#45;&gt;Node2</title>
<g id="a_edge7_Node000001_Node000002"><a xlink:title=" ">
<path fill="none" stroke="#63b8ff" d="M98.05,-33.85C105.83,-34.85 114.04,-35.91 122.27,-36.97"/>
<polygon fill="#63b8ff" stroke="#63b8ff" points="121.59,-40.42 131.96,-38.23 122.49,-33.47 121.59,-40.42"/>
</a>
</g>
</g>
<!-- Node3 -->
<g id="Node000003" class="node">
<title>Node3</title>
<g id="a_Node000003"><a xlink:href="$class_common_d_b_t_m.html#a581a21ebf625fb327fd53c86f84b66d1" xlink:title=" ">
<polygon fill="white" stroke="#666666" points="260,-19.25 136,-19.25 136,0 260,0 260,-19.25"/>
<text text-anchor="middle" x="198" y="-5.75" font-family="Helvetica,sans-Serif" font-size="10.00">CommonDBTM\getTable</text>
</a>
</g>
</g>
<!-- Node1&#45;&gt;Node3 -->
<g id="edge8_Node000001_Node000003" class="edge">
<title>Node1&#45;&gt;Node3</title>
<g id="a_edge8_Node000001_Node000003"><a xlink:title=" ">
<path fill="none" stroke="#63b8ff" d="M98.05,-21.73C106.48,-20.7 115.41,-19.61 124.32,-18.52"/>
<polygon fill="#63b8ff" stroke="#63b8ff" points="124.56,-22.01 134.07,-17.32 123.71,-15.07 124.56,-22.01"/>
</a>
</g>
</g>
<!-- Node4 -->
<g id="Node000004" class="node">
<title>Node4</title>
<g id="a_Node000004"><a xlink:href="$db_8function_8php.html#af5d54dd0f42dddbdb9951111643af5f6" xlink:title=" ">
<polygon fill="white" stroke="#666666" points="405.75,-19.25 298.25,-19.25 298.25,0 405.75,0 405.75,-19.25"/>
<text text-anchor="middle" x="352" y="-5.75" font-family="Helvetica,sans-Serif" font-size="10.00">getTableForItemType</text>
</a>
</g>
</g>
<!-- Node3&#45;&gt;Node4 -->
<g id="edge9_Node000003_Node000004" class="edge">
<title>Node3&#45;&gt;Node4</title>
<g id="a_edge9_Node000003_Node000004"><a xlink:title=" ">
<path fill="none" stroke="#63b8ff" d="M260.39,-9.62C269.09,-9.62 278.07,-9.62 286.83,-9.62"/>
<polygon fill="#63b8ff" stroke="#63b8ff" points="286.66,-13.13 296.66,-9.63 286.66,-6.13 286.66,-13.13"/>
</a>
</g>
</g>
</g>
</svg>
