<?xml version="1.0" encoding="UTF-8" standalone="no"?>
<!DOCTYPE svg PUBLIC "-//W3C//DTD SVG 1.1//EN"
 "http://www.w3.org/Graphics/SVG/1.1/DTD/svg11.dtd">
<!-- Generated by graphviz version 10.0.1 (20240210.2158)
 -->
<!-- Title: Skew Pages: 1 -->
<svg width="132pt" height="64pt"
 viewBox="0.00 0.00 132.25 64.25" xmlns="http://www.w3.org/2000/svg" xmlns:xlink="http://www.w3.org/1999/xlink">
<g id="graph0" class="graph" transform="scale(1 1) rotate(0) translate(4 60.25)">
<title>Skew</title>
<!-- Node1 -->
<g id="Node000001" class="node">
<title>Node1</title>
<g id="a_Node000001"><a xlink:title=" ">
<polygon fill="#999999" stroke="#666666" points="124.25,-37.25 83.5,-37.25 83.5,-18 124.25,-18 124.25,-37.25"/>
<text text-anchor="middle" x="103.88" y="-23.75" font-family="Helvetica,sans-Serif" font-size="10.00">Skew</text>
</a>
</g>
</g>
<!-- Node2 -->
<g id="Node000002" class="node">
<title>Node2</title>
<g id="a_Node000002"><a xlink:href="$class_t_c_p_d_f.html#a6d19e4f09d4080c92d8b122fe766c8fd" xlink:title=" ">
<polygon fill="white" stroke="#666666" points="47.5,-56.25 0,-56.25 0,-37 47.5,-37 47.5,-56.25"/>
<text text-anchor="middle" x="23.75" y="-42.75" font-family="Helvetica,sans-Serif" font-size="10.00">SkewX</text>
</a>
</g>
</g>
<!-- Node1&#45;&gt;Node2 -->
<g id="edge5_Node000001_Node000002" class="edge">
<title>Node1&#45;&gt;Node2</title>
<g id="a_edge5_Node000001_Node000002"><a xlink:title=" ">
<path fill="none" stroke="#63b8ff" d="M72.17,-35.09C64.05,-37.07 55.43,-39.16 47.79,-41.02"/>
<polygon fill="#63b8ff" stroke="#63b8ff" points="72.8,-38.54 81.69,-32.78 71.15,-31.74 72.8,-38.54"/>
</a>
</g>
</g>
<!-- Node3 -->
<g id="Node000003" class="node">
<title>Node3</title>
<g id="a_Node000003"><a xlink:href="$class_t_c_p_d_f.html#ab4b595c9cf366b90b1159483c682fbc1" xlink:title=" ">
<polygon fill="white" stroke="#666666" points="47.5,-19.25 0,-19.25 0,0 47.5,0 47.5,-19.25"/>
<text text-anchor="middle" x="23.75" y="-5.75" font-family="Helvetica,sans-Serif" font-size="10.00">SkewY</text>
</a>
</g>
</g>
<!-- Node1&#45;&gt;Node3 -->
<g id="edge6_Node000001_Node000003" class="edge">
<title>Node1&#45;&gt;Node3</title>
<g id="a_edge6_Node000001_Node000003"><a xlink:title=" ">
<path fill="none" stroke="#63b8ff" d="M72.17,-20.55C64.05,-18.68 55.43,-16.69 47.79,-14.93"/>
<polygon fill="#63b8ff" stroke="#63b8ff" points="71.16,-23.91 81.69,-22.74 72.73,-17.09 71.16,-23.91"/>
</a>
</g>
</g>
</g>
</svg>
