<?xml version="1.0" encoding="UTF-8" standalone="no"?>
<!DOCTYPE svg PUBLIC "-//W3C//DTD SVG 1.1//EN"
 "http://www.w3.org/Graphics/SVG/1.1/DTD/svg11.dtd">
<!-- Generated by graphviz version 10.0.1 (20240210.2158)
 -->
<!-- Title: NestedPropertyBlock Pages: 1 -->
<svg width="111pt" height="292pt"
 viewBox="0.00 0.00 111.00 292.00" xmlns="http://www.w3.org/2000/svg" xmlns:xlink="http://www.w3.org/1999/xlink">
<g id="graph0" class="graph" transform="scale(1 1) rotate(0) translate(4 288)">
<title>NestedPropertyBlock</title>
<!-- Node1 -->
<g id="Node000001" class="node">
<title>Node1</title>
<g id="a_Node000001"><a xlink:title=" ">
<polygon fill="#999999" stroke="none" points="103,-64 0,-64 0,0 103,0 103,-64"/>
<text text-anchor="start" x="5" y="-50.5" font-family="Helvetica,sans-Serif" font-size="10.00">NestedPropertyBlock</text>
<text text-anchor="start" x="11" y="-35.5" font-family="Helvetica,sans-Serif" font-size="10.00">+</text>
<text text-anchor="start" x="28" y="-35.5" font-family="Helvetica,sans-Serif" font-size="10.00">$hasValue</text>
<text text-anchor="start" x="11" y="-20.5" font-family="Helvetica,sans-Serif" font-size="10.00">+</text>
<text text-anchor="start" x="28" y="-20.5" font-family="Helvetica,sans-Serif" font-size="10.00">$prefix</text>
<text text-anchor="start" x="11" y="-5.5" font-family="Helvetica,sans-Serif" font-size="10.00">+</text>
<text text-anchor="start" x="28" y="-5.5" font-family="Helvetica,sans-Serif" font-size="10.00">__construct()</text>
<polygon fill="#666666" stroke="#666666" points="0,-47 0,-47 103,-47 103,-47 0,-47"/>
<polygon fill="#666666" stroke="#666666" points="0,-17 0,-17 26,-17 26,-17 0,-17"/>
<polygon fill="#666666" stroke="#666666" points="26,-17 26,-17 103,-17 103,-17 26,-17"/>
<polygon fill="none" stroke="#666666" points="0,0 0,-64 103,-64 103,0 0,0"/>
</a>
</g>
</g>
<!-- Node2 -->
<g id="Node000002" class="node">
<title>Node2</title>
<g id="a_Node000002"><a xlink:href="$class_scss_php_1_1_scss_php_1_1_block.html" xlink:title=" ">
<polygon fill="white" stroke="none" points="94.5,-284 8.5,-284 8.5,-100 94.5,-100 94.5,-284"/>
<text text-anchor="start" x="39.12" y="-270.5" font-family="Helvetica,sans-Serif" font-size="10.00">Block</text>
<text text-anchor="start" x="12.5" y="-255.5" font-family="Helvetica,sans-Serif" font-size="10.00">+</text>
<text text-anchor="start" x="22.5" y="-255.5" font-family="Helvetica,sans-Serif" font-size="10.00">$type</text>
<text text-anchor="start" x="12.5" y="-240.5" font-family="Helvetica,sans-Serif" font-size="10.00">+</text>
<text text-anchor="start" x="22.5" y="-240.5" font-family="Helvetica,sans-Serif" font-size="10.00">$parent</text>
<text text-anchor="start" x="12.5" y="-225.5" font-family="Helvetica,sans-Serif" font-size="10.00">+</text>
<text text-anchor="start" x="22.5" y="-225.5" font-family="Helvetica,sans-Serif" font-size="10.00">$sourceName</text>
<text text-anchor="start" x="12.5" y="-210.5" font-family="Helvetica,sans-Serif" font-size="10.00">+</text>
<text text-anchor="start" x="22.5" y="-210.5" font-family="Helvetica,sans-Serif" font-size="10.00">$sourceIndex</text>
<text text-anchor="start" x="12.5" y="-195.5" font-family="Helvetica,sans-Serif" font-size="10.00">+</text>
<text text-anchor="start" x="22.5" y="-195.5" font-family="Helvetica,sans-Serif" font-size="10.00">$sourceLine</text>
<text text-anchor="start" x="12.5" y="-180.5" font-family="Helvetica,sans-Serif" font-size="10.00">+</text>
<text text-anchor="start" x="22.5" y="-180.5" font-family="Helvetica,sans-Serif" font-size="10.00">$sourceColumn</text>
<text text-anchor="start" x="12.5" y="-165.5" font-family="Helvetica,sans-Serif" font-size="10.00">+</text>
<text text-anchor="start" x="22.5" y="-165.5" font-family="Helvetica,sans-Serif" font-size="10.00">$selectors</text>
<text text-anchor="start" x="12.5" y="-150.5" font-family="Helvetica,sans-Serif" font-size="10.00">+</text>
<text text-anchor="start" x="22.5" y="-150.5" font-family="Helvetica,sans-Serif" font-size="10.00">$comments</text>
<text text-anchor="start" x="12.5" y="-135.5" font-family="Helvetica,sans-Serif" font-size="10.00">+</text>
<text text-anchor="start" x="22.5" y="-135.5" font-family="Helvetica,sans-Serif" font-size="10.00">$children</text>
<text text-anchor="start" x="12.5" y="-120.5" font-family="Helvetica,sans-Serif" font-size="10.00">+</text>
<text text-anchor="start" x="22.5" y="-120.5" font-family="Helvetica,sans-Serif" font-size="10.00">$selfParent</text>
<text text-anchor="start" x="50" y="-105.5" font-family="Helvetica,sans-Serif" font-size="10.00"> </text>
<polygon fill="#666666" stroke="#666666" points="8.5,-267 8.5,-267 94.5,-267 94.5,-267 8.5,-267"/>
<polygon fill="#666666" stroke="#666666" points="8.5,-117 8.5,-117 20.5,-117 20.5,-117 8.5,-117"/>
<polygon fill="#666666" stroke="#666666" points="20.5,-117 20.5,-117 94.5,-117 94.5,-117 20.5,-117"/>
<polygon fill="none" stroke="#666666" points="8.5,-100 8.5,-284 94.5,-284 94.5,-100 8.5,-100"/>
</a>
</g>
</g>
<!-- Node2&#45;&gt;Node1 -->
<g id="edge3_Node000001_Node000002" class="edge">
<title>Node2&#45;&gt;Node1</title>
<g id="a_edge3_Node000001_Node000002"><a xlink:title=" ">
<path fill="none" stroke="#63b8ff" d="M51.5,-88.55C51.5,-79.67 51.5,-71.21 51.5,-63.71"/>
<polygon fill="none" stroke="#63b8ff" points="48,-88.49 51.5,-98.49 55,-88.49 48,-88.49"/>
</a>
</g>
</g>
</g>
</svg>
