<?xml version="1.0" encoding="UTF-8" standalone="no"?>
<!DOCTYPE svg PUBLIC "-//W3C//DTD SVG 1.1//EN"
 "http://www.w3.org/Graphics/SVG/1.1/DTD/svg11.dtd">
<!-- Generated by graphviz version 10.0.1 (20240210.2158)
 -->
<!-- Title: _putAPXObject Pages: 1 -->
<svg width="688pt" height="187pt"
 viewBox="0.00 0.00 688.00 186.88" xmlns="http://www.w3.org/2000/svg" xmlns:xlink="http://www.w3.org/1999/xlink">
<g id="graph0" class="graph" transform="scale(1 1) rotate(0) translate(4 182.88)">
<title>_putAPXObject</title>
<!-- Node1 -->
<g id="Node000001" class="node">
<title>Node1</title>
<g id="a_Node000001"><a xlink:title=" ">
<polygon fill="#999999" stroke="#666666" points="83.5,-130.25 0,-130.25 0,-111 83.5,-111 83.5,-130.25"/>
<text text-anchor="middle" x="41.75" y="-116.75" font-family="Helvetica,sans-Serif" font-size="10.00">_putAPXObject</text>
</a>
</g>
</g>
<!-- Node2 -->
<g id="Node000002" class="node">
<title>Node2</title>
<g id="a_Node000002"><a xlink:href="$class_t_c_p_d_f.html#a9aac8335bc5c820ae15de203116387ce" xlink:title=" ">
<polygon fill="white" stroke="#666666" points="183.5,-170.25 136,-170.25 136,-151 183.5,-151 183.5,-170.25"/>
<text text-anchor="middle" x="159.75" y="-156.75" font-family="Helvetica,sans-Serif" font-size="10.00">_getobj</text>
</a>
</g>
</g>
<!-- Node1&#45;&gt;Node2 -->
<g id="edge25_Node000001_Node000002" class="edge">
<title>Node1&#45;&gt;Node2</title>
<g id="a_edge25_Node000001_Node000002"><a xlink:title=" ">
<path fill="none" stroke="#63b8ff" d="M72.02,-130.72C88.21,-136.3 108.39,-143.26 125.21,-149.06"/>
<polygon fill="#63b8ff" stroke="#63b8ff" points="123.68,-152.23 134.27,-152.18 125.96,-145.62 123.68,-152.23"/>
</a>
</g>
</g>
<!-- Node4 -->
<g id="Node000004" class="node">
<title>Node4</title>
<g id="a_Node000004"><a xlink:href="$class_t_c_p_d_f.html#a582f17e08e7b5db824cd1ec5c684eb4c" xlink:title=" ">
<polygon fill="white" stroke="#666666" points="200,-130.25 119.5,-130.25 119.5,-111 200,-111 200,-130.25"/>
<text text-anchor="middle" x="159.75" y="-116.75" font-family="Helvetica,sans-Serif" font-size="10.00">_getrawstream</text>
</a>
</g>
</g>
<!-- Node1&#45;&gt;Node4 -->
<g id="edge27_Node000001_Node000004" class="edge">
<title>Node1&#45;&gt;Node4</title>
<g id="a_edge27_Node000001_Node000004"><a xlink:title=" ">
<path fill="none" stroke="#63b8ff" d="M83.97,-120.62C91.67,-120.62 99.81,-120.62 107.76,-120.62"/>
<polygon fill="#63b8ff" stroke="#63b8ff" points="107.7,-124.13 117.7,-120.63 107.7,-117.13 107.7,-124.13"/>
</a>
</g>
</g>
<!-- Node10 -->
<g id="Node000010" class="node">
<title>Node10</title>
<g id="a_Node000010"><a xlink:href="$class_t_c_p_d_f.html#a01627a8b7ad5c79ee736572b3d2ef3f5" xlink:title=" ">
<polygon fill="white" stroke="#666666" points="177.12,-75.25 142.38,-75.25 142.38,-56 177.12,-56 177.12,-75.25"/>
<text text-anchor="middle" x="159.75" y="-61.75" font-family="Helvetica,sans-Serif" font-size="10.00">_out</text>
</a>
</g>
</g>
<!-- Node1&#45;&gt;Node10 -->
<g id="edge33_Node000001_Node000010" class="edge">
<title>Node1&#45;&gt;Node10</title>
<g id="a_edge33_Node000001_Node000010"><a xlink:title=" ">
<path fill="none" stroke="#63b8ff" d="M64.03,-110.54C83.1,-101.49 111.17,-88.18 131.81,-78.4"/>
<polygon fill="#63b8ff" stroke="#63b8ff" points="133.21,-81.61 140.75,-74.16 130.21,-75.28 133.21,-81.61"/>
</a>
</g>
</g>
<!-- Node3 -->
<g id="Node000003" class="node">
<title>Node3</title>
<g id="a_Node000003"><a xlink:href="$class_t_c_p_d_f___s_t_a_t_i_c.html#a5e311abad71449e634216a5d897a65b6" xlink:title=" ">
<polygon fill="white" stroke="#666666" points="356.25,-178.88 236,-178.88 236,-148.38 356.25,-148.38 356.25,-178.88"/>
<text text-anchor="start" x="244" y="-165.38" font-family="Helvetica,sans-Serif" font-size="10.00">TCPDF_STATIC\empty</text>
<text text-anchor="middle" x="296.12" y="-154.12" font-family="Helvetica,sans-Serif" font-size="10.00">_string</text>
</a>
</g>
</g>
<!-- Node2&#45;&gt;Node3 -->
<g id="edge26_Node000002_Node000003" class="edge">
<title>Node2&#45;&gt;Node3</title>
<g id="a_edge26_Node000002_Node000003"><a xlink:title=" ">
<path fill="none" stroke="#63b8ff" d="M183.85,-161.14C195.27,-161.4 209.74,-161.72 224.42,-162.05"/>
<polygon fill="#63b8ff" stroke="#63b8ff" points="224.06,-165.54 234.14,-162.26 224.22,-158.54 224.06,-165.54"/>
</a>
</g>
</g>
<!-- Node5 -->
<g id="Node000005" class="node">
<title>Node5</title>
<g id="a_Node000005"><a xlink:href="$class_t_c_p_d_f.html#a6a21d65a3e760b79009815dac484e466" xlink:title=" ">
<polygon fill="white" stroke="#666666" points="334.88,-130.25 257.38,-130.25 257.38,-111 334.88,-111 334.88,-130.25"/>
<text text-anchor="middle" x="296.12" y="-116.75" font-family="Helvetica,sans-Serif" font-size="10.00">_encrypt_data</text>
</a>
</g>
</g>
<!-- Node4&#45;&gt;Node5 -->
<g id="edge28_Node000004_Node000005" class="edge">
<title>Node4&#45;&gt;Node5</title>
<g id="a_edge28_Node000004_Node000005"><a xlink:title=" ">
<path fill="none" stroke="#63b8ff" d="M200.34,-120.62C214.65,-120.62 230.99,-120.62 246.02,-120.62"/>
<polygon fill="#63b8ff" stroke="#63b8ff" points="245.69,-124.13 255.69,-120.63 245.69,-117.13 245.69,-124.13"/>
</a>
</g>
</g>
<!-- Node6 -->
<g id="Node000006" class="node">
<title>Node6</title>
<g id="a_Node000006"><a xlink:href="$class_t_c_p_d_f___s_t_a_t_i_c.html#ac9917f8a2a7d6904984641db634a2133" xlink:title=" ">
<polygon fill="white" stroke="#666666" points="511,-167.25 392.25,-167.25 392.25,-148 511,-148 511,-167.25"/>
<text text-anchor="middle" x="451.62" y="-153.75" font-family="Helvetica,sans-Serif" font-size="10.00">TCPDF_STATIC\_AES</text>
</a>
</g>
</g>
<!-- Node5&#45;&gt;Node6 -->
<g id="edge29_Node000005_Node000006" class="edge">
<title>Node5&#45;&gt;Node6</title>
<g id="a_edge29_Node000005_Node000006"><a xlink:title=" ">
<path fill="none" stroke="#63b8ff" d="M335.07,-129.77C353.95,-134.32 377.07,-139.9 397.66,-144.86"/>
<polygon fill="#63b8ff" stroke="#63b8ff" points="396.79,-148.25 407.33,-147.19 398.43,-141.44 396.79,-148.25"/>
</a>
</g>
</g>
<!-- Node7 -->
<g id="Node000007" class="node">
<title>Node7</title>
<g id="a_Node000007"><a xlink:href="$class_t_c_p_d_f.html#a8f84276acc4ac4049af451cc3f534144" xlink:title=" ">
<polygon fill="white" stroke="#666666" points="483.25,-130.25 420,-130.25 420,-111 483.25,-111 483.25,-130.25"/>
<text text-anchor="middle" x="451.62" y="-116.75" font-family="Helvetica,sans-Serif" font-size="10.00">_objectkey</text>
</a>
</g>
</g>
<!-- Node5&#45;&gt;Node7 -->
<g id="edge30_Node000005_Node000007" class="edge">
<title>Node5&#45;&gt;Node7</title>
<g id="a_edge30_Node000005_Node000007"><a xlink:title=" ">
<path fill="none" stroke="#63b8ff" d="M335.07,-120.62C357.3,-120.62 385.42,-120.62 408.35,-120.62"/>
<polygon fill="#63b8ff" stroke="#63b8ff" points="408.3,-124.13 418.3,-120.63 408.3,-117.13 408.3,-124.13"/>
</a>
</g>
</g>
<!-- Node9 -->
<g id="Node000009" class="node">
<title>Node9</title>
<g id="a_Node000009"><a xlink:href="$class_t_c_p_d_f___s_t_a_t_i_c.html#a9aa40476c93ae6a84d4e6157576baf28" xlink:title=" ">
<polygon fill="white" stroke="#666666" points="511,-93.25 392.25,-93.25 392.25,-74 511,-74 511,-93.25"/>
<text text-anchor="middle" x="451.62" y="-79.75" font-family="Helvetica,sans-Serif" font-size="10.00">TCPDF_STATIC\_RC4</text>
</a>
</g>
</g>
<!-- Node5&#45;&gt;Node9 -->
<g id="edge32_Node000005_Node000009" class="edge">
<title>Node5&#45;&gt;Node9</title>
<g id="a_edge32_Node000005_Node000009"><a xlink:title=" ">
<path fill="none" stroke="#63b8ff" d="M335.07,-111.48C353.95,-106.93 377.07,-101.35 397.66,-96.39"/>
<polygon fill="#63b8ff" stroke="#63b8ff" points="398.43,-99.81 407.33,-94.06 396.79,-93 398.43,-99.81"/>
</a>
</g>
</g>
<!-- Node8 -->
<g id="Node000008" class="node">
<title>Node8</title>
<g id="a_Node000008"><a xlink:href="$class_t_c_p_d_f___s_t_a_t_i_c.html#a62729a9ca83528c7ba9b6c849b9c7fca" xlink:title=" ">
<polygon fill="white" stroke="#666666" points="680,-130.25 547,-130.25 547,-111 680,-111 680,-130.25"/>
<text text-anchor="middle" x="613.5" y="-116.75" font-family="Helvetica,sans-Serif" font-size="10.00">TCPDF_STATIC\_md5_16</text>
</a>
</g>
</g>
<!-- Node7&#45;&gt;Node8 -->
<g id="edge31_Node000007_Node000008" class="edge">
<title>Node7&#45;&gt;Node8</title>
<g id="a_edge31_Node000007_Node000008"><a xlink:title=" ">
<path fill="none" stroke="#63b8ff" d="M483.45,-120.62C498.33,-120.62 516.91,-120.62 535.3,-120.62"/>
<polygon fill="#63b8ff" stroke="#63b8ff" points="535.18,-124.13 545.18,-120.63 535.18,-117.13 535.18,-124.13"/>
</a>
</g>
</g>
<!-- Node11 -->
<g id="Node000011" class="node">
<title>Node11</title>
<g id="a_Node000011"><a xlink:href="$class_t_c_p_d_f.html#a2f0c138e82371b95c3899451a330da05" xlink:title=" ">
<polygon fill="white" stroke="#666666" points="335.25,-93.25 257,-93.25 257,-74 335.25,-74 335.25,-93.25"/>
<text text-anchor="middle" x="296.12" y="-79.75" font-family="Helvetica,sans-Serif" font-size="10.00">getPageBuffer</text>
</a>
</g>
</g>
<!-- Node10&#45;&gt;Node11 -->
<g id="edge34_Node000010_Node000011" class="edge">
<title>Node10&#45;&gt;Node11</title>
<g id="a_edge34_Node000010_Node000011"><a xlink:title=" ">
<path fill="none" stroke="#63b8ff" d="M177.5,-67.87C194.43,-70.14 221.42,-73.75 245.29,-76.95"/>
<polygon fill="#63b8ff" stroke="#63b8ff" points="244.82,-80.42 255.19,-78.28 245.74,-73.48 244.82,-80.42"/>
</a>
</g>
</g>
<!-- Node12 -->
<g id="Node000012" class="node">
<title>Node12</title>
<g id="a_Node000012"><a xlink:href="$class_t_c_p_d_f.html#ac43455b74ede7e3f1d7558feb764eb6f" xlink:title=" ">
<polygon fill="white" stroke="#666666" points="324,-56.25 268.25,-56.25 268.25,-37 324,-37 324,-56.25"/>
<text text-anchor="middle" x="296.12" y="-42.75" font-family="Helvetica,sans-Serif" font-size="10.00">setBuffer</text>
</a>
</g>
</g>
<!-- Node10&#45;&gt;Node12 -->
<g id="edge35_Node000010_Node000012" class="edge">
<title>Node10&#45;&gt;Node12</title>
<g id="a_edge35_Node000010_Node000012"><a xlink:title=" ">
<path fill="none" stroke="#63b8ff" d="M177.5,-63.26C197.23,-60.47 230.65,-55.74 256.83,-52.04"/>
<polygon fill="#63b8ff" stroke="#63b8ff" points="257,-55.55 266.41,-50.68 256.02,-48.62 257,-55.55"/>
</a>
</g>
</g>
<!-- Node13 -->
<g id="Node000013" class="node">
<title>Node13</title>
<g id="a_Node000013"><a xlink:href="$class_t_c_p_d_f.html#af4d8e4aed525c0bded587be897297a7f" xlink:title=" ">
<polygon fill="white" stroke="#666666" points="335.25,-19.25 257,-19.25 257,0 335.25,0 335.25,-19.25"/>
<text text-anchor="middle" x="296.12" y="-5.75" font-family="Helvetica,sans-Serif" font-size="10.00">setPageBuffer</text>
</a>
</g>
</g>
<!-- Node10&#45;&gt;Node13 -->
<g id="edge36_Node000010_Node000013" class="edge">
<title>Node10&#45;&gt;Node13</title>
<g id="a_edge36_Node000010_Node000013"><a xlink:title=" ">
<path fill="none" stroke="#63b8ff" d="M177.4,-56.17C192.4,-47.91 215.22,-35.96 236,-27.62 239.81,-26.1 243.8,-24.62 247.83,-23.22"/>
<polygon fill="#63b8ff" stroke="#63b8ff" points="248.68,-26.63 257.07,-20.17 246.48,-19.98 248.68,-26.63"/>
</a>
</g>
</g>
</g>
</svg>
