<?xml version="1.0" encoding="UTF-8" standalone="no"?>
<!DOCTYPE svg PUBLIC "-//W3C//DTD SVG 1.1//EN"
 "http://www.w3.org/Graphics/SVG/1.1/DTD/svg11.dtd">
<!-- Generated by graphviz version 10.0.1 (20240210.2158)
 -->
<!-- Title: showForConfig Pages: 1 -->
<svg width="319pt" height="101pt"
 viewBox="0.00 0.00 319.30 101.25" xmlns="http://www.w3.org/2000/svg" xmlns:xlink="http://www.w3.org/1999/xlink">
<g id="graph0" class="graph" transform="scale(1 1) rotate(0) translate(4 97.25)">
<title>showForConfig</title>
<!-- Node1 -->
<g id="Node000001" class="node">
<title>Node1</title>
<g id="a_Node000001"><a xlink:title=" ">
<polygon fill="#999999" stroke="#666666" points="82,-56.25 0,-56.25 0,-37 82,-37 82,-56.25"/>
<text text-anchor="middle" x="41" y="-42.75" font-family="Helvetica,sans-Serif" font-size="10.00">showForConfig</text>
</a>
</g>
</g>
<!-- Node2 -->
<g id="Node000002" class="node">
<title>Node2</title>
<g id="a_Node000002"><a xlink:href="$autoload_8function_8php.html#affc4787304a41a695a489fc24d60877d" xlink:title=" ">
<polygon fill="white" stroke="#666666" points="198.12,-93.25 166.38,-93.25 166.38,-74 198.12,-74 198.12,-93.25"/>
<text text-anchor="middle" x="182.25" y="-79.75" font-family="Helvetica,sans-Serif" font-size="10.00">_sx</text>
</a>
</g>
</g>
<!-- Node1&#45;&gt;Node2 -->
<g id="edge9_Node000001_Node000002" class="edge">
<title>Node1&#45;&gt;Node2</title>
<g id="a_edge9_Node000001_Node000002"><a xlink:title=" ">
<path fill="none" stroke="#63b8ff" d="M80.05,-56.74C103.86,-63.06 133.91,-71.05 155.06,-76.67"/>
<polygon fill="#63b8ff" stroke="#63b8ff" points="154.06,-80.02 164.62,-79.21 155.85,-73.26 154.06,-80.02"/>
</a>
</g>
</g>
<!-- Node4 -->
<g id="Node000004" class="node">
<title>Node4</title>
<g id="a_Node000004"><a xlink:href="$class_common_g_l_p_i.html#a39eb4a1ba141460eeb8cae957c28c94a" xlink:title=" ">
<polygon fill="white" stroke="#666666" points="246.5,-56.25 118,-56.25 118,-37 246.5,-37 246.5,-56.25"/>
<text text-anchor="middle" x="182.25" y="-42.75" font-family="Helvetica,sans-Serif" font-size="10.00">CommonGLPI\canUpdate</text>
</a>
</g>
</g>
<!-- Node1&#45;&gt;Node4 -->
<g id="edge11_Node000001_Node000004" class="edge">
<title>Node1&#45;&gt;Node4</title>
<g id="a_edge11_Node000001_Node000004"><a xlink:title=" ">
<path fill="none" stroke="#63b8ff" d="M82.28,-46.62C89.9,-46.62 98.09,-46.62 106.39,-46.62"/>
<polygon fill="#63b8ff" stroke="#63b8ff" points="106.2,-50.13 116.2,-46.63 106.2,-43.13 106.2,-50.13"/>
</a>
</g>
</g>
<!-- Node5 -->
<g id="Node000005" class="node">
<title>Node5</title>
<g id="a_Node000005"><a xlink:href="$class_common_g_l_p_i.html#a32f309edfbcb4870662d8d9555895593" xlink:title=" ">
<polygon fill="white" stroke="#666666" points="241.62,-19.25 122.88,-19.25 122.88,0 241.62,0 241.62,-19.25"/>
<text text-anchor="middle" x="182.25" y="-5.75" font-family="Helvetica,sans-Serif" font-size="10.00">CommonGLPI\canView</text>
</a>
</g>
</g>
<!-- Node1&#45;&gt;Node5 -->
<g id="edge12_Node000001_Node000005" class="edge">
<title>Node1&#45;&gt;Node5</title>
<g id="a_edge12_Node000001_Node000005"><a xlink:title=" ">
<path fill="none" stroke="#63b8ff" d="M80.05,-36.51C96.17,-32.23 115.15,-27.19 132.29,-22.63"/>
<polygon fill="#63b8ff" stroke="#63b8ff" points="133.02,-26.06 141.78,-20.11 131.22,-19.3 133.02,-26.06"/>
</a>
</g>
</g>
<!-- Node3 -->
<g id="Node000003" class="node">
<title>Node3</title>
<g id="a_Node000003"><a xlink:href="$autoload_8function_8php.html#a2111ba1b23d22b49aee91462961bda8a" xlink:title=" ">
<polygon fill="white" stroke="#666666" points="311.3,-93.25 282.5,-93.25 282.5,-74 311.3,-74 311.3,-93.25"/>
<text text-anchor="middle" x="296.9" y="-79.75" font-family="Helvetica,sans-Serif" font-size="10.00">_x</text>
</a>
</g>
</g>
<!-- Node2&#45;&gt;Node3 -->
<g id="edge10_Node000002_Node000003" class="edge">
<title>Node2&#45;&gt;Node3</title>
<g id="a_edge10_Node000002_Node000003"><a xlink:title=" ">
<path fill="none" stroke="#63b8ff" d="M198.44,-83.62C216.99,-83.62 248.62,-83.62 270.8,-83.62"/>
<polygon fill="#63b8ff" stroke="#63b8ff" points="270.49,-87.13 280.49,-83.63 270.49,-80.13 270.49,-87.13"/>
</a>
</g>
</g>
</g>
</svg>
