<?xml version="1.0" encoding="UTF-8" standalone="no"?>
<!DOCTYPE svg PUBLIC "-//W3C//DTD SVG 1.1//EN"
 "http://www.w3.org/Graphics/SVG/1.1/DTD/svg11.dtd">
<!-- Generated by graphviz version 10.0.1 (20240210.2158)
 -->
<!-- Title: url_remove_credentials Pages: 1 -->
<svg width="296pt" height="45pt"
 viewBox="0.00 0.00 295.75 45.25" xmlns="http://www.w3.org/2000/svg" xmlns:xlink="http://www.w3.org/1999/xlink">
<g id="graph0" class="graph" transform="scale(1 1) rotate(0) translate(4 41.25)">
<title>url_remove_credentials</title>
<!-- Node1 -->
<g id="Node000001" class="node">
<title>Node1</title>
<g id="a_Node000001"><a xlink:title=" ">
<polygon fill="#999999" stroke="#666666" points="287.75,-19.25 171.25,-19.25 171.25,0 287.75,0 287.75,-19.25"/>
<text text-anchor="middle" x="229.5" y="-5.75" font-family="Helvetica,sans-Serif" font-size="10.00">url_remove_credentials</text>
</a>
</g>
</g>
<!-- Node2 -->
<g id="Node000002" class="node">
<title>Node2</title>
<g id="a_Node000002"><a xlink:href="$class_simple_pie___file.html#a40a1b523d7e8590fe078850dff9ba393" xlink:title=" ">
<polygon fill="white" stroke="#666666" points="135.25,-19.25 0,-19.25 0,0 135.25,0 135.25,-19.25"/>
<text text-anchor="middle" x="67.62" y="-5.75" font-family="Helvetica,sans-Serif" font-size="10.00">SimplePie_File\__construct</text>
</a>
</g>
</g>
<!-- Node1&#45;&gt;Node2 -->
<g id="edge5_Node000001_Node000002" class="edge">
<title>Node1&#45;&gt;Node2</title>
<g id="a_edge5_Node000001_Node000002"><a xlink:title=" ">
<path fill="none" stroke="#63b8ff" d="M159.34,-9.62C151.43,-9.62 143.38,-9.62 135.5,-9.62"/>
<polygon fill="#63b8ff" stroke="#63b8ff" points="159.27,-13.13 169.27,-9.63 159.27,-6.13 159.27,-13.13"/>
</a>
</g>
</g>
<!-- Node2&#45;&gt;Node2 -->
<g id="edge6_Node000002_Node000002" class="edge">
<title>Node2&#45;&gt;Node2</title>
<g id="a_edge6_Node000002_Node000002"><a xlink:title=" ">
<path fill="none" stroke="#63b8ff" d="M96.65,-30.32C93.31,-34.37 83.63,-37.25 67.62,-37.25 39.17,-37.25 30.72,-28.15 42.28,-19.54"/>
<polygon fill="#63b8ff" stroke="#63b8ff" points="100,-29.3 93.46,-20.97 93.38,-31.56 100,-29.3"/>
</a>
</g>
</g>
</g>
</svg>
