<?xml version="1.0" encoding="UTF-8" standalone="no"?>
<!DOCTYPE svg PUBLIC "-//W3C//DTD SVG 1.1//EN"
 "http://www.w3.org/Graphics/SVG/1.1/DTD/svg11.dtd">
<!-- Generated by graphviz version 10.0.1 (20240210.2158)
 -->
<!-- Title: complete Pages: 1 -->
<svg width="487pt" height="98pt"
 viewBox="0.00 0.00 487.25 98.12" xmlns="http://www.w3.org/2000/svg" xmlns:xlink="http://www.w3.org/1999/xlink">
<g id="graph0" class="graph" transform="scale(1 1) rotate(0) translate(4 94.12)">
<title>complete</title>
<!-- Node1 -->
<g id="Node000001" class="node">
<title>Node1</title>
<g id="a_Node000001"><a xlink:title=" ">
<polygon fill="#999999" stroke="#666666" points="55.75,-57.5 0,-57.5 0,-38.25 55.75,-38.25 55.75,-57.5"/>
<text text-anchor="middle" x="27.88" y="-44" font-family="Helvetica,sans-Serif" font-size="10.00">complete</text>
</a>
</g>
</g>
<!-- Node2 -->
<g id="Node000002" class="node">
<title>Node2</title>
<g id="a_Node000002"><a xlink:href="$class_symfony_1_1_component_1_1_console_1_1_command_1_1_command.html#ab2019a6d5eaa4bde2a1a780dea55aca6" xlink:title=" ">
<polygon fill="white" stroke="#666666" points="268.25,-90.12 91.75,-90.12 91.75,-59.62 268.25,-59.62 268.25,-90.12"/>
<text text-anchor="start" x="99.75" y="-76.62" font-family="Helvetica,sans-Serif" font-size="10.00">Symfony\Component\Console</text>
<text text-anchor="middle" x="180" y="-65.38" font-family="Helvetica,sans-Serif" font-size="10.00">\Command\Command\getApplication</text>
</a>
</g>
</g>
<!-- Node1&#45;&gt;Node2 -->
<g id="edge7_Node000001_Node000002" class="edge">
<title>Node1&#45;&gt;Node2</title>
<g id="a_edge7_Node000001_Node000002"><a xlink:title=" ">
<path fill="none" stroke="#63b8ff" d="M56.06,-52.76C63.31,-54.07 71.58,-55.56 80.33,-57.13"/>
<polygon fill="#63b8ff" stroke="#63b8ff" points="79.67,-60.57 90.13,-58.89 80.91,-53.68 79.67,-60.57"/>
</a>
</g>
</g>
<!-- Node3 -->
<g id="Node000003" class="node">
<title>Node3</title>
<g id="a_Node000003"><a xlink:href="$class_symfony_1_1_component_1_1_console_1_1_completion_1_1_completion_suggestions.html#a4b79c5f75fad547d4cddb10eb26ea297" xlink:title=" ">
<polygon fill="white" stroke="#666666" points="267.5,-41.75 92.5,-41.75 92.5,0 267.5,0 267.5,-41.75"/>
<text text-anchor="start" x="100.5" y="-28.25" font-family="Helvetica,sans-Serif" font-size="10.00">Symfony\Component\Console</text>
<text text-anchor="start" x="100.5" y="-17" font-family="Helvetica,sans-Serif" font-size="10.00">\Completion\CompletionSuggestions</text>
<text text-anchor="middle" x="180" y="-5.75" font-family="Helvetica,sans-Serif" font-size="10.00">\suggestValues</text>
</a>
</g>
</g>
<!-- Node1&#45;&gt;Node3 -->
<g id="edge8_Node000001_Node000003" class="edge">
<title>Node1&#45;&gt;Node3</title>
<g id="a_edge8_Node000001_Node000003"><a xlink:title=" ">
<path fill="none" stroke="#63b8ff" d="M56.06,-42.99C63.51,-41.65 72.04,-40.11 81.05,-38.49"/>
<polygon fill="#63b8ff" stroke="#63b8ff" points="81.54,-41.96 90.76,-36.74 80.3,-35.07 81.54,-41.96"/>
</a>
</g>
</g>
<!-- Node4 -->
<g id="Node000004" class="node">
<title>Node4</title>
<g id="a_Node000004"><a xlink:href="$class_symfony_1_1_component_1_1_console_1_1_completion_1_1_completion_suggestions.html#a9fbd380d037f223a0b1c198097d3968e" xlink:title=" ">
<polygon fill="white" stroke="#666666" points="479.25,-41.75 304.25,-41.75 304.25,0 479.25,0 479.25,-41.75"/>
<text text-anchor="start" x="312.25" y="-28.25" font-family="Helvetica,sans-Serif" font-size="10.00">Symfony\Component\Console</text>
<text text-anchor="start" x="312.25" y="-17" font-family="Helvetica,sans-Serif" font-size="10.00">\Completion\CompletionSuggestions</text>
<text text-anchor="middle" x="391.75" y="-5.75" font-family="Helvetica,sans-Serif" font-size="10.00">\suggestValue</text>
</a>
</g>
</g>
<!-- Node3&#45;&gt;Node4 -->
<g id="edge9_Node000003_Node000004" class="edge">
<title>Node3&#45;&gt;Node4</title>
<g id="a_edge9_Node000003_Node000004"><a xlink:title=" ">
<path fill="none" stroke="#63b8ff" d="M267.83,-20.88C276.04,-20.88 284.41,-20.88 292.71,-20.88"/>
<polygon fill="#63b8ff" stroke="#63b8ff" points="292.47,-24.38 302.47,-20.88 292.47,-17.38 292.47,-24.38"/>
</a>
</g>
</g>
</g>
</svg>
