<?xml version="1.0" encoding="UTF-8" standalone="no"?>
<!DOCTYPE svg PUBLIC "-//W3C//DTD SVG 1.1//EN"
 "http://www.w3.org/Graphics/SVG/1.1/DTD/svg11.dtd">
<!-- Generated by graphviz version 10.0.1 (20240210.2158)
 -->
<!-- Title: MyIsamToInnoDbCommand Pages: 1 -->
<svg width="502pt" height="1238pt"
 viewBox="0.00 0.00 501.61 1237.75" xmlns="http://www.w3.org/2000/svg" xmlns:xlink="http://www.w3.org/1999/xlink">
<g id="graph0" class="graph" transform="scale(1 1) rotate(0) translate(4 1233.75)">
<title>MyIsamToInnoDbCommand</title>
<!-- Node1 -->
<g id="Node000001" class="node">
<title>Node1</title>
<g id="a_Node000001"><a xlink:title=" ">
<polygon fill="#999999" stroke="none" points="287.11,-123 155.11,-123 155.11,0 287.11,0 287.11,-123"/>
<text text-anchor="start" x="159.98" y="-109.5" font-family="Helvetica,sans-Serif" font-size="10.00">MyIsamToInnoDbCommand</text>
<text text-anchor="start" x="219.61" y="-94.5" font-family="Helvetica,sans-Serif" font-size="10.00"> </text>
<text text-anchor="start" x="162.11" y="-79.5" font-family="Helvetica,sans-Serif" font-size="10.00">+</text>
<text text-anchor="start" x="175.11" y="-79.5" font-family="Helvetica,sans-Serif" font-size="10.00">getConfigurationFilesTo</text>
<text text-anchor="start" x="175.11" y="-68.25" font-family="Helvetica,sans-Serif" font-size="10.00">Update(InputInterface</text>
<text text-anchor="start" x="175.11" y="-57" font-family="Helvetica,sans-Serif" font-size="10.00"> $input)</text>
<text text-anchor="start" x="162.48" y="-42.5" font-family="Helvetica,sans-Serif" font-size="10.00">#</text>
<text text-anchor="start" x="175.11" y="-42.5" font-family="Helvetica,sans-Serif" font-size="10.00">configure()</text>
<text text-anchor="start" x="162.48" y="-27.5" font-family="Helvetica,sans-Serif" font-size="10.00">#</text>
<text text-anchor="start" x="175.11" y="-27.5" font-family="Helvetica,sans-Serif" font-size="10.00">execute(InputInterface</text>
<text text-anchor="start" x="175.11" y="-16.25" font-family="Helvetica,sans-Serif" font-size="10.00"> $input, OutputInterface</text>
<text text-anchor="start" x="175.11" y="-5" font-family="Helvetica,sans-Serif" font-size="10.00"> $output)</text>
<polygon fill="#666666" stroke="#666666" points="155.11,-106 155.11,-106 287.11,-106 287.11,-106 155.11,-106"/>
<polygon fill="#666666" stroke="#666666" points="155.11,-91 155.11,-91 287.11,-91 287.11,-91 155.11,-91"/>
<polygon fill="none" stroke="#666666" points="155.11,0 155.11,-123 287.11,-123 287.11,0 155.11,0"/>
</a>
</g>
</g>
<!-- Node2 -->
<g id="Node000002" class="node">
<title>Node2</title>
<g id="a_Node000002"><a xlink:href="$class_glpi_1_1_console_1_1_abstract_command.html" xlink:title=" ">
<polygon fill="white" stroke="none" points="324.11,-587 118.11,-587 118.11,-160 324.11,-160 324.11,-587"/>
<text text-anchor="start" x="180.23" y="-573.5" font-family="Helvetica,sans-Serif" font-size="10.00">AbstractCommand</text>
<text text-anchor="start" x="122.48" y="-558.5" font-family="Helvetica,sans-Serif" font-size="10.00">#</text>
<text text-anchor="start" x="132.11" y="-558.5" font-family="Helvetica,sans-Serif" font-size="10.00">$db</text>
<text text-anchor="start" x="122.48" y="-543.5" font-family="Helvetica,sans-Serif" font-size="10.00">#</text>
<text text-anchor="start" x="132.11" y="-543.5" font-family="Helvetica,sans-Serif" font-size="10.00">$input</text>
<text text-anchor="start" x="122.48" y="-528.5" font-family="Helvetica,sans-Serif" font-size="10.00">#</text>
<text text-anchor="start" x="132.11" y="-528.5" font-family="Helvetica,sans-Serif" font-size="10.00">$output</text>
<text text-anchor="start" x="122.48" y="-513.5" font-family="Helvetica,sans-Serif" font-size="10.00">#</text>
<text text-anchor="start" x="132.11" y="-513.5" font-family="Helvetica,sans-Serif" font-size="10.00">$requires_db</text>
<text text-anchor="start" x="122.48" y="-498.5" font-family="Helvetica,sans-Serif" font-size="10.00">#</text>
<text text-anchor="start" x="132.11" y="-498.5" font-family="Helvetica,sans-Serif" font-size="10.00">$requires_db_up_to_date</text>
<text text-anchor="start" x="122.48" y="-483.5" font-family="Helvetica,sans-Serif" font-size="10.00">#</text>
<text text-anchor="start" x="132.11" y="-483.5" font-family="Helvetica,sans-Serif" font-size="10.00">$progress_bar</text>
<text text-anchor="start" x="122.11" y="-468.5" font-family="Helvetica,sans-Serif" font-size="10.00">+</text>
<text text-anchor="start" x="132.11" y="-468.5" font-family="Helvetica,sans-Serif" font-size="10.00">mustCheckMandatoryRequirements()</text>
<text text-anchor="start" x="122.11" y="-453.5" font-family="Helvetica,sans-Serif" font-size="10.00">+</text>
<text text-anchor="start" x="132.11" y="-453.5" font-family="Helvetica,sans-Serif" font-size="10.00">requiresUpToDateDb()</text>
<text text-anchor="start" x="122.48" y="-438.5" font-family="Helvetica,sans-Serif" font-size="10.00">#</text>
<text text-anchor="start" x="132.11" y="-438.5" font-family="Helvetica,sans-Serif" font-size="10.00">initialize(InputInterface</text>
<text text-anchor="start" x="132.11" y="-427.25" font-family="Helvetica,sans-Serif" font-size="10.00"> $input, OutputInterface</text>
<text text-anchor="start" x="132.11" y="-416" font-family="Helvetica,sans-Serif" font-size="10.00"> $output)</text>
<text text-anchor="start" x="122.48" y="-401.5" font-family="Helvetica,sans-Serif" font-size="10.00">#</text>
<text text-anchor="start" x="132.11" y="-401.5" font-family="Helvetica,sans-Serif" font-size="10.00">writelnOutputWithProgress</text>
<text text-anchor="start" x="132.11" y="-390.25" font-family="Helvetica,sans-Serif" font-size="10.00">Bar( $messages, ProgressBar</text>
<text text-anchor="start" x="132.11" y="-379" font-family="Helvetica,sans-Serif" font-size="10.00"> $progress_bar, $verbosity</text>
<text text-anchor="start" x="132.11" y="-367.75" font-family="Helvetica,sans-Serif" font-size="10.00">=OutputInterface::VERBOSITY_NORMAL)</text>
<text text-anchor="start" x="122.48" y="-352.5" font-family="Helvetica,sans-Serif" font-size="10.00">#</text>
<text text-anchor="start" x="132.11" y="-352.5" font-family="Helvetica,sans-Serif" font-size="10.00">outputSessionBufferedMessages</text>
<text text-anchor="start" x="132.11" y="-341.25" font-family="Helvetica,sans-Serif" font-size="10.00">($levels_to_output=[INFO,</text>
<text text-anchor="start" x="132.11" y="-330" font-family="Helvetica,sans-Serif" font-size="10.00"> WARNING, ERROR])</text>
<text text-anchor="start" x="122.48" y="-315.5" font-family="Helvetica,sans-Serif" font-size="10.00">#</text>
<text text-anchor="start" x="132.11" y="-315.5" font-family="Helvetica,sans-Serif" font-size="10.00">outputWarningOnMissingOptionnal</text>
<text text-anchor="start" x="132.11" y="-304.25" font-family="Helvetica,sans-Serif" font-size="10.00">Requirements()</text>
<text text-anchor="start" x="122.48" y="-289.5" font-family="Helvetica,sans-Serif" font-size="10.00">#</text>
<text text-anchor="start" x="132.11" y="-289.5" font-family="Helvetica,sans-Serif" font-size="10.00">askForConfirmation</text>
<text text-anchor="start" x="132.11" y="-278.25" font-family="Helvetica,sans-Serif" font-size="10.00">(bool $default_to_yes=true)</text>
<text text-anchor="start" x="122.48" y="-263.5" font-family="Helvetica,sans-Serif" font-size="10.00">#</text>
<text text-anchor="start" x="132.11" y="-263.5" font-family="Helvetica,sans-Serif" font-size="10.00">warnAboutExecutionTime()</text>
<text text-anchor="start" x="122.48" y="-248.5" font-family="Helvetica,sans-Serif" font-size="10.00">#</text>
<text text-anchor="start" x="132.11" y="-248.5" font-family="Helvetica,sans-Serif" font-size="10.00">iterate(iterable </text>
<text text-anchor="start" x="132.11" y="-237.25" font-family="Helvetica,sans-Serif" font-size="10.00">$iterable, ?callable</text>
<text text-anchor="start" x="132.11" y="-226" font-family="Helvetica,sans-Serif" font-size="10.00"> $message_callback=null,</text>
<text text-anchor="start" x="132.11" y="-214.75" font-family="Helvetica,sans-Serif" font-size="10.00"> ?int $count=null)</text>
<text text-anchor="start" x="122.48" y="-199.5" font-family="Helvetica,sans-Serif" font-size="10.00">#</text>
<text text-anchor="start" x="132.11" y="-199.5" font-family="Helvetica,sans-Serif" font-size="10.00">outputMessage(string</text>
<text text-anchor="start" x="132.11" y="-188.25" font-family="Helvetica,sans-Serif" font-size="10.00"> $message, int $verbosity</text>
<text text-anchor="start" x="132.11" y="-177" font-family="Helvetica,sans-Serif" font-size="10.00">=OutputInterface::VERBOSITY</text>
<text text-anchor="start" x="132.11" y="-165.75" font-family="Helvetica,sans-Serif" font-size="10.00">_NORMAL)</text>
<polygon fill="#666666" stroke="#666666" points="118.11,-570 118.11,-570 324.11,-570 324.11,-570 118.11,-570"/>
<polygon fill="#666666" stroke="#666666" points="118.11,-480 118.11,-480 130.11,-480 130.11,-480 118.11,-480"/>
<polygon fill="#666666" stroke="#666666" points="130.11,-480 130.11,-480 324.11,-480 324.11,-480 130.11,-480"/>
<polygon fill="none" stroke="#666666" points="118.11,-160 118.11,-587 324.11,-587 324.11,-160 118.11,-160"/>
</a>
</g>
</g>
<!-- Node2&#45;&gt;Node1 -->
<g id="edge15_Node000001_Node000002" class="edge">
<title>Node2&#45;&gt;Node1</title>
<g id="a_edge15_Node000001_Node000002"><a xlink:title=" ">
<path fill="none" stroke="#63b8ff" d="M221.11,-148.84C221.11,-139.71 221.11,-130.98 221.11,-122.82"/>
<polygon fill="none" stroke="#63b8ff" points="217.61,-148.65 221.11,-158.65 224.61,-148.65 217.61,-148.65"/>
</a>
</g>
</g>
<!-- Node3 -->
<g id="Node000003" class="node">
<title>Node3</title>
<g id="a_Node000003"><a xlink:href="$class_symfony_1_1_component_1_1_console_1_1_command_1_1_command.html" xlink:title=" ">
<polygon fill="white" stroke="none" points="240.11,-1111 84.11,-1111 84.11,-668 240.11,-668 240.11,-1111"/>
<text text-anchor="start" x="139.61" y="-1097.5" font-family="Helvetica,sans-Serif" font-size="10.00">Command</text>
<text text-anchor="start" x="160.61" y="-1082.5" font-family="Helvetica,sans-Serif" font-size="10.00"> </text>
<text text-anchor="start" x="88.11" y="-1067.5" font-family="Helvetica,sans-Serif" font-size="10.00">+</text>
<text text-anchor="start" x="98.11" y="-1067.5" font-family="Helvetica,sans-Serif" font-size="10.00">__construct(string</text>
<text text-anchor="start" x="98.11" y="-1056.25" font-family="Helvetica,sans-Serif" font-size="10.00"> $name=null)</text>
<text text-anchor="start" x="88.11" y="-1041.5" font-family="Helvetica,sans-Serif" font-size="10.00">+</text>
<text text-anchor="start" x="98.11" y="-1041.5" font-family="Helvetica,sans-Serif" font-size="10.00">ignoreValidationErrors()</text>
<text text-anchor="start" x="88.11" y="-1026.5" font-family="Helvetica,sans-Serif" font-size="10.00">+</text>
<text text-anchor="start" x="98.11" y="-1026.5" font-family="Helvetica,sans-Serif" font-size="10.00">setApplication(Application</text>
<text text-anchor="start" x="98.11" y="-1015.25" font-family="Helvetica,sans-Serif" font-size="10.00"> $application=null)</text>
<text text-anchor="start" x="88.11" y="-1000.5" font-family="Helvetica,sans-Serif" font-size="10.00">+</text>
<text text-anchor="start" x="98.11" y="-1000.5" font-family="Helvetica,sans-Serif" font-size="10.00">setHelperSet(HelperSet</text>
<text text-anchor="start" x="98.11" y="-989.25" font-family="Helvetica,sans-Serif" font-size="10.00"> $helperSet)</text>
<text text-anchor="start" x="88.11" y="-974.5" font-family="Helvetica,sans-Serif" font-size="10.00">+</text>
<text text-anchor="start" x="98.11" y="-974.5" font-family="Helvetica,sans-Serif" font-size="10.00">getHelperSet()</text>
<text text-anchor="start" x="88.11" y="-959.5" font-family="Helvetica,sans-Serif" font-size="10.00">+</text>
<text text-anchor="start" x="98.11" y="-959.5" font-family="Helvetica,sans-Serif" font-size="10.00">getApplication()</text>
<text text-anchor="start" x="88.11" y="-944.5" font-family="Helvetica,sans-Serif" font-size="10.00">+</text>
<text text-anchor="start" x="98.11" y="-944.5" font-family="Helvetica,sans-Serif" font-size="10.00">isEnabled()</text>
<text text-anchor="start" x="88.11" y="-929.5" font-family="Helvetica,sans-Serif" font-size="10.00">+</text>
<text text-anchor="start" x="98.11" y="-929.5" font-family="Helvetica,sans-Serif" font-size="10.00">run(InputInterface</text>
<text text-anchor="start" x="98.11" y="-918.25" font-family="Helvetica,sans-Serif" font-size="10.00"> $input, OutputInterface</text>
<text text-anchor="start" x="98.11" y="-907" font-family="Helvetica,sans-Serif" font-size="10.00"> $output)</text>
<text text-anchor="start" x="88.11" y="-892.5" font-family="Helvetica,sans-Serif" font-size="10.00">+</text>
<text text-anchor="start" x="98.11" y="-892.5" font-family="Helvetica,sans-Serif" font-size="10.00">complete(CompletionInput</text>
<text text-anchor="start" x="98.11" y="-881.25" font-family="Helvetica,sans-Serif" font-size="10.00"> $input, CompletionSuggestions</text>
<text text-anchor="start" x="98.11" y="-870" font-family="Helvetica,sans-Serif" font-size="10.00"> $suggestions)</text>
<text text-anchor="start" x="88.11" y="-855.5" font-family="Helvetica,sans-Serif" font-size="10.00">+</text>
<text text-anchor="start" x="98.11" y="-855.5" font-family="Helvetica,sans-Serif" font-size="10.00">setCode(callable </text>
<text text-anchor="start" x="98.11" y="-844.25" font-family="Helvetica,sans-Serif" font-size="10.00">$code)</text>
<text text-anchor="start" x="98.11" y="-829.5" font-family="Helvetica,sans-Serif" font-size="10.00">et 22 de plus...</text>
<text text-anchor="start" x="88.11" y="-814.5" font-family="Helvetica,sans-Serif" font-size="10.00">+</text>
<text text-anchor="start" x="98.11" y="-814.5" font-family="Helvetica,sans-Serif" font-size="10.00">static getDefaultName()</text>
<text text-anchor="start" x="88.11" y="-799.5" font-family="Helvetica,sans-Serif" font-size="10.00">+</text>
<text text-anchor="start" x="98.11" y="-799.5" font-family="Helvetica,sans-Serif" font-size="10.00">static getDefaultDescription()</text>
<text text-anchor="start" x="88.48" y="-784.5" font-family="Helvetica,sans-Serif" font-size="10.00">#</text>
<text text-anchor="start" x="98.11" y="-784.5" font-family="Helvetica,sans-Serif" font-size="10.00">configure()</text>
<text text-anchor="start" x="88.48" y="-769.5" font-family="Helvetica,sans-Serif" font-size="10.00">#</text>
<text text-anchor="start" x="98.11" y="-769.5" font-family="Helvetica,sans-Serif" font-size="10.00">execute(InputInterface</text>
<text text-anchor="start" x="98.11" y="-758.25" font-family="Helvetica,sans-Serif" font-size="10.00"> $input, OutputInterface</text>
<text text-anchor="start" x="98.11" y="-747" font-family="Helvetica,sans-Serif" font-size="10.00"> $output)</text>
<text text-anchor="start" x="88.48" y="-732.5" font-family="Helvetica,sans-Serif" font-size="10.00">#</text>
<text text-anchor="start" x="98.11" y="-732.5" font-family="Helvetica,sans-Serif" font-size="10.00">interact(InputInterface</text>
<text text-anchor="start" x="98.11" y="-721.25" font-family="Helvetica,sans-Serif" font-size="10.00"> $input, OutputInterface</text>
<text text-anchor="start" x="98.11" y="-710" font-family="Helvetica,sans-Serif" font-size="10.00"> $output)</text>
<text text-anchor="start" x="88.48" y="-695.5" font-family="Helvetica,sans-Serif" font-size="10.00">#</text>
<text text-anchor="start" x="98.11" y="-695.5" font-family="Helvetica,sans-Serif" font-size="10.00">initialize(InputInterface</text>
<text text-anchor="start" x="98.11" y="-684.25" font-family="Helvetica,sans-Serif" font-size="10.00"> $input, OutputInterface</text>
<text text-anchor="start" x="98.11" y="-673" font-family="Helvetica,sans-Serif" font-size="10.00"> $output)</text>
<polygon fill="#666666" stroke="#666666" points="84.11,-1094 84.11,-1094 240.11,-1094 240.11,-1094 84.11,-1094"/>
<polygon fill="#666666" stroke="#666666" points="84.11,-1079 84.11,-1079 240.11,-1079 240.11,-1079 84.11,-1079"/>
<polygon fill="none" stroke="#666666" points="84.11,-668 84.11,-1111 240.11,-1111 240.11,-668 84.11,-668"/>
</a>
</g>
</g>
<!-- Node3&#45;&gt;Node2 -->
<g id="edge16_Node000002_Node000003" class="edge">
<title>Node3&#45;&gt;Node2</title>
<g id="a_edge16_Node000002_Node000003"><a xlink:title=" ">
<path fill="none" stroke="#63b8ff" d="M206.28,-656.74C206.57,-654.48 206.84,-652.24 207.11,-650 209.55,-629.55 211.56,-608.2 213.22,-586.82"/>
<polygon fill="none" stroke="#63b8ff" points="202.82,-656.22 205,-666.58 209.76,-657.12 202.82,-656.22"/>
</a>
</g>
</g>
<!-- Node4 -->
<g id="Node000004" class="node">
<title>Node4</title>
<g id="a_Node000004"><a xlink:title=" ">
<polygon fill="white" stroke="none" points="87.11,-1229.75 53.11,-1229.75 53.11,-1180.75 87.11,-1180.75 87.11,-1229.75"/>
<text text-anchor="start" x="58.11" y="-1216.25" font-family="Helvetica,sans-Serif" font-size="10.00">const</text>
<text text-anchor="start" x="68.61" y="-1201.25" font-family="Helvetica,sans-Serif" font-size="10.00"> </text>
<text text-anchor="start" x="68.61" y="-1186.25" font-family="Helvetica,sans-Serif" font-size="10.00"> </text>
<polygon fill="#666666" stroke="#666666" points="53.11,-1212.75 53.11,-1212.75 87.11,-1212.75 87.11,-1212.75 53.11,-1212.75"/>
<polygon fill="#666666" stroke="#666666" points="53.11,-1197.75 53.11,-1197.75 87.11,-1197.75 87.11,-1197.75 53.11,-1197.75"/>
<polygon fill="none" stroke="#666666" points="53.11,-1180.75 53.11,-1229.75 87.11,-1229.75 87.11,-1180.75 53.11,-1180.75"/>
</a>
</g>
</g>
<!-- Node4&#45;&gt;Node1 -->
<g id="edge21_Node000001_Node000004" class="edge">
<title>Node4&#45;&gt;Node1</title>
<g id="a_edge21_Node000001_Node000004"><a xlink:title=" ">
<path fill="none" stroke="#63b8ff" d="M63.99,-1181.05C34.27,-1063.25 -85.85,-522.75 109.11,-160 118.22,-143.05 131.54,-127.69 145.84,-114.44"/>
<polygon fill="none" stroke="#63b8ff" points="145.68,-114.59 147.53,-107.62 154.67,-106.64 152.82,-113.61 145.68,-114.59"/>
</a>
</g>
<text text-anchor="start" x="2.11" y="-640.5" font-family="Helvetica,sans-Serif" font-size="10.00" fill="grey"> +ERROR_TABLE_MIGRATION</text>
<text text-anchor="middle" x="78.61" y="-629.25" font-family="Helvetica,sans-Serif" font-size="10.00" fill="grey">_FAILED</text>
<text text-anchor="start" x="2.11" y="-618" font-family="Helvetica,sans-Serif" font-size="10.00" fill="grey">+ERROR_UNABLE_TO_UPDATE</text>
<text text-anchor="middle" x="78.61" y="-606.75" font-family="Helvetica,sans-Serif" font-size="10.00" fill="grey">_CONFIG</text>
</g>
<!-- Node4&#45;&gt;Node3 -->
<g id="edge17_Node000003_Node000004" class="edge">
<title>Node4&#45;&gt;Node3</title>
<g id="a_edge17_Node000003_Node000004"><a xlink:title=" ">
<path fill="none" stroke="#63b8ff" d="M76.95,-1180.92C81.19,-1166.47 87.1,-1146.29 93.87,-1123.23"/>
<polygon fill="none" stroke="#63b8ff" points="93.84,-1123.31 91.69,-1116.42 97.22,-1111.79 99.37,-1118.67 93.84,-1123.31"/>
</a>
</g>
<text text-anchor="middle" x="117.86" y="-1153.25" font-family="Helvetica,sans-Serif" font-size="10.00" fill="grey"> +FAILURE</text>
<text text-anchor="middle" x="117.86" y="-1142" font-family="Helvetica,sans-Serif" font-size="10.00" fill="grey">+INVALID</text>
<text text-anchor="middle" x="117.86" y="-1130.75" font-family="Helvetica,sans-Serif" font-size="10.00" fill="grey">+SUCCESS</text>
</g>
<!-- Node5 -->
<g id="Node000005" class="node">
<title>Node5</title>
<g id="a_Node000005"><a xlink:title=" ">
<polygon fill="white" stroke="none" points="182.11,-1229.75 148.11,-1229.75 148.11,-1180.75 182.11,-1180.75 182.11,-1229.75"/>
<text text-anchor="start" x="153.11" y="-1216.25" font-family="Helvetica,sans-Serif" font-size="10.00">static</text>
<text text-anchor="start" x="163.61" y="-1201.25" font-family="Helvetica,sans-Serif" font-size="10.00"> </text>
<text text-anchor="start" x="163.61" y="-1186.25" font-family="Helvetica,sans-Serif" font-size="10.00"> </text>
<polygon fill="#666666" stroke="#666666" points="148.11,-1212.75 148.11,-1212.75 182.11,-1212.75 182.11,-1212.75 148.11,-1212.75"/>
<polygon fill="#666666" stroke="#666666" points="148.11,-1197.75 148.11,-1197.75 182.11,-1197.75 182.11,-1197.75 148.11,-1197.75"/>
<polygon fill="none" stroke="#666666" points="148.11,-1180.75 148.11,-1229.75 182.11,-1229.75 182.11,-1180.75 148.11,-1180.75"/>
</a>
</g>
</g>
<!-- Node5&#45;&gt;Node3 -->
<g id="edge18_Node000003_Node000005" class="edge">
<title>Node5&#45;&gt;Node3</title>
<g id="a_edge18_Node000003_Node000005"><a xlink:title=" ">
<path fill="none" stroke="#63b8ff" d="M164.89,-1180.92C164.75,-1166.6 164.56,-1146.66 164.34,-1123.87"/>
<polygon fill="none" stroke="#63b8ff" points="164.34,-1123.83 160.28,-1117.87 164.23,-1111.83 168.28,-1117.79 164.34,-1123.83"/>
</a>
</g>
<text text-anchor="middle" x="211.23" y="-1147.62" font-family="Helvetica,sans-Serif" font-size="10.00" fill="grey"> #$defaultDescription</text>
<text text-anchor="middle" x="211.23" y="-1136.38" font-family="Helvetica,sans-Serif" font-size="10.00" fill="grey">#$defaultName</text>
</g>
<!-- Node6 -->
<g id="Node000006" class="node">
<title>Node6</title>
<g id="a_Node000006"><a xlink:href="$interface_glpi_1_1_console_1_1_command_1_1_glpi_command_interface.html" xlink:title=" ">
<polygon fill="white" stroke="none" points="438.11,-921.5 258.11,-921.5 258.11,-857.5 438.11,-857.5 438.11,-921.5"/>
<text text-anchor="start" x="297.86" y="-908" font-family="Helvetica,sans-Serif" font-size="10.00">GlpiCommandInterface</text>
<text text-anchor="start" x="346.61" y="-893" font-family="Helvetica,sans-Serif" font-size="10.00"> </text>
<text text-anchor="start" x="262.11" y="-878" font-family="Helvetica,sans-Serif" font-size="10.00">+</text>
<text text-anchor="start" x="272.11" y="-878" font-family="Helvetica,sans-Serif" font-size="10.00">mustCheckMandatoryRequirements()</text>
<text text-anchor="start" x="262.11" y="-863" font-family="Helvetica,sans-Serif" font-size="10.00">+</text>
<text text-anchor="start" x="272.11" y="-863" font-family="Helvetica,sans-Serif" font-size="10.00">requiresUpToDateDb()</text>
<polygon fill="#666666" stroke="#666666" points="258.11,-904.5 258.11,-904.5 438.11,-904.5 438.11,-904.5 258.11,-904.5"/>
<polygon fill="#666666" stroke="#666666" points="258.11,-889.5 258.11,-889.5 438.11,-889.5 438.11,-889.5 258.11,-889.5"/>
<polygon fill="none" stroke="#666666" points="258.11,-857.5 258.11,-921.5 438.11,-921.5 438.11,-857.5 258.11,-857.5"/>
</a>
</g>
</g>
<!-- Node6&#45;&gt;Node2 -->
<g id="edge19_Node000002_Node000006" class="edge">
<title>Node6&#45;&gt;Node2</title>
<g id="a_edge19_Node000002_Node000006"><a xlink:title=" ">
<path fill="none" stroke="#63b8ff" d="M337.72,-846.45C323.65,-789.51 297.54,-683.85 273.59,-586.91"/>
<polygon fill="none" stroke="#63b8ff" points="334.29,-847.17 340.09,-856.04 341.09,-845.49 334.29,-847.17"/>
</a>
</g>
</g>
<!-- Node7 -->
<g id="Node000007" class="node">
<title>Node7</title>
<g id="a_Node000007"><a xlink:href="$interface_glpi_1_1_console_1_1_command_1_1_configuration_command_interface.html" xlink:title=" ">
<polygon fill="white" stroke="none" points="493.61,-409 342.61,-409 342.61,-338 493.61,-338 493.61,-409"/>
<text text-anchor="start" x="347.61" y="-395.5" font-family="Helvetica,sans-Serif" font-size="10.00">ConfigurationCommandInterface</text>
<text text-anchor="start" x="416.61" y="-380.5" font-family="Helvetica,sans-Serif" font-size="10.00"> </text>
<text text-anchor="start" x="354.11" y="-365.5" font-family="Helvetica,sans-Serif" font-size="10.00">+</text>
<text text-anchor="start" x="371.61" y="-365.5" font-family="Helvetica,sans-Serif" font-size="10.00">getConfigurationFilesTo</text>
<text text-anchor="start" x="371.61" y="-354.25" font-family="Helvetica,sans-Serif" font-size="10.00">Update(InputInterface</text>
<text text-anchor="start" x="371.61" y="-343" font-family="Helvetica,sans-Serif" font-size="10.00"> $input)</text>
<polygon fill="#666666" stroke="#666666" points="342.61,-392 342.61,-392 493.61,-392 493.61,-392 342.61,-392"/>
<polygon fill="#666666" stroke="#666666" points="342.61,-377 342.61,-377 493.61,-377 493.61,-377 342.61,-377"/>
<polygon fill="none" stroke="#666666" points="342.61,-338 342.61,-409 493.61,-409 493.61,-338 342.61,-338"/>
</a>
</g>
</g>
<!-- Node7&#45;&gt;Node1 -->
<g id="edge20_Node000001_Node000007" class="edge">
<title>Node7&#45;&gt;Node1</title>
<g id="a_edge20_Node000001_Node000007"><a xlink:title=" ">
<path fill="none" stroke="#63b8ff" d="M406.73,-327.08C393.9,-281.84 369.91,-211.82 333.11,-160 320.35,-142.03 303.62,-125.19 286.99,-110.72"/>
<polygon fill="none" stroke="#63b8ff" points="403.31,-327.86 409.35,-336.57 410.06,-326 403.31,-327.86"/>
</a>
</g>
</g>
</g>
</svg>
