<?xml version="1.0" encoding="UTF-8" standalone="no"?>
<!DOCTYPE svg PUBLIC "-//W3C//DTD SVG 1.1//EN"
 "http://www.w3.org/Graphics/SVG/1.1/DTD/svg11.dtd">
<!-- Generated by graphviz version 10.0.1 (20240210.2158)
 -->
<!-- Title: msgHTML Pages: 1 -->
<svg width="540pt" height="254pt"
 viewBox="0.00 0.00 540.25 253.69" xmlns="http://www.w3.org/2000/svg" xmlns:xlink="http://www.w3.org/1999/xlink">
<g id="graph0" class="graph" transform="scale(1 1) rotate(0) translate(4 249.69)">
<title>msgHTML</title>
<!-- Node1 -->
<g id="Node000001" class="node">
<title>Node1</title>
<g id="a_Node000001"><a xlink:title=" ">
<polygon fill="#999999" stroke="#666666" points="61.75,-111.25 0,-111.25 0,-92 61.75,-92 61.75,-111.25"/>
<text text-anchor="middle" x="30.88" y="-97.75" font-family="Helvetica,sans-Serif" font-size="10.00">msgHTML</text>
</a>
</g>
</g>
<!-- Node2 -->
<g id="Node000002" class="node">
<title>Node2</title>
<g id="a_Node000002"><a xlink:href="$class_p_h_p_mailer_1_1_p_h_p_mailer_1_1_p_h_p_mailer.html#ab9dec7369dc3dcc3c07176791a29d9e6" xlink:title=" ">
<polygon fill="white" stroke="#666666" points="215.75,-167.25 110.5,-167.25 110.5,-148 215.75,-148 215.75,-167.25"/>
<text text-anchor="middle" x="163.12" y="-153.75" font-family="Helvetica,sans-Serif" font-size="10.00">addEmbeddedImage</text>
</a>
</g>
</g>
<!-- Node1&#45;&gt;Node2 -->
<g id="edge33_Node000001_Node000002" class="edge">
<title>Node1&#45;&gt;Node2</title>
<g id="a_edge33_Node000001_Node000002"><a xlink:title=" ">
<path fill="none" stroke="#63b8ff" d="M46.75,-111.66C59.75,-120.07 79.37,-131.9 97.75,-139.62 101.5,-141.2 105.43,-142.68 109.42,-144.07"/>
<polygon fill="#63b8ff" stroke="#63b8ff" points="108.02,-147.29 118.61,-147.04 110.17,-140.63 108.02,-147.29"/>
</a>
</g>
</g>
<!-- Node8 -->
<g id="Node000008" class="node">
<title>Node8</title>
<g id="a_Node000008"><a xlink:href="$class_p_h_p_mailer_1_1_p_h_p_mailer_1_1_p_h_p_mailer.html#a76727996084c05414125df4bbce90b05" xlink:title=" ">
<polygon fill="white" stroke="#666666" points="228.5,-204.25 97.75,-204.25 97.75,-185 228.5,-185 228.5,-204.25"/>
<text text-anchor="middle" x="163.12" y="-190.75" font-family="Helvetica,sans-Serif" font-size="10.00">addStringEmbeddedImage</text>
</a>
</g>
</g>
<!-- Node1&#45;&gt;Node8 -->
<g id="edge40_Node000001_Node000008" class="edge">
<title>Node1&#45;&gt;Node8</title>
<g id="a_edge40_Node000001_Node000008"><a xlink:title=" ">
<path fill="none" stroke="#63b8ff" d="M37.84,-111.53C48.05,-127.65 70.46,-159.47 97.75,-176.62 99.63,-177.81 101.59,-178.91 103.6,-179.95"/>
<polygon fill="#63b8ff" stroke="#63b8ff" points="102.09,-183.1 112.65,-183.93 104.91,-176.7 102.09,-183.1"/>
</a>
</g>
</g>
<!-- Node9 -->
<g id="Node000009" class="node">
<title>Node9</title>
<g id="a_Node000009"><a xlink:href="$class_p_h_p_mailer_1_1_p_h_p_mailer_1_1_p_h_p_mailer.html#ab4ce4785ba565c296f04d1e309c4a138" xlink:title=" ">
<polygon fill="white" stroke="#666666" points="207.5,-130.25 118.75,-130.25 118.75,-111 207.5,-111 207.5,-130.25"/>
<text text-anchor="middle" x="163.12" y="-116.75" font-family="Helvetica,sans-Serif" font-size="10.00">alternativeExists</text>
</a>
</g>
</g>
<!-- Node1&#45;&gt;Node9 -->
<g id="edge45_Node000001_Node000009" class="edge">
<title>Node1&#45;&gt;Node9</title>
<g id="a_edge45_Node000001_Node000009"><a xlink:title=" ">
<path fill="none" stroke="#63b8ff" d="M62.08,-106.03C75.51,-107.99 91.74,-110.36 107.2,-112.61"/>
<polygon fill="#63b8ff" stroke="#63b8ff" points="106.36,-116.03 116.76,-114.01 107.37,-109.1 106.36,-116.03"/>
</a>
</g>
</g>
<!-- Node10 -->
<g id="Node000010" class="node">
<title>Node10</title>
<g id="a_Node000010"><a xlink:href="$class_p_h_p_mailer_1_1_p_h_p_mailer_1_1_p_h_p_mailer.html#adb31e51e44cf5e92bca4f44eb9101dde" xlink:title=" ">
<polygon fill="white" stroke="#666666" points="191.38,-93.25 134.88,-93.25 134.88,-74 191.38,-74 191.38,-93.25"/>
<text text-anchor="middle" x="163.12" y="-79.75" font-family="Helvetica,sans-Serif" font-size="10.00">cidExists</text>
</a>
</g>
</g>
<!-- Node1&#45;&gt;Node10 -->
<g id="edge46_Node000001_Node000010" class="edge">
<title>Node1&#45;&gt;Node10</title>
<g id="a_edge46_Node000001_Node000010"><a xlink:title=" ">
<path fill="none" stroke="#63b8ff" d="M62.08,-97.45C80.34,-94.93 103.8,-91.69 123.41,-88.98"/>
<polygon fill="#63b8ff" stroke="#63b8ff" points="123.81,-92.45 133.24,-87.62 122.86,-85.52 123.81,-92.45"/>
</a>
</g>
</g>
<!-- Node11 -->
<g id="Node000011" class="node">
<title>Node11</title>
<g id="a_Node000011"><a xlink:href="$class_p_h_p_mailer_1_1_p_h_p_mailer_1_1_p_h_p_mailer.html#adcc957bbfc73453cc7f04e412603989d" xlink:title=" ">
<polygon fill="white" stroke="#666666" points="191.38,-56.25 134.88,-56.25 134.88,-37 191.38,-37 191.38,-56.25"/>
<text text-anchor="middle" x="163.12" y="-42.75" font-family="Helvetica,sans-Serif" font-size="10.00">html2text</text>
</a>
</g>
</g>
<!-- Node1&#45;&gt;Node11 -->
<g id="edge47_Node000001_Node000011" class="edge">
<title>Node1&#45;&gt;Node11</title>
<g id="a_edge47_Node000001_Node000011"><a xlink:title=" ">
<path fill="none" stroke="#63b8ff" d="M47.31,-91.55C60.34,-83.4 79.69,-72.1 97.75,-64.62 105.88,-61.26 114.83,-58.31 123.42,-55.83"/>
<polygon fill="#63b8ff" stroke="#63b8ff" points="124.2,-59.24 132.93,-53.23 122.36,-52.49 124.2,-59.24"/>
</a>
</g>
</g>
<!-- Node12 -->
<g id="Node000012" class="node">
<title>Node12</title>
<g id="a_Node000012"><a xlink:href="$class_p_h_p_mailer_1_1_p_h_p_mailer_1_1_p_h_p_mailer.html#af811636f1958d3a406ebf82e455c1f7a" xlink:title=" ">
<polygon fill="white" stroke="#666666" points="188.38,-19.25 137.88,-19.25 137.88,0 188.38,0 188.38,-19.25"/>
<text text-anchor="middle" x="163.12" y="-5.75" font-family="Helvetica,sans-Serif" font-size="10.00">isHTML</text>
</a>
</g>
</g>
<!-- Node1&#45;&gt;Node12 -->
<g id="edge48_Node000001_Node000012" class="edge">
<title>Node1&#45;&gt;Node12</title>
<g id="a_edge48_Node000001_Node000012"><a xlink:title=" ">
<path fill="none" stroke="#63b8ff" d="M38.04,-91.59C48.38,-75.62 70.76,-44.47 97.75,-27.62 106.38,-22.24 116.65,-18.43 126.43,-15.75"/>
<polygon fill="#63b8ff" stroke="#63b8ff" points="127.16,-19.17 136.08,-13.45 125.54,-12.36 127.16,-19.17"/>
</a>
</g>
</g>
<!-- Node3 -->
<g id="Node000003" class="node">
<title>Node3</title>
<g id="a_Node000003"><a xlink:href="$class_p_h_p_mailer_1_1_p_h_p_mailer_1_1_p_h_p_mailer.html#a57893521a989230a020d8862a3bf751e" xlink:title=" ">
<polygon fill="white" stroke="#666666" points="333.38,-186.25 285.88,-186.25 285.88,-167 333.38,-167 333.38,-186.25"/>
<text text-anchor="middle" x="309.62" y="-172.75" font-family="Helvetica,sans-Serif" font-size="10.00">edebug</text>
</a>
</g>
</g>
<!-- Node2&#45;&gt;Node3 -->
<g id="edge34_Node000002_Node000003" class="edge">
<title>Node2&#45;&gt;Node3</title>
<g id="a_edge34_Node000002_Node000003"><a xlink:title=" ">
<path fill="none" stroke="#63b8ff" d="M215.88,-164.43C235.23,-166.97 256.71,-169.8 274.12,-172.09"/>
<polygon fill="#63b8ff" stroke="#63b8ff" points="273.58,-175.55 283.95,-173.38 274.49,-168.61 273.58,-175.55"/>
</a>
</g>
</g>
<!-- Node4 -->
<g id="Node000004" class="node">
<title>Node4</title>
<g id="a_Node000004"><a xlink:href="$class_p_h_p_mailer_1_1_p_h_p_mailer_1_1_p_h_p_mailer.html#a702ec4df6918a529cf123d1d09f608b7" xlink:title=" ">
<polygon fill="white" stroke="#666666" points="424.75,-149.25 390.75,-149.25 390.75,-130 424.75,-130 424.75,-149.25"/>
<text text-anchor="middle" x="407.75" y="-135.75" font-family="Helvetica,sans-Serif" font-size="10.00">lang</text>
</a>
</g>
</g>
<!-- Node2&#45;&gt;Node4 -->
<g id="edge35_Node000002_Node000004" class="edge">
<title>Node2&#45;&gt;Node4</title>
<g id="a_edge35_Node000002_Node000004"><a xlink:title=" ">
<path fill="none" stroke="#63b8ff" d="M205.08,-147.59C212.96,-145.26 221.06,-142.59 228.5,-139.62 245.31,-132.93 246.94,-124.97 264.5,-120.62 303.43,-110.98 315.25,-113.64 354.75,-120.62 363.11,-122.1 371.9,-124.83 379.82,-127.76"/>
<polygon fill="#63b8ff" stroke="#63b8ff" points="378.31,-130.92 388.89,-131.37 380.9,-124.42 378.31,-130.92"/>
</a>
</g>
</g>
<!-- Node6 -->
<g id="Node000006" class="node">
<title>Node6</title>
<g id="a_Node000006"><a xlink:href="$class_p_h_p_mailer_1_1_p_h_p_mailer_1_1_p_h_p_mailer.html#a9b84595d8561a0abd81c0b83b6238472" xlink:title=" ">
<polygon fill="white" stroke="#666666" points="334.88,-149.25 284.38,-149.25 284.38,-130 334.88,-130 334.88,-149.25"/>
<text text-anchor="middle" x="309.62" y="-135.75" font-family="Helvetica,sans-Serif" font-size="10.00">setError</text>
</a>
</g>
</g>
<!-- Node2&#45;&gt;Node6 -->
<g id="edge37_Node000002_Node000006" class="edge">
<title>Node2&#45;&gt;Node6</title>
<g id="a_edge37_Node000002_Node000006"><a xlink:title=" ">
<path fill="none" stroke="#63b8ff" d="M215.88,-151.18C234.7,-148.83 255.54,-146.24 272.69,-144.1"/>
<polygon fill="#63b8ff" stroke="#63b8ff" points="272.91,-147.6 282.4,-142.89 272.05,-140.65 272.91,-147.6"/>
</a>
</g>
</g>
<!-- Node7 -->
<g id="Node000007" class="node">
<title>Node7</title>
<g id="a_Node000007"><a xlink:href="$class_p_h_p_mailer_1_1_p_h_p_mailer_1_1_p_h_p_mailer.html#a7d4f6ab887b42e0771520d43468430ed" xlink:title=" ">
<polygon fill="white" stroke="#666666" points="354.75,-223.25 264.5,-223.25 264.5,-204 354.75,-204 354.75,-223.25"/>
<text text-anchor="middle" x="309.62" y="-209.75" font-family="Helvetica,sans-Serif" font-size="10.00">validateEncoding</text>
</a>
</g>
</g>
<!-- Node2&#45;&gt;Node7 -->
<g id="edge39_Node000002_Node000007" class="edge">
<title>Node2&#45;&gt;Node7</title>
<g id="a_edge39_Node000002_Node000007"><a xlink:title=" ">
<path fill="none" stroke="#63b8ff" d="M205.82,-167.74C213.47,-170.03 221.31,-172.67 228.5,-175.62 245.43,-182.58 248,-187.71 264.5,-195.62 267.05,-196.85 269.7,-198.06 272.38,-199.25"/>
<polygon fill="#63b8ff" stroke="#63b8ff" points="270.77,-202.37 281.34,-203.07 273.52,-195.93 270.77,-202.37"/>
</a>
</g>
</g>
<!-- Node5 -->
<g id="Node000005" class="node">
<title>Node5</title>
<g id="a_Node000005"><a xlink:href="$class_p_h_p_mailer_1_1_p_h_p_mailer_1_1_p_h_p_mailer.html#aaf95e152019d45c4721612c4a08dbcd9" xlink:title=" ">
<polygon fill="white" stroke="#666666" points="532.25,-149.25 460.75,-149.25 460.75,-130 532.25,-130 532.25,-149.25"/>
<text text-anchor="middle" x="496.5" y="-135.75" font-family="Helvetica,sans-Serif" font-size="10.00">setLanguage</text>
</a>
</g>
</g>
<!-- Node4&#45;&gt;Node5 -->
<g id="edge36_Node000004_Node000005" class="edge">
<title>Node4&#45;&gt;Node5</title>
<g id="a_edge36_Node000004_Node000005"><a xlink:title=" ">
<path fill="none" stroke="#63b8ff" d="M425.07,-139.62C432.03,-139.62 440.54,-139.62 449.21,-139.62"/>
<polygon fill="#63b8ff" stroke="#63b8ff" points="449.06,-143.13 459.06,-139.63 449.06,-136.13 449.06,-143.13"/>
</a>
</g>
</g>
<!-- Node6&#45;&gt;Node4 -->
<g id="edge38_Node000006_Node000004" class="edge">
<title>Node6&#45;&gt;Node4</title>
<g id="a_edge38_Node000006_Node000004"><a xlink:title=" ">
<path fill="none" stroke="#63b8ff" d="M335.13,-139.62C348.55,-139.62 365.23,-139.62 379.12,-139.62"/>
<polygon fill="#63b8ff" stroke="#63b8ff" points="378.93,-143.13 388.93,-139.63 378.93,-136.13 378.93,-143.13"/>
</a>
</g>
</g>
<!-- Node8&#45;&gt;Node3 -->
<g id="edge41_Node000008_Node000003" class="edge">
<title>Node8&#45;&gt;Node3</title>
<g id="a_edge41_Node000008_Node000003"><a xlink:title=" ">
<path fill="none" stroke="#63b8ff" d="M228.77,-186.57C244.46,-184.62 260.64,-182.6 274.29,-180.9"/>
<polygon fill="#63b8ff" stroke="#63b8ff" points="274.57,-184.39 284.06,-179.68 273.71,-177.45 274.57,-184.39"/>
</a>
</g>
</g>
<!-- Node8&#45;&gt;Node4 -->
<g id="edge42_Node000008_Node000004" class="edge">
<title>Node8&#45;&gt;Node4</title>
<g id="a_edge42_Node000008_Node000004"><a xlink:title=" ">
<path fill="none" stroke="#63b8ff" d="M179.91,-204.64C214.18,-225 296.97,-266.52 354.75,-232.62 381.14,-217.15 395.13,-182.86 401.73,-160.52"/>
<polygon fill="#63b8ff" stroke="#63b8ff" points="405.08,-161.56 404.28,-151 398.32,-159.75 405.08,-161.56"/>
</a>
</g>
</g>
<!-- Node8&#45;&gt;Node6 -->
<g id="edge43_Node000008_Node000006" class="edge">
<title>Node8&#45;&gt;Node6</title>
<g id="a_edge43_Node000008_Node000006"><a xlink:title=" ">
<path fill="none" stroke="#63b8ff" d="M205.08,-184.59C212.96,-182.26 221.06,-179.59 228.5,-176.62 245.31,-169.93 248.1,-165.27 264.5,-157.62 267.45,-156.25 270.54,-154.87 273.65,-153.52"/>
<polygon fill="#63b8ff" stroke="#63b8ff" points="274.9,-156.79 282.77,-149.69 272.19,-150.34 274.9,-156.79"/>
</a>
</g>
</g>
<!-- Node8&#45;&gt;Node7 -->
<g id="edge44_Node000008_Node000007" class="edge">
<title>Node8&#45;&gt;Node7</title>
<g id="a_edge44_Node000008_Node000007"><a xlink:title=" ">
<path fill="none" stroke="#63b8ff" d="M228.77,-203.12C236.85,-204.19 245.05,-205.27 252.98,-206.31"/>
<polygon fill="#63b8ff" stroke="#63b8ff" points="252.47,-209.77 262.84,-207.6 253.38,-202.83 252.47,-209.77"/>
</a>
</g>
</g>
</g>
</svg>
