<?xml version="1.0" encoding="UTF-8" standalone="no"?>
<!DOCTYPE svg PUBLIC "-//W3C//DTD SVG 1.1//EN"
 "http://www.w3.org/Graphics/SVG/1.1/DTD/svg11.dtd">
<!-- Generated by graphviz version 10.0.1 (20240210.2158)
 -->
<!-- Title: getJsonValue Pages: 1 -->
<svg width="428pt" height="88pt"
 viewBox="0.00 0.00 428.00 87.50" xmlns="http://www.w3.org/2000/svg" xmlns:xlink="http://www.w3.org/1999/xlink">
<g id="graph0" class="graph" transform="scale(1 1) rotate(0) translate(4 83.5)">
<title>getJsonValue</title>
<!-- Node1 -->
<g id="Node000001" class="node">
<title>Node1</title>
<g id="a_Node000001"><a xlink:title=" ">
<polygon fill="#999999" stroke="#666666" points="74.5,-48.88 0,-48.88 0,-29.62 74.5,-29.62 74.5,-48.88"/>
<text text-anchor="middle" x="37.25" y="-35.38" font-family="Helvetica,sans-Serif" font-size="10.00">getJsonValue</text>
</a>
</g>
</g>
<!-- Node2 -->
<g id="Node000002" class="node">
<title>Node2</title>
<g id="a_Node000002"><a xlink:href="$class_sabre_1_1_v_object_1_1_property.html#ac0bc18784b182c89fcfd276625aef435" xlink:title=" ">
<polygon fill="white" stroke="#666666" points="247.25,-79.5 127.75,-79.5 127.75,-49 247.25,-49 247.25,-79.5"/>
<text text-anchor="start" x="135.75" y="-66" font-family="Helvetica,sans-Serif" font-size="10.00">Sabre\VObject\Property</text>
<text text-anchor="middle" x="187.5" y="-54.75" font-family="Helvetica,sans-Serif" font-size="10.00">\getValue</text>
</a>
</g>
</g>
<!-- Node1&#45;&gt;Node2 -->
<g id="edge7_Node000001_Node000002" class="edge">
<title>Node1&#45;&gt;Node2</title>
<g id="a_edge7_Node000001_Node000002"><a xlink:title=" ">
<path fill="none" stroke="#63b8ff" d="M74.9,-45.43C87.54,-47.56 102.15,-50.03 116.55,-52.45"/>
<polygon fill="#63b8ff" stroke="#63b8ff" points="115.55,-55.84 126,-54.05 116.72,-48.93 115.55,-55.84"/>
</a>
</g>
</g>
<!-- Node4 -->
<g id="Node000004" class="node">
<title>Node4</title>
<g id="a_Node000004"><a xlink:href="$class_sabre_1_1_v_object_1_1_date_time_parser.html#a140661b128e70351452850e9b622ce4b" xlink:title=" ">
<polygon fill="white" stroke="#666666" points="264.5,-30.5 110.5,-30.5 110.5,0 264.5,0 264.5,-30.5"/>
<text text-anchor="start" x="118.5" y="-17" font-family="Helvetica,sans-Serif" font-size="10.00">Sabre\VObject\DateTimeParser</text>
<text text-anchor="middle" x="187.5" y="-5.75" font-family="Helvetica,sans-Serif" font-size="10.00">\parseVCardTime</text>
</a>
</g>
</g>
<!-- Node1&#45;&gt;Node4 -->
<g id="edge9_Node000001_Node000004" class="edge">
<title>Node1&#45;&gt;Node4</title>
<g id="a_edge9_Node000001_Node000004"><a xlink:title=" ">
<path fill="none" stroke="#63b8ff" d="M74.9,-33.32C82.41,-32.1 90.62,-30.77 99.06,-29.4"/>
<polygon fill="#63b8ff" stroke="#63b8ff" points="99.46,-32.89 108.77,-27.83 98.34,-25.98 99.46,-32.89"/>
</a>
</g>
</g>
<!-- Node3 -->
<g id="Node000003" class="node">
<title>Node3</title>
<g id="a_Node000003"><a xlink:href="$class_sabre_1_1_v_object_1_1_property.html#a0ef96c4cf288c28e523fc70a51af00d9" xlink:title=" ">
<polygon fill="white" stroke="#666666" points="420,-79.5 300.5,-79.5 300.5,-49 420,-49 420,-79.5"/>
<text text-anchor="start" x="308.5" y="-66" font-family="Helvetica,sans-Serif" font-size="10.00">Sabre\VObject\Property</text>
<text text-anchor="middle" x="360.25" y="-54.75" font-family="Helvetica,sans-Serif" font-size="10.00">\getRawMimeDirValue</text>
</a>
</g>
</g>
<!-- Node2&#45;&gt;Node3 -->
<g id="edge8_Node000002_Node000003" class="edge">
<title>Node2&#45;&gt;Node3</title>
<g id="a_edge8_Node000002_Node000003"><a xlink:title=" ">
<path fill="none" stroke="#63b8ff" d="M247.74,-64.25C260.99,-64.25 275.16,-64.25 288.81,-64.25"/>
<polygon fill="#63b8ff" stroke="#63b8ff" points="288.6,-67.75 298.6,-64.25 288.6,-60.75 288.6,-67.75"/>
</a>
</g>
</g>
</g>
</svg>
