<?xml version="1.0" encoding="UTF-8" standalone="no"?>
<!DOCTYPE svg PUBLIC "-//W3C//DTD SVG 1.1//EN"
 "http://www.w3.org/Graphics/SVG/1.1/DTD/svg11.dtd">
<!-- Generated by graphviz version 10.0.1 (20240210.2158)
 -->
<!-- Title: unit Pages: 1 -->
<svg width="589pt" height="264pt"
 viewBox="0.00 0.00 589.25 264.25" xmlns="http://www.w3.org/2000/svg" xmlns:xlink="http://www.w3.org/1999/xlink">
<g id="graph0" class="graph" transform="scale(1 1) rotate(0) translate(4 260.25)">
<title>unit</title>
<!-- Node1 -->
<g id="Node000001" class="node">
<title>Node1</title>
<g id="a_Node000001"><a xlink:title=" ">
<polygon fill="#999999" stroke="#666666" points="31.75,-56.25 0,-56.25 0,-37 31.75,-37 31.75,-56.25"/>
<text text-anchor="middle" x="15.88" y="-42.75" font-family="Helvetica,sans-Serif" font-size="10.00">unit</text>
</a>
</g>
</g>
<!-- Node2 -->
<g id="Node000002" class="node">
<title>Node2</title>
<g id="a_Node000002"><a xlink:href="$class_scss_php_1_1_scss_php_1_1_parser.html#a486fd5e6a9b7f8c57940e0808c17a9f1" xlink:title=" ">
<polygon fill="white" stroke="#666666" points="110.75,-94.25 67.75,-94.25 67.75,-75 110.75,-75 110.75,-94.25"/>
<text text-anchor="middle" x="89.25" y="-80.75" font-family="Helvetica,sans-Serif" font-size="10.00">match</text>
</a>
</g>
</g>
<!-- Node1&#45;&gt;Node2 -->
<g id="edge37_Node000001_Node000002" class="edge">
<title>Node1&#45;&gt;Node2</title>
<g id="a_edge37_Node000001_Node000002"><a xlink:title=" ">
<path fill="none" stroke="#63b8ff" d="M32.01,-54.68C39.92,-58.89 49.87,-64.19 59.2,-69.16"/>
<polygon fill="#63b8ff" stroke="#63b8ff" points="57.51,-72.22 67.98,-73.83 60.8,-66.04 57.51,-72.22"/>
</a>
</g>
</g>
<!-- Node3 -->
<g id="Node000003" class="node">
<title>Node3</title>
<g id="a_Node000003"><a xlink:href="$class_scss_php_1_1_scss_php_1_1_parser.html#a20c53f113ff646c98fc4046e932f2be8" xlink:title=" ">
<polygon fill="white" stroke="#666666" points="212.25,-93.25 146.75,-93.25 146.75,-74 212.25,-74 212.25,-93.25"/>
<text text-anchor="middle" x="179.5" y="-79.75" font-family="Helvetica,sans-Serif" font-size="10.00">whitespace</text>
</a>
</g>
</g>
<!-- Node1&#45;&gt;Node3 -->
<g id="edge54_Node000001_Node000003" class="edge">
<title>Node1&#45;&gt;Node3</title>
<g id="a_edge54_Node000001_Node000003"><a xlink:title=" ">
<path fill="none" stroke="#63b8ff" d="M32.22,-49.44C50.86,-52.92 83.22,-59.19 110.75,-65.62 118.82,-67.51 127.38,-69.67 135.61,-71.81"/>
<polygon fill="#63b8ff" stroke="#63b8ff" points="134.52,-75.15 145.08,-74.33 136.32,-68.38 134.52,-75.15"/>
</a>
</g>
</g>
<!-- Node12 -->
<g id="Node000012" class="node">
<title>Node12</title>
<g id="a_Node000012"><a xlink:href="$class_scss_php_1_1_scss_php_1_1_parser.html#a89c39f90ddcfdfb013eebc9a0921423f" xlink:title=" ">
<polygon fill="white" stroke="#666666" points="466.62,-19.25 429.62,-19.25 429.62,0 466.62,0 466.62,-19.25"/>
<text text-anchor="middle" x="448.12" y="-5.75" font-family="Helvetica,sans-Serif" font-size="10.00">seek</text>
</a>
</g>
</g>
<!-- Node1&#45;&gt;Node12 -->
<g id="edge53_Node000001_Node000012" class="edge">
<title>Node1&#45;&gt;Node12</title>
<g id="a_edge53_Node000001_Node000012"><a xlink:title=" ">
<path fill="none" stroke="#63b8ff" d="M32.19,-45.31C95.04,-39.9 333.88,-19.36 417.78,-12.15"/>
<polygon fill="#63b8ff" stroke="#63b8ff" points="418.04,-15.64 427.7,-11.3 417.44,-8.67 418.04,-15.64"/>
</a>
</g>
</g>
<!-- Node2&#45;&gt;Node3 -->
<g id="edge38_Node000002_Node000003" class="edge">
<title>Node2&#45;&gt;Node3</title>
<g id="a_edge38_Node000002_Node000003"><a xlink:title=" ">
<path fill="none" stroke="#63b8ff" d="M111.16,-84.39C118.38,-84.31 126.76,-84.21 135.1,-84.12"/>
<polygon fill="#63b8ff" stroke="#63b8ff" points="134.87,-87.62 144.83,-84.01 134.79,-80.62 134.87,-87.62"/>
</a>
</g>
</g>
<!-- Node4 -->
<g id="Node000004" class="node">
<title>Node4</title>
<g id="a_Node000004"><a xlink:href="$class_scss_php_1_1_scss_php_1_1_parser.html#a8ae3372dfb0bc032ac5017aa211ab4b7" xlink:title=" ">
<polygon fill="white" stroke="#666666" points="345.25,-93.25 255,-93.25 255,-74 345.25,-74 345.25,-93.25"/>
<text text-anchor="middle" x="300.12" y="-79.75" font-family="Helvetica,sans-Serif" font-size="10.00">appendComment</text>
</a>
</g>
</g>
<!-- Node3&#45;&gt;Node4 -->
<g id="edge39_Node000003_Node000004" class="edge">
<title>Node3&#45;&gt;Node4</title>
<g id="a_edge39_Node000003_Node000004"><a xlink:title=" ">
<path fill="none" stroke="#63b8ff" d="M212.6,-83.62C222.07,-83.62 232.73,-83.62 243.24,-83.62"/>
<polygon fill="#63b8ff" stroke="#63b8ff" points="243.02,-87.13 253.02,-83.63 243.02,-80.13 243.02,-87.13"/>
</a>
</g>
</g>
<!-- Node5 -->
<g id="Node000005" class="node">
<title>Node5</title>
<g id="a_Node000005"><a xlink:href="$class_scss_php_1_1_scss_php_1_1_parser.html#a392fcd7f5b8c20ea6c2104bb580d12c7" xlink:title=" ">
<polygon fill="white" stroke="#666666" points="352,-207.25 248.25,-207.25 248.25,-188 352,-188 352,-207.25"/>
<text text-anchor="middle" x="300.12" y="-193.75" font-family="Helvetica,sans-Serif" font-size="10.00">assertPlainCssValid</text>
</a>
</g>
</g>
<!-- Node3&#45;&gt;Node5 -->
<g id="edge40_Node000003_Node000005" class="edge">
<title>Node3&#45;&gt;Node5</title>
<g id="a_edge40_Node000003_Node000005"><a xlink:title=" ">
<path fill="none" stroke="#63b8ff" d="M185.78,-93.52C195.82,-111.55 219.28,-150.05 248.25,-173.62 252.23,-176.87 256.73,-179.79 261.36,-182.39"/>
<polygon fill="#63b8ff" stroke="#63b8ff" points="259.7,-185.48 270.21,-186.87 262.87,-179.23 259.7,-185.48"/>
</a>
</g>
</g>
<!-- Node9 -->
<g id="Node000009" class="node">
<title>Node9</title>
<g id="a_Node000009"><a xlink:href="$class_scss_php_1_1_scss_php_1_1_parser.html#a87605379ec2e6b1e1dd7a7b6071b3bd5" xlink:title=" ">
<polygon fill="white" stroke="#666666" points="334.38,-56.25 265.88,-56.25 265.88,-37 334.38,-37 334.38,-56.25"/>
<text text-anchor="middle" x="300.12" y="-42.75" font-family="Helvetica,sans-Serif" font-size="10.00">interpolation</text>
</a>
</g>
</g>
<!-- Node3&#45;&gt;Node9 -->
<g id="edge45_Node000003_Node000009" class="edge">
<title>Node3&#45;&gt;Node9</title>
<g id="a_edge45_Node000003_Node000009"><a xlink:title=" ">
<path fill="none" stroke="#63b8ff" d="M197.24,-73.53C212.05,-67.27 234.33,-59.76 254.28,-54.04"/>
<polygon fill="#63b8ff" stroke="#63b8ff" points="255.2,-57.42 263.92,-51.39 253.35,-50.67 255.2,-57.42"/>
</a>
</g>
</g>
<!-- Node6 -->
<g id="Node000006" class="node">
<title>Node6</title>
<g id="a_Node000006"><a xlink:href="$class_scss_php_1_1_scss_php_1_1_parser.html#a1ad7cfcc2046e0b90c7606a671e8bfaa" xlink:title=" ">
<polygon fill="white" stroke="#666666" points="508.25,-201.25 388,-201.25 388,-182 508.25,-182 508.25,-201.25"/>
<text text-anchor="middle" x="448.12" y="-187.75" font-family="Helvetica,sans-Serif" font-size="10.00">isPlainCssValidElement</text>
</a>
</g>
</g>
<!-- Node5&#45;&gt;Node6 -->
<g id="edge41_Node000005_Node000006" class="edge">
<title>Node5&#45;&gt;Node6</title>
<g id="a_edge41_Node000005_Node000006"><a xlink:title=" ">
<path fill="none" stroke="#63b8ff" d="M352.19,-195.53C359.96,-195.21 368.09,-194.87 376.19,-194.54"/>
<polygon fill="#63b8ff" stroke="#63b8ff" points="376.22,-198.04 386.07,-194.13 375.93,-191.05 376.22,-198.04"/>
</a>
</g>
</g>
<!-- Node7 -->
<g id="Node000007" class="node">
<title>Node7</title>
<g id="a_Node000007"><a xlink:href="$class_scss_php_1_1_scss_php_1_1_parser.html#a718d44b09142aa117d40c30b2145d5f0" xlink:title=" ">
<polygon fill="white" stroke="#666666" points="478.62,-256.25 417.62,-256.25 417.62,-237 478.62,-237 478.62,-256.25"/>
<text text-anchor="middle" x="448.12" y="-242.75" font-family="Helvetica,sans-Serif" font-size="10.00">parseError</text>
</a>
</g>
</g>
<!-- Node5&#45;&gt;Node7 -->
<g id="edge43_Node000005_Node000007" class="edge">
<title>Node5&#45;&gt;Node7</title>
<g id="a_edge43_Node000005_Node000007"><a xlink:title=" ">
<path fill="none" stroke="#63b8ff" d="M328.4,-207.73C345.46,-213.96 367.93,-221.99 388,-228.62 393.92,-230.58 400.2,-232.58 406.37,-234.49"/>
<polygon fill="#63b8ff" stroke="#63b8ff" points="405.23,-237.8 415.82,-237.39 407.28,-231.11 405.23,-237.8"/>
</a>
</g>
</g>
<!-- Node6&#45;&gt;Node6 -->
<g id="edge42_Node000006_Node000006" class="edge">
<title>Node6&#45;&gt;Node6</title>
<g id="a_edge42_Node000006_Node000006"><a xlink:title=" ">
<path fill="none" stroke="#63b8ff" d="M430.18,-201.54C421.99,-210.15 427.98,-219.25 448.12,-219.25 459.14,-219.25 465.93,-216.53 468.47,-212.65"/>
<polygon fill="#63b8ff" stroke="#63b8ff" points="471.92,-212.05 466.39,-203.02 465.08,-213.53 471.92,-212.05"/>
</a>
</g>
</g>
<!-- Node8 -->
<g id="Node000008" class="node">
<title>Node8</title>
<g id="a_Node000008"><a xlink:href="$class_scss_php_1_1_scss_php_1_1_parser.html#add3e69e5298cfe700994604c7269610f" xlink:title=" ">
<polygon fill="white" stroke="#666666" points="581.25,-256.25 544.25,-256.25 544.25,-237 581.25,-237 581.25,-256.25"/>
<text text-anchor="middle" x="562.75" y="-242.75" font-family="Helvetica,sans-Serif" font-size="10.00">peek</text>
</a>
</g>
</g>
<!-- Node7&#45;&gt;Node8 -->
<g id="edge44_Node000007_Node000008" class="edge">
<title>Node7&#45;&gt;Node8</title>
<g id="a_edge44_Node000007_Node000008"><a xlink:title=" ">
<path fill="none" stroke="#63b8ff" d="M479.01,-246.62C495.69,-246.62 516.36,-246.62 532.87,-246.62"/>
<polygon fill="#63b8ff" stroke="#63b8ff" points="532.53,-250.13 542.53,-246.63 532.53,-243.13 532.53,-250.13"/>
</a>
</g>
</g>
<!-- Node9&#45;&gt;Node3 -->
<g id="edge52_Node000009_Node000003" class="edge">
<title>Node9&#45;&gt;Node3</title>
<g id="a_edge52_Node000009_Node000003"><a xlink:title=" ">
<path fill="none" stroke="#63b8ff" d="M282.35,-56.73C267.11,-63.17 243.95,-70.94 223.57,-76.71"/>
<polygon fill="#63b8ff" stroke="#63b8ff" points="222.8,-73.29 214.06,-79.29 224.63,-80.05 222.8,-73.29"/>
</a>
</g>
</g>
<!-- Node10 -->
<g id="Node000010" class="node">
<title>Node10</title>
<g id="a_Node000010"><a xlink:href="$class_scss_php_1_1_scss_php_1_1_parser.html#a7548704846076882815845b28b95c19f" xlink:title=" ">
<polygon fill="white" stroke="#666666" points="467.75,-159.25 428.5,-159.25 428.5,-140 467.75,-140 467.75,-159.25"/>
<text text-anchor="middle" x="448.12" y="-145.75" font-family="Helvetica,sans-Serif" font-size="10.00">literal</text>
</a>
</g>
</g>
<!-- Node9&#45;&gt;Node10 -->
<g id="edge46_Node000009_Node000010" class="edge">
<title>Node9&#45;&gt;Node10</title>
<g id="a_edge46_Node000009_Node000010"><a xlink:title=" ">
<path fill="none" stroke="#63b8ff" d="M334.82,-54.95C340.92,-57.42 346.95,-60.59 352,-64.62 375.42,-83.32 365.57,-101.76 388,-121.62 396.55,-129.2 407.52,-135.15 417.67,-139.57"/>
<polygon fill="#63b8ff" stroke="#63b8ff" points="416.24,-142.77 426.82,-143.23 418.83,-136.27 416.24,-142.77"/>
</a>
</g>
</g>
<!-- Node11 -->
<g id="Node000011" class="node">
<title>Node11</title>
<g id="a_Node000011"><a xlink:href="$class_scss_php_1_1_scss_php_1_1_parser.html#a5515137d066859ea31187cba42be4525" xlink:title=" ">
<polygon fill="white" stroke="#666666" points="480.12,-112.25 416.12,-112.25 416.12,-93 480.12,-93 480.12,-112.25"/>
<text text-anchor="middle" x="448.12" y="-98.75" font-family="Helvetica,sans-Serif" font-size="10.00">matchChar</text>
</a>
</g>
</g>
<!-- Node9&#45;&gt;Node11 -->
<g id="edge48_Node000009_Node000011" class="edge">
<title>Node9&#45;&gt;Node11</title>
<g id="a_edge48_Node000009_Node000011"><a xlink:title=" ">
<path fill="none" stroke="#63b8ff" d="M330.25,-56.71C337.39,-59.24 344.99,-61.98 352,-64.62 371.99,-72.15 394.15,-80.97 412.05,-88.23"/>
<polygon fill="#63b8ff" stroke="#63b8ff" points="410.61,-91.42 421.19,-91.94 413.25,-84.93 410.61,-91.42"/>
</a>
</g>
</g>
<!-- Node9&#45;&gt;Node12 -->
<g id="edge50_Node000009_Node000012" class="edge">
<title>Node9&#45;&gt;Node12</title>
<g id="a_edge50_Node000009_Node000012"><a xlink:title=" ">
<path fill="none" stroke="#63b8ff" d="M334.62,-38.14C359.94,-31.72 394.34,-23 418.41,-16.9"/>
<polygon fill="#63b8ff" stroke="#63b8ff" points="419.01,-20.36 427.85,-14.51 417.29,-13.57 419.01,-20.36"/>
</a>
</g>
</g>
<!-- Node13 -->
<g id="Node000013" class="node">
<title>Node13</title>
<g id="a_Node000013"><a xlink:href="$class_scss_php_1_1_scss_php_1_1_parser.html#a07d34cbbe25fe4d6db7aa89e5bbdba5f" xlink:title=" ">
<polygon fill="white" stroke="#666666" points="475.62,-56.25 420.62,-56.25 420.62,-37 475.62,-37 475.62,-56.25"/>
<text text-anchor="middle" x="448.12" y="-42.75" font-family="Helvetica,sans-Serif" font-size="10.00">valueList</text>
</a>
</g>
</g>
<!-- Node9&#45;&gt;Node13 -->
<g id="edge51_Node000009_Node000013" class="edge">
<title>Node9&#45;&gt;Node13</title>
<g id="a_edge51_Node000009_Node000013"><a xlink:title=" ">
<path fill="none" stroke="#63b8ff" d="M334.62,-46.62C356.7,-46.62 385.68,-46.62 408.7,-46.62"/>
<polygon fill="#63b8ff" stroke="#63b8ff" points="408.61,-50.13 418.61,-46.63 408.61,-43.13 408.61,-50.13"/>
</a>
</g>
</g>
<!-- Node10&#45;&gt;Node3 -->
<g id="edge47_Node000010_Node000003" class="edge">
<title>Node10&#45;&gt;Node3</title>
<g id="a_edge47_Node000010_Node000003"><a xlink:title=" ">
<path fill="none" stroke="#63b8ff" d="M428.01,-148.69C392.01,-146.48 312.03,-139.46 248.25,-118.62 233.6,-113.84 218.27,-106.17 205.9,-99.23"/>
<polygon fill="#63b8ff" stroke="#63b8ff" points="208,-96.4 197.6,-94.41 204.49,-102.45 208,-96.4"/>
</a>
</g>
</g>
<!-- Node11&#45;&gt;Node3 -->
<g id="edge49_Node000011_Node000003" class="edge">
<title>Node11&#45;&gt;Node3</title>
<g id="a_edge49_Node000011_Node000003"><a xlink:title=" ">
<path fill="none" stroke="#63b8ff" d="M415.94,-105.24C376.63,-107.94 307.08,-110.72 248.25,-102.62 239.23,-101.38 229.72,-99.26 220.77,-96.86"/>
<polygon fill="#63b8ff" stroke="#63b8ff" points="221.84,-93.53 211.27,-94.15 219.92,-100.26 221.84,-93.53"/>
</a>
</g>
</g>
</g>
</svg>
