<?xml version="1.0" encoding="UTF-8" standalone="no"?>
<!DOCTYPE svg PUBLIC "-//W3C//DTD SVG 1.1//EN"
 "http://www.w3.org/Graphics/SVG/1.1/DTD/svg11.dtd">
<!-- Generated by graphviz version 10.0.1 (20240210.2158)
 -->
<!-- Title: RuleTicketCollection Pages: 1 -->
<svg width="525pt" height="2381pt"
 viewBox="0.00 0.00 525.00 2380.75" xmlns="http://www.w3.org/2000/svg" xmlns:xlink="http://www.w3.org/1999/xlink">
<g id="graph0" class="graph" transform="scale(1 1) rotate(0) translate(4 2376.75)">
<title>RuleTicketCollection</title>
<!-- Node1 -->
<g id="Node000001" class="node">
<title>Node1</title>
<g id="a_Node000001"><a xlink:title=" ">
<polygon fill="#999999" stroke="none" points="479.5,-202 336.5,-202 336.5,0 479.5,0 479.5,-202"/>
<text text-anchor="start" x="362.62" y="-188.5" font-family="Helvetica,sans-Serif" font-size="10.00">RuleTicketCollection</text>
<text text-anchor="start" x="340.5" y="-173.5" font-family="Helvetica,sans-Serif" font-size="10.00">+</text>
<text text-anchor="start" x="350.5" y="-173.5" font-family="Helvetica,sans-Serif" font-size="10.00">$use_output_rule_process</text>
<text text-anchor="start" x="350.5" y="-162.25" font-family="Helvetica,sans-Serif" font-size="10.00">_as_next_input</text>
<text text-anchor="start" x="340.5" y="-147.5" font-family="Helvetica,sans-Serif" font-size="10.00">+</text>
<text text-anchor="start" x="350.5" y="-147.5" font-family="Helvetica,sans-Serif" font-size="10.00">$menu_option</text>
<text text-anchor="start" x="340.5" y="-132.5" font-family="Helvetica,sans-Serif" font-size="10.00">+</text>
<text text-anchor="start" x="350.5" y="-132.5" font-family="Helvetica,sans-Serif" font-size="10.00">__construct($entity=0)</text>
<text text-anchor="start" x="340.5" y="-117.5" font-family="Helvetica,sans-Serif" font-size="10.00">+</text>
<text text-anchor="start" x="350.5" y="-117.5" font-family="Helvetica,sans-Serif" font-size="10.00">canList()</text>
<text text-anchor="start" x="340.5" y="-102.5" font-family="Helvetica,sans-Serif" font-size="10.00">+</text>
<text text-anchor="start" x="350.5" y="-102.5" font-family="Helvetica,sans-Serif" font-size="10.00">getTitle()</text>
<text text-anchor="start" x="340.5" y="-87.5" font-family="Helvetica,sans-Serif" font-size="10.00">+</text>
<text text-anchor="start" x="350.5" y="-87.5" font-family="Helvetica,sans-Serif" font-size="10.00">preProcessPreviewResults</text>
<text text-anchor="start" x="350.5" y="-76.25" font-family="Helvetica,sans-Serif" font-size="10.00">($output)</text>
<text text-anchor="start" x="340.5" y="-61.5" font-family="Helvetica,sans-Serif" font-size="10.00">+</text>
<text text-anchor="start" x="350.5" y="-61.5" font-family="Helvetica,sans-Serif" font-size="10.00">showInheritedTab()</text>
<text text-anchor="start" x="340.5" y="-46.5" font-family="Helvetica,sans-Serif" font-size="10.00">+</text>
<text text-anchor="start" x="350.5" y="-46.5" font-family="Helvetica,sans-Serif" font-size="10.00">showChildrensTab()</text>
<text text-anchor="start" x="340.5" y="-31.5" font-family="Helvetica,sans-Serif" font-size="10.00">+</text>
<text text-anchor="start" x="350.5" y="-31.5" font-family="Helvetica,sans-Serif" font-size="10.00">prepareInputDataForProcess</text>
<text text-anchor="start" x="350.5" y="-20.25" font-family="Helvetica,sans-Serif" font-size="10.00">($input, $params)</text>
<text text-anchor="start" x="340.5" y="-5.5" font-family="Helvetica,sans-Serif" font-size="10.00">+</text>
<text text-anchor="start" x="350.5" y="-5.5" font-family="Helvetica,sans-Serif" font-size="10.00">static canView()</text>
<polygon fill="#666666" stroke="#666666" points="336.5,-185 336.5,-185 479.5,-185 479.5,-185 336.5,-185"/>
<polygon fill="#666666" stroke="#666666" points="336.5,-144 336.5,-144 348.5,-144 348.5,-144 336.5,-144"/>
<polygon fill="#666666" stroke="#666666" points="348.5,-144 348.5,-144 479.5,-144 479.5,-144 348.5,-144"/>
<polygon fill="none" stroke="#666666" points="336.5,0 336.5,-202 479.5,-202 479.5,0 336.5,0"/>
</a>
</g>
</g>
<!-- Node2 -->
<g id="Node000002" class="node">
<title>Node2</title>
<g id="a_Node000002"><a xlink:href="$class_rule_collection.html" xlink:title=" ">
<polygon fill="white" stroke="none" points="419,-795 269,-795 269,-239 419,-239 419,-795"/>
<text text-anchor="start" x="312.12" y="-781.5" font-family="Helvetica,sans-Serif" font-size="10.00">RuleCollection</text>
<text text-anchor="start" x="273" y="-766.5" font-family="Helvetica,sans-Serif" font-size="10.00">+</text>
<text text-anchor="start" x="283" y="-766.5" font-family="Helvetica,sans-Serif" font-size="10.00">$sub_type</text>
<text text-anchor="start" x="273" y="-751.5" font-family="Helvetica,sans-Serif" font-size="10.00">+</text>
<text text-anchor="start" x="283" y="-751.5" font-family="Helvetica,sans-Serif" font-size="10.00">$stop_on_first_match</text>
<text text-anchor="start" x="273" y="-736.5" font-family="Helvetica,sans-Serif" font-size="10.00">+</text>
<text text-anchor="start" x="283" y="-736.5" font-family="Helvetica,sans-Serif" font-size="10.00">$orderby</text>
<text text-anchor="start" x="273" y="-721.5" font-family="Helvetica,sans-Serif" font-size="10.00">+</text>
<text text-anchor="start" x="283" y="-721.5" font-family="Helvetica,sans-Serif" font-size="10.00">$use_output_rule_process</text>
<text text-anchor="start" x="283" y="-710.25" font-family="Helvetica,sans-Serif" font-size="10.00">_as_next_input</text>
<text text-anchor="start" x="273" y="-695.5" font-family="Helvetica,sans-Serif" font-size="10.00">+</text>
<text text-anchor="start" x="283" y="-695.5" font-family="Helvetica,sans-Serif" font-size="10.00">$can_replay_rules</text>
<text text-anchor="start" x="273" y="-680.5" font-family="Helvetica,sans-Serif" font-size="10.00">+</text>
<text text-anchor="start" x="283" y="-680.5" font-family="Helvetica,sans-Serif" font-size="10.00">$RuleList</text>
<text text-anchor="start" x="273" y="-665.5" font-family="Helvetica,sans-Serif" font-size="10.00">+</text>
<text text-anchor="start" x="283" y="-665.5" font-family="Helvetica,sans-Serif" font-size="10.00">$menu_type</text>
<text text-anchor="start" x="273" y="-650.5" font-family="Helvetica,sans-Serif" font-size="10.00">+</text>
<text text-anchor="start" x="283" y="-650.5" font-family="Helvetica,sans-Serif" font-size="10.00">$menu_option</text>
<text text-anchor="start" x="273" y="-635.5" font-family="Helvetica,sans-Serif" font-size="10.00">+</text>
<text text-anchor="start" x="283" y="-635.5" font-family="Helvetica,sans-Serif" font-size="10.00">$entity</text>
<text text-anchor="start" x="273" y="-620.5" font-family="Helvetica,sans-Serif" font-size="10.00">+</text>
<text text-anchor="start" x="283" y="-620.5" font-family="Helvetica,sans-Serif" font-size="10.00">$taborientation</text>
<text text-anchor="start" x="273" y="-605.5" font-family="Helvetica,sans-Serif" font-size="10.00">+</text>
<text text-anchor="start" x="283" y="-605.5" font-family="Helvetica,sans-Serif" font-size="10.00">setEntity($entity=0)</text>
<text text-anchor="start" x="273" y="-590.5" font-family="Helvetica,sans-Serif" font-size="10.00">+</text>
<text text-anchor="start" x="283" y="-590.5" font-family="Helvetica,sans-Serif" font-size="10.00">canList()</text>
<text text-anchor="start" x="273" y="-575.5" font-family="Helvetica,sans-Serif" font-size="10.00">+</text>
<text text-anchor="start" x="283" y="-575.5" font-family="Helvetica,sans-Serif" font-size="10.00">isEntityAssign()</text>
<text text-anchor="start" x="273" y="-560.5" font-family="Helvetica,sans-Serif" font-size="10.00">+</text>
<text text-anchor="start" x="283" y="-560.5" font-family="Helvetica,sans-Serif" font-size="10.00">getRuleListCriteria</text>
<text text-anchor="start" x="283" y="-549.25" font-family="Helvetica,sans-Serif" font-size="10.00">($options=[])</text>
<text text-anchor="start" x="273" y="-534.5" font-family="Helvetica,sans-Serif" font-size="10.00">+</text>
<text text-anchor="start" x="283" y="-534.5" font-family="Helvetica,sans-Serif" font-size="10.00">getRuleClassName()</text>
<text text-anchor="start" x="273" y="-519.5" font-family="Helvetica,sans-Serif" font-size="10.00">+</text>
<text text-anchor="start" x="283" y="-519.5" font-family="Helvetica,sans-Serif" font-size="10.00">getRuleClass()</text>
<text text-anchor="start" x="273" y="-504.5" font-family="Helvetica,sans-Serif" font-size="10.00">+</text>
<text text-anchor="start" x="283" y="-504.5" font-family="Helvetica,sans-Serif" font-size="10.00">warningBeforeReplayRules</text>
<text text-anchor="start" x="283" y="-493.25" font-family="Helvetica,sans-Serif" font-size="10.00">OnExistingDB($target)</text>
<text text-anchor="start" x="273" y="-478.5" font-family="Helvetica,sans-Serif" font-size="10.00">+</text>
<text text-anchor="start" x="283" y="-478.5" font-family="Helvetica,sans-Serif" font-size="10.00">replayRulesOnExistingDB</text>
<text text-anchor="start" x="283" y="-467.25" font-family="Helvetica,sans-Serif" font-size="10.00">($offset=0, $maxtime=0,</text>
<text text-anchor="start" x="283" y="-456" font-family="Helvetica,sans-Serif" font-size="10.00"> $items=[], $params=[])</text>
<text text-anchor="start" x="273" y="-441.5" font-family="Helvetica,sans-Serif" font-size="10.00">+</text>
<text text-anchor="start" x="283" y="-441.5" font-family="Helvetica,sans-Serif" font-size="10.00">getTitle()</text>
<text text-anchor="start" x="273" y="-426.5" font-family="Helvetica,sans-Serif" font-size="10.00">+</text>
<text text-anchor="start" x="283" y="-426.5" font-family="Helvetica,sans-Serif" font-size="10.00">isRuleEntityAssigned()</text>
<text text-anchor="start" x="283" y="-411.5" font-family="Helvetica,sans-Serif" font-size="10.00">et 18 de plus...</text>
<text text-anchor="start" x="273" y="-396.5" font-family="Helvetica,sans-Serif" font-size="10.00">+</text>
<text text-anchor="start" x="283" y="-396.5" font-family="Helvetica,sans-Serif" font-size="10.00">static getTable($classname</text>
<text text-anchor="start" x="283" y="-385.25" font-family="Helvetica,sans-Serif" font-size="10.00">=null)</text>
<text text-anchor="start" x="273" y="-370.5" font-family="Helvetica,sans-Serif" font-size="10.00">+</text>
<text text-anchor="start" x="283" y="-370.5" font-family="Helvetica,sans-Serif" font-size="10.00">static exportRulesToXML</text>
<text text-anchor="start" x="283" y="-359.25" font-family="Helvetica,sans-Serif" font-size="10.00">($items=[])</text>
<text text-anchor="start" x="273" y="-344.5" font-family="Helvetica,sans-Serif" font-size="10.00">+</text>
<text text-anchor="start" x="283" y="-344.5" font-family="Helvetica,sans-Serif" font-size="10.00">static displayImportRules</text>
<text text-anchor="start" x="283" y="-333.25" font-family="Helvetica,sans-Serif" font-size="10.00">Form()</text>
<text text-anchor="start" x="273" y="-318.5" font-family="Helvetica,sans-Serif" font-size="10.00">+</text>
<text text-anchor="start" x="283" y="-318.5" font-family="Helvetica,sans-Serif" font-size="10.00">static isCriteraADropdown</text>
<text text-anchor="start" x="283" y="-307.25" font-family="Helvetica,sans-Serif" font-size="10.00">($available_criteria, </text>
<text text-anchor="start" x="283" y="-296" font-family="Helvetica,sans-Serif" font-size="10.00">$condition, $criterion)</text>
<text text-anchor="start" x="273" y="-281.5" font-family="Helvetica,sans-Serif" font-size="10.00">+</text>
<text text-anchor="start" x="283" y="-281.5" font-family="Helvetica,sans-Serif" font-size="10.00">static displayTabContent</text>
<text text-anchor="start" x="283" y="-270.25" font-family="Helvetica,sans-Serif" font-size="10.00">ForItem(CommonGLPI $item,</text>
<text text-anchor="start" x="283" y="-259" font-family="Helvetica,sans-Serif" font-size="10.00"> $tabnum=1, $withtemplate=0)</text>
<text text-anchor="start" x="273" y="-244.5" font-family="Helvetica,sans-Serif" font-size="10.00">+</text>
<text text-anchor="start" x="283" y="-244.5" font-family="Helvetica,sans-Serif" font-size="10.00">static getDictionnaries()</text>
<polygon fill="#666666" stroke="#666666" points="269,-778 269,-778 419,-778 419,-778 269,-778"/>
<polygon fill="#666666" stroke="#666666" points="269,-617 269,-617 281,-617 281,-617 269,-617"/>
<polygon fill="#666666" stroke="#666666" points="281,-617 281,-617 419,-617 419,-617 281,-617"/>
<polygon fill="none" stroke="#666666" points="269,-239 269,-795 419,-795 419,-239 269,-239"/>
</a>
</g>
</g>
<!-- Node2&#45;&gt;Node1 -->
<g id="edge19_Node000001_Node000002" class="edge">
<title>Node2&#45;&gt;Node1</title>
<g id="a_edge19_Node000001_Node000002"><a xlink:title=" ">
<path fill="none" stroke="#63b8ff" d="M388.5,-228.11C389.91,-219.05 391.27,-210.23 392.58,-201.75"/>
<polygon fill="none" stroke="#63b8ff" points="385.08,-227.37 387.01,-237.79 392,-228.44 385.08,-227.37"/>
</a>
</g>
</g>
<!-- Node3 -->
<g id="Node000003" class="node">
<title>Node3</title>
<g id="a_Node000003"><a xlink:href="$class_common_d_b_t_m.html" xlink:title=" ">
<polygon fill="white" stroke="none" points="286.5,-1657.5 133.5,-1657.5 133.5,-853.5 286.5,-853.5 286.5,-1657.5"/>
<text text-anchor="start" x="175.88" y="-1644" font-family="Helvetica,sans-Serif" font-size="10.00">CommonDBTM</text>
<text text-anchor="start" x="137.5" y="-1629" font-family="Helvetica,sans-Serif" font-size="10.00">+</text>
<text text-anchor="start" x="147.5" y="-1629" font-family="Helvetica,sans-Serif" font-size="10.00">$fields</text>
<text text-anchor="start" x="137.5" y="-1614" font-family="Helvetica,sans-Serif" font-size="10.00">+</text>
<text text-anchor="start" x="147.5" y="-1614" font-family="Helvetica,sans-Serif" font-size="10.00">$input</text>
<text text-anchor="start" x="137.5" y="-1599" font-family="Helvetica,sans-Serif" font-size="10.00">+</text>
<text text-anchor="start" x="147.5" y="-1599" font-family="Helvetica,sans-Serif" font-size="10.00">$updates</text>
<text text-anchor="start" x="137.5" y="-1584" font-family="Helvetica,sans-Serif" font-size="10.00">+</text>
<text text-anchor="start" x="147.5" y="-1584" font-family="Helvetica,sans-Serif" font-size="10.00">$oldvalues</text>
<text text-anchor="start" x="137.5" y="-1569" font-family="Helvetica,sans-Serif" font-size="10.00">+</text>
<text text-anchor="start" x="147.5" y="-1569" font-family="Helvetica,sans-Serif" font-size="10.00">$dohistory</text>
<text text-anchor="start" x="137.5" y="-1554" font-family="Helvetica,sans-Serif" font-size="10.00">+</text>
<text text-anchor="start" x="147.5" y="-1554" font-family="Helvetica,sans-Serif" font-size="10.00">$history_blacklist</text>
<text text-anchor="start" x="137.5" y="-1539" font-family="Helvetica,sans-Serif" font-size="10.00">+</text>
<text text-anchor="start" x="147.5" y="-1539" font-family="Helvetica,sans-Serif" font-size="10.00">$auto_message_on_action</text>
<text text-anchor="start" x="137.5" y="-1524" font-family="Helvetica,sans-Serif" font-size="10.00">+</text>
<text text-anchor="start" x="147.5" y="-1524" font-family="Helvetica,sans-Serif" font-size="10.00">$no_form_page</text>
<text text-anchor="start" x="137.5" y="-1509" font-family="Helvetica,sans-Serif" font-size="10.00">+</text>
<text text-anchor="start" x="147.5" y="-1509" font-family="Helvetica,sans-Serif" font-size="10.00">$additional_fields</text>
<text text-anchor="start" x="147.5" y="-1497.75" font-family="Helvetica,sans-Serif" font-size="10.00">_for_dictionnary</text>
<text text-anchor="start" x="137.5" y="-1483" font-family="Helvetica,sans-Serif" font-size="10.00">+</text>
<text text-anchor="start" x="147.5" y="-1483" font-family="Helvetica,sans-Serif" font-size="10.00">$taborientation</text>
<text text-anchor="start" x="137.5" y="-1468" font-family="Helvetica,sans-Serif" font-size="10.00">+</text>
<text text-anchor="start" x="147.5" y="-1468" font-family="Helvetica,sans-Serif" font-size="10.00">$get_item_to_display_tab</text>
<text text-anchor="start" x="137.5" y="-1453" font-family="Helvetica,sans-Serif" font-size="10.00">+</text>
<text text-anchor="start" x="147.5" y="-1453" font-family="Helvetica,sans-Serif" font-size="10.00">$deduplicate_queued</text>
<text text-anchor="start" x="147.5" y="-1441.75" font-family="Helvetica,sans-Serif" font-size="10.00">_notifications</text>
<text text-anchor="start" x="137.5" y="-1427" font-family="Helvetica,sans-Serif" font-size="10.00">+</text>
<text text-anchor="start" x="147.5" y="-1427" font-family="Helvetica,sans-Serif" font-size="10.00">$right</text>
<text text-anchor="start" x="137.88" y="-1412" font-family="Helvetica,sans-Serif" font-size="10.00">#</text>
<text text-anchor="start" x="147.5" y="-1412" font-family="Helvetica,sans-Serif" font-size="10.00">$fkfield</text>
<text text-anchor="start" x="137.88" y="-1397" font-family="Helvetica,sans-Serif" font-size="10.00">#</text>
<text text-anchor="start" x="147.5" y="-1397" font-family="Helvetica,sans-Serif" font-size="10.00">$searchopt</text>
<text text-anchor="start" x="137.88" y="-1382" font-family="Helvetica,sans-Serif" font-size="10.00">#</text>
<text text-anchor="start" x="147.5" y="-1382" font-family="Helvetica,sans-Serif" font-size="10.00">$usenotepad</text>
<text text-anchor="start" x="137.5" y="-1367" font-family="Helvetica,sans-Serif" font-size="10.00">+</text>
<text text-anchor="start" x="147.5" y="-1367" font-family="Helvetica,sans-Serif" font-size="10.00">getFromResultSet($rs)</text>
<text text-anchor="start" x="137.5" y="-1352" font-family="Helvetica,sans-Serif" font-size="10.00">+</text>
<text text-anchor="start" x="147.5" y="-1352" font-family="Helvetica,sans-Serif" font-size="10.00">getID()</text>
<text text-anchor="start" x="137.5" y="-1337" font-family="Helvetica,sans-Serif" font-size="10.00">+</text>
<text text-anchor="start" x="147.5" y="-1337" font-family="Helvetica,sans-Serif" font-size="10.00">post_getFromDB()</text>
<text text-anchor="start" x="137.5" y="-1322" font-family="Helvetica,sans-Serif" font-size="10.00">+</text>
<text text-anchor="start" x="147.5" y="-1322" font-family="Helvetica,sans-Serif" font-size="10.00">showForm($ID, array</text>
<text text-anchor="start" x="147.5" y="-1310.75" font-family="Helvetica,sans-Serif" font-size="10.00"> $options=[])</text>
<text text-anchor="start" x="137.5" y="-1296" font-family="Helvetica,sans-Serif" font-size="10.00">+</text>
<text text-anchor="start" x="147.5" y="-1296" font-family="Helvetica,sans-Serif" font-size="10.00">getSNMPCredential()</text>
<text text-anchor="start" x="137.5" y="-1281" font-family="Helvetica,sans-Serif" font-size="10.00">+</text>
<text text-anchor="start" x="147.5" y="-1281" font-family="Helvetica,sans-Serif" font-size="10.00">getLockedFields()</text>
<text text-anchor="start" x="137.5" y="-1266" font-family="Helvetica,sans-Serif" font-size="10.00">+</text>
<text text-anchor="start" x="147.5" y="-1266" font-family="Helvetica,sans-Serif" font-size="10.00">post_getEmpty()</text>
<text text-anchor="start" x="137.5" y="-1251" font-family="Helvetica,sans-Serif" font-size="10.00">+</text>
<text text-anchor="start" x="147.5" y="-1251" font-family="Helvetica,sans-Serif" font-size="10.00">getLogTypeID()</text>
<text text-anchor="start" x="137.5" y="-1236" font-family="Helvetica,sans-Serif" font-size="10.00">+</text>
<text text-anchor="start" x="147.5" y="-1236" font-family="Helvetica,sans-Serif" font-size="10.00">post_deleteFromDB()</text>
<text text-anchor="start" x="137.5" y="-1221" font-family="Helvetica,sans-Serif" font-size="10.00">+</text>
<text text-anchor="start" x="147.5" y="-1221" font-family="Helvetica,sans-Serif" font-size="10.00">cleanDBonPurge()</text>
<text text-anchor="start" x="147.5" y="-1206" font-family="Helvetica,sans-Serif" font-size="10.00">et 87 de plus...</text>
<text text-anchor="start" x="137.5" y="-1191" font-family="Helvetica,sans-Serif" font-size="10.00">+</text>
<text text-anchor="start" x="147.5" y="-1191" font-family="Helvetica,sans-Serif" font-size="10.00">static getTable($classname</text>
<text text-anchor="start" x="147.5" y="-1179.75" font-family="Helvetica,sans-Serif" font-size="10.00">=null)</text>
<text text-anchor="start" x="137.5" y="-1165" font-family="Helvetica,sans-Serif" font-size="10.00">+</text>
<text text-anchor="start" x="147.5" y="-1165" font-family="Helvetica,sans-Serif" font-size="10.00">static forceTable(</text>
<text text-anchor="start" x="147.5" y="-1153.75" font-family="Helvetica,sans-Serif" font-size="10.00">$table)</text>
<text text-anchor="start" x="137.5" y="-1139" font-family="Helvetica,sans-Serif" font-size="10.00">+</text>
<text text-anchor="start" x="147.5" y="-1139" font-family="Helvetica,sans-Serif" font-size="10.00">static getForeignKeyField()</text>
<text text-anchor="start" x="137.5" y="-1124" font-family="Helvetica,sans-Serif" font-size="10.00">+</text>
<text text-anchor="start" x="147.5" y="-1124" font-family="Helvetica,sans-Serif" font-size="10.00">static getTableField</text>
<text text-anchor="start" x="147.5" y="-1112.75" font-family="Helvetica,sans-Serif" font-size="10.00">($field, $classname=null)</text>
<text text-anchor="start" x="137.5" y="-1098" font-family="Helvetica,sans-Serif" font-size="10.00">+</text>
<text text-anchor="start" x="147.5" y="-1098" font-family="Helvetica,sans-Serif" font-size="10.00">static getFromIter</text>
<text text-anchor="start" x="147.5" y="-1086.75" font-family="Helvetica,sans-Serif" font-size="10.00">(DBmysqlIterator $iter)</text>
<text text-anchor="start" x="137.5" y="-1072" font-family="Helvetica,sans-Serif" font-size="10.00">+</text>
<text text-anchor="start" x="147.5" y="-1072" font-family="Helvetica,sans-Serif" font-size="10.00">static unsetUndisclosedFields</text>
<text text-anchor="start" x="147.5" y="-1060.75" font-family="Helvetica,sans-Serif" font-size="10.00">(&amp;$fields)</text>
<text text-anchor="start" x="137.5" y="-1046" font-family="Helvetica,sans-Serif" font-size="10.00">+</text>
<text text-anchor="start" x="147.5" y="-1046" font-family="Helvetica,sans-Serif" font-size="10.00">static getIndexName()</text>
<text text-anchor="start" x="137.5" y="-1031" font-family="Helvetica,sans-Serif" font-size="10.00">+</text>
<text text-anchor="start" x="147.5" y="-1031" font-family="Helvetica,sans-Serif" font-size="10.00">static isNewID($ID)</text>
<text text-anchor="start" x="137.5" y="-1016" font-family="Helvetica,sans-Serif" font-size="10.00">+</text>
<text text-anchor="start" x="147.5" y="-1016" font-family="Helvetica,sans-Serif" font-size="10.00">static getNameField()</text>
<text text-anchor="start" x="137.5" y="-1001" font-family="Helvetica,sans-Serif" font-size="10.00">+</text>
<text text-anchor="start" x="147.5" y="-1001" font-family="Helvetica,sans-Serif" font-size="10.00">static getCompleteNameField()</text>
<text text-anchor="start" x="147.5" y="-986" font-family="Helvetica,sans-Serif" font-size="10.00">et 26 de plus...</text>
<text text-anchor="start" x="137.88" y="-971" font-family="Helvetica,sans-Serif" font-size="10.00">#</text>
<text text-anchor="start" x="147.5" y="-971" font-family="Helvetica,sans-Serif" font-size="10.00">saveInput()</text>
<text text-anchor="start" x="137.88" y="-956" font-family="Helvetica,sans-Serif" font-size="10.00">#</text>
<text text-anchor="start" x="147.5" y="-956" font-family="Helvetica,sans-Serif" font-size="10.00">clearSavedInput()</text>
<text text-anchor="start" x="137.88" y="-941" font-family="Helvetica,sans-Serif" font-size="10.00">#</text>
<text text-anchor="start" x="147.5" y="-941" font-family="Helvetica,sans-Serif" font-size="10.00">restoreInput(array</text>
<text text-anchor="start" x="147.5" y="-929.75" font-family="Helvetica,sans-Serif" font-size="10.00"> $default=[])</text>
<text text-anchor="start" x="137.88" y="-915" font-family="Helvetica,sans-Serif" font-size="10.00">#</text>
<text text-anchor="start" x="147.5" y="-915" font-family="Helvetica,sans-Serif" font-size="10.00">restoreSavedValues</text>
<text text-anchor="start" x="147.5" y="-903.75" font-family="Helvetica,sans-Serif" font-size="10.00">(array $saved=[])</text>
<text text-anchor="start" x="137.88" y="-889" font-family="Helvetica,sans-Serif" font-size="10.00">#</text>
<text text-anchor="start" x="147.5" y="-889" font-family="Helvetica,sans-Serif" font-size="10.00">cleanLockedsOnAdd()</text>
<text text-anchor="start" x="137.88" y="-874" font-family="Helvetica,sans-Serif" font-size="10.00">#</text>
<text text-anchor="start" x="147.5" y="-874" font-family="Helvetica,sans-Serif" font-size="10.00">cleanLockeds()</text>
<text text-anchor="start" x="137.88" y="-859" font-family="Helvetica,sans-Serif" font-size="10.00">#</text>
<text text-anchor="start" x="147.5" y="-859" font-family="Helvetica,sans-Serif" font-size="10.00">computeFriendlyName()</text>
<polygon fill="#666666" stroke="#666666" points="133.5,-1640.5 133.5,-1640.5 286.5,-1640.5 286.5,-1640.5 133.5,-1640.5"/>
<polygon fill="#666666" stroke="#666666" points="133.5,-1378.5 133.5,-1378.5 145.5,-1378.5 145.5,-1378.5 133.5,-1378.5"/>
<polygon fill="#666666" stroke="#666666" points="145.5,-1378.5 145.5,-1378.5 286.5,-1378.5 286.5,-1378.5 145.5,-1378.5"/>
<polygon fill="none" stroke="#666666" points="133.5,-853.5 133.5,-1657.5 286.5,-1657.5 286.5,-853.5 133.5,-853.5"/>
</a>
</g>
</g>
<!-- Node3&#45;&gt;Node2 -->
<g id="edge20_Node000002_Node000003" class="edge">
<title>Node3&#45;&gt;Node2</title>
<g id="a_edge20_Node000002_Node000003"><a xlink:title=" ">
<path fill="none" stroke="#63b8ff" d="M284.96,-842.48C287.9,-826.36 290.81,-810.35 293.68,-794.59"/>
<polygon fill="none" stroke="#63b8ff" points="281.55,-841.7 283.2,-852.16 288.44,-842.95 281.55,-841.7"/>
</a>
</g>
</g>
<!-- Node4 -->
<g id="Node000004" class="node">
<title>Node4</title>
<g id="a_Node000004"><a xlink:href="$class_common_g_l_p_i.html" xlink:title=" ">
<polygon fill="white" stroke="none" points="163.5,-2242.75 12.5,-2242.75 12.5,-1704.75 163.5,-1704.75 163.5,-2242.75"/>
<text text-anchor="start" x="56.88" y="-2229.25" font-family="Helvetica,sans-Serif" font-size="10.00">CommonGLPI</text>
<text text-anchor="start" x="16.5" y="-2214.25" font-family="Helvetica,sans-Serif" font-size="10.00">+</text>
<text text-anchor="start" x="26.5" y="-2214.25" font-family="Helvetica,sans-Serif" font-size="10.00">$showdebug</text>
<text text-anchor="start" x="16.5" y="-2199.25" font-family="Helvetica,sans-Serif" font-size="10.00">+</text>
<text text-anchor="start" x="26.5" y="-2199.25" font-family="Helvetica,sans-Serif" font-size="10.00">$taborientation</text>
<text text-anchor="start" x="16.5" y="-2184.25" font-family="Helvetica,sans-Serif" font-size="10.00">+</text>
<text text-anchor="start" x="26.5" y="-2184.25" font-family="Helvetica,sans-Serif" font-size="10.00">$get_item_to_display_tab</text>
<text text-anchor="start" x="16.88" y="-2169.25" font-family="Helvetica,sans-Serif" font-size="10.00">#</text>
<text text-anchor="start" x="26.5" y="-2169.25" font-family="Helvetica,sans-Serif" font-size="10.00">$type</text>
<text text-anchor="start" x="16.88" y="-2154.25" font-family="Helvetica,sans-Serif" font-size="10.00">#</text>
<text text-anchor="start" x="26.5" y="-2154.25" font-family="Helvetica,sans-Serif" font-size="10.00">$displaylist</text>
<text text-anchor="start" x="16.5" y="-2139.25" font-family="Helvetica,sans-Serif" font-size="10.00">+</text>
<text text-anchor="start" x="26.5" y="-2139.25" font-family="Helvetica,sans-Serif" font-size="10.00">__construct()</text>
<text text-anchor="start" x="16.5" y="-2124.25" font-family="Helvetica,sans-Serif" font-size="10.00">+</text>
<text text-anchor="start" x="26.5" y="-2124.25" font-family="Helvetica,sans-Serif" font-size="10.00">can($ID, $right, array</text>
<text text-anchor="start" x="26.5" y="-2113" font-family="Helvetica,sans-Serif" font-size="10.00"> &amp;$input=null)</text>
<text text-anchor="start" x="16.5" y="-2098.25" font-family="Helvetica,sans-Serif" font-size="10.00">+</text>
<text text-anchor="start" x="26.5" y="-2098.25" font-family="Helvetica,sans-Serif" font-size="10.00">defineTabs($options=[])</text>
<text text-anchor="start" x="16.5" y="-2083.25" font-family="Helvetica,sans-Serif" font-size="10.00">+</text>
<text text-anchor="start" x="26.5" y="-2083.25" font-family="Helvetica,sans-Serif" font-size="10.00">addStandardTab($itemtype,</text>
<text text-anchor="start" x="26.5" y="-2072" font-family="Helvetica,sans-Serif" font-size="10.00"> array &amp;$ong, array $options)</text>
<text text-anchor="start" x="16.5" y="-2057.25" font-family="Helvetica,sans-Serif" font-size="10.00">+</text>
<text text-anchor="start" x="26.5" y="-2057.25" font-family="Helvetica,sans-Serif" font-size="10.00">addDefaultFormTab</text>
<text text-anchor="start" x="26.5" y="-2046" font-family="Helvetica,sans-Serif" font-size="10.00">(array &amp;$ong)</text>
<text text-anchor="start" x="16.5" y="-2031.25" font-family="Helvetica,sans-Serif" font-size="10.00">+</text>
<text text-anchor="start" x="26.5" y="-2031.25" font-family="Helvetica,sans-Serif" font-size="10.00">getTabNameForItem</text>
<text text-anchor="start" x="26.5" y="-2020" font-family="Helvetica,sans-Serif" font-size="10.00">(CommonGLPI $item, </text>
<text text-anchor="start" x="26.5" y="-2008.75" font-family="Helvetica,sans-Serif" font-size="10.00">$withtemplate=0)</text>
<text text-anchor="start" x="16.5" y="-1994.25" font-family="Helvetica,sans-Serif" font-size="10.00">+</text>
<text text-anchor="start" x="26.5" y="-1994.25" font-family="Helvetica,sans-Serif" font-size="10.00">isNewItem()</text>
<text text-anchor="start" x="16.5" y="-1979.25" font-family="Helvetica,sans-Serif" font-size="10.00">+</text>
<text text-anchor="start" x="26.5" y="-1979.25" font-family="Helvetica,sans-Serif" font-size="10.00">showTabsContent($options=[])</text>
<text text-anchor="start" x="16.5" y="-1964.25" font-family="Helvetica,sans-Serif" font-size="10.00">+</text>
<text text-anchor="start" x="26.5" y="-1964.25" font-family="Helvetica,sans-Serif" font-size="10.00">getHeaderName()</text>
<text text-anchor="start" x="16.5" y="-1949.25" font-family="Helvetica,sans-Serif" font-size="10.00">+</text>
<text text-anchor="start" x="26.5" y="-1949.25" font-family="Helvetica,sans-Serif" font-size="10.00">display($options=[])</text>
<text text-anchor="start" x="16.5" y="-1934.25" font-family="Helvetica,sans-Serif" font-size="10.00">+</text>
<text text-anchor="start" x="26.5" y="-1934.25" font-family="Helvetica,sans-Serif" font-size="10.00">getErrorMessage($error,</text>
<text text-anchor="start" x="26.5" y="-1923" font-family="Helvetica,sans-Serif" font-size="10.00"> $object=&#39;&#39;)</text>
<text text-anchor="start" x="16.5" y="-1908.25" font-family="Helvetica,sans-Serif" font-size="10.00">+</text>
<text text-anchor="start" x="26.5" y="-1908.25" font-family="Helvetica,sans-Serif" font-size="10.00">static getTypeName</text>
<text text-anchor="start" x="26.5" y="-1897" font-family="Helvetica,sans-Serif" font-size="10.00">($nb=0)</text>
<text text-anchor="start" x="16.5" y="-1882.25" font-family="Helvetica,sans-Serif" font-size="10.00">+</text>
<text text-anchor="start" x="26.5" y="-1882.25" font-family="Helvetica,sans-Serif" font-size="10.00">static getFieldLabel()</text>
<text text-anchor="start" x="16.5" y="-1867.25" font-family="Helvetica,sans-Serif" font-size="10.00">+</text>
<text text-anchor="start" x="26.5" y="-1867.25" font-family="Helvetica,sans-Serif" font-size="10.00">static getType()</text>
<text text-anchor="start" x="16.5" y="-1852.25" font-family="Helvetica,sans-Serif" font-size="10.00">+</text>
<text text-anchor="start" x="26.5" y="-1852.25" font-family="Helvetica,sans-Serif" font-size="10.00">static canCreate()</text>
<text text-anchor="start" x="16.5" y="-1837.25" font-family="Helvetica,sans-Serif" font-size="10.00">+</text>
<text text-anchor="start" x="26.5" y="-1837.25" font-family="Helvetica,sans-Serif" font-size="10.00">static canView()</text>
<text text-anchor="start" x="16.5" y="-1822.25" font-family="Helvetica,sans-Serif" font-size="10.00">+</text>
<text text-anchor="start" x="26.5" y="-1822.25" font-family="Helvetica,sans-Serif" font-size="10.00">static canUpdate()</text>
<text text-anchor="start" x="16.5" y="-1807.25" font-family="Helvetica,sans-Serif" font-size="10.00">+</text>
<text text-anchor="start" x="26.5" y="-1807.25" font-family="Helvetica,sans-Serif" font-size="10.00">static canDelete()</text>
<text text-anchor="start" x="16.5" y="-1792.25" font-family="Helvetica,sans-Serif" font-size="10.00">+</text>
<text text-anchor="start" x="26.5" y="-1792.25" font-family="Helvetica,sans-Serif" font-size="10.00">static canPurge()</text>
<text text-anchor="start" x="16.5" y="-1777.25" font-family="Helvetica,sans-Serif" font-size="10.00">+</text>
<text text-anchor="start" x="26.5" y="-1777.25" font-family="Helvetica,sans-Serif" font-size="10.00">static registerStandardTab</text>
<text text-anchor="start" x="26.5" y="-1766" font-family="Helvetica,sans-Serif" font-size="10.00">($typeform, $typetab)</text>
<text text-anchor="start" x="16.5" y="-1751.25" font-family="Helvetica,sans-Serif" font-size="10.00">+</text>
<text text-anchor="start" x="26.5" y="-1751.25" font-family="Helvetica,sans-Serif" font-size="10.00">static getOtherTabs</text>
<text text-anchor="start" x="26.5" y="-1740" font-family="Helvetica,sans-Serif" font-size="10.00">($typeform)</text>
<text text-anchor="start" x="26.5" y="-1725.25" font-family="Helvetica,sans-Serif" font-size="10.00">et 17 de plus...</text>
<text text-anchor="start" x="16.88" y="-1710.25" font-family="Helvetica,sans-Serif" font-size="10.00">#</text>
<text text-anchor="start" x="26.5" y="-1710.25" font-family="Helvetica,sans-Serif" font-size="10.00">getFormHeaderToolbar()</text>
<polygon fill="#666666" stroke="#666666" points="12.5,-2225.75 12.5,-2225.75 163.5,-2225.75 163.5,-2225.75 12.5,-2225.75"/>
<polygon fill="#666666" stroke="#666666" points="12.5,-2150.75 12.5,-2150.75 24.5,-2150.75 24.5,-2150.75 12.5,-2150.75"/>
<polygon fill="#666666" stroke="#666666" points="24.5,-2150.75 24.5,-2150.75 163.5,-2150.75 163.5,-2150.75 24.5,-2150.75"/>
<polygon fill="none" stroke="#666666" points="12.5,-1704.75 12.5,-2242.75 163.5,-2242.75 163.5,-1704.75 12.5,-1704.75"/>
</a>
</g>
</g>
<!-- Node4&#45;&gt;Node3 -->
<g id="edge21_Node000003_Node000004" class="edge">
<title>Node4&#45;&gt;Node3</title>
<g id="a_edge21_Node000003_Node000004"><a xlink:title=" ">
<path fill="none" stroke="#63b8ff" d="M135.52,-1693.77C137.57,-1681.75 139.64,-1669.61 141.72,-1657.39"/>
<polygon fill="none" stroke="#63b8ff" points="132.13,-1692.83 133.9,-1703.28 139.03,-1694.01 132.13,-1692.83"/>
</a>
</g>
</g>
<!-- Node5 -->
<g id="Node000005" class="node">
<title>Node5</title>
<g id="a_Node000005"><a xlink:href="$interface_common_g_l_p_i_interface.html" xlink:title=" ">
<polygon fill="white" stroke="none" points="110,-2372.75 0,-2372.75 0,-2323.75 110,-2323.75 110,-2372.75"/>
<text text-anchor="start" x="4.75" y="-2359.25" font-family="Helvetica,sans-Serif" font-size="10.00">CommonGLPIInterface</text>
<text text-anchor="start" x="53.5" y="-2344.25" font-family="Helvetica,sans-Serif" font-size="10.00"> </text>
<text text-anchor="start" x="12.5" y="-2329.25" font-family="Helvetica,sans-Serif" font-size="10.00">+</text>
<text text-anchor="start" x="31" y="-2329.25" font-family="Helvetica,sans-Serif" font-size="10.00">__construct()</text>
<polygon fill="#666666" stroke="#666666" points="0,-2355.75 0,-2355.75 110,-2355.75 110,-2355.75 0,-2355.75"/>
<polygon fill="#666666" stroke="#666666" points="0,-2340.75 0,-2340.75 110,-2340.75 110,-2340.75 0,-2340.75"/>
<polygon fill="none" stroke="#666666" points="0,-2323.75 0,-2372.75 110,-2372.75 110,-2323.75 0,-2323.75"/>
</a>
</g>
</g>
<!-- Node5&#45;&gt;Node4 -->
<g id="edge22_Node000004_Node000005" class="edge">
<title>Node5&#45;&gt;Node4</title>
<g id="a_edge22_Node000004_Node000005"><a xlink:title=" ">
<path fill="none" stroke="#63b8ff" d="M58.08,-2312.53C59.7,-2294.2 61.86,-2269.86 64.27,-2242.62"/>
<polygon fill="none" stroke="#63b8ff" points="54.59,-2312.17 57.2,-2322.44 61.57,-2312.79 54.59,-2312.17"/>
</a>
</g>
</g>
<!-- Node6 -->
<g id="Node000006" class="node">
<title>Node6</title>
<g id="a_Node000006"><a xlink:title=" ">
<polygon fill="white" stroke="none" points="287,-2372.75 253,-2372.75 253,-2323.75 287,-2323.75 287,-2372.75"/>
<text text-anchor="start" x="258" y="-2359.25" font-family="Helvetica,sans-Serif" font-size="10.00">static</text>
<text text-anchor="start" x="268.5" y="-2344.25" font-family="Helvetica,sans-Serif" font-size="10.00"> </text>
<text text-anchor="start" x="268.5" y="-2329.25" font-family="Helvetica,sans-Serif" font-size="10.00"> </text>
<polygon fill="#666666" stroke="#666666" points="253,-2355.75 253,-2355.75 287,-2355.75 287,-2355.75 253,-2355.75"/>
<polygon fill="#666666" stroke="#666666" points="253,-2340.75 253,-2340.75 287,-2340.75 287,-2340.75 253,-2340.75"/>
<polygon fill="none" stroke="#666666" points="253,-2323.75 253,-2372.75 287,-2372.75 287,-2323.75 253,-2323.75"/>
</a>
</g>
</g>
<!-- Node6&#45;&gt;Node1 -->
<g id="edge27_Node000001_Node000006" class="edge">
<title>Node6&#45;&gt;Node1</title>
<g id="a_edge27_Node000001_Node000006"><a xlink:title=" ">
<path fill="none" stroke="#63b8ff" d="M286.91,-2335.31C296.7,-2327.73 308.69,-2317.2 317,-2305.75 411.11,-2176.04 460,-2135 460,-1974.75 460,-1974.75 460,-1974.75 460,-516 460,-413.44 444.1,-297.7 429.88,-214.72"/>
<polygon fill="none" stroke="#63b8ff" points="429.87,-214.66 424.9,-209.43 427.81,-202.84 432.78,-208.06 429.87,-214.66"/>
</a>
</g>
<text text-anchor="middle" x="488.5" y="-1251.62" font-family="Helvetica,sans-Serif" font-size="10.00" fill="grey"> +$rightname</text>
</g>
<!-- Node6&#45;&gt;Node2 -->
<g id="edge26_Node000002_Node000006" class="edge">
<title>Node6&#45;&gt;Node2</title>
<g id="a_edge26_Node000002_Node000006"><a xlink:title=" ">
<path fill="none" stroke="#63b8ff" d="M283.42,-2324.1C294.55,-2303.5 309.56,-2272.18 316,-2242.75 345.69,-2107.1 347.05,-1262.73 345.56,-807.74"/>
<polygon fill="none" stroke="#63b8ff" points="345.55,-807.63 341.53,-801.65 345.51,-795.63 349.53,-801.62 345.55,-807.63"/>
</a>
</g>
<text text-anchor="middle" x="369.5" y="-1677.25" font-family="Helvetica,sans-Serif" font-size="10.00" fill="grey"> +$rightname</text>
</g>
<!-- Node6&#45;&gt;Node3 -->
<g id="edge24_Node000003_Node000006" class="edge">
<title>Node6&#45;&gt;Node3</title>
<g id="a_edge24_Node000003_Node000006"><a xlink:title=" ">
<path fill="none" stroke="#63b8ff" d="M256.49,-2324.11C245.29,-2303.53 230.19,-2272.21 223.75,-2242.75 183.29,-2057.73 175.22,-1848.49 179.11,-1670.49"/>
<polygon fill="none" stroke="#63b8ff" points="179.11,-1670.36 175.26,-1664.27 179.4,-1658.36 183.25,-1664.46 179.11,-1670.36"/>
</a>
</g>
<text text-anchor="start" x="224" y="-2014.88" font-family="Helvetica,sans-Serif" font-size="10.00" fill="grey"> #$foreign_key_fields</text>
<text text-anchor="middle" x="270.12" y="-2003.62" font-family="Helvetica,sans-Serif" font-size="10.00" fill="grey">_of</text>
<text text-anchor="start" x="224" y="-1992.38" font-family="Helvetica,sans-Serif" font-size="10.00" fill="grey">#$forward_entity</text>
<text text-anchor="middle" x="270.12" y="-1981.12" font-family="Helvetica,sans-Serif" font-size="10.00" fill="grey">_to</text>
<text text-anchor="middle" x="270.12" y="-1969.88" font-family="Helvetica,sans-Serif" font-size="10.00" fill="grey">#$notable</text>
<text text-anchor="start" x="224" y="-1958.62" font-family="Helvetica,sans-Serif" font-size="10.00" fill="grey">#$plugins_forward</text>
<text text-anchor="middle" x="270.12" y="-1947.38" font-family="Helvetica,sans-Serif" font-size="10.00" fill="grey">_entity</text>
<text text-anchor="middle" x="270.12" y="-1936.12" font-family="Helvetica,sans-Serif" font-size="10.00" fill="grey">#$tables_of</text>
<text text-anchor="middle" x="270.12" y="-1924.88" font-family="Helvetica,sans-Serif" font-size="10.00" fill="grey">+$undisclosedFields</text>
</g>
<!-- Node6&#45;&gt;Node4 -->
<g id="edge23_Node000004_Node000006" class="edge">
<title>Node6&#45;&gt;Node4</title>
<g id="a_edge23_Node000004_Node000006"><a xlink:title=" ">
<path fill="none" stroke="#63b8ff" d="M253.15,-2345.99C212.19,-2342.55 109.3,-2331.48 88.75,-2305.75 80.31,-2295.19 74.95,-2277.33 71.82,-2255.22"/>
<polygon fill="none" stroke="#63b8ff" points="71.84,-2255.33 67.15,-2249.85 70.41,-2243.41 75.1,-2248.9 71.84,-2255.33"/>
</a>
</g>
<text text-anchor="middle" x="142.62" y="-2296.25" font-family="Helvetica,sans-Serif" font-size="10.00" fill="grey"> #$othertabs</text>
<text text-anchor="start" x="89" y="-2285" font-family="Helvetica,sans-Serif" font-size="10.00" fill="grey">#$showTitleInNavigation</text>
<text text-anchor="middle" x="142.62" y="-2273.75" font-family="Helvetica,sans-Serif" font-size="10.00" fill="grey">Header</text>
<text text-anchor="middle" x="142.62" y="-2262.5" font-family="Helvetica,sans-Serif" font-size="10.00" fill="grey">+$rightname</text>
</g>
<!-- Node7 -->
<g id="Node000007" class="node">
<title>Node7</title>
<g id="a_Node000007"><a xlink:title=" ">
<polygon fill="white" stroke="none" points="392,-1280 358,-1280 358,-1231 392,-1231 392,-1280"/>
<text text-anchor="start" x="363" y="-1266.5" font-family="Helvetica,sans-Serif" font-size="10.00">const</text>
<text text-anchor="start" x="373.5" y="-1251.5" font-family="Helvetica,sans-Serif" font-size="10.00"> </text>
<text text-anchor="start" x="373.5" y="-1236.5" font-family="Helvetica,sans-Serif" font-size="10.00"> </text>
<polygon fill="#666666" stroke="#666666" points="358,-1263 358,-1263 392,-1263 392,-1263 358,-1263"/>
<polygon fill="#666666" stroke="#666666" points="358,-1248 358,-1248 392,-1248 392,-1248 358,-1248"/>
<polygon fill="none" stroke="#666666" points="358,-1231 358,-1280 392,-1280 392,-1231 358,-1231"/>
</a>
</g>
</g>
<!-- Node7&#45;&gt;Node2 -->
<g id="edge25_Node000002_Node000007" class="edge">
<title>Node7&#45;&gt;Node2</title>
<g id="a_edge25_Node000002_Node000007"><a xlink:title=" ">
<path fill="none" stroke="#63b8ff" d="M374.02,-1231.24C371.28,-1166.03 363.25,-975.24 356.18,-807.39"/>
<polygon fill="none" stroke="#63b8ff" points="356.18,-807.47 351.94,-801.64 355.68,-795.48 359.93,-801.3 356.18,-807.47"/>
</a>
</g>
<text text-anchor="middle" x="396.88" y="-826" font-family="Helvetica,sans-Serif" font-size="10.00" fill="grey"> +MOVE_AFTER</text>
<text text-anchor="middle" x="396.88" y="-814.75" font-family="Helvetica,sans-Serif" font-size="10.00" fill="grey">+MOVE_BEFORE</text>
</g>
</g>
</svg>
