<?xml version="1.0" encoding="UTF-8" standalone="no"?>
<!DOCTYPE svg PUBLIC "-//W3C//DTD SVG 1.1//EN"
 "http://www.w3.org/Graphics/SVG/1.1/DTD/svg11.dtd">
<!-- Generated by graphviz version 10.0.1 (20240210.2158)
 -->
<!-- Title: doDisplay Pages: 1 -->
<svg width="394pt" height="349pt"
 viewBox="0.00 0.00 393.50 348.88" xmlns="http://www.w3.org/2000/svg" xmlns:xlink="http://www.w3.org/1999/xlink">
<g id="graph0" class="graph" transform="scale(1 1) rotate(0) translate(4 344.88)">
<title>doDisplay</title>
<!-- Node1 -->
<g id="Node000001" class="node">
<title>Node1</title>
<g id="a_Node000001"><a xlink:title=" ">
<polygon fill="#999999" stroke="#666666" points="59.5,-227.88 0,-227.88 0,-208.62 59.5,-208.62 59.5,-227.88"/>
<text text-anchor="middle" x="29.75" y="-214.38" font-family="Helvetica,sans-Serif" font-size="10.00">doDisplay</text>
</a>
</g>
</g>
<!-- Node2 -->
<g id="Node000002" class="node">
<title>Node2</title>
<g id="a_Node000002"><a xlink:href="$_core_extension_8php.html#adf5ce5c7b07db84385ba1338e106fc3b" xlink:title=" ">
<polygon fill="white" stroke="#666666" points="193.25,-340.88 95.5,-340.88 95.5,-321.62 193.25,-321.62 193.25,-340.88"/>
<text text-anchor="middle" x="144.38" y="-327.38" font-family="Helvetica,sans-Serif" font-size="10.00">_twig_default_filter</text>
</a>
</g>
</g>
<!-- Node1&#45;&gt;Node2 -->
<g id="edge39_Node000001_Node000002" class="edge">
<title>Node1&#45;&gt;Node2</title>
<g id="a_edge39_Node000001_Node000002"><a xlink:title=" ">
<path fill="none" stroke="#63b8ff" d="M35.92,-228.26C45.55,-246.12 67.81,-283.77 95.5,-307.25 99.17,-310.36 103.31,-313.2 107.59,-315.74"/>
<polygon fill="#63b8ff" stroke="#63b8ff" points="105.84,-318.77 116.3,-320.42 109.15,-312.6 105.84,-318.77"/>
</a>
</g>
</g>
<!-- Node3 -->
<g id="Node000003" class="node">
<title>Node3</title>
<g id="a_Node000003"><a xlink:href="$_core_extension_8php.html#ac345ab6a3d1194b2ac8ed45b678f9756" xlink:title=" ">
<polygon fill="white" stroke="#666666" points="351.38,-321.88 263.38,-321.88 263.38,-302.62 351.38,-302.62 351.38,-321.88"/>
<text text-anchor="middle" x="307.38" y="-308.38" font-family="Helvetica,sans-Serif" font-size="10.00">twig_test_empty</text>
</a>
</g>
</g>
<!-- Node1&#45;&gt;Node3 -->
<g id="edge57_Node000001_Node000003" class="edge">
<title>Node1&#45;&gt;Node3</title>
<g id="a_edge57_Node000001_Node000003"><a xlink:title=" ">
<path fill="none" stroke="#63b8ff" d="M39.24,-228.37C50.64,-241.24 72.17,-263.1 95.5,-274.25 145.11,-297.95 207.72,-306.95 251.79,-310.32"/>
<polygon fill="#63b8ff" stroke="#63b8ff" points="251.41,-313.81 261.63,-311 251.89,-306.82 251.41,-313.81"/>
</a>
</g>
</g>
<!-- Node4 -->
<g id="Node000004" class="node">
<title>Node4</title>
<g id="a_Node000004"><a xlink:href="$_core_extension_8php.html#a31028d0e894853c9f66384acfea8cc15" xlink:title=" ">
<polygon fill="white" stroke="#666666" points="182.75,-264.88 106,-264.88 106,-245.62 182.75,-245.62 182.75,-264.88"/>
<text text-anchor="middle" x="144.38" y="-251.38" font-family="Helvetica,sans-Serif" font-size="10.00">twig_constant</text>
</a>
</g>
</g>
<!-- Node1&#45;&gt;Node4 -->
<g id="edge41_Node000001_Node000004" class="edge">
<title>Node1&#45;&gt;Node4</title>
<g id="a_edge41_Node000001_Node000004"><a xlink:title=" ">
<path fill="none" stroke="#63b8ff" d="M59.75,-227.78C72.61,-232 87.97,-237.05 102,-241.66"/>
<polygon fill="#63b8ff" stroke="#63b8ff" points="100.86,-244.97 111.46,-244.76 103.05,-238.32 100.86,-244.97"/>
</a>
</g>
</g>
<!-- Node5 -->
<g id="Node000005" class="node">
<title>Node5</title>
<g id="a_Node000005"><a xlink:href="$_escaper_extension_8php.html#aabeb5b51fb981707d997d1c588d7c509" xlink:title=" ">
<polygon fill="white" stroke="#666666" points="191.75,-190.88 97,-190.88 97,-171.62 191.75,-171.62 191.75,-190.88"/>
<text text-anchor="middle" x="144.38" y="-177.38" font-family="Helvetica,sans-Serif" font-size="10.00">twig_escape_filter</text>
</a>
</g>
</g>
<!-- Node1&#45;&gt;Node5 -->
<g id="edge42_Node000001_Node000005" class="edge">
<title>Node1&#45;&gt;Node5</title>
<g id="a_edge42_Node000001_Node000005"><a xlink:title=" ">
<path fill="none" stroke="#63b8ff" d="M59.75,-208.72C72.61,-204.5 87.97,-199.45 102,-194.84"/>
<polygon fill="#63b8ff" stroke="#63b8ff" points="103.05,-198.18 111.46,-191.74 100.86,-191.53 103.05,-198.18"/>
</a>
</g>
</g>
<!-- Node9 -->
<g id="Node000009" class="node">
<title>Node9</title>
<g id="a_Node000009"><a xlink:href="$_core_extension_8php.html#aeb74e277ae38926f0b4c91f83c580705" xlink:title=" ">
<polygon fill="white" stroke="#666666" points="191,-153.88 97.75,-153.88 97.75,-134.62 191,-134.62 191,-153.88"/>
<text text-anchor="middle" x="144.38" y="-140.38" font-family="Helvetica,sans-Serif" font-size="10.00">twig_get_attribute</text>
</a>
</g>
</g>
<!-- Node1&#45;&gt;Node9 -->
<g id="edge46_Node000001_Node000009" class="edge">
<title>Node1&#45;&gt;Node9</title>
<g id="a_edge46_Node000001_Node000009"><a xlink:title=" ">
<path fill="none" stroke="#63b8ff" d="M39.99,-208.34C51.85,-196.1 73.53,-175.31 95.5,-162.25 97.39,-161.13 99.36,-160.05 101.38,-159.03"/>
<polygon fill="#63b8ff" stroke="#63b8ff" points="102.69,-162.28 110.35,-154.95 99.8,-155.9 102.69,-162.28"/>
</a>
</g>
</g>
<!-- Node11 -->
<g id="Node000011" class="node">
<title>Node11</title>
<g id="a_Node000011"><a xlink:href="$_core_extension_8php.html#a4505cf4718aff71887e0160fa1f15493" xlink:title=" ">
<polygon fill="white" stroke="#666666" points="179.38,-92.88 109.38,-92.88 109.38,-73.62 179.38,-73.62 179.38,-92.88"/>
<text text-anchor="middle" x="144.38" y="-79.38" font-family="Helvetica,sans-Serif" font-size="10.00">twig_include</text>
</a>
</g>
</g>
<!-- Node1&#45;&gt;Node11 -->
<g id="edge49_Node000001_Node000011" class="edge">
<title>Node1&#45;&gt;Node11</title>
<g id="a_edge49_Node000001_Node000011"><a xlink:title=" ">
<path fill="none" stroke="#63b8ff" d="M36.64,-208.17C47.24,-190.45 70.72,-152.97 95.5,-125.25 103.4,-116.41 113.08,-107.61 121.66,-100.36"/>
<polygon fill="#63b8ff" stroke="#63b8ff" points="123.73,-103.19 129.24,-94.14 119.29,-97.78 123.73,-103.19"/>
</a>
</g>
</g>
<!-- Node14 -->
<g id="Node000014" class="node">
<title>Node14</title>
<g id="a_Node000014"><a xlink:href="$_core_extension_8php.html#a58143cb7cfe98f1ef38883299f5c1dee" xlink:title=" ">
<polygon fill="white" stroke="#666666" points="180.12,-227.88 108.62,-227.88 108.62,-208.62 180.12,-208.62 180.12,-227.88"/>
<text text-anchor="middle" x="144.38" y="-214.38" font-family="Helvetica,sans-Serif" font-size="10.00">twig_random</text>
</a>
</g>
</g>
<!-- Node1&#45;&gt;Node14 -->
<g id="edge53_Node000001_Node000014" class="edge">
<title>Node1&#45;&gt;Node14</title>
<g id="a_edge53_Node000001_Node000014"><a xlink:title=" ">
<path fill="none" stroke="#63b8ff" d="M59.75,-218.25C71.13,-218.25 84.47,-218.25 97.11,-218.25"/>
<polygon fill="#63b8ff" stroke="#63b8ff" points="96.94,-221.75 106.93,-218.25 96.93,-214.75 96.94,-221.75"/>
</a>
</g>
</g>
<!-- Node2&#45;&gt;Node3 -->
<g id="edge40_Node000002_Node000003" class="edge">
<title>Node2&#45;&gt;Node3</title>
<g id="a_edge40_Node000002_Node000003"><a xlink:title=" ">
<path fill="none" stroke="#63b8ff" d="M193.68,-325.55C211.94,-323.39 232.84,-320.93 251.64,-318.71"/>
<polygon fill="#63b8ff" stroke="#63b8ff" points="252.01,-322.19 261.53,-317.54 251.19,-315.24 252.01,-322.19"/>
</a>
</g>
</g>
<!-- Node6 -->
<g id="Node000006" class="node">
<title>Node6</title>
<g id="a_Node000006"><a xlink:href="$class_twig_1_1_environment.html#abca2d528da8311b6fcfe040768cbaa24" xlink:title=" ">
<polygon fill="white" stroke="#666666" points="379.88,-227.88 234.88,-227.88 234.88,-208.62 379.88,-208.62 379.88,-227.88"/>
<text text-anchor="middle" x="307.38" y="-214.38" font-family="Helvetica,sans-Serif" font-size="10.00">Twig\Environment\getCharset</text>
</a>
</g>
</g>
<!-- Node5&#45;&gt;Node6 -->
<g id="edge43_Node000005_Node000006" class="edge">
<title>Node5&#45;&gt;Node6</title>
<g id="a_edge43_Node000005_Node000006"><a xlink:title=" ">
<path fill="none" stroke="#63b8ff" d="M189.37,-191.36C208.54,-195.77 231.21,-200.98 251.47,-205.63"/>
<polygon fill="#63b8ff" stroke="#63b8ff" points="250.43,-208.98 260.96,-207.81 252,-202.16 250.43,-208.98"/>
</a>
</g>
</g>
<!-- Node7 -->
<g id="Node000007" class="node">
<title>Node7</title>
<g id="a_Node000007"><a xlink:href="$class_twig_1_1_environment.html#a5023c2a5ed30e298f55126721092f13d" xlink:title=" ">
<polygon fill="white" stroke="#666666" points="384.38,-153.88 230.38,-153.88 230.38,-134.62 384.38,-134.62 384.38,-153.88"/>
<text text-anchor="middle" x="307.38" y="-140.38" font-family="Helvetica,sans-Serif" font-size="10.00">Twig\Environment\getExtension</text>
</a>
</g>
</g>
<!-- Node5&#45;&gt;Node7 -->
<g id="edge44_Node000005_Node000007" class="edge">
<title>Node5&#45;&gt;Node7</title>
<g id="a_edge44_Node000005_Node000007"><a xlink:title=" ">
<path fill="none" stroke="#63b8ff" d="M189.37,-171.14C208.54,-166.73 231.21,-161.52 251.47,-156.87"/>
<polygon fill="#63b8ff" stroke="#63b8ff" points="252,-160.34 260.96,-154.69 250.43,-153.52 252,-160.34"/>
</a>
</g>
</g>
<!-- Node8 -->
<g id="Node000008" class="node">
<title>Node8</title>
<g id="a_Node000008"><a xlink:href="$_core_extension_8php.html#ae288325a1d8fc4e036d1e828d7fac1f6" xlink:title=" ">
<polygon fill="white" stroke="#666666" points="365.25,-190.88 249.5,-190.88 249.5,-171.62 365.25,-171.62 365.25,-190.88"/>
<text text-anchor="middle" x="307.38" y="-177.38" font-family="Helvetica,sans-Serif" font-size="10.00">twig_convert_encoding</text>
</a>
</g>
</g>
<!-- Node5&#45;&gt;Node8 -->
<g id="edge45_Node000005_Node000008" class="edge">
<title>Node5&#45;&gt;Node8</title>
<g id="a_edge45_Node000005_Node000008"><a xlink:title=" ">
<path fill="none" stroke="#63b8ff" d="M191.94,-181.25C206.29,-181.25 222.4,-181.25 237.9,-181.25"/>
<polygon fill="#63b8ff" stroke="#63b8ff" points="237.53,-184.75 247.53,-181.25 237.53,-177.75 237.53,-184.75"/>
</a>
</g>
</g>
<!-- Node9&#45;&gt;Node7 -->
<g id="edge47_Node000009_Node000007" class="edge">
<title>Node9&#45;&gt;Node7</title>
<g id="a_edge47_Node000009_Node000007"><a xlink:title=" ">
<path fill="none" stroke="#63b8ff" d="M191.08,-144.25C199.83,-144.25 209.27,-144.25 218.83,-144.25"/>
<polygon fill="#63b8ff" stroke="#63b8ff" points="218.58,-147.75 228.58,-144.25 218.58,-140.75 218.58,-147.75"/>
</a>
</g>
</g>
<!-- Node10 -->
<g id="Node000010" class="node">
<title>Node10</title>
<g id="a_Node000010"><a xlink:href="$class_twig_1_1_environment.html#ab39d5897ee5022ecc92032d769b9c60c" xlink:title=" ">
<polygon fill="white" stroke="#666666" points="371.25,-116.5 243.5,-116.5 243.5,-86 371.25,-86 371.25,-116.5"/>
<text text-anchor="start" x="251.5" y="-103" font-family="Helvetica,sans-Serif" font-size="10.00">Twig\Environment\isStrict</text>
<text text-anchor="middle" x="307.38" y="-91.75" font-family="Helvetica,sans-Serif" font-size="10.00">Variables</text>
</a>
</g>
</g>
<!-- Node9&#45;&gt;Node10 -->
<g id="edge48_Node000009_Node000010" class="edge">
<title>Node9&#45;&gt;Node10</title>
<g id="a_edge48_Node000009_Node000010"><a xlink:title=" ">
<path fill="none" stroke="#63b8ff" d="M183.12,-134.17C199.05,-129.91 218.13,-124.82 236.46,-119.92"/>
<polygon fill="#63b8ff" stroke="#63b8ff" points="237.22,-123.34 245.98,-117.38 235.41,-116.58 237.22,-123.34"/>
</a>
</g>
</g>
<!-- Node11&#45;&gt;Node7 -->
<g id="edge50_Node000011_Node000007" class="edge">
<title>Node11&#45;&gt;Node7</title>
<g id="a_edge50_Node000011_Node000007"><a xlink:title=" ">
<path fill="none" stroke="#63b8ff" d="M162.54,-93.27C179.15,-102.62 205.26,-116.41 229.25,-125.25 234.99,-127.36 241.06,-129.32 247.17,-131.1"/>
<polygon fill="#63b8ff" stroke="#63b8ff" points="246.12,-134.44 256.69,-133.72 247.98,-127.69 246.12,-134.44"/>
</a>
</g>
</g>
<!-- Node12 -->
<g id="Node000012" class="node">
<title>Node12</title>
<g id="a_Node000012"><a xlink:href="$class_twig_1_1_environment.html#ab0312781e1ea827d5c22425f36ec2b40" xlink:title=" ">
<polygon fill="white" stroke="#666666" points="385.5,-67.88 229.25,-67.88 229.25,-48.62 385.5,-48.62 385.5,-67.88"/>
<text text-anchor="middle" x="307.38" y="-54.38" font-family="Helvetica,sans-Serif" font-size="10.00">Twig\Environment\hasExtension</text>
</a>
</g>
</g>
<!-- Node11&#45;&gt;Node12 -->
<g id="edge51_Node000011_Node000012" class="edge">
<title>Node11&#45;&gt;Node12</title>
<g id="a_edge51_Node000011_Node000012"><a xlink:title=" ">
<path fill="none" stroke="#63b8ff" d="M179.52,-77.95C194.35,-75.64 212.38,-72.85 230.12,-70.09"/>
<polygon fill="#63b8ff" stroke="#63b8ff" points="230.56,-73.56 239.91,-68.57 229.49,-66.65 230.56,-73.56"/>
</a>
</g>
</g>
<!-- Node13 -->
<g id="Node000013" class="node">
<title>Node13</title>
<g id="a_Node000013"><a xlink:href="$class_twig_1_1_environment.html#af1cc34fcbd8561be8a6075517d107630" xlink:title=" ">
<polygon fill="white" stroke="#666666" points="371.62,-30.5 243.12,-30.5 243.12,0 371.62,0 371.62,-30.5"/>
<text text-anchor="start" x="251.12" y="-17" font-family="Helvetica,sans-Serif" font-size="10.00">Twig\Environment\resolve</text>
<text text-anchor="middle" x="307.38" y="-5.75" font-family="Helvetica,sans-Serif" font-size="10.00">Template</text>
</a>
</g>
</g>
<!-- Node11&#45;&gt;Node13 -->
<g id="edge52_Node000011_Node000013" class="edge">
<title>Node11&#45;&gt;Node13</title>
<g id="a_edge52_Node000011_Node000013"><a xlink:title=" ">
<path fill="none" stroke="#63b8ff" d="M162.28,-73.21C178.92,-63.62 205.24,-49.19 229.25,-39.25 233.04,-37.68 236.96,-36.16 240.95,-34.69"/>
<polygon fill="#63b8ff" stroke="#63b8ff" points="241.88,-38.08 250.15,-31.45 239.56,-31.47 241.88,-38.08"/>
</a>
</g>
</g>
<!-- Node14&#45;&gt;Node6 -->
<g id="edge54_Node000014_Node000006" class="edge">
<title>Node14&#45;&gt;Node6</title>
<g id="a_edge54_Node000014_Node000006"><a xlink:title=" ">
<path fill="none" stroke="#63b8ff" d="M180.31,-218.25C192.99,-218.25 207.91,-218.25 222.97,-218.25"/>
<polygon fill="#63b8ff" stroke="#63b8ff" points="222.96,-221.75 232.96,-218.25 222.96,-214.75 222.96,-221.75"/>
</a>
</g>
</g>
<!-- Node14&#45;&gt;Node8 -->
<g id="edge55_Node000014_Node000008" class="edge">
<title>Node14&#45;&gt;Node8</title>
<g id="a_edge55_Node000014_Node000008"><a xlink:title=" ">
<path fill="none" stroke="#63b8ff" d="M180.31,-210.22C201.15,-205.43 228.06,-199.25 251.66,-193.82"/>
<polygon fill="#63b8ff" stroke="#63b8ff" points="252.15,-197.3 261.12,-191.65 250.59,-190.48 252.15,-197.3"/>
</a>
</g>
</g>
<!-- Node15 -->
<g id="Node000015" class="node">
<title>Node15</title>
<g id="a_Node000015"><a xlink:href="$_core_extension_8php.html#add6085b705776ea6e84cec0f1f6c6e8b" xlink:title=" ">
<polygon fill="white" stroke="#666666" points="344.62,-264.88 270.12,-264.88 270.12,-245.62 344.62,-245.62 344.62,-264.88"/>
<text text-anchor="middle" x="307.38" y="-251.38" font-family="Helvetica,sans-Serif" font-size="10.00">twig_to_array</text>
</a>
</g>
</g>
<!-- Node14&#45;&gt;Node15 -->
<g id="edge56_Node000014_Node000015" class="edge">
<title>Node14&#45;&gt;Node15</title>
<g id="a_edge56_Node000014_Node000015"><a xlink:title=" ">
<path fill="none" stroke="#63b8ff" d="M180.31,-226.28C203.25,-231.55 233.54,-238.51 258.69,-244.29"/>
<polygon fill="#63b8ff" stroke="#63b8ff" points="257.83,-247.68 268.36,-246.51 259.4,-240.86 257.83,-247.68"/>
</a>
</g>
</g>
</g>
</svg>
