<?xml version="1.0" encoding="UTF-8" standalone="no"?>
<!DOCTYPE svg PUBLIC "-//W3C//DTD SVG 1.1//EN"
 "http://www.w3.org/Graphics/SVG/1.1/DTD/svg11.dtd">
<!-- Generated by graphviz version 10.0.1 (20240210.2158)
 -->
<!-- Title: _putfonts Pages: 1 -->
<svg width="997pt" height="406pt"
 viewBox="0.00 0.00 996.50 406.41" xmlns="http://www.w3.org/2000/svg" xmlns:xlink="http://www.w3.org/1999/xlink">
<g id="graph0" class="graph" transform="scale(1 1) rotate(0) translate(4 402.41)">
<title>_putfonts</title>
<!-- Node1 -->
<g id="Node000001" class="node">
<title>Node1</title>
<g id="a_Node000001"><a xlink:title=" ">
<polygon fill="#999999" stroke="#666666" points="56.5,-220.43 0,-220.43 0,-201.18 56.5,-201.18 56.5,-220.43"/>
<text text-anchor="middle" x="28.25" y="-206.93" font-family="Helvetica,sans-Serif" font-size="10.00">_putfonts</text>
</a>
</g>
</g>
<!-- Node2 -->
<g id="Node000002" class="node">
<title>Node2</title>
<g id="a_Node000002"><a xlink:href="$class_t_c_p_d_f.html#a9aac8335bc5c820ae15de203116387ce" xlink:title=" ">
<polygon fill="white" stroke="#666666" points="390.38,-334.43 342.88,-334.43 342.88,-315.18 390.38,-315.18 390.38,-334.43"/>
<text text-anchor="middle" x="366.62" y="-320.93" font-family="Helvetica,sans-Serif" font-size="10.00">_getobj</text>
</a>
</g>
</g>
<!-- Node1&#45;&gt;Node2 -->
<g id="edge59_Node000001_Node000002" class="edge">
<title>Node1&#45;&gt;Node2</title>
<g id="a_edge59_Node000001_Node000002"><a xlink:title=" ">
<path fill="none" stroke="#63b8ff" d="M32.51,-220.8C39.68,-240.97 58.92,-286.3 92.5,-305.81 168.31,-349.86 276.68,-340.29 331.32,-331.51"/>
<polygon fill="#63b8ff" stroke="#63b8ff" points="331.69,-335 340.96,-329.86 330.51,-328.09 331.69,-335"/>
</a>
</g>
</g>
<!-- Node3 -->
<g id="Node000003" class="node">
<title>Node3</title>
<g id="a_Node000003"><a xlink:href="$class_t_c_p_d_f___s_t_a_t_i_c.html#a5e311abad71449e634216a5d897a65b6" xlink:title=" ">
<polygon fill="white" stroke="#666666" points="608.88,-389.06 488.62,-389.06 488.62,-358.56 608.88,-358.56 608.88,-389.06"/>
<text text-anchor="start" x="496.62" y="-375.56" font-family="Helvetica,sans-Serif" font-size="10.00">TCPDF_STATIC\empty</text>
<text text-anchor="middle" x="548.75" y="-364.31" font-family="Helvetica,sans-Serif" font-size="10.00">_string</text>
</a>
</g>
</g>
<!-- Node1&#45;&gt;Node3 -->
<g id="edge79_Node000001_Node000003" class="edge">
<title>Node1&#45;&gt;Node3</title>
<g id="a_edge79_Node000001_Node000003"><a xlink:title=" ">
<path fill="none" stroke="#63b8ff" d="M30.93,-220.75C35.62,-245.17 51.35,-308.09 92.5,-335.81 208.65,-414.05 381.15,-402.44 477.01,-387.7"/>
<polygon fill="#63b8ff" stroke="#63b8ff" points="477.5,-391.17 486.82,-386.13 476.39,-384.25 477.5,-391.17"/>
</a>
</g>
</g>
<!-- Node4 -->
<g id="Node000004" class="node">
<title>Node4</title>
<g id="a_Node000004"><a xlink:href="$class_t_c_p_d_f.html#a582f17e08e7b5db824cd1ec5c684eb4c" xlink:title=" ">
<polygon fill="white" stroke="#666666" points="213.12,-220.43 132.62,-220.43 132.62,-201.18 213.12,-201.18 213.12,-220.43"/>
<text text-anchor="middle" x="172.88" y="-206.93" font-family="Helvetica,sans-Serif" font-size="10.00">_getrawstream</text>
</a>
</g>
</g>
<!-- Node1&#45;&gt;Node4 -->
<g id="edge61_Node000001_Node000004" class="edge">
<title>Node1&#45;&gt;Node4</title>
<g id="a_edge61_Node000001_Node000004"><a xlink:title=" ">
<path fill="none" stroke="#63b8ff" d="M56.75,-210.81C74.93,-210.81 99.32,-210.81 120.97,-210.81"/>
<polygon fill="#63b8ff" stroke="#63b8ff" points="120.81,-214.31 130.81,-210.81 120.81,-207.31 120.81,-214.31"/>
</a>
</g>
</g>
<!-- Node10 -->
<g id="Node000010" class="node">
<title>Node10</title>
<g id="a_Node000010"><a xlink:href="$class_t_c_p_d_f___f_o_n_t_s.html#a6ce6116b2e19a72ffcdbab4fe688f84f" xlink:title=" ">
<polygon fill="white" stroke="#666666" points="248.38,-169.06 97.38,-169.06 97.38,-138.56 248.38,-138.56 248.38,-169.06"/>
<text text-anchor="start" x="105.38" y="-155.56" font-family="Helvetica,sans-Serif" font-size="10.00">TCPDF_FONTS\_getTrueType</text>
<text text-anchor="middle" x="172.88" y="-144.31" font-family="Helvetica,sans-Serif" font-size="10.00">FontSubset</text>
</a>
</g>
</g>
<!-- Node1&#45;&gt;Node10 -->
<g id="edge67_Node000001_Node000010" class="edge">
<title>Node1&#45;&gt;Node10</title>
<g id="a_edge67_Node000001_Node000010"><a xlink:title=" ">
<path fill="none" stroke="#63b8ff" d="M54.42,-200.75C73.13,-193.27 99.26,-182.83 122.13,-173.69"/>
<polygon fill="#63b8ff" stroke="#63b8ff" points="123.32,-176.98 131.3,-170.02 120.72,-170.48 123.32,-176.98"/>
</a>
</g>
</g>
<!-- Node15 -->
<g id="Node000015" class="node">
<title>Node15</title>
<g id="a_Node000015"><a xlink:href="$class_t_c_p_d_f.html#a6779d67dae49accb4cf7ab5847b11e81" xlink:title=" ">
<polygon fill="white" stroke="#666666" points="198.88,-296.43 146.88,-296.43 146.88,-277.18 198.88,-277.18 198.88,-296.43"/>
<text text-anchor="middle" x="172.88" y="-282.93" font-family="Helvetica,sans-Serif" font-size="10.00">_newobj</text>
</a>
</g>
</g>
<!-- Node1&#45;&gt;Node15 -->
<g id="edge72_Node000001_Node000015" class="edge">
<title>Node1&#45;&gt;Node15</title>
<g id="a_edge72_Node000001_Node000015"><a xlink:title=" ">
<path fill="none" stroke="#63b8ff" d="M38.65,-220.61C50.29,-232.22 71.19,-251.42 92.5,-262.81 105.92,-269.98 121.8,-275.33 135.81,-279.13"/>
<polygon fill="#63b8ff" stroke="#63b8ff" points="134.55,-282.42 145.1,-281.48 136.26,-275.63 134.55,-282.42"/>
</a>
</g>
</g>
<!-- Node16 -->
<g id="Node000016" class="node">
<title>Node16</title>
<g id="a_Node000016"><a xlink:href="$class_t_c_p_d_f.html#a01627a8b7ad5c79ee736572b3d2ef3f5" xlink:title=" ">
<polygon fill="white" stroke="#666666" points="384,-296.43 349.25,-296.43 349.25,-277.18 384,-277.18 384,-296.43"/>
<text text-anchor="middle" x="366.62" y="-282.93" font-family="Helvetica,sans-Serif" font-size="10.00">_out</text>
</a>
</g>
</g>
<!-- Node1&#45;&gt;Node16 -->
<g id="edge78_Node000001_Node000016" class="edge">
<title>Node1&#45;&gt;Node16</title>
<g id="a_edge78_Node000001_Node000016"><a xlink:title=" ">
<path fill="none" stroke="#63b8ff" d="M56.82,-219.65C67.85,-223.04 80.72,-226.82 92.5,-229.81 181.41,-252.4 288.25,-272.76 337.83,-281.83"/>
<polygon fill="#63b8ff" stroke="#63b8ff" points="336.93,-285.22 347.39,-283.56 338.18,-278.33 336.93,-285.22"/>
</a>
</g>
</g>
<!-- Node20 -->
<g id="Node000020" class="node">
<title>Node20</title>
<g id="a_Node000020"><a xlink:href="$class_t_c_p_d_f.html#a5afab85a7aaf19395f9a0e86cae76928" xlink:title=" ">
<polygon fill="white" stroke="#666666" points="191.38,-120.43 154.38,-120.43 154.38,-101.18 191.38,-101.18 191.38,-120.43"/>
<text text-anchor="middle" x="172.88" y="-106.93" font-family="Helvetica,sans-Serif" font-size="10.00">Error</text>
</a>
</g>
</g>
<!-- Node1&#45;&gt;Node20 -->
<g id="edge80_Node000001_Node000020" class="edge">
<title>Node1&#45;&gt;Node20</title>
<g id="a_edge80_Node000001_Node000020"><a xlink:title=" ">
<path fill="none" stroke="#63b8ff" d="M34.15,-200.82C43.18,-183.5 64.14,-148.05 92.5,-129.81 107.51,-120.16 126.95,-115.41 142.84,-113.07"/>
<polygon fill="#63b8ff" stroke="#63b8ff" points="143.15,-116.56 152.66,-111.89 142.32,-109.6 143.15,-116.56"/>
</a>
</g>
</g>
<!-- Node25 -->
<g id="Node000025" class="node">
<title>Node25</title>
<g id="a_Node000025"><a xlink:href="$class_t_c_p_d_f.html#a90647c778bef4bd0329a254d3bc155c3" xlink:title=" ">
<polygon fill="white" stroke="#666666" points="210.5,-46.43 135.25,-46.43 135.25,-27.18 210.5,-27.18 210.5,-46.43"/>
<text text-anchor="middle" x="172.88" y="-32.93" font-family="Helvetica,sans-Serif" font-size="10.00">getFontBuffer</text>
</a>
</g>
</g>
<!-- Node1&#45;&gt;Node25 -->
<g id="edge85_Node000001_Node000025" class="edge">
<title>Node1&#45;&gt;Node25</title>
<g id="a_edge85_Node000001_Node000025"><a xlink:title=" ">
<path fill="none" stroke="#63b8ff" d="M30.16,-200.96C33.25,-173.31 45.95,-94.36 92.5,-54.81 101.3,-47.33 112.58,-42.79 123.85,-40.08"/>
<polygon fill="#63b8ff" stroke="#63b8ff" points="124.38,-43.54 133.54,-38.22 123.06,-36.67 124.38,-43.54"/>
</a>
</g>
</g>
<!-- Node26 -->
<g id="Node000026" class="node">
<title>Node26</title>
<g id="a_Node000026"><a xlink:href="$class_t_c_p_d_f___f_o_n_t_s.html#a32394898b8badb214439dd0781b011cd" xlink:title=" ">
<polygon fill="white" stroke="#666666" points="253.25,-83.43 92.5,-83.43 92.5,-64.18 253.25,-64.18 253.25,-83.43"/>
<text text-anchor="middle" x="172.88" y="-69.93" font-family="Helvetica,sans-Serif" font-size="10.00">TCPDF_FONTS\getFontFullPath</text>
</a>
</g>
</g>
<!-- Node1&#45;&gt;Node26 -->
<g id="edge86_Node000001_Node000026" class="edge">
<title>Node1&#45;&gt;Node26</title>
<g id="a_edge86_Node000001_Node000026"><a xlink:title=" ">
<path fill="none" stroke="#63b8ff" d="M31.49,-200.99C37.28,-178.01 54.95,-120.51 92.5,-91.81 93.67,-90.92 94.87,-90.07 96.11,-89.26"/>
<polygon fill="#63b8ff" stroke="#63b8ff" points="97.67,-92.39 104.78,-84.54 94.33,-86.24 97.67,-92.39"/>
</a>
</g>
</g>
<!-- Node2&#45;&gt;Node3 -->
<g id="edge60_Node000002_Node000003" class="edge">
<title>Node2&#45;&gt;Node3</title>
<g id="a_edge60_Node000002_Node000003"><a xlink:title=" ">
<path fill="none" stroke="#63b8ff" d="M390.8,-331.11C413.16,-337.2 448.11,-346.7 479.35,-355.2"/>
<polygon fill="#63b8ff" stroke="#63b8ff" points="478.2,-358.52 488.77,-357.76 480.04,-351.76 478.2,-358.52"/>
</a>
</g>
</g>
<!-- Node5 -->
<g id="Node000005" class="node">
<title>Node5</title>
<g id="a_Node000005"><a xlink:href="$class_t_c_p_d_f.html#a6a21d65a3e760b79009815dac484e466" xlink:title=" ">
<polygon fill="white" stroke="#666666" points="405.38,-233.43 327.88,-233.43 327.88,-214.18 405.38,-214.18 405.38,-233.43"/>
<text text-anchor="middle" x="366.62" y="-219.93" font-family="Helvetica,sans-Serif" font-size="10.00">_encrypt_data</text>
</a>
</g>
</g>
<!-- Node4&#45;&gt;Node5 -->
<g id="edge62_Node000004_Node000005" class="edge">
<title>Node4&#45;&gt;Node5</title>
<g id="a_edge62_Node000004_Node000005"><a xlink:title=" ">
<path fill="none" stroke="#63b8ff" d="M213.61,-213.5C243.4,-215.52 284.37,-218.3 316.27,-220.46"/>
<polygon fill="#63b8ff" stroke="#63b8ff" points="315.85,-223.94 326.07,-221.13 316.33,-216.96 315.85,-223.94"/>
</a>
</g>
</g>
<!-- Node6 -->
<g id="Node000006" class="node">
<title>Node6</title>
<g id="a_Node000006"><a xlink:href="$class_t_c_p_d_f___s_t_a_t_i_c.html#ac9917f8a2a7d6904984641db634a2133" xlink:title=" ">
<polygon fill="white" stroke="#666666" points="608.12,-229.43 489.38,-229.43 489.38,-210.18 608.12,-210.18 608.12,-229.43"/>
<text text-anchor="middle" x="548.75" y="-215.93" font-family="Helvetica,sans-Serif" font-size="10.00">TCPDF_STATIC\_AES</text>
</a>
</g>
</g>
<!-- Node5&#45;&gt;Node6 -->
<g id="edge63_Node000005_Node000006" class="edge">
<title>Node5&#45;&gt;Node6</title>
<g id="a_edge63_Node000005_Node000006"><a xlink:title=" ">
<path fill="none" stroke="#63b8ff" d="M405.82,-222.96C426.69,-222.5 453.18,-221.91 477.61,-221.37"/>
<polygon fill="#63b8ff" stroke="#63b8ff" points="477.6,-224.87 487.52,-221.15 477.45,-217.87 477.6,-224.87"/>
</a>
</g>
</g>
<!-- Node7 -->
<g id="Node000007" class="node">
<title>Node7</title>
<g id="a_Node000007"><a xlink:href="$class_t_c_p_d_f.html#a8f84276acc4ac4049af451cc3f534144" xlink:title=" ">
<polygon fill="white" stroke="#666666" points="580.38,-192.43 517.12,-192.43 517.12,-173.18 580.38,-173.18 580.38,-192.43"/>
<text text-anchor="middle" x="548.75" y="-178.93" font-family="Helvetica,sans-Serif" font-size="10.00">_objectkey</text>
</a>
</g>
</g>
<!-- Node5&#45;&gt;Node7 -->
<g id="edge64_Node000005_Node000007" class="edge">
<title>Node5&#45;&gt;Node7</title>
<g id="a_edge64_Node000005_Node000007"><a xlink:title=" ">
<path fill="none" stroke="#63b8ff" d="M405.82,-215.11C435.13,-208.44 475.54,-199.24 505.75,-192.37"/>
<polygon fill="#63b8ff" stroke="#63b8ff" points="506.34,-195.83 515.31,-190.19 504.78,-189 506.34,-195.83"/>
</a>
</g>
</g>
<!-- Node9 -->
<g id="Node000009" class="node">
<title>Node9</title>
<g id="a_Node000009"><a xlink:href="$class_t_c_p_d_f___s_t_a_t_i_c.html#a9aa40476c93ae6a84d4e6157576baf28" xlink:title=" ">
<polygon fill="white" stroke="#666666" points="608.12,-155.43 489.38,-155.43 489.38,-136.18 608.12,-136.18 608.12,-155.43"/>
<text text-anchor="middle" x="548.75" y="-141.93" font-family="Helvetica,sans-Serif" font-size="10.00">TCPDF_STATIC\_RC4</text>
</a>
</g>
</g>
<!-- Node5&#45;&gt;Node9 -->
<g id="edge66_Node000005_Node000009" class="edge">
<title>Node5&#45;&gt;Node9</title>
<g id="a_edge66_Node000005_Node000009"><a xlink:title=" ">
<path fill="none" stroke="#63b8ff" d="M405.57,-219.72C418.45,-217.1 432.48,-212.82 444,-205.81 465,-193.03 459.18,-176.89 480,-163.81 481.89,-162.62 483.86,-161.51 485.89,-160.47"/>
<polygon fill="#63b8ff" stroke="#63b8ff" points="487.26,-163.69 495.01,-156.47 484.45,-157.28 487.26,-163.69"/>
</a>
</g>
</g>
<!-- Node8 -->
<g id="Node000008" class="node">
<title>Node8</title>
<g id="a_Node000008"><a xlink:href="$class_t_c_p_d_f___s_t_a_t_i_c.html#a62729a9ca83528c7ba9b6c849b9c7fca" xlink:title=" ">
<polygon fill="white" stroke="#666666" points="787.62,-192.43 654.62,-192.43 654.62,-173.18 787.62,-173.18 787.62,-192.43"/>
<text text-anchor="middle" x="721.12" y="-178.93" font-family="Helvetica,sans-Serif" font-size="10.00">TCPDF_STATIC\_md5_16</text>
</a>
</g>
</g>
<!-- Node7&#45;&gt;Node8 -->
<g id="edge65_Node000007_Node000008" class="edge">
<title>Node7&#45;&gt;Node8</title>
<g id="a_edge65_Node000007_Node000008"><a xlink:title=" ">
<path fill="none" stroke="#63b8ff" d="M580.6,-182.81C598.08,-182.81 620.79,-182.81 642.79,-182.81"/>
<polygon fill="#63b8ff" stroke="#63b8ff" points="642.69,-186.31 652.69,-182.81 642.69,-179.31 642.69,-186.31"/>
</a>
</g>
</g>
<!-- Node11 -->
<g id="Node000011" class="node">
<title>Node11</title>
<g id="a_Node000011"><a xlink:href="$class_t_c_p_d_f___s_t_a_t_i_c.html#a648f3daf0f9d8da3c0248be91a1bb5c8" xlink:title=" ">
<polygon fill="white" stroke="#666666" points="435.75,-196.43 297.5,-196.43 297.5,-177.18 435.75,-177.18 435.75,-196.43"/>
<text text-anchor="middle" x="366.62" y="-182.93" font-family="Helvetica,sans-Serif" font-size="10.00">TCPDF_STATIC\_getBYTE</text>
</a>
</g>
</g>
<!-- Node10&#45;&gt;Node11 -->
<g id="edge68_Node000010_Node000011" class="edge">
<title>Node10&#45;&gt;Node11</title>
<g id="a_edge68_Node000010_Node000011"><a xlink:title=" ">
<path fill="none" stroke="#63b8ff" d="M248.83,-166.71C264.39,-169.39 280.71,-172.2 296.06,-174.84"/>
<polygon fill="#63b8ff" stroke="#63b8ff" points="295.1,-178.22 305.55,-176.47 296.29,-171.32 295.1,-178.22"/>
</a>
</g>
</g>
<!-- Node12 -->
<g id="Node000012" class="node">
<title>Node12</title>
<g id="a_Node000012"><a xlink:href="$class_t_c_p_d_f___s_t_a_t_i_c.html#af5271480c3819ce2710298447e8a20fb" xlink:title=" ">
<polygon fill="white" stroke="#666666" points="440.25,-159.43 293,-159.43 293,-140.18 440.25,-140.18 440.25,-159.43"/>
<text text-anchor="middle" x="366.62" y="-145.93" font-family="Helvetica,sans-Serif" font-size="10.00">TCPDF_STATIC\_getSHORT</text>
</a>
</g>
</g>
<!-- Node10&#45;&gt;Node12 -->
<g id="edge69_Node000010_Node000012" class="edge">
<title>Node10&#45;&gt;Node12</title>
<g id="a_edge69_Node000010_Node000012"><a xlink:title=" ">
<path fill="none" stroke="#63b8ff" d="M248.83,-152.25C259.51,-152.02 270.56,-151.79 281.4,-151.57"/>
<polygon fill="#63b8ff" stroke="#63b8ff" points="281.17,-155.07 291.09,-151.36 281.02,-148.07 281.17,-155.07"/>
</a>
</g>
</g>
<!-- Node13 -->
<g id="Node000013" class="node">
<title>Node13</title>
<g id="a_Node000013"><a xlink:href="$class_t_c_p_d_f___s_t_a_t_i_c.html#ac591c1e85f9199e86065507ebf59cb56" xlink:title=" ">
<polygon fill="white" stroke="#666666" points="440.25,-122.43 293,-122.43 293,-103.18 440.25,-103.18 440.25,-122.43"/>
<text text-anchor="middle" x="366.62" y="-108.93" font-family="Helvetica,sans-Serif" font-size="10.00">TCPDF_STATIC\_getULONG</text>
</a>
</g>
</g>
<!-- Node10&#45;&gt;Node13 -->
<g id="edge70_Node000010_Node000013" class="edge">
<title>Node10&#45;&gt;Node13</title>
<g id="a_edge70_Node000010_Node000013"><a xlink:title=" ">
<path fill="none" stroke="#63b8ff" d="M247.46,-138.07C267.32,-133.83 288.53,-129.29 307.42,-125.25"/>
<polygon fill="#63b8ff" stroke="#63b8ff" points="308.02,-128.7 317.07,-123.19 306.56,-121.86 308.02,-128.7"/>
</a>
</g>
</g>
<!-- Node14 -->
<g id="Node000014" class="node">
<title>Node14</title>
<g id="a_Node000014"><a xlink:href="$class_t_c_p_d_f___s_t_a_t_i_c.html#a076dbffd71ecb95b1d5502f6d72d9ebf" xlink:title=" ">
<polygon fill="white" stroke="#666666" points="444,-85.43 289.25,-85.43 289.25,-66.18 444,-66.18 444,-85.43"/>
<text text-anchor="middle" x="366.62" y="-71.93" font-family="Helvetica,sans-Serif" font-size="10.00">TCPDF_STATIC\_getUSHORT</text>
</a>
</g>
</g>
<!-- Node10&#45;&gt;Node14 -->
<g id="edge71_Node000010_Node000014" class="edge">
<title>Node10&#45;&gt;Node14</title>
<g id="a_edge71_Node000010_Node000014"><a xlink:title=" ">
<path fill="none" stroke="#63b8ff" d="M236.25,-138.22C242.17,-135.78 247.94,-132.99 253.25,-129.81 272.66,-118.18 269.48,-104.82 289.25,-93.81 291.75,-92.42 294.35,-91.13 297.02,-89.94"/>
<polygon fill="#63b8ff" stroke="#63b8ff" points="298.14,-93.27 306.2,-86.39 295.61,-86.74 298.14,-93.27"/>
</a>
</g>
</g>
<!-- Node15&#45;&gt;Node2 -->
<g id="edge73_Node000015_Node000002" class="edge">
<title>Node15&#45;&gt;Node2</title>
<g id="a_edge73_Node000015_Node000002"><a xlink:title=" ">
<path fill="none" stroke="#63b8ff" d="M199.34,-291.85C233.31,-298.59 293.58,-310.53 331.47,-318.04"/>
<polygon fill="#63b8ff" stroke="#63b8ff" points="330.49,-321.41 340.98,-319.92 331.85,-314.55 330.49,-321.41"/>
</a>
</g>
</g>
<!-- Node15&#45;&gt;Node16 -->
<g id="edge74_Node000015_Node000016" class="edge">
<title>Node15&#45;&gt;Node16</title>
<g id="a_edge74_Node000015_Node000016"><a xlink:title=" ">
<path fill="none" stroke="#63b8ff" d="M199.34,-286.81C235.13,-286.81 300.08,-286.81 337.34,-286.81"/>
<polygon fill="#63b8ff" stroke="#63b8ff" points="337.31,-290.31 347.31,-286.81 337.31,-283.31 337.31,-290.31"/>
</a>
</g>
</g>
<!-- Node17 -->
<g id="Node000017" class="node">
<title>Node17</title>
<g id="a_Node000017"><a xlink:href="$class_t_c_p_d_f.html#a2f0c138e82371b95c3899451a330da05" xlink:title=" ">
<polygon fill="white" stroke="#666666" points="587.88,-340.43 509.62,-340.43 509.62,-321.18 587.88,-321.18 587.88,-340.43"/>
<text text-anchor="middle" x="548.75" y="-326.93" font-family="Helvetica,sans-Serif" font-size="10.00">getPageBuffer</text>
</a>
</g>
</g>
<!-- Node16&#45;&gt;Node17 -->
<g id="edge75_Node000016_Node000017" class="edge">
<title>Node16&#45;&gt;Node17</title>
<g id="a_edge75_Node000016_Node000017"><a xlink:title=" ">
<path fill="none" stroke="#63b8ff" d="M384.25,-290.87C409.93,-297.14 460.27,-309.44 498.34,-318.74"/>
<polygon fill="#63b8ff" stroke="#63b8ff" points="497.2,-322.06 507.75,-321.04 498.87,-315.26 497.2,-322.06"/>
</a>
</g>
</g>
<!-- Node18 -->
<g id="Node000018" class="node">
<title>Node18</title>
<g id="a_Node000018"><a xlink:href="$class_t_c_p_d_f.html#ac43455b74ede7e3f1d7558feb764eb6f" xlink:title=" ">
<polygon fill="white" stroke="#666666" points="576.62,-303.43 520.88,-303.43 520.88,-284.18 576.62,-284.18 576.62,-303.43"/>
<text text-anchor="middle" x="548.75" y="-289.93" font-family="Helvetica,sans-Serif" font-size="10.00">setBuffer</text>
</a>
</g>
</g>
<!-- Node16&#45;&gt;Node18 -->
<g id="edge76_Node000016_Node000018" class="edge">
<title>Node16&#45;&gt;Node18</title>
<g id="a_edge76_Node000016_Node000018"><a xlink:title=" ">
<path fill="none" stroke="#63b8ff" d="M384.25,-287.45C412.43,-288.55 470.28,-290.8 509.05,-292.3"/>
<polygon fill="#63b8ff" stroke="#63b8ff" points="508.78,-295.8 518.9,-292.69 509.05,-288.8 508.78,-295.8"/>
</a>
</g>
</g>
<!-- Node19 -->
<g id="Node000019" class="node">
<title>Node19</title>
<g id="a_Node000019"><a xlink:href="$class_t_c_p_d_f.html#af4d8e4aed525c0bded587be897297a7f" xlink:title=" ">
<polygon fill="white" stroke="#666666" points="587.88,-266.43 509.62,-266.43 509.62,-247.18 587.88,-247.18 587.88,-266.43"/>
<text text-anchor="middle" x="548.75" y="-252.93" font-family="Helvetica,sans-Serif" font-size="10.00">setPageBuffer</text>
</a>
</g>
</g>
<!-- Node16&#45;&gt;Node19 -->
<g id="edge77_Node000016_Node000019" class="edge">
<title>Node16&#45;&gt;Node19</title>
<g id="a_edge77_Node000016_Node000019"><a xlink:title=" ">
<path fill="none" stroke="#63b8ff" d="M384.25,-284.04C409.93,-279.76 460.27,-271.38 498.34,-265.04"/>
<polygon fill="#63b8ff" stroke="#63b8ff" points="498.44,-268.57 507.73,-263.47 497.29,-261.67 498.44,-268.57"/>
</a>
</g>
</g>
<!-- Node21 -->
<g id="Node000021" class="node">
<title>Node21</title>
<g id="a_Node000021"><a xlink:href="$class_t_c_p_d_f.html#a3f1223ef6da2a75d708d2cf17129e35a" xlink:title=" ">
<polygon fill="white" stroke="#666666" points="393.38,-48.43 339.88,-48.43 339.88,-29.18 393.38,-29.18 393.38,-48.43"/>
<text text-anchor="middle" x="366.62" y="-34.93" font-family="Helvetica,sans-Serif" font-size="10.00">_destroy</text>
</a>
</g>
</g>
<!-- Node20&#45;&gt;Node21 -->
<g id="edge81_Node000020_Node000021" class="edge">
<title>Node20&#45;&gt;Node21</title>
<g id="a_edge81_Node000020_Node000021"><a xlink:title=" ">
<path fill="none" stroke="#63b8ff" d="M191.59,-109.62C208.37,-107.87 233.83,-103.53 253.25,-92.81 273.06,-81.88 269.48,-67.82 289.25,-56.81 301.21,-50.14 315.56,-45.93 328.58,-43.28"/>
<polygon fill="#63b8ff" stroke="#63b8ff" points="328.85,-46.79 338.08,-41.6 327.63,-39.9 328.85,-46.79"/>
</a>
</g>
</g>
<!-- Node22 -->
<g id="Node000022" class="node">
<title>Node22</title>
<g id="a_Node000022"><a xlink:href="$class_t_c_p_d_f___s_t_a_t_i_c.html#a9e14c837e0fcb7de0b1b272f5b2384f7" xlink:title=" ">
<polygon fill="white" stroke="#666666" points="617.5,-29.43 480,-29.43 480,-10.18 617.5,-10.18 617.5,-29.43"/>
<text text-anchor="middle" x="548.75" y="-15.93" font-family="Helvetica,sans-Serif" font-size="10.00">TCPDF_STATIC\file_exists</text>
</a>
</g>
</g>
<!-- Node21&#45;&gt;Node22 -->
<g id="edge82_Node000021_Node000022" class="edge">
<title>Node21&#45;&gt;Node22</title>
<g id="a_edge82_Node000021_Node000022"><a xlink:title=" ">
<path fill="none" stroke="#63b8ff" d="M393.82,-36.05C413.45,-33.97 441.44,-31.02 468.17,-28.2"/>
<polygon fill="#63b8ff" stroke="#63b8ff" points="468.44,-31.69 478.02,-27.16 467.7,-24.73 468.44,-31.69"/>
</a>
</g>
</g>
<!-- Node23 -->
<g id="Node000023" class="node">
<title>Node23</title>
<g id="a_Node000023"><a xlink:href="$class_t_c_p_d_f___s_t_a_t_i_c.html#adeb9b51fef0b87a0befbdbb11e85f39b" xlink:title=" ">
<polygon fill="white" stroke="#666666" points="788.75,-29.43 653.5,-29.43 653.5,-10.18 788.75,-10.18 788.75,-29.43"/>
<text text-anchor="middle" x="721.12" y="-15.93" font-family="Helvetica,sans-Serif" font-size="10.00">TCPDF_STATIC\url_exists</text>
</a>
</g>
</g>
<!-- Node22&#45;&gt;Node23 -->
<g id="edge83_Node000022_Node000023" class="edge">
<title>Node22&#45;&gt;Node23</title>
<g id="a_edge83_Node000022_Node000023"><a xlink:title=" ">
<path fill="none" stroke="#63b8ff" d="M617.58,-19.81C625.52,-19.81 633.68,-19.81 641.76,-19.81"/>
<polygon fill="#63b8ff" stroke="#63b8ff" points="641.57,-23.31 651.57,-19.81 641.57,-16.31 641.57,-23.31"/>
</a>
</g>
</g>
<!-- Node24 -->
<g id="Node000024" class="node">
<title>Node24</title>
<g id="a_Node000024"><a xlink:href="$class_t_c_p_d_f___s_t_a_t_i_c.html#a79813ccb2446fdc8ec2b1a1f346a3809" xlink:title=" ">
<polygon fill="white" stroke="#666666" points="988.5,-29.43 824.75,-29.43 824.75,-10.18 988.5,-10.18 988.5,-29.43"/>
<text text-anchor="middle" x="906.62" y="-15.93" font-family="Helvetica,sans-Serif" font-size="10.00">TCPDF_STATIC\encodeUrlQuery</text>
</a>
</g>
</g>
<!-- Node23&#45;&gt;Node24 -->
<g id="edge84_Node000023_Node000024" class="edge">
<title>Node23&#45;&gt;Node24</title>
<g id="a_edge84_Node000023_Node000024"><a xlink:title=" ">
<path fill="none" stroke="#63b8ff" d="M789.15,-19.81C796.95,-19.81 805,-19.81 813.06,-19.81"/>
<polygon fill="#63b8ff" stroke="#63b8ff" points="812.92,-23.31 822.92,-19.81 812.92,-16.31 812.92,-23.31"/>
</a>
</g>
</g>
<!-- Node26&#45;&gt;Node22 -->
<g id="edge87_Node000026_Node000022" class="edge">
<title>Node26&#45;&gt;Node22</title>
<g id="a_edge87_Node000026_Node000022"><a xlink:title=" ">
<path fill="none" stroke="#63b8ff" d="M234.58,-63.82C241.08,-61.65 247.44,-59.02 253.25,-55.81 273.06,-44.88 268.34,-28.47 289.25,-19.81 354.67,7.29 437.64,0.98 491.68,-7.84"/>
<polygon fill="#63b8ff" stroke="#63b8ff" points="490.81,-11.24 501.26,-9.49 492,-4.35 490.81,-11.24"/>
</a>
</g>
</g>
</g>
</svg>
