<?xml version="1.0" encoding="UTF-8" standalone="no"?>
<!DOCTYPE svg PUBLIC "-//W3C//DTD SVG 1.1//EN"
 "http://www.w3.org/Graphics/SVG/1.1/DTD/svg11.dtd">
<!-- Generated by graphviz version 10.0.1 (20240210.2158)
 -->
<!-- Title: UnicodeString Pages: 1 -->
<svg width="179pt" height="1328pt"
 viewBox="0.00 0.00 179.00 1328.00" xmlns="http://www.w3.org/2000/svg" xmlns:xlink="http://www.w3.org/1999/xlink">
<g id="graph0" class="graph" transform="scale(1 1) rotate(0) translate(4 1324)">
<title>UnicodeString</title>
<!-- Node1 -->
<g id="Node000001" class="node">
<title>Node1</title>
<g id="a_Node000001"><a xlink:title=" ">
<polygon fill="#999999" stroke="none" points="142,-265 29,-265 29,0 142,0 142,-265"/>
<text text-anchor="start" x="54.75" y="-251.5" font-family="Helvetica,sans-Serif" font-size="10.00">UnicodeString</text>
<text text-anchor="start" x="84" y="-236.5" font-family="Helvetica,sans-Serif" font-size="10.00"> </text>
<text text-anchor="start" x="33" y="-221.5" font-family="Helvetica,sans-Serif" font-size="10.00">+</text>
<text text-anchor="start" x="43" y="-221.5" font-family="Helvetica,sans-Serif" font-size="10.00">__construct(string</text>
<text text-anchor="start" x="43" y="-210.25" font-family="Helvetica,sans-Serif" font-size="10.00"> $string=&#39;&#39;)</text>
<text text-anchor="start" x="33" y="-195.5" font-family="Helvetica,sans-Serif" font-size="10.00">+</text>
<text text-anchor="start" x="43" y="-195.5" font-family="Helvetica,sans-Serif" font-size="10.00">append(string ...</text>
<text text-anchor="start" x="43" y="-184.25" font-family="Helvetica,sans-Serif" font-size="10.00"> $suffix)</text>
<text text-anchor="start" x="33" y="-169.5" font-family="Helvetica,sans-Serif" font-size="10.00">+</text>
<text text-anchor="start" x="43" y="-169.5" font-family="Helvetica,sans-Serif" font-size="10.00">chunk(int $length=1)</text>
<text text-anchor="start" x="33" y="-154.5" font-family="Helvetica,sans-Serif" font-size="10.00">+</text>
<text text-anchor="start" x="43" y="-154.5" font-family="Helvetica,sans-Serif" font-size="10.00">endsWith($suffix)</text>
<text text-anchor="start" x="33" y="-139.5" font-family="Helvetica,sans-Serif" font-size="10.00">+</text>
<text text-anchor="start" x="43" y="-139.5" font-family="Helvetica,sans-Serif" font-size="10.00">equalsTo($string)</text>
<text text-anchor="start" x="33" y="-124.5" font-family="Helvetica,sans-Serif" font-size="10.00">+</text>
<text text-anchor="start" x="43" y="-124.5" font-family="Helvetica,sans-Serif" font-size="10.00">indexOf($needle, int</text>
<text text-anchor="start" x="43" y="-113.25" font-family="Helvetica,sans-Serif" font-size="10.00"> $offset=0)</text>
<text text-anchor="start" x="33" y="-98.5" font-family="Helvetica,sans-Serif" font-size="10.00">+</text>
<text text-anchor="start" x="43" y="-98.5" font-family="Helvetica,sans-Serif" font-size="10.00">indexOfLast($needle,</text>
<text text-anchor="start" x="43" y="-87.25" font-family="Helvetica,sans-Serif" font-size="10.00"> int $offset=0)</text>
<text text-anchor="start" x="33" y="-72.5" font-family="Helvetica,sans-Serif" font-size="10.00">+</text>
<text text-anchor="start" x="43" y="-72.5" font-family="Helvetica,sans-Serif" font-size="10.00">join(array $strings,</text>
<text text-anchor="start" x="43" y="-61.25" font-family="Helvetica,sans-Serif" font-size="10.00"> string $lastGlue=null)</text>
<text text-anchor="start" x="33" y="-46.5" font-family="Helvetica,sans-Serif" font-size="10.00">+</text>
<text text-anchor="start" x="43" y="-46.5" font-family="Helvetica,sans-Serif" font-size="10.00">length()</text>
<text text-anchor="start" x="33" y="-31.5" font-family="Helvetica,sans-Serif" font-size="10.00">+</text>
<text text-anchor="start" x="43" y="-31.5" font-family="Helvetica,sans-Serif" font-size="10.00">normalize(int $form</text>
<text text-anchor="start" x="43" y="-20.25" font-family="Helvetica,sans-Serif" font-size="10.00">=self::NFC)</text>
<text text-anchor="start" x="43" y="-5.5" font-family="Helvetica,sans-Serif" font-size="10.00">et 9 de plus...</text>
<polygon fill="#666666" stroke="#666666" points="29,-248 29,-248 142,-248 142,-248 29,-248"/>
<polygon fill="#666666" stroke="#666666" points="29,-233 29,-233 142,-233 142,-233 29,-233"/>
<polygon fill="none" stroke="#666666" points="29,0 29,-265 142,-265 142,0 29,0"/>
</a>
</g>
</g>
<!-- Node2 -->
<g id="Node000002" class="node">
<title>Node2</title>
<g id="a_Node000002"><a xlink:href="$class_symfony_1_1_component_1_1_string_1_1_abstract_unicode_string.html" xlink:title=" ">
<polygon fill="white" stroke="none" points="153,-648 18,-648 18,-301 153,-301 153,-648"/>
<text text-anchor="start" x="36.38" y="-634.5" font-family="Helvetica,sans-Serif" font-size="10.00">AbstractUnicodeString</text>
<text text-anchor="start" x="22" y="-619.5" font-family="Helvetica,sans-Serif" font-size="10.00">+</text>
<text text-anchor="start" x="32" y="-619.5" font-family="Helvetica,sans-Serif" font-size="10.00">const NFC</text>
<text text-anchor="start" x="22" y="-604.5" font-family="Helvetica,sans-Serif" font-size="10.00">+</text>
<text text-anchor="start" x="32" y="-604.5" font-family="Helvetica,sans-Serif" font-size="10.00">const NFD</text>
<text text-anchor="start" x="22" y="-589.5" font-family="Helvetica,sans-Serif" font-size="10.00">+</text>
<text text-anchor="start" x="32" y="-589.5" font-family="Helvetica,sans-Serif" font-size="10.00">const NFKC</text>
<text text-anchor="start" x="22" y="-574.5" font-family="Helvetica,sans-Serif" font-size="10.00">+</text>
<text text-anchor="start" x="32" y="-574.5" font-family="Helvetica,sans-Serif" font-size="10.00">const NFKD</text>
<text text-anchor="start" x="22" y="-559.5" font-family="Helvetica,sans-Serif" font-size="10.00">+</text>
<text text-anchor="start" x="32" y="-559.5" font-family="Helvetica,sans-Serif" font-size="10.00">ascii(array $rules=[])</text>
<text text-anchor="start" x="22" y="-544.5" font-family="Helvetica,sans-Serif" font-size="10.00">+</text>
<text text-anchor="start" x="32" y="-544.5" font-family="Helvetica,sans-Serif" font-size="10.00">camel()</text>
<text text-anchor="start" x="22" y="-529.5" font-family="Helvetica,sans-Serif" font-size="10.00">+</text>
<text text-anchor="start" x="32" y="-529.5" font-family="Helvetica,sans-Serif" font-size="10.00">codePointsAt(int </text>
<text text-anchor="start" x="32" y="-518.25" font-family="Helvetica,sans-Serif" font-size="10.00">$offset)</text>
<text text-anchor="start" x="22" y="-503.5" font-family="Helvetica,sans-Serif" font-size="10.00">+</text>
<text text-anchor="start" x="32" y="-503.5" font-family="Helvetica,sans-Serif" font-size="10.00">folded(bool $compat</text>
<text text-anchor="start" x="32" y="-492.25" font-family="Helvetica,sans-Serif" font-size="10.00">=true)</text>
<text text-anchor="start" x="22" y="-477.5" font-family="Helvetica,sans-Serif" font-size="10.00">+</text>
<text text-anchor="start" x="32" y="-477.5" font-family="Helvetica,sans-Serif" font-size="10.00">join(array $strings,</text>
<text text-anchor="start" x="32" y="-466.25" font-family="Helvetica,sans-Serif" font-size="10.00"> string $lastGlue=null)</text>
<text text-anchor="start" x="22" y="-451.5" font-family="Helvetica,sans-Serif" font-size="10.00">+</text>
<text text-anchor="start" x="32" y="-451.5" font-family="Helvetica,sans-Serif" font-size="10.00">lower()</text>
<text text-anchor="start" x="22" y="-436.5" font-family="Helvetica,sans-Serif" font-size="10.00">+</text>
<text text-anchor="start" x="32" y="-436.5" font-family="Helvetica,sans-Serif" font-size="10.00">match(string $regexp,</text>
<text text-anchor="start" x="32" y="-425.25" font-family="Helvetica,sans-Serif" font-size="10.00"> int $flags=0, int $offset=0)</text>
<text text-anchor="start" x="22" y="-410.5" font-family="Helvetica,sans-Serif" font-size="10.00">+</text>
<text text-anchor="start" x="32" y="-410.5" font-family="Helvetica,sans-Serif" font-size="10.00">normalize(int $form</text>
<text text-anchor="start" x="32" y="-399.25" font-family="Helvetica,sans-Serif" font-size="10.00">=self::NFC)</text>
<text text-anchor="start" x="22" y="-384.5" font-family="Helvetica,sans-Serif" font-size="10.00">+</text>
<text text-anchor="start" x="32" y="-384.5" font-family="Helvetica,sans-Serif" font-size="10.00">padBoth(int $length,</text>
<text text-anchor="start" x="32" y="-373.25" font-family="Helvetica,sans-Serif" font-size="10.00"> string $padStr=&#39; &#39;)</text>
<text text-anchor="start" x="22" y="-358.5" font-family="Helvetica,sans-Serif" font-size="10.00">+</text>
<text text-anchor="start" x="32" y="-358.5" font-family="Helvetica,sans-Serif" font-size="10.00">padEnd(int $length,</text>
<text text-anchor="start" x="32" y="-347.25" font-family="Helvetica,sans-Serif" font-size="10.00"> string $padStr=&#39; &#39;)</text>
<text text-anchor="start" x="32" y="-332.5" font-family="Helvetica,sans-Serif" font-size="10.00">et 12 de plus...</text>
<text text-anchor="start" x="22" y="-317.5" font-family="Helvetica,sans-Serif" font-size="10.00">+</text>
<text text-anchor="start" x="32" y="-317.5" font-family="Helvetica,sans-Serif" font-size="10.00">static fromCodePoints</text>
<text text-anchor="start" x="32" y="-306.25" font-family="Helvetica,sans-Serif" font-size="10.00">(int ... $codes)</text>
<polygon fill="#666666" stroke="#666666" points="18,-631 18,-631 153,-631 153,-631 18,-631"/>
<polygon fill="#666666" stroke="#666666" points="18,-571 18,-571 30,-571 30,-571 18,-571"/>
<polygon fill="#666666" stroke="#666666" points="30,-571 30,-571 153,-571 153,-571 30,-571"/>
<polygon fill="none" stroke="#666666" points="18,-301 18,-648 153,-648 153,-301 18,-301"/>
</a>
</g>
</g>
<!-- Node2&#45;&gt;Node1 -->
<g id="edge9_Node000001_Node000002" class="edge">
<title>Node2&#45;&gt;Node1</title>
<g id="a_edge9_Node000001_Node000002"><a xlink:title=" ">
<path fill="none" stroke="#63b8ff" d="M85.5,-289.62C85.5,-281.28 85.5,-272.99 85.5,-264.82"/>
<polygon fill="none" stroke="#63b8ff" points="82,-289.5 85.5,-299.5 89,-289.5 82,-289.5"/>
</a>
</g>
</g>
<!-- Node3 -->
<g id="Node000003" class="node">
<title>Node3</title>
<g id="a_Node000003"><a xlink:href="$class_symfony_1_1_component_1_1_string_1_1_abstract_string.html" xlink:title=" ">
<polygon fill="white" stroke="none" points="171,-1235 0,-1235 0,-684 171,-684 171,-1235"/>
<text text-anchor="start" x="54.38" y="-1221.5" font-family="Helvetica,sans-Serif" font-size="10.00">AbstractString</text>
<text text-anchor="start" x="4" y="-1206.5" font-family="Helvetica,sans-Serif" font-size="10.00">+</text>
<text text-anchor="start" x="14" y="-1206.5" font-family="Helvetica,sans-Serif" font-size="10.00">const PREG_PATTERN</text>
<text text-anchor="start" x="14" y="-1195.25" font-family="Helvetica,sans-Serif" font-size="10.00">_ORDER</text>
<text text-anchor="start" x="4" y="-1180.5" font-family="Helvetica,sans-Serif" font-size="10.00">+</text>
<text text-anchor="start" x="14" y="-1180.5" font-family="Helvetica,sans-Serif" font-size="10.00">const PREG_SET_ORDER</text>
<text text-anchor="start" x="4" y="-1165.5" font-family="Helvetica,sans-Serif" font-size="10.00">+</text>
<text text-anchor="start" x="14" y="-1165.5" font-family="Helvetica,sans-Serif" font-size="10.00">const PREG_OFFSET_CAPTURE</text>
<text text-anchor="start" x="4" y="-1150.5" font-family="Helvetica,sans-Serif" font-size="10.00">+</text>
<text text-anchor="start" x="14" y="-1150.5" font-family="Helvetica,sans-Serif" font-size="10.00">const PREG_UNMATCHED</text>
<text text-anchor="start" x="14" y="-1139.25" font-family="Helvetica,sans-Serif" font-size="10.00">_AS_NULL</text>
<text text-anchor="start" x="4" y="-1124.5" font-family="Helvetica,sans-Serif" font-size="10.00">+</text>
<text text-anchor="start" x="14" y="-1124.5" font-family="Helvetica,sans-Serif" font-size="10.00">const PREG_SPLIT</text>
<text text-anchor="start" x="4" y="-1109.5" font-family="Helvetica,sans-Serif" font-size="10.00">+</text>
<text text-anchor="start" x="14" y="-1109.5" font-family="Helvetica,sans-Serif" font-size="10.00">const PREG_SPLIT_NO</text>
<text text-anchor="start" x="14" y="-1098.25" font-family="Helvetica,sans-Serif" font-size="10.00">_EMPTY</text>
<text text-anchor="start" x="4" y="-1083.5" font-family="Helvetica,sans-Serif" font-size="10.00">+</text>
<text text-anchor="start" x="14" y="-1083.5" font-family="Helvetica,sans-Serif" font-size="10.00">const PREG_SPLIT_DELIM</text>
<text text-anchor="start" x="14" y="-1072.25" font-family="Helvetica,sans-Serif" font-size="10.00">_CAPTURE</text>
<text text-anchor="start" x="4" y="-1057.5" font-family="Helvetica,sans-Serif" font-size="10.00">+</text>
<text text-anchor="start" x="14" y="-1057.5" font-family="Helvetica,sans-Serif" font-size="10.00">const PREG_SPLIT_OFFSET</text>
<text text-anchor="start" x="14" y="-1046.25" font-family="Helvetica,sans-Serif" font-size="10.00">_CAPTURE</text>
<text text-anchor="start" x="4.38" y="-1031.5" font-family="Helvetica,sans-Serif" font-size="10.00">#</text>
<text text-anchor="start" x="14" y="-1031.5" font-family="Helvetica,sans-Serif" font-size="10.00">$string</text>
<text text-anchor="start" x="4.38" y="-1016.5" font-family="Helvetica,sans-Serif" font-size="10.00">#</text>
<text text-anchor="start" x="14" y="-1016.5" font-family="Helvetica,sans-Serif" font-size="10.00">$ignoreCase</text>
<text text-anchor="start" x="4" y="-1001.5" font-family="Helvetica,sans-Serif" font-size="10.00">+</text>
<text text-anchor="start" x="14" y="-1001.5" font-family="Helvetica,sans-Serif" font-size="10.00">__construct(string</text>
<text text-anchor="start" x="14" y="-990.25" font-family="Helvetica,sans-Serif" font-size="10.00"> $string=&#39;&#39;)</text>
<text text-anchor="start" x="4" y="-975.5" font-family="Helvetica,sans-Serif" font-size="10.00">+</text>
<text text-anchor="start" x="14" y="-975.5" font-family="Helvetica,sans-Serif" font-size="10.00">after($needle, bool</text>
<text text-anchor="start" x="14" y="-964.25" font-family="Helvetica,sans-Serif" font-size="10.00"> $includeNeedle=false,</text>
<text text-anchor="start" x="14" y="-953" font-family="Helvetica,sans-Serif" font-size="10.00"> int $offset=0)</text>
<text text-anchor="start" x="4" y="-938.5" font-family="Helvetica,sans-Serif" font-size="10.00">+</text>
<text text-anchor="start" x="14" y="-938.5" font-family="Helvetica,sans-Serif" font-size="10.00">afterLast($needle,</text>
<text text-anchor="start" x="14" y="-927.25" font-family="Helvetica,sans-Serif" font-size="10.00"> bool $includeNeedle</text>
<text text-anchor="start" x="14" y="-916" font-family="Helvetica,sans-Serif" font-size="10.00">=false, int $offset=0)</text>
<text text-anchor="start" x="4" y="-901.5" font-family="Helvetica,sans-Serif" font-size="10.00">+</text>
<text text-anchor="start" x="14" y="-901.5" font-family="Helvetica,sans-Serif" font-size="10.00">append(string ...</text>
<text text-anchor="start" x="14" y="-890.25" font-family="Helvetica,sans-Serif" font-size="10.00"> $suffix)</text>
<text text-anchor="start" x="4" y="-875.5" font-family="Helvetica,sans-Serif" font-size="10.00">+</text>
<text text-anchor="start" x="14" y="-875.5" font-family="Helvetica,sans-Serif" font-size="10.00">before($needle, bool</text>
<text text-anchor="start" x="14" y="-864.25" font-family="Helvetica,sans-Serif" font-size="10.00"> $includeNeedle=false,</text>
<text text-anchor="start" x="14" y="-853" font-family="Helvetica,sans-Serif" font-size="10.00"> int $offset=0)</text>
<text text-anchor="start" x="4" y="-838.5" font-family="Helvetica,sans-Serif" font-size="10.00">+</text>
<text text-anchor="start" x="14" y="-838.5" font-family="Helvetica,sans-Serif" font-size="10.00">beforeLast($needle,</text>
<text text-anchor="start" x="14" y="-827.25" font-family="Helvetica,sans-Serif" font-size="10.00"> bool $includeNeedle</text>
<text text-anchor="start" x="14" y="-816" font-family="Helvetica,sans-Serif" font-size="10.00">=false, int $offset=0)</text>
<text text-anchor="start" x="4" y="-801.5" font-family="Helvetica,sans-Serif" font-size="10.00">+</text>
<text text-anchor="start" x="14" y="-801.5" font-family="Helvetica,sans-Serif" font-size="10.00">bytesAt(int $offset)</text>
<text text-anchor="start" x="4" y="-786.5" font-family="Helvetica,sans-Serif" font-size="10.00">+</text>
<text text-anchor="start" x="14" y="-786.5" font-family="Helvetica,sans-Serif" font-size="10.00">camel()</text>
<text text-anchor="start" x="4" y="-771.5" font-family="Helvetica,sans-Serif" font-size="10.00">+</text>
<text text-anchor="start" x="14" y="-771.5" font-family="Helvetica,sans-Serif" font-size="10.00">chunk(int $length=1)</text>
<text text-anchor="start" x="4" y="-756.5" font-family="Helvetica,sans-Serif" font-size="10.00">+</text>
<text text-anchor="start" x="14" y="-756.5" font-family="Helvetica,sans-Serif" font-size="10.00">collapseWhitespace()</text>
<text text-anchor="start" x="14" y="-741.5" font-family="Helvetica,sans-Serif" font-size="10.00">et 45 de plus...</text>
<text text-anchor="start" x="4" y="-726.5" font-family="Helvetica,sans-Serif" font-size="10.00">+</text>
<text text-anchor="start" x="14" y="-726.5" font-family="Helvetica,sans-Serif" font-size="10.00">static unwrap(array</text>
<text text-anchor="start" x="14" y="-715.25" font-family="Helvetica,sans-Serif" font-size="10.00"> $values)</text>
<text text-anchor="start" x="4" y="-700.5" font-family="Helvetica,sans-Serif" font-size="10.00">+</text>
<text text-anchor="start" x="14" y="-700.5" font-family="Helvetica,sans-Serif" font-size="10.00">static wrap(array </text>
<text text-anchor="start" x="14" y="-689.25" font-family="Helvetica,sans-Serif" font-size="10.00">$values)</text>
<polygon fill="#666666" stroke="#666666" points="0,-1218 0,-1218 171,-1218 171,-1218 0,-1218"/>
<polygon fill="#666666" stroke="#666666" points="0,-1013 0,-1013 12,-1013 12,-1013 0,-1013"/>
<polygon fill="#666666" stroke="#666666" points="12,-1013 12,-1013 171,-1013 171,-1013 12,-1013"/>
<polygon fill="none" stroke="#666666" points="0,-684 0,-1235 171,-1235 171,-684 0,-684"/>
</a>
</g>
</g>
<!-- Node3&#45;&gt;Node2 -->
<g id="edge10_Node000002_Node000003" class="edge">
<title>Node3&#45;&gt;Node2</title>
<g id="a_edge10_Node000002_Node000003"><a xlink:title=" ">
<path fill="none" stroke="#63b8ff" d="M85.5,-672.76C85.5,-664.42 85.5,-656.14 85.5,-647.98"/>
<polygon fill="none" stroke="#63b8ff" points="82,-672.68 85.5,-682.68 89,-672.68 82,-672.68"/>
</a>
</g>
</g>
<!-- Node4 -->
<g id="Node000004" class="node">
<title>Node4</title>
<g id="a_Node000004"><a xlink:title=" ">
<polygon fill="white" stroke="none" points="70,-1320 17,-1320 17,-1271 70,-1271 70,-1320"/>
<text text-anchor="start" x="21.75" y="-1306.5" font-family="Helvetica,sans-Serif" font-size="10.00">Stringable</text>
<text text-anchor="start" x="42" y="-1291.5" font-family="Helvetica,sans-Serif" font-size="10.00"> </text>
<text text-anchor="start" x="42" y="-1276.5" font-family="Helvetica,sans-Serif" font-size="10.00"> </text>
<polygon fill="#666666" stroke="#666666" points="17,-1303 17,-1303 70,-1303 70,-1303 17,-1303"/>
<polygon fill="#666666" stroke="#666666" points="17,-1288 17,-1288 70,-1288 70,-1288 17,-1288"/>
<polygon fill="none" stroke="#666666" points="17,-1271 17,-1320 70,-1320 70,-1271 17,-1271"/>
</a>
</g>
</g>
<!-- Node4&#45;&gt;Node3 -->
<g id="edge11_Node000003_Node000004" class="edge">
<title>Node4&#45;&gt;Node3</title>
<g id="a_edge11_Node000003_Node000004"><a xlink:title=" ">
<path fill="none" stroke="#63b8ff" d="M47.86,-1259.83C48.79,-1252.41 49.85,-1244.02 51,-1234.88"/>
<polygon fill="none" stroke="#63b8ff" points="44.42,-1259.15 46.64,-1269.51 51.36,-1260.03 44.42,-1259.15"/>
</a>
</g>
</g>
<!-- Node5 -->
<g id="Node000005" class="node">
<title>Node5</title>
<g id="a_Node000005"><a xlink:title=" ">
<polygon fill="white" stroke="none" points="169,-1320 88,-1320 88,-1271 169,-1271 169,-1320"/>
<text text-anchor="start" x="92.88" y="-1306.5" font-family="Helvetica,sans-Serif" font-size="10.00">JsonSerializable</text>
<text text-anchor="start" x="127" y="-1291.5" font-family="Helvetica,sans-Serif" font-size="10.00"> </text>
<text text-anchor="start" x="127" y="-1276.5" font-family="Helvetica,sans-Serif" font-size="10.00"> </text>
<polygon fill="#666666" stroke="#666666" points="88,-1303 88,-1303 169,-1303 169,-1303 88,-1303"/>
<polygon fill="#666666" stroke="#666666" points="88,-1288 88,-1288 169,-1288 169,-1288 88,-1288"/>
<polygon fill="none" stroke="#666666" points="88,-1271 88,-1320 169,-1320 169,-1271 88,-1271"/>
</a>
</g>
</g>
<!-- Node5&#45;&gt;Node3 -->
<g id="edge12_Node000003_Node000005" class="edge">
<title>Node5&#45;&gt;Node3</title>
<g id="a_edge12_Node000003_Node000005"><a xlink:title=" ">
<path fill="none" stroke="#63b8ff" d="M124.04,-1259.83C123.08,-1252.41 122,-1244.02 120.82,-1234.88"/>
<polygon fill="none" stroke="#63b8ff" points="120.53,-1260.04 125.28,-1269.51 127.48,-1259.15 120.53,-1260.04"/>
</a>
</g>
</g>
</g>
</svg>
