<?xml version="1.0" encoding="UTF-8" standalone="no"?>
<!DOCTYPE svg PUBLIC "-//W3C//DTD SVG 1.1//EN"
 "http://www.w3.org/Graphics/SVG/1.1/DTD/svg11.dtd">
<!-- Generated by graphviz version 10.0.1 (20240210.2158)
 -->
<!-- Title: Node Pages: 1 -->
<svg width="132pt" height="400pt"
 viewBox="0.00 0.00 132.00 400.00" xmlns="http://www.w3.org/2000/svg" xmlns:xlink="http://www.w3.org/1999/xlink">
<g id="graph0" class="graph" transform="scale(1 1) rotate(0) translate(4 396)">
<title>Node</title>
<!-- Node1 -->
<g id="Node000001" class="node">
<title>Node1</title>
<g id="a_Node000001"><a xlink:title=" ">
<polygon fill="#999999" stroke="none" points="105,-392 19,-392 19,-298 105,-298 105,-392"/>
<text text-anchor="start" x="50.38" y="-378.5" font-family="Helvetica,sans-Serif" font-size="10.00">Node</text>
<text text-anchor="start" x="23" y="-363.5" font-family="Helvetica,sans-Serif" font-size="10.00">+</text>
<text text-anchor="start" x="33" y="-363.5" font-family="Helvetica,sans-Serif" font-size="10.00">$type</text>
<text text-anchor="start" x="23" y="-348.5" font-family="Helvetica,sans-Serif" font-size="10.00">+</text>
<text text-anchor="start" x="33" y="-348.5" font-family="Helvetica,sans-Serif" font-size="10.00">$sourceIndex</text>
<text text-anchor="start" x="23" y="-333.5" font-family="Helvetica,sans-Serif" font-size="10.00">+</text>
<text text-anchor="start" x="33" y="-333.5" font-family="Helvetica,sans-Serif" font-size="10.00">$sourceLine</text>
<text text-anchor="start" x="23" y="-318.5" font-family="Helvetica,sans-Serif" font-size="10.00">+</text>
<text text-anchor="start" x="33" y="-318.5" font-family="Helvetica,sans-Serif" font-size="10.00">$sourceColumn</text>
<text text-anchor="start" x="60.5" y="-303.5" font-family="Helvetica,sans-Serif" font-size="10.00"> </text>
<polygon fill="#666666" stroke="#666666" points="19,-375 19,-375 105,-375 105,-375 19,-375"/>
<polygon fill="#666666" stroke="#666666" points="19,-315 19,-315 31,-315 31,-315 19,-315"/>
<polygon fill="#666666" stroke="#666666" points="31,-315 31,-315 105,-315 105,-315 31,-315"/>
<polygon fill="none" stroke="#666666" points="19,-298 19,-392 105,-392 105,-298 19,-298"/>
</a>
</g>
</g>
<!-- Node2 -->
<g id="Node000002" class="node">
<title>Node2</title>
<g id="a_Node000002"><a xlink:href="$class_scss_php_1_1_scss_php_1_1_node_1_1_number.html" xlink:title=" ">
<polygon fill="white" stroke="none" points="124,-262 0,-262 0,0 124,0 124,-262"/>
<text text-anchor="start" x="44.75" y="-248.5" font-family="Helvetica,sans-Serif" font-size="10.00">Number</text>
<text text-anchor="start" x="4" y="-233.5" font-family="Helvetica,sans-Serif" font-size="10.00">+</text>
<text text-anchor="start" x="14" y="-233.5" font-family="Helvetica,sans-Serif" font-size="10.00">const PRECISION</text>
<text text-anchor="start" x="4" y="-218.5" font-family="Helvetica,sans-Serif" font-size="10.00">+</text>
<text text-anchor="start" x="14" y="-218.5" font-family="Helvetica,sans-Serif" font-size="10.00">static $precision</text>
<text text-anchor="start" x="4.38" y="-203.5" font-family="Helvetica,sans-Serif" font-size="10.00">#</text>
<text text-anchor="start" x="14" y="-203.5" font-family="Helvetica,sans-Serif" font-size="10.00">static $unitTable</text>
<text text-anchor="start" x="4" y="-188.5" font-family="Helvetica,sans-Serif" font-size="10.00">+</text>
<text text-anchor="start" x="14" y="-188.5" font-family="Helvetica,sans-Serif" font-size="10.00">__construct($dimension,</text>
<text text-anchor="start" x="14" y="-177.25" font-family="Helvetica,sans-Serif" font-size="10.00"> $numeratorUnits, array</text>
<text text-anchor="start" x="14" y="-166" font-family="Helvetica,sans-Serif" font-size="10.00"> $denominatorUnits=[])</text>
<text text-anchor="start" x="4" y="-151.5" font-family="Helvetica,sans-Serif" font-size="10.00">+</text>
<text text-anchor="start" x="14" y="-151.5" font-family="Helvetica,sans-Serif" font-size="10.00">getDimension()</text>
<text text-anchor="start" x="4" y="-136.5" font-family="Helvetica,sans-Serif" font-size="10.00">+</text>
<text text-anchor="start" x="14" y="-136.5" font-family="Helvetica,sans-Serif" font-size="10.00">getNumeratorUnits()</text>
<text text-anchor="start" x="4" y="-121.5" font-family="Helvetica,sans-Serif" font-size="10.00">+</text>
<text text-anchor="start" x="14" y="-121.5" font-family="Helvetica,sans-Serif" font-size="10.00">getDenominatorUnits()</text>
<text text-anchor="start" x="4" y="-106.5" font-family="Helvetica,sans-Serif" font-size="10.00">+</text>
<text text-anchor="start" x="14" y="-106.5" font-family="Helvetica,sans-Serif" font-size="10.00">offsetExists($offset)</text>
<text text-anchor="start" x="4" y="-91.5" font-family="Helvetica,sans-Serif" font-size="10.00">+</text>
<text text-anchor="start" x="14" y="-91.5" font-family="Helvetica,sans-Serif" font-size="10.00">offsetGet($offset)</text>
<text text-anchor="start" x="4" y="-76.5" font-family="Helvetica,sans-Serif" font-size="10.00">+</text>
<text text-anchor="start" x="14" y="-76.5" font-family="Helvetica,sans-Serif" font-size="10.00">offsetSet($offset,</text>
<text text-anchor="start" x="14" y="-65.25" font-family="Helvetica,sans-Serif" font-size="10.00"> $value)</text>
<text text-anchor="start" x="4" y="-50.5" font-family="Helvetica,sans-Serif" font-size="10.00">+</text>
<text text-anchor="start" x="14" y="-50.5" font-family="Helvetica,sans-Serif" font-size="10.00">offsetUnset($offset)</text>
<text text-anchor="start" x="4" y="-35.5" font-family="Helvetica,sans-Serif" font-size="10.00">+</text>
<text text-anchor="start" x="14" y="-35.5" font-family="Helvetica,sans-Serif" font-size="10.00">unitless()</text>
<text text-anchor="start" x="4" y="-20.5" font-family="Helvetica,sans-Serif" font-size="10.00">+</text>
<text text-anchor="start" x="14" y="-20.5" font-family="Helvetica,sans-Serif" font-size="10.00">hasUnits()</text>
<text text-anchor="start" x="14" y="-5.5" font-family="Helvetica,sans-Serif" font-size="10.00">et 22 de plus...</text>
<polygon fill="#666666" stroke="#666666" points="0,-245 0,-245 124,-245 124,-245 0,-245"/>
<polygon fill="#666666" stroke="#666666" points="0,-200 0,-200 12,-200 12,-200 0,-200"/>
<polygon fill="#666666" stroke="#666666" points="12,-200 12,-200 124,-200 124,-200 12,-200"/>
<polygon fill="none" stroke="#666666" points="0,0 0,-262 124,-262 124,0 0,0"/>
</a>
</g>
</g>
<!-- Node1&#45;&gt;Node2 -->
<g id="edge3_Node000001_Node000002" class="edge">
<title>Node1&#45;&gt;Node2</title>
<g id="a_edge3_Node000001_Node000002"><a xlink:title=" ">
<path fill="none" stroke="#63b8ff" d="M62,-286.96C62,-279 62,-270.56 62,-261.9"/>
<polygon fill="none" stroke="#63b8ff" points="58.5,-286.75 62,-296.75 65.5,-286.75 58.5,-286.75"/>
</a>
</g>
</g>
</g>
</svg>
