<?xml version="1.0" encoding="UTF-8" standalone="no"?>
<!DOCTYPE svg PUBLIC "-//W3C//DTD SVG 1.1//EN"
 "http://www.w3.org/Graphics/SVG/1.1/DTD/svg11.dtd">
<!-- Generated by graphviz version 10.0.1 (20240210.2158)
 -->
<!-- Title: get_enclosure Pages: 1 -->
<svg width="316pt" height="138pt"
 viewBox="0.00 0.00 316.25 138.25" xmlns="http://www.w3.org/2000/svg" xmlns:xlink="http://www.w3.org/1999/xlink">
<g id="graph0" class="graph" transform="scale(1 1) rotate(0) translate(4 134.25)">
<title>get_enclosure</title>
<!-- Node1 -->
<g id="Node000001" class="node">
<title>Node1</title>
<g id="a_Node000001"><a xlink:title=" ">
<polygon fill="#999999" stroke="#666666" points="76.75,-74.25 0,-74.25 0,-55 76.75,-55 76.75,-74.25"/>
<text text-anchor="middle" x="38.38" y="-60.75" font-family="Helvetica,sans-Serif" font-size="10.00">get_enclosure</text>
</a>
</g>
</g>
<!-- Node2 -->
<g id="Node000002" class="node">
<title>Node2</title>
<g id="a_Node000002"><a xlink:href="$class_simple_pie___item.html#ae5495772db7c995587c2d6ebbe2f185c" xlink:title=" ">
<polygon fill="white" stroke="#666666" points="194.75,-74.25 112.75,-74.25 112.75,-55 194.75,-55 194.75,-74.25"/>
<text text-anchor="middle" x="153.75" y="-60.75" font-family="Helvetica,sans-Serif" font-size="10.00">get_enclosures</text>
</a>
</g>
</g>
<!-- Node1&#45;&gt;Node2 -->
<g id="edge11_Node000001_Node000002" class="edge">
<title>Node1&#45;&gt;Node2</title>
<g id="a_edge11_Node000001_Node000002"><a xlink:title=" ">
<path fill="none" stroke="#63b8ff" d="M77.13,-64.62C84.83,-64.62 93.07,-64.62 101.16,-64.62"/>
<polygon fill="#63b8ff" stroke="#63b8ff" points="100.93,-68.13 110.93,-64.63 100.93,-61.13 100.93,-68.13"/>
</a>
</g>
</g>
<!-- Node3 -->
<g id="Node000003" class="node">
<title>Node3</title>
<g id="a_Node000003"><a xlink:href="$class_simple_pie___item.html#ad6c8c70d58e8ba62c9638b705f652640" xlink:title=" ">
<polygon fill="white" stroke="#666666" points="297.38,-130.25 241.62,-130.25 241.62,-111 297.38,-111 297.38,-130.25"/>
<text text-anchor="middle" x="269.5" y="-116.75" font-family="Helvetica,sans-Serif" font-size="10.00">get_base</text>
</a>
</g>
</g>
<!-- Node2&#45;&gt;Node3 -->
<g id="edge12_Node000002_Node000003" class="edge">
<title>Node2&#45;&gt;Node3</title>
<g id="a_edge12_Node000002_Node000003"><a xlink:title=" ">
<path fill="none" stroke="#63b8ff" d="M174.7,-74.73C190,-82.44 211.66,-93.3 230.75,-102.62 232.84,-103.65 235,-104.69 237.17,-105.74"/>
<polygon fill="#63b8ff" stroke="#63b8ff" points="235.41,-108.78 245.94,-109.95 238.44,-102.47 235.41,-108.78"/>
</a>
</g>
</g>
<!-- Node4 -->
<g id="Node000004" class="node">
<title>Node4</title>
<g id="a_Node000004"><a xlink:href="$class_simple_pie___item.html#a4498b71b9ef0a9aef6efcb9570daf193" xlink:title=" ">
<polygon fill="white" stroke="#666666" points="296.25,-93.25 242.75,-93.25 242.75,-74 296.25,-74 296.25,-93.25"/>
<text text-anchor="middle" x="269.5" y="-79.75" font-family="Helvetica,sans-Serif" font-size="10.00">get_feed</text>
</a>
</g>
</g>
<!-- Node2&#45;&gt;Node4 -->
<g id="edge13_Node000002_Node000004" class="edge">
<title>Node2&#45;&gt;Node4</title>
<g id="a_edge13_Node000002_Node000004"><a xlink:title=" ">
<path fill="none" stroke="#63b8ff" d="M195.17,-71.38C206.96,-73.35 219.77,-75.49 231.34,-77.42"/>
<polygon fill="#63b8ff" stroke="#63b8ff" points="230.48,-80.82 240.92,-79.02 231.63,-73.92 230.48,-80.82"/>
</a>
</g>
</g>
<!-- Node5 -->
<g id="Node000005" class="node">
<title>Node5</title>
<g id="a_Node000005"><a xlink:href="$class_simple_pie___item.html#a0a9d4e292d90a6fcc7a84d5fc1c7ff8a" xlink:title=" ">
<polygon fill="white" stroke="#666666" points="308.25,-56.25 230.75,-56.25 230.75,-37 308.25,-37 308.25,-56.25"/>
<text text-anchor="middle" x="269.5" y="-42.75" font-family="Helvetica,sans-Serif" font-size="10.00">get_item_tags</text>
</a>
</g>
</g>
<!-- Node2&#45;&gt;Node5 -->
<g id="edge14_Node000002_Node000005" class="edge">
<title>Node2&#45;&gt;Node5</title>
<g id="a_edge14_Node000002_Node000005"><a xlink:title=" ">
<path fill="none" stroke="#63b8ff" d="M195.17,-58.23C202.99,-56.99 211.25,-55.68 219.31,-54.41"/>
<polygon fill="#63b8ff" stroke="#63b8ff" points="219.66,-57.9 228.99,-52.88 218.57,-50.98 219.66,-57.9"/>
</a>
</g>
</g>
<!-- Node6 -->
<g id="Node000006" class="node">
<title>Node6</title>
<g id="a_Node000006"><a xlink:href="$class_simple_pie___item.html#a5482cabe0e60f30caee78f368cb9bea9" xlink:title=" ">
<polygon fill="white" stroke="#666666" points="294.38,-19.25 244.62,-19.25 244.62,0 294.38,0 294.38,-19.25"/>
<text text-anchor="middle" x="269.5" y="-5.75" font-family="Helvetica,sans-Serif" font-size="10.00">sanitize</text>
</a>
</g>
</g>
<!-- Node2&#45;&gt;Node6 -->
<g id="edge15_Node000002_Node000006" class="edge">
<title>Node2&#45;&gt;Node6</title>
<g id="a_edge15_Node000002_Node000006"><a xlink:title=" ">
<path fill="none" stroke="#63b8ff" d="M175.37,-54.53C190.65,-47.07 211.98,-36.67 230.75,-27.62 232.85,-26.62 235.01,-25.58 237.19,-24.53"/>
<polygon fill="#63b8ff" stroke="#63b8ff" points="238.44,-27.81 245.96,-20.34 235.42,-21.49 238.44,-27.81"/>
</a>
</g>
</g>
</g>
</svg>
