<?xml version="1.0" encoding="UTF-8" standalone="no"?>
<!DOCTYPE svg PUBLIC "-//W3C//DTD SVG 1.1//EN"
 "http://www.w3.org/Graphics/SVG/1.1/DTD/svg11.dtd">
<!-- Generated by graphviz version 10.0.1 (20240210.2158)
 -->
<!-- Title: randomBits Pages: 1 -->
<svg width="399pt" height="39pt"
 viewBox="0.00 0.00 399.00 38.50" xmlns="http://www.w3.org/2000/svg" xmlns:xlink="http://www.w3.org/1999/xlink">
<g id="graph0" class="graph" transform="scale(1 1) rotate(0) translate(4 34.5)">
<title>randomBits</title>
<!-- Node1 -->
<g id="Node000001" class="node">
<title>Node1</title>
<g id="a_Node000001"><a xlink:title=" ">
<polygon fill="#999999" stroke="#666666" points="65.5,-24.88 0,-24.88 0,-5.63 65.5,-5.63 65.5,-24.88"/>
<text text-anchor="middle" x="32.75" y="-11.38" font-family="Helvetica,sans-Serif" font-size="10.00">randomBits</text>
</a>
</g>
</g>
<!-- Node2 -->
<g id="Node000002" class="node">
<title>Node2</title>
<g id="a_Node000002"><a xlink:href="$class_brick_1_1_math_1_1_big_integer.html#ac8b5a32816e89e8854f9d87bcfc93c5f" xlink:title=" ">
<polygon fill="white" stroke="#666666" points="162.5,-24.88 101.5,-24.88 101.5,-5.63 162.5,-5.63 162.5,-24.88"/>
<text text-anchor="middle" x="132" y="-11.38" font-family="Helvetica,sans-Serif" font-size="10.00">fromBytes</text>
</a>
</g>
</g>
<!-- Node1&#45;&gt;Node2 -->
<g id="edge7_Node000001_Node000002" class="edge">
<title>Node1&#45;&gt;Node2</title>
<g id="a_edge7_Node000001_Node000002"><a xlink:title=" ">
<path fill="none" stroke="#63b8ff" d="M65.86,-15.25C73.52,-15.25 81.8,-15.25 89.8,-15.25"/>
<polygon fill="#63b8ff" stroke="#63b8ff" points="89.71,-18.75 99.71,-15.25 89.71,-11.75 89.71,-18.75"/>
</a>
</g>
</g>
<!-- Node3 -->
<g id="Node000003" class="node">
<title>Node3</title>
<g id="a_Node000003"><a xlink:href="$class_brick_1_1_math_1_1_big_integer.html#a3e858ed10ecc4ae0572cff8c37678404" xlink:title=" ">
<polygon fill="white" stroke="#666666" points="256.5,-24.88 198.5,-24.88 198.5,-5.63 256.5,-5.63 256.5,-24.88"/>
<text text-anchor="middle" x="227.5" y="-11.38" font-family="Helvetica,sans-Serif" font-size="10.00">fromBase</text>
</a>
</g>
</g>
<!-- Node2&#45;&gt;Node3 -->
<g id="edge8_Node000002_Node000003" class="edge">
<title>Node2&#45;&gt;Node3</title>
<g id="a_edge8_Node000002_Node000003"><a xlink:title=" ">
<path fill="none" stroke="#63b8ff" d="M162.84,-15.25C170.45,-15.25 178.76,-15.25 186.78,-15.25"/>
<polygon fill="#63b8ff" stroke="#63b8ff" points="186.7,-18.75 196.7,-15.25 186.7,-11.75 186.7,-18.75"/>
</a>
</g>
</g>
<!-- Node4 -->
<g id="Node000004" class="node">
<title>Node4</title>
<g id="a_Node000004"><a xlink:href="$class_brick_1_1_math_1_1_internal_1_1_calculator.html#a5ba61361bf0695a285bbaefefc427191" xlink:title=" ">
<polygon fill="white" stroke="#666666" points="391,-30.5 292.5,-30.5 292.5,0 391,0 391,-30.5"/>
<text text-anchor="start" x="300.5" y="-17" font-family="Helvetica,sans-Serif" font-size="10.00">Brick\Math\Internal</text>
<text text-anchor="middle" x="341.75" y="-5.75" font-family="Helvetica,sans-Serif" font-size="10.00">\Calculator\get</text>
</a>
</g>
</g>
<!-- Node3&#45;&gt;Node4 -->
<g id="edge9_Node000003_Node000004" class="edge">
<title>Node3&#45;&gt;Node4</title>
<g id="a_edge9_Node000003_Node000004"><a xlink:title=" ">
<path fill="none" stroke="#63b8ff" d="M256.83,-15.25C264.24,-15.25 272.52,-15.25 280.9,-15.25"/>
<polygon fill="#63b8ff" stroke="#63b8ff" points="280.83,-18.75 290.83,-15.25 280.83,-11.75 280.83,-18.75"/>
</a>
</g>
</g>
</g>
</svg>
