<?xml version="1.0" encoding="UTF-8" standalone="no"?>
<!DOCTYPE svg PUBLIC "-//W3C//DTD SVG 1.1//EN"
 "http://www.w3.org/Graphics/SVG/1.1/DTD/svg11.dtd">
<!-- Generated by graphviz version 10.0.1 (20240210.2158)
 -->
<!-- Title: placeModule Pages: 1 -->
<svg width="425pt" height="175pt"
 viewBox="0.00 0.00 424.50 175.25" xmlns="http://www.w3.org/2000/svg" xmlns:xlink="http://www.w3.org/1999/xlink">
<g id="graph0" class="graph" transform="scale(1 1) rotate(0) translate(4 171.25)">
<title>placeModule</title>
<!-- Node1 -->
<g id="Node000001" class="node">
<title>Node1</title>
<g id="a_Node000001"><a xlink:title=" ">
<polygon fill="#999999" stroke="#666666" points="416.5,-93.25 345.75,-93.25 345.75,-74 416.5,-74 416.5,-93.25"/>
<text text-anchor="middle" x="381.12" y="-79.75" font-family="Helvetica,sans-Serif" font-size="10.00">placeModule</text>
</a>
</g>
</g>
<!-- Node2 -->
<g id="Node000002" class="node">
<title>Node2</title>
<g id="a_Node000002"><a xlink:href="$class_datamatrix.html#ad4ae32da0dba3a128548a3dece77cef8" xlink:title=" ">
<polygon fill="white" stroke="#666666" points="309.38,-167.25 234.12,-167.25 234.12,-148 309.38,-148 309.38,-167.25"/>
<text text-anchor="middle" x="271.75" y="-153.75" font-family="Helvetica,sans-Serif" font-size="10.00">placeCornerA</text>
</a>
</g>
</g>
<!-- Node1&#45;&gt;Node2 -->
<g id="edge23_Node000001_Node000002" class="edge">
<title>Node1&#45;&gt;Node2</title>
<g id="a_edge23_Node000001_Node000002"><a xlink:title=" ">
<path fill="none" stroke="#63b8ff" d="M360.71,-100.99C347.04,-112.73 327.99,-128.12 309.75,-139.62 305.28,-142.44 300.3,-145.14 295.48,-147.54"/>
<polygon fill="#63b8ff" stroke="#63b8ff" points="362.87,-103.76 368.1,-94.54 358.26,-98.48 362.87,-103.76"/>
</a>
</g>
</g>
<!-- Node5 -->
<g id="Node000005" class="node">
<title>Node5</title>
<g id="a_Node000005"><a xlink:href="$class_datamatrix.html#aa38392d7b4ab2c78700ec6dd7f6e1b78" xlink:title=" ">
<polygon fill="white" stroke="#666666" points="309.38,-130.25 234.12,-130.25 234.12,-111 309.38,-111 309.38,-130.25"/>
<text text-anchor="middle" x="271.75" y="-116.75" font-family="Helvetica,sans-Serif" font-size="10.00">placeCornerB</text>
</a>
</g>
</g>
<!-- Node1&#45;&gt;Node5 -->
<g id="edge26_Node000001_Node000005" class="edge">
<title>Node1&#45;&gt;Node5</title>
<g id="a_edge26_Node000001_Node000005"><a xlink:title=" ">
<path fill="none" stroke="#63b8ff" d="M340.06,-97.43C327.45,-101.78 313.77,-106.49 302.06,-110.53"/>
<polygon fill="#63b8ff" stroke="#63b8ff" points="341.04,-100.8 349.35,-94.23 338.76,-94.18 341.04,-100.8"/>
</a>
</g>
</g>
<!-- Node6 -->
<g id="Node000006" class="node">
<title>Node6</title>
<g id="a_Node000006"><a xlink:href="$class_datamatrix.html#afa775ed6de7d555a8b248a5c9cc07ee5" xlink:title=" ">
<polygon fill="white" stroke="#666666" points="309.75,-93.25 233.75,-93.25 233.75,-74 309.75,-74 309.75,-93.25"/>
<text text-anchor="middle" x="271.75" y="-79.75" font-family="Helvetica,sans-Serif" font-size="10.00">placeCornerC</text>
</a>
</g>
</g>
<!-- Node1&#45;&gt;Node6 -->
<g id="edge28_Node000001_Node000006" class="edge">
<title>Node1&#45;&gt;Node6</title>
<g id="a_edge28_Node000001_Node000006"><a xlink:title=" ">
<path fill="none" stroke="#63b8ff" d="M333.85,-83.62C325.89,-83.62 317.71,-83.62 310.03,-83.62"/>
<polygon fill="#63b8ff" stroke="#63b8ff" points="333.75,-87.13 343.75,-83.63 333.75,-80.13 333.75,-87.13"/>
</a>
</g>
</g>
<!-- Node7 -->
<g id="Node000007" class="node">
<title>Node7</title>
<g id="a_Node000007"><a xlink:href="$class_datamatrix.html#a52ac58c0f375edd52f41f2f80dcc6bdf" xlink:title=" ">
<polygon fill="white" stroke="#666666" points="309.75,-56.25 233.75,-56.25 233.75,-37 309.75,-37 309.75,-56.25"/>
<text text-anchor="middle" x="271.75" y="-42.75" font-family="Helvetica,sans-Serif" font-size="10.00">placeCornerD</text>
</a>
</g>
</g>
<!-- Node1&#45;&gt;Node7 -->
<g id="edge30_Node000001_Node000007" class="edge">
<title>Node1&#45;&gt;Node7</title>
<g id="a_edge30_Node000001_Node000007"><a xlink:title=" ">
<path fill="none" stroke="#63b8ff" d="M340.06,-69.82C327.45,-65.47 313.77,-60.76 302.06,-56.72"/>
<polygon fill="#63b8ff" stroke="#63b8ff" points="338.76,-73.07 349.35,-73.02 341.04,-66.45 338.76,-73.07"/>
</a>
</g>
</g>
<!-- Node8 -->
<g id="Node000008" class="node">
<title>Node8</title>
<g id="a_Node000008"><a xlink:href="$class_datamatrix.html#abf6dc2b728de306551429249a18fd839" xlink:title=" ">
<polygon fill="white" stroke="#666666" points="301.88,-19.25 241.62,-19.25 241.62,0 301.88,0 301.88,-19.25"/>
<text text-anchor="middle" x="271.75" y="-5.75" font-family="Helvetica,sans-Serif" font-size="10.00">placeUtah</text>
</a>
</g>
</g>
<!-- Node1&#45;&gt;Node8 -->
<g id="edge32_Node000001_Node000008" class="edge">
<title>Node1&#45;&gt;Node8</title>
<g id="a_edge32_Node000001_Node000008"><a xlink:title=" ">
<path fill="none" stroke="#63b8ff" d="M360.71,-66.26C347.04,-54.52 327.99,-39.13 309.75,-27.62 305.28,-24.81 300.3,-22.11 295.48,-19.71"/>
<polygon fill="#63b8ff" stroke="#63b8ff" points="358.26,-68.77 368.1,-72.71 362.87,-63.49 358.26,-68.77"/>
</a>
</g>
</g>
<!-- Node3 -->
<g id="Node000003" class="node">
<title>Node3</title>
<g id="a_Node000003"><a xlink:href="$class_datamatrix.html#ab98fa84c933998fc0821de96db719a95" xlink:title=" ">
<polygon fill="white" stroke="#666666" points="197.75,-93.25 103,-93.25 103,-74 197.75,-74 197.75,-93.25"/>
<text text-anchor="middle" x="150.38" y="-79.75" font-family="Helvetica,sans-Serif" font-size="10.00">getPlacementMap</text>
</a>
</g>
</g>
<!-- Node2&#45;&gt;Node3 -->
<g id="edge24_Node000002_Node000003" class="edge">
<title>Node2&#45;&gt;Node3</title>
<g id="a_edge24_Node000002_Node000003"><a xlink:title=" ">
<path fill="none" stroke="#63b8ff" d="M238.87,-142.48C237.12,-141.54 235.41,-140.58 233.75,-139.62 208.46,-124.98 180.66,-105.27 164.69,-93.56"/>
<polygon fill="#63b8ff" stroke="#63b8ff" points="237.11,-145.52 247.61,-146.98 240.32,-139.29 237.11,-145.52"/>
</a>
</g>
</g>
<!-- Node4 -->
<g id="Node000004" class="node">
<title>Node4</title>
<g id="a_Node000004"><a xlink:href="$class_datamatrix.html#ab08645bdd473f9c6c400ea3fbe41046d" xlink:title=" ">
<polygon fill="white" stroke="#666666" points="67,-93.25 0,-93.25 0,-74 67,-74 67,-93.25"/>
<text text-anchor="middle" x="33.5" y="-79.75" font-family="Helvetica,sans-Serif" font-size="10.00">__construct</text>
</a>
</g>
</g>
<!-- Node3&#45;&gt;Node4 -->
<g id="edge25_Node000003_Node000004" class="edge">
<title>Node3&#45;&gt;Node4</title>
<g id="a_edge25_Node000003_Node000004"><a xlink:title=" ">
<path fill="none" stroke="#63b8ff" d="M91.19,-83.62C83.04,-83.62 74.91,-83.62 67.46,-83.62"/>
<polygon fill="#63b8ff" stroke="#63b8ff" points="91.14,-87.13 101.14,-83.63 91.14,-80.13 91.14,-87.13"/>
</a>
</g>
</g>
<!-- Node5&#45;&gt;Node3 -->
<g id="edge27_Node000005_Node000003" class="edge">
<title>Node5&#45;&gt;Node3</title>
<g id="a_edge27_Node000005_Node000003"><a xlink:title=" ">
<path fill="none" stroke="#63b8ff" d="M227.48,-107.21C213.11,-102.76 197.37,-97.88 183.96,-93.72"/>
<polygon fill="#63b8ff" stroke="#63b8ff" points="226.1,-110.45 236.68,-110.07 228.17,-103.76 226.1,-110.45"/>
</a>
</g>
</g>
<!-- Node6&#45;&gt;Node3 -->
<g id="edge29_Node000006_Node000003" class="edge">
<title>Node6&#45;&gt;Node3</title>
<g id="a_edge29_Node000006_Node000003"><a xlink:title=" ">
<path fill="none" stroke="#63b8ff" d="M221.94,-83.62C214.01,-83.62 205.81,-83.62 197.93,-83.62"/>
<polygon fill="#63b8ff" stroke="#63b8ff" points="221.79,-87.13 231.79,-83.63 221.79,-80.13 221.79,-87.13"/>
</a>
</g>
</g>
<!-- Node7&#45;&gt;Node3 -->
<g id="edge31_Node000007_Node000003" class="edge">
<title>Node7&#45;&gt;Node3</title>
<g id="a_edge31_Node000007_Node000003"><a xlink:title=" ">
<path fill="none" stroke="#63b8ff" d="M227.48,-60.04C213.11,-64.49 197.37,-69.37 183.96,-73.53"/>
<polygon fill="#63b8ff" stroke="#63b8ff" points="228.17,-63.49 236.68,-57.18 226.1,-56.8 228.17,-63.49"/>
</a>
</g>
</g>
<!-- Node8&#45;&gt;Node3 -->
<g id="edge33_Node000008_Node000003" class="edge">
<title>Node8&#45;&gt;Node3</title>
<g id="a_edge33_Node000008_Node000003"><a xlink:title=" ">
<path fill="none" stroke="#63b8ff" d="M238.87,-24.77C237.12,-25.71 235.41,-26.67 233.75,-27.62 208.46,-42.27 180.66,-61.98 164.69,-73.69"/>
<polygon fill="#63b8ff" stroke="#63b8ff" points="240.32,-27.96 247.61,-20.27 237.11,-21.73 240.32,-27.96"/>
</a>
</g>
</g>
</g>
</svg>
