<?xml version="1.0" encoding="UTF-8" standalone="no"?>
<!DOCTYPE svg PUBLIC "-//W3C//DTD SVG 1.1//EN"
 "http://www.w3.org/Graphics/SVG/1.1/DTD/svg11.dtd">
<!-- Generated by graphviz version 10.0.1 (20240210.2158)
 -->
<!-- Title: fetchColumn Pages: 1 -->
<svg width="540pt" height="82pt"
 viewBox="0.00 0.00 540.00 82.25" xmlns="http://www.w3.org/2000/svg" xmlns:xlink="http://www.w3.org/1999/xlink">
<g id="graph0" class="graph" transform="scale(1 1) rotate(0) translate(4 78.25)">
<title>fetchColumn</title>
<!-- Node1 -->
<g id="Node000001" class="node">
<title>Node1</title>
<g id="a_Node000001"><a xlink:title=" ">
<polygon fill="#999999" stroke="#666666" points="71.5,-37.25 0,-37.25 0,-18 71.5,-18 71.5,-37.25"/>
<text text-anchor="middle" x="35.75" y="-23.75" font-family="Helvetica,sans-Serif" font-size="10.00">fetchColumn</text>
</a>
</g>
</g>
<!-- Node2 -->
<g id="Node000002" class="node">
<title>Node2</title>
<g id="a_Node000002"><a xlink:href="$class_league_1_1_csv_1_1_result_set.html#a8305c23ff1aaece9a3d59f8eacbf36d7" xlink:title=" ">
<polygon fill="white" stroke="#666666" points="194.75,-56.25 107.5,-56.25 107.5,-37 194.75,-37 194.75,-56.25"/>
<text text-anchor="middle" x="151.12" y="-42.75" font-family="Helvetica,sans-Serif" font-size="10.00">getColumnIndex</text>
</a>
</g>
</g>
<!-- Node1&#45;&gt;Node2 -->
<g id="edge13_Node000001_Node000002" class="edge">
<title>Node1&#45;&gt;Node2</title>
<g id="a_edge13_Node000001_Node000002"><a xlink:title=" ">
<path fill="none" stroke="#63b8ff" d="M71.69,-33.48C79.39,-34.77 87.71,-36.16 95.96,-37.55"/>
<polygon fill="#63b8ff" stroke="#63b8ff" points="95.17,-40.96 105.61,-39.17 96.33,-34.06 95.17,-40.96"/>
</a>
</g>
</g>
<!-- Node6 -->
<g id="Node000006" class="node">
<title>Node6</title>
<g id="a_Node000006"><a xlink:href="$class_league_1_1_csv_1_1_result_set.html#a12fe70b096dde2c4815473c7c5499948" xlink:title=" ">
<polygon fill="white" stroke="#666666" points="186.12,-19.25 116.12,-19.25 116.12,0 186.12,0 186.12,-19.25"/>
<text text-anchor="middle" x="151.12" y="-5.75" font-family="Helvetica,sans-Serif" font-size="10.00">yieldColumn</text>
</a>
</g>
</g>
<!-- Node1&#45;&gt;Node6 -->
<g id="edge18_Node000001_Node000006" class="edge">
<title>Node1&#45;&gt;Node6</title>
<g id="a_edge18_Node000001_Node000006"><a xlink:title=" ">
<path fill="none" stroke="#63b8ff" d="M71.69,-22.08C82.12,-20.42 93.71,-18.58 104.71,-16.84"/>
<polygon fill="#63b8ff" stroke="#63b8ff" points="105.06,-20.32 114.39,-15.3 103.96,-13.41 105.06,-20.32"/>
</a>
</g>
</g>
<!-- Node3 -->
<g id="Node000003" class="node">
<title>Node3</title>
<g id="a_Node000003"><a xlink:href="$class_league_1_1_csv_1_1_result_set.html#a59e092f9a8c5cc0b9424ea7d889ecdfa" xlink:title=" ">
<polygon fill="white" stroke="#666666" points="350.62,-74.25 234.12,-74.25 234.12,-55 350.62,-55 350.62,-74.25"/>
<text text-anchor="middle" x="292.38" y="-60.75" font-family="Helvetica,sans-Serif" font-size="10.00">getColumnIndexByKey</text>
</a>
</g>
</g>
<!-- Node2&#45;&gt;Node3 -->
<g id="edge14_Node000002_Node000003" class="edge">
<title>Node2&#45;&gt;Node3</title>
<g id="a_edge14_Node000002_Node000003"><a xlink:title=" ">
<path fill="none" stroke="#63b8ff" d="M195.04,-52.17C203.73,-53.3 213.08,-54.5 222.41,-55.71"/>
<polygon fill="#63b8ff" stroke="#63b8ff" points="221.87,-59.17 232.24,-56.98 222.77,-52.23 221.87,-59.17"/>
</a>
</g>
</g>
<!-- Node5 -->
<g id="Node000005" class="node">
<title>Node5</title>
<g id="a_Node000005"><a xlink:href="$class_league_1_1_csv_1_1_result_set.html#a640d1353e60978c93c6a8fd1a2d16532" xlink:title=" ">
<polygon fill="white" stroke="#666666" points="354,-37.25 230.75,-37.25 230.75,-18 354,-18 354,-37.25"/>
<text text-anchor="middle" x="292.38" y="-23.75" font-family="Helvetica,sans-Serif" font-size="10.00">getColumnIndexByValue</text>
</a>
</g>
</g>
<!-- Node2&#45;&gt;Node5 -->
<g id="edge16_Node000002_Node000005" class="edge">
<title>Node2&#45;&gt;Node5</title>
<g id="a_edge16_Node000002_Node000005"><a xlink:title=" ">
<path fill="none" stroke="#63b8ff" d="M195.04,-40.77C202.73,-39.72 210.94,-38.6 219.19,-37.47"/>
<polygon fill="#63b8ff" stroke="#63b8ff" points="219.49,-40.97 228.93,-36.15 218.55,-34.03 219.49,-40.97"/>
</a>
</g>
</g>
<!-- Node4 -->
<g id="Node000004" class="node">
<title>Node4</title>
<g id="a_Node000004"><a xlink:href="$class_league_1_1_csv_1_1_invalid_argument.html#aca247b928efd162a909a0a491c2528de" xlink:title=" ">
<polygon fill="white" stroke="#666666" points="532,-60.88 390,-60.88 390,-30.38 532,-30.38 532,-60.88"/>
<text text-anchor="start" x="398" y="-47.38" font-family="Helvetica,sans-Serif" font-size="10.00">League\Csv\InvalidArgument</text>
<text text-anchor="middle" x="461" y="-36.12" font-family="Helvetica,sans-Serif" font-size="10.00">\dueToInvalidColumnIndex</text>
</a>
</g>
</g>
<!-- Node3&#45;&gt;Node4 -->
<g id="edge15_Node000003_Node000004" class="edge">
<title>Node3&#45;&gt;Node4</title>
<g id="a_edge15_Node000003_Node000004"><a xlink:title=" ">
<path fill="none" stroke="#63b8ff" d="M350.72,-58.09C359.62,-57.07 368.96,-56.01 378.27,-54.94"/>
<polygon fill="#63b8ff" stroke="#63b8ff" points="378.55,-58.44 388.09,-53.83 377.75,-51.48 378.55,-58.44"/>
</a>
</g>
</g>
<!-- Node5&#45;&gt;Node4 -->
<g id="edge17_Node000005_Node000004" class="edge">
<title>Node5&#45;&gt;Node4</title>
<g id="a_edge17_Node000005_Node000004"><a xlink:title=" ">
<path fill="none" stroke="#63b8ff" d="M354.47,-34.23C362.24,-35.06 370.28,-35.93 378.3,-36.8"/>
<polygon fill="#63b8ff" stroke="#63b8ff" points="377.78,-40.26 388.1,-37.86 378.53,-33.3 377.78,-40.26"/>
</a>
</g>
</g>
</g>
</svg>
