<?xml version="1.0" encoding="UTF-8" standalone="no"?>
<!DOCTYPE svg PUBLIC "-//W3C//DTD SVG 1.1//EN"
 "http://www.w3.org/Graphics/SVG/1.1/DTD/svg11.dtd">
<!-- Generated by graphviz version 10.0.1 (20240210.2158)
 -->
<!-- Title: DatesModFilter Pages: 1 -->
<svg width="161pt" height="552pt"
 viewBox="0.00 0.00 161.00 552.00" xmlns="http://www.w3.org/2000/svg" xmlns:xlink="http://www.w3.org/1999/xlink">
<g id="graph0" class="graph" transform="scale(1 1) rotate(0) translate(4 548)">
<title>DatesModFilter</title>
<!-- Node1 -->
<g id="Node000001" class="node">
<title>Node1</title>
<g id="a_Node000001"><a xlink:title=" ">
<polygon fill="#999999" stroke="none" points="136.5,-131 16.5,-131 16.5,0 136.5,0 136.5,-131"/>
<text text-anchor="start" x="43.12" y="-117.5" font-family="Helvetica,sans-Serif" font-size="10.00">DatesModFilter</text>
<text text-anchor="start" x="75" y="-102.5" font-family="Helvetica,sans-Serif" font-size="10.00"> </text>
<text text-anchor="start" x="20.5" y="-87.5" font-family="Helvetica,sans-Serif" font-size="10.00">+</text>
<text text-anchor="start" x="30.5" y="-87.5" font-family="Helvetica,sans-Serif" font-size="10.00">static getName()</text>
<text text-anchor="start" x="20.5" y="-72.5" font-family="Helvetica,sans-Serif" font-size="10.00">+</text>
<text text-anchor="start" x="30.5" y="-72.5" font-family="Helvetica,sans-Serif" font-size="10.00">static getId()</text>
<text text-anchor="start" x="20.5" y="-57.5" font-family="Helvetica,sans-Serif" font-size="10.00">+</text>
<text text-anchor="start" x="30.5" y="-57.5" font-family="Helvetica,sans-Serif" font-size="10.00">static getCriteria</text>
<text text-anchor="start" x="30.5" y="-46.25" font-family="Helvetica,sans-Serif" font-size="10.00">(string $table, $value)</text>
<text text-anchor="start" x="20.5" y="-31.5" font-family="Helvetica,sans-Serif" font-size="10.00">+</text>
<text text-anchor="start" x="30.5" y="-31.5" font-family="Helvetica,sans-Serif" font-size="10.00">static getSearchCriteria</text>
<text text-anchor="start" x="30.5" y="-20.25" font-family="Helvetica,sans-Serif" font-size="10.00">(string $table, $value)</text>
<text text-anchor="start" x="20.5" y="-5.5" font-family="Helvetica,sans-Serif" font-size="10.00">+</text>
<text text-anchor="start" x="30.5" y="-5.5" font-family="Helvetica,sans-Serif" font-size="10.00">static getHtml($value)</text>
<polygon fill="#666666" stroke="#666666" points="16.5,-114 16.5,-114 136.5,-114 136.5,-114 16.5,-114"/>
<polygon fill="#666666" stroke="#666666" points="16.5,-99 16.5,-99 136.5,-99 136.5,-99 16.5,-99"/>
<polygon fill="none" stroke="#666666" points="16.5,0 16.5,-131 136.5,-131 136.5,0 16.5,0"/>
</a>
</g>
</g>
<!-- Node2 -->
<g id="Node000002" class="node">
<title>Node2</title>
<g id="a_Node000002"><a xlink:href="$class_glpi_1_1_dashboard_1_1_filters_1_1_abstract_filter.html" xlink:title=" ">
<polygon fill="white" stroke="none" points="153,-544 0,-544 0,-167 153,-167 153,-544"/>
<text text-anchor="start" x="47.25" y="-530.5" font-family="Helvetica,sans-Serif" font-size="10.00">AbstractFilter</text>
<text text-anchor="start" x="75" y="-515.5" font-family="Helvetica,sans-Serif" font-size="10.00"> </text>
<text text-anchor="start" x="4" y="-500.5" font-family="Helvetica,sans-Serif" font-size="10.00">+</text>
<text text-anchor="start" x="14" y="-500.5" font-family="Helvetica,sans-Serif" font-size="10.00">static getName()</text>
<text text-anchor="start" x="4" y="-485.5" font-family="Helvetica,sans-Serif" font-size="10.00">+</text>
<text text-anchor="start" x="14" y="-485.5" font-family="Helvetica,sans-Serif" font-size="10.00">static getHtml($value)</text>
<text text-anchor="start" x="4" y="-470.5" font-family="Helvetica,sans-Serif" font-size="10.00">+</text>
<text text-anchor="start" x="14" y="-470.5" font-family="Helvetica,sans-Serif" font-size="10.00">static getId()</text>
<text text-anchor="start" x="4" y="-455.5" font-family="Helvetica,sans-Serif" font-size="10.00">+</text>
<text text-anchor="start" x="14" y="-455.5" font-family="Helvetica,sans-Serif" font-size="10.00">static canBeApplied</text>
<text text-anchor="start" x="14" y="-444.25" font-family="Helvetica,sans-Serif" font-size="10.00">(string $table)</text>
<text text-anchor="start" x="4" y="-429.5" font-family="Helvetica,sans-Serif" font-size="10.00">+</text>
<text text-anchor="start" x="14" y="-429.5" font-family="Helvetica,sans-Serif" font-size="10.00">static getCriteria</text>
<text text-anchor="start" x="14" y="-418.25" font-family="Helvetica,sans-Serif" font-size="10.00">(string $table, $value)</text>
<text text-anchor="start" x="4" y="-403.5" font-family="Helvetica,sans-Serif" font-size="10.00">+</text>
<text text-anchor="start" x="14" y="-403.5" font-family="Helvetica,sans-Serif" font-size="10.00">static getSearchCriteria</text>
<text text-anchor="start" x="14" y="-392.25" font-family="Helvetica,sans-Serif" font-size="10.00">(string $table, $value)</text>
<text text-anchor="start" x="4" y="-377.5" font-family="Helvetica,sans-Serif" font-size="10.00">+</text>
<text text-anchor="start" x="14" y="-377.5" font-family="Helvetica,sans-Serif" font-size="10.00">static field(string</text>
<text text-anchor="start" x="14" y="-366.25" font-family="Helvetica,sans-Serif" font-size="10.00"> $id, string $field,</text>
<text text-anchor="start" x="14" y="-355" font-family="Helvetica,sans-Serif" font-size="10.00"> string $label, bool</text>
<text text-anchor="start" x="14" y="-343.75" font-family="Helvetica,sans-Serif" font-size="10.00"> $filled=false)</text>
<text text-anchor="start" x="4.38" y="-328.5" font-family="Helvetica,sans-Serif" font-size="10.00">#</text>
<text text-anchor="start" x="14" y="-328.5" font-family="Helvetica,sans-Serif" font-size="10.00">static getSearchOptionID</text>
<text text-anchor="start" x="14" y="-317.25" font-family="Helvetica,sans-Serif" font-size="10.00">(string $table, string</text>
<text text-anchor="start" x="14" y="-306" font-family="Helvetica,sans-Serif" font-size="10.00"> $name, string $tableToSearch)</text>
<text text-anchor="start" x="4.38" y="-291.5" font-family="Helvetica,sans-Serif" font-size="10.00">#</text>
<text text-anchor="start" x="14" y="-291.5" font-family="Helvetica,sans-Serif" font-size="10.00">static displayList</text>
<text text-anchor="start" x="14" y="-280.25" font-family="Helvetica,sans-Serif" font-size="10.00">(string $label, string</text>
<text text-anchor="start" x="14" y="-269" font-family="Helvetica,sans-Serif" font-size="10.00"> $value, string $fieldname,</text>
<text text-anchor="start" x="14" y="-257.75" font-family="Helvetica,sans-Serif" font-size="10.00"> string $itemtype, array</text>
<text text-anchor="start" x="14" y="-246.5" font-family="Helvetica,sans-Serif" font-size="10.00"> $add_params=[])</text>
<text text-anchor="start" x="4.38" y="-231.5" font-family="Helvetica,sans-Serif" font-size="10.00">#</text>
<text text-anchor="start" x="14" y="-231.5" font-family="Helvetica,sans-Serif" font-size="10.00">static getDatesCriteria</text>
<text text-anchor="start" x="14" y="-220.25" font-family="Helvetica,sans-Serif" font-size="10.00">(string $field, array</text>
<text text-anchor="start" x="14" y="-209" font-family="Helvetica,sans-Serif" font-size="10.00"> $dates)</text>
<text text-anchor="start" x="4.38" y="-194.5" font-family="Helvetica,sans-Serif" font-size="10.00">#</text>
<text text-anchor="start" x="14" y="-194.5" font-family="Helvetica,sans-Serif" font-size="10.00">static getDatesSearchCriteria</text>
<text text-anchor="start" x="14" y="-183.25" font-family="Helvetica,sans-Serif" font-size="10.00">(int $searchoption_id, array</text>
<text text-anchor="start" x="14" y="-172" font-family="Helvetica,sans-Serif" font-size="10.00"> $dates, string $when)</text>
<polygon fill="#666666" stroke="#666666" points="0,-527 0,-527 153,-527 153,-527 0,-527"/>
<polygon fill="#666666" stroke="#666666" points="0,-512 0,-512 153,-512 153,-512 0,-512"/>
<polygon fill="none" stroke="#666666" points="0,-167 0,-544 153,-544 153,-167 0,-167"/>
</a>
</g>
</g>
<!-- Node2&#45;&gt;Node1 -->
<g id="edge3_Node000001_Node000002" class="edge">
<title>Node2&#45;&gt;Node1</title>
<g id="a_edge3_Node000001_Node000002"><a xlink:title=" ">
<path fill="none" stroke="#63b8ff" d="M76.5,-155.99C76.5,-147.23 76.5,-138.8 76.5,-130.84"/>
<polygon fill="none" stroke="#63b8ff" points="73,-155.71 76.5,-165.71 80,-155.71 73,-155.71"/>
</a>
</g>
</g>
</g>
</svg>
