<?xml version="1.0" encoding="UTF-8" standalone="no"?>
<!DOCTYPE svg PUBLIC "-//W3C//DTD SVG 1.1//EN"
 "http://www.w3.org/Graphics/SVG/1.1/DTD/svg11.dtd">
<!-- Generated by graphviz version 10.0.1 (20240210.2158)
 -->
<!-- Title: displaySuperHeader Pages: 1 -->
<svg width="521pt" height="76pt"
 viewBox="0.00 0.00 521.00 75.88" xmlns="http://www.w3.org/2000/svg" xmlns:xlink="http://www.w3.org/1999/xlink">
<g id="graph0" class="graph" transform="scale(1 1) rotate(0) translate(4 71.88)">
<title>displaySuperHeader</title>
<!-- Node1 -->
<g id="Node000001" class="node">
<title>Node1</title>
<g id="a_Node000001"><a xlink:title=" ">
<polygon fill="#999999" stroke="#666666" points="103.75,-45.88 0,-45.88 0,-26.62 103.75,-26.62 103.75,-45.88"/>
<text text-anchor="middle" x="51.88" y="-32.38" font-family="Helvetica,sans-Serif" font-size="10.00">displaySuperHeader</text>
</a>
</g>
</g>
<!-- Node2 -->
<g id="Node000002" class="node">
<title>Node2</title>
<g id="a_Node000002"><a xlink:href="$class_h_t_m_l_table_base.html#a83ebab3b4e22892a1b7c1a5dcd34e6d0" xlink:title=" ">
<polygon fill="white" stroke="#666666" points="301.25,-67.88 140.5,-67.88 140.5,-48.62 301.25,-48.62 301.25,-67.88"/>
<text text-anchor="middle" x="220.88" y="-54.38" font-family="Helvetica,sans-Serif" font-size="10.00">HTMLTableBase\getHeaderOrder</text>
</a>
</g>
</g>
<!-- Node1&#45;&gt;Node2 -->
<g id="edge7_Node000001_Node000002" class="edge">
<title>Node1&#45;&gt;Node2</title>
<g id="a_edge7_Node000001_Node000002"><a xlink:title=" ">
<path fill="none" stroke="#63b8ff" d="M103.89,-42.97C112.78,-44.14 122.26,-45.39 131.81,-46.65"/>
<polygon fill="#63b8ff" stroke="#63b8ff" points="131.17,-50.09 141.54,-47.93 132.08,-43.15 131.17,-50.09"/>
</a>
</g>
</g>
<!-- Node3 -->
<g id="Node000003" class="node">
<title>Node3</title>
<g id="a_Node000003"><a xlink:href="$class_h_t_m_l_table_base.html#afea164a948dd2bd1075f1b8fb9d7289a" xlink:title=" ">
<polygon fill="white" stroke="#666666" points="302,-30.5 139.75,-30.5 139.75,0 302,0 302,-30.5"/>
<text text-anchor="start" x="147.75" y="-17" font-family="Helvetica,sans-Serif" font-size="10.00">HTMLTableBase\getSuperHeader</text>
<text text-anchor="middle" x="220.88" y="-5.75" font-family="Helvetica,sans-Serif" font-size="10.00">ByName</text>
</a>
</g>
</g>
<!-- Node1&#45;&gt;Node3 -->
<g id="edge8_Node000001_Node000003" class="edge">
<title>Node1&#45;&gt;Node3</title>
<g id="a_edge8_Node000001_Node000003"><a xlink:title=" ">
<path fill="none" stroke="#63b8ff" d="M103.89,-29.84C111.6,-28.86 119.76,-27.84 128.02,-26.8"/>
<polygon fill="#63b8ff" stroke="#63b8ff" points="128.34,-30.29 137.83,-25.57 127.47,-23.34 128.34,-30.29"/>
</a>
</g>
</g>
<!-- Node4 -->
<g id="Node000004" class="node">
<title>Node4</title>
<g id="a_Node000004"><a xlink:href="$class_h_t_m_l_table_base.html#afca540423637a428eff08e7a55a4c33c" xlink:title=" ">
<polygon fill="white" stroke="#666666" points="513,-24.88 338,-24.88 338,-5.63 513,-5.63 513,-24.88"/>
<text text-anchor="middle" x="425.5" y="-11.38" font-family="Helvetica,sans-Serif" font-size="10.00">HTMLTableBase\getHeaderByName</text>
</a>
</g>
</g>
<!-- Node3&#45;&gt;Node4 -->
<g id="edge9_Node000003_Node000004" class="edge">
<title>Node3&#45;&gt;Node4</title>
<g id="a_edge9_Node000003_Node000004"><a xlink:title=" ">
<path fill="none" stroke="#63b8ff" d="M302.25,-15.25C310.13,-15.25 318.2,-15.25 326.23,-15.25"/>
<polygon fill="#63b8ff" stroke="#63b8ff" points="326.04,-18.75 336.04,-15.25 326.04,-11.75 326.04,-18.75"/>
</a>
</g>
</g>
</g>
</svg>
