<?xml version="1.0" encoding="UTF-8" standalone="no"?>
<!DOCTYPE svg PUBLIC "-//W3C//DTD SVG 1.1//EN"
 "http://www.w3.org/Graphics/SVG/1.1/DTD/svg11.dtd">
<!-- Generated by graphviz version 10.0.1 (20240210.2158)
 -->
<!-- Title: TarByPear Pages: 1 -->
<svg width="541pt" height="1492pt"
 viewBox="0.00 0.00 541.00 1492.00" xmlns="http://www.w3.org/2000/svg" xmlns:xlink="http://www.w3.org/1999/xlink">
<g id="graph0" class="graph" transform="scale(1 1) rotate(0) translate(4 1488)">
<title>TarByPear</title>
<!-- Node1 -->
<g id="Node000001" class="node">
<title>Node1</title>
<g id="a_Node000001"><a xlink:title=" ">
<polygon fill="#999999" stroke="none" points="211,-423 0,-423 0,0 211,0 211,-423"/>
<text text-anchor="start" x="82.62" y="-409.5" font-family="Helvetica,sans-Serif" font-size="10.00">TarByPear</text>
<text text-anchor="start" x="4.38" y="-394.5" font-family="Helvetica,sans-Serif" font-size="10.00">#</text>
<text text-anchor="start" x="14" y="-394.5" font-family="Helvetica,sans-Serif" font-size="10.00">$tar</text>
<text text-anchor="start" x="4.38" y="-379.5" font-family="Helvetica,sans-Serif" font-size="10.00">#</text>
<text text-anchor="start" x="14" y="-379.5" font-family="Helvetica,sans-Serif" font-size="10.00">$pearCompressionRatio</text>
<text text-anchor="start" x="4.38" y="-364.5" font-family="Helvetica,sans-Serif" font-size="10.00">#</text>
<text text-anchor="start" x="14" y="-364.5" font-family="Helvetica,sans-Serif" font-size="10.00">$pearFilesIndex</text>
<text text-anchor="start" x="4.38" y="-349.5" font-family="Helvetica,sans-Serif" font-size="10.00">#</text>
<text text-anchor="start" x="14" y="-349.5" font-family="Helvetica,sans-Serif" font-size="10.00">$pureFilesNumber</text>
<text text-anchor="start" x="4" y="-334.5" font-family="Helvetica,sans-Serif" font-size="10.00">+</text>
<text text-anchor="start" x="14" y="-334.5" font-family="Helvetica,sans-Serif" font-size="10.00">__construct($archiveFile</text>
<text text-anchor="start" x="14" y="-323.25" font-family="Helvetica,sans-Serif" font-size="10.00">Name, $format, $password=null)</text>
<text text-anchor="start" x="4" y="-308.5" font-family="Helvetica,sans-Serif" font-size="10.00">+</text>
<text text-anchor="start" x="14" y="-308.5" font-family="Helvetica,sans-Serif" font-size="10.00">getArchiveInformation()</text>
<text text-anchor="start" x="4" y="-293.5" font-family="Helvetica,sans-Serif" font-size="10.00">+</text>
<text text-anchor="start" x="14" y="-293.5" font-family="Helvetica,sans-Serif" font-size="10.00">getFileNames()</text>
<text text-anchor="start" x="4" y="-278.5" font-family="Helvetica,sans-Serif" font-size="10.00">+</text>
<text text-anchor="start" x="14" y="-278.5" font-family="Helvetica,sans-Serif" font-size="10.00">isFileExists($fileName)</text>
<text text-anchor="start" x="4" y="-263.5" font-family="Helvetica,sans-Serif" font-size="10.00">+</text>
<text text-anchor="start" x="14" y="-263.5" font-family="Helvetica,sans-Serif" font-size="10.00">getFileData($fileName)</text>
<text text-anchor="start" x="4" y="-248.5" font-family="Helvetica,sans-Serif" font-size="10.00">+</text>
<text text-anchor="start" x="14" y="-248.5" font-family="Helvetica,sans-Serif" font-size="10.00">getFileContent($fileName)</text>
<text text-anchor="start" x="4" y="-233.5" font-family="Helvetica,sans-Serif" font-size="10.00">+</text>
<text text-anchor="start" x="14" y="-233.5" font-family="Helvetica,sans-Serif" font-size="10.00">getFileStream($fileName)</text>
<text text-anchor="start" x="4" y="-218.5" font-family="Helvetica,sans-Serif" font-size="10.00">+</text>
<text text-anchor="start" x="14" y="-218.5" font-family="Helvetica,sans-Serif" font-size="10.00">extractFiles($outputFolder,</text>
<text text-anchor="start" x="14" y="-207.25" font-family="Helvetica,sans-Serif" font-size="10.00"> array $files)</text>
<text text-anchor="start" x="4" y="-192.5" font-family="Helvetica,sans-Serif" font-size="10.00">+</text>
<text text-anchor="start" x="14" y="-192.5" font-family="Helvetica,sans-Serif" font-size="10.00">extractArchive($outputFolder)</text>
<text text-anchor="start" x="4" y="-177.5" font-family="Helvetica,sans-Serif" font-size="10.00">+</text>
<text text-anchor="start" x="14" y="-177.5" font-family="Helvetica,sans-Serif" font-size="10.00">addFiles(array $files)</text>
<text text-anchor="start" x="4" y="-162.5" font-family="Helvetica,sans-Serif" font-size="10.00">+</text>
<text text-anchor="start" x="14" y="-162.5" font-family="Helvetica,sans-Serif" font-size="10.00">addFileFromString</text>
<text text-anchor="start" x="14" y="-151.25" font-family="Helvetica,sans-Serif" font-size="10.00">($inArchiveName, $content)</text>
<text text-anchor="start" x="4" y="-136.5" font-family="Helvetica,sans-Serif" font-size="10.00">+</text>
<text text-anchor="start" x="14" y="-136.5" font-family="Helvetica,sans-Serif" font-size="10.00">static getDescription()</text>
<text text-anchor="start" x="4" y="-121.5" font-family="Helvetica,sans-Serif" font-size="10.00">+</text>
<text text-anchor="start" x="14" y="-121.5" font-family="Helvetica,sans-Serif" font-size="10.00">static getInstallationInstruction()</text>
<text text-anchor="start" x="4" y="-106.5" font-family="Helvetica,sans-Serif" font-size="10.00">+</text>
<text text-anchor="start" x="14" y="-106.5" font-family="Helvetica,sans-Serif" font-size="10.00">static getSupportedFormats()</text>
<text text-anchor="start" x="4" y="-91.5" font-family="Helvetica,sans-Serif" font-size="10.00">+</text>
<text text-anchor="start" x="14" y="-91.5" font-family="Helvetica,sans-Serif" font-size="10.00">static checkFormatSupport</text>
<text text-anchor="start" x="14" y="-80.25" font-family="Helvetica,sans-Serif" font-size="10.00">($format)</text>
<text text-anchor="start" x="4" y="-65.5" font-family="Helvetica,sans-Serif" font-size="10.00">+</text>
<text text-anchor="start" x="14" y="-65.5" font-family="Helvetica,sans-Serif" font-size="10.00">static createArchive</text>
<text text-anchor="start" x="14" y="-54.25" font-family="Helvetica,sans-Serif" font-size="10.00">(array $files, $archiveFile</text>
<text text-anchor="start" x="14" y="-43" font-family="Helvetica,sans-Serif" font-size="10.00">Name, $archiveFormat, $compression</text>
<text text-anchor="start" x="14" y="-31.75" font-family="Helvetica,sans-Serif" font-size="10.00">Level=self::COMPRESSION_AVERAGE,</text>
<text text-anchor="start" x="14" y="-20.5" font-family="Helvetica,sans-Serif" font-size="10.00"> $password=null, $fileProgressCallable=null)</text>
<text text-anchor="start" x="4.38" y="-5.5" font-family="Helvetica,sans-Serif" font-size="10.00">#</text>
<text text-anchor="start" x="14" y="-5.5" font-family="Helvetica,sans-Serif" font-size="10.00">open($archiveType)</text>
<polygon fill="#666666" stroke="#666666" points="0,-406 0,-406 211,-406 211,-406 0,-406"/>
<polygon fill="#666666" stroke="#666666" points="0,-346 0,-346 12,-346 12,-346 0,-346"/>
<polygon fill="#666666" stroke="#666666" points="12,-346 12,-346 211,-346 211,-346 12,-346"/>
<polygon fill="none" stroke="#666666" points="0,0 0,-423 211,-423 211,0 0,0"/>
</a>
</g>
</g>
<!-- Node2 -->
<g id="Node000002" class="node">
<title>Node2</title>
<g id="a_Node000002"><a xlink:href="$classwapmorgan_1_1_unified_archive_1_1_drivers_1_1_basic_1_1_basic_pure_driver.html" xlink:title=" ">
<polygon fill="white" stroke="none" points="258,-524 101,-524 101,-460 258,-460 258,-524"/>
<text text-anchor="start" x="143.88" y="-510.5" font-family="Helvetica,sans-Serif" font-size="10.00">BasicPureDriver</text>
<text text-anchor="start" x="178" y="-495.5" font-family="Helvetica,sans-Serif" font-size="10.00"> </text>
<text text-anchor="start" x="105" y="-480.5" font-family="Helvetica,sans-Serif" font-size="10.00">+</text>
<text text-anchor="start" x="115" y="-480.5" font-family="Helvetica,sans-Serif" font-size="10.00">static isInstalled()</text>
<text text-anchor="start" x="105" y="-465.5" font-family="Helvetica,sans-Serif" font-size="10.00">+</text>
<text text-anchor="start" x="115" y="-465.5" font-family="Helvetica,sans-Serif" font-size="10.00">static getInstallationInstruction()</text>
<polygon fill="#666666" stroke="#666666" points="101,-507 101,-507 258,-507 258,-507 101,-507"/>
<polygon fill="#666666" stroke="#666666" points="101,-492 101,-492 258,-492 258,-492 101,-492"/>
<polygon fill="none" stroke="#666666" points="101,-460 101,-524 258,-524 258,-460 101,-460"/>
</a>
</g>
</g>
<!-- Node2&#45;&gt;Node1 -->
<g id="edge13_Node000001_Node000002" class="edge">
<title>Node2&#45;&gt;Node1</title>
<g id="a_edge13_Node000001_Node000002"><a xlink:title=" ">
<path fill="none" stroke="#63b8ff" d="M168.36,-449.07C166.24,-441.09 163.89,-432.25 161.38,-422.82"/>
<polygon fill="none" stroke="#63b8ff" points="164.96,-449.9 170.91,-458.67 171.72,-448.11 164.96,-449.9"/>
</a>
</g>
</g>
<!-- Node3 -->
<g id="Node000003" class="node">
<title>Node3</title>
<g id="a_Node000003"><a xlink:href="$classwapmorgan_1_1_unified_archive_1_1_drivers_1_1_basic_1_1_basic_driver.html" xlink:title=" ">
<polygon fill="white" stroke="none" points="533,-1275.25 266,-1275.25 266,-571.25 533,-571.25 533,-1275.25"/>
<text text-anchor="start" x="374" y="-1261.75" font-family="Helvetica,sans-Serif" font-size="10.00">BasicDriver</text>
<text text-anchor="start" x="270" y="-1246.75" font-family="Helvetica,sans-Serif" font-size="10.00">+</text>
<text text-anchor="start" x="280" y="-1246.75" font-family="Helvetica,sans-Serif" font-size="10.00">const TYPE_EXTENSION</text>
<text text-anchor="start" x="270" y="-1231.75" font-family="Helvetica,sans-Serif" font-size="10.00">+</text>
<text text-anchor="start" x="280" y="-1231.75" font-family="Helvetica,sans-Serif" font-size="10.00">const TYPE_UTILITIES</text>
<text text-anchor="start" x="270" y="-1216.75" font-family="Helvetica,sans-Serif" font-size="10.00">+</text>
<text text-anchor="start" x="280" y="-1216.75" font-family="Helvetica,sans-Serif" font-size="10.00">const TYPE_PURE_PHP</text>
<text text-anchor="start" x="270" y="-1201.75" font-family="Helvetica,sans-Serif" font-size="10.00">+</text>
<text text-anchor="start" x="280" y="-1201.75" font-family="Helvetica,sans-Serif" font-size="10.00">const OPEN</text>
<text text-anchor="start" x="270" y="-1186.75" font-family="Helvetica,sans-Serif" font-size="10.00">+</text>
<text text-anchor="start" x="280" y="-1186.75" font-family="Helvetica,sans-Serif" font-size="10.00">const OPEN_ENCRYPTED</text>
<text text-anchor="start" x="270" y="-1171.75" font-family="Helvetica,sans-Serif" font-size="10.00">+</text>
<text text-anchor="start" x="280" y="-1171.75" font-family="Helvetica,sans-Serif" font-size="10.00">const OPEN_VOLUMED</text>
<text text-anchor="start" x="270" y="-1156.75" font-family="Helvetica,sans-Serif" font-size="10.00">+</text>
<text text-anchor="start" x="280" y="-1156.75" font-family="Helvetica,sans-Serif" font-size="10.00">const GET_COMMENT</text>
<text text-anchor="start" x="270" y="-1141.75" font-family="Helvetica,sans-Serif" font-size="10.00">+</text>
<text text-anchor="start" x="280" y="-1141.75" font-family="Helvetica,sans-Serif" font-size="10.00">const EXTRACT_CONTENT</text>
<text text-anchor="start" x="270" y="-1126.75" font-family="Helvetica,sans-Serif" font-size="10.00">+</text>
<text text-anchor="start" x="280" y="-1126.75" font-family="Helvetica,sans-Serif" font-size="10.00">const STREAM_CONTENT</text>
<text text-anchor="start" x="270" y="-1111.75" font-family="Helvetica,sans-Serif" font-size="10.00">+</text>
<text text-anchor="start" x="280" y="-1111.75" font-family="Helvetica,sans-Serif" font-size="10.00">const SET_COMMENT</text>
<text text-anchor="start" x="270" y="-1096.75" font-family="Helvetica,sans-Serif" font-size="10.00">+</text>
<text text-anchor="start" x="280" y="-1096.75" font-family="Helvetica,sans-Serif" font-size="10.00">const TYPE</text>
<text text-anchor="start" x="270.38" y="-1081.75" font-family="Helvetica,sans-Serif" font-size="10.00">#</text>
<text text-anchor="start" x="280" y="-1081.75" font-family="Helvetica,sans-Serif" font-size="10.00">$fileName</text>
<text text-anchor="start" x="270.38" y="-1066.75" font-family="Helvetica,sans-Serif" font-size="10.00">#</text>
<text text-anchor="start" x="280" y="-1066.75" font-family="Helvetica,sans-Serif" font-size="10.00">$format</text>
<text text-anchor="start" x="270" y="-1051.75" font-family="Helvetica,sans-Serif" font-size="10.00">+</text>
<text text-anchor="start" x="280" y="-1051.75" font-family="Helvetica,sans-Serif" font-size="10.00">checkAbility($ability)</text>
<text text-anchor="start" x="270" y="-1036.75" font-family="Helvetica,sans-Serif" font-size="10.00">+</text>
<text text-anchor="start" x="280" y="-1036.75" font-family="Helvetica,sans-Serif" font-size="10.00">__construct($archiveFile</text>
<text text-anchor="start" x="280" y="-1025.5" font-family="Helvetica,sans-Serif" font-size="10.00">Name, $format, $password=null)</text>
<text text-anchor="start" x="270" y="-1010.75" font-family="Helvetica,sans-Serif" font-size="10.00">+</text>
<text text-anchor="start" x="280" y="-1010.75" font-family="Helvetica,sans-Serif" font-size="10.00">getArchiveInformation()</text>
<text text-anchor="start" x="270" y="-995.75" font-family="Helvetica,sans-Serif" font-size="10.00">+</text>
<text text-anchor="start" x="280" y="-995.75" font-family="Helvetica,sans-Serif" font-size="10.00">getFileNames()</text>
<text text-anchor="start" x="270" y="-980.75" font-family="Helvetica,sans-Serif" font-size="10.00">+</text>
<text text-anchor="start" x="280" y="-980.75" font-family="Helvetica,sans-Serif" font-size="10.00">isFileExists($fileName)</text>
<text text-anchor="start" x="270" y="-965.75" font-family="Helvetica,sans-Serif" font-size="10.00">+</text>
<text text-anchor="start" x="280" y="-965.75" font-family="Helvetica,sans-Serif" font-size="10.00">getFileData($fileName)</text>
<text text-anchor="start" x="270" y="-950.75" font-family="Helvetica,sans-Serif" font-size="10.00">+</text>
<text text-anchor="start" x="280" y="-950.75" font-family="Helvetica,sans-Serif" font-size="10.00">getFileContent($fileName)</text>
<text text-anchor="start" x="270" y="-935.75" font-family="Helvetica,sans-Serif" font-size="10.00">+</text>
<text text-anchor="start" x="280" y="-935.75" font-family="Helvetica,sans-Serif" font-size="10.00">getFileStream($fileName)</text>
<text text-anchor="start" x="270" y="-920.75" font-family="Helvetica,sans-Serif" font-size="10.00">+</text>
<text text-anchor="start" x="280" y="-920.75" font-family="Helvetica,sans-Serif" font-size="10.00">extractFiles($outputFolder,</text>
<text text-anchor="start" x="280" y="-909.5" font-family="Helvetica,sans-Serif" font-size="10.00"> array $files)</text>
<text text-anchor="start" x="270" y="-894.75" font-family="Helvetica,sans-Serif" font-size="10.00">+</text>
<text text-anchor="start" x="280" y="-894.75" font-family="Helvetica,sans-Serif" font-size="10.00">extractArchive($outputFolder)</text>
<text text-anchor="start" x="270" y="-879.75" font-family="Helvetica,sans-Serif" font-size="10.00">+</text>
<text text-anchor="start" x="280" y="-879.75" font-family="Helvetica,sans-Serif" font-size="10.00">deleteFiles(array</text>
<text text-anchor="start" x="280" y="-868.5" font-family="Helvetica,sans-Serif" font-size="10.00"> $files)</text>
<text text-anchor="start" x="270" y="-853.75" font-family="Helvetica,sans-Serif" font-size="10.00">+</text>
<text text-anchor="start" x="280" y="-853.75" font-family="Helvetica,sans-Serif" font-size="10.00">addFiles(array $files)</text>
<text text-anchor="start" x="270" y="-838.75" font-family="Helvetica,sans-Serif" font-size="10.00">+</text>
<text text-anchor="start" x="280" y="-838.75" font-family="Helvetica,sans-Serif" font-size="10.00">addFileFromString</text>
<text text-anchor="start" x="280" y="-827.5" font-family="Helvetica,sans-Serif" font-size="10.00">($inArchiveName, $content)</text>
<text text-anchor="start" x="270" y="-812.75" font-family="Helvetica,sans-Serif" font-size="10.00">+</text>
<text text-anchor="start" x="280" y="-812.75" font-family="Helvetica,sans-Serif" font-size="10.00">getComment()</text>
<text text-anchor="start" x="270" y="-797.75" font-family="Helvetica,sans-Serif" font-size="10.00">+</text>
<text text-anchor="start" x="280" y="-797.75" font-family="Helvetica,sans-Serif" font-size="10.00">setComment($comment)</text>
<text text-anchor="start" x="270" y="-782.75" font-family="Helvetica,sans-Serif" font-size="10.00">+</text>
<text text-anchor="start" x="280" y="-782.75" font-family="Helvetica,sans-Serif" font-size="10.00">static getDescription()</text>
<text text-anchor="start" x="270" y="-767.75" font-family="Helvetica,sans-Serif" font-size="10.00">+</text>
<text text-anchor="start" x="280" y="-767.75" font-family="Helvetica,sans-Serif" font-size="10.00">static isInstalled()</text>
<text text-anchor="start" x="270" y="-752.75" font-family="Helvetica,sans-Serif" font-size="10.00">+</text>
<text text-anchor="start" x="280" y="-752.75" font-family="Helvetica,sans-Serif" font-size="10.00">static getInstallationInstruction()</text>
<text text-anchor="start" x="270" y="-737.75" font-family="Helvetica,sans-Serif" font-size="10.00">+</text>
<text text-anchor="start" x="280" y="-737.75" font-family="Helvetica,sans-Serif" font-size="10.00">static getSupportedFormats()</text>
<text text-anchor="start" x="270" y="-722.75" font-family="Helvetica,sans-Serif" font-size="10.00">+</text>
<text text-anchor="start" x="280" y="-722.75" font-family="Helvetica,sans-Serif" font-size="10.00">static checkFormatSupport</text>
<text text-anchor="start" x="280" y="-711.5" font-family="Helvetica,sans-Serif" font-size="10.00">($format)</text>
<text text-anchor="start" x="270" y="-696.75" font-family="Helvetica,sans-Serif" font-size="10.00">+</text>
<text text-anchor="start" x="280" y="-696.75" font-family="Helvetica,sans-Serif" font-size="10.00">static createArchive</text>
<text text-anchor="start" x="280" y="-685.5" font-family="Helvetica,sans-Serif" font-size="10.00">(array $files, $archiveFile</text>
<text text-anchor="start" x="280" y="-674.25" font-family="Helvetica,sans-Serif" font-size="10.00">Name, $archiveFormat, $compression</text>
<text text-anchor="start" x="280" y="-663" font-family="Helvetica,sans-Serif" font-size="10.00">Level=self::COMPRESSION_AVERAGE,</text>
<text text-anchor="start" x="280" y="-651.75" font-family="Helvetica,sans-Serif" font-size="10.00"> $password=null, $fileProgressCallable=null)</text>
<text text-anchor="start" x="270" y="-636.75" font-family="Helvetica,sans-Serif" font-size="10.00">+</text>
<text text-anchor="start" x="280" y="-636.75" font-family="Helvetica,sans-Serif" font-size="10.00">static createArchiveInString</text>
<text text-anchor="start" x="280" y="-625.5" font-family="Helvetica,sans-Serif" font-size="10.00">(array $files, $archiveFormat,</text>
<text text-anchor="start" x="280" y="-614.25" font-family="Helvetica,sans-Serif" font-size="10.00"> $compressionLevel=self::COMPRESSION</text>
<text text-anchor="start" x="280" y="-603" font-family="Helvetica,sans-Serif" font-size="10.00">_AVERAGE, $password=null, $fileProgressCallable=null)</text>
<text text-anchor="start" x="270" y="-587.75" font-family="Helvetica,sans-Serif" font-size="10.00">+</text>
<text text-anchor="start" x="280" y="-587.75" font-family="Helvetica,sans-Serif" font-size="10.00">static wrapStringInStream</text>
<text text-anchor="start" x="280" y="-576.5" font-family="Helvetica,sans-Serif" font-size="10.00">($string)</text>
<polygon fill="#666666" stroke="#666666" points="266,-1258.25 266,-1258.25 533,-1258.25 533,-1258.25 266,-1258.25"/>
<polygon fill="#666666" stroke="#666666" points="266,-1063.25 266,-1063.25 278,-1063.25 278,-1063.25 266,-1063.25"/>
<polygon fill="#666666" stroke="#666666" points="278,-1063.25 278,-1063.25 533,-1063.25 533,-1063.25 278,-1063.25"/>
<polygon fill="none" stroke="#666666" points="266,-571.25 266,-1275.25 533,-1275.25 533,-571.25 266,-571.25"/>
</a>
</g>
</g>
<!-- Node3&#45;&gt;Node2 -->
<g id="edge14_Node000002_Node000003" class="edge">
<title>Node3&#45;&gt;Node2</title>
<g id="a_edge14_Node000002_Node000003"><a xlink:title=" ">
<path fill="none" stroke="#63b8ff" d="M260.28,-583.58C257.71,-579.42 255.12,-575.31 252.5,-571.25 241.51,-554.24 226.64,-537.53 213.2,-523.95"/>
<polygon fill="none" stroke="#63b8ff" points="257.24,-585.33 265.41,-592.08 263.23,-581.71 257.24,-585.33"/>
</a>
</g>
</g>
<!-- Node4 -->
<g id="Node000004" class="node">
<title>Node4</title>
<g id="a_Node000004"><a xlink:title=" ">
<polygon fill="white" stroke="none" points="177.5,-1484 143.5,-1484 143.5,-1435 177.5,-1435 177.5,-1484"/>
<text text-anchor="start" x="148.5" y="-1470.5" font-family="Helvetica,sans-Serif" font-size="10.00">const</text>
<text text-anchor="start" x="159" y="-1455.5" font-family="Helvetica,sans-Serif" font-size="10.00"> </text>
<text text-anchor="start" x="159" y="-1440.5" font-family="Helvetica,sans-Serif" font-size="10.00"> </text>
<polygon fill="#666666" stroke="#666666" points="143.5,-1467 143.5,-1467 177.5,-1467 177.5,-1467 143.5,-1467"/>
<polygon fill="#666666" stroke="#666666" points="143.5,-1452 143.5,-1452 177.5,-1452 177.5,-1452 143.5,-1452"/>
<polygon fill="none" stroke="#666666" points="143.5,-1435 143.5,-1484 177.5,-1484 177.5,-1435 143.5,-1435"/>
</a>
</g>
</g>
<!-- Node4&#45;&gt;Node1 -->
<g id="edge18_Node000001_Node000004" class="edge">
<title>Node4&#45;&gt;Node1</title>
<g id="a_edge18_Node000001_Node000004"><a xlink:title=" ">
<path fill="none" stroke="#63b8ff" d="M155.51,-1435.32C154.38,-1429.37 153.28,-1422.97 152.5,-1417 97.54,-994.36 79.46,-886.03 91.5,-460 91.73,-452.02 91.99,-443.91 92.29,-435.71"/>
<polygon fill="none" stroke="#63b8ff" points="92.29,-435.66 88.53,-429.51 92.75,-423.67 96.52,-429.82 92.29,-435.66"/>
</a>
</g>
<text text-anchor="middle" x="125.88" y="-543.75" font-family="Helvetica,sans-Serif" font-size="10.00" fill="grey"> +MAIN_CLASS</text>
</g>
<!-- Node4&#45;&gt;Node2 -->
<g id="edge17_Node000002_Node000004" class="edge">
<title>Node4&#45;&gt;Node2</title>
<g id="a_edge17_Node000002_Node000004"><a xlink:title=" ">
<path fill="none" stroke="#63b8ff" d="M159.63,-1435.15C156.04,-1332.83 143.73,-913.85 168.75,-571.25 169.58,-559.95 170.99,-547.78 172.52,-536.5"/>
<polygon fill="none" stroke="#63b8ff" points="172.52,-536.52 169.41,-530.01 174.23,-524.64 177.33,-531.15 172.52,-536.52"/>
</a>
</g>
<text text-anchor="middle" x="213.38" y="-930.62" font-family="Helvetica,sans-Serif" font-size="10.00" fill="grey"> +MAIN_CLASS</text>
<text text-anchor="middle" x="213.38" y="-919.38" font-family="Helvetica,sans-Serif" font-size="10.00" fill="grey">+PACKAGE_NAME</text>
<text text-anchor="middle" x="213.38" y="-908.12" font-family="Helvetica,sans-Serif" font-size="10.00" fill="grey">+TYPE</text>
</g>
<!-- Node4&#45;&gt;Node3 -->
<g id="edge15_Node000003_Node000004" class="edge">
<title>Node4&#45;&gt;Node3</title>
<g id="a_edge15_Node000003_Node000004"><a xlink:title=" ">
<path fill="none" stroke="#63b8ff" d="M172.93,-1435.03C191.12,-1400.41 225.73,-1333.47 252.5,-1275.25 255.23,-1269.31 257.97,-1263.3 260.72,-1257.24"/>
<polygon fill="none" stroke="#63b8ff" points="260.7,-1257.28 259.52,-1250.17 265.63,-1246.34 266.81,-1253.46 260.7,-1257.28"/>
</a>
</g>
<text text-anchor="middle" x="311.38" y="-1407.5" font-family="Helvetica,sans-Serif" font-size="10.00" fill="grey"> +APPEND</text>
<text text-anchor="middle" x="311.38" y="-1396.25" font-family="Helvetica,sans-Serif" font-size="10.00" fill="grey">+COMPRESSION_AVERAGE</text>
<text text-anchor="middle" x="311.38" y="-1385" font-family="Helvetica,sans-Serif" font-size="10.00" fill="grey">+COMPRESSION_MAXIMUM</text>
<text text-anchor="middle" x="311.38" y="-1373.75" font-family="Helvetica,sans-Serif" font-size="10.00" fill="grey">+COMPRESSION_NONE</text>
<text text-anchor="middle" x="311.38" y="-1362.5" font-family="Helvetica,sans-Serif" font-size="10.00" fill="grey">+COMPRESSION_STRONG</text>
<text text-anchor="middle" x="311.38" y="-1351.25" font-family="Helvetica,sans-Serif" font-size="10.00" fill="grey">+COMPRESSION_WEAK</text>
<text text-anchor="middle" x="311.38" y="-1340" font-family="Helvetica,sans-Serif" font-size="10.00" fill="grey">+CREATE</text>
<text text-anchor="middle" x="311.38" y="-1328.75" font-family="Helvetica,sans-Serif" font-size="10.00" fill="grey">+CREATE_ENCRYPTED</text>
<text text-anchor="middle" x="311.38" y="-1317.5" font-family="Helvetica,sans-Serif" font-size="10.00" fill="grey">+CREATE_IN_STRING</text>
<text text-anchor="middle" x="311.38" y="-1306.25" font-family="Helvetica,sans-Serif" font-size="10.00" fill="grey">+DELETE</text>
<text text-anchor="middle" x="311.38" y="-1295" font-family="Helvetica,sans-Serif" font-size="10.00" fill="grey">...</text>
</g>
<!-- Node5 -->
<g id="Node000005" class="node">
<title>Node5</title>
<g id="a_Node000005"><a xlink:title=" ">
<polygon fill="white" stroke="none" points="416.5,-1484 382.5,-1484 382.5,-1435 416.5,-1435 416.5,-1484"/>
<text text-anchor="start" x="387.5" y="-1470.5" font-family="Helvetica,sans-Serif" font-size="10.00">static</text>
<text text-anchor="start" x="398" y="-1455.5" font-family="Helvetica,sans-Serif" font-size="10.00"> </text>
<text text-anchor="start" x="398" y="-1440.5" font-family="Helvetica,sans-Serif" font-size="10.00"> </text>
<polygon fill="#666666" stroke="#666666" points="382.5,-1467 382.5,-1467 416.5,-1467 416.5,-1467 382.5,-1467"/>
<polygon fill="#666666" stroke="#666666" points="382.5,-1452 382.5,-1452 416.5,-1452 416.5,-1452 382.5,-1452"/>
<polygon fill="none" stroke="#666666" points="382.5,-1435 382.5,-1484 416.5,-1484 416.5,-1435 382.5,-1435"/>
</a>
</g>
</g>
<!-- Node5&#45;&gt;Node3 -->
<g id="edge16_Node000003_Node000005" class="edge">
<title>Node5&#45;&gt;Node3</title>
<g id="a_edge16_Node000003_Node000005"><a xlink:title=" ">
<path fill="none" stroke="#63b8ff" d="M399.5,-1435.2C399.5,-1405.64 399.5,-1350.85 399.5,-1287.78"/>
<polygon fill="none" stroke="#63b8ff" points="399.5,-1287.96 395.5,-1281.96 399.5,-1275.96 403.5,-1281.96 399.5,-1287.96"/>
</a>
</g>
<text text-anchor="middle" x="430.25" y="-1351.25" font-family="Helvetica,sans-Serif" font-size="10.00" fill="grey"> +$typeLabels</text>
</g>
</g>
</svg>
