<?xml version="1.0" encoding="UTF-8" standalone="no"?>
<!DOCTYPE svg PUBLIC "-//W3C//DTD SVG 1.1//EN"
 "http://www.w3.org/Graphics/SVG/1.1/DTD/svg11.dtd">
<!-- Generated by graphviz version 10.0.1 (20240210.2158)
 -->
<!-- Title: isStream Pages: 1 -->
<svg width="301pt" height="160pt"
 viewBox="0.00 0.00 301.25 159.54" xmlns="http://www.w3.org/2000/svg" xmlns:xlink="http://www.w3.org/1999/xlink">
<g id="graph0" class="graph" transform="scale(1 1) rotate(0) translate(4 155.54)">
<title>isStream</title>
<!-- Node1 -->
<g id="Node000001" class="node">
<title>Node1</title>
<g id="a_Node000001"><a xlink:title=" ">
<polygon fill="#999999" stroke="#666666" points="293.25,-93.25 238.25,-93.25 238.25,-74 293.25,-74 293.25,-93.25"/>
<text text-anchor="middle" x="265.75" y="-79.75" font-family="Helvetica,sans-Serif" font-size="10.00">isStream</text>
</a>
</g>
</g>
<!-- Node2 -->
<g id="Node000002" class="node">
<title>Node2</title>
<g id="a_Node000002"><a xlink:href="$class_laminas_1_1_mime_1_1_part.html#a8311067bc151fa470d6c51b24d9bd6e2" xlink:title=" ">
<polygon fill="white" stroke="#666666" points="65.5,-149.25 1.5,-149.25 1.5,-130 65.5,-130 65.5,-149.25"/>
<text text-anchor="middle" x="33.5" y="-135.75" font-family="Helvetica,sans-Serif" font-size="10.00">getContent</text>
</a>
</g>
</g>
<!-- Node1&#45;&gt;Node2 -->
<g id="edge15_Node000001_Node000002" class="edge">
<title>Node1&#45;&gt;Node2</title>
<g id="a_edge15_Node000001_Node000002"><a xlink:title=" ">
<path fill="none" stroke="#63b8ff" d="M250.4,-102.31C238.99,-115.53 221.74,-132.17 202.25,-139.62 157.23,-156.84 100.31,-151.8 65.69,-146.08"/>
<polygon fill="#63b8ff" stroke="#63b8ff" points="253.05,-104.6 256.67,-94.64 247.63,-100.17 253.05,-104.6"/>
</a>
</g>
</g>
<!-- Node3 -->
<g id="Node000003" class="node">
<title>Node3</title>
<g id="a_Node000003"><a xlink:href="$class_laminas_1_1_mime_1_1_part.html#ae9ab86805f26b2870272e2378e6330a2" xlink:title=" ">
<polygon fill="white" stroke="#666666" points="202.25,-130.25 103,-130.25 103,-111 202.25,-111 202.25,-130.25"/>
<text text-anchor="middle" x="152.62" y="-116.75" font-family="Helvetica,sans-Serif" font-size="10.00">getEncodedStream</text>
</a>
</g>
</g>
<!-- Node1&#45;&gt;Node3 -->
<g id="edge16_Node000001_Node000003" class="edge">
<title>Node1&#45;&gt;Node3</title>
<g id="a_edge16_Node000001_Node000003"><a xlink:title=" ">
<path fill="none" stroke="#63b8ff" d="M227,-96.19C212.91,-100.88 197.12,-106.14 183.8,-110.58"/>
<polygon fill="#63b8ff" stroke="#63b8ff" points="228.03,-99.54 236.41,-93.06 225.82,-92.9 228.03,-99.54"/>
</a>
</g>
</g>
<!-- Node4 -->
<g id="Node000004" class="node">
<title>Node4</title>
<g id="a_Node000004"><a xlink:href="$class_laminas_1_1_mime_1_1_part.html#a70f620b98285d948b03fa9e3aa9e6d7d" xlink:title=" ">
<polygon fill="white" stroke="#666666" points="194.75,-93.25 110.5,-93.25 110.5,-74 194.75,-74 194.75,-93.25"/>
<text text-anchor="middle" x="152.62" y="-79.75" font-family="Helvetica,sans-Serif" font-size="10.00">getRawContent</text>
</a>
</g>
</g>
<!-- Node1&#45;&gt;Node4 -->
<g id="edge18_Node000001_Node000004" class="edge">
<title>Node1&#45;&gt;Node4</title>
<g id="a_edge18_Node000001_Node000004"><a xlink:title=" ">
<path fill="none" stroke="#63b8ff" d="M226.43,-83.62C216.3,-83.62 205.31,-83.62 195.02,-83.62"/>
<polygon fill="#63b8ff" stroke="#63b8ff" points="226.34,-87.13 236.34,-83.63 226.34,-80.13 226.34,-87.13"/>
</a>
</g>
</g>
<!-- Node5 -->
<g id="Node000005" class="node">
<title>Node5</title>
<g id="a_Node000005"><a xlink:href="$class_laminas_1_1_mime_1_1_part.html#a04a5eddb7c3abc7bf31fa25b58f046bf" xlink:title=" ">
<polygon fill="white" stroke="#666666" points="184.62,-56.25 120.62,-56.25 120.62,-37 184.62,-37 184.62,-56.25"/>
<text text-anchor="middle" x="152.62" y="-42.75" font-family="Helvetica,sans-Serif" font-size="10.00">setContent</text>
</a>
</g>
</g>
<!-- Node1&#45;&gt;Node5 -->
<g id="edge19_Node000001_Node000005" class="edge">
<title>Node1&#45;&gt;Node5</title>
<g id="a_edge19_Node000001_Node000005"><a xlink:title=" ">
<path fill="none" stroke="#63b8ff" d="M227,-71.06C212.91,-66.37 197.12,-61.11 183.8,-56.67"/>
<polygon fill="#63b8ff" stroke="#63b8ff" points="225.82,-74.35 236.41,-74.19 228.03,-67.71 225.82,-74.35"/>
</a>
</g>
</g>
<!-- Node7 -->
<g id="Node000007" class="node">
<title>Node7</title>
<g id="a_Node000007"><a xlink:href="$class_laminas_1_1_mime_1_1_part.html#a8bca7d43e2d7a2f40ef21b348ff4a13c" xlink:title=" ">
<polygon fill="white" stroke="#666666" points="187.25,-19.25 118,-19.25 118,0 187.25,0 187.25,-19.25"/>
<text text-anchor="middle" x="152.62" y="-5.75" font-family="Helvetica,sans-Serif" font-size="10.00">setIsStream</text>
</a>
</g>
</g>
<!-- Node1&#45;&gt;Node7 -->
<g id="edge21_Node000001_Node000007" class="edge">
<title>Node1&#45;&gt;Node7</title>
<g id="a_edge21_Node000001_Node000007"><a xlink:title=" ">
<path fill="none" stroke="#63b8ff" d="M248.23,-65.62C236.38,-53.56 219.52,-38.04 202.25,-27.62 197.24,-24.6 191.64,-21.96 186.07,-19.69"/>
<polygon fill="#63b8ff" stroke="#63b8ff" points="245.43,-67.76 254.87,-72.58 250.5,-62.93 245.43,-67.76"/>
</a>
</g>
</g>
<!-- Node3&#45;&gt;Node2 -->
<g id="edge17_Node000003_Node000002" class="edge">
<title>Node3&#45;&gt;Node2</title>
<g id="a_edge17_Node000003_Node000002"><a xlink:title=" ">
<path fill="none" stroke="#63b8ff" d="M91.48,-130.38C82.65,-131.81 73.87,-133.24 65.94,-134.52"/>
<polygon fill="#63b8ff" stroke="#63b8ff" points="91.83,-133.87 101.14,-128.81 90.71,-126.96 91.83,-133.87"/>
</a>
</g>
</g>
<!-- Node6 -->
<g id="Node000006" class="node">
<title>Node6</title>
<g id="a_Node000006"><a xlink:href="$class_laminas_1_1_mime_1_1_part.html#a5f48185913f73d70487e0af10dea9fcf" xlink:title=" ">
<polygon fill="white" stroke="#666666" points="67,-56.25 0,-56.25 0,-37 67,-37 67,-56.25"/>
<text text-anchor="middle" x="33.5" y="-42.75" font-family="Helvetica,sans-Serif" font-size="10.00">__construct</text>
</a>
</g>
</g>
<!-- Node5&#45;&gt;Node6 -->
<g id="edge20_Node000005_Node000006" class="edge">
<title>Node5&#45;&gt;Node6</title>
<g id="a_edge20_Node000005_Node000006"><a xlink:title=" ">
<path fill="none" stroke="#63b8ff" d="M109.03,-46.62C95.23,-46.62 80.16,-46.62 67.2,-46.62"/>
<polygon fill="#63b8ff" stroke="#63b8ff" points="108.72,-50.13 118.72,-46.63 108.72,-43.13 108.72,-50.13"/>
</a>
</g>
</g>
</g>
</svg>
