<?xml version="1.0" encoding="UTF-8" standalone="no"?>
<!DOCTYPE svg PUBLIC "-//W3C//DTD SVG 1.1//EN"
 "http://www.w3.org/Graphics/SVG/1.1/DTD/svg11.dtd">
<!-- Generated by graphviz version 10.0.1 (20240210.2158)
 -->
<!-- Title: showForContact Pages: 1 -->
<svg width="364pt" height="175pt"
 viewBox="0.00 0.00 364.30 175.25" xmlns="http://www.w3.org/2000/svg" xmlns:xlink="http://www.w3.org/1999/xlink">
<g id="graph0" class="graph" transform="scale(1 1) rotate(0) translate(4 171.25)">
<title>showForContact</title>
<!-- Node1 -->
<g id="Node000001" class="node">
<title>Node1</title>
<g id="a_Node000001"><a xlink:title=" ">
<polygon fill="#999999" stroke="#666666" points="88,-93.25 0,-93.25 0,-74 88,-74 88,-93.25"/>
<text text-anchor="middle" x="44" y="-79.75" font-family="Helvetica,sans-Serif" font-size="10.00">showForContact</text>
</a>
</g>
</g>
<!-- Node2 -->
<g id="Node000002" class="node">
<title>Node2</title>
<g id="a_Node000002"><a xlink:href="$autoload_8function_8php.html#affc4787304a41a695a489fc24d60877d" xlink:title=" ">
<polygon fill="white" stroke="#666666" points="223.62,-167.25 191.88,-167.25 191.88,-148 223.62,-148 223.62,-167.25"/>
<text text-anchor="middle" x="207.75" y="-153.75" font-family="Helvetica,sans-Serif" font-size="10.00">_sx</text>
</a>
</g>
</g>
<!-- Node1&#45;&gt;Node2 -->
<g id="edge13_Node000001_Node000002" class="edge">
<title>Node1&#45;&gt;Node2</title>
<g id="a_edge13_Node000001_Node000002"><a xlink:title=" ">
<path fill="none" stroke="#63b8ff" d="M55.89,-93.55C70.36,-106.19 97.24,-127.82 124,-139.62 141.97,-147.55 163.72,-152.11 180.41,-154.65"/>
<polygon fill="#63b8ff" stroke="#63b8ff" points="179.66,-158.08 190.04,-155.96 180.6,-151.14 179.66,-158.08"/>
</a>
</g>
</g>
<!-- Node4 -->
<g id="Node000004" class="node">
<title>Node4</title>
<g id="a_Node000004"><a xlink:href="$class_common_g_l_p_i.html#a3080299ae6729719ef5e8c7e98015069" xlink:title=" ">
<polygon fill="white" stroke="#666666" points="291.5,-130.25 124,-130.25 124,-111 291.5,-111 291.5,-130.25"/>
<text text-anchor="middle" x="207.75" y="-116.75" font-family="Helvetica,sans-Serif" font-size="10.00">CommonGLPI\getFormURLWithID</text>
</a>
</g>
</g>
<!-- Node1&#45;&gt;Node4 -->
<g id="edge15_Node000001_Node000004" class="edge">
<title>Node1&#45;&gt;Node4</title>
<g id="a_edge15_Node000001_Node000004"><a xlink:title=" ">
<path fill="none" stroke="#63b8ff" d="M85.96,-93.66C98.19,-96.6 111.62,-99.79 124,-102.62 131.88,-104.43 140.2,-106.29 148.39,-108.1"/>
<polygon fill="#63b8ff" stroke="#63b8ff" points="147.45,-111.48 157.97,-110.2 148.95,-104.64 147.45,-111.48"/>
</a>
</g>
</g>
<!-- Node5 -->
<g id="Node000005" class="node">
<title>Node5</title>
<g id="a_Node000005"><a xlink:href="$class_contact.html#ad85cd59496993b8ba622266fe36807ef" xlink:title=" ">
<polygon fill="white" stroke="#666666" points="264.88,-93.25 150.62,-93.25 150.62,-74 264.88,-74 264.88,-93.25"/>
<text text-anchor="middle" x="207.75" y="-79.75" font-family="Helvetica,sans-Serif" font-size="10.00">Contact\getTypeName</text>
</a>
</g>
</g>
<!-- Node1&#45;&gt;Node5 -->
<g id="edge16_Node000001_Node000005" class="edge">
<title>Node1&#45;&gt;Node5</title>
<g id="a_edge16_Node000001_Node000005"><a xlink:title=" ">
<path fill="none" stroke="#63b8ff" d="M88.35,-83.62C103.93,-83.62 121.9,-83.62 139.06,-83.62"/>
<polygon fill="#63b8ff" stroke="#63b8ff" points="138.67,-87.13 148.67,-83.63 138.67,-80.13 138.67,-87.13"/>
</a>
</g>
</g>
<!-- Node6 -->
<g id="Node000006" class="node">
<title>Node6</title>
<g id="a_Node000006"><a xlink:href="$class_phone.html#ad85cd59496993b8ba622266fe36807ef" xlink:title=" ">
<polygon fill="white" stroke="#666666" points="261.5,-56.25 154,-56.25 154,-37 261.5,-37 261.5,-56.25"/>
<text text-anchor="middle" x="207.75" y="-42.75" font-family="Helvetica,sans-Serif" font-size="10.00">Phone\getTypeName</text>
</a>
</g>
</g>
<!-- Node1&#45;&gt;Node6 -->
<g id="edge17_Node000001_Node000006" class="edge">
<title>Node1&#45;&gt;Node6</title>
<g id="a_edge17_Node000001_Node000006"><a xlink:title=" ">
<path fill="none" stroke="#63b8ff" d="M85.96,-73.59C98.19,-70.65 111.62,-67.46 124,-64.62 131.88,-62.82 140.2,-60.96 148.39,-59.15"/>
<polygon fill="#63b8ff" stroke="#63b8ff" points="148.95,-62.61 157.97,-57.05 147.45,-55.77 148.95,-62.61"/>
</a>
</g>
</g>
<!-- Node7 -->
<g id="Node000007" class="node">
<title>Node7</title>
<g id="a_Node000007"><a xlink:href="$class_supplier_type.html#ad85cd59496993b8ba622266fe36807ef" xlink:title=" ">
<polygon fill="white" stroke="#666666" points="275.75,-19.25 139.75,-19.25 139.75,0 275.75,0 275.75,-19.25"/>
<text text-anchor="middle" x="207.75" y="-5.75" font-family="Helvetica,sans-Serif" font-size="10.00">SupplierType\getTypeName</text>
</a>
</g>
</g>
<!-- Node1&#45;&gt;Node7 -->
<g id="edge18_Node000001_Node000007" class="edge">
<title>Node1&#45;&gt;Node7</title>
<g id="a_edge18_Node000001_Node000007"><a xlink:title=" ">
<path fill="none" stroke="#63b8ff" d="M55.89,-73.7C70.36,-61.06 97.24,-39.43 124,-27.62 127.79,-25.95 131.74,-24.43 135.78,-23.05"/>
<polygon fill="#63b8ff" stroke="#63b8ff" points="136.66,-26.44 145.17,-20.14 134.59,-19.76 136.66,-26.44"/>
</a>
</g>
</g>
<!-- Node3 -->
<g id="Node000003" class="node">
<title>Node3</title>
<g id="a_Node000003"><a xlink:href="$autoload_8function_8php.html#a2111ba1b23d22b49aee91462961bda8a" xlink:title=" ">
<polygon fill="white" stroke="#666666" points="356.3,-167.25 327.5,-167.25 327.5,-148 356.3,-148 356.3,-167.25"/>
<text text-anchor="middle" x="341.9" y="-153.75" font-family="Helvetica,sans-Serif" font-size="10.00">_x</text>
</a>
</g>
</g>
<!-- Node2&#45;&gt;Node3 -->
<g id="edge14_Node000002_Node000003" class="edge">
<title>Node2&#45;&gt;Node3</title>
<g id="a_edge14_Node000002_Node000003"><a xlink:title=" ">
<path fill="none" stroke="#63b8ff" d="M223.91,-157.62C246.37,-157.62 288.74,-157.62 315.85,-157.62"/>
<polygon fill="#63b8ff" stroke="#63b8ff" points="315.6,-161.13 325.6,-157.63 315.6,-154.13 315.6,-161.13"/>
</a>
</g>
</g>
</g>
</svg>
