<?xml version="1.0" encoding="UTF-8" standalone="no"?>
<!DOCTYPE svg PUBLIC "-//W3C//DTD SVG 1.1//EN"
 "http://www.w3.org/Graphics/SVG/1.1/DTD/svg11.dtd">
<!-- Generated by graphviz version 10.0.1 (20240210.2158)
 -->
<!-- Title: formatDate Pages: 1 -->
<svg width="672pt" height="146pt"
 viewBox="0.00 0.00 672.00 145.50" xmlns="http://www.w3.org/2000/svg" xmlns:xlink="http://www.w3.org/1999/xlink">
<g id="graph0" class="graph" transform="scale(1 1) rotate(0) translate(4 141.5)">
<title>formatDate</title>
<!-- Node1 -->
<g id="Node000001" class="node">
<title>Node1</title>
<g id="a_Node000001"><a xlink:title=" ">
<polygon fill="#999999" stroke="#666666" points="664,-97.88 599.25,-97.88 599.25,-78.62 664,-78.62 664,-97.88"/>
<text text-anchor="middle" x="631.62" y="-84.38" font-family="Helvetica,sans-Serif" font-size="10.00">formatDate</text>
</a>
</g>
</g>
<!-- Node2 -->
<g id="Node000002" class="node">
<title>Node2</title>
<g id="a_Node000002"><a xlink:href="$class_monolog_1_1_formatter_1_1_html_formatter.html#a6c29cbcdf76b0e0a692a2c5e73780bcd" xlink:title=" ">
<polygon fill="white" stroke="#666666" points="563.25,-137.5 399.5,-137.5 399.5,-107 563.25,-107 563.25,-137.5"/>
<text text-anchor="start" x="407.5" y="-124" font-family="Helvetica,sans-Serif" font-size="10.00">Monolog\Formatter\HtmlFormatter</text>
<text text-anchor="middle" x="481.38" y="-112.75" font-family="Helvetica,sans-Serif" font-size="10.00">\format</text>
</a>
</g>
</g>
<!-- Node1&#45;&gt;Node2 -->
<g id="edge15_Node000001_Node000002" class="edge">
<title>Node1&#45;&gt;Node2</title>
<g id="a_edge15_Node000001_Node000002"><a xlink:title=" ">
<path fill="none" stroke="#63b8ff" d="M587.78,-98.08C576.27,-100.72 563.52,-103.64 550.99,-106.51"/>
<polygon fill="#63b8ff" stroke="#63b8ff" points="588.38,-101.53 597.35,-95.88 586.82,-94.71 588.38,-101.53"/>
</a>
</g>
</g>
<!-- Node4 -->
<g id="Node000004" class="node">
<title>Node4</title>
<g id="a_Node000004"><a xlink:href="$class_monolog_1_1_formatter_1_1_json_formatter.html#a2d4d3690b559d4e719a6c3cf7b0c3660" xlink:title=" ">
<polygon fill="white" stroke="#666666" points="563.25,-70.5 399.5,-70.5 399.5,-40 563.25,-40 563.25,-70.5"/>
<text text-anchor="start" x="407.5" y="-57" font-family="Helvetica,sans-Serif" font-size="10.00">Monolog\Formatter\JsonFormatter</text>
<text text-anchor="middle" x="481.38" y="-45.75" font-family="Helvetica,sans-Serif" font-size="10.00">\normalize</text>
</a>
</g>
</g>
<!-- Node1&#45;&gt;Node4 -->
<g id="edge17_Node000001_Node000004" class="edge">
<title>Node1&#45;&gt;Node4</title>
<g id="a_edge17_Node000001_Node000004"><a xlink:title=" ">
<path fill="none" stroke="#63b8ff" d="M587.92,-78.74C577.02,-76.32 565.01,-73.64 553.12,-71"/>
<polygon fill="#63b8ff" stroke="#63b8ff" points="586.82,-82.09 597.34,-80.84 588.34,-75.25 586.82,-82.09"/>
</a>
</g>
</g>
<!-- Node3 -->
<g id="Node000003" class="node">
<title>Node3</title>
<g id="a_Node000003"><a xlink:href="$class_monolog_1_1_formatter_1_1_html_formatter.html#a11f3cde7544eac9e23b0517d513a362b" xlink:title=" ">
<polygon fill="white" stroke="#666666" points="363.5,-137.5 199.75,-137.5 199.75,-107 363.5,-107 363.5,-137.5"/>
<text text-anchor="start" x="207.75" y="-124" font-family="Helvetica,sans-Serif" font-size="10.00">Monolog\Formatter\HtmlFormatter</text>
<text text-anchor="middle" x="281.62" y="-112.75" font-family="Helvetica,sans-Serif" font-size="10.00">\formatBatch</text>
</a>
</g>
</g>
<!-- Node2&#45;&gt;Node3 -->
<g id="edge16_Node000002_Node000003" class="edge">
<title>Node2&#45;&gt;Node3</title>
<g id="a_edge16_Node000002_Node000003"><a xlink:title=" ">
<path fill="none" stroke="#63b8ff" d="M387.85,-122.25C379.86,-122.25 371.81,-122.25 363.92,-122.25"/>
<polygon fill="#63b8ff" stroke="#63b8ff" points="387.57,-125.75 397.57,-122.25 387.57,-118.75 387.57,-125.75"/>
</a>
</g>
</g>
<!-- Node4&#45;&gt;Node4 -->
<g id="edge21_Node000004_Node000004" class="edge">
<title>Node4&#45;&gt;Node4</title>
<g id="a_edge21_Node000004_Node000004"><a xlink:title=" ">
<path fill="none" stroke="#63b8ff" d="M506.57,-82.2C502.45,-85.97 494.05,-88.5 481.38,-88.5 458.19,-88.5 449.32,-80.06 454.75,-70.99"/>
<polygon fill="#63b8ff" stroke="#63b8ff" points="510.02,-82.85 507.81,-72.49 503.07,-81.97 510.02,-82.85"/>
</a>
</g>
</g>
<!-- Node5 -->
<g id="Node000005" class="node">
<title>Node5</title>
<g id="a_Node000005"><a xlink:href="$class_monolog_1_1_formatter_1_1_json_formatter.html#a6c29cbcdf76b0e0a692a2c5e73780bcd" xlink:title=" ">
<polygon fill="white" stroke="#666666" points="363.5,-79.5 199.75,-79.5 199.75,-49 363.5,-49 363.5,-79.5"/>
<text text-anchor="start" x="207.75" y="-66" font-family="Helvetica,sans-Serif" font-size="10.00">Monolog\Formatter\JsonFormatter</text>
<text text-anchor="middle" x="281.62" y="-54.75" font-family="Helvetica,sans-Serif" font-size="10.00">\format</text>
</a>
</g>
</g>
<!-- Node4&#45;&gt;Node5 -->
<g id="edge18_Node000004_Node000005" class="edge">
<title>Node4&#45;&gt;Node5</title>
<g id="a_edge18_Node000004_Node000005"><a xlink:title=" ">
<path fill="none" stroke="#63b8ff" d="M387.85,-59.46C379.86,-59.82 371.81,-60.19 363.92,-60.55"/>
<polygon fill="#63b8ff" stroke="#63b8ff" points="387.74,-62.97 397.57,-59.02 387.43,-55.98 387.74,-62.97"/>
</a>
</g>
</g>
<!-- Node6 -->
<g id="Node000006" class="node">
<title>Node6</title>
<g id="a_Node000006"><a xlink:href="$class_monolog_1_1_formatter_1_1_json_formatter.html#aeb10f4e132322833888b31afd3d79e67" xlink:title=" ">
<polygon fill="white" stroke="#666666" points="363.5,-30.5 199.75,-30.5 199.75,0 363.5,0 363.5,-30.5"/>
<text text-anchor="start" x="207.75" y="-17" font-family="Helvetica,sans-Serif" font-size="10.00">Monolog\Formatter\JsonFormatter</text>
<text text-anchor="middle" x="281.62" y="-5.75" font-family="Helvetica,sans-Serif" font-size="10.00">\formatBatchJson</text>
</a>
</g>
</g>
<!-- Node4&#45;&gt;Node6 -->
<g id="edge19_Node000004_Node000006" class="edge">
<title>Node4&#45;&gt;Node6</title>
<g id="a_edge19_Node000004_Node000006"><a xlink:title=" ">
<path fill="none" stroke="#63b8ff" d="M391.56,-37.28C381.14,-35.18 370.57,-33.04 360.31,-30.96"/>
<polygon fill="#63b8ff" stroke="#63b8ff" points="390.81,-40.7 401.3,-39.26 392.2,-33.84 390.81,-40.7"/>
</a>
</g>
</g>
<!-- Node7 -->
<g id="Node000007" class="node">
<title>Node7</title>
<g id="a_Node000007"><a xlink:href="$class_monolog_1_1_formatter_1_1_json_formatter.html#a11f3cde7544eac9e23b0517d513a362b" xlink:title=" ">
<polygon fill="white" stroke="#666666" points="163.75,-30.5 0,-30.5 0,0 163.75,0 163.75,-30.5"/>
<text text-anchor="start" x="8" y="-17" font-family="Helvetica,sans-Serif" font-size="10.00">Monolog\Formatter\JsonFormatter</text>
<text text-anchor="middle" x="81.88" y="-5.75" font-family="Helvetica,sans-Serif" font-size="10.00">\formatBatch</text>
</a>
</g>
</g>
<!-- Node6&#45;&gt;Node7 -->
<g id="edge20_Node000006_Node000007" class="edge">
<title>Node6&#45;&gt;Node7</title>
<g id="a_edge20_Node000006_Node000007"><a xlink:title=" ">
<path fill="none" stroke="#63b8ff" d="M188.1,-15.25C180.11,-15.25 172.06,-15.25 164.17,-15.25"/>
<polygon fill="#63b8ff" stroke="#63b8ff" points="187.82,-18.75 197.82,-15.25 187.82,-11.75 187.82,-18.75"/>
</a>
</g>
</g>
</g>
</svg>
