<?xml version="1.0" encoding="UTF-8" standalone="no"?>
<!DOCTYPE svg PUBLIC "-//W3C//DTD SVG 1.1//EN"
 "http://www.w3.org/Graphics/SVG/1.1/DTD/svg11.dtd">
<!-- Generated by graphviz version 10.0.1 (20240210.2158)
 -->
<!-- Title: nextLine Pages: 1 -->
<svg width="776pt" height="545pt"
 viewBox="0.00 0.00 775.50 545.25" xmlns="http://www.w3.org/2000/svg" xmlns:xlink="http://www.w3.org/1999/xlink">
<g id="graph0" class="graph" transform="scale(1 1) rotate(0) translate(4 541.25)">
<title>nextLine</title>
<!-- Node1 -->
<g id="Node000001" class="node">
<title>Node1</title>
<g id="a_Node000001"><a xlink:title=" ">
<polygon fill="#999999" stroke="#666666" points="767.5,-315.25 714.75,-315.25 714.75,-296 767.5,-296 767.5,-315.25"/>
<text text-anchor="middle" x="741.12" y="-301.75" font-family="Helvetica,sans-Serif" font-size="10.00">nextLine</text>
</a>
</g>
</g>
<!-- Node2 -->
<g id="Node000002" class="node">
<title>Node2</title>
<g id="a_Node000002"><a xlink:href="$class_laminas_1_1_mail_1_1_protocol_1_1_imap.html#ad4d8ede6cfaa32bd3e172b2b9a5a4402" xlink:title=" ">
<polygon fill="white" stroke="#666666" points="678.75,-352.25 584,-352.25 584,-333 678.75,-333 678.75,-352.25"/>
<text text-anchor="middle" x="631.38" y="-338.75" font-family="Helvetica,sans-Serif" font-size="10.00">assumedNextLine</text>
</a>
</g>
</g>
<!-- Node1&#45;&gt;Node2 -->
<g id="edge67_Node000001_Node000002" class="edge">
<title>Node1&#45;&gt;Node2</title>
<g id="a_edge67_Node000001_Node000002"><a xlink:title=" ">
<path fill="none" stroke="#63b8ff" d="M703.79,-318.1C690.11,-322.8 674.75,-328.08 661.78,-332.53"/>
<polygon fill="#63b8ff" stroke="#63b8ff" points="704.56,-321.54 712.88,-314.98 702.29,-314.92 704.56,-321.54"/>
</a>
</g>
</g>
<!-- Node26 -->
<g id="Node000026" class="node">
<title>Node26</title>
<g id="a_Node000026"><a xlink:href="$class_laminas_1_1_mail_1_1_protocol_1_1_imap.html#a84839fa405b3425ef711b10a0bb786da" xlink:title=" ">
<polygon fill="white" stroke="#666666" points="664.12,-278.25 598.62,-278.25 598.62,-259 664.12,-259 664.12,-278.25"/>
<text text-anchor="middle" x="631.38" y="-264.75" font-family="Helvetica,sans-Serif" font-size="10.00">decodeLine</text>
</a>
</g>
</g>
<!-- Node1&#45;&gt;Node26 -->
<g id="edge92_Node000001_Node000026" class="edge">
<title>Node1&#45;&gt;Node26</title>
<g id="a_edge92_Node000001_Node000026"><a xlink:title=" ">
<path fill="none" stroke="#63b8ff" d="M703.79,-293.15C690.11,-288.45 674.75,-283.17 661.78,-278.72"/>
<polygon fill="#63b8ff" stroke="#63b8ff" points="702.29,-296.33 712.88,-296.27 704.56,-289.71 702.29,-296.33"/>
</a>
</g>
</g>
<!-- Node29 -->
<g id="Node000029" class="node">
<title>Node29</title>
<g id="a_Node000029"><a xlink:href="$class_laminas_1_1_mail_1_1_protocol_1_1_imap.html#a1ce3109772526dcae2e801284abef0f5" xlink:title=" ">
<polygon fill="white" stroke="#666666" points="673.5,-315.25 589.25,-315.25 589.25,-296 673.5,-296 673.5,-315.25"/>
<text text-anchor="middle" x="631.38" y="-301.75" font-family="Helvetica,sans-Serif" font-size="10.00">nextTaggedLine</text>
</a>
</g>
</g>
<!-- Node1&#45;&gt;Node29 -->
<g id="edge98_Node000001_Node000029" class="edge">
<title>Node1&#45;&gt;Node29</title>
<g id="a_edge98_Node000001_Node000029"><a xlink:title=" ">
<path fill="none" stroke="#63b8ff" d="M702.97,-305.62C693.61,-305.62 683.51,-305.62 673.96,-305.62"/>
<polygon fill="#63b8ff" stroke="#63b8ff" points="702.8,-309.13 712.8,-305.63 702.8,-302.13 702.8,-309.13"/>
</a>
</g>
</g>
<!-- Node3 -->
<g id="Node000003" class="node">
<title>Node3</title>
<g id="a_Node000003"><a xlink:href="$class_laminas_1_1_mail_1_1_protocol_1_1_imap.html#ab10ea11736fd728de44d4a1e4284f947" xlink:title=" ">
<polygon fill="white" stroke="#666666" points="159.5,-537.25 109,-537.25 109,-518 159.5,-518 159.5,-537.25"/>
<text text-anchor="middle" x="134.25" y="-523.75" font-family="Helvetica,sans-Serif" font-size="10.00">connect</text>
</a>
</g>
</g>
<!-- Node2&#45;&gt;Node3 -->
<g id="edge68_Node000002_Node000003" class="edge">
<title>Node2&#45;&gt;Node3</title>
<g id="a_edge68_Node000002_Node000003"><a xlink:title=" ">
<path fill="none" stroke="#63b8ff" d="M592.67,-356.71C495.82,-392.9 240.32,-488.37 159.87,-518.43"/>
<polygon fill="#63b8ff" stroke="#63b8ff" points="593.84,-360.01 601.99,-353.23 591.39,-353.45 593.84,-360.01"/>
</a>
</g>
</g>
<!-- Node5 -->
<g id="Node000005" class="node">
<title>Node5</title>
<g id="a_Node000005"><a xlink:href="$class_laminas_1_1_mail_1_1_protocol_1_1_imap.html#a316e24e6eb7c30e6c1d116c0cebf1327" xlink:title=" ">
<polygon fill="white" stroke="#666666" points="548,-342.25 474.25,-342.25 474.25,-323 548,-323 548,-342.25"/>
<text text-anchor="middle" x="511.12" y="-328.75" font-family="Helvetica,sans-Serif" font-size="10.00">sendRequest</text>
</a>
</g>
</g>
<!-- Node2&#45;&gt;Node5 -->
<g id="edge70_Node000002_Node000005" class="edge">
<title>Node2&#45;&gt;Node5</title>
<g id="a_edge70_Node000002_Node000005"><a xlink:title=" ">
<path fill="none" stroke="#63b8ff" d="M572.2,-337.71C564.06,-337.02 555.89,-336.33 548.31,-335.69"/>
<polygon fill="#63b8ff" stroke="#63b8ff" points="571.87,-341.19 582.13,-338.55 572.46,-334.21 571.87,-341.19"/>
</a>
</g>
</g>
<!-- Node4 -->
<g id="Node000004" class="node">
<title>Node4</title>
<g id="a_Node000004"><a xlink:href="$class_laminas_1_1_mail_1_1_protocol_1_1_imap.html#a87a59e698ead370f4b1f5ec7ebbd054f" xlink:title=" ">
<polygon fill="white" stroke="#666666" points="67,-537.25 0,-537.25 0,-518 67,-518 67,-537.25"/>
<text text-anchor="middle" x="33.5" y="-523.75" font-family="Helvetica,sans-Serif" font-size="10.00">__construct</text>
</a>
</g>
</g>
<!-- Node3&#45;&gt;Node4 -->
<g id="edge69_Node000003_Node000004" class="edge">
<title>Node3&#45;&gt;Node4</title>
<g id="a_edge69_Node000003_Node000004"><a xlink:title=" ">
<path fill="none" stroke="#63b8ff" d="M97.19,-527.62C87.45,-527.62 76.97,-527.62 67.41,-527.62"/>
<polygon fill="#63b8ff" stroke="#63b8ff" points="97.07,-531.13 107.07,-527.63 97.07,-524.13 97.07,-531.13"/>
</a>
</g>
</g>
<!-- Node6 -->
<g id="Node000006" class="node">
<title>Node6</title>
<g id="a_Node000006"><a xlink:href="$class_laminas_1_1_mail_1_1_protocol_1_1_imap.html#a220c0b04b6a3c27f90a1082afb716bcc" xlink:title=" ">
<polygon fill="white" stroke="#666666" points="438.25,-259.25 347.25,-259.25 347.25,-240 438.25,-240 438.25,-259.25"/>
<text text-anchor="middle" x="392.75" y="-245.75" font-family="Helvetica,sans-Serif" font-size="10.00">examineOrSelect</text>
</a>
</g>
</g>
<!-- Node5&#45;&gt;Node6 -->
<g id="edge71_Node000005_Node000006" class="edge">
<title>Node5&#45;&gt;Node6</title>
<g id="a_edge71_Node000005_Node000006"><a xlink:title=" ">
<path fill="none" stroke="#63b8ff" d="M486.72,-315.9C482.47,-312.62 478.15,-309.11 474.25,-305.62 456.9,-290.13 457.47,-280.73 438.25,-267.62 433.84,-264.62 428.86,-261.99 423.86,-259.74"/>
<polygon fill="#63b8ff" stroke="#63b8ff" points="484.41,-318.54 494.51,-321.73 488.6,-312.94 484.41,-318.54"/>
</a>
</g>
</g>
<!-- Node9 -->
<g id="Node000009" class="node">
<title>Node9</title>
<g id="a_Node000009"><a xlink:href="$class_laminas_1_1_mail_1_1_protocol_1_1_imap.html#a01709c006c1e418de4ef623a7e0f3052" xlink:title=" ">
<polygon fill="white" stroke="#666666" points="411.62,-333.25 373.88,-333.25 373.88,-314 411.62,-314 411.62,-333.25"/>
<text text-anchor="middle" x="392.75" y="-319.75" font-family="Helvetica,sans-Serif" font-size="10.00">fetch</text>
</a>
</g>
</g>
<!-- Node5&#45;&gt;Node9 -->
<g id="edge74_Node000005_Node000009" class="edge">
<title>Node5&#45;&gt;Node9</title>
<g id="a_edge74_Node000005_Node000009"><a xlink:title=" ">
<path fill="none" stroke="#63b8ff" d="M462.52,-328.94C444.73,-327.57 425.57,-326.09 412.01,-325.04"/>
<polygon fill="#63b8ff" stroke="#63b8ff" points="462.19,-332.43 472.43,-329.71 462.73,-325.45 462.19,-332.43"/>
</a>
</g>
</g>
<!-- Node10 -->
<g id="Node000010" class="node">
<title>Node10</title>
<g id="a_Node000010"><a xlink:href="$class_laminas_1_1_mail_1_1_protocol_1_1_imap.html#a2034a041286b07b7aae958bc564dc138" xlink:title=" ">
<polygon fill="white" stroke="#666666" points="311.25,-296.25 201.5,-296.25 201.5,-277 311.25,-277 311.25,-296.25"/>
<text text-anchor="middle" x="256.38" y="-282.75" font-family="Helvetica,sans-Serif" font-size="10.00">requestAndResponse</text>
</a>
</g>
</g>
<!-- Node5&#45;&gt;Node10 -->
<g id="edge75_Node000005_Node000010" class="edge">
<title>Node5&#45;&gt;Node10</title>
<g id="a_edge75_Node000005_Node000010"><a xlink:title=" ">
<path fill="none" stroke="#63b8ff" d="M462.64,-343.81C429.65,-349.6 385.02,-353.43 347.25,-342.62 315.79,-333.63 284.63,-310.07 268.56,-296.55"/>
<polygon fill="#63b8ff" stroke="#63b8ff" points="463.12,-347.28 472.3,-341.99 461.82,-340.4 463.12,-347.28"/>
</a>
</g>
</g>
<!-- Node7 -->
<g id="Node000007" class="node">
<title>Node7</title>
<g id="a_Node000007"><a xlink:href="$class_laminas_1_1_mail_1_1_protocol_1_1_imap.html#ae3bc418a0e98c6cb402dc1176364ae39" xlink:title=" ">
<polygon fill="white" stroke="#666666" points="282.75,-259.25 230,-259.25 230,-240 282.75,-240 282.75,-259.25"/>
<text text-anchor="middle" x="256.38" y="-245.75" font-family="Helvetica,sans-Serif" font-size="10.00">examine</text>
</a>
</g>
</g>
<!-- Node6&#45;&gt;Node7 -->
<g id="edge72_Node000006_Node000007" class="edge">
<title>Node6&#45;&gt;Node7</title>
<g id="a_edge72_Node000006_Node000007"><a xlink:title=" ">
<path fill="none" stroke="#63b8ff" d="M335.55,-249.62C317.33,-249.62 298.01,-249.62 283.13,-249.62"/>
<polygon fill="#63b8ff" stroke="#63b8ff" points="335.49,-253.13 345.49,-249.63 335.49,-246.13 335.49,-253.13"/>
</a>
</g>
</g>
<!-- Node8 -->
<g id="Node000008" class="node">
<title>Node8</title>
<g id="a_Node000008"><a xlink:href="$class_laminas_1_1_mail_1_1_protocol_1_1_imap.html#ac56c4c52035da9e38144962031c35ec1" xlink:title=" ">
<polygon fill="white" stroke="#666666" points="277.5,-222.25 235.25,-222.25 235.25,-203 277.5,-203 277.5,-222.25"/>
<text text-anchor="middle" x="256.38" y="-208.75" font-family="Helvetica,sans-Serif" font-size="10.00">select</text>
</a>
</g>
</g>
<!-- Node6&#45;&gt;Node8 -->
<g id="edge73_Node000006_Node000008" class="edge">
<title>Node6&#45;&gt;Node8</title>
<g id="a_edge73_Node000006_Node000008"><a xlink:title=" ">
<path fill="none" stroke="#63b8ff" d="M344.17,-236.52C321.41,-230.26 295.36,-223.08 277.78,-218.24"/>
<polygon fill="#63b8ff" stroke="#63b8ff" points="343,-239.83 353.57,-239.11 344.86,-233.08 343,-239.83"/>
</a>
</g>
</g>
<!-- Node10&#45;&gt;Node3 -->
<g id="edge78_Node000010_Node000003" class="edge">
<title>Node10&#45;&gt;Node3</title>
<g id="a_edge78_Node000010_Node000003"><a xlink:title=" ">
<path fill="none" stroke="#63b8ff" d="M251.56,-307.88C242.96,-350.52 218.54,-447.74 165.5,-509.62 162.88,-512.69 159.59,-515.37 156.17,-517.66"/>
<polygon fill="#63b8ff" stroke="#63b8ff" points="254.97,-308.68 253.41,-298.2 248.09,-307.36 254.97,-308.68"/>
</a>
</g>
</g>
<!-- Node11 -->
<g id="Node000011" class="node">
<title>Node11</title>
<g id="a_Node000011"><a xlink:href="$class_laminas_1_1_mail_1_1_protocol_1_1_imap.html#a3e6fa685fb40dc9833de8b3fc70bb571" xlink:title=" ">
<polygon fill="white" stroke="#666666" points="158,-389.25 110.5,-389.25 110.5,-370 158,-370 158,-389.25"/>
<text text-anchor="middle" x="134.25" y="-375.75" font-family="Helvetica,sans-Serif" font-size="10.00">append</text>
</a>
</g>
</g>
<!-- Node10&#45;&gt;Node11 -->
<g id="edge76_Node000010_Node000011" class="edge">
<title>Node10&#45;&gt;Node11</title>
<g id="a_edge76_Node000010_Node000011"><a xlink:title=" ">
<path fill="none" stroke="#63b8ff" d="M236.15,-304.2C218.43,-320.03 191.06,-343.52 165.5,-361.62 161.61,-364.38 157.28,-367.13 153.14,-369.61"/>
<polygon fill="#63b8ff" stroke="#63b8ff" points="238.27,-307 243.36,-297.71 233.59,-301.8 238.27,-307"/>
</a>
</g>
</g>
<!-- Node12 -->
<g id="Node000012" class="node">
<title>Node12</title>
<g id="a_Node000012"><a xlink:href="$class_laminas_1_1_mail_1_1_protocol_1_1_imap.html#ab2c24006bbccb7984767e680dc4c3e92" xlink:title=" ">
<polygon fill="white" stroke="#666666" points="162.88,-352.25 105.62,-352.25 105.62,-333 162.88,-333 162.88,-352.25"/>
<text text-anchor="middle" x="134.25" y="-338.75" font-family="Helvetica,sans-Serif" font-size="10.00">capability</text>
</a>
</g>
</g>
<!-- Node10&#45;&gt;Node12 -->
<g id="edge77_Node000010_Node000012" class="edge">
<title>Node10&#45;&gt;Node12</title>
<g id="a_edge77_Node000010_Node000012"><a xlink:title=" ">
<path fill="none" stroke="#63b8ff" d="M223.53,-301.47C202.5,-311.27 175.52,-323.85 156.95,-332.51"/>
<polygon fill="#63b8ff" stroke="#63b8ff" points="224.94,-304.67 232.53,-297.28 221.98,-298.33 224.94,-304.67"/>
</a>
</g>
</g>
<!-- Node13 -->
<g id="Node000013" class="node">
<title>Node13</title>
<g id="a_Node000013"><a xlink:href="$class_laminas_1_1_mail_1_1_protocol_1_1_imap.html#a09db8536417435310c39251744fce861" xlink:title=" ">
<polygon fill="white" stroke="#666666" points="152.75,-315.25 115.75,-315.25 115.75,-296 152.75,-296 152.75,-315.25"/>
<text text-anchor="middle" x="134.25" y="-301.75" font-family="Helvetica,sans-Serif" font-size="10.00">copy</text>
</a>
</g>
</g>
<!-- Node10&#45;&gt;Node13 -->
<g id="edge79_Node000010_Node000013" class="edge">
<title>Node10&#45;&gt;Node13</title>
<g id="a_edge79_Node000010_Node000013"><a xlink:title=" ">
<path fill="none" stroke="#63b8ff" d="M190.3,-296.92C176.62,-299.08 163.29,-301.19 153.17,-302.79"/>
<polygon fill="#63b8ff" stroke="#63b8ff" points="190.46,-300.44 199.79,-295.42 189.37,-293.52 190.46,-300.44"/>
</a>
</g>
</g>
<!-- Node14 -->
<g id="Node000014" class="node">
<title>Node14</title>
<g id="a_Node000014"><a xlink:href="$class_laminas_1_1_mail_1_1_protocol_1_1_imap.html#a4268b06dd43a2def38878292064b4c01" xlink:title=" ">
<polygon fill="white" stroke="#666666" points="155.75,-278.25 112.75,-278.25 112.75,-259 155.75,-259 155.75,-278.25"/>
<text text-anchor="middle" x="134.25" y="-264.75" font-family="Helvetica,sans-Serif" font-size="10.00">create</text>
</a>
</g>
</g>
<!-- Node10&#45;&gt;Node14 -->
<g id="edge80_Node000010_Node000014" class="edge">
<title>Node10&#45;&gt;Node14</title>
<g id="a_edge80_Node000010_Node000014"><a xlink:title=" ">
<path fill="none" stroke="#63b8ff" d="M189.95,-276.82C177.64,-274.98 165.63,-273.18 156.02,-271.74"/>
<polygon fill="#63b8ff" stroke="#63b8ff" points="189.38,-280.28 199.79,-278.3 190.42,-273.35 189.38,-280.28"/>
</a>
</g>
</g>
<!-- Node15 -->
<g id="Node000015" class="node">
<title>Node15</title>
<g id="a_Node000015"><a xlink:href="$class_laminas_1_1_mail_1_1_protocol_1_1_imap.html#abe2eae520db8d2054856289aa8eda9d7" xlink:title=" ">
<polygon fill="white" stroke="#666666" points="155.38,-241.25 113.12,-241.25 113.12,-222 155.38,-222 155.38,-241.25"/>
<text text-anchor="middle" x="134.25" y="-227.75" font-family="Helvetica,sans-Serif" font-size="10.00">delete</text>
</a>
</g>
</g>
<!-- Node10&#45;&gt;Node15 -->
<g id="edge81_Node000010_Node000015" class="edge">
<title>Node10&#45;&gt;Node15</title>
<g id="a_edge81_Node000010_Node000015"><a xlink:title=" ">
<path fill="none" stroke="#63b8ff" d="M211.27,-272.65C207.93,-271.36 204.65,-270.01 201.5,-268.62 191.92,-264.39 168.68,-251.15 152.45,-241.71"/>
<polygon fill="#63b8ff" stroke="#63b8ff" points="209.94,-275.89 220.53,-276.02 212.34,-269.31 209.94,-275.89"/>
</a>
</g>
</g>
<!-- Node16 -->
<g id="Node000016" class="node">
<title>Node16</title>
<g id="a_Node000016"><a xlink:href="$class_laminas_1_1_mail_1_1_protocol_1_1_imap.html#a94c7ce426c94d037b77e23e4e17b4fa5" xlink:title=" ">
<polygon fill="white" stroke="#666666" points="160.62,-204.25 107.88,-204.25 107.88,-185 160.62,-185 160.62,-204.25"/>
<text text-anchor="middle" x="134.25" y="-190.75" font-family="Helvetica,sans-Serif" font-size="10.00">expunge</text>
</a>
</g>
</g>
<!-- Node10&#45;&gt;Node16 -->
<g id="edge82_Node000010_Node000016" class="edge">
<title>Node10&#45;&gt;Node16</title>
<g id="a_edge82_Node000010_Node000016"><a xlink:title=" ">
<path fill="none" stroke="#63b8ff" d="M205.04,-271.16C203.82,-270.35 202.64,-269.51 201.5,-268.62 178.14,-250.46 186.78,-233.18 165.5,-212.62 162.42,-209.65 158.77,-206.96 155.08,-204.62"/>
<polygon fill="#63b8ff" stroke="#63b8ff" points="203.19,-274.13 213.65,-275.83 206.53,-267.98 203.19,-274.13"/>
</a>
</g>
</g>
<!-- Node17 -->
<g id="Node000017" class="node">
<title>Node17</title>
<g id="a_Node000017"><a xlink:href="$class_laminas_1_1_mail_1_1_protocol_1_1_imap.html#a0d34beed5bb0f1596684b4c3fe6c91f9" xlink:title=" ">
<polygon fill="white" stroke="#666666" points="165.5,-167.25 103,-167.25 103,-148 165.5,-148 165.5,-167.25"/>
<text text-anchor="middle" x="134.25" y="-153.75" font-family="Helvetica,sans-Serif" font-size="10.00">listMailbox</text>
</a>
</g>
</g>
<!-- Node10&#45;&gt;Node17 -->
<g id="edge83_Node000010_Node000017" class="edge">
<title>Node10&#45;&gt;Node17</title>
<g id="a_edge83_Node000010_Node000017"><a xlink:title=" ">
<path fill="none" stroke="#63b8ff" d="M203.45,-270.37C202.78,-269.8 202.13,-269.22 201.5,-268.62 169.43,-238.03 194.11,-209.48 165.5,-175.62 162.9,-172.54 159.62,-169.86 156.2,-167.56"/>
<polygon fill="#63b8ff" stroke="#63b8ff" points="201.44,-273.23 211.72,-275.79 205.28,-267.38 201.44,-273.23"/>
</a>
</g>
</g>
<!-- Node18 -->
<g id="Node000018" class="node">
<title>Node18</title>
<g id="a_Node000018"><a xlink:href="$class_laminas_1_1_mail_1_1_protocol_1_1_imap.html#ae99dd092732ecd5e009bbaf741cbd8f4" xlink:title=" ">
<polygon fill="white" stroke="#666666" points="152.38,-130.25 116.12,-130.25 116.12,-111 152.38,-111 152.38,-130.25"/>
<text text-anchor="middle" x="134.25" y="-116.75" font-family="Helvetica,sans-Serif" font-size="10.00">login</text>
</a>
</g>
</g>
<!-- Node10&#45;&gt;Node18 -->
<g id="edge84_Node000010_Node000018" class="edge">
<title>Node10&#45;&gt;Node18</title>
<g id="a_edge84_Node000010_Node000018"><a xlink:title=" ">
<path fill="none" stroke="#63b8ff" d="M202.65,-269.78C202.26,-269.4 201.87,-269.02 201.5,-268.62 160.23,-225.14 201.88,-186.28 165.5,-138.62 162.16,-134.25 157.43,-130.73 152.7,-128"/>
<polygon fill="#63b8ff" stroke="#63b8ff" points="200.51,-272.55 210.65,-275.62 204.64,-266.9 200.51,-272.55"/>
</a>
</g>
</g>
<!-- Node19 -->
<g id="Node000019" class="node">
<title>Node19</title>
<g id="a_Node000019"><a xlink:href="$class_laminas_1_1_mail_1_1_protocol_1_1_imap.html#a082405d89acd6835c3a7c7a08a7adbab" xlink:title=" ">
<polygon fill="white" stroke="#666666" points="155.38,-93.25 113.12,-93.25 113.12,-74 155.38,-74 155.38,-93.25"/>
<text text-anchor="middle" x="134.25" y="-79.75" font-family="Helvetica,sans-Serif" font-size="10.00">logout</text>
</a>
</g>
</g>
<!-- Node10&#45;&gt;Node19 -->
<g id="edge85_Node000010_Node000019" class="edge">
<title>Node10&#45;&gt;Node19</title>
<g id="a_edge85_Node000010_Node000019"><a xlink:title=" ">
<path fill="none" stroke="#63b8ff" d="M202.59,-269.78C202.22,-269.41 201.85,-269.02 201.5,-268.62 150.85,-212.06 209.81,-163.28 165.5,-101.62 162.93,-98.05 159.42,-95.07 155.69,-92.62"/>
<polygon fill="#63b8ff" stroke="#63b8ff" points="200.15,-272.33 210.22,-275.62 204.4,-266.77 200.15,-272.33"/>
</a>
</g>
</g>
<!-- Node21 -->
<g id="Node000021" class="node">
<title>Node21</title>
<g id="a_Node000021"><a xlink:href="$class_laminas_1_1_mail_1_1_protocol_1_1_imap.html#a5b0d7b9e52bc856532f248f24da5d2d7" xlink:title=" ">
<polygon fill="white" stroke="#666666" points="152.75,-56.25 115.75,-56.25 115.75,-37 152.75,-37 152.75,-56.25"/>
<text text-anchor="middle" x="134.25" y="-42.75" font-family="Helvetica,sans-Serif" font-size="10.00">noop</text>
</a>
</g>
</g>
<!-- Node10&#45;&gt;Node21 -->
<g id="edge87_Node000010_Node000021" class="edge">
<title>Node10&#45;&gt;Node21</title>
<g id="a_edge87_Node000010_Node000021"><a xlink:title=" ">
<path fill="none" stroke="#63b8ff" d="M202.29,-269.51C202.02,-269.22 201.76,-268.93 201.5,-268.62 141.38,-198.9 217.82,-140.38 165.5,-64.62 162.37,-60.1 157.71,-56.53 152.97,-53.81"/>
<polygon fill="#63b8ff" stroke="#63b8ff" points="200.1,-272.24 210.11,-275.71 204.45,-266.75 200.1,-272.24"/>
</a>
</g>
</g>
<!-- Node22 -->
<g id="Node000022" class="node">
<title>Node22</title>
<g id="a_Node000022"><a xlink:href="$class_laminas_1_1_mail_1_1_protocol_1_1_imap.html#a36135424173a2680ef2982c551a3268f" xlink:title=" ">
<polygon fill="white" stroke="#666666" points="158.38,-19.25 110.12,-19.25 110.12,0 158.38,0 158.38,-19.25"/>
<text text-anchor="middle" x="134.25" y="-5.75" font-family="Helvetica,sans-Serif" font-size="10.00">rename</text>
</a>
</g>
</g>
<!-- Node10&#45;&gt;Node22 -->
<g id="edge88_Node000010_Node000022" class="edge">
<title>Node10&#45;&gt;Node22</title>
<g id="a_edge88_Node000010_Node000022"><a xlink:title=" ">
<path fill="none" stroke="#63b8ff" d="M202.26,-269.5C202,-269.21 201.75,-268.92 201.5,-268.62 131.87,-185.68 225.86,-117.55 165.5,-27.62 163.39,-24.48 160.53,-21.8 157.4,-19.55"/>
<polygon fill="#63b8ff" stroke="#63b8ff" points="199.82,-272.02 209.78,-275.62 204.23,-266.59 199.82,-272.02"/>
</a>
</g>
</g>
<!-- Node23 -->
<g id="Node000023" class="node">
<title>Node23</title>
<g id="a_Node000023"><a xlink:href="$class_laminas_1_1_mail_1_1_protocol_1_1_imap.html#af59dcdcc6bc2d69f996e2dff149a4a7d" xlink:title=" ">
<polygon fill="white" stroke="#666666" points="156.88,-500.25 111.62,-500.25 111.62,-481 156.88,-481 156.88,-500.25"/>
<text text-anchor="middle" x="134.25" y="-486.75" font-family="Helvetica,sans-Serif" font-size="10.00">search</text>
</a>
</g>
</g>
<!-- Node10&#45;&gt;Node23 -->
<g id="edge89_Node000010_Node000023" class="edge">
<title>Node10&#45;&gt;Node23</title>
<g id="a_edge89_Node000010_Node000023"><a xlink:title=" ">
<path fill="none" stroke="#63b8ff" d="M249.64,-307.58C238.63,-344.62 211.45,-422.51 165.5,-472.62 162.77,-475.6 159.44,-478.23 156,-480.51"/>
<polygon fill="#63b8ff" stroke="#63b8ff" points="252.96,-308.71 252.34,-298.13 246.23,-306.78 252.96,-308.71"/>
</a>
</g>
</g>
<!-- Node24 -->
<g id="Node000024" class="node">
<title>Node24</title>
<g id="a_Node000024"><a xlink:href="$class_laminas_1_1_mail_1_1_protocol_1_1_imap.html#a4b1439124aee157f144e90431085e47d" xlink:title=" ">
<polygon fill="white" stroke="#666666" points="153.12,-463.25 115.38,-463.25 115.38,-444 153.12,-444 153.12,-463.25"/>
<text text-anchor="middle" x="134.25" y="-449.75" font-family="Helvetica,sans-Serif" font-size="10.00">store</text>
</a>
</g>
</g>
<!-- Node10&#45;&gt;Node24 -->
<g id="edge90_Node000010_Node000024" class="edge">
<title>Node10&#45;&gt;Node24</title>
<g id="a_edge90_Node000010_Node000024"><a xlink:title=" ">
<path fill="none" stroke="#63b8ff" d="M247.11,-306.72C233.68,-337.48 204.64,-396.72 165.5,-435.62 162.03,-439.07 157.78,-442.12 153.57,-444.69"/>
<polygon fill="#63b8ff" stroke="#63b8ff" points="250.2,-308.4 250.89,-297.83 243.76,-305.66 250.2,-308.4"/>
</a>
</g>
</g>
<!-- Node25 -->
<g id="Node000025" class="node">
<title>Node25</title>
<g id="a_Node000025"><a xlink:href="$class_laminas_1_1_mail_1_1_protocol_1_1_imap.html#a58f82ee20073f81fcf7102d8cb791af4" xlink:title=" ">
<polygon fill="white" stroke="#666666" points="163.25,-426.25 105.25,-426.25 105.25,-407 163.25,-407 163.25,-426.25"/>
<text text-anchor="middle" x="134.25" y="-412.75" font-family="Helvetica,sans-Serif" font-size="10.00">subscribe</text>
</a>
</g>
</g>
<!-- Node10&#45;&gt;Node25 -->
<g id="edge91_Node000010_Node000025" class="edge">
<title>Node10&#45;&gt;Node25</title>
<g id="a_edge91_Node000010_Node000025"><a xlink:title=" ">
<path fill="none" stroke="#63b8ff" d="M243.04,-305.96C227.17,-329.79 197.79,-370.55 165.5,-398.62 162.18,-401.51 158.33,-404.2 154.52,-406.57"/>
<polygon fill="#63b8ff" stroke="#63b8ff" points="245.79,-308.15 248.33,-297.86 239.93,-304.32 245.79,-308.15"/>
</a>
</g>
</g>
<!-- Node20 -->
<g id="Node000020" class="node">
<title>Node20</title>
<g id="a_Node000020"><a xlink:href="$class_laminas_1_1_mail_1_1_protocol_1_1_imap.html#a421831a265621325e1fdd19aace0c758" xlink:title=" ">
<polygon fill="white" stroke="#666666" points="64.38,-93.25 2.62,-93.25 2.62,-74 64.38,-74 64.38,-93.25"/>
<text text-anchor="middle" x="33.5" y="-79.75" font-family="Helvetica,sans-Serif" font-size="10.00">__destruct</text>
</a>
</g>
</g>
<!-- Node19&#45;&gt;Node20 -->
<g id="edge86_Node000019_Node000020" class="edge">
<title>Node19&#45;&gt;Node20</title>
<g id="a_edge86_Node000019_Node000020"><a xlink:title=" ">
<path fill="none" stroke="#63b8ff" d="M101.6,-83.62C89.77,-83.62 76.38,-83.62 64.68,-83.62"/>
<polygon fill="#63b8ff" stroke="#63b8ff" points="101.28,-87.13 111.28,-83.63 101.28,-80.13 101.28,-87.13"/>
</a>
</g>
</g>
<!-- Node27 -->
<g id="Node000027" class="node">
<title>Node27</title>
<g id="a_Node000027"><a xlink:href="$class_laminas_1_1_mail_1_1_protocol_1_1_imap.html#a207d3553d58b65ddb528e13736700138" xlink:title=" ">
<polygon fill="white" stroke="#666666" points="537.5,-296.25 484.75,-296.25 484.75,-277 537.5,-277 537.5,-296.25"/>
<text text-anchor="middle" x="511.12" y="-282.75" font-family="Helvetica,sans-Serif" font-size="10.00">readLine</text>
</a>
</g>
</g>
<!-- Node26&#45;&gt;Node27 -->
<g id="edge93_Node000026_Node000027" class="edge">
<title>Node26&#45;&gt;Node27</title>
<g id="a_edge93_Node000026_Node000027"><a xlink:title=" ">
<path fill="none" stroke="#63b8ff" d="M587.25,-275.19C570.65,-277.72 552.23,-280.52 537.79,-282.72"/>
<polygon fill="#63b8ff" stroke="#63b8ff" points="587.52,-278.69 596.88,-273.72 586.47,-271.77 587.52,-278.69"/>
</a>
</g>
</g>
<!-- Node27&#45;&gt;Node6 -->
<g id="edge94_Node000027_Node000006" class="edge">
<title>Node27&#45;&gt;Node6</title>
<g id="a_edge94_Node000027_Node000006"><a xlink:title=" ">
<path fill="none" stroke="#63b8ff" d="M473.52,-274.99C458.05,-270.07 440.2,-264.39 425.31,-259.66"/>
<polygon fill="#63b8ff" stroke="#63b8ff" points="472.26,-278.26 482.86,-277.95 474.39,-271.59 472.26,-278.26"/>
</a>
</g>
</g>
<!-- Node27&#45;&gt;Node9 -->
<g id="edge95_Node000027_Node000009" class="edge">
<title>Node27&#45;&gt;Node9</title>
<g id="a_edge95_Node000027_Node000009"><a xlink:title=" ">
<path fill="none" stroke="#63b8ff" d="M473.42,-298.29C452.93,-304.81 428.31,-312.64 411.92,-317.85"/>
<polygon fill="#63b8ff" stroke="#63b8ff" points="474.39,-301.66 482.86,-295.3 472.26,-294.99 474.39,-301.66"/>
</a>
</g>
</g>
<!-- Node28 -->
<g id="Node000028" class="node">
<title>Node28</title>
<g id="a_Node000028"><a xlink:href="$class_laminas_1_1_mail_1_1_protocol_1_1_imap.html#a241622d41706670b9aa972596f532297" xlink:title=" ">
<polygon fill="white" stroke="#666666" points="432.25,-296.25 353.25,-296.25 353.25,-277 432.25,-277 432.25,-296.25"/>
<text text-anchor="middle" x="392.75" y="-282.75" font-family="Helvetica,sans-Serif" font-size="10.00">readResponse</text>
</a>
</g>
</g>
<!-- Node27&#45;&gt;Node28 -->
<g id="edge96_Node000027_Node000028" class="edge">
<title>Node27&#45;&gt;Node28</title>
<g id="a_edge96_Node000027_Node000028"><a xlink:title=" ">
<path fill="none" stroke="#63b8ff" d="M472.93,-286.62C459.97,-286.62 445.4,-286.62 432.33,-286.62"/>
<polygon fill="#63b8ff" stroke="#63b8ff" points="472.78,-290.13 482.78,-286.63 472.78,-283.13 472.78,-290.13"/>
</a>
</g>
</g>
<!-- Node28&#45;&gt;Node10 -->
<g id="edge97_Node000028_Node000010" class="edge">
<title>Node28&#45;&gt;Node10</title>
<g id="a_edge97_Node000028_Node000010"><a xlink:title=" ">
<path fill="none" stroke="#63b8ff" d="M341.68,-286.62C331.88,-286.62 321.57,-286.62 311.65,-286.62"/>
<polygon fill="#63b8ff" stroke="#63b8ff" points="341.37,-290.13 351.37,-286.63 341.37,-283.13 341.37,-290.13"/>
</a>
</g>
</g>
<!-- Node29&#45;&gt;Node27 -->
<g id="edge99_Node000029_Node000027" class="edge">
<title>Node29&#45;&gt;Node27</title>
<g id="a_edge99_Node000029_Node000027"><a xlink:title=" ">
<path fill="none" stroke="#63b8ff" d="M578,-297.21C564.05,-294.97 549.59,-292.64 537.78,-290.75"/>
<polygon fill="#63b8ff" stroke="#63b8ff" points="577.09,-300.61 587.52,-298.74 578.2,-293.7 577.09,-300.61"/>
</a>
</g>
</g>
</g>
</svg>
