<?xml version="1.0" encoding="UTF-8" standalone="no"?>
<!DOCTYPE svg PUBLIC "-//W3C//DTD SVG 1.1//EN"
 "http://www.w3.org/Graphics/SVG/1.1/DTD/svg11.dtd">
<!-- Generated by graphviz version 10.0.1 (20240210.2158)
 -->
<!-- Title: AbstractBinary Pages: 1 -->
<svg width="166pt" height="670pt"
 viewBox="0.00 0.00 165.50 670.00" xmlns="http://www.w3.org/2000/svg" xmlns:xlink="http://www.w3.org/1999/xlink">
<g id="graph0" class="graph" transform="scale(1 1) rotate(0) translate(4 666)">
<title>AbstractBinary</title>
<!-- Node1 -->
<g id="Node000001" class="node">
<title>Node1</title>
<g id="a_Node000001"><a xlink:title=" ">
<polygon fill="#999999" stroke="none" points="120,-123 22,-123 22,0 120,0 120,-123"/>
<text text-anchor="start" x="38.75" y="-109.5" font-family="Helvetica,sans-Serif" font-size="10.00">AbstractBinary</text>
<text text-anchor="start" x="69.5" y="-94.5" font-family="Helvetica,sans-Serif" font-size="10.00"> </text>
<text text-anchor="start" x="26" y="-79.5" font-family="Helvetica,sans-Serif" font-size="10.00">+</text>
<text text-anchor="start" x="36" y="-79.5" font-family="Helvetica,sans-Serif" font-size="10.00">__construct(Node </text>
<text text-anchor="start" x="36" y="-68.25" font-family="Helvetica,sans-Serif" font-size="10.00">$left, Node $right,</text>
<text text-anchor="start" x="36" y="-57" font-family="Helvetica,sans-Serif" font-size="10.00"> int $lineno)</text>
<text text-anchor="start" x="26" y="-42.5" font-family="Helvetica,sans-Serif" font-size="10.00">+</text>
<text text-anchor="start" x="36" y="-42.5" font-family="Helvetica,sans-Serif" font-size="10.00">compile(Compiler </text>
<text text-anchor="start" x="36" y="-31.25" font-family="Helvetica,sans-Serif" font-size="10.00">$compiler)</text>
<text text-anchor="start" x="26" y="-16.5" font-family="Helvetica,sans-Serif" font-size="10.00">+</text>
<text text-anchor="start" x="36" y="-16.5" font-family="Helvetica,sans-Serif" font-size="10.00">operator(Compiler</text>
<text text-anchor="start" x="36" y="-5.25" font-family="Helvetica,sans-Serif" font-size="10.00"> $compiler)</text>
<polygon fill="#666666" stroke="#666666" points="22,-106 22,-106 120,-106 120,-106 22,-106"/>
<polygon fill="#666666" stroke="#666666" points="22,-91 22,-91 120,-91 120,-91 22,-91"/>
<polygon fill="none" stroke="#666666" points="22,0 22,-123 120,-123 120,0 22,0"/>
</a>
</g>
</g>
<!-- Node2 -->
<g id="Node000002" class="node">
<title>Node2</title>
<g id="a_Node000002"><a xlink:href="$class_twig_1_1_node_1_1_expression_1_1_abstract_expression.html" xlink:title=" ">
<polygon fill="white" stroke="none" points="118.5,-208 23.5,-208 23.5,-159 118.5,-159 118.5,-208"/>
<text text-anchor="start" x="28.25" y="-194.5" font-family="Helvetica,sans-Serif" font-size="10.00">AbstractExpression</text>
<text text-anchor="start" x="69.5" y="-179.5" font-family="Helvetica,sans-Serif" font-size="10.00"> </text>
<text text-anchor="start" x="69.5" y="-164.5" font-family="Helvetica,sans-Serif" font-size="10.00"> </text>
<polygon fill="#666666" stroke="#666666" points="23.5,-191 23.5,-191 118.5,-191 118.5,-191 23.5,-191"/>
<polygon fill="#666666" stroke="#666666" points="23.5,-176 23.5,-176 118.5,-176 118.5,-176 23.5,-176"/>
<polygon fill="none" stroke="#666666" points="23.5,-159 23.5,-208 118.5,-208 118.5,-159 23.5,-159"/>
</a>
</g>
</g>
<!-- Node2&#45;&gt;Node1 -->
<g id="edge9_Node000001_Node000002" class="edge">
<title>Node2&#45;&gt;Node1</title>
<g id="a_edge9_Node000001_Node000002"><a xlink:title=" ">
<path fill="none" stroke="#63b8ff" d="M71,-147.57C71,-139.82 71,-131.4 71,-122.97"/>
<polygon fill="none" stroke="#63b8ff" points="67.5,-147.56 71,-157.56 74.5,-147.56 67.5,-147.56"/>
</a>
</g>
</g>
<!-- Node3 -->
<g id="Node000003" class="node">
<title>Node3</title>
<g id="a_Node000003"><a xlink:href="$class_twig_1_1_node_1_1_node.html" xlink:title=" ">
<polygon fill="white" stroke="none" points="141.5,-577 0.5,-577 0.5,-244 141.5,-244 141.5,-577"/>
<text text-anchor="start" x="59.38" y="-563.5" font-family="Helvetica,sans-Serif" font-size="10.00">Node</text>
<text text-anchor="start" x="4.88" y="-548.5" font-family="Helvetica,sans-Serif" font-size="10.00">#</text>
<text text-anchor="start" x="14.5" y="-548.5" font-family="Helvetica,sans-Serif" font-size="10.00">$nodes</text>
<text text-anchor="start" x="4.88" y="-533.5" font-family="Helvetica,sans-Serif" font-size="10.00">#</text>
<text text-anchor="start" x="14.5" y="-533.5" font-family="Helvetica,sans-Serif" font-size="10.00">$attributes</text>
<text text-anchor="start" x="4.88" y="-518.5" font-family="Helvetica,sans-Serif" font-size="10.00">#</text>
<text text-anchor="start" x="14.5" y="-518.5" font-family="Helvetica,sans-Serif" font-size="10.00">$lineno</text>
<text text-anchor="start" x="4.88" y="-503.5" font-family="Helvetica,sans-Serif" font-size="10.00">#</text>
<text text-anchor="start" x="14.5" y="-503.5" font-family="Helvetica,sans-Serif" font-size="10.00">$tag</text>
<text text-anchor="start" x="4.5" y="-488.5" font-family="Helvetica,sans-Serif" font-size="10.00">+</text>
<text text-anchor="start" x="14.5" y="-488.5" font-family="Helvetica,sans-Serif" font-size="10.00">__construct(array</text>
<text text-anchor="start" x="14.5" y="-477.25" font-family="Helvetica,sans-Serif" font-size="10.00"> $nodes=[], array $attributes</text>
<text text-anchor="start" x="14.5" y="-466" font-family="Helvetica,sans-Serif" font-size="10.00">=[], int $lineno=0, string</text>
<text text-anchor="start" x="14.5" y="-454.75" font-family="Helvetica,sans-Serif" font-size="10.00"> $tag=null)</text>
<text text-anchor="start" x="4.5" y="-439.5" font-family="Helvetica,sans-Serif" font-size="10.00">+</text>
<text text-anchor="start" x="14.5" y="-439.5" font-family="Helvetica,sans-Serif" font-size="10.00">__toString()</text>
<text text-anchor="start" x="4.5" y="-424.5" font-family="Helvetica,sans-Serif" font-size="10.00">+</text>
<text text-anchor="start" x="14.5" y="-424.5" font-family="Helvetica,sans-Serif" font-size="10.00">compile(Compiler </text>
<text text-anchor="start" x="14.5" y="-413.25" font-family="Helvetica,sans-Serif" font-size="10.00">$compiler)</text>
<text text-anchor="start" x="4.5" y="-398.5" font-family="Helvetica,sans-Serif" font-size="10.00">+</text>
<text text-anchor="start" x="14.5" y="-398.5" font-family="Helvetica,sans-Serif" font-size="10.00">getTemplateLine()</text>
<text text-anchor="start" x="4.5" y="-383.5" font-family="Helvetica,sans-Serif" font-size="10.00">+</text>
<text text-anchor="start" x="14.5" y="-383.5" font-family="Helvetica,sans-Serif" font-size="10.00">getNodeTag()</text>
<text text-anchor="start" x="4.5" y="-368.5" font-family="Helvetica,sans-Serif" font-size="10.00">+</text>
<text text-anchor="start" x="14.5" y="-368.5" font-family="Helvetica,sans-Serif" font-size="10.00">hasAttribute(string</text>
<text text-anchor="start" x="14.5" y="-357.25" font-family="Helvetica,sans-Serif" font-size="10.00"> $name)</text>
<text text-anchor="start" x="4.5" y="-342.5" font-family="Helvetica,sans-Serif" font-size="10.00">+</text>
<text text-anchor="start" x="14.5" y="-342.5" font-family="Helvetica,sans-Serif" font-size="10.00">getAttribute(string</text>
<text text-anchor="start" x="14.5" y="-331.25" font-family="Helvetica,sans-Serif" font-size="10.00"> $name)</text>
<text text-anchor="start" x="4.5" y="-316.5" font-family="Helvetica,sans-Serif" font-size="10.00">+</text>
<text text-anchor="start" x="14.5" y="-316.5" font-family="Helvetica,sans-Serif" font-size="10.00">setAttribute(string</text>
<text text-anchor="start" x="14.5" y="-305.25" font-family="Helvetica,sans-Serif" font-size="10.00"> $name, $value)</text>
<text text-anchor="start" x="4.5" y="-290.5" font-family="Helvetica,sans-Serif" font-size="10.00">+</text>
<text text-anchor="start" x="14.5" y="-290.5" font-family="Helvetica,sans-Serif" font-size="10.00">removeAttribute(string</text>
<text text-anchor="start" x="14.5" y="-279.25" font-family="Helvetica,sans-Serif" font-size="10.00"> $name)</text>
<text text-anchor="start" x="4.5" y="-264.5" font-family="Helvetica,sans-Serif" font-size="10.00">+</text>
<text text-anchor="start" x="14.5" y="-264.5" font-family="Helvetica,sans-Serif" font-size="10.00">hasNode(string $name)</text>
<text text-anchor="start" x="14.5" y="-249.5" font-family="Helvetica,sans-Serif" font-size="10.00">et 8 de plus...</text>
<polygon fill="#666666" stroke="#666666" points="0.5,-560 0.5,-560 141.5,-560 141.5,-560 0.5,-560"/>
<polygon fill="#666666" stroke="#666666" points="0.5,-500 0.5,-500 12.5,-500 12.5,-500 0.5,-500"/>
<polygon fill="#666666" stroke="#666666" points="12.5,-500 12.5,-500 141.5,-500 141.5,-500 12.5,-500"/>
<polygon fill="none" stroke="#666666" points="0.5,-244 0.5,-577 141.5,-577 141.5,-244 0.5,-244"/>
</a>
</g>
</g>
<!-- Node3&#45;&gt;Node2 -->
<g id="edge10_Node000002_Node000003" class="edge">
<title>Node3&#45;&gt;Node2</title>
<g id="a_edge10_Node000002_Node000003"><a xlink:title=" ">
<path fill="none" stroke="#63b8ff" d="M71,-232.79C71,-223.4 71,-214.9 71,-207.75"/>
<polygon fill="none" stroke="#63b8ff" points="67.5,-232.69 71,-242.69 74.5,-232.69 67.5,-232.69"/>
</a>
</g>
</g>
<!-- Node4 -->
<g id="Node000004" class="node">
<title>Node4</title>
<g id="a_Node000004"><a xlink:title=" ">
<polygon fill="white" stroke="none" points="54,-662 0,-662 0,-613 54,-613 54,-662"/>
<text text-anchor="start" x="4.88" y="-648.5" font-family="Helvetica,sans-Serif" font-size="10.00">Countable</text>
<text text-anchor="start" x="25.5" y="-633.5" font-family="Helvetica,sans-Serif" font-size="10.00"> </text>
<text text-anchor="start" x="25.5" y="-618.5" font-family="Helvetica,sans-Serif" font-size="10.00"> </text>
<polygon fill="#666666" stroke="#666666" points="0,-645 0,-645 54,-645 54,-645 0,-645"/>
<polygon fill="#666666" stroke="#666666" points="0,-630 0,-630 54,-630 54,-630 0,-630"/>
<polygon fill="none" stroke="#666666" points="0,-613 0,-662 54,-662 54,-613 0,-613"/>
</a>
</g>
</g>
<!-- Node4&#45;&gt;Node3 -->
<g id="edge11_Node000003_Node000004" class="edge">
<title>Node4&#45;&gt;Node3</title>
<g id="a_edge11_Node000003_Node000004"><a xlink:title=" ">
<path fill="none" stroke="#63b8ff" d="M33.73,-602.08C35.23,-594.44 36.91,-585.84 38.71,-576.64"/>
<polygon fill="none" stroke="#63b8ff" points="30.32,-601.3 31.83,-611.78 37.19,-602.64 30.32,-601.3"/>
</a>
</g>
</g>
<!-- Node5 -->
<g id="Node000005" class="node">
<title>Node5</title>
<g id="a_Node000005"><a xlink:title=" ">
<polygon fill="white" stroke="none" points="157.5,-662 72.5,-662 72.5,-613 157.5,-613 157.5,-662"/>
<text text-anchor="start" x="77.5" y="-648.5" font-family="Helvetica,sans-Serif" font-size="10.00">IteratorAggregate</text>
<text text-anchor="start" x="113.5" y="-633.5" font-family="Helvetica,sans-Serif" font-size="10.00"> </text>
<text text-anchor="start" x="113.5" y="-618.5" font-family="Helvetica,sans-Serif" font-size="10.00"> </text>
<polygon fill="#666666" stroke="#666666" points="72.5,-645 72.5,-645 157.5,-645 157.5,-645 72.5,-645"/>
<polygon fill="#666666" stroke="#666666" points="72.5,-630 72.5,-630 157.5,-630 157.5,-630 72.5,-630"/>
<polygon fill="none" stroke="#666666" points="72.5,-613 72.5,-662 157.5,-662 157.5,-613 72.5,-613"/>
</a>
</g>
</g>
<!-- Node5&#45;&gt;Node3 -->
<g id="edge12_Node000003_Node000005" class="edge">
<title>Node5&#45;&gt;Node3</title>
<g id="a_edge12_Node000003_Node000005"><a xlink:title=" ">
<path fill="none" stroke="#63b8ff" d="M108.27,-602.08C106.77,-594.44 105.09,-585.84 103.29,-576.64"/>
<polygon fill="none" stroke="#63b8ff" points="104.81,-602.64 110.17,-611.78 111.68,-601.3 104.81,-602.64"/>
</a>
</g>
</g>
</g>
</svg>
