<?xml version="1.0" encoding="UTF-8" standalone="no"?>
<!DOCTYPE svg PUBLIC "-//W3C//DTD SVG 1.1//EN"
 "http://www.w3.org/Graphics/SVG/1.1/DTD/svg11.dtd">
<!-- Generated by graphviz version 10.0.1 (20240210.2158)
 -->
<!-- Title: AbstractChunkOutputBuilder Pages: 1 -->
<svg width="143pt" height="153pt"
 viewBox="0.00 0.00 143.00 153.00" xmlns="http://www.w3.org/2000/svg" xmlns:xlink="http://www.w3.org/1999/xlink">
<g id="graph0" class="graph" transform="scale(1 1) rotate(0) translate(4 149)">
<title>AbstractChunkOutputBuilder</title>
<!-- Node1 -->
<g id="Node000001" class="node">
<title>Node1</title>
<g id="a_Node000001"><a xlink:title=" ">
<polygon fill="#999999" stroke="none" points="135,-60 0,-60 0,0 135,0 135,-60"/>
<text text-anchor="start" x="5.25" y="-46.5" font-family="Helvetica,sans-Serif" font-size="10.00">AbstractChunkOutputBuilder</text>
<text text-anchor="start" x="66" y="-31.5" font-family="Helvetica,sans-Serif" font-size="10.00"> </text>
<text text-anchor="start" x="3.88" y="-16.5" font-family="Helvetica,sans-Serif" font-size="10.00">#</text>
<text text-anchor="start" x="13" y="-16.5" font-family="Helvetica,sans-Serif" font-size="10.00">getCommonChunks(array</text>
<text text-anchor="start" x="13" y="-5.25" font-family="Helvetica,sans-Serif" font-size="10.00"> $diff, int $lineThreshold=5)</text>
<polygon fill="#666666" stroke="#666666" points="0,-43 0,-43 135,-43 135,-43 0,-43"/>
<polygon fill="#666666" stroke="#666666" points="0,-28 0,-28 135,-28 135,-28 0,-28"/>
<polygon fill="none" stroke="#666666" points="0,0 0,-60 135,-60 135,0 0,0"/>
</a>
</g>
</g>
<!-- Node2 -->
<g id="Node000002" class="node">
<title>Node2</title>
<g id="a_Node000002"><a xlink:href="$interface_sebastian_bergmann_1_1_diff_1_1_output_1_1_diff_output_builder_interface.html" xlink:title=" ">
<polygon fill="white" stroke="none" points="129,-145 6,-145 6,-96 129,-96 129,-145"/>
<text text-anchor="start" x="10.88" y="-131.5" font-family="Helvetica,sans-Serif" font-size="10.00">DiffOutputBuilderInterface</text>
<text text-anchor="start" x="66" y="-116.5" font-family="Helvetica,sans-Serif" font-size="10.00"> </text>
<text text-anchor="start" x="16.5" y="-101.5" font-family="Helvetica,sans-Serif" font-size="10.00">+</text>
<text text-anchor="start" x="33" y="-101.5" font-family="Helvetica,sans-Serif" font-size="10.00">getDiff(array $diff)</text>
<polygon fill="#666666" stroke="#666666" points="6,-128 6,-128 129,-128 129,-128 6,-128"/>
<polygon fill="#666666" stroke="#666666" points="6,-113 6,-113 129,-113 129,-113 6,-113"/>
<polygon fill="none" stroke="#666666" points="6,-96 6,-145 129,-145 129,-96 6,-96"/>
</a>
</g>
</g>
<!-- Node2&#45;&gt;Node1 -->
<g id="edge3_Node000001_Node000002" class="edge">
<title>Node2&#45;&gt;Node1</title>
<g id="a_edge3_Node000001_Node000002"><a xlink:title=" ">
<path fill="none" stroke="#63b8ff" d="M67.5,-84.94C67.5,-76.62 67.5,-67.82 67.5,-59.79"/>
<polygon fill="none" stroke="#63b8ff" points="64,-84.73 67.5,-94.73 71,-84.73 64,-84.73"/>
</a>
</g>
</g>
</g>
</svg>
