<?xml version="1.0" encoding="UTF-8" standalone="no"?>
<!DOCTYPE svg PUBLIC "-//W3C//DTD SVG 1.1//EN"
 "http://www.w3.org/Graphics/SVG/1.1/DTD/svg11.dtd">
<!-- Generated by graphviz version 10.0.1 (20240210.2158)
 -->
<!-- Title: TraceableAdapter Pages: 1 -->
<svg width="504pt" height="771pt"
 viewBox="0.00 0.00 504.00 771.00" xmlns="http://www.w3.org/2000/svg" xmlns:xlink="http://www.w3.org/1999/xlink">
<g id="graph0" class="graph" transform="scale(1 1) rotate(0) translate(4 767)">
<title>TraceableAdapter</title>
<!-- Node1 -->
<g id="Node000001" class="node">
<title>Node1</title>
<g id="a_Node000001"><a xlink:title=" ">
<polygon fill="#999999" stroke="none" points="360,-280 195,-280 195,0 360,0 360,-280"/>
<text text-anchor="start" x="239.25" y="-266.5" font-family="Helvetica,sans-Serif" font-size="10.00">TraceableAdapter</text>
<text text-anchor="start" x="199.38" y="-251.5" font-family="Helvetica,sans-Serif" font-size="10.00">#</text>
<text text-anchor="start" x="209" y="-251.5" font-family="Helvetica,sans-Serif" font-size="10.00">$pool</text>
<text text-anchor="start" x="199" y="-236.5" font-family="Helvetica,sans-Serif" font-size="10.00">+</text>
<text text-anchor="start" x="209" y="-236.5" font-family="Helvetica,sans-Serif" font-size="10.00">__construct(AdapterInterface</text>
<text text-anchor="start" x="209" y="-225.25" font-family="Helvetica,sans-Serif" font-size="10.00"> $pool)</text>
<text text-anchor="start" x="199" y="-210.5" font-family="Helvetica,sans-Serif" font-size="10.00">+</text>
<text text-anchor="start" x="209" y="-210.5" font-family="Helvetica,sans-Serif" font-size="10.00">get(string $key, callable</text>
<text text-anchor="start" x="209" y="-199.25" font-family="Helvetica,sans-Serif" font-size="10.00"> $callback, float $beta</text>
<text text-anchor="start" x="209" y="-188" font-family="Helvetica,sans-Serif" font-size="10.00">=null, array &amp;$metadata=null)</text>
<text text-anchor="start" x="199" y="-173.5" font-family="Helvetica,sans-Serif" font-size="10.00">+</text>
<text text-anchor="start" x="209" y="-173.5" font-family="Helvetica,sans-Serif" font-size="10.00">getItem($key)</text>
<text text-anchor="start" x="199" y="-158.5" font-family="Helvetica,sans-Serif" font-size="10.00">+</text>
<text text-anchor="start" x="209" y="-158.5" font-family="Helvetica,sans-Serif" font-size="10.00">hasItem($key)</text>
<text text-anchor="start" x="199" y="-143.5" font-family="Helvetica,sans-Serif" font-size="10.00">+</text>
<text text-anchor="start" x="209" y="-143.5" font-family="Helvetica,sans-Serif" font-size="10.00">deleteItem($key)</text>
<text text-anchor="start" x="199" y="-128.5" font-family="Helvetica,sans-Serif" font-size="10.00">+</text>
<text text-anchor="start" x="209" y="-128.5" font-family="Helvetica,sans-Serif" font-size="10.00">save(CacheItemInterface</text>
<text text-anchor="start" x="209" y="-117.25" font-family="Helvetica,sans-Serif" font-size="10.00"> $item)</text>
<text text-anchor="start" x="199" y="-102.5" font-family="Helvetica,sans-Serif" font-size="10.00">+</text>
<text text-anchor="start" x="209" y="-102.5" font-family="Helvetica,sans-Serif" font-size="10.00">saveDeferred(CacheItemInterface</text>
<text text-anchor="start" x="209" y="-91.25" font-family="Helvetica,sans-Serif" font-size="10.00"> $item)</text>
<text text-anchor="start" x="199" y="-76.5" font-family="Helvetica,sans-Serif" font-size="10.00">+</text>
<text text-anchor="start" x="209" y="-76.5" font-family="Helvetica,sans-Serif" font-size="10.00">getItems(array $keys=[])</text>
<text text-anchor="start" x="199" y="-61.5" font-family="Helvetica,sans-Serif" font-size="10.00">+</text>
<text text-anchor="start" x="209" y="-61.5" font-family="Helvetica,sans-Serif" font-size="10.00">clear(string $prefix=&#39;&#39;)</text>
<text text-anchor="start" x="199" y="-46.5" font-family="Helvetica,sans-Serif" font-size="10.00">+</text>
<text text-anchor="start" x="209" y="-46.5" font-family="Helvetica,sans-Serif" font-size="10.00">deleteItems(array</text>
<text text-anchor="start" x="209" y="-35.25" font-family="Helvetica,sans-Serif" font-size="10.00"> $keys)</text>
<text text-anchor="start" x="209" y="-20.5" font-family="Helvetica,sans-Serif" font-size="10.00">et 6 de plus...</text>
<text text-anchor="start" x="199.38" y="-5.5" font-family="Helvetica,sans-Serif" font-size="10.00">#</text>
<text text-anchor="start" x="209" y="-5.5" font-family="Helvetica,sans-Serif" font-size="10.00">start(string $name)</text>
<polygon fill="#666666" stroke="#666666" points="195,-263 195,-263 360,-263 360,-263 195,-263"/>
<polygon fill="#666666" stroke="#666666" points="195,-248 195,-248 207,-248 207,-248 195,-248"/>
<polygon fill="#666666" stroke="#666666" points="207,-248 207,-248 360,-248 360,-248 207,-248"/>
<polygon fill="none" stroke="#666666" points="195,0 195,-280 360,-280 360,0 195,0"/>
</a>
</g>
</g>
<!-- Node2 -->
<g id="Node000002" class="node">
<title>Node2</title>
<g id="a_Node000002"><a xlink:href="$interface_symfony_1_1_component_1_1_cache_1_1_adapter_1_1_adapter_interface.html" xlink:title=" ">
<polygon fill="white" stroke="none" points="145,-454.5 20,-454.5 20,-375.5 145,-375.5 145,-454.5"/>
<text text-anchor="start" x="46.5" y="-441" font-family="Helvetica,sans-Serif" font-size="10.00">AdapterInterface</text>
<text text-anchor="start" x="81" y="-426" font-family="Helvetica,sans-Serif" font-size="10.00"> </text>
<text text-anchor="start" x="24" y="-411" font-family="Helvetica,sans-Serif" font-size="10.00">+</text>
<text text-anchor="start" x="34" y="-411" font-family="Helvetica,sans-Serif" font-size="10.00">getItem($key)</text>
<text text-anchor="start" x="24" y="-396" font-family="Helvetica,sans-Serif" font-size="10.00">+</text>
<text text-anchor="start" x="34" y="-396" font-family="Helvetica,sans-Serif" font-size="10.00">getItems(array $keys=[])</text>
<text text-anchor="start" x="24" y="-381" font-family="Helvetica,sans-Serif" font-size="10.00">+</text>
<text text-anchor="start" x="34" y="-381" font-family="Helvetica,sans-Serif" font-size="10.00">clear(string $prefix=&#39;&#39;)</text>
<polygon fill="#666666" stroke="#666666" points="20,-437.5 20,-437.5 145,-437.5 145,-437.5 20,-437.5"/>
<polygon fill="#666666" stroke="#666666" points="20,-422.5 20,-422.5 145,-422.5 145,-422.5 20,-422.5"/>
<polygon fill="none" stroke="#666666" points="20,-375.5 20,-454.5 145,-454.5 145,-375.5 20,-375.5"/>
</a>
</g>
</g>
<!-- Node2&#45;&gt;Node1 -->
<g id="edge13_Node000001_Node000002" class="edge">
<title>Node2&#45;&gt;Node1</title>
<g id="a_edge13_Node000001_Node000002"><a xlink:title=" ">
<path fill="none" stroke="#63b8ff" d="M116.33,-366.64C138.13,-336.12 167.47,-295.04 195.14,-256.3"/>
<polygon fill="none" stroke="#63b8ff" points="113.66,-364.35 110.7,-374.52 119.36,-368.42 113.66,-364.35"/>
</a>
</g>
</g>
<!-- Node3 -->
<g id="Node000003" class="node">
<title>Node3</title>
<g id="a_Node000003"><a xlink:href="$interface_psr_1_1_cache_1_1_cache_item_pool_interface.html" xlink:title=" ">
<polygon fill="white" stroke="none" points="165,-763 0,-763 0,-550 165,-550 165,-763"/>
<text text-anchor="start" x="29.62" y="-749.5" font-family="Helvetica,sans-Serif" font-size="10.00">CacheItemPoolInterface</text>
<text text-anchor="start" x="81" y="-734.5" font-family="Helvetica,sans-Serif" font-size="10.00"> </text>
<text text-anchor="start" x="4" y="-719.5" font-family="Helvetica,sans-Serif" font-size="10.00">+</text>
<text text-anchor="start" x="14" y="-719.5" font-family="Helvetica,sans-Serif" font-size="10.00">getItem($key)</text>
<text text-anchor="start" x="4" y="-704.5" font-family="Helvetica,sans-Serif" font-size="10.00">+</text>
<text text-anchor="start" x="14" y="-704.5" font-family="Helvetica,sans-Serif" font-size="10.00">getItems(array $keys</text>
<text text-anchor="start" x="14" y="-693.25" font-family="Helvetica,sans-Serif" font-size="10.00">=array())</text>
<text text-anchor="start" x="4" y="-678.5" font-family="Helvetica,sans-Serif" font-size="10.00">+</text>
<text text-anchor="start" x="14" y="-678.5" font-family="Helvetica,sans-Serif" font-size="10.00">hasItem($key)</text>
<text text-anchor="start" x="4" y="-663.5" font-family="Helvetica,sans-Serif" font-size="10.00">+</text>
<text text-anchor="start" x="14" y="-663.5" font-family="Helvetica,sans-Serif" font-size="10.00">clear()</text>
<text text-anchor="start" x="4" y="-648.5" font-family="Helvetica,sans-Serif" font-size="10.00">+</text>
<text text-anchor="start" x="14" y="-648.5" font-family="Helvetica,sans-Serif" font-size="10.00">deleteItem($key)</text>
<text text-anchor="start" x="4" y="-633.5" font-family="Helvetica,sans-Serif" font-size="10.00">+</text>
<text text-anchor="start" x="14" y="-633.5" font-family="Helvetica,sans-Serif" font-size="10.00">deleteItems(array</text>
<text text-anchor="start" x="14" y="-622.25" font-family="Helvetica,sans-Serif" font-size="10.00"> $keys)</text>
<text text-anchor="start" x="4" y="-607.5" font-family="Helvetica,sans-Serif" font-size="10.00">+</text>
<text text-anchor="start" x="14" y="-607.5" font-family="Helvetica,sans-Serif" font-size="10.00">save(CacheItemInterface</text>
<text text-anchor="start" x="14" y="-596.25" font-family="Helvetica,sans-Serif" font-size="10.00"> $item)</text>
<text text-anchor="start" x="4" y="-581.5" font-family="Helvetica,sans-Serif" font-size="10.00">+</text>
<text text-anchor="start" x="14" y="-581.5" font-family="Helvetica,sans-Serif" font-size="10.00">saveDeferred(CacheItemInterface</text>
<text text-anchor="start" x="14" y="-570.25" font-family="Helvetica,sans-Serif" font-size="10.00"> $item)</text>
<text text-anchor="start" x="4" y="-555.5" font-family="Helvetica,sans-Serif" font-size="10.00">+</text>
<text text-anchor="start" x="14" y="-555.5" font-family="Helvetica,sans-Serif" font-size="10.00">commit()</text>
<polygon fill="#666666" stroke="#666666" points="0,-746 0,-746 165,-746 165,-746 0,-746"/>
<polygon fill="#666666" stroke="#666666" points="0,-731 0,-731 165,-731 165,-731 0,-731"/>
<polygon fill="none" stroke="#666666" points="0,-550 0,-763 165,-763 165,-550 0,-550"/>
</a>
</g>
</g>
<!-- Node3&#45;&gt;Node2 -->
<g id="edge14_Node000002_Node000003" class="edge">
<title>Node3&#45;&gt;Node2</title>
<g id="a_edge14_Node000002_Node000003"><a xlink:title=" ">
<path fill="none" stroke="#63b8ff" d="M82.5,-538.86C82.5,-508.27 82.5,-477.41 82.5,-454.27"/>
<polygon fill="none" stroke="#63b8ff" points="79,-538.59 82.5,-548.59 86,-538.59 79,-538.59"/>
</a>
</g>
</g>
<!-- Node4 -->
<g id="Node000004" class="node">
<title>Node4</title>
<g id="a_Node000004"><a xlink:href="$interface_psr_1_1_simple_cache_1_1_cache_interface.html" xlink:title=" ">
<polygon fill="white" stroke="none" points="273.5,-514 163.5,-514 163.5,-316 273.5,-316 273.5,-514"/>
<text text-anchor="start" x="185.12" y="-500.5" font-family="Helvetica,sans-Serif" font-size="10.00">CacheInterface</text>
<text text-anchor="start" x="217" y="-485.5" font-family="Helvetica,sans-Serif" font-size="10.00"> </text>
<text text-anchor="start" x="167.5" y="-470.5" font-family="Helvetica,sans-Serif" font-size="10.00">+</text>
<text text-anchor="start" x="177.5" y="-470.5" font-family="Helvetica,sans-Serif" font-size="10.00">get($key, $default</text>
<text text-anchor="start" x="177.5" y="-459.25" font-family="Helvetica,sans-Serif" font-size="10.00">=null)</text>
<text text-anchor="start" x="167.5" y="-444.5" font-family="Helvetica,sans-Serif" font-size="10.00">+</text>
<text text-anchor="start" x="177.5" y="-444.5" font-family="Helvetica,sans-Serif" font-size="10.00">set($key, $value,</text>
<text text-anchor="start" x="177.5" y="-433.25" font-family="Helvetica,sans-Serif" font-size="10.00"> $ttl=null)</text>
<text text-anchor="start" x="167.5" y="-418.5" font-family="Helvetica,sans-Serif" font-size="10.00">+</text>
<text text-anchor="start" x="177.5" y="-418.5" font-family="Helvetica,sans-Serif" font-size="10.00">delete($key)</text>
<text text-anchor="start" x="167.5" y="-403.5" font-family="Helvetica,sans-Serif" font-size="10.00">+</text>
<text text-anchor="start" x="177.5" y="-403.5" font-family="Helvetica,sans-Serif" font-size="10.00">clear()</text>
<text text-anchor="start" x="167.5" y="-388.5" font-family="Helvetica,sans-Serif" font-size="10.00">+</text>
<text text-anchor="start" x="177.5" y="-388.5" font-family="Helvetica,sans-Serif" font-size="10.00">getMultiple($keys,</text>
<text text-anchor="start" x="177.5" y="-377.25" font-family="Helvetica,sans-Serif" font-size="10.00"> $default=null)</text>
<text text-anchor="start" x="167.5" y="-362.5" font-family="Helvetica,sans-Serif" font-size="10.00">+</text>
<text text-anchor="start" x="177.5" y="-362.5" font-family="Helvetica,sans-Serif" font-size="10.00">setMultiple($values,</text>
<text text-anchor="start" x="177.5" y="-351.25" font-family="Helvetica,sans-Serif" font-size="10.00"> $ttl=null)</text>
<text text-anchor="start" x="167.5" y="-336.5" font-family="Helvetica,sans-Serif" font-size="10.00">+</text>
<text text-anchor="start" x="177.5" y="-336.5" font-family="Helvetica,sans-Serif" font-size="10.00">deleteMultiple($keys)</text>
<text text-anchor="start" x="167.5" y="-321.5" font-family="Helvetica,sans-Serif" font-size="10.00">+</text>
<text text-anchor="start" x="177.5" y="-321.5" font-family="Helvetica,sans-Serif" font-size="10.00">has($key)</text>
<polygon fill="#666666" stroke="#666666" points="163.5,-497 163.5,-497 273.5,-497 273.5,-497 163.5,-497"/>
<polygon fill="#666666" stroke="#666666" points="163.5,-482 163.5,-482 273.5,-482 273.5,-482 163.5,-482"/>
<polygon fill="none" stroke="#666666" points="163.5,-316 163.5,-514 273.5,-514 273.5,-316 163.5,-316"/>
</a>
</g>
</g>
<!-- Node4&#45;&gt;Node1 -->
<g id="edge15_Node000001_Node000004" class="edge">
<title>Node4&#45;&gt;Node1</title>
<g id="a_edge15_Node000001_Node000004"><a xlink:title=" ">
<path fill="none" stroke="#63b8ff" d="M242.01,-305.2C243.84,-296.74 245.7,-288.14 247.56,-279.53"/>
<polygon fill="none" stroke="#63b8ff" points="238.64,-304.22 239.95,-314.73 245.49,-305.7 238.64,-304.22"/>
</a>
</g>
</g>
<!-- Node5 -->
<g id="Node000005" class="node">
<title>Node5</title>
<g id="a_Node000005"><a xlink:href="$interface_symfony_1_1_component_1_1_cache_1_1_pruneable_interface.html" xlink:title=" ">
<polygon fill="white" stroke="none" points="383,-439.5 292,-439.5 292,-390.5 383,-390.5 383,-439.5"/>
<text text-anchor="start" x="296.62" y="-426" font-family="Helvetica,sans-Serif" font-size="10.00">PruneableInterface</text>
<text text-anchor="start" x="336" y="-411" font-family="Helvetica,sans-Serif" font-size="10.00"> </text>
<text text-anchor="start" x="306.5" y="-396" font-family="Helvetica,sans-Serif" font-size="10.00">+</text>
<text text-anchor="start" x="327" y="-396" font-family="Helvetica,sans-Serif" font-size="10.00">prune()</text>
<polygon fill="#666666" stroke="#666666" points="292,-422.5 292,-422.5 383,-422.5 383,-422.5 292,-422.5"/>
<polygon fill="#666666" stroke="#666666" points="292,-407.5 292,-407.5 383,-407.5 383,-407.5 292,-407.5"/>
<polygon fill="none" stroke="#666666" points="292,-390.5 292,-439.5 383,-439.5 383,-390.5 292,-390.5"/>
</a>
</g>
</g>
<!-- Node5&#45;&gt;Node1 -->
<g id="edge16_Node000001_Node000005" class="edge">
<title>Node5&#45;&gt;Node1</title>
<g id="a_edge16_Node000001_Node000005"><a xlink:title=" ">
<path fill="none" stroke="#63b8ff" d="M329.97,-379.75C324.32,-354.05 316.18,-317.01 307.99,-279.75"/>
<polygon fill="none" stroke="#63b8ff" points="326.49,-380.23 332.06,-389.25 333.33,-378.73 326.49,-380.23"/>
</a>
</g>
</g>
<!-- Node6 -->
<g id="Node000006" class="node">
<title>Node6</title>
<g id="a_Node000006"><a xlink:href="$interface_symfony_1_1_component_1_1_cache_1_1_resettable_interface.html" xlink:title=" ">
<polygon fill="white" stroke="none" points="496,-439.5 401,-439.5 401,-390.5 496,-390.5 496,-439.5"/>
<text text-anchor="start" x="405.75" y="-426" font-family="Helvetica,sans-Serif" font-size="10.00">ResettableInterface</text>
<text text-anchor="start" x="447" y="-411" font-family="Helvetica,sans-Serif" font-size="10.00"> </text>
<text text-anchor="start" x="447" y="-396" font-family="Helvetica,sans-Serif" font-size="10.00"> </text>
<polygon fill="#666666" stroke="#666666" points="401,-422.5 401,-422.5 496,-422.5 496,-422.5 401,-422.5"/>
<polygon fill="#666666" stroke="#666666" points="401,-407.5 401,-407.5 496,-407.5 496,-407.5 401,-407.5"/>
<polygon fill="none" stroke="#666666" points="401,-390.5 401,-439.5 496,-439.5 496,-390.5 401,-390.5"/>
</a>
</g>
</g>
<!-- Node6&#45;&gt;Node1 -->
<g id="edge17_Node000001_Node000006" class="edge">
<title>Node6&#45;&gt;Node1</title>
<g id="a_edge17_Node000001_Node000006"><a xlink:title=" ">
<path fill="none" stroke="#63b8ff" d="M430.19,-380.77C419.49,-361.65 405.56,-337.28 392.5,-316 382.14,-299.11 370.98,-281.48 359.83,-264.19"/>
<polygon fill="none" stroke="#63b8ff" points="427.11,-382.44 435.04,-389.47 433.23,-379.03 427.11,-382.44"/>
</a>
</g>
</g>
<!-- Node7 -->
<g id="Node000007" class="node">
<title>Node7</title>
<g id="a_Node000007"><a xlink:href="$interface_symfony_1_1_contracts_1_1_service_1_1_reset_interface.html" xlink:title=" ">
<polygon fill="white" stroke="none" points="485.5,-681 411.5,-681 411.5,-632 485.5,-632 485.5,-681"/>
<text text-anchor="start" x="416.25" y="-667.5" font-family="Helvetica,sans-Serif" font-size="10.00">ResetInterface</text>
<text text-anchor="start" x="447" y="-652.5" font-family="Helvetica,sans-Serif" font-size="10.00"> </text>
<text text-anchor="start" x="422.5" y="-637.5" font-family="Helvetica,sans-Serif" font-size="10.00">+</text>
<text text-anchor="start" x="439.5" y="-637.5" font-family="Helvetica,sans-Serif" font-size="10.00">reset()</text>
<polygon fill="#666666" stroke="#666666" points="411.5,-664 411.5,-664 485.5,-664 485.5,-664 411.5,-664"/>
<polygon fill="#666666" stroke="#666666" points="411.5,-649 411.5,-649 485.5,-649 485.5,-649 411.5,-649"/>
<polygon fill="none" stroke="#666666" points="411.5,-632 411.5,-681 485.5,-681 485.5,-632 411.5,-632"/>
</a>
</g>
</g>
<!-- Node7&#45;&gt;Node6 -->
<g id="edge18_Node000006_Node000007" class="edge">
<title>Node7&#45;&gt;Node6</title>
<g id="a_edge18_Node000006_Node000007"><a xlink:title=" ">
<path fill="none" stroke="#63b8ff" d="M448.5,-620.73C448.5,-571.25 448.5,-481.86 448.5,-439.5"/>
<polygon fill="none" stroke="#63b8ff" points="445,-620.59 448.5,-630.59 452,-620.59 445,-620.59"/>
</a>
</g>
</g>
</g>
</svg>
