<?xml version="1.0" encoding="UTF-8" standalone="no"?>
<!DOCTYPE svg PUBLIC "-//W3C//DTD SVG 1.1//EN"
 "http://www.w3.org/Graphics/SVG/1.1/DTD/svg11.dtd">
<!-- Generated by graphviz version 10.0.1 (20240210.2158)
 -->
<!-- Title: getCriteria Pages: 1 -->
<svg width="848pt" height="386pt"
 viewBox="0.00 0.00 848.00 386.42" xmlns="http://www.w3.org/2000/svg" xmlns:xlink="http://www.w3.org/1999/xlink">
<g id="graph0" class="graph" transform="scale(1 1) rotate(0) translate(4 382.42)">
<title>getCriteria</title>
<!-- Node1 -->
<g id="Node000001" class="node">
<title>Node1</title>
<g id="a_Node000001"><a xlink:title=" ">
<polygon fill="#999999" stroke="#666666" points="840,-196.88 779,-196.88 779,-177.62 840,-177.62 840,-196.88"/>
<text text-anchor="middle" x="809.5" y="-183.38" font-family="Helvetica,sans-Serif" font-size="10.00">getCriteria</text>
</a>
</g>
</g>
<!-- Node2 -->
<g id="Node000002" class="node">
<title>Node2</title>
<g id="a_Node000002"><a xlink:href="$class_rule.html#a7114006cb1a1ea6571c9f0b199d7e270" xlink:title=" ">
<polygon fill="white" stroke="#666666" points="438,-326.88 359,-326.88 359,-307.62 438,-307.62 438,-326.88"/>
<text text-anchor="middle" x="398.5" y="-313.38" font-family="Helvetica,sans-Serif" font-size="10.00">checkCriterias</text>
</a>
</g>
</g>
<!-- Node1&#45;&gt;Node2 -->
<g id="edge37_Node000001_Node000002" class="edge">
<title>Node1&#45;&gt;Node2</title>
<g id="a_edge37_Node000001_Node000002"><a xlink:title=" ">
<path fill="none" stroke="#63b8ff" d="M802.81,-208.11C794.47,-234.25 776.17,-278.07 743,-298.25 646.81,-356.76 506.04,-339.41 438.49,-326.19"/>
<polygon fill="#63b8ff" stroke="#63b8ff" points="806.14,-209.22 805.62,-198.63 799.42,-207.23 806.14,-209.22"/>
</a>
</g>
</g>
<!-- Node6 -->
<g id="Node000006" class="node">
<title>Node6</title>
<g id="a_Node000006"><a xlink:href="$class_rule_import_asset.html#aef85238983bec567401f732c8caef50e" xlink:title=" ">
<polygon fill="white" stroke="#666666" points="742.25,-251.5 593.5,-251.5 593.5,-221 742.25,-221 742.25,-251.5"/>
<text text-anchor="start" x="601.5" y="-238" font-family="Helvetica,sans-Serif" font-size="10.00">RuleImportAsset\getAdditional</text>
<text text-anchor="middle" x="667.88" y="-226.75" font-family="Helvetica,sans-Serif" font-size="10.00">CriteriaDisplayPattern</text>
</a>
</g>
</g>
<!-- Node1&#45;&gt;Node6 -->
<g id="edge41_Node000001_Node000006" class="edge">
<title>Node1&#45;&gt;Node6</title>
<g id="a_edge41_Node000001_Node000006"><a xlink:title=" ">
<path fill="none" stroke="#63b8ff" d="M770.78,-201.26C761.7,-204.58 752.02,-208.08 743,-211.25 734.29,-214.31 724.97,-217.52 715.99,-220.56"/>
<polygon fill="#63b8ff" stroke="#63b8ff" points="771.87,-204.59 780.05,-197.86 769.45,-198.02 771.87,-204.59"/>
</a>
</g>
</g>
<!-- Node7 -->
<g id="Node000007" class="node">
<title>Node7</title>
<g id="a_Node000007"><a xlink:href="$class_rule_import_entity.html#aef85238983bec567401f732c8caef50e" xlink:title=" ">
<polygon fill="white" stroke="#666666" points="742.25,-202.5 593.5,-202.5 593.5,-172 742.25,-172 742.25,-202.5"/>
<text text-anchor="start" x="601.5" y="-189" font-family="Helvetica,sans-Serif" font-size="10.00">RuleImportEntity\getAdditional</text>
<text text-anchor="middle" x="667.88" y="-177.75" font-family="Helvetica,sans-Serif" font-size="10.00">CriteriaDisplayPattern</text>
</a>
</g>
</g>
<!-- Node1&#45;&gt;Node7 -->
<g id="edge42_Node000001_Node000007" class="edge">
<title>Node1&#45;&gt;Node7</title>
<g id="a_edge42_Node000001_Node000007"><a xlink:title=" ">
<path fill="none" stroke="#63b8ff" d="M767.24,-187.25C759.46,-187.25 751.1,-187.25 742.67,-187.25"/>
<polygon fill="#63b8ff" stroke="#63b8ff" points="767.03,-190.75 777.03,-187.25 767.03,-183.75 767.03,-190.75"/>
</a>
</g>
</g>
<!-- Node8 -->
<g id="Node000008" class="node">
<title>Node8</title>
<g id="a_Node000008"><a xlink:href="$class_rule_right.html#aef85238983bec567401f732c8caef50e" xlink:title=" ">
<polygon fill="white" stroke="#666666" points="743,-153.5 592.75,-153.5 592.75,-123 743,-123 743,-153.5"/>
<text text-anchor="start" x="600.75" y="-140" font-family="Helvetica,sans-Serif" font-size="10.00">RuleRight\getAdditionalCriteria</text>
<text text-anchor="middle" x="667.88" y="-128.75" font-family="Helvetica,sans-Serif" font-size="10.00">DisplayPattern</text>
</a>
</g>
</g>
<!-- Node1&#45;&gt;Node8 -->
<g id="edge43_Node000001_Node000008" class="edge">
<title>Node1&#45;&gt;Node8</title>
<g id="a_edge43_Node000001_Node000008"><a xlink:title=" ">
<path fill="none" stroke="#63b8ff" d="M770.78,-173.24C761.7,-169.92 752.02,-166.42 743,-163.25 734.29,-160.19 724.97,-156.98 715.99,-153.94"/>
<polygon fill="#63b8ff" stroke="#63b8ff" points="769.45,-176.48 780.05,-176.64 771.87,-169.91 769.45,-176.48"/>
</a>
</g>
</g>
<!-- Node9 -->
<g id="Node000009" class="node">
<title>Node9</title>
<g id="a_Node000009"><a xlink:href="$class_rule.html#a8d0b2a45b5d339cf41ac0fcc60f19505" xlink:title=" ">
<polygon fill="white" stroke="#666666" points="730.62,-104.88 605.12,-104.88 605.12,-85.62 730.62,-85.62 730.62,-104.88"/>
<text text-anchor="middle" x="667.88" y="-91.38" font-family="Helvetica,sans-Serif" font-size="10.00">getCriteriaDisplayPattern</text>
</a>
</g>
</g>
<!-- Node1&#45;&gt;Node9 -->
<g id="edge44_Node000001_Node000009" class="edge">
<title>Node1&#45;&gt;Node9</title>
<g id="a_edge44_Node000001_Node000009"><a xlink:title=" ">
<path fill="none" stroke="#63b8ff" d="M796.09,-167.93C784.37,-151.26 765.3,-127.78 743,-114.25 736.98,-110.6 730.28,-107.64 723.43,-105.26"/>
<polygon fill="#63b8ff" stroke="#63b8ff" points="793.06,-169.7 801.55,-176.03 798.86,-165.79 793.06,-169.7"/>
</a>
</g>
</g>
<!-- Node10 -->
<g id="Node000010" class="node">
<title>Node10</title>
<g id="a_Node000010"><a xlink:href="$class_rule.html#a4be383f463745153974b0adf3d13a76a" xlink:title=" ">
<polygon fill="white" stroke="#666666" points="711.5,-67.88 624.25,-67.88 624.25,-48.62 711.5,-48.62 711.5,-67.88"/>
<text text-anchor="middle" x="667.88" y="-54.38" font-family="Helvetica,sans-Serif" font-size="10.00">getCriteriaName</text>
</a>
</g>
</g>
<!-- Node1&#45;&gt;Node10 -->
<g id="edge45_Node000001_Node000010" class="edge">
<title>Node1&#45;&gt;Node10</title>
<g id="a_edge45_Node000001_Node000010"><a xlink:title=" ">
<path fill="none" stroke="#63b8ff" d="M801.92,-166.55C792.81,-141.3 773.88,-99.14 743,-76.25 733.96,-69.55 722.75,-65.31 711.81,-62.64"/>
<polygon fill="#63b8ff" stroke="#63b8ff" points="798.5,-167.36 805.04,-175.7 805.13,-165.11 798.5,-167.36"/>
</a>
</g>
</g>
<!-- Node11 -->
<g id="Node000011" class="node">
<title>Node11</title>
<g id="a_Node000011"><a xlink:href="$class_rule.html#a1a260128b270724d860fd65ae211e445" xlink:title=" ">
<polygon fill="white" stroke="#666666" points="710.38,-288.88 625.38,-288.88 625.38,-269.62 710.38,-269.62 710.38,-288.88"/>
<text text-anchor="middle" x="667.88" y="-275.38" font-family="Helvetica,sans-Serif" font-size="10.00">getCriteriaValue</text>
</a>
</g>
</g>
<!-- Node1&#45;&gt;Node11 -->
<g id="edge46_Node000001_Node000011" class="edge">
<title>Node1&#45;&gt;Node11</title>
<g id="a_edge46_Node000001_Node000011"><a xlink:title=" ">
<path fill="none" stroke="#63b8ff" d="M796.09,-206.57C784.37,-223.24 765.3,-246.72 743,-260.25 733.23,-266.18 721.66,-270.26 710.6,-273.08"/>
<polygon fill="#63b8ff" stroke="#63b8ff" points="798.86,-208.71 801.55,-198.47 793.06,-204.8 798.86,-208.71"/>
</a>
</g>
</g>
<!-- Node14 -->
<g id="Node000014" class="node">
<title>Node14</title>
<g id="a_Node000014"><a xlink:href="$class_rule_import_asset.html#a613d231ca935f10cec857366d5620ecd" xlink:title=" ">
<polygon fill="white" stroke="#666666" points="740.75,-30.5 595,-30.5 595,0 740.75,0 740.75,-30.5"/>
<text text-anchor="start" x="603" y="-17" font-family="Helvetica,sans-Serif" font-size="10.00">RuleImportAsset\preCompute</text>
<text text-anchor="middle" x="667.88" y="-5.75" font-family="Helvetica,sans-Serif" font-size="10.00">Criteria</text>
</a>
</g>
</g>
<!-- Node1&#45;&gt;Node14 -->
<g id="edge51_Node000001_Node000014" class="edge">
<title>Node1&#45;&gt;Node14</title>
<g id="a_edge51_Node000001_Node000014"><a xlink:title=" ">
<path fill="none" stroke="#63b8ff" d="M804.85,-166.27C798.2,-134.34 781.14,-73.63 743,-39.25 739.48,-36.08 735.54,-33.33 731.36,-30.94"/>
<polygon fill="#63b8ff" stroke="#63b8ff" points="801.36,-166.69 806.68,-175.85 808.24,-165.37 801.36,-166.69"/>
</a>
</g>
</g>
<!-- Node15 -->
<g id="Node000015" class="node">
<title>Node15</title>
<g id="a_Node000015"><a xlink:href="$class_rule.html#a52f96b3cf9be8502ab6d76a178981918" xlink:title=" ">
<polygon fill="white" stroke="#666666" points="447,-363.88 350,-363.88 350,-344.62 447,-344.62 447,-363.88"/>
<text text-anchor="middle" x="398.5" y="-350.38" font-family="Helvetica,sans-Serif" font-size="10.00">updateOnlyCriteria</text>
</a>
</g>
</g>
<!-- Node1&#45;&gt;Node15 -->
<g id="edge52_Node000001_Node000015" class="edge">
<title>Node1&#45;&gt;Node15</title>
<g id="a_edge52_Node000001_Node000015"><a xlink:title=" ">
<path fill="none" stroke="#63b8ff" d="M805.89,-208.27C800.56,-241.17 785.14,-304.1 743,-333.25 651.11,-396.8 510.18,-378.71 440.88,-364.35"/>
<polygon fill="#63b8ff" stroke="#63b8ff" points="809.29,-209.15 807.25,-198.76 802.37,-208.16 809.29,-209.15"/>
</a>
</g>
</g>
<!-- Node3 -->
<g id="Node000003" class="node">
<title>Node3</title>
<g id="a_Node000003"><a xlink:href="$class_rule.html#ae18b52044cf1a1ed8d485ad430efeedf" xlink:title=" ">
<polygon fill="white" stroke="#666666" points="275.75,-326.88 225.25,-326.88 225.25,-307.62 275.75,-307.62 275.75,-326.88"/>
<text text-anchor="middle" x="250.5" y="-313.38" font-family="Helvetica,sans-Serif" font-size="10.00">process</text>
</a>
</g>
</g>
<!-- Node2&#45;&gt;Node3 -->
<g id="edge38_Node000002_Node000003" class="edge">
<title>Node2&#45;&gt;Node3</title>
<g id="a_edge38_Node000002_Node000003"><a xlink:title=" ">
<path fill="none" stroke="#63b8ff" d="M347.31,-317.25C323.29,-317.25 295.6,-317.25 276.18,-317.25"/>
<polygon fill="#63b8ff" stroke="#63b8ff" points="347.24,-320.75 357.24,-317.25 347.24,-313.75 347.24,-320.75"/>
</a>
</g>
</g>
<!-- Node5 -->
<g id="Node000005" class="node">
<title>Node5</title>
<g id="a_Node000005"><a xlink:href="$class_rule_import_entity.html#ae18b52044cf1a1ed8d485ad430efeedf" xlink:title=" ">
<polygon fill="white" stroke="#666666" points="314,-363.88 187,-363.88 187,-344.62 314,-344.62 314,-363.88"/>
<text text-anchor="middle" x="250.5" y="-350.38" font-family="Helvetica,sans-Serif" font-size="10.00">RuleImportEntity\process</text>
</a>
</g>
</g>
<!-- Node2&#45;&gt;Node5 -->
<g id="edge40_Node000002_Node000005" class="edge">
<title>Node2&#45;&gt;Node5</title>
<g id="a_edge40_Node000002_Node000005"><a xlink:title=" ">
<path fill="none" stroke="#63b8ff" d="M347.67,-329.88C329.32,-334.53 308.8,-339.73 291.44,-344.13"/>
<polygon fill="#63b8ff" stroke="#63b8ff" points="348.46,-333.29 357.29,-327.44 346.74,-326.5 348.46,-333.29"/>
</a>
</g>
</g>
<!-- Node4 -->
<g id="Node000004" class="node">
<title>Node4</title>
<g id="a_Node000004"><a xlink:href="$class_rule.html#a09919e8ef47b2e296c4f8fafb93f565b" xlink:title=" ">
<polygon fill="white" stroke="#666666" points="151,-307.88 0,-307.88 0,-288.62 151,-288.62 151,-307.88"/>
<text text-anchor="middle" x="75.5" y="-294.38" font-family="Helvetica,sans-Serif" font-size="10.00">showRulePreviewResultsForm</text>
</a>
</g>
</g>
<!-- Node3&#45;&gt;Node4 -->
<g id="edge39_Node000003_Node000004" class="edge">
<title>Node3&#45;&gt;Node4</title>
<g id="a_edge39_Node000003_Node000004"><a xlink:title=" ">
<path fill="none" stroke="#63b8ff" d="M213.64,-313.31C195.58,-311.33 172.96,-308.84 151.33,-306.47"/>
<polygon fill="#63b8ff" stroke="#63b8ff" points="213.25,-316.79 223.58,-314.4 214.02,-309.83 213.25,-316.79"/>
</a>
</g>
</g>
<!-- Node12 -->
<g id="Node000012" class="node">
<title>Node12</title>
<g id="a_Node000012"><a xlink:href="$class_rule.html#aff74987633d3452e001da9179c987e37" xlink:title=" ">
<polygon fill="white" stroke="#666666" points="556.75,-288.88 483,-288.88 483,-269.62 556.75,-269.62 556.75,-288.88"/>
<text text-anchor="middle" x="519.88" y="-275.38" font-family="Helvetica,sans-Serif" font-size="10.00">checkCriteria</text>
</a>
</g>
</g>
<!-- Node11&#45;&gt;Node12 -->
<g id="edge47_Node000011_Node000012" class="edge">
<title>Node11&#45;&gt;Node12</title>
<g id="a_edge47_Node000011_Node000012"><a xlink:title=" ">
<path fill="none" stroke="#63b8ff" d="M613.57,-279.25C594.67,-279.25 573.88,-279.25 556.78,-279.25"/>
<polygon fill="#63b8ff" stroke="#63b8ff" points="613.52,-282.75 623.52,-279.25 613.52,-275.75 613.52,-282.75"/>
</a>
</g>
</g>
<!-- Node12&#45;&gt;Node2 -->
<g id="edge48_Node000012_Node000002" class="edge">
<title>Node12&#45;&gt;Node2</title>
<g id="a_edge48_Node000012_Node000002"><a xlink:title=" ">
<path fill="none" stroke="#63b8ff" d="M476.59,-292.71C461.55,-297.5 444.88,-302.8 430.91,-307.25"/>
<polygon fill="#63b8ff" stroke="#63b8ff" points="477.29,-296.16 485.76,-289.79 475.17,-289.49 477.29,-296.16"/>
</a>
</g>
</g>
<!-- Node13 -->
<g id="Node000013" class="node">
<title>Node13</title>
<g id="a_Node000013"><a xlink:href="$class_rule.html#a0e4d05393f904b66c7efcda9ea069913" xlink:title=" ">
<polygon fill="white" stroke="#666666" points="285.12,-289.88 215.88,-289.88 215.88,-270.62 285.12,-270.62 285.12,-289.88"/>
<text text-anchor="middle" x="250.5" y="-276.38" font-family="Helvetica,sans-Serif" font-size="10.00">testCriterias</text>
</a>
</g>
</g>
<!-- Node12&#45;&gt;Node13 -->
<g id="edge49_Node000012_Node000013" class="edge">
<title>Node12&#45;&gt;Node13</title>
<g id="a_edge49_Node000012_Node000013"><a xlink:title=" ">
<path fill="none" stroke="#63b8ff" d="M471.31,-279.43C417.8,-279.63 332.27,-279.95 285.23,-280.12"/>
<polygon fill="#63b8ff" stroke="#63b8ff" points="471.04,-282.93 481.02,-279.39 471.01,-275.93 471.04,-282.93"/>
</a>
</g>
</g>
<!-- Node13&#45;&gt;Node4 -->
<g id="edge50_Node000013_Node000004" class="edge">
<title>Node13&#45;&gt;Node4</title>
<g id="a_edge50_Node000013_Node000004"><a xlink:title=" ">
<path fill="none" stroke="#63b8ff" d="M204.42,-284.94C188.19,-286.63 169.43,-288.58 151.35,-290.46"/>
<polygon fill="#63b8ff" stroke="#63b8ff" points="204.64,-288.44 214.23,-283.92 203.92,-281.47 204.64,-288.44"/>
</a>
</g>
</g>
<!-- Node15&#45;&gt;Node3 -->
<g id="edge53_Node000015_Node000003" class="edge">
<title>Node15&#45;&gt;Node3</title>
<g id="a_edge53_Node000015_Node000003"><a xlink:title=" ">
<path fill="none" stroke="#63b8ff" d="M346.59,-341.35C322.75,-335.31 295.44,-328.39 276.23,-323.52"/>
<polygon fill="#63b8ff" stroke="#63b8ff" points="345.58,-344.7 356.14,-343.77 347.3,-337.92 345.58,-344.7"/>
</a>
</g>
</g>
<!-- Node15&#45;&gt;Node5 -->
<g id="edge54_Node000015_Node000005" class="edge">
<title>Node15&#45;&gt;Node5</title>
<g id="a_edge54_Node000015_Node000005"><a xlink:title=" ">
<path fill="none" stroke="#63b8ff" d="M338.31,-354.25C330.4,-354.25 322.26,-354.25 314.29,-354.25"/>
<polygon fill="#63b8ff" stroke="#63b8ff" points="338.18,-357.75 348.18,-354.25 338.18,-350.75 338.18,-357.75"/>
</a>
</g>
</g>
</g>
</svg>
