<?xml version="1.0" encoding="UTF-8" standalone="no"?>
<!DOCTYPE svg PUBLIC "-//W3C//DTD SVG 1.1//EN"
 "http://www.w3.org/Graphics/SVG/1.1/DTD/svg11.dtd">
<!-- Generated by graphviz version 10.0.1 (20240210.2158)
 -->
<!-- Title: quoteName Pages: 1 -->
<svg width="526pt" height="159pt"
 viewBox="0.00 0.00 525.75 159.25" xmlns="http://www.w3.org/2000/svg" xmlns:xlink="http://www.w3.org/1999/xlink">
<g id="graph0" class="graph" transform="scale(1 1) rotate(0) translate(4 155.25)">
<title>quoteName</title>
<!-- Node1 -->
<g id="Node000001" class="node">
<title>Node1</title>
<g id="a_Node000001"><a xlink:title=" ">
<polygon fill="#999999" stroke="#666666" points="517.75,-74.25 451.5,-74.25 451.5,-55 517.75,-55 517.75,-74.25"/>
<text text-anchor="middle" x="484.62" y="-60.75" font-family="Helvetica,sans-Serif" font-size="10.00">quoteName</text>
</a>
</g>
</g>
<!-- Node2 -->
<g id="Node000002" class="node">
<title>Node2</title>
<g id="a_Node000002"><a xlink:href="$class_d_bmysql.html#a4b1a401813cdd11cbee13b63068d6446" xlink:title=" ">
<polygon fill="white" stroke="#666666" points="383.62,-130.25 322.62,-130.25 322.62,-111 383.62,-111 383.62,-130.25"/>
<text text-anchor="middle" x="353.12" y="-116.75" font-family="Helvetica,sans-Serif" font-size="10.00">buildInsert</text>
</a>
</g>
</g>
<!-- Node1&#45;&gt;Node2 -->
<g id="edge21_Node000001_Node000002" class="edge">
<title>Node1&#45;&gt;Node2</title>
<g id="a_edge21_Node000001_Node000002"><a xlink:title=" ">
<path fill="none" stroke="#63b8ff" d="M458.17,-80.61C445.65,-88.01 430.14,-96.49 415.5,-102.62 405.46,-106.83 394.12,-110.46 383.94,-113.33"/>
<polygon fill="#63b8ff" stroke="#63b8ff" points="459.85,-83.69 466.6,-75.52 456.23,-77.69 459.85,-83.69"/>
</a>
</g>
</g>
<!-- Node6 -->
<g id="Node000006" class="node">
<title>Node6</title>
<g id="a_Node000006"><a xlink:href="$class_d_bmysql.html#a9e3a7c7f0032175c3fb6835ff4636229" xlink:title=" ">
<polygon fill="white" stroke="#666666" points="409.88,-93.25 296.38,-93.25 296.38,-74 409.88,-74 409.88,-93.25"/>
<text text-anchor="middle" x="353.12" y="-79.75" font-family="Helvetica,sans-Serif" font-size="10.00">getNonUtf8mb4Tables</text>
</a>
</g>
</g>
<!-- Node1&#45;&gt;Node6 -->
<g id="edge25_Node000001_Node000006" class="edge">
<title>Node1&#45;&gt;Node6</title>
<g id="a_edge25_Node000001_Node000006"><a xlink:title=" ">
<path fill="none" stroke="#63b8ff" d="M440.02,-71.02C430.46,-72.43 420.2,-73.93 410.23,-75.39"/>
<polygon fill="#63b8ff" stroke="#63b8ff" points="440.4,-74.5 449.78,-69.59 439.38,-67.58 440.4,-74.5"/>
</a>
</g>
</g>
<!-- Node8 -->
<g id="Node000008" class="node">
<title>Node8</title>
<g id="a_Node000008"><a xlink:href="$class_d_bmysql.html#ae5b350b4d32d57429586b4f5487ad779" xlink:title=" ">
<polygon fill="white" stroke="#666666" points="413.62,-56.25 292.62,-56.25 292.62,-37 413.62,-37 413.62,-56.25"/>
<text text-anchor="middle" x="353.12" y="-42.75" font-family="Helvetica,sans-Serif" font-size="10.00">getSignedKeysColumns</text>
</a>
</g>
</g>
<!-- Node1&#45;&gt;Node8 -->
<g id="edge27_Node000001_Node000008" class="edge">
<title>Node1&#45;&gt;Node8</title>
<g id="a_edge27_Node000001_Node000008"><a xlink:title=" ">
<path fill="none" stroke="#63b8ff" d="M439.93,-58.55C431.61,-57.39 422.77,-56.17 414.04,-54.95"/>
<polygon fill="#63b8ff" stroke="#63b8ff" points="439.39,-62.01 449.78,-59.92 440.36,-55.08 439.39,-62.01"/>
</a>
</g>
</g>
<!-- Node9 -->
<g id="Node000009" class="node">
<title>Node9</title>
<g id="a_Node000009"><a xlink:href="$class_d_bmysql.html#a3d738d2cdfcd82646037f267bba35ee7" xlink:title=" ">
<polygon fill="white" stroke="#666666" points="415.5,-19.25 290.75,-19.25 290.75,0 415.5,0 415.5,-19.25"/>
<text text-anchor="middle" x="353.12" y="-5.75" font-family="Helvetica,sans-Serif" font-size="10.00">getTzIncompatibleTables</text>
</a>
</g>
</g>
<!-- Node1&#45;&gt;Node9 -->
<g id="edge29_Node000001_Node000009" class="edge">
<title>Node1&#45;&gt;Node9</title>
<g id="a_edge29_Node000001_Node000009"><a xlink:title=" ">
<path fill="none" stroke="#63b8ff" d="M457.87,-48.95C445.38,-41.79 429.98,-33.6 415.5,-27.62 408.42,-24.7 400.69,-22.05 393.19,-19.73"/>
<polygon fill="#63b8ff" stroke="#63b8ff" points="455.88,-51.84 466.28,-53.88 459.42,-45.81 455.88,-51.84"/>
</a>
</g>
</g>
<!-- Node3 -->
<g id="Node000003" class="node">
<title>Node3</title>
<g id="a_Node000003"><a xlink:href="$class_d_bmysql.html#af0f55c34cede5398d84a198ab2a1210d" xlink:title=" ">
<polygon fill="white" stroke="#666666" points="205.62,-151.25 165.62,-151.25 165.62,-132 205.62,-132 205.62,-151.25"/>
<text text-anchor="middle" x="185.62" y="-137.75" font-family="Helvetica,sans-Serif" font-size="10.00">insert</text>
</a>
</g>
</g>
<!-- Node2&#45;&gt;Node3 -->
<g id="edge22_Node000002_Node000003" class="edge">
<title>Node2&#45;&gt;Node3</title>
<g id="a_edge22_Node000002_Node000003"><a xlink:title=" ">
<path fill="none" stroke="#63b8ff" d="M310.87,-125.86C277.37,-130.11 231.63,-135.91 206.02,-139.16"/>
<polygon fill="#63b8ff" stroke="#63b8ff" points="311.17,-129.35 320.65,-124.62 310.29,-122.41 311.17,-129.35"/>
</a>
</g>
</g>
<!-- Node4 -->
<g id="Node000004" class="node">
<title>Node4</title>
<g id="a_Node000004"><a xlink:href="$class_d_bmysql.html#aeeae2dee2723999d0e699bc3655a58b9" xlink:title=" ">
<polygon fill="white" stroke="#666666" points="218.38,-114.25 152.88,-114.25 152.88,-95 218.38,-95 218.38,-114.25"/>
<text text-anchor="middle" x="185.62" y="-100.75" font-family="Helvetica,sans-Serif" font-size="10.00">insertOrDie</text>
</a>
</g>
</g>
<!-- Node2&#45;&gt;Node4 -->
<g id="edge23_Node000002_Node000004" class="edge">
<title>Node2&#45;&gt;Node4</title>
<g id="a_edge23_Node000002_Node000004"><a xlink:title=" ">
<path fill="none" stroke="#63b8ff" d="M310.92,-116.64C282.38,-113.88 244.93,-110.26 218.63,-107.72"/>
<polygon fill="#63b8ff" stroke="#63b8ff" points="310.36,-120.1 320.65,-117.58 311.03,-113.14 310.36,-120.1"/>
</a>
</g>
</g>
<!-- Node5 -->
<g id="Node000005" class="node">
<title>Node5</title>
<g id="a_Node000005"><a xlink:href="$class_d_bmysql.html#aab1d8c0b5873d7e00a6f1db53f26a7f4" xlink:title=" ">
<polygon fill="white" stroke="#666666" points="80.5,-114.25 0,-114.25 0,-95 80.5,-95 80.5,-114.25"/>
<text text-anchor="middle" x="40.25" y="-100.75" font-family="Helvetica,sans-Serif" font-size="10.00">updateOrInsert</text>
</a>
</g>
</g>
<!-- Node4&#45;&gt;Node5 -->
<g id="edge24_Node000004_Node000005" class="edge">
<title>Node4&#45;&gt;Node5</title>
<g id="a_edge24_Node000004_Node000005"><a xlink:title=" ">
<path fill="none" stroke="#63b8ff" d="M141.02,-104.62C121.91,-104.62 99.64,-104.62 81,-104.62"/>
<polygon fill="#63b8ff" stroke="#63b8ff" points="140.94,-108.13 150.94,-104.63 140.94,-101.13 140.94,-108.13"/>
</a>
</g>
</g>
<!-- Node7 -->
<g id="Node000007" class="node">
<title>Node7</title>
<g id="a_Node000007"><a xlink:href="$class_d_bmysql.html#ac641ad6eb38cc89dc40c15c0c52d4f6d" xlink:title=" ">
<polygon fill="white" stroke="#666666" points="254.75,-61.88 116.5,-61.88 116.5,-31.38 254.75,-31.38 254.75,-61.88"/>
<text text-anchor="start" x="124.5" y="-48.38" font-family="Helvetica,sans-Serif" font-size="10.00">getComputedConfigBoolean</text>
<text text-anchor="middle" x="185.62" y="-37.12" font-family="Helvetica,sans-Serif" font-size="10.00">Flags</text>
</a>
</g>
</g>
<!-- Node6&#45;&gt;Node7 -->
<g id="edge26_Node000006_Node000007" class="edge">
<title>Node6&#45;&gt;Node7</title>
<g id="a_edge26_Node000006_Node000007"><a xlink:title=" ">
<path fill="none" stroke="#63b8ff" d="M295.71,-71.01C282.65,-68.09 268.61,-64.95 255.09,-61.93"/>
<polygon fill="#63b8ff" stroke="#63b8ff" points="294.9,-74.42 305.42,-73.18 296.43,-67.59 294.9,-74.42"/>
</a>
</g>
</g>
<!-- Node8&#45;&gt;Node7 -->
<g id="edge28_Node000008_Node000007" class="edge">
<title>Node8&#45;&gt;Node7</title>
<g id="a_edge28_Node000008_Node000007"><a xlink:title=" ">
<path fill="none" stroke="#63b8ff" d="M281.12,-46.62C272.46,-46.62 263.62,-46.62 255,-46.62"/>
<polygon fill="#63b8ff" stroke="#63b8ff" points="280.86,-50.13 290.86,-46.63 280.86,-43.13 280.86,-50.13"/>
</a>
</g>
</g>
<!-- Node9&#45;&gt;Node7 -->
<g id="edge30_Node000009_Node000007" class="edge">
<title>Node9&#45;&gt;Node7</title>
<g id="a_edge30_Node000009_Node000007"><a xlink:title=" ">
<path fill="none" stroke="#63b8ff" d="M295.71,-22.24C282.65,-25.16 268.61,-28.3 255.09,-31.32"/>
<polygon fill="#63b8ff" stroke="#63b8ff" points="296.43,-25.66 305.42,-20.07 294.9,-18.83 296.43,-25.66"/>
</a>
</g>
</g>
</g>
</svg>
