<?xml version="1.0" encoding="UTF-8" standalone="no"?>
<!DOCTYPE svg PUBLIC "-//W3C//DTD SVG 1.1//EN"
 "http://www.w3.org/Graphics/SVG/1.1/DTD/svg11.dtd">
<!-- Generated by graphviz version 10.0.1 (20240210.2158)
 -->
<!-- Title: __TwigTemplate_0cbda77c6c5b79e50455899aef695a86 Pages: 1 -->
<svg width="259pt" height="885pt"
 viewBox="0.00 0.00 259.00 884.75" xmlns="http://www.w3.org/2000/svg" xmlns:xlink="http://www.w3.org/1999/xlink">
<g id="graph0" class="graph" transform="scale(1 1) rotate(0) translate(4 880.75)">
<title>__TwigTemplate_0cbda77c6c5b79e50455899aef695a86</title>
<!-- Node1 -->
<g id="Node000001" class="node">
<title>Node1</title>
<g id="a_Node000001"><a xlink:title=" ">
<polygon fill="#999999" stroke="none" points="251,-195 0,-195 0,0 251,0 251,-195"/>
<text text-anchor="start" x="4.75" y="-181.5" font-family="Helvetica,sans-Serif" font-size="10.00">__TwigTemplate_0cbda77c6c5b79e50455899aef695a86</text>
<text text-anchor="start" x="124" y="-166.5" font-family="Helvetica,sans-Serif" font-size="10.00"> </text>
<text text-anchor="start" x="34.5" y="-151.5" font-family="Helvetica,sans-Serif" font-size="10.00">+</text>
<text text-anchor="start" x="75" y="-151.5" font-family="Helvetica,sans-Serif" font-size="10.00">__construct(Environment</text>
<text text-anchor="start" x="75" y="-140.25" font-family="Helvetica,sans-Serif" font-size="10.00"> $env)</text>
<text text-anchor="start" x="34.5" y="-125.5" font-family="Helvetica,sans-Serif" font-size="10.00">+</text>
<text text-anchor="start" x="75" y="-125.5" font-family="Helvetica,sans-Serif" font-size="10.00">macro_link_or_text</text>
<text text-anchor="start" x="75" y="-114.25" font-family="Helvetica,sans-Serif" font-size="10.00">($__value__=null, $</text>
<text text-anchor="start" x="75" y="-103" font-family="Helvetica,sans-Serif" font-size="10.00">__anchor_class__=&quot;&quot;,...</text>
<text text-anchor="start" x="75" y="-91.75" font-family="Helvetica,sans-Serif" font-size="10.00"> $__varargs__)</text>
<text text-anchor="start" x="34.5" y="-76.5" font-family="Helvetica,sans-Serif" font-size="10.00">+</text>
<text text-anchor="start" x="75" y="-76.5" font-family="Helvetica,sans-Serif" font-size="10.00">getTemplateName()</text>
<text text-anchor="start" x="34.5" y="-61.5" font-family="Helvetica,sans-Serif" font-size="10.00">+</text>
<text text-anchor="start" x="75" y="-61.5" font-family="Helvetica,sans-Serif" font-size="10.00">isTraitable()</text>
<text text-anchor="start" x="34.5" y="-46.5" font-family="Helvetica,sans-Serif" font-size="10.00">+</text>
<text text-anchor="start" x="75" y="-46.5" font-family="Helvetica,sans-Serif" font-size="10.00">getDebugInfo()</text>
<text text-anchor="start" x="34.5" y="-31.5" font-family="Helvetica,sans-Serif" font-size="10.00">+</text>
<text text-anchor="start" x="75" y="-31.5" font-family="Helvetica,sans-Serif" font-size="10.00">getSourceContext()</text>
<text text-anchor="start" x="34.88" y="-16.5" font-family="Helvetica,sans-Serif" font-size="10.00">#</text>
<text text-anchor="start" x="75" y="-16.5" font-family="Helvetica,sans-Serif" font-size="10.00">doDisplay(array $context,</text>
<text text-anchor="start" x="75" y="-5.25" font-family="Helvetica,sans-Serif" font-size="10.00"> array $blocks=[])</text>
<polygon fill="#666666" stroke="#666666" points="0,-178 0,-178 251,-178 251,-178 0,-178"/>
<polygon fill="#666666" stroke="#666666" points="0,-163 0,-163 251,-163 251,-163 0,-163"/>
<polygon fill="none" stroke="#666666" points="0,0 0,-195 251,-195 251,0 0,0"/>
</a>
</g>
</g>
<!-- Node2 -->
<g id="Node000002" class="node">
<title>Node2</title>
<g id="a_Node000002"><a xlink:href="$class_twig_1_1_template.html" xlink:title=" ">
<polygon fill="white" stroke="none" points="208.5,-758 42.5,-758 42.5,-232 208.5,-232 208.5,-758"/>
<text text-anchor="start" x="105.62" y="-744.5" font-family="Helvetica,sans-Serif" font-size="10.00">Template</text>
<text text-anchor="start" x="46.88" y="-729.5" font-family="Helvetica,sans-Serif" font-size="10.00">#</text>
<text text-anchor="start" x="56.5" y="-729.5" font-family="Helvetica,sans-Serif" font-size="10.00">$parent</text>
<text text-anchor="start" x="46.88" y="-714.5" font-family="Helvetica,sans-Serif" font-size="10.00">#</text>
<text text-anchor="start" x="56.5" y="-714.5" font-family="Helvetica,sans-Serif" font-size="10.00">$parents</text>
<text text-anchor="start" x="46.88" y="-699.5" font-family="Helvetica,sans-Serif" font-size="10.00">#</text>
<text text-anchor="start" x="56.5" y="-699.5" font-family="Helvetica,sans-Serif" font-size="10.00">$env</text>
<text text-anchor="start" x="46.88" y="-684.5" font-family="Helvetica,sans-Serif" font-size="10.00">#</text>
<text text-anchor="start" x="56.5" y="-684.5" font-family="Helvetica,sans-Serif" font-size="10.00">$blocks</text>
<text text-anchor="start" x="46.88" y="-669.5" font-family="Helvetica,sans-Serif" font-size="10.00">#</text>
<text text-anchor="start" x="56.5" y="-669.5" font-family="Helvetica,sans-Serif" font-size="10.00">$traits</text>
<text text-anchor="start" x="46.88" y="-654.5" font-family="Helvetica,sans-Serif" font-size="10.00">#</text>
<text text-anchor="start" x="56.5" y="-654.5" font-family="Helvetica,sans-Serif" font-size="10.00">$extensions</text>
<text text-anchor="start" x="46.88" y="-639.5" font-family="Helvetica,sans-Serif" font-size="10.00">#</text>
<text text-anchor="start" x="56.5" y="-639.5" font-family="Helvetica,sans-Serif" font-size="10.00">$sandbox</text>
<text text-anchor="start" x="46.5" y="-624.5" font-family="Helvetica,sans-Serif" font-size="10.00">+</text>
<text text-anchor="start" x="56.5" y="-624.5" font-family="Helvetica,sans-Serif" font-size="10.00">__construct(Environment</text>
<text text-anchor="start" x="56.5" y="-613.25" font-family="Helvetica,sans-Serif" font-size="10.00"> $env)</text>
<text text-anchor="start" x="46.5" y="-598.5" font-family="Helvetica,sans-Serif" font-size="10.00">+</text>
<text text-anchor="start" x="56.5" y="-598.5" font-family="Helvetica,sans-Serif" font-size="10.00">getTemplateName()</text>
<text text-anchor="start" x="46.5" y="-583.5" font-family="Helvetica,sans-Serif" font-size="10.00">+</text>
<text text-anchor="start" x="56.5" y="-583.5" font-family="Helvetica,sans-Serif" font-size="10.00">getDebugInfo()</text>
<text text-anchor="start" x="46.5" y="-568.5" font-family="Helvetica,sans-Serif" font-size="10.00">+</text>
<text text-anchor="start" x="56.5" y="-568.5" font-family="Helvetica,sans-Serif" font-size="10.00">getSourceContext()</text>
<text text-anchor="start" x="46.5" y="-553.5" font-family="Helvetica,sans-Serif" font-size="10.00">+</text>
<text text-anchor="start" x="56.5" y="-553.5" font-family="Helvetica,sans-Serif" font-size="10.00">getParent(array $context)</text>
<text text-anchor="start" x="46.5" y="-538.5" font-family="Helvetica,sans-Serif" font-size="10.00">+</text>
<text text-anchor="start" x="56.5" y="-538.5" font-family="Helvetica,sans-Serif" font-size="10.00">isTraitable()</text>
<text text-anchor="start" x="46.5" y="-523.5" font-family="Helvetica,sans-Serif" font-size="10.00">+</text>
<text text-anchor="start" x="56.5" y="-523.5" font-family="Helvetica,sans-Serif" font-size="10.00">displayParentBlock</text>
<text text-anchor="start" x="56.5" y="-512.25" font-family="Helvetica,sans-Serif" font-size="10.00">($name, array $context,</text>
<text text-anchor="start" x="56.5" y="-501" font-family="Helvetica,sans-Serif" font-size="10.00"> array $blocks=[])</text>
<text text-anchor="start" x="46.5" y="-486.5" font-family="Helvetica,sans-Serif" font-size="10.00">+</text>
<text text-anchor="start" x="56.5" y="-486.5" font-family="Helvetica,sans-Serif" font-size="10.00">displayBlock($name,</text>
<text text-anchor="start" x="56.5" y="-475.25" font-family="Helvetica,sans-Serif" font-size="10.00"> array $context, array</text>
<text text-anchor="start" x="56.5" y="-464" font-family="Helvetica,sans-Serif" font-size="10.00"> $blocks=[], $useBlocks</text>
<text text-anchor="start" x="56.5" y="-452.75" font-family="Helvetica,sans-Serif" font-size="10.00">=true, self $templateContext=null)</text>
<text text-anchor="start" x="46.5" y="-437.5" font-family="Helvetica,sans-Serif" font-size="10.00">+</text>
<text text-anchor="start" x="56.5" y="-437.5" font-family="Helvetica,sans-Serif" font-size="10.00">renderParentBlock</text>
<text text-anchor="start" x="56.5" y="-426.25" font-family="Helvetica,sans-Serif" font-size="10.00">($name, array $context,</text>
<text text-anchor="start" x="56.5" y="-415" font-family="Helvetica,sans-Serif" font-size="10.00"> array $blocks=[])</text>
<text text-anchor="start" x="46.5" y="-400.5" font-family="Helvetica,sans-Serif" font-size="10.00">+</text>
<text text-anchor="start" x="56.5" y="-400.5" font-family="Helvetica,sans-Serif" font-size="10.00">renderBlock($name,</text>
<text text-anchor="start" x="56.5" y="-389.25" font-family="Helvetica,sans-Serif" font-size="10.00"> array $context, array</text>
<text text-anchor="start" x="56.5" y="-378" font-family="Helvetica,sans-Serif" font-size="10.00"> $blocks=[], $useBlocks=true)</text>
<text text-anchor="start" x="56.5" y="-363.5" font-family="Helvetica,sans-Serif" font-size="10.00">et 6 de plus...</text>
<text text-anchor="start" x="46.88" y="-348.5" font-family="Helvetica,sans-Serif" font-size="10.00">#</text>
<text text-anchor="start" x="56.5" y="-348.5" font-family="Helvetica,sans-Serif" font-size="10.00">doGetParent(array</text>
<text text-anchor="start" x="56.5" y="-337.25" font-family="Helvetica,sans-Serif" font-size="10.00"> $context)</text>
<text text-anchor="start" x="46.88" y="-322.5" font-family="Helvetica,sans-Serif" font-size="10.00">#</text>
<text text-anchor="start" x="56.5" y="-322.5" font-family="Helvetica,sans-Serif" font-size="10.00">loadTemplate($template,</text>
<text text-anchor="start" x="56.5" y="-311.25" font-family="Helvetica,sans-Serif" font-size="10.00"> $templateName=null, </text>
<text text-anchor="start" x="56.5" y="-300" font-family="Helvetica,sans-Serif" font-size="10.00">$line=null, $index=null)</text>
<text text-anchor="start" x="46.88" y="-285.5" font-family="Helvetica,sans-Serif" font-size="10.00">#</text>
<text text-anchor="start" x="56.5" y="-285.5" font-family="Helvetica,sans-Serif" font-size="10.00">displayWithErrorHandling</text>
<text text-anchor="start" x="56.5" y="-274.25" font-family="Helvetica,sans-Serif" font-size="10.00">(array $context, array</text>
<text text-anchor="start" x="56.5" y="-263" font-family="Helvetica,sans-Serif" font-size="10.00"> $blocks=[])</text>
<text text-anchor="start" x="46.88" y="-248.5" font-family="Helvetica,sans-Serif" font-size="10.00">#</text>
<text text-anchor="start" x="56.5" y="-248.5" font-family="Helvetica,sans-Serif" font-size="10.00">doDisplay(array $context,</text>
<text text-anchor="start" x="56.5" y="-237.25" font-family="Helvetica,sans-Serif" font-size="10.00"> array $blocks=[])</text>
<polygon fill="#666666" stroke="#666666" points="42.5,-741 42.5,-741 208.5,-741 208.5,-741 42.5,-741"/>
<polygon fill="#666666" stroke="#666666" points="42.5,-636 42.5,-636 54.5,-636 54.5,-636 42.5,-636"/>
<polygon fill="#666666" stroke="#666666" points="54.5,-636 54.5,-636 208.5,-636 208.5,-636 54.5,-636"/>
<polygon fill="none" stroke="#666666" points="42.5,-232 42.5,-758 208.5,-758 208.5,-232 42.5,-232"/>
</a>
</g>
</g>
<!-- Node2&#45;&gt;Node1 -->
<g id="edge5_Node000001_Node000002" class="edge">
<title>Node2&#45;&gt;Node1</title>
<g id="a_edge5_Node000001_Node000002"><a xlink:title=" ">
<path fill="none" stroke="#63b8ff" d="M125.5,-220.74C125.5,-211.85 125.5,-203.2 125.5,-194.88"/>
<polygon fill="none" stroke="#63b8ff" points="122,-220.61 125.5,-230.61 129,-220.61 122,-220.61"/>
</a>
</g>
</g>
<!-- Node3 -->
<g id="Node000003" class="node">
<title>Node3</title>
<g id="a_Node000003"><a xlink:title=" ">
<polygon fill="white" stroke="none" points="142.5,-876.75 108.5,-876.75 108.5,-827.75 142.5,-827.75 142.5,-876.75"/>
<text text-anchor="start" x="113.5" y="-863.25" font-family="Helvetica,sans-Serif" font-size="10.00">const</text>
<text text-anchor="start" x="124" y="-848.25" font-family="Helvetica,sans-Serif" font-size="10.00"> </text>
<text text-anchor="start" x="124" y="-833.25" font-family="Helvetica,sans-Serif" font-size="10.00"> </text>
<polygon fill="#666666" stroke="#666666" points="108.5,-859.75 108.5,-859.75 142.5,-859.75 142.5,-859.75 108.5,-859.75"/>
<polygon fill="#666666" stroke="#666666" points="108.5,-844.75 108.5,-844.75 142.5,-844.75 142.5,-844.75 108.5,-844.75"/>
<polygon fill="none" stroke="#666666" points="108.5,-827.75 108.5,-876.75 142.5,-876.75 142.5,-827.75 108.5,-827.75"/>
</a>
</g>
</g>
<!-- Node3&#45;&gt;Node2 -->
<g id="edge6_Node000002_Node000003" class="edge">
<title>Node3&#45;&gt;Node2</title>
<g id="a_edge6_Node000002_Node000003"><a xlink:title=" ">
<path fill="none" stroke="#63b8ff" d="M125.5,-827.94C125.5,-813.68 125.5,-793.75 125.5,-770.68"/>
<polygon fill="none" stroke="#63b8ff" points="125.5,-770.84 121.5,-764.84 125.5,-758.84 129.5,-764.84 125.5,-770.84"/>
</a>
</g>
<text text-anchor="middle" x="165.25" y="-800.25" font-family="Helvetica,sans-Serif" font-size="10.00" fill="grey"> +ANY_CALL</text>
<text text-anchor="middle" x="165.25" y="-789" font-family="Helvetica,sans-Serif" font-size="10.00" fill="grey">+ARRAY_CALL</text>
<text text-anchor="middle" x="165.25" y="-777.75" font-family="Helvetica,sans-Serif" font-size="10.00" fill="grey">+METHOD_CALL</text>
</g>
</g>
</svg>
