<?xml version="1.0" encoding="UTF-8" standalone="no"?>
<!DOCTYPE svg PUBLIC "-//W3C//DTD SVG 1.1//EN"
 "http://www.w3.org/Graphics/SVG/1.1/DTD/svg11.dtd">
<!-- Generated by graphviz version 10.0.1 (20240210.2158)
 -->
<!-- Title: ConsoleHelper Pages: 1 -->
<svg width="180pt" height="313pt"
 viewBox="0.00 0.00 180.25 313.25" xmlns="http://www.w3.org/2000/svg" xmlns:xlink="http://www.w3.org/1999/xlink">
<g id="graph0" class="graph" transform="scale(1 1) rotate(0) translate(4 309.25)">
<title>ConsoleHelper</title>
<!-- Node1 -->
<g id="Node000001" class="node">
<title>Node1</title>
<g id="a_Node000001"><a xlink:title=" ">
<polygon fill="#999999" stroke="none" points="139,-164 0,-164 0,0 139,0 139,-164"/>
<text text-anchor="start" x="37.25" y="-150.5" font-family="Helvetica,sans-Serif" font-size="10.00">ConsoleHelper</text>
<text text-anchor="start" x="68" y="-135.5" font-family="Helvetica,sans-Serif" font-size="10.00"> </text>
<text text-anchor="start" x="4" y="-120.5" font-family="Helvetica,sans-Serif" font-size="10.00">+</text>
<text text-anchor="start" x="14" y="-120.5" font-family="Helvetica,sans-Serif" font-size="10.00">__construct($resource</text>
<text text-anchor="start" x="14" y="-109.25" font-family="Helvetica,sans-Serif" font-size="10.00">=STDOUT)</text>
<text text-anchor="start" x="4" y="-94.5" font-family="Helvetica,sans-Serif" font-size="10.00">+</text>
<text text-anchor="start" x="14" y="-94.5" font-family="Helvetica,sans-Serif" font-size="10.00">colorize($string)</text>
<text text-anchor="start" x="4" y="-79.5" font-family="Helvetica,sans-Serif" font-size="10.00">+</text>
<text text-anchor="start" x="14" y="-79.5" font-family="Helvetica,sans-Serif" font-size="10.00">write($string, $colorize</text>
<text text-anchor="start" x="14" y="-68.25" font-family="Helvetica,sans-Serif" font-size="10.00">=true, $resource=STDOUT)</text>
<text text-anchor="start" x="4" y="-53.5" font-family="Helvetica,sans-Serif" font-size="10.00">+</text>
<text text-anchor="start" x="14" y="-53.5" font-family="Helvetica,sans-Serif" font-size="10.00">writeLine($string,</text>
<text text-anchor="start" x="14" y="-42.25" font-family="Helvetica,sans-Serif" font-size="10.00"> $colorize=true, $resource</text>
<text text-anchor="start" x="14" y="-31" font-family="Helvetica,sans-Serif" font-size="10.00">=STDOUT)</text>
<text text-anchor="start" x="4" y="-16.5" font-family="Helvetica,sans-Serif" font-size="10.00">+</text>
<text text-anchor="start" x="14" y="-16.5" font-family="Helvetica,sans-Serif" font-size="10.00">writeErrorMessage</text>
<text text-anchor="start" x="14" y="-5.25" font-family="Helvetica,sans-Serif" font-size="10.00">($message)</text>
<polygon fill="#666666" stroke="#666666" points="0,-147 0,-147 139,-147 139,-147 0,-147"/>
<polygon fill="#666666" stroke="#666666" points="0,-132 0,-132 139,-132 139,-132 0,-132"/>
<polygon fill="none" stroke="#666666" points="0,0 0,-164 139,-164 139,0 0,0"/>
</a>
</g>
</g>
<!-- Node2 -->
<g id="Node000002" class="node">
<title>Node2</title>
<g id="a_Node000002"><a xlink:title=" ">
<polygon fill="white" stroke="none" points="86.5,-305.25 52.5,-305.25 52.5,-256.25 86.5,-256.25 86.5,-305.25"/>
<text text-anchor="start" x="57.5" y="-291.75" font-family="Helvetica,sans-Serif" font-size="10.00">const</text>
<text text-anchor="start" x="68" y="-276.75" font-family="Helvetica,sans-Serif" font-size="10.00"> </text>
<text text-anchor="start" x="68" y="-261.75" font-family="Helvetica,sans-Serif" font-size="10.00"> </text>
<polygon fill="#666666" stroke="#666666" points="52.5,-288.25 52.5,-288.25 86.5,-288.25 86.5,-288.25 52.5,-288.25"/>
<polygon fill="#666666" stroke="#666666" points="52.5,-273.25 52.5,-273.25 86.5,-273.25 86.5,-273.25 52.5,-273.25"/>
<polygon fill="none" stroke="#666666" points="52.5,-256.25 52.5,-305.25 86.5,-305.25 86.5,-256.25 52.5,-256.25"/>
</a>
</g>
</g>
<!-- Node2&#45;&gt;Node1 -->
<g id="edge3_Node000001_Node000002" class="edge">
<title>Node2&#45;&gt;Node1</title>
<g id="a_edge3_Node000001_Node000002"><a xlink:title=" ">
<path fill="none" stroke="#63b8ff" d="M69.5,-256.41C69.5,-236.46 69.5,-206.37 69.5,-176.83"/>
<polygon fill="none" stroke="#63b8ff" points="69.5,-176.69 65.5,-170.69 69.5,-164.69 73.5,-170.69 69.5,-176.69"/>
</a>
</g>
<text text-anchor="middle" x="120.88" y="-228.75" font-family="Helvetica,sans-Serif" font-size="10.00" fill="grey"> +COLOR_GREEN</text>
<text text-anchor="middle" x="120.88" y="-217.5" font-family="Helvetica,sans-Serif" font-size="10.00" fill="grey">+COLOR_RED</text>
<text text-anchor="middle" x="120.88" y="-206.25" font-family="Helvetica,sans-Serif" font-size="10.00" fill="grey">+COLOR_RESET</text>
<text text-anchor="middle" x="120.88" y="-195" font-family="Helvetica,sans-Serif" font-size="10.00" fill="grey">+HIGHLIGHT_ERROR</text>
<text text-anchor="middle" x="120.88" y="-183.75" font-family="Helvetica,sans-Serif" font-size="10.00" fill="grey">+HIGHLIGHT_INFO</text>
</g>
</g>
</svg>
