<?xml version="1.0" encoding="UTF-8" standalone="no"?>
<!DOCTYPE svg PUBLIC "-//W3C//DTD SVG 1.1//EN"
 "http://www.w3.org/Graphics/SVG/1.1/DTD/svg11.dtd">
<!-- Generated by graphviz version 10.0.1 (20240210.2158)
 -->
<!-- Title: Diff Pages: 1 -->
<svg width="140pt" height="139pt"
 viewBox="0.00 0.00 140.00 139.00" xmlns="http://www.w3.org/2000/svg" xmlns:xlink="http://www.w3.org/1999/xlink">
<g id="graph0" class="graph" transform="scale(1 1) rotate(0) translate(4 135)">
<title>Diff</title>
<!-- Node1 -->
<g id="Node000001" class="node">
<title>Node1</title>
<g id="a_Node000001"><a xlink:title=" ">
<polygon fill="#999999" stroke="none" points="132,-131 0,-131 0,0 132,0 132,-131"/>
<text text-anchor="start" x="58.12" y="-117.5" font-family="Helvetica,sans-Serif" font-size="10.00">Diff</text>
<text text-anchor="start" x="64.5" y="-102.5" font-family="Helvetica,sans-Serif" font-size="10.00"> </text>
<text text-anchor="start" x="4" y="-87.5" font-family="Helvetica,sans-Serif" font-size="10.00">+</text>
<text text-anchor="start" x="14" y="-87.5" font-family="Helvetica,sans-Serif" font-size="10.00">__construct(string</text>
<text text-anchor="start" x="14" y="-76.25" font-family="Helvetica,sans-Serif" font-size="10.00"> $from, string $to,</text>
<text text-anchor="start" x="14" y="-65" font-family="Helvetica,sans-Serif" font-size="10.00"> array $chunks=[])</text>
<text text-anchor="start" x="4" y="-50.5" font-family="Helvetica,sans-Serif" font-size="10.00">+</text>
<text text-anchor="start" x="14" y="-50.5" font-family="Helvetica,sans-Serif" font-size="10.00">getFrom()</text>
<text text-anchor="start" x="4" y="-35.5" font-family="Helvetica,sans-Serif" font-size="10.00">+</text>
<text text-anchor="start" x="14" y="-35.5" font-family="Helvetica,sans-Serif" font-size="10.00">getTo()</text>
<text text-anchor="start" x="4" y="-20.5" font-family="Helvetica,sans-Serif" font-size="10.00">+</text>
<text text-anchor="start" x="14" y="-20.5" font-family="Helvetica,sans-Serif" font-size="10.00">getChunks()</text>
<text text-anchor="start" x="4" y="-5.5" font-family="Helvetica,sans-Serif" font-size="10.00">+</text>
<text text-anchor="start" x="14" y="-5.5" font-family="Helvetica,sans-Serif" font-size="10.00">setChunks(array $chunks)</text>
<polygon fill="#666666" stroke="#666666" points="0,-114 0,-114 132,-114 132,-114 0,-114"/>
<polygon fill="#666666" stroke="#666666" points="0,-99 0,-99 132,-99 132,-99 0,-99"/>
<polygon fill="none" stroke="#666666" points="0,0 0,-131 132,-131 132,0 0,0"/>
</a>
</g>
</g>
</g>
</svg>
