<?xml version="1.0" encoding="UTF-8" standalone="no"?>
<!DOCTYPE svg PUBLIC "-//W3C//DTD SVG 1.1//EN"
 "http://www.w3.org/Graphics/SVG/1.1/DTD/svg11.dtd">
<!-- Generated by graphviz version 10.0.1 (20240210.2158)
 -->
<!-- Title: canReadITILItem Pages: 1 -->
<svg width="397pt" height="27pt"
 viewBox="0.00 0.00 396.50 27.25" xmlns="http://www.w3.org/2000/svg" xmlns:xlink="http://www.w3.org/1999/xlink">
<g id="graph0" class="graph" transform="scale(1 1) rotate(0) translate(4 23.25)">
<title>canReadITILItem</title>
<!-- Node1 -->
<g id="Node000001" class="node">
<title>Node1</title>
<g id="a_Node000001"><a xlink:title=" ">
<polygon fill="#999999" stroke="#666666" points="91.75,-19.25 0,-19.25 0,0 91.75,0 91.75,-19.25"/>
<text text-anchor="middle" x="45.88" y="-5.75" font-family="Helvetica,sans-Serif" font-size="10.00">canReadITILItem</text>
</a>
</g>
</g>
<!-- Node2 -->
<g id="Node000002" class="node">
<title>Node2</title>
<g id="a_Node000002"><a xlink:href="$class_common_i_t_i_l_task.html#a3fea6464d2d20d9bfe6684e2196d9634" xlink:title=" ">
<polygon fill="white" stroke="#666666" points="236.75,-19.25 127.75,-19.25 127.75,0 236.75,0 236.75,-19.25"/>
<text text-anchor="middle" x="182.25" y="-5.75" font-family="Helvetica,sans-Serif" font-size="10.00">getItilObjectItemType</text>
</a>
</g>
</g>
<!-- Node1&#45;&gt;Node2 -->
<g id="edge5_Node000001_Node000002" class="edge">
<title>Node1&#45;&gt;Node2</title>
<g id="a_edge5_Node000001_Node000002"><a xlink:title=" ">
<path fill="none" stroke="#63b8ff" d="M91.99,-9.62C99.77,-9.62 107.98,-9.62 116.16,-9.62"/>
<polygon fill="#63b8ff" stroke="#63b8ff" points="116.13,-13.13 126.13,-9.63 116.13,-6.13 116.13,-13.13"/>
</a>
</g>
</g>
<!-- Node3 -->
<g id="Node000003" class="node">
<title>Node3</title>
<g id="a_Node000003"><a xlink:href="$class_common_g_l_p_i.html#a3dadfbfaa3d8e3b5fe01a60e28640ddb" xlink:title=" ">
<polygon fill="white" stroke="#666666" points="388.5,-19.25 272.75,-19.25 272.75,0 388.5,0 388.5,-19.25"/>
<text text-anchor="middle" x="330.62" y="-5.75" font-family="Helvetica,sans-Serif" font-size="10.00">CommonGLPI\getType</text>
</a>
</g>
</g>
<!-- Node2&#45;&gt;Node3 -->
<g id="edge6_Node000002_Node000003" class="edge">
<title>Node2&#45;&gt;Node3</title>
<g id="a_edge6_Node000002_Node000003"><a xlink:title=" ">
<path fill="none" stroke="#63b8ff" d="M236.92,-9.62C244.8,-9.62 253,-9.62 261.12,-9.62"/>
<polygon fill="#63b8ff" stroke="#63b8ff" points="261,-13.13 271,-9.63 261,-6.13 261,-13.13"/>
</a>
</g>
</g>
</g>
</svg>
