<?xml version="1.0" encoding="UTF-8" standalone="no"?>
<!DOCTYPE svg PUBLIC "-//W3C//DTD SVG 1.1//EN"
 "http://www.w3.org/Graphics/SVG/1.1/DTD/svg11.dtd">
<!-- Generated by graphviz version 10.0.1 (20240210.2158)
 -->
<!-- Title: unserializeTCPDFtagParameters Pages: 1 -->
<svg width="986pt" height="64pt"
 viewBox="0.00 0.00 986.00 64.25" xmlns="http://www.w3.org/2000/svg" xmlns:xlink="http://www.w3.org/1999/xlink">
<g id="graph0" class="graph" transform="scale(1 1) rotate(0) translate(4 60.25)">
<title>unserializeTCPDFtagParameters</title>
<!-- Node1 -->
<g id="Node000001" class="node">
<title>Node1</title>
<g id="a_Node000001"><a xlink:title=" ">
<polygon fill="#999999" stroke="#666666" points="160,-37.25 0,-37.25 0,-18 160,-18 160,-37.25"/>
<text text-anchor="middle" x="80" y="-23.75" font-family="Helvetica,sans-Serif" font-size="10.00">unserializeTCPDFtagParameters</text>
</a>
</g>
</g>
<!-- Node2 -->
<g id="Node000002" class="node">
<title>Node2</title>
<g id="a_Node000002"><a xlink:href="$class_t_c_p_d_f.html#a5afab85a7aaf19395f9a0e86cae76928" xlink:title=" ">
<polygon fill="white" stroke="#666666" points="288.5,-56.25 251.5,-56.25 251.5,-37 288.5,-37 288.5,-56.25"/>
<text text-anchor="middle" x="270" y="-42.75" font-family="Helvetica,sans-Serif" font-size="10.00">Error</text>
</a>
</g>
</g>
<!-- Node1&#45;&gt;Node2 -->
<g id="edge13_Node000001_Node000002" class="edge">
<title>Node1&#45;&gt;Node2</title>
<g id="a_edge13_Node000001_Node000002"><a xlink:title=" ">
<path fill="none" stroke="#63b8ff" d="M160.46,-35.66C188.74,-38.51 218.81,-41.55 240.12,-43.71"/>
<polygon fill="#63b8ff" stroke="#63b8ff" points="239.47,-47.16 249.77,-44.68 240.17,-40.19 239.47,-47.16"/>
</a>
</g>
</g>
<!-- Node7 -->
<g id="Node000007" class="node">
<title>Node7</title>
<g id="a_Node000007"><a xlink:href="$class_t_c_p_d_f.html#adc59ad386d1a441f808ed85d68427185" xlink:title=" ">
<polygon fill="white" stroke="#666666" points="344,-19.25 196,-19.25 196,0 344,0 344,-19.25"/>
<text text-anchor="middle" x="270" y="-5.75" font-family="Helvetica,sans-Serif" font-size="10.00">getHashForTCPDFtagParams</text>
</a>
</g>
</g>
<!-- Node1&#45;&gt;Node7 -->
<g id="edge18_Node000001_Node000007" class="edge">
<title>Node1&#45;&gt;Node7</title>
<g id="a_edge18_Node000001_Node000007"><a xlink:title=" ">
<path fill="none" stroke="#63b8ff" d="M160.46,-20.02C168.27,-19.27 176.21,-18.51 184.08,-17.76"/>
<polygon fill="#63b8ff" stroke="#63b8ff" points="184.38,-21.24 194,-16.81 183.71,-14.27 184.38,-21.24"/>
</a>
</g>
</g>
<!-- Node3 -->
<g id="Node000003" class="node">
<title>Node3</title>
<g id="a_Node000003"><a xlink:href="$class_t_c_p_d_f.html#a3f1223ef6da2a75d708d2cf17129e35a" xlink:title=" ">
<polygon fill="white" stroke="#666666" points="433.5,-56.25 380,-56.25 380,-37 433.5,-37 433.5,-56.25"/>
<text text-anchor="middle" x="406.75" y="-42.75" font-family="Helvetica,sans-Serif" font-size="10.00">_destroy</text>
</a>
</g>
</g>
<!-- Node2&#45;&gt;Node3 -->
<g id="edge14_Node000002_Node000003" class="edge">
<title>Node2&#45;&gt;Node3</title>
<g id="a_edge14_Node000002_Node000003"><a xlink:title=" ">
<path fill="none" stroke="#63b8ff" d="M288.89,-46.62C309.13,-46.62 342.65,-46.62 368.61,-46.62"/>
<polygon fill="#63b8ff" stroke="#63b8ff" points="368.42,-50.13 378.42,-46.63 368.42,-43.13 368.42,-50.13"/>
</a>
</g>
</g>
<!-- Node4 -->
<g id="Node000004" class="node">
<title>Node4</title>
<g id="a_Node000004"><a xlink:href="$class_t_c_p_d_f___s_t_a_t_i_c.html#a9e14c837e0fcb7de0b1b272f5b2384f7" xlink:title=" ">
<polygon fill="white" stroke="#666666" points="607,-56.25 469.5,-56.25 469.5,-37 607,-37 607,-56.25"/>
<text text-anchor="middle" x="538.25" y="-42.75" font-family="Helvetica,sans-Serif" font-size="10.00">TCPDF_STATIC\file_exists</text>
</a>
</g>
</g>
<!-- Node3&#45;&gt;Node4 -->
<g id="edge15_Node000003_Node000004" class="edge">
<title>Node3&#45;&gt;Node4</title>
<g id="a_edge15_Node000003_Node000004"><a xlink:title=" ">
<path fill="none" stroke="#63b8ff" d="M433.96,-46.62C441.1,-46.62 449.23,-46.62 457.71,-46.62"/>
<polygon fill="#63b8ff" stroke="#63b8ff" points="457.51,-50.13 467.51,-46.63 457.51,-43.13 457.51,-50.13"/>
</a>
</g>
</g>
<!-- Node5 -->
<g id="Node000005" class="node">
<title>Node5</title>
<g id="a_Node000005"><a xlink:href="$class_t_c_p_d_f___s_t_a_t_i_c.html#adeb9b51fef0b87a0befbdbb11e85f39b" xlink:title=" ">
<polygon fill="white" stroke="#666666" points="778.25,-56.25 643,-56.25 643,-37 778.25,-37 778.25,-56.25"/>
<text text-anchor="middle" x="710.62" y="-42.75" font-family="Helvetica,sans-Serif" font-size="10.00">TCPDF_STATIC\url_exists</text>
</a>
</g>
</g>
<!-- Node4&#45;&gt;Node5 -->
<g id="edge16_Node000004_Node000005" class="edge">
<title>Node4&#45;&gt;Node5</title>
<g id="a_edge16_Node000004_Node000005"><a xlink:title=" ">
<path fill="none" stroke="#63b8ff" d="M607.08,-46.62C615.02,-46.62 623.18,-46.62 631.26,-46.62"/>
<polygon fill="#63b8ff" stroke="#63b8ff" points="631.07,-50.13 641.07,-46.63 631.07,-43.13 631.07,-50.13"/>
</a>
</g>
</g>
<!-- Node6 -->
<g id="Node000006" class="node">
<title>Node6</title>
<g id="a_Node000006"><a xlink:href="$class_t_c_p_d_f___s_t_a_t_i_c.html#a79813ccb2446fdc8ec2b1a1f346a3809" xlink:title=" ">
<polygon fill="white" stroke="#666666" points="978,-56.25 814.25,-56.25 814.25,-37 978,-37 978,-56.25"/>
<text text-anchor="middle" x="896.12" y="-42.75" font-family="Helvetica,sans-Serif" font-size="10.00">TCPDF_STATIC\encodeUrlQuery</text>
</a>
</g>
</g>
<!-- Node5&#45;&gt;Node6 -->
<g id="edge17_Node000005_Node000006" class="edge">
<title>Node5&#45;&gt;Node6</title>
<g id="a_edge17_Node000005_Node000006"><a xlink:title=" ">
<path fill="none" stroke="#63b8ff" d="M778.65,-46.62C786.45,-46.62 794.5,-46.62 802.56,-46.62"/>
<polygon fill="#63b8ff" stroke="#63b8ff" points="802.42,-50.13 812.42,-46.63 802.42,-43.13 802.42,-50.13"/>
</a>
</g>
</g>
</g>
</svg>
