<?xml version="1.0" encoding="UTF-8" standalone="no"?>
<!DOCTYPE svg PUBLIC "-//W3C//DTD SVG 1.1//EN"
 "http://www.w3.org/Graphics/SVG/1.1/DTD/svg11.dtd">
<!-- Generated by graphviz version 10.0.1 (20240210.2158)
 -->
<!-- Title: unboolSchema Pages: 1 -->
<svg width="326pt" height="39pt"
 viewBox="0.00 0.00 326.00 38.50" xmlns="http://www.w3.org/2000/svg" xmlns:xlink="http://www.w3.org/1999/xlink">
<g id="graph0" class="graph" transform="scale(1 1) rotate(0) translate(4 34.5)">
<title>unboolSchema</title>
<!-- Node1 -->
<g id="Node000001" class="node">
<title>Node1</title>
<g id="a_Node000001"><a xlink:title=" ">
<polygon fill="#999999" stroke="#666666" points="318,-24.88 237.5,-24.88 237.5,-5.63 318,-5.63 318,-24.88"/>
<text text-anchor="middle" x="277.75" y="-11.38" font-family="Helvetica,sans-Serif" font-size="10.00">unboolSchema</text>
</a>
</g>
</g>
<!-- Node2 -->
<g id="Node000002" class="node">
<title>Node2</title>
<g id="a_Node000002"><a xlink:href="$class_swaggest_1_1_json_schema_1_1_schema.html#a2f4baaf6917866dae6d3319b3bbbc28e" xlink:title=" ">
<polygon fill="white" stroke="#666666" points="201.5,-24.88 158.5,-24.88 158.5,-5.63 201.5,-5.63 201.5,-24.88"/>
<text text-anchor="middle" x="180" y="-11.38" font-family="Helvetica,sans-Serif" font-size="10.00">import</text>
</a>
</g>
</g>
<!-- Node1&#45;&gt;Node2 -->
<g id="edge5_Node000001_Node000002" class="edge">
<title>Node1&#45;&gt;Node2</title>
<g id="a_edge5_Node000001_Node000002"><a xlink:title=" ">
<path fill="none" stroke="#63b8ff" d="M226.02,-15.25C217.47,-15.25 209.03,-15.25 201.82,-15.25"/>
<polygon fill="#63b8ff" stroke="#63b8ff" points="225.74,-18.75 235.74,-15.25 225.74,-11.75 225.74,-18.75"/>
</a>
</g>
</g>
<!-- Node3 -->
<g id="Node000003" class="node">
<title>Node3</title>
<g id="a_Node000003"><a xlink:href="$class_glpi_1_1_inventory_1_1_converter.html#ac05ce2ed624d93769115fcbb094b689f" xlink:title=" ">
<polygon fill="white" stroke="#666666" points="122.5,-30.5 0,-30.5 0,0 122.5,0 122.5,-30.5"/>
<text text-anchor="start" x="8" y="-17" font-family="Helvetica,sans-Serif" font-size="10.00">Glpi\Inventory\Converter</text>
<text text-anchor="middle" x="61.25" y="-5.75" font-family="Helvetica,sans-Serif" font-size="10.00">\validate</text>
</a>
</g>
</g>
<!-- Node2&#45;&gt;Node3 -->
<g id="edge6_Node000002_Node000003" class="edge">
<title>Node2&#45;&gt;Node3</title>
<g id="a_edge6_Node000002_Node000003"><a xlink:title=" ">
<path fill="none" stroke="#63b8ff" d="M146.62,-15.25C139.08,-15.25 130.82,-15.25 122.51,-15.25"/>
<polygon fill="#63b8ff" stroke="#63b8ff" points="146.61,-18.75 156.61,-15.25 146.61,-11.75 146.61,-18.75"/>
</a>
</g>
</g>
</g>
</svg>
