<?xml version="1.0" encoding="UTF-8" standalone="no"?>
<!DOCTYPE svg PUBLIC "-//W3C//DTD SVG 1.1//EN"
 "http://www.w3.org/Graphics/SVG/1.1/DTD/svg11.dtd">
<!-- Generated by graphviz version 10.0.1 (20240210.2158)
 -->
<!-- Title: ristretto255_p3_tobytes Pages: 1 -->
<svg width="1038pt" height="279pt"
 viewBox="0.00 0.00 1038.00 278.50" xmlns="http://www.w3.org/2000/svg" xmlns:xlink="http://www.w3.org/1999/xlink">
<g id="graph0" class="graph" transform="scale(1 1) rotate(0) translate(4 274.5)">
<title>ristretto255_p3_tobytes</title>
<!-- Node1 -->
<g id="Node000001" class="node">
<title>Node1</title>
<g id="a_Node000001"><a xlink:title=" ">
<polygon fill="#999999" stroke="#666666" points="118,-143.88 0,-143.88 0,-124.62 118,-124.62 118,-143.88"/>
<text text-anchor="middle" x="59" y="-130.38" font-family="Helvetica,sans-Serif" font-size="10.00">ristretto255_p3_tobytes</text>
</a>
</g>
</g>
<!-- Node2 -->
<g id="Node000002" class="node">
<title>Node2</title>
<g id="a_Node000002"><a xlink:href="$class_paragon_i_e___sodium___core___curve25519.html#a182693398bc40853b69a13d89f7c259b" xlink:title=" ">
<polygon fill="white" stroke="#666666" points="284.38,-270.5 158.12,-270.5 158.12,-240 284.38,-240 284.38,-270.5"/>
<text text-anchor="start" x="166.12" y="-257" font-family="Helvetica,sans-Serif" font-size="10.00">ParagonIE_Sodium_Core</text>
<text text-anchor="middle" x="221.25" y="-245.75" font-family="Helvetica,sans-Serif" font-size="10.00">_Curve25519\fe_1</text>
</a>
</g>
</g>
<!-- Node1&#45;&gt;Node2 -->
<g id="edge33_Node000001_Node000002" class="edge">
<title>Node1&#45;&gt;Node2</title>
<g id="a_edge33_Node000001_Node000002"><a xlink:title=" ">
<path fill="none" stroke="#63b8ff" d="M68.11,-144.31C83.32,-162.65 117.85,-201.85 154,-226.25 158.39,-229.21 163.13,-231.98 167.98,-234.55"/>
<polygon fill="#63b8ff" stroke="#63b8ff" points="166.17,-237.55 176.68,-238.85 169.27,-231.28 166.17,-237.55"/>
</a>
</g>
</g>
<!-- Node3 -->
<g id="Node000003" class="node">
<title>Node3</title>
<g id="a_Node000003"><a xlink:href="$class_paragon_i_e___sodium___core___ristretto255.html#ae3766f3900549653469481590de10a60" xlink:title=" ">
<polygon fill="white" stroke="#666666" points="537.25,-145.88 486.75,-145.88 486.75,-126.62 537.25,-126.62 537.25,-145.88"/>
<text text-anchor="middle" x="512" y="-132.38" font-family="Helvetica,sans-Serif" font-size="10.00">fe_cneg</text>
</a>
</g>
</g>
<!-- Node1&#45;&gt;Node3 -->
<g id="edge34_Node000001_Node000003" class="edge">
<title>Node1&#45;&gt;Node3</title>
<g id="a_edge34_Node000001_Node000003"><a xlink:title=" ">
<path fill="none" stroke="#63b8ff" d="M101.39,-144.36C117.68,-147.88 136.62,-151.41 154,-153.25 285.16,-167.15 320.39,-175.32 450.75,-155.25 458.93,-153.99 467.52,-151.82 475.57,-149.39"/>
<polygon fill="#63b8ff" stroke="#63b8ff" points="476.62,-152.73 485.05,-146.32 474.46,-146.07 476.62,-152.73"/>
</a>
</g>
</g>
<!-- Node6 -->
<g id="Node000006" class="node">
<title>Node6</title>
<g id="a_Node000006"><a xlink:href="$class_paragon_i_e___sodium___core___curve25519.html#a93bcc24a23d277ecec10386f3f2e38d5" xlink:title=" ">
<polygon fill="white" stroke="#666666" points="1030,-168.5 903.75,-168.5 903.75,-138 1030,-138 1030,-168.5"/>
<text text-anchor="start" x="911.75" y="-155" font-family="Helvetica,sans-Serif" font-size="10.00">ParagonIE_Sodium_Core</text>
<text text-anchor="middle" x="966.88" y="-143.75" font-family="Helvetica,sans-Serif" font-size="10.00">_Curve25519\fe_copy</text>
</a>
</g>
</g>
<!-- Node1&#45;&gt;Node6 -->
<g id="edge38_Node000001_Node000006" class="edge">
<title>Node1&#45;&gt;Node6</title>
<g id="a_edge38_Node000001_Node000006"><a xlink:title=" ">
<path fill="none" stroke="#63b8ff" d="M80.42,-144.31C99.14,-153.15 127.85,-165.74 154,-173.25 254.76,-202.19 281.79,-212.25 386.62,-212.25 386.62,-212.25 386.62,-212.25 637.38,-212.25 730.08,-212.25 835.22,-189.2 901.04,-171.92"/>
<polygon fill="#63b8ff" stroke="#63b8ff" points="901.84,-175.33 910.6,-169.37 900.03,-168.57 901.84,-175.33"/>
</a>
</g>
</g>
<!-- Node7 -->
<g id="Node000007" class="node">
<title>Node7</title>
<g id="a_Node000007"><a xlink:href="$class_paragon_i_e___sodium___core___curve25519.html#a2344287b4095f432fa1b781ffe5cc5a8" xlink:title=" ">
<polygon fill="white" stroke="#666666" points="288.5,-30.5 154,-30.5 154,0 288.5,0 288.5,-30.5"/>
<text text-anchor="start" x="162" y="-17" font-family="Helvetica,sans-Serif" font-size="10.00">ParagonIE_Sodium_Core</text>
<text text-anchor="middle" x="221.25" y="-5.75" font-family="Helvetica,sans-Serif" font-size="10.00">_Curve25519\fe_isnegative</text>
</a>
</g>
</g>
<!-- Node1&#45;&gt;Node7 -->
<g id="edge39_Node000001_Node000007" class="edge">
<title>Node1&#45;&gt;Node7</title>
<g id="a_edge39_Node000001_Node000007"><a xlink:title=" ">
<path fill="none" stroke="#63b8ff" d="M68.4,-124.14C83.81,-106.11 118.29,-68.07 154,-44.25 158.47,-41.27 163.29,-38.48 168.22,-35.89"/>
<polygon fill="#63b8ff" stroke="#63b8ff" points="169.64,-39.1 177.07,-31.55 166.55,-32.82 169.64,-39.1"/>
</a>
</g>
</g>
<!-- Node8 -->
<g id="Node000008" class="node">
<title>Node8</title>
<g id="a_Node000008"><a xlink:href="$class_paragon_i_e___sodium___core___curve25519.html#a64516f7aacad228d305e021632044d36" xlink:title=" ">
<polygon fill="white" stroke="#666666" points="450.75,-108.5 324.5,-108.5 324.5,-78 450.75,-78 450.75,-108.5"/>
<text text-anchor="start" x="332.5" y="-95" font-family="Helvetica,sans-Serif" font-size="10.00">ParagonIE_Sodium_Core</text>
<text text-anchor="middle" x="387.62" y="-83.75" font-family="Helvetica,sans-Serif" font-size="10.00">_Curve25519\fe_mul</text>
</a>
</g>
</g>
<!-- Node1&#45;&gt;Node8 -->
<g id="edge40_Node000001_Node000008" class="edge">
<title>Node1&#45;&gt;Node8</title>
<g id="a_edge40_Node000001_Node000008"><a xlink:title=" ">
<path fill="none" stroke="#63b8ff" d="M104.78,-124.2C120.3,-120.98 137.86,-117.64 154,-115.25 206.9,-107.42 267.01,-101.82 312.87,-98.23"/>
<polygon fill="#63b8ff" stroke="#63b8ff" points="313,-101.73 322.7,-97.48 312.46,-94.75 313,-101.73"/>
</a>
</g>
</g>
<!-- Node9 -->
<g id="Node000009" class="node">
<title>Node9</title>
<g id="a_Node000009"><a xlink:href="$class_paragon_i_e___sodium___core___curve25519.html#a1e43e8c9928ebeed3060bc1e962a8530" xlink:title=" ">
<polygon fill="white" stroke="#666666" points="450.75,-59.5 324.5,-59.5 324.5,-29 450.75,-29 450.75,-59.5"/>
<text text-anchor="start" x="332.5" y="-46" font-family="Helvetica,sans-Serif" font-size="10.00">ParagonIE_Sodium_Core</text>
<text text-anchor="middle" x="387.62" y="-34.75" font-family="Helvetica,sans-Serif" font-size="10.00">_Curve25519\fe_sub</text>
</a>
</g>
</g>
<!-- Node1&#45;&gt;Node9 -->
<g id="edge42_Node000001_Node000009" class="edge">
<title>Node1&#45;&gt;Node9</title>
<g id="a_edge42_Node000001_Node000009"><a xlink:title=" ">
<path fill="none" stroke="#63b8ff" d="M82.04,-124.14C100.85,-115.8 128.79,-104.1 154,-96.25 206.38,-79.93 266.89,-66.57 313.07,-57.48"/>
<polygon fill="#63b8ff" stroke="#63b8ff" points="313.55,-60.95 322.7,-55.6 312.21,-54.08 313.55,-60.95"/>
</a>
</g>
</g>
<!-- Node10 -->
<g id="Node000010" class="node">
<title>Node10</title>
<g id="a_Node000010"><a xlink:href="$class_paragon_i_e___sodium___core___ristretto255.html#a3ab97af3c8c8ad2d57e1e5058d9f7e6f" xlink:title=" ">
<polygon fill="white" stroke="#666666" points="285.88,-143.88 156.62,-143.88 156.62,-124.62 285.88,-124.62 285.88,-143.88"/>
<text text-anchor="middle" x="221.25" y="-130.38" font-family="Helvetica,sans-Serif" font-size="10.00">ristretto255_sqrt_ratio_m1</text>
</a>
</g>
</g>
<!-- Node1&#45;&gt;Node10 -->
<g id="edge44_Node000001_Node000010" class="edge">
<title>Node1&#45;&gt;Node10</title>
<g id="a_edge44_Node000001_Node000010"><a xlink:title=" ">
<path fill="none" stroke="#63b8ff" d="M118.31,-134.25C126.99,-134.25 136.04,-134.25 145.02,-134.25"/>
<polygon fill="#63b8ff" stroke="#63b8ff" points="144.79,-137.75 154.79,-134.25 144.79,-130.75 144.79,-137.75"/>
</a>
</g>
</g>
<!-- Node4 -->
<g id="Node000004" class="node">
<title>Node4</title>
<g id="a_Node000004"><a xlink:href="$class_paragon_i_e___sodium___core___curve25519.html#a7a62200990869547d2aeca55fed70222" xlink:title=" ">
<polygon fill="white" stroke="#666666" points="699.5,-151.5 573.25,-151.5 573.25,-121 699.5,-121 699.5,-151.5"/>
<text text-anchor="start" x="581.25" y="-138" font-family="Helvetica,sans-Serif" font-size="10.00">ParagonIE_Sodium_Core</text>
<text text-anchor="middle" x="636.38" y="-126.75" font-family="Helvetica,sans-Serif" font-size="10.00">_Curve25519\fe_neg</text>
</a>
</g>
</g>
<!-- Node3&#45;&gt;Node4 -->
<g id="edge35_Node000003_Node000004" class="edge">
<title>Node3&#45;&gt;Node4</title>
<g id="a_edge35_Node000003_Node000004"><a xlink:title=" ">
<path fill="none" stroke="#63b8ff" d="M537.47,-136.25C544.65,-136.25 552.9,-136.25 561.49,-136.25"/>
<polygon fill="#63b8ff" stroke="#63b8ff" points="561.42,-139.75 571.42,-136.25 561.42,-132.75 561.42,-139.75"/>
</a>
</g>
</g>
<!-- Node5 -->
<g id="Node000005" class="node">
<title>Node5</title>
<g id="a_Node000005"><a xlink:href="$class_paragon_i_e___sodium___core___curve25519.html#ae05bd0648b1253432e7c969447d1b77e" xlink:title=" ">
<polygon fill="white" stroke="#666666" points="867.75,-130.5 735.5,-130.5 735.5,-100 867.75,-100 867.75,-130.5"/>
<text text-anchor="start" x="743.5" y="-117" font-family="Helvetica,sans-Serif" font-size="10.00">ParagonIE_Sodium_Core</text>
<text text-anchor="middle" x="801.62" y="-105.75" font-family="Helvetica,sans-Serif" font-size="10.00">_Curve25519\fe_normalize</text>
</a>
</g>
</g>
<!-- Node4&#45;&gt;Node5 -->
<g id="edge36_Node000004_Node000005" class="edge">
<title>Node4&#45;&gt;Node5</title>
<g id="a_edge36_Node000004_Node000005"><a xlink:title=" ">
<path fill="none" stroke="#63b8ff" d="M699.56,-128.25C707.46,-127.23 715.62,-126.19 723.71,-125.14"/>
<polygon fill="#63b8ff" stroke="#63b8ff" points="724.11,-128.62 733.58,-123.87 723.22,-121.68 724.11,-128.62"/>
</a>
</g>
</g>
<!-- Node5&#45;&gt;Node6 -->
<g id="edge37_Node000005_Node000006" class="edge">
<title>Node5&#45;&gt;Node6</title>
<g id="a_edge37_Node000005_Node000006"><a xlink:title=" ">
<path fill="none" stroke="#63b8ff" d="M868.08,-130.49C876.07,-132.35 884.28,-134.26 892.37,-136.14"/>
<polygon fill="#63b8ff" stroke="#63b8ff" points="891.31,-139.49 901.84,-138.35 892.9,-132.67 891.31,-139.49"/>
</a>
</g>
</g>
<!-- Node8&#45;&gt;Node5 -->
<g id="edge41_Node000008_Node000005" class="edge">
<title>Node8&#45;&gt;Node5</title>
<g id="a_edge41_Node000008_Node000005"><a xlink:title=" ">
<path fill="none" stroke="#63b8ff" d="M451.2,-96.59C524.26,-100.49 645.09,-106.94 723.78,-111.15"/>
<polygon fill="#63b8ff" stroke="#63b8ff" points="723.39,-114.63 733.56,-111.67 723.76,-107.64 723.39,-114.63"/>
</a>
</g>
</g>
<!-- Node9&#45;&gt;Node5 -->
<g id="edge43_Node000009_Node000005" class="edge">
<title>Node9&#45;&gt;Node5</title>
<g id="a_edge43_Node000009_Node000005"><a xlink:title=" ">
<path fill="none" stroke="#63b8ff" d="M451.2,-55.03C524.26,-67.62 645.09,-88.45 723.78,-102.01"/>
<polygon fill="#63b8ff" stroke="#63b8ff" points="723.13,-105.45 733.58,-103.7 724.32,-98.55 723.13,-105.45"/>
</a>
</g>
</g>
<!-- Node10&#45;&gt;Node8 -->
<g id="edge47_Node000010_Node000008" class="edge">
<title>Node10&#45;&gt;Node8</title>
<g id="a_edge47_Node000010_Node000008"><a xlink:title=" ">
<path fill="none" stroke="#63b8ff" d="M262.46,-124.22C277.81,-120.39 295.83,-115.9 313.3,-111.54"/>
<polygon fill="#63b8ff" stroke="#63b8ff" points="313.76,-115.03 322.62,-109.22 312.07,-108.24 313.76,-115.03"/>
</a>
</g>
</g>
<!-- Node10&#45;&gt;Node9 -->
<g id="edge48_Node000010_Node000009" class="edge">
<title>Node10&#45;&gt;Node9</title>
<g id="a_edge48_Node000010_Node000009"><a xlink:title=" ">
<path fill="none" stroke="#63b8ff" d="M236.32,-124.13C255.59,-110.54 291.57,-86.16 324.5,-69.25 327.71,-67.6 331.05,-65.99 334.44,-64.42"/>
<polygon fill="#63b8ff" stroke="#63b8ff" points="335.6,-67.74 343.33,-60.5 332.77,-61.34 335.6,-67.74"/>
</a>
</g>
</g>
<!-- Node11 -->
<g id="Node000011" class="node">
<title>Node11</title>
<g id="a_Node000011"><a xlink:href="$class_paragon_i_e___sodium___core___ristretto255.html#a0eb235a6349515622eaf8df07820986a" xlink:title=" ">
<polygon fill="white" stroke="#666666" points="410.25,-145.88 365,-145.88 365,-126.62 410.25,-126.62 410.25,-145.88"/>
<text text-anchor="middle" x="387.62" y="-132.38" font-family="Helvetica,sans-Serif" font-size="10.00">fe_abs</text>
</a>
</g>
</g>
<!-- Node10&#45;&gt;Node11 -->
<g id="edge45_Node000010_Node000011" class="edge">
<title>Node10&#45;&gt;Node11</title>
<g id="a_edge45_Node000010_Node000011"><a xlink:title=" ">
<path fill="none" stroke="#63b8ff" d="M286.27,-135.03C309.16,-135.31 334.02,-135.61 353.27,-135.84"/>
<polygon fill="#63b8ff" stroke="#63b8ff" points="353.19,-139.34 363.24,-135.97 353.28,-132.34 353.19,-139.34"/>
</a>
</g>
</g>
<!-- Node11&#45;&gt;Node3 -->
<g id="edge46_Node000011_Node000003" class="edge">
<title>Node11&#45;&gt;Node3</title>
<g id="a_edge46_Node000011_Node000003"><a xlink:title=" ">
<path fill="none" stroke="#63b8ff" d="M410.5,-136.25C428.4,-136.25 454.08,-136.25 475,-136.25"/>
<polygon fill="#63b8ff" stroke="#63b8ff" points="474.85,-139.75 484.85,-136.25 474.85,-132.75 474.85,-139.75"/>
</a>
</g>
</g>
</g>
</svg>
