<?xml version="1.0" encoding="UTF-8" standalone="no"?>
<!DOCTYPE svg PUBLIC "-//W3C//DTD SVG 1.1//EN"
 "http://www.w3.org/Graphics/SVG/1.1/DTD/svg11.dtd">
<!-- Generated by graphviz version 10.0.1 (20240210.2158)
 -->
<!-- Title: crypto_generichash Pages: 1 -->
<svg width="271pt" height="88pt"
 viewBox="0.00 0.00 271.00 87.50" xmlns="http://www.w3.org/2000/svg" xmlns:xlink="http://www.w3.org/1999/xlink">
<g id="graph0" class="graph" transform="scale(1 1) rotate(0) translate(4 83.5)">
<title>crypto_generichash</title>
<!-- Node1 -->
<g id="Node000001" class="node">
<title>Node1</title>
<g id="a_Node000001"><a xlink:title=" ">
<polygon fill="#999999" stroke="#666666" points="100.75,-48.88 0,-48.88 0,-29.62 100.75,-29.62 100.75,-48.88"/>
<text text-anchor="middle" x="50.38" y="-35.38" font-family="Helvetica,sans-Serif" font-size="10.00">crypto_generichash</text>
</a>
</g>
</g>
<!-- Node2 -->
<g id="Node000002" class="node">
<title>Node2</title>
<g id="a_Node000002"><a xlink:href="$class_paragon_i_e___sodium___core___util.html#a4fec61696c06b35a6c64a4a38afd3101" xlink:title=" ">
<polygon fill="white" stroke="#666666" points="263,-79.5 136.75,-79.5 136.75,-49 263,-49 263,-79.5"/>
<text text-anchor="start" x="144.75" y="-66" font-family="Helvetica,sans-Serif" font-size="10.00">ParagonIE_Sodium_Core</text>
<text text-anchor="middle" x="199.88" y="-54.75" font-family="Helvetica,sans-Serif" font-size="10.00">_Util\declareScalarType</text>
</a>
</g>
</g>
<!-- Node1&#45;&gt;Node2 -->
<g id="edge5_Node000001_Node000002" class="edge">
<title>Node1&#45;&gt;Node2</title>
<g id="a_edge5_Node000001_Node000002"><a xlink:title=" ">
<path fill="none" stroke="#63b8ff" d="M100.9,-47.64C108.73,-48.97 116.96,-50.37 125.19,-51.76"/>
<polygon fill="#63b8ff" stroke="#63b8ff" points="124.45,-55.18 134.89,-53.41 125.62,-48.28 124.45,-55.18"/>
</a>
</g>
</g>
<!-- Node3 -->
<g id="Node000003" class="node">
<title>Node3</title>
<g id="a_Node000003"><a xlink:href="$class_paragon_i_e___sodium___core___util.html#a4c29a687d4ed62c26a10e41d98930d5f" xlink:title=" ">
<polygon fill="white" stroke="#666666" points="263,-30.5 136.75,-30.5 136.75,0 263,0 263,-30.5"/>
<text text-anchor="start" x="144.75" y="-17" font-family="Helvetica,sans-Serif" font-size="10.00">ParagonIE_Sodium_Core</text>
<text text-anchor="middle" x="199.88" y="-5.75" font-family="Helvetica,sans-Serif" font-size="10.00">_Util\strlen</text>
</a>
</g>
</g>
<!-- Node1&#45;&gt;Node3 -->
<g id="edge6_Node000001_Node000003" class="edge">
<title>Node1&#45;&gt;Node3</title>
<g id="a_edge6_Node000001_Node000003"><a xlink:title=" ">
<path fill="none" stroke="#63b8ff" d="M100.9,-31.19C108.73,-29.92 116.96,-28.58 125.19,-27.24"/>
<polygon fill="#63b8ff" stroke="#63b8ff" points="125.58,-30.72 134.89,-25.66 124.46,-23.81 125.58,-30.72"/>
</a>
</g>
</g>
</g>
</svg>
