<?xml version="1.0" encoding="UTF-8" standalone="no"?>
<!DOCTYPE svg PUBLIC "-//W3C//DTD SVG 1.1//EN"
 "http://www.w3.org/Graphics/SVG/1.1/DTD/svg11.dtd">
<!-- Generated by graphviz version 10.0.1 (20240210.2158)
 -->
<!-- Title: currentTime Pages: 1 -->
<svg width="403pt" height="88pt"
 viewBox="0.00 0.00 403.25 87.50" xmlns="http://www.w3.org/2000/svg" xmlns:xlink="http://www.w3.org/1999/xlink">
<g id="graph0" class="graph" transform="scale(1 1) rotate(0) translate(4 83.5)">
<title>currentTime</title>
<!-- Node1 -->
<g id="Node000001" class="node">
<title>Node1</title>
<g id="a_Node000001"><a xlink:title=" ">
<polygon fill="#999999" stroke="#666666" points="395.25,-48.88 327.5,-48.88 327.5,-29.62 395.25,-29.62 395.25,-48.88"/>
<text text-anchor="middle" x="361.38" y="-35.38" font-family="Helvetica,sans-Serif" font-size="10.00">currentTime</text>
</a>
</g>
</g>
<!-- Node2 -->
<g id="Node000002" class="node">
<title>Node2</title>
<g id="a_Node000002"><a xlink:href="$class_guzzle_http_1_1_handler_1_1_stream_handler.html#a8b41a62c59d4d0d86e7525197f2904f5" xlink:title=" ">
<polygon fill="white" stroke="#666666" points="291.5,-79.5 165.25,-79.5 165.25,-49 291.5,-49 291.5,-79.5"/>
<text text-anchor="start" x="173.25" y="-66" font-family="Helvetica,sans-Serif" font-size="10.00">GuzzleHttp\Handler</text>
<text text-anchor="middle" x="228.38" y="-54.75" font-family="Helvetica,sans-Serif" font-size="10.00">\StreamHandler\__invoke</text>
</a>
</g>
</g>
<!-- Node1&#45;&gt;Node2 -->
<g id="edge7_Node000001_Node000002" class="edge">
<title>Node1&#45;&gt;Node2</title>
<g id="a_edge7_Node000001_Node000002"><a xlink:title=" ">
<path fill="none" stroke="#63b8ff" d="M316.2,-47.68C308.34,-49.18 300.03,-50.77 291.78,-52.34"/>
<polygon fill="#63b8ff" stroke="#63b8ff" points="316.66,-51.15 325.83,-45.84 315.35,-44.28 316.66,-51.15"/>
</a>
</g>
</g>
<!-- Node3 -->
<g id="Node000003" class="node">
<title>Node3</title>
<g id="a_Node000003"><a xlink:href="$class_guzzle_http_1_1_handler_1_1_curl_multi_handler.html#a3b0da19d9de6afef613e90d4845c62fc" xlink:title=" ">
<polygon fill="white" stroke="#666666" points="283.62,-30.5 173.12,-30.5 173.12,0 283.62,0 283.62,-30.5"/>
<text text-anchor="start" x="181.12" y="-17" font-family="Helvetica,sans-Serif" font-size="10.00">GuzzleHttp\Handler</text>
<text text-anchor="middle" x="228.38" y="-5.75" font-family="Helvetica,sans-Serif" font-size="10.00">\CurlMultiHandler\tick</text>
</a>
</g>
</g>
<!-- Node1&#45;&gt;Node3 -->
<g id="edge8_Node000001_Node000003" class="edge">
<title>Node1&#45;&gt;Node3</title>
<g id="a_edge8_Node000001_Node000003"><a xlink:title=" ">
<path fill="none" stroke="#63b8ff" d="M316.1,-31.14C305.82,-29.26 294.76,-27.23 284.08,-25.27"/>
<polygon fill="#63b8ff" stroke="#63b8ff" points="315.36,-34.56 325.83,-32.92 316.62,-27.68 315.36,-34.56"/>
</a>
</g>
</g>
<!-- Node4 -->
<g id="Node000004" class="node">
<title>Node4</title>
<g id="a_Node000004"><a xlink:href="$class_guzzle_http_1_1_handler_1_1_curl_multi_handler.html#a1909f4b7f8129c7790cb75de2ffbe1e4" xlink:title=" ">
<polygon fill="white" stroke="#666666" points="129.25,-30.5 0,-30.5 0,0 129.25,0 129.25,-30.5"/>
<text text-anchor="start" x="8" y="-17" font-family="Helvetica,sans-Serif" font-size="10.00">GuzzleHttp\Handler</text>
<text text-anchor="middle" x="64.62" y="-5.75" font-family="Helvetica,sans-Serif" font-size="10.00">\CurlMultiHandler\execute</text>
</a>
</g>
</g>
<!-- Node3&#45;&gt;Node4 -->
<g id="edge9_Node000003_Node000004" class="edge">
<title>Node3&#45;&gt;Node4</title>
<g id="a_edge9_Node000003_Node000004"><a xlink:title=" ">
<path fill="none" stroke="#63b8ff" d="M161.73,-15.25C151.13,-15.25 140.16,-15.25 129.59,-15.25"/>
<polygon fill="#63b8ff" stroke="#63b8ff" points="161.55,-18.75 171.55,-15.25 161.55,-11.75 161.55,-18.75"/>
</a>
</g>
</g>
</g>
</svg>
