<?xml version="1.0" encoding="UTF-8" standalone="no"?>
<!DOCTYPE svg PUBLIC "-//W3C//DTD SVG 1.1//EN"
 "http://www.w3.org/Graphics/SVG/1.1/DTD/svg11.dtd">
<!-- Generated by graphviz version 10.0.1 (20240210.2158)
 -->
<!-- Title: log Pages: 1 -->
<svg width="594pt" height="598pt"
 viewBox="0.00 0.00 594.05 598.12" xmlns="http://www.w3.org/2000/svg" xmlns:xlink="http://www.w3.org/1999/xlink">
<g id="graph0" class="graph" transform="scale(1 1) rotate(0) translate(4 594.12)">
<title>log</title>
<!-- Node1 -->
<g id="Node000001" class="node">
<title>Node1</title>
<g id="a_Node000001"><a xlink:title=" ">
<polygon fill="#999999" stroke="#666666" points="586.05,-301.5 557.25,-301.5 557.25,-282.25 586.05,-282.25 586.05,-301.5"/>
<text text-anchor="middle" x="571.65" y="-288" font-family="Helvetica,sans-Serif" font-size="10.00">log</text>
</a>
</g>
</g>
<!-- Node2 -->
<g id="Node000002" class="node">
<title>Node2</title>
<g id="a_Node000002"><a xlink:href="$namespace_symfony_1_1_component_1_1_cache_1_1_traits.html#adf649728f5f9cccc5453bdd2818e9ef1" xlink:title=" ">
<polygon fill="white" stroke="#666666" points="506.25,-590.12 366.5,-590.12 366.5,-559.62 506.25,-559.62 506.25,-590.12"/>
<text text-anchor="start" x="374.5" y="-576.62" font-family="Helvetica,sans-Serif" font-size="10.00">Symfony\Component\Cache</text>
<text text-anchor="middle" x="436.38" y="-565.38" font-family="Helvetica,sans-Serif" font-size="10.00">\Traits\clear</text>
</a>
</g>
</g>
<!-- Node1&#45;&gt;Node2 -->
<g id="edge35_Node000001_Node000002" class="edge">
<title>Node1&#45;&gt;Node2</title>
<g id="a_edge35_Node000001_Node000002"><a xlink:title=" ">
<path fill="none" stroke="#63b8ff" d="M569.42,-312.96C565.77,-368.31 553.19,-515.92 521.25,-550.88 517.06,-555.46 512.06,-559.19 506.62,-562.23"/>
<polygon fill="#63b8ff" stroke="#63b8ff" points="572.89,-313.51 570.02,-303.31 565.91,-313.07 572.89,-313.51"/>
</a>
</g>
</g>
<!-- Node3 -->
<g id="Node000003" class="node">
<title>Node3</title>
<g id="a_Node000003"><a xlink:href="$class_symfony_1_1_component_1_1_cache_1_1_adapter_1_1_abstract_adapter.html#af5674c27d4a92f6228565010eacbb9cb" xlink:title=" ">
<polygon fill="white" stroke="#666666" points="506.25,-541.75 366.5,-541.75 366.5,-500 506.25,-500 506.25,-541.75"/>
<text text-anchor="start" x="374.5" y="-528.25" font-family="Helvetica,sans-Serif" font-size="10.00">Symfony\Component\Cache</text>
<text text-anchor="start" x="374.5" y="-517" font-family="Helvetica,sans-Serif" font-size="10.00">\Adapter\AbstractAdapter</text>
<text text-anchor="middle" x="436.38" y="-505.75" font-family="Helvetica,sans-Serif" font-size="10.00">\commit</text>
</a>
</g>
</g>
<!-- Node1&#45;&gt;Node3 -->
<g id="edge36_Node000001_Node000003" class="edge">
<title>Node1&#45;&gt;Node3</title>
<g id="a_edge36_Node000001_Node000003"><a xlink:title=" ">
<path fill="none" stroke="#63b8ff" d="M571.52,-313.04C572,-352.98 567.26,-440.01 521.25,-490.88 517,-495.58 511.95,-499.54 506.48,-502.89"/>
<polygon fill="#63b8ff" stroke="#63b8ff" points="575.02,-313.04 571.26,-303.14 568.03,-313.23 575.02,-313.04"/>
</a>
</g>
</g>
<!-- Node4 -->
<g id="Node000004" class="node">
<title>Node4</title>
<g id="a_Node000004"><a xlink:href="$class_symfony_1_1_component_1_1_cache_1_1_adapter_1_1_abstract_tag_aware_adapter.html#af5674c27d4a92f6228565010eacbb9cb" xlink:title=" ">
<polygon fill="white" stroke="#666666" points="521.25,-481.75 351.5,-481.75 351.5,-440 521.25,-440 521.25,-481.75"/>
<text text-anchor="start" x="359.5" y="-468.25" font-family="Helvetica,sans-Serif" font-size="10.00">Symfony\Component\Cache</text>
<text text-anchor="start" x="359.5" y="-457" font-family="Helvetica,sans-Serif" font-size="10.00">\Adapter\AbstractTagAwareAdapter</text>
<text text-anchor="middle" x="436.38" y="-445.75" font-family="Helvetica,sans-Serif" font-size="10.00">\commit</text>
</a>
</g>
</g>
<!-- Node1&#45;&gt;Node4 -->
<g id="edge37_Node000001_Node000004" class="edge">
<title>Node1&#45;&gt;Node4</title>
<g id="a_edge37_Node000001_Node000004"><a xlink:title=" ">
<path fill="none" stroke="#63b8ff" d="M568.74,-313.04C564.93,-343.17 553.7,-398.36 521.25,-430.88 517.97,-434.16 514.31,-437.09 510.4,-439.69"/>
<polygon fill="#63b8ff" stroke="#63b8ff" points="572.2,-313.63 569.8,-303.31 565.24,-312.87 572.2,-313.63"/>
</a>
</g>
</g>
<!-- Node5 -->
<g id="Node000005" class="node">
<title>Node5</title>
<g id="a_Node000005"><a xlink:href="$class_symfony_1_1_component_1_1_cache_1_1_adapter_1_1_abstract_tag_aware_adapter.html#af2ea95b29ace70903b16c4760efbf3d0" xlink:title=" ">
<polygon fill="white" stroke="#666666" points="521.25,-421.75 351.5,-421.75 351.5,-380 521.25,-380 521.25,-421.75"/>
<text text-anchor="start" x="359.5" y="-408.25" font-family="Helvetica,sans-Serif" font-size="10.00">Symfony\Component\Cache</text>
<text text-anchor="start" x="359.5" y="-397" font-family="Helvetica,sans-Serif" font-size="10.00">\Adapter\AbstractTagAwareAdapter</text>
<text text-anchor="middle" x="436.38" y="-385.75" font-family="Helvetica,sans-Serif" font-size="10.00">\deleteItems</text>
</a>
</g>
</g>
<!-- Node1&#45;&gt;Node5 -->
<g id="edge38_Node000001_Node000005" class="edge">
<title>Node1&#45;&gt;Node5</title>
<g id="a_edge38_Node000001_Node000005"><a xlink:title=" ">
<path fill="none" stroke="#63b8ff" d="M561.37,-312.02C552.93,-328.43 539.08,-351.2 521.25,-365.88 514.92,-371.09 507.69,-375.63 500.21,-379.55"/>
<polygon fill="#63b8ff" stroke="#63b8ff" points="564.43,-313.74 565.67,-303.22 558.14,-310.67 564.43,-313.74"/>
</a>
</g>
</g>
<!-- Node6 -->
<g id="Node000006" class="node">
<title>Node6</title>
<g id="a_Node000006"><a xlink:href="$namespace_symfony_1_1_component_1_1_cache_1_1_traits.html#af2ea95b29ace70903b16c4760efbf3d0" xlink:title=" ">
<polygon fill="white" stroke="#666666" points="315.5,-366.12 175.75,-366.12 175.75,-335.62 315.5,-335.62 315.5,-366.12"/>
<text text-anchor="start" x="183.75" y="-352.62" font-family="Helvetica,sans-Serif" font-size="10.00">Symfony\Component\Cache</text>
<text text-anchor="middle" x="245.62" y="-341.38" font-family="Helvetica,sans-Serif" font-size="10.00">\Traits\deleteItems</text>
</a>
</g>
</g>
<!-- Node1&#45;&gt;Node6 -->
<g id="edge39_Node000001_Node000006" class="edge">
<title>Node1&#45;&gt;Node6</title>
<g id="a_edge39_Node000001_Node000006"><a xlink:title=" ">
<path fill="none" stroke="#63b8ff" d="M546.67,-302.33C538.7,-305.47 529.71,-308.66 521.25,-310.88 452.5,-328.86 371.8,-339.4 315.75,-345.1"/>
<polygon fill="#63b8ff" stroke="#63b8ff" points="547.77,-305.66 555.68,-298.61 545.1,-299.19 547.77,-305.66"/>
</a>
</g>
</g>
<!-- Node8 -->
<g id="Node000008" class="node">
<title>Node8</title>
<g id="a_Node000008"><a xlink:href="$class_symfony_1_1_component_1_1_cache_1_1_adapter_1_1_redis_tag_aware_adapter.html#ae5fd474b39883a8a891a61a30664280a" xlink:title=" ">
<polygon fill="white" stroke="#666666" points="515.62,-161.75 357.12,-161.75 357.12,-120 515.62,-120 515.62,-161.75"/>
<text text-anchor="start" x="365.12" y="-148.25" font-family="Helvetica,sans-Serif" font-size="10.00">Symfony\Component\Cache</text>
<text text-anchor="start" x="365.12" y="-137" font-family="Helvetica,sans-Serif" font-size="10.00">\Adapter\RedisTagAwareAdapter</text>
<text text-anchor="middle" x="436.38" y="-125.75" font-family="Helvetica,sans-Serif" font-size="10.00">\doDeleteYieldTags</text>
</a>
</g>
</g>
<!-- Node1&#45;&gt;Node8 -->
<g id="edge41_Node000001_Node000008" class="edge">
<title>Node1&#45;&gt;Node8</title>
<g id="a_edge41_Node000001_Node000008"><a xlink:title=" ">
<path fill="none" stroke="#63b8ff" d="M566.8,-271.12C561.07,-245.58 547.95,-202.38 521.25,-175.88 515.88,-170.54 509.57,-165.97 502.86,-162.08"/>
<polygon fill="#63b8ff" stroke="#63b8ff" points="563.31,-271.5 568.75,-280.6 570.17,-270.1 563.31,-271.5"/>
</a>
</g>
</g>
<!-- Node9 -->
<g id="Node000009" class="node">
<title>Node9</title>
<g id="a_Node000009"><a xlink:href="$class_symfony_1_1_component_1_1_cache_1_1_adapter_1_1_redis_tag_aware_adapter.html#a321d76df3e7904bfa502480c88c10474" xlink:title=" ">
<polygon fill="white" stroke="#666666" points="515.62,-101.75 357.12,-101.75 357.12,-60 515.62,-60 515.62,-101.75"/>
<text text-anchor="start" x="365.12" y="-88.25" font-family="Helvetica,sans-Serif" font-size="10.00">Symfony\Component\Cache</text>
<text text-anchor="start" x="365.12" y="-77" font-family="Helvetica,sans-Serif" font-size="10.00">\Adapter\RedisTagAwareAdapter</text>
<text text-anchor="middle" x="436.38" y="-65.75" font-family="Helvetica,sans-Serif" font-size="10.00">\doInvalidate</text>
</a>
</g>
</g>
<!-- Node1&#45;&gt;Node9 -->
<g id="edge42_Node000001_Node000009" class="edge">
<title>Node1&#45;&gt;Node9</title>
<g id="a_edge42_Node000001_Node000009"><a xlink:title=" ">
<path fill="none" stroke="#63b8ff" d="M570.87,-270.83C570.11,-233.7 563.21,-156.2 521.25,-110.88 518.2,-107.58 514.77,-104.65 511.08,-102.04"/>
<polygon fill="#63b8ff" stroke="#63b8ff" points="567.37,-270.67 570.92,-280.65 574.37,-270.63 567.37,-270.67"/>
</a>
</g>
</g>
<!-- Node10 -->
<g id="Node000010" class="node">
<title>Node10</title>
<g id="a_Node000010"><a xlink:href="$namespace_symfony_1_1_component_1_1_cache_1_1_traits.html#ac90342ca94551e85804dfa1a4790a305" xlink:title=" ">
<polygon fill="white" stroke="#666666" points="506.25,-286.12 366.5,-286.12 366.5,-255.62 506.25,-255.62 506.25,-286.12"/>
<text text-anchor="start" x="374.5" y="-272.62" font-family="Helvetica,sans-Serif" font-size="10.00">Symfony\Component\Cache</text>
<text text-anchor="middle" x="436.38" y="-261.38" font-family="Helvetica,sans-Serif" font-size="10.00">\Traits\getId</text>
</a>
</g>
</g>
<!-- Node1&#45;&gt;Node10 -->
<g id="edge43_Node000001_Node000010" class="edge">
<title>Node1&#45;&gt;Node10</title>
<g id="a_edge43_Node000001_Node000010"><a xlink:title=" ">
<path fill="none" stroke="#63b8ff" d="M545.85,-287.97C534.6,-286.2 520.68,-284 506.61,-281.78"/>
<polygon fill="#63b8ff" stroke="#63b8ff" points="544.97,-291.37 555.39,-289.47 546.06,-284.46 544.97,-291.37"/>
</a>
</g>
</g>
<!-- Node11 -->
<g id="Node000011" class="node">
<title>Node11</title>
<g id="a_Node000011"><a xlink:href="$namespace_symfony_1_1_component_1_1_cache_1_1_traits.html#ac2c9d62db1d0ef7b0886d886c5103332" xlink:title=" ">
<polygon fill="white" stroke="#666666" points="315.5,-316.12 175.75,-316.12 175.75,-285.62 315.5,-285.62 315.5,-316.12"/>
<text text-anchor="start" x="183.75" y="-302.62" font-family="Helvetica,sans-Serif" font-size="10.00">Symfony\Component\Cache</text>
<text text-anchor="middle" x="245.62" y="-291.38" font-family="Helvetica,sans-Serif" font-size="10.00">\Traits\getItem</text>
</a>
</g>
</g>
<!-- Node1&#45;&gt;Node11 -->
<g id="edge48_Node000001_Node000011" class="edge">
<title>Node1&#45;&gt;Node11</title>
<g id="a_edge48_Node000001_Node000011"><a xlink:title=" ">
<path fill="none" stroke="#63b8ff" d="M545.5,-293.59C537.73,-294.07 529.14,-294.55 521.25,-294.88 451.33,-297.76 371.32,-299.31 315.78,-300.11"/>
<polygon fill="#63b8ff" stroke="#63b8ff" points="545.55,-297.1 555.31,-292.96 545.1,-290.11 545.55,-297.1"/>
</a>
</g>
</g>
<!-- Node12 -->
<g id="Node000012" class="node">
<title>Node12</title>
<g id="a_Node000012"><a xlink:href="$namespace_symfony_1_1_component_1_1_cache_1_1_traits.html#a3db5bc3828085ecc62d0c6eff743dcff" xlink:title=" ">
<polygon fill="white" stroke="#666666" points="315.5,-265.12 175.75,-265.12 175.75,-234.62 315.5,-234.62 315.5,-265.12"/>
<text text-anchor="start" x="183.75" y="-251.62" font-family="Helvetica,sans-Serif" font-size="10.00">Symfony\Component\Cache</text>
<text text-anchor="middle" x="245.62" y="-240.38" font-family="Helvetica,sans-Serif" font-size="10.00">\Traits\getItems</text>
</a>
</g>
</g>
<!-- Node1&#45;&gt;Node12 -->
<g id="edge49_Node000001_Node000012" class="edge">
<title>Node1&#45;&gt;Node12</title>
<g id="a_edge49_Node000001_Node000012"><a xlink:title=" ">
<path fill="none" stroke="#63b8ff" d="M556.47,-273.54C547.57,-263.6 535.17,-252.26 521.25,-246.88 455,-221.22 372.84,-226.45 315.73,-235.3"/>
<polygon fill="#63b8ff" stroke="#63b8ff" points="553.53,-275.48 562.62,-280.91 558.9,-270.99 553.53,-275.48"/>
</a>
</g>
</g>
<!-- Node13 -->
<g id="Node000013" class="node">
<title>Node13</title>
<g id="a_Node000013"><a xlink:href="$namespace_symfony_1_1_component_1_1_cache_1_1_traits.html#af52c0b56089f49bf62ff41b59b2b0b19" xlink:title=" ">
<polygon fill="white" stroke="#666666" points="315.5,-212.12 175.75,-212.12 175.75,-181.62 315.5,-181.62 315.5,-212.12"/>
<text text-anchor="start" x="183.75" y="-198.62" font-family="Helvetica,sans-Serif" font-size="10.00">Symfony\Component\Cache</text>
<text text-anchor="middle" x="245.62" y="-187.38" font-family="Helvetica,sans-Serif" font-size="10.00">\Traits\hasItem</text>
</a>
</g>
</g>
<!-- Node1&#45;&gt;Node13 -->
<g id="edge50_Node000001_Node000013" class="edge">
<title>Node1&#45;&gt;Node13</title>
<g id="a_edge50_Node000001_Node000013"><a xlink:title=" ">
<path fill="none" stroke="#63b8ff" d="M561.49,-271.59C553.3,-256 539.73,-235.42 521.25,-224.88 458.5,-189.07 374.42,-185.72 315.9,-189.02"/>
<polygon fill="#63b8ff" stroke="#63b8ff" points="558.3,-273.03 565.83,-280.48 564.58,-269.95 558.3,-273.03"/>
</a>
</g>
</g>
<!-- Node14 -->
<g id="Node000014" class="node">
<title>Node14</title>
<g id="a_Node000014"><a xlink:href="$class_symfony_1_1_component_1_1_cache_1_1_adapter_1_1_abstract_tag_aware_adapter.html#a15076f1456ec4b1aa1152c957f8a3134" xlink:title=" ">
<polygon fill="white" stroke="#666666" points="521.25,-41.75 351.5,-41.75 351.5,0 521.25,0 521.25,-41.75"/>
<text text-anchor="start" x="359.5" y="-28.25" font-family="Helvetica,sans-Serif" font-size="10.00">Symfony\Component\Cache</text>
<text text-anchor="start" x="359.5" y="-17" font-family="Helvetica,sans-Serif" font-size="10.00">\Adapter\AbstractTagAwareAdapter</text>
<text text-anchor="middle" x="436.38" y="-5.75" font-family="Helvetica,sans-Serif" font-size="10.00">\invalidateTags</text>
</a>
</g>
</g>
<!-- Node1&#45;&gt;Node14 -->
<g id="edge51_Node000001_Node000014" class="edge">
<title>Node1&#45;&gt;Node14</title>
<g id="a_edge51_Node000001_Node000014"><a xlink:title=" ">
<path fill="none" stroke="#63b8ff" d="M568.94,-270.64C564.31,-218.1 549.89,-83.88 521.25,-50.88 518.41,-47.6 515.19,-44.69 511.71,-42.09"/>
<polygon fill="#63b8ff" stroke="#63b8ff" points="565.43,-270.69 569.76,-280.36 572.41,-270.1 565.43,-270.69"/>
</a>
</g>
</g>
<!-- Node7 -->
<g id="Node000007" class="node">
<title>Node7</title>
<g id="a_Node000007"><a xlink:href="$namespace_symfony_1_1_component_1_1_cache_1_1_traits.html#a57019c6883a4447e87e4e12b8105834f" xlink:title=" ">
<polygon fill="white" stroke="#666666" points="139.75,-366.12 0,-366.12 0,-335.62 139.75,-335.62 139.75,-366.12"/>
<text text-anchor="start" x="8" y="-352.62" font-family="Helvetica,sans-Serif" font-size="10.00">Symfony\Component\Cache</text>
<text text-anchor="middle" x="69.88" y="-341.38" font-family="Helvetica,sans-Serif" font-size="10.00">\Traits\deleteItem</text>
</a>
</g>
</g>
<!-- Node6&#45;&gt;Node7 -->
<g id="edge40_Node000006_Node000007" class="edge">
<title>Node6&#45;&gt;Node7</title>
<g id="a_edge40_Node000006_Node000007"><a xlink:title=" ">
<path fill="none" stroke="#63b8ff" d="M164.16,-350.88C156.12,-350.88 148,-350.88 140.09,-350.88"/>
<polygon fill="#63b8ff" stroke="#63b8ff" points="163.94,-354.38 173.94,-350.88 163.94,-347.38 163.94,-354.38"/>
</a>
</g>
</g>
<!-- Node10&#45;&gt;Node6 -->
<g id="edge44_Node000010_Node000006" class="edge">
<title>Node10&#45;&gt;Node6</title>
<g id="a_edge44_Node000010_Node000006"><a xlink:title=" ">
<path fill="none" stroke="#63b8ff" d="M391.74,-291.32C369.13,-301.71 340.99,-314.33 315.5,-324.88 307.11,-328.34 298.08,-331.89 289.41,-335.2"/>
<polygon fill="#63b8ff" stroke="#63b8ff" points="393.05,-294.57 400.66,-287.2 390.11,-288.22 393.05,-294.57"/>
</a>
</g>
</g>
<!-- Node10&#45;&gt;Node11 -->
<g id="edge45_Node000010_Node000011" class="edge">
<title>Node10&#45;&gt;Node11</title>
<g id="a_edge45_Node000010_Node000011"><a xlink:title=" ">
<path fill="none" stroke="#63b8ff" d="M354.86,-283.67C341.87,-285.74 328.52,-287.86 315.83,-289.88"/>
<polygon fill="#63b8ff" stroke="#63b8ff" points="355.34,-287.14 364.67,-282.11 354.24,-280.23 355.34,-287.14"/>
</a>
</g>
</g>
<!-- Node10&#45;&gt;Node12 -->
<g id="edge46_Node000010_Node000012" class="edge">
<title>Node10&#45;&gt;Node12</title>
<g id="a_edge46_Node000010_Node000012"><a xlink:title=" ">
<path fill="none" stroke="#63b8ff" d="M354.86,-261.92C341.87,-260.47 328.52,-258.99 315.83,-257.57"/>
<polygon fill="#63b8ff" stroke="#63b8ff" points="354.33,-265.38 364.66,-263.01 355.11,-258.42 354.33,-265.38"/>
</a>
</g>
</g>
<!-- Node10&#45;&gt;Node13 -->
<g id="edge47_Node000010_Node000013" class="edge">
<title>Node10&#45;&gt;Node13</title>
<g id="a_edge47_Node000010_Node000013"><a xlink:title=" ">
<path fill="none" stroke="#63b8ff" d="M384.82,-251.05C354.03,-238.98 315.24,-223.77 286.6,-212.55"/>
<polygon fill="#63b8ff" stroke="#63b8ff" points="383.35,-254.24 393.94,-254.63 385.9,-247.72 383.35,-254.24"/>
</a>
</g>
</g>
</g>
</svg>
