<?xml version="1.0" encoding="UTF-8" standalone="no"?>
<!DOCTYPE svg PUBLIC "-//W3C//DTD SVG 1.1//EN"
 "http://www.w3.org/Graphics/SVG/1.1/DTD/svg11.dtd">
<!-- Generated by graphviz version 10.0.1 (20240210.2158)
 -->
<!-- Title: __construct Pages: 1 -->
<svg width="410pt" height="88pt"
 viewBox="0.00 0.00 410.00 87.50" xmlns="http://www.w3.org/2000/svg" xmlns:xlink="http://www.w3.org/1999/xlink">
<g id="graph0" class="graph" transform="scale(1 1) rotate(0) translate(4 83.5)">
<title>__construct</title>
<!-- Node1 -->
<g id="Node000001" class="node">
<title>Node1</title>
<g id="a_Node000001"><a xlink:title=" ">
<polygon fill="#999999" stroke="#666666" points="67,-48.88 0,-48.88 0,-29.62 67,-29.62 67,-48.88"/>
<text text-anchor="middle" x="33.5" y="-35.38" font-family="Helvetica,sans-Serif" font-size="10.00">__construct</text>
</a>
</g>
</g>
<!-- Node2 -->
<g id="Node000002" class="node">
<title>Node2</title>
<g id="a_Node000002"><a xlink:href="$class_paragon_i_e___sodium___core32___int32.html#a0bfd523ab9a06c433a9397f2f391abbd" xlink:title=" ">
<polygon fill="white" stroke="#666666" points="239.75,-54.5 103,-54.5 103,-24 239.75,-24 239.75,-54.5"/>
<text text-anchor="start" x="111" y="-41" font-family="Helvetica,sans-Serif" font-size="10.00">ParagonIE_Sodium_Core32</text>
<text text-anchor="middle" x="171.38" y="-29.75" font-family="Helvetica,sans-Serif" font-size="10.00">_Int32\fromReverseString</text>
</a>
</g>
</g>
<!-- Node1&#45;&gt;Node2 -->
<g id="edge7_Node000001_Node000002" class="edge">
<title>Node1&#45;&gt;Node2</title>
<g id="a_edge7_Node000001_Node000002"><a xlink:title=" ">
<path fill="none" stroke="#63b8ff" d="M67.39,-39.25C74.74,-39.25 82.83,-39.25 91.16,-39.25"/>
<polygon fill="#63b8ff" stroke="#63b8ff" points="91.1,-42.75 101.1,-39.25 91.1,-35.75 91.1,-42.75"/>
</a>
</g>
</g>
<!-- Node3 -->
<g id="Node000003" class="node">
<title>Node3</title>
<g id="a_Node000003"><a xlink:href="$class_paragon_i_e___sodium___core___util.html#a4fec61696c06b35a6c64a4a38afd3101" xlink:title=" ">
<polygon fill="white" stroke="#666666" points="402,-79.5 275.75,-79.5 275.75,-49 402,-49 402,-79.5"/>
<text text-anchor="start" x="283.75" y="-66" font-family="Helvetica,sans-Serif" font-size="10.00">ParagonIE_Sodium_Core</text>
<text text-anchor="middle" x="338.88" y="-54.75" font-family="Helvetica,sans-Serif" font-size="10.00">_Util\declareScalarType</text>
</a>
</g>
</g>
<!-- Node2&#45;&gt;Node3 -->
<g id="edge8_Node000002_Node000003" class="edge">
<title>Node2&#45;&gt;Node3</title>
<g id="a_edge8_Node000002_Node000003"><a xlink:title=" ">
<path fill="none" stroke="#63b8ff" d="M240.17,-49.49C248.12,-50.69 256.25,-51.92 264.28,-53.13"/>
<polygon fill="#63b8ff" stroke="#63b8ff" points="263.6,-56.57 274.01,-54.6 264.65,-49.65 263.6,-56.57"/>
</a>
</g>
</g>
<!-- Node4 -->
<g id="Node000004" class="node">
<title>Node4</title>
<g id="a_Node000004"><a xlink:href="$class_paragon_i_e___sodium___core___util.html#a4c29a687d4ed62c26a10e41d98930d5f" xlink:title=" ">
<polygon fill="white" stroke="#666666" points="402,-30.5 275.75,-30.5 275.75,0 402,0 402,-30.5"/>
<text text-anchor="start" x="283.75" y="-17" font-family="Helvetica,sans-Serif" font-size="10.00">ParagonIE_Sodium_Core</text>
<text text-anchor="middle" x="338.88" y="-5.75" font-family="Helvetica,sans-Serif" font-size="10.00">_Util\strlen</text>
</a>
</g>
</g>
<!-- Node2&#45;&gt;Node4 -->
<g id="edge9_Node000002_Node000004" class="edge">
<title>Node2&#45;&gt;Node4</title>
<g id="a_edge9_Node000002_Node000004"><a xlink:title=" ">
<path fill="none" stroke="#63b8ff" d="M240.17,-29.42C248.12,-28.27 256.25,-27.09 264.28,-25.92"/>
<polygon fill="#63b8ff" stroke="#63b8ff" points="264.62,-29.41 274.01,-24.51 263.61,-22.48 264.62,-29.41"/>
</a>
</g>
</g>
</g>
</svg>
