<?xml version="1.0" encoding="UTF-8" standalone="no"?>
<!DOCTYPE svg PUBLIC "-//W3C//DTD SVG 1.1//EN"
 "http://www.w3.org/Graphics/SVG/1.1/DTD/svg11.dtd">
<!-- Generated by graphviz version 10.0.1 (20240210.2158)
 -->
<!-- Title: crypto_aead_aes256gcm_encrypt Pages: 1 -->
<svg width="295pt" height="88pt"
 viewBox="0.00 0.00 295.00 87.50" xmlns="http://www.w3.org/2000/svg" xmlns:xlink="http://www.w3.org/1999/xlink">
<g id="graph0" class="graph" transform="scale(1 1) rotate(0) translate(4 83.5)">
<title>crypto_aead_aes256gcm_encrypt</title>
<!-- Node1 -->
<g id="Node000001" class="node">
<title>Node1</title>
<g id="a_Node000001"><a xlink:title=" ">
<polygon fill="#999999" stroke="#666666" points="124.75,-54.5 0,-54.5 0,-24 124.75,-24 124.75,-54.5"/>
<text text-anchor="start" x="8" y="-41" font-family="Helvetica,sans-Serif" font-size="10.00">crypto_aead_aes256gcm</text>
<text text-anchor="middle" x="62.38" y="-29.75" font-family="Helvetica,sans-Serif" font-size="10.00">_encrypt</text>
</a>
</g>
</g>
<!-- Node2 -->
<g id="Node000002" class="node">
<title>Node2</title>
<g id="a_Node000002"><a xlink:href="$class_paragon_i_e___sodium___core___util.html#a4fec61696c06b35a6c64a4a38afd3101" xlink:title=" ">
<polygon fill="white" stroke="#666666" points="287,-79.5 160.75,-79.5 160.75,-49 287,-49 287,-79.5"/>
<text text-anchor="start" x="168.75" y="-66" font-family="Helvetica,sans-Serif" font-size="10.00">ParagonIE_Sodium_Core</text>
<text text-anchor="middle" x="223.88" y="-54.75" font-family="Helvetica,sans-Serif" font-size="10.00">_Util\declareScalarType</text>
</a>
</g>
</g>
<!-- Node1&#45;&gt;Node2 -->
<g id="edge5_Node000001_Node000002" class="edge">
<title>Node1&#45;&gt;Node2</title>
<g id="a_edge5_Node000001_Node000002"><a xlink:title=" ">
<path fill="none" stroke="#63b8ff" d="M125.04,-48.92C132.91,-50.15 141.02,-51.42 149.05,-52.68"/>
<polygon fill="#63b8ff" stroke="#63b8ff" points="148.4,-56.12 158.82,-54.21 149.49,-49.2 148.4,-56.12"/>
</a>
</g>
</g>
<!-- Node3 -->
<g id="Node000003" class="node">
<title>Node3</title>
<g id="a_Node000003"><a xlink:href="$class_paragon_i_e___sodium___core___util.html#a4c29a687d4ed62c26a10e41d98930d5f" xlink:title=" ">
<polygon fill="white" stroke="#666666" points="287,-30.5 160.75,-30.5 160.75,0 287,0 287,-30.5"/>
<text text-anchor="start" x="168.75" y="-17" font-family="Helvetica,sans-Serif" font-size="10.00">ParagonIE_Sodium_Core</text>
<text text-anchor="middle" x="223.88" y="-5.75" font-family="Helvetica,sans-Serif" font-size="10.00">_Util\strlen</text>
</a>
</g>
</g>
<!-- Node1&#45;&gt;Node3 -->
<g id="edge6_Node000001_Node000003" class="edge">
<title>Node1&#45;&gt;Node3</title>
<g id="a_edge6_Node000001_Node000003"><a xlink:title=" ">
<path fill="none" stroke="#63b8ff" d="M125.04,-29.97C132.91,-28.79 141.02,-27.57 149.05,-26.36"/>
<polygon fill="#63b8ff" stroke="#63b8ff" points="149.45,-29.84 158.82,-24.89 148.41,-22.91 149.45,-29.84"/>
</a>
</g>
</g>
</g>
</svg>
