<?xml version="1.0" encoding="UTF-8" standalone="no"?>
<!DOCTYPE svg PUBLIC "-//W3C//DTD SVG 1.1//EN"
 "http://www.w3.org/Graphics/SVG/1.1/DTD/svg11.dtd">
<!-- Generated by graphviz version 10.0.1 (20240210.2158)
 -->
<!-- Title: setOptions Pages: 1 -->
<svg width="486pt" height="27pt"
 viewBox="0.00 0.00 486.00 27.25" xmlns="http://www.w3.org/2000/svg" xmlns:xlink="http://www.w3.org/1999/xlink">
<g id="graph0" class="graph" transform="scale(1 1) rotate(0) translate(4 23.25)">
<title>setOptions</title>
<!-- Node1 -->
<g id="Node000001" class="node">
<title>Node1</title>
<g id="a_Node000001"><a xlink:title=" ">
<polygon fill="#999999" stroke="#666666" points="63.25,-19.25 0,-19.25 0,0 63.25,0 63.25,-19.25"/>
<text text-anchor="middle" x="31.62" y="-5.75" font-family="Helvetica,sans-Serif" font-size="10.00">setOptions</text>
</a>
</g>
</g>
<!-- Node2 -->
<g id="Node000002" class="node">
<title>Node2</title>
<g id="a_Node000002"><a xlink:href="$class_laminas_1_1_loader_1_1_class_map_autoloader.html#a5af2ee1c0daa895e80152d8f9593e8ca" xlink:title=" ">
<polygon fill="white" stroke="#666666" points="209.75,-19.25 99.25,-19.25 99.25,0 209.75,0 209.75,-19.25"/>
<text text-anchor="middle" x="154.5" y="-5.75" font-family="Helvetica,sans-Serif" font-size="10.00">registerAutoloadMaps</text>
</a>
</g>
</g>
<!-- Node1&#45;&gt;Node2 -->
<g id="edge7_Node000001_Node000002" class="edge">
<title>Node1&#45;&gt;Node2</title>
<g id="a_edge7_Node000001_Node000002"><a xlink:title=" ">
<path fill="none" stroke="#63b8ff" d="M63.44,-9.62C70.85,-9.62 79.04,-9.62 87.38,-9.62"/>
<polygon fill="#63b8ff" stroke="#63b8ff" points="87.27,-13.13 97.27,-9.63 87.27,-6.13 87.27,-13.13"/>
</a>
</g>
</g>
<!-- Node3 -->
<g id="Node000003" class="node">
<title>Node3</title>
<g id="a_Node000003"><a xlink:href="$class_laminas_1_1_loader_1_1_class_map_autoloader.html#afc24615fd6e8946646da266f2e347a0c" xlink:title=" ">
<polygon fill="white" stroke="#666666" points="351,-19.25 245.75,-19.25 245.75,0 351,0 351,-19.25"/>
<text text-anchor="middle" x="298.38" y="-5.75" font-family="Helvetica,sans-Serif" font-size="10.00">registerAutoloadMap</text>
</a>
</g>
</g>
<!-- Node2&#45;&gt;Node3 -->
<g id="edge8_Node000002_Node000003" class="edge">
<title>Node2&#45;&gt;Node3</title>
<g id="a_edge8_Node000002_Node000003"><a xlink:title=" ">
<path fill="none" stroke="#63b8ff" d="M209.95,-9.62C217.91,-9.62 226.17,-9.62 234.3,-9.62"/>
<polygon fill="#63b8ff" stroke="#63b8ff" points="234.13,-13.13 244.13,-9.63 234.13,-6.13 234.13,-13.13"/>
</a>
</g>
</g>
<!-- Node4 -->
<g id="Node000004" class="node">
<title>Node4</title>
<g id="a_Node000004"><a xlink:href="$class_laminas_1_1_loader_1_1_class_map_autoloader.html#aca360fde8de16aa7900843e8684e36fb" xlink:title=" ">
<polygon fill="white" stroke="#666666" points="478,-19.25 387,-19.25 387,0 478,0 478,-19.25"/>
<text text-anchor="middle" x="432.5" y="-5.75" font-family="Helvetica,sans-Serif" font-size="10.00">loadMapFromFile</text>
</a>
</g>
</g>
<!-- Node3&#45;&gt;Node4 -->
<g id="edge9_Node000003_Node000004" class="edge">
<title>Node3&#45;&gt;Node4</title>
<g id="a_edge9_Node000003_Node000004"><a xlink:title=" ">
<path fill="none" stroke="#63b8ff" d="M351.22,-9.62C359.08,-9.62 367.24,-9.62 375.19,-9.62"/>
<polygon fill="#63b8ff" stroke="#63b8ff" points="375.15,-13.13 385.15,-9.63 375.15,-6.13 375.15,-13.13"/>
</a>
</g>
</g>
</g>
</svg>
