<?xml version="1.0" encoding="UTF-8" standalone="no"?>
<!DOCTYPE svg PUBLIC "-//W3C//DTD SVG 1.1//EN"
 "http://www.w3.org/Graphics/SVG/1.1/DTD/svg11.dtd">
<!-- Generated by graphviz version 10.0.1 (20240210.2158)
 -->
<!-- Title: completeScope Pages: 1 -->
<svg width="228pt" height="45pt"
 viewBox="0.00 0.00 228.25 45.25" xmlns="http://www.w3.org/2000/svg" xmlns:xlink="http://www.w3.org/1999/xlink">
<g id="graph0" class="graph" transform="scale(1 1) rotate(0) translate(4 41.25)">
<title>completeScope</title>
<!-- Node1 -->
<g id="Node000001" class="node">
<title>Node1</title>
<g id="a_Node000001"><a xlink:title=" ">
<polygon fill="#999999" stroke="#666666" points="83.5,-19.25 0,-19.25 0,0 83.5,0 83.5,-19.25"/>
<text text-anchor="middle" x="41.75" y="-5.75" font-family="Helvetica,sans-Serif" font-size="10.00">completeScope</text>
</a>
</g>
</g>
<!-- Node1&#45;&gt;Node1 -->
<g id="edge7_Node000001_Node000001" class="edge">
<title>Node1&#45;&gt;Node1</title>
<g id="a_edge7_Node000001_Node000001"><a xlink:title=" ">
<path fill="none" stroke="#63b8ff" d="M21.69,-19.54C12.54,-28.15 19.23,-37.25 41.75,-37.25 54.07,-37.25 61.65,-34.53 64.49,-30.65"/>
<polygon fill="#63b8ff" stroke="#63b8ff" points="67.91,-29.91 62.16,-21.01 61.11,-31.55 67.91,-29.91"/>
</a>
</g>
</g>
<!-- Node2 -->
<g id="Node000002" class="node">
<title>Node2</title>
<g id="a_Node000002"><a xlink:href="$class_scss_php_1_1_scss_php_1_1_compiler.html#adc563a8cb8bba9a192e83a5b54772f5d" xlink:title=" ">
<polygon fill="white" stroke="#666666" points="220.25,-19.25 119.5,-19.25 119.5,0 220.25,0 220.25,-19.25"/>
<text text-anchor="middle" x="169.88" y="-5.75" font-family="Helvetica,sans-Serif" font-size="10.00">findScopeSelectors</text>
</a>
</g>
</g>
<!-- Node1&#45;&gt;Node2 -->
<g id="edge8_Node000001_Node000002" class="edge">
<title>Node1&#45;&gt;Node2</title>
<g id="a_edge8_Node000001_Node000002"><a xlink:title=" ">
<path fill="none" stroke="#63b8ff" d="M83.7,-9.62C91.42,-9.62 99.66,-9.62 107.84,-9.62"/>
<polygon fill="#63b8ff" stroke="#63b8ff" points="107.81,-13.13 117.81,-9.63 107.81,-6.13 107.81,-13.13"/>
</a>
</g>
</g>
<!-- Node2&#45;&gt;Node2 -->
<g id="edge9_Node000002_Node000002" class="edge">
<title>Node2&#45;&gt;Node2</title>
<g id="a_edge9_Node000002_Node000002"><a xlink:title=" ">
<path fill="none" stroke="#63b8ff" d="M149.82,-19.54C140.67,-28.15 147.35,-37.25 169.88,-37.25 182.19,-37.25 189.77,-34.53 192.62,-30.65"/>
<polygon fill="#63b8ff" stroke="#63b8ff" points="196.04,-29.91 190.29,-21.01 189.23,-31.55 196.04,-29.91"/>
</a>
</g>
</g>
</g>
</svg>
