<?xml version="1.0" encoding="UTF-8" standalone="no"?>
<!DOCTYPE svg PUBLIC "-//W3C//DTD SVG 1.1//EN"
 "http://www.w3.org/Graphics/SVG/1.1/DTD/svg11.dtd">
<!-- Generated by graphviz version 10.0.1 (20240210.2158)
 -->
<!-- Title: showFormSetup Pages: 1 -->
<svg width="334pt" height="138pt"
 viewBox="0.00 0.00 333.55 138.25" xmlns="http://www.w3.org/2000/svg" xmlns:xlink="http://www.w3.org/1999/xlink">
<g id="graph0" class="graph" transform="scale(1 1) rotate(0) translate(4 134.25)">
<title>showFormSetup</title>
<!-- Node1 -->
<g id="Node000001" class="node">
<title>Node1</title>
<g id="a_Node000001"><a xlink:title=" ">
<polygon fill="#999999" stroke="#666666" points="87.25,-74.25 0,-74.25 0,-55 87.25,-55 87.25,-74.25"/>
<text text-anchor="middle" x="43.62" y="-60.75" font-family="Helvetica,sans-Serif" font-size="10.00">showFormSetup</text>
</a>
</g>
</g>
<!-- Node2 -->
<g id="Node000002" class="node">
<title>Node2</title>
<g id="a_Node000002"><a xlink:href="$autoload_8function_8php.html#affc4787304a41a695a489fc24d60877d" xlink:title=" ">
<polygon fill="white" stroke="#666666" points="207.88,-130.25 176.12,-130.25 176.12,-111 207.88,-111 207.88,-130.25"/>
<text text-anchor="middle" x="192" y="-116.75" font-family="Helvetica,sans-Serif" font-size="10.00">_sx</text>
</a>
</g>
</g>
<!-- Node1&#45;&gt;Node2 -->
<g id="edge11_Node000001_Node000002" class="edge">
<title>Node1&#45;&gt;Node2</title>
<g id="a_edge11_Node000001_Node000002"><a xlink:title=" ">
<path fill="none" stroke="#63b8ff" d="M62.93,-74.71C78.6,-83.03 101.93,-94.72 123.25,-102.62 136.57,-107.56 151.82,-111.74 164.48,-114.82"/>
<polygon fill="#63b8ff" stroke="#63b8ff" points="163.67,-118.22 174.2,-117.09 165.26,-111.41 163.67,-118.22"/>
</a>
</g>
</g>
<!-- Node4 -->
<g id="Node000004" class="node">
<title>Node4</title>
<g id="a_Node000004"><a xlink:href="$class_profile.html#abf389757e126e9d3d785925cf2c5596c" xlink:title=" ">
<polygon fill="white" stroke="#666666" points="258.5,-93.25 125.5,-93.25 125.5,-74 258.5,-74 258.5,-93.25"/>
<text text-anchor="middle" x="192" y="-79.75" font-family="Helvetica,sans-Serif" font-size="10.00">displayRightsChoiceMatrix</text>
</a>
</g>
</g>
<!-- Node1&#45;&gt;Node4 -->
<g id="edge13_Node000001_Node000004" class="edge">
<title>Node1&#45;&gt;Node4</title>
<g id="a_edge13_Node000001_Node000004"><a xlink:title=" ">
<path fill="none" stroke="#63b8ff" d="M87.36,-70.17C95.76,-71.26 104.81,-72.44 113.94,-73.62"/>
<polygon fill="#63b8ff" stroke="#63b8ff" points="113.21,-77.06 123.57,-74.87 114.11,-70.11 113.21,-77.06"/>
</a>
</g>
</g>
<!-- Node5 -->
<g id="Node000005" class="node">
<title>Node5</title>
<g id="a_Node000005"><a xlink:href="$class_common_g_l_p_i.html#af6dc8cb908bd14b99d0e90e9fcbeab0d" xlink:title=" ">
<polygon fill="white" stroke="#666666" points="260.75,-56.25 123.25,-56.25 123.25,-37 260.75,-37 260.75,-56.25"/>
<text text-anchor="middle" x="192" y="-42.75" font-family="Helvetica,sans-Serif" font-size="10.00">CommonGLPI\getFormURL</text>
</a>
</g>
</g>
<!-- Node1&#45;&gt;Node5 -->
<g id="edge14_Node000001_Node000005" class="edge">
<title>Node1&#45;&gt;Node5</title>
<g id="a_edge14_Node000001_Node000005"><a xlink:title=" ">
<path fill="none" stroke="#63b8ff" d="M87.36,-59.37C95.01,-58.43 103.21,-57.42 111.52,-56.4"/>
<polygon fill="#63b8ff" stroke="#63b8ff" points="111.88,-59.88 121.38,-55.19 111.02,-52.93 111.88,-59.88"/>
</a>
</g>
</g>
<!-- Node6 -->
<g id="Node000006" class="node">
<title>Node6</title>
<g id="a_Node000006"><a xlink:href="$class_profile.html#ac4cf18899c28fd6201cb6bd8663a90b2" xlink:title=" ">
<polygon fill="white" stroke="#666666" points="227.38,-19.25 156.62,-19.25 156.62,0 227.38,0 227.38,-19.25"/>
<text text-anchor="middle" x="192" y="-5.75" font-family="Helvetica,sans-Serif" font-size="10.00">showLegend</text>
</a>
</g>
</g>
<!-- Node1&#45;&gt;Node6 -->
<g id="edge15_Node000001_Node000006" class="edge">
<title>Node1&#45;&gt;Node6</title>
<g id="a_edge15_Node000001_Node000006"><a xlink:title=" ">
<path fill="none" stroke="#63b8ff" d="M63.6,-54.51C79.27,-46.45 102.27,-35.28 123.25,-27.62 130.24,-25.08 137.74,-22.72 145.13,-20.61"/>
<polygon fill="#63b8ff" stroke="#63b8ff" points="145.98,-24.01 154.7,-18 144.13,-17.25 145.98,-24.01"/>
</a>
</g>
</g>
<!-- Node3 -->
<g id="Node000003" class="node">
<title>Node3</title>
<g id="a_Node000003"><a xlink:href="$autoload_8function_8php.html#a2111ba1b23d22b49aee91462961bda8a" xlink:title=" ">
<polygon fill="white" stroke="#666666" points="325.55,-130.25 296.75,-130.25 296.75,-111 325.55,-111 325.55,-130.25"/>
<text text-anchor="middle" x="311.15" y="-116.75" font-family="Helvetica,sans-Serif" font-size="10.00">_x</text>
</a>
</g>
</g>
<!-- Node2&#45;&gt;Node3 -->
<g id="edge12_Node000002_Node000003" class="edge">
<title>Node2&#45;&gt;Node3</title>
<g id="a_edge12_Node000002_Node000003"><a xlink:title=" ">
<path fill="none" stroke="#63b8ff" d="M208.32,-120.62C227.77,-120.62 261.6,-120.62 284.9,-120.62"/>
<polygon fill="#63b8ff" stroke="#63b8ff" points="284.78,-124.13 294.78,-120.63 284.78,-117.13 284.78,-124.13"/>
</a>
</g>
</g>
</g>
</svg>
