<?xml version="1.0" encoding="UTF-8" standalone="no"?>
<!DOCTYPE svg PUBLIC "-//W3C//DTD SVG 1.1//EN"
 "http://www.w3.org/Graphics/SVG/1.1/DTD/svg11.dtd">
<!-- Generated by graphviz version 10.0.1 (20240210.2158)
 -->
<!-- Title: strip_attributes Pages: 1 -->
<svg width="174pt" height="45pt"
 viewBox="0.00 0.00 174.25 45.25" xmlns="http://www.w3.org/2000/svg" xmlns:xlink="http://www.w3.org/1999/xlink">
<g id="graph0" class="graph" transform="scale(1 1) rotate(0) translate(4 41.25)">
<title>strip_attributes</title>
<!-- Node1 -->
<g id="Node000001" class="node">
<title>Node1</title>
<g id="a_Node000001"><a xlink:title=" ">
<polygon fill="#999999" stroke="#666666" points="166.25,-19.25 85.75,-19.25 85.75,0 166.25,0 166.25,-19.25"/>
<text text-anchor="middle" x="126" y="-5.75" font-family="Helvetica,sans-Serif" font-size="10.00">strip_attributes</text>
</a>
</g>
</g>
<!-- Node1&#45;&gt;Node1 -->
<g id="edge6_Node000001_Node000001" class="edge">
<title>Node1&#45;&gt;Node1</title>
<g id="a_edge6_Node000001_Node000001"><a xlink:title=" ">
<path fill="none" stroke="#63b8ff" d="M143.95,-30.65C141.7,-34.53 135.72,-37.25 126,-37.25 108.22,-37.25 102.95,-28.15 110.17,-19.54"/>
<polygon fill="#63b8ff" stroke="#63b8ff" points="147.43,-30.19 142.11,-21.02 140.55,-31.5 147.43,-30.19"/>
</a>
</g>
</g>
<!-- Node2 -->
<g id="Node000002" class="node">
<title>Node2</title>
<g id="a_Node000002"><a xlink:href="$class_simple_pie___sanitize.html#a5482cabe0e60f30caee78f368cb9bea9" xlink:title=" ">
<polygon fill="white" stroke="#666666" points="49.75,-19.25 0,-19.25 0,0 49.75,0 49.75,-19.25"/>
<text text-anchor="middle" x="24.88" y="-5.75" font-family="Helvetica,sans-Serif" font-size="10.00">sanitize</text>
</a>
</g>
</g>
<!-- Node1&#45;&gt;Node2 -->
<g id="edge5_Node000001_Node000002" class="edge">
<title>Node1&#45;&gt;Node2</title>
<g id="a_edge5_Node000001_Node000002"><a xlink:title=" ">
<path fill="none" stroke="#63b8ff" d="M74,-9.62C65.71,-9.62 57.48,-9.62 50.22,-9.62"/>
<polygon fill="#63b8ff" stroke="#63b8ff" points="73.74,-13.13 83.74,-9.63 73.74,-6.13 73.74,-13.13"/>
</a>
</g>
</g>
</g>
</svg>
