<?xml version="1.0" encoding="UTF-8" standalone="no"?>
<!DOCTYPE svg PUBLIC "-//W3C//DTD SVG 1.1//EN"
 "http://www.w3.org/Graphics/SVG/1.1/DTD/svg11.dtd">
<!-- Generated by graphviz version 10.0.1 (20240210.2158)
 -->
<!-- Title: FingersCrossedHandler Pages: 1 -->
<svg width="553pt" height="664pt"
 viewBox="0.00 0.00 552.50 664.00" xmlns="http://www.w3.org/2000/svg" xmlns:xlink="http://www.w3.org/1999/xlink">
<g id="graph0" class="graph" transform="scale(1 1) rotate(0) translate(4 660)">
<title>FingersCrossedHandler</title>
<!-- Node1 -->
<g id="Node000001" class="node">
<title>Node1</title>
<g id="a_Node000001"><a xlink:title=" ">
<polygon fill="#999999" stroke="none" points="333.5,-363 177.5,-363 177.5,0 333.5,0 333.5,-363"/>
<text text-anchor="start" x="204.12" y="-349.5" font-family="Helvetica,sans-Serif" font-size="10.00">FingersCrossedHandler</text>
<text text-anchor="start" x="181.88" y="-334.5" font-family="Helvetica,sans-Serif" font-size="10.00">#</text>
<text text-anchor="start" x="191.5" y="-334.5" font-family="Helvetica,sans-Serif" font-size="10.00">$handler</text>
<text text-anchor="start" x="181.88" y="-319.5" font-family="Helvetica,sans-Serif" font-size="10.00">#</text>
<text text-anchor="start" x="191.5" y="-319.5" font-family="Helvetica,sans-Serif" font-size="10.00">$activationStrategy</text>
<text text-anchor="start" x="181.88" y="-304.5" font-family="Helvetica,sans-Serif" font-size="10.00">#</text>
<text text-anchor="start" x="191.5" y="-304.5" font-family="Helvetica,sans-Serif" font-size="10.00">$buffering</text>
<text text-anchor="start" x="181.88" y="-289.5" font-family="Helvetica,sans-Serif" font-size="10.00">#</text>
<text text-anchor="start" x="191.5" y="-289.5" font-family="Helvetica,sans-Serif" font-size="10.00">$bufferSize</text>
<text text-anchor="start" x="181.88" y="-274.5" font-family="Helvetica,sans-Serif" font-size="10.00">#</text>
<text text-anchor="start" x="191.5" y="-274.5" font-family="Helvetica,sans-Serif" font-size="10.00">$buffer</text>
<text text-anchor="start" x="181.88" y="-259.5" font-family="Helvetica,sans-Serif" font-size="10.00">#</text>
<text text-anchor="start" x="191.5" y="-259.5" font-family="Helvetica,sans-Serif" font-size="10.00">$stopBuffering</text>
<text text-anchor="start" x="181.88" y="-244.5" font-family="Helvetica,sans-Serif" font-size="10.00">#</text>
<text text-anchor="start" x="191.5" y="-244.5" font-family="Helvetica,sans-Serif" font-size="10.00">$passthruLevel</text>
<text text-anchor="start" x="181.88" y="-229.5" font-family="Helvetica,sans-Serif" font-size="10.00">#</text>
<text text-anchor="start" x="191.5" y="-229.5" font-family="Helvetica,sans-Serif" font-size="10.00">$bubble</text>
<text text-anchor="start" x="181.5" y="-214.5" font-family="Helvetica,sans-Serif" font-size="10.00">+</text>
<text text-anchor="start" x="191.5" y="-214.5" font-family="Helvetica,sans-Serif" font-size="10.00">__construct($handler,</text>
<text text-anchor="start" x="191.5" y="-203.25" font-family="Helvetica,sans-Serif" font-size="10.00"> $activationStrategy</text>
<text text-anchor="start" x="191.5" y="-192" font-family="Helvetica,sans-Serif" font-size="10.00">=null, int $bufferSize</text>
<text text-anchor="start" x="191.5" y="-180.75" font-family="Helvetica,sans-Serif" font-size="10.00">=0, bool $bubble=true,</text>
<text text-anchor="start" x="191.5" y="-169.5" font-family="Helvetica,sans-Serif" font-size="10.00"> bool $stopBuffering=true,</text>
<text text-anchor="start" x="191.5" y="-158.25" font-family="Helvetica,sans-Serif" font-size="10.00"> $passthruLevel=null)</text>
<text text-anchor="start" x="181.5" y="-143.5" font-family="Helvetica,sans-Serif" font-size="10.00">+</text>
<text text-anchor="start" x="191.5" y="-143.5" font-family="Helvetica,sans-Serif" font-size="10.00">isHandling(array </text>
<text text-anchor="start" x="191.5" y="-132.25" font-family="Helvetica,sans-Serif" font-size="10.00">$record)</text>
<text text-anchor="start" x="181.5" y="-117.5" font-family="Helvetica,sans-Serif" font-size="10.00">+</text>
<text text-anchor="start" x="191.5" y="-117.5" font-family="Helvetica,sans-Serif" font-size="10.00">activate()</text>
<text text-anchor="start" x="181.5" y="-102.5" font-family="Helvetica,sans-Serif" font-size="10.00">+</text>
<text text-anchor="start" x="191.5" y="-102.5" font-family="Helvetica,sans-Serif" font-size="10.00">close()</text>
<text text-anchor="start" x="181.5" y="-87.5" font-family="Helvetica,sans-Serif" font-size="10.00">+</text>
<text text-anchor="start" x="191.5" y="-87.5" font-family="Helvetica,sans-Serif" font-size="10.00">reset()</text>
<text text-anchor="start" x="181.5" y="-72.5" font-family="Helvetica,sans-Serif" font-size="10.00">+</text>
<text text-anchor="start" x="191.5" y="-72.5" font-family="Helvetica,sans-Serif" font-size="10.00">clear()</text>
<text text-anchor="start" x="181.5" y="-57.5" font-family="Helvetica,sans-Serif" font-size="10.00">+</text>
<text text-anchor="start" x="191.5" y="-57.5" font-family="Helvetica,sans-Serif" font-size="10.00">getHandler(array </text>
<text text-anchor="start" x="191.5" y="-46.25" font-family="Helvetica,sans-Serif" font-size="10.00">$record=null)</text>
<text text-anchor="start" x="181.5" y="-31.5" font-family="Helvetica,sans-Serif" font-size="10.00">+</text>
<text text-anchor="start" x="191.5" y="-31.5" font-family="Helvetica,sans-Serif" font-size="10.00">setFormatter(FormatterInterface</text>
<text text-anchor="start" x="191.5" y="-20.25" font-family="Helvetica,sans-Serif" font-size="10.00"> $formatter)</text>
<text text-anchor="start" x="181.5" y="-5.5" font-family="Helvetica,sans-Serif" font-size="10.00">+</text>
<text text-anchor="start" x="191.5" y="-5.5" font-family="Helvetica,sans-Serif" font-size="10.00">getFormatter()</text>
<polygon fill="#666666" stroke="#666666" points="177.5,-346 177.5,-346 333.5,-346 333.5,-346 177.5,-346"/>
<polygon fill="#666666" stroke="#666666" points="177.5,-226 177.5,-226 189.5,-226 189.5,-226 177.5,-226"/>
<polygon fill="#666666" stroke="#666666" points="189.5,-226 189.5,-226 333.5,-226 333.5,-226 189.5,-226"/>
<polygon fill="none" stroke="#666666" points="177.5,0 177.5,-363 333.5,-363 333.5,0 177.5,0"/>
</a>
</g>
</g>
<!-- Node2 -->
<g id="Node000002" class="node">
<title>Node2</title>
<g id="a_Node000002"><a xlink:href="$class_monolog_1_1_handler_1_1_handler.html" xlink:title=" ">
<polygon fill="white" stroke="none" points="102.5,-504 6.5,-504 6.5,-399 102.5,-399 102.5,-504"/>
<text text-anchor="start" x="37.62" y="-490.5" font-family="Helvetica,sans-Serif" font-size="10.00">Handler</text>
<text text-anchor="start" x="53" y="-475.5" font-family="Helvetica,sans-Serif" font-size="10.00"> </text>
<text text-anchor="start" x="10.5" y="-460.5" font-family="Helvetica,sans-Serif" font-size="10.00">+</text>
<text text-anchor="start" x="20.5" y="-460.5" font-family="Helvetica,sans-Serif" font-size="10.00">handleBatch(array</text>
<text text-anchor="start" x="20.5" y="-449.25" font-family="Helvetica,sans-Serif" font-size="10.00"> $records)</text>
<text text-anchor="start" x="10.5" y="-434.5" font-family="Helvetica,sans-Serif" font-size="10.00">+</text>
<text text-anchor="start" x="20.5" y="-434.5" font-family="Helvetica,sans-Serif" font-size="10.00">close()</text>
<text text-anchor="start" x="10.5" y="-419.5" font-family="Helvetica,sans-Serif" font-size="10.00">+</text>
<text text-anchor="start" x="20.5" y="-419.5" font-family="Helvetica,sans-Serif" font-size="10.00">__destruct()</text>
<text text-anchor="start" x="10.5" y="-404.5" font-family="Helvetica,sans-Serif" font-size="10.00">+</text>
<text text-anchor="start" x="20.5" y="-404.5" font-family="Helvetica,sans-Serif" font-size="10.00">__sleep()</text>
<polygon fill="#666666" stroke="#666666" points="6.5,-487 6.5,-487 102.5,-487 102.5,-487 6.5,-487"/>
<polygon fill="#666666" stroke="#666666" points="6.5,-472 6.5,-472 102.5,-472 102.5,-472 6.5,-472"/>
<polygon fill="none" stroke="#666666" points="6.5,-399 6.5,-504 102.5,-504 102.5,-399 6.5,-399"/>
</a>
</g>
</g>
<!-- Node2&#45;&gt;Node1 -->
<g id="edge11_Node000001_Node000002" class="edge">
<title>Node2&#45;&gt;Node1</title>
<g id="a_edge11_Node000001_Node000002"><a xlink:title=" ">
<path fill="none" stroke="#63b8ff" d="M99.65,-390.3C122.62,-359.68 151.2,-321.57 177.58,-286.39"/>
<polygon fill="none" stroke="#63b8ff" points="97.13,-387.83 93.93,-397.93 102.73,-392.03 97.13,-387.83"/>
</a>
</g>
</g>
<!-- Node3 -->
<g id="Node000003" class="node">
<title>Node3</title>
<g id="a_Node000003"><a xlink:href="$interface_monolog_1_1_handler_1_1_handler_interface.html" xlink:title=" ">
<polygon fill="white" stroke="none" points="109,-656 0,-656 0,-540 109,-540 109,-656"/>
<text text-anchor="start" x="18.5" y="-642.5" font-family="Helvetica,sans-Serif" font-size="10.00">HandlerInterface</text>
<text text-anchor="start" x="53" y="-627.5" font-family="Helvetica,sans-Serif" font-size="10.00"> </text>
<text text-anchor="start" x="4" y="-612.5" font-family="Helvetica,sans-Serif" font-size="10.00">+</text>
<text text-anchor="start" x="14" y="-612.5" font-family="Helvetica,sans-Serif" font-size="10.00">isHandling(array </text>
<text text-anchor="start" x="14" y="-601.25" font-family="Helvetica,sans-Serif" font-size="10.00">$record)</text>
<text text-anchor="start" x="4" y="-586.5" font-family="Helvetica,sans-Serif" font-size="10.00">+</text>
<text text-anchor="start" x="14" y="-586.5" font-family="Helvetica,sans-Serif" font-size="10.00">handle(array $record)</text>
<text text-anchor="start" x="4" y="-571.5" font-family="Helvetica,sans-Serif" font-size="10.00">+</text>
<text text-anchor="start" x="14" y="-571.5" font-family="Helvetica,sans-Serif" font-size="10.00">handleBatch(array</text>
<text text-anchor="start" x="14" y="-560.25" font-family="Helvetica,sans-Serif" font-size="10.00"> $records)</text>
<text text-anchor="start" x="4" y="-545.5" font-family="Helvetica,sans-Serif" font-size="10.00">+</text>
<text text-anchor="start" x="14" y="-545.5" font-family="Helvetica,sans-Serif" font-size="10.00">close()</text>
<polygon fill="#666666" stroke="#666666" points="0,-639 0,-639 109,-639 109,-639 0,-639"/>
<polygon fill="#666666" stroke="#666666" points="0,-624 0,-624 109,-624 109,-624 0,-624"/>
<polygon fill="none" stroke="#666666" points="0,-540 0,-656 109,-656 109,-540 0,-540"/>
</a>
</g>
</g>
<!-- Node3&#45;&gt;Node2 -->
<g id="edge12_Node000002_Node000003" class="edge">
<title>Node3&#45;&gt;Node2</title>
<g id="a_edge12_Node000002_Node000003"><a xlink:title=" ">
<path fill="none" stroke="#63b8ff" d="M54.5,-528.9C54.5,-520.48 54.5,-511.98 54.5,-503.86"/>
<polygon fill="none" stroke="#63b8ff" points="51,-528.79 54.5,-538.79 58,-528.79 51,-528.79"/>
</a>
</g>
</g>
<!-- Node4 -->
<g id="Node000004" class="node">
<title>Node4</title>
<g id="a_Node000004"><a xlink:href="$interface_monolog_1_1_handler_1_1_processable_handler_interface.html" xlink:title=" ">
<polygon fill="white" stroke="none" points="256.5,-489 120.5,-489 120.5,-414 256.5,-414 256.5,-489"/>
<text text-anchor="start" x="125.5" y="-475.5" font-family="Helvetica,sans-Serif" font-size="10.00">ProcessableHandlerInterface</text>
<text text-anchor="start" x="187" y="-460.5" font-family="Helvetica,sans-Serif" font-size="10.00"> </text>
<text text-anchor="start" x="128.5" y="-445.5" font-family="Helvetica,sans-Serif" font-size="10.00">+</text>
<text text-anchor="start" x="142.5" y="-445.5" font-family="Helvetica,sans-Serif" font-size="10.00">pushProcessor(callable</text>
<text text-anchor="start" x="142.5" y="-434.25" font-family="Helvetica,sans-Serif" font-size="10.00"> $callback)</text>
<text text-anchor="start" x="128.5" y="-419.5" font-family="Helvetica,sans-Serif" font-size="10.00">+</text>
<text text-anchor="start" x="142.5" y="-419.5" font-family="Helvetica,sans-Serif" font-size="10.00">popProcessor()</text>
<polygon fill="#666666" stroke="#666666" points="120.5,-472 120.5,-472 256.5,-472 256.5,-472 120.5,-472"/>
<polygon fill="#666666" stroke="#666666" points="120.5,-457 120.5,-457 256.5,-457 256.5,-457 120.5,-457"/>
<polygon fill="none" stroke="#666666" points="120.5,-414 120.5,-489 256.5,-489 256.5,-414 120.5,-414"/>
</a>
</g>
</g>
<!-- Node4&#45;&gt;Node1 -->
<g id="edge13_Node000001_Node000004" class="edge">
<title>Node4&#45;&gt;Node1</title>
<g id="a_edge13_Node000001_Node000004"><a xlink:title=" ">
<path fill="none" stroke="#63b8ff" d="M200.36,-403.08C203.36,-391.06 206.77,-377.41 210.39,-362.94"/>
<polygon fill="none" stroke="#63b8ff" points="197,-402.06 197.97,-412.61 203.79,-403.76 197,-402.06"/>
</a>
</g>
</g>
<!-- Node5 -->
<g id="Node000005" class="node">
<title>Node5</title>
<g id="a_Node000005"><a xlink:href="$interface_monolog_1_1_resettable_interface.html" xlink:title=" ">
<polygon fill="white" stroke="none" points="370,-476 275,-476 275,-427 370,-427 370,-476"/>
<text text-anchor="start" x="279.75" y="-462.5" font-family="Helvetica,sans-Serif" font-size="10.00">ResettableInterface</text>
<text text-anchor="start" x="321" y="-447.5" font-family="Helvetica,sans-Serif" font-size="10.00"> </text>
<text text-anchor="start" x="291.5" y="-432.5" font-family="Helvetica,sans-Serif" font-size="10.00">+</text>
<text text-anchor="start" x="314" y="-432.5" font-family="Helvetica,sans-Serif" font-size="10.00">reset()</text>
<polygon fill="#666666" stroke="#666666" points="275,-459 275,-459 370,-459 370,-459 275,-459"/>
<polygon fill="#666666" stroke="#666666" points="275,-444 275,-444 370,-444 370,-444 275,-444"/>
<polygon fill="none" stroke="#666666" points="275,-427 275,-476 370,-476 370,-427 275,-427"/>
</a>
</g>
</g>
<!-- Node5&#45;&gt;Node1 -->
<g id="edge14_Node000001_Node000005" class="edge">
<title>Node5&#45;&gt;Node1</title>
<g id="a_edge14_Node000001_Node000005"><a xlink:title=" ">
<path fill="none" stroke="#63b8ff" d="M313.92,-416.2C310.24,-401.45 305.62,-383 300.62,-362.97"/>
<polygon fill="none" stroke="#63b8ff" points="310.48,-416.86 316.3,-425.72 317.27,-415.17 310.48,-416.86"/>
</a>
</g>
</g>
<!-- Node6 -->
<g id="Node000006" class="node">
<title>Node6</title>
<g id="a_Node000006"><a xlink:href="$interface_monolog_1_1_handler_1_1_formattable_handler_interface.html" xlink:title=" ">
<polygon fill="white" stroke="none" points="544.5,-489 388.5,-489 388.5,-414 544.5,-414 544.5,-489"/>
<text text-anchor="start" x="404.62" y="-475.5" font-family="Helvetica,sans-Serif" font-size="10.00">FormattableHandlerInterface</text>
<text text-anchor="start" x="465" y="-460.5" font-family="Helvetica,sans-Serif" font-size="10.00"> </text>
<text text-anchor="start" x="392.5" y="-445.5" font-family="Helvetica,sans-Serif" font-size="10.00">+</text>
<text text-anchor="start" x="402.5" y="-445.5" font-family="Helvetica,sans-Serif" font-size="10.00">setFormatter(FormatterInterface</text>
<text text-anchor="start" x="402.5" y="-434.25" font-family="Helvetica,sans-Serif" font-size="10.00"> $formatter)</text>
<text text-anchor="start" x="392.5" y="-419.5" font-family="Helvetica,sans-Serif" font-size="10.00">+</text>
<text text-anchor="start" x="402.5" y="-419.5" font-family="Helvetica,sans-Serif" font-size="10.00">getFormatter()</text>
<polygon fill="#666666" stroke="#666666" points="388.5,-472 388.5,-472 544.5,-472 544.5,-472 388.5,-472"/>
<polygon fill="#666666" stroke="#666666" points="388.5,-457 388.5,-457 544.5,-457 544.5,-457 388.5,-457"/>
<polygon fill="none" stroke="#666666" points="388.5,-414 388.5,-489 544.5,-489 544.5,-414 388.5,-414"/>
</a>
</g>
</g>
<!-- Node6&#45;&gt;Node1 -->
<g id="edge15_Node000001_Node000006" class="edge">
<title>Node6&#45;&gt;Node1</title>
<g id="a_edge15_Node000001_Node000006"><a xlink:title=" ">
<path fill="none" stroke="#63b8ff" d="M430.96,-405.36C404.34,-371.55 366.91,-324 333.45,-281.51"/>
<polygon fill="none" stroke="#63b8ff" points="427.95,-407.2 436.89,-412.89 433.45,-402.87 427.95,-407.2"/>
</a>
</g>
</g>
</g>
</svg>
