<?xml version="1.0" encoding="UTF-8" standalone="no"?>
<!DOCTYPE svg PUBLIC "-//W3C//DTD SVG 1.1//EN"
 "http://www.w3.org/Graphics/SVG/1.1/DTD/svg11.dtd">
<!-- Generated by graphviz version 10.0.1 (20240210.2158)
 -->
<!-- Title: PDO Pages: 1 -->
<svg width="262pt" height="789pt"
 viewBox="0.00 0.00 262.00 789.00" xmlns="http://www.w3.org/2000/svg" xmlns:xlink="http://www.w3.org/1999/xlink">
<g id="graph0" class="graph" transform="scale(1 1) rotate(0) translate(4 785)">
<title>PDO</title>
<!-- Node1 -->
<g id="Node000001" class="node">
<title>Node1</title>
<g id="a_Node000001"><a xlink:title=" ">
<polygon fill="#999999" stroke="none" points="202,-362 58,-362 58,0 202,0 202,-362"/>
<text text-anchor="start" x="119.12" y="-348.5" font-family="Helvetica,sans-Serif" font-size="10.00">PDO</text>
<text text-anchor="start" x="62" y="-333.5" font-family="Helvetica,sans-Serif" font-size="10.00">+</text>
<text text-anchor="start" x="72" y="-333.5" font-family="Helvetica,sans-Serif" font-size="10.00">$tableName</text>
<text text-anchor="start" x="62" y="-318.5" font-family="Helvetica,sans-Serif" font-size="10.00">+</text>
<text text-anchor="start" x="72" y="-318.5" font-family="Helvetica,sans-Serif" font-size="10.00">$groupMembersTableName</text>
<text text-anchor="start" x="62.38" y="-303.5" font-family="Helvetica,sans-Serif" font-size="10.00">#</text>
<text text-anchor="start" x="72" y="-303.5" font-family="Helvetica,sans-Serif" font-size="10.00">$pdo</text>
<text text-anchor="start" x="62.38" y="-288.5" font-family="Helvetica,sans-Serif" font-size="10.00">#</text>
<text text-anchor="start" x="72" y="-288.5" font-family="Helvetica,sans-Serif" font-size="10.00">$fieldMap</text>
<text text-anchor="start" x="62" y="-273.5" font-family="Helvetica,sans-Serif" font-size="10.00">+</text>
<text text-anchor="start" x="72" y="-273.5" font-family="Helvetica,sans-Serif" font-size="10.00">__construct(\PDO $pdo)</text>
<text text-anchor="start" x="62" y="-258.5" font-family="Helvetica,sans-Serif" font-size="10.00">+</text>
<text text-anchor="start" x="72" y="-258.5" font-family="Helvetica,sans-Serif" font-size="10.00">getPrincipalsByPrefix</text>
<text text-anchor="start" x="72" y="-247.25" font-family="Helvetica,sans-Serif" font-size="10.00">($prefixPath)</text>
<text text-anchor="start" x="62" y="-232.5" font-family="Helvetica,sans-Serif" font-size="10.00">+</text>
<text text-anchor="start" x="72" y="-232.5" font-family="Helvetica,sans-Serif" font-size="10.00">getPrincipalByPath</text>
<text text-anchor="start" x="72" y="-221.25" font-family="Helvetica,sans-Serif" font-size="10.00">($path)</text>
<text text-anchor="start" x="62" y="-206.5" font-family="Helvetica,sans-Serif" font-size="10.00">+</text>
<text text-anchor="start" x="72" y="-206.5" font-family="Helvetica,sans-Serif" font-size="10.00">updatePrincipal($path,</text>
<text text-anchor="start" x="72" y="-195.25" font-family="Helvetica,sans-Serif" font-size="10.00"> DAV\PropPatch $propPatch)</text>
<text text-anchor="start" x="62" y="-180.5" font-family="Helvetica,sans-Serif" font-size="10.00">+</text>
<text text-anchor="start" x="72" y="-180.5" font-family="Helvetica,sans-Serif" font-size="10.00">searchPrincipals(</text>
<text text-anchor="start" x="72" y="-169.25" font-family="Helvetica,sans-Serif" font-size="10.00">$prefixPath, array </text>
<text text-anchor="start" x="72" y="-158" font-family="Helvetica,sans-Serif" font-size="10.00">$searchProperties, $test</text>
<text text-anchor="start" x="72" y="-146.75" font-family="Helvetica,sans-Serif" font-size="10.00">=&#39;allof&#39;)</text>
<text text-anchor="start" x="62" y="-131.5" font-family="Helvetica,sans-Serif" font-size="10.00">+</text>
<text text-anchor="start" x="72" y="-131.5" font-family="Helvetica,sans-Serif" font-size="10.00">findByUri($uri, $principal</text>
<text text-anchor="start" x="72" y="-120.25" font-family="Helvetica,sans-Serif" font-size="10.00">Prefix)</text>
<text text-anchor="start" x="62" y="-105.5" font-family="Helvetica,sans-Serif" font-size="10.00">+</text>
<text text-anchor="start" x="72" y="-105.5" font-family="Helvetica,sans-Serif" font-size="10.00">getGroupMemberSet</text>
<text text-anchor="start" x="72" y="-94.25" font-family="Helvetica,sans-Serif" font-size="10.00">($principal)</text>
<text text-anchor="start" x="62" y="-79.5" font-family="Helvetica,sans-Serif" font-size="10.00">+</text>
<text text-anchor="start" x="72" y="-79.5" font-family="Helvetica,sans-Serif" font-size="10.00">getGroupMembership</text>
<text text-anchor="start" x="72" y="-68.25" font-family="Helvetica,sans-Serif" font-size="10.00">($principal)</text>
<text text-anchor="start" x="62" y="-53.5" font-family="Helvetica,sans-Serif" font-size="10.00">+</text>
<text text-anchor="start" x="72" y="-53.5" font-family="Helvetica,sans-Serif" font-size="10.00">setGroupMemberSet</text>
<text text-anchor="start" x="72" y="-42.25" font-family="Helvetica,sans-Serif" font-size="10.00">($principal, array </text>
<text text-anchor="start" x="72" y="-31" font-family="Helvetica,sans-Serif" font-size="10.00">$members)</text>
<text text-anchor="start" x="62" y="-16.5" font-family="Helvetica,sans-Serif" font-size="10.00">+</text>
<text text-anchor="start" x="72" y="-16.5" font-family="Helvetica,sans-Serif" font-size="10.00">createPrincipal($path,</text>
<text text-anchor="start" x="72" y="-5.25" font-family="Helvetica,sans-Serif" font-size="10.00"> MkCol $mkCol)</text>
<polygon fill="#666666" stroke="#666666" points="58,-345 58,-345 202,-345 202,-345 58,-345"/>
<polygon fill="#666666" stroke="#666666" points="58,-285 58,-285 70,-285 70,-285 58,-285"/>
<polygon fill="#666666" stroke="#666666" points="70,-285 70,-285 202,-285 202,-285 70,-285"/>
<polygon fill="none" stroke="#666666" points="58,0 58,-362 202,-362 202,0 58,0"/>
</a>
</g>
</g>
<!-- Node2 -->
<g id="Node000002" class="node">
<title>Node2</title>
<g id="a_Node000002"><a xlink:href="$class_sabre_1_1_d_a_v_a_c_l_1_1_principal_backend_1_1_abstract_backend.html" xlink:title=" ">
<polygon fill="white" stroke="none" points="124,-458 0,-458 0,-398 124,-398 124,-458"/>
<text text-anchor="start" x="24.5" y="-444.5" font-family="Helvetica,sans-Serif" font-size="10.00">AbstractBackend</text>
<text text-anchor="start" x="60.5" y="-429.5" font-family="Helvetica,sans-Serif" font-size="10.00"> </text>
<text text-anchor="start" x="4" y="-414.5" font-family="Helvetica,sans-Serif" font-size="10.00">+</text>
<text text-anchor="start" x="14" y="-414.5" font-family="Helvetica,sans-Serif" font-size="10.00">findByUri($uri, $principal</text>
<text text-anchor="start" x="14" y="-403.25" font-family="Helvetica,sans-Serif" font-size="10.00">Prefix)</text>
<polygon fill="#666666" stroke="#666666" points="0,-441 0,-441 124,-441 124,-441 0,-441"/>
<polygon fill="#666666" stroke="#666666" points="0,-426 0,-426 124,-426 124,-426 0,-426"/>
<polygon fill="none" stroke="#666666" points="0,-398 0,-458 124,-458 124,-398 0,-398"/>
</a>
</g>
</g>
<!-- Node2&#45;&gt;Node1 -->
<g id="edge9_Node000001_Node000002" class="edge">
<title>Node2&#45;&gt;Node1</title>
<g id="a_edge9_Node000001_Node000002"><a xlink:title=" ">
<path fill="none" stroke="#63b8ff" d="M73.01,-387.34C75.16,-379.59 77.54,-371.02 80.07,-361.89"/>
<polygon fill="none" stroke="#63b8ff" points="69.64,-386.39 70.34,-396.96 76.39,-388.26 69.64,-386.39"/>
</a>
</g>
</g>
<!-- Node3 -->
<g id="Node000003" class="node">
<title>Node3</title>
<g id="a_Node000003"><a xlink:href="$interface_sabre_1_1_d_a_v_a_c_l_1_1_principal_backend_1_1_backend_interface.html" xlink:title=" ">
<polygon fill="white" stroke="none" points="192,-781 68,-781 68,-494 192,-494 192,-781"/>
<text text-anchor="start" x="91.75" y="-767.5" font-family="Helvetica,sans-Serif" font-size="10.00">BackendInterface</text>
<text text-anchor="start" x="128.5" y="-752.5" font-family="Helvetica,sans-Serif" font-size="10.00"> </text>
<text text-anchor="start" x="72" y="-737.5" font-family="Helvetica,sans-Serif" font-size="10.00">+</text>
<text text-anchor="start" x="82" y="-737.5" font-family="Helvetica,sans-Serif" font-size="10.00">getPrincipalsByPrefix</text>
<text text-anchor="start" x="82" y="-726.25" font-family="Helvetica,sans-Serif" font-size="10.00">($prefixPath)</text>
<text text-anchor="start" x="72" y="-711.5" font-family="Helvetica,sans-Serif" font-size="10.00">+</text>
<text text-anchor="start" x="82" y="-711.5" font-family="Helvetica,sans-Serif" font-size="10.00">getPrincipalByPath</text>
<text text-anchor="start" x="82" y="-700.25" font-family="Helvetica,sans-Serif" font-size="10.00">($path)</text>
<text text-anchor="start" x="72" y="-685.5" font-family="Helvetica,sans-Serif" font-size="10.00">+</text>
<text text-anchor="start" x="82" y="-685.5" font-family="Helvetica,sans-Serif" font-size="10.00">updatePrincipal($path,</text>
<text text-anchor="start" x="82" y="-674.25" font-family="Helvetica,sans-Serif" font-size="10.00"> \Sabre\DAV\PropPatch</text>
<text text-anchor="start" x="82" y="-663" font-family="Helvetica,sans-Serif" font-size="10.00"> $propPatch)</text>
<text text-anchor="start" x="72" y="-648.5" font-family="Helvetica,sans-Serif" font-size="10.00">+</text>
<text text-anchor="start" x="82" y="-648.5" font-family="Helvetica,sans-Serif" font-size="10.00">searchPrincipals(</text>
<text text-anchor="start" x="82" y="-637.25" font-family="Helvetica,sans-Serif" font-size="10.00">$prefixPath, array </text>
<text text-anchor="start" x="82" y="-626" font-family="Helvetica,sans-Serif" font-size="10.00">$searchProperties, $test</text>
<text text-anchor="start" x="82" y="-614.75" font-family="Helvetica,sans-Serif" font-size="10.00">=&#39;allof&#39;)</text>
<text text-anchor="start" x="72" y="-599.5" font-family="Helvetica,sans-Serif" font-size="10.00">+</text>
<text text-anchor="start" x="82" y="-599.5" font-family="Helvetica,sans-Serif" font-size="10.00">findByUri($uri, $principal</text>
<text text-anchor="start" x="82" y="-588.25" font-family="Helvetica,sans-Serif" font-size="10.00">Prefix)</text>
<text text-anchor="start" x="72" y="-573.5" font-family="Helvetica,sans-Serif" font-size="10.00">+</text>
<text text-anchor="start" x="82" y="-573.5" font-family="Helvetica,sans-Serif" font-size="10.00">getGroupMemberSet</text>
<text text-anchor="start" x="82" y="-562.25" font-family="Helvetica,sans-Serif" font-size="10.00">($principal)</text>
<text text-anchor="start" x="72" y="-547.5" font-family="Helvetica,sans-Serif" font-size="10.00">+</text>
<text text-anchor="start" x="82" y="-547.5" font-family="Helvetica,sans-Serif" font-size="10.00">getGroupMembership</text>
<text text-anchor="start" x="82" y="-536.25" font-family="Helvetica,sans-Serif" font-size="10.00">($principal)</text>
<text text-anchor="start" x="72" y="-521.5" font-family="Helvetica,sans-Serif" font-size="10.00">+</text>
<text text-anchor="start" x="82" y="-521.5" font-family="Helvetica,sans-Serif" font-size="10.00">setGroupMemberSet</text>
<text text-anchor="start" x="82" y="-510.25" font-family="Helvetica,sans-Serif" font-size="10.00">($principal, array </text>
<text text-anchor="start" x="82" y="-499" font-family="Helvetica,sans-Serif" font-size="10.00">$members)</text>
<polygon fill="#666666" stroke="#666666" points="68,-764 68,-764 192,-764 192,-764 68,-764"/>
<polygon fill="#666666" stroke="#666666" points="68,-749 68,-749 192,-749 192,-749 68,-749"/>
<polygon fill="none" stroke="#666666" points="68,-494 68,-781 192,-781 192,-494 68,-494"/>
</a>
</g>
</g>
<!-- Node3&#45;&gt;Node2 -->
<g id="edge10_Node000002_Node000003" class="edge">
<title>Node3&#45;&gt;Node2</title>
<g id="a_edge10_Node000002_Node000003"><a xlink:title=" ">
<path fill="none" stroke="#63b8ff" d="M79.8,-483.31C76.75,-474.01 73.93,-465.4 71.47,-457.9"/>
<polygon fill="none" stroke="#63b8ff" points="76.42,-484.23 82.86,-492.65 83.07,-482.05 76.42,-484.23"/>
</a>
</g>
</g>
<!-- Node4 -->
<g id="Node000004" class="node">
<title>Node4</title>
<g id="a_Node000004"><a xlink:href="$interface_sabre_1_1_d_a_v_a_c_l_1_1_principal_backend_1_1_create_principal_support.html" xlink:title=" ">
<polygon fill="white" stroke="none" points="254,-458 142,-458 142,-398 254,-398 254,-458"/>
<text text-anchor="start" x="147.75" y="-444.5" font-family="Helvetica,sans-Serif" font-size="10.00">CreatePrincipalSupport</text>
<text text-anchor="start" x="196.5" y="-429.5" font-family="Helvetica,sans-Serif" font-size="10.00"> </text>
<text text-anchor="start" x="146" y="-414.5" font-family="Helvetica,sans-Serif" font-size="10.00">+</text>
<text text-anchor="start" x="156" y="-414.5" font-family="Helvetica,sans-Serif" font-size="10.00">createPrincipal($path,</text>
<text text-anchor="start" x="156" y="-403.25" font-family="Helvetica,sans-Serif" font-size="10.00"> MkCol $mkCol)</text>
<polygon fill="#666666" stroke="#666666" points="142,-441 142,-441 254,-441 254,-441 142,-441"/>
<polygon fill="#666666" stroke="#666666" points="142,-426 142,-426 254,-426 254,-426 142,-426"/>
<polygon fill="none" stroke="#666666" points="142,-398 142,-458 254,-458 254,-398 142,-398"/>
</a>
</g>
</g>
<!-- Node3&#45;&gt;Node4 -->
<g id="edge12_Node000004_Node000003" class="edge">
<title>Node3&#45;&gt;Node4</title>
<g id="a_edge12_Node000004_Node000003"><a xlink:title=" ">
<path fill="none" stroke="#63b8ff" d="M180.2,-483.31C183.25,-474.01 186.07,-465.4 188.53,-457.9"/>
<polygon fill="none" stroke="#63b8ff" points="176.93,-482.05 177.14,-492.65 183.58,-484.23 176.93,-482.05"/>
</a>
</g>
</g>
<!-- Node4&#45;&gt;Node1 -->
<g id="edge11_Node000001_Node000004" class="edge">
<title>Node4&#45;&gt;Node1</title>
<g id="a_edge11_Node000001_Node000004"><a xlink:title=" ">
<path fill="none" stroke="#63b8ff" d="M186.99,-387.34C184.84,-379.59 182.46,-371.02 179.93,-361.89"/>
<polygon fill="none" stroke="#63b8ff" points="183.61,-388.26 189.66,-396.96 190.36,-386.39 183.61,-388.26"/>
</a>
</g>
</g>
</g>
</svg>
