<?xml version="1.0" encoding="UTF-8" standalone="no"?>
<!DOCTYPE svg PUBLIC "-//W3C//DTD SVG 1.1//EN"
 "http://www.w3.org/Graphics/SVG/1.1/DTD/svg11.dtd">
<!-- Generated by graphviz version 10.0.1 (20240210.2158)
 -->
<!-- Title: get_file_object Pages: 1 -->
<svg width="603pt" height="189pt"
 viewBox="0.00 0.00 603.25 188.88" xmlns="http://www.w3.org/2000/svg" xmlns:xlink="http://www.w3.org/1999/xlink">
<g id="graph0" class="graph" transform="scale(1 1) rotate(0) translate(4 184.88)">
<title>get_file_object</title>
<!-- Node1 -->
<g id="Node000001" class="node">
<title>Node1</title>
<g id="a_Node000001"><a xlink:title=" ">
<polygon fill="#999999" stroke="#666666" points="79,-95.25 0,-95.25 0,-76 79,-76 79,-95.25"/>
<text text-anchor="middle" x="39.5" y="-81.75" font-family="Helvetica,sans-Serif" font-size="10.00">get_file_object</text>
</a>
</g>
</g>
<!-- Node2 -->
<g id="Node000002" class="node">
<title>Node2</title>
<g id="a_Node000002"><a xlink:href="$class_upload_handler.html#a7bbc4074999d49c1bcec1e2333a5b6a0" xlink:title=" ">
<polygon fill="white" stroke="#666666" points="210.12,-132.25 118.38,-132.25 118.38,-113 210.12,-113 210.12,-132.25"/>
<text text-anchor="middle" x="164.25" y="-118.75" font-family="Helvetica,sans-Serif" font-size="10.00">get_download_url</text>
</a>
</g>
</g>
<!-- Node1&#45;&gt;Node2 -->
<g id="edge29_Node000001_Node000002" class="edge">
<title>Node1&#45;&gt;Node2</title>
<g id="a_edge29_Node000001_Node000002"><a xlink:title=" ">
<path fill="none" stroke="#63b8ff" d="M74.04,-95.74C87.84,-99.9 104.03,-104.77 118.8,-109.23"/>
<polygon fill="#63b8ff" stroke="#63b8ff" points="117.71,-112.56 128.3,-112.09 119.74,-105.85 117.71,-112.56"/>
</a>
</g>
</g>
<!-- Node7 -->
<g id="Node000007" class="node">
<title>Node7</title>
<g id="a_Node000007"><a xlink:href="$class_upload_handler.html#ad289968336f13388030bce7977ceb3b8" xlink:title=" ">
<polygon fill="white" stroke="#666666" points="199.62,-19.25 128.88,-19.25 128.88,0 199.62,0 199.62,-19.25"/>
<text text-anchor="middle" x="164.25" y="-5.75" font-family="Helvetica,sans-Serif" font-size="10.00">get_file_size</text>
</a>
</g>
</g>
<!-- Node1&#45;&gt;Node7 -->
<g id="edge34_Node000001_Node000007" class="edge">
<title>Node1&#45;&gt;Node7</title>
<g id="a_edge34_Node000001_Node000007"><a xlink:title=" ">
<path fill="none" stroke="#63b8ff" d="M53.56,-75.62C68.14,-64.67 92.62,-46.9 115,-33.62 120.1,-30.6 125.63,-27.6 131.07,-24.8"/>
<polygon fill="#63b8ff" stroke="#63b8ff" points="132.53,-27.98 139.92,-20.39 129.4,-21.72 132.53,-27.98"/>
</a>
</g>
</g>
<!-- Node9 -->
<g id="Node000009" class="node">
<title>Node9</title>
<g id="a_Node000009"><a xlink:href="$class_upload_handler.html#aa28df548183f4309edb5df9db306e980" xlink:title=" ">
<polygon fill="white" stroke="#666666" points="358.12,-62.25 270.88,-62.25 270.88,-43 358.12,-43 358.12,-62.25"/>
<text text-anchor="middle" x="314.5" y="-48.75" font-family="Helvetica,sans-Serif" font-size="10.00">get_upload_path</text>
</a>
</g>
</g>
<!-- Node1&#45;&gt;Node9 -->
<g id="edge36_Node000001_Node000009" class="edge">
<title>Node1&#45;&gt;Node9</title>
<g id="a_edge36_Node000001_Node000009"><a xlink:title=" ">
<path fill="none" stroke="#63b8ff" d="M74.72,-75.53C87.29,-72.18 101.69,-68.77 115,-66.62 163.42,-58.81 219.2,-55.35 259.27,-53.83"/>
<polygon fill="#63b8ff" stroke="#63b8ff" points="259.27,-57.33 269.14,-53.49 259.02,-50.34 259.27,-57.33"/>
</a>
</g>
</g>
<!-- Node10 -->
<g id="Node000010" class="node">
<title>Node10</title>
<g id="a_Node000010"><a xlink:href="$class_upload_handler.html#a63648aea7aa000b5f9094a76a04f03c5" xlink:title=" ">
<polygon fill="white" stroke="#666666" points="213.5,-95.25 115,-95.25 115,-76 213.5,-76 213.5,-95.25"/>
<text text-anchor="middle" x="164.25" y="-81.75" font-family="Helvetica,sans-Serif" font-size="10.00">is_valid_file_object</text>
</a>
</g>
</g>
<!-- Node1&#45;&gt;Node10 -->
<g id="edge38_Node000001_Node000010" class="edge">
<title>Node1&#45;&gt;Node10</title>
<g id="a_edge38_Node000001_Node000010"><a xlink:title=" ">
<path fill="none" stroke="#63b8ff" d="M79.34,-85.62C86.98,-85.62 95.16,-85.62 103.3,-85.62"/>
<polygon fill="#63b8ff" stroke="#63b8ff" points="103.22,-89.13 113.22,-85.63 103.22,-82.13 103.22,-89.13"/>
</a>
</g>
</g>
<!-- Node11 -->
<g id="Node000011" class="node">
<title>Node11</title>
<g id="a_Node000011"><a xlink:href="$class_upload_handler.html#aa05c4d932e762066ed2f52de2127b709" xlink:title=" ">
<polygon fill="white" stroke="#666666" points="211.25,-180.88 117.25,-180.88 117.25,-150.38 211.25,-150.38 211.25,-180.88"/>
<text text-anchor="start" x="125.25" y="-167.38" font-family="Helvetica,sans-Serif" font-size="10.00">set_additional_file</text>
<text text-anchor="middle" x="164.25" y="-156.12" font-family="Helvetica,sans-Serif" font-size="10.00">_properties</text>
</a>
</g>
</g>
<!-- Node1&#45;&gt;Node11 -->
<g id="edge40_Node000001_Node000011" class="edge">
<title>Node1&#45;&gt;Node11</title>
<g id="a_edge40_Node000001_Node000011"><a xlink:title=" ">
<path fill="none" stroke="#63b8ff" d="M52.15,-95.45C66.42,-107.22 91.59,-127.18 115,-141.62 116.59,-142.6 118.22,-143.58 119.88,-144.54"/>
<polygon fill="#63b8ff" stroke="#63b8ff" points="117.82,-147.4 128.27,-149.15 121.19,-141.26 117.82,-147.4"/>
</a>
</g>
</g>
<!-- Node3 -->
<g id="Node000003" class="node">
<title>Node3</title>
<g id="a_Node000003"><a xlink:href="$class_upload_handler.html#adc2132153d7fe1f1d508da4adae5c5a4" xlink:title=" ">
<polygon fill="white" stroke="#666666" points="366.75,-138.25 262.25,-138.25 262.25,-119 366.75,-119 366.75,-138.25"/>
<text text-anchor="middle" x="314.5" y="-124.75" font-family="Helvetica,sans-Serif" font-size="10.00">get_query_separator</text>
</a>
</g>
</g>
<!-- Node2&#45;&gt;Node3 -->
<g id="edge30_Node000002_Node000003" class="edge">
<title>Node2&#45;&gt;Node3</title>
<g id="a_edge30_Node000002_Node000003"><a xlink:title=" ">
<path fill="none" stroke="#63b8ff" d="M210.54,-124.46C223.24,-124.97 237.29,-125.54 250.81,-126.09"/>
<polygon fill="#63b8ff" stroke="#63b8ff" points="250.36,-129.57 260.5,-126.48 250.65,-122.58 250.36,-129.57"/>
</a>
</g>
</g>
<!-- Node4 -->
<g id="Node000004" class="node">
<title>Node4</title>
<g id="a_Node000004"><a xlink:href="$class_upload_handler.html#aadfab69e37378c1954bd569b10a4af02" xlink:title=" ">
<polygon fill="white" stroke="#666666" points="379.5,-175.25 249.5,-175.25 249.5,-156 379.5,-156 379.5,-175.25"/>
<text text-anchor="middle" x="314.5" y="-161.75" font-family="Helvetica,sans-Serif" font-size="10.00">get_singular_param_name</text>
</a>
</g>
</g>
<!-- Node2&#45;&gt;Node4 -->
<g id="edge31_Node000002_Node000004" class="edge">
<title>Node2&#45;&gt;Node4</title>
<g id="a_edge31_Node000002_Node000004"><a xlink:title=" ">
<path fill="none" stroke="#63b8ff" d="M198.84,-132.71C214.26,-137.31 232.79,-142.8 249.5,-147.62 254.97,-149.21 260.72,-150.85 266.42,-152.47"/>
<polygon fill="#63b8ff" stroke="#63b8ff" points="265.23,-155.77 275.8,-155.12 267.13,-149.03 265.23,-155.77"/>
</a>
</g>
</g>
<!-- Node5 -->
<g id="Node000005" class="node">
<title>Node5</title>
<g id="a_Node000005"><a xlink:href="$class_upload_handler.html#a718a236bd5baf364f6fc9d1b427f3267" xlink:title=" ">
<polygon fill="white" stroke="#666666" points="493,-81.25 415.5,-81.25 415.5,-62 493,-62 493,-81.25"/>
<text text-anchor="middle" x="454.25" y="-67.75" font-family="Helvetica,sans-Serif" font-size="10.00">get_user_path</text>
</a>
</g>
</g>
<!-- Node2&#45;&gt;Node5 -->
<g id="edge32_Node000002_Node000005" class="edge">
<title>Node2&#45;&gt;Node5</title>
<g id="a_edge32_Node000002_Node000005"><a xlink:title=" ">
<path fill="none" stroke="#63b8ff" d="M210.57,-114.6C263.22,-105.28 349.77,-89.95 404.03,-80.34"/>
<polygon fill="#63b8ff" stroke="#63b8ff" points="404.37,-83.84 413.61,-78.65 403.15,-76.94 404.37,-83.84"/>
</a>
</g>
</g>
<!-- Node6 -->
<g id="Node000006" class="node">
<title>Node6</title>
<g id="a_Node000006"><a xlink:href="$class_upload_handler.html#ab844873e74fa4e89157311bb3f5a0167" xlink:title=" ">
<polygon fill="white" stroke="#666666" points="595.25,-81.25 529,-81.25 529,-62 595.25,-62 595.25,-81.25"/>
<text text-anchor="middle" x="562.12" y="-67.75" font-family="Helvetica,sans-Serif" font-size="10.00">get_user_id</text>
</a>
</g>
</g>
<!-- Node5&#45;&gt;Node6 -->
<g id="edge33_Node000005_Node000006" class="edge">
<title>Node5&#45;&gt;Node6</title>
<g id="a_edge33_Node000005_Node000006"><a xlink:title=" ">
<path fill="none" stroke="#63b8ff" d="M493.47,-71.62C501.19,-71.62 509.37,-71.62 517.26,-71.62"/>
<polygon fill="#63b8ff" stroke="#63b8ff" points="517.04,-75.13 527.04,-71.63 517.04,-68.13 517.04,-75.13"/>
</a>
</g>
</g>
<!-- Node8 -->
<g id="Node000008" class="node">
<title>Node8</title>
<g id="a_Node000008"><a xlink:href="$class_upload_handler.html#a9abdfd2889f4f707aa38362ee5d163e7" xlink:title=" ">
<polygon fill="white" stroke="#666666" points="366,-19.25 263,-19.25 263,0 366,0 366,-19.25"/>
<text text-anchor="middle" x="314.5" y="-5.75" font-family="Helvetica,sans-Serif" font-size="10.00">fix_integer_overflow</text>
</a>
</g>
</g>
<!-- Node7&#45;&gt;Node8 -->
<g id="edge35_Node000007_Node000008" class="edge">
<title>Node7&#45;&gt;Node8</title>
<g id="a_edge35_Node000007_Node000008"><a xlink:title=" ">
<path fill="none" stroke="#63b8ff" d="M200.01,-9.62C215.31,-9.62 233.77,-9.62 251.31,-9.62"/>
<polygon fill="#63b8ff" stroke="#63b8ff" points="251.15,-13.13 261.15,-9.63 251.15,-6.13 251.15,-13.13"/>
</a>
</g>
</g>
<!-- Node9&#45;&gt;Node5 -->
<g id="edge37_Node000009_Node000005" class="edge">
<title>Node9&#45;&gt;Node5</title>
<g id="a_edge37_Node000009_Node000005"><a xlink:title=" ">
<path fill="none" stroke="#63b8ff" d="M358.33,-58.53C372.81,-60.53 389.08,-62.77 404.01,-64.83"/>
<polygon fill="#63b8ff" stroke="#63b8ff" points="403.23,-68.26 413.62,-66.16 404.19,-61.32 403.23,-68.26"/>
</a>
</g>
</g>
<!-- Node10&#45;&gt;Node9 -->
<g id="edge39_Node000010_Node000009" class="edge">
<title>Node10&#45;&gt;Node9</title>
<g id="a_edge39_Node000010_Node000009"><a xlink:title=" ">
<path fill="none" stroke="#63b8ff" d="M210.54,-75.54C226.03,-72.09 243.52,-68.2 259.63,-64.62"/>
<polygon fill="#63b8ff" stroke="#63b8ff" points="260.04,-68.11 269.04,-62.52 258.52,-61.28 260.04,-68.11"/>
</a>
</g>
</g>
<!-- Node11&#45;&gt;Node3 -->
<g id="edge41_Node000011_Node000003" class="edge">
<title>Node11&#45;&gt;Node3</title>
<g id="a_edge41_Node000011_Node000003"><a xlink:title=" ">
<path fill="none" stroke="#63b8ff" d="M211.34,-154.12C227.37,-150.12 245.44,-145.61 261.88,-141.51"/>
<polygon fill="#63b8ff" stroke="#63b8ff" points="262.63,-144.93 271.48,-139.11 260.93,-138.14 262.63,-144.93"/>
</a>
</g>
</g>
<!-- Node11&#45;&gt;Node4 -->
<g id="edge42_Node000011_Node000004" class="edge">
<title>Node11&#45;&gt;Node4</title>
<g id="a_edge42_Node000011_Node000004"><a xlink:title=" ">
<path fill="none" stroke="#63b8ff" d="M211.34,-165.62C219.77,-165.62 228.76,-165.62 237.79,-165.62"/>
<polygon fill="#63b8ff" stroke="#63b8ff" points="237.68,-169.13 247.68,-165.63 237.68,-162.13 237.68,-169.13"/>
</a>
</g>
</g>
</g>
</svg>
