<?xml version="1.0" encoding="UTF-8" standalone="no"?>
<!DOCTYPE svg PUBLIC "-//W3C//DTD SVG 1.1//EN"
 "http://www.w3.org/Graphics/SVG/1.1/DTD/svg11.dtd">
<!-- Generated by graphviz version 10.0.1 (20240210.2158)
 -->
<!-- Title: canPurgeItem Pages: 1 -->
<svg width="418pt" height="122pt"
 viewBox="0.00 0.00 417.75 122.25" xmlns="http://www.w3.org/2000/svg" xmlns:xlink="http://www.w3.org/1999/xlink">
<g id="graph0" class="graph" transform="scale(1 1) rotate(0) translate(4 118.25)">
<title>canPurgeItem</title>
<!-- Node1 -->
<g id="Node000001" class="node">
<title>Node1</title>
<g id="a_Node000001"><a xlink:title=" ">
<polygon fill="#999999" stroke="#666666" points="76.75,-57.25 0,-57.25 0,-38 76.75,-38 76.75,-57.25"/>
<text text-anchor="middle" x="38.38" y="-43.75" font-family="Helvetica,sans-Serif" font-size="10.00">canPurgeItem</text>
</a>
</g>
</g>
<!-- Node2 -->
<g id="Node000002" class="node">
<title>Node2</title>
<g id="a_Node000002"><a xlink:href="$class_common_d_b_t_m.html#a4994fe60f4f6b6328091e914c2b681ac" xlink:title=" ">
<polygon fill="white" stroke="#666666" points="180.5,-57.25 112.75,-57.25 112.75,-38 180.5,-38 180.5,-57.25"/>
<text text-anchor="middle" x="146.62" y="-43.75" font-family="Helvetica,sans-Serif" font-size="10.00">checkEntity</text>
</a>
</g>
</g>
<!-- Node1&#45;&gt;Node2 -->
<g id="edge15_Node000001_Node000002" class="edge">
<title>Node1&#45;&gt;Node2</title>
<g id="a_edge15_Node000001_Node000002"><a xlink:title=" ">
<path fill="none" stroke="#63b8ff" d="M77.13,-47.62C84.91,-47.62 93.16,-47.62 101.15,-47.62"/>
<polygon fill="#63b8ff" stroke="#63b8ff" points="101.06,-51.13 111.06,-47.63 101.06,-44.13 101.06,-51.13"/>
</a>
</g>
</g>
<!-- Node3 -->
<g id="Node000003" class="node">
<title>Node3</title>
<g id="a_Node000003"><a xlink:href="$class_common_d_b_t_m.html#a1ad0e84aef9bfb7fe28ac6fcafa1b14b" xlink:title=" ">
<polygon fill="white" stroke="#666666" points="283.12,-114.25 217.62,-114.25 217.62,-95 283.12,-95 283.12,-114.25"/>
<text text-anchor="middle" x="250.38" y="-100.75" font-family="Helvetica,sans-Serif" font-size="10.00">getEntityID</text>
</a>
</g>
</g>
<!-- Node2&#45;&gt;Node3 -->
<g id="edge16_Node000002_Node000003" class="edge">
<title>Node2&#45;&gt;Node3</title>
<g id="a_edge16_Node000002_Node000003"><a xlink:title=" ">
<path fill="none" stroke="#63b8ff" d="M165.35,-57.55C180.86,-66.25 203.67,-79.02 221.61,-89.07"/>
<polygon fill="#63b8ff" stroke="#63b8ff" points="219.76,-92.05 230.19,-93.88 223.18,-85.94 219.76,-92.05"/>
</a>
</g>
</g>
<!-- Node4 -->
<g id="Node000004" class="node">
<title>Node4</title>
<g id="a_Node000004"><a xlink:href="$class_common_d_b_t_m.html#abd1fba5cbce28a1d30906bebf5b88ead" xlink:title=" ">
<polygon fill="white" stroke="#666666" points="404.5,-95.25 325.5,-95.25 325.5,-76 404.5,-76 404.5,-95.25"/>
<text text-anchor="middle" x="365" y="-81.75" font-family="Helvetica,sans-Serif" font-size="10.00">isEntityAssign</text>
</a>
</g>
</g>
<!-- Node2&#45;&gt;Node4 -->
<g id="edge18_Node000002_Node000004" class="edge">
<title>Node2&#45;&gt;Node4</title>
<g id="a_edge18_Node000002_Node000004"><a xlink:title=" ">
<path fill="none" stroke="#63b8ff" d="M180.96,-53.48C216.5,-59.72 273.18,-69.68 314.06,-76.85"/>
<polygon fill="#63b8ff" stroke="#63b8ff" points="313.19,-80.26 323.65,-78.54 314.4,-73.36 313.19,-80.26"/>
</a>
</g>
</g>
<!-- Node5 -->
<g id="Node000005" class="node">
<title>Node5</title>
<g id="a_Node000005"><a xlink:href="$class_common_d_b_t_m.html#aaa472e233121aa79f3c5c1298b4bc7cb" xlink:title=" ">
<polygon fill="white" stroke="#666666" points="284.25,-38.25 216.5,-38.25 216.5,-19 284.25,-19 284.25,-38.25"/>
<text text-anchor="middle" x="250.38" y="-24.75" font-family="Helvetica,sans-Serif" font-size="10.00">isRecursive</text>
</a>
</g>
</g>
<!-- Node2&#45;&gt;Node5 -->
<g id="edge19_Node000002_Node000005" class="edge">
<title>Node2&#45;&gt;Node5</title>
<g id="a_edge19_Node000002_Node000005"><a xlink:title=" ">
<path fill="none" stroke="#63b8ff" d="M180.94,-41.4C188.66,-39.96 197,-38.41 205.11,-36.89"/>
<polygon fill="#63b8ff" stroke="#63b8ff" points="205.66,-40.35 214.84,-35.07 204.37,-33.47 205.66,-40.35"/>
</a>
</g>
</g>
<!-- Node6 -->
<g id="Node000006" class="node">
<title>Node6</title>
<g id="a_Node000006"><a xlink:href="$class_common_d_b_t_m.html#a74710ea062a0f689b4f3a72acbf91a07" xlink:title=" ">
<polygon fill="white" stroke="#666666" points="409.75,-19.25 320.25,-19.25 320.25,0 409.75,0 409.75,-19.25"/>
<text text-anchor="middle" x="365" y="-5.75" font-family="Helvetica,sans-Serif" font-size="10.00">maybeRecursive</text>
</a>
</g>
</g>
<!-- Node2&#45;&gt;Node6 -->
<g id="edge21_Node000002_Node000006" class="edge">
<title>Node2&#45;&gt;Node6</title>
<g id="a_edge21_Node000002_Node000006"><a xlink:title=" ">
<path fill="none" stroke="#63b8ff" d="M160.99,-37.55C174.27,-28.22 195.6,-15.01 216.5,-9.62 246.36,-1.93 280.76,-1.48 308.83,-3.15"/>
<polygon fill="#63b8ff" stroke="#63b8ff" points="308.31,-6.62 318.53,-3.84 308.8,0.36 308.31,-6.62"/>
</a>
</g>
</g>
<!-- Node3&#45;&gt;Node4 -->
<g id="edge17_Node000003_Node000004" class="edge">
<title>Node3&#45;&gt;Node4</title>
<g id="a_edge17_Node000003_Node000004"><a xlink:title=" ">
<path fill="none" stroke="#63b8ff" d="M283.35,-99.23C292.9,-97.62 303.61,-95.81 314.02,-94.06"/>
<polygon fill="#63b8ff" stroke="#63b8ff" points="314.37,-97.55 323.65,-92.43 313.21,-90.64 314.37,-97.55"/>
</a>
</g>
</g>
<!-- Node5&#45;&gt;Node6 -->
<g id="edge20_Node000005_Node000006" class="edge">
<title>Node5&#45;&gt;Node6</title>
<g id="a_edge20_Node000005_Node000006"><a xlink:title=" ">
<path fill="none" stroke="#63b8ff" d="M284.56,-23.03C292.14,-21.75 300.4,-20.35 308.64,-18.97"/>
<polygon fill="#63b8ff" stroke="#63b8ff" points="309.01,-22.45 318.29,-17.34 307.85,-15.55 309.01,-22.45"/>
</a>
</g>
</g>
</g>
</svg>
