<?xml version="1.0" encoding="UTF-8" standalone="no"?>
<!DOCTYPE svg PUBLIC "-//W3C//DTD SVG 1.1//EN"
 "http://www.w3.org/Graphics/SVG/1.1/DTD/svg11.dtd">
<!-- Generated by graphviz version 10.0.1 (20240210.2158)
 -->
<!-- Title: getClosedStatusArray Pages: 1 -->
<svg width="222pt" height="64pt"
 viewBox="0.00 0.00 221.50 64.25" xmlns="http://www.w3.org/2000/svg" xmlns:xlink="http://www.w3.org/1999/xlink">
<g id="graph0" class="graph" transform="scale(1 1) rotate(0) translate(4 60.25)">
<title>getClosedStatusArray</title>
<!-- Node1 -->
<g id="Node000001" class="node">
<title>Node1</title>
<g id="a_Node000001"><a xlink:title=" ">
<polygon fill="#999999" stroke="#666666" points="213.5,-37.25 101.5,-37.25 101.5,-18 213.5,-18 213.5,-37.25"/>
<text text-anchor="middle" x="157.5" y="-23.75" font-family="Helvetica,sans-Serif" font-size="10.00">getClosedStatusArray</text>
</a>
</g>
</g>
<!-- Node2 -->
<g id="Node000002" class="node">
<title>Node2</title>
<g id="a_Node000002"><a xlink:href="$class_change.html#a498117685dd7049af28a013b1a41bf94" xlink:title=" ">
<polygon fill="white" stroke="#666666" points="65.5,-56.25 0,-56.25 0,-37 65.5,-37 65.5,-56.25"/>
<text text-anchor="middle" x="32.75" y="-42.75" font-family="Helvetica,sans-Serif" font-size="10.00">canReopen</text>
</a>
</g>
</g>
<!-- Node1&#45;&gt;Node2 -->
<g id="edge5_Node000001_Node000002" class="edge">
<title>Node1&#45;&gt;Node2</title>
<g id="a_edge5_Node000001_Node000002"><a xlink:title=" ">
<path fill="none" stroke="#63b8ff" d="M89.86,-37.94C81.54,-39.23 73.35,-40.5 65.9,-41.65"/>
<polygon fill="#63b8ff" stroke="#63b8ff" points="90.39,-41.4 99.73,-36.41 89.32,-34.48 90.39,-41.4"/>
</a>
</g>
</g>
<!-- Node3 -->
<g id="Node000003" class="node">
<title>Node3</title>
<g id="a_Node000003"><a xlink:href="$class_change.html#a17430b190a761ae327e0e345a3668e91" xlink:title=" ">
<polygon fill="white" stroke="#666666" points="61,-19.25 4.5,-19.25 4.5,0 61,0 61,-19.25"/>
<text text-anchor="middle" x="32.75" y="-5.75" font-family="Helvetica,sans-Serif" font-size="10.00">canSolve</text>
</a>
</g>
</g>
<!-- Node1&#45;&gt;Node3 -->
<g id="edge6_Node000001_Node000003" class="edge">
<title>Node1&#45;&gt;Node3</title>
<g id="a_edge6_Node000001_Node000003"><a xlink:title=" ">
<path fill="none" stroke="#63b8ff" d="M90.14,-17.89C79.94,-16.4 69.92,-14.93 61.22,-13.65"/>
<polygon fill="#63b8ff" stroke="#63b8ff" points="89.33,-21.31 99.73,-19.3 90.35,-14.39 89.33,-21.31"/>
</a>
</g>
</g>
</g>
</svg>
