<?xml version="1.0" encoding="UTF-8" standalone="no"?>
<!DOCTYPE svg PUBLIC "-//W3C//DTD SVG 1.1//EN"
 "http://www.w3.org/Graphics/SVG/1.1/DTD/svg11.dtd">
<!-- Generated by graphviz version 10.0.1 (20240210.2158)
 -->
<!-- Title: LazyString Pages: 1 -->
<svg width="160pt" height="265pt"
 viewBox="0.00 0.00 160.00 265.00" xmlns="http://www.w3.org/2000/svg" xmlns:xlink="http://www.w3.org/1999/xlink">
<g id="graph0" class="graph" transform="scale(1 1) rotate(0) translate(4 261)">
<title>LazyString</title>
<!-- Node1 -->
<g id="Node000001" class="node">
<title>Node1</title>
<g id="a_Node000001"><a xlink:title=" ">
<polygon fill="#999999" stroke="none" points="134,-172 3,-172 3,0 134,0 134,-172"/>
<text text-anchor="start" x="45.25" y="-158.5" font-family="Helvetica,sans-Serif" font-size="10.00">LazyString</text>
<text text-anchor="start" x="67" y="-143.5" font-family="Helvetica,sans-Serif" font-size="10.00"> </text>
<text text-anchor="start" x="7" y="-128.5" font-family="Helvetica,sans-Serif" font-size="10.00">+</text>
<text text-anchor="start" x="17" y="-128.5" font-family="Helvetica,sans-Serif" font-size="10.00">__toString()</text>
<text text-anchor="start" x="7" y="-113.5" font-family="Helvetica,sans-Serif" font-size="10.00">+</text>
<text text-anchor="start" x="17" y="-113.5" font-family="Helvetica,sans-Serif" font-size="10.00">__sleep()</text>
<text text-anchor="start" x="7" y="-98.5" font-family="Helvetica,sans-Serif" font-size="10.00">+</text>
<text text-anchor="start" x="17" y="-98.5" font-family="Helvetica,sans-Serif" font-size="10.00">jsonSerialize()</text>
<text text-anchor="start" x="7" y="-83.5" font-family="Helvetica,sans-Serif" font-size="10.00">+</text>
<text text-anchor="start" x="17" y="-83.5" font-family="Helvetica,sans-Serif" font-size="10.00">static fromCallable</text>
<text text-anchor="start" x="17" y="-72.25" font-family="Helvetica,sans-Serif" font-size="10.00">($callback,... $arguments)</text>
<text text-anchor="start" x="7" y="-57.5" font-family="Helvetica,sans-Serif" font-size="10.00">+</text>
<text text-anchor="start" x="17" y="-57.5" font-family="Helvetica,sans-Serif" font-size="10.00">static fromStringable</text>
<text text-anchor="start" x="17" y="-46.25" font-family="Helvetica,sans-Serif" font-size="10.00">($value)</text>
<text text-anchor="start" x="7" y="-31.5" font-family="Helvetica,sans-Serif" font-size="10.00">+</text>
<text text-anchor="start" x="17" y="-31.5" font-family="Helvetica,sans-Serif" font-size="10.00">static isStringable</text>
<text text-anchor="start" x="17" y="-20.25" font-family="Helvetica,sans-Serif" font-size="10.00">($value)</text>
<text text-anchor="start" x="7" y="-5.5" font-family="Helvetica,sans-Serif" font-size="10.00">+</text>
<text text-anchor="start" x="17" y="-5.5" font-family="Helvetica,sans-Serif" font-size="10.00">static resolve($value)</text>
<polygon fill="#666666" stroke="#666666" points="3,-155 3,-155 134,-155 134,-155 3,-155"/>
<polygon fill="#666666" stroke="#666666" points="3,-140 3,-140 134,-140 134,-140 3,-140"/>
<polygon fill="none" stroke="#666666" points="3,0 3,-172 134,-172 134,0 3,0"/>
</a>
</g>
</g>
<!-- Node2 -->
<g id="Node000002" class="node">
<title>Node2</title>
<g id="a_Node000002"><a xlink:title=" ">
<polygon fill="white" stroke="none" points="53,-257 0,-257 0,-208 53,-208 53,-257"/>
<text text-anchor="start" x="4.75" y="-243.5" font-family="Helvetica,sans-Serif" font-size="10.00">Stringable</text>
<text text-anchor="start" x="25" y="-228.5" font-family="Helvetica,sans-Serif" font-size="10.00"> </text>
<text text-anchor="start" x="25" y="-213.5" font-family="Helvetica,sans-Serif" font-size="10.00"> </text>
<polygon fill="#666666" stroke="#666666" points="0,-240 0,-240 53,-240 53,-240 0,-240"/>
<polygon fill="#666666" stroke="#666666" points="0,-225 0,-225 53,-225 53,-225 0,-225"/>
<polygon fill="none" stroke="#666666" points="0,-208 0,-257 53,-257 53,-208 0,-208"/>
</a>
</g>
</g>
<!-- Node2&#45;&gt;Node1 -->
<g id="edge5_Node000001_Node000002" class="edge">
<title>Node2&#45;&gt;Node1</title>
<g id="a_edge5_Node000001_Node000002"><a xlink:title=" ">
<path fill="none" stroke="#63b8ff" d="M36.41,-197.41C38.7,-189.53 41.24,-180.79 43.86,-171.79"/>
<polygon fill="none" stroke="#63b8ff" points="33.1,-196.25 33.67,-206.83 39.82,-198.2 33.1,-196.25"/>
</a>
</g>
</g>
<!-- Node3 -->
<g id="Node000003" class="node">
<title>Node3</title>
<g id="a_Node000003"><a xlink:title=" ">
<polygon fill="white" stroke="none" points="152,-257 71,-257 71,-208 152,-208 152,-257"/>
<text text-anchor="start" x="75.88" y="-243.5" font-family="Helvetica,sans-Serif" font-size="10.00">JsonSerializable</text>
<text text-anchor="start" x="110" y="-228.5" font-family="Helvetica,sans-Serif" font-size="10.00"> </text>
<text text-anchor="start" x="110" y="-213.5" font-family="Helvetica,sans-Serif" font-size="10.00"> </text>
<polygon fill="#666666" stroke="#666666" points="71,-240 71,-240 152,-240 152,-240 71,-240"/>
<polygon fill="#666666" stroke="#666666" points="71,-225 71,-225 152,-225 152,-225 71,-225"/>
<polygon fill="none" stroke="#666666" points="71,-208 71,-257 152,-257 152,-208 71,-208"/>
</a>
</g>
</g>
<!-- Node3&#45;&gt;Node1 -->
<g id="edge6_Node000001_Node000003" class="edge">
<title>Node3&#45;&gt;Node1</title>
<g id="a_edge6_Node000001_Node000003"><a xlink:title=" ">
<path fill="none" stroke="#63b8ff" d="M101.36,-197.41C99.01,-189.53 96.41,-180.79 93.73,-171.79"/>
<polygon fill="none" stroke="#63b8ff" points="97.95,-198.25 104.16,-206.83 104.66,-196.25 97.95,-198.25"/>
</a>
</g>
</g>
</g>
</svg>
