<?xml version="1.0" encoding="UTF-8" standalone="no"?>
<!DOCTYPE svg PUBLIC "-//W3C//DTD SVG 1.1//EN"
 "http://www.w3.org/Graphics/SVG/1.1/DTD/svg11.dtd">
<!-- Generated by graphviz version 10.0.1 (20240210.2158)
 -->
<!-- Title: Time Pages: 1 -->
<svg width="466pt" height="1257pt"
 viewBox="0.00 0.00 466.00 1257.00" xmlns="http://www.w3.org/2000/svg" xmlns:xlink="http://www.w3.org/1999/xlink">
<g id="graph0" class="graph" transform="scale(1 1) rotate(0) translate(4 1253)">
<title>Time</title>
<!-- Node1 -->
<g id="Node000001" class="node">
<title>Node1</title>
<g id="a_Node000001"><a xlink:title=" ">
<polygon fill="#999999" stroke="none" points="265,-116 164,-116 164,0 265,0 265,-116"/>
<text text-anchor="start" x="203.62" y="-102.5" font-family="Helvetica,sans-Serif" font-size="10.00">Time</text>
<text text-anchor="start" x="168" y="-87.5" font-family="Helvetica,sans-Serif" font-size="10.00">+</text>
<text text-anchor="start" x="178" y="-87.5" font-family="Helvetica,sans-Serif" font-size="10.00">$delimiter</text>
<text text-anchor="start" x="168" y="-72.5" font-family="Helvetica,sans-Serif" font-size="10.00">+</text>
<text text-anchor="start" x="178" y="-72.5" font-family="Helvetica,sans-Serif" font-size="10.00">getValueType()</text>
<text text-anchor="start" x="168" y="-57.5" font-family="Helvetica,sans-Serif" font-size="10.00">+</text>
<text text-anchor="start" x="178" y="-57.5" font-family="Helvetica,sans-Serif" font-size="10.00">setJsonValue(array</text>
<text text-anchor="start" x="178" y="-46.25" font-family="Helvetica,sans-Serif" font-size="10.00"> $value)</text>
<text text-anchor="start" x="168" y="-31.5" font-family="Helvetica,sans-Serif" font-size="10.00">+</text>
<text text-anchor="start" x="178" y="-31.5" font-family="Helvetica,sans-Serif" font-size="10.00">getJsonValue()</text>
<text text-anchor="start" x="168" y="-16.5" font-family="Helvetica,sans-Serif" font-size="10.00">+</text>
<text text-anchor="start" x="178" y="-16.5" font-family="Helvetica,sans-Serif" font-size="10.00">setXmlValue(array</text>
<text text-anchor="start" x="178" y="-5.25" font-family="Helvetica,sans-Serif" font-size="10.00"> $value)</text>
<polygon fill="#666666" stroke="#666666" points="164,-99 164,-99 265,-99 265,-99 164,-99"/>
<polygon fill="#666666" stroke="#666666" points="164,-84 164,-84 176,-84 176,-84 164,-84"/>
<polygon fill="#666666" stroke="#666666" points="176,-84 176,-84 265,-84 265,-84 176,-84"/>
<polygon fill="none" stroke="#666666" points="164,0 164,-116 265,-116 265,0 164,0"/>
</a>
</g>
</g>
<!-- Node2 -->
<g id="Node000002" class="node">
<title>Node2</title>
<g id="a_Node000002"><a xlink:href="$class_sabre_1_1_v_object_1_1_property_1_1_text.html" xlink:title=" ">
<polygon fill="white" stroke="none" points="279,-418 150,-418 150,-152 279,-152 279,-418"/>
<text text-anchor="start" x="205.12" y="-404.5" font-family="Helvetica,sans-Serif" font-size="10.00">Text</text>
<text text-anchor="start" x="154" y="-389.5" font-family="Helvetica,sans-Serif" font-size="10.00">+</text>
<text text-anchor="start" x="164" y="-389.5" font-family="Helvetica,sans-Serif" font-size="10.00">$delimiter</text>
<text text-anchor="start" x="154.38" y="-374.5" font-family="Helvetica,sans-Serif" font-size="10.00">#</text>
<text text-anchor="start" x="164" y="-374.5" font-family="Helvetica,sans-Serif" font-size="10.00">$structuredValues</text>
<text text-anchor="start" x="154.38" y="-359.5" font-family="Helvetica,sans-Serif" font-size="10.00">#</text>
<text text-anchor="start" x="164" y="-359.5" font-family="Helvetica,sans-Serif" font-size="10.00">$minimumPropertyValues</text>
<text text-anchor="start" x="154" y="-344.5" font-family="Helvetica,sans-Serif" font-size="10.00">+</text>
<text text-anchor="start" x="164" y="-344.5" font-family="Helvetica,sans-Serif" font-size="10.00">__construct(Component</text>
<text text-anchor="start" x="164" y="-333.25" font-family="Helvetica,sans-Serif" font-size="10.00"> $root, $name, $value</text>
<text text-anchor="start" x="164" y="-322" font-family="Helvetica,sans-Serif" font-size="10.00">=null, array $parameters</text>
<text text-anchor="start" x="164" y="-310.75" font-family="Helvetica,sans-Serif" font-size="10.00">=[], $group=null)</text>
<text text-anchor="start" x="154" y="-295.5" font-family="Helvetica,sans-Serif" font-size="10.00">+</text>
<text text-anchor="start" x="164" y="-295.5" font-family="Helvetica,sans-Serif" font-size="10.00">setRawMimeDirValue</text>
<text text-anchor="start" x="164" y="-284.25" font-family="Helvetica,sans-Serif" font-size="10.00">($val)</text>
<text text-anchor="start" x="154" y="-269.5" font-family="Helvetica,sans-Serif" font-size="10.00">+</text>
<text text-anchor="start" x="164" y="-269.5" font-family="Helvetica,sans-Serif" font-size="10.00">setQuotedPrintableValue</text>
<text text-anchor="start" x="164" y="-258.25" font-family="Helvetica,sans-Serif" font-size="10.00">($val)</text>
<text text-anchor="start" x="154" y="-243.5" font-family="Helvetica,sans-Serif" font-size="10.00">+</text>
<text text-anchor="start" x="164" y="-243.5" font-family="Helvetica,sans-Serif" font-size="10.00">getRawMimeDirValue()</text>
<text text-anchor="start" x="154" y="-228.5" font-family="Helvetica,sans-Serif" font-size="10.00">+</text>
<text text-anchor="start" x="164" y="-228.5" font-family="Helvetica,sans-Serif" font-size="10.00">getJsonValue()</text>
<text text-anchor="start" x="154" y="-213.5" font-family="Helvetica,sans-Serif" font-size="10.00">+</text>
<text text-anchor="start" x="164" y="-213.5" font-family="Helvetica,sans-Serif" font-size="10.00">getValueType()</text>
<text text-anchor="start" x="154" y="-198.5" font-family="Helvetica,sans-Serif" font-size="10.00">+</text>
<text text-anchor="start" x="164" y="-198.5" font-family="Helvetica,sans-Serif" font-size="10.00">serialize()</text>
<text text-anchor="start" x="154" y="-183.5" font-family="Helvetica,sans-Serif" font-size="10.00">+</text>
<text text-anchor="start" x="164" y="-183.5" font-family="Helvetica,sans-Serif" font-size="10.00">validate($options=0)</text>
<text text-anchor="start" x="154.38" y="-168.5" font-family="Helvetica,sans-Serif" font-size="10.00">#</text>
<text text-anchor="start" x="164" y="-168.5" font-family="Helvetica,sans-Serif" font-size="10.00">xmlSerializeValue</text>
<text text-anchor="start" x="164" y="-157.25" font-family="Helvetica,sans-Serif" font-size="10.00">(Xml\Writer $writer)</text>
<polygon fill="#666666" stroke="#666666" points="150,-401 150,-401 279,-401 279,-401 150,-401"/>
<polygon fill="#666666" stroke="#666666" points="150,-356 150,-356 162,-356 162,-356 150,-356"/>
<polygon fill="#666666" stroke="#666666" points="162,-356 162,-356 279,-356 279,-356 162,-356"/>
<polygon fill="none" stroke="#666666" points="150,-152 150,-418 279,-418 279,-152 150,-152"/>
</a>
</g>
</g>
<!-- Node2&#45;&gt;Node1 -->
<g id="edge17_Node000001_Node000002" class="edge">
<title>Node2&#45;&gt;Node1</title>
<g id="a_edge17_Node000001_Node000002"><a xlink:title=" ">
<path fill="none" stroke="#63b8ff" d="M214.5,-140.68C214.5,-132.06 214.5,-123.71 214.5,-115.84"/>
<polygon fill="none" stroke="#63b8ff" points="211,-140.63 214.5,-150.63 218,-140.63 211,-140.63"/>
</a>
</g>
</g>
<!-- Node3 -->
<g id="Node000003" class="node">
<title>Node3</title>
<g id="a_Node000003"><a xlink:href="$class_sabre_1_1_v_object_1_1_property.html" xlink:title=" ">
<polygon fill="white" stroke="none" points="276,-795 153,-795 153,-454 276,-454 276,-795"/>
<text text-anchor="start" x="196.12" y="-781.5" font-family="Helvetica,sans-Serif" font-size="10.00">Property</text>
<text text-anchor="start" x="157" y="-766.5" font-family="Helvetica,sans-Serif" font-size="10.00">+</text>
<text text-anchor="start" x="167" y="-766.5" font-family="Helvetica,sans-Serif" font-size="10.00">$name</text>
<text text-anchor="start" x="157" y="-751.5" font-family="Helvetica,sans-Serif" font-size="10.00">+</text>
<text text-anchor="start" x="167" y="-751.5" font-family="Helvetica,sans-Serif" font-size="10.00">$group</text>
<text text-anchor="start" x="157" y="-736.5" font-family="Helvetica,sans-Serif" font-size="10.00">+</text>
<text text-anchor="start" x="167" y="-736.5" font-family="Helvetica,sans-Serif" font-size="10.00">$parameters</text>
<text text-anchor="start" x="157" y="-721.5" font-family="Helvetica,sans-Serif" font-size="10.00">+</text>
<text text-anchor="start" x="167" y="-721.5" font-family="Helvetica,sans-Serif" font-size="10.00">$delimiter</text>
<text text-anchor="start" x="157.38" y="-706.5" font-family="Helvetica,sans-Serif" font-size="10.00">#</text>
<text text-anchor="start" x="167" y="-706.5" font-family="Helvetica,sans-Serif" font-size="10.00">$value</text>
<text text-anchor="start" x="157" y="-691.5" font-family="Helvetica,sans-Serif" font-size="10.00">+</text>
<text text-anchor="start" x="167" y="-691.5" font-family="Helvetica,sans-Serif" font-size="10.00">__construct(Component</text>
<text text-anchor="start" x="167" y="-680.25" font-family="Helvetica,sans-Serif" font-size="10.00"> $root, $name, $value</text>
<text text-anchor="start" x="167" y="-669" font-family="Helvetica,sans-Serif" font-size="10.00">=null, array $parameters</text>
<text text-anchor="start" x="167" y="-657.75" font-family="Helvetica,sans-Serif" font-size="10.00">=[], $group=null)</text>
<text text-anchor="start" x="157" y="-642.5" font-family="Helvetica,sans-Serif" font-size="10.00">+</text>
<text text-anchor="start" x="167" y="-642.5" font-family="Helvetica,sans-Serif" font-size="10.00">setValue($value)</text>
<text text-anchor="start" x="157" y="-627.5" font-family="Helvetica,sans-Serif" font-size="10.00">+</text>
<text text-anchor="start" x="167" y="-627.5" font-family="Helvetica,sans-Serif" font-size="10.00">getValue()</text>
<text text-anchor="start" x="157" y="-612.5" font-family="Helvetica,sans-Serif" font-size="10.00">+</text>
<text text-anchor="start" x="167" y="-612.5" font-family="Helvetica,sans-Serif" font-size="10.00">setParts(array $parts)</text>
<text text-anchor="start" x="157" y="-597.5" font-family="Helvetica,sans-Serif" font-size="10.00">+</text>
<text text-anchor="start" x="167" y="-597.5" font-family="Helvetica,sans-Serif" font-size="10.00">getParts()</text>
<text text-anchor="start" x="157" y="-582.5" font-family="Helvetica,sans-Serif" font-size="10.00">+</text>
<text text-anchor="start" x="167" y="-582.5" font-family="Helvetica,sans-Serif" font-size="10.00">add($name, $value</text>
<text text-anchor="start" x="167" y="-571.25" font-family="Helvetica,sans-Serif" font-size="10.00">=null)</text>
<text text-anchor="start" x="157" y="-556.5" font-family="Helvetica,sans-Serif" font-size="10.00">+</text>
<text text-anchor="start" x="167" y="-556.5" font-family="Helvetica,sans-Serif" font-size="10.00">parameters()</text>
<text text-anchor="start" x="157" y="-541.5" font-family="Helvetica,sans-Serif" font-size="10.00">+</text>
<text text-anchor="start" x="167" y="-541.5" font-family="Helvetica,sans-Serif" font-size="10.00">getValueType()</text>
<text text-anchor="start" x="157" y="-526.5" font-family="Helvetica,sans-Serif" font-size="10.00">+</text>
<text text-anchor="start" x="167" y="-526.5" font-family="Helvetica,sans-Serif" font-size="10.00">setRawMimeDirValue</text>
<text text-anchor="start" x="167" y="-515.25" font-family="Helvetica,sans-Serif" font-size="10.00">($val)</text>
<text text-anchor="start" x="157" y="-500.5" font-family="Helvetica,sans-Serif" font-size="10.00">+</text>
<text text-anchor="start" x="167" y="-500.5" font-family="Helvetica,sans-Serif" font-size="10.00">getRawMimeDirValue()</text>
<text text-anchor="start" x="167" y="-485.5" font-family="Helvetica,sans-Serif" font-size="10.00">et 14 de plus...</text>
<text text-anchor="start" x="157.38" y="-470.5" font-family="Helvetica,sans-Serif" font-size="10.00">#</text>
<text text-anchor="start" x="167" y="-470.5" font-family="Helvetica,sans-Serif" font-size="10.00">xmlSerializeValue</text>
<text text-anchor="start" x="167" y="-459.25" font-family="Helvetica,sans-Serif" font-size="10.00">(Xml\Writer $writer)</text>
<polygon fill="#666666" stroke="#666666" points="153,-778 153,-778 276,-778 276,-778 153,-778"/>
<polygon fill="#666666" stroke="#666666" points="153,-703 153,-703 165,-703 165,-703 153,-703"/>
<polygon fill="#666666" stroke="#666666" points="165,-703 165,-703 276,-703 276,-703 165,-703"/>
<polygon fill="none" stroke="#666666" points="153,-454 153,-795 276,-795 276,-454 153,-454"/>
</a>
</g>
</g>
<!-- Node3&#45;&gt;Node2 -->
<g id="edge18_Node000002_Node000003" class="edge">
<title>Node3&#45;&gt;Node2</title>
<g id="a_edge18_Node000002_Node000003"><a xlink:title=" ">
<path fill="none" stroke="#63b8ff" d="M214.5,-442.99C214.5,-434.43 214.5,-425.91 214.5,-417.52"/>
<polygon fill="none" stroke="#63b8ff" points="211,-442.74 214.5,-452.74 218,-442.74 211,-442.74"/>
</a>
</g>
</g>
<!-- Node4 -->
<g id="Node000004" class="node">
<title>Node4</title>
<g id="a_Node000004"><a xlink:href="$class_sabre_1_1_v_object_1_1_node.html" xlink:title=" ">
<polygon fill="white" stroke="none" points="285,-1153 144,-1153 144,-831 285,-831 285,-1153"/>
<text text-anchor="start" x="202.88" y="-1139.5" font-family="Helvetica,sans-Serif" font-size="10.00">Node</text>
<text text-anchor="start" x="148" y="-1124.5" font-family="Helvetica,sans-Serif" font-size="10.00">+</text>
<text text-anchor="start" x="158" y="-1124.5" font-family="Helvetica,sans-Serif" font-size="10.00">const REPAIR</text>
<text text-anchor="start" x="148" y="-1109.5" font-family="Helvetica,sans-Serif" font-size="10.00">+</text>
<text text-anchor="start" x="158" y="-1109.5" font-family="Helvetica,sans-Serif" font-size="10.00">const PROFILE_CARDDAV</text>
<text text-anchor="start" x="148" y="-1094.5" font-family="Helvetica,sans-Serif" font-size="10.00">+</text>
<text text-anchor="start" x="158" y="-1094.5" font-family="Helvetica,sans-Serif" font-size="10.00">const PROFILE_CALDAV</text>
<text text-anchor="start" x="148" y="-1079.5" font-family="Helvetica,sans-Serif" font-size="10.00">+</text>
<text text-anchor="start" x="158" y="-1079.5" font-family="Helvetica,sans-Serif" font-size="10.00">$parent</text>
<text text-anchor="start" x="148.38" y="-1064.5" font-family="Helvetica,sans-Serif" font-size="10.00">#</text>
<text text-anchor="start" x="158" y="-1064.5" font-family="Helvetica,sans-Serif" font-size="10.00">$iterator</text>
<text text-anchor="start" x="148.38" y="-1049.5" font-family="Helvetica,sans-Serif" font-size="10.00">#</text>
<text text-anchor="start" x="158" y="-1049.5" font-family="Helvetica,sans-Serif" font-size="10.00">$root</text>
<text text-anchor="start" x="148" y="-1034.5" font-family="Helvetica,sans-Serif" font-size="10.00">+</text>
<text text-anchor="start" x="158" y="-1034.5" font-family="Helvetica,sans-Serif" font-size="10.00">serialize()</text>
<text text-anchor="start" x="148" y="-1019.5" font-family="Helvetica,sans-Serif" font-size="10.00">+</text>
<text text-anchor="start" x="158" y="-1019.5" font-family="Helvetica,sans-Serif" font-size="10.00">jsonSerialize()</text>
<text text-anchor="start" x="148" y="-1004.5" font-family="Helvetica,sans-Serif" font-size="10.00">+</text>
<text text-anchor="start" x="158" y="-1004.5" font-family="Helvetica,sans-Serif" font-size="10.00">xmlSerialize(Xml\Writer</text>
<text text-anchor="start" x="158" y="-993.25" font-family="Helvetica,sans-Serif" font-size="10.00"> $writer)</text>
<text text-anchor="start" x="148" y="-978.5" font-family="Helvetica,sans-Serif" font-size="10.00">+</text>
<text text-anchor="start" x="158" y="-978.5" font-family="Helvetica,sans-Serif" font-size="10.00">destroy()</text>
<text text-anchor="start" x="148" y="-963.5" font-family="Helvetica,sans-Serif" font-size="10.00">+</text>
<text text-anchor="start" x="158" y="-963.5" font-family="Helvetica,sans-Serif" font-size="10.00">getIterator()</text>
<text text-anchor="start" x="148" y="-948.5" font-family="Helvetica,sans-Serif" font-size="10.00">+</text>
<text text-anchor="start" x="158" y="-948.5" font-family="Helvetica,sans-Serif" font-size="10.00">setIterator(ElementList</text>
<text text-anchor="start" x="158" y="-937.25" font-family="Helvetica,sans-Serif" font-size="10.00"> $iterator)</text>
<text text-anchor="start" x="148" y="-922.5" font-family="Helvetica,sans-Serif" font-size="10.00">+</text>
<text text-anchor="start" x="158" y="-922.5" font-family="Helvetica,sans-Serif" font-size="10.00">validate($options=0)</text>
<text text-anchor="start" x="148" y="-907.5" font-family="Helvetica,sans-Serif" font-size="10.00">+</text>
<text text-anchor="start" x="158" y="-907.5" font-family="Helvetica,sans-Serif" font-size="10.00">count()</text>
<text text-anchor="start" x="148" y="-892.5" font-family="Helvetica,sans-Serif" font-size="10.00">+</text>
<text text-anchor="start" x="158" y="-892.5" font-family="Helvetica,sans-Serif" font-size="10.00">offsetExists($offset)</text>
<text text-anchor="start" x="148" y="-877.5" font-family="Helvetica,sans-Serif" font-size="10.00">+</text>
<text text-anchor="start" x="158" y="-877.5" font-family="Helvetica,sans-Serif" font-size="10.00">offsetGet($offset)</text>
<text text-anchor="start" x="148" y="-862.5" font-family="Helvetica,sans-Serif" font-size="10.00">+</text>
<text text-anchor="start" x="158" y="-862.5" font-family="Helvetica,sans-Serif" font-size="10.00">offsetSet($offset,</text>
<text text-anchor="start" x="158" y="-851.25" font-family="Helvetica,sans-Serif" font-size="10.00"> $value)</text>
<text text-anchor="start" x="148" y="-836.5" font-family="Helvetica,sans-Serif" font-size="10.00">+</text>
<text text-anchor="start" x="158" y="-836.5" font-family="Helvetica,sans-Serif" font-size="10.00">offsetUnset($offset)</text>
<polygon fill="#666666" stroke="#666666" points="144,-1136 144,-1136 285,-1136 285,-1136 144,-1136"/>
<polygon fill="#666666" stroke="#666666" points="144,-1046 144,-1046 156,-1046 156,-1046 144,-1046"/>
<polygon fill="#666666" stroke="#666666" points="156,-1046 156,-1046 285,-1046 285,-1046 156,-1046"/>
<polygon fill="none" stroke="#666666" points="144,-831 144,-1153 285,-1153 285,-831 144,-831"/>
</a>
</g>
</g>
<!-- Node4&#45;&gt;Node3 -->
<g id="edge19_Node000003_Node000004" class="edge">
<title>Node4&#45;&gt;Node3</title>
<g id="a_edge19_Node000003_Node000004"><a xlink:title=" ">
<path fill="none" stroke="#63b8ff" d="M214.5,-819.84C214.5,-811.48 214.5,-803.08 214.5,-794.72"/>
<polygon fill="none" stroke="#63b8ff" points="211,-819.7 214.5,-829.7 218,-819.7 211,-819.7"/>
</a>
</g>
</g>
<!-- Node5 -->
<g id="Node000005" class="node">
<title>Node5</title>
<g id="a_Node000005"><a xlink:title=" ">
<polygon fill="white" stroke="none" points="85,-1243.5 0,-1243.5 0,-1194.5 85,-1194.5 85,-1243.5"/>
<text text-anchor="start" x="5" y="-1230" font-family="Helvetica,sans-Serif" font-size="10.00">IteratorAggregate</text>
<text text-anchor="start" x="41" y="-1215" font-family="Helvetica,sans-Serif" font-size="10.00"> </text>
<text text-anchor="start" x="41" y="-1200" font-family="Helvetica,sans-Serif" font-size="10.00"> </text>
<polygon fill="#666666" stroke="#666666" points="0,-1226.5 0,-1226.5 85,-1226.5 85,-1226.5 0,-1226.5"/>
<polygon fill="#666666" stroke="#666666" points="0,-1211.5 0,-1211.5 85,-1211.5 85,-1211.5 0,-1211.5"/>
<polygon fill="none" stroke="#666666" points="0,-1194.5 0,-1243.5 85,-1243.5 85,-1194.5 0,-1194.5"/>
</a>
</g>
</g>
<!-- Node5&#45;&gt;Node4 -->
<g id="edge20_Node000004_Node000005" class="edge">
<title>Node5&#45;&gt;Node4</title>
<g id="a_edge20_Node000004_Node000005"><a xlink:title=" ">
<path fill="none" stroke="#63b8ff" d="M67.23,-1185.65C87.35,-1159.34 116.77,-1120.85 144.04,-1085.18"/>
<polygon fill="none" stroke="#63b8ff" points="64.47,-1183.5 61.18,-1193.57 70.03,-1187.75 64.47,-1183.5"/>
</a>
</g>
</g>
<!-- Node6 -->
<g id="Node000006" class="node">
<title>Node6</title>
<g id="a_Node000006"><a xlink:title=" ">
<polygon fill="white" stroke="none" points="169.5,-1243.5 103.5,-1243.5 103.5,-1194.5 169.5,-1194.5 169.5,-1243.5"/>
<text text-anchor="start" x="108.38" y="-1230" font-family="Helvetica,sans-Serif" font-size="10.00">ArrayAccess</text>
<text text-anchor="start" x="135" y="-1215" font-family="Helvetica,sans-Serif" font-size="10.00"> </text>
<text text-anchor="start" x="135" y="-1200" font-family="Helvetica,sans-Serif" font-size="10.00"> </text>
<polygon fill="#666666" stroke="#666666" points="103.5,-1226.5 103.5,-1226.5 169.5,-1226.5 169.5,-1226.5 103.5,-1226.5"/>
<polygon fill="#666666" stroke="#666666" points="103.5,-1211.5 103.5,-1211.5 169.5,-1211.5 169.5,-1211.5 103.5,-1211.5"/>
<polygon fill="none" stroke="#666666" points="103.5,-1194.5 103.5,-1243.5 169.5,-1243.5 169.5,-1194.5 103.5,-1194.5"/>
</a>
</g>
</g>
<!-- Node6&#45;&gt;Node4 -->
<g id="edge21_Node000004_Node000006" class="edge">
<title>Node6&#45;&gt;Node4</title>
<g id="a_edge21_Node000004_Node000006"><a xlink:title=" ">
<path fill="none" stroke="#63b8ff" d="M148.31,-1183.94C151.49,-1174.77 155.15,-1164.21 159.08,-1152.87"/>
<polygon fill="none" stroke="#63b8ff" points="145.02,-1182.74 145.05,-1193.34 151.63,-1185.04 145.02,-1182.74"/>
</a>
</g>
</g>
<!-- Node7 -->
<g id="Node000007" class="node">
<title>Node7</title>
<g id="a_Node000007"><a xlink:title=" ">
<polygon fill="white" stroke="none" points="241.5,-1243.5 187.5,-1243.5 187.5,-1194.5 241.5,-1194.5 241.5,-1243.5"/>
<text text-anchor="start" x="192.38" y="-1230" font-family="Helvetica,sans-Serif" font-size="10.00">Countable</text>
<text text-anchor="start" x="213" y="-1215" font-family="Helvetica,sans-Serif" font-size="10.00"> </text>
<text text-anchor="start" x="213" y="-1200" font-family="Helvetica,sans-Serif" font-size="10.00"> </text>
<polygon fill="#666666" stroke="#666666" points="187.5,-1226.5 187.5,-1226.5 241.5,-1226.5 241.5,-1226.5 187.5,-1226.5"/>
<polygon fill="#666666" stroke="#666666" points="187.5,-1211.5 187.5,-1211.5 241.5,-1211.5 241.5,-1211.5 187.5,-1211.5"/>
<polygon fill="none" stroke="#666666" points="187.5,-1194.5 187.5,-1243.5 241.5,-1243.5 241.5,-1194.5 187.5,-1194.5"/>
</a>
</g>
</g>
<!-- Node7&#45;&gt;Node4 -->
<g id="edge22_Node000004_Node000007" class="edge">
<title>Node7&#45;&gt;Node4</title>
<g id="a_edge22_Node000004_Node000007"><a xlink:title=" ">
<path fill="none" stroke="#63b8ff" d="M214.5,-1183.32C214.5,-1174.3 214.5,-1163.96 214.5,-1152.87"/>
<polygon fill="none" stroke="#63b8ff" points="211,-1183.25 214.5,-1193.25 218,-1183.25 211,-1183.25"/>
</a>
</g>
</g>
<!-- Node8 -->
<g id="Node000008" class="node">
<title>Node8</title>
<g id="a_Node000008"><a xlink:title=" ">
<polygon fill="white" stroke="none" points="341,-1243.5 260,-1243.5 260,-1194.5 341,-1194.5 341,-1243.5"/>
<text text-anchor="start" x="264.88" y="-1230" font-family="Helvetica,sans-Serif" font-size="10.00">JsonSerializable</text>
<text text-anchor="start" x="299" y="-1215" font-family="Helvetica,sans-Serif" font-size="10.00"> </text>
<text text-anchor="start" x="299" y="-1200" font-family="Helvetica,sans-Serif" font-size="10.00"> </text>
<polygon fill="#666666" stroke="#666666" points="260,-1226.5 260,-1226.5 341,-1226.5 341,-1226.5 260,-1226.5"/>
<polygon fill="#666666" stroke="#666666" points="260,-1211.5 260,-1211.5 341,-1211.5 341,-1211.5 260,-1211.5"/>
<polygon fill="none" stroke="#666666" points="260,-1194.5 260,-1243.5 341,-1243.5 341,-1194.5 260,-1194.5"/>
</a>
</g>
</g>
<!-- Node8&#45;&gt;Node4 -->
<g id="edge23_Node000004_Node000008" class="edge">
<title>Node8&#45;&gt;Node4</title>
<g id="a_edge23_Node000004_Node000008"><a xlink:title=" ">
<path fill="none" stroke="#63b8ff" d="M287.6,-1184.24C284.07,-1175 279.99,-1164.34 275.61,-1152.87"/>
<polygon fill="none" stroke="#63b8ff" points="284.24,-1185.26 291.08,-1193.35 290.78,-1182.76 284.24,-1185.26"/>
</a>
</g>
</g>
<!-- Node9 -->
<g id="Node000009" class="node">
<title>Node9</title>
<g id="a_Node000009"><a xlink:href="$interface_sabre_1_1_xml_1_1_xml_serializable.html" xlink:title=" ">
<polygon fill="white" stroke="none" points="458,-1249 359,-1249 359,-1189 458,-1189 458,-1249"/>
<text text-anchor="start" x="374.75" y="-1235.5" font-family="Helvetica,sans-Serif" font-size="10.00">XmlSerializable</text>
<text text-anchor="start" x="407" y="-1220.5" font-family="Helvetica,sans-Serif" font-size="10.00"> </text>
<text text-anchor="start" x="363" y="-1205.5" font-family="Helvetica,sans-Serif" font-size="10.00">+</text>
<text text-anchor="start" x="373" y="-1205.5" font-family="Helvetica,sans-Serif" font-size="10.00">xmlSerialize(Writer</text>
<text text-anchor="start" x="373" y="-1194.25" font-family="Helvetica,sans-Serif" font-size="10.00"> $writer)</text>
<polygon fill="#666666" stroke="#666666" points="359,-1232 359,-1232 458,-1232 458,-1232 359,-1232"/>
<polygon fill="#666666" stroke="#666666" points="359,-1217 359,-1217 458,-1217 458,-1217 359,-1217"/>
<polygon fill="none" stroke="#666666" points="359,-1189 359,-1249 458,-1249 458,-1189 359,-1189"/>
</a>
</g>
</g>
<!-- Node9&#45;&gt;Node4 -->
<g id="edge24_Node000004_Node000009" class="edge">
<title>Node9&#45;&gt;Node4</title>
<g id="a_edge24_Node000004_Node000009"><a xlink:title=" ">
<path fill="none" stroke="#63b8ff" d="M376.18,-1180.51C351.33,-1151.7 316.1,-1110.83 284.86,-1074.6"/>
<polygon fill="none" stroke="#63b8ff" points="373.37,-1182.61 382.55,-1187.9 378.67,-1178.04 373.37,-1182.61"/>
</a>
</g>
</g>
</g>
</svg>
