<?xml version="1.0" encoding="UTF-8" standalone="no"?>
<!DOCTYPE svg PUBLIC "-//W3C//DTD SVG 1.1//EN"
 "http://www.w3.org/Graphics/SVG/1.1/DTD/svg11.dtd">
<!-- Generated by graphviz version 10.0.1 (20240210.2158)
 -->
<!-- Title: plugin Pages: 1 -->
<svg width="310pt" height="27pt"
 viewBox="0.00 0.00 309.50 27.25" xmlns="http://www.w3.org/2000/svg" xmlns:xlink="http://www.w3.org/1999/xlink">
<g id="graph0" class="graph" transform="scale(1 1) rotate(0) translate(4 23.25)">
<title>plugin</title>
<!-- Node1 -->
<g id="Node000001" class="node">
<title>Node1</title>
<g id="a_Node000001"><a xlink:title=" ">
<polygon fill="#999999" stroke="#666666" points="41.5,-19.25 0,-19.25 0,0 41.5,0 41.5,-19.25"/>
<text text-anchor="middle" x="20.75" y="-5.75" font-family="Helvetica,sans-Serif" font-size="10.00">plugin</text>
</a>
</g>
</g>
<!-- Node2 -->
<g id="Node000002" class="node">
<title>Node2</title>
<g id="a_Node000002"><a xlink:href="$class_laminas_1_1_validator_1_1_validator_chain.html#a366df7292a3860c3fca7efa5fe451473" xlink:title=" ">
<polygon fill="white" stroke="#666666" points="171.5,-19.25 77.5,-19.25 77.5,0 171.5,0 171.5,-19.25"/>
<text text-anchor="middle" x="124.5" y="-5.75" font-family="Helvetica,sans-Serif" font-size="10.00">getPluginManager</text>
</a>
</g>
</g>
<!-- Node1&#45;&gt;Node2 -->
<g id="edge5_Node000001_Node000002" class="edge">
<title>Node1&#45;&gt;Node2</title>
<g id="a_edge5_Node000001_Node000002"><a xlink:title=" ">
<path fill="none" stroke="#63b8ff" d="M41.85,-9.62C48.94,-9.62 57.3,-9.62 65.93,-9.62"/>
<polygon fill="#63b8ff" stroke="#63b8ff" points="65.82,-13.13 75.82,-9.63 65.82,-6.13 65.82,-13.13"/>
</a>
</g>
</g>
<!-- Node3 -->
<g id="Node000003" class="node">
<title>Node3</title>
<g id="a_Node000003"><a xlink:href="$class_laminas_1_1_validator_1_1_validator_chain.html#a831d5b2c71d6a9ae6f270fa291d76077" xlink:title=" ">
<polygon fill="white" stroke="#666666" points="301.5,-19.25 207.5,-19.25 207.5,0 301.5,0 301.5,-19.25"/>
<text text-anchor="middle" x="254.5" y="-5.75" font-family="Helvetica,sans-Serif" font-size="10.00">setPluginManager</text>
</a>
</g>
</g>
<!-- Node2&#45;&gt;Node3 -->
<g id="edge6_Node000002_Node000003" class="edge">
<title>Node2&#45;&gt;Node3</title>
<g id="a_edge6_Node000002_Node000003"><a xlink:title=" ">
<path fill="none" stroke="#63b8ff" d="M171.71,-9.62C179.6,-9.62 187.87,-9.62 196.01,-9.62"/>
<polygon fill="#63b8ff" stroke="#63b8ff" points="195.84,-13.13 205.84,-9.63 195.84,-6.13 195.84,-13.13"/>
</a>
</g>
</g>
</g>
</svg>
