<?xml version="1.0" encoding="UTF-8" standalone="no"?>
<!DOCTYPE svg PUBLIC "-//W3C//DTD SVG 1.1//EN"
 "http://www.w3.org/Graphics/SVG/1.1/DTD/svg11.dtd">
<!-- Generated by graphviz version 10.0.1 (20240210.2158)
 -->
<!-- Title: ParagonIE_Sodium_Core_HSalsa20 Pages: 1 -->
<svg width="212pt" height="794pt"
 viewBox="0.00 0.00 211.50 794.00" xmlns="http://www.w3.org/2000/svg" xmlns:xlink="http://www.w3.org/1999/xlink">
<g id="graph0" class="graph" transform="scale(1 1) rotate(0) translate(4 790)">
<title>ParagonIE_Sodium_Core_HSalsa20</title>
<!-- Node1 -->
<g id="Node000001" class="node">
<title>Node1</title>
<g id="a_Node000001"><a xlink:title=" ">
<polygon fill="#999999" stroke="none" points="141,-289 21,-289 21,-218 141,-218 141,-289"/>
<text text-anchor="start" x="25.88" y="-275.5" font-family="Helvetica,sans-Serif" font-size="10.00">ParagonIE_Sodium_Core</text>
<text text-anchor="start" x="57" y="-264.25" font-family="Helvetica,sans-Serif" font-size="10.00">_HSalsa20</text>
<text text-anchor="start" x="79.5" y="-249.5" font-family="Helvetica,sans-Serif" font-size="10.00"> </text>
<text text-anchor="start" x="29.5" y="-234.5" font-family="Helvetica,sans-Serif" font-size="10.00">+</text>
<text text-anchor="start" x="44" y="-234.5" font-family="Helvetica,sans-Serif" font-size="10.00">static hsalsa20($in,</text>
<text text-anchor="start" x="44" y="-223.25" font-family="Helvetica,sans-Serif" font-size="10.00"> $k, $c=null)</text>
<polygon fill="#666666" stroke="#666666" points="21,-261 21,-261 141,-261 141,-261 21,-261"/>
<polygon fill="#666666" stroke="#666666" points="21,-246 21,-246 141,-246 141,-246 21,-246"/>
<polygon fill="none" stroke="#666666" points="21,-218 21,-289 141,-289 141,-218 21,-218"/>
</a>
</g>
</g>
<!-- Node4 -->
<g id="Node000004" class="node">
<title>Node4</title>
<g id="a_Node000004"><a xlink:href="$class_paragon_i_e_1_1_sodium_1_1_core_1_1_h_salsa20.html" xlink:title=" ">
<polygon fill="white" stroke="none" points="52,-158 0,-158 0,-109 52,-109 52,-158"/>
<text text-anchor="start" x="4.62" y="-144.5" font-family="Helvetica,sans-Serif" font-size="10.00">HSalsa20</text>
<text text-anchor="start" x="24.5" y="-129.5" font-family="Helvetica,sans-Serif" font-size="10.00"> </text>
<text text-anchor="start" x="24.5" y="-114.5" font-family="Helvetica,sans-Serif" font-size="10.00"> </text>
<polygon fill="#666666" stroke="#666666" points="0,-141 0,-141 52,-141 52,-141 0,-141"/>
<polygon fill="#666666" stroke="#666666" points="0,-126 0,-126 52,-126 52,-126 0,-126"/>
<polygon fill="none" stroke="#666666" points="0,-109 0,-158 52,-158 52,-109 0,-109"/>
</a>
</g>
</g>
<!-- Node1&#45;&gt;Node4 -->
<g id="edge13_Node000001_Node000004" class="edge">
<title>Node1&#45;&gt;Node4</title>
<g id="a_edge13_Node000001_Node000004"><a xlink:title=" ">
<path fill="none" stroke="#63b8ff" d="M60.15,-207.77C52.25,-190.81 43.57,-172.19 36.93,-157.96"/>
<polygon fill="none" stroke="#63b8ff" points="56.91,-209.1 64.3,-216.68 63.25,-206.14 56.91,-209.1"/>
</a>
</g>
</g>
<!-- Node5 -->
<g id="Node000005" class="node">
<title>Node5</title>
<g id="a_Node000005"><a xlink:href="$class_paragon_i_e___sodium___core___x_salsa20.html" xlink:title=" ">
<polygon fill="white" stroke="none" points="203.5,-182 70.5,-182 70.5,-85 203.5,-85 203.5,-182"/>
<text text-anchor="start" x="81.88" y="-168.5" font-family="Helvetica,sans-Serif" font-size="10.00">ParagonIE_Sodium_Core</text>
<text text-anchor="start" x="113.38" y="-157.25" font-family="Helvetica,sans-Serif" font-size="10.00">_XSalsa20</text>
<text text-anchor="start" x="135.5" y="-142.5" font-family="Helvetica,sans-Serif" font-size="10.00"> </text>
<text text-anchor="start" x="74.5" y="-127.5" font-family="Helvetica,sans-Serif" font-size="10.00">+</text>
<text text-anchor="start" x="84.5" y="-127.5" font-family="Helvetica,sans-Serif" font-size="10.00">static xsalsa20($len,</text>
<text text-anchor="start" x="84.5" y="-116.25" font-family="Helvetica,sans-Serif" font-size="10.00"> $nonce, $key)</text>
<text text-anchor="start" x="74.5" y="-101.5" font-family="Helvetica,sans-Serif" font-size="10.00">+</text>
<text text-anchor="start" x="84.5" y="-101.5" font-family="Helvetica,sans-Serif" font-size="10.00">static xsalsa20_xor</text>
<text text-anchor="start" x="84.5" y="-90.25" font-family="Helvetica,sans-Serif" font-size="10.00">($message, $nonce, $key)</text>
<polygon fill="#666666" stroke="#666666" points="70.5,-154 70.5,-154 203.5,-154 203.5,-154 70.5,-154"/>
<polygon fill="#666666" stroke="#666666" points="70.5,-139 70.5,-139 203.5,-139 203.5,-139 70.5,-139"/>
<polygon fill="none" stroke="#666666" points="70.5,-85 70.5,-182 203.5,-182 203.5,-85 70.5,-85"/>
</a>
</g>
</g>
<!-- Node1&#45;&gt;Node5 -->
<g id="edge14_Node000001_Node000005" class="edge">
<title>Node1&#45;&gt;Node5</title>
<g id="a_edge14_Node000001_Node000005"><a xlink:title=" ">
<path fill="none" stroke="#63b8ff" d="M102.28,-207.66C106.27,-199.25 110.46,-190.42 114.49,-181.93"/>
<polygon fill="none" stroke="#63b8ff" points="99.12,-206.15 98,-216.68 105.45,-209.15 99.12,-206.15"/>
</a>
</g>
</g>
<!-- Node2 -->
<g id="Node000002" class="node">
<title>Node2</title>
<g id="a_Node000002"><a xlink:href="$class_paragon_i_e___sodium___core___salsa20.html" xlink:title=" ">
<polygon fill="white" stroke="none" points="147.5,-489 14.5,-489 14.5,-325 147.5,-325 147.5,-489"/>
<text text-anchor="start" x="25.88" y="-475.5" font-family="Helvetica,sans-Serif" font-size="10.00">ParagonIE_Sodium_Core</text>
<text text-anchor="start" x="60.75" y="-464.25" font-family="Helvetica,sans-Serif" font-size="10.00">_Salsa20</text>
<text text-anchor="start" x="18.5" y="-449.5" font-family="Helvetica,sans-Serif" font-size="10.00">+</text>
<text text-anchor="start" x="28.5" y="-449.5" font-family="Helvetica,sans-Serif" font-size="10.00">const ROUNDS</text>
<text text-anchor="start" x="18.5" y="-434.5" font-family="Helvetica,sans-Serif" font-size="10.00">+</text>
<text text-anchor="start" x="28.5" y="-434.5" font-family="Helvetica,sans-Serif" font-size="10.00">static core_salsa20</text>
<text text-anchor="start" x="28.5" y="-423.25" font-family="Helvetica,sans-Serif" font-size="10.00">($in, $k, $c=null)</text>
<text text-anchor="start" x="18.5" y="-408.5" font-family="Helvetica,sans-Serif" font-size="10.00">+</text>
<text text-anchor="start" x="28.5" y="-408.5" font-family="Helvetica,sans-Serif" font-size="10.00">static salsa20($len,</text>
<text text-anchor="start" x="28.5" y="-397.25" font-family="Helvetica,sans-Serif" font-size="10.00"> $nonce, $key)</text>
<text text-anchor="start" x="18.5" y="-382.5" font-family="Helvetica,sans-Serif" font-size="10.00">+</text>
<text text-anchor="start" x="28.5" y="-382.5" font-family="Helvetica,sans-Serif" font-size="10.00">static salsa20_xor</text>
<text text-anchor="start" x="28.5" y="-371.25" font-family="Helvetica,sans-Serif" font-size="10.00">_ic($m, $n, $ic, $k)</text>
<text text-anchor="start" x="18.5" y="-356.5" font-family="Helvetica,sans-Serif" font-size="10.00">+</text>
<text text-anchor="start" x="28.5" y="-356.5" font-family="Helvetica,sans-Serif" font-size="10.00">static salsa20_xor</text>
<text text-anchor="start" x="28.5" y="-345.25" font-family="Helvetica,sans-Serif" font-size="10.00">($message, $nonce, $key)</text>
<text text-anchor="start" x="18.5" y="-330.5" font-family="Helvetica,sans-Serif" font-size="10.00">+</text>
<text text-anchor="start" x="28.5" y="-330.5" font-family="Helvetica,sans-Serif" font-size="10.00">static rotate($u, $c)</text>
<polygon fill="#666666" stroke="#666666" points="14.5,-461 14.5,-461 147.5,-461 147.5,-461 14.5,-461"/>
<polygon fill="#666666" stroke="#666666" points="14.5,-446 14.5,-446 26.5,-446 26.5,-446 14.5,-446"/>
<polygon fill="#666666" stroke="#666666" points="26.5,-446 26.5,-446 147.5,-446 147.5,-446 26.5,-446"/>
<polygon fill="none" stroke="#666666" points="14.5,-325 14.5,-489 147.5,-489 147.5,-325 14.5,-325"/>
</a>
</g>
</g>
<!-- Node2&#45;&gt;Node1 -->
<g id="edge11_Node000001_Node000002" class="edge">
<title>Node2&#45;&gt;Node1</title>
<g id="a_edge11_Node000001_Node000002"><a xlink:title=" ">
<path fill="none" stroke="#63b8ff" d="M81,-314.01C81,-305.13 81,-296.57 81,-288.84"/>
<polygon fill="none" stroke="#63b8ff" points="77.5,-313.86 81,-323.86 84.5,-313.86 77.5,-313.86"/>
</a>
</g>
</g>
<!-- Node3 -->
<g id="Node000003" class="node">
<title>Node3</title>
<g id="a_Node000003"><a xlink:href="$class_paragon_i_e___sodium___core___util.html" xlink:title=" ">
<polygon fill="white" stroke="none" points="151,-786 11,-786 11,-525 151,-525 151,-786"/>
<text text-anchor="start" x="15.75" y="-772.5" font-family="Helvetica,sans-Serif" font-size="10.00">ParagonIE_Sodium_Core_Util</text>
<text text-anchor="start" x="79.5" y="-757.5" font-family="Helvetica,sans-Serif" font-size="10.00"> </text>
<text text-anchor="start" x="16" y="-742.5" font-family="Helvetica,sans-Serif" font-size="10.00">+</text>
<text text-anchor="start" x="27" y="-742.5" font-family="Helvetica,sans-Serif" font-size="10.00">static compare($left,</text>
<text text-anchor="start" x="27" y="-731.25" font-family="Helvetica,sans-Serif" font-size="10.00"> $right, $len=null)</text>
<text text-anchor="start" x="16" y="-716.5" font-family="Helvetica,sans-Serif" font-size="10.00">+</text>
<text text-anchor="start" x="27" y="-716.5" font-family="Helvetica,sans-Serif" font-size="10.00">static declareScalarType</text>
<text text-anchor="start" x="27" y="-705.25" font-family="Helvetica,sans-Serif" font-size="10.00">(&amp;$mixedVar=null, $type</text>
<text text-anchor="start" x="27" y="-694" font-family="Helvetica,sans-Serif" font-size="10.00">=&#39;void&#39;, $argumentIndex=0)</text>
<text text-anchor="start" x="16" y="-679.5" font-family="Helvetica,sans-Serif" font-size="10.00">+</text>
<text text-anchor="start" x="27" y="-679.5" font-family="Helvetica,sans-Serif" font-size="10.00">static intToChr($int)</text>
<text text-anchor="start" x="16" y="-664.5" font-family="Helvetica,sans-Serif" font-size="10.00">+</text>
<text text-anchor="start" x="27" y="-664.5" font-family="Helvetica,sans-Serif" font-size="10.00">static memcmp($left,</text>
<text text-anchor="start" x="27" y="-653.25" font-family="Helvetica,sans-Serif" font-size="10.00"> $right)</text>
<text text-anchor="start" x="16" y="-638.5" font-family="Helvetica,sans-Serif" font-size="10.00">+</text>
<text text-anchor="start" x="27" y="-638.5" font-family="Helvetica,sans-Serif" font-size="10.00">static strlen($str)</text>
<text text-anchor="start" x="16" y="-623.5" font-family="Helvetica,sans-Serif" font-size="10.00">+</text>
<text text-anchor="start" x="27" y="-623.5" font-family="Helvetica,sans-Serif" font-size="10.00">static substr($str,</text>
<text text-anchor="start" x="27" y="-612.25" font-family="Helvetica,sans-Serif" font-size="10.00"> $start=0, $length=null)</text>
<text text-anchor="start" x="16" y="-597.5" font-family="Helvetica,sans-Serif" font-size="10.00">+</text>
<text text-anchor="start" x="27" y="-597.5" font-family="Helvetica,sans-Serif" font-size="10.00">static verify_16($a, $b)</text>
<text text-anchor="start" x="16" y="-582.5" font-family="Helvetica,sans-Serif" font-size="10.00">+</text>
<text text-anchor="start" x="27" y="-582.5" font-family="Helvetica,sans-Serif" font-size="10.00">static verify_32($a, $b)</text>
<text text-anchor="start" x="16" y="-567.5" font-family="Helvetica,sans-Serif" font-size="10.00">+</text>
<text text-anchor="start" x="27" y="-567.5" font-family="Helvetica,sans-Serif" font-size="10.00">static xorStrings(</text>
<text text-anchor="start" x="27" y="-556.25" font-family="Helvetica,sans-Serif" font-size="10.00">$a, $b)</text>
<text text-anchor="start" x="16.38" y="-541.5" font-family="Helvetica,sans-Serif" font-size="10.00">#</text>
<text text-anchor="start" x="27" y="-541.5" font-family="Helvetica,sans-Serif" font-size="10.00">static hash_update</text>
<text text-anchor="start" x="27" y="-530.25" font-family="Helvetica,sans-Serif" font-size="10.00">(&amp;$hs, $data)</text>
<polygon fill="#666666" stroke="#666666" points="11,-769 11,-769 151,-769 151,-769 11,-769"/>
<polygon fill="#666666" stroke="#666666" points="11,-754 11,-754 151,-754 151,-754 11,-754"/>
<polygon fill="none" stroke="#666666" points="11,-525 11,-786 151,-786 151,-525 11,-525"/>
</a>
</g>
</g>
<!-- Node3&#45;&gt;Node2 -->
<g id="edge12_Node000002_Node000003" class="edge">
<title>Node3&#45;&gt;Node2</title>
<g id="a_edge12_Node000002_Node000003"><a xlink:title=" ">
<path fill="none" stroke="#63b8ff" d="M81,-513.6C81,-505.2 81,-496.91 81,-488.89"/>
<polygon fill="none" stroke="#63b8ff" points="77.5,-513.6 81,-523.6 84.5,-513.6 77.5,-513.6"/>
</a>
</g>
</g>
<!-- Node6 -->
<g id="Node000006" class="node">
<title>Node6</title>
<g id="a_Node000006"><a xlink:href="$class_paragon_i_e_1_1_sodium_1_1_core_1_1_xsalsa20.html" xlink:title=" ">
<polygon fill="white" stroke="none" points="162,-49 112,-49 112,0 162,0 162,-49"/>
<text text-anchor="start" x="116.75" y="-35.5" font-family="Helvetica,sans-Serif" font-size="10.00">Xsalsa20</text>
<text text-anchor="start" x="135.5" y="-20.5" font-family="Helvetica,sans-Serif" font-size="10.00"> </text>
<text text-anchor="start" x="135.5" y="-5.5" font-family="Helvetica,sans-Serif" font-size="10.00"> </text>
<polygon fill="#666666" stroke="#666666" points="112,-32 112,-32 162,-32 162,-32 112,-32"/>
<polygon fill="#666666" stroke="#666666" points="112,-17 112,-17 162,-17 162,-17 112,-17"/>
<polygon fill="none" stroke="#666666" points="112,0 112,-49 162,-49 162,0 112,0"/>
</a>
</g>
</g>
<!-- Node5&#45;&gt;Node6 -->
<g id="edge15_Node000005_Node000006" class="edge">
<title>Node5&#45;&gt;Node6</title>
<g id="a_edge15_Node000005_Node000006"><a xlink:title=" ">
<path fill="none" stroke="#63b8ff" d="M137,-73.94C137,-65.02 137,-56.3 137,-48.76"/>
<polygon fill="none" stroke="#63b8ff" points="133.5,-73.74 137,-83.74 140.5,-73.74 133.5,-73.74"/>
</a>
</g>
</g>
</g>
</svg>
