<?xml version="1.0" encoding="UTF-8" standalone="no"?>
<!DOCTYPE svg PUBLIC "-//W3C//DTD SVG 1.1//EN"
 "http://www.w3.org/Graphics/SVG/1.1/DTD/svg11.dtd">
<!-- Generated by graphviz version 10.0.1 (20240210.2158)
 -->
<!-- Title: Drive Pages: 1 -->
<svg width="148pt" height="765pt"
 viewBox="0.00 0.00 148.00 765.00" xmlns="http://www.w3.org/2000/svg" xmlns:xlink="http://www.w3.org/1999/xlink">
<g id="graph0" class="graph" transform="scale(1 1) rotate(0) translate(4 761)">
<title>Drive</title>
<!-- Node1 -->
<g id="Node000001" class="node">
<title>Node1</title>
<g id="a_Node000001"><a xlink:title=" ">
<polygon fill="#999999" stroke="none" points="131.5,-124 8.5,-124 8.5,0 131.5,0 131.5,-124"/>
<text text-anchor="start" x="58.38" y="-110.5" font-family="Helvetica,sans-Serif" font-size="10.00">Drive</text>
<text text-anchor="start" x="68.5" y="-95.5" font-family="Helvetica,sans-Serif" font-size="10.00"> </text>
<text text-anchor="start" x="12.5" y="-80.5" font-family="Helvetica,sans-Serif" font-size="10.00">+</text>
<text text-anchor="start" x="22.5" y="-80.5" font-family="Helvetica,sans-Serif" font-size="10.00">prepare()</text>
<text text-anchor="start" x="12.5" y="-65.5" font-family="Helvetica,sans-Serif" font-size="10.00">+</text>
<text text-anchor="start" x="22.5" y="-65.5" font-family="Helvetica,sans-Serif" font-size="10.00">isDrive($data)</text>
<text text-anchor="start" x="12.5" y="-50.5" font-family="Helvetica,sans-Serif" font-size="10.00">+</text>
<text text-anchor="start" x="22.5" y="-50.5" font-family="Helvetica,sans-Serif" font-size="10.00">handle()</text>
<text text-anchor="start" x="12.5" y="-35.5" font-family="Helvetica,sans-Serif" font-size="10.00">+</text>
<text text-anchor="start" x="22.5" y="-35.5" font-family="Helvetica,sans-Serif" font-size="10.00">checkConf(Conf $conf)</text>
<text text-anchor="start" x="12.5" y="-20.5" font-family="Helvetica,sans-Serif" font-size="10.00">+</text>
<text text-anchor="start" x="22.5" y="-20.5" font-family="Helvetica,sans-Serif" font-size="10.00">getPreparedHarddrives()</text>
<text text-anchor="start" x="12.5" y="-5.5" font-family="Helvetica,sans-Serif" font-size="10.00">+</text>
<text text-anchor="start" x="22.5" y="-5.5" font-family="Helvetica,sans-Serif" font-size="10.00">getItemtype()</text>
<polygon fill="#666666" stroke="#666666" points="8.5,-107 8.5,-107 131.5,-107 131.5,-107 8.5,-107"/>
<polygon fill="#666666" stroke="#666666" points="8.5,-92 8.5,-92 131.5,-92 131.5,-92 8.5,-92"/>
<polygon fill="none" stroke="#666666" points="8.5,0 8.5,-124 131.5,-124 131.5,0 8.5,0"/>
</a>
</g>
</g>
<!-- Node2 -->
<g id="Node000002" class="node">
<title>Node2</title>
<g id="a_Node000002"><a xlink:href="$class_glpi_1_1_inventory_1_1_asset_1_1_device.html" xlink:title=" ">
<polygon fill="white" stroke="none" points="128,-231 12,-231 12,-160 128,-160 128,-231"/>
<text text-anchor="start" x="54.62" y="-217.5" font-family="Helvetica,sans-Serif" font-size="10.00">Device</text>
<text text-anchor="start" x="68.5" y="-202.5" font-family="Helvetica,sans-Serif" font-size="10.00"> </text>
<text text-anchor="start" x="15.88" y="-187.5" font-family="Helvetica,sans-Serif" font-size="10.00">#</text>
<text text-anchor="start" x="25" y="-187.5" font-family="Helvetica,sans-Serif" font-size="10.00">itemdeviceAdded(Item</text>
<text text-anchor="start" x="25" y="-176.25" font-family="Helvetica,sans-Serif" font-size="10.00">_Devices $itemdevice,</text>
<text text-anchor="start" x="25" y="-165" font-family="Helvetica,sans-Serif" font-size="10.00"> $val)</text>
<polygon fill="#666666" stroke="#666666" points="12,-214 12,-214 128,-214 128,-214 12,-214"/>
<polygon fill="#666666" stroke="#666666" points="12,-199 12,-199 128,-199 128,-199 12,-199"/>
<polygon fill="none" stroke="#666666" points="12,-160 12,-231 128,-231 128,-160 12,-160"/>
</a>
</g>
</g>
<!-- Node2&#45;&gt;Node1 -->
<g id="edge5_Node000001_Node000002" class="edge">
<title>Node2&#45;&gt;Node1</title>
<g id="a_edge5_Node000001_Node000002"><a xlink:title=" ">
<path fill="none" stroke="#63b8ff" d="M70,-148.83C70,-140.74 70,-132.21 70,-123.78"/>
<polygon fill="none" stroke="#63b8ff" points="66.5,-148.78 70,-158.78 73.5,-148.78 66.5,-148.78"/>
</a>
</g>
</g>
<!-- Node3 -->
<g id="Node000003" class="node">
<title>Node3</title>
<g id="a_Node000003"><a xlink:href="$class_glpi_1_1_inventory_1_1_asset_1_1_inventory_asset.html" xlink:title=" ">
<polygon fill="white" stroke="none" points="140,-757 0,-757 0,-267 140,-267 140,-757"/>
<text text-anchor="start" x="37" y="-743.5" font-family="Helvetica,sans-Serif" font-size="10.00">InventoryAsset</text>
<text text-anchor="start" x="4.38" y="-728.5" font-family="Helvetica,sans-Serif" font-size="10.00">#</text>
<text text-anchor="start" x="14" y="-728.5" font-family="Helvetica,sans-Serif" font-size="10.00">$data</text>
<text text-anchor="start" x="4.38" y="-713.5" font-family="Helvetica,sans-Serif" font-size="10.00">#</text>
<text text-anchor="start" x="14" y="-713.5" font-family="Helvetica,sans-Serif" font-size="10.00">$item</text>
<text text-anchor="start" x="4.38" y="-698.5" font-family="Helvetica,sans-Serif" font-size="10.00">#</text>
<text text-anchor="start" x="14" y="-698.5" font-family="Helvetica,sans-Serif" font-size="10.00">$itemtype</text>
<text text-anchor="start" x="4.38" y="-683.5" font-family="Helvetica,sans-Serif" font-size="10.00">#</text>
<text text-anchor="start" x="14" y="-683.5" font-family="Helvetica,sans-Serif" font-size="10.00">$extra_data</text>
<text text-anchor="start" x="4.38" y="-668.5" font-family="Helvetica,sans-Serif" font-size="10.00">#</text>
<text text-anchor="start" x="14" y="-668.5" font-family="Helvetica,sans-Serif" font-size="10.00">$agent</text>
<text text-anchor="start" x="4.38" y="-653.5" font-family="Helvetica,sans-Serif" font-size="10.00">#</text>
<text text-anchor="start" x="14" y="-653.5" font-family="Helvetica,sans-Serif" font-size="10.00">$entities_id</text>
<text text-anchor="start" x="4.38" y="-638.5" font-family="Helvetica,sans-Serif" font-size="10.00">#</text>
<text text-anchor="start" x="14" y="-638.5" font-family="Helvetica,sans-Serif" font-size="10.00">$is_recursive</text>
<text text-anchor="start" x="4.38" y="-623.5" font-family="Helvetica,sans-Serif" font-size="10.00">#</text>
<text text-anchor="start" x="14" y="-623.5" font-family="Helvetica,sans-Serif" font-size="10.00">$ruleentity_data</text>
<text text-anchor="start" x="4.38" y="-608.5" font-family="Helvetica,sans-Serif" font-size="10.00">#</text>
<text text-anchor="start" x="14" y="-608.5" font-family="Helvetica,sans-Serif" font-size="10.00">$rulelocation_data</text>
<text text-anchor="start" x="4.38" y="-593.5" font-family="Helvetica,sans-Serif" font-size="10.00">#</text>
<text text-anchor="start" x="14" y="-593.5" font-family="Helvetica,sans-Serif" font-size="10.00">$links_handled</text>
<text text-anchor="start" x="14" y="-578.5" font-family="Helvetica,sans-Serif" font-size="10.00">et 6 de plus...</text>
<text text-anchor="start" x="4" y="-563.5" font-family="Helvetica,sans-Serif" font-size="10.00">+</text>
<text text-anchor="start" x="14" y="-563.5" font-family="Helvetica,sans-Serif" font-size="10.00">__construct(CommonDBTM</text>
<text text-anchor="start" x="14" y="-552.25" font-family="Helvetica,sans-Serif" font-size="10.00"> $item, array $data=null)</text>
<text text-anchor="start" x="4" y="-537.5" font-family="Helvetica,sans-Serif" font-size="10.00">+</text>
<text text-anchor="start" x="14" y="-537.5" font-family="Helvetica,sans-Serif" font-size="10.00">setData(array $data)</text>
<text text-anchor="start" x="4" y="-522.5" font-family="Helvetica,sans-Serif" font-size="10.00">+</text>
<text text-anchor="start" x="14" y="-522.5" font-family="Helvetica,sans-Serif" font-size="10.00">getData()</text>
<text text-anchor="start" x="4" y="-507.5" font-family="Helvetica,sans-Serif" font-size="10.00">+</text>
<text text-anchor="start" x="14" y="-507.5" font-family="Helvetica,sans-Serif" font-size="10.00">prepare()</text>
<text text-anchor="start" x="4" y="-492.5" font-family="Helvetica,sans-Serif" font-size="10.00">+</text>
<text text-anchor="start" x="14" y="-492.5" font-family="Helvetica,sans-Serif" font-size="10.00">handle()</text>
<text text-anchor="start" x="4" y="-477.5" font-family="Helvetica,sans-Serif" font-size="10.00">+</text>
<text text-anchor="start" x="14" y="-477.5" font-family="Helvetica,sans-Serif" font-size="10.00">setExtraData($data)</text>
<text text-anchor="start" x="4" y="-462.5" font-family="Helvetica,sans-Serif" font-size="10.00">+</text>
<text text-anchor="start" x="14" y="-462.5" font-family="Helvetica,sans-Serif" font-size="10.00">getIgnored($type)</text>
<text text-anchor="start" x="4" y="-447.5" font-family="Helvetica,sans-Serif" font-size="10.00">+</text>
<text text-anchor="start" x="14" y="-447.5" font-family="Helvetica,sans-Serif" font-size="10.00">checkConf(Conf $conf)</text>
<text text-anchor="start" x="4" y="-432.5" font-family="Helvetica,sans-Serif" font-size="10.00">+</text>
<text text-anchor="start" x="14" y="-432.5" font-family="Helvetica,sans-Serif" font-size="10.00">handleLinks()</text>
<text text-anchor="start" x="4" y="-417.5" font-family="Helvetica,sans-Serif" font-size="10.00">+</text>
<text text-anchor="start" x="14" y="-417.5" font-family="Helvetica,sans-Serif" font-size="10.00">setAgent(Agent $agent)</text>
<text text-anchor="start" x="14" y="-402.5" font-family="Helvetica,sans-Serif" font-size="10.00">et 8 de plus...</text>
<text text-anchor="start" x="4.38" y="-387.5" font-family="Helvetica,sans-Serif" font-size="10.00">#</text>
<text text-anchor="start" x="14" y="-387.5" font-family="Helvetica,sans-Serif" font-size="10.00">setItem(CommonDBTM</text>
<text text-anchor="start" x="14" y="-376.25" font-family="Helvetica,sans-Serif" font-size="10.00"> $item)</text>
<text text-anchor="start" x="4.38" y="-361.5" font-family="Helvetica,sans-Serif" font-size="10.00">#</text>
<text text-anchor="start" x="14" y="-361.5" font-family="Helvetica,sans-Serif" font-size="10.00">addOrMoveItem(array</text>
<text text-anchor="start" x="14" y="-350.25" font-family="Helvetica,sans-Serif" font-size="10.00"> $input)</text>
<text text-anchor="start" x="4.38" y="-335.5" font-family="Helvetica,sans-Serif" font-size="10.00">#</text>
<text text-anchor="start" x="14" y="-335.5" font-family="Helvetica,sans-Serif" font-size="10.00">setNew()</text>
<text text-anchor="start" x="4.38" y="-320.5" font-family="Helvetica,sans-Serif" font-size="10.00">#</text>
<text text-anchor="start" x="14" y="-320.5" font-family="Helvetica,sans-Serif" font-size="10.00">handleInput(\stdClass</text>
<text text-anchor="start" x="14" y="-309.25" font-family="Helvetica,sans-Serif" font-size="10.00"> $value, ?CommonDBTM </text>
<text text-anchor="start" x="14" y="-298" font-family="Helvetica,sans-Serif" font-size="10.00">$item=null)</text>
<text text-anchor="start" x="4.38" y="-283.5" font-family="Helvetica,sans-Serif" font-size="10.00">#</text>
<text text-anchor="start" x="14" y="-283.5" font-family="Helvetica,sans-Serif" font-size="10.00">cleanName(string </text>
<text text-anchor="start" x="14" y="-272.25" font-family="Helvetica,sans-Serif" font-size="10.00">$string)</text>
<polygon fill="#666666" stroke="#666666" points="0,-740 0,-740 140,-740 140,-740 0,-740"/>
<polygon fill="#666666" stroke="#666666" points="0,-575 0,-575 12,-575 12,-575 0,-575"/>
<polygon fill="#666666" stroke="#666666" points="12,-575 12,-575 140,-575 140,-575 12,-575"/>
<polygon fill="none" stroke="#666666" points="0,-267 0,-757 140,-757 140,-267 0,-267"/>
</a>
</g>
</g>
<!-- Node3&#45;&gt;Node2 -->
<g id="edge6_Node000002_Node000003" class="edge">
<title>Node3&#45;&gt;Node2</title>
<g id="a_edge6_Node000002_Node000003"><a xlink:title=" ">
<path fill="none" stroke="#63b8ff" d="M70,-255.6C70,-246.48 70,-238.09 70,-230.68"/>
<polygon fill="none" stroke="#63b8ff" points="66.5,-255.57 70,-265.57 73.5,-255.57 66.5,-255.57"/>
</a>
</g>
</g>
</g>
</svg>
