<?xml version="1.0" encoding="UTF-8" standalone="no"?>
<!DOCTYPE svg PUBLIC "-//W3C//DTD SVG 1.1//EN"
 "http://www.w3.org/Graphics/SVG/1.1/DTD/svg11.dtd">
<!-- Generated by graphviz version 10.0.1 (20240210.2158)
 -->
<!-- Title: count Pages: 1 -->
<svg width="444pt" height="175pt"
 viewBox="0.00 0.00 444.25 175.25" xmlns="http://www.w3.org/2000/svg" xmlns:xlink="http://www.w3.org/1999/xlink">
<g id="graph0" class="graph" transform="scale(1 1) rotate(0) translate(4 171.25)">
<title>count</title>
<!-- Node1 -->
<g id="Node000001" class="node">
<title>Node1</title>
<g id="a_Node000001"><a xlink:title=" ">
<polygon fill="#999999" stroke="#666666" points="436.25,-74.25 396.25,-74.25 396.25,-55 436.25,-55 436.25,-74.25"/>
<text text-anchor="middle" x="416.25" y="-60.75" font-family="Helvetica,sans-Serif" font-size="10.00">count</text>
</a>
</g>
</g>
<!-- Node2 -->
<g id="Node000002" class="node">
<title>Node2</title>
<g id="a_Node000002"><a xlink:href="$class_symfony_1_1_component_1_1_dom_crawler_1_1_crawler.html#aa15f04ffcfae6ce5e58e4f82841f044f" xlink:title=" ">
<polygon fill="white" stroke="#666666" points="360.25,-130.25 273,-130.25 273,-111 360.25,-111 360.25,-130.25"/>
<text text-anchor="middle" x="316.62" y="-116.75" font-family="Helvetica,sans-Serif" font-size="10.00">addHtmlContent</text>
</a>
</g>
</g>
<!-- Node1&#45;&gt;Node2 -->
<g id="edge19_Node000001_Node000002" class="edge">
<title>Node1&#45;&gt;Node2</title>
<g id="a_edge19_Node000001_Node000002"><a xlink:title=" ">
<path fill="none" stroke="#63b8ff" d="M393.57,-81.14C383.7,-88.24 371.7,-96.34 360.25,-102.62 355.04,-105.49 349.28,-108.2 343.72,-110.61"/>
<polygon fill="#63b8ff" stroke="#63b8ff" points="395.43,-84.11 401.4,-75.36 391.27,-78.48 395.43,-84.11"/>
</a>
</g>
</g>
<!-- Node7 -->
<g id="Node000007" class="node">
<title>Node7</title>
<g id="a_Node000007"><a xlink:href="$class_symfony_1_1_component_1_1_dom_crawler_1_1_crawler.html#ab4f40c94d3427e415d291c68d3e67cfa" xlink:title=" ">
<polygon fill="white" stroke="#666666" points="337.75,-93.25 295.5,-93.25 295.5,-74 337.75,-74 337.75,-93.25"/>
<text text-anchor="middle" x="316.62" y="-79.75" font-family="Helvetica,sans-Serif" font-size="10.00">image</text>
</a>
</g>
</g>
<!-- Node1&#45;&gt;Node7 -->
<g id="edge25_Node000001_Node000007" class="edge">
<title>Node1&#45;&gt;Node7</title>
<g id="a_edge25_Node000001_Node000007"><a xlink:title=" ">
<path fill="none" stroke="#63b8ff" d="M385.01,-70.51C369.82,-73.47 351.8,-76.97 338.22,-79.62"/>
<polygon fill="#63b8ff" stroke="#63b8ff" points="385.33,-74.01 394.48,-68.67 383.99,-67.14 385.33,-74.01"/>
</a>
</g>
</g>
<!-- Node8 -->
<g id="Node000008" class="node">
<title>Node8</title>
<g id="a_Node000008"><a xlink:href="$class_symfony_1_1_component_1_1_dom_crawler_1_1_crawler.html#ac90cadb327363232bb2d83a4f8ebd613" xlink:title=" ">
<polygon fill="white" stroke="#666666" points="332.5,-56.25 300.75,-56.25 300.75,-37 332.5,-37 332.5,-56.25"/>
<text text-anchor="middle" x="316.62" y="-42.75" font-family="Helvetica,sans-Serif" font-size="10.00">last</text>
</a>
</g>
</g>
<!-- Node1&#45;&gt;Node8 -->
<g id="edge26_Node000001_Node000008" class="edge">
<title>Node1&#45;&gt;Node8</title>
<g id="a_edge26_Node000001_Node000008"><a xlink:title=" ">
<path fill="none" stroke="#63b8ff" d="M384.69,-58.99C367.4,-55.8 346.53,-51.95 332.72,-49.41"/>
<polygon fill="#63b8ff" stroke="#63b8ff" points="384.01,-62.42 394.47,-60.79 385.27,-55.54 384.01,-62.42"/>
</a>
</g>
</g>
<!-- Node9 -->
<g id="Node000009" class="node">
<title>Node9</title>
<g id="a_Node000009"><a xlink:href="$class_symfony_1_1_component_1_1_dom_crawler_1_1_crawler.html#a7e98352e53118c72406895a6b05435ce" xlink:title=" ">
<polygon fill="white" stroke="#666666" points="346,-19.25 287.25,-19.25 287.25,0 346,0 346,-19.25"/>
<text text-anchor="middle" x="316.62" y="-5.75" font-family="Helvetica,sans-Serif" font-size="10.00">outerHtml</text>
</a>
</g>
</g>
<!-- Node1&#45;&gt;Node9 -->
<g id="edge27_Node000001_Node000009" class="edge">
<title>Node1&#45;&gt;Node9</title>
<g id="a_edge27_Node000001_Node000009"><a xlink:title=" ">
<path fill="none" stroke="#63b8ff" d="M392.81,-48.1C383.07,-41.3 371.37,-33.64 360.25,-27.62 355.02,-24.8 349.25,-22.1 343.7,-19.69"/>
<polygon fill="#63b8ff" stroke="#63b8ff" points="390.74,-50.92 400.91,-53.87 394.8,-45.22 390.74,-50.92"/>
</a>
</g>
</g>
<!-- Node3 -->
<g id="Node000003" class="node">
<title>Node3</title>
<g id="a_Node000003"><a xlink:href="$class_symfony_1_1_component_1_1_dom_crawler_1_1_crawler.html#a928cec60f54270fd0f5ce0686bbc1886" xlink:title=" ">
<polygon fill="white" stroke="#666666" points="237,-130.25 170.75,-130.25 170.75,-111 237,-111 237,-130.25"/>
<text text-anchor="middle" x="203.88" y="-116.75" font-family="Helvetica,sans-Serif" font-size="10.00">addContent</text>
</a>
</g>
</g>
<!-- Node2&#45;&gt;Node3 -->
<g id="edge20_Node000002_Node000003" class="edge">
<title>Node2&#45;&gt;Node3</title>
<g id="a_edge20_Node000002_Node000003"><a xlink:title=" ">
<path fill="none" stroke="#63b8ff" d="M261.57,-120.62C253.26,-120.62 244.91,-120.62 237.27,-120.62"/>
<polygon fill="#63b8ff" stroke="#63b8ff" points="261.29,-124.13 271.29,-120.63 261.29,-117.13 261.29,-124.13"/>
</a>
</g>
</g>
<!-- Node4 -->
<g id="Node000004" class="node">
<title>Node4</title>
<g id="a_Node000004"><a xlink:href="$class_symfony_1_1_component_1_1_dom_crawler_1_1_crawler.html#a5e74544cb237d8927ddb250093718d96" xlink:title=" ">
<polygon fill="white" stroke="#666666" points="134.75,-130.25 103,-130.25 103,-111 134.75,-111 134.75,-130.25"/>
<text text-anchor="middle" x="118.88" y="-116.75" font-family="Helvetica,sans-Serif" font-size="10.00">add</text>
</a>
</g>
</g>
<!-- Node3&#45;&gt;Node4 -->
<g id="edge21_Node000003_Node000004" class="edge">
<title>Node3&#45;&gt;Node4</title>
<g id="a_edge21_Node000003_Node000004"><a xlink:title=" ">
<path fill="none" stroke="#63b8ff" d="M159.21,-120.62C150.55,-120.62 142.02,-120.62 135.12,-120.62"/>
<polygon fill="#63b8ff" stroke="#63b8ff" points="159.03,-124.13 169.03,-120.63 159.03,-117.13 159.03,-124.13"/>
</a>
</g>
</g>
<!-- Node5 -->
<g id="Node000005" class="node">
<title>Node5</title>
<g id="a_Node000005"><a xlink:href="$class_symfony_1_1_component_1_1_dom_crawler_1_1_crawler.html#aafe892718b1ee6530920d3596b5fbc4b" xlink:title=" ">
<polygon fill="white" stroke="#666666" points="67,-167.25 0,-167.25 0,-148 67,-148 67,-167.25"/>
<text text-anchor="middle" x="33.5" y="-153.75" font-family="Helvetica,sans-Serif" font-size="10.00">__construct</text>
</a>
</g>
</g>
<!-- Node4&#45;&gt;Node5 -->
<g id="edge22_Node000004_Node000005" class="edge">
<title>Node4&#45;&gt;Node5</title>
<g id="a_edge22_Node000004_Node000005"><a xlink:title=" ">
<path fill="none" stroke="#63b8ff" d="M92.17,-132.03C81.01,-136.98 68.05,-142.74 57.24,-147.53"/>
<polygon fill="#63b8ff" stroke="#63b8ff" points="93.48,-135.28 101.2,-128.03 90.64,-128.88 93.48,-135.28"/>
</a>
</g>
</g>
<!-- Node6 -->
<g id="Node000006" class="node">
<title>Node6</title>
<g id="a_Node000006"><a xlink:href="$class_symfony_1_1_component_1_1_dom_crawler_1_1_crawler.html#a6bdebba7faa85708a0d62bc719f816d0" xlink:title=" ">
<polygon fill="white" stroke="#666666" points="63.62,-130.25 3.38,-130.25 3.38,-111 63.62,-111 63.62,-130.25"/>
<text text-anchor="middle" x="33.5" y="-116.75" font-family="Helvetica,sans-Serif" font-size="10.00">addNodes</text>
</a>
</g>
</g>
<!-- Node4&#45;&gt;Node6 -->
<g id="edge23_Node000004_Node000006" class="edge">
<title>Node4&#45;&gt;Node6</title>
<g id="a_edge23_Node000004_Node000006"><a xlink:title=" ">
<path fill="none" stroke="#63b8ff" d="M91.14,-114.28C82.45,-113.79 72.75,-113.75 63.87,-114.14"/>
<polygon fill="#63b8ff" stroke="#63b8ff" points="90.81,-117.76 101.07,-115.13 91.41,-110.79 90.81,-117.76"/>
</a>
</g>
</g>
<!-- Node6&#45;&gt;Node4 -->
<g id="edge24_Node000006_Node000004" class="edge">
<title>Node6&#45;&gt;Node4</title>
<g id="a_edge24_Node000006_Node000004"><a xlink:title=" ">
<path fill="none" stroke="#63b8ff" d="M75.18,-127.37C84.96,-127.41 94.81,-126.95 102.58,-125.99"/>
<polygon fill="#63b8ff" stroke="#63b8ff" points="75.46,-123.88 65.38,-127.14 75.3,-130.88 75.46,-123.88"/>
</a>
</g>
</g>
</g>
</svg>
