<?xml version="1.0" encoding="UTF-8" standalone="no"?>
<!DOCTYPE svg PUBLIC "-//W3C//DTD SVG 1.1//EN"
 "http://www.w3.org/Graphics/SVG/1.1/DTD/svg11.dtd">
<!-- Generated by graphviz version 10.0.1 (20240210.2158)
 -->
<!-- Title: getSearchCriteria Pages: 1 -->
<svg width="443pt" height="39pt"
 viewBox="0.00 0.00 443.00 38.50" xmlns="http://www.w3.org/2000/svg" xmlns:xlink="http://www.w3.org/1999/xlink">
<g id="graph0" class="graph" transform="scale(1 1) rotate(0) translate(4 34.5)">
<title>getSearchCriteria</title>
<!-- Node1 -->
<g id="Node000001" class="node">
<title>Node1</title>
<g id="a_Node000001"><a xlink:title=" ">
<polygon fill="#999999" stroke="#666666" points="91.75,-24.88 0,-24.88 0,-5.63 91.75,-5.63 91.75,-24.88"/>
<text text-anchor="middle" x="45.88" y="-11.38" font-family="Helvetica,sans-Serif" font-size="10.00">getSearchCriteria</text>
</a>
</g>
</g>
<!-- Node2 -->
<g id="Node000002" class="node">
<title>Node2</title>
<g id="a_Node000002"><a xlink:href="$class_glpi_1_1_dashboard_1_1_filters_1_1_abstract_filter.html#ad7771b5c4b756255b098f514edc9e113" xlink:title=" ">
<polygon fill="white" stroke="#666666" points="291.5,-30.5 127.75,-30.5 127.75,0 291.5,0 291.5,-30.5"/>
<text text-anchor="start" x="135.75" y="-17" font-family="Helvetica,sans-Serif" font-size="10.00">Glpi\Dashboard\Filters</text>
<text text-anchor="middle" x="209.62" y="-5.75" font-family="Helvetica,sans-Serif" font-size="10.00">\AbstractFilter\getSearchOptionID</text>
</a>
</g>
</g>
<!-- Node1&#45;&gt;Node2 -->
<g id="edge5_Node000001_Node000002" class="edge">
<title>Node1&#45;&gt;Node2</title>
<g id="a_edge5_Node000001_Node000002"><a xlink:title=" ">
<path fill="none" stroke="#63b8ff" d="M91.93,-15.25C99.51,-15.25 107.62,-15.25 115.9,-15.25"/>
<polygon fill="#63b8ff" stroke="#63b8ff" points="115.75,-18.75 125.75,-15.25 115.75,-11.75 115.75,-18.75"/>
</a>
</g>
</g>
<!-- Node3 -->
<g id="Node000003" class="node">
<title>Node3</title>
<g id="a_Node000003"><a xlink:href="$db_8function_8php.html#a91adb262d3b5c32d0aecb58855d84fe2" xlink:title=" ">
<polygon fill="white" stroke="#666666" points="435,-24.88 327.5,-24.88 327.5,-5.63 435,-5.63 435,-24.88"/>
<text text-anchor="middle" x="381.25" y="-11.38" font-family="Helvetica,sans-Serif" font-size="10.00">getItemTypeForTable</text>
</a>
</g>
</g>
<!-- Node2&#45;&gt;Node3 -->
<g id="edge6_Node000002_Node000003" class="edge">
<title>Node2&#45;&gt;Node3</title>
<g id="a_edge6_Node000002_Node000003"><a xlink:title=" ">
<path fill="none" stroke="#63b8ff" d="M291.96,-15.25C299.86,-15.25 307.81,-15.25 315.52,-15.25"/>
<polygon fill="#63b8ff" stroke="#63b8ff" points="315.49,-18.75 325.49,-15.25 315.49,-11.75 315.49,-18.75"/>
</a>
</g>
</g>
</g>
</svg>
