<?xml version="1.0" encoding="UTF-8" standalone="no"?>
<!DOCTYPE svg PUBLIC "-//W3C//DTD SVG 1.1//EN"
 "http://www.w3.org/Graphics/SVG/1.1/DTD/svg11.dtd">
<!-- Generated by graphviz version 10.0.1 (20240210.2158)
 -->
<!-- Title: getHydrator Pages: 1 -->
<svg width="159pt" height="45pt"
 viewBox="0.00 0.00 159.25 45.25" xmlns="http://www.w3.org/2000/svg" xmlns:xlink="http://www.w3.org/1999/xlink">
<g id="graph0" class="graph" transform="scale(1 1) rotate(0) translate(4 41.25)">
<title>getHydrator</title>
<!-- Node1 -->
<g id="Node000001" class="node">
<title>Node1</title>
<g id="a_Node000001"><a xlink:title=" ">
<polygon fill="#999999" stroke="#666666" points="151.25,-19.25 84.25,-19.25 84.25,0 151.25,0 151.25,-19.25"/>
<text text-anchor="middle" x="117.75" y="-5.75" font-family="Helvetica,sans-Serif" font-size="10.00">getHydrator</text>
</a>
</g>
</g>
<!-- Node1&#45;&gt;Node1 -->
<g id="edge5_Node000001_Node000001" class="edge">
<title>Node1&#45;&gt;Node1</title>
<g id="a_edge5_Node000001_Node000001"><a xlink:title=" ">
<path fill="none" stroke="#63b8ff" d="M134.37,-30.65C132.29,-34.53 126.75,-37.25 117.75,-37.25 101.29,-37.25 96.41,-28.15 103.09,-19.54"/>
<polygon fill="#63b8ff" stroke="#63b8ff" points="137.85,-30.27 132.67,-21.03 130.96,-31.48 137.85,-30.27"/>
</a>
</g>
</g>
<!-- Node2 -->
<g id="Node000002" class="node">
<title>Node2</title>
<g id="a_Node000002"><a xlink:href="$class_symfony_1_1_component_1_1_var_exporter_1_1_internal_1_1_hydrator.html#a7cbaf264b5fd97fc9ee7dab8dabeb23c" xlink:title=" ">
<polygon fill="white" stroke="#666666" points="48.25,-19.25 0,-19.25 0,0 48.25,0 48.25,-19.25"/>
<text text-anchor="middle" x="24.12" y="-5.75" font-family="Helvetica,sans-Serif" font-size="10.00">hydrate</text>
</a>
</g>
</g>
<!-- Node1&#45;&gt;Node2 -->
<g id="edge6_Node000001_Node000002" class="edge">
<title>Node1&#45;&gt;Node2</title>
<g id="a_edge6_Node000001_Node000002"><a xlink:title=" ">
<path fill="none" stroke="#63b8ff" d="M72.7,-9.62C64.35,-9.62 55.92,-9.62 48.53,-9.62"/>
<polygon fill="#63b8ff" stroke="#63b8ff" points="72.42,-13.13 82.42,-9.63 72.42,-6.13 72.42,-13.13"/>
</a>
</g>
</g>
</g>
</svg>
