<?xml version="1.0" encoding="UTF-8" standalone="no"?>
<!DOCTYPE svg PUBLIC "-//W3C//DTD SVG 1.1//EN"
 "http://www.w3.org/Graphics/SVG/1.1/DTD/svg11.dtd">
<!-- Generated by graphviz version 10.0.1 (20240210.2158)
 -->
<!-- Title: DeviceFirmware Pages: 1 -->
<svg width="584pt" height="2763pt"
 viewBox="0.00 0.00 583.50 2762.50" xmlns="http://www.w3.org/2000/svg" xmlns:xlink="http://www.w3.org/1999/xlink">
<g id="graph0" class="graph" transform="scale(1 1) rotate(0) translate(4 2758.5)">
<title>DeviceFirmware</title>
<!-- Node1 -->
<g id="Node000001" class="node">
<title>Node1</title>
<g id="a_Node000001"><a xlink:title=" ">
<polygon fill="#999999" stroke="none" points="517,-146 349,-146 349,0 517,0 517,-146"/>
<text text-anchor="start" x="397.38" y="-132.5" font-family="Helvetica,sans-Serif" font-size="10.00">DeviceFirmware</text>
<text text-anchor="start" x="431.5" y="-117.5" font-family="Helvetica,sans-Serif" font-size="10.00"> </text>
<text text-anchor="start" x="353" y="-102.5" font-family="Helvetica,sans-Serif" font-size="10.00">+</text>
<text text-anchor="start" x="363" y="-102.5" font-family="Helvetica,sans-Serif" font-size="10.00">getAdditionalFields()</text>
<text text-anchor="start" x="353" y="-87.5" font-family="Helvetica,sans-Serif" font-size="10.00">+</text>
<text text-anchor="start" x="363" y="-87.5" font-family="Helvetica,sans-Serif" font-size="10.00">rawSearchOptions()</text>
<text text-anchor="start" x="353" y="-72.5" font-family="Helvetica,sans-Serif" font-size="10.00">+</text>
<text text-anchor="start" x="363" y="-72.5" font-family="Helvetica,sans-Serif" font-size="10.00">getImportCriteria()</text>
<text text-anchor="start" x="353" y="-57.5" font-family="Helvetica,sans-Serif" font-size="10.00">+</text>
<text text-anchor="start" x="363" y="-57.5" font-family="Helvetica,sans-Serif" font-size="10.00">static getTypeName</text>
<text text-anchor="start" x="363" y="-46.25" font-family="Helvetica,sans-Serif" font-size="10.00">($nb=0)</text>
<text text-anchor="start" x="353" y="-31.5" font-family="Helvetica,sans-Serif" font-size="10.00">+</text>
<text text-anchor="start" x="363" y="-31.5" font-family="Helvetica,sans-Serif" font-size="10.00">static rawSearchOptionsTo</text>
<text text-anchor="start" x="363" y="-20.25" font-family="Helvetica,sans-Serif" font-size="10.00">Add($itemtype, $main_joinparams)</text>
<text text-anchor="start" x="353" y="-5.5" font-family="Helvetica,sans-Serif" font-size="10.00">+</text>
<text text-anchor="start" x="363" y="-5.5" font-family="Helvetica,sans-Serif" font-size="10.00">static getIcon()</text>
<polygon fill="#666666" stroke="#666666" points="349,-129 349,-129 517,-129 517,-129 349,-129"/>
<polygon fill="#666666" stroke="#666666" points="349,-114 349,-114 517,-114 517,-114 349,-114"/>
<polygon fill="none" stroke="#666666" points="349,0 349,-146 517,-146 517,0 349,0"/>
</a>
</g>
</g>
<!-- Node2 -->
<g id="Node000002" class="node">
<title>Node2</title>
<g id="a_Node000002"><a xlink:href="$class_common_device.html" xlink:title=" ">
<polygon fill="white" stroke="none" points="459,-662 299,-662 299,-183 459,-183 459,-662"/>
<text text-anchor="start" x="343.75" y="-648.5" font-family="Helvetica,sans-Serif" font-size="10.00">CommonDevice</text>
<text text-anchor="start" x="303" y="-633.5" font-family="Helvetica,sans-Serif" font-size="10.00">+</text>
<text text-anchor="start" x="313" y="-633.5" font-family="Helvetica,sans-Serif" font-size="10.00">$can_be_translated</text>
<text text-anchor="start" x="303" y="-618.5" font-family="Helvetica,sans-Serif" font-size="10.00">+</text>
<text text-anchor="start" x="313" y="-618.5" font-family="Helvetica,sans-Serif" font-size="10.00">$dohistory</text>
<text text-anchor="start" x="303" y="-603.5" font-family="Helvetica,sans-Serif" font-size="10.00">+</text>
<text text-anchor="start" x="313" y="-603.5" font-family="Helvetica,sans-Serif" font-size="10.00">$first_level_menu</text>
<text text-anchor="start" x="303" y="-588.5" font-family="Helvetica,sans-Serif" font-size="10.00">+</text>
<text text-anchor="start" x="313" y="-588.5" font-family="Helvetica,sans-Serif" font-size="10.00">$second_level_menu</text>
<text text-anchor="start" x="303" y="-573.5" font-family="Helvetica,sans-Serif" font-size="10.00">+</text>
<text text-anchor="start" x="313" y="-573.5" font-family="Helvetica,sans-Serif" font-size="10.00">$third_level_menu</text>
<text text-anchor="start" x="303" y="-558.5" font-family="Helvetica,sans-Serif" font-size="10.00">+</text>
<text text-anchor="start" x="313" y="-558.5" font-family="Helvetica,sans-Serif" font-size="10.00">displaySpecificTypeField</text>
<text text-anchor="start" x="313" y="-547.25" font-family="Helvetica,sans-Serif" font-size="10.00">($ID, $field=[], array</text>
<text text-anchor="start" x="313" y="-536" font-family="Helvetica,sans-Serif" font-size="10.00"> $options=[])</text>
<text text-anchor="start" x="303" y="-521.5" font-family="Helvetica,sans-Serif" font-size="10.00">+</text>
<text text-anchor="start" x="313" y="-521.5" font-family="Helvetica,sans-Serif" font-size="10.00">getAdditionalFields()</text>
<text text-anchor="start" x="303" y="-506.5" font-family="Helvetica,sans-Serif" font-size="10.00">+</text>
<text text-anchor="start" x="313" y="-506.5" font-family="Helvetica,sans-Serif" font-size="10.00">rawSearchOptions()</text>
<text text-anchor="start" x="303" y="-491.5" font-family="Helvetica,sans-Serif" font-size="10.00">+</text>
<text text-anchor="start" x="313" y="-491.5" font-family="Helvetica,sans-Serif" font-size="10.00">title()</text>
<text text-anchor="start" x="303" y="-476.5" font-family="Helvetica,sans-Serif" font-size="10.00">+</text>
<text text-anchor="start" x="313" y="-476.5" font-family="Helvetica,sans-Serif" font-size="10.00">getHTMLTableCellForItem</text>
<text text-anchor="start" x="313" y="-465.25" font-family="Helvetica,sans-Serif" font-size="10.00">(HTMLTableRow $row=null,</text>
<text text-anchor="start" x="313" y="-454" font-family="Helvetica,sans-Serif" font-size="10.00"> CommonDBTM $item=null,</text>
<text text-anchor="start" x="313" y="-442.75" font-family="Helvetica,sans-Serif" font-size="10.00"> HTMLTableCell $father=null,</text>
<text text-anchor="start" x="313" y="-431.5" font-family="Helvetica,sans-Serif" font-size="10.00"> array $options=[])</text>
<text text-anchor="start" x="303" y="-416.5" font-family="Helvetica,sans-Serif" font-size="10.00">+</text>
<text text-anchor="start" x="313" y="-416.5" font-family="Helvetica,sans-Serif" font-size="10.00">getImportCriteria()</text>
<text text-anchor="start" x="303" y="-401.5" font-family="Helvetica,sans-Serif" font-size="10.00">+</text>
<text text-anchor="start" x="313" y="-401.5" font-family="Helvetica,sans-Serif" font-size="10.00">defineTabs($options=[])</text>
<text text-anchor="start" x="303" y="-386.5" font-family="Helvetica,sans-Serif" font-size="10.00">+</text>
<text text-anchor="start" x="313" y="-386.5" font-family="Helvetica,sans-Serif" font-size="10.00">post_workOnItem()</text>
<text text-anchor="start" x="303" y="-371.5" font-family="Helvetica,sans-Serif" font-size="10.00">+</text>
<text text-anchor="start" x="313" y="-371.5" font-family="Helvetica,sans-Serif" font-size="10.00">post_addItem()</text>
<text text-anchor="start" x="303" y="-356.5" font-family="Helvetica,sans-Serif" font-size="10.00">+</text>
<text text-anchor="start" x="313" y="-356.5" font-family="Helvetica,sans-Serif" font-size="10.00">post_updateItem($history</text>
<text text-anchor="start" x="313" y="-345.25" font-family="Helvetica,sans-Serif" font-size="10.00">=true)</text>
<text text-anchor="start" x="303" y="-330.5" font-family="Helvetica,sans-Serif" font-size="10.00">+</text>
<text text-anchor="start" x="313" y="-330.5" font-family="Helvetica,sans-Serif" font-size="10.00">static getTypeName</text>
<text text-anchor="start" x="313" y="-319.25" font-family="Helvetica,sans-Serif" font-size="10.00">($nb=0)</text>
<text text-anchor="start" x="303" y="-304.5" font-family="Helvetica,sans-Serif" font-size="10.00">+</text>
<text text-anchor="start" x="313" y="-304.5" font-family="Helvetica,sans-Serif" font-size="10.00">static getItem_DeviceType</text>
<text text-anchor="start" x="313" y="-293.25" font-family="Helvetica,sans-Serif" font-size="10.00">($devicetype=null)</text>
<text text-anchor="start" x="303" y="-278.5" font-family="Helvetica,sans-Serif" font-size="10.00">+</text>
<text text-anchor="start" x="313" y="-278.5" font-family="Helvetica,sans-Serif" font-size="10.00">static getMenuContent()</text>
<text text-anchor="start" x="303" y="-263.5" font-family="Helvetica,sans-Serif" font-size="10.00">+</text>
<text text-anchor="start" x="313" y="-263.5" font-family="Helvetica,sans-Serif" font-size="10.00">static getNameField()</text>
<text text-anchor="start" x="303" y="-248.5" font-family="Helvetica,sans-Serif" font-size="10.00">+</text>
<text text-anchor="start" x="313" y="-248.5" font-family="Helvetica,sans-Serif" font-size="10.00">static getHTMLTableHeader</text>
<text text-anchor="start" x="313" y="-237.25" font-family="Helvetica,sans-Serif" font-size="10.00">( $itemtype, HTMLTableBase</text>
<text text-anchor="start" x="313" y="-226" font-family="Helvetica,sans-Serif" font-size="10.00"> $base, HTMLTableSuperHeader</text>
<text text-anchor="start" x="313" y="-214.75" font-family="Helvetica,sans-Serif" font-size="10.00"> $super=null, HTMLTableHeader</text>
<text text-anchor="start" x="313" y="-203.5" font-family="Helvetica,sans-Serif" font-size="10.00"> $father=null, array $options=[])</text>
<text text-anchor="start" x="303" y="-188.5" font-family="Helvetica,sans-Serif" font-size="10.00">+</text>
<text text-anchor="start" x="313" y="-188.5" font-family="Helvetica,sans-Serif" font-size="10.00">static getIcon()</text>
<polygon fill="#666666" stroke="#666666" points="299,-645 299,-645 459,-645 459,-645 299,-645"/>
<polygon fill="#666666" stroke="#666666" points="299,-570 299,-570 311,-570 311,-570 299,-570"/>
<polygon fill="#666666" stroke="#666666" points="311,-570 311,-570 459,-570 459,-570 311,-570"/>
<polygon fill="none" stroke="#666666" points="299,-183 299,-662 459,-662 459,-183 299,-183"/>
</a>
</g>
</g>
<!-- Node2&#45;&gt;Node1 -->
<g id="edge21_Node000001_Node000002" class="edge">
<title>Node2&#45;&gt;Node1</title>
<g id="a_edge21_Node000001_Node000002"><a xlink:title=" ">
<path fill="none" stroke="#63b8ff" d="M417.74,-172.19C419.16,-163.06 420.52,-154.29 421.81,-145.99"/>
<polygon fill="none" stroke="#63b8ff" points="414.3,-171.56 416.22,-181.98 421.21,-172.63 414.3,-171.56"/>
</a>
</g>
</g>
<!-- Node3 -->
<g id="Node000003" class="node">
<title>Node3</title>
<g id="a_Node000003"><a xlink:href="$class_common_dropdown.html" xlink:title="CommonDropdown class &#45; generic dropdown.">
<polygon fill="white" stroke="none" points="374,-1188 224,-1188 224,-699 374,-699 374,-1188"/>
<text text-anchor="start" x="257" y="-1174.5" font-family="Helvetica,sans-Serif" font-size="10.00">CommonDropdown</text>
<text text-anchor="start" x="228" y="-1159.5" font-family="Helvetica,sans-Serif" font-size="10.00">+</text>
<text text-anchor="start" x="238" y="-1159.5" font-family="Helvetica,sans-Serif" font-size="10.00">$dohistory</text>
<text text-anchor="start" x="228" y="-1144.5" font-family="Helvetica,sans-Serif" font-size="10.00">+</text>
<text text-anchor="start" x="238" y="-1144.5" font-family="Helvetica,sans-Serif" font-size="10.00">$must_be_replace</text>
<text text-anchor="start" x="228" y="-1129.5" font-family="Helvetica,sans-Serif" font-size="10.00">+</text>
<text text-anchor="start" x="238" y="-1129.5" font-family="Helvetica,sans-Serif" font-size="10.00">$first_level_menu</text>
<text text-anchor="start" x="228" y="-1114.5" font-family="Helvetica,sans-Serif" font-size="10.00">+</text>
<text text-anchor="start" x="238" y="-1114.5" font-family="Helvetica,sans-Serif" font-size="10.00">$second_level_menu</text>
<text text-anchor="start" x="228" y="-1099.5" font-family="Helvetica,sans-Serif" font-size="10.00">+</text>
<text text-anchor="start" x="238" y="-1099.5" font-family="Helvetica,sans-Serif" font-size="10.00">$third_level_menu</text>
<text text-anchor="start" x="228" y="-1084.5" font-family="Helvetica,sans-Serif" font-size="10.00">+</text>
<text text-anchor="start" x="238" y="-1084.5" font-family="Helvetica,sans-Serif" font-size="10.00">$display_dropdowntitle</text>
<text text-anchor="start" x="228" y="-1069.5" font-family="Helvetica,sans-Serif" font-size="10.00">+</text>
<text text-anchor="start" x="238" y="-1069.5" font-family="Helvetica,sans-Serif" font-size="10.00">$can_be_translated</text>
<text text-anchor="start" x="228" y="-1054.5" font-family="Helvetica,sans-Serif" font-size="10.00">+</text>
<text text-anchor="start" x="238" y="-1054.5" font-family="Helvetica,sans-Serif" font-size="10.00">maybeTranslated()</text>
<text text-anchor="start" x="228" y="-1039.5" font-family="Helvetica,sans-Serif" font-size="10.00">+</text>
<text text-anchor="start" x="238" y="-1039.5" font-family="Helvetica,sans-Serif" font-size="10.00">getAdditionalField</text>
<text text-anchor="start" x="238" y="-1028.25" font-family="Helvetica,sans-Serif" font-size="10.00">(string $name)</text>
<text text-anchor="start" x="228" y="-1013.5" font-family="Helvetica,sans-Serif" font-size="10.00">+</text>
<text text-anchor="start" x="238" y="-1013.5" font-family="Helvetica,sans-Serif" font-size="10.00">defineTabs($options=[])</text>
<text text-anchor="start" x="228" y="-998.5" font-family="Helvetica,sans-Serif" font-size="10.00">+</text>
<text text-anchor="start" x="238" y="-998.5" font-family="Helvetica,sans-Serif" font-size="10.00">displayHeader()</text>
<text text-anchor="start" x="228" y="-983.5" font-family="Helvetica,sans-Serif" font-size="10.00">+</text>
<text text-anchor="start" x="238" y="-983.5" font-family="Helvetica,sans-Serif" font-size="10.00">prepareInputForUpdate</text>
<text text-anchor="start" x="238" y="-972.25" font-family="Helvetica,sans-Serif" font-size="10.00">($input)</text>
<text text-anchor="start" x="228" y="-957.5" font-family="Helvetica,sans-Serif" font-size="10.00">+</text>
<text text-anchor="start" x="238" y="-957.5" font-family="Helvetica,sans-Serif" font-size="10.00">post_addItem()</text>
<text text-anchor="start" x="228" y="-942.5" font-family="Helvetica,sans-Serif" font-size="10.00">+</text>
<text text-anchor="start" x="238" y="-942.5" font-family="Helvetica,sans-Serif" font-size="10.00">post_updateItem($history</text>
<text text-anchor="start" x="238" y="-931.25" font-family="Helvetica,sans-Serif" font-size="10.00">=true)</text>
<text text-anchor="start" x="228" y="-916.5" font-family="Helvetica,sans-Serif" font-size="10.00">+</text>
<text text-anchor="start" x="238" y="-916.5" font-family="Helvetica,sans-Serif" font-size="10.00">cleanDBonPurge()</text>
<text text-anchor="start" x="228" y="-901.5" font-family="Helvetica,sans-Serif" font-size="10.00">+</text>
<text text-anchor="start" x="238" y="-901.5" font-family="Helvetica,sans-Serif" font-size="10.00">showForm($ID, array</text>
<text text-anchor="start" x="238" y="-890.25" font-family="Helvetica,sans-Serif" font-size="10.00"> $options=[])</text>
<text text-anchor="start" x="228" y="-875.5" font-family="Helvetica,sans-Serif" font-size="10.00">+</text>
<text text-anchor="start" x="238" y="-875.5" font-family="Helvetica,sans-Serif" font-size="10.00">displaySpecificTypeField</text>
<text text-anchor="start" x="238" y="-864.25" font-family="Helvetica,sans-Serif" font-size="10.00">($ID, $field=[], array</text>
<text text-anchor="start" x="238" y="-853" font-family="Helvetica,sans-Serif" font-size="10.00"> $options=[])</text>
<text text-anchor="start" x="238" y="-838.5" font-family="Helvetica,sans-Serif" font-size="10.00">et 7 de plus...</text>
<text text-anchor="start" x="228" y="-823.5" font-family="Helvetica,sans-Serif" font-size="10.00">+</text>
<text text-anchor="start" x="238" y="-823.5" font-family="Helvetica,sans-Serif" font-size="10.00">static getTypeName</text>
<text text-anchor="start" x="238" y="-812.25" font-family="Helvetica,sans-Serif" font-size="10.00">($nb=0)</text>
<text text-anchor="start" x="228" y="-797.5" font-family="Helvetica,sans-Serif" font-size="10.00">+</text>
<text text-anchor="start" x="238" y="-797.5" font-family="Helvetica,sans-Serif" font-size="10.00">static getMenuShorcut()</text>
<text text-anchor="start" x="228" y="-782.5" font-family="Helvetica,sans-Serif" font-size="10.00">+</text>
<text text-anchor="start" x="238" y="-782.5" font-family="Helvetica,sans-Serif" font-size="10.00">static getMenuContent()</text>
<text text-anchor="start" x="228" y="-767.5" font-family="Helvetica,sans-Serif" font-size="10.00">+</text>
<text text-anchor="start" x="238" y="-767.5" font-family="Helvetica,sans-Serif" font-size="10.00">static displayCentralHeader</text>
<text text-anchor="start" x="238" y="-756.25" font-family="Helvetica,sans-Serif" font-size="10.00">(?string $title=null, ?array</text>
<text text-anchor="start" x="238" y="-745" font-family="Helvetica,sans-Serif" font-size="10.00"> $menus=null)</text>
<text text-anchor="start" x="228" y="-730.5" font-family="Helvetica,sans-Serif" font-size="10.00">+</text>
<text text-anchor="start" x="238" y="-730.5" font-family="Helvetica,sans-Serif" font-size="10.00">static showMassiveActions</text>
<text text-anchor="start" x="238" y="-719.25" font-family="Helvetica,sans-Serif" font-size="10.00">SubForm(MassiveAction $ma)</text>
<text text-anchor="start" x="228" y="-704.5" font-family="Helvetica,sans-Serif" font-size="10.00">+</text>
<text text-anchor="start" x="238" y="-704.5" font-family="Helvetica,sans-Serif" font-size="10.00">static getIcon()</text>
<polygon fill="#666666" stroke="#666666" points="224,-1171 224,-1171 374,-1171 374,-1171 224,-1171"/>
<polygon fill="#666666" stroke="#666666" points="224,-1066 224,-1066 236,-1066 236,-1066 224,-1066"/>
<polygon fill="#666666" stroke="#666666" points="236,-1066 236,-1066 374,-1066 374,-1066 236,-1066"/>
<polygon fill="none" stroke="#666666" points="224,-699 224,-1188 374,-1188 374,-699 224,-699"/>
</a>
</g>
</g>
<!-- Node3&#45;&gt;Node2 -->
<g id="edge22_Node000002_Node000003" class="edge">
<title>Node3&#45;&gt;Node2</title>
<g id="a_edge22_Node000002_Node000003"><a xlink:title=" ">
<path fill="none" stroke="#63b8ff" d="M338.2,-688.17C339.56,-679.36 340.92,-670.53 342.28,-661.74"/>
<polygon fill="none" stroke="#63b8ff" points="334.78,-687.42 336.71,-697.84 341.7,-688.49 334.78,-687.42"/>
</a>
</g>
</g>
<!-- Node4 -->
<g id="Node000004" class="node">
<title>Node4</title>
<g id="a_Node000004"><a xlink:href="$class_common_d_b_t_m.html" xlink:title=" ">
<polygon fill="white" stroke="none" points="286.5,-2039.25 133.5,-2039.25 133.5,-1235.25 286.5,-1235.25 286.5,-2039.25"/>
<text text-anchor="start" x="175.88" y="-2025.75" font-family="Helvetica,sans-Serif" font-size="10.00">CommonDBTM</text>
<text text-anchor="start" x="137.5" y="-2010.75" font-family="Helvetica,sans-Serif" font-size="10.00">+</text>
<text text-anchor="start" x="147.5" y="-2010.75" font-family="Helvetica,sans-Serif" font-size="10.00">$fields</text>
<text text-anchor="start" x="137.5" y="-1995.75" font-family="Helvetica,sans-Serif" font-size="10.00">+</text>
<text text-anchor="start" x="147.5" y="-1995.75" font-family="Helvetica,sans-Serif" font-size="10.00">$input</text>
<text text-anchor="start" x="137.5" y="-1980.75" font-family="Helvetica,sans-Serif" font-size="10.00">+</text>
<text text-anchor="start" x="147.5" y="-1980.75" font-family="Helvetica,sans-Serif" font-size="10.00">$updates</text>
<text text-anchor="start" x="137.5" y="-1965.75" font-family="Helvetica,sans-Serif" font-size="10.00">+</text>
<text text-anchor="start" x="147.5" y="-1965.75" font-family="Helvetica,sans-Serif" font-size="10.00">$oldvalues</text>
<text text-anchor="start" x="137.5" y="-1950.75" font-family="Helvetica,sans-Serif" font-size="10.00">+</text>
<text text-anchor="start" x="147.5" y="-1950.75" font-family="Helvetica,sans-Serif" font-size="10.00">$dohistory</text>
<text text-anchor="start" x="137.5" y="-1935.75" font-family="Helvetica,sans-Serif" font-size="10.00">+</text>
<text text-anchor="start" x="147.5" y="-1935.75" font-family="Helvetica,sans-Serif" font-size="10.00">$history_blacklist</text>
<text text-anchor="start" x="137.5" y="-1920.75" font-family="Helvetica,sans-Serif" font-size="10.00">+</text>
<text text-anchor="start" x="147.5" y="-1920.75" font-family="Helvetica,sans-Serif" font-size="10.00">$auto_message_on_action</text>
<text text-anchor="start" x="137.5" y="-1905.75" font-family="Helvetica,sans-Serif" font-size="10.00">+</text>
<text text-anchor="start" x="147.5" y="-1905.75" font-family="Helvetica,sans-Serif" font-size="10.00">$no_form_page</text>
<text text-anchor="start" x="137.5" y="-1890.75" font-family="Helvetica,sans-Serif" font-size="10.00">+</text>
<text text-anchor="start" x="147.5" y="-1890.75" font-family="Helvetica,sans-Serif" font-size="10.00">$additional_fields</text>
<text text-anchor="start" x="147.5" y="-1879.5" font-family="Helvetica,sans-Serif" font-size="10.00">_for_dictionnary</text>
<text text-anchor="start" x="137.5" y="-1864.75" font-family="Helvetica,sans-Serif" font-size="10.00">+</text>
<text text-anchor="start" x="147.5" y="-1864.75" font-family="Helvetica,sans-Serif" font-size="10.00">$taborientation</text>
<text text-anchor="start" x="137.5" y="-1849.75" font-family="Helvetica,sans-Serif" font-size="10.00">+</text>
<text text-anchor="start" x="147.5" y="-1849.75" font-family="Helvetica,sans-Serif" font-size="10.00">$get_item_to_display_tab</text>
<text text-anchor="start" x="137.5" y="-1834.75" font-family="Helvetica,sans-Serif" font-size="10.00">+</text>
<text text-anchor="start" x="147.5" y="-1834.75" font-family="Helvetica,sans-Serif" font-size="10.00">$deduplicate_queued</text>
<text text-anchor="start" x="147.5" y="-1823.5" font-family="Helvetica,sans-Serif" font-size="10.00">_notifications</text>
<text text-anchor="start" x="137.5" y="-1808.75" font-family="Helvetica,sans-Serif" font-size="10.00">+</text>
<text text-anchor="start" x="147.5" y="-1808.75" font-family="Helvetica,sans-Serif" font-size="10.00">$right</text>
<text text-anchor="start" x="137.88" y="-1793.75" font-family="Helvetica,sans-Serif" font-size="10.00">#</text>
<text text-anchor="start" x="147.5" y="-1793.75" font-family="Helvetica,sans-Serif" font-size="10.00">$fkfield</text>
<text text-anchor="start" x="137.88" y="-1778.75" font-family="Helvetica,sans-Serif" font-size="10.00">#</text>
<text text-anchor="start" x="147.5" y="-1778.75" font-family="Helvetica,sans-Serif" font-size="10.00">$searchopt</text>
<text text-anchor="start" x="137.88" y="-1763.75" font-family="Helvetica,sans-Serif" font-size="10.00">#</text>
<text text-anchor="start" x="147.5" y="-1763.75" font-family="Helvetica,sans-Serif" font-size="10.00">$usenotepad</text>
<text text-anchor="start" x="137.5" y="-1748.75" font-family="Helvetica,sans-Serif" font-size="10.00">+</text>
<text text-anchor="start" x="147.5" y="-1748.75" font-family="Helvetica,sans-Serif" font-size="10.00">getFromResultSet($rs)</text>
<text text-anchor="start" x="137.5" y="-1733.75" font-family="Helvetica,sans-Serif" font-size="10.00">+</text>
<text text-anchor="start" x="147.5" y="-1733.75" font-family="Helvetica,sans-Serif" font-size="10.00">getID()</text>
<text text-anchor="start" x="137.5" y="-1718.75" font-family="Helvetica,sans-Serif" font-size="10.00">+</text>
<text text-anchor="start" x="147.5" y="-1718.75" font-family="Helvetica,sans-Serif" font-size="10.00">post_getFromDB()</text>
<text text-anchor="start" x="137.5" y="-1703.75" font-family="Helvetica,sans-Serif" font-size="10.00">+</text>
<text text-anchor="start" x="147.5" y="-1703.75" font-family="Helvetica,sans-Serif" font-size="10.00">showForm($ID, array</text>
<text text-anchor="start" x="147.5" y="-1692.5" font-family="Helvetica,sans-Serif" font-size="10.00"> $options=[])</text>
<text text-anchor="start" x="137.5" y="-1677.75" font-family="Helvetica,sans-Serif" font-size="10.00">+</text>
<text text-anchor="start" x="147.5" y="-1677.75" font-family="Helvetica,sans-Serif" font-size="10.00">getSNMPCredential()</text>
<text text-anchor="start" x="137.5" y="-1662.75" font-family="Helvetica,sans-Serif" font-size="10.00">+</text>
<text text-anchor="start" x="147.5" y="-1662.75" font-family="Helvetica,sans-Serif" font-size="10.00">getLockedFields()</text>
<text text-anchor="start" x="137.5" y="-1647.75" font-family="Helvetica,sans-Serif" font-size="10.00">+</text>
<text text-anchor="start" x="147.5" y="-1647.75" font-family="Helvetica,sans-Serif" font-size="10.00">post_getEmpty()</text>
<text text-anchor="start" x="137.5" y="-1632.75" font-family="Helvetica,sans-Serif" font-size="10.00">+</text>
<text text-anchor="start" x="147.5" y="-1632.75" font-family="Helvetica,sans-Serif" font-size="10.00">getLogTypeID()</text>
<text text-anchor="start" x="137.5" y="-1617.75" font-family="Helvetica,sans-Serif" font-size="10.00">+</text>
<text text-anchor="start" x="147.5" y="-1617.75" font-family="Helvetica,sans-Serif" font-size="10.00">post_deleteFromDB()</text>
<text text-anchor="start" x="137.5" y="-1602.75" font-family="Helvetica,sans-Serif" font-size="10.00">+</text>
<text text-anchor="start" x="147.5" y="-1602.75" font-family="Helvetica,sans-Serif" font-size="10.00">cleanDBonPurge()</text>
<text text-anchor="start" x="147.5" y="-1587.75" font-family="Helvetica,sans-Serif" font-size="10.00">et 87 de plus...</text>
<text text-anchor="start" x="137.5" y="-1572.75" font-family="Helvetica,sans-Serif" font-size="10.00">+</text>
<text text-anchor="start" x="147.5" y="-1572.75" font-family="Helvetica,sans-Serif" font-size="10.00">static getTable($classname</text>
<text text-anchor="start" x="147.5" y="-1561.5" font-family="Helvetica,sans-Serif" font-size="10.00">=null)</text>
<text text-anchor="start" x="137.5" y="-1546.75" font-family="Helvetica,sans-Serif" font-size="10.00">+</text>
<text text-anchor="start" x="147.5" y="-1546.75" font-family="Helvetica,sans-Serif" font-size="10.00">static forceTable(</text>
<text text-anchor="start" x="147.5" y="-1535.5" font-family="Helvetica,sans-Serif" font-size="10.00">$table)</text>
<text text-anchor="start" x="137.5" y="-1520.75" font-family="Helvetica,sans-Serif" font-size="10.00">+</text>
<text text-anchor="start" x="147.5" y="-1520.75" font-family="Helvetica,sans-Serif" font-size="10.00">static getForeignKeyField()</text>
<text text-anchor="start" x="137.5" y="-1505.75" font-family="Helvetica,sans-Serif" font-size="10.00">+</text>
<text text-anchor="start" x="147.5" y="-1505.75" font-family="Helvetica,sans-Serif" font-size="10.00">static getTableField</text>
<text text-anchor="start" x="147.5" y="-1494.5" font-family="Helvetica,sans-Serif" font-size="10.00">($field, $classname=null)</text>
<text text-anchor="start" x="137.5" y="-1479.75" font-family="Helvetica,sans-Serif" font-size="10.00">+</text>
<text text-anchor="start" x="147.5" y="-1479.75" font-family="Helvetica,sans-Serif" font-size="10.00">static getFromIter</text>
<text text-anchor="start" x="147.5" y="-1468.5" font-family="Helvetica,sans-Serif" font-size="10.00">(DBmysqlIterator $iter)</text>
<text text-anchor="start" x="137.5" y="-1453.75" font-family="Helvetica,sans-Serif" font-size="10.00">+</text>
<text text-anchor="start" x="147.5" y="-1453.75" font-family="Helvetica,sans-Serif" font-size="10.00">static unsetUndisclosedFields</text>
<text text-anchor="start" x="147.5" y="-1442.5" font-family="Helvetica,sans-Serif" font-size="10.00">(&amp;$fields)</text>
<text text-anchor="start" x="137.5" y="-1427.75" font-family="Helvetica,sans-Serif" font-size="10.00">+</text>
<text text-anchor="start" x="147.5" y="-1427.75" font-family="Helvetica,sans-Serif" font-size="10.00">static getIndexName()</text>
<text text-anchor="start" x="137.5" y="-1412.75" font-family="Helvetica,sans-Serif" font-size="10.00">+</text>
<text text-anchor="start" x="147.5" y="-1412.75" font-family="Helvetica,sans-Serif" font-size="10.00">static isNewID($ID)</text>
<text text-anchor="start" x="137.5" y="-1397.75" font-family="Helvetica,sans-Serif" font-size="10.00">+</text>
<text text-anchor="start" x="147.5" y="-1397.75" font-family="Helvetica,sans-Serif" font-size="10.00">static getNameField()</text>
<text text-anchor="start" x="137.5" y="-1382.75" font-family="Helvetica,sans-Serif" font-size="10.00">+</text>
<text text-anchor="start" x="147.5" y="-1382.75" font-family="Helvetica,sans-Serif" font-size="10.00">static getCompleteNameField()</text>
<text text-anchor="start" x="147.5" y="-1367.75" font-family="Helvetica,sans-Serif" font-size="10.00">et 26 de plus...</text>
<text text-anchor="start" x="137.88" y="-1352.75" font-family="Helvetica,sans-Serif" font-size="10.00">#</text>
<text text-anchor="start" x="147.5" y="-1352.75" font-family="Helvetica,sans-Serif" font-size="10.00">saveInput()</text>
<text text-anchor="start" x="137.88" y="-1337.75" font-family="Helvetica,sans-Serif" font-size="10.00">#</text>
<text text-anchor="start" x="147.5" y="-1337.75" font-family="Helvetica,sans-Serif" font-size="10.00">clearSavedInput()</text>
<text text-anchor="start" x="137.88" y="-1322.75" font-family="Helvetica,sans-Serif" font-size="10.00">#</text>
<text text-anchor="start" x="147.5" y="-1322.75" font-family="Helvetica,sans-Serif" font-size="10.00">restoreInput(array</text>
<text text-anchor="start" x="147.5" y="-1311.5" font-family="Helvetica,sans-Serif" font-size="10.00"> $default=[])</text>
<text text-anchor="start" x="137.88" y="-1296.75" font-family="Helvetica,sans-Serif" font-size="10.00">#</text>
<text text-anchor="start" x="147.5" y="-1296.75" font-family="Helvetica,sans-Serif" font-size="10.00">restoreSavedValues</text>
<text text-anchor="start" x="147.5" y="-1285.5" font-family="Helvetica,sans-Serif" font-size="10.00">(array $saved=[])</text>
<text text-anchor="start" x="137.88" y="-1270.75" font-family="Helvetica,sans-Serif" font-size="10.00">#</text>
<text text-anchor="start" x="147.5" y="-1270.75" font-family="Helvetica,sans-Serif" font-size="10.00">cleanLockedsOnAdd()</text>
<text text-anchor="start" x="137.88" y="-1255.75" font-family="Helvetica,sans-Serif" font-size="10.00">#</text>
<text text-anchor="start" x="147.5" y="-1255.75" font-family="Helvetica,sans-Serif" font-size="10.00">cleanLockeds()</text>
<text text-anchor="start" x="137.88" y="-1240.75" font-family="Helvetica,sans-Serif" font-size="10.00">#</text>
<text text-anchor="start" x="147.5" y="-1240.75" font-family="Helvetica,sans-Serif" font-size="10.00">computeFriendlyName()</text>
<polygon fill="#666666" stroke="#666666" points="133.5,-2022.25 133.5,-2022.25 286.5,-2022.25 286.5,-2022.25 133.5,-2022.25"/>
<polygon fill="#666666" stroke="#666666" points="133.5,-1760.25 133.5,-1760.25 145.5,-1760.25 145.5,-1760.25 133.5,-1760.25"/>
<polygon fill="#666666" stroke="#666666" points="145.5,-1760.25 145.5,-1760.25 286.5,-1760.25 286.5,-1760.25 145.5,-1760.25"/>
<polygon fill="none" stroke="#666666" points="133.5,-1235.25 133.5,-2039.25 286.5,-2039.25 286.5,-1235.25 133.5,-1235.25"/>
</a>
</g>
</g>
<!-- Node4&#45;&gt;Node3 -->
<g id="edge23_Node000003_Node000004" class="edge">
<title>Node4&#45;&gt;Node3</title>
<g id="a_edge23_Node000003_Node000004"><a xlink:title=" ">
<path fill="none" stroke="#63b8ff" d="M263.03,-1224.06C264.61,-1211.79 266.18,-1199.63 267.72,-1187.65"/>
<polygon fill="none" stroke="#63b8ff" points="259.58,-1223.49 261.77,-1233.86 266.52,-1224.39 259.58,-1223.49"/>
</a>
</g>
</g>
<!-- Node5 -->
<g id="Node000005" class="node">
<title>Node5</title>
<g id="a_Node000005"><a xlink:href="$class_common_g_l_p_i.html" xlink:title=" ">
<polygon fill="white" stroke="none" points="163.5,-2624.5 12.5,-2624.5 12.5,-2086.5 163.5,-2086.5 163.5,-2624.5"/>
<text text-anchor="start" x="56.88" y="-2611" font-family="Helvetica,sans-Serif" font-size="10.00">CommonGLPI</text>
<text text-anchor="start" x="16.5" y="-2596" font-family="Helvetica,sans-Serif" font-size="10.00">+</text>
<text text-anchor="start" x="26.5" y="-2596" font-family="Helvetica,sans-Serif" font-size="10.00">$showdebug</text>
<text text-anchor="start" x="16.5" y="-2581" font-family="Helvetica,sans-Serif" font-size="10.00">+</text>
<text text-anchor="start" x="26.5" y="-2581" font-family="Helvetica,sans-Serif" font-size="10.00">$taborientation</text>
<text text-anchor="start" x="16.5" y="-2566" font-family="Helvetica,sans-Serif" font-size="10.00">+</text>
<text text-anchor="start" x="26.5" y="-2566" font-family="Helvetica,sans-Serif" font-size="10.00">$get_item_to_display_tab</text>
<text text-anchor="start" x="16.88" y="-2551" font-family="Helvetica,sans-Serif" font-size="10.00">#</text>
<text text-anchor="start" x="26.5" y="-2551" font-family="Helvetica,sans-Serif" font-size="10.00">$type</text>
<text text-anchor="start" x="16.88" y="-2536" font-family="Helvetica,sans-Serif" font-size="10.00">#</text>
<text text-anchor="start" x="26.5" y="-2536" font-family="Helvetica,sans-Serif" font-size="10.00">$displaylist</text>
<text text-anchor="start" x="16.5" y="-2521" font-family="Helvetica,sans-Serif" font-size="10.00">+</text>
<text text-anchor="start" x="26.5" y="-2521" font-family="Helvetica,sans-Serif" font-size="10.00">__construct()</text>
<text text-anchor="start" x="16.5" y="-2506" font-family="Helvetica,sans-Serif" font-size="10.00">+</text>
<text text-anchor="start" x="26.5" y="-2506" font-family="Helvetica,sans-Serif" font-size="10.00">can($ID, $right, array</text>
<text text-anchor="start" x="26.5" y="-2494.75" font-family="Helvetica,sans-Serif" font-size="10.00"> &amp;$input=null)</text>
<text text-anchor="start" x="16.5" y="-2480" font-family="Helvetica,sans-Serif" font-size="10.00">+</text>
<text text-anchor="start" x="26.5" y="-2480" font-family="Helvetica,sans-Serif" font-size="10.00">defineTabs($options=[])</text>
<text text-anchor="start" x="16.5" y="-2465" font-family="Helvetica,sans-Serif" font-size="10.00">+</text>
<text text-anchor="start" x="26.5" y="-2465" font-family="Helvetica,sans-Serif" font-size="10.00">addStandardTab($itemtype,</text>
<text text-anchor="start" x="26.5" y="-2453.75" font-family="Helvetica,sans-Serif" font-size="10.00"> array &amp;$ong, array $options)</text>
<text text-anchor="start" x="16.5" y="-2439" font-family="Helvetica,sans-Serif" font-size="10.00">+</text>
<text text-anchor="start" x="26.5" y="-2439" font-family="Helvetica,sans-Serif" font-size="10.00">addDefaultFormTab</text>
<text text-anchor="start" x="26.5" y="-2427.75" font-family="Helvetica,sans-Serif" font-size="10.00">(array &amp;$ong)</text>
<text text-anchor="start" x="16.5" y="-2413" font-family="Helvetica,sans-Serif" font-size="10.00">+</text>
<text text-anchor="start" x="26.5" y="-2413" font-family="Helvetica,sans-Serif" font-size="10.00">getTabNameForItem</text>
<text text-anchor="start" x="26.5" y="-2401.75" font-family="Helvetica,sans-Serif" font-size="10.00">(CommonGLPI $item, </text>
<text text-anchor="start" x="26.5" y="-2390.5" font-family="Helvetica,sans-Serif" font-size="10.00">$withtemplate=0)</text>
<text text-anchor="start" x="16.5" y="-2376" font-family="Helvetica,sans-Serif" font-size="10.00">+</text>
<text text-anchor="start" x="26.5" y="-2376" font-family="Helvetica,sans-Serif" font-size="10.00">isNewItem()</text>
<text text-anchor="start" x="16.5" y="-2361" font-family="Helvetica,sans-Serif" font-size="10.00">+</text>
<text text-anchor="start" x="26.5" y="-2361" font-family="Helvetica,sans-Serif" font-size="10.00">showTabsContent($options=[])</text>
<text text-anchor="start" x="16.5" y="-2346" font-family="Helvetica,sans-Serif" font-size="10.00">+</text>
<text text-anchor="start" x="26.5" y="-2346" font-family="Helvetica,sans-Serif" font-size="10.00">getHeaderName()</text>
<text text-anchor="start" x="16.5" y="-2331" font-family="Helvetica,sans-Serif" font-size="10.00">+</text>
<text text-anchor="start" x="26.5" y="-2331" font-family="Helvetica,sans-Serif" font-size="10.00">display($options=[])</text>
<text text-anchor="start" x="16.5" y="-2316" font-family="Helvetica,sans-Serif" font-size="10.00">+</text>
<text text-anchor="start" x="26.5" y="-2316" font-family="Helvetica,sans-Serif" font-size="10.00">getErrorMessage($error,</text>
<text text-anchor="start" x="26.5" y="-2304.75" font-family="Helvetica,sans-Serif" font-size="10.00"> $object=&#39;&#39;)</text>
<text text-anchor="start" x="16.5" y="-2290" font-family="Helvetica,sans-Serif" font-size="10.00">+</text>
<text text-anchor="start" x="26.5" y="-2290" font-family="Helvetica,sans-Serif" font-size="10.00">static getTypeName</text>
<text text-anchor="start" x="26.5" y="-2278.75" font-family="Helvetica,sans-Serif" font-size="10.00">($nb=0)</text>
<text text-anchor="start" x="16.5" y="-2264" font-family="Helvetica,sans-Serif" font-size="10.00">+</text>
<text text-anchor="start" x="26.5" y="-2264" font-family="Helvetica,sans-Serif" font-size="10.00">static getFieldLabel()</text>
<text text-anchor="start" x="16.5" y="-2249" font-family="Helvetica,sans-Serif" font-size="10.00">+</text>
<text text-anchor="start" x="26.5" y="-2249" font-family="Helvetica,sans-Serif" font-size="10.00">static getType()</text>
<text text-anchor="start" x="16.5" y="-2234" font-family="Helvetica,sans-Serif" font-size="10.00">+</text>
<text text-anchor="start" x="26.5" y="-2234" font-family="Helvetica,sans-Serif" font-size="10.00">static canCreate()</text>
<text text-anchor="start" x="16.5" y="-2219" font-family="Helvetica,sans-Serif" font-size="10.00">+</text>
<text text-anchor="start" x="26.5" y="-2219" font-family="Helvetica,sans-Serif" font-size="10.00">static canView()</text>
<text text-anchor="start" x="16.5" y="-2204" font-family="Helvetica,sans-Serif" font-size="10.00">+</text>
<text text-anchor="start" x="26.5" y="-2204" font-family="Helvetica,sans-Serif" font-size="10.00">static canUpdate()</text>
<text text-anchor="start" x="16.5" y="-2189" font-family="Helvetica,sans-Serif" font-size="10.00">+</text>
<text text-anchor="start" x="26.5" y="-2189" font-family="Helvetica,sans-Serif" font-size="10.00">static canDelete()</text>
<text text-anchor="start" x="16.5" y="-2174" font-family="Helvetica,sans-Serif" font-size="10.00">+</text>
<text text-anchor="start" x="26.5" y="-2174" font-family="Helvetica,sans-Serif" font-size="10.00">static canPurge()</text>
<text text-anchor="start" x="16.5" y="-2159" font-family="Helvetica,sans-Serif" font-size="10.00">+</text>
<text text-anchor="start" x="26.5" y="-2159" font-family="Helvetica,sans-Serif" font-size="10.00">static registerStandardTab</text>
<text text-anchor="start" x="26.5" y="-2147.75" font-family="Helvetica,sans-Serif" font-size="10.00">($typeform, $typetab)</text>
<text text-anchor="start" x="16.5" y="-2133" font-family="Helvetica,sans-Serif" font-size="10.00">+</text>
<text text-anchor="start" x="26.5" y="-2133" font-family="Helvetica,sans-Serif" font-size="10.00">static getOtherTabs</text>
<text text-anchor="start" x="26.5" y="-2121.75" font-family="Helvetica,sans-Serif" font-size="10.00">($typeform)</text>
<text text-anchor="start" x="26.5" y="-2107" font-family="Helvetica,sans-Serif" font-size="10.00">et 17 de plus...</text>
<text text-anchor="start" x="16.88" y="-2092" font-family="Helvetica,sans-Serif" font-size="10.00">#</text>
<text text-anchor="start" x="26.5" y="-2092" font-family="Helvetica,sans-Serif" font-size="10.00">getFormHeaderToolbar()</text>
<polygon fill="#666666" stroke="#666666" points="12.5,-2607.5 12.5,-2607.5 163.5,-2607.5 163.5,-2607.5 12.5,-2607.5"/>
<polygon fill="#666666" stroke="#666666" points="12.5,-2532.5 12.5,-2532.5 24.5,-2532.5 24.5,-2532.5 12.5,-2532.5"/>
<polygon fill="#666666" stroke="#666666" points="24.5,-2532.5 24.5,-2532.5 163.5,-2532.5 163.5,-2532.5 24.5,-2532.5"/>
<polygon fill="none" stroke="#666666" points="12.5,-2086.5 12.5,-2624.5 163.5,-2624.5 163.5,-2086.5 12.5,-2086.5"/>
</a>
</g>
</g>
<!-- Node5&#45;&gt;Node4 -->
<g id="edge24_Node000004_Node000005" class="edge">
<title>Node5&#45;&gt;Node4</title>
<g id="a_edge24_Node000004_Node000005"><a xlink:title=" ">
<path fill="none" stroke="#63b8ff" d="M135.52,-2075.52C137.57,-2063.5 139.64,-2051.36 141.72,-2039.14"/>
<polygon fill="none" stroke="#63b8ff" points="132.13,-2074.58 133.9,-2085.03 139.03,-2075.76 132.13,-2074.58"/>
</a>
</g>
</g>
<!-- Node6 -->
<g id="Node000006" class="node">
<title>Node6</title>
<g id="a_Node000006"><a xlink:href="$interface_common_g_l_p_i_interface.html" xlink:title=" ">
<polygon fill="white" stroke="none" points="110,-2754.5 0,-2754.5 0,-2705.5 110,-2705.5 110,-2754.5"/>
<text text-anchor="start" x="4.75" y="-2741" font-family="Helvetica,sans-Serif" font-size="10.00">CommonGLPIInterface</text>
<text text-anchor="start" x="53.5" y="-2726" font-family="Helvetica,sans-Serif" font-size="10.00"> </text>
<text text-anchor="start" x="12.5" y="-2711" font-family="Helvetica,sans-Serif" font-size="10.00">+</text>
<text text-anchor="start" x="31" y="-2711" font-family="Helvetica,sans-Serif" font-size="10.00">__construct()</text>
<polygon fill="#666666" stroke="#666666" points="0,-2737.5 0,-2737.5 110,-2737.5 110,-2737.5 0,-2737.5"/>
<polygon fill="#666666" stroke="#666666" points="0,-2722.5 0,-2722.5 110,-2722.5 110,-2722.5 0,-2722.5"/>
<polygon fill="none" stroke="#666666" points="0,-2705.5 0,-2754.5 110,-2754.5 110,-2705.5 0,-2705.5"/>
</a>
</g>
</g>
<!-- Node6&#45;&gt;Node5 -->
<g id="edge25_Node000005_Node000006" class="edge">
<title>Node6&#45;&gt;Node5</title>
<g id="a_edge25_Node000005_Node000006"><a xlink:title=" ">
<path fill="none" stroke="#63b8ff" d="M58.08,-2694.28C59.7,-2675.95 61.86,-2651.61 64.27,-2624.37"/>
<polygon fill="none" stroke="#63b8ff" points="54.59,-2693.92 57.2,-2704.19 61.57,-2694.54 54.59,-2693.92"/>
</a>
</g>
</g>
<!-- Node7 -->
<g id="Node000007" class="node">
<title>Node7</title>
<g id="a_Node000007"><a xlink:title=" ">
<polygon fill="white" stroke="none" points="347,-2754.5 313,-2754.5 313,-2705.5 347,-2705.5 347,-2754.5"/>
<text text-anchor="start" x="318" y="-2741" font-family="Helvetica,sans-Serif" font-size="10.00">static</text>
<text text-anchor="start" x="328.5" y="-2726" font-family="Helvetica,sans-Serif" font-size="10.00"> </text>
<text text-anchor="start" x="328.5" y="-2711" font-family="Helvetica,sans-Serif" font-size="10.00"> </text>
<polygon fill="#666666" stroke="#666666" points="313,-2737.5 313,-2737.5 347,-2737.5 347,-2737.5 313,-2737.5"/>
<polygon fill="#666666" stroke="#666666" points="313,-2722.5 313,-2722.5 347,-2722.5 347,-2722.5 313,-2722.5"/>
<polygon fill="none" stroke="#666666" points="313,-2705.5 313,-2754.5 347,-2754.5 347,-2705.5 313,-2705.5"/>
</a>
</g>
</g>
<!-- Node7&#45;&gt;Node1 -->
<g id="edge30_Node000001_Node000007" class="edge">
<title>Node7&#45;&gt;Node1</title>
<g id="a_edge30_Node000001_Node000007"><a xlink:title=" ">
<path fill="none" stroke="#63b8ff" d="M346.96,-2709.34C352.39,-2702.63 358.22,-2694.94 363,-2687.5 379.97,-2661.08 382.76,-2653.42 395,-2624.5 444.08,-2508.52 487,-2482.43 487,-2356.5 487,-2356.5 487,-2356.5 487,-421.5 487,-315.16 488.61,-287.32 468,-183 466.4,-174.91 464.4,-166.57 462.17,-158.29"/>
<polygon fill="none" stroke="#63b8ff" points="462.15,-158.21 456.66,-153.52 458.88,-146.66 464.36,-151.35 462.15,-158.21"/>
</a>
</g>
<text text-anchor="middle" x="531.25" y="-1207.75" font-family="Helvetica,sans-Serif" font-size="10.00" fill="grey"> #$forward_entity_to</text>
</g>
<!-- Node7&#45;&gt;Node2 -->
<g id="edge29_Node000002_Node000007" class="edge">
<title>Node7&#45;&gt;Node2</title>
<g id="a_edge29_Node000002_Node000007"><a xlink:title=" ">
<path fill="none" stroke="#63b8ff" d="M337.71,-2705.77C356.28,-2647.63 402,-2490.87 402,-2356.5 402,-2356.5 402,-2356.5 402,-942.5 402,-855.21 398.71,-759.74 394.62,-674.76"/>
<polygon fill="none" stroke="#63b8ff" points="394.62,-674.64 390.33,-668.84 394.03,-662.65 398.32,-668.45 394.62,-674.64"/>
</a>
</g>
<text text-anchor="middle" x="430.5" y="-1633.38" font-family="Helvetica,sans-Serif" font-size="10.00" fill="grey"> +$rightname</text>
</g>
<!-- Node7&#45;&gt;Node3 -->
<g id="edge28_Node000003_Node000007" class="edge">
<title>Node7&#45;&gt;Node3</title>
<g id="a_edge28_Node000003_Node000007"><a xlink:title=" ">
<path fill="none" stroke="#63b8ff" d="M329.6,-2705.78C326.89,-2550.1 311.26,-1650.42 303.45,-1200.52"/>
<polygon fill="none" stroke="#63b8ff" points="303.45,-1200.58 299.34,-1194.65 303.24,-1188.58 307.34,-1194.51 303.45,-1200.58"/>
</a>
</g>
<text text-anchor="middle" x="346.5" y="-2059" font-family="Helvetica,sans-Serif" font-size="10.00" fill="grey"> +$rightname</text>
</g>
<!-- Node7&#45;&gt;Node4 -->
<g id="edge27_Node000004_Node000007" class="edge">
<title>Node7&#45;&gt;Node4</title>
<g id="a_edge27_Node000004_Node000007"><a xlink:title=" ">
<path fill="none" stroke="#63b8ff" d="M313.14,-2718.71C288.15,-2702.35 242.25,-2667.8 223.75,-2624.5 180.43,-2523.13 177.21,-2274.26 184.71,-2051.9"/>
<polygon fill="none" stroke="#63b8ff" points="184.71,-2051.87 180.92,-2045.74 185.12,-2039.88 188.91,-2046.02 184.71,-2051.87"/>
</a>
</g>
<text text-anchor="start" x="224" y="-2396.62" font-family="Helvetica,sans-Serif" font-size="10.00" fill="grey"> #$foreign_key_fields</text>
<text text-anchor="middle" x="270.12" y="-2385.38" font-family="Helvetica,sans-Serif" font-size="10.00" fill="grey">_of</text>
<text text-anchor="start" x="224" y="-2374.12" font-family="Helvetica,sans-Serif" font-size="10.00" fill="grey">#$forward_entity</text>
<text text-anchor="middle" x="270.12" y="-2362.88" font-family="Helvetica,sans-Serif" font-size="10.00" fill="grey">_to</text>
<text text-anchor="middle" x="270.12" y="-2351.62" font-family="Helvetica,sans-Serif" font-size="10.00" fill="grey">#$notable</text>
<text text-anchor="start" x="224" y="-2340.38" font-family="Helvetica,sans-Serif" font-size="10.00" fill="grey">#$plugins_forward</text>
<text text-anchor="middle" x="270.12" y="-2329.12" font-family="Helvetica,sans-Serif" font-size="10.00" fill="grey">_entity</text>
<text text-anchor="middle" x="270.12" y="-2317.88" font-family="Helvetica,sans-Serif" font-size="10.00" fill="grey">#$tables_of</text>
<text text-anchor="middle" x="270.12" y="-2306.62" font-family="Helvetica,sans-Serif" font-size="10.00" fill="grey">+$undisclosedFields</text>
</g>
<!-- Node7&#45;&gt;Node5 -->
<g id="edge26_Node000005_Node000007" class="edge">
<title>Node7&#45;&gt;Node5</title>
<g id="a_edge26_Node000005_Node000007"><a xlink:title=" ">
<path fill="none" stroke="#63b8ff" d="M313.29,-2728.79C263.5,-2727.76 117.75,-2721.83 88.75,-2687.5 79.99,-2677.13 74.44,-2659.31 71.21,-2637.15"/>
<polygon fill="none" stroke="#63b8ff" points="71.22,-2637.21 66.52,-2631.74 69.76,-2625.3 74.46,-2630.77 71.22,-2637.21"/>
</a>
</g>
<text text-anchor="middle" x="142.62" y="-2678" font-family="Helvetica,sans-Serif" font-size="10.00" fill="grey"> #$othertabs</text>
<text text-anchor="start" x="89" y="-2666.75" font-family="Helvetica,sans-Serif" font-size="10.00" fill="grey">#$showTitleInNavigation</text>
<text text-anchor="middle" x="142.62" y="-2655.5" font-family="Helvetica,sans-Serif" font-size="10.00" fill="grey">Header</text>
<text text-anchor="middle" x="142.62" y="-2644.25" font-family="Helvetica,sans-Serif" font-size="10.00" fill="grey">+$rightname</text>
</g>
</g>
</svg>
