<?xml version="1.0" encoding="UTF-8" standalone="no"?>
<!DOCTYPE svg PUBLIC "-//W3C//DTD SVG 1.1//EN"
 "http://www.w3.org/Graphics/SVG/1.1/DTD/svg11.dtd">
<!-- Generated by graphviz version 10.0.1 (20240210.2158)
 -->
<!-- Title: showSpecificCriteriasForPreview Pages: 1 -->
<svg width="437pt" height="76pt"
 viewBox="0.00 0.00 437.00 75.88" xmlns="http://www.w3.org/2000/svg" xmlns:xlink="http://www.w3.org/1999/xlink">
<g id="graph0" class="graph" transform="scale(1 1) rotate(0) translate(4 71.88)">
<title>showSpecificCriteriasForPreview</title>
<!-- Node1 -->
<g id="Node000001" class="node">
<title>Node1</title>
<g id="a_Node000001"><a xlink:title=" ">
<polygon fill="#999999" stroke="#666666" points="125.5,-51.5 0,-51.5 0,-21 125.5,-21 125.5,-51.5"/>
<text text-anchor="start" x="8" y="-38" font-family="Helvetica,sans-Serif" font-size="10.00">showSpecificCriteriasFor</text>
<text text-anchor="middle" x="62.75" y="-26.75" font-family="Helvetica,sans-Serif" font-size="10.00">Preview</text>
</a>
</g>
</g>
<!-- Node2 -->
<g id="Node000002" class="node">
<title>Node2</title>
<g id="a_Node000002"><a xlink:href="$class_rule_dictionnary_software.html#af5e5c4ed7fd27b8d801633f34a0d5bc1" xlink:title=" ">
<polygon fill="white" stroke="#666666" points="257.75,-67.88 195.25,-67.88 195.25,-48.62 257.75,-48.62 257.75,-67.88"/>
<text text-anchor="middle" x="226.5" y="-54.38" font-family="Helvetica,sans-Serif" font-size="10.00">getActions</text>
</a>
</g>
</g>
<!-- Node1&#45;&gt;Node2 -->
<g id="edge7_Node000001_Node000002" class="edge">
<title>Node1&#45;&gt;Node2</title>
<g id="a_edge7_Node000001_Node000002"><a xlink:title=" ">
<path fill="none" stroke="#63b8ff" d="M125.82,-44.69C145.17,-47.32 166.04,-50.16 183.66,-52.56"/>
<polygon fill="#63b8ff" stroke="#63b8ff" points="183.11,-56.02 193.49,-53.9 184.06,-49.08 183.11,-56.02"/>
</a>
</g>
</g>
<!-- Node3 -->
<g id="Node000003" class="node">
<title>Node3</title>
<g id="a_Node000003"><a xlink:href="$class_rule.html#a03907e300723f83f8e5b1bc60ab7d76e" xlink:title=" ">
<polygon fill="white" stroke="#666666" points="291.5,-30.5 161.5,-30.5 161.5,0 291.5,0 291.5,-30.5"/>
<text text-anchor="start" x="169.5" y="-17" font-family="Helvetica,sans-Serif" font-size="10.00">Rule\getRuleWithCriterias</text>
<text text-anchor="middle" x="226.5" y="-5.75" font-family="Helvetica,sans-Serif" font-size="10.00">AndActions</text>
</a>
</g>
</g>
<!-- Node1&#45;&gt;Node3 -->
<g id="edge8_Node000001_Node000003" class="edge">
<title>Node1&#45;&gt;Node3</title>
<g id="a_edge8_Node000001_Node000003"><a xlink:title=" ">
<path fill="none" stroke="#63b8ff" d="M125.82,-28.19C133.7,-27.17 141.82,-26.11 149.87,-25.07"/>
<polygon fill="#63b8ff" stroke="#63b8ff" points="150.21,-28.55 159.68,-23.8 149.31,-21.61 150.21,-28.55"/>
</a>
</g>
</g>
<!-- Node4 -->
<g id="Node000004" class="node">
<title>Node4</title>
<g id="a_Node000004"><a xlink:href="$db_8function_8php.html#a5bb7668a0ab5705035e0608178fabcba" xlink:title=" ">
<polygon fill="white" stroke="#666666" points="429,-24.88 327.5,-24.88 327.5,-5.63 429,-5.63 429,-24.88"/>
<text text-anchor="middle" x="378.25" y="-11.38" font-family="Helvetica,sans-Serif" font-size="10.00">getItemForItemtype</text>
</a>
</g>
</g>
<!-- Node3&#45;&gt;Node4 -->
<g id="edge9_Node000003_Node000004" class="edge">
<title>Node3&#45;&gt;Node4</title>
<g id="a_edge9_Node000003_Node000004"><a xlink:title=" ">
<path fill="none" stroke="#63b8ff" d="M291.88,-15.25C299.87,-15.25 308.02,-15.25 315.96,-15.25"/>
<polygon fill="#63b8ff" stroke="#63b8ff" points="315.88,-18.75 325.88,-15.25 315.88,-11.75 315.88,-18.75"/>
</a>
</g>
</g>
</g>
</svg>
