<?xml version="1.0" encoding="UTF-8" standalone="no"?>
<!DOCTYPE svg PUBLIC "-//W3C//DTD SVG 1.1//EN"
 "http://www.w3.org/Graphics/SVG/1.1/DTD/svg11.dtd">
<!-- Generated by graphviz version 10.0.1 (20240210.2158)
 -->
<!-- Title: formatArray Pages: 1 -->
<svg width="352pt" height="101pt"
 viewBox="0.00 0.00 352.25 101.25" xmlns="http://www.w3.org/2000/svg" xmlns:xlink="http://www.w3.org/1999/xlink">
<g id="graph0" class="graph" transform="scale(1 1) rotate(0) translate(4 97.25)">
<title>formatArray</title>
<!-- Node1 -->
<g id="Node000001" class="node">
<title>Node1</title>
<g id="a_Node000001"><a xlink:title=" ">
<polygon fill="#999999" stroke="#666666" points="67,-56.25 0,-56.25 0,-37 67,-37 67,-56.25"/>
<text text-anchor="middle" x="33.5" y="-42.75" font-family="Helvetica,sans-Serif" font-size="10.00">formatArray</text>
</a>
</g>
</g>
<!-- Node1&#45;&gt;Node1 -->
<g id="edge17_Node000001_Node000001" class="edge">
<title>Node1&#45;&gt;Node1</title>
<g id="a_edge17_Node000001_Node000001"><a xlink:title=" ">
<path fill="none" stroke="#63b8ff" d="M15.79,-56.54C7.71,-65.15 13.61,-74.25 33.5,-74.25 44.37,-74.25 51.07,-71.53 53.58,-67.65"/>
<polygon fill="#63b8ff" stroke="#63b8ff" points="57.03,-67.07 51.53,-58.02 50.19,-68.53 57.03,-67.07"/>
</a>
</g>
</g>
<!-- Node2 -->
<g id="Node000002" class="node">
<title>Node2</title>
<g id="a_Node000002"><a xlink:href="$class_monolog_1_1_formatter_1_1_mongo_d_b_formatter.html#a7d4d38da770760aaa85c497dd6ccacb6" xlink:title=" ">
<polygon fill="white" stroke="#666666" points="179,-93.25 114.25,-93.25 114.25,-74 179,-74 179,-93.25"/>
<text text-anchor="middle" x="146.62" y="-79.75" font-family="Helvetica,sans-Serif" font-size="10.00">formatDate</text>
</a>
</g>
</g>
<!-- Node1&#45;&gt;Node2 -->
<g id="edge18_Node000001_Node000002" class="edge">
<title>Node1&#45;&gt;Node2</title>
<g id="a_edge18_Node000001_Node000002"><a xlink:title=" ">
<path fill="none" stroke="#63b8ff" d="M64.87,-56.74C77.12,-60.81 91.44,-65.58 104.59,-69.96"/>
<polygon fill="#63b8ff" stroke="#63b8ff" points="103.27,-73.21 113.86,-73.05 105.48,-66.57 103.27,-73.21"/>
</a>
</g>
</g>
<!-- Node3 -->
<g id="Node000003" class="node">
<title>Node3</title>
<g id="a_Node000003"><a xlink:href="$class_monolog_1_1_formatter_1_1_mongo_d_b_formatter.html#a6d00fe4257525d1aac507e395e43fd12" xlink:title=" ">
<polygon fill="white" stroke="#666666" points="190.25,-56.25 103,-56.25 103,-37 190.25,-37 190.25,-56.25"/>
<text text-anchor="middle" x="146.62" y="-42.75" font-family="Helvetica,sans-Serif" font-size="10.00">formatException</text>
</a>
</g>
</g>
<!-- Node1&#45;&gt;Node3 -->
<g id="edge19_Node000001_Node000003" class="edge">
<title>Node1&#45;&gt;Node3</title>
<g id="a_edge19_Node000001_Node000003"><a xlink:title=" ">
<path fill="none" stroke="#63b8ff" d="M67.24,-40.41C74.9,-40.03 83.26,-39.85 91.57,-39.88"/>
<polygon fill="#63b8ff" stroke="#63b8ff" points="91.25,-43.37 101.3,-40.01 91.35,-36.37 91.25,-43.37"/>
</a>
</g>
</g>
<!-- Node5 -->
<g id="Node000005" class="node">
<title>Node5</title>
<g id="a_Node000005"><a xlink:href="$class_monolog_1_1_formatter_1_1_mongo_d_b_formatter.html#a49827a2cb402d33decb3da2f86f0202d" xlink:title=" ">
<polygon fill="white" stroke="#666666" points="182.75,-19.25 110.5,-19.25 110.5,0 182.75,0 182.75,-19.25"/>
<text text-anchor="middle" x="146.62" y="-5.75" font-family="Helvetica,sans-Serif" font-size="10.00">formatObject</text>
</a>
</g>
</g>
<!-- Node1&#45;&gt;Node5 -->
<g id="edge22_Node000001_Node000005" class="edge">
<title>Node1&#45;&gt;Node5</title>
<g id="a_edge22_Node000001_Node000005"><a xlink:title=" ">
<path fill="none" stroke="#63b8ff" d="M49.95,-36.64C62.73,-30.85 81.57,-23.97 99.16,-18.43"/>
<polygon fill="#63b8ff" stroke="#63b8ff" points="100.17,-21.78 108.73,-15.53 98.14,-15.08 100.17,-21.78"/>
</a>
</g>
</g>
<!-- Node3&#45;&gt;Node1 -->
<g id="edge20_Node000003_Node000001" class="edge">
<title>Node3&#45;&gt;Node1</title>
<g id="a_edge20_Node000003_Node000001"><a xlink:title=" ">
<path fill="none" stroke="#63b8ff" d="M102.81,-53.21C94.88,-53.42 86.58,-53.43 78.6,-53.25"/>
<polygon fill="#63b8ff" stroke="#63b8ff" points="78.87,-49.75 68.75,-52.89 78.62,-56.75 78.87,-49.75"/>
</a>
</g>
</g>
<!-- Node4 -->
<g id="Node000004" class="node">
<title>Node4</title>
<g id="a_Node000004"><a xlink:href="$class_monolog_1_1_utils.html#ab18b88929d1e210e006940c48af10743" xlink:title=" ">
<polygon fill="white" stroke="#666666" points="344.25,-37.25 226.25,-37.25 226.25,-18 344.25,-18 344.25,-37.25"/>
<text text-anchor="middle" x="285.25" y="-23.75" font-family="Helvetica,sans-Serif" font-size="10.00">Monolog\Utils\getClass</text>
</a>
</g>
</g>
<!-- Node3&#45;&gt;Node4 -->
<g id="edge21_Node000003_Node000004" class="edge">
<title>Node3&#45;&gt;Node4</title>
<g id="a_edge21_Node000003_Node000004"><a xlink:title=" ">
<path fill="none" stroke="#63b8ff" d="M190.48,-40.67C198.23,-39.59 206.48,-38.44 214.76,-37.29"/>
<polygon fill="#63b8ff" stroke="#63b8ff" points="215.1,-40.77 224.52,-35.93 214.14,-33.84 215.1,-40.77"/>
</a>
</g>
</g>
<!-- Node5&#45;&gt;Node1 -->
<g id="edge23_Node000005_Node000001" class="edge">
<title>Node5&#45;&gt;Node1</title>
<g id="a_edge23_Node000005_Node000001"><a xlink:title=" ">
<path fill="none" stroke="#63b8ff" d="M130.07,-19.66C116.59,-25.76 96.4,-33.06 78.06,-38.73"/>
<polygon fill="#63b8ff" stroke="#63b8ff" points="77.28,-35.31 68.69,-41.51 79.27,-42.02 77.28,-35.31"/>
</a>
</g>
</g>
<!-- Node5&#45;&gt;Node4 -->
<g id="edge24_Node000005_Node000004" class="edge">
<title>Node5&#45;&gt;Node4</title>
<g id="a_edge24_Node000005_Node000004"><a xlink:title=" ">
<path fill="none" stroke="#63b8ff" d="M183.16,-14.31C192.85,-15.58 203.68,-17.01 214.56,-18.44"/>
<polygon fill="#63b8ff" stroke="#63b8ff" points="214,-21.9 224.37,-19.74 214.91,-14.96 214,-21.9"/>
</a>
</g>
</g>
</g>
</svg>
