<?xml version="1.0" encoding="UTF-8" standalone="no"?>
<!DOCTYPE svg PUBLIC "-//W3C//DTD SVG 1.1//EN"
 "http://www.w3.org/Graphics/SVG/1.1/DTD/svg11.dtd">
<!-- Generated by graphviz version 10.0.1 (20240210.2158)
 -->
<!-- Title: isMaildir Pages: 1 -->
<svg width="581pt" height="97pt"
 viewBox="0.00 0.00 580.50 96.88" xmlns="http://www.w3.org/2000/svg" xmlns:xlink="http://www.w3.org/1999/xlink">
<g id="graph0" class="graph" transform="scale(1 1) rotate(0) translate(4 92.88)">
<title>isMaildir</title>
<!-- Node1 -->
<g id="Node000001" class="node">
<title>Node1</title>
<g id="a_Node000001"><a xlink:title=" ">
<polygon fill="#999999" stroke="#666666" points="572.5,-66.88 520.5,-66.88 520.5,-47.62 572.5,-47.62 572.5,-66.88"/>
<text text-anchor="middle" x="546.5" y="-53.38" font-family="Helvetica,sans-Serif" font-size="10.00">isMaildir</text>
</a>
</g>
</g>
<!-- Node2 -->
<g id="Node000002" class="node">
<title>Node2</title>
<g id="a_Node000002"><a xlink:href="$class_laminas_1_1_mail_1_1_storage_1_1_maildir.html#a9162320adff1a1a4afd7f2372f753a3e" xlink:title=" ">
<polygon fill="white" stroke="#666666" points="444.38,-88.88 377.38,-88.88 377.38,-69.62 444.38,-69.62 444.38,-88.88"/>
<text text-anchor="middle" x="410.88" y="-75.38" font-family="Helvetica,sans-Serif" font-size="10.00">__construct</text>
</a>
</g>
</g>
<!-- Node1&#45;&gt;Node2 -->
<g id="edge11_Node000001_Node000002" class="edge">
<title>Node1&#45;&gt;Node2</title>
<g id="a_edge11_Node000001_Node000002"><a xlink:title=" ">
<path fill="none" stroke="#63b8ff" d="M508.86,-63.28C488.84,-66.58 464.24,-70.63 444.82,-73.83"/>
<polygon fill="#63b8ff" stroke="#63b8ff" points="509.26,-66.76 518.56,-61.69 508.12,-59.86 509.26,-66.76"/>
</a>
</g>
</g>
<!-- Node3 -->
<g id="Node000003" class="node">
<title>Node3</title>
<g id="a_Node000003"><a xlink:href="$class_laminas_1_1_mail_1_1_storage_1_1_folder_1_1_maildir.html#a4fcf582543cf465e5ab7f9d95876f0cd" xlink:title=" ">
<polygon fill="white" stroke="#666666" points="484.5,-51.5 337.25,-51.5 337.25,-21 484.5,-21 484.5,-51.5"/>
<text text-anchor="start" x="345.25" y="-38" font-family="Helvetica,sans-Serif" font-size="10.00">Laminas\Mail\Storage</text>
<text text-anchor="middle" x="410.88" y="-26.75" font-family="Helvetica,sans-Serif" font-size="10.00">\Folder\Maildir\buildFolderTree</text>
</a>
</g>
</g>
<!-- Node1&#45;&gt;Node3 -->
<g id="edge12_Node000001_Node000003" class="edge">
<title>Node1&#45;&gt;Node3</title>
<g id="a_edge12_Node000001_Node000003"><a xlink:title=" ">
<path fill="none" stroke="#63b8ff" d="M508.83,-51.49C501.3,-50.3 493.13,-49.02 484.83,-47.72"/>
<polygon fill="#63b8ff" stroke="#63b8ff" points="508.13,-54.92 518.56,-53.02 509.22,-48.01 508.13,-54.92"/>
</a>
</g>
</g>
<!-- Node4 -->
<g id="Node000004" class="node">
<title>Node4</title>
<g id="a_Node000004"><a xlink:href="$class_laminas_1_1_mail_1_1_storage_1_1_folder_1_1_maildir.html#a9162320adff1a1a4afd7f2372f753a3e" xlink:title=" ">
<polygon fill="white" stroke="#666666" points="131.5,-51.5 0,-51.5 0,-21 131.5,-21 131.5,-51.5"/>
<text text-anchor="start" x="8" y="-38" font-family="Helvetica,sans-Serif" font-size="10.00">Laminas\Mail\Storage</text>
<text text-anchor="middle" x="65.75" y="-26.75" font-family="Helvetica,sans-Serif" font-size="10.00">\Folder\Maildir\__construct</text>
</a>
</g>
</g>
<!-- Node3&#45;&gt;Node4 -->
<g id="edge13_Node000003_Node000004" class="edge">
<title>Node3&#45;&gt;Node4</title>
<g id="a_edge13_Node000003_Node000004"><a xlink:title=" ">
<path fill="none" stroke="#63b8ff" d="M325.35,-38.81C317.21,-38.99 309.07,-39.14 301.25,-39.25 241.81,-40.07 226.94,-40.13 167.5,-39.25 155.95,-39.08 143.66,-38.8 131.78,-38.47"/>
<polygon fill="#63b8ff" stroke="#63b8ff" points="325.41,-42.31 335.33,-38.58 325.25,-35.31 325.41,-42.31"/>
</a>
</g>
</g>
<!-- Node5 -->
<g id="Node000005" class="node">
<title>Node5</title>
<g id="a_Node000005"><a xlink:href="$class_laminas_1_1_mail_1_1_storage_1_1_folder_1_1_maildir.html#a186a22359a4cb080fe1562b44bbad0fb" xlink:title=" ">
<polygon fill="white" stroke="#666666" points="301.25,-30.5 167.5,-30.5 167.5,0 301.25,0 301.25,-30.5"/>
<text text-anchor="start" x="175.5" y="-17" font-family="Helvetica,sans-Serif" font-size="10.00">Laminas\Mail\Storage</text>
<text text-anchor="middle" x="234.38" y="-5.75" font-family="Helvetica,sans-Serif" font-size="10.00">\Folder\Maildir\selectFolder</text>
</a>
</g>
</g>
<!-- Node3&#45;&gt;Node5 -->
<g id="edge14_Node000003_Node000005" class="edge">
<title>Node3&#45;&gt;Node5</title>
<g id="a_edge14_Node000003_Node000005"><a xlink:title=" ">
<path fill="none" stroke="#63b8ff" d="M325.58,-26.11C317.56,-25.14 309.5,-24.17 301.68,-23.23"/>
<polygon fill="#63b8ff" stroke="#63b8ff" points="325.03,-29.56 335.38,-27.28 325.87,-22.62 325.03,-29.56"/>
</a>
</g>
</g>
<!-- Node5&#45;&gt;Node4 -->
<g id="edge15_Node000005_Node000004" class="edge">
<title>Node5&#45;&gt;Node4</title>
<g id="a_edge15_Node000005_Node000004"><a xlink:title=" ">
<path fill="none" stroke="#63b8ff" d="M155.77,-25.03C147.74,-26.04 139.64,-27.06 131.77,-28.06"/>
<polygon fill="#63b8ff" stroke="#63b8ff" points="156.06,-28.52 165.54,-23.8 155.18,-21.58 156.06,-28.52"/>
</a>
</g>
</g>
</g>
</svg>
