<?xml version="1.0" encoding="UTF-8" standalone="no"?>
<!DOCTYPE svg PUBLIC "-//W3C//DTD SVG 1.1//EN"
 "http://www.w3.org/Graphics/SVG/1.1/DTD/svg11.dtd">
<!-- Generated by graphviz version 10.0.1 (20240210.2158)
 -->
<!-- Title: fe_sq2 Pages: 1 -->
<svg width="246pt" height="27pt"
 viewBox="0.00 0.00 245.75 27.25" xmlns="http://www.w3.org/2000/svg" xmlns:xlink="http://www.w3.org/1999/xlink">
<g id="graph0" class="graph" transform="scale(1 1) rotate(0) translate(4 23.25)">
<title>fe_sq2</title>
<!-- Node1 -->
<g id="Node000001" class="node">
<title>Node1</title>
<g id="a_Node000001"><a xlink:title=" ">
<polygon fill="#999999" stroke="#666666" points="237.75,-19.25 192.5,-19.25 192.5,0 237.75,0 237.75,-19.25"/>
<text text-anchor="middle" x="215.12" y="-5.75" font-family="Helvetica,sans-Serif" font-size="10.00">fe_sq2</text>
</a>
</g>
</g>
<!-- Node2 -->
<g id="Node000002" class="node">
<title>Node2</title>
<g id="a_Node000002"><a xlink:href="$class_paragon_i_e___sodium___core___curve25519.html#a5dd73730483f6842088f252d99f3acec" xlink:title=" ">
<polygon fill="white" stroke="#666666" points="156.5,-19.25 96.25,-19.25 96.25,0 156.5,0 156.5,-19.25"/>
<text text-anchor="middle" x="126.38" y="-5.75" font-family="Helvetica,sans-Serif" font-size="10.00">ge_p2_dbl</text>
</a>
</g>
</g>
<!-- Node1&#45;&gt;Node2 -->
<g id="edge5_Node000001_Node000002" class="edge">
<title>Node1&#45;&gt;Node2</title>
<g id="a_edge5_Node000001_Node000002"><a xlink:title=" ">
<path fill="none" stroke="#63b8ff" d="M180.76,-9.62C172.86,-9.62 164.5,-9.62 156.8,-9.62"/>
<polygon fill="#63b8ff" stroke="#63b8ff" points="180.72,-13.13 190.72,-9.63 180.72,-6.13 180.72,-13.13"/>
</a>
</g>
</g>
<!-- Node3 -->
<g id="Node000003" class="node">
<title>Node3</title>
<g id="a_Node000003"><a xlink:href="$class_paragon_i_e___sodium___core___curve25519.html#a3e3597b06c8bf7d6a84cbcc0b9eef248" xlink:title=" ">
<polygon fill="white" stroke="#666666" points="60.25,-19.25 0,-19.25 0,0 60.25,0 60.25,-19.25"/>
<text text-anchor="middle" x="30.12" y="-5.75" font-family="Helvetica,sans-Serif" font-size="10.00">ge_p3_dbl</text>
</a>
</g>
</g>
<!-- Node2&#45;&gt;Node3 -->
<g id="edge6_Node000002_Node000003" class="edge">
<title>Node2&#45;&gt;Node3</title>
<g id="a_edge6_Node000002_Node000003"><a xlink:title=" ">
<path fill="none" stroke="#63b8ff" d="M84.37,-9.62C76.36,-9.62 68.12,-9.62 60.58,-9.62"/>
<polygon fill="#63b8ff" stroke="#63b8ff" points="84.3,-13.13 94.3,-9.63 84.3,-6.13 84.3,-13.13"/>
</a>
</g>
</g>
</g>
</svg>
