<?xml version="1.0" encoding="UTF-8" standalone="no"?>
<!DOCTYPE svg PUBLIC "-//W3C//DTD SVG 1.1//EN"
 "http://www.w3.org/Graphics/SVG/1.1/DTD/svg11.dtd">
<!-- Generated by graphviz version 10.0.1 (20240210.2158)
 -->
<!-- Title: __construct Pages: 1 -->
<svg width="186pt" height="64pt"
 viewBox="0.00 0.00 185.50 64.25" xmlns="http://www.w3.org/2000/svg" xmlns:xlink="http://www.w3.org/1999/xlink">
<g id="graph0" class="graph" transform="scale(1 1) rotate(0) translate(4 60.25)">
<title>__construct</title>
<!-- Node1 -->
<g id="Node000001" class="node">
<title>Node1</title>
<g id="a_Node000001"><a xlink:title=" ">
<polygon fill="#999999" stroke="#666666" points="67,-37.25 0,-37.25 0,-18 67,-18 67,-37.25"/>
<text text-anchor="middle" x="33.5" y="-23.75" font-family="Helvetica,sans-Serif" font-size="10.00">__construct</text>
</a>
</g>
</g>
<!-- Node2 -->
<g id="Node000002" class="node">
<title>Node2</title>
<g id="a_Node000002"><a xlink:href="$class_laminas_1_1_mail_1_1_protocol_1_1_smtp_1_1_auth_1_1_login.html#a3e35c8d3dbb2c513c618a664389e0926" xlink:title=" ">
<polygon fill="white" stroke="#666666" points="176.75,-56.25 103.75,-56.25 103.75,-37 176.75,-37 176.75,-56.25"/>
<text text-anchor="middle" x="140.25" y="-42.75" font-family="Helvetica,sans-Serif" font-size="10.00">setPassword</text>
</a>
</g>
</g>
<!-- Node1&#45;&gt;Node2 -->
<g id="edge5_Node000001_Node000002" class="edge">
<title>Node1&#45;&gt;Node2</title>
<g id="a_edge5_Node000001_Node000002"><a xlink:title=" ">
<path fill="none" stroke="#63b8ff" d="M67.36,-33.58C75.28,-35.02 83.89,-36.58 92.32,-38.11"/>
<polygon fill="#63b8ff" stroke="#63b8ff" points="91.65,-41.55 102.11,-39.89 92.9,-34.66 91.65,-41.55"/>
</a>
</g>
</g>
<!-- Node3 -->
<g id="Node000003" class="node">
<title>Node3</title>
<g id="a_Node000003"><a xlink:href="$class_laminas_1_1_mail_1_1_protocol_1_1_smtp_1_1_auth_1_1_login.html#ac359b701a2ccaff746dd480f03314244" xlink:title=" ">
<polygon fill="white" stroke="#666666" points="177.5,-19.25 103,-19.25 103,0 177.5,0 177.5,-19.25"/>
<text text-anchor="middle" x="140.25" y="-5.75" font-family="Helvetica,sans-Serif" font-size="10.00">setUsername</text>
</a>
</g>
</g>
<!-- Node1&#45;&gt;Node3 -->
<g id="edge6_Node000001_Node000003" class="edge">
<title>Node1&#45;&gt;Node3</title>
<g id="a_edge6_Node000001_Node000003"><a xlink:title=" ">
<path fill="none" stroke="#63b8ff" d="M67.36,-21.98C75.11,-20.65 83.53,-19.2 91.79,-17.78"/>
<polygon fill="#63b8ff" stroke="#63b8ff" points="92.11,-21.28 101.38,-16.13 90.93,-14.38 92.11,-21.28"/>
</a>
</g>
</g>
</g>
</svg>
