<?xml version="1.0" encoding="UTF-8" standalone="no"?>
<!DOCTYPE svg PUBLIC "-//W3C//DTD SVG 1.1//EN"
 "http://www.w3.org/Graphics/SVG/1.1/DTD/svg11.dtd">
<!-- Generated by graphviz version 10.0.1 (20240210.2158)
 -->
<!-- Title: getFormattedDate Pages: 1 -->
<svg width="762pt" height="82pt"
 viewBox="0.00 0.00 761.75 82.25" xmlns="http://www.w3.org/2000/svg" xmlns:xlink="http://www.w3.org/1999/xlink">
<g id="graph0" class="graph" transform="scale(1 1) rotate(0) translate(4 78.25)">
<title>getFormattedDate</title>
<!-- Node1 -->
<g id="Node000001" class="node">
<title>Node1</title>
<g id="a_Node000001"><a xlink:title=" ">
<polygon fill="#999999" stroke="#666666" points="753.75,-55.25 659,-55.25 659,-36 753.75,-36 753.75,-55.25"/>
<text text-anchor="middle" x="706.38" y="-41.75" font-family="Helvetica,sans-Serif" font-size="10.00">getFormattedDate</text>
</a>
</g>
</g>
<!-- Node2 -->
<g id="Node000002" class="node">
<title>Node2</title>
<g id="a_Node000002"><a xlink:href="$class_t_c_p_d_f.html#ae7db48d52fe1b076d55d42532a463399" xlink:title=" ">
<polygon fill="white" stroke="#666666" points="623,-74.25 522.25,-74.25 522.25,-55 623,-55 623,-74.25"/>
<text text-anchor="middle" x="572.62" y="-60.75" font-family="Helvetica,sans-Serif" font-size="10.00">TCPDF\_datestring</text>
</a>
</g>
</g>
<!-- Node1&#45;&gt;Node2 -->
<g id="edge15_Node000001_Node000002" class="edge">
<title>Node1&#45;&gt;Node2</title>
<g id="a_edge15_Node000001_Node000002"><a xlink:title=" ">
<path fill="none" stroke="#63b8ff" d="M647.4,-53.99C639.41,-55.14 631.25,-56.31 623.42,-57.44"/>
<polygon fill="#63b8ff" stroke="#63b8ff" points="647.66,-57.48 657.06,-52.59 646.66,-50.56 647.66,-57.48"/>
</a>
</g>
</g>
<!-- Node3 -->
<g id="Node000003" class="node">
<title>Node3</title>
<g id="a_Node000003"><a xlink:href="$class_t_c_p_d_f.html#aa2ef7a31b85abd205dda935a274cf8d1" xlink:title=" ">
<polygon fill="white" stroke="#666666" points="619.25,-37.25 526,-37.25 526,-18 619.25,-18 619.25,-37.25"/>
<text text-anchor="middle" x="572.62" y="-23.75" font-family="Helvetica,sans-Serif" font-size="10.00">TCPDF\_putXMP</text>
</a>
</g>
</g>
<!-- Node1&#45;&gt;Node3 -->
<g id="edge16_Node000001_Node000003" class="edge">
<title>Node1&#45;&gt;Node3</title>
<g id="a_edge16_Node000001_Node000003"><a xlink:title=" ">
<path fill="none" stroke="#63b8ff" d="M647.31,-37.69C637.97,-36.42 628.41,-35.11 619.41,-33.88"/>
<polygon fill="#63b8ff" stroke="#63b8ff" points="646.67,-41.14 657.05,-39.02 647.62,-34.2 646.67,-41.14"/>
</a>
</g>
</g>
<!-- Node4 -->
<g id="Node000004" class="node">
<title>Node4</title>
<g id="a_Node000004"><a xlink:href="$class_t_c_p_d_f.html#a02167c095457b931f89d6be819d33286" xlink:title=" ">
<polygon fill="white" stroke="#666666" points="486.25,-37.25 383.25,-37.25 383.25,-18 486.25,-18 486.25,-37.25"/>
<text text-anchor="middle" x="434.75" y="-23.75" font-family="Helvetica,sans-Serif" font-size="10.00">TCPDF\_putcatalog</text>
</a>
</g>
</g>
<!-- Node3&#45;&gt;Node4 -->
<g id="edge17_Node000003_Node000004" class="edge">
<title>Node3&#45;&gt;Node4</title>
<g id="a_edge17_Node000003_Node000004"><a xlink:title=" ">
<path fill="none" stroke="#63b8ff" d="M514.13,-27.62C504.91,-27.62 495.42,-27.62 486.37,-27.62"/>
<polygon fill="#63b8ff" stroke="#63b8ff" points="514.11,-31.13 524.11,-27.63 514.11,-24.13 514.11,-31.13"/>
</a>
</g>
</g>
<!-- Node5 -->
<g id="Node000005" class="node">
<title>Node5</title>
<g id="a_Node000005"><a xlink:href="$class_t_c_p_d_f.html#ad83ac6a1b1122bcf6fd1fee89e530257" xlink:title=" ">
<polygon fill="white" stroke="#666666" points="347.25,-37.25 257.75,-37.25 257.75,-18 347.25,-18 347.25,-37.25"/>
<text text-anchor="middle" x="302.5" y="-23.75" font-family="Helvetica,sans-Serif" font-size="10.00">TCPDF\_enddoc</text>
</a>
</g>
</g>
<!-- Node4&#45;&gt;Node5 -->
<g id="edge18_Node000004_Node000005" class="edge">
<title>Node4&#45;&gt;Node5</title>
<g id="a_edge18_Node000004_Node000005"><a xlink:title=" ">
<path fill="none" stroke="#63b8ff" d="M371.61,-27.62C363.48,-27.62 355.28,-27.62 347.53,-27.62"/>
<polygon fill="#63b8ff" stroke="#63b8ff" points="371.51,-31.13 381.51,-27.63 371.51,-24.13 371.51,-31.13"/>
</a>
</g>
</g>
<!-- Node6 -->
<g id="Node000006" class="node">
<title>Node6</title>
<g id="a_Node000006"><a xlink:href="$class_t_c_p_d_f.html#a2fd4e06444aa4ace4cab6d6950ba2bb2" xlink:title=" ">
<polygon fill="white" stroke="#666666" points="221.75,-37.25 143.5,-37.25 143.5,-18 221.75,-18 221.75,-37.25"/>
<text text-anchor="middle" x="182.62" y="-23.75" font-family="Helvetica,sans-Serif" font-size="10.00">TCPDF\Close</text>
</a>
</g>
</g>
<!-- Node5&#45;&gt;Node6 -->
<g id="edge19_Node000005_Node000006" class="edge">
<title>Node5&#45;&gt;Node6</title>
<g id="a_edge19_Node000005_Node000006"><a xlink:title=" ">
<path fill="none" stroke="#63b8ff" d="M245.91,-27.62C237.79,-27.62 229.58,-27.62 221.91,-27.62"/>
<polygon fill="#63b8ff" stroke="#63b8ff" points="245.76,-31.13 255.76,-27.63 245.76,-24.13 245.76,-31.13"/>
</a>
</g>
</g>
<!-- Node7 -->
<g id="Node000007" class="node">
<title>Node7</title>
<g id="a_Node000007"><a xlink:href="$class_t_c_p_d_f.html#add9256af326a3df4c577f914fe641c5c" xlink:title=" ">
<polygon fill="white" stroke="#666666" points="107.5,-56.25 0,-56.25 0,-37 107.5,-37 107.5,-56.25"/>
<text text-anchor="middle" x="53.75" y="-42.75" font-family="Helvetica,sans-Serif" font-size="10.00">TCPDF\getPDFData</text>
</a>
</g>
</g>
<!-- Node6&#45;&gt;Node7 -->
<g id="edge20_Node000006_Node000007" class="edge">
<title>Node6&#45;&gt;Node7</title>
<g id="a_edge20_Node000006_Node000007"><a xlink:title=" ">
<path fill="none" stroke="#63b8ff" d="M132.1,-35.04C124.04,-36.25 115.67,-37.5 107.54,-38.72"/>
<polygon fill="#63b8ff" stroke="#63b8ff" points="132.35,-38.54 141.72,-33.6 131.31,-31.62 132.35,-38.54"/>
</a>
</g>
</g>
<!-- Node8 -->
<g id="Node000008" class="node">
<title>Node8</title>
<g id="a_Node000008"><a xlink:href="$class_t_c_p_d_f.html#acd3345feb73cd6addc7ab266fa583e33" xlink:title=" ">
<polygon fill="white" stroke="#666666" points="94.75,-19.25 12.75,-19.25 12.75,0 94.75,0 94.75,-19.25"/>
<text text-anchor="middle" x="53.75" y="-5.75" font-family="Helvetica,sans-Serif" font-size="10.00">TCPDF\Output</text>
</a>
</g>
</g>
<!-- Node6&#45;&gt;Node8 -->
<g id="edge21_Node000006_Node000008" class="edge">
<title>Node6&#45;&gt;Node8</title>
<g id="a_edge21_Node000006_Node000008"><a xlink:title=" ">
<path fill="none" stroke="#63b8ff" d="M131.85,-20.56C119.72,-18.84 106.88,-17.02 95.23,-15.37"/>
<polygon fill="#63b8ff" stroke="#63b8ff" points="131.32,-24.02 141.72,-21.96 132.31,-17.09 131.32,-24.02"/>
</a>
</g>
</g>
</g>
</svg>
