<?xml version="1.0" encoding="UTF-8" standalone="no"?>
<!DOCTYPE svg PUBLIC "-//W3C//DTD SVG 1.1//EN"
 "http://www.w3.org/Graphics/SVG/1.1/DTD/svg11.dtd">
<!-- Generated by graphviz version 10.0.1 (20240210.2158)
 -->
<!-- Title: format Pages: 1 -->
<svg width="520pt" height="39pt"
 viewBox="0.00 0.00 519.75 38.50" xmlns="http://www.w3.org/2000/svg" xmlns:xlink="http://www.w3.org/1999/xlink">
<g id="graph0" class="graph" transform="scale(1 1) rotate(0) translate(4 34.5)">
<title>format</title>
<!-- Node1 -->
<g id="Node000001" class="node">
<title>Node1</title>
<g id="a_Node000001"><a xlink:title=" ">
<polygon fill="#999999" stroke="#666666" points="43.75,-24.88 0,-24.88 0,-5.63 43.75,-5.63 43.75,-24.88"/>
<text text-anchor="middle" x="21.88" y="-11.38" font-family="Helvetica,sans-Serif" font-size="10.00">format</text>
</a>
</g>
</g>
<!-- Node2 -->
<g id="Node000002" class="node">
<title>Node2</title>
<g id="a_Node000002"><a xlink:href="$class_monolog_1_1_formatter_1_1_scalar_formatter.html#a4a24c635dd106853f3641523fe9b2bac" xlink:title=" ">
<polygon fill="white" stroke="#666666" points="161.75,-24.88 79.75,-24.88 79.75,-5.63 161.75,-5.63 161.75,-24.88"/>
<text text-anchor="middle" x="120.75" y="-11.38" font-family="Helvetica,sans-Serif" font-size="10.00">normalizeValue</text>
</a>
</g>
</g>
<!-- Node1&#45;&gt;Node2 -->
<g id="edge7_Node000001_Node000002" class="edge">
<title>Node1&#45;&gt;Node2</title>
<g id="a_edge7_Node000001_Node000002"><a xlink:title=" ">
<path fill="none" stroke="#63b8ff" d="M43.9,-15.25C51.17,-15.25 59.67,-15.25 68.31,-15.25"/>
<polygon fill="#63b8ff" stroke="#63b8ff" points="68.12,-18.75 78.12,-15.25 68.12,-11.75 68.12,-18.75"/>
</a>
</g>
</g>
<!-- Node3 -->
<g id="Node000003" class="node">
<title>Node3</title>
<g id="a_Node000003"><a xlink:href="$class_monolog_1_1_formatter_1_1_normalizer_formatter.html#a924968eb82e6df597cc6b74bd2c0b488" xlink:title=" ">
<polygon fill="white" stroke="#666666" points="345.75,-30.5 197.75,-30.5 197.75,0 345.75,0 345.75,-30.5"/>
<text text-anchor="start" x="205.75" y="-17" font-family="Helvetica,sans-Serif" font-size="10.00">Monolog\Formatter\Normalizer</text>
<text text-anchor="middle" x="271.75" y="-5.75" font-family="Helvetica,sans-Serif" font-size="10.00">Formatter\toJson</text>
</a>
</g>
</g>
<!-- Node2&#45;&gt;Node3 -->
<g id="edge8_Node000002_Node000003" class="edge">
<title>Node2&#45;&gt;Node3</title>
<g id="a_edge8_Node000002_Node000003"><a xlink:title=" ">
<path fill="none" stroke="#63b8ff" d="M162.07,-15.25C169.6,-15.25 177.72,-15.25 186.01,-15.25"/>
<polygon fill="#63b8ff" stroke="#63b8ff" points="185.87,-18.75 195.87,-15.25 185.87,-11.75 185.87,-18.75"/>
</a>
</g>
</g>
<!-- Node4 -->
<g id="Node000004" class="node">
<title>Node4</title>
<g id="a_Node000004"><a xlink:href="$class_monolog_1_1_utils.html#ad10eeb69895cb168d8f9ef89d9b2edbc" xlink:title=" ">
<polygon fill="white" stroke="#666666" points="511.75,-24.88 381.75,-24.88 381.75,-5.63 511.75,-5.63 511.75,-24.88"/>
<text text-anchor="middle" x="446.75" y="-11.38" font-family="Helvetica,sans-Serif" font-size="10.00">Monolog\Utils\jsonEncode</text>
</a>
</g>
</g>
<!-- Node3&#45;&gt;Node4 -->
<g id="edge9_Node000003_Node000004" class="edge">
<title>Node3&#45;&gt;Node4</title>
<g id="a_edge9_Node000003_Node000004"><a xlink:title=" ">
<path fill="none" stroke="#63b8ff" d="M346.12,-15.25C353.98,-15.25 361.98,-15.25 369.87,-15.25"/>
<polygon fill="#63b8ff" stroke="#63b8ff" points="369.79,-18.75 379.79,-15.25 369.79,-11.75 369.79,-18.75"/>
</a>
</g>
</g>
</g>
</svg>
