<?xml version="1.0" encoding="UTF-8" standalone="no"?>
<!DOCTYPE svg PUBLIC "-//W3C//DTD SVG 1.1//EN"
 "http://www.w3.org/Graphics/SVG/1.1/DTD/svg11.dtd">
<!-- Generated by graphviz version 10.0.1 (20240210.2158)
 -->
<!-- Title: _datastring Pages: 1 -->
<svg width="562pt" height="101pt"
 viewBox="0.00 0.00 561.75 101.25" xmlns="http://www.w3.org/2000/svg" xmlns:xlink="http://www.w3.org/1999/xlink">
<g id="graph0" class="graph" transform="scale(1 1) rotate(0) translate(4 97.25)">
<title>_datastring</title>
<!-- Node1 -->
<g id="Node000001" class="node">
<title>Node1</title>
<g id="a_Node000001"><a xlink:title=" ">
<polygon fill="#999999" stroke="#666666" points="64,-37.25 0,-37.25 0,-18 64,-18 64,-37.25"/>
<text text-anchor="middle" x="32" y="-23.75" font-family="Helvetica,sans-Serif" font-size="10.00">_datastring</text>
</a>
</g>
</g>
<!-- Node2 -->
<g id="Node000002" class="node">
<title>Node2</title>
<g id="a_Node000002"><a xlink:href="$class_t_c_p_d_f.html#a6a21d65a3e760b79009815dac484e466" xlink:title=" ">
<polygon fill="white" stroke="#666666" points="203.75,-56.25 126.25,-56.25 126.25,-37 203.75,-37 203.75,-56.25"/>
<text text-anchor="middle" x="165" y="-42.75" font-family="Helvetica,sans-Serif" font-size="10.00">_encrypt_data</text>
</a>
</g>
</g>
<!-- Node1&#45;&gt;Node2 -->
<g id="edge13_Node000001_Node000002" class="edge">
<title>Node1&#45;&gt;Node2</title>
<g id="a_edge13_Node000001_Node000002"><a xlink:title=" ">
<path fill="none" stroke="#63b8ff" d="M64.38,-32.18C79.38,-34.35 97.71,-37.01 114.53,-39.45"/>
<polygon fill="#63b8ff" stroke="#63b8ff" points="113.97,-42.91 124.37,-40.88 114.98,-35.98 113.97,-42.91"/>
</a>
</g>
</g>
<!-- Node7 -->
<g id="Node000007" class="node">
<title>Node7</title>
<g id="a_Node000007"><a xlink:href="$class_t_c_p_d_f___s_t_a_t_i_c.html#a9d6c5397344cd9090ea05d08d0310133" xlink:title=" ">
<polygon fill="white" stroke="#666666" points="230,-19.25 100,-19.25 100,0 230,0 230,-19.25"/>
<text text-anchor="middle" x="165" y="-5.75" font-family="Helvetica,sans-Serif" font-size="10.00">TCPDF_STATIC\_escape</text>
</a>
</g>
</g>
<!-- Node1&#45;&gt;Node7 -->
<g id="edge18_Node000001_Node000007" class="edge">
<title>Node1&#45;&gt;Node7</title>
<g id="a_edge18_Node000001_Node000007"><a xlink:title=" ">
<path fill="none" stroke="#63b8ff" d="M64.38,-23.31C71.8,-22.29 80.03,-21.16 88.49,-20"/>
<polygon fill="#63b8ff" stroke="#63b8ff" points="88.76,-23.5 98.19,-18.67 87.81,-16.56 88.76,-23.5"/>
</a>
</g>
</g>
<!-- Node3 -->
<g id="Node000003" class="node">
<title>Node3</title>
<g id="a_Node000003"><a xlink:href="$class_t_c_p_d_f___s_t_a_t_i_c.html#ac9917f8a2a7d6904984641db634a2133" xlink:title=" ">
<polygon fill="white" stroke="#666666" points="384.75,-93.25 266,-93.25 266,-74 384.75,-74 384.75,-93.25"/>
<text text-anchor="middle" x="325.38" y="-79.75" font-family="Helvetica,sans-Serif" font-size="10.00">TCPDF_STATIC\_AES</text>
</a>
</g>
</g>
<!-- Node2&#45;&gt;Node3 -->
<g id="edge14_Node000002_Node000003" class="edge">
<title>Node2&#45;&gt;Node3</title>
<g id="a_edge14_Node000002_Node000003"><a xlink:title=" ">
<path fill="none" stroke="#63b8ff" d="M203.93,-55.49C223.73,-60.11 248.29,-65.85 270.06,-70.94"/>
<polygon fill="#63b8ff" stroke="#63b8ff" points="269.15,-74.32 279.68,-73.18 270.74,-67.5 269.15,-74.32"/>
</a>
</g>
</g>
<!-- Node4 -->
<g id="Node000004" class="node">
<title>Node4</title>
<g id="a_Node000004"><a xlink:href="$class_t_c_p_d_f.html#a8f84276acc4ac4049af451cc3f534144" xlink:title=" ">
<polygon fill="white" stroke="#666666" points="357,-56.25 293.75,-56.25 293.75,-37 357,-37 357,-56.25"/>
<text text-anchor="middle" x="325.38" y="-42.75" font-family="Helvetica,sans-Serif" font-size="10.00">_objectkey</text>
</a>
</g>
</g>
<!-- Node2&#45;&gt;Node4 -->
<g id="edge15_Node000002_Node000004" class="edge">
<title>Node2&#45;&gt;Node4</title>
<g id="a_edge15_Node000002_Node000004"><a xlink:title=" ">
<path fill="none" stroke="#63b8ff" d="M203.93,-46.62C227.45,-46.62 257.7,-46.62 282,-46.62"/>
<polygon fill="#63b8ff" stroke="#63b8ff" points="281.88,-50.13 291.88,-46.63 281.88,-43.13 281.88,-50.13"/>
</a>
</g>
</g>
<!-- Node6 -->
<g id="Node000006" class="node">
<title>Node6</title>
<g id="a_Node000006"><a xlink:href="$class_t_c_p_d_f___s_t_a_t_i_c.html#a9aa40476c93ae6a84d4e6157576baf28" xlink:title=" ">
<polygon fill="white" stroke="#666666" points="384.75,-19.25 266,-19.25 266,0 384.75,0 384.75,-19.25"/>
<text text-anchor="middle" x="325.38" y="-5.75" font-family="Helvetica,sans-Serif" font-size="10.00">TCPDF_STATIC\_RC4</text>
</a>
</g>
</g>
<!-- Node2&#45;&gt;Node6 -->
<g id="edge17_Node000002_Node000006" class="edge">
<title>Node2&#45;&gt;Node6</title>
<g id="a_edge17_Node000002_Node000006"><a xlink:title=" ">
<path fill="none" stroke="#63b8ff" d="M203.93,-37.76C223.73,-33.14 248.29,-27.4 270.06,-22.31"/>
<polygon fill="#63b8ff" stroke="#63b8ff" points="270.74,-25.75 279.68,-20.07 269.15,-18.93 270.74,-25.75"/>
</a>
</g>
</g>
<!-- Node5 -->
<g id="Node000005" class="node">
<title>Node5</title>
<g id="a_Node000005"><a xlink:href="$class_t_c_p_d_f___s_t_a_t_i_c.html#a62729a9ca83528c7ba9b6c849b9c7fca" xlink:title=" ">
<polygon fill="white" stroke="#666666" points="553.75,-56.25 420.75,-56.25 420.75,-37 553.75,-37 553.75,-56.25"/>
<text text-anchor="middle" x="487.25" y="-42.75" font-family="Helvetica,sans-Serif" font-size="10.00">TCPDF_STATIC\_md5_16</text>
</a>
</g>
</g>
<!-- Node4&#45;&gt;Node5 -->
<g id="edge16_Node000004_Node000005" class="edge">
<title>Node4&#45;&gt;Node5</title>
<g id="a_edge16_Node000004_Node000005"><a xlink:title=" ">
<path fill="none" stroke="#63b8ff" d="M357.2,-46.62C372.08,-46.62 390.66,-46.62 409.05,-46.62"/>
<polygon fill="#63b8ff" stroke="#63b8ff" points="408.93,-50.13 418.93,-46.63 408.93,-43.13 408.93,-50.13"/>
</a>
</g>
</g>
</g>
</svg>
