<?xml version="1.0" encoding="UTF-8" standalone="no"?>
<!DOCTYPE svg PUBLIC "-//W3C//DTD SVG 1.1//EN"
 "http://www.w3.org/Graphics/SVG/1.1/DTD/svg11.dtd">
<!-- Generated by graphviz version 10.0.1 (20240210.2158)
 -->
<!-- Title: getSonsOf Pages: 1 -->
<svg width="975pt" height="907pt"
 viewBox="0.00 0.00 974.75 906.88" xmlns="http://www.w3.org/2000/svg" xmlns:xlink="http://www.w3.org/1999/xlink">
<g id="graph0" class="graph" transform="scale(1 1) rotate(0) translate(4 902.88)">
<title>getSonsOf</title>
<!-- Node1 -->
<g id="Node000001" class="node">
<title>Node1</title>
<g id="a_Node000001"><a xlink:title=" ">
<polygon fill="#999999" stroke="#666666" points="966.75,-447.25 904.25,-447.25 904.25,-428 966.75,-428 966.75,-447.25"/>
<text text-anchor="middle" x="935.5" y="-433.75" font-family="Helvetica,sans-Serif" font-size="10.00">getSonsOf</text>
</a>
</g>
</g>
<!-- Node2 -->
<g id="Node000002" class="node">
<title>Node2</title>
<g id="a_Node000002"><a xlink:href="$class_session.html#ad8afce12e6e8fd0340978a080317d26a" xlink:title=" ">
<polygon fill="white" stroke="#666666" points="855.88,-892.25 709.38,-892.25 709.38,-873 855.88,-873 855.88,-892.25"/>
<text text-anchor="middle" x="782.62" y="-878.75" font-family="Helvetica,sans-Serif" font-size="10.00">Session\changeActiveEntities</text>
</a>
</g>
</g>
<!-- Node1&#45;&gt;Node2 -->
<g id="edge69_Node000001_Node000002" class="edge">
<title>Node1&#45;&gt;Node2</title>
<g id="a_edge69_Node000001_Node000002"><a xlink:title=" ">
<path fill="none" stroke="#63b8ff" d="M934.02,-459.18C931.85,-536.17 920.73,-796.16 868.25,-856.62 862.1,-863.71 854.08,-868.89 845.43,-872.68"/>
<polygon fill="#63b8ff" stroke="#63b8ff" points="937.51,-459.33 934.27,-449.25 930.51,-459.15 937.51,-459.33"/>
</a>
</g>
</g>
<!-- Node6 -->
<g id="Node000006" class="node">
<title>Node6</title>
<g id="a_Node000006"><a xlink:href="$class_software_license.html#af466512746a6caca8ee1556ed63fa2f3" xlink:title=" ">
<polygon fill="white" stroke="#666666" points="851.75,-814.88 713.5,-814.88 713.5,-784.38 851.75,-784.38 851.75,-814.88"/>
<text text-anchor="start" x="721.5" y="-801.38" font-family="Helvetica,sans-Serif" font-size="10.00">SoftwareLicense\displayTab</text>
<text text-anchor="middle" x="782.62" y="-790.12" font-family="Helvetica,sans-Serif" font-size="10.00">ContentForItem</text>
</a>
</g>
</g>
<!-- Node1&#45;&gt;Node6 -->
<g id="edge73_Node000001_Node000006" class="edge">
<title>Node1&#45;&gt;Node6</title>
<g id="a_edge73_Node000001_Node000006"><a xlink:title=" ">
<path fill="none" stroke="#63b8ff" d="M933.13,-459.16C928.45,-525.91 910.98,-727.72 868.25,-774.62 863.61,-779.72 857.98,-783.8 851.86,-787.06"/>
<polygon fill="#63b8ff" stroke="#63b8ff" points="936.62,-459.41 933.8,-449.2 929.63,-458.95 936.62,-459.41"/>
</a>
</g>
</g>
<!-- Node7 -->
<g id="Node000007" class="node">
<title>Node7</title>
<g id="a_Node000007"><a xlink:href="$class_glpi_1_1_dashboard_1_1_grid.html#a35fb1a6c1cad055c280c138091a12ff5" xlink:title=" ">
<polygon fill="white" stroke="#666666" points="834.88,-765.88 730.38,-765.88 730.38,-735.38 834.88,-735.38 834.88,-765.88"/>
<text text-anchor="start" x="738.38" y="-752.38" font-family="Helvetica,sans-Serif" font-size="10.00">Glpi\Dashboard\Grid</text>
<text text-anchor="middle" x="782.62" y="-741.12" font-family="Helvetica,sans-Serif" font-size="10.00">\embed</text>
</a>
</g>
</g>
<!-- Node1&#45;&gt;Node7 -->
<g id="edge74_Node000001_Node000007" class="edge">
<title>Node1&#45;&gt;Node7</title>
<g id="a_edge74_Node000001_Node000007"><a xlink:title=" ">
<path fill="none" stroke="#63b8ff" d="M932.35,-459.1C925.93,-519.08 905.01,-686.54 868.25,-725.62 859.43,-735 847.29,-740.91 834.96,-744.63"/>
<polygon fill="#63b8ff" stroke="#63b8ff" points="935.82,-459.54 933.37,-449.23 928.86,-458.82 935.82,-459.54"/>
</a>
</g>
</g>
<!-- Node8 -->
<g id="Node000008" class="node">
<title>Node8</title>
<g id="a_Node000008"><a xlink:href="$class_glpi_1_1_dashboard_1_1_filters_1_1_itil_category_filter.html#ab374075a146ed37db5828e790ac299c8" xlink:title=" ">
<polygon fill="white" stroke="#666666" points="852.12,-716.88 713.12,-716.88 713.12,-686.38 852.12,-686.38 852.12,-716.88"/>
<text text-anchor="start" x="721.12" y="-703.38" font-family="Helvetica,sans-Serif" font-size="10.00">Glpi\Dashboard\Filters</text>
<text text-anchor="middle" x="782.62" y="-692.12" font-family="Helvetica,sans-Serif" font-size="10.00">\ItilCategoryFilter\getCriteria</text>
</a>
</g>
</g>
<!-- Node1&#45;&gt;Node8 -->
<g id="edge75_Node000001_Node000008" class="edge">
<title>Node1&#45;&gt;Node8</title>
<g id="a_edge75_Node000001_Node000008"><a xlink:title=" ">
<path fill="none" stroke="#63b8ff" d="M935.04,-458.94C935.02,-505.21 928.27,-615.59 868.25,-676.62 863.63,-681.32 858.18,-685.15 852.3,-688.26"/>
<polygon fill="#63b8ff" stroke="#63b8ff" points="938.55,-459.16 934.93,-449.2 931.55,-459.24 938.55,-459.16"/>
</a>
</g>
</g>
<!-- Node9 -->
<g id="Node000009" class="node">
<title>Node9</title>
<g id="a_Node000009"><a xlink:href="$class_appliance___item___relation.html#a90e8b770bb12e7f945420b020e188ed6" xlink:title=" ">
<polygon fill="white" stroke="#666666" points="851,-667.88 714.25,-667.88 714.25,-637.38 851,-637.38 851,-667.88"/>
<text text-anchor="start" x="722.25" y="-654.38" font-family="Helvetica,sans-Serif" font-size="10.00">Appliance_Item_Relation</text>
<text text-anchor="middle" x="782.62" y="-643.12" font-family="Helvetica,sans-Serif" font-size="10.00">\getListJSForApplianceItem</text>
</a>
</g>
</g>
<!-- Node1&#45;&gt;Node9 -->
<g id="edge76_Node000001_Node000009" class="edge">
<title>Node1&#45;&gt;Node9</title>
<g id="a_edge76_Node000001_Node000009"><a xlink:title=" ">
<path fill="none" stroke="#63b8ff" d="M933.22,-459.02C929.71,-498.17 916.65,-581.51 868.25,-627.62 863.26,-632.38 857.41,-636.24 851.15,-639.36"/>
<polygon fill="#63b8ff" stroke="#63b8ff" points="936.71,-459.3 933.97,-449.07 929.73,-458.78 936.71,-459.3"/>
</a>
</g>
</g>
<!-- Node10 -->
<g id="Node000010" class="node">
<title>Node10</title>
<g id="a_Node000010"><a xlink:href="$class_glpi_1_1_api_1_1_a_p_i.html#a80e07b087aaba6ff587c2b133d9c6124" xlink:title=" ">
<polygon fill="white" stroke="#666666" points="661,-850.25 528,-850.25 528,-831 661,-831 661,-850.25"/>
<text text-anchor="middle" x="594.5" y="-836.75" font-family="Helvetica,sans-Serif" font-size="10.00">Glpi\Api\API\getMyEntities</text>
</a>
</g>
</g>
<!-- Node1&#45;&gt;Node10 -->
<g id="edge77_Node000001_Node000010" class="edge">
<title>Node1&#45;&gt;Node10</title>
<g id="a_edge77_Node000001_Node000010"><a xlink:title=" ">
<path fill="none" stroke="#63b8ff" d="M934.17,-458.85C932.54,-532.38 923.02,-774.46 868.25,-823.62 838.86,-850.01 732.32,-849.26 661.42,-845.52"/>
<polygon fill="#63b8ff" stroke="#63b8ff" points="937.66,-459.08 934.35,-449.02 930.66,-458.95 937.66,-459.08"/>
</a>
</g>
</g>
<!-- Node11 -->
<g id="Node000011" class="node">
<title>Node11</title>
<g id="a_Node000011"><a xlink:href="$class_notification_target.html#a18ff1f393534d9ed8e4c5d252972419e" xlink:title=" ">
<polygon fill="white" stroke="#666666" points="837.5,-618.88 727.75,-618.88 727.75,-588.38 837.5,-588.38 837.5,-618.88"/>
<text text-anchor="start" x="735.75" y="-605.38" font-family="Helvetica,sans-Serif" font-size="10.00">NotificationTarget</text>
<text text-anchor="middle" x="782.62" y="-594.12" font-family="Helvetica,sans-Serif" font-size="10.00">\getProfileJoinCriteria</text>
</a>
</g>
</g>
<!-- Node1&#45;&gt;Node11 -->
<g id="edge80_Node000001_Node000011" class="edge">
<title>Node1&#45;&gt;Node11</title>
<g id="a_edge80_Node000001_Node000011"><a xlink:title=" ">
<path fill="none" stroke="#63b8ff" d="M930.34,-458.6C923.14,-489.42 905.41,-546.73 868.25,-578.62 859.53,-586.11 848.66,-591.35 837.64,-595.03"/>
<polygon fill="#63b8ff" stroke="#63b8ff" points="933.73,-459.5 932.42,-448.99 926.89,-458.02 933.73,-459.5"/>
</a>
</g>
</g>
<!-- Node12 -->
<g id="Node000012" class="node">
<title>Node12</title>
<g id="a_Node000012"><a xlink:href="$class_rule_collection.html#a21251e4645996b77654d7c8edc369f07" xlink:title=" ">
<polygon fill="white" stroke="#666666" points="848.75,-569.88 716.5,-569.88 716.5,-539.38 848.75,-539.38 848.75,-569.88"/>
<text text-anchor="start" x="724.5" y="-556.38" font-family="Helvetica,sans-Serif" font-size="10.00">RuleCollection\getRuleList</text>
<text text-anchor="middle" x="782.62" y="-545.12" font-family="Helvetica,sans-Serif" font-size="10.00">Criteria</text>
</a>
</g>
</g>
<!-- Node1&#45;&gt;Node12 -->
<g id="edge81_Node000001_Node000012" class="edge">
<title>Node1&#45;&gt;Node12</title>
<g id="a_edge81_Node000001_Node000012"><a xlink:title=" ">
<path fill="none" stroke="#63b8ff" d="M925.2,-457.92C914.44,-479.15 894.76,-511.94 868.25,-530.62 862.38,-534.76 855.82,-538.19 849.01,-541.02"/>
<polygon fill="#63b8ff" stroke="#63b8ff" points="928.26,-459.63 929.46,-449.11 921.96,-456.59 928.26,-459.63"/>
</a>
</g>
</g>
<!-- Node13 -->
<g id="Node000013" class="node">
<title>Node13</title>
<g id="a_Node000013"><a xlink:href="$class_db_utils.html#a1c876ecd37cfd3e672b1c3d2d0958f8a" xlink:title=" ">
<polygon fill="white" stroke="#666666" points="862.62,-521.25 702.62,-521.25 702.62,-502 862.62,-502 862.62,-521.25"/>
<text text-anchor="middle" x="782.62" y="-507.75" font-family="Helvetica,sans-Serif" font-size="10.00">DbUtils\getSonsAndAncestorsOf</text>
</a>
</g>
</g>
<!-- Node1&#45;&gt;Node13 -->
<g id="edge82_Node000001_Node000013" class="edge">
<title>Node1&#45;&gt;Node13</title>
<g id="a_edge82_Node000001_Node000013"><a xlink:title=" ">
<path fill="none" stroke="#63b8ff" d="M918.05,-455.62C905.58,-468.16 887.37,-484.26 868.25,-493.62 861.78,-496.8 854.75,-499.41 847.62,-501.57"/>
<polygon fill="#63b8ff" stroke="#63b8ff" points="920.26,-458.36 924.66,-448.72 915.21,-453.52 920.26,-458.36"/>
</a>
</g>
</g>
<!-- Node14 -->
<g id="Node000014" class="node">
<title>Node14</title>
<g id="a_Node000014"><a xlink:href="$class_session.html#aba43af7c4e303eae379626b6bed248bf" xlink:title=" ">
<polygon fill="white" stroke="#666666" points="831.5,-484.25 733.75,-484.25 733.75,-465 831.5,-465 831.5,-484.25"/>
<text text-anchor="middle" x="782.62" y="-470.75" font-family="Helvetica,sans-Serif" font-size="10.00">Session\loadEntity</text>
</a>
</g>
</g>
<!-- Node1&#45;&gt;Node14 -->
<g id="edge83_Node000001_Node000014" class="edge">
<title>Node1&#45;&gt;Node14</title>
<g id="a_edge83_Node000001_Node000014"><a xlink:title=" ">
<path fill="none" stroke="#63b8ff" d="M893.07,-449.99C884.87,-452.3 876.31,-454.61 868.25,-456.62 856.45,-459.57 843.64,-462.45 831.65,-465.02"/>
<polygon fill="#63b8ff" stroke="#63b8ff" points="893.84,-453.41 902.49,-447.29 891.91,-446.68 893.84,-453.41"/>
</a>
</g>
</g>
<!-- Node15 -->
<g id="Node000015" class="node">
<title>Node15</title>
<g id="a_Node000015"><a xlink:href="$class_rule_criteria.html#aa81993a3bca564de4585822243895a5c" xlink:title=" ">
<polygon fill="white" stroke="#666666" points="831.5,-447.25 733.75,-447.25 733.75,-428 831.5,-428 831.5,-447.25"/>
<text text-anchor="middle" x="782.62" y="-433.75" font-family="Helvetica,sans-Serif" font-size="10.00">RuleCriteria\match</text>
</a>
</g>
</g>
<!-- Node1&#45;&gt;Node15 -->
<g id="edge84_Node000001_Node000015" class="edge">
<title>Node1&#45;&gt;Node15</title>
<g id="a_edge84_Node000001_Node000015"><a xlink:title=" ">
<path fill="none" stroke="#63b8ff" d="M892.48,-437.62C873.68,-437.62 851.41,-437.62 831.93,-437.62"/>
<polygon fill="#63b8ff" stroke="#63b8ff" points="892.45,-441.13 902.45,-437.63 892.45,-434.13 892.45,-441.13"/>
</a>
</g>
</g>
<!-- Node22 -->
<g id="Node000022" class="node">
<title>Node22</title>
<g id="a_Node000022"><a xlink:href="$class_calendar.html#abe5744a3d4daa67a18293fd49f7a035f" xlink:title=" ">
<polygon fill="white" stroke="#666666" points="863.75,-409.88 701.5,-409.88 701.5,-379.38 863.75,-379.38 863.75,-409.88"/>
<text text-anchor="start" x="709.5" y="-396.38" font-family="Helvetica,sans-Serif" font-size="10.00">Calendar\processMassiveActions</text>
<text text-anchor="middle" x="782.62" y="-385.12" font-family="Helvetica,sans-Serif" font-size="10.00">ForOneItemtype</text>
</a>
</g>
</g>
<!-- Node1&#45;&gt;Node22 -->
<g id="edge92_Node000001_Node000022" class="edge">
<title>Node1&#45;&gt;Node22</title>
<g id="a_edge92_Node000001_Node000022"><a xlink:title=" ">
<path fill="none" stroke="#63b8ff" d="M892.96,-425.69C884.77,-423.34 876.24,-420.9 868.25,-418.62 858.85,-415.94 848.86,-413.1 839.17,-410.35"/>
<polygon fill="#63b8ff" stroke="#63b8ff" points="891.8,-429 902.38,-428.39 893.73,-422.27 891.8,-429"/>
</a>
</g>
</g>
<!-- Node23 -->
<g id="Node000023" class="node">
<title>Node23</title>
<g id="a_Node000023"><a xlink:href="$class_common_tree_dropdown.html#abe5744a3d4daa67a18293fd49f7a035f" xlink:title=" ">
<polygon fill="white" stroke="#666666" points="860.38,-361.5 704.88,-361.5 704.88,-319.75 860.38,-319.75 860.38,-361.5"/>
<text text-anchor="start" x="712.88" y="-348" font-family="Helvetica,sans-Serif" font-size="10.00">CommonTreeDropdown</text>
<text text-anchor="start" x="712.88" y="-336.75" font-family="Helvetica,sans-Serif" font-size="10.00">\processMassiveActionsForOne</text>
<text text-anchor="middle" x="782.62" y="-325.5" font-family="Helvetica,sans-Serif" font-size="10.00">Itemtype</text>
</a>
</g>
</g>
<!-- Node1&#45;&gt;Node23 -->
<g id="edge93_Node000001_Node000023" class="edge">
<title>Node1&#45;&gt;Node23</title>
<g id="a_edge93_Node000001_Node000023"><a xlink:title=" ">
<path fill="none" stroke="#63b8ff" d="M919.9,-418.74C907.55,-403.88 888.64,-383.57 868.25,-370.62 863.25,-367.45 857.87,-364.56 852.33,-361.93"/>
<polygon fill="#63b8ff" stroke="#63b8ff" points="917.08,-420.81 926.07,-426.41 922.53,-416.43 917.08,-420.81"/>
</a>
</g>
</g>
<!-- Node24 -->
<g id="Node000024" class="node">
<title>Node24</title>
<g id="a_Node000024"><a xlink:href="$class_common_dropdown.html#ac5cc67aa0e150479c791136a155cb7ac" xlink:title=" ">
<polygon fill="white" stroke="#666666" points="860,-301.88 705.25,-301.88 705.25,-271.38 860,-271.38 860,-301.88"/>
<text text-anchor="start" x="713.25" y="-288.38" font-family="Helvetica,sans-Serif" font-size="10.00">CommonDropdown\showDelete</text>
<text text-anchor="middle" x="782.62" y="-277.12" font-family="Helvetica,sans-Serif" font-size="10.00">ConfirmForm</text>
</a>
</g>
</g>
<!-- Node1&#45;&gt;Node24 -->
<g id="edge94_Node000001_Node000024" class="edge">
<title>Node1&#45;&gt;Node24</title>
<g id="a_edge94_Node000001_Node000024"><a xlink:title=" ">
<path fill="none" stroke="#63b8ff" d="M929.2,-416.66C920.95,-388.39 902.36,-338.38 868.25,-310.62 864.34,-307.44 860.03,-304.68 855.5,-302.29"/>
<polygon fill="#63b8ff" stroke="#63b8ff" points="925.79,-417.46 931.79,-426.19 932.54,-415.62 925.79,-417.46"/>
</a>
</g>
</g>
<!-- Node25 -->
<g id="Node000025" class="node">
<title>Node25</title>
<g id="a_Node000025"><a xlink:href="$class_certificate___item.html#adad6e60c86b1468834416704f4208f36" xlink:title=" ">
<polygon fill="white" stroke="#666666" points="845.75,-252.88 719.5,-252.88 719.5,-222.38 845.75,-222.38 845.75,-252.88"/>
<text text-anchor="start" x="727.5" y="-239.38" font-family="Helvetica,sans-Serif" font-size="10.00">Certificate_Item\showFor</text>
<text text-anchor="middle" x="782.62" y="-228.12" font-family="Helvetica,sans-Serif" font-size="10.00">Certificate</text>
</a>
</g>
</g>
<!-- Node1&#45;&gt;Node25 -->
<g id="edge95_Node000001_Node000025" class="edge">
<title>Node1&#45;&gt;Node25</title>
<g id="a_edge95_Node000001_Node000025"><a xlink:title=" ">
<path fill="none" stroke="#63b8ff" d="M932.49,-416.37C927.88,-379.67 913.19,-304.33 868.25,-262.62 861.85,-256.69 854.1,-252.15 845.93,-248.69"/>
<polygon fill="#63b8ff" stroke="#63b8ff" points="928.99,-416.57 933.57,-426.12 935.95,-415.8 928.99,-416.57"/>
</a>
</g>
</g>
<!-- Node27 -->
<g id="Node000027" class="node">
<title>Node27</title>
<g id="a_Node000027"><a xlink:href="$class_change___item.html#a254ad773646c194214378c8065100010" xlink:title=" ">
<polygon fill="white" stroke="#666666" points="857,-204.25 708.25,-204.25 708.25,-185 857,-185 857,-204.25"/>
<text text-anchor="middle" x="782.62" y="-190.75" font-family="Helvetica,sans-Serif" font-size="10.00">Change_Item\showForChange</text>
</a>
</g>
</g>
<!-- Node1&#45;&gt;Node27 -->
<g id="edge97_Node000001_Node000027" class="edge">
<title>Node1&#45;&gt;Node27</title>
<g id="a_edge97_Node000001_Node000027"><a xlink:title=" ">
<path fill="none" stroke="#63b8ff" d="M934.87,-416.45C934.41,-371.96 926.74,-268.34 868.25,-213.62 864.4,-210.02 860.02,-207.05 855.33,-204.61"/>
<polygon fill="#63b8ff" stroke="#63b8ff" points="931.37,-416.27 934.84,-426.28 938.37,-416.3 931.37,-416.27"/>
</a>
</g>
</g>
<!-- Node28 -->
<g id="Node000028" class="node">
<title>Node28</title>
<g id="a_Node000028"><a xlink:href="$class_document___item.html#a4c49b84d4bc57055ff409f19eb57cf95" xlink:title=" ">
<polygon fill="white" stroke="#666666" points="868.25,-167.25 697,-167.25 697,-148 868.25,-148 868.25,-167.25"/>
<text text-anchor="middle" x="782.62" y="-153.75" font-family="Helvetica,sans-Serif" font-size="10.00">Document_Item\showForDocument</text>
</a>
</g>
</g>
<!-- Node1&#45;&gt;Node28 -->
<g id="edge98_Node000001_Node000028" class="edge">
<title>Node1&#45;&gt;Node28</title>
<g id="a_edge98_Node000001_Node000028"><a xlink:title=" ">
<path fill="none" stroke="#63b8ff" d="M932.03,-416.49C925.03,-360.33 903.29,-209.36 868.25,-175.62 865,-172.5 861.36,-169.86 857.45,-167.63"/>
<polygon fill="#63b8ff" stroke="#63b8ff" points="928.54,-416.78 933.21,-426.28 935.49,-415.94 928.54,-416.78"/>
</a>
</g>
</g>
<!-- Node29 -->
<g id="Node000029" class="node">
<title>Node29</title>
<g id="a_Node000029"><a xlink:href="$class_group.html#ad9ff7dc815340fcc80632e01c3acb287" xlink:title=" ">
<polygon fill="white" stroke="#666666" points="828.12,-130.25 737.12,-130.25 737.12,-111 828.12,-111 828.12,-130.25"/>
<text text-anchor="middle" x="782.62" y="-116.75" font-family="Helvetica,sans-Serif" font-size="10.00">Group\showForm</text>
</a>
</g>
</g>
<!-- Node1&#45;&gt;Node29 -->
<g id="edge99_Node000001_Node000029" class="edge">
<title>Node1&#45;&gt;Node29</title>
<g id="a_edge99_Node000001_Node000029"><a xlink:title=" ">
<path fill="none" stroke="#63b8ff" d="M932.73,-416.4C927.17,-354.83 907.99,-178.03 868.25,-138.62 857.8,-128.26 842.95,-123.19 828.6,-120.89"/>
<polygon fill="#63b8ff" stroke="#63b8ff" points="929.23,-416.53 933.58,-426.19 936.21,-415.93 929.23,-416.53"/>
</a>
</g>
</g>
<!-- Node30 -->
<g id="Node000030" class="node">
<title>Node30</title>
<g id="a_Node000030"><a xlink:href="$class_item___problem.html#abe9b14b953fa88e669333f69fa4a57ec" xlink:title=" ">
<polygon fill="white" stroke="#666666" points="859.25,-93.25 706,-93.25 706,-74 859.25,-74 859.25,-93.25"/>
<text text-anchor="middle" x="782.62" y="-79.75" font-family="Helvetica,sans-Serif" font-size="10.00">Item_Problem\showForProblem</text>
</a>
</g>
</g>
<!-- Node1&#45;&gt;Node30 -->
<g id="edge100_Node000001_Node000030" class="edge">
<title>Node1&#45;&gt;Node30</title>
<g id="a_edge100_Node000001_Node000030"><a xlink:title=" ">
<path fill="none" stroke="#63b8ff" d="M933.3,-416.43C929.08,-349.87 912.74,-146.79 868.25,-101.62 865.19,-98.52 861.74,-95.89 858.03,-93.67"/>
<polygon fill="#63b8ff" stroke="#63b8ff" points="929.78,-416.24 933.87,-426.01 936.77,-415.81 929.78,-416.24"/>
</a>
</g>
</g>
<!-- Node31 -->
<g id="Node000031" class="node">
<title>Node31</title>
<g id="a_Node000031"><a xlink:href="$class_project.html#a1f133ec83cc36af7306671024bd3412c" xlink:title=" ">
<polygon fill="white" stroke="#666666" points="831.12,-56.25 734.12,-56.25 734.12,-37 831.12,-37 831.12,-56.25"/>
<text text-anchor="middle" x="782.62" y="-42.75" font-family="Helvetica,sans-Serif" font-size="10.00">Project\showTeam</text>
</a>
</g>
</g>
<!-- Node1&#45;&gt;Node31 -->
<g id="edge101_Node000001_Node000031" class="edge">
<title>Node1&#45;&gt;Node31</title>
<g id="a_edge101_Node000001_Node000031"><a xlink:title=" ">
<path fill="none" stroke="#63b8ff" d="M933.73,-416.01C930.73,-344.23 917.42,-115.48 868.25,-64.62 858.65,-54.69 845.01,-49.57 831.49,-47.09"/>
<polygon fill="#63b8ff" stroke="#63b8ff" points="930.23,-416.14 934.12,-425.99 937.23,-415.87 930.23,-416.14"/>
</a>
</g>
</g>
<!-- Node32 -->
<g id="Node000032" class="node">
<title>Node32</title>
<g id="a_Node000032"><a xlink:href="$class_project_task.html#a08a853173289acee0b9a75af017742d7" xlink:title=" ">
<polygon fill="white" stroke="#666666" points="841.62,-19.25 723.62,-19.25 723.62,0 841.62,0 841.62,-19.25"/>
<text text-anchor="middle" x="782.62" y="-5.75" font-family="Helvetica,sans-Serif" font-size="10.00">ProjectTask\showTeam</text>
</a>
</g>
</g>
<!-- Node1&#45;&gt;Node32 -->
<g id="edge102_Node000001_Node000032" class="edge">
<title>Node1&#45;&gt;Node32</title>
<g id="a_edge102_Node000001_Node000032"><a xlink:title=" ">
<path fill="none" stroke="#63b8ff" d="M934.12,-416.37C932.32,-340.48 922.29,-84.4 868.25,-27.62 861.21,-20.23 851.94,-15.49 842.12,-12.52"/>
<polygon fill="#63b8ff" stroke="#63b8ff" points="930.62,-416.22 934.33,-426.14 937.62,-416.07 930.62,-416.22"/>
</a>
</g>
</g>
<!-- Node3 -->
<g id="Node000003" class="node">
<title>Node3</title>
<g id="a_Node000003"><a xlink:href="$class_glpi_1_1_api_1_1_a_p_i.html#a62cf4214029b0e1e2494a2e6c1254b5b" xlink:title=" ">
<polygon fill="white" stroke="#666666" points="660.62,-898.88 528.38,-898.88 528.38,-868.38 660.62,-868.38 660.62,-898.88"/>
<text text-anchor="start" x="536.38" y="-885.38" font-family="Helvetica,sans-Serif" font-size="10.00">Glpi\Api\API\changeActive</text>
<text text-anchor="middle" x="594.5" y="-874.12" font-family="Helvetica,sans-Serif" font-size="10.00">Entities</text>
</a>
</g>
</g>
<!-- Node2&#45;&gt;Node3 -->
<g id="edge70_Node000002_Node000003" class="edge">
<title>Node2&#45;&gt;Node3</title>
<g id="a_edge70_Node000002_Node000003"><a xlink:title=" ">
<path fill="none" stroke="#63b8ff" d="M697.89,-883.07C685.56,-883.14 673.01,-883.21 661.12,-883.27"/>
<polygon fill="#63b8ff" stroke="#63b8ff" points="697.64,-886.58 707.62,-883.02 697.6,-879.58 697.64,-886.58"/>
</a>
</g>
</g>
<!-- Node4 -->
<g id="Node000004" class="node">
<title>Node4</title>
<g id="a_Node000004"><a xlink:href="$class_glpi_1_1_api_1_1_a_p_i_rest.html#af15bc7e2f143b1c567b0cab96d8c57b2" xlink:title=" ">
<polygon fill="white" stroke="#666666" points="487.12,-892.25 378.12,-892.25 378.12,-873 487.12,-873 487.12,-892.25"/>
<text text-anchor="middle" x="432.62" y="-878.75" font-family="Helvetica,sans-Serif" font-size="10.00">Glpi\Api\APIRest\call</text>
</a>
</g>
</g>
<!-- Node3&#45;&gt;Node4 -->
<g id="edge71_Node000003_Node000004" class="edge">
<title>Node3&#45;&gt;Node4</title>
<g id="a_edge71_Node000003_Node000004"><a xlink:title=" ">
<path fill="none" stroke="#63b8ff" d="M516.56,-883.14C506.76,-883.08 496.89,-883.02 487.55,-882.96"/>
<polygon fill="#63b8ff" stroke="#63b8ff" points="516.48,-886.64 526.5,-883.21 516.52,-879.64 516.48,-886.64"/>
</a>
</g>
</g>
<!-- Node5 -->
<g id="Node000005" class="node">
<title>Node5</title>
<g id="a_Node000005"><a xlink:href="$class_glpi_1_1_api_1_1_a_p_i_xmlrpc.html#af15bc7e2f143b1c567b0cab96d8c57b2" xlink:title=" ">
<polygon fill="white" stroke="#666666" points="492,-852.25 373.25,-852.25 373.25,-833 492,-833 492,-852.25"/>
<text text-anchor="middle" x="432.62" y="-838.75" font-family="Helvetica,sans-Serif" font-size="10.00">Glpi\Api\APIXmlrpc\call</text>
</a>
</g>
</g>
<!-- Node3&#45;&gt;Node5 -->
<g id="edge72_Node000003_Node000005" class="edge">
<title>Node3&#45;&gt;Node5</title>
<g id="a_edge72_Node000003_Node000005"><a xlink:title=" ">
<path fill="none" stroke="#63b8ff" d="M521.29,-865.11C504.63,-860.83 487.51,-856.44 472.88,-852.69"/>
<polygon fill="#63b8ff" stroke="#63b8ff" points="520.12,-868.42 530.68,-867.51 521.86,-861.64 520.12,-868.42"/>
</a>
</g>
</g>
<!-- Node10&#45;&gt;Node4 -->
<g id="edge78_Node000010_Node000004" class="edge">
<title>Node10&#45;&gt;Node4</title>
<g id="a_edge78_Node000010_Node000004"><a xlink:title=" ">
<path fill="none" stroke="#63b8ff" d="M544.2,-853.58C521.02,-859.67 493.8,-866.82 472.16,-872.5"/>
<polygon fill="#63b8ff" stroke="#63b8ff" points="544.96,-857 553.74,-851.07 543.18,-850.23 544.96,-857"/>
</a>
</g>
</g>
<!-- Node10&#45;&gt;Node5 -->
<g id="edge79_Node000010_Node000005" class="edge">
<title>Node10&#45;&gt;Node5</title>
<g id="a_edge79_Node000010_Node000005"><a xlink:title=" ">
<path fill="none" stroke="#63b8ff" d="M516.22,-841.59C508.16,-841.69 500.06,-841.79 492.26,-841.89"/>
<polygon fill="#63b8ff" stroke="#63b8ff" points="516.08,-845.09 526.04,-841.47 515.99,-838.09 516.08,-845.09"/>
</a>
</g>
</g>
<!-- Node16 -->
<g id="Node000016" class="node">
<title>Node16</title>
<g id="a_Node000016"><a xlink:href="$class_rule.html#aff74987633d3452e001da9179c987e37" xlink:title=" ">
<polygon fill="white" stroke="#666666" points="643,-447.25 546,-447.25 546,-428 643,-428 643,-447.25"/>
<text text-anchor="middle" x="594.5" y="-433.75" font-family="Helvetica,sans-Serif" font-size="10.00">Rule\checkCriteria</text>
</a>
</g>
</g>
<!-- Node15&#45;&gt;Node16 -->
<g id="edge85_Node000015_Node000016" class="edge">
<title>Node15&#45;&gt;Node16</title>
<g id="a_edge85_Node000015_Node000016"><a xlink:title=" ">
<path fill="none" stroke="#63b8ff" d="M722.28,-437.62C696.77,-437.62 667.34,-437.62 643.27,-437.62"/>
<polygon fill="#63b8ff" stroke="#63b8ff" points="722.18,-441.13 732.18,-437.63 722.18,-434.13 722.18,-441.13"/>
</a>
</g>
</g>
<!-- Node17 -->
<g id="Node000017" class="node">
<title>Node17</title>
<g id="a_Node000017"><a xlink:href="$class_rule.html#a7114006cb1a1ea6571c9f0b199d7e270" xlink:title=" ">
<polygon fill="white" stroke="#666666" points="483.75,-428.25 381.5,-428.25 381.5,-409 483.75,-409 483.75,-428.25"/>
<text text-anchor="middle" x="432.62" y="-414.75" font-family="Helvetica,sans-Serif" font-size="10.00">Rule\checkCriterias</text>
</a>
</g>
</g>
<!-- Node16&#45;&gt;Node17 -->
<g id="edge86_Node000016_Node000017" class="edge">
<title>Node16&#45;&gt;Node17</title>
<g id="a_edge86_Node000016_Node000017"><a xlink:title=" ">
<path fill="none" stroke="#63b8ff" d="M534.34,-430.59C517.82,-428.63 500.02,-426.52 484.06,-424.62"/>
<polygon fill="#63b8ff" stroke="#63b8ff" points="533.69,-434.04 544.03,-431.75 534.51,-427.09 533.69,-434.04"/>
</a>
</g>
</g>
<!-- Node21 -->
<g id="Node000021" class="node">
<title>Node21</title>
<g id="a_Node000021"><a xlink:href="$class_rule.html#a0e4d05393f904b66c7efcda9ea069913" xlink:title=" ">
<polygon fill="white" stroke="#666666" points="320,-466.25 227.5,-466.25 227.5,-447 320,-447 320,-466.25"/>
<text text-anchor="middle" x="273.75" y="-452.75" font-family="Helvetica,sans-Serif" font-size="10.00">Rule\testCriterias</text>
</a>
</g>
</g>
<!-- Node16&#45;&gt;Node21 -->
<g id="edge90_Node000016_Node000021" class="edge">
<title>Node16&#45;&gt;Node21</title>
<g id="a_edge90_Node000016_Node000021"><a xlink:title=" ">
<path fill="none" stroke="#63b8ff" d="M534.65,-441.13C472.81,-444.82 376.85,-450.54 320.47,-453.9"/>
<polygon fill="#63b8ff" stroke="#63b8ff" points="534.5,-444.65 544.27,-440.56 534.08,-437.66 534.5,-444.65"/>
</a>
</g>
</g>
<!-- Node18 -->
<g id="Node000018" class="node">
<title>Node18</title>
<g id="a_Node000018"><a xlink:href="$class_rule.html#ae18b52044cf1a1ed8d485ad430efeedf" xlink:title=" ">
<polygon fill="white" stroke="#666666" points="310.62,-429.25 236.88,-429.25 236.88,-410 310.62,-410 310.62,-429.25"/>
<text text-anchor="middle" x="273.75" y="-415.75" font-family="Helvetica,sans-Serif" font-size="10.00">Rule\process</text>
</a>
</g>
</g>
<!-- Node17&#45;&gt;Node18 -->
<g id="edge87_Node000017_Node000018" class="edge">
<title>Node17&#45;&gt;Node18</title>
<g id="a_edge87_Node000017_Node000018"><a xlink:title=" ">
<path fill="none" stroke="#63b8ff" d="M369.86,-419.02C349.82,-419.15 328.26,-419.28 310.74,-419.4"/>
<polygon fill="#63b8ff" stroke="#63b8ff" points="369.63,-422.52 379.61,-418.96 369.59,-415.52 369.63,-422.52"/>
</a>
</g>
</g>
<!-- Node20 -->
<g id="Node000020" class="node">
<title>Node20</title>
<g id="a_Node000020"><a xlink:href="$class_rule_import_entity.html#ae18b52044cf1a1ed8d485ad430efeedf" xlink:title=" ">
<polygon fill="white" stroke="#666666" points="337.25,-392.25 210.25,-392.25 210.25,-373 337.25,-373 337.25,-392.25"/>
<text text-anchor="middle" x="273.75" y="-378.75" font-family="Helvetica,sans-Serif" font-size="10.00">RuleImportEntity\process</text>
</a>
</g>
</g>
<!-- Node17&#45;&gt;Node20 -->
<g id="edge89_Node000017_Node000020" class="edge">
<title>Node17&#45;&gt;Node20</title>
<g id="a_edge89_Node000017_Node000020"><a xlink:title=" ">
<path fill="none" stroke="#63b8ff" d="M376.36,-405.94C357.5,-401.61 336.67,-396.83 318.81,-392.74"/>
<polygon fill="#63b8ff" stroke="#63b8ff" points="375.5,-409.34 386.03,-408.16 377.07,-402.51 375.5,-409.34"/>
</a>
</g>
</g>
<!-- Node19 -->
<g id="Node000019" class="node">
<title>Node19</title>
<g id="a_Node000019"><a xlink:href="$class_rule.html#a09919e8ef47b2e296c4f8fafb93f565b" xlink:title=" ">
<polygon fill="white" stroke="#666666" points="174.25,-447.25 0,-447.25 0,-428 174.25,-428 174.25,-447.25"/>
<text text-anchor="middle" x="87.12" y="-433.75" font-family="Helvetica,sans-Serif" font-size="10.00">Rule\showRulePreviewResultsForm</text>
</a>
</g>
</g>
<!-- Node18&#45;&gt;Node19 -->
<g id="edge88_Node000018_Node000019" class="edge">
<title>Node18&#45;&gt;Node19</title>
<g id="a_edge88_Node000018_Node000019"><a xlink:title=" ">
<path fill="none" stroke="#63b8ff" d="M225.32,-424.25C209.8,-425.76 192.05,-427.49 174.57,-429.2"/>
<polygon fill="#63b8ff" stroke="#63b8ff" points="225.59,-427.74 235.21,-423.29 224.92,-420.77 225.59,-427.74"/>
</a>
</g>
</g>
<!-- Node21&#45;&gt;Node19 -->
<g id="edge91_Node000021_Node000019" class="edge">
<title>Node21&#45;&gt;Node19</title>
<g id="a_edge91_Node000021_Node000019"><a xlink:title=" ">
<path fill="none" stroke="#63b8ff" d="M215.94,-450.78C202.87,-449.43 188.67,-447.97 174.66,-446.53"/>
<polygon fill="#63b8ff" stroke="#63b8ff" points="215.3,-454.23 225.61,-451.77 216.02,-447.27 215.3,-454.23"/>
</a>
</g>
</g>
<!-- Node26 -->
<g id="Node000026" class="node">
<title>Node26</title>
<g id="a_Node000026"><a xlink:href="$class_certificate___item.html#af466512746a6caca8ee1556ed63fa2f3" xlink:title=" ">
<polygon fill="white" stroke="#666666" points="654.25,-252.88 534.75,-252.88 534.75,-222.38 654.25,-222.38 654.25,-252.88"/>
<text text-anchor="start" x="542.75" y="-239.38" font-family="Helvetica,sans-Serif" font-size="10.00">Certificate_Item\display</text>
<text text-anchor="middle" x="594.5" y="-228.12" font-family="Helvetica,sans-Serif" font-size="10.00">TabContentForItem</text>
</a>
</g>
</g>
<!-- Node25&#45;&gt;Node26 -->
<g id="edge96_Node000025_Node000026" class="edge">
<title>Node25&#45;&gt;Node26</title>
<g id="a_edge96_Node000025_Node000026"><a xlink:title=" ">
<path fill="none" stroke="#63b8ff" d="M707.72,-237.62C690.11,-237.62 671.54,-237.62 654.68,-237.62"/>
<polygon fill="#63b8ff" stroke="#63b8ff" points="707.62,-241.13 717.62,-237.63 707.62,-234.13 707.62,-241.13"/>
</a>
</g>
</g>
</g>
</svg>
