<?xml version="1.0" encoding="UTF-8" standalone="no"?>
<!DOCTYPE svg PUBLIC "-//W3C//DTD SVG 1.1//EN"
 "http://www.w3.org/Graphics/SVG/1.1/DTD/svg11.dtd">
<!-- Generated by graphviz version 10.0.1 (20240210.2158)
 -->
<!-- Title: StreamFactoryInterface Pages: 1 -->
<svg width="149pt" height="131pt"
 viewBox="0.00 0.00 149.00 131.00" xmlns="http://www.w3.org/2000/svg" xmlns:xlink="http://www.w3.org/1999/xlink">
<g id="graph0" class="graph" transform="scale(1 1) rotate(0) translate(4 127)">
<title>StreamFactoryInterface</title>
<!-- Node1 -->
<g id="Node000001" class="node">
<title>Node1</title>
<g id="a_Node000001"><a xlink:title=" ">
<polygon fill="#999999" stroke="none" points="141,-123 0,-123 0,0 141,0 141,-123"/>
<text text-anchor="start" x="19.12" y="-109.5" font-family="Helvetica,sans-Serif" font-size="10.00">StreamFactoryInterface</text>
<text text-anchor="start" x="69" y="-94.5" font-family="Helvetica,sans-Serif" font-size="10.00"> </text>
<text text-anchor="start" x="4" y="-79.5" font-family="Helvetica,sans-Serif" font-size="10.00">+</text>
<text text-anchor="start" x="14" y="-79.5" font-family="Helvetica,sans-Serif" font-size="10.00">createStream(string</text>
<text text-anchor="start" x="14" y="-68.25" font-family="Helvetica,sans-Serif" font-size="10.00"> $content=&#39;&#39;)</text>
<text text-anchor="start" x="4" y="-53.5" font-family="Helvetica,sans-Serif" font-size="10.00">+</text>
<text text-anchor="start" x="14" y="-53.5" font-family="Helvetica,sans-Serif" font-size="10.00">createStreamFromFile</text>
<text text-anchor="start" x="14" y="-42.25" font-family="Helvetica,sans-Serif" font-size="10.00">(string $filename, string</text>
<text text-anchor="start" x="14" y="-31" font-family="Helvetica,sans-Serif" font-size="10.00"> $mode=&#39;r&#39;)</text>
<text text-anchor="start" x="4" y="-16.5" font-family="Helvetica,sans-Serif" font-size="10.00">+</text>
<text text-anchor="start" x="14" y="-16.5" font-family="Helvetica,sans-Serif" font-size="10.00">createStreamFromResource</text>
<text text-anchor="start" x="14" y="-5.25" font-family="Helvetica,sans-Serif" font-size="10.00">($resource)</text>
<polygon fill="#666666" stroke="#666666" points="0,-106 0,-106 141,-106 141,-106 0,-106"/>
<polygon fill="#666666" stroke="#666666" points="0,-91 0,-91 141,-91 141,-91 0,-91"/>
<polygon fill="none" stroke="#666666" points="0,0 0,-123 141,-123 141,0 0,0"/>
</a>
</g>
</g>
</g>
</svg>
