<?xml version="1.0" encoding="UTF-8" standalone="no"?>
<!DOCTYPE svg PUBLIC "-//W3C//DTD SVG 1.1//EN"
 "http://www.w3.org/Graphics/SVG/1.1/DTD/svg11.dtd">
<!-- Generated by graphviz version 10.0.1 (20240210.2158)
 -->
<!-- Title: HandlerInterface Pages: 1 -->
<svg width="938pt" height="201pt"
 viewBox="0.00 0.00 938.00 201.00" xmlns="http://www.w3.org/2000/svg" xmlns:xlink="http://www.w3.org/1999/xlink">
<g id="graph0" class="graph" transform="scale(1 1) rotate(0) translate(4 197)">
<title>HandlerInterface</title>
<!-- Node1 -->
<g id="Node000001" class="node">
<title>Node1</title>
<g id="a_Node000001"><a xlink:title=" ">
<polygon fill="#999999" stroke="none" points="525,-193 405,-193 405,-133 525,-133 525,-193"/>
<text text-anchor="start" x="429" y="-179.5" font-family="Helvetica,sans-Serif" font-size="10.00">HandlerInterface</text>
<text text-anchor="start" x="463.5" y="-164.5" font-family="Helvetica,sans-Serif" font-size="10.00"> </text>
<text text-anchor="start" x="409" y="-149.5" font-family="Helvetica,sans-Serif" font-size="10.00">+</text>
<text text-anchor="start" x="419" y="-149.5" font-family="Helvetica,sans-Serif" font-size="10.00">handle(Reader $reader,</text>
<text text-anchor="start" x="419" y="-138.25" font-family="Helvetica,sans-Serif" font-size="10.00"> TokenStream $stream)</text>
<polygon fill="#666666" stroke="#666666" points="405,-176 405,-176 525,-176 525,-176 405,-176"/>
<polygon fill="#666666" stroke="#666666" points="405,-161 405,-161 525,-161 525,-161 405,-161"/>
<polygon fill="none" stroke="#666666" points="405,-133 405,-193 525,-193 525,-133 405,-133"/>
</a>
</g>
</g>
<!-- Node2 -->
<g id="Node000002" class="node">
<title>Node2</title>
<g id="a_Node000002"><a xlink:href="$class_symfony_1_1_component_1_1_css_selector_1_1_parser_1_1_handler_1_1_comment_handler.html" xlink:title=" ">
<polygon fill="white" stroke="none" points="120,-78.5 0,-78.5 0,-18.5 120,-18.5 120,-78.5"/>
<text text-anchor="start" x="21.75" y="-65" font-family="Helvetica,sans-Serif" font-size="10.00">CommentHandler</text>
<text text-anchor="start" x="58.5" y="-50" font-family="Helvetica,sans-Serif" font-size="10.00"> </text>
<text text-anchor="start" x="4" y="-35" font-family="Helvetica,sans-Serif" font-size="10.00">+</text>
<text text-anchor="start" x="14" y="-35" font-family="Helvetica,sans-Serif" font-size="10.00">handle(Reader $reader,</text>
<text text-anchor="start" x="14" y="-23.75" font-family="Helvetica,sans-Serif" font-size="10.00"> TokenStream $stream)</text>
<polygon fill="#666666" stroke="#666666" points="0,-61.5 0,-61.5 120,-61.5 120,-61.5 0,-61.5"/>
<polygon fill="#666666" stroke="#666666" points="0,-46.5 0,-46.5 120,-46.5 120,-46.5 0,-46.5"/>
<polygon fill="none" stroke="#666666" points="0,-18.5 0,-78.5 120,-78.5 120,-18.5 0,-18.5"/>
</a>
</g>
</g>
<!-- Node1&#45;&gt;Node2 -->
<g id="edge13_Node000001_Node000002" class="edge">
<title>Node1&#45;&gt;Node2</title>
<g id="a_edge13_Node000001_Node000002"><a xlink:title=" ">
<path fill="none" stroke="#63b8ff" d="M393.92,-156.76C324.18,-149.69 215.94,-133.45 129,-97 117.6,-92.22 106.16,-85.38 95.97,-78.37"/>
<polygon fill="none" stroke="#63b8ff" points="393.4,-160.23 403.7,-157.72 394.08,-153.26 393.4,-160.23"/>
</a>
</g>
</g>
<!-- Node3 -->
<g id="Node000003" class="node">
<title>Node3</title>
<g id="a_Node000003"><a xlink:href="$class_symfony_1_1_component_1_1_css_selector_1_1_parser_1_1_handler_1_1_hash_handler.html" xlink:title=" ">
<polygon fill="white" stroke="none" points="288,-97 138,-97 138,0 288,0 288,-97"/>
<text text-anchor="start" x="184.5" y="-83.5" font-family="Helvetica,sans-Serif" font-size="10.00">HashHandler</text>
<text text-anchor="start" x="211.5" y="-68.5" font-family="Helvetica,sans-Serif" font-size="10.00"> </text>
<text text-anchor="start" x="142" y="-53.5" font-family="Helvetica,sans-Serif" font-size="10.00">+</text>
<text text-anchor="start" x="152" y="-53.5" font-family="Helvetica,sans-Serif" font-size="10.00">__construct(TokenizerPatterns</text>
<text text-anchor="start" x="152" y="-42.25" font-family="Helvetica,sans-Serif" font-size="10.00"> $patterns, TokenizerEscaping</text>
<text text-anchor="start" x="152" y="-31" font-family="Helvetica,sans-Serif" font-size="10.00"> $escaping)</text>
<text text-anchor="start" x="142" y="-16.5" font-family="Helvetica,sans-Serif" font-size="10.00">+</text>
<text text-anchor="start" x="152" y="-16.5" font-family="Helvetica,sans-Serif" font-size="10.00">handle(Reader $reader,</text>
<text text-anchor="start" x="152" y="-5.25" font-family="Helvetica,sans-Serif" font-size="10.00"> TokenStream $stream)</text>
<polygon fill="#666666" stroke="#666666" points="138,-80 138,-80 288,-80 288,-80 138,-80"/>
<polygon fill="#666666" stroke="#666666" points="138,-65 138,-65 288,-65 288,-65 138,-65"/>
<polygon fill="none" stroke="#666666" points="138,0 138,-97 288,-97 288,0 138,0"/>
</a>
</g>
</g>
<!-- Node1&#45;&gt;Node3 -->
<g id="edge14_Node000001_Node000003" class="edge">
<title>Node1&#45;&gt;Node3</title>
<g id="a_edge14_Node000001_Node000003"><a xlink:title=" ">
<path fill="none" stroke="#63b8ff" d="M394.5,-137.33C364.08,-126.02 328.36,-111.84 297,-97 293.97,-95.57 290.9,-94.07 287.82,-92.52"/>
<polygon fill="none" stroke="#63b8ff" points="393.01,-140.51 403.6,-140.68 395.43,-133.94 393.01,-140.51"/>
</a>
</g>
</g>
<!-- Node4 -->
<g id="Node000004" class="node">
<title>Node4</title>
<g id="a_Node000004"><a xlink:href="$class_symfony_1_1_component_1_1_css_selector_1_1_parser_1_1_handler_1_1_identifier_handler.html" xlink:title=" ">
<polygon fill="white" stroke="none" points="456,-97 306,-97 306,0 456,0 456,-97"/>
<text text-anchor="start" x="345.38" y="-83.5" font-family="Helvetica,sans-Serif" font-size="10.00">IdentifierHandler</text>
<text text-anchor="start" x="379.5" y="-68.5" font-family="Helvetica,sans-Serif" font-size="10.00"> </text>
<text text-anchor="start" x="310" y="-53.5" font-family="Helvetica,sans-Serif" font-size="10.00">+</text>
<text text-anchor="start" x="320" y="-53.5" font-family="Helvetica,sans-Serif" font-size="10.00">__construct(TokenizerPatterns</text>
<text text-anchor="start" x="320" y="-42.25" font-family="Helvetica,sans-Serif" font-size="10.00"> $patterns, TokenizerEscaping</text>
<text text-anchor="start" x="320" y="-31" font-family="Helvetica,sans-Serif" font-size="10.00"> $escaping)</text>
<text text-anchor="start" x="310" y="-16.5" font-family="Helvetica,sans-Serif" font-size="10.00">+</text>
<text text-anchor="start" x="320" y="-16.5" font-family="Helvetica,sans-Serif" font-size="10.00">handle(Reader $reader,</text>
<text text-anchor="start" x="320" y="-5.25" font-family="Helvetica,sans-Serif" font-size="10.00"> TokenStream $stream)</text>
<polygon fill="#666666" stroke="#666666" points="306,-80 306,-80 456,-80 456,-80 306,-80"/>
<polygon fill="#666666" stroke="#666666" points="306,-65 306,-65 456,-65 456,-65 306,-65"/>
<polygon fill="none" stroke="#666666" points="306,0 306,-97 456,-97 456,0 306,0"/>
</a>
</g>
</g>
<!-- Node1&#45;&gt;Node4 -->
<g id="edge15_Node000001_Node000004" class="edge">
<title>Node1&#45;&gt;Node4</title>
<g id="a_edge15_Node000001_Node000004"><a xlink:title=" ">
<path fill="none" stroke="#63b8ff" d="M436.52,-123.86C430.01,-115.14 423.01,-105.76 416.25,-96.7"/>
<polygon fill="none" stroke="#63b8ff" points="433.67,-125.9 442.46,-131.82 439.28,-121.71 433.67,-125.9"/>
</a>
</g>
</g>
<!-- Node5 -->
<g id="Node000005" class="node">
<title>Node5</title>
<g id="a_Node000005"><a xlink:href="$class_symfony_1_1_component_1_1_css_selector_1_1_parser_1_1_handler_1_1_number_handler.html" xlink:title=" ">
<polygon fill="white" stroke="none" points="624,-91.5 474,-91.5 474,-5.5 624,-5.5 624,-91.5"/>
<text text-anchor="start" x="514.88" y="-78" font-family="Helvetica,sans-Serif" font-size="10.00">NumberHandler</text>
<text text-anchor="start" x="547.5" y="-63" font-family="Helvetica,sans-Serif" font-size="10.00"> </text>
<text text-anchor="start" x="478" y="-48" font-family="Helvetica,sans-Serif" font-size="10.00">+</text>
<text text-anchor="start" x="488" y="-48" font-family="Helvetica,sans-Serif" font-size="10.00">__construct(TokenizerPatterns</text>
<text text-anchor="start" x="488" y="-36.75" font-family="Helvetica,sans-Serif" font-size="10.00"> $patterns)</text>
<text text-anchor="start" x="478" y="-22" font-family="Helvetica,sans-Serif" font-size="10.00">+</text>
<text text-anchor="start" x="488" y="-22" font-family="Helvetica,sans-Serif" font-size="10.00">handle(Reader $reader,</text>
<text text-anchor="start" x="488" y="-10.75" font-family="Helvetica,sans-Serif" font-size="10.00"> TokenStream $stream)</text>
<polygon fill="#666666" stroke="#666666" points="474,-74.5 474,-74.5 624,-74.5 624,-74.5 474,-74.5"/>
<polygon fill="#666666" stroke="#666666" points="474,-59.5 474,-59.5 624,-59.5 624,-59.5 474,-59.5"/>
<polygon fill="none" stroke="#666666" points="474,-5.5 474,-91.5 624,-91.5 624,-5.5 474,-5.5"/>
</a>
</g>
</g>
<!-- Node1&#45;&gt;Node5 -->
<g id="edge16_Node000001_Node000005" class="edge">
<title>Node1&#45;&gt;Node5</title>
<g id="a_edge16_Node000001_Node000005"><a xlink:title=" ">
<path fill="none" stroke="#63b8ff" d="M493.36,-124.02C501.26,-113.43 509.89,-101.88 517.94,-91.1"/>
<polygon fill="none" stroke="#63b8ff" points="490.72,-121.71 487.54,-131.82 496.33,-125.9 490.72,-121.71"/>
</a>
</g>
</g>
<!-- Node6 -->
<g id="Node000006" class="node">
<title>Node6</title>
<g id="a_Node000006"><a xlink:href="$class_symfony_1_1_component_1_1_css_selector_1_1_parser_1_1_handler_1_1_string_handler.html" xlink:title=" ">
<polygon fill="white" stroke="none" points="792,-97 642,-97 642,0 792,0 792,-97"/>
<text text-anchor="start" x="687.38" y="-83.5" font-family="Helvetica,sans-Serif" font-size="10.00">StringHandler</text>
<text text-anchor="start" x="715.5" y="-68.5" font-family="Helvetica,sans-Serif" font-size="10.00"> </text>
<text text-anchor="start" x="646" y="-53.5" font-family="Helvetica,sans-Serif" font-size="10.00">+</text>
<text text-anchor="start" x="656" y="-53.5" font-family="Helvetica,sans-Serif" font-size="10.00">__construct(TokenizerPatterns</text>
<text text-anchor="start" x="656" y="-42.25" font-family="Helvetica,sans-Serif" font-size="10.00"> $patterns, TokenizerEscaping</text>
<text text-anchor="start" x="656" y="-31" font-family="Helvetica,sans-Serif" font-size="10.00"> $escaping)</text>
<text text-anchor="start" x="646" y="-16.5" font-family="Helvetica,sans-Serif" font-size="10.00">+</text>
<text text-anchor="start" x="656" y="-16.5" font-family="Helvetica,sans-Serif" font-size="10.00">handle(Reader $reader,</text>
<text text-anchor="start" x="656" y="-5.25" font-family="Helvetica,sans-Serif" font-size="10.00"> TokenStream $stream)</text>
<polygon fill="#666666" stroke="#666666" points="642,-80 642,-80 792,-80 792,-80 642,-80"/>
<polygon fill="#666666" stroke="#666666" points="642,-65 642,-65 792,-65 792,-65 642,-65"/>
<polygon fill="none" stroke="#666666" points="642,0 642,-97 792,-97 792,0 642,0"/>
</a>
</g>
</g>
<!-- Node1&#45;&gt;Node6 -->
<g id="edge17_Node000001_Node000006" class="edge">
<title>Node1&#45;&gt;Node6</title>
<g id="a_edge17_Node000001_Node000006"><a xlink:title=" ">
<path fill="none" stroke="#63b8ff" d="M535.5,-137.33C565.92,-126.02 601.64,-111.84 633,-97 636.03,-95.57 639.1,-94.07 642.18,-92.52"/>
<polygon fill="none" stroke="#63b8ff" points="534.57,-133.94 526.4,-140.68 536.99,-140.51 534.57,-133.94"/>
</a>
</g>
</g>
<!-- Node7 -->
<g id="Node000007" class="node">
<title>Node7</title>
<g id="a_Node000007"><a xlink:href="$class_symfony_1_1_component_1_1_css_selector_1_1_parser_1_1_handler_1_1_whitespace_handler.html" xlink:title=" ">
<polygon fill="white" stroke="none" points="930,-78.5 810,-78.5 810,-18.5 930,-18.5 930,-78.5"/>
<text text-anchor="start" x="827.25" y="-65" font-family="Helvetica,sans-Serif" font-size="10.00">WhitespaceHandler</text>
<text text-anchor="start" x="868.5" y="-50" font-family="Helvetica,sans-Serif" font-size="10.00"> </text>
<text text-anchor="start" x="814" y="-35" font-family="Helvetica,sans-Serif" font-size="10.00">+</text>
<text text-anchor="start" x="824" y="-35" font-family="Helvetica,sans-Serif" font-size="10.00">handle(Reader $reader,</text>
<text text-anchor="start" x="824" y="-23.75" font-family="Helvetica,sans-Serif" font-size="10.00"> TokenStream $stream)</text>
<polygon fill="#666666" stroke="#666666" points="810,-61.5 810,-61.5 930,-61.5 930,-61.5 810,-61.5"/>
<polygon fill="#666666" stroke="#666666" points="810,-46.5 810,-46.5 930,-46.5 930,-46.5 810,-46.5"/>
<polygon fill="none" stroke="#666666" points="810,-18.5 810,-78.5 930,-78.5 930,-18.5 810,-18.5"/>
</a>
</g>
</g>
<!-- Node1&#45;&gt;Node7 -->
<g id="edge18_Node000001_Node000007" class="edge">
<title>Node1&#45;&gt;Node7</title>
<g id="a_edge18_Node000001_Node000007"><a xlink:title=" ">
<path fill="none" stroke="#63b8ff" d="M536.08,-156.76C605.82,-149.69 714.06,-133.45 801,-97 812.4,-92.22 823.84,-85.38 834.03,-78.37"/>
<polygon fill="none" stroke="#63b8ff" points="535.92,-153.26 526.3,-157.72 536.6,-160.23 535.92,-153.26"/>
</a>
</g>
</g>
</g>
</svg>
