<?xml version="1.0" encoding="UTF-8" standalone="no"?>
<!DOCTYPE svg PUBLIC "-//W3C//DTD SVG 1.1//EN"
 "http://www.w3.org/Graphics/SVG/1.1/DTD/svg11.dtd">
<!-- Generated by graphviz version 10.0.1 (20240210.2158)
 -->
<!-- Title: CookieJarInterface Pages: 1 -->
<svg width="204pt" height="283pt"
 viewBox="0.00 0.00 204.00 283.00" xmlns="http://www.w3.org/2000/svg" xmlns:xlink="http://www.w3.org/1999/xlink">
<g id="graph0" class="graph" transform="scale(1 1) rotate(0) translate(4 279)">
<title>CookieJarInterface</title>
<!-- Node1 -->
<g id="Node000001" class="node">
<title>Node1</title>
<g id="a_Node000001"><a xlink:title=" ">
<polygon fill="#999999" stroke="none" points="162,-190 0,-190 0,0 162,0 162,-190"/>
<text text-anchor="start" x="39.75" y="-176.5" font-family="Helvetica,sans-Serif" font-size="10.00">CookieJarInterface</text>
<text text-anchor="start" x="79.5" y="-161.5" font-family="Helvetica,sans-Serif" font-size="10.00"> </text>
<text text-anchor="start" x="4" y="-146.5" font-family="Helvetica,sans-Serif" font-size="10.00">+</text>
<text text-anchor="start" x="14" y="-146.5" font-family="Helvetica,sans-Serif" font-size="10.00">withCookieHeader(Request</text>
<text text-anchor="start" x="14" y="-135.25" font-family="Helvetica,sans-Serif" font-size="10.00">Interface $request)</text>
<text text-anchor="start" x="4" y="-120.5" font-family="Helvetica,sans-Serif" font-size="10.00">+</text>
<text text-anchor="start" x="14" y="-120.5" font-family="Helvetica,sans-Serif" font-size="10.00">extractCookies(RequestInterface</text>
<text text-anchor="start" x="14" y="-109.25" font-family="Helvetica,sans-Serif" font-size="10.00"> $request, ResponseInterface</text>
<text text-anchor="start" x="14" y="-98" font-family="Helvetica,sans-Serif" font-size="10.00"> $response)</text>
<text text-anchor="start" x="4" y="-83.5" font-family="Helvetica,sans-Serif" font-size="10.00">+</text>
<text text-anchor="start" x="14" y="-83.5" font-family="Helvetica,sans-Serif" font-size="10.00">setCookie(SetCookie</text>
<text text-anchor="start" x="14" y="-72.25" font-family="Helvetica,sans-Serif" font-size="10.00"> $cookie)</text>
<text text-anchor="start" x="4" y="-57.5" font-family="Helvetica,sans-Serif" font-size="10.00">+</text>
<text text-anchor="start" x="14" y="-57.5" font-family="Helvetica,sans-Serif" font-size="10.00">clear(?string $domain</text>
<text text-anchor="start" x="14" y="-46.25" font-family="Helvetica,sans-Serif" font-size="10.00">=null, ?string $path=null,</text>
<text text-anchor="start" x="14" y="-35" font-family="Helvetica,sans-Serif" font-size="10.00"> ?string $name=null)</text>
<text text-anchor="start" x="4" y="-20.5" font-family="Helvetica,sans-Serif" font-size="10.00">+</text>
<text text-anchor="start" x="14" y="-20.5" font-family="Helvetica,sans-Serif" font-size="10.00">clearSessionCookies()</text>
<text text-anchor="start" x="4" y="-5.5" font-family="Helvetica,sans-Serif" font-size="10.00">+</text>
<text text-anchor="start" x="14" y="-5.5" font-family="Helvetica,sans-Serif" font-size="10.00">toArray()</text>
<polygon fill="#666666" stroke="#666666" points="0,-173 0,-173 162,-173 162,-173 0,-173"/>
<polygon fill="#666666" stroke="#666666" points="0,-158 0,-158 162,-158 162,-158 0,-158"/>
<polygon fill="none" stroke="#666666" points="0,0 0,-190 162,-190 162,0 0,0"/>
</a>
</g>
</g>
<!-- Node2 -->
<g id="Node000002" class="node">
<title>Node2</title>
<g id="a_Node000002"><a xlink:title=" ">
<polygon fill="white" stroke="none" points="123.5,-275 38.5,-275 38.5,-226 123.5,-226 123.5,-275"/>
<text text-anchor="start" x="43.5" y="-261.5" font-family="Helvetica,sans-Serif" font-size="10.00">IteratorAggregate</text>
<text text-anchor="start" x="79.5" y="-246.5" font-family="Helvetica,sans-Serif" font-size="10.00"> </text>
<text text-anchor="start" x="79.5" y="-231.5" font-family="Helvetica,sans-Serif" font-size="10.00"> </text>
<polygon fill="#666666" stroke="#666666" points="38.5,-258 38.5,-258 123.5,-258 123.5,-258 38.5,-258"/>
<polygon fill="#666666" stroke="#666666" points="38.5,-243 38.5,-243 123.5,-243 123.5,-243 38.5,-243"/>
<polygon fill="none" stroke="#666666" points="38.5,-226 38.5,-275 123.5,-275 123.5,-226 38.5,-226"/>
</a>
</g>
</g>
<!-- Node2&#45;&gt;Node1 -->
<g id="edge7_Node000001_Node000002" class="edge">
<title>Node2&#45;&gt;Node1</title>
<g id="a_edge7_Node000001_Node000002"><a xlink:title=" ">
<path fill="none" stroke="#63b8ff" d="M75.25,-214.82C74.84,-207.1 74.56,-198.57 74.4,-189.72"/>
<polygon fill="none" stroke="#63b8ff" points="71.75,-214.93 75.89,-224.68 78.73,-214.47 71.75,-214.93"/>
</a>
</g>
</g>
<!-- Node2&#45;&gt;Node1 -->
<g id="edge9_Node000001_Node000002" class="edge">
<title>Node2&#45;&gt;Node1</title>
<g id="a_edge9_Node000001_Node000002"><a xlink:title=" ">
<path fill="none" stroke="#63b8ff" d="M86.75,-214.82C87.16,-207.1 87.44,-198.57 87.6,-189.72"/>
<polygon fill="none" stroke="#63b8ff" points="83.27,-214.47 86.11,-224.68 90.25,-214.93 83.27,-214.47"/>
</a>
</g>
</g>
<!-- Node3 -->
<g id="Node000003" class="node">
<title>Node3</title>
<g id="a_Node000003"><a xlink:title=" ">
<polygon fill="white" stroke="none" points="196,-275 142,-275 142,-226 196,-226 196,-275"/>
<text text-anchor="start" x="146.88" y="-261.5" font-family="Helvetica,sans-Serif" font-size="10.00">Countable</text>
<text text-anchor="start" x="167.5" y="-246.5" font-family="Helvetica,sans-Serif" font-size="10.00"> </text>
<text text-anchor="start" x="167.5" y="-231.5" font-family="Helvetica,sans-Serif" font-size="10.00"> </text>
<polygon fill="#666666" stroke="#666666" points="142,-258 142,-258 196,-258 196,-258 142,-258"/>
<polygon fill="#666666" stroke="#666666" points="142,-243 142,-243 196,-243 196,-243 142,-243"/>
<polygon fill="none" stroke="#666666" points="142,-226 142,-275 196,-275 196,-226 142,-226"/>
</a>
</g>
</g>
<!-- Node3&#45;&gt;Node1 -->
<g id="edge8_Node000001_Node000003" class="edge">
<title>Node3&#45;&gt;Node1</title>
<g id="a_edge8_Node000001_Node000003"><a xlink:title=" ">
<path fill="none" stroke="#63b8ff" d="M150.06,-216.46C145.39,-208.32 140.17,-199.2 134.73,-189.72"/>
<polygon fill="none" stroke="#63b8ff" points="146.87,-217.94 154.88,-224.87 152.94,-214.46 146.87,-217.94"/>
</a>
</g>
</g>
</g>
</svg>
