<?xml version="1.0" encoding="UTF-8" standalone="no"?>
<!DOCTYPE svg PUBLIC "-//W3C//DTD SVG 1.1//EN"
 "http://www.w3.org/Graphics/SVG/1.1/DTD/svg11.dtd">
<!-- Generated by graphviz version 10.0.1 (20240210.2158)
 -->
<!-- Title: TagAwareAdapterInterface Pages: 1 -->
<svg width="631pt" height="1062pt"
 viewBox="0.00 0.00 631.00 1062.00" xmlns="http://www.w3.org/2000/svg" xmlns:xlink="http://www.w3.org/1999/xlink">
<g id="graph0" class="graph" transform="scale(1 1) rotate(0) translate(4 1058)">
<title>TagAwareAdapterInterface</title>
<!-- Node1 -->
<g id="Node000001" class="node">
<title>Node1</title>
<g id="a_Node000001"><a xlink:title=" ">
<polygon fill="#999999" stroke="none" points="418,-690 293,-690 293,-630 418,-630 418,-690"/>
<text text-anchor="start" x="297.75" y="-676.5" font-family="Helvetica,sans-Serif" font-size="10.00">TagAwareAdapterInterface</text>
<text text-anchor="start" x="354" y="-661.5" font-family="Helvetica,sans-Serif" font-size="10.00"> </text>
<text text-anchor="start" x="302" y="-646.5" font-family="Helvetica,sans-Serif" font-size="10.00">+</text>
<text text-anchor="start" x="317" y="-646.5" font-family="Helvetica,sans-Serif" font-size="10.00">invalidateTags(array</text>
<text text-anchor="start" x="317" y="-635.25" font-family="Helvetica,sans-Serif" font-size="10.00"> $tags)</text>
<polygon fill="#666666" stroke="#666666" points="293,-673 293,-673 418,-673 418,-673 293,-673"/>
<polygon fill="#666666" stroke="#666666" points="293,-658 293,-658 418,-658 418,-658 293,-658"/>
<polygon fill="none" stroke="#666666" points="293,-630 293,-690 418,-690 418,-630 293,-630"/>
</a>
</g>
</g>
<!-- Node4 -->
<g id="Node000004" class="node">
<title>Node4</title>
<g id="a_Node000004"><a xlink:href="$class_symfony_1_1_component_1_1_cache_1_1_adapter_1_1_abstract_tag_aware_adapter.html" xlink:title=" ">
<polygon fill="white" stroke="none" points="236.5,-573 112.5,-573 112.5,-293 236.5,-293 236.5,-573"/>
<text text-anchor="start" x="117.5" y="-559.5" font-family="Helvetica,sans-Serif" font-size="10.00">AbstractTagAwareAdapter</text>
<text text-anchor="start" x="173" y="-544.5" font-family="Helvetica,sans-Serif" font-size="10.00"> </text>
<text text-anchor="start" x="118" y="-529.5" font-family="Helvetica,sans-Serif" font-size="10.00">+</text>
<text text-anchor="start" x="129.5" y="-529.5" font-family="Helvetica,sans-Serif" font-size="10.00">commit()</text>
<text text-anchor="start" x="118" y="-514.5" font-family="Helvetica,sans-Serif" font-size="10.00">+</text>
<text text-anchor="start" x="129.5" y="-514.5" font-family="Helvetica,sans-Serif" font-size="10.00">deleteItems(array</text>
<text text-anchor="start" x="129.5" y="-503.25" font-family="Helvetica,sans-Serif" font-size="10.00"> $keys)</text>
<text text-anchor="start" x="118" y="-488.5" font-family="Helvetica,sans-Serif" font-size="10.00">+</text>
<text text-anchor="start" x="129.5" y="-488.5" font-family="Helvetica,sans-Serif" font-size="10.00">invalidateTags(array</text>
<text text-anchor="start" x="129.5" y="-477.25" font-family="Helvetica,sans-Serif" font-size="10.00"> $tags)</text>
<text text-anchor="start" x="118.38" y="-462.5" font-family="Helvetica,sans-Serif" font-size="10.00">#</text>
<text text-anchor="start" x="129.5" y="-462.5" font-family="Helvetica,sans-Serif" font-size="10.00">__construct(string</text>
<text text-anchor="start" x="129.5" y="-451.25" font-family="Helvetica,sans-Serif" font-size="10.00"> $namespace=&#39;&#39;, int</text>
<text text-anchor="start" x="129.5" y="-440" font-family="Helvetica,sans-Serif" font-size="10.00"> $defaultLifetime=0)</text>
<text text-anchor="start" x="118.38" y="-425.5" font-family="Helvetica,sans-Serif" font-size="10.00">#</text>
<text text-anchor="start" x="129.5" y="-425.5" font-family="Helvetica,sans-Serif" font-size="10.00">doSave(array $values,</text>
<text text-anchor="start" x="129.5" y="-414.25" font-family="Helvetica,sans-Serif" font-size="10.00"> int $lifetime, array</text>
<text text-anchor="start" x="129.5" y="-403" font-family="Helvetica,sans-Serif" font-size="10.00"> $addTagData=[], array</text>
<text text-anchor="start" x="129.5" y="-391.75" font-family="Helvetica,sans-Serif" font-size="10.00"> $removeTagData=[])</text>
<text text-anchor="start" x="118.38" y="-376.5" font-family="Helvetica,sans-Serif" font-size="10.00">#</text>
<text text-anchor="start" x="129.5" y="-376.5" font-family="Helvetica,sans-Serif" font-size="10.00">doDelete(array $ids)</text>
<text text-anchor="start" x="118.38" y="-361.5" font-family="Helvetica,sans-Serif" font-size="10.00">#</text>
<text text-anchor="start" x="129.5" y="-361.5" font-family="Helvetica,sans-Serif" font-size="10.00">doDeleteTagRelations</text>
<text text-anchor="start" x="129.5" y="-350.25" font-family="Helvetica,sans-Serif" font-size="10.00">(array $tagData)</text>
<text text-anchor="start" x="118.38" y="-335.5" font-family="Helvetica,sans-Serif" font-size="10.00">#</text>
<text text-anchor="start" x="129.5" y="-335.5" font-family="Helvetica,sans-Serif" font-size="10.00">doInvalidate(array</text>
<text text-anchor="start" x="129.5" y="-324.25" font-family="Helvetica,sans-Serif" font-size="10.00"> $tagIds)</text>
<text text-anchor="start" x="118.38" y="-309.5" font-family="Helvetica,sans-Serif" font-size="10.00">#</text>
<text text-anchor="start" x="129.5" y="-309.5" font-family="Helvetica,sans-Serif" font-size="10.00">doDeleteYieldTags</text>
<text text-anchor="start" x="129.5" y="-298.25" font-family="Helvetica,sans-Serif" font-size="10.00">(array $ids)</text>
<polygon fill="#666666" stroke="#666666" points="112.5,-556 112.5,-556 236.5,-556 236.5,-556 112.5,-556"/>
<polygon fill="#666666" stroke="#666666" points="112.5,-541 112.5,-541 236.5,-541 236.5,-541 112.5,-541"/>
<polygon fill="none" stroke="#666666" points="112.5,-293 112.5,-573 236.5,-573 236.5,-293 112.5,-293"/>
</a>
</g>
</g>
<!-- Node1&#45;&gt;Node4 -->
<g id="edge17_Node000001_Node000004" class="edge">
<title>Node1&#45;&gt;Node4</title>
<g id="a_edge17_Node000001_Node000004"><a xlink:title=" ">
<path fill="none" stroke="#63b8ff" d="M283.58,-625.28C269.73,-616.5 256.23,-606.05 245.5,-594 239.64,-587.42 234.2,-580.27 229.15,-572.78"/>
<polygon fill="none" stroke="#63b8ff" points="281.52,-628.13 291.89,-630.31 285.15,-622.14 281.52,-628.13"/>
</a>
</g>
</g>
<!-- Node7 -->
<g id="Node000007" class="node">
<title>Node7</title>
<g id="a_Node000007"><a xlink:href="$class_symfony_1_1_component_1_1_cache_1_1_adapter_1_1_tag_aware_adapter.html" xlink:title=" ">
<polygon fill="white" stroke="none" points="456,-594 255,-594 255,-272 456,-272 456,-594"/>
<text text-anchor="start" x="316.88" y="-580.5" font-family="Helvetica,sans-Serif" font-size="10.00">TagAwareAdapter</text>
<text text-anchor="start" x="259" y="-565.5" font-family="Helvetica,sans-Serif" font-size="10.00">+</text>
<text text-anchor="start" x="269" y="-565.5" font-family="Helvetica,sans-Serif" font-size="10.00">const TAGS_PREFIX</text>
<text text-anchor="start" x="259" y="-550.5" font-family="Helvetica,sans-Serif" font-size="10.00">+</text>
<text text-anchor="start" x="269" y="-550.5" font-family="Helvetica,sans-Serif" font-size="10.00">__construct(AdapterInterface</text>
<text text-anchor="start" x="269" y="-539.25" font-family="Helvetica,sans-Serif" font-size="10.00"> $itemsPool, AdapterInterface</text>
<text text-anchor="start" x="269" y="-528" font-family="Helvetica,sans-Serif" font-size="10.00"> $tagsPool=null, float $knownTagVersions</text>
<text text-anchor="start" x="269" y="-516.75" font-family="Helvetica,sans-Serif" font-size="10.00">Ttl=0.15)</text>
<text text-anchor="start" x="259" y="-501.5" font-family="Helvetica,sans-Serif" font-size="10.00">+</text>
<text text-anchor="start" x="269" y="-501.5" font-family="Helvetica,sans-Serif" font-size="10.00">invalidateTags(array</text>
<text text-anchor="start" x="269" y="-490.25" font-family="Helvetica,sans-Serif" font-size="10.00"> $tags)</text>
<text text-anchor="start" x="259" y="-475.5" font-family="Helvetica,sans-Serif" font-size="10.00">+</text>
<text text-anchor="start" x="269" y="-475.5" font-family="Helvetica,sans-Serif" font-size="10.00">hasItem($key)</text>
<text text-anchor="start" x="259" y="-460.5" font-family="Helvetica,sans-Serif" font-size="10.00">+</text>
<text text-anchor="start" x="269" y="-460.5" font-family="Helvetica,sans-Serif" font-size="10.00">getItem($key)</text>
<text text-anchor="start" x="259" y="-445.5" font-family="Helvetica,sans-Serif" font-size="10.00">+</text>
<text text-anchor="start" x="269" y="-445.5" font-family="Helvetica,sans-Serif" font-size="10.00">getItems(array $keys=[])</text>
<text text-anchor="start" x="259" y="-430.5" font-family="Helvetica,sans-Serif" font-size="10.00">+</text>
<text text-anchor="start" x="269" y="-430.5" font-family="Helvetica,sans-Serif" font-size="10.00">clear(string $prefix=&#39;&#39;)</text>
<text text-anchor="start" x="259" y="-415.5" font-family="Helvetica,sans-Serif" font-size="10.00">+</text>
<text text-anchor="start" x="269" y="-415.5" font-family="Helvetica,sans-Serif" font-size="10.00">deleteItem($key)</text>
<text text-anchor="start" x="259" y="-400.5" font-family="Helvetica,sans-Serif" font-size="10.00">+</text>
<text text-anchor="start" x="269" y="-400.5" font-family="Helvetica,sans-Serif" font-size="10.00">deleteItems(array</text>
<text text-anchor="start" x="269" y="-389.25" font-family="Helvetica,sans-Serif" font-size="10.00"> $keys)</text>
<text text-anchor="start" x="259" y="-374.5" font-family="Helvetica,sans-Serif" font-size="10.00">+</text>
<text text-anchor="start" x="269" y="-374.5" font-family="Helvetica,sans-Serif" font-size="10.00">save(CacheItemInterface</text>
<text text-anchor="start" x="269" y="-363.25" font-family="Helvetica,sans-Serif" font-size="10.00"> $item)</text>
<text text-anchor="start" x="259" y="-348.5" font-family="Helvetica,sans-Serif" font-size="10.00">+</text>
<text text-anchor="start" x="269" y="-348.5" font-family="Helvetica,sans-Serif" font-size="10.00">saveDeferred(CacheItemInterface</text>
<text text-anchor="start" x="269" y="-337.25" font-family="Helvetica,sans-Serif" font-size="10.00"> $item)</text>
<text text-anchor="start" x="259" y="-322.5" font-family="Helvetica,sans-Serif" font-size="10.00">+</text>
<text text-anchor="start" x="269" y="-322.5" font-family="Helvetica,sans-Serif" font-size="10.00">commit()</text>
<text text-anchor="start" x="259" y="-307.5" font-family="Helvetica,sans-Serif" font-size="10.00">+</text>
<text text-anchor="start" x="269" y="-307.5" font-family="Helvetica,sans-Serif" font-size="10.00">__sleep()</text>
<text text-anchor="start" x="259" y="-292.5" font-family="Helvetica,sans-Serif" font-size="10.00">+</text>
<text text-anchor="start" x="269" y="-292.5" font-family="Helvetica,sans-Serif" font-size="10.00">__wakeup()</text>
<text text-anchor="start" x="259" y="-277.5" font-family="Helvetica,sans-Serif" font-size="10.00">+</text>
<text text-anchor="start" x="269" y="-277.5" font-family="Helvetica,sans-Serif" font-size="10.00">__destruct()</text>
<polygon fill="#666666" stroke="#666666" points="255,-577 255,-577 456,-577 456,-577 255,-577"/>
<polygon fill="#666666" stroke="#666666" points="255,-562 255,-562 267,-562 267,-562 255,-562"/>
<polygon fill="#666666" stroke="#666666" points="267,-562 267,-562 456,-562 456,-562 267,-562"/>
<polygon fill="none" stroke="#666666" points="255,-272 255,-594 456,-594 456,-272 255,-272"/>
</a>
</g>
</g>
<!-- Node1&#45;&gt;Node7 -->
<g id="edge20_Node000001_Node000007" class="edge">
<title>Node1&#45;&gt;Node7</title>
<g id="a_edge20_Node000001_Node000007"><a xlink:title=" ">
<path fill="none" stroke="#63b8ff" d="M355.5,-618.68C355.5,-611.01 355.5,-602.57 355.5,-593.64"/>
<polygon fill="none" stroke="#63b8ff" points="352,-618.53 355.5,-628.53 359,-618.53 352,-618.53"/>
</a>
</g>
</g>
<!-- Node8 -->
<g id="Node000008" class="node">
<title>Node8</title>
<g id="a_Node000008"><a xlink:href="$class_symfony_1_1_component_1_1_cache_1_1_adapter_1_1_traceable_tag_aware_adapter.html" xlink:title=" ">
<polygon fill="white" stroke="none" points="623,-476 474,-476 474,-390 623,-390 623,-476"/>
<text text-anchor="start" x="488.5" y="-462.5" font-family="Helvetica,sans-Serif" font-size="10.00">TraceableTagAwareAdapter</text>
<text text-anchor="start" x="547" y="-447.5" font-family="Helvetica,sans-Serif" font-size="10.00"> </text>
<text text-anchor="start" x="478" y="-432.5" font-family="Helvetica,sans-Serif" font-size="10.00">+</text>
<text text-anchor="start" x="488" y="-432.5" font-family="Helvetica,sans-Serif" font-size="10.00">__construct(TagAwareAdapter</text>
<text text-anchor="start" x="488" y="-421.25" font-family="Helvetica,sans-Serif" font-size="10.00">Interface $pool)</text>
<text text-anchor="start" x="478" y="-406.5" font-family="Helvetica,sans-Serif" font-size="10.00">+</text>
<text text-anchor="start" x="488" y="-406.5" font-family="Helvetica,sans-Serif" font-size="10.00">invalidateTags(array</text>
<text text-anchor="start" x="488" y="-395.25" font-family="Helvetica,sans-Serif" font-size="10.00"> $tags)</text>
<polygon fill="#666666" stroke="#666666" points="474,-459 474,-459 623,-459 623,-459 474,-459"/>
<polygon fill="#666666" stroke="#666666" points="474,-444 474,-444 623,-444 623,-444 474,-444"/>
<polygon fill="none" stroke="#666666" points="474,-390 474,-476 623,-476 623,-390 474,-390"/>
</a>
</g>
</g>
<!-- Node1&#45;&gt;Node8 -->
<g id="edge21_Node000001_Node000008" class="edge">
<title>Node1&#45;&gt;Node8</title>
<g id="a_edge21_Node000001_Node000008"><a xlink:title=" ">
<path fill="none" stroke="#63b8ff" d="M427.33,-624.48C441.05,-615.79 454.54,-605.59 465.5,-594 497.87,-559.79 520.87,-510.51 534.32,-475.69"/>
<polygon fill="none" stroke="#63b8ff" points="425.85,-621.28 419.12,-629.46 429.48,-627.27 425.85,-621.28"/>
</a>
</g>
</g>
<!-- Node2 -->
<g id="Node000002" class="node">
<title>Node2</title>
<g id="a_Node000002"><a xlink:href="$interface_symfony_1_1_component_1_1_cache_1_1_adapter_1_1_adapter_interface.html" xlink:title=" ">
<polygon fill="white" stroke="none" points="418,-805 293,-805 293,-726 418,-726 418,-805"/>
<text text-anchor="start" x="319.5" y="-791.5" font-family="Helvetica,sans-Serif" font-size="10.00">AdapterInterface</text>
<text text-anchor="start" x="354" y="-776.5" font-family="Helvetica,sans-Serif" font-size="10.00"> </text>
<text text-anchor="start" x="297" y="-761.5" font-family="Helvetica,sans-Serif" font-size="10.00">+</text>
<text text-anchor="start" x="307" y="-761.5" font-family="Helvetica,sans-Serif" font-size="10.00">getItem($key)</text>
<text text-anchor="start" x="297" y="-746.5" font-family="Helvetica,sans-Serif" font-size="10.00">+</text>
<text text-anchor="start" x="307" y="-746.5" font-family="Helvetica,sans-Serif" font-size="10.00">getItems(array $keys=[])</text>
<text text-anchor="start" x="297" y="-731.5" font-family="Helvetica,sans-Serif" font-size="10.00">+</text>
<text text-anchor="start" x="307" y="-731.5" font-family="Helvetica,sans-Serif" font-size="10.00">clear(string $prefix=&#39;&#39;)</text>
<polygon fill="#666666" stroke="#666666" points="293,-788 293,-788 418,-788 418,-788 293,-788"/>
<polygon fill="#666666" stroke="#666666" points="293,-773 293,-773 418,-773 418,-773 293,-773"/>
<polygon fill="none" stroke="#666666" points="293,-726 293,-805 418,-805 418,-726 293,-726"/>
</a>
</g>
</g>
<!-- Node2&#45;&gt;Node1 -->
<g id="edge15_Node000001_Node000002" class="edge">
<title>Node2&#45;&gt;Node1</title>
<g id="a_edge15_Node000001_Node000002"><a xlink:title=" ">
<path fill="none" stroke="#63b8ff" d="M355.5,-714.99C355.5,-706.32 355.5,-697.57 355.5,-689.7"/>
<polygon fill="none" stroke="#63b8ff" points="352,-714.74 355.5,-724.74 359,-714.74 352,-714.74"/>
</a>
</g>
</g>
<!-- Node3 -->
<g id="Node000003" class="node">
<title>Node3</title>
<g id="a_Node000003"><a xlink:href="$interface_psr_1_1_cache_1_1_cache_item_pool_interface.html" xlink:title=" ">
<polygon fill="white" stroke="none" points="438,-1054 273,-1054 273,-841 438,-841 438,-1054"/>
<text text-anchor="start" x="302.62" y="-1040.5" font-family="Helvetica,sans-Serif" font-size="10.00">CacheItemPoolInterface</text>
<text text-anchor="start" x="354" y="-1025.5" font-family="Helvetica,sans-Serif" font-size="10.00"> </text>
<text text-anchor="start" x="277" y="-1010.5" font-family="Helvetica,sans-Serif" font-size="10.00">+</text>
<text text-anchor="start" x="287" y="-1010.5" font-family="Helvetica,sans-Serif" font-size="10.00">getItem($key)</text>
<text text-anchor="start" x="277" y="-995.5" font-family="Helvetica,sans-Serif" font-size="10.00">+</text>
<text text-anchor="start" x="287" y="-995.5" font-family="Helvetica,sans-Serif" font-size="10.00">getItems(array $keys</text>
<text text-anchor="start" x="287" y="-984.25" font-family="Helvetica,sans-Serif" font-size="10.00">=array())</text>
<text text-anchor="start" x="277" y="-969.5" font-family="Helvetica,sans-Serif" font-size="10.00">+</text>
<text text-anchor="start" x="287" y="-969.5" font-family="Helvetica,sans-Serif" font-size="10.00">hasItem($key)</text>
<text text-anchor="start" x="277" y="-954.5" font-family="Helvetica,sans-Serif" font-size="10.00">+</text>
<text text-anchor="start" x="287" y="-954.5" font-family="Helvetica,sans-Serif" font-size="10.00">clear()</text>
<text text-anchor="start" x="277" y="-939.5" font-family="Helvetica,sans-Serif" font-size="10.00">+</text>
<text text-anchor="start" x="287" y="-939.5" font-family="Helvetica,sans-Serif" font-size="10.00">deleteItem($key)</text>
<text text-anchor="start" x="277" y="-924.5" font-family="Helvetica,sans-Serif" font-size="10.00">+</text>
<text text-anchor="start" x="287" y="-924.5" font-family="Helvetica,sans-Serif" font-size="10.00">deleteItems(array</text>
<text text-anchor="start" x="287" y="-913.25" font-family="Helvetica,sans-Serif" font-size="10.00"> $keys)</text>
<text text-anchor="start" x="277" y="-898.5" font-family="Helvetica,sans-Serif" font-size="10.00">+</text>
<text text-anchor="start" x="287" y="-898.5" font-family="Helvetica,sans-Serif" font-size="10.00">save(CacheItemInterface</text>
<text text-anchor="start" x="287" y="-887.25" font-family="Helvetica,sans-Serif" font-size="10.00"> $item)</text>
<text text-anchor="start" x="277" y="-872.5" font-family="Helvetica,sans-Serif" font-size="10.00">+</text>
<text text-anchor="start" x="287" y="-872.5" font-family="Helvetica,sans-Serif" font-size="10.00">saveDeferred(CacheItemInterface</text>
<text text-anchor="start" x="287" y="-861.25" font-family="Helvetica,sans-Serif" font-size="10.00"> $item)</text>
<text text-anchor="start" x="277" y="-846.5" font-family="Helvetica,sans-Serif" font-size="10.00">+</text>
<text text-anchor="start" x="287" y="-846.5" font-family="Helvetica,sans-Serif" font-size="10.00">commit()</text>
<polygon fill="#666666" stroke="#666666" points="273,-1037 273,-1037 438,-1037 438,-1037 273,-1037"/>
<polygon fill="#666666" stroke="#666666" points="273,-1022 273,-1022 438,-1022 438,-1022 273,-1022"/>
<polygon fill="none" stroke="#666666" points="273,-841 273,-1054 438,-1054 438,-841 273,-841"/>
</a>
</g>
</g>
<!-- Node3&#45;&gt;Node2 -->
<g id="edge16_Node000002_Node000003" class="edge">
<title>Node3&#45;&gt;Node2</title>
<g id="a_edge16_Node000002_Node000003"><a xlink:title=" ">
<path fill="none" stroke="#63b8ff" d="M355.5,-829.68C355.5,-820.86 355.5,-812.43 355.5,-804.75"/>
<polygon fill="none" stroke="#63b8ff" points="352,-829.5 355.5,-839.5 359,-829.5 352,-829.5"/>
</a>
</g>
</g>
<!-- Node5 -->
<g id="Node000005" class="node">
<title>Node5</title>
<g id="a_Node000005"><a xlink:href="$class_symfony_1_1_component_1_1_cache_1_1_adapter_1_1_filesystem_tag_aware_adapter.html" xlink:title=" ">
<polygon fill="white" stroke="none" points="181,-236 0,-236 0,0 181,0 181,-236"/>
<text text-anchor="start" x="27.88" y="-222.5" font-family="Helvetica,sans-Serif" font-size="10.00">FilesystemTagAwareAdapter</text>
<text text-anchor="start" x="89" y="-207.5" font-family="Helvetica,sans-Serif" font-size="10.00"> </text>
<text text-anchor="start" x="4" y="-192.5" font-family="Helvetica,sans-Serif" font-size="10.00">+</text>
<text text-anchor="start" x="14" y="-192.5" font-family="Helvetica,sans-Serif" font-size="10.00">__construct(string</text>
<text text-anchor="start" x="14" y="-181.25" font-family="Helvetica,sans-Serif" font-size="10.00"> $namespace=&#39;&#39;, int</text>
<text text-anchor="start" x="14" y="-170" font-family="Helvetica,sans-Serif" font-size="10.00"> $defaultLifetime=0,</text>
<text text-anchor="start" x="14" y="-158.75" font-family="Helvetica,sans-Serif" font-size="10.00"> string $directory=null,</text>
<text text-anchor="start" x="14" y="-147.5" font-family="Helvetica,sans-Serif" font-size="10.00"> MarshallerInterface $marshaller=null)</text>
<text text-anchor="start" x="4.38" y="-132.5" font-family="Helvetica,sans-Serif" font-size="10.00">#</text>
<text text-anchor="start" x="14" y="-132.5" font-family="Helvetica,sans-Serif" font-size="10.00">doClear(string $namespace)</text>
<text text-anchor="start" x="4.38" y="-117.5" font-family="Helvetica,sans-Serif" font-size="10.00">#</text>
<text text-anchor="start" x="14" y="-117.5" font-family="Helvetica,sans-Serif" font-size="10.00">doSave(array $values,</text>
<text text-anchor="start" x="14" y="-106.25" font-family="Helvetica,sans-Serif" font-size="10.00"> int $lifetime, array</text>
<text text-anchor="start" x="14" y="-95" font-family="Helvetica,sans-Serif" font-size="10.00"> $addTagData=[], array</text>
<text text-anchor="start" x="14" y="-83.75" font-family="Helvetica,sans-Serif" font-size="10.00"> $removeTagData=[])</text>
<text text-anchor="start" x="4.38" y="-68.5" font-family="Helvetica,sans-Serif" font-size="10.00">#</text>
<text text-anchor="start" x="14" y="-68.5" font-family="Helvetica,sans-Serif" font-size="10.00">doDeleteYieldTags</text>
<text text-anchor="start" x="14" y="-57.25" font-family="Helvetica,sans-Serif" font-size="10.00">(array $ids)</text>
<text text-anchor="start" x="4.38" y="-42.5" font-family="Helvetica,sans-Serif" font-size="10.00">#</text>
<text text-anchor="start" x="14" y="-42.5" font-family="Helvetica,sans-Serif" font-size="10.00">doDeleteTagRelations</text>
<text text-anchor="start" x="14" y="-31.25" font-family="Helvetica,sans-Serif" font-size="10.00">(array $tagData)</text>
<text text-anchor="start" x="4.38" y="-16.5" font-family="Helvetica,sans-Serif" font-size="10.00">#</text>
<text text-anchor="start" x="14" y="-16.5" font-family="Helvetica,sans-Serif" font-size="10.00">doInvalidate(array</text>
<text text-anchor="start" x="14" y="-5.25" font-family="Helvetica,sans-Serif" font-size="10.00"> $tagIds)</text>
<polygon fill="#666666" stroke="#666666" points="0,-219 0,-219 181,-219 181,-219 0,-219"/>
<polygon fill="#666666" stroke="#666666" points="0,-204 0,-204 181,-204 181,-204 0,-204"/>
<polygon fill="none" stroke="#666666" points="0,0 0,-236 181,-236 181,0 0,0"/>
</a>
</g>
</g>
<!-- Node4&#45;&gt;Node5 -->
<g id="edge18_Node000004_Node000005" class="edge">
<title>Node4&#45;&gt;Node5</title>
<g id="a_edge18_Node000004_Node000005"><a xlink:title=" ">
<path fill="none" stroke="#63b8ff" d="M134.37,-282.46C130.14,-266.71 125.89,-250.86 121.78,-235.55"/>
<polygon fill="none" stroke="#63b8ff" points="130.92,-283.13 136.9,-291.88 137.69,-281.32 130.92,-283.13"/>
</a>
</g>
</g>
<!-- Node6 -->
<g id="Node000006" class="node">
<title>Node6</title>
<g id="a_Node000006"><a xlink:href="$class_symfony_1_1_component_1_1_cache_1_1_adapter_1_1_redis_tag_aware_adapter.html" xlink:title=" ">
<polygon fill="white" stroke="none" points="317.5,-228.5 199.5,-228.5 199.5,-7.5 317.5,-7.5 317.5,-228.5"/>
<text text-anchor="start" x="207.12" y="-215" font-family="Helvetica,sans-Serif" font-size="10.00">RedisTagAwareAdapter</text>
<text text-anchor="start" x="257" y="-200" font-family="Helvetica,sans-Serif" font-size="10.00"> </text>
<text text-anchor="start" x="203.5" y="-185" font-family="Helvetica,sans-Serif" font-size="10.00">+</text>
<text text-anchor="start" x="213.5" y="-185" font-family="Helvetica,sans-Serif" font-size="10.00">__construct($redis,</text>
<text text-anchor="start" x="213.5" y="-173.75" font-family="Helvetica,sans-Serif" font-size="10.00"> string $namespace=&#39;&#39;,</text>
<text text-anchor="start" x="213.5" y="-162.5" font-family="Helvetica,sans-Serif" font-size="10.00"> int $defaultLifetime</text>
<text text-anchor="start" x="213.5" y="-151.25" font-family="Helvetica,sans-Serif" font-size="10.00">=0, MarshallerInterface</text>
<text text-anchor="start" x="213.5" y="-140" font-family="Helvetica,sans-Serif" font-size="10.00"> $marshaller=null)</text>
<text text-anchor="start" x="203.88" y="-125" font-family="Helvetica,sans-Serif" font-size="10.00">#</text>
<text text-anchor="start" x="213.5" y="-125" font-family="Helvetica,sans-Serif" font-size="10.00">doSave(array $values,</text>
<text text-anchor="start" x="213.5" y="-113.75" font-family="Helvetica,sans-Serif" font-size="10.00"> int $lifetime, array</text>
<text text-anchor="start" x="213.5" y="-102.5" font-family="Helvetica,sans-Serif" font-size="10.00"> $addTagData=[], array</text>
<text text-anchor="start" x="213.5" y="-91.25" font-family="Helvetica,sans-Serif" font-size="10.00"> $delTagData=[])</text>
<text text-anchor="start" x="203.88" y="-76" font-family="Helvetica,sans-Serif" font-size="10.00">#</text>
<text text-anchor="start" x="213.5" y="-76" font-family="Helvetica,sans-Serif" font-size="10.00">doDeleteYieldTags</text>
<text text-anchor="start" x="213.5" y="-64.75" font-family="Helvetica,sans-Serif" font-size="10.00">(array $ids)</text>
<text text-anchor="start" x="203.88" y="-50" font-family="Helvetica,sans-Serif" font-size="10.00">#</text>
<text text-anchor="start" x="213.5" y="-50" font-family="Helvetica,sans-Serif" font-size="10.00">doDeleteTagRelations</text>
<text text-anchor="start" x="213.5" y="-38.75" font-family="Helvetica,sans-Serif" font-size="10.00">(array $tagData)</text>
<text text-anchor="start" x="203.88" y="-24" font-family="Helvetica,sans-Serif" font-size="10.00">#</text>
<text text-anchor="start" x="213.5" y="-24" font-family="Helvetica,sans-Serif" font-size="10.00">doInvalidate(array</text>
<text text-anchor="start" x="213.5" y="-12.75" font-family="Helvetica,sans-Serif" font-size="10.00"> $tagIds)</text>
<polygon fill="#666666" stroke="#666666" points="199.5,-211.5 199.5,-211.5 317.5,-211.5 317.5,-211.5 199.5,-211.5"/>
<polygon fill="#666666" stroke="#666666" points="199.5,-196.5 199.5,-196.5 317.5,-196.5 317.5,-196.5 199.5,-196.5"/>
<polygon fill="none" stroke="#666666" points="199.5,-7.5 199.5,-228.5 317.5,-228.5 317.5,-7.5 199.5,-7.5"/>
</a>
</g>
</g>
<!-- Node4&#45;&gt;Node6 -->
<g id="edge19_Node000004_Node000006" class="edge">
<title>Node4&#45;&gt;Node6</title>
<g id="a_edge19_Node000004_Node000006"><a xlink:title=" ">
<path fill="none" stroke="#63b8ff" d="M214.66,-282.36C219.54,-264.17 224.45,-245.86 229.14,-228.41"/>
<polygon fill="none" stroke="#63b8ff" points="211.31,-281.32 212.1,-291.88 218.08,-283.13 211.31,-281.32"/>
</a>
</g>
</g>
</g>
</svg>
