<?xml version="1.0" encoding="UTF-8" standalone="no"?>
<!DOCTYPE svg PUBLIC "-//W3C//DTD SVG 1.1//EN"
 "http://www.w3.org/Graphics/SVG/1.1/DTD/svg11.dtd">
<!-- Generated by graphviz version 10.0.1 (20240210.2158)
 -->
<!-- Title: ConfigurationCommandInterface Pages: 1 -->
<svg width="1991pt" height="353pt"
 viewBox="0.00 0.00 1991.00 353.00" xmlns="http://www.w3.org/2000/svg" xmlns:xlink="http://www.w3.org/1999/xlink">
<g id="graph0" class="graph" transform="scale(1 1) rotate(0) translate(4 349)">
<title>ConfigurationCommandInterface</title>
<!-- Node1 -->
<g id="Node000001" class="node">
<title>Node1</title>
<g id="a_Node000001"><a xlink:title=" ">
<polygon fill="#999999" stroke="none" points="1051,-345 900,-345 900,-274 1051,-274 1051,-345"/>
<text text-anchor="start" x="905" y="-331.5" font-family="Helvetica,sans-Serif" font-size="10.00">ConfigurationCommandInterface</text>
<text text-anchor="start" x="974" y="-316.5" font-family="Helvetica,sans-Serif" font-size="10.00"> </text>
<text text-anchor="start" x="911.5" y="-301.5" font-family="Helvetica,sans-Serif" font-size="10.00">+</text>
<text text-anchor="start" x="929" y="-301.5" font-family="Helvetica,sans-Serif" font-size="10.00">getConfigurationFilesTo</text>
<text text-anchor="start" x="929" y="-290.25" font-family="Helvetica,sans-Serif" font-size="10.00">Update(InputInterface</text>
<text text-anchor="start" x="929" y="-279" font-family="Helvetica,sans-Serif" font-size="10.00"> $input)</text>
<polygon fill="#666666" stroke="#666666" points="900,-328 900,-328 1051,-328 1051,-328 900,-328"/>
<polygon fill="#666666" stroke="#666666" points="900,-313 900,-313 1051,-313 1051,-313 900,-313"/>
<polygon fill="none" stroke="#666666" points="900,-274 900,-345 1051,-345 1051,-274 900,-274"/>
</a>
</g>
</g>
<!-- Node2 -->
<g id="Node000002" class="node">
<title>Node2</title>
<g id="a_Node000002"><a xlink:href="$class_glpi_1_1_console_1_1_cache_1_1_configure_command.html" xlink:title=" ">
<polygon fill="white" stroke="none" points="127,-201 0,-201 0,-37 127,-37 127,-201"/>
<text text-anchor="start" x="20" y="-187.5" font-family="Helvetica,sans-Serif" font-size="10.00">ConfigureCommand</text>
<text text-anchor="start" x="4" y="-172.5" font-family="Helvetica,sans-Serif" font-size="10.00">+</text>
<text text-anchor="start" x="14" y="-172.5" font-family="Helvetica,sans-Serif" font-size="10.00">const ERROR_UNABLE</text>
<text text-anchor="start" x="14" y="-161.25" font-family="Helvetica,sans-Serif" font-size="10.00">_TO_WRITE_CONFIG</text>
<text text-anchor="start" x="4.38" y="-146.5" font-family="Helvetica,sans-Serif" font-size="10.00">#</text>
<text text-anchor="start" x="14" y="-146.5" font-family="Helvetica,sans-Serif" font-size="10.00">$requires_db</text>
<text text-anchor="start" x="4" y="-131.5" font-family="Helvetica,sans-Serif" font-size="10.00">+</text>
<text text-anchor="start" x="14" y="-131.5" font-family="Helvetica,sans-Serif" font-size="10.00">__construct()</text>
<text text-anchor="start" x="4" y="-116.5" font-family="Helvetica,sans-Serif" font-size="10.00">+</text>
<text text-anchor="start" x="14" y="-116.5" font-family="Helvetica,sans-Serif" font-size="10.00">getConfigurationFilesTo</text>
<text text-anchor="start" x="14" y="-105.25" font-family="Helvetica,sans-Serif" font-size="10.00">Update(InputInterface</text>
<text text-anchor="start" x="14" y="-94" font-family="Helvetica,sans-Serif" font-size="10.00"> $input)</text>
<text text-anchor="start" x="4.38" y="-79.5" font-family="Helvetica,sans-Serif" font-size="10.00">#</text>
<text text-anchor="start" x="14" y="-79.5" font-family="Helvetica,sans-Serif" font-size="10.00">configure()</text>
<text text-anchor="start" x="4.38" y="-64.5" font-family="Helvetica,sans-Serif" font-size="10.00">#</text>
<text text-anchor="start" x="14" y="-64.5" font-family="Helvetica,sans-Serif" font-size="10.00">execute(InputInterface</text>
<text text-anchor="start" x="14" y="-53.25" font-family="Helvetica,sans-Serif" font-size="10.00"> $input, OutputInterface</text>
<text text-anchor="start" x="14" y="-42" font-family="Helvetica,sans-Serif" font-size="10.00"> $output)</text>
<polygon fill="#666666" stroke="#666666" points="0,-184 0,-184 127,-184 127,-184 0,-184"/>
<polygon fill="#666666" stroke="#666666" points="0,-143 0,-143 12,-143 12,-143 0,-143"/>
<polygon fill="#666666" stroke="#666666" points="12,-143 12,-143 127,-143 127,-143 12,-143"/>
<polygon fill="none" stroke="#666666" points="0,-37 0,-201 127,-201 127,-37 0,-37"/>
</a>
</g>
</g>
<!-- Node1&#45;&gt;Node2 -->
<g id="edge25_Node000001_Node000002" class="edge">
<title>Node1&#45;&gt;Node2</title>
<g id="a_edge25_Node000001_Node000002"><a xlink:title=" ">
<path fill="none" stroke="#63b8ff" d="M888.62,-305.6C686.97,-298.25 199.52,-276.66 136.5,-238 121.61,-228.87 109.3,-215.44 99.31,-200.89"/>
<polygon fill="none" stroke="#63b8ff" points="888.4,-309.1 898.52,-305.96 888.66,-302.1 888.4,-309.1"/>
</a>
</g>
</g>
<!-- Node3 -->
<g id="Node000003" class="node">
<title>Node3</title>
<g id="a_Node000003"><a xlink:href="$class_glpi_1_1_console_1_1_cache_1_1_set_namespace_prefix_command.html" xlink:title=" ">
<polygon fill="white" stroke="none" points="293.5,-201 145.5,-201 145.5,-37 293.5,-37 293.5,-201"/>
<text text-anchor="start" x="150.5" y="-187.5" font-family="Helvetica,sans-Serif" font-size="10.00">SetNamespacePrefixCommand</text>
<text text-anchor="start" x="154.5" y="-172.5" font-family="Helvetica,sans-Serif" font-size="10.00">+</text>
<text text-anchor="start" x="169.5" y="-172.5" font-family="Helvetica,sans-Serif" font-size="10.00">const ERROR_UNABLE</text>
<text text-anchor="start" x="169.5" y="-161.25" font-family="Helvetica,sans-Serif" font-size="10.00">_TO_WRITE_CONFIG</text>
<text text-anchor="start" x="154.88" y="-146.5" font-family="Helvetica,sans-Serif" font-size="10.00">#</text>
<text text-anchor="start" x="169.5" y="-146.5" font-family="Helvetica,sans-Serif" font-size="10.00">$requires_db</text>
<text text-anchor="start" x="154.5" y="-131.5" font-family="Helvetica,sans-Serif" font-size="10.00">+</text>
<text text-anchor="start" x="169.5" y="-131.5" font-family="Helvetica,sans-Serif" font-size="10.00">__construct()</text>
<text text-anchor="start" x="154.5" y="-116.5" font-family="Helvetica,sans-Serif" font-size="10.00">+</text>
<text text-anchor="start" x="169.5" y="-116.5" font-family="Helvetica,sans-Serif" font-size="10.00">getConfigurationFilesTo</text>
<text text-anchor="start" x="169.5" y="-105.25" font-family="Helvetica,sans-Serif" font-size="10.00">Update(InputInterface</text>
<text text-anchor="start" x="169.5" y="-94" font-family="Helvetica,sans-Serif" font-size="10.00"> $input)</text>
<text text-anchor="start" x="154.88" y="-79.5" font-family="Helvetica,sans-Serif" font-size="10.00">#</text>
<text text-anchor="start" x="169.5" y="-79.5" font-family="Helvetica,sans-Serif" font-size="10.00">configure()</text>
<text text-anchor="start" x="154.88" y="-64.5" font-family="Helvetica,sans-Serif" font-size="10.00">#</text>
<text text-anchor="start" x="169.5" y="-64.5" font-family="Helvetica,sans-Serif" font-size="10.00">execute(InputInterface</text>
<text text-anchor="start" x="169.5" y="-53.25" font-family="Helvetica,sans-Serif" font-size="10.00"> $input, OutputInterface</text>
<text text-anchor="start" x="169.5" y="-42" font-family="Helvetica,sans-Serif" font-size="10.00"> $output)</text>
<polygon fill="#666666" stroke="#666666" points="145.5,-184 145.5,-184 293.5,-184 293.5,-184 145.5,-184"/>
<polygon fill="#666666" stroke="#666666" points="145.5,-143 145.5,-143 167.5,-143 167.5,-143 145.5,-143"/>
<polygon fill="#666666" stroke="#666666" points="167.5,-143 167.5,-143 293.5,-143 293.5,-143 167.5,-143"/>
<polygon fill="none" stroke="#666666" points="145.5,-37 145.5,-201 293.5,-201 293.5,-37 145.5,-37"/>
</a>
</g>
</g>
<!-- Node1&#45;&gt;Node3 -->
<g id="edge26_Node000001_Node000003" class="edge">
<title>Node1&#45;&gt;Node3</title>
<g id="a_edge26_Node000001_Node000003"><a xlink:title=" ">
<path fill="none" stroke="#63b8ff" d="M888.92,-308.2C730.16,-306.23 399.82,-295.16 302.5,-238 286.84,-228.8 273.4,-215.35 262.17,-200.79"/>
<polygon fill="none" stroke="#63b8ff" points="888.5,-311.69 898.54,-308.31 888.58,-304.69 888.5,-311.69"/>
</a>
</g>
</g>
<!-- Node4 -->
<g id="Node000004" class="node">
<title>Node4</title>
<g id="a_Node000004"><a xlink:href="$class_glpi_1_1_console_1_1_database_1_1_configure_command.html" xlink:title=" ">
<polygon fill="white" stroke="none" points="431.5,-180.5 311.5,-180.5 311.5,-57.5 431.5,-57.5 431.5,-180.5"/>
<text text-anchor="start" x="328" y="-167" font-family="Helvetica,sans-Serif" font-size="10.00">ConfigureCommand</text>
<text text-anchor="start" x="370" y="-152" font-family="Helvetica,sans-Serif" font-size="10.00"> </text>
<text text-anchor="start" x="315.5" y="-137" font-family="Helvetica,sans-Serif" font-size="10.00">+</text>
<text text-anchor="start" x="325.5" y="-137" font-family="Helvetica,sans-Serif" font-size="10.00">getConfigurationFilesTo</text>
<text text-anchor="start" x="325.5" y="-125.75" font-family="Helvetica,sans-Serif" font-size="10.00">Update(InputInterface</text>
<text text-anchor="start" x="325.5" y="-114.5" font-family="Helvetica,sans-Serif" font-size="10.00"> $input)</text>
<text text-anchor="start" x="315.88" y="-100" font-family="Helvetica,sans-Serif" font-size="10.00">#</text>
<text text-anchor="start" x="325.5" y="-100" font-family="Helvetica,sans-Serif" font-size="10.00">configure()</text>
<text text-anchor="start" x="315.88" y="-85" font-family="Helvetica,sans-Serif" font-size="10.00">#</text>
<text text-anchor="start" x="325.5" y="-85" font-family="Helvetica,sans-Serif" font-size="10.00">execute(InputInterface</text>
<text text-anchor="start" x="325.5" y="-73.75" font-family="Helvetica,sans-Serif" font-size="10.00"> $input, OutputInterface</text>
<text text-anchor="start" x="325.5" y="-62.5" font-family="Helvetica,sans-Serif" font-size="10.00"> $output)</text>
<polygon fill="#666666" stroke="#666666" points="311.5,-163.5 311.5,-163.5 431.5,-163.5 431.5,-163.5 311.5,-163.5"/>
<polygon fill="#666666" stroke="#666666" points="311.5,-148.5 311.5,-148.5 431.5,-148.5 431.5,-148.5 311.5,-148.5"/>
<polygon fill="none" stroke="#666666" points="311.5,-57.5 311.5,-180.5 431.5,-180.5 431.5,-57.5 311.5,-57.5"/>
</a>
</g>
</g>
<!-- Node1&#45;&gt;Node4 -->
<g id="edge27_Node000001_Node000004" class="edge">
<title>Node1&#45;&gt;Node4</title>
<g id="a_edge27_Node000001_Node000004"><a xlink:title=" ">
<path fill="none" stroke="#63b8ff" d="M888.89,-306.21C756.65,-301.21 512.2,-285.63 440.5,-238 419.74,-224.21 404.41,-201.88 393.53,-180.34"/>
<polygon fill="none" stroke="#63b8ff" points="888.52,-309.69 898.64,-306.56 888.78,-302.7 888.52,-309.69"/>
</a>
</g>
</g>
<!-- Node5 -->
<g id="Node000005" class="node">
<title>Node5</title>
<g id="a_Node000005"><a xlink:href="$class_glpi_1_1_console_1_1_database_1_1_enable_timezones_command.html" xlink:title=" ">
<polygon fill="white" stroke="none" points="593.5,-212 449.5,-212 449.5,-26 593.5,-26 593.5,-212"/>
<text text-anchor="start" x="460" y="-198.5" font-family="Helvetica,sans-Serif" font-size="10.00">EnableTimezonesCommand</text>
<text text-anchor="start" x="453.5" y="-183.5" font-family="Helvetica,sans-Serif" font-size="10.00">+</text>
<text text-anchor="start" x="463.5" y="-183.5" font-family="Helvetica,sans-Serif" font-size="10.00">const ERROR_UNABLE</text>
<text text-anchor="start" x="463.5" y="-172.25" font-family="Helvetica,sans-Serif" font-size="10.00">_TO_UPDATE_CONFIG</text>
<text text-anchor="start" x="453.5" y="-157.5" font-family="Helvetica,sans-Serif" font-size="10.00">+</text>
<text text-anchor="start" x="463.5" y="-157.5" font-family="Helvetica,sans-Serif" font-size="10.00">const ERROR_MISSING</text>
<text text-anchor="start" x="463.5" y="-146.25" font-family="Helvetica,sans-Serif" font-size="10.00">_PREREQUISITES</text>
<text text-anchor="start" x="453.5" y="-131.5" font-family="Helvetica,sans-Serif" font-size="10.00">+</text>
<text text-anchor="start" x="463.5" y="-131.5" font-family="Helvetica,sans-Serif" font-size="10.00">const ERROR_TIMESTAMP</text>
<text text-anchor="start" x="463.5" y="-120.25" font-family="Helvetica,sans-Serif" font-size="10.00">_FIELDS_REQUIRED</text>
<text text-anchor="start" x="453.5" y="-105.5" font-family="Helvetica,sans-Serif" font-size="10.00">+</text>
<text text-anchor="start" x="463.5" y="-105.5" font-family="Helvetica,sans-Serif" font-size="10.00">getConfigurationFilesTo</text>
<text text-anchor="start" x="463.5" y="-94.25" font-family="Helvetica,sans-Serif" font-size="10.00">Update(InputInterface</text>
<text text-anchor="start" x="463.5" y="-83" font-family="Helvetica,sans-Serif" font-size="10.00"> $input)</text>
<text text-anchor="start" x="453.88" y="-68.5" font-family="Helvetica,sans-Serif" font-size="10.00">#</text>
<text text-anchor="start" x="463.5" y="-68.5" font-family="Helvetica,sans-Serif" font-size="10.00">configure()</text>
<text text-anchor="start" x="453.88" y="-53.5" font-family="Helvetica,sans-Serif" font-size="10.00">#</text>
<text text-anchor="start" x="463.5" y="-53.5" font-family="Helvetica,sans-Serif" font-size="10.00">execute(InputInterface</text>
<text text-anchor="start" x="463.5" y="-42.25" font-family="Helvetica,sans-Serif" font-size="10.00"> $input, OutputInterface</text>
<text text-anchor="start" x="463.5" y="-31" font-family="Helvetica,sans-Serif" font-size="10.00"> $output)</text>
<polygon fill="#666666" stroke="#666666" points="449.5,-195 449.5,-195 593.5,-195 593.5,-195 449.5,-195"/>
<polygon fill="#666666" stroke="#666666" points="449.5,-117 449.5,-117 461.5,-117 461.5,-117 449.5,-117"/>
<polygon fill="#666666" stroke="#666666" points="461.5,-117 461.5,-117 593.5,-117 593.5,-117 461.5,-117"/>
<polygon fill="none" stroke="#666666" points="449.5,-26 449.5,-212 593.5,-212 593.5,-26 449.5,-26"/>
</a>
</g>
</g>
<!-- Node1&#45;&gt;Node5 -->
<g id="edge28_Node000001_Node000005" class="edge">
<title>Node1&#45;&gt;Node5</title>
<g id="a_edge28_Node000001_Node000005"><a xlink:title=" ">
<path fill="none" stroke="#63b8ff" d="M889.07,-299.85C794.05,-289.02 648.71,-268.15 602.5,-238 591.68,-230.94 581.91,-221.88 573.22,-211.92"/>
<polygon fill="none" stroke="#63b8ff" points="888.56,-303.32 898.89,-300.95 889.34,-296.36 888.56,-303.32"/>
</a>
</g>
</g>
<!-- Node6 -->
<g id="Node000006" class="node">
<title>Node6</title>
<g id="a_Node000006"><a xlink:href="$class_glpi_1_1_console_1_1_database_1_1_install_command.html" xlink:title=" ">
<polygon fill="white" stroke="none" points="799,-219.5 612,-219.5 612,-18.5 799,-18.5 799,-219.5"/>
<text text-anchor="start" x="669.88" y="-206" font-family="Helvetica,sans-Serif" font-size="10.00">InstallCommand</text>
<text text-anchor="start" x="616" y="-191" font-family="Helvetica,sans-Serif" font-size="10.00">+</text>
<text text-anchor="start" x="626" y="-191" font-family="Helvetica,sans-Serif" font-size="10.00">const ERROR_DB_CREATION</text>
<text text-anchor="start" x="626" y="-179.75" font-family="Helvetica,sans-Serif" font-size="10.00">_FAILED</text>
<text text-anchor="start" x="616" y="-165" font-family="Helvetica,sans-Serif" font-size="10.00">+</text>
<text text-anchor="start" x="626" y="-165" font-family="Helvetica,sans-Serif" font-size="10.00">const ERROR_DB_ALREADY</text>
<text text-anchor="start" x="626" y="-153.75" font-family="Helvetica,sans-Serif" font-size="10.00">_CONTAINS_TABLES</text>
<text text-anchor="start" x="616" y="-139" font-family="Helvetica,sans-Serif" font-size="10.00">+</text>
<text text-anchor="start" x="626" y="-139" font-family="Helvetica,sans-Serif" font-size="10.00">const ERROR_SCHEMA</text>
<text text-anchor="start" x="626" y="-127.75" font-family="Helvetica,sans-Serif" font-size="10.00">_CREATION_FAILED</text>
<text text-anchor="start" x="616" y="-113" font-family="Helvetica,sans-Serif" font-size="10.00">+</text>
<text text-anchor="start" x="626" y="-113" font-family="Helvetica,sans-Serif" font-size="10.00">const ERROR_CANNOT</text>
<text text-anchor="start" x="626" y="-101.75" font-family="Helvetica,sans-Serif" font-size="10.00">_CREATE_ENCRYPTION_KEY_FILE</text>
<text text-anchor="start" x="616" y="-87" font-family="Helvetica,sans-Serif" font-size="10.00">+</text>
<text text-anchor="start" x="626" y="-87" font-family="Helvetica,sans-Serif" font-size="10.00">const ERROR_INCOMPATIBLE</text>
<text text-anchor="start" x="626" y="-75.75" font-family="Helvetica,sans-Serif" font-size="10.00">_DB_CONFIG</text>
<text text-anchor="start" x="616" y="-61" font-family="Helvetica,sans-Serif" font-size="10.00">+</text>
<text text-anchor="start" x="626" y="-61" font-family="Helvetica,sans-Serif" font-size="10.00">getConfigurationFilesTo</text>
<text text-anchor="start" x="626" y="-49.75" font-family="Helvetica,sans-Serif" font-size="10.00">Update(InputInterface</text>
<text text-anchor="start" x="626" y="-38.5" font-family="Helvetica,sans-Serif" font-size="10.00"> $input)</text>
<text text-anchor="start" x="616.38" y="-24" font-family="Helvetica,sans-Serif" font-size="10.00">#</text>
<text text-anchor="start" x="626" y="-24" font-family="Helvetica,sans-Serif" font-size="10.00">configure()</text>
<polygon fill="#666666" stroke="#666666" points="612,-202.5 612,-202.5 799,-202.5 799,-202.5 612,-202.5"/>
<polygon fill="#666666" stroke="#666666" points="612,-72.5 612,-72.5 624,-72.5 624,-72.5 612,-72.5"/>
<polygon fill="#666666" stroke="#666666" points="624,-72.5 624,-72.5 799,-72.5 799,-72.5 624,-72.5"/>
<polygon fill="none" stroke="#666666" points="612,-18.5 612,-219.5 799,-219.5 799,-18.5 612,-18.5"/>
</a>
</g>
</g>
<!-- Node1&#45;&gt;Node6 -->
<g id="edge29_Node000001_Node000006" class="edge">
<title>Node1&#45;&gt;Node6</title>
<g id="a_edge29_Node000001_Node000006"><a xlink:title=" ">
<path fill="none" stroke="#63b8ff" d="M889.64,-281.28C861.98,-270.27 832.13,-255.87 807.5,-238 799.72,-232.35 792.13,-226.01 784.84,-219.26"/>
<polygon fill="none" stroke="#63b8ff" points="888.12,-284.44 898.71,-284.78 890.64,-277.91 888.12,-284.44"/>
</a>
</g>
</g>
<!-- Node7 -->
<g id="Node000007" class="node">
<title>Node7</title>
<g id="a_Node000007"><a xlink:href="$class_glpi_1_1_console_1_1_database_1_1_update_command.html" xlink:title=" ">
<polygon fill="white" stroke="none" points="976,-221.5 817,-221.5 817,-16.5 976,-16.5 976,-221.5"/>
<text text-anchor="start" x="858.25" y="-208" font-family="Helvetica,sans-Serif" font-size="10.00">UpdateCommand</text>
<text text-anchor="start" x="821" y="-193" font-family="Helvetica,sans-Serif" font-size="10.00">+</text>
<text text-anchor="start" x="831" y="-193" font-family="Helvetica,sans-Serif" font-size="10.00">const ERROR_NO_UNSTABLE</text>
<text text-anchor="start" x="831" y="-181.75" font-family="Helvetica,sans-Serif" font-size="10.00">_UPDATE</text>
<text text-anchor="start" x="821" y="-167" font-family="Helvetica,sans-Serif" font-size="10.00">+</text>
<text text-anchor="start" x="831" y="-167" font-family="Helvetica,sans-Serif" font-size="10.00">const ERROR_MISSING</text>
<text text-anchor="start" x="831" y="-155.75" font-family="Helvetica,sans-Serif" font-size="10.00">_SECURITY_KEY_FILE</text>
<text text-anchor="start" x="821" y="-141" font-family="Helvetica,sans-Serif" font-size="10.00">+</text>
<text text-anchor="start" x="831" y="-141" font-family="Helvetica,sans-Serif" font-size="10.00">const ERROR_INVALID</text>
<text text-anchor="start" x="831" y="-129.75" font-family="Helvetica,sans-Serif" font-size="10.00">_DATABASE</text>
<text text-anchor="start" x="821" y="-115" font-family="Helvetica,sans-Serif" font-size="10.00">+</text>
<text text-anchor="start" x="831" y="-115" font-family="Helvetica,sans-Serif" font-size="10.00">const ERROR_DATABASE</text>
<text text-anchor="start" x="831" y="-103.75" font-family="Helvetica,sans-Serif" font-size="10.00">_INTEGRITY_CHECK_FAILED</text>
<text text-anchor="start" x="821.38" y="-89" font-family="Helvetica,sans-Serif" font-size="10.00">#</text>
<text text-anchor="start" x="831" y="-89" font-family="Helvetica,sans-Serif" font-size="10.00">$requires_db_up_to_date</text>
<text text-anchor="start" x="821" y="-74" font-family="Helvetica,sans-Serif" font-size="10.00">+</text>
<text text-anchor="start" x="831" y="-74" font-family="Helvetica,sans-Serif" font-size="10.00">getNoPluginsOptionValue()</text>
<text text-anchor="start" x="821" y="-59" font-family="Helvetica,sans-Serif" font-size="10.00">+</text>
<text text-anchor="start" x="831" y="-59" font-family="Helvetica,sans-Serif" font-size="10.00">getConfigurationFilesTo</text>
<text text-anchor="start" x="831" y="-47.75" font-family="Helvetica,sans-Serif" font-size="10.00">Update(InputInterface</text>
<text text-anchor="start" x="831" y="-36.5" font-family="Helvetica,sans-Serif" font-size="10.00"> $input)</text>
<text text-anchor="start" x="821.38" y="-22" font-family="Helvetica,sans-Serif" font-size="10.00">#</text>
<text text-anchor="start" x="831" y="-22" font-family="Helvetica,sans-Serif" font-size="10.00">configure()</text>
<polygon fill="#666666" stroke="#666666" points="817,-204.5 817,-204.5 976,-204.5 976,-204.5 817,-204.5"/>
<polygon fill="#666666" stroke="#666666" points="817,-85.5 817,-85.5 829,-85.5 829,-85.5 817,-85.5"/>
<polygon fill="#666666" stroke="#666666" points="829,-85.5 829,-85.5 976,-85.5 976,-85.5 829,-85.5"/>
<polygon fill="none" stroke="#666666" points="817,-16.5 817,-221.5 976,-221.5 976,-16.5 817,-16.5"/>
</a>
</g>
</g>
<!-- Node1&#45;&gt;Node7 -->
<g id="edge30_Node000001_Node000007" class="edge">
<title>Node1&#45;&gt;Node7</title>
<g id="a_edge30_Node000001_Node000007"><a xlink:title=" ">
<path fill="none" stroke="#63b8ff" d="M956.82,-263.93C951.39,-250.98 945.23,-236.27 938.97,-221.33"/>
<polygon fill="none" stroke="#63b8ff" points="953.52,-265.1 960.61,-272.97 959.97,-262.39 953.52,-265.1"/>
</a>
</g>
</g>
<!-- Node8 -->
<g id="Node000008" class="node">
<title>Node8</title>
<g id="a_Node000008"><a xlink:href="$class_glpi_1_1_console_1_1_migration_1_1_migrate_all_command.html" xlink:title=" ">
<polygon fill="white" stroke="none" points="1114.5,-180.5 994.5,-180.5 994.5,-57.5 1114.5,-57.5 1114.5,-180.5"/>
<text text-anchor="start" x="1010.25" y="-167" font-family="Helvetica,sans-Serif" font-size="10.00">MigrateAllCommand</text>
<text text-anchor="start" x="1053" y="-152" font-family="Helvetica,sans-Serif" font-size="10.00"> </text>
<text text-anchor="start" x="998.5" y="-137" font-family="Helvetica,sans-Serif" font-size="10.00">+</text>
<text text-anchor="start" x="1008.5" y="-137" font-family="Helvetica,sans-Serif" font-size="10.00">getConfigurationFilesTo</text>
<text text-anchor="start" x="1008.5" y="-125.75" font-family="Helvetica,sans-Serif" font-size="10.00">Update(InputInterface</text>
<text text-anchor="start" x="1008.5" y="-114.5" font-family="Helvetica,sans-Serif" font-size="10.00"> $input)</text>
<text text-anchor="start" x="998.88" y="-100" font-family="Helvetica,sans-Serif" font-size="10.00">#</text>
<text text-anchor="start" x="1008.5" y="-100" font-family="Helvetica,sans-Serif" font-size="10.00">configure()</text>
<text text-anchor="start" x="998.88" y="-85" font-family="Helvetica,sans-Serif" font-size="10.00">#</text>
<text text-anchor="start" x="1008.5" y="-85" font-family="Helvetica,sans-Serif" font-size="10.00">execute(InputInterface</text>
<text text-anchor="start" x="1008.5" y="-73.75" font-family="Helvetica,sans-Serif" font-size="10.00"> $input, OutputInterface</text>
<text text-anchor="start" x="1008.5" y="-62.5" font-family="Helvetica,sans-Serif" font-size="10.00"> $output)</text>
<polygon fill="#666666" stroke="#666666" points="994.5,-163.5 994.5,-163.5 1114.5,-163.5 1114.5,-163.5 994.5,-163.5"/>
<polygon fill="#666666" stroke="#666666" points="994.5,-148.5 994.5,-148.5 1114.5,-148.5 1114.5,-148.5 994.5,-148.5"/>
<polygon fill="none" stroke="#666666" points="994.5,-57.5 994.5,-180.5 1114.5,-180.5 1114.5,-57.5 994.5,-57.5"/>
</a>
</g>
</g>
<!-- Node1&#45;&gt;Node8 -->
<g id="edge31_Node000001_Node000008" class="edge">
<title>Node1&#45;&gt;Node8</title>
<g id="a_edge31_Node000001_Node000008"><a xlink:title=" ">
<path fill="none" stroke="#63b8ff" d="M994.12,-264.07C1004.61,-239.04 1017.86,-207.42 1029.27,-180.19"/>
<polygon fill="none" stroke="#63b8ff" points="991.03,-262.39 990.39,-272.97 997.48,-265.1 991.03,-262.39"/>
</a>
</g>
</g>
<!-- Node9 -->
<g id="Node000009" class="node">
<title>Node9</title>
<g id="a_Node000009"><a xlink:href="$class_glpi_1_1_console_1_1_migration_1_1_my_isam_to_inno_db_command.html" xlink:title=" ">
<polygon fill="white" stroke="none" points="1312,-199 1133,-199 1133,-39 1312,-39 1312,-199"/>
<text text-anchor="start" x="1161.38" y="-185.5" font-family="Helvetica,sans-Serif" font-size="10.00">MyIsamToInnoDbCommand</text>
<text text-anchor="start" x="1137" y="-170.5" font-family="Helvetica,sans-Serif" font-size="10.00">+</text>
<text text-anchor="start" x="1147" y="-170.5" font-family="Helvetica,sans-Serif" font-size="10.00">const ERROR_TABLE_MIGRATION</text>
<text text-anchor="start" x="1147" y="-159.25" font-family="Helvetica,sans-Serif" font-size="10.00">_FAILED</text>
<text text-anchor="start" x="1137" y="-144.5" font-family="Helvetica,sans-Serif" font-size="10.00">+</text>
<text text-anchor="start" x="1147" y="-144.5" font-family="Helvetica,sans-Serif" font-size="10.00">const ERROR_UNABLE</text>
<text text-anchor="start" x="1147" y="-133.25" font-family="Helvetica,sans-Serif" font-size="10.00">_TO_UPDATE_CONFIG</text>
<text text-anchor="start" x="1137" y="-118.5" font-family="Helvetica,sans-Serif" font-size="10.00">+</text>
<text text-anchor="start" x="1147" y="-118.5" font-family="Helvetica,sans-Serif" font-size="10.00">getConfigurationFilesTo</text>
<text text-anchor="start" x="1147" y="-107.25" font-family="Helvetica,sans-Serif" font-size="10.00">Update(InputInterface</text>
<text text-anchor="start" x="1147" y="-96" font-family="Helvetica,sans-Serif" font-size="10.00"> $input)</text>
<text text-anchor="start" x="1137.38" y="-81.5" font-family="Helvetica,sans-Serif" font-size="10.00">#</text>
<text text-anchor="start" x="1147" y="-81.5" font-family="Helvetica,sans-Serif" font-size="10.00">configure()</text>
<text text-anchor="start" x="1137.38" y="-66.5" font-family="Helvetica,sans-Serif" font-size="10.00">#</text>
<text text-anchor="start" x="1147" y="-66.5" font-family="Helvetica,sans-Serif" font-size="10.00">execute(InputInterface</text>
<text text-anchor="start" x="1147" y="-55.25" font-family="Helvetica,sans-Serif" font-size="10.00"> $input, OutputInterface</text>
<text text-anchor="start" x="1147" y="-44" font-family="Helvetica,sans-Serif" font-size="10.00"> $output)</text>
<polygon fill="#666666" stroke="#666666" points="1133,-182 1133,-182 1312,-182 1312,-182 1133,-182"/>
<polygon fill="#666666" stroke="#666666" points="1133,-130 1133,-130 1145,-130 1145,-130 1133,-130"/>
<polygon fill="#666666" stroke="#666666" points="1145,-130 1145,-130 1312,-130 1312,-130 1145,-130"/>
<polygon fill="none" stroke="#666666" points="1133,-39 1133,-199 1312,-199 1312,-39 1133,-39"/>
</a>
</g>
</g>
<!-- Node1&#45;&gt;Node9 -->
<g id="edge32_Node000001_Node000009" class="edge">
<title>Node1&#45;&gt;Node9</title>
<g id="a_edge32_Node000001_Node000009"><a xlink:title=" ">
<path fill="none" stroke="#63b8ff" d="M1061.38,-275.21C1082.73,-264.93 1104.83,-252.45 1123.5,-238 1138.09,-226.71 1152.01,-212.93 1164.56,-198.83"/>
<polygon fill="none" stroke="#63b8ff" points="1059.92,-272.03 1052.34,-279.43 1062.88,-278.37 1059.92,-272.03"/>
</a>
</g>
</g>
<!-- Node10 -->
<g id="Node000010" class="node">
<title>Node10</title>
<g id="a_Node000010"><a xlink:href="$class_glpi_1_1_console_1_1_migration_1_1_timestamps_command.html" xlink:title=" ">
<polygon fill="white" stroke="none" points="1509,-199 1330,-199 1330,-39 1509,-39 1509,-199"/>
<text text-anchor="start" x="1370" y="-185.5" font-family="Helvetica,sans-Serif" font-size="10.00">TimestampsCommand</text>
<text text-anchor="start" x="1334" y="-170.5" font-family="Helvetica,sans-Serif" font-size="10.00">+</text>
<text text-anchor="start" x="1344" y="-170.5" font-family="Helvetica,sans-Serif" font-size="10.00">const ERROR_TABLE_MIGRATION</text>
<text text-anchor="start" x="1344" y="-159.25" font-family="Helvetica,sans-Serif" font-size="10.00">_FAILED</text>
<text text-anchor="start" x="1334" y="-144.5" font-family="Helvetica,sans-Serif" font-size="10.00">+</text>
<text text-anchor="start" x="1344" y="-144.5" font-family="Helvetica,sans-Serif" font-size="10.00">const ERROR_UNABLE</text>
<text text-anchor="start" x="1344" y="-133.25" font-family="Helvetica,sans-Serif" font-size="10.00">_TO_UPDATE_CONFIG</text>
<text text-anchor="start" x="1334" y="-118.5" font-family="Helvetica,sans-Serif" font-size="10.00">+</text>
<text text-anchor="start" x="1344" y="-118.5" font-family="Helvetica,sans-Serif" font-size="10.00">getConfigurationFilesTo</text>
<text text-anchor="start" x="1344" y="-107.25" font-family="Helvetica,sans-Serif" font-size="10.00">Update(InputInterface</text>
<text text-anchor="start" x="1344" y="-96" font-family="Helvetica,sans-Serif" font-size="10.00"> $input)</text>
<text text-anchor="start" x="1334.38" y="-81.5" font-family="Helvetica,sans-Serif" font-size="10.00">#</text>
<text text-anchor="start" x="1344" y="-81.5" font-family="Helvetica,sans-Serif" font-size="10.00">configure()</text>
<text text-anchor="start" x="1334.38" y="-66.5" font-family="Helvetica,sans-Serif" font-size="10.00">#</text>
<text text-anchor="start" x="1344" y="-66.5" font-family="Helvetica,sans-Serif" font-size="10.00">execute(InputInterface</text>
<text text-anchor="start" x="1344" y="-55.25" font-family="Helvetica,sans-Serif" font-size="10.00"> $input, OutputInterface</text>
<text text-anchor="start" x="1344" y="-44" font-family="Helvetica,sans-Serif" font-size="10.00"> $output)</text>
<polygon fill="#666666" stroke="#666666" points="1330,-182 1330,-182 1509,-182 1509,-182 1330,-182"/>
<polygon fill="#666666" stroke="#666666" points="1330,-130 1330,-130 1342,-130 1342,-130 1330,-130"/>
<polygon fill="#666666" stroke="#666666" points="1342,-130 1342,-130 1509,-130 1509,-130 1342,-130"/>
<polygon fill="none" stroke="#666666" points="1330,-39 1330,-199 1509,-199 1509,-39 1330,-39"/>
</a>
</g>
</g>
<!-- Node1&#45;&gt;Node10 -->
<g id="edge33_Node000001_Node000010" class="edge">
<title>Node1&#45;&gt;Node10</title>
<g id="a_edge33_Node000001_Node000010"><a xlink:title=" ">
<path fill="none" stroke="#63b8ff" d="M1061.94,-306.67C1135.63,-301.58 1241.95,-285.62 1321.5,-238 1338.41,-227.88 1353.73,-213.75 1366.97,-198.77"/>
<polygon fill="none" stroke="#63b8ff" points="1062.13,-303.15 1052.37,-307.27 1062.57,-310.13 1062.13,-303.15"/>
</a>
</g>
</g>
<!-- Node11 -->
<g id="Node000011" class="node">
<title>Node11</title>
<g id="a_Node000011"><a xlink:href="$class_glpi_1_1_console_1_1_migration_1_1_unsigned_keys_command.html" xlink:title=" ">
<polygon fill="white" stroke="none" points="1657.5,-199 1527.5,-199 1527.5,-39 1657.5,-39 1657.5,-199"/>
<text text-anchor="start" x="1538.12" y="-185.5" font-family="Helvetica,sans-Serif" font-size="10.00">UnsignedKeysCommand</text>
<text text-anchor="start" x="1531.5" y="-170.5" font-family="Helvetica,sans-Serif" font-size="10.00">+</text>
<text text-anchor="start" x="1541.5" y="-170.5" font-family="Helvetica,sans-Serif" font-size="10.00">const ERROR_COLUMN</text>
<text text-anchor="start" x="1541.5" y="-159.25" font-family="Helvetica,sans-Serif" font-size="10.00">_MIGRATION_FAILED</text>
<text text-anchor="start" x="1531.5" y="-144.5" font-family="Helvetica,sans-Serif" font-size="10.00">+</text>
<text text-anchor="start" x="1541.5" y="-144.5" font-family="Helvetica,sans-Serif" font-size="10.00">const ERROR_UNABLE</text>
<text text-anchor="start" x="1541.5" y="-133.25" font-family="Helvetica,sans-Serif" font-size="10.00">_TO_UPDATE_CONFIG</text>
<text text-anchor="start" x="1531.5" y="-118.5" font-family="Helvetica,sans-Serif" font-size="10.00">+</text>
<text text-anchor="start" x="1541.5" y="-118.5" font-family="Helvetica,sans-Serif" font-size="10.00">getConfigurationFilesTo</text>
<text text-anchor="start" x="1541.5" y="-107.25" font-family="Helvetica,sans-Serif" font-size="10.00">Update(InputInterface</text>
<text text-anchor="start" x="1541.5" y="-96" font-family="Helvetica,sans-Serif" font-size="10.00"> $input)</text>
<text text-anchor="start" x="1531.88" y="-81.5" font-family="Helvetica,sans-Serif" font-size="10.00">#</text>
<text text-anchor="start" x="1541.5" y="-81.5" font-family="Helvetica,sans-Serif" font-size="10.00">configure()</text>
<text text-anchor="start" x="1531.88" y="-66.5" font-family="Helvetica,sans-Serif" font-size="10.00">#</text>
<text text-anchor="start" x="1541.5" y="-66.5" font-family="Helvetica,sans-Serif" font-size="10.00">execute(InputInterface</text>
<text text-anchor="start" x="1541.5" y="-55.25" font-family="Helvetica,sans-Serif" font-size="10.00"> $input, OutputInterface</text>
<text text-anchor="start" x="1541.5" y="-44" font-family="Helvetica,sans-Serif" font-size="10.00"> $output)</text>
<polygon fill="#666666" stroke="#666666" points="1527.5,-182 1527.5,-182 1657.5,-182 1657.5,-182 1527.5,-182"/>
<polygon fill="#666666" stroke="#666666" points="1527.5,-130 1527.5,-130 1539.5,-130 1539.5,-130 1527.5,-130"/>
<polygon fill="#666666" stroke="#666666" points="1539.5,-130 1539.5,-130 1657.5,-130 1657.5,-130 1539.5,-130"/>
<polygon fill="none" stroke="#666666" points="1527.5,-39 1527.5,-199 1657.5,-199 1657.5,-39 1527.5,-39"/>
</a>
</g>
</g>
<!-- Node1&#45;&gt;Node11 -->
<g id="edge34_Node000001_Node000011" class="edge">
<title>Node1&#45;&gt;Node11</title>
<g id="a_edge34_Node000001_Node000011"><a xlink:title=" ">
<path fill="none" stroke="#63b8ff" d="M1062.17,-306.13C1195.88,-301.01 1444.76,-285.25 1518.5,-238 1533.77,-228.21 1546.44,-214.04 1556.73,-198.88"/>
<polygon fill="none" stroke="#63b8ff" points="1062.15,-302.62 1052.29,-306.49 1062.41,-309.62 1062.15,-302.62"/>
</a>
</g>
</g>
<!-- Node12 -->
<g id="Node000012" class="node">
<title>Node12</title>
<g id="a_Node000012"><a xlink:href="$class_glpi_1_1_console_1_1_migration_1_1_utf8mb4_command.html" xlink:title=" ">
<polygon fill="white" stroke="none" points="1837.5,-238 1675.5,-238 1675.5,0 1837.5,0 1837.5,-238"/>
<text text-anchor="start" x="1715.25" y="-224.5" font-family="Helvetica,sans-Serif" font-size="10.00">Utf8mb4Command</text>
<text text-anchor="start" x="1679.5" y="-209.5" font-family="Helvetica,sans-Serif" font-size="10.00">+</text>
<text text-anchor="start" x="1689.5" y="-209.5" font-family="Helvetica,sans-Serif" font-size="10.00">const ERROR_MIGRATION</text>
<text text-anchor="start" x="1689.5" y="-198.25" font-family="Helvetica,sans-Serif" font-size="10.00">_FAILED_FOR_SOME_TABLES</text>
<text text-anchor="start" x="1679.5" y="-183.5" font-family="Helvetica,sans-Serif" font-size="10.00">+</text>
<text text-anchor="start" x="1689.5" y="-183.5" font-family="Helvetica,sans-Serif" font-size="10.00">const ERROR_UNABLE</text>
<text text-anchor="start" x="1689.5" y="-172.25" font-family="Helvetica,sans-Serif" font-size="10.00">_TO_UPDATE_CONFIG</text>
<text text-anchor="start" x="1679.5" y="-157.5" font-family="Helvetica,sans-Serif" font-size="10.00">+</text>
<text text-anchor="start" x="1689.5" y="-157.5" font-family="Helvetica,sans-Serif" font-size="10.00">const ERROR_INNODB</text>
<text text-anchor="start" x="1689.5" y="-146.25" font-family="Helvetica,sans-Serif" font-size="10.00">_REQUIRED</text>
<text text-anchor="start" x="1679.5" y="-131.5" font-family="Helvetica,sans-Serif" font-size="10.00">+</text>
<text text-anchor="start" x="1689.5" y="-131.5" font-family="Helvetica,sans-Serif" font-size="10.00">const ERROR_DYNAMIC</text>
<text text-anchor="start" x="1689.5" y="-120.25" font-family="Helvetica,sans-Serif" font-size="10.00">_ROW_FORMAT_REQUIRED</text>
<text text-anchor="start" x="1679.5" y="-105.5" font-family="Helvetica,sans-Serif" font-size="10.00">+</text>
<text text-anchor="start" x="1689.5" y="-105.5" font-family="Helvetica,sans-Serif" font-size="10.00">const ERROR_INCOMPATIBLE</text>
<text text-anchor="start" x="1689.5" y="-94.25" font-family="Helvetica,sans-Serif" font-size="10.00">_DB_CONFIG</text>
<text text-anchor="start" x="1679.5" y="-79.5" font-family="Helvetica,sans-Serif" font-size="10.00">+</text>
<text text-anchor="start" x="1689.5" y="-79.5" font-family="Helvetica,sans-Serif" font-size="10.00">getConfigurationFilesTo</text>
<text text-anchor="start" x="1689.5" y="-68.25" font-family="Helvetica,sans-Serif" font-size="10.00">Update(InputInterface</text>
<text text-anchor="start" x="1689.5" y="-57" font-family="Helvetica,sans-Serif" font-size="10.00"> $input)</text>
<text text-anchor="start" x="1679.88" y="-42.5" font-family="Helvetica,sans-Serif" font-size="10.00">#</text>
<text text-anchor="start" x="1689.5" y="-42.5" font-family="Helvetica,sans-Serif" font-size="10.00">configure()</text>
<text text-anchor="start" x="1679.88" y="-27.5" font-family="Helvetica,sans-Serif" font-size="10.00">#</text>
<text text-anchor="start" x="1689.5" y="-27.5" font-family="Helvetica,sans-Serif" font-size="10.00">execute(InputInterface</text>
<text text-anchor="start" x="1689.5" y="-16.25" font-family="Helvetica,sans-Serif" font-size="10.00"> $input, OutputInterface</text>
<text text-anchor="start" x="1689.5" y="-5" font-family="Helvetica,sans-Serif" font-size="10.00"> $output)</text>
<polygon fill="#666666" stroke="#666666" points="1675.5,-221 1675.5,-221 1837.5,-221 1837.5,-221 1675.5,-221"/>
<polygon fill="#666666" stroke="#666666" points="1675.5,-91 1675.5,-91 1687.5,-91 1687.5,-91 1675.5,-91"/>
<polygon fill="#666666" stroke="#666666" points="1687.5,-91 1687.5,-91 1837.5,-91 1837.5,-91 1687.5,-91"/>
<polygon fill="none" stroke="#666666" points="1675.5,0 1675.5,-238 1837.5,-238 1837.5,0 1675.5,0"/>
</a>
</g>
</g>
<!-- Node1&#45;&gt;Node12 -->
<g id="edge35_Node000001_Node000012" class="edge">
<title>Node1&#45;&gt;Node12</title>
<g id="a_edge35_Node000001_Node000012"><a xlink:title=" ">
<path fill="none" stroke="#63b8ff" d="M1062.33,-308.12C1224.24,-306.04 1565.03,-294.81 1666.5,-238 1669.65,-236.24 1672.72,-234.32 1675.72,-232.26"/>
<polygon fill="none" stroke="#63b8ff" points="1062.45,-304.62 1052.5,-308.23 1062.54,-311.62 1062.45,-304.62"/>
</a>
</g>
</g>
<!-- Node13 -->
<g id="Node000013" class="node">
<title>Node13</title>
<g id="a_Node000013"><a xlink:href="$class_glpi_1_1_console_1_1_security_1_1_changekey_command.html" xlink:title=" ">
<polygon fill="white" stroke="none" points="1983,-186 1856,-186 1856,-52 1983,-52 1983,-186"/>
<text text-anchor="start" x="1872.25" y="-172.5" font-family="Helvetica,sans-Serif" font-size="10.00">ChangekeyCommand</text>
<text text-anchor="start" x="1860" y="-157.5" font-family="Helvetica,sans-Serif" font-size="10.00">+</text>
<text text-anchor="start" x="1870" y="-157.5" font-family="Helvetica,sans-Serif" font-size="10.00">const ERROR_UNABLE</text>
<text text-anchor="start" x="1870" y="-146.25" font-family="Helvetica,sans-Serif" font-size="10.00">_TO_RENEW_KEY</text>
<text text-anchor="start" x="1860" y="-131.5" font-family="Helvetica,sans-Serif" font-size="10.00">+</text>
<text text-anchor="start" x="1870" y="-131.5" font-family="Helvetica,sans-Serif" font-size="10.00">getConfigurationFilesTo</text>
<text text-anchor="start" x="1870" y="-120.25" font-family="Helvetica,sans-Serif" font-size="10.00">Update(InputInterface</text>
<text text-anchor="start" x="1870" y="-109" font-family="Helvetica,sans-Serif" font-size="10.00"> $input)</text>
<text text-anchor="start" x="1860.38" y="-94.5" font-family="Helvetica,sans-Serif" font-size="10.00">#</text>
<text text-anchor="start" x="1870" y="-94.5" font-family="Helvetica,sans-Serif" font-size="10.00">configure()</text>
<text text-anchor="start" x="1860.38" y="-79.5" font-family="Helvetica,sans-Serif" font-size="10.00">#</text>
<text text-anchor="start" x="1870" y="-79.5" font-family="Helvetica,sans-Serif" font-size="10.00">execute(InputInterface</text>
<text text-anchor="start" x="1870" y="-68.25" font-family="Helvetica,sans-Serif" font-size="10.00"> $input, OutputInterface</text>
<text text-anchor="start" x="1870" y="-57" font-family="Helvetica,sans-Serif" font-size="10.00"> $output)</text>
<polygon fill="#666666" stroke="#666666" points="1856,-169 1856,-169 1983,-169 1983,-169 1856,-169"/>
<polygon fill="#666666" stroke="#666666" points="1856,-143 1856,-143 1868,-143 1868,-143 1856,-143"/>
<polygon fill="#666666" stroke="#666666" points="1868,-143 1868,-143 1983,-143 1983,-143 1868,-143"/>
<polygon fill="none" stroke="#666666" points="1856,-52 1856,-186 1983,-186 1983,-52 1856,-52"/>
</a>
</g>
</g>
<!-- Node1&#45;&gt;Node13 -->
<g id="edge36_Node000001_Node000013" class="edge">
<title>Node1&#45;&gt;Node13</title>
<g id="a_edge36_Node000001_Node000013"><a xlink:title=" ">
<path fill="none" stroke="#63b8ff" d="M1062.35,-305.89C1269.59,-299.04 1780.68,-278.24 1846.5,-238 1866.44,-225.81 1881.74,-205.92 1893.07,-185.91"/>
<polygon fill="none" stroke="#63b8ff" points="1062.32,-302.39 1052.44,-306.22 1062.55,-309.39 1062.32,-302.39"/>
</a>
</g>
</g>
</g>
</svg>
