<?xml version="1.0" encoding="UTF-8" standalone="no"?>
<!DOCTYPE svg PUBLIC "-//W3C//DTD SVG 1.1//EN"
 "http://www.w3.org/Graphics/SVG/1.1/DTD/svg11.dtd">
<!-- Generated by graphviz version 10.0.1 (20240210.2158)
 -->
<!-- Title: ConsoleOutputInterface Pages: 1 -->
<svg width="196pt" height="813pt"
 viewBox="0.00 0.00 196.00 813.00" xmlns="http://www.w3.org/2000/svg" xmlns:xlink="http://www.w3.org/1999/xlink">
<g id="graph0" class="graph" transform="scale(1 1) rotate(0) translate(4 809)">
<title>ConsoleOutputInterface</title>
<!-- Node1 -->
<g id="Node000001" class="node">
<title>Node1</title>
<g id="a_Node000001"><a xlink:title=" ">
<polygon fill="#999999" stroke="none" points="170,-373 18,-373 18,-283 170,-283 170,-373"/>
<text text-anchor="start" x="42.25" y="-359.5" font-family="Helvetica,sans-Serif" font-size="10.00">ConsoleOutputInterface</text>
<text text-anchor="start" x="92.5" y="-344.5" font-family="Helvetica,sans-Serif" font-size="10.00"> </text>
<text text-anchor="start" x="22" y="-329.5" font-family="Helvetica,sans-Serif" font-size="10.00">+</text>
<text text-anchor="start" x="32" y="-329.5" font-family="Helvetica,sans-Serif" font-size="10.00">getErrorOutput()</text>
<text text-anchor="start" x="22" y="-314.5" font-family="Helvetica,sans-Serif" font-size="10.00">+</text>
<text text-anchor="start" x="32" y="-314.5" font-family="Helvetica,sans-Serif" font-size="10.00">setErrorOutput(OutputInterface</text>
<text text-anchor="start" x="32" y="-303.25" font-family="Helvetica,sans-Serif" font-size="10.00"> $error)</text>
<text text-anchor="start" x="22" y="-288.5" font-family="Helvetica,sans-Serif" font-size="10.00">+</text>
<text text-anchor="start" x="32" y="-288.5" font-family="Helvetica,sans-Serif" font-size="10.00">section()</text>
<polygon fill="#666666" stroke="#666666" points="18,-356 18,-356 170,-356 170,-356 18,-356"/>
<polygon fill="#666666" stroke="#666666" points="18,-341 18,-341 170,-341 170,-341 18,-341"/>
<polygon fill="none" stroke="#666666" points="18,-283 18,-373 170,-373 170,-283 18,-283"/>
</a>
</g>
</g>
<!-- Node3 -->
<g id="Node000003" class="node">
<title>Node3</title>
<g id="a_Node000003"><a xlink:href="$class_symfony_1_1_component_1_1_console_1_1_output_1_1_console_output.html" xlink:title=" ">
<polygon fill="white" stroke="none" points="188,-247 0,-247 0,0 188,0 188,-247"/>
<text text-anchor="start" x="61.38" y="-233.5" font-family="Helvetica,sans-Serif" font-size="10.00">ConsoleOutput</text>
<text text-anchor="start" x="92.5" y="-218.5" font-family="Helvetica,sans-Serif" font-size="10.00"> </text>
<text text-anchor="start" x="4" y="-203.5" font-family="Helvetica,sans-Serif" font-size="10.00">+</text>
<text text-anchor="start" x="14" y="-203.5" font-family="Helvetica,sans-Serif" font-size="10.00">__construct(int $verbosity</text>
<text text-anchor="start" x="14" y="-192.25" font-family="Helvetica,sans-Serif" font-size="10.00">=self::VERBOSITY_NORMAL,</text>
<text text-anchor="start" x="14" y="-181" font-family="Helvetica,sans-Serif" font-size="10.00"> bool $decorated=null, OutputFormatter</text>
<text text-anchor="start" x="14" y="-169.75" font-family="Helvetica,sans-Serif" font-size="10.00">Interface $formatter=null)</text>
<text text-anchor="start" x="4" y="-154.5" font-family="Helvetica,sans-Serif" font-size="10.00">+</text>
<text text-anchor="start" x="14" y="-154.5" font-family="Helvetica,sans-Serif" font-size="10.00">section()</text>
<text text-anchor="start" x="4" y="-139.5" font-family="Helvetica,sans-Serif" font-size="10.00">+</text>
<text text-anchor="start" x="14" y="-139.5" font-family="Helvetica,sans-Serif" font-size="10.00">setDecorated(bool</text>
<text text-anchor="start" x="14" y="-128.25" font-family="Helvetica,sans-Serif" font-size="10.00"> $decorated)</text>
<text text-anchor="start" x="4" y="-113.5" font-family="Helvetica,sans-Serif" font-size="10.00">+</text>
<text text-anchor="start" x="14" y="-113.5" font-family="Helvetica,sans-Serif" font-size="10.00">setFormatter(OutputFormatter</text>
<text text-anchor="start" x="14" y="-102.25" font-family="Helvetica,sans-Serif" font-size="10.00">Interface $formatter)</text>
<text text-anchor="start" x="4" y="-87.5" font-family="Helvetica,sans-Serif" font-size="10.00">+</text>
<text text-anchor="start" x="14" y="-87.5" font-family="Helvetica,sans-Serif" font-size="10.00">setVerbosity(int </text>
<text text-anchor="start" x="14" y="-76.25" font-family="Helvetica,sans-Serif" font-size="10.00">$level)</text>
<text text-anchor="start" x="4" y="-61.5" font-family="Helvetica,sans-Serif" font-size="10.00">+</text>
<text text-anchor="start" x="14" y="-61.5" font-family="Helvetica,sans-Serif" font-size="10.00">getErrorOutput()</text>
<text text-anchor="start" x="4" y="-46.5" font-family="Helvetica,sans-Serif" font-size="10.00">+</text>
<text text-anchor="start" x="14" y="-46.5" font-family="Helvetica,sans-Serif" font-size="10.00">setErrorOutput(OutputInterface</text>
<text text-anchor="start" x="14" y="-35.25" font-family="Helvetica,sans-Serif" font-size="10.00"> $error)</text>
<text text-anchor="start" x="4.38" y="-20.5" font-family="Helvetica,sans-Serif" font-size="10.00">#</text>
<text text-anchor="start" x="14" y="-20.5" font-family="Helvetica,sans-Serif" font-size="10.00">hasStdoutSupport()</text>
<text text-anchor="start" x="4.38" y="-5.5" font-family="Helvetica,sans-Serif" font-size="10.00">#</text>
<text text-anchor="start" x="14" y="-5.5" font-family="Helvetica,sans-Serif" font-size="10.00">hasStderrSupport()</text>
<polygon fill="#666666" stroke="#666666" points="0,-230 0,-230 188,-230 188,-230 0,-230"/>
<polygon fill="#666666" stroke="#666666" points="0,-215 0,-215 188,-215 188,-215 0,-215"/>
<polygon fill="none" stroke="#666666" points="0,0 0,-247 188,-247 188,0 0,0"/>
</a>
</g>
</g>
<!-- Node1&#45;&gt;Node3 -->
<g id="edge6_Node000001_Node000003" class="edge">
<title>Node1&#45;&gt;Node3</title>
<g id="a_edge6_Node000001_Node000003"><a xlink:title=" ">
<path fill="none" stroke="#63b8ff" d="M94,-271.78C94,-263.82 94,-255.37 94,-246.72"/>
<polygon fill="none" stroke="#63b8ff" points="90.5,-271.55 94,-281.55 97.5,-271.55 90.5,-271.55"/>
</a>
</g>
</g>
<!-- Node2 -->
<g id="Node000002" class="node">
<title>Node2</title>
<g id="a_Node000002"><a xlink:href="$interface_symfony_1_1_component_1_1_console_1_1_output_1_1_output_interface.html" xlink:title=" ">
<polygon fill="white" stroke="none" points="172,-805 16,-805 16,-409 172,-409 172,-805"/>
<text text-anchor="start" x="60.25" y="-791.5" font-family="Helvetica,sans-Serif" font-size="10.00">OutputInterface</text>
<text text-anchor="start" x="20" y="-776.5" font-family="Helvetica,sans-Serif" font-size="10.00">+</text>
<text text-anchor="start" x="30" y="-776.5" font-family="Helvetica,sans-Serif" font-size="10.00">const VERBOSITY_QUIET</text>
<text text-anchor="start" x="20" y="-761.5" font-family="Helvetica,sans-Serif" font-size="10.00">+</text>
<text text-anchor="start" x="30" y="-761.5" font-family="Helvetica,sans-Serif" font-size="10.00">const VERBOSITY_NORMAL</text>
<text text-anchor="start" x="20" y="-746.5" font-family="Helvetica,sans-Serif" font-size="10.00">+</text>
<text text-anchor="start" x="30" y="-746.5" font-family="Helvetica,sans-Serif" font-size="10.00">const VERBOSITY_VERBOSE</text>
<text text-anchor="start" x="20" y="-731.5" font-family="Helvetica,sans-Serif" font-size="10.00">+</text>
<text text-anchor="start" x="30" y="-731.5" font-family="Helvetica,sans-Serif" font-size="10.00">const VERBOSITY_VERY</text>
<text text-anchor="start" x="30" y="-720.25" font-family="Helvetica,sans-Serif" font-size="10.00">_VERBOSE</text>
<text text-anchor="start" x="20" y="-705.5" font-family="Helvetica,sans-Serif" font-size="10.00">+</text>
<text text-anchor="start" x="30" y="-705.5" font-family="Helvetica,sans-Serif" font-size="10.00">const VERBOSITY_DEBUG</text>
<text text-anchor="start" x="20" y="-690.5" font-family="Helvetica,sans-Serif" font-size="10.00">+</text>
<text text-anchor="start" x="30" y="-690.5" font-family="Helvetica,sans-Serif" font-size="10.00">const OUTPUT_NORMAL</text>
<text text-anchor="start" x="20" y="-675.5" font-family="Helvetica,sans-Serif" font-size="10.00">+</text>
<text text-anchor="start" x="30" y="-675.5" font-family="Helvetica,sans-Serif" font-size="10.00">const OUTPUT_RAW</text>
<text text-anchor="start" x="20" y="-660.5" font-family="Helvetica,sans-Serif" font-size="10.00">+</text>
<text text-anchor="start" x="30" y="-660.5" font-family="Helvetica,sans-Serif" font-size="10.00">const OUTPUT_PLAIN</text>
<text text-anchor="start" x="20" y="-645.5" font-family="Helvetica,sans-Serif" font-size="10.00">+</text>
<text text-anchor="start" x="30" y="-645.5" font-family="Helvetica,sans-Serif" font-size="10.00">write($messages, bool</text>
<text text-anchor="start" x="30" y="-634.25" font-family="Helvetica,sans-Serif" font-size="10.00"> $newline=false, int </text>
<text text-anchor="start" x="30" y="-623" font-family="Helvetica,sans-Serif" font-size="10.00">$options=0)</text>
<text text-anchor="start" x="20" y="-608.5" font-family="Helvetica,sans-Serif" font-size="10.00">+</text>
<text text-anchor="start" x="30" y="-608.5" font-family="Helvetica,sans-Serif" font-size="10.00">writeln($messages,</text>
<text text-anchor="start" x="30" y="-597.25" font-family="Helvetica,sans-Serif" font-size="10.00"> int $options=0)</text>
<text text-anchor="start" x="20" y="-582.5" font-family="Helvetica,sans-Serif" font-size="10.00">+</text>
<text text-anchor="start" x="30" y="-582.5" font-family="Helvetica,sans-Serif" font-size="10.00">setVerbosity(int </text>
<text text-anchor="start" x="30" y="-571.25" font-family="Helvetica,sans-Serif" font-size="10.00">$level)</text>
<text text-anchor="start" x="20" y="-556.5" font-family="Helvetica,sans-Serif" font-size="10.00">+</text>
<text text-anchor="start" x="30" y="-556.5" font-family="Helvetica,sans-Serif" font-size="10.00">getVerbosity()</text>
<text text-anchor="start" x="20" y="-541.5" font-family="Helvetica,sans-Serif" font-size="10.00">+</text>
<text text-anchor="start" x="30" y="-541.5" font-family="Helvetica,sans-Serif" font-size="10.00">isQuiet()</text>
<text text-anchor="start" x="20" y="-526.5" font-family="Helvetica,sans-Serif" font-size="10.00">+</text>
<text text-anchor="start" x="30" y="-526.5" font-family="Helvetica,sans-Serif" font-size="10.00">isVerbose()</text>
<text text-anchor="start" x="20" y="-511.5" font-family="Helvetica,sans-Serif" font-size="10.00">+</text>
<text text-anchor="start" x="30" y="-511.5" font-family="Helvetica,sans-Serif" font-size="10.00">isVeryVerbose()</text>
<text text-anchor="start" x="20" y="-496.5" font-family="Helvetica,sans-Serif" font-size="10.00">+</text>
<text text-anchor="start" x="30" y="-496.5" font-family="Helvetica,sans-Serif" font-size="10.00">isDebug()</text>
<text text-anchor="start" x="20" y="-481.5" font-family="Helvetica,sans-Serif" font-size="10.00">+</text>
<text text-anchor="start" x="30" y="-481.5" font-family="Helvetica,sans-Serif" font-size="10.00">setDecorated(bool</text>
<text text-anchor="start" x="30" y="-470.25" font-family="Helvetica,sans-Serif" font-size="10.00"> $decorated)</text>
<text text-anchor="start" x="20" y="-455.5" font-family="Helvetica,sans-Serif" font-size="10.00">+</text>
<text text-anchor="start" x="30" y="-455.5" font-family="Helvetica,sans-Serif" font-size="10.00">isDecorated()</text>
<text text-anchor="start" x="20" y="-440.5" font-family="Helvetica,sans-Serif" font-size="10.00">+</text>
<text text-anchor="start" x="30" y="-440.5" font-family="Helvetica,sans-Serif" font-size="10.00">setFormatter(OutputFormatter</text>
<text text-anchor="start" x="30" y="-429.25" font-family="Helvetica,sans-Serif" font-size="10.00">Interface $formatter)</text>
<text text-anchor="start" x="20" y="-414.5" font-family="Helvetica,sans-Serif" font-size="10.00">+</text>
<text text-anchor="start" x="30" y="-414.5" font-family="Helvetica,sans-Serif" font-size="10.00">getFormatter()</text>
<polygon fill="#666666" stroke="#666666" points="16,-788 16,-788 172,-788 172,-788 16,-788"/>
<polygon fill="#666666" stroke="#666666" points="16,-657 16,-657 28,-657 28,-657 16,-657"/>
<polygon fill="#666666" stroke="#666666" points="28,-657 28,-657 172,-657 172,-657 28,-657"/>
<polygon fill="none" stroke="#666666" points="16,-409 16,-805 172,-805 172,-409 16,-409"/>
</a>
</g>
</g>
<!-- Node2&#45;&gt;Node1 -->
<g id="edge5_Node000001_Node000002" class="edge">
<title>Node2&#45;&gt;Node1</title>
<g id="a_edge5_Node000001_Node000002"><a xlink:title=" ">
<path fill="none" stroke="#63b8ff" d="M94,-397.89C94,-388.89 94,-380.41 94,-372.7"/>
<polygon fill="none" stroke="#63b8ff" points="90.5,-397.61 94,-407.61 97.5,-397.61 90.5,-397.61"/>
</a>
</g>
</g>
</g>
</svg>
