<?xml version="1.0" encoding="UTF-8" standalone="no"?>
<!DOCTYPE svg PUBLIC "-//W3C//DTD SVG 1.1//EN"
 "http://www.w3.org/Graphics/SVG/1.1/DTD/svg11.dtd">
<!-- Generated by graphviz version 10.0.1 (20240210.2158)
 -->
<!-- Title: QueueInterface Pages: 1 -->
<svg width="338pt" height="873pt"
 viewBox="0.00 0.00 337.50 873.00" xmlns="http://www.w3.org/2000/svg" xmlns:xlink="http://www.w3.org/1999/xlink">
<g id="graph0" class="graph" transform="scale(1 1) rotate(0) translate(4 869)">
<title>QueueInterface</title>
<!-- Node1 -->
<g id="Node000001" class="node">
<title>Node1</title>
<g id="a_Node000001"><a xlink:title=" ">
<polygon fill="#999999" stroke="none" points="178,-665 95,-665 95,-526 178,-526 178,-665"/>
<text text-anchor="start" x="103.12" y="-651.5" font-family="Helvetica,sans-Serif" font-size="10.00">QueueInterface</text>
<text text-anchor="start" x="135" y="-636.5" font-family="Helvetica,sans-Serif" font-size="10.00"> </text>
<text text-anchor="start" x="99" y="-621.5" font-family="Helvetica,sans-Serif" font-size="10.00">+</text>
<text text-anchor="start" x="109" y="-621.5" font-family="Helvetica,sans-Serif" font-size="10.00">add($element)</text>
<text text-anchor="start" x="99" y="-606.5" font-family="Helvetica,sans-Serif" font-size="10.00">+</text>
<text text-anchor="start" x="109" y="-606.5" font-family="Helvetica,sans-Serif" font-size="10.00">element()</text>
<text text-anchor="start" x="99" y="-591.5" font-family="Helvetica,sans-Serif" font-size="10.00">+</text>
<text text-anchor="start" x="109" y="-591.5" font-family="Helvetica,sans-Serif" font-size="10.00">offer($element)</text>
<text text-anchor="start" x="99" y="-576.5" font-family="Helvetica,sans-Serif" font-size="10.00">+</text>
<text text-anchor="start" x="109" y="-576.5" font-family="Helvetica,sans-Serif" font-size="10.00">peek()</text>
<text text-anchor="start" x="99" y="-561.5" font-family="Helvetica,sans-Serif" font-size="10.00">+</text>
<text text-anchor="start" x="109" y="-561.5" font-family="Helvetica,sans-Serif" font-size="10.00">poll()</text>
<text text-anchor="start" x="99" y="-546.5" font-family="Helvetica,sans-Serif" font-size="10.00">+</text>
<text text-anchor="start" x="109" y="-546.5" font-family="Helvetica,sans-Serif" font-size="10.00">remove()</text>
<text text-anchor="start" x="99" y="-531.5" font-family="Helvetica,sans-Serif" font-size="10.00">+</text>
<text text-anchor="start" x="109" y="-531.5" font-family="Helvetica,sans-Serif" font-size="10.00">getType()</text>
<polygon fill="#666666" stroke="#666666" points="95,-648 95,-648 178,-648 178,-648 95,-648"/>
<polygon fill="#666666" stroke="#666666" points="95,-633 95,-633 178,-633 178,-633 95,-633"/>
<polygon fill="none" stroke="#666666" points="95,-526 95,-665 178,-665 178,-526 95,-526"/>
</a>
</g>
</g>
<!-- Node7 -->
<g id="Node000007" class="node">
<title>Node7</title>
<g id="a_Node000007"><a xlink:href="$interface_ramsey_1_1_collection_1_1_double_ended_queue_interface.html" xlink:title=" ">
<polygon fill="white" stroke="none" points="135,-490 0,-490 0,-276 135,-276 135,-490"/>
<text text-anchor="start" x="4.88" y="-476.5" font-family="Helvetica,sans-Serif" font-size="10.00">DoubleEndedQueueInterface</text>
<text text-anchor="start" x="66" y="-461.5" font-family="Helvetica,sans-Serif" font-size="10.00"> </text>
<text text-anchor="start" x="12" y="-446.5" font-family="Helvetica,sans-Serif" font-size="10.00">+</text>
<text text-anchor="start" x="30" y="-446.5" font-family="Helvetica,sans-Serif" font-size="10.00">addFirst($element)</text>
<text text-anchor="start" x="12" y="-431.5" font-family="Helvetica,sans-Serif" font-size="10.00">+</text>
<text text-anchor="start" x="30" y="-431.5" font-family="Helvetica,sans-Serif" font-size="10.00">addLast($element)</text>
<text text-anchor="start" x="12" y="-416.5" font-family="Helvetica,sans-Serif" font-size="10.00">+</text>
<text text-anchor="start" x="30" y="-416.5" font-family="Helvetica,sans-Serif" font-size="10.00">offerFirst($element)</text>
<text text-anchor="start" x="12" y="-401.5" font-family="Helvetica,sans-Serif" font-size="10.00">+</text>
<text text-anchor="start" x="30" y="-401.5" font-family="Helvetica,sans-Serif" font-size="10.00">offerLast($element)</text>
<text text-anchor="start" x="12" y="-386.5" font-family="Helvetica,sans-Serif" font-size="10.00">+</text>
<text text-anchor="start" x="30" y="-386.5" font-family="Helvetica,sans-Serif" font-size="10.00">removeFirst()</text>
<text text-anchor="start" x="12" y="-371.5" font-family="Helvetica,sans-Serif" font-size="10.00">+</text>
<text text-anchor="start" x="30" y="-371.5" font-family="Helvetica,sans-Serif" font-size="10.00">removeLast()</text>
<text text-anchor="start" x="12" y="-356.5" font-family="Helvetica,sans-Serif" font-size="10.00">+</text>
<text text-anchor="start" x="30" y="-356.5" font-family="Helvetica,sans-Serif" font-size="10.00">pollFirst()</text>
<text text-anchor="start" x="12" y="-341.5" font-family="Helvetica,sans-Serif" font-size="10.00">+</text>
<text text-anchor="start" x="30" y="-341.5" font-family="Helvetica,sans-Serif" font-size="10.00">pollLast()</text>
<text text-anchor="start" x="12" y="-326.5" font-family="Helvetica,sans-Serif" font-size="10.00">+</text>
<text text-anchor="start" x="30" y="-326.5" font-family="Helvetica,sans-Serif" font-size="10.00">firstElement()</text>
<text text-anchor="start" x="12" y="-311.5" font-family="Helvetica,sans-Serif" font-size="10.00">+</text>
<text text-anchor="start" x="30" y="-311.5" font-family="Helvetica,sans-Serif" font-size="10.00">lastElement()</text>
<text text-anchor="start" x="12" y="-296.5" font-family="Helvetica,sans-Serif" font-size="10.00">+</text>
<text text-anchor="start" x="30" y="-296.5" font-family="Helvetica,sans-Serif" font-size="10.00">peekFirst()</text>
<text text-anchor="start" x="12" y="-281.5" font-family="Helvetica,sans-Serif" font-size="10.00">+</text>
<text text-anchor="start" x="30" y="-281.5" font-family="Helvetica,sans-Serif" font-size="10.00">peekLast()</text>
<polygon fill="#666666" stroke="#666666" points="0,-473 0,-473 135,-473 135,-473 0,-473"/>
<polygon fill="#666666" stroke="#666666" points="0,-458 0,-458 135,-458 135,-458 0,-458"/>
<polygon fill="none" stroke="#666666" points="0,-276 0,-490 135,-490 135,-276 0,-276"/>
</a>
</g>
</g>
<!-- Node1&#45;&gt;Node7 -->
<g id="edge41_Node000001_Node000007" class="edge">
<title>Node1&#45;&gt;Node7</title>
<g id="a_edge41_Node000001_Node000007"><a xlink:title=" ">
<path fill="none" stroke="#63b8ff" d="M103.99,-515.34C101.13,-506.99 98.26,-498.42 95.44,-489.83"/>
<polygon fill="none" stroke="#63b8ff" points="100.66,-516.42 107.24,-524.73 107.28,-514.13 100.66,-516.42"/>
</a>
</g>
</g>
<!-- Node1&#45;&gt;Node7 -->
<g id="edge44_Node000001_Node000007" class="edge">
<title>Node1&#45;&gt;Node7</title>
<g id="a_edge44_Node000001_Node000007"><a xlink:title=" ">
<path fill="none" stroke="#63b8ff" d="M117.11,-515.34C114.5,-506.99 111.75,-498.42 108.94,-489.83"/>
<polygon fill="none" stroke="#63b8ff" points="113.71,-516.19 120.02,-524.71 120.4,-514.12 113.71,-516.19"/>
</a>
</g>
</g>
<!-- Node9 -->
<g id="Node000009" class="node">
<title>Node9</title>
<g id="a_Node000009"><a xlink:href="$class_ramsey_1_1_collection_1_1_queue.html" xlink:title=" ">
<polygon fill="white" stroke="none" points="257.5,-484 153.5,-484 153.5,-282 257.5,-282 257.5,-484"/>
<text text-anchor="start" x="191.25" y="-470.5" font-family="Helvetica,sans-Serif" font-size="10.00">Queue</text>
<text text-anchor="start" x="157.88" y="-455.5" font-family="Helvetica,sans-Serif" font-size="10.00">#</text>
<text text-anchor="start" x="167.5" y="-455.5" font-family="Helvetica,sans-Serif" font-size="10.00">$index</text>
<text text-anchor="start" x="157.5" y="-440.5" font-family="Helvetica,sans-Serif" font-size="10.00">+</text>
<text text-anchor="start" x="167.5" y="-440.5" font-family="Helvetica,sans-Serif" font-size="10.00">__construct(string</text>
<text text-anchor="start" x="167.5" y="-429.25" font-family="Helvetica,sans-Serif" font-size="10.00"> $queueType, array </text>
<text text-anchor="start" x="167.5" y="-418" font-family="Helvetica,sans-Serif" font-size="10.00">$data=[])</text>
<text text-anchor="start" x="157.5" y="-403.5" font-family="Helvetica,sans-Serif" font-size="10.00">+</text>
<text text-anchor="start" x="167.5" y="-403.5" font-family="Helvetica,sans-Serif" font-size="10.00">offsetSet($offset,</text>
<text text-anchor="start" x="167.5" y="-392.25" font-family="Helvetica,sans-Serif" font-size="10.00"> $value)</text>
<text text-anchor="start" x="157.5" y="-377.5" font-family="Helvetica,sans-Serif" font-size="10.00">+</text>
<text text-anchor="start" x="167.5" y="-377.5" font-family="Helvetica,sans-Serif" font-size="10.00">add($element)</text>
<text text-anchor="start" x="157.5" y="-362.5" font-family="Helvetica,sans-Serif" font-size="10.00">+</text>
<text text-anchor="start" x="167.5" y="-362.5" font-family="Helvetica,sans-Serif" font-size="10.00">element()</text>
<text text-anchor="start" x="157.5" y="-347.5" font-family="Helvetica,sans-Serif" font-size="10.00">+</text>
<text text-anchor="start" x="167.5" y="-347.5" font-family="Helvetica,sans-Serif" font-size="10.00">offer($element)</text>
<text text-anchor="start" x="157.5" y="-332.5" font-family="Helvetica,sans-Serif" font-size="10.00">+</text>
<text text-anchor="start" x="167.5" y="-332.5" font-family="Helvetica,sans-Serif" font-size="10.00">peek()</text>
<text text-anchor="start" x="157.5" y="-317.5" font-family="Helvetica,sans-Serif" font-size="10.00">+</text>
<text text-anchor="start" x="167.5" y="-317.5" font-family="Helvetica,sans-Serif" font-size="10.00">poll()</text>
<text text-anchor="start" x="157.5" y="-302.5" font-family="Helvetica,sans-Serif" font-size="10.00">+</text>
<text text-anchor="start" x="167.5" y="-302.5" font-family="Helvetica,sans-Serif" font-size="10.00">remove()</text>
<text text-anchor="start" x="157.5" y="-287.5" font-family="Helvetica,sans-Serif" font-size="10.00">+</text>
<text text-anchor="start" x="167.5" y="-287.5" font-family="Helvetica,sans-Serif" font-size="10.00">getType()</text>
<polygon fill="#666666" stroke="#666666" points="153.5,-467 153.5,-467 257.5,-467 257.5,-467 153.5,-467"/>
<polygon fill="#666666" stroke="#666666" points="153.5,-452 153.5,-452 165.5,-452 165.5,-452 153.5,-452"/>
<polygon fill="#666666" stroke="#666666" points="165.5,-452 165.5,-452 257.5,-452 257.5,-452 165.5,-452"/>
<polygon fill="none" stroke="#666666" points="153.5,-282 153.5,-484 257.5,-484 257.5,-282 153.5,-282"/>
</a>
</g>
</g>
<!-- Node1&#45;&gt;Node9 -->
<g id="edge45_Node000001_Node000009" class="edge">
<title>Node1&#45;&gt;Node9</title>
<g id="a_edge45_Node000001_Node000009"><a xlink:title=" ">
<path fill="none" stroke="#63b8ff" d="M155.94,-515.17C159.16,-504.9 162.58,-494.27 166.07,-483.72"/>
<polygon fill="none" stroke="#63b8ff" points="152.6,-514.12 152.98,-524.71 159.29,-516.19 152.6,-514.12"/>
</a>
</g>
</g>
<!-- Node1&#45;&gt;Node9 -->
<g id="edge48_Node000001_Node000009" class="edge">
<title>Node1&#45;&gt;Node9</title>
<g id="a_edge48_Node000001_Node000009"><a xlink:title=" ">
<path fill="none" stroke="#63b8ff" d="M168.96,-515.5C172.51,-505.12 176.09,-494.39 179.55,-483.72"/>
<polygon fill="none" stroke="#63b8ff" points="165.73,-514.13 165.76,-524.73 172.34,-516.42 165.73,-514.13"/>
</a>
</g>
</g>
<!-- Node2 -->
<g id="Node000002" class="node">
<title>Node2</title>
<g id="a_Node000002"><a xlink:href="$interface_ramsey_1_1_collection_1_1_array_interface.html" xlink:title=" ">
<polygon fill="white" stroke="none" points="172,-780 101,-780 101,-701 172,-701 172,-780"/>
<text text-anchor="start" x="105.75" y="-766.5" font-family="Helvetica,sans-Serif" font-size="10.00">ArrayInterface</text>
<text text-anchor="start" x="135" y="-751.5" font-family="Helvetica,sans-Serif" font-size="10.00"> </text>
<text text-anchor="start" x="107.5" y="-736.5" font-family="Helvetica,sans-Serif" font-size="10.00">+</text>
<text text-anchor="start" x="120" y="-736.5" font-family="Helvetica,sans-Serif" font-size="10.00">clear()</text>
<text text-anchor="start" x="107.5" y="-721.5" font-family="Helvetica,sans-Serif" font-size="10.00">+</text>
<text text-anchor="start" x="120" y="-721.5" font-family="Helvetica,sans-Serif" font-size="10.00">toArray()</text>
<text text-anchor="start" x="107.5" y="-706.5" font-family="Helvetica,sans-Serif" font-size="10.00">+</text>
<text text-anchor="start" x="120" y="-706.5" font-family="Helvetica,sans-Serif" font-size="10.00">isEmpty()</text>
<polygon fill="#666666" stroke="#666666" points="101,-763 101,-763 172,-763 172,-763 101,-763"/>
<polygon fill="#666666" stroke="#666666" points="101,-748 101,-748 172,-748 172,-748 101,-748"/>
<polygon fill="none" stroke="#666666" points="101,-701 101,-780 172,-780 172,-701 101,-701"/>
</a>
</g>
</g>
<!-- Node2&#45;&gt;Node1 -->
<g id="edge33_Node000001_Node000002" class="edge">
<title>Node2&#45;&gt;Node1</title>
<g id="a_edge33_Node000001_Node000002"><a xlink:title=" ">
<path fill="none" stroke="#63b8ff" d="M130.03,-689.7C129.82,-681.63 129.72,-673.16 129.76,-664.74"/>
<polygon fill="none" stroke="#63b8ff" points="126.54,-689.8 130.39,-699.67 133.53,-689.55 126.54,-689.8"/>
</a>
</g>
</g>
<!-- Node2&#45;&gt;Node1 -->
<g id="edge40_Node000001_Node000002" class="edge">
<title>Node2&#45;&gt;Node1</title>
<g id="a_edge40_Node000001_Node000002"><a xlink:title=" ">
<path fill="none" stroke="#63b8ff" d="M142.97,-689.7C143.18,-681.63 143.28,-673.16 143.24,-664.74"/>
<polygon fill="none" stroke="#63b8ff" points="139.47,-689.55 142.61,-699.67 146.46,-689.8 139.47,-689.55"/>
</a>
</g>
</g>
<!-- Node3 -->
<g id="Node000003" class="node">
<title>Node3</title>
<g id="a_Node000003"><a xlink:title=" ">
<polygon fill="white" stroke="none" points="75.5,-865 9.5,-865 9.5,-816 75.5,-816 75.5,-865"/>
<text text-anchor="start" x="14.38" y="-851.5" font-family="Helvetica,sans-Serif" font-size="10.00">ArrayAccess</text>
<text text-anchor="start" x="41" y="-836.5" font-family="Helvetica,sans-Serif" font-size="10.00"> </text>
<text text-anchor="start" x="41" y="-821.5" font-family="Helvetica,sans-Serif" font-size="10.00"> </text>
<polygon fill="#666666" stroke="#666666" points="9.5,-848 9.5,-848 75.5,-848 75.5,-848 9.5,-848"/>
<polygon fill="#666666" stroke="#666666" points="9.5,-833 9.5,-833 75.5,-833 75.5,-833 9.5,-833"/>
<polygon fill="none" stroke="#666666" points="9.5,-816 9.5,-865 75.5,-865 75.5,-816 9.5,-816"/>
</a>
</g>
</g>
<!-- Node3&#45;&gt;Node2 -->
<g id="edge34_Node000002_Node000003" class="edge">
<title>Node3&#45;&gt;Node2</title>
<g id="a_edge34_Node000002_Node000003"><a xlink:title=" ">
<path fill="none" stroke="#63b8ff" d="M66.6,-807.74C77.18,-796.14 89.75,-783.07 101.33,-771.62"/>
<polygon fill="none" stroke="#63b8ff" points="64.02,-805.37 59.95,-815.15 69.23,-810.05 64.02,-805.37"/>
</a>
</g>
</g>
<!-- Node3&#45;&gt;Node2 -->
<g id="edge36_Node000002_Node000003" class="edge">
<title>Node3&#45;&gt;Node2</title>
<g id="a_edge36_Node000002_Node000003"><a xlink:title=" ">
<path fill="none" stroke="#63b8ff" d="M79.02,-808.04C88.11,-799.02 97.72,-789.08 106.46,-779.71"/>
<polygon fill="none" stroke="#63b8ff" points="76.65,-805.47 71.96,-814.97 81.55,-810.47 76.65,-805.47"/>
</a>
</g>
</g>
<!-- Node4 -->
<g id="Node000004" class="node">
<title>Node4</title>
<g id="a_Node000004"><a xlink:title=" ">
<polygon fill="white" stroke="none" points="179,-865 94,-865 94,-816 179,-816 179,-865"/>
<text text-anchor="start" x="99" y="-851.5" font-family="Helvetica,sans-Serif" font-size="10.00">IteratorAggregate</text>
<text text-anchor="start" x="135" y="-836.5" font-family="Helvetica,sans-Serif" font-size="10.00"> </text>
<text text-anchor="start" x="135" y="-821.5" font-family="Helvetica,sans-Serif" font-size="10.00"> </text>
<polygon fill="#666666" stroke="#666666" points="94,-848 94,-848 179,-848 179,-848 94,-848"/>
<polygon fill="#666666" stroke="#666666" points="94,-833 94,-833 179,-833 179,-833 94,-833"/>
<polygon fill="none" stroke="#666666" points="94,-816 94,-865 179,-865 179,-816 94,-816"/>
</a>
</g>
</g>
<!-- Node4&#45;&gt;Node2 -->
<g id="edge35_Node000002_Node000004" class="edge">
<title>Node4&#45;&gt;Node2</title>
<g id="a_edge35_Node000002_Node000004"><a xlink:title=" ">
<path fill="none" stroke="#63b8ff" d="M130.02,-804.93C129.71,-796.83 129.67,-788.14 129.89,-779.88"/>
<polygon fill="none" stroke="#63b8ff" points="126.51,-804.98 130.57,-814.76 133.5,-804.58 126.51,-804.98"/>
</a>
</g>
</g>
<!-- Node4&#45;&gt;Node2 -->
<g id="edge38_Node000002_Node000004" class="edge">
<title>Node4&#45;&gt;Node2</title>
<g id="a_edge38_Node000002_Node000004"><a xlink:title=" ">
<path fill="none" stroke="#63b8ff" d="M142.98,-804.93C143.29,-796.83 143.33,-788.14 143.11,-779.88"/>
<polygon fill="none" stroke="#63b8ff" points="139.5,-804.58 142.43,-814.76 146.49,-804.98 139.5,-804.58"/>
</a>
</g>
</g>
<!-- Node5 -->
<g id="Node000005" class="node">
<title>Node5</title>
<g id="a_Node000005"><a xlink:title=" ">
<polygon fill="white" stroke="none" points="251.5,-865 197.5,-865 197.5,-816 251.5,-816 251.5,-865"/>
<text text-anchor="start" x="202.38" y="-851.5" font-family="Helvetica,sans-Serif" font-size="10.00">Countable</text>
<text text-anchor="start" x="223" y="-836.5" font-family="Helvetica,sans-Serif" font-size="10.00"> </text>
<text text-anchor="start" x="223" y="-821.5" font-family="Helvetica,sans-Serif" font-size="10.00"> </text>
<polygon fill="#666666" stroke="#666666" points="197.5,-848 197.5,-848 251.5,-848 251.5,-848 197.5,-848"/>
<polygon fill="#666666" stroke="#666666" points="197.5,-833 197.5,-833 251.5,-833 251.5,-833 197.5,-833"/>
<polygon fill="none" stroke="#666666" points="197.5,-816 197.5,-865 251.5,-865 251.5,-816 197.5,-816"/>
</a>
</g>
</g>
<!-- Node5&#45;&gt;Node2 -->
<g id="edge37_Node000002_Node000005" class="edge">
<title>Node5&#45;&gt;Node2</title>
<g id="a_edge37_Node000002_Node000005"><a xlink:title=" ">
<path fill="none" stroke="#63b8ff" d="M195.97,-807.73C188,-798.85 179.24,-789.1 170.96,-779.88"/>
<polygon fill="none" stroke="#63b8ff" points="193.35,-810.05 202.63,-815.15 198.56,-805.37 193.35,-810.05"/>
</a>
</g>
</g>
<!-- Node6 -->
<g id="Node000006" class="node">
<title>Node6</title>
<g id="a_Node000006"><a xlink:title=" ">
<polygon fill="white" stroke="none" points="329.5,-865 269.5,-865 269.5,-816 329.5,-816 329.5,-865"/>
<text text-anchor="start" x="274.38" y="-851.5" font-family="Helvetica,sans-Serif" font-size="10.00">Serializable</text>
<text text-anchor="start" x="298" y="-836.5" font-family="Helvetica,sans-Serif" font-size="10.00"> </text>
<text text-anchor="start" x="298" y="-821.5" font-family="Helvetica,sans-Serif" font-size="10.00"> </text>
<polygon fill="#666666" stroke="#666666" points="269.5,-848 269.5,-848 329.5,-848 329.5,-848 269.5,-848"/>
<polygon fill="#666666" stroke="#666666" points="269.5,-833 269.5,-833 329.5,-833 329.5,-833 269.5,-833"/>
<polygon fill="none" stroke="#666666" points="269.5,-816 269.5,-865 329.5,-865 329.5,-816 269.5,-816"/>
</a>
</g>
</g>
<!-- Node6&#45;&gt;Node2 -->
<g id="edge39_Node000002_Node000006" class="edge">
<title>Node6&#45;&gt;Node2</title>
<g id="a_edge39_Node000002_Node000006"><a xlink:title=" ">
<path fill="none" stroke="#63b8ff" d="M260.17,-815.81C225.07,-794.69 194.57,-776.36 171.78,-762.68"/>
<polygon fill="none" stroke="#63b8ff" points="258.02,-818.6 268.4,-820.75 261.63,-812.6 258.02,-818.6"/>
</a>
</g>
</g>
<!-- Node8 -->
<g id="Node000008" class="node">
<title>Node8</title>
<g id="a_Node000008"><a xlink:href="$class_ramsey_1_1_collection_1_1_double_ended_queue.html" xlink:title=" ">
<polygon fill="white" stroke="none" points="187.5,-240 85.5,-240 85.5,0 187.5,0 187.5,-240"/>
<text text-anchor="start" x="93" y="-226.5" font-family="Helvetica,sans-Serif" font-size="10.00">DoubleEndedQueue</text>
<text text-anchor="start" x="135" y="-211.5" font-family="Helvetica,sans-Serif" font-size="10.00"> </text>
<text text-anchor="start" x="89.5" y="-196.5" font-family="Helvetica,sans-Serif" font-size="10.00">+</text>
<text text-anchor="start" x="99.5" y="-196.5" font-family="Helvetica,sans-Serif" font-size="10.00">offsetSet($offset,</text>
<text text-anchor="start" x="99.5" y="-185.25" font-family="Helvetica,sans-Serif" font-size="10.00"> $value)</text>
<text text-anchor="start" x="89.5" y="-170.5" font-family="Helvetica,sans-Serif" font-size="10.00">+</text>
<text text-anchor="start" x="99.5" y="-170.5" font-family="Helvetica,sans-Serif" font-size="10.00">addFirst($element)</text>
<text text-anchor="start" x="89.5" y="-155.5" font-family="Helvetica,sans-Serif" font-size="10.00">+</text>
<text text-anchor="start" x="99.5" y="-155.5" font-family="Helvetica,sans-Serif" font-size="10.00">addLast($element)</text>
<text text-anchor="start" x="89.5" y="-140.5" font-family="Helvetica,sans-Serif" font-size="10.00">+</text>
<text text-anchor="start" x="99.5" y="-140.5" font-family="Helvetica,sans-Serif" font-size="10.00">offerFirst($element)</text>
<text text-anchor="start" x="89.5" y="-125.5" font-family="Helvetica,sans-Serif" font-size="10.00">+</text>
<text text-anchor="start" x="99.5" y="-125.5" font-family="Helvetica,sans-Serif" font-size="10.00">offerLast($element)</text>
<text text-anchor="start" x="89.5" y="-110.5" font-family="Helvetica,sans-Serif" font-size="10.00">+</text>
<text text-anchor="start" x="99.5" y="-110.5" font-family="Helvetica,sans-Serif" font-size="10.00">removeFirst()</text>
<text text-anchor="start" x="89.5" y="-95.5" font-family="Helvetica,sans-Serif" font-size="10.00">+</text>
<text text-anchor="start" x="99.5" y="-95.5" font-family="Helvetica,sans-Serif" font-size="10.00">removeLast()</text>
<text text-anchor="start" x="89.5" y="-80.5" font-family="Helvetica,sans-Serif" font-size="10.00">+</text>
<text text-anchor="start" x="99.5" y="-80.5" font-family="Helvetica,sans-Serif" font-size="10.00">pollFirst()</text>
<text text-anchor="start" x="89.5" y="-65.5" font-family="Helvetica,sans-Serif" font-size="10.00">+</text>
<text text-anchor="start" x="99.5" y="-65.5" font-family="Helvetica,sans-Serif" font-size="10.00">pollLast()</text>
<text text-anchor="start" x="89.5" y="-50.5" font-family="Helvetica,sans-Serif" font-size="10.00">+</text>
<text text-anchor="start" x="99.5" y="-50.5" font-family="Helvetica,sans-Serif" font-size="10.00">firstElement()</text>
<text text-anchor="start" x="89.5" y="-35.5" font-family="Helvetica,sans-Serif" font-size="10.00">+</text>
<text text-anchor="start" x="99.5" y="-35.5" font-family="Helvetica,sans-Serif" font-size="10.00">lastElement()</text>
<text text-anchor="start" x="89.5" y="-20.5" font-family="Helvetica,sans-Serif" font-size="10.00">+</text>
<text text-anchor="start" x="99.5" y="-20.5" font-family="Helvetica,sans-Serif" font-size="10.00">peekFirst()</text>
<text text-anchor="start" x="89.5" y="-5.5" font-family="Helvetica,sans-Serif" font-size="10.00">+</text>
<text text-anchor="start" x="99.5" y="-5.5" font-family="Helvetica,sans-Serif" font-size="10.00">peekLast()</text>
<polygon fill="#666666" stroke="#666666" points="85.5,-223 85.5,-223 187.5,-223 187.5,-223 85.5,-223"/>
<polygon fill="#666666" stroke="#666666" points="85.5,-208 85.5,-208 187.5,-208 187.5,-208 85.5,-208"/>
<polygon fill="none" stroke="#666666" points="85.5,0 85.5,-240 187.5,-240 187.5,0 85.5,0"/>
</a>
</g>
</g>
<!-- Node7&#45;&gt;Node8 -->
<g id="edge42_Node000007_Node000008" class="edge">
<title>Node7&#45;&gt;Node8</title>
<g id="a_edge42_Node000007_Node000008"><a xlink:title=" ">
<path fill="none" stroke="#63b8ff" d="M91.67,-265.17C93.86,-256.72 96.11,-248.2 98.38,-239.74"/>
<polygon fill="none" stroke="#63b8ff" points="88.31,-264.19 89.2,-274.75 95.08,-265.94 88.31,-264.19"/>
</a>
</g>
</g>
<!-- Node7&#45;&gt;Node8 -->
<g id="edge43_Node000007_Node000008" class="edge">
<title>Node7&#45;&gt;Node8</title>
<g id="a_edge43_Node000007_Node000008"><a xlink:title=" ">
<path fill="none" stroke="#63b8ff" d="M105.1,-265.17C107.38,-256.72 109.63,-248.2 111.83,-239.74"/>
<polygon fill="none" stroke="#63b8ff" points="101.74,-264.19 102.5,-274.76 108.5,-266.02 101.74,-264.19"/>
</a>
</g>
</g>
<!-- Node9&#45;&gt;Node8 -->
<g id="edge46_Node000009_Node000008" class="edge">
<title>Node9&#45;&gt;Node8</title>
<g id="a_edge46_Node000009_Node000008"><a xlink:title=" ">
<path fill="none" stroke="#63b8ff" d="M169.5,-271.11C166.71,-260.81 163.92,-250.34 161.23,-239.97"/>
<polygon fill="none" stroke="#63b8ff" points="166.12,-272.03 172.14,-280.75 172.88,-270.18 166.12,-272.03"/>
</a>
</g>
</g>
<!-- Node9&#45;&gt;Node8 -->
<g id="edge47_Node000009_Node000008" class="edge">
<title>Node9&#45;&gt;Node8</title>
<g id="a_edge47_Node000009_Node000008"><a xlink:title=" ">
<path fill="none" stroke="#63b8ff" d="M182.87,-271.11C180.22,-260.81 177.46,-250.34 174.68,-239.97"/>
<polygon fill="none" stroke="#63b8ff" points="179.46,-271.92 185.33,-280.74 186.24,-270.19 179.46,-271.92"/>
</a>
</g>
</g>
</g>
</svg>
