<?xml version="1.0" encoding="UTF-8" standalone="no"?>
<!DOCTYPE svg PUBLIC "-//W3C//DTD SVG 1.1//EN"
 "http://www.w3.org/Graphics/SVG/1.1/DTD/svg11.dtd">
<!-- Generated by graphviz version 10.0.1 (20240210.2158)
 -->
<!-- Title: StringWrapperInterface Pages: 1 -->
<svg width="698pt" height="777pt"
 viewBox="0.00 0.00 697.50 777.00" xmlns="http://www.w3.org/2000/svg" xmlns:xlink="http://www.w3.org/1999/xlink">
<g id="graph0" class="graph" transform="scale(1 1) rotate(0) translate(4 773)">
<title>StringWrapperInterface</title>
<!-- Node1 -->
<g id="Node000001" class="node">
<title>Node1</title>
<g id="a_Node000001"><a xlink:title=" ">
<polygon fill="#999999" stroke="none" points="421.5,-769 248.5,-769 248.5,-471 421.5,-471 421.5,-769"/>
<text text-anchor="start" x="285.12" y="-755.5" font-family="Helvetica,sans-Serif" font-size="10.00">StringWrapperInterface</text>
<text text-anchor="start" x="333.5" y="-740.5" font-family="Helvetica,sans-Serif" font-size="10.00"> </text>
<text text-anchor="start" x="252.5" y="-725.5" font-family="Helvetica,sans-Serif" font-size="10.00">+</text>
<text text-anchor="start" x="262.5" y="-725.5" font-family="Helvetica,sans-Serif" font-size="10.00">setEncoding($encoding,</text>
<text text-anchor="start" x="262.5" y="-714.25" font-family="Helvetica,sans-Serif" font-size="10.00"> $convertEncoding=null)</text>
<text text-anchor="start" x="252.5" y="-699.5" font-family="Helvetica,sans-Serif" font-size="10.00">+</text>
<text text-anchor="start" x="262.5" y="-699.5" font-family="Helvetica,sans-Serif" font-size="10.00">getEncoding()</text>
<text text-anchor="start" x="252.5" y="-684.5" font-family="Helvetica,sans-Serif" font-size="10.00">+</text>
<text text-anchor="start" x="262.5" y="-684.5" font-family="Helvetica,sans-Serif" font-size="10.00">getConvertEncoding()</text>
<text text-anchor="start" x="252.5" y="-669.5" font-family="Helvetica,sans-Serif" font-size="10.00">+</text>
<text text-anchor="start" x="262.5" y="-669.5" font-family="Helvetica,sans-Serif" font-size="10.00">strlen($str)</text>
<text text-anchor="start" x="252.5" y="-654.5" font-family="Helvetica,sans-Serif" font-size="10.00">+</text>
<text text-anchor="start" x="262.5" y="-654.5" font-family="Helvetica,sans-Serif" font-size="10.00">substr($str, $offset</text>
<text text-anchor="start" x="262.5" y="-643.25" font-family="Helvetica,sans-Serif" font-size="10.00">=0, $length=null)</text>
<text text-anchor="start" x="252.5" y="-628.5" font-family="Helvetica,sans-Serif" font-size="10.00">+</text>
<text text-anchor="start" x="262.5" y="-628.5" font-family="Helvetica,sans-Serif" font-size="10.00">strpos($haystack,</text>
<text text-anchor="start" x="262.5" y="-617.25" font-family="Helvetica,sans-Serif" font-size="10.00"> $needle, $offset=0)</text>
<text text-anchor="start" x="252.5" y="-602.5" font-family="Helvetica,sans-Serif" font-size="10.00">+</text>
<text text-anchor="start" x="262.5" y="-602.5" font-family="Helvetica,sans-Serif" font-size="10.00">convert($str, $reverse</text>
<text text-anchor="start" x="262.5" y="-591.25" font-family="Helvetica,sans-Serif" font-size="10.00">=false)</text>
<text text-anchor="start" x="252.5" y="-576.5" font-family="Helvetica,sans-Serif" font-size="10.00">+</text>
<text text-anchor="start" x="262.5" y="-576.5" font-family="Helvetica,sans-Serif" font-size="10.00">wordWrap($str, $width</text>
<text text-anchor="start" x="262.5" y="-565.25" font-family="Helvetica,sans-Serif" font-size="10.00">=75, $break=&quot;\n&quot;, $cut</text>
<text text-anchor="start" x="262.5" y="-554" font-family="Helvetica,sans-Serif" font-size="10.00">=false)</text>
<text text-anchor="start" x="252.5" y="-539.5" font-family="Helvetica,sans-Serif" font-size="10.00">+</text>
<text text-anchor="start" x="262.5" y="-539.5" font-family="Helvetica,sans-Serif" font-size="10.00">strPad($input, $padLength,</text>
<text text-anchor="start" x="262.5" y="-528.25" font-family="Helvetica,sans-Serif" font-size="10.00"> $padString=&#39; &#39;, $padType</text>
<text text-anchor="start" x="262.5" y="-517" font-family="Helvetica,sans-Serif" font-size="10.00">=STR_PAD_RIGHT)</text>
<text text-anchor="start" x="252.5" y="-502.5" font-family="Helvetica,sans-Serif" font-size="10.00">+</text>
<text text-anchor="start" x="262.5" y="-502.5" font-family="Helvetica,sans-Serif" font-size="10.00">static isSupported</text>
<text text-anchor="start" x="262.5" y="-491.25" font-family="Helvetica,sans-Serif" font-size="10.00">($encoding, $convertEncoding=null)</text>
<text text-anchor="start" x="252.5" y="-476.5" font-family="Helvetica,sans-Serif" font-size="10.00">+</text>
<text text-anchor="start" x="262.5" y="-476.5" font-family="Helvetica,sans-Serif" font-size="10.00">static getSupportedEncodings()</text>
<polygon fill="#666666" stroke="#666666" points="248.5,-752 248.5,-752 421.5,-752 421.5,-752 248.5,-752"/>
<polygon fill="#666666" stroke="#666666" points="248.5,-737 248.5,-737 421.5,-737 421.5,-737 248.5,-737"/>
<polygon fill="none" stroke="#666666" points="248.5,-471 248.5,-769 421.5,-769 421.5,-471 248.5,-471"/>
</a>
</g>
</g>
<!-- Node2 -->
<g id="Node000002" class="node">
<title>Node2</title>
<g id="a_Node000002"><a xlink:href="$class_laminas_1_1_stdlib_1_1_string_wrapper_1_1_abstract_string_wrapper.html" xlink:title=" ">
<polygon fill="white" stroke="none" points="421.5,-435 248.5,-435 248.5,-204 421.5,-204 421.5,-435"/>
<text text-anchor="start" x="285.88" y="-421.5" font-family="Helvetica,sans-Serif" font-size="10.00">AbstractStringWrapper</text>
<text text-anchor="start" x="252.88" y="-406.5" font-family="Helvetica,sans-Serif" font-size="10.00">#</text>
<text text-anchor="start" x="262.5" y="-406.5" font-family="Helvetica,sans-Serif" font-size="10.00">$encoding</text>
<text text-anchor="start" x="252.88" y="-391.5" font-family="Helvetica,sans-Serif" font-size="10.00">#</text>
<text text-anchor="start" x="262.5" y="-391.5" font-family="Helvetica,sans-Serif" font-size="10.00">$convertEncoding</text>
<text text-anchor="start" x="252.5" y="-376.5" font-family="Helvetica,sans-Serif" font-size="10.00">+</text>
<text text-anchor="start" x="262.5" y="-376.5" font-family="Helvetica,sans-Serif" font-size="10.00">setEncoding($encoding,</text>
<text text-anchor="start" x="262.5" y="-365.25" font-family="Helvetica,sans-Serif" font-size="10.00"> $convertEncoding=null)</text>
<text text-anchor="start" x="252.5" y="-350.5" font-family="Helvetica,sans-Serif" font-size="10.00">+</text>
<text text-anchor="start" x="262.5" y="-350.5" font-family="Helvetica,sans-Serif" font-size="10.00">getEncoding()</text>
<text text-anchor="start" x="252.5" y="-335.5" font-family="Helvetica,sans-Serif" font-size="10.00">+</text>
<text text-anchor="start" x="262.5" y="-335.5" font-family="Helvetica,sans-Serif" font-size="10.00">getConvertEncoding()</text>
<text text-anchor="start" x="252.5" y="-320.5" font-family="Helvetica,sans-Serif" font-size="10.00">+</text>
<text text-anchor="start" x="262.5" y="-320.5" font-family="Helvetica,sans-Serif" font-size="10.00">convert($str, $reverse</text>
<text text-anchor="start" x="262.5" y="-309.25" font-family="Helvetica,sans-Serif" font-size="10.00">=false)</text>
<text text-anchor="start" x="252.5" y="-294.5" font-family="Helvetica,sans-Serif" font-size="10.00">+</text>
<text text-anchor="start" x="262.5" y="-294.5" font-family="Helvetica,sans-Serif" font-size="10.00">wordWrap($string,</text>
<text text-anchor="start" x="262.5" y="-283.25" font-family="Helvetica,sans-Serif" font-size="10.00"> $width=75, $break=&quot;</text>
<text text-anchor="start" x="262.5" y="-272" font-family="Helvetica,sans-Serif" font-size="10.00">\n&quot;, $cut=false)</text>
<text text-anchor="start" x="252.5" y="-257.5" font-family="Helvetica,sans-Serif" font-size="10.00">+</text>
<text text-anchor="start" x="262.5" y="-257.5" font-family="Helvetica,sans-Serif" font-size="10.00">strPad($input, $padLength,</text>
<text text-anchor="start" x="262.5" y="-246.25" font-family="Helvetica,sans-Serif" font-size="10.00"> $padString=&#39; &#39;, $padType</text>
<text text-anchor="start" x="262.5" y="-235" font-family="Helvetica,sans-Serif" font-size="10.00">=STR_PAD_RIGHT)</text>
<text text-anchor="start" x="252.5" y="-220.5" font-family="Helvetica,sans-Serif" font-size="10.00">+</text>
<text text-anchor="start" x="262.5" y="-220.5" font-family="Helvetica,sans-Serif" font-size="10.00">static isSupported</text>
<text text-anchor="start" x="262.5" y="-209.25" font-family="Helvetica,sans-Serif" font-size="10.00">($encoding, $convertEncoding=null)</text>
<polygon fill="#666666" stroke="#666666" points="248.5,-418 248.5,-418 421.5,-418 421.5,-418 248.5,-418"/>
<polygon fill="#666666" stroke="#666666" points="248.5,-388 248.5,-388 260.5,-388 260.5,-388 248.5,-388"/>
<polygon fill="#666666" stroke="#666666" points="260.5,-388 260.5,-388 421.5,-388 421.5,-388 260.5,-388"/>
<polygon fill="none" stroke="#666666" points="248.5,-204 248.5,-435 421.5,-435 421.5,-204 248.5,-204"/>
</a>
</g>
</g>
<!-- Node1&#45;&gt;Node2 -->
<g id="edge11_Node000001_Node000002" class="edge">
<title>Node1&#45;&gt;Node2</title>
<g id="a_edge11_Node000001_Node000002"><a xlink:title=" ">
<path fill="none" stroke="#63b8ff" d="M335,-459.66C335,-451.31 335,-443.01 335,-434.85"/>
<polygon fill="none" stroke="#63b8ff" points="331.5,-459.55 335,-469.55 338.5,-459.55 331.5,-459.55"/>
</a>
</g>
</g>
<!-- Node3 -->
<g id="Node000003" class="node">
<title>Node3</title>
<g id="a_Node000003"><a xlink:href="$class_laminas_1_1_stdlib_1_1_string_wrapper_1_1_iconv.html" xlink:title=" ">
<polygon fill="white" stroke="none" points="154,-162.5 0,-162.5 0,-5.5 154,-5.5 154,-162.5"/>
<text text-anchor="start" x="65" y="-149" font-family="Helvetica,sans-Serif" font-size="10.00">Iconv</text>
<text text-anchor="start" x="4.38" y="-134" font-family="Helvetica,sans-Serif" font-size="10.00">#</text>
<text text-anchor="start" x="14" y="-134" font-family="Helvetica,sans-Serif" font-size="10.00">static $encodings</text>
<text text-anchor="start" x="4" y="-119" font-family="Helvetica,sans-Serif" font-size="10.00">+</text>
<text text-anchor="start" x="14" y="-119" font-family="Helvetica,sans-Serif" font-size="10.00">__construct()</text>
<text text-anchor="start" x="4" y="-104" font-family="Helvetica,sans-Serif" font-size="10.00">+</text>
<text text-anchor="start" x="14" y="-104" font-family="Helvetica,sans-Serif" font-size="10.00">strlen($str)</text>
<text text-anchor="start" x="4" y="-89" font-family="Helvetica,sans-Serif" font-size="10.00">+</text>
<text text-anchor="start" x="14" y="-89" font-family="Helvetica,sans-Serif" font-size="10.00">substr($str, $offset</text>
<text text-anchor="start" x="14" y="-77.75" font-family="Helvetica,sans-Serif" font-size="10.00">=0, $length=null)</text>
<text text-anchor="start" x="4" y="-63" font-family="Helvetica,sans-Serif" font-size="10.00">+</text>
<text text-anchor="start" x="14" y="-63" font-family="Helvetica,sans-Serif" font-size="10.00">strpos($haystack,</text>
<text text-anchor="start" x="14" y="-51.75" font-family="Helvetica,sans-Serif" font-size="10.00"> $needle, $offset=0)</text>
<text text-anchor="start" x="4" y="-37" font-family="Helvetica,sans-Serif" font-size="10.00">+</text>
<text text-anchor="start" x="14" y="-37" font-family="Helvetica,sans-Serif" font-size="10.00">convert($str, $reverse</text>
<text text-anchor="start" x="14" y="-25.75" font-family="Helvetica,sans-Serif" font-size="10.00">=false)</text>
<text text-anchor="start" x="4" y="-11" font-family="Helvetica,sans-Serif" font-size="10.00">+</text>
<text text-anchor="start" x="14" y="-11" font-family="Helvetica,sans-Serif" font-size="10.00">static getSupportedEncodings()</text>
<polygon fill="#666666" stroke="#666666" points="0,-145.5 0,-145.5 154,-145.5 154,-145.5 0,-145.5"/>
<polygon fill="#666666" stroke="#666666" points="0,-130.5 0,-130.5 12,-130.5 12,-130.5 0,-130.5"/>
<polygon fill="#666666" stroke="#666666" points="12,-130.5 12,-130.5 154,-130.5 154,-130.5 12,-130.5"/>
<polygon fill="none" stroke="#666666" points="0,-5.5 0,-162.5 154,-162.5 154,-5.5 0,-5.5"/>
</a>
</g>
</g>
<!-- Node2&#45;&gt;Node3 -->
<g id="edge12_Node000002_Node000003" class="edge">
<title>Node2&#45;&gt;Node3</title>
<g id="a_edge12_Node000002_Node000003"><a xlink:title=" ">
<path fill="none" stroke="#63b8ff" d="M240.04,-236.88C214.79,-214.77 187.67,-190.68 163,-168 159.94,-165.19 156.84,-162.32 153.72,-159.4"/>
<polygon fill="none" stroke="#63b8ff" points="237.56,-239.35 247.39,-243.3 242.16,-234.08 237.56,-239.35"/>
</a>
</g>
</g>
<!-- Node4 -->
<g id="Node000004" class="node">
<title>Node4</title>
<g id="a_Node000004"><a xlink:href="$class_laminas_1_1_stdlib_1_1_string_wrapper_1_1_intl.html" xlink:title=" ">
<polygon fill="white" stroke="none" points="326,-149.5 172,-149.5 172,-18.5 326,-18.5 326,-149.5"/>
<text text-anchor="start" x="242.25" y="-136" font-family="Helvetica,sans-Serif" font-size="10.00">Intl</text>
<text text-anchor="start" x="176.38" y="-121" font-family="Helvetica,sans-Serif" font-size="10.00">#</text>
<text text-anchor="start" x="186" y="-121" font-family="Helvetica,sans-Serif" font-size="10.00">static $encodings</text>
<text text-anchor="start" x="176" y="-106" font-family="Helvetica,sans-Serif" font-size="10.00">+</text>
<text text-anchor="start" x="186" y="-106" font-family="Helvetica,sans-Serif" font-size="10.00">__construct()</text>
<text text-anchor="start" x="176" y="-91" font-family="Helvetica,sans-Serif" font-size="10.00">+</text>
<text text-anchor="start" x="186" y="-91" font-family="Helvetica,sans-Serif" font-size="10.00">strlen($str)</text>
<text text-anchor="start" x="176" y="-76" font-family="Helvetica,sans-Serif" font-size="10.00">+</text>
<text text-anchor="start" x="186" y="-76" font-family="Helvetica,sans-Serif" font-size="10.00">substr($str, $offset</text>
<text text-anchor="start" x="186" y="-64.75" font-family="Helvetica,sans-Serif" font-size="10.00">=0, $length=null)</text>
<text text-anchor="start" x="176" y="-50" font-family="Helvetica,sans-Serif" font-size="10.00">+</text>
<text text-anchor="start" x="186" y="-50" font-family="Helvetica,sans-Serif" font-size="10.00">strpos($haystack,</text>
<text text-anchor="start" x="186" y="-38.75" font-family="Helvetica,sans-Serif" font-size="10.00"> $needle, $offset=0)</text>
<text text-anchor="start" x="176" y="-24" font-family="Helvetica,sans-Serif" font-size="10.00">+</text>
<text text-anchor="start" x="186" y="-24" font-family="Helvetica,sans-Serif" font-size="10.00">static getSupportedEncodings()</text>
<polygon fill="#666666" stroke="#666666" points="172,-132.5 172,-132.5 326,-132.5 326,-132.5 172,-132.5"/>
<polygon fill="#666666" stroke="#666666" points="172,-117.5 172,-117.5 184,-117.5 184,-117.5 172,-117.5"/>
<polygon fill="#666666" stroke="#666666" points="184,-117.5 184,-117.5 326,-117.5 326,-117.5 184,-117.5"/>
<polygon fill="none" stroke="#666666" points="172,-18.5 172,-149.5 326,-149.5 326,-18.5 172,-18.5"/>
</a>
</g>
</g>
<!-- Node2&#45;&gt;Node4 -->
<g id="edge13_Node000002_Node000004" class="edge">
<title>Node2&#45;&gt;Node4</title>
<g id="a_edge13_Node000002_Node000004"><a xlink:title=" ">
<path fill="none" stroke="#63b8ff" d="M288.98,-193.55C283.36,-178.28 277.8,-163.2 272.7,-149.35"/>
<polygon fill="none" stroke="#63b8ff" points="285.62,-194.55 292.36,-202.72 292.19,-192.13 285.62,-194.55"/>
</a>
</g>
</g>
<!-- Node5 -->
<g id="Node000005" class="node">
<title>Node5</title>
<g id="a_Node000005"><a xlink:href="$class_laminas_1_1_stdlib_1_1_string_wrapper_1_1_mb_string.html" xlink:title=" ">
<polygon fill="white" stroke="none" points="498,-162.5 344,-162.5 344,-5.5 498,-5.5 498,-162.5"/>
<text text-anchor="start" x="401.5" y="-149" font-family="Helvetica,sans-Serif" font-size="10.00">MbString</text>
<text text-anchor="start" x="348.38" y="-134" font-family="Helvetica,sans-Serif" font-size="10.00">#</text>
<text text-anchor="start" x="358" y="-134" font-family="Helvetica,sans-Serif" font-size="10.00">static $encodings</text>
<text text-anchor="start" x="348" y="-119" font-family="Helvetica,sans-Serif" font-size="10.00">+</text>
<text text-anchor="start" x="358" y="-119" font-family="Helvetica,sans-Serif" font-size="10.00">__construct()</text>
<text text-anchor="start" x="348" y="-104" font-family="Helvetica,sans-Serif" font-size="10.00">+</text>
<text text-anchor="start" x="358" y="-104" font-family="Helvetica,sans-Serif" font-size="10.00">strlen($str)</text>
<text text-anchor="start" x="348" y="-89" font-family="Helvetica,sans-Serif" font-size="10.00">+</text>
<text text-anchor="start" x="358" y="-89" font-family="Helvetica,sans-Serif" font-size="10.00">substr($str, $offset</text>
<text text-anchor="start" x="358" y="-77.75" font-family="Helvetica,sans-Serif" font-size="10.00">=0, $length=null)</text>
<text text-anchor="start" x="348" y="-63" font-family="Helvetica,sans-Serif" font-size="10.00">+</text>
<text text-anchor="start" x="358" y="-63" font-family="Helvetica,sans-Serif" font-size="10.00">strpos($haystack,</text>
<text text-anchor="start" x="358" y="-51.75" font-family="Helvetica,sans-Serif" font-size="10.00"> $needle, $offset=0)</text>
<text text-anchor="start" x="348" y="-37" font-family="Helvetica,sans-Serif" font-size="10.00">+</text>
<text text-anchor="start" x="358" y="-37" font-family="Helvetica,sans-Serif" font-size="10.00">convert($str, $reverse</text>
<text text-anchor="start" x="358" y="-25.75" font-family="Helvetica,sans-Serif" font-size="10.00">=false)</text>
<text text-anchor="start" x="348" y="-11" font-family="Helvetica,sans-Serif" font-size="10.00">+</text>
<text text-anchor="start" x="358" y="-11" font-family="Helvetica,sans-Serif" font-size="10.00">static getSupportedEncodings()</text>
<polygon fill="#666666" stroke="#666666" points="344,-145.5 344,-145.5 498,-145.5 498,-145.5 344,-145.5"/>
<polygon fill="#666666" stroke="#666666" points="344,-130.5 344,-130.5 356,-130.5 356,-130.5 344,-130.5"/>
<polygon fill="#666666" stroke="#666666" points="356,-130.5 356,-130.5 498,-130.5 498,-130.5 356,-130.5"/>
<polygon fill="none" stroke="#666666" points="344,-5.5 344,-162.5 498,-162.5 498,-5.5 344,-5.5"/>
</a>
</g>
</g>
<!-- Node2&#45;&gt;Node5 -->
<g id="edge14_Node000002_Node000005" class="edge">
<title>Node2&#45;&gt;Node5</title>
<g id="a_edge14_Node000002_Node000005"><a xlink:title=" ">
<path fill="none" stroke="#63b8ff" d="M381.04,-193.49C384.96,-182.85 388.84,-172.31 392.56,-162.21"/>
<polygon fill="none" stroke="#63b8ff" points="377.81,-192.13 377.64,-202.72 384.38,-194.55 377.81,-192.13"/>
</a>
</g>
</g>
<!-- Node6 -->
<g id="Node000006" class="node">
<title>Node6</title>
<g id="a_Node000006"><a xlink:href="$class_laminas_1_1_stdlib_1_1_string_wrapper_1_1_native.html" xlink:title=" ">
<polygon fill="white" stroke="none" points="689.5,-168 516.5,-168 516.5,0 689.5,0 689.5,-168"/>
<text text-anchor="start" x="588.75" y="-154.5" font-family="Helvetica,sans-Serif" font-size="10.00">Native</text>
<text text-anchor="start" x="520.88" y="-139.5" font-family="Helvetica,sans-Serif" font-size="10.00">#</text>
<text text-anchor="start" x="530.5" y="-139.5" font-family="Helvetica,sans-Serif" font-size="10.00">$encoding</text>
<text text-anchor="start" x="520.5" y="-124.5" font-family="Helvetica,sans-Serif" font-size="10.00">+</text>
<text text-anchor="start" x="530.5" y="-124.5" font-family="Helvetica,sans-Serif" font-size="10.00">setEncoding($encoding,</text>
<text text-anchor="start" x="530.5" y="-113.25" font-family="Helvetica,sans-Serif" font-size="10.00"> $convertEncoding=null)</text>
<text text-anchor="start" x="520.5" y="-98.5" font-family="Helvetica,sans-Serif" font-size="10.00">+</text>
<text text-anchor="start" x="530.5" y="-98.5" font-family="Helvetica,sans-Serif" font-size="10.00">strlen($str)</text>
<text text-anchor="start" x="520.5" y="-83.5" font-family="Helvetica,sans-Serif" font-size="10.00">+</text>
<text text-anchor="start" x="530.5" y="-83.5" font-family="Helvetica,sans-Serif" font-size="10.00">substr($str, $offset</text>
<text text-anchor="start" x="530.5" y="-72.25" font-family="Helvetica,sans-Serif" font-size="10.00">=0, $length=null)</text>
<text text-anchor="start" x="520.5" y="-57.5" font-family="Helvetica,sans-Serif" font-size="10.00">+</text>
<text text-anchor="start" x="530.5" y="-57.5" font-family="Helvetica,sans-Serif" font-size="10.00">strpos($haystack,</text>
<text text-anchor="start" x="530.5" y="-46.25" font-family="Helvetica,sans-Serif" font-size="10.00"> $needle, $offset=0)</text>
<text text-anchor="start" x="520.5" y="-31.5" font-family="Helvetica,sans-Serif" font-size="10.00">+</text>
<text text-anchor="start" x="530.5" y="-31.5" font-family="Helvetica,sans-Serif" font-size="10.00">static isSupported</text>
<text text-anchor="start" x="530.5" y="-20.25" font-family="Helvetica,sans-Serif" font-size="10.00">($encoding, $convertEncoding=null)</text>
<text text-anchor="start" x="520.5" y="-5.5" font-family="Helvetica,sans-Serif" font-size="10.00">+</text>
<text text-anchor="start" x="530.5" y="-5.5" font-family="Helvetica,sans-Serif" font-size="10.00">static getSupportedEncodings()</text>
<polygon fill="#666666" stroke="#666666" points="516.5,-151 516.5,-151 689.5,-151 689.5,-151 516.5,-151"/>
<polygon fill="#666666" stroke="#666666" points="516.5,-136 516.5,-136 528.5,-136 528.5,-136 516.5,-136"/>
<polygon fill="#666666" stroke="#666666" points="528.5,-136 528.5,-136 689.5,-136 689.5,-136 528.5,-136"/>
<polygon fill="none" stroke="#666666" points="516.5,0 516.5,-168 689.5,-168 689.5,0 516.5,0"/>
</a>
</g>
</g>
<!-- Node2&#45;&gt;Node6 -->
<g id="edge15_Node000002_Node000006" class="edge">
<title>Node2&#45;&gt;Node6</title>
<g id="a_edge15_Node000002_Node000006"><a xlink:title=" ">
<path fill="none" stroke="#63b8ff" d="M429.61,-236.07C458.03,-211.31 489.05,-184.28 516.89,-160.03"/>
<polygon fill="none" stroke="#63b8ff" points="427.65,-233.13 422.41,-242.34 432.25,-238.41 427.65,-233.13"/>
</a>
</g>
</g>
</g>
</svg>
