<?xml version="1.0" encoding="UTF-8" standalone="no"?>
<!DOCTYPE svg PUBLIC "-//W3C//DTD SVG 1.1//EN"
 "http://www.w3.org/Graphics/SVG/1.1/DTD/svg11.dtd">
<!-- Generated by graphviz version 10.0.1 (20240210.2158)
 -->
<!-- Title: TranslatorAwareInterface Pages: 1 -->
<svg width="141pt" height="191pt"
 viewBox="0.00 0.00 141.00 191.00" xmlns="http://www.w3.org/2000/svg" xmlns:xlink="http://www.w3.org/1999/xlink">
<g id="graph0" class="graph" transform="scale(1 1) rotate(0) translate(4 187)">
<title>TranslatorAwareInterface</title>
<!-- Node1 -->
<g id="Node000001" class="node">
<title>Node1</title>
<g id="a_Node000001"><a xlink:title=" ">
<polygon fill="#999999" stroke="none" points="133,-183 0,-183 0,0 133,0 133,-183"/>
<text text-anchor="start" x="11.75" y="-169.5" font-family="Helvetica,sans-Serif" font-size="10.00">TranslatorAwareInterface</text>
<text text-anchor="start" x="65" y="-154.5" font-family="Helvetica,sans-Serif" font-size="10.00"> </text>
<text text-anchor="start" x="4" y="-139.5" font-family="Helvetica,sans-Serif" font-size="10.00">+</text>
<text text-anchor="start" x="14" y="-139.5" font-family="Helvetica,sans-Serif" font-size="10.00">setTranslator(?Translator</text>
<text text-anchor="start" x="14" y="-128.25" font-family="Helvetica,sans-Serif" font-size="10.00">Interface $translator=null,</text>
<text text-anchor="start" x="14" y="-117" font-family="Helvetica,sans-Serif" font-size="10.00"> $textDomain=null)</text>
<text text-anchor="start" x="4" y="-102.5" font-family="Helvetica,sans-Serif" font-size="10.00">+</text>
<text text-anchor="start" x="14" y="-102.5" font-family="Helvetica,sans-Serif" font-size="10.00">getTranslator()</text>
<text text-anchor="start" x="4" y="-87.5" font-family="Helvetica,sans-Serif" font-size="10.00">+</text>
<text text-anchor="start" x="14" y="-87.5" font-family="Helvetica,sans-Serif" font-size="10.00">hasTranslator()</text>
<text text-anchor="start" x="4" y="-72.5" font-family="Helvetica,sans-Serif" font-size="10.00">+</text>
<text text-anchor="start" x="14" y="-72.5" font-family="Helvetica,sans-Serif" font-size="10.00">setTranslatorEnabled</text>
<text text-anchor="start" x="14" y="-61.25" font-family="Helvetica,sans-Serif" font-size="10.00">($enabled=true)</text>
<text text-anchor="start" x="4" y="-46.5" font-family="Helvetica,sans-Serif" font-size="10.00">+</text>
<text text-anchor="start" x="14" y="-46.5" font-family="Helvetica,sans-Serif" font-size="10.00">isTranslatorEnabled()</text>
<text text-anchor="start" x="4" y="-31.5" font-family="Helvetica,sans-Serif" font-size="10.00">+</text>
<text text-anchor="start" x="14" y="-31.5" font-family="Helvetica,sans-Serif" font-size="10.00">setTranslatorTextDomain</text>
<text text-anchor="start" x="14" y="-20.25" font-family="Helvetica,sans-Serif" font-size="10.00">($textDomain=&#39;default&#39;)</text>
<text text-anchor="start" x="4" y="-5.5" font-family="Helvetica,sans-Serif" font-size="10.00">+</text>
<text text-anchor="start" x="14" y="-5.5" font-family="Helvetica,sans-Serif" font-size="10.00">getTranslatorTextDomain()</text>
<polygon fill="#666666" stroke="#666666" points="0,-166 0,-166 133,-166 133,-166 0,-166"/>
<polygon fill="#666666" stroke="#666666" points="0,-151 0,-151 133,-151 133,-151 0,-151"/>
<polygon fill="none" stroke="#666666" points="0,0 0,-183 133,-183 133,0 0,0"/>
</a>
</g>
</g>
</g>
</svg>
