<?xml version="1.0" encoding="UTF-8" standalone="no"?>
<!DOCTYPE svg PUBLIC "-//W3C//DTD SVG 1.1//EN"
 "http://www.w3.org/Graphics/SVG/1.1/DTD/svg11.dtd">
<!-- Generated by graphviz version 10.0.1 (20240210.2158)
 -->
<!-- Title: IMultiGet Pages: 1 -->
<svg width="128pt" height="354pt"
 viewBox="0.00 0.00 128.00 354.00" xmlns="http://www.w3.org/2000/svg" xmlns:xlink="http://www.w3.org/1999/xlink">
<g id="graph0" class="graph" transform="scale(1 1) rotate(0) translate(4 350)">
<title>IMultiGet</title>
<!-- Node1 -->
<g id="Node000001" class="node">
<title>Node1</title>
<g id="a_Node000001"><a xlink:title=" ">
<polygon fill="#999999" stroke="none" points="110.5,-60 9.5,-60 9.5,0 110.5,0 110.5,-60"/>
<text text-anchor="start" x="40.12" y="-46.5" font-family="Helvetica,sans-Serif" font-size="10.00">IMultiGet</text>
<text text-anchor="start" x="58.5" y="-31.5" font-family="Helvetica,sans-Serif" font-size="10.00"> </text>
<text text-anchor="start" x="13.5" y="-16.5" font-family="Helvetica,sans-Serif" font-size="10.00">+</text>
<text text-anchor="start" x="23.5" y="-16.5" font-family="Helvetica,sans-Serif" font-size="10.00">getMultipleChildren</text>
<text text-anchor="start" x="23.5" y="-5.25" font-family="Helvetica,sans-Serif" font-size="10.00">(array $paths)</text>
<polygon fill="#666666" stroke="#666666" points="9.5,-43 9.5,-43 110.5,-43 110.5,-43 9.5,-43"/>
<polygon fill="#666666" stroke="#666666" points="9.5,-28 9.5,-28 110.5,-28 110.5,-28 9.5,-28"/>
<polygon fill="none" stroke="#666666" points="9.5,0 9.5,-60 110.5,-60 110.5,0 9.5,0"/>
</a>
</g>
</g>
<!-- Node2 -->
<g id="Node000002" class="node">
<title>Node2</title>
<g id="a_Node000002"><a xlink:href="$interface_sabre_1_1_d_a_v_1_1_i_collection.html" xlink:title=" ">
<polygon fill="white" stroke="none" points="120,-216 0,-216 0,-96 120,-96 120,-216"/>
<text text-anchor="start" x="36.75" y="-202.5" font-family="Helvetica,sans-Serif" font-size="10.00">ICollection</text>
<text text-anchor="start" x="58.5" y="-187.5" font-family="Helvetica,sans-Serif" font-size="10.00"> </text>
<text text-anchor="start" x="4" y="-172.5" font-family="Helvetica,sans-Serif" font-size="10.00">+</text>
<text text-anchor="start" x="14" y="-172.5" font-family="Helvetica,sans-Serif" font-size="10.00">createFile($name,</text>
<text text-anchor="start" x="14" y="-161.25" font-family="Helvetica,sans-Serif" font-size="10.00"> $data=null)</text>
<text text-anchor="start" x="4" y="-146.5" font-family="Helvetica,sans-Serif" font-size="10.00">+</text>
<text text-anchor="start" x="14" y="-146.5" font-family="Helvetica,sans-Serif" font-size="10.00">createDirectory($name)</text>
<text text-anchor="start" x="4" y="-131.5" font-family="Helvetica,sans-Serif" font-size="10.00">+</text>
<text text-anchor="start" x="14" y="-131.5" font-family="Helvetica,sans-Serif" font-size="10.00">getChild($name)</text>
<text text-anchor="start" x="4" y="-116.5" font-family="Helvetica,sans-Serif" font-size="10.00">+</text>
<text text-anchor="start" x="14" y="-116.5" font-family="Helvetica,sans-Serif" font-size="10.00">getChildren()</text>
<text text-anchor="start" x="4" y="-101.5" font-family="Helvetica,sans-Serif" font-size="10.00">+</text>
<text text-anchor="start" x="14" y="-101.5" font-family="Helvetica,sans-Serif" font-size="10.00">childExists($name)</text>
<polygon fill="#666666" stroke="#666666" points="0,-199 0,-199 120,-199 120,-199 0,-199"/>
<polygon fill="#666666" stroke="#666666" points="0,-184 0,-184 120,-184 120,-184 0,-184"/>
<polygon fill="none" stroke="#666666" points="0,-96 0,-216 120,-216 120,-96 0,-96"/>
</a>
</g>
</g>
<!-- Node2&#45;&gt;Node1 -->
<g id="edge5_Node000001_Node000002" class="edge">
<title>Node2&#45;&gt;Node1</title>
<g id="a_edge5_Node000001_Node000002"><a xlink:title=" ">
<path fill="none" stroke="#63b8ff" d="M60,-85.01C60,-76.18 60,-67.56 60,-59.9"/>
<polygon fill="none" stroke="#63b8ff" points="56.5,-84.75 60,-94.75 63.5,-84.75 56.5,-84.75"/>
</a>
</g>
</g>
<!-- Node3 -->
<g id="Node000003" class="node">
<title>Node3</title>
<g id="a_Node000003"><a xlink:href="$interface_sabre_1_1_d_a_v_1_1_i_node.html" xlink:title=" ">
<polygon fill="white" stroke="none" points="106.5,-346 13.5,-346 13.5,-252 106.5,-252 106.5,-346"/>
<text text-anchor="start" x="46.88" y="-332.5" font-family="Helvetica,sans-Serif" font-size="10.00">INode</text>
<text text-anchor="start" x="58.5" y="-317.5" font-family="Helvetica,sans-Serif" font-size="10.00"> </text>
<text text-anchor="start" x="17.5" y="-302.5" font-family="Helvetica,sans-Serif" font-size="10.00">+</text>
<text text-anchor="start" x="27.5" y="-302.5" font-family="Helvetica,sans-Serif" font-size="10.00">delete()</text>
<text text-anchor="start" x="17.5" y="-287.5" font-family="Helvetica,sans-Serif" font-size="10.00">+</text>
<text text-anchor="start" x="27.5" y="-287.5" font-family="Helvetica,sans-Serif" font-size="10.00">getName()</text>
<text text-anchor="start" x="17.5" y="-272.5" font-family="Helvetica,sans-Serif" font-size="10.00">+</text>
<text text-anchor="start" x="27.5" y="-272.5" font-family="Helvetica,sans-Serif" font-size="10.00">setName($name)</text>
<text text-anchor="start" x="17.5" y="-257.5" font-family="Helvetica,sans-Serif" font-size="10.00">+</text>
<text text-anchor="start" x="27.5" y="-257.5" font-family="Helvetica,sans-Serif" font-size="10.00">getLastModified()</text>
<polygon fill="#666666" stroke="#666666" points="13.5,-329 13.5,-329 106.5,-329 106.5,-329 13.5,-329"/>
<polygon fill="#666666" stroke="#666666" points="13.5,-314 13.5,-314 106.5,-314 106.5,-314 13.5,-314"/>
<polygon fill="none" stroke="#666666" points="13.5,-252 13.5,-346 106.5,-346 106.5,-252 13.5,-252"/>
</a>
</g>
</g>
<!-- Node3&#45;&gt;Node2 -->
<g id="edge6_Node000002_Node000003" class="edge">
<title>Node3&#45;&gt;Node2</title>
<g id="a_edge6_Node000002_Node000003"><a xlink:title=" ">
<path fill="none" stroke="#63b8ff" d="M60,-240.83C60,-232.62 60,-224.16 60,-215.92"/>
<polygon fill="none" stroke="#63b8ff" points="56.5,-240.71 60,-250.71 63.5,-240.71 56.5,-240.71"/>
</a>
</g>
</g>
</g>
</svg>
