<?xml version="1.0" encoding="UTF-8" standalone="no"?>
<!DOCTYPE svg PUBLIC "-//W3C//DTD SVG 1.1//EN"
 "http://www.w3.org/Graphics/SVG/1.1/DTD/svg11.dtd">
<!-- Generated by graphviz version 10.0.1 (20240210.2158)
 -->
<!-- Title: getHeaderValues Pages: 1 -->
<svg width="401pt" height="27pt"
 viewBox="0.00 0.00 401.00 27.25" xmlns="http://www.w3.org/2000/svg" xmlns:xlink="http://www.w3.org/1999/xlink">
<g id="graph0" class="graph" transform="scale(1 1) rotate(0) translate(4 23.25)">
<title>getHeaderValues</title>
<!-- Node1 -->
<g id="Node000001" class="node">
<title>Node1</title>
<g id="a_Node000001"><a xlink:title=" ">
<polygon fill="#999999" stroke="#666666" points="393,-19.25 302.75,-19.25 302.75,0 393,0 393,-19.25"/>
<text text-anchor="middle" x="347.88" y="-5.75" font-family="Helvetica,sans-Serif" font-size="10.00">getHeaderValues</text>
</a>
</g>
</g>
<!-- Node2 -->
<g id="Node000002" class="node">
<title>Node2</title>
<g id="a_Node000002"><a xlink:href="$namespace_sabre_1_1_h_t_t_p.html#a5f7d2a0ffa7631315c67a6848d9b9f1e" xlink:title=" ">
<polygon fill="white" stroke="#666666" points="266.75,-19.25 200.5,-19.25 200.5,0 266.75,0 266.75,-19.25"/>
<text text-anchor="middle" x="233.62" y="-5.75" font-family="Helvetica,sans-Serif" font-size="10.00">parsePrefer</text>
</a>
</g>
</g>
<!-- Node1&#45;&gt;Node2 -->
<g id="edge5_Node000001_Node000002" class="edge">
<title>Node1&#45;&gt;Node2</title>
<g id="a_edge5_Node000001_Node000002"><a xlink:title=" ">
<path fill="none" stroke="#63b8ff" d="M291.05,-9.62C282.9,-9.62 274.73,-9.62 267.24,-9.62"/>
<polygon fill="#63b8ff" stroke="#63b8ff" points="291,-13.13 301,-9.63 291,-6.13 291,-13.13"/>
</a>
</g>
</g>
<!-- Node3 -->
<g id="Node000003" class="node">
<title>Node3</title>
<g id="a_Node000003"><a xlink:href="$class_sabre_1_1_d_a_v_1_1_server.html#a36a266cba206038ea1661ba53564205a" xlink:title=" ">
<polygon fill="white" stroke="#666666" points="164.5,-19.25 0,-19.25 0,0 164.5,0 164.5,-19.25"/>
<text text-anchor="middle" x="82.25" y="-5.75" font-family="Helvetica,sans-Serif" font-size="10.00">Sabre\DAV\Server\getHTTPPrefer</text>
</a>
</g>
</g>
<!-- Node2&#45;&gt;Node3 -->
<g id="edge6_Node000002_Node000003" class="edge">
<title>Node2&#45;&gt;Node3</title>
<g id="a_edge6_Node000002_Node000003"><a xlink:title=" ">
<path fill="none" stroke="#63b8ff" d="M188.79,-9.62C181.22,-9.62 173.13,-9.62 164.93,-9.62"/>
<polygon fill="#63b8ff" stroke="#63b8ff" points="188.7,-13.13 198.7,-9.63 188.7,-6.13 188.7,-13.13"/>
</a>
</g>
</g>
</g>
</svg>
