<?xml version="1.0" encoding="UTF-8" standalone="no"?>
<!DOCTYPE svg PUBLIC "-//W3C//DTD SVG 1.1//EN"
 "http://www.w3.org/Graphics/SVG/1.1/DTD/svg11.dtd">
<!-- Generated by graphviz version 10.0.1 (20240210.2158)
 -->
<!-- Title: __s Pages: 1 -->
<svg width="926pt" height="1062pt"
 viewBox="0.00 0.00 926.00 1061.88" xmlns="http://www.w3.org/2000/svg" xmlns:xlink="http://www.w3.org/1999/xlink">
<g id="graph0" class="graph" transform="scale(1 1) rotate(0) translate(4 1057.88)">
<title>__s</title>
<!-- Node1 -->
<g id="Node000001" class="node">
<title>Node1</title>
<g id="a_Node000001"><a xlink:title=" ">
<polygon fill="#999999" stroke="#666666" points="918,-518.25 886.25,-518.25 886.25,-499 918,-499 918,-518.25"/>
<text text-anchor="middle" x="902.12" y="-504.75" font-family="Helvetica,sans-Serif" font-size="10.00">__s</text>
</a>
</g>
</g>
<!-- Node2 -->
<g id="Node000002" class="node">
<title>Node2</title>
<g id="a_Node000002"><a xlink:href="class_glpi_1_1_system_1_1_requirement_1_1_sessions_configuration.html#a5fb1933974ac9aae8c7ac4d3344caca6" target="_top" xlink:title=" ">
<polygon fill="white" stroke="#666666" points="833.38,-1053.88 686.88,-1053.88 686.88,-1023.38 833.38,-1023.38 833.38,-1053.88"/>
<text text-anchor="start" x="694.88" y="-1040.38" font-family="Helvetica,sans-Serif" font-size="10.00">Glpi\System\Requirement</text>
<text text-anchor="middle" x="760.12" y="-1029.12" font-family="Helvetica,sans-Serif" font-size="10.00">\SessionsConfiguration\check</text>
</a>
</g>
</g>
<!-- Node1&#45;&gt;Node2 -->
<g id="edge1_Node000001_Node000002" class="edge">
<title>Node1&#45;&gt;Node2</title>
<g id="a_edge1_Node000001_Node000002"><a xlink:title=" ">
<path fill="none" stroke="#63b8ff" d="M900.4,-529.77C897.07,-620.9 882.11,-977.1 850.25,-1014.62 845.69,-1020 840.06,-1024.24 833.87,-1027.57"/>
<polygon fill="#63b8ff" stroke="#63b8ff" points="903.89,-529.95 900.75,-519.83 896.9,-529.7 903.89,-529.95"/>
</a>
</g>
</g>
<!-- Node3 -->
<g id="Node000003" class="node">
<title>Node3</title>
<g id="a_Node000003"><a xlink:href="class_search.html#a6807eb031c70652e052e4b8978286867" target="_top" xlink:title=" ">
<polygon fill="white" stroke="#666666" points="829.25,-1005.25 691,-1005.25 691,-986 829.25,-986 829.25,-1005.25"/>
<text text-anchor="middle" x="760.12" y="-991.75" font-family="Helvetica,sans-Serif" font-size="10.00">Search\displayCriteriaGroup</text>
</a>
</g>
</g>
<!-- Node1&#45;&gt;Node3 -->
<g id="edge2_Node000001_Node000003" class="edge">
<title>Node1&#45;&gt;Node3</title>
<g id="a_edge2_Node000001_Node000003"><a xlink:title=" ">
<path fill="none" stroke="#63b8ff" d="M900.27,-529.91C896.59,-617.13 880.84,-944.11 850.25,-977.62 844.61,-983.8 837.49,-988.2 829.73,-991.28"/>
<polygon fill="#63b8ff" stroke="#63b8ff" points="903.77,-530.1 900.68,-519.96 896.78,-529.81 903.77,-530.1"/>
</a>
</g>
</g>
<!-- Node4 -->
<g id="Node000004" class="node">
<title>Node4</title>
<g id="a_Node000004"><a xlink:href="class_stat.html#a2cbf9b331ac5a4c0d698ba864138719a" target="_top" xlink:title=" ">
<polygon fill="white" stroke="#666666" points="816.12,-968.25 704.12,-968.25 704.12,-949 816.12,-949 816.12,-968.25"/>
<text text-anchor="middle" x="760.12" y="-954.75" font-family="Helvetica,sans-Serif" font-size="10.00">Stat\displayLineGraph</text>
</a>
</g>
</g>
<!-- Node1&#45;&gt;Node4 -->
<g id="edge3_Node000001_Node000004" class="edge">
<title>Node1&#45;&gt;Node4</title>
<g id="a_edge3_Node000001_Node000004"><a xlink:title=" ">
<path fill="none" stroke="#63b8ff" d="M900.07,-529.79C895.77,-612.4 878.42,-910.04 850.25,-940.62 841.48,-950.15 829.18,-955.41 816.52,-958.18"/>
<polygon fill="#63b8ff" stroke="#63b8ff" points="903.56,-530.13 900.57,-519.97 896.57,-529.77 903.56,-530.13"/>
</a>
</g>
</g>
<!-- Node6 -->
<g id="Node000006" class="node">
<title>Node6</title>
<g id="a_Node000006"><a xlink:href="class_stat.html#a93a87fd0a239c5e00895f9375d1aa0bc" target="_top" xlink:title=" ">
<polygon fill="white" stroke="#666666" points="814.25,-931.25 706,-931.25 706,-912 814.25,-912 814.25,-931.25"/>
<text text-anchor="middle" x="760.12" y="-917.75" font-family="Helvetica,sans-Serif" font-size="10.00">Stat\displayPieGraph</text>
</a>
</g>
</g>
<!-- Node1&#45;&gt;Node6 -->
<g id="edge5_Node000001_Node000006" class="edge">
<title>Node1&#45;&gt;Node6</title>
<g id="a_edge5_Node000001_Node000006"><a xlink:title=" ">
<path fill="none" stroke="#63b8ff" d="M901.51,-530.02C902.38,-604.21 901.26,-848.85 850.25,-903.62 841,-913.56 827.9,-918.85 814.59,-921.5"/>
<polygon fill="#63b8ff" stroke="#63b8ff" points="905.01,-530.04 901.36,-520.09 898.01,-530.14 905.01,-530.04"/>
</a>
</g>
</g>
<!-- Node8 -->
<g id="Node000008" class="node">
<title>Node8</title>
<g id="a_Node000008"><a xlink:href="class_stat.html#a167fcd1738e10258294ba8f00376ae95" target="_top" xlink:title=" ">
<polygon fill="white" stroke="#666666" points="820.62,-894.25 699.62,-894.25 699.62,-875 820.62,-875 820.62,-894.25"/>
<text text-anchor="middle" x="760.12" y="-880.75" font-family="Helvetica,sans-Serif" font-size="10.00">Stat\displaySearchForm</text>
</a>
</g>
</g>
<!-- Node1&#45;&gt;Node8 -->
<g id="edge7_Node000001_Node000008" class="edge">
<title>Node1&#45;&gt;Node8</title>
<g id="a_edge7_Node000001_Node000008"><a xlink:title=" ">
<path fill="none" stroke="#63b8ff" d="M901.19,-529.8C900.95,-599.12 896.49,-817.62 850.25,-866.62 842.45,-874.89 831.99,-879.93 820.98,-882.91"/>
<polygon fill="#63b8ff" stroke="#63b8ff" points="904.69,-530.18 901.19,-520.18 897.69,-530.18 904.69,-530.18"/>
</a>
</g>
</g>
<!-- Node9 -->
<g id="Node000009" class="node">
<title>Node9</title>
<g id="a_Node000009"><a xlink:href="class_common_d_b_t_m.html#af13365d6579bb9d9c296fb20ae405993" target="_top" xlink:title=" ">
<polygon fill="white" stroke="#666666" points="836.38,-857.25 683.88,-857.25 683.88,-838 836.38,-838 836.38,-857.25"/>
<text text-anchor="middle" x="760.12" y="-843.75" font-family="Helvetica,sans-Serif" font-size="10.00">CommonDBTM\getAutofillMark</text>
</a>
</g>
</g>
<!-- Node1&#45;&gt;Node9 -->
<g id="edge8_Node000001_Node000009" class="edge">
<title>Node1&#45;&gt;Node9</title>
<g id="a_edge8_Node000001_Node000009"><a xlink:title=" ">
<path fill="none" stroke="#63b8ff" d="M900.8,-530.08C899.36,-594.82 891.62,-786.47 850.25,-829.62 846.32,-833.73 841.73,-837.03 836.74,-839.68"/>
<polygon fill="#63b8ff" stroke="#63b8ff" points="904.3,-530.17 900.99,-520.11 897.3,-530.04 904.3,-530.17"/>
</a>
</g>
</g>
<!-- Node11 -->
<g id="Node000011" class="node">
<title>Node11</title>
<g id="a_Node000011"><a xlink:href="class_html.html#ac83ccab989a2d234cc974c3f87513770" target="_top" xlink:title=" ">
<polygon fill="white" stroke="#666666" points="834.88,-820.25 685.38,-820.25 685.38,-801 834.88,-801 834.88,-820.25"/>
<text text-anchor="middle" x="760.12" y="-806.75" font-family="Helvetica,sans-Serif" font-size="10.00">Html\getCheckAllAsCheckbox</text>
</a>
</g>
</g>
<!-- Node1&#45;&gt;Node11 -->
<g id="edge10_Node000001_Node000011" class="edge">
<title>Node1&#45;&gt;Node11</title>
<g id="a_edge10_Node000001_Node000011"><a xlink:title=" ">
<path fill="none" stroke="#63b8ff" d="M900.32,-529.91C897.62,-589.35 886.88,-755.18 850.25,-792.62 845.83,-797.14 840.62,-800.68 834.97,-803.45"/>
<polygon fill="#63b8ff" stroke="#63b8ff" points="903.8,-530.29 900.73,-520.15 896.81,-530 903.8,-530.29"/>
</a>
</g>
</g>
<!-- Node12 -->
<g id="Node000012" class="node">
<title>Node12</title>
<g id="a_Node000012"><a xlink:href="class_user.html#a875c2e68ebf67d631fb3e7baa701a563" target="_top" xlink:title=" ">
<polygon fill="white" stroke="#666666" points="829.62,-783.25 690.62,-783.25 690.62,-764 829.62,-764 829.62,-783.25"/>
<text text-anchor="middle" x="760.12" y="-769.75" font-family="Helvetica,sans-Serif" font-size="10.00">User\getFormHeaderToolbar</text>
</a>
</g>
</g>
<!-- Node1&#45;&gt;Node12 -->
<g id="edge11_Node000001_Node000012" class="edge">
<title>Node1&#45;&gt;Node12</title>
<g id="a_edge11_Node000001_Node000012"><a xlink:title=" ">
<path fill="none" stroke="#63b8ff" d="M899.66,-529.84C895.5,-583.54 881.84,-722.84 850.25,-754.62 844.56,-760.35 837.6,-764.54 830.11,-767.6"/>
<polygon fill="#63b8ff" stroke="#63b8ff" points="903.12,-530.41 900.37,-520.18 896.14,-529.9 903.12,-530.41"/>
</a>
</g>
</g>
<!-- Node13 -->
<g id="Node000013" class="node">
<title>Node13</title>
<g id="a_Node000013"><a xlink:href="class_common_device.html#a059cbcefba05e4e3fa9bf1f9c8136578" target="_top" xlink:title=" ">
<polygon fill="white" stroke="#666666" points="836.75,-745.88 683.5,-745.88 683.5,-715.38 836.75,-715.38 836.75,-745.88"/>
<text text-anchor="start" x="691.5" y="-732.38" font-family="Helvetica,sans-Serif" font-size="10.00">CommonDevice\getHTMLTable</text>
<text text-anchor="middle" x="760.12" y="-721.12" font-family="Helvetica,sans-Serif" font-size="10.00">CellForItem</text>
</a>
</g>
</g>
<!-- Node1&#45;&gt;Node13 -->
<g id="edge12_Node000001_Node000013" class="edge">
<title>Node1&#45;&gt;Node13</title>
<g id="a_edge12_Node000001_Node000013"><a xlink:title=" ">
<path fill="none" stroke="#63b8ff" d="M902.07,-529.89C902.63,-569.97 897.88,-657 850.25,-705.62 846.31,-709.64 841.79,-713.03 836.91,-715.88"/>
<polygon fill="#63b8ff" stroke="#63b8ff" points="905.57,-529.84 901.78,-519.94 898.57,-530.04 905.57,-529.84"/>
</a>
</g>
</g>
<!-- Node14 -->
<g id="Node000014" class="node">
<title>Node14</title>
<g id="a_Node000014"><a xlink:href="class_user_email.html#abbc9aac40dbe6334529ff5909f89933b" target="_top" xlink:title=" ">
<polygon fill="white" stroke="#666666" points="830.75,-696.88 689.5,-696.88 689.5,-666.38 830.75,-666.38 830.75,-696.88"/>
<text text-anchor="start" x="697.5" y="-683.38" font-family="Helvetica,sans-Serif" font-size="10.00">UserEmail\getJSCodeToAdd</text>
<text text-anchor="middle" x="760.12" y="-672.12" font-family="Helvetica,sans-Serif" font-size="10.00">ForItemChild</text>
</a>
</g>
</g>
<!-- Node1&#45;&gt;Node14 -->
<g id="edge13_Node000001_Node000014" class="edge">
<title>Node1&#45;&gt;Node14</title>
<g id="a_edge13_Node000001_Node000014"><a xlink:title=" ">
<path fill="none" stroke="#63b8ff" d="M899.88,-529.67C896.84,-561.7 886.36,-622.54 850.25,-656.62 844.64,-661.92 838,-666.11 830.92,-669.42"/>
<polygon fill="#63b8ff" stroke="#63b8ff" points="903.34,-530.32 900.62,-520.08 896.36,-529.78 903.34,-530.32"/>
</a>
</g>
</g>
<!-- Node15 -->
<g id="Node000015" class="node">
<title>Node15</title>
<g id="a_Node000015"><a xlink:href="class_glpi_1_1_marketplace_1_1_view.html#a33f4e2b52149367a65502c9a48f62709" target="_top" xlink:title=" ">
<polygon fill="white" stroke="#666666" points="821.75,-647.88 698.5,-647.88 698.5,-617.38 821.75,-617.38 821.75,-647.88"/>
<text text-anchor="start" x="706.5" y="-634.38" font-family="Helvetica,sans-Serif" font-size="10.00">Glpi\Marketplace\View</text>
<text text-anchor="middle" x="760.12" y="-623.12" font-family="Helvetica,sans-Serif" font-size="10.00">\getNetworkInformations</text>
</a>
</g>
</g>
<!-- Node1&#45;&gt;Node15 -->
<g id="edge14_Node000001_Node000015" class="edge">
<title>Node1&#45;&gt;Node15</title>
<g id="a_edge14_Node000001_Node000015"><a xlink:title=" ">
<path fill="none" stroke="#63b8ff" d="M895.11,-529.41C887.85,-550.92 873.63,-584.06 850.25,-603.62 842.01,-610.52 832.1,-615.78 821.92,-619.8"/>
<polygon fill="#63b8ff" stroke="#63b8ff" points="898.41,-530.58 898.06,-519.99 891.73,-528.48 898.41,-530.58"/>
</a>
</g>
</g>
<!-- Node16 -->
<g id="Node000016" class="node">
<title>Node16</title>
<g id="a_Node000016"><a xlink:href="class_glpi_1_1_marketplace_1_1_view.html#abb6fe8429307bceb327975292592e6d5" target="_top" xlink:title=" ">
<polygon fill="white" stroke="#666666" points="609.25,-670.88 495,-670.88 495,-640.38 609.25,-640.38 609.25,-670.88"/>
<text text-anchor="start" x="503" y="-657.38" font-family="Helvetica,sans-Serif" font-size="10.00">Glpi\Marketplace\View</text>
<text text-anchor="middle" x="552.12" y="-646.12" font-family="Helvetica,sans-Serif" font-size="10.00">\getPluginCard</text>
</a>
</g>
</g>
<!-- Node1&#45;&gt;Node16 -->
<g id="edge21_Node000001_Node000016" class="edge">
<title>Node1&#45;&gt;Node16</title>
<g id="a_edge21_Node000001_Node000016"><a xlink:title=" ">
<path fill="none" stroke="#63b8ff" d="M890.17,-528.03C881.23,-542.05 867.32,-560.26 850.25,-570.62 780.27,-613.12 746.09,-578.4 670,-608.62 652.57,-615.55 651.09,-622.91 634,-630.62 626.23,-634.13 617.83,-637.33 609.49,-640.19"/>
<polygon fill="#63b8ff" stroke="#63b8ff" points="893.07,-530 895.22,-519.63 887.07,-526.4 893.07,-530"/>
</a>
</g>
</g>
<!-- Node21 -->
<g id="Node000021" class="node">
<title>Node21</title>
<g id="a_Node000021"><a xlink:href="class_html.html#ab4d042d00753f27f627bc05c9c017415" target="_top" xlink:title=" ">
<polygon fill="white" stroke="#666666" points="812,-561.25 708.25,-561.25 708.25,-542 812,-542 812,-561.25"/>
<text text-anchor="middle" x="760.12" y="-547.75" font-family="Helvetica,sans-Serif" font-size="10.00">Html\printAjaxPager</text>
</a>
</g>
</g>
<!-- Node1&#45;&gt;Node21 -->
<g id="edge22_Node000001_Node000021" class="edge">
<title>Node1&#45;&gt;Node21</title>
<g id="a_edge22_Node000001_Node000021"><a xlink:title=" ">
<path fill="none" stroke="#63b8ff" d="M875.75,-522C867.75,-525.83 858.77,-529.75 850.25,-532.62 838.11,-536.72 824.73,-540.13 812.11,-542.87"/>
<polygon fill="#63b8ff" stroke="#63b8ff" points="877.18,-525.2 884.57,-517.61 874.06,-518.94 877.18,-525.2"/>
</a>
</g>
</g>
<!-- Node22 -->
<g id="Node000022" class="node">
<title>Node22</title>
<g id="a_Node000022"><a xlink:href="class_common_d_b_child.html#aab36d5d745548dfe82b5e9a3df0a6a3d" target="_top" xlink:title=" ">
<polygon fill="white" stroke="#666666" points="839.38,-523.88 680.88,-523.88 680.88,-493.38 839.38,-493.38 839.38,-523.88"/>
<text text-anchor="start" x="688.88" y="-510.38" font-family="Helvetica,sans-Serif" font-size="10.00">CommonDBChild\showAddChild</text>
<text text-anchor="middle" x="760.12" y="-499.12" font-family="Helvetica,sans-Serif" font-size="10.00">ButtonForItemForm</text>
</a>
</g>
</g>
<!-- Node1&#45;&gt;Node22 -->
<g id="edge23_Node000001_Node000022" class="edge">
<title>Node1&#45;&gt;Node22</title>
<g id="a_edge23_Node000001_Node000022"><a xlink:title=" ">
<path fill="none" stroke="#63b8ff" d="M874.57,-508.62C864.38,-508.62 852.16,-508.62 839.57,-508.62"/>
<polygon fill="#63b8ff" stroke="#63b8ff" points="874.36,-512.13 884.36,-508.63 874.36,-505.13 874.36,-512.13"/>
</a>
</g>
</g>
<!-- Node29 -->
<g id="Node000029" class="node">
<title>Node29</title>
<g id="a_Node000029"><a xlink:href="class_user.html#a790c830e3813c13868be7b053b47a2f2" target="_top" xlink:title=" ">
<polygon fill="white" stroke="#666666" points="829.25,-475.25 691,-475.25 691,-456 829.25,-456 829.25,-475.25"/>
<text text-anchor="middle" x="760.12" y="-461.75" font-family="Helvetica,sans-Serif" font-size="10.00">User\showAddExtAuthForm</text>
</a>
</g>
</g>
<!-- Node1&#45;&gt;Node29 -->
<g id="edge30_Node000001_Node000029" class="edge">
<title>Node1&#45;&gt;Node29</title>
<g id="a_edge30_Node000001_Node000029"><a xlink:title=" ">
<path fill="none" stroke="#63b8ff" d="M875.75,-495.25C867.75,-491.42 858.77,-487.5 850.25,-484.62 839.91,-481.14 828.66,-478.15 817.76,-475.64"/>
<polygon fill="#63b8ff" stroke="#63b8ff" points="874.06,-498.31 884.57,-499.64 877.18,-492.05 874.06,-498.31"/>
</a>
</g>
</g>
<!-- Node30 -->
<g id="Node000030" class="node">
<title>Node30</title>
<g id="a_Node000030"><a xlink:href="class_cartridge.html#ade096cf11a7659a8ff78ca21d2dfe049" target="_top" xlink:title=" ">
<polygon fill="white" stroke="#666666" points="821,-438.25 699.25,-438.25 699.25,-419 821,-419 821,-438.25"/>
<text text-anchor="middle" x="760.12" y="-424.75" font-family="Helvetica,sans-Serif" font-size="10.00">Cartridge\showAddForm</text>
</a>
</g>
</g>
<!-- Node1&#45;&gt;Node30 -->
<g id="edge31_Node000001_Node000030" class="edge">
<title>Node1&#45;&gt;Node30</title>
<g id="a_edge31_Node000001_Node000030"><a xlink:title=" ">
<path fill="none" stroke="#63b8ff" d="M890.19,-489.18C881.27,-475.14 867.37,-456.92 850.25,-446.62 841.46,-441.34 831.38,-437.57 821.25,-434.9"/>
<polygon fill="#63b8ff" stroke="#63b8ff" points="887.09,-490.81 895.24,-497.59 893.1,-487.22 887.09,-490.81"/>
</a>
</g>
</g>
<!-- Node32 -->
<g id="Node000032" class="node">
<title>Node32</title>
<g id="a_Node000032"><a xlink:href="class_user_email.html#a95be20d57481b57793cb206d98dec77e" target="_top" xlink:title=" ">
<polygon fill="white" stroke="#666666" points="843.5,-401.25 676.75,-401.25 676.75,-382 843.5,-382 843.5,-401.25"/>
<text text-anchor="middle" x="760.12" y="-387.75" font-family="Helvetica,sans-Serif" font-size="10.00">UserEmail\showChildForItemForm</text>
</a>
</g>
</g>
<!-- Node1&#45;&gt;Node32 -->
<g id="edge33_Node000001_Node000032" class="edge">
<title>Node1&#45;&gt;Node32</title>
<g id="a_edge33_Node000001_Node000032"><a xlink:title=" ">
<path fill="none" stroke="#63b8ff" d="M896.18,-487.75C889.65,-464.92 875.85,-429 850.25,-409.62 846.1,-406.48 841.53,-403.85 836.73,-401.65"/>
<polygon fill="#63b8ff" stroke="#63b8ff" points="892.73,-488.37 898.65,-497.16 899.5,-486.6 892.73,-488.37"/>
</a>
</g>
</g>
<!-- Node33 -->
<g id="Node000033" class="node">
<title>Node33</title>
<g id="a_Node000033"><a xlink:href="class_auth_l_d_a_p.html#ad9ff7dc815340fcc80632e01c3acb287" target="_top" xlink:title=" ">
<polygon fill="white" stroke="#666666" points="815.75,-364.25 704.5,-364.25 704.5,-345 815.75,-345 815.75,-364.25"/>
<text text-anchor="middle" x="760.12" y="-350.75" font-family="Helvetica,sans-Serif" font-size="10.00">AuthLDAP\showForm</text>
</a>
</g>
</g>
<!-- Node1&#45;&gt;Node33 -->
<g id="edge34_Node000001_Node000033" class="edge">
<title>Node1&#45;&gt;Node33</title>
<g id="a_edge34_Node000001_Node000033"><a xlink:title=" ">
<path fill="none" stroke="#63b8ff" d="M899.43,-487.25C895.83,-456.96 884.66,-401.96 850.25,-372.62 840.64,-364.43 828.33,-359.6 815.95,-356.83"/>
<polygon fill="#63b8ff" stroke="#63b8ff" points="895.93,-487.46 900.4,-497.07 902.9,-486.77 895.93,-487.46"/>
</a>
</g>
</g>
<!-- Node34 -->
<g id="Node000034" class="node">
<title>Node34</title>
<g id="a_Node000034"><a xlink:href="class_reservation_item.html#ad9ff7dc815340fcc80632e01c3acb287" target="_top" xlink:title=" ">
<polygon fill="white" stroke="#666666" points="828.5,-327.25 691.75,-327.25 691.75,-308 828.5,-308 828.5,-327.25"/>
<text text-anchor="middle" x="760.12" y="-313.75" font-family="Helvetica,sans-Serif" font-size="10.00">ReservationItem\showForm</text>
</a>
</g>
</g>
<!-- Node1&#45;&gt;Node34 -->
<g id="edge35_Node000001_Node000034" class="edge">
<title>Node1&#45;&gt;Node34</title>
<g id="a_edge35_Node000001_Node000034"><a xlink:title=" ">
<path fill="none" stroke="#63b8ff" d="M901.45,-487.35C900.79,-450.65 893.8,-375.56 850.25,-335.62 844.08,-329.97 836.65,-325.89 828.74,-322.96"/>
<polygon fill="#63b8ff" stroke="#63b8ff" points="897.95,-487.1 901.47,-497.09 904.95,-487.09 897.95,-487.1"/>
</a>
</g>
</g>
<!-- Node35 -->
<g id="Node000035" class="node">
<title>Node35</title>
<g id="a_Node000035"><a xlink:href="class_transfer.html#ad9ff7dc815340fcc80632e01c3acb287" target="_top" xlink:title=" ">
<polygon fill="white" stroke="#666666" points="810.5,-290.25 709.75,-290.25 709.75,-271 810.5,-271 810.5,-290.25"/>
<text text-anchor="middle" x="760.12" y="-276.75" font-family="Helvetica,sans-Serif" font-size="10.00">Transfer\showForm</text>
</a>
</g>
</g>
<!-- Node1&#45;&gt;Node35 -->
<g id="edge36_Node000001_Node000035" class="edge">
<title>Node1&#45;&gt;Node35</title>
<g id="a_edge36_Node000001_Node000035"><a xlink:title=" ">
<path fill="none" stroke="#63b8ff" d="M898.85,-487.36C893.29,-439.36 877.42,-324.77 850.25,-298.62 839.67,-288.45 825.02,-283.29 810.64,-280.84"/>
<polygon fill="#63b8ff" stroke="#63b8ff" points="895.34,-487.46 899.93,-497.01 902.3,-486.69 895.34,-487.46"/>
</a>
</g>
</g>
<!-- Node36 -->
<g id="Node000036" class="node">
<title>Node36</title>
<g id="a_Node000036"><a xlink:href="class_auth_l_d_a_p.html#a8aae813b46f790b12de0eca6c01c0bea" target="_top" xlink:title=" ">
<polygon fill="white" stroke="#666666" points="837.5,-252.88 682.75,-252.88 682.75,-222.38 837.5,-222.38 837.5,-252.88"/>
<text text-anchor="start" x="690.75" y="-239.38" font-family="Helvetica,sans-Serif" font-size="10.00">AuthLDAP\showFormAdvanced</text>
<text text-anchor="middle" x="760.12" y="-228.12" font-family="Helvetica,sans-Serif" font-size="10.00">Config</text>
</a>
</g>
</g>
<!-- Node1&#45;&gt;Node36 -->
<g id="edge37_Node000001_Node000036" class="edge">
<title>Node1&#45;&gt;Node36</title>
<g id="a_edge37_Node000001_Node000036"><a xlink:title=" ">
<path fill="none" stroke="#63b8ff" d="M899.57,-487.42C895.2,-433.74 881.1,-294.38 850.25,-261.62 846.62,-257.78 842.45,-254.52 837.94,-251.77"/>
<polygon fill="#63b8ff" stroke="#63b8ff" points="896.05,-487.38 900.32,-497.07 903.03,-486.83 896.05,-487.38"/>
</a>
</g>
</g>
<!-- Node37 -->
<g id="Node000037" class="node">
<title>Node37</title>
<g id="a_Node000037"><a xlink:href="class_auth_l_d_a_p.html#ac6f379a923efe7854ee12d3eee75daa3" target="_top" xlink:title=" ">
<polygon fill="white" stroke="#666666" points="842.75,-204.25 677.5,-204.25 677.5,-185 842.75,-185 842.75,-204.25"/>
<text text-anchor="middle" x="760.12" y="-190.75" font-family="Helvetica,sans-Serif" font-size="10.00">AuthLDAP\showFormEntityConfig</text>
</a>
</g>
</g>
<!-- Node1&#45;&gt;Node37 -->
<g id="edge38_Node000001_Node000037" class="edge">
<title>Node1&#45;&gt;Node37</title>
<g id="a_edge38_Node000001_Node000037"><a xlink:title=" ">
<path fill="none" stroke="#63b8ff" d="M900.45,-487.33C898.08,-426.37 888.08,-252.97 850.25,-213.62 846.85,-210.09 842.97,-207.13 838.77,-204.66"/>
<polygon fill="#63b8ff" stroke="#63b8ff" points="896.94,-487.17 900.8,-497.04 903.94,-486.92 896.94,-487.17"/>
</a>
</g>
</g>
<!-- Node38 -->
<g id="Node000038" class="node">
<title>Node38</title>
<g id="a_Node000038"><a xlink:href="class_auth_l_d_a_p.html#a4fb6012b3495fdc3c5a0b451f2809d8e" target="_top" xlink:title=" ">
<polygon fill="white" stroke="#666666" points="845.75,-167.25 674.5,-167.25 674.5,-148 845.75,-148 845.75,-167.25"/>
<text text-anchor="middle" x="760.12" y="-153.75" font-family="Helvetica,sans-Serif" font-size="10.00">AuthLDAP\showFormGroupsConfig</text>
</a>
</g>
</g>
<!-- Node1&#45;&gt;Node38 -->
<g id="edge39_Node000001_Node000038" class="edge">
<title>Node1&#45;&gt;Node38</title>
<g id="a_edge39_Node000001_Node000038"><a xlink:title=" ">
<path fill="none" stroke="#63b8ff" d="M900.94,-487.24C899.9,-420.94 893.19,-220.66 850.25,-175.62 847.31,-172.54 844,-169.91 840.42,-167.66"/>
<polygon fill="#63b8ff" stroke="#63b8ff" points="897.43,-487.15 901.06,-497.11 904.43,-487.07 897.43,-487.15"/>
</a>
</g>
</g>
<!-- Node39 -->
<g id="Node000039" class="node">
<title>Node39</title>
<g id="a_Node000039"><a xlink:href="class_auth_l_d_a_p.html#ab2997ed435413898f6c488f91028881c" target="_top" xlink:title=" ">
<polygon fill="white" stroke="#666666" points="840.5,-130.25 679.75,-130.25 679.75,-111 840.5,-111 840.5,-130.25"/>
<text text-anchor="middle" x="760.12" y="-116.75" font-family="Helvetica,sans-Serif" font-size="10.00">AuthLDAP\showFormUserConfig</text>
</a>
</g>
</g>
<!-- Node1&#45;&gt;Node39 -->
<g id="edge40_Node000001_Node000039" class="edge">
<title>Node1&#45;&gt;Node39</title>
<g id="a_edge40_Node000001_Node000039"><a xlink:title=" ">
<path fill="none" stroke="#63b8ff" d="M901.3,-487.21C901.42,-416.11 897.99,-189.46 850.25,-138.62 847.33,-135.52 844.04,-132.87 840.48,-130.61"/>
<polygon fill="#63b8ff" stroke="#63b8ff" points="897.8,-487.07 901.25,-497.09 904.8,-487.11 897.8,-487.07"/>
</a>
</g>
</g>
<!-- Node40 -->
<g id="Node000040" class="node">
<title>Node40</title>
<g id="a_Node000040"><a xlink:href="class_dropdown.html#a300345626b6cdbabec1ec501b6049838" target="_top" xlink:title=" ">
<polygon fill="white" stroke="#666666" points="832.25,-93.25 688,-93.25 688,-74 832.25,-74 832.25,-93.25"/>
<text text-anchor="middle" x="760.12" y="-79.75" font-family="Helvetica,sans-Serif" font-size="10.00">Dropdown\showGlobalSwitch</text>
</a>
</g>
</g>
<!-- Node1&#45;&gt;Node40 -->
<g id="edge41_Node000001_Node000040" class="edge">
<title>Node1&#45;&gt;Node40</title>
<g id="a_edge41_Node000001_Node000040"><a xlink:title=" ">
<path fill="none" stroke="#63b8ff" d="M901.59,-487.55C902.82,-412.31 902.9,-158.38 850.25,-101.62 845.31,-96.3 839.27,-92.31 832.68,-89.34"/>
<polygon fill="#63b8ff" stroke="#63b8ff" points="898.1,-487.16 901.41,-497.23 905.1,-487.3 898.1,-487.16"/>
</a>
</g>
</g>
<!-- Node41 -->
<g id="Node000041" class="node">
<title>Node41</title>
<g id="a_Node000041"><a xlink:href="class_config.html#a75ae68aca51f080900b0f463786d3a84" target="_top" xlink:title=" ">
<polygon fill="white" stroke="#666666" points="850.25,-56.25 670,-56.25 670,-37 850.25,-37 850.25,-56.25"/>
<text text-anchor="middle" x="760.12" y="-42.75" font-family="Helvetica,sans-Serif" font-size="10.00">Config\showPerformanceInformations</text>
</a>
</g>
</g>
<!-- Node1&#45;&gt;Node41 -->
<g id="edge42_Node000001_Node000041" class="edge">
<title>Node1&#45;&gt;Node41</title>
<g id="a_edge42_Node000001_Node000041"><a xlink:title=" ">
<path fill="none" stroke="#63b8ff" d="M900.13,-487.13C896.01,-402.61 879.17,-96.12 850.25,-64.62 847.37,-61.49 844.1,-58.81 840.56,-56.53"/>
<polygon fill="#63b8ff" stroke="#63b8ff" points="896.63,-487.19 900.6,-497.01 903.62,-486.86 896.63,-487.19"/>
</a>
</g>
</g>
<!-- Node42 -->
<g id="Node000042" class="node">
<title>Node42</title>
<g id="a_Node000042"><a xlink:href="class_saved_search.html#af0f51ebf28eb07b1f00c7671dc9c6f9c" target="_top" xlink:title=" ">
<polygon fill="white" stroke="#666666" points="836,-19.25 684.25,-19.25 684.25,0 836,0 836,-19.25"/>
<text text-anchor="middle" x="760.12" y="-5.75" font-family="Helvetica,sans-Serif" font-size="10.00">SavedSearch\showSaveButton</text>
</a>
</g>
</g>
<!-- Node1&#45;&gt;Node42 -->
<g id="edge43_Node000001_Node000042" class="edge">
<title>Node1&#45;&gt;Node42</title>
<g id="a_edge43_Node000001_Node000042"><a xlink:title=" ">
<path fill="none" stroke="#63b8ff" d="M900.32,-487.07C896.82,-398.05 881.6,-62.07 850.25,-27.62 846.21,-23.19 841.41,-19.67 836.16,-16.9"/>
<polygon fill="#63b8ff" stroke="#63b8ff" points="896.83,-487.18 900.71,-497.04 903.82,-486.91 896.83,-487.18"/>
</a>
</g>
</g>
<!-- Node5 -->
<g id="Node000005" class="node">
<title>Node5</title>
<g id="a_Node000005"><a xlink:href="class_stat.html#a7bf3bf3c3d32b6135571896215fe3553" target="_top" xlink:title=" ">
<polygon fill="white" stroke="#666666" points="629.88,-968.25 474.38,-968.25 474.38,-949 629.88,-949 629.88,-968.25"/>
<text text-anchor="middle" x="552.12" y="-954.75" font-family="Helvetica,sans-Serif" font-size="10.00">Stat\displayLineGraphFromData</text>
</a>
</g>
</g>
<!-- Node4&#45;&gt;Node5 -->
<g id="edge4_Node000004_Node000005" class="edge">
<title>Node4&#45;&gt;Node5</title>
<g id="a_edge4_Node000004_Node000005"><a xlink:title=" ">
<path fill="none" stroke="#63b8ff" d="M692.28,-958.62C672.52,-958.62 650.73,-958.62 630.37,-958.62"/>
<polygon fill="#63b8ff" stroke="#63b8ff" points="692.14,-962.13 702.14,-958.63 692.14,-955.13 692.14,-962.13"/>
</a>
</g>
</g>
<!-- Node7 -->
<g id="Node000007" class="node">
<title>Node7</title>
<g id="a_Node000007"><a xlink:href="class_stat.html#a09a2f71b4ca4767de427e29bc74b82a7" target="_top" xlink:title=" ">
<polygon fill="white" stroke="#666666" points="628,-931.25 476.25,-931.25 476.25,-912 628,-912 628,-931.25"/>
<text text-anchor="middle" x="552.12" y="-917.75" font-family="Helvetica,sans-Serif" font-size="10.00">Stat\displayPieGraphFromData</text>
</a>
</g>
</g>
<!-- Node6&#45;&gt;Node7 -->
<g id="edge6_Node000006_Node000007" class="edge">
<title>Node6&#45;&gt;Node7</title>
<g id="a_edge6_Node000006_Node000007"><a xlink:title=" ">
<path fill="none" stroke="#63b8ff" d="M694.17,-921.62C673.2,-921.62 649.79,-921.62 628.15,-921.62"/>
<polygon fill="#63b8ff" stroke="#63b8ff" points="694.03,-925.13 704.03,-921.63 694.03,-918.13 694.03,-925.13"/>
</a>
</g>
</g>
<!-- Node10 -->
<g id="Node000010" class="node">
<title>Node10</title>
<g id="a_Node000010"><a xlink:href="class_project.html#ad9ff7dc815340fcc80632e01c3acb287" target="_top" xlink:title=" ">
<polygon fill="white" stroke="#666666" points="599.88,-857.25 504.38,-857.25 504.38,-838 599.88,-838 599.88,-857.25"/>
<text text-anchor="middle" x="552.12" y="-843.75" font-family="Helvetica,sans-Serif" font-size="10.00">Project\showForm</text>
</a>
</g>
</g>
<!-- Node9&#45;&gt;Node10 -->
<g id="edge9_Node000009_Node000010" class="edge">
<title>Node9&#45;&gt;Node10</title>
<g id="a_edge9_Node000009_Node000010"><a xlink:title=" ">
<path fill="none" stroke="#63b8ff" d="M672.34,-847.62C647.61,-847.62 621.6,-847.62 600.21,-847.62"/>
<polygon fill="#63b8ff" stroke="#63b8ff" points="672.07,-851.13 682.07,-847.63 672.07,-844.13 672.07,-851.13"/>
</a>
</g>
</g>
<!-- Node15&#45;&gt;Node16 -->
<g id="edge15_Node000015_Node000016" class="edge">
<title>Node15&#45;&gt;Node16</title>
<g id="a_edge15_Node000015_Node000016"><a xlink:title=" ">
<path fill="none" stroke="#63b8ff" d="M686.76,-640.7C661.49,-643.53 633.51,-646.65 609.71,-649.31"/>
<polygon fill="#63b8ff" stroke="#63b8ff" points="687.1,-644.19 696.65,-639.6 686.32,-637.23 687.1,-644.19"/>
</a>
</g>
</g>
<!-- Node17 -->
<g id="Node000017" class="node">
<title>Node17</title>
<g id="a_Node000017"><a xlink:href="class_glpi_1_1_marketplace_1_1_view.html#a96172460acd041454bce669c9fd11561" target="_top" xlink:title=" ">
<polygon fill="white" stroke="#666666" points="434.25,-670.88 320,-670.88 320,-640.38 434.25,-640.38 434.25,-670.88"/>
<text text-anchor="start" x="328" y="-657.38" font-family="Helvetica,sans-Serif" font-size="10.00">Glpi\Marketplace\View</text>
<text text-anchor="middle" x="377.12" y="-646.12" font-family="Helvetica,sans-Serif" font-size="10.00">\displayList</text>
</a>
</g>
</g>
<!-- Node16&#45;&gt;Node17 -->
<g id="edge16_Node000016_Node000017" class="edge">
<title>Node16&#45;&gt;Node17</title>
<g id="a_edge16_Node000016_Node000017"><a xlink:title=" ">
<path fill="none" stroke="#63b8ff" d="M483.87,-655.62C467.58,-655.62 450.34,-655.62 434.6,-655.62"/>
<polygon fill="#63b8ff" stroke="#63b8ff" points="483.44,-659.13 493.44,-655.63 483.44,-652.13 483.44,-659.13"/>
</a>
</g>
</g>
<!-- Node18 -->
<g id="Node000018" class="node">
<title>Node18</title>
<g id="a_Node000018"><a xlink:href="class_glpi_1_1_marketplace_1_1_view.html#a73754c5e9df7aa31b329817c5814468f" target="_top" xlink:title=" ">
<polygon fill="white" stroke="#666666" points="284,-695.88 169.75,-695.88 169.75,-665.38 284,-665.38 284,-695.88"/>
<text text-anchor="start" x="177.75" y="-682.38" font-family="Helvetica,sans-Serif" font-size="10.00">Glpi\Marketplace\View</text>
<text text-anchor="middle" x="226.88" y="-671.12" font-family="Helvetica,sans-Serif" font-size="10.00">\discover</text>
</a>
</g>
</g>
<!-- Node17&#45;&gt;Node18 -->
<g id="edge17_Node000017_Node000018" class="edge">
<title>Node17&#45;&gt;Node18</title>
<g id="a_edge17_Node000017_Node000018"><a xlink:title=" ">
<path fill="none" stroke="#63b8ff" d="M308.34,-667.06C300.26,-668.42 292.08,-669.8 284.19,-671.13"/>
<polygon fill="#63b8ff" stroke="#63b8ff" points="308.88,-670.51 318.16,-665.4 307.72,-663.61 308.88,-670.51"/>
</a>
</g>
</g>
<!-- Node20 -->
<g id="Node000020" class="node">
<title>Node20</title>
<g id="a_Node000020"><a xlink:href="class_glpi_1_1_marketplace_1_1_view.html#a0a1c558533b6ef84b1d9d76841219e66" target="_top" xlink:title=" ">
<polygon fill="white" stroke="#666666" points="284,-646.88 169.75,-646.88 169.75,-616.38 284,-616.38 284,-646.88"/>
<text text-anchor="start" x="177.75" y="-633.38" font-family="Helvetica,sans-Serif" font-size="10.00">Glpi\Marketplace\View</text>
<text text-anchor="middle" x="226.88" y="-622.12" font-family="Helvetica,sans-Serif" font-size="10.00">\installed</text>
</a>
</g>
</g>
<!-- Node17&#45;&gt;Node20 -->
<g id="edge19_Node000017_Node000020" class="edge">
<title>Node17&#45;&gt;Node20</title>
<g id="a_edge19_Node000017_Node000020"><a xlink:title=" ">
<path fill="none" stroke="#63b8ff" d="M308.34,-644.65C300.26,-643.34 292.08,-642.02 284.19,-640.74"/>
<polygon fill="#63b8ff" stroke="#63b8ff" points="307.73,-648.1 318.16,-646.24 308.85,-641.19 307.73,-648.1"/>
</a>
</g>
</g>
<!-- Node19 -->
<g id="Node000019" class="node">
<title>Node19</title>
<g id="a_Node000019"><a xlink:href="class_glpi_1_1_marketplace_1_1_view.html#af466512746a6caca8ee1556ed63fa2f3" target="_top" xlink:title=" ">
<polygon fill="white" stroke="#666666" points="133.75,-670.88 0,-670.88 0,-640.38 133.75,-640.38 133.75,-670.88"/>
<text text-anchor="start" x="8" y="-657.38" font-family="Helvetica,sans-Serif" font-size="10.00">Glpi\Marketplace\View</text>
<text text-anchor="middle" x="66.88" y="-646.12" font-family="Helvetica,sans-Serif" font-size="10.00">\displayTabContentForItem</text>
</a>
</g>
</g>
<!-- Node18&#45;&gt;Node19 -->
<g id="edge18_Node000018_Node000019" class="edge">
<title>Node18&#45;&gt;Node19</title>
<g id="a_edge18_Node000018_Node000019"><a xlink:title=" ">
<path fill="none" stroke="#63b8ff" d="M158.13,-669.91C150.14,-668.64 142,-667.35 134.04,-666.09"/>
<polygon fill="#63b8ff" stroke="#63b8ff" points="157.36,-673.33 167.78,-671.43 158.45,-666.41 157.36,-673.33"/>
</a>
</g>
</g>
<!-- Node20&#45;&gt;Node19 -->
<g id="edge20_Node000020_Node000019" class="edge">
<title>Node20&#45;&gt;Node19</title>
<g id="a_edge20_Node000020_Node000019"><a xlink:title=" ">
<path fill="none" stroke="#63b8ff" d="M158.13,-641.92C150.14,-643.13 142,-644.37 134.04,-645.58"/>
<polygon fill="#63b8ff" stroke="#63b8ff" points="158.42,-645.41 167.78,-640.45 157.37,-638.49 158.42,-645.41"/>
</a>
</g>
</g>
<!-- Node23 -->
<g id="Node000023" class="node">
<title>Node23</title>
<g id="a_Node000023"><a xlink:href="class_device_control.html#a565622c7cb6f20ae039321ddcd629093" target="_top" xlink:title=" ">
<polygon fill="white" stroke="#666666" points="620.88,-621.88 483.38,-621.88 483.38,-591.38 620.88,-591.38 620.88,-621.88"/>
<text text-anchor="start" x="491.38" y="-608.38" font-family="Helvetica,sans-Serif" font-size="10.00">DeviceControl\getAdditional</text>
<text text-anchor="middle" x="552.12" y="-597.12" font-family="Helvetica,sans-Serif" font-size="10.00">Fields</text>
</a>
</g>
</g>
<!-- Node22&#45;&gt;Node23 -->
<g id="edge24_Node000022_Node000023" class="edge">
<title>Node22&#45;&gt;Node23</title>
<g id="a_edge24_Node000022_Node000023"><a xlink:title=" ">
<path fill="none" stroke="#63b8ff" d="M674.91,-529.5C673.23,-530.5 671.59,-531.54 670,-532.62 647.7,-547.89 656.02,-565.96 634,-581.62 628.97,-585.2 623.42,-588.28 617.64,-590.93"/>
<polygon fill="#63b8ff" stroke="#63b8ff" points="676.29,-532.73 683.55,-525.02 673.06,-526.52 676.29,-532.73"/>
</a>
</g>
</g>
<!-- Node24 -->
<g id="Node000024" class="node">
<title>Node24</title>
<g id="a_Node000024"><a xlink:href="class_device_graphic_card.html#a565622c7cb6f20ae039321ddcd629093" target="_top" xlink:title=" ">
<polygon fill="white" stroke="#666666" points="632.5,-572.88 471.75,-572.88 471.75,-542.38 632.5,-542.38 632.5,-572.88"/>
<text text-anchor="start" x="479.75" y="-559.38" font-family="Helvetica,sans-Serif" font-size="10.00">DeviceGraphicCard\getAdditional</text>
<text text-anchor="middle" x="552.12" y="-548.12" font-family="Helvetica,sans-Serif" font-size="10.00">Fields</text>
</a>
</g>
</g>
<!-- Node22&#45;&gt;Node24 -->
<g id="edge25_Node000022_Node000024" class="edge">
<title>Node22&#45;&gt;Node24</title>
<g id="a_edge25_Node000022_Node000024"><a xlink:title=" ">
<path fill="none" stroke="#63b8ff" d="M682.1,-526.95C661.39,-531.87 639.18,-537.15 619.13,-541.92"/>
<polygon fill="#63b8ff" stroke="#63b8ff" points="682.7,-530.4 691.62,-524.68 681.08,-523.59 682.7,-530.4"/>
</a>
</g>
</g>
<!-- Node25 -->
<g id="Node000025" class="node">
<title>Node25</title>
<g id="a_Node000025"><a xlink:href="class_device_network_card.html#a565622c7cb6f20ae039321ddcd629093" target="_top" xlink:title=" ">
<polygon fill="white" stroke="#666666" points="634,-523.88 470.25,-523.88 470.25,-493.38 634,-493.38 634,-523.88"/>
<text text-anchor="start" x="478.25" y="-510.38" font-family="Helvetica,sans-Serif" font-size="10.00">DeviceNetworkCard\getAdditional</text>
<text text-anchor="middle" x="552.12" y="-499.12" font-family="Helvetica,sans-Serif" font-size="10.00">Fields</text>
</a>
</g>
</g>
<!-- Node22&#45;&gt;Node25 -->
<g id="edge26_Node000022_Node000025" class="edge">
<title>Node22&#45;&gt;Node25</title>
<g id="a_edge26_Node000022_Node000025"><a xlink:title=" ">
<path fill="none" stroke="#63b8ff" d="M669.2,-508.62C657.64,-508.62 645.86,-508.62 634.45,-508.62"/>
<polygon fill="#63b8ff" stroke="#63b8ff" points="669.14,-512.13 679.14,-508.63 669.14,-505.13 669.14,-512.13"/>
</a>
</g>
</g>
<!-- Node26 -->
<g id="Node000026" class="node">
<title>Node26</title>
<g id="a_Node000026"><a xlink:href="class_device_pci.html#a565622c7cb6f20ae039321ddcd629093" target="_top" xlink:title=" ">
<polygon fill="white" stroke="#666666" points="625.38,-475.25 478.88,-475.25 478.88,-456 625.38,-456 625.38,-475.25"/>
<text text-anchor="middle" x="552.12" y="-461.75" font-family="Helvetica,sans-Serif" font-size="10.00">DevicePci\getAdditionalFields</text>
</a>
</g>
</g>
<!-- Node22&#45;&gt;Node26 -->
<g id="edge27_Node000022_Node000026" class="edge">
<title>Node22&#45;&gt;Node26</title>
<g id="a_edge27_Node000022_Node000026"><a xlink:title=" ">
<path fill="none" stroke="#63b8ff" d="M672.8,-490.61C648.46,-485.53 622.84,-480.18 601.58,-475.74"/>
<polygon fill="#63b8ff" stroke="#63b8ff" points="671.89,-493.99 682.4,-492.61 673.32,-487.14 671.89,-493.99"/>
</a>
</g>
</g>
<!-- Node27 -->
<g id="Node000027" class="node">
<title>Node27</title>
<g id="a_Node000027"><a xlink:href="class_device_sound_card.html#a565622c7cb6f20ae039321ddcd629093" target="_top" xlink:title=" ">
<polygon fill="white" stroke="#666666" points="629.5,-437.88 474.75,-437.88 474.75,-407.38 629.5,-407.38 629.5,-437.88"/>
<text text-anchor="start" x="482.75" y="-424.38" font-family="Helvetica,sans-Serif" font-size="10.00">DeviceSoundCard\getAdditional</text>
<text text-anchor="middle" x="552.12" y="-413.12" font-family="Helvetica,sans-Serif" font-size="10.00">Fields</text>
</a>
</g>
</g>
<!-- Node22&#45;&gt;Node27 -->
<g id="edge28_Node000022_Node000027" class="edge">
<title>Node22&#45;&gt;Node27</title>
<g id="a_edge28_Node000022_Node000027"><a xlink:title=" ">
<path fill="none" stroke="#63b8ff" d="M676.74,-488.32C674.43,-487.16 672.18,-485.93 670,-484.62 650.02,-472.71 653.83,-458.79 634,-446.62 628.88,-443.48 623.33,-440.73 617.61,-438.33"/>
<polygon fill="#63b8ff" stroke="#63b8ff" points="675.21,-491.47 685.77,-492.4 678.1,-485.09 675.21,-491.47"/>
</a>
</g>
</g>
<!-- Node28 -->
<g id="Node000028" class="node">
<title>Node28</title>
<g id="a_Node000028"><a xlink:href="class_manufacturer.html#a565622c7cb6f20ae039321ddcd629093" target="_top" xlink:title=" ">
<polygon fill="white" stroke="#666666" points="618.25,-388.88 486,-388.88 486,-358.38 618.25,-358.38 618.25,-388.88"/>
<text text-anchor="start" x="494" y="-375.38" font-family="Helvetica,sans-Serif" font-size="10.00">Manufacturer\getAdditional</text>
<text text-anchor="middle" x="552.12" y="-364.12" font-family="Helvetica,sans-Serif" font-size="10.00">Fields</text>
</a>
</g>
</g>
<!-- Node22&#45;&gt;Node28 -->
<g id="edge29_Node000022_Node000028" class="edge">
<title>Node22&#45;&gt;Node28</title>
<g id="a_edge29_Node000022_Node000028"><a xlink:title=" ">
<path fill="none" stroke="#63b8ff" d="M672.43,-486.64C671.6,-485.99 670.79,-485.32 670,-484.62 638.81,-457.34 664.68,-426.48 634,-398.62 629.43,-394.48 624.18,-391.02 618.6,-388.13"/>
<polygon fill="#63b8ff" stroke="#63b8ff" points="670.33,-489.45 680.59,-492.1 674.22,-483.63 670.33,-489.45"/>
</a>
</g>
</g>
<!-- Node31 -->
<g id="Node000031" class="node">
<title>Node31</title>
<g id="a_Node000031"><a xlink:href="class_cartridge.html#af466512746a6caca8ee1556ed63fa2f3" target="_top" xlink:title=" ">
<polygon fill="white" stroke="#666666" points="622,-339.88 482.25,-339.88 482.25,-309.38 622,-309.38 622,-339.88"/>
<text text-anchor="start" x="490.25" y="-326.38" font-family="Helvetica,sans-Serif" font-size="10.00">Cartridge\displayTabContent</text>
<text text-anchor="middle" x="552.12" y="-315.12" font-family="Helvetica,sans-Serif" font-size="10.00">ForItem</text>
</a>
</g>
</g>
<!-- Node30&#45;&gt;Node31 -->
<g id="edge32_Node000030_Node000031" class="edge">
<title>Node30&#45;&gt;Node31</title>
<g id="a_edge32_Node000030_Node000031"><a xlink:title=" ">
<path fill="none" stroke="#63b8ff" d="M688.62,-420.32C682,-417.82 675.66,-414.65 670,-410.62 644.35,-392.37 658.7,-369.14 634,-349.62 629.39,-345.98 624.24,-342.86 618.84,-340.2"/>
<polygon fill="#63b8ff" stroke="#63b8ff" points="687.18,-423.53 697.77,-423.24 689.31,-416.86 687.18,-423.53"/>
</a>
</g>
</g>
</g>
</svg>
