<?xml version="1.0" encoding="UTF-8" standalone="no"?>
<!DOCTYPE svg PUBLIC "-//W3C//DTD SVG 1.1//EN"
 "http://www.w3.org/Graphics/SVG/1.1/DTD/svg11.dtd">
<!-- Generated by graphviz version 10.0.1 (20240210.2158)
 -->
<!-- Title: StarPolygon Pages: 1 -->
<svg width="1728pt" height="430pt"
 viewBox="0.00 0.00 1728.00 430.31" xmlns="http://www.w3.org/2000/svg" xmlns:xlink="http://www.w3.org/1999/xlink">
<g id="graph0" class="graph" transform="scale(1 1) rotate(0) translate(4 426.31)">
<title>StarPolygon</title>
<!-- Node1 -->
<g id="Node000001" class="node">
<title>Node1</title>
<g id="a_Node000001"><a xlink:title=" ">
<polygon fill="#999999" stroke="#666666" points="69.25,-219.25 0,-219.25 0,-200 69.25,-200 69.25,-219.25"/>
<text text-anchor="middle" x="34.62" y="-205.75" font-family="Helvetica,sans-Serif" font-size="10.00">StarPolygon</text>
</a>
</g>
</g>
<!-- Node2 -->
<g id="Node000002" class="node">
<title>Node2</title>
<g id="a_Node000002"><a xlink:href="class_t_c_p_d_f.html#a29f78edbfd2dfd19e9d6d0b6d329807c" target="_top" xlink:title=" ">
<polygon fill="white" stroke="#666666" points="146.75,-259.25 105.25,-259.25 105.25,-240 146.75,-240 146.75,-259.25"/>
<text text-anchor="middle" x="126" y="-245.75" font-family="Helvetica,sans-Serif" font-size="10.00">Circle</text>
</a>
</g>
</g>
<!-- Node1&#45;&gt;Node2 -->
<g id="edge1_Node000001_Node000002" class="edge">
<title>Node1&#45;&gt;Node2</title>
<g id="a_edge1_Node000001_Node000002"><a xlink:title=" ">
<path fill="none" stroke="#63b8ff" d="M58.18,-219.72C69.18,-224.64 82.59,-230.64 94.49,-235.97"/>
<polygon fill="#63b8ff" stroke="#63b8ff" points="92.95,-239.12 103.51,-240.01 95.81,-232.73 92.95,-239.12"/>
</a>
</g>
</g>
<!-- Node27 -->
<g id="Node000027" class="node">
<title>Node27</title>
<g id="a_Node000027"><a xlink:href="class_t_c_p_d_f.html#a59e12f0c88c36f82ea52672aaddf6283" target="_top" xlink:title=" ">
<polygon fill="white" stroke="#666666" points="234,-189.25 182.75,-189.25 182.75,-170 234,-170 234,-189.25"/>
<text text-anchor="middle" x="208.38" y="-175.75" font-family="Helvetica,sans-Serif" font-size="10.00">Polygon</text>
</a>
</g>
</g>
<!-- Node1&#45;&gt;Node27 -->
<g id="edge34_Node000001_Node000027" class="edge">
<title>Node1&#45;&gt;Node27</title>
<g id="a_edge34_Node000001_Node000027"><a xlink:title=" ">
<path fill="none" stroke="#63b8ff" d="M69.56,-203.7C98.9,-198.57 141.2,-191.18 171.19,-185.95"/>
<polygon fill="#63b8ff" stroke="#63b8ff" points="171.68,-189.41 180.93,-184.24 170.47,-182.52 171.68,-189.41"/>
</a>
</g>
</g>
<!-- Node3 -->
<g id="Node000003" class="node">
<title>Node3</title>
<g id="a_Node000003"><a xlink:href="class_t_c_p_d_f.html#aef64473c123bb4caa316e4deb584e3f5" target="_top" xlink:title=" ">
<polygon fill="white" stroke="#666666" points="231,-270.25 185.75,-270.25 185.75,-251 231,-251 231,-270.25"/>
<text text-anchor="middle" x="208.38" y="-256.75" font-family="Helvetica,sans-Serif" font-size="10.00">Ellipse</text>
</a>
</g>
</g>
<!-- Node2&#45;&gt;Node3 -->
<g id="edge2_Node000002_Node000003" class="edge">
<title>Node2&#45;&gt;Node3</title>
<g id="a_edge2_Node000002_Node000003"><a xlink:title=" ">
<path fill="none" stroke="#63b8ff" d="M146.87,-252.34C155.1,-253.47 164.89,-254.81 174.16,-256.08"/>
<polygon fill="#63b8ff" stroke="#63b8ff" points="173.59,-259.53 183.98,-257.42 174.54,-252.6 173.59,-259.53"/>
</a>
</g>
</g>
<!-- Node4 -->
<g id="Node000004" class="node">
<title>Node4</title>
<g id="a_Node000004"><a xlink:href="class_t_c_p_d_f.html#a01627a8b7ad5c79ee736572b3d2ef3f5" target="_top" xlink:title=" ">
<polygon fill="white" stroke="#666666" points="1000.12,-208.25 965.38,-208.25 965.38,-189 1000.12,-189 1000.12,-208.25"/>
<text text-anchor="middle" x="982.75" y="-194.75" font-family="Helvetica,sans-Serif" font-size="10.00">_out</text>
</a>
</g>
</g>
<!-- Node3&#45;&gt;Node4 -->
<g id="edge3_Node000003_Node000004" class="edge">
<title>Node3&#45;&gt;Node4</title>
<g id="a_edge3_Node000003_Node000004"><a xlink:title=" ">
<path fill="none" stroke="#63b8ff" d="M210.67,-270.5C214.51,-295.39 228.31,-360.72 270,-389.62 355.79,-449.11 399.73,-408.62 504.12,-408.62 504.12,-408.62 504.12,-408.62 730.12,-408.62 848.32,-408.62 940.37,-270.36 970.89,-218.21"/>
<polygon fill="#63b8ff" stroke="#63b8ff" points="973.78,-220.21 975.7,-209.79 967.7,-216.73 973.78,-220.21"/>
</a>
</g>
</g>
<!-- Node8 -->
<g id="Node000008" class="node">
<title>Node8</title>
<g id="a_Node000008"><a xlink:href="class_t_c_p_d_f.html#a7a4827e6bac10aa0e948aabaf1b18399" target="_top" xlink:title=" ">
<polygon fill="white" stroke="#666666" points="386.5,-380.25 303,-380.25 303,-361 386.5,-361 386.5,-380.25"/>
<text text-anchor="middle" x="344.75" y="-366.75" font-family="Helvetica,sans-Serif" font-size="10.00">_outellipticalarc</text>
</a>
</g>
</g>
<!-- Node3&#45;&gt;Node8 -->
<g id="edge7_Node000003_Node000008" class="edge">
<title>Node3&#45;&gt;Node8</title>
<g id="a_edge7_Node000003_Node000008"><a xlink:title=" ">
<path fill="none" stroke="#63b8ff" d="M213.16,-270.59C220.84,-289.46 240.13,-330.41 270,-351.62 276.52,-356.26 284.08,-359.76 291.82,-362.41"/>
<polygon fill="#63b8ff" stroke="#63b8ff" points="290.76,-365.75 301.34,-365.19 292.72,-359.03 290.76,-365.75"/>
</a>
</g>
</g>
<!-- Node12 -->
<g id="Node000012" class="node">
<title>Node12</title>
<g id="a_Node000012"><a xlink:href="class_t_c_p_d_f___s_t_a_t_i_c.html#a5e311abad71449e634216a5d897a65b6" target="_top" xlink:title=" ">
<polygon fill="white" stroke="#666666" points="404.88,-342.88 284.62,-342.88 284.62,-312.38 404.88,-312.38 404.88,-342.88"/>
<text text-anchor="start" x="292.62" y="-329.38" font-family="Helvetica,sans-Serif" font-size="10.00">TCPDF_STATIC\empty</text>
<text text-anchor="middle" x="344.75" y="-318.12" font-family="Helvetica,sans-Serif" font-size="10.00">_string</text>
</a>
</g>
</g>
<!-- Node3&#45;&gt;Node12 -->
<g id="edge14_Node000003_Node000012" class="edge">
<title>Node3&#45;&gt;Node12</title>
<g id="a_edge14_Node000003_Node000012"><a xlink:title=" ">
<path fill="none" stroke="#63b8ff" d="M221.73,-270.73C233.55,-280.01 252.16,-293.64 270,-302.62 273.49,-304.38 277.13,-306.06 280.84,-307.65"/>
<polygon fill="#63b8ff" stroke="#63b8ff" points="279.44,-310.86 290.02,-311.36 282.06,-304.37 279.44,-310.86"/>
</a>
</g>
</g>
<!-- Node13 -->
<g id="Node000013" class="node">
<title>Node13</title>
<g id="a_Node000013"><a xlink:href="class_t_c_p_d_f___s_t_a_t_i_c.html#a5ebc9848da9ebbae76c9b19609b3f04c" target="_top" xlink:title=" ">
<polygon fill="white" stroke="#666666" points="419.5,-275.88 270,-275.88 270,-245.38 419.5,-245.38 419.5,-275.88"/>
<text text-anchor="start" x="278" y="-262.38" font-family="Helvetica,sans-Serif" font-size="10.00">TCPDF_STATIC\getPathPaint</text>
<text text-anchor="middle" x="344.75" y="-251.12" font-family="Helvetica,sans-Serif" font-size="10.00">Operator</text>
</a>
</g>
</g>
<!-- Node3&#45;&gt;Node13 -->
<g id="edge15_Node000003_Node000013" class="edge">
<title>Node3&#45;&gt;Node13</title>
<g id="a_edge15_Node000003_Node000013"><a xlink:title=" ">
<path fill="none" stroke="#63b8ff" d="M231.26,-260.62C239.04,-260.62 248.34,-260.62 258.21,-260.62"/>
<polygon fill="#63b8ff" stroke="#63b8ff" points="258.04,-264.13 268.04,-260.63 258.04,-257.13 258.04,-264.13"/>
</a>
</g>
</g>
<!-- Node14 -->
<g id="Node000014" class="node">
<title>Node14</title>
<g id="a_Node000014"><a xlink:href="class_t_c_p_d_f.html#aa6dde96cf573babe5f3dc89c781805e2" target="_top" xlink:title=" ">
<polygon fill="white" stroke="#666666" points="389.12,-227.25 300.38,-227.25 300.38,-208 389.12,-208 389.12,-227.25"/>
<text text-anchor="middle" x="344.75" y="-213.75" font-family="Helvetica,sans-Serif" font-size="10.00">setFillColorArray</text>
</a>
</g>
</g>
<!-- Node3&#45;&gt;Node14 -->
<g id="edge17_Node000003_Node000014" class="edge">
<title>Node3&#45;&gt;Node14</title>
<g id="a_edge17_Node000003_Node000014"><a xlink:title=" ">
<path fill="none" stroke="#63b8ff" d="M231.31,-251.18C242.72,-246.46 256.97,-240.86 270,-236.62 276.52,-234.5 283.42,-232.46 290.29,-230.56"/>
<polygon fill="#63b8ff" stroke="#63b8ff" points="290.77,-234.05 299.52,-228.07 288.95,-227.29 290.77,-234.05"/>
</a>
</g>
</g>
<!-- Node25 -->
<g id="Node000025" class="node">
<title>Node25</title>
<g id="a_Node000025"><a xlink:href="class_t_c_p_d_f.html#a20cb8b610261902e45c0c13aec203902" target="_top" xlink:title=" ">
<polygon fill="white" stroke="#666666" points="379.75,-113.25 309.75,-113.25 309.75,-94 379.75,-94 379.75,-113.25"/>
<text text-anchor="middle" x="344.75" y="-99.75" font-family="Helvetica,sans-Serif" font-size="10.00">setLineStyle</text>
</a>
</g>
</g>
<!-- Node3&#45;&gt;Node25 -->
<g id="edge30_Node000003_Node000025" class="edge">
<title>Node3&#45;&gt;Node25</title>
<g id="a_edge30_Node000003_Node000025"><a xlink:title=" ">
<path fill="none" stroke="#63b8ff" d="M217.78,-250.8C239.84,-225.03 299.64,-155.16 328.18,-121.81"/>
<polygon fill="#63b8ff" stroke="#63b8ff" points="330.52,-124.47 334.36,-114.59 325.2,-119.91 330.52,-124.47"/>
</a>
</g>
</g>
<!-- Node5 -->
<g id="Node000005" class="node">
<title>Node5</title>
<g id="a_Node000005"><a xlink:href="class_t_c_p_d_f.html#a2f0c138e82371b95c3899451a330da05" target="_top" xlink:title=" ">
<polygon fill="white" stroke="#666666" points="1175.5,-171.25 1097.25,-171.25 1097.25,-152 1175.5,-152 1175.5,-171.25"/>
<text text-anchor="middle" x="1136.38" y="-157.75" font-family="Helvetica,sans-Serif" font-size="10.00">getPageBuffer</text>
</a>
</g>
</g>
<!-- Node4&#45;&gt;Node5 -->
<g id="edge4_Node000004_Node000005" class="edge">
<title>Node4&#45;&gt;Node5</title>
<g id="a_edge4_Node000004_Node000005"><a xlink:title=" ">
<path fill="none" stroke="#63b8ff" d="M1000.56,-194.52C1021,-189.54 1056.42,-180.89 1085.83,-173.72"/>
<polygon fill="#63b8ff" stroke="#63b8ff" points="1086.4,-177.18 1095.29,-171.41 1084.74,-170.38 1086.4,-177.18"/>
</a>
</g>
</g>
<!-- Node6 -->
<g id="Node000006" class="node">
<title>Node6</title>
<g id="a_Node000006"><a xlink:href="class_t_c_p_d_f.html#ac43455b74ede7e3f1d7558feb764eb6f" target="_top" xlink:title=" ">
<polygon fill="white" stroke="#666666" points="1164.25,-245.25 1108.5,-245.25 1108.5,-226 1164.25,-226 1164.25,-245.25"/>
<text text-anchor="middle" x="1136.38" y="-231.75" font-family="Helvetica,sans-Serif" font-size="10.00">setBuffer</text>
</a>
</g>
</g>
<!-- Node4&#45;&gt;Node6 -->
<g id="edge5_Node000004_Node000006" class="edge">
<title>Node4&#45;&gt;Node6</title>
<g id="a_edge5_Node000004_Node000006"><a xlink:title=" ">
<path fill="none" stroke="#63b8ff" d="M1000.56,-202.73C1023.77,-208.39 1066.29,-218.77 1097.39,-226.36"/>
<polygon fill="#63b8ff" stroke="#63b8ff" points="1096.26,-229.68 1106.81,-228.65 1097.92,-222.88 1096.26,-229.68"/>
</a>
</g>
</g>
<!-- Node7 -->
<g id="Node000007" class="node">
<title>Node7</title>
<g id="a_Node000007"><a xlink:href="class_t_c_p_d_f.html#af4d8e4aed525c0bded587be897297a7f" target="_top" xlink:title=" ">
<polygon fill="white" stroke="#666666" points="1175.5,-208.25 1097.25,-208.25 1097.25,-189 1175.5,-189 1175.5,-208.25"/>
<text text-anchor="middle" x="1136.38" y="-194.75" font-family="Helvetica,sans-Serif" font-size="10.00">setPageBuffer</text>
</a>
</g>
</g>
<!-- Node4&#45;&gt;Node7 -->
<g id="edge6_Node000004_Node000007" class="edge">
<title>Node4&#45;&gt;Node7</title>
<g id="a_edge6_Node000004_Node000007"><a xlink:title=" ">
<path fill="none" stroke="#63b8ff" d="M1000.56,-198.62C1020.91,-198.62 1056.11,-198.62 1085.44,-198.62"/>
<polygon fill="#63b8ff" stroke="#63b8ff" points="1085.25,-202.13 1095.25,-198.63 1085.25,-195.13 1085.25,-202.13"/>
</a>
</g>
</g>
<!-- Node9 -->
<g id="Node000009" class="node">
<title>Node9</title>
<g id="a_Node000009"><a xlink:href="class_t_c_p_d_f.html#a0d30dca877cd48361c5ceca48dfb43ed" target="_top" xlink:title=" ">
<polygon fill="white" stroke="#666666" points="659.25,-332.25 598.25,-332.25 598.25,-313 659.25,-313 659.25,-332.25"/>
<text text-anchor="middle" x="628.75" y="-318.75" font-family="Helvetica,sans-Serif" font-size="10.00">_outCurve</text>
</a>
</g>
</g>
<!-- Node8&#45;&gt;Node9 -->
<g id="edge8_Node000008_Node000009" class="edge">
<title>Node8&#45;&gt;Node9</title>
<g id="a_edge8_Node000008_Node000009"><a xlink:title=" ">
<path fill="none" stroke="#63b8ff" d="M386.76,-363.65C440.27,-354.54 533.36,-338.69 586.83,-329.59"/>
<polygon fill="#63b8ff" stroke="#63b8ff" points="587.17,-333.08 596.44,-327.95 585.99,-326.18 587.17,-333.08"/>
</a>
</g>
</g>
<!-- Node10 -->
<g id="Node000010" class="node">
<title>Node10</title>
<g id="a_Node000010"><a xlink:href="class_t_c_p_d_f.html#a0a2fb8f5ad902d1e41ec4e509c9b38f7" target="_top" xlink:title=" ">
<polygon fill="white" stroke="#666666" points="531.5,-265.25 478.75,-265.25 478.75,-246 531.5,-246 531.5,-265.25"/>
<text text-anchor="middle" x="505.12" y="-251.75" font-family="Helvetica,sans-Serif" font-size="10.00">_outLine</text>
</a>
</g>
</g>
<!-- Node8&#45;&gt;Node10 -->
<g id="edge10_Node000008_Node000010" class="edge">
<title>Node8&#45;&gt;Node10</title>
<g id="a_edge10_Node000008_Node000010"><a xlink:title=" ">
<path fill="none" stroke="#63b8ff" d="M386.92,-364.58C398.04,-361.76 409.69,-357.64 419.5,-351.62 436.22,-341.37 470.13,-299.59 489.57,-274.66"/>
<polygon fill="#63b8ff" stroke="#63b8ff" points="492.2,-276.98 495.54,-266.93 486.66,-272.7 492.2,-276.98"/>
</a>
</g>
</g>
<!-- Node11 -->
<g id="Node000011" class="node">
<title>Node11</title>
<g id="a_Node000011"><a xlink:href="class_t_c_p_d_f.html#a27a257ef0251606c00a441c0fc478e2c" target="_top" xlink:title=" ">
<polygon fill="white" stroke="#666666" points="533.75,-227.25 476.5,-227.25 476.5,-208 533.75,-208 533.75,-227.25"/>
<text text-anchor="middle" x="505.12" y="-213.75" font-family="Helvetica,sans-Serif" font-size="10.00">_outPoint</text>
</a>
</g>
</g>
<!-- Node8&#45;&gt;Node11 -->
<g id="edge12_Node000008_Node000011" class="edge">
<title>Node8&#45;&gt;Node11</title>
<g id="a_edge12_Node000008_Node000011"><a xlink:title=" ">
<path fill="none" stroke="#63b8ff" d="M386.91,-367.54C398.68,-364.81 410.68,-360 419.5,-351.62 458.33,-314.74 418.96,-275.78 455.5,-236.62 458.42,-233.49 461.93,-230.87 465.69,-228.67"/>
<polygon fill="#63b8ff" stroke="#63b8ff" points="467.13,-231.86 474.7,-224.45 464.16,-225.53 467.13,-231.86"/>
</a>
</g>
</g>
<!-- Node9&#45;&gt;Node4 -->
<g id="edge9_Node000009_Node000004" class="edge">
<title>Node9&#45;&gt;Node4</title>
<g id="a_edge9_Node000009_Node000004"><a xlink:title=" ">
<path fill="none" stroke="#63b8ff" d="M659.73,-319.28C705.91,-313.41 796.62,-298.97 868.25,-269.62 902.38,-255.64 937.81,-231.71 959.82,-215.54"/>
<polygon fill="#63b8ff" stroke="#63b8ff" points="961.81,-218.42 967.72,-209.63 957.61,-212.82 961.81,-218.42"/>
</a>
</g>
</g>
<!-- Node10&#45;&gt;Node4 -->
<g id="edge11_Node000010_Node000004" class="edge">
<title>Node10&#45;&gt;Node4</title>
<g id="a_edge11_Node000010_Node000004"><a xlink:title=" ">
<path fill="none" stroke="#63b8ff" d="M531.67,-253.66C590.95,-248.95 742.44,-236.11 868.25,-218.62 897.48,-214.56 930.7,-208.54 953.62,-204.17"/>
<polygon fill="#63b8ff" stroke="#63b8ff" points="954.25,-207.61 963.4,-202.28 952.92,-200.74 954.25,-207.61"/>
</a>
</g>
</g>
<!-- Node11&#45;&gt;Node4 -->
<g id="edge13_Node000011_Node000004" class="edge">
<title>Node11&#45;&gt;Node4</title>
<g id="a_edge13_Node000011_Node000004"><a xlink:title=" ">
<path fill="none" stroke="#63b8ff" d="M534.1,-216.51C618.47,-213.14 869.77,-203.1 953.93,-199.74"/>
<polygon fill="#63b8ff" stroke="#63b8ff" points="953.95,-203.24 963.8,-199.34 953.67,-196.24 953.95,-203.24"/>
</a>
</g>
</g>
<!-- Node13&#45;&gt;Node13 -->
<g id="edge16_Node000013_Node000013" class="edge">
<title>Node13&#45;&gt;Node13</title>
<g id="a_edge16_Node000013_Node000013"><a xlink:title=" ">
<path fill="none" stroke="#63b8ff" d="M320.58,-276.36C315.65,-285.43 323.71,-293.88 344.75,-293.88 356.26,-293.88 363.88,-291.35 367.62,-287.58"/>
<polygon fill="#63b8ff" stroke="#63b8ff" points="371.07,-288.2 368.74,-277.86 364.12,-287.4 371.07,-288.2"/>
</a>
</g>
</g>
<!-- Node15 -->
<g id="Node000015" class="node">
<title>Node15</title>
<g id="a_Node000015"><a xlink:href="class_t_c_p_d_f.html#a5ecacf1e3748198de63fbf25a12b30d9" target="_top" xlink:title=" ">
<polygon fill="white" stroke="#666666" points="666.75,-151.25 590.75,-151.25 590.75,-132 666.75,-132 666.75,-151.25"/>
<text text-anchor="middle" x="628.75" y="-137.75" font-family="Helvetica,sans-Serif" font-size="10.00">setColorArray</text>
</a>
</g>
</g>
<!-- Node14&#45;&gt;Node15 -->
<g id="edge18_Node000014_Node000015" class="edge">
<title>Node14&#45;&gt;Node15</title>
<g id="a_edge18_Node000014_Node000015"><a xlink:title=" ">
<path fill="none" stroke="#63b8ff" d="M383.2,-207.53C433.8,-193.9 524.05,-169.57 579.63,-154.59"/>
<polygon fill="#63b8ff" stroke="#63b8ff" points="580.39,-158.01 589.14,-152.03 578.57,-151.25 580.39,-158.01"/>
</a>
</g>
</g>
<!-- Node16 -->
<g id="Node000016" class="node">
<title>Node16</title>
<g id="a_Node000016"><a xlink:href="class_t_c_p_d_f.html#a2ea736e8bea04d12a9c0941787cac439" target="_top" xlink:title=" ">
<polygon fill="white" stroke="#666666" points="755.5,-151.25 702.75,-151.25 702.75,-132 755.5,-132 755.5,-151.25"/>
<text text-anchor="middle" x="729.12" y="-137.75" font-family="Helvetica,sans-Serif" font-size="10.00">setColor</text>
</a>
</g>
</g>
<!-- Node15&#45;&gt;Node16 -->
<g id="edge19_Node000015_Node000016" class="edge">
<title>Node15&#45;&gt;Node16</title>
<g id="a_edge19_Node000015_Node000016"><a xlink:title=" ">
<path fill="none" stroke="#63b8ff" d="M667.22,-141.62C675.01,-141.62 683.21,-141.62 690.99,-141.62"/>
<polygon fill="#63b8ff" stroke="#63b8ff" points="690.84,-145.13 700.84,-141.63 690.84,-138.13 690.84,-145.13"/>
</a>
</g>
</g>
<!-- Node16&#45;&gt;Node4 -->
<g id="edge20_Node000016_Node000004" class="edge">
<title>Node16&#45;&gt;Node4</title>
<g id="a_edge20_Node000016_Node000004"><a xlink:title=" ">
<path fill="none" stroke="#63b8ff" d="M755.94,-150.26C766.84,-153.74 779.72,-157.63 791.5,-160.62 848.8,-175.17 916.95,-187.63 954.14,-194.03"/>
<polygon fill="#63b8ff" stroke="#63b8ff" points="953.14,-197.41 963.59,-195.64 954.32,-190.51 953.14,-197.41"/>
</a>
</g>
</g>
<!-- Node17 -->
<g id="Node000017" class="node">
<title>Node17</title>
<g id="a_Node000017"><a xlink:href="class_t_c_p_d_f.html#a4137e2e5e22a8f5b50fe38d51285ac8f" target="_top" xlink:title=" ">
<polygon fill="white" stroke="#666666" points="868.25,-151.25 791.5,-151.25 791.5,-132 868.25,-132 868.25,-151.25"/>
<text text-anchor="middle" x="829.88" y="-137.75" font-family="Helvetica,sans-Serif" font-size="10.00">AddSpotColor</text>
</a>
</g>
</g>
<!-- Node16&#45;&gt;Node17 -->
<g id="edge21_Node000016_Node000017" class="edge">
<title>Node16&#45;&gt;Node17</title>
<g id="a_edge21_Node000016_Node000017"><a xlink:title=" ">
<path fill="none" stroke="#63b8ff" d="M755.81,-141.62C763.11,-141.62 771.32,-141.62 779.53,-141.62"/>
<polygon fill="#63b8ff" stroke="#63b8ff" points="779.52,-145.13 789.52,-141.63 779.52,-138.13 779.52,-145.13"/>
</a>
</g>
</g>
<!-- Node18 -->
<g id="Node000018" class="node">
<title>Node18</title>
<g id="a_Node000018"><a xlink:href="class_t_c_p_d_f.html#a301436afa22feb9fe2de781e4018b60a" target="_top" xlink:title=" ">
<polygon fill="white" stroke="#666666" points="866.38,-37.25 793.38,-37.25 793.38,-18 866.38,-18 866.38,-37.25"/>
<text text-anchor="middle" x="829.88" y="-23.75" font-family="Helvetica,sans-Serif" font-size="10.00">setSpotColor</text>
</a>
</g>
</g>
<!-- Node16&#45;&gt;Node18 -->
<g id="edge22_Node000016_Node000018" class="edge">
<title>Node16&#45;&gt;Node18</title>
<g id="a_edge22_Node000016_Node000018"><a xlink:title=" ">
<path fill="none" stroke="#63b8ff" d="M738.89,-131.51C755.47,-112.36 791.67,-70.57 812.76,-46.23"/>
<polygon fill="#63b8ff" stroke="#63b8ff" points="815.38,-48.55 819.28,-38.7 810.09,-43.97 815.38,-48.55"/>
</a>
</g>
</g>
<!-- Node18&#45;&gt;Node4 -->
<g id="edge23_Node000018_Node000004" class="edge">
<title>Node18&#45;&gt;Node4</title>
<g id="a_edge23_Node000018_Node000004"><a xlink:title=" ">
<path fill="none" stroke="#63b8ff" d="M849.26,-37.69C855.62,-41.61 862.57,-46.41 868.25,-51.62 911.64,-91.41 950.87,-149.22 969.8,-179.1"/>
<polygon fill="#63b8ff" stroke="#63b8ff" points="966.77,-180.85 975.03,-187.48 972.71,-177.14 966.77,-180.85"/>
</a>
</g>
</g>
<!-- Node19 -->
<g id="Node000019" class="node">
<title>Node19</title>
<g id="a_Node000019"><a xlink:href="class_t_c_p_d_f.html#a5afab85a7aaf19395f9a0e86cae76928" target="_top" xlink:title=" ">
<polygon fill="white" stroke="#666666" points="1001.25,-56.25 964.25,-56.25 964.25,-37 1001.25,-37 1001.25,-56.25"/>
<text text-anchor="middle" x="982.75" y="-42.75" font-family="Helvetica,sans-Serif" font-size="10.00">Error</text>
</a>
</g>
</g>
<!-- Node18&#45;&gt;Node19 -->
<g id="edge24_Node000018_Node000019" class="edge">
<title>Node18&#45;&gt;Node19</title>
<g id="a_edge24_Node000018_Node000019"><a xlink:title=" ">
<path fill="none" stroke="#63b8ff" d="M866.63,-32.13C892.99,-35.45 928.39,-39.9 952.94,-43"/>
<polygon fill="#63b8ff" stroke="#63b8ff" points="952.18,-46.43 962.53,-44.21 953.05,-39.48 952.18,-46.43"/>
</a>
</g>
</g>
<!-- Node24 -->
<g id="Node000024" class="node">
<title>Node24</title>
<g id="a_Node000024"><a xlink:href="class_t_c_p_d_f___c_o_l_o_r_s.html#a0acfb17940f35c8a197c3d8ce79a8437" target="_top" xlink:title=" ">
<polygon fill="white" stroke="#666666" points="1061.25,-19.25 904.25,-19.25 904.25,0 1061.25,0 1061.25,-19.25"/>
<text text-anchor="middle" x="982.75" y="-5.75" font-family="Helvetica,sans-Serif" font-size="10.00">TCPDF_COLORS\getSpotColor</text>
</a>
</g>
</g>
<!-- Node18&#45;&gt;Node24 -->
<g id="edge29_Node000018_Node000024" class="edge">
<title>Node18&#45;&gt;Node24</title>
<g id="a_edge29_Node000018_Node000024"><a xlink:title=" ">
<path fill="none" stroke="#63b8ff" d="M866.63,-23.36C874.68,-22.4 883.58,-21.34 892.75,-20.24"/>
<polygon fill="#63b8ff" stroke="#63b8ff" points="893.03,-23.74 902.54,-19.07 892.2,-16.78 893.03,-23.74"/>
</a>
</g>
</g>
<!-- Node20 -->
<g id="Node000020" class="node">
<title>Node20</title>
<g id="a_Node000020"><a xlink:href="class_t_c_p_d_f.html#a3f1223ef6da2a75d708d2cf17129e35a" target="_top" xlink:title=" ">
<polygon fill="white" stroke="#666666" points="1163.12,-56.25 1109.62,-56.25 1109.62,-37 1163.12,-37 1163.12,-56.25"/>
<text text-anchor="middle" x="1136.38" y="-42.75" font-family="Helvetica,sans-Serif" font-size="10.00">_destroy</text>
</a>
</g>
</g>
<!-- Node19&#45;&gt;Node20 -->
<g id="edge25_Node000019_Node000020" class="edge">
<title>Node19&#45;&gt;Node20</title>
<g id="a_edge25_Node000019_Node000020"><a xlink:title=" ">
<path fill="none" stroke="#63b8ff" d="M1001.74,-46.62C1025.39,-46.62 1067.52,-46.62 1098.17,-46.62"/>
<polygon fill="#63b8ff" stroke="#63b8ff" points="1097.78,-50.13 1107.78,-46.63 1097.78,-43.13 1097.78,-50.13"/>
</a>
</g>
</g>
<!-- Node21 -->
<g id="Node000021" class="node">
<title>Node21</title>
<g id="a_Node000021"><a xlink:href="class_t_c_p_d_f___s_t_a_t_i_c.html#a9e14c837e0fcb7de0b1b272f5b2384f7" target="_top" xlink:title=" ">
<polygon fill="white" stroke="#666666" points="1349,-56.25 1211.5,-56.25 1211.5,-37 1349,-37 1349,-56.25"/>
<text text-anchor="middle" x="1280.25" y="-42.75" font-family="Helvetica,sans-Serif" font-size="10.00">TCPDF_STATIC\file_exists</text>
</a>
</g>
</g>
<!-- Node20&#45;&gt;Node21 -->
<g id="edge26_Node000020_Node000021" class="edge">
<title>Node20&#45;&gt;Node21</title>
<g id="a_edge26_Node000020_Node000021"><a xlink:title=" ">
<path fill="none" stroke="#63b8ff" d="M1163.4,-46.62C1173.96,-46.62 1186.78,-46.62 1199.99,-46.62"/>
<polygon fill="#63b8ff" stroke="#63b8ff" points="1199.62,-50.13 1209.62,-46.63 1199.62,-43.13 1199.62,-50.13"/>
</a>
</g>
</g>
<!-- Node22 -->
<g id="Node000022" class="node">
<title>Node22</title>
<g id="a_Node000022"><a xlink:href="class_t_c_p_d_f___s_t_a_t_i_c.html#adeb9b51fef0b87a0befbdbb11e85f39b" target="_top" xlink:title=" ">
<polygon fill="white" stroke="#666666" points="1520.25,-56.25 1385,-56.25 1385,-37 1520.25,-37 1520.25,-56.25"/>
<text text-anchor="middle" x="1452.62" y="-42.75" font-family="Helvetica,sans-Serif" font-size="10.00">TCPDF_STATIC\url_exists</text>
</a>
</g>
</g>
<!-- Node21&#45;&gt;Node22 -->
<g id="edge27_Node000021_Node000022" class="edge">
<title>Node21&#45;&gt;Node22</title>
<g id="a_edge27_Node000021_Node000022"><a xlink:title=" ">
<path fill="none" stroke="#63b8ff" d="M1349.08,-46.62C1357.02,-46.62 1365.18,-46.62 1373.26,-46.62"/>
<polygon fill="#63b8ff" stroke="#63b8ff" points="1373.07,-50.13 1383.07,-46.63 1373.07,-43.13 1373.07,-50.13"/>
</a>
</g>
</g>
<!-- Node23 -->
<g id="Node000023" class="node">
<title>Node23</title>
<g id="a_Node000023"><a xlink:href="class_t_c_p_d_f___s_t_a_t_i_c.html#a79813ccb2446fdc8ec2b1a1f346a3809" target="_top" xlink:title=" ">
<polygon fill="white" stroke="#666666" points="1720,-56.25 1556.25,-56.25 1556.25,-37 1720,-37 1720,-56.25"/>
<text text-anchor="middle" x="1638.12" y="-42.75" font-family="Helvetica,sans-Serif" font-size="10.00">TCPDF_STATIC\encodeUrlQuery</text>
</a>
</g>
</g>
<!-- Node22&#45;&gt;Node23 -->
<g id="edge28_Node000022_Node000023" class="edge">
<title>Node22&#45;&gt;Node23</title>
<g id="a_edge28_Node000022_Node000023"><a xlink:title=" ">
<path fill="none" stroke="#63b8ff" d="M1520.65,-46.62C1528.45,-46.62 1536.5,-46.62 1544.56,-46.62"/>
<polygon fill="#63b8ff" stroke="#63b8ff" points="1544.42,-50.13 1554.42,-46.63 1544.42,-43.13 1544.42,-50.13"/>
</a>
</g>
</g>
<!-- Node25&#45;&gt;Node4 -->
<g id="edge31_Node000025_Node000004" class="edge">
<title>Node25&#45;&gt;Node4</title>
<g id="a_edge31_Node000025_Node000004"><a xlink:title=" ">
<path fill="none" stroke="#63b8ff" d="M380.04,-103.62C433.13,-103.62 538.4,-103.62 627.75,-103.62 627.75,-103.62 627.75,-103.62 730.12,-103.62 792.09,-103.62 810.33,-100.6 868.25,-122.62 904.55,-136.43 940.85,-163.67 962.3,-181.51"/>
<polygon fill="#63b8ff" stroke="#63b8ff" points="959.76,-183.95 969.65,-187.76 964.3,-178.62 959.76,-183.95"/>
</a>
</g>
</g>
<!-- Node26 -->
<g id="Node000026" class="node">
<title>Node26</title>
<g id="a_Node000026"><a xlink:href="class_t_c_p_d_f.html#a14af863ae6e075cbfa79ffa18d6a733d" target="_top" xlink:title=" ">
<polygon fill="white" stroke="#666666" points="554.75,-151.25 455.5,-151.25 455.5,-132 554.75,-132 554.75,-151.25"/>
<text text-anchor="middle" x="505.12" y="-137.75" font-family="Helvetica,sans-Serif" font-size="10.00">setDrawColorArray</text>
</a>
</g>
</g>
<!-- Node25&#45;&gt;Node26 -->
<g id="edge32_Node000025_Node000026" class="edge">
<title>Node25&#45;&gt;Node26</title>
<g id="a_edge32_Node000025_Node000026"><a xlink:title=" ">
<path fill="none" stroke="#63b8ff" d="M380.12,-111.87C400.76,-116.82 427.45,-123.23 450.79,-128.83"/>
<polygon fill="#63b8ff" stroke="#63b8ff" points="449.92,-132.22 460.46,-131.15 451.55,-125.41 449.92,-132.22"/>
</a>
</g>
</g>
<!-- Node26&#45;&gt;Node15 -->
<g id="edge33_Node000026_Node000015" class="edge">
<title>Node26&#45;&gt;Node15</title>
<g id="a_edge33_Node000026_Node000015"><a xlink:title=" ">
<path fill="none" stroke="#63b8ff" d="M555.24,-141.62C563.13,-141.62 571.29,-141.62 579.16,-141.62"/>
<polygon fill="#63b8ff" stroke="#63b8ff" points="578.91,-145.13 588.91,-141.63 578.91,-138.13 578.91,-145.13"/>
</a>
</g>
</g>
<!-- Node27&#45;&gt;Node4 -->
<g id="edge35_Node000027_Node000004" class="edge">
<title>Node27&#45;&gt;Node4</title>
<g id="a_edge35_Node000027_Node000004"><a xlink:title=" ">
<path fill="none" stroke="#63b8ff" d="M212.39,-169.67C219.06,-149.58 237.15,-104.4 270,-84.62 359.44,-30.78 399.73,-65.62 504.12,-65.62 504.12,-65.62 504.12,-65.62 730.12,-65.62 793.45,-65.62 812.08,-71.37 868.25,-100.62 907.65,-121.15 944.95,-157.85 965.44,-180.04"/>
<polygon fill="#63b8ff" stroke="#63b8ff" points="962.84,-182.38 972.14,-187.46 968.03,-177.69 962.84,-182.38"/>
</a>
</g>
</g>
<!-- Node27&#45;&gt;Node10 -->
<g id="edge36_Node000027_Node000010" class="edge">
<title>Node27&#45;&gt;Node10</title>
<g id="a_edge36_Node000027_Node000010"><a xlink:title=" ">
<path fill="none" stroke="#63b8ff" d="M234.49,-176.41C275.5,-172.33 358.36,-168.99 419.5,-198.62 440.44,-208.77 436.2,-223.63 455.5,-236.62 459.39,-239.24 463.7,-241.58 468.09,-243.64"/>
<polygon fill="#63b8ff" stroke="#63b8ff" points="466.37,-246.72 476.95,-247.37 469.09,-240.27 466.37,-246.72"/>
</a>
</g>
</g>
<!-- Node27&#45;&gt;Node11 -->
<g id="edge37_Node000027_Node000011" class="edge">
<title>Node27&#45;&gt;Node11</title>
<g id="a_edge37_Node000027_Node000011"><a xlink:title=" ">
<path fill="none" stroke="#63b8ff" d="M234.2,-172.66C274.1,-162.65 354.59,-147.28 419.5,-165.62 443.64,-172.45 467.66,-188.3 483.91,-200.73"/>
<polygon fill="#63b8ff" stroke="#63b8ff" points="481.33,-203.14 491.34,-206.61 485.68,-197.66 481.33,-203.14"/>
</a>
</g>
</g>
<!-- Node27&#45;&gt;Node13 -->
<g id="edge38_Node000027_Node000013" class="edge">
<title>Node27&#45;&gt;Node13</title>
<g id="a_edge38_Node000027_Node000013"><a xlink:title=" ">
<path fill="none" stroke="#63b8ff" d="M217.39,-189.48C228.14,-202.09 248.37,-223.82 270,-236.62 272.04,-237.83 274.14,-238.98 276.29,-240.09"/>
<polygon fill="#63b8ff" stroke="#63b8ff" points="274.74,-243.22 285.29,-244.25 277.68,-236.87 274.74,-243.22"/>
</a>
</g>
</g>
<!-- Node27&#45;&gt;Node14 -->
<g id="edge39_Node000027_Node000014" class="edge">
<title>Node27&#45;&gt;Node14</title>
<g id="a_edge39_Node000027_Node000014"><a xlink:title=" ">
<path fill="none" stroke="#63b8ff" d="M234.33,-186.68C251.9,-191.65 275.94,-198.45 297.01,-204.41"/>
<polygon fill="#63b8ff" stroke="#63b8ff" points="296,-207.76 306.57,-207.11 297.9,-201.02 296,-207.76"/>
</a>
</g>
</g>
<!-- Node27&#45;&gt;Node25 -->
<g id="edge40_Node000027_Node000025" class="edge">
<title>Node27&#45;&gt;Node25</title>
<g id="a_edge40_Node000027_Node000025"><a xlink:title=" ">
<path fill="none" stroke="#63b8ff" d="M218.35,-169.87C229.46,-158.31 249.45,-139.17 270,-127.62 278.87,-122.64 288.93,-118.51 298.7,-115.16"/>
<polygon fill="#63b8ff" stroke="#63b8ff" points="299.63,-118.54 308.1,-112.17 297.51,-111.87 299.63,-118.54"/>
</a>
</g>
</g>
</g>
</svg>
