<?xml version="1.0" encoding="UTF-8" standalone="no"?>
<!DOCTYPE svg PUBLIC "-//W3C//DTD SVG 1.1//EN"
 "http://www.w3.org/Graphics/SVG/1.1/DTD/svg11.dtd">
<!-- Generated by graphviz version 10.0.1 (20240210.2158)
 -->
<!-- Title: parse_url Pages: 1 -->
<svg width="815pt" height="195pt"
 viewBox="0.00 0.00 815.00 195.14" xmlns="http://www.w3.org/2000/svg" xmlns:xlink="http://www.w3.org/1999/xlink">
<g id="graph0" class="graph" transform="scale(1 1) rotate(0) translate(4 191.14)">
<title>parse_url</title>
<!-- Node1 -->
<g id="Node000001" class="node">
<title>Node1</title>
<g id="a_Node000001"><a xlink:title=" ">
<polygon fill="#999999" stroke="#666666" points="807,-94.88 751.25,-94.88 751.25,-75.62 807,-75.62 807,-94.88"/>
<text text-anchor="middle" x="779.12" y="-81.38" font-family="Helvetica,sans-Serif" font-size="10.00">parse_url</text>
</a>
</g>
</g>
<!-- Node2 -->
<g id="Node000002" class="node">
<title>Node2</title>
<g id="a_Node000002"><a xlink:href="class_simple_pie___enclosure.html#a7c8e145725e8536928ea52de8cb0d9ba" target="_top" xlink:title=" ">
<polygon fill="white" stroke="#666666" points="254,-152.5 145,-152.5 145,-122 254,-122 254,-152.5"/>
<text text-anchor="start" x="153" y="-139" font-family="Helvetica,sans-Serif" font-size="10.00">SimplePie_Enclosure</text>
<text text-anchor="middle" x="199.5" y="-127.75" font-family="Helvetica,sans-Serif" font-size="10.00">\__construct</text>
</a>
</g>
</g>
<!-- Node1&#45;&gt;Node2 -->
<g id="edge1_Node000001_Node000002" class="edge">
<title>Node1&#45;&gt;Node2</title>
<g id="a_edge1_Node000001_Node000002"><a xlink:title=" ">
<path fill="none" stroke="#63b8ff" d="M765.89,-104.69C754.82,-120.29 736.95,-141.05 715.25,-150.25 558.87,-216.55 351.07,-177.28 254.32,-152.62"/>
<polygon fill="#63b8ff" stroke="#63b8ff" points="768.64,-106.87 771.31,-96.61 762.83,-102.96 768.64,-106.87"/>
</a>
</g>
</g>
<!-- Node3 -->
<g id="Node000003" class="node">
<title>Node3</title>
<g id="a_Node000003"><a xlink:href="class_simple_pie___file.html#a40a1b523d7e8590fe078850dff9ba393" target="_top" xlink:title=" ">
<polygon fill="white" stroke="#666666" points="715.25,-122.88 580,-122.88 580,-103.62 715.25,-103.62 715.25,-122.88"/>
<text text-anchor="middle" x="647.62" y="-109.38" font-family="Helvetica,sans-Serif" font-size="10.00">SimplePie_File\__construct</text>
</a>
</g>
</g>
<!-- Node1&#45;&gt;Node3 -->
<g id="edge2_Node000001_Node000003" class="edge">
<title>Node1&#45;&gt;Node3</title>
<g id="a_edge2_Node000001_Node000003"><a xlink:title=" ">
<path fill="none" stroke="#63b8ff" d="M739.81,-93.53C725.87,-96.55 709.96,-99.99 695.38,-103.14"/>
<polygon fill="#63b8ff" stroke="#63b8ff" points="740.46,-96.97 749.5,-91.44 738.98,-90.13 740.46,-96.97"/>
</a>
</g>
</g>
<!-- Node4 -->
<g id="Node000004" class="node">
<title>Node4</title>
<g id="a_Node000004"><a xlink:href="class_simple_pie___misc.html#a34d0c9a873bd2799cb8fd9144932583d" target="_top" xlink:title=" ">
<polygon fill="white" stroke="#666666" points="680.75,-67.88 614.5,-67.88 614.5,-48.62 680.75,-48.62 680.75,-67.88"/>
<text text-anchor="middle" x="647.62" y="-54.38" font-family="Helvetica,sans-Serif" font-size="10.00">fix_protocol</text>
</a>
</g>
</g>
<!-- Node1&#45;&gt;Node4 -->
<g id="edge4_Node000001_Node000004" class="edge">
<title>Node1&#45;&gt;Node4</title>
<g id="a_edge4_Node000001_Node000004"><a xlink:title=" ">
<path fill="none" stroke="#63b8ff" d="M739.9,-77.28C721.26,-73.39 699.07,-68.77 681.24,-65.05"/>
<polygon fill="#63b8ff" stroke="#63b8ff" points="738.99,-80.67 749.5,-79.28 740.42,-73.81 738.99,-80.67"/>
</a>
</g>
</g>
<!-- Node5 -->
<g id="Node000005" class="node">
<title>Node5</title>
<g id="a_Node000005"><a xlink:href="class_simple_pie___enclosure.html#ae67b00c071f7c4bbed5a4229709e96b1" target="_top" xlink:title=" ">
<polygon fill="white" stroke="#666666" points="702.12,-30.5 593.12,-30.5 593.12,0 702.12,0 702.12,-30.5"/>
<text text-anchor="start" x="601.12" y="-17" font-family="Helvetica,sans-Serif" font-size="10.00">SimplePie_Enclosure</text>
<text text-anchor="middle" x="647.62" y="-5.75" font-family="Helvetica,sans-Serif" font-size="10.00">\get_extension</text>
</a>
</g>
</g>
<!-- Node1&#45;&gt;Node5 -->
<g id="edge6_Node000001_Node000005" class="edge">
<title>Node1&#45;&gt;Node5</title>
<g id="a_edge6_Node000001_Node000005"><a xlink:title=" ">
<path fill="none" stroke="#63b8ff" d="M758.1,-68.31C746.21,-58.85 730.52,-47.37 715.25,-39.25 709.61,-36.25 703.5,-33.48 697.37,-30.96"/>
<polygon fill="#63b8ff" stroke="#63b8ff" points="755.61,-70.79 765.57,-74.4 760.04,-65.37 755.61,-70.79"/>
</a>
</g>
</g>
<!-- Node3&#45;&gt;Node3 -->
<g id="edge3_Node000003_Node000003" class="edge">
<title>Node3&#45;&gt;Node3</title>
<g id="a_edge3_Node000003_Node000003"><a xlink:title=" ">
<path fill="none" stroke="#63b8ff" d="M670.97,-134.28C668.05,-138.15 660.27,-140.88 647.62,-140.88 624.51,-140.88 617.65,-131.77 627.04,-123.16"/>
<polygon fill="#63b8ff" stroke="#63b8ff" points="674.38,-133.5 668.58,-124.63 667.58,-135.18 674.38,-133.5"/>
</a>
</g>
</g>
<!-- Node4&#45;&gt;Node4 -->
<g id="edge5_Node000004_Node000004" class="edge">
<title>Node4&#45;&gt;Node4</title>
<g id="a_edge5_Node000004_Node000004"><a xlink:title=" ">
<path fill="none" stroke="#63b8ff" d="M670.97,-79.28C668.05,-83.15 660.27,-85.88 647.62,-85.88 624.51,-85.88 617.65,-76.77 627.04,-68.16"/>
<polygon fill="#63b8ff" stroke="#63b8ff" points="674.38,-78.5 668.58,-69.63 667.58,-80.18 674.38,-78.5"/>
</a>
</g>
</g>
<!-- Node6 -->
<g id="Node000006" class="node">
<title>Node6</title>
<g id="a_Node000006"><a xlink:href="class_simple_pie___enclosure.html#acb1c6c5b7e7bb03e4fdc24085c15509a" target="_top" xlink:title=" ">
<polygon fill="white" stroke="#666666" points="254,-71.5 145,-71.5 145,-41 254,-41 254,-71.5"/>
<text text-anchor="start" x="153" y="-58" font-family="Helvetica,sans-Serif" font-size="10.00">SimplePie_Enclosure</text>
<text text-anchor="middle" x="199.5" y="-46.75" font-family="Helvetica,sans-Serif" font-size="10.00">\embed</text>
</a>
</g>
</g>
<!-- Node5&#45;&gt;Node6 -->
<g id="edge7_Node000005_Node000006" class="edge">
<title>Node5&#45;&gt;Node6</title>
<g id="a_edge7_Node000005_Node000006"><a xlink:title=" ">
<path fill="none" stroke="#63b8ff" d="M581.27,-21.05C539.44,-24.78 484.02,-29.75 435,-34.25 372.9,-39.95 301.57,-46.67 254.05,-51.16"/>
<polygon fill="#63b8ff" stroke="#63b8ff" points="581.53,-24.54 591.18,-20.17 580.91,-17.57 581.53,-24.54"/>
</a>
</g>
</g>
<!-- Node8 -->
<g id="Node000008" class="node">
<title>Node8</title>
<g id="a_Node000008"><a xlink:href="class_simple_pie___enclosure.html#a1c2f0acf5043387d6b66c5c890d74ae5" target="_top" xlink:title=" ">
<polygon fill="white" stroke="#666666" points="544,-73.5 435,-73.5 435,-43 544,-43 544,-73.5"/>
<text text-anchor="start" x="443" y="-60" font-family="Helvetica,sans-Serif" font-size="10.00">SimplePie_Enclosure</text>
<text text-anchor="middle" x="489.5" y="-48.75" font-family="Helvetica,sans-Serif" font-size="10.00">\get_real_type</text>
</a>
</g>
</g>
<!-- Node5&#45;&gt;Node8 -->
<g id="edge9_Node000005_Node000008" class="edge">
<title>Node5&#45;&gt;Node8</title>
<g id="a_edge9_Node000005_Node000008"><a xlink:title=" ">
<path fill="none" stroke="#63b8ff" d="M582.03,-33.04C569.49,-36.49 556.48,-40.08 544.33,-43.42"/>
<polygon fill="#63b8ff" stroke="#63b8ff" points="582.72,-36.48 591.44,-30.45 580.87,-29.73 582.72,-36.48"/>
</a>
</g>
</g>
<!-- Node7 -->
<g id="Node000007" class="node">
<title>Node7</title>
<g id="a_Node000007"><a xlink:href="class_simple_pie___enclosure.html#a2bd284749ba9b8f0dc7aa1880ced45a4" target="_top" xlink:title=" ">
<polygon fill="white" stroke="#666666" points="109,-71.5 0,-71.5 0,-41 109,-41 109,-71.5"/>
<text text-anchor="start" x="8" y="-58" font-family="Helvetica,sans-Serif" font-size="10.00">SimplePie_Enclosure</text>
<text text-anchor="middle" x="54.5" y="-46.75" font-family="Helvetica,sans-Serif" font-size="10.00">\native_embed</text>
</a>
</g>
</g>
<!-- Node6&#45;&gt;Node7 -->
<g id="edge8_Node000006_Node000007" class="edge">
<title>Node6&#45;&gt;Node7</title>
<g id="a_edge8_Node000006_Node000007"><a xlink:title=" ">
<path fill="none" stroke="#63b8ff" d="M133.56,-56.25C125.5,-56.25 117.33,-56.25 109.46,-56.25"/>
<polygon fill="#63b8ff" stroke="#63b8ff" points="133.33,-59.75 143.33,-56.25 133.33,-52.75 133.33,-59.75"/>
</a>
</g>
</g>
<!-- Node8&#45;&gt;Node6 -->
<g id="edge10_Node000008_Node000006" class="edge">
<title>Node8&#45;&gt;Node6</title>
<g id="a_edge10_Node000008_Node000006"><a xlink:title=" ">
<path fill="none" stroke="#63b8ff" d="M423.42,-57.8C372.29,-57.44 301.97,-56.95 254.07,-56.62"/>
<polygon fill="#63b8ff" stroke="#63b8ff" points="423.13,-61.3 433.15,-57.87 423.18,-54.3 423.13,-61.3"/>
</a>
</g>
</g>
<!-- Node9 -->
<g id="Node000009" class="node">
<title>Node9</title>
<g id="a_Node000009"><a xlink:href="class_simple_pie___enclosure.html#acf0c1077e4f1442ad8fc728e9292dfdb" target="_top" xlink:title=" ">
<polygon fill="white" stroke="#666666" points="399,-114.5 290,-114.5 290,-84 399,-84 399,-114.5"/>
<text text-anchor="start" x="298" y="-101" font-family="Helvetica,sans-Serif" font-size="10.00">SimplePie_Enclosure</text>
<text text-anchor="middle" x="344.5" y="-89.75" font-family="Helvetica,sans-Serif" font-size="10.00">\get_handler</text>
</a>
</g>
</g>
<!-- Node8&#45;&gt;Node9 -->
<g id="edge11_Node000008_Node000009" class="edge">
<title>Node8&#45;&gt;Node9</title>
<g id="a_edge11_Node000008_Node000009"><a xlink:title=" ">
<path fill="none" stroke="#63b8ff" d="M423.84,-76.79C415.69,-79.13 407.42,-81.5 399.46,-83.78"/>
<polygon fill="#63b8ff" stroke="#63b8ff" points="424.74,-80.17 433.39,-74.05 422.81,-73.44 424.74,-80.17"/>
</a>
</g>
</g>
<!-- Node9&#45;&gt;Node2 -->
<g id="edge12_Node000009_Node000002" class="edge">
<title>Node9&#45;&gt;Node2</title>
<g id="a_edge12_Node000009_Node000002"><a xlink:title=" ">
<path fill="none" stroke="#63b8ff" d="M278.84,-116.43C270.69,-118.6 262.42,-120.8 254.46,-122.91"/>
<polygon fill="#63b8ff" stroke="#63b8ff" points="279.62,-119.85 288.38,-113.9 277.82,-113.08 279.62,-119.85"/>
</a>
</g>
</g>
<!-- Node9&#45;&gt;Node6 -->
<g id="edge13_Node000009_Node000006" class="edge">
<title>Node9&#45;&gt;Node6</title>
<g id="a_edge13_Node000009_Node000006"><a xlink:title=" ">
<path fill="none" stroke="#63b8ff" d="M280.65,-80.35C271.33,-77.55 261.81,-74.69 252.73,-71.96"/>
<polygon fill="#63b8ff" stroke="#63b8ff" points="279.44,-83.64 290.02,-83.17 281.45,-76.94 279.44,-83.64"/>
</a>
</g>
</g>
</g>
</svg>
