<?xml version="1.0" encoding="UTF-8" standalone="no"?>
<!DOCTYPE svg PUBLIC "-//W3C//DTD SVG 1.1//EN"
 "http://www.w3.org/Graphics/SVG/1.1/DTD/svg11.dtd">
<!-- Generated by graphviz version 10.0.1 (20240210.2158)
 -->
<!-- Title: CalendarObject Pages: 1 -->
<svg width="355pt" height="873pt"
 viewBox="0.00 0.00 354.50 873.00" xmlns="http://www.w3.org/2000/svg" xmlns:xlink="http://www.w3.org/1999/xlink">
<g id="graph0" class="graph" transform="scale(1 1) rotate(0) translate(4 869)">
<title>CalendarObject</title>
<!-- Node1 -->
<g id="Node000001" class="node">
<title>Node1</title>
<g id="a_Node000001"><a xlink:title=" ">
<polygon fill="#999999" stroke="none" points="242,-445 67,-445 67,-182 242,-182 242,-445"/>
<text text-anchor="start" x="120.75" y="-431.5" font-family="Helvetica,sans-Serif" font-size="10.00">CalendarObject</text>
<text text-anchor="start" x="71.38" y="-416.5" font-family="Helvetica,sans-Serif" font-size="10.00">#</text>
<text text-anchor="start" x="81" y="-416.5" font-family="Helvetica,sans-Serif" font-size="10.00">$caldavBackend</text>
<text text-anchor="start" x="71.38" y="-401.5" font-family="Helvetica,sans-Serif" font-size="10.00">#</text>
<text text-anchor="start" x="81" y="-401.5" font-family="Helvetica,sans-Serif" font-size="10.00">$objectData</text>
<text text-anchor="start" x="71.38" y="-386.5" font-family="Helvetica,sans-Serif" font-size="10.00">#</text>
<text text-anchor="start" x="81" y="-386.5" font-family="Helvetica,sans-Serif" font-size="10.00">$calendarInfo</text>
<text text-anchor="start" x="71" y="-371.5" font-family="Helvetica,sans-Serif" font-size="10.00">+</text>
<text text-anchor="start" x="81" y="-371.5" font-family="Helvetica,sans-Serif" font-size="10.00">__construct(Backend</text>
<text text-anchor="start" x="81" y="-360.25" font-family="Helvetica,sans-Serif" font-size="10.00">\BackendInterface $caldavBackend,</text>
<text text-anchor="start" x="81" y="-349" font-family="Helvetica,sans-Serif" font-size="10.00"> array $calendarInfo, array</text>
<text text-anchor="start" x="81" y="-337.75" font-family="Helvetica,sans-Serif" font-size="10.00"> $objectData)</text>
<text text-anchor="start" x="71" y="-322.5" font-family="Helvetica,sans-Serif" font-size="10.00">+</text>
<text text-anchor="start" x="81" y="-322.5" font-family="Helvetica,sans-Serif" font-size="10.00">getName()</text>
<text text-anchor="start" x="71" y="-307.5" font-family="Helvetica,sans-Serif" font-size="10.00">+</text>
<text text-anchor="start" x="81" y="-307.5" font-family="Helvetica,sans-Serif" font-size="10.00">get()</text>
<text text-anchor="start" x="71" y="-292.5" font-family="Helvetica,sans-Serif" font-size="10.00">+</text>
<text text-anchor="start" x="81" y="-292.5" font-family="Helvetica,sans-Serif" font-size="10.00">put($calendarData)</text>
<text text-anchor="start" x="71" y="-277.5" font-family="Helvetica,sans-Serif" font-size="10.00">+</text>
<text text-anchor="start" x="81" y="-277.5" font-family="Helvetica,sans-Serif" font-size="10.00">delete()</text>
<text text-anchor="start" x="71" y="-262.5" font-family="Helvetica,sans-Serif" font-size="10.00">+</text>
<text text-anchor="start" x="81" y="-262.5" font-family="Helvetica,sans-Serif" font-size="10.00">getContentType()</text>
<text text-anchor="start" x="71" y="-247.5" font-family="Helvetica,sans-Serif" font-size="10.00">+</text>
<text text-anchor="start" x="81" y="-247.5" font-family="Helvetica,sans-Serif" font-size="10.00">getETag()</text>
<text text-anchor="start" x="71" y="-232.5" font-family="Helvetica,sans-Serif" font-size="10.00">+</text>
<text text-anchor="start" x="81" y="-232.5" font-family="Helvetica,sans-Serif" font-size="10.00">getLastModified()</text>
<text text-anchor="start" x="71" y="-217.5" font-family="Helvetica,sans-Serif" font-size="10.00">+</text>
<text text-anchor="start" x="81" y="-217.5" font-family="Helvetica,sans-Serif" font-size="10.00">getSize()</text>
<text text-anchor="start" x="71" y="-202.5" font-family="Helvetica,sans-Serif" font-size="10.00">+</text>
<text text-anchor="start" x="81" y="-202.5" font-family="Helvetica,sans-Serif" font-size="10.00">getOwner()</text>
<text text-anchor="start" x="71" y="-187.5" font-family="Helvetica,sans-Serif" font-size="10.00">+</text>
<text text-anchor="start" x="81" y="-187.5" font-family="Helvetica,sans-Serif" font-size="10.00">getACL()</text>
<polygon fill="#666666" stroke="#666666" points="67,-428 67,-428 242,-428 242,-428 67,-428"/>
<polygon fill="#666666" stroke="#666666" points="67,-383 67,-383 79,-383 79,-383 67,-383"/>
<polygon fill="#666666" stroke="#666666" points="79,-383 79,-383 242,-383 242,-383 79,-383"/>
<polygon fill="none" stroke="#666666" points="67,-182 67,-445 242,-445 242,-182 67,-182"/>
</a>
</g>
</g>
<!-- Node8 -->
<g id="Node000008" class="node">
<title>Node8</title>
<g id="a_Node000008"><a xlink:href="class_sabre_1_1_cal_d_a_v_1_1_schedule_1_1_scheduling_object.html" target="_top" xlink:title=" ">
<polygon fill="white" stroke="none" points="244.5,-146 64.5,-146 64.5,0 244.5,0 244.5,-146"/>
<text text-anchor="start" x="116.25" y="-132.5" font-family="Helvetica,sans-Serif" font-size="10.00">SchedulingObject</text>
<text text-anchor="start" x="153" y="-117.5" font-family="Helvetica,sans-Serif" font-size="10.00"> </text>
<text text-anchor="start" x="68.5" y="-102.5" font-family="Helvetica,sans-Serif" font-size="10.00">+</text>
<text text-anchor="start" x="78.5" y="-102.5" font-family="Helvetica,sans-Serif" font-size="10.00">__construct(Backend</text>
<text text-anchor="start" x="78.5" y="-91.25" font-family="Helvetica,sans-Serif" font-size="10.00">\SchedulingSupport $caldavBackend,</text>
<text text-anchor="start" x="78.5" y="-80" font-family="Helvetica,sans-Serif" font-size="10.00"> array $objectData)</text>
<text text-anchor="start" x="68.5" y="-65.5" font-family="Helvetica,sans-Serif" font-size="10.00">+</text>
<text text-anchor="start" x="78.5" y="-65.5" font-family="Helvetica,sans-Serif" font-size="10.00">get()</text>
<text text-anchor="start" x="68.5" y="-50.5" font-family="Helvetica,sans-Serif" font-size="10.00">+</text>
<text text-anchor="start" x="78.5" y="-50.5" font-family="Helvetica,sans-Serif" font-size="10.00">put($calendarData)</text>
<text text-anchor="start" x="68.5" y="-35.5" font-family="Helvetica,sans-Serif" font-size="10.00">+</text>
<text text-anchor="start" x="78.5" y="-35.5" font-family="Helvetica,sans-Serif" font-size="10.00">delete()</text>
<text text-anchor="start" x="68.5" y="-20.5" font-family="Helvetica,sans-Serif" font-size="10.00">+</text>
<text text-anchor="start" x="78.5" y="-20.5" font-family="Helvetica,sans-Serif" font-size="10.00">getOwner()</text>
<text text-anchor="start" x="68.5" y="-5.5" font-family="Helvetica,sans-Serif" font-size="10.00">+</text>
<text text-anchor="start" x="78.5" y="-5.5" font-family="Helvetica,sans-Serif" font-size="10.00">getACL()</text>
<polygon fill="#666666" stroke="#666666" points="64.5,-129 64.5,-129 244.5,-129 244.5,-129 64.5,-129"/>
<polygon fill="#666666" stroke="#666666" points="64.5,-114 64.5,-114 244.5,-114 244.5,-114 64.5,-114"/>
<polygon fill="none" stroke="#666666" points="64.5,0 64.5,-146 244.5,-146 244.5,0 64.5,0"/>
</a>
</g>
</g>
<!-- Node1&#45;&gt;Node8 -->
<g id="edge10_Node000001_Node000008" class="edge">
<title>Node1&#45;&gt;Node8</title>
<g id="a_edge10_Node000001_Node000008"><a xlink:title=" ">
<path fill="none" stroke="#63b8ff" d="M154.5,-170.81C154.5,-162.3 154.5,-153.94 154.5,-145.92"/>
<polygon fill="none" stroke="#63b8ff" points="151,-170.57 154.5,-180.57 158,-170.57 151,-170.57"/>
</a>
</g>
</g>
<!-- Node2 -->
<g id="Node000002" class="node">
<title>Node2</title>
<g id="a_Node000002"><a xlink:href="class_sabre_1_1_d_a_v_1_1_file.html" target="_top" xlink:title=" ">
<polygon fill="white" stroke="none" points="96,-590 3,-590 3,-481 96,-481 96,-590"/>
<text text-anchor="start" x="41.62" y="-576.5" font-family="Helvetica,sans-Serif" font-size="10.00">File</text>
<text text-anchor="start" x="48" y="-561.5" font-family="Helvetica,sans-Serif" font-size="10.00"> </text>
<text text-anchor="start" x="7" y="-546.5" font-family="Helvetica,sans-Serif" font-size="10.00">+</text>
<text text-anchor="start" x="17" y="-546.5" font-family="Helvetica,sans-Serif" font-size="10.00">put($data)</text>
<text text-anchor="start" x="7" y="-531.5" font-family="Helvetica,sans-Serif" font-size="10.00">+</text>
<text text-anchor="start" x="17" y="-531.5" font-family="Helvetica,sans-Serif" font-size="10.00">get()</text>
<text text-anchor="start" x="7" y="-516.5" font-family="Helvetica,sans-Serif" font-size="10.00">+</text>
<text text-anchor="start" x="17" y="-516.5" font-family="Helvetica,sans-Serif" font-size="10.00">getSize()</text>
<text text-anchor="start" x="7" y="-501.5" font-family="Helvetica,sans-Serif" font-size="10.00">+</text>
<text text-anchor="start" x="17" y="-501.5" font-family="Helvetica,sans-Serif" font-size="10.00">getETag()</text>
<text text-anchor="start" x="7" y="-486.5" font-family="Helvetica,sans-Serif" font-size="10.00">+</text>
<text text-anchor="start" x="17" y="-486.5" font-family="Helvetica,sans-Serif" font-size="10.00">getContentType()</text>
<polygon fill="#666666" stroke="#666666" points="3,-573 3,-573 96,-573 96,-573 3,-573"/>
<polygon fill="#666666" stroke="#666666" points="3,-558 3,-558 96,-558 96,-558 3,-558"/>
<polygon fill="none" stroke="#666666" points="3,-481 3,-590 96,-590 96,-481 3,-481"/>
</a>
</g>
</g>
<!-- Node2&#45;&gt;Node1 -->
<g id="edge1_Node000001_Node000002" class="edge">
<title>Node2&#45;&gt;Node1</title>
<g id="a_edge1_Node000001_Node000002"><a xlink:title=" ">
<path fill="none" stroke="#63b8ff" d="M79.86,-470.89C83.86,-462.52 88.06,-453.7 92.36,-444.71"/>
<polygon fill="none" stroke="#63b8ff" points="76.72,-469.35 75.57,-479.88 83.04,-472.36 76.72,-469.35"/>
</a>
</g>
</g>
<!-- Node3 -->
<g id="Node000003" class="node">
<title>Node3</title>
<g id="a_Node000003"><a xlink:href="class_sabre_1_1_d_a_v_1_1_node.html" target="_top" xlink:title=" ">
<polygon fill="white" stroke="none" points="93,-720 0,-720 0,-641 93,-641 93,-720"/>
<text text-anchor="start" x="34.88" y="-706.5" font-family="Helvetica,sans-Serif" font-size="10.00">Node</text>
<text text-anchor="start" x="45" y="-691.5" font-family="Helvetica,sans-Serif" font-size="10.00"> </text>
<text text-anchor="start" x="4" y="-676.5" font-family="Helvetica,sans-Serif" font-size="10.00">+</text>
<text text-anchor="start" x="14" y="-676.5" font-family="Helvetica,sans-Serif" font-size="10.00">getLastModified()</text>
<text text-anchor="start" x="4" y="-661.5" font-family="Helvetica,sans-Serif" font-size="10.00">+</text>
<text text-anchor="start" x="14" y="-661.5" font-family="Helvetica,sans-Serif" font-size="10.00">delete()</text>
<text text-anchor="start" x="4" y="-646.5" font-family="Helvetica,sans-Serif" font-size="10.00">+</text>
<text text-anchor="start" x="14" y="-646.5" font-family="Helvetica,sans-Serif" font-size="10.00">setName($name)</text>
<polygon fill="#666666" stroke="#666666" points="0,-703 0,-703 93,-703 93,-703 0,-703"/>
<polygon fill="#666666" stroke="#666666" points="0,-688 0,-688 93,-688 93,-688 0,-688"/>
<polygon fill="none" stroke="#666666" points="0,-641 0,-720 93,-720 93,-641 0,-641"/>
</a>
</g>
</g>
<!-- Node3&#45;&gt;Node2 -->
<g id="edge2_Node000002_Node000003" class="edge">
<title>Node3&#45;&gt;Node2</title>
<g id="a_edge2_Node000002_Node000003"><a xlink:title=" ">
<path fill="none" stroke="#63b8ff" d="M47.54,-629.73C47.81,-616.88 48.1,-603 48.38,-589.98"/>
<polygon fill="none" stroke="#63b8ff" points="44.05,-629.59 47.34,-639.67 51.04,-629.74 44.05,-629.59"/>
</a>
</g>
</g>
<!-- Node4 -->
<g id="Node000004" class="node">
<title>Node4</title>
<g id="a_Node000004"><a xlink:href="interface_sabre_1_1_d_a_v_1_1_i_node.html" target="_top" xlink:title=" ">
<polygon fill="white" stroke="none" points="204,-865 111,-865 111,-771 204,-771 204,-865"/>
<text text-anchor="start" x="144.38" y="-851.5" font-family="Helvetica,sans-Serif" font-size="10.00">INode</text>
<text text-anchor="start" x="156" y="-836.5" font-family="Helvetica,sans-Serif" font-size="10.00"> </text>
<text text-anchor="start" x="115" y="-821.5" font-family="Helvetica,sans-Serif" font-size="10.00">+</text>
<text text-anchor="start" x="125" y="-821.5" font-family="Helvetica,sans-Serif" font-size="10.00">delete()</text>
<text text-anchor="start" x="115" y="-806.5" font-family="Helvetica,sans-Serif" font-size="10.00">+</text>
<text text-anchor="start" x="125" y="-806.5" font-family="Helvetica,sans-Serif" font-size="10.00">getName()</text>
<text text-anchor="start" x="115" y="-791.5" font-family="Helvetica,sans-Serif" font-size="10.00">+</text>
<text text-anchor="start" x="125" y="-791.5" font-family="Helvetica,sans-Serif" font-size="10.00">setName($name)</text>
<text text-anchor="start" x="115" y="-776.5" font-family="Helvetica,sans-Serif" font-size="10.00">+</text>
<text text-anchor="start" x="125" y="-776.5" font-family="Helvetica,sans-Serif" font-size="10.00">getLastModified()</text>
<polygon fill="#666666" stroke="#666666" points="111,-848 111,-848 204,-848 204,-848 111,-848"/>
<polygon fill="#666666" stroke="#666666" points="111,-833 111,-833 204,-833 204,-833 111,-833"/>
<polygon fill="none" stroke="#666666" points="111,-771 111,-865 204,-865 204,-771 111,-771"/>
</a>
</g>
</g>
<!-- Node4&#45;&gt;Node3 -->
<g id="edge3_Node000003_Node000004" class="edge">
<title>Node4&#45;&gt;Node3</title>
<g id="a_edge3_Node000003_Node000004"><a xlink:title=" ">
<path fill="none" stroke="#63b8ff" d="M112.73,-762.34C101,-748.03 88.61,-732.91 77.76,-719.66"/>
<polygon fill="none" stroke="#63b8ff" points="109.92,-764.44 118.96,-769.96 115.33,-760 109.92,-764.44"/>
</a>
</g>
</g>
<!-- Node5 -->
<g id="Node000005" class="node">
<title>Node5</title>
<g id="a_Node000005"><a xlink:href="interface_sabre_1_1_d_a_v_1_1_i_file.html" target="_top" xlink:title=" ">
<polygon fill="white" stroke="none" points="204,-735 111,-735 111,-626 204,-626 204,-735"/>
<text text-anchor="start" x="148.12" y="-721.5" font-family="Helvetica,sans-Serif" font-size="10.00">IFile</text>
<text text-anchor="start" x="156" y="-706.5" font-family="Helvetica,sans-Serif" font-size="10.00"> </text>
<text text-anchor="start" x="115" y="-691.5" font-family="Helvetica,sans-Serif" font-size="10.00">+</text>
<text text-anchor="start" x="125" y="-691.5" font-family="Helvetica,sans-Serif" font-size="10.00">put($data)</text>
<text text-anchor="start" x="115" y="-676.5" font-family="Helvetica,sans-Serif" font-size="10.00">+</text>
<text text-anchor="start" x="125" y="-676.5" font-family="Helvetica,sans-Serif" font-size="10.00">get()</text>
<text text-anchor="start" x="115" y="-661.5" font-family="Helvetica,sans-Serif" font-size="10.00">+</text>
<text text-anchor="start" x="125" y="-661.5" font-family="Helvetica,sans-Serif" font-size="10.00">getContentType()</text>
<text text-anchor="start" x="115" y="-646.5" font-family="Helvetica,sans-Serif" font-size="10.00">+</text>
<text text-anchor="start" x="125" y="-646.5" font-family="Helvetica,sans-Serif" font-size="10.00">getETag()</text>
<text text-anchor="start" x="115" y="-631.5" font-family="Helvetica,sans-Serif" font-size="10.00">+</text>
<text text-anchor="start" x="125" y="-631.5" font-family="Helvetica,sans-Serif" font-size="10.00">getSize()</text>
<polygon fill="#666666" stroke="#666666" points="111,-718 111,-718 204,-718 204,-718 111,-718"/>
<polygon fill="#666666" stroke="#666666" points="111,-703 111,-703 204,-703 204,-703 111,-703"/>
<polygon fill="none" stroke="#666666" points="111,-626 111,-735 204,-735 204,-626 111,-626"/>
</a>
</g>
</g>
<!-- Node4&#45;&gt;Node5 -->
<g id="edge5_Node000005_Node000004" class="edge">
<title>Node4&#45;&gt;Node5</title>
<g id="a_edge5_Node000005_Node000004"><a xlink:title=" ">
<path fill="none" stroke="#63b8ff" d="M157.5,-759.67C157.5,-751.42 157.5,-742.97 157.5,-734.81"/>
<polygon fill="none" stroke="#63b8ff" points="154,-759.61 157.5,-769.61 161,-759.61 154,-759.61"/>
</a>
</g>
</g>
<!-- Node7 -->
<g id="Node000007" class="node">
<title>Node7</title>
<g id="a_Node000007"><a xlink:href="interface_sabre_1_1_d_a_v_a_c_l_1_1_i_a_c_l.html" target="_top" xlink:title=" ">
<polygon fill="white" stroke="none" points="346.5,-590 212.5,-590 212.5,-481 346.5,-481 346.5,-590"/>
<text text-anchor="start" x="268.25" y="-576.5" font-family="Helvetica,sans-Serif" font-size="10.00">IACL</text>
<text text-anchor="start" x="278" y="-561.5" font-family="Helvetica,sans-Serif" font-size="10.00"> </text>
<text text-anchor="start" x="216.5" y="-546.5" font-family="Helvetica,sans-Serif" font-size="10.00">+</text>
<text text-anchor="start" x="226.5" y="-546.5" font-family="Helvetica,sans-Serif" font-size="10.00">getOwner()</text>
<text text-anchor="start" x="216.5" y="-531.5" font-family="Helvetica,sans-Serif" font-size="10.00">+</text>
<text text-anchor="start" x="226.5" y="-531.5" font-family="Helvetica,sans-Serif" font-size="10.00">getGroup()</text>
<text text-anchor="start" x="216.5" y="-516.5" font-family="Helvetica,sans-Serif" font-size="10.00">+</text>
<text text-anchor="start" x="226.5" y="-516.5" font-family="Helvetica,sans-Serif" font-size="10.00">getACL()</text>
<text text-anchor="start" x="216.5" y="-501.5" font-family="Helvetica,sans-Serif" font-size="10.00">+</text>
<text text-anchor="start" x="226.5" y="-501.5" font-family="Helvetica,sans-Serif" font-size="10.00">setACL(array $acl)</text>
<text text-anchor="start" x="216.5" y="-486.5" font-family="Helvetica,sans-Serif" font-size="10.00">+</text>
<text text-anchor="start" x="226.5" y="-486.5" font-family="Helvetica,sans-Serif" font-size="10.00">getSupportedPrivilegeSet()</text>
<polygon fill="#666666" stroke="#666666" points="212.5,-573 212.5,-573 346.5,-573 346.5,-573 212.5,-573"/>
<polygon fill="#666666" stroke="#666666" points="212.5,-558 212.5,-558 346.5,-558 346.5,-558 212.5,-558"/>
<polygon fill="none" stroke="#666666" points="212.5,-481 212.5,-590 346.5,-590 346.5,-481 212.5,-481"/>
</a>
</g>
</g>
<!-- Node4&#45;&gt;Node7 -->
<g id="edge9_Node000007_Node000004" class="edge">
<title>Node4&#45;&gt;Node7</title>
<g id="a_edge9_Node000007_Node000004"><a xlink:title=" ">
<path fill="none" stroke="#63b8ff" d="M197.59,-761.45C202.98,-752.81 208.15,-743.82 212.5,-735 235.75,-687.86 254.1,-630.7 265.67,-589.84"/>
<polygon fill="none" stroke="#63b8ff" points="194.71,-759.45 192.25,-769.75 200.6,-763.23 194.71,-759.45"/>
</a>
</g>
</g>
<!-- Node5&#45;&gt;Node2 -->
<g id="edge4_Node000002_Node000005" class="edge">
<title>Node5&#45;&gt;Node2</title>
<g id="a_edge4_Node000002_Node000005"><a xlink:title=" ">
<path fill="none" stroke="#63b8ff" d="M110.45,-617.21C103.55,-608.07 96.5,-598.73 89.75,-589.79"/>
<polygon fill="none" stroke="#63b8ff" points="107.55,-619.17 116.37,-625.04 113.14,-614.96 107.55,-619.17"/>
</a>
</g>
</g>
<!-- Node6 -->
<g id="Node000006" class="node">
<title>Node6</title>
<g id="a_Node000006"><a xlink:href="interface_sabre_1_1_cal_d_a_v_1_1_i_calendar_object.html" target="_top" xlink:title=" ">
<polygon fill="white" stroke="none" points="194.5,-560 114.5,-560 114.5,-511 194.5,-511 194.5,-560"/>
<text text-anchor="start" x="119.25" y="-546.5" font-family="Helvetica,sans-Serif" font-size="10.00">ICalendarObject</text>
<text text-anchor="start" x="153" y="-531.5" font-family="Helvetica,sans-Serif" font-size="10.00"> </text>
<text text-anchor="start" x="153" y="-516.5" font-family="Helvetica,sans-Serif" font-size="10.00"> </text>
<polygon fill="#666666" stroke="#666666" points="114.5,-543 114.5,-543 194.5,-543 194.5,-543 114.5,-543"/>
<polygon fill="#666666" stroke="#666666" points="114.5,-528 114.5,-528 194.5,-528 194.5,-528 114.5,-528"/>
<polygon fill="none" stroke="#666666" points="114.5,-511 114.5,-560 194.5,-560 194.5,-511 114.5,-511"/>
</a>
</g>
</g>
<!-- Node5&#45;&gt;Node6 -->
<g id="edge7_Node000006_Node000005" class="edge">
<title>Node5&#45;&gt;Node6</title>
<g id="a_edge7_Node000006_Node000005"><a xlink:title=" ">
<path fill="none" stroke="#63b8ff" d="M156.14,-614.83C155.73,-595.21 155.31,-574.89 154.99,-559.87"/>
<polygon fill="none" stroke="#63b8ff" points="152.64,-614.81 156.35,-624.74 159.64,-614.67 152.64,-614.81"/>
</a>
</g>
</g>
<!-- Node6&#45;&gt;Node1 -->
<g id="edge6_Node000001_Node000006" class="edge">
<title>Node6&#45;&gt;Node1</title>
<g id="a_edge6_Node000001_Node000006"><a xlink:title=" ">
<path fill="none" stroke="#63b8ff" d="M154.5,-500.29C154.5,-484.72 154.5,-465.22 154.5,-444.75"/>
<polygon fill="none" stroke="#63b8ff" points="151,-499.86 154.5,-509.86 158,-499.86 151,-499.86"/>
</a>
</g>
</g>
<!-- Node7&#45;&gt;Node1 -->
<g id="edge8_Node000001_Node000007" class="edge">
<title>Node7&#45;&gt;Node1</title>
<g id="a_edge8_Node000001_Node000007"><a xlink:title=" ">
<path fill="none" stroke="#63b8ff" d="M243.68,-471.45C238.82,-462.91 233.71,-453.9 228.48,-444.71"/>
<polygon fill="none" stroke="#63b8ff" points="240.51,-472.96 248.49,-479.93 246.6,-469.5 240.51,-472.96"/>
</a>
</g>
</g>
</g>
</svg>
