<?xml version="1.0" encoding="UTF-8" standalone="no"?>
<!DOCTYPE svg PUBLIC "-//W3C//DTD SVG 1.1//EN"
 "http://www.w3.org/Graphics/SVG/1.1/DTD/svg11.dtd">
<!-- Generated by graphviz version 10.0.1 (20240210.2158)
 -->
<!-- Title: CommandIsSuccessful Pages: 1 -->
<svg width="146pt" height="209pt"
 viewBox="0.00 0.00 146.00 209.00" xmlns="http://www.w3.org/2000/svg" xmlns:xlink="http://www.w3.org/1999/xlink">
<g id="graph0" class="graph" transform="scale(1 1) rotate(0) translate(4 205)">
<title>CommandIsSuccessful</title>
<!-- Node1 -->
<g id="Node000001" class="node">
<title>Node1</title>
<g id="a_Node000001"><a xlink:title=" ">
<polygon fill="#999999" stroke="none" points="138,-116 0,-116 0,0 138,0 138,-116"/>
<text text-anchor="start" x="18" y="-102.5" font-family="Helvetica,sans-Serif" font-size="10.00">CommandIsSuccessful</text>
<text text-anchor="start" x="67.5" y="-87.5" font-family="Helvetica,sans-Serif" font-size="10.00"> </text>
<text text-anchor="start" x="4" y="-72.5" font-family="Helvetica,sans-Serif" font-size="10.00">+</text>
<text text-anchor="start" x="14" y="-72.5" font-family="Helvetica,sans-Serif" font-size="10.00">toString()</text>
<text text-anchor="start" x="4.38" y="-57.5" font-family="Helvetica,sans-Serif" font-size="10.00">#</text>
<text text-anchor="start" x="14" y="-57.5" font-family="Helvetica,sans-Serif" font-size="10.00">matches($other)</text>
<text text-anchor="start" x="4.38" y="-42.5" font-family="Helvetica,sans-Serif" font-size="10.00">#</text>
<text text-anchor="start" x="14" y="-42.5" font-family="Helvetica,sans-Serif" font-size="10.00">failureDescription</text>
<text text-anchor="start" x="14" y="-31.25" font-family="Helvetica,sans-Serif" font-size="10.00">($other)</text>
<text text-anchor="start" x="4.38" y="-16.5" font-family="Helvetica,sans-Serif" font-size="10.00">#</text>
<text text-anchor="start" x="14" y="-16.5" font-family="Helvetica,sans-Serif" font-size="10.00">additionalFailureDescription</text>
<text text-anchor="start" x="14" y="-5.25" font-family="Helvetica,sans-Serif" font-size="10.00">($other)</text>
<polygon fill="#666666" stroke="#666666" points="0,-99 0,-99 138,-99 138,-99 0,-99"/>
<polygon fill="#666666" stroke="#666666" points="0,-84 0,-84 138,-84 138,-84 0,-84"/>
<polygon fill="none" stroke="#666666" points="0,0 0,-116 138,-116 138,0 0,0"/>
</a>
</g>
</g>
<!-- Node2 -->
<g id="Node000002" class="node">
<title>Node2</title>
<g id="a_Node000002"><a xlink:title=" ">
<polygon fill="white" stroke="none" points="96.5,-201 41.5,-201 41.5,-152 96.5,-152 96.5,-201"/>
<text text-anchor="start" x="46.5" y="-187.5" font-family="Helvetica,sans-Serif" font-size="10.00">Constraint</text>
<text text-anchor="start" x="67.5" y="-172.5" font-family="Helvetica,sans-Serif" font-size="10.00"> </text>
<text text-anchor="start" x="67.5" y="-157.5" font-family="Helvetica,sans-Serif" font-size="10.00"> </text>
<polygon fill="#666666" stroke="#666666" points="41.5,-184 41.5,-184 96.5,-184 96.5,-184 41.5,-184"/>
<polygon fill="#666666" stroke="#666666" points="41.5,-169 41.5,-169 96.5,-169 96.5,-169 41.5,-169"/>
<polygon fill="none" stroke="#666666" points="41.5,-152 41.5,-201 96.5,-201 96.5,-152 41.5,-152"/>
</a>
</g>
</g>
<!-- Node2&#45;&gt;Node1 -->
<g id="edge1_Node000001_Node000002" class="edge">
<title>Node2&#45;&gt;Node1</title>
<g id="a_edge1_Node000001_Node000002"><a xlink:title=" ">
<path fill="none" stroke="#63b8ff" d="M69,-140.76C69,-132.8 69,-124.14 69,-115.52"/>
<polygon fill="none" stroke="#63b8ff" points="65.5,-140.69 69,-150.69 72.5,-140.69 65.5,-140.69"/>
</a>
</g>
</g>
</g>
</svg>
