<?xml version="1.0" encoding="UTF-8" standalone="no"?>
<!DOCTYPE svg PUBLIC "-//W3C//DTD SVG 1.1//EN"
 "http://www.w3.org/Graphics/SVG/1.1/DTD/svg11.dtd">
<!-- Generated by graphviz version 10.0.1 (20240210.2158)
 -->
<!-- Title: canDeleteItem Pages: 1 -->
<!--zoomable 138 -->

<svg id="main" version="1.1" xmlns="http://www.w3.org/2000/svg" xmlns:xlink="http://www.w3.org/1999/xlink" xml:space="preserve" onload="init(evt)">
<style type="text/css"><![CDATA[
.node, .edge {opacity: 0.7;}
.node.selected, .edge.selected {opacity: 1;}
.edge:hover path { stroke: red; }
.edge:hover polygon { stroke: red; fill: red; }
]]></style>

<defs>
  <circle id="rim" cx="0" cy="0" r="7"/>
  <circle id="rim2" cx="0" cy="0" r="3.5"/>
  <g id="zoomPlus">
    <use xlink:href="#rim" fill="#404040"><set attributeName="fill" to="#808080" begin="zoomplus.mouseover" end="zoomplus.mouseout"/></use>
    <path d="M-4,0h8M0,-4v8" fill="none" stroke="white" stroke-width="1.5" pointer-events="none"/>
  </g>
  <g id="zoomMin">
    <use xlink:href="#rim" fill="#404040"><set attributeName="fill" to="#808080" begin="zoomminus.mouseover" end="zoomminus.mouseout"/></use>
    <path d="M-4,0h8" fill="none" stroke="white" stroke-width="1.5" pointer-events="none"/>
  </g>
  <g id="arrowUp" transform="translate(30 24)">
    <use xlink:href="#rim"/>
    <path pointer-events="none" fill="none" stroke="white" stroke-width="1.5" d="M0,-3.0v7 M-2.5,-0.5L0,-3.0L2.5,-0.5"/>
  </g>
  <g id="arrowRight" transform="rotate(90) translate(36 -43)">
    <use xlink:href="#rim"/>
    <path pointer-events="none" fill="none" stroke="white" stroke-width="1.5" d="M0,-3.0v7 M-2.5,-0.5L0,-3.0L2.5,-0.5"/>
  </g>
  <g id="arrowDown" transform="rotate(180) translate(-30 -48)">
    <use xlink:href="#rim"/>
    <path pointer-events="none" fill="none" stroke="white" stroke-width="1.5" d="M0,-3.0v7 M-2.5,-0.5L0,-3.0L2.5,-0.5"/>
  </g>
  <g id="arrowLeft" transform="rotate(270) translate(-36 17)">
    <use xlink:href="#rim"/>
    <path pointer-events="none" fill="none" stroke="white" stroke-width="1.5" d="M0,-3.0v7 M-2.5,-0.5L0,-3.0L2.5,-0.5"/>
  </g>
  <g id="resetDef">
    <use xlink:href="#rim2" fill="#404040"><set attributeName="fill" to="#808080" begin="reset.mouseover" end="reset.mouseout"/></use>
  </g>
</defs>
<script type="application/ecmascript">
var viewWidth = 674;
var viewHeight = 138;
var sectionId = 'dynsection-5';
</script>
<script type="application/ecmascript" xlink:href="svg.min.js"/>
<svg id="graph" class="graph">
<g id="viewport">
<title>canDeleteItem</title>
<!-- Node1 -->
<g id="Node000001" class="node">
<title>Node1</title>
<g id="a_Node000001"><a xlink:title=" ">
<polygon fill="#999999" stroke="#666666" points="79.75,-74.25 0,-74.25 0,-55 79.75,-55 79.75,-74.25"/>
<text text-anchor="middle" x="39.88" y="-60.75" font-family="Helvetica,sans-Serif" font-size="10.00">canDeleteItem</text>
</a>
</g>
</g>
<!-- Node2 -->
<g id="Node000002" class="node">
<title>Node2</title>
<g id="a_Node000002"><a xlink:href="class_common_d_b_relation.html#a3a8bf9d763c005d529712fe0115b8a6f" target="_top" xlink:title=" ">
<polygon fill="white" stroke="#666666" points="203,-74.25 115.75,-74.25 115.75,-55 203,-55 203,-74.25"/>
<text text-anchor="middle" x="159.38" y="-60.75" font-family="Helvetica,sans-Serif" font-size="10.00">canRelationItem</text>
</a>
</g>
</g>
<!-- Node1&#45;&gt;Node2 -->
<g id="edge1_Node000001_Node000002" class="edge">
<title>Node1&#45;&gt;Node2</title>
<g id="a_edge1_Node000001_Node000002"><a xlink:title=" ">
<path fill="none" stroke="#63b8ff" d="M80,-64.62C87.71,-64.62 95.94,-64.62 104.05,-64.62"/>
<polygon fill="#63b8ff" stroke="#63b8ff" points="103.86,-68.13 113.86,-64.63 103.86,-61.13 103.86,-68.13"/>
</a>
</g>
</g>
<!-- Node3 -->
<g id="Node000003" class="node">
<title>Node3</title>
<g id="a_Node000003"><a xlink:href="class_common_d_b_connexity.html#abdd9e26822938dc5146ba008a5a83b5b" target="_top" xlink:title=" ">
<polygon fill="white" stroke="#666666" points="435.75,-130.25 239,-130.25 239,-111 435.75,-111 435.75,-130.25"/>
<text text-anchor="middle" x="337.38" y="-116.75" font-family="Helvetica,sans-Serif" font-size="10.00">CommonDBConnexity\canConnexityItem</text>
</a>
</g>
</g>
<!-- Node2&#45;&gt;Node3 -->
<g id="edge2_Node000002_Node000003" class="edge">
<title>Node2&#45;&gt;Node3</title>
<g id="a_edge2_Node000002_Node000003"><a xlink:title=" ">
<path fill="none" stroke="#63b8ff" d="M177.61,-74.62C193.18,-83.24 216.96,-95.41 239,-102.62 245.07,-104.61 251.43,-106.4 257.87,-108.01"/>
<polygon fill="#63b8ff" stroke="#63b8ff" points="256.73,-111.34 267.26,-110.2 258.32,-104.52 256.73,-111.34"/>
</a>
</g>
</g>
<!-- Node5 -->
<g id="Node000005" class="node">
<title>Node5</title>
<g id="a_Node000005"><a xlink:href="db_8function_8php.html#a8f719c1f960a333fca98ba9b5094805c" target="_top" xlink:title=" ">
<polygon fill="white" stroke="#666666" points="379.5,-93.25 295.25,-93.25 295.25,-74 379.5,-74 379.5,-93.25"/>
<text text-anchor="middle" x="337.38" y="-79.75" font-family="Helvetica,sans-Serif" font-size="10.00">getAncestorsOf</text>
</a>
</g>
</g>
<!-- Node2&#45;&gt;Node5 -->
<g id="edge4_Node000002_Node000005" class="edge">
<title>Node2&#45;&gt;Node5</title>
<g id="a_edge4_Node000002_Node000005"><a xlink:title=" ">
<path fill="none" stroke="#63b8ff" d="M203.43,-69.27C227.61,-71.88 257.98,-75.16 283.59,-77.93"/>
<polygon fill="#63b8ff" stroke="#63b8ff" points="283.15,-81.4 293.47,-78.99 283.91,-74.44 283.15,-81.4"/>
</a>
</g>
</g>
<!-- Node6 -->
<g id="Node000006" class="node">
<title>Node6</title>
<g id="a_Node000006"><a xlink:href="class_common_d_b_relation.html#a1f357a07596a7632056b0cc67942bc24" target="_top" xlink:title=" ">
<polygon fill="white" stroke="#666666" points="376.5,-56.25 298.25,-56.25 298.25,-37 376.5,-37 376.5,-56.25"/>
<text text-anchor="middle" x="337.38" y="-42.75" font-family="Helvetica,sans-Serif" font-size="10.00">isAttach1Valid</text>
</a>
</g>
</g>
<!-- Node2&#45;&gt;Node6 -->
<g id="edge5_Node000002_Node000006" class="edge">
<title>Node2&#45;&gt;Node6</title>
<g id="a_edge5_Node000002_Node000006"><a xlink:title=" ">
<path fill="none" stroke="#63b8ff" d="M203.43,-60.22C228.61,-57.65 260.49,-54.39 286.72,-51.7"/>
<polygon fill="#63b8ff" stroke="#63b8ff" points="286.86,-55.21 296.45,-50.71 286.15,-48.24 286.86,-55.21"/>
</a>
</g>
</g>
<!-- Node7 -->
<g id="Node000007" class="node">
<title>Node7</title>
<g id="a_Node000007"><a xlink:href="class_common_d_b_relation.html#aacea7159f593ef2b714dda37448f38c8" target="_top" xlink:title=" ">
<polygon fill="white" stroke="#666666" points="376.5,-19.25 298.25,-19.25 298.25,0 376.5,0 376.5,-19.25"/>
<text text-anchor="middle" x="337.38" y="-5.75" font-family="Helvetica,sans-Serif" font-size="10.00">isAttach2Valid</text>
</a>
</g>
</g>
<!-- Node2&#45;&gt;Node7 -->
<g id="edge6_Node000002_Node000007" class="edge">
<title>Node2&#45;&gt;Node7</title>
<g id="a_edge6_Node000002_Node000007"><a xlink:title=" ">
<path fill="none" stroke="#63b8ff" d="M178.26,-54.58C193.86,-46.22 217.32,-34.6 239,-27.62 254.28,-22.71 271.36,-18.99 286.9,-16.24"/>
<polygon fill="#63b8ff" stroke="#63b8ff" points="287.11,-19.75 296.4,-14.65 285.96,-12.85 287.11,-19.75"/>
</a>
</g>
</g>
<!-- Node4 -->
<g id="Node000004" class="node">
<title>Node4</title>
<g id="a_Node000004"><a xlink:href="class_common_d_b_connexity.html#ade9838c9396e0210b6000d379ccf60ec" target="_top" xlink:title=" ">
<polygon fill="white" stroke="#666666" points="666.25,-130.25 471.75,-130.25 471.75,-111 666.25,-111 666.25,-130.25"/>
<text text-anchor="middle" x="569" y="-116.75" font-family="Helvetica,sans-Serif" font-size="10.00">CommonDBConnexity\getConnexityItem</text>
</a>
</g>
</g>
<!-- Node3&#45;&gt;Node4 -->
<g id="edge3_Node000003_Node000004" class="edge">
<title>Node3&#45;&gt;Node4</title>
<g id="a_edge3_Node000003_Node000004"><a xlink:title=" ">
<path fill="none" stroke="#63b8ff" d="M436.09,-120.62C444.05,-120.62 452.13,-120.62 460.16,-120.62"/>
<polygon fill="#63b8ff" stroke="#63b8ff" points="459.96,-124.13 469.96,-120.63 459.96,-117.13 459.96,-124.13"/>
</a>
</g>
</g>
</g>
</svg>

<g id="navigator" transform="translate(0 0)" fill="#404254">
  <rect fill="#f2f5e9" fill-opacity="0.5" stroke="#606060" stroke-width=".5" x="0" y="0" width="60" height="60"/>
  <use id="zoomplus" xlink:href="#zoomPlus" x="17" y="9" onmousedown="handleZoom(evt,'in')"/>
  <use id="zoomminus" xlink:href="#zoomMin" x="42" y="9" onmousedown="handleZoom(evt,'out')"/>
  <use id="reset" xlink:href="#resetDef" x="30" y="36" onmousedown="handleReset()"/>
   <use id="arrowup" xlink:href="#arrowUp" x="0" y="0" onmousedown="handlePan(0,-1)"/>
  <use id="arrowright" xlink:href="#arrowRight" x="0" y="0" onmousedown="handlePan(1,0)"/>
  <use id="arrowdown" xlink:href="#arrowDown" x="0" y="0" onmousedown="handlePan(0,1)"/>
  <use id="arrowleft" xlink:href="#arrowLeft" x="0" y="0" onmousedown="handlePan(-1,0)"/>
</g>
<svg viewBox="0 0 15 15" width="100%" height="30px" preserveAspectRatio="xMaxYMin meet">
 <g id="arrow_out" transform="scale(0.3 0.3)">
  <a xlink:href="class_common_d_b_relation_a8142550614a9fca5712a015e07fcd858_cgraph_org.svg" target="_base">
   <rect id="button" ry="5" rx="5" y="6" x="6" height="38" width="38"
        fill="#f2f5e9" fill-opacity="0.5" stroke="#606060" stroke-width="1.0"/>
   <path id="arrow"
     d="M 11.500037,31.436501 C 11.940474,20.09759 22.043105,11.32322 32.158766,21.979434 L 37.068811,17.246167 C 37.068811,17.246167 37.088388,32 37.088388,32 L 22.160133,31.978069 C 22.160133,31.978069 26.997745,27.140456 26.997745,27.140456 C 18.528582,18.264221 13.291696,25.230495 11.500037,31.436501 z"
     style="fill:#404040;"/>
  </a>
 </g>
</svg>

<style type='text/css'>
<![CDATA[
[data-mouse-over-selected='false'] { opacity: 0.7; }
[data-mouse-over-selected='true']  { opacity: 1.0; }
]]>
</style>
<script type="application/ecmascript"><![CDATA[
document.addEventListener('DOMContentLoaded', (event) => {
  highlightEdges();
  highlightAdjacentNodes();
});
]]></script>
</svg>
