<?xml version="1.0" encoding="UTF-8" standalone="no"?>
<!DOCTYPE svg PUBLIC "-//W3C//DTD SVG 1.1//EN"
 "http://www.w3.org/Graphics/SVG/1.1/DTD/svg11.dtd">
<!-- Generated by graphviz version 10.0.1 (20240210.2158)
 -->
<!-- Title: reason Pages: 1 -->
<svg width="129pt" height="45pt"
 viewBox="0.00 0.00 129.25 45.25" xmlns="http://www.w3.org/2000/svg" xmlns:xlink="http://www.w3.org/1999/xlink">
<g id="graph0" class="graph" transform="scale(1 1) rotate(0) translate(4 41.25)">
<title>reason</title>
<!-- Node1 -->
<g id="Node000001" class="node">
<title>Node1</title>
<g id="a_Node000001"><a xlink:title=" ">
<polygon fill="#999999" stroke="#666666" points="121.25,-19.25 76,-19.25 76,0 121.25,0 121.25,-19.25"/>
<text text-anchor="middle" x="98.62" y="-5.75" font-family="Helvetica,sans-Serif" font-size="10.00">reason</text>
</a>
</g>
</g>
<!-- Node1&#45;&gt;Node1 -->
<g id="edge2_Node000001_Node000001" class="edge">
<title>Node1&#45;&gt;Node1</title>
<g id="a_edge2_Node000001_Node000001"><a xlink:title=" ">
<path fill="none" stroke="#63b8ff" d="M112.58,-30.65C110.84,-34.53 106.18,-37.25 98.62,-37.25 84.8,-37.25 80.7,-28.15 86.32,-19.54"/>
<polygon fill="#63b8ff" stroke="#63b8ff" points="116.08,-30.41 111.16,-21.04 109.16,-31.44 116.08,-30.41"/>
</a>
</g>
</g>
<!-- Node2 -->
<g id="Node000002" class="node">
<title>Node2</title>
<g id="a_Node000002"><a xlink:href="class_simple_pie___h_t_t_p___parser.html#a38d99acc70a1d8fd8f94455743b2d237" target="_top" xlink:title=" ">
<polygon fill="white" stroke="#666666" points="40,-19.25 0,-19.25 0,0 40,0 40,-19.25"/>
<text text-anchor="middle" x="20" y="-5.75" font-family="Helvetica,sans-Serif" font-size="10.00">parse</text>
</a>
</g>
</g>
<!-- Node1&#45;&gt;Node2 -->
<g id="edge1_Node000001_Node000002" class="edge">
<title>Node1&#45;&gt;Node2</title>
<g id="a_edge1_Node000001_Node000002"><a xlink:title=" ">
<path fill="none" stroke="#63b8ff" d="M64.61,-9.62C56.37,-9.62 47.8,-9.62 40.45,-9.62"/>
<polygon fill="#63b8ff" stroke="#63b8ff" points="64.36,-13.13 74.36,-9.63 64.36,-6.13 64.36,-13.13"/>
</a>
</g>
</g>
</g>
</svg>
