<?xml version="1.0" encoding="UTF-8" standalone="no"?>
<!DOCTYPE svg PUBLIC "-//W3C//DTD SVG 1.1//EN"
 "http://www.w3.org/Graphics/SVG/1.1/DTD/svg11.dtd">
<!-- Generated by graphviz version 10.0.1 (20240210.2158)
 -->
<!-- Title: getFromDBForItemAndUser Pages: 1 -->
<svg width="450pt" height="27pt"
 viewBox="0.00 0.00 449.75 27.25" xmlns="http://www.w3.org/2000/svg" xmlns:xlink="http://www.w3.org/1999/xlink">
<g id="graph0" class="graph" transform="scale(1 1) rotate(0) translate(4 23.25)">
<title>getFromDBForItemAndUser</title>
<!-- Node1 -->
<g id="Node000001" class="node">
<title>Node1</title>
<g id="a_Node000001"><a xlink:title=" ">
<polygon fill="#999999" stroke="#666666" points="138.25,-19.25 0,-19.25 0,0 138.25,0 138.25,-19.25"/>
<text text-anchor="middle" x="69.12" y="-5.75" font-family="Helvetica,sans-Serif" font-size="10.00">getFromDBForItemAndUser</text>
</a>
</g>
</g>
<!-- Node2 -->
<g id="Node000002" class="node">
<title>Node2</title>
<g id="a_Node000002"><a xlink:href="class_common_d_b_t_m.html#a581a21ebf625fb327fd53c86f84b66d1" target="_top" xlink:title=" ">
<polygon fill="white" stroke="#666666" points="298.25,-19.25 174.25,-19.25 174.25,0 298.25,0 298.25,-19.25"/>
<text text-anchor="middle" x="236.25" y="-5.75" font-family="Helvetica,sans-Serif" font-size="10.00">CommonDBTM\getTable</text>
</a>
</g>
</g>
<!-- Node1&#45;&gt;Node2 -->
<g id="edge1_Node000001_Node000002" class="edge">
<title>Node1&#45;&gt;Node2</title>
<g id="a_edge1_Node000001_Node000002"><a xlink:title=" ">
<path fill="none" stroke="#63b8ff" d="M138.72,-9.62C146.58,-9.62 154.61,-9.62 162.52,-9.62"/>
<polygon fill="#63b8ff" stroke="#63b8ff" points="162.47,-13.13 172.47,-9.63 162.47,-6.13 162.47,-13.13"/>
</a>
</g>
</g>
<!-- Node3 -->
<g id="Node000003" class="node">
<title>Node3</title>
<g id="a_Node000003"><a xlink:href="db_8function_8php.html#af5d54dd0f42dddbdb9951111643af5f6" target="_top" xlink:title=" ">
<polygon fill="white" stroke="#666666" points="441.75,-19.25 334.25,-19.25 334.25,0 441.75,0 441.75,-19.25"/>
<text text-anchor="middle" x="388" y="-5.75" font-family="Helvetica,sans-Serif" font-size="10.00">getTableForItemType</text>
</a>
</g>
</g>
<!-- Node2&#45;&gt;Node3 -->
<g id="edge2_Node000002_Node000003" class="edge">
<title>Node2&#45;&gt;Node3</title>
<g id="a_edge2_Node000002_Node000003"><a xlink:title=" ">
<path fill="none" stroke="#63b8ff" d="M298.59,-9.62C306.61,-9.62 314.84,-9.62 322.9,-9.62"/>
<polygon fill="#63b8ff" stroke="#63b8ff" points="322.62,-13.13 332.62,-9.63 322.62,-6.13 322.62,-13.13"/>
</a>
</g>
</g>
</g>
</svg>
