<?xml version="1.0" encoding="UTF-8" standalone="no"?>
<!DOCTYPE svg PUBLIC "-//W3C//DTD SVG 1.1//EN"
 "http://www.w3.org/Graphics/SVG/1.1/DTD/svg11.dtd">
<!-- Generated by graphviz version 10.0.1 (20240210.2158)
 -->
<!-- Title: SupportedMethodSet Pages: 1 -->
<svg width="254pt" height="246pt"
 viewBox="0.00 0.00 254.00 246.00" xmlns="http://www.w3.org/2000/svg" xmlns:xlink="http://www.w3.org/1999/xlink">

<svg id="main" version="1.1" xmlns="http://www.w3.org/2000/svg" xmlns:xlink="http://www.w3.org/1999/xlink" xml:space="preserve" onload="init(evt)">
<style type="text/css"><![CDATA[
.node, .edge {opacity: 0.7;}
.node.selected, .edge.selected {opacity: 1;}
.edge:hover path { stroke: red; }
.edge:hover polygon { stroke: red; fill: red; }
]]></style>
<script type="application/ecmascript" xlink:href="svg.min.js"/>
<svg id="graph" class="graph">
<g id="graph0" class="graph" transform="scale(1 1) rotate(0) translate(4 242)">
<title>SupportedMethodSet</title>
<!-- Node1 -->
<g id="Node000001" class="node">
<title>Node1</title>
<g id="a_Node000001"><a xlink:title=" ">
<polygon fill="#999999" stroke="none" points="180,-142 51,-142 51,0 180,0 180,-142"/>
<text text-anchor="start" x="69.75" y="-128.5" font-family="Helvetica,sans-Serif" font-size="10.00">SupportedMethodSet</text>
<text text-anchor="start" x="55.38" y="-113.5" font-family="Helvetica,sans-Serif" font-size="10.00">#</text>
<text text-anchor="start" x="65" y="-113.5" font-family="Helvetica,sans-Serif" font-size="10.00">$methods</text>
<text text-anchor="start" x="55" y="-98.5" font-family="Helvetica,sans-Serif" font-size="10.00">+</text>
<text text-anchor="start" x="65" y="-98.5" font-family="Helvetica,sans-Serif" font-size="10.00">__construct(array</text>
<text text-anchor="start" x="65" y="-87.25" font-family="Helvetica,sans-Serif" font-size="10.00"> $methods)</text>
<text text-anchor="start" x="55" y="-72.5" font-family="Helvetica,sans-Serif" font-size="10.00">+</text>
<text text-anchor="start" x="65" y="-72.5" font-family="Helvetica,sans-Serif" font-size="10.00">getValue()</text>
<text text-anchor="start" x="55" y="-57.5" font-family="Helvetica,sans-Serif" font-size="10.00">+</text>
<text text-anchor="start" x="65" y="-57.5" font-family="Helvetica,sans-Serif" font-size="10.00">has($methodName)</text>
<text text-anchor="start" x="55" y="-42.5" font-family="Helvetica,sans-Serif" font-size="10.00">+</text>
<text text-anchor="start" x="65" y="-42.5" font-family="Helvetica,sans-Serif" font-size="10.00">xmlSerialize(Writer</text>
<text text-anchor="start" x="65" y="-31.25" font-family="Helvetica,sans-Serif" font-size="10.00"> $writer)</text>
<text text-anchor="start" x="55" y="-16.5" font-family="Helvetica,sans-Serif" font-size="10.00">+</text>
<text text-anchor="start" x="65" y="-16.5" font-family="Helvetica,sans-Serif" font-size="10.00">toHtml(HtmlOutputHelper</text>
<text text-anchor="start" x="65" y="-5.25" font-family="Helvetica,sans-Serif" font-size="10.00"> $html)</text>
<polygon fill="#666666" stroke="#666666" points="51,-125 51,-125 180,-125 180,-125 51,-125"/>
<polygon fill="#666666" stroke="#666666" points="51,-110 51,-110 63,-110 63,-110 51,-110"/>
<polygon fill="#666666" stroke="#666666" points="63,-110 63,-110 180,-110 180,-110 63,-110"/>
<polygon fill="none" stroke="#666666" points="51,0 51,-142 180,-142 180,0 51,0"/>
</a>
</g>
</g>
<!-- Node2 -->
<g id="Node000002" class="node">
<title>Node2</title>
<g id="a_Node000002"><a xlink:href="interface_sabre_1_1_xml_1_1_xml_serializable.html" target="_top" xlink:title=" ">
<polygon fill="white" stroke="none" points="99,-238 0,-238 0,-178 99,-178 99,-238"/>
<text text-anchor="start" x="15.75" y="-224.5" font-family="Helvetica,sans-Serif" font-size="10.00">XmlSerializable</text>
<text text-anchor="start" x="48" y="-209.5" font-family="Helvetica,sans-Serif" font-size="10.00"> </text>
<text text-anchor="start" x="4" y="-194.5" font-family="Helvetica,sans-Serif" font-size="10.00">+</text>
<text text-anchor="start" x="14" y="-194.5" font-family="Helvetica,sans-Serif" font-size="10.00">xmlSerialize(Writer</text>
<text text-anchor="start" x="14" y="-183.25" font-family="Helvetica,sans-Serif" font-size="10.00"> $writer)</text>
<polygon fill="#666666" stroke="#666666" points="0,-221 0,-221 99,-221 99,-221 0,-221"/>
<polygon fill="#666666" stroke="#666666" points="0,-206 0,-206 99,-206 99,-206 0,-206"/>
<polygon fill="none" stroke="#666666" points="0,-178 0,-238 99,-238 99,-178 0,-178"/>
</a>
</g>
</g>
<!-- Node2&#45;&gt;Node1 -->
<g id="edge1_Node000001_Node000002" class="edge">
<title>Node2&#45;&gt;Node1</title>
<g id="a_edge1_Node000001_Node000002"><a xlink:title=" ">
<path fill="none" stroke="#63b8ff" d="M68.68,-167.78C72.65,-159.64 76.96,-150.83 81.29,-141.97"/>
<polygon fill="none" stroke="#63b8ff" points="65.57,-166.16 64.32,-176.68 71.86,-169.23 65.57,-166.16"/>
</a>
</g>
</g>
<!-- Node3 -->
<g id="Node000003" class="node">
<title>Node3</title>
<g id="a_Node000003"><a xlink:href="interface_sabre_1_1_d_a_v_1_1_browser_1_1_html_output.html" target="_top" xlink:title=" ">
<polygon fill="white" stroke="none" points="246,-238 117,-238 117,-178 246,-178 246,-238"/>
<text text-anchor="start" x="156.38" y="-224.5" font-family="Helvetica,sans-Serif" font-size="10.00">HtmlOutput</text>
<text text-anchor="start" x="180" y="-209.5" font-family="Helvetica,sans-Serif" font-size="10.00"> </text>
<text text-anchor="start" x="121" y="-194.5" font-family="Helvetica,sans-Serif" font-size="10.00">+</text>
<text text-anchor="start" x="131" y="-194.5" font-family="Helvetica,sans-Serif" font-size="10.00">toHtml(HtmlOutputHelper</text>
<text text-anchor="start" x="131" y="-183.25" font-family="Helvetica,sans-Serif" font-size="10.00"> $html)</text>
<polygon fill="#666666" stroke="#666666" points="117,-221 117,-221 246,-221 246,-221 117,-221"/>
<polygon fill="#666666" stroke="#666666" points="117,-206 117,-206 246,-206 246,-206 117,-206"/>
<polygon fill="none" stroke="#666666" points="117,-178 117,-238 246,-238 246,-178 117,-178"/>
</a>
</g>
</g>
<!-- Node3&#45;&gt;Node1 -->
<g id="edge2_Node000001_Node000003" class="edge">
<title>Node3&#45;&gt;Node1</title>
<g id="a_edge2_Node000001_Node000003"><a xlink:title=" ">
<path fill="none" stroke="#63b8ff" d="M162.32,-167.78C158.35,-159.64 154.04,-150.83 149.71,-141.97"/>
<polygon fill="none" stroke="#63b8ff" points="159.14,-169.23 166.68,-176.68 165.43,-166.16 159.14,-169.23"/>
</a>
</g>
</g>
</g>
</svg>
</svg>

<style type='text/css'>
<![CDATA[
[data-mouse-over-selected='false'] { opacity: 0.7; }
[data-mouse-over-selected='true']  { opacity: 1.0; }
]]>
</style>
<script type="application/ecmascript"><![CDATA[
document.addEventListener('DOMContentLoaded', (event) => {
  highlightEdges();
  highlightAdjacentNodes();
});
]]></script>
</svg>
