<?xml version="1.0" encoding="UTF-8" standalone="no"?>
<!DOCTYPE svg PUBLIC "-//W3C//DTD SVG 1.1//EN"
 "http://www.w3.org/Graphics/SVG/1.1/DTD/svg11.dtd">
<!-- Generated by graphviz version 10.0.1 (20240210.2158)
 -->
<!-- Title: HtmlExtension Pages: 1 -->
<!--zoomable 663 -->

<svg id="main" version="1.1" xmlns="http://www.w3.org/2000/svg" xmlns:xlink="http://www.w3.org/1999/xlink" xml:space="preserve" onload="init(evt)">
<style type="text/css"><![CDATA[
.node, .edge {opacity: 0.7;}
.node.selected, .edge.selected {opacity: 1;}
.edge:hover path { stroke: red; }
.edge:hover polygon { stroke: red; fill: red; }
]]></style>

<defs>
  <circle id="rim" cx="0" cy="0" r="7"/>
  <circle id="rim2" cx="0" cy="0" r="3.5"/>
  <g id="zoomPlus">
    <use xlink:href="#rim" fill="#404040"><set attributeName="fill" to="#808080" begin="zoomplus.mouseover" end="zoomplus.mouseout"/></use>
    <path d="M-4,0h8M0,-4v8" fill="none" stroke="white" stroke-width="1.5" pointer-events="none"/>
  </g>
  <g id="zoomMin">
    <use xlink:href="#rim" fill="#404040"><set attributeName="fill" to="#808080" begin="zoomminus.mouseover" end="zoomminus.mouseout"/></use>
    <path d="M-4,0h8" fill="none" stroke="white" stroke-width="1.5" pointer-events="none"/>
  </g>
  <g id="arrowUp" transform="translate(30 24)">
    <use xlink:href="#rim"/>
    <path pointer-events="none" fill="none" stroke="white" stroke-width="1.5" d="M0,-3.0v7 M-2.5,-0.5L0,-3.0L2.5,-0.5"/>
  </g>
  <g id="arrowRight" transform="rotate(90) translate(36 -43)">
    <use xlink:href="#rim"/>
    <path pointer-events="none" fill="none" stroke="white" stroke-width="1.5" d="M0,-3.0v7 M-2.5,-0.5L0,-3.0L2.5,-0.5"/>
  </g>
  <g id="arrowDown" transform="rotate(180) translate(-30 -48)">
    <use xlink:href="#rim"/>
    <path pointer-events="none" fill="none" stroke="white" stroke-width="1.5" d="M0,-3.0v7 M-2.5,-0.5L0,-3.0L2.5,-0.5"/>
  </g>
  <g id="arrowLeft" transform="rotate(270) translate(-36 17)">
    <use xlink:href="#rim"/>
    <path pointer-events="none" fill="none" stroke="white" stroke-width="1.5" d="M0,-3.0v7 M-2.5,-0.5L0,-3.0L2.5,-0.5"/>
  </g>
  <g id="resetDef">
    <use xlink:href="#rim2" fill="#404040"><set attributeName="fill" to="#808080" begin="reset.mouseover" end="reset.mouseout"/></use>
  </g>
</defs>
<script type="application/ecmascript">
var viewWidth = 170;
var viewHeight = 663;
var sectionId = 'dynsection-1';
</script>
<script type="application/ecmascript" xlink:href="svg.min.js"/>
<svg id="graph" class="graph">
<g id="viewport">
<title>HtmlExtension</title>
<!-- Node1 -->
<g id="Node000001" class="node">
<title>Node1</title>
<g id="a_Node000001"><a xlink:title=" ">
<polygon fill="#999999" stroke="none" points="153,-350 9,-350 9,0 153,0 153,-350"/>
<text text-anchor="start" x="48.75" y="-336.5" font-family="Helvetica,sans-Serif" font-size="10.00">HtmlExtension</text>
<text text-anchor="start" x="79.5" y="-321.5" font-family="Helvetica,sans-Serif" font-size="10.00"> </text>
<text text-anchor="start" x="13" y="-306.5" font-family="Helvetica,sans-Serif" font-size="10.00">+</text>
<text text-anchor="start" x="23" y="-306.5" font-family="Helvetica,sans-Serif" font-size="10.00">__construct(Translator</text>
<text text-anchor="start" x="23" y="-295.25" font-family="Helvetica,sans-Serif" font-size="10.00"> $translator)</text>
<text text-anchor="start" x="13" y="-280.5" font-family="Helvetica,sans-Serif" font-size="10.00">+</text>
<text text-anchor="start" x="23" y="-280.5" font-family="Helvetica,sans-Serif" font-size="10.00">getPseudoClassTranslators()</text>
<text text-anchor="start" x="13" y="-265.5" font-family="Helvetica,sans-Serif" font-size="10.00">+</text>
<text text-anchor="start" x="23" y="-265.5" font-family="Helvetica,sans-Serif" font-size="10.00">getFunctionTranslators()</text>
<text text-anchor="start" x="13" y="-250.5" font-family="Helvetica,sans-Serif" font-size="10.00">+</text>
<text text-anchor="start" x="23" y="-250.5" font-family="Helvetica,sans-Serif" font-size="10.00">translateChecked(XPathExpr</text>
<text text-anchor="start" x="23" y="-239.25" font-family="Helvetica,sans-Serif" font-size="10.00"> $xpath)</text>
<text text-anchor="start" x="13" y="-224.5" font-family="Helvetica,sans-Serif" font-size="10.00">+</text>
<text text-anchor="start" x="23" y="-224.5" font-family="Helvetica,sans-Serif" font-size="10.00">translateLink(XPathExpr</text>
<text text-anchor="start" x="23" y="-213.25" font-family="Helvetica,sans-Serif" font-size="10.00"> $xpath)</text>
<text text-anchor="start" x="13" y="-198.5" font-family="Helvetica,sans-Serif" font-size="10.00">+</text>
<text text-anchor="start" x="23" y="-198.5" font-family="Helvetica,sans-Serif" font-size="10.00">translateDisabled</text>
<text text-anchor="start" x="23" y="-187.25" font-family="Helvetica,sans-Serif" font-size="10.00">(XPathExpr $xpath)</text>
<text text-anchor="start" x="13" y="-172.5" font-family="Helvetica,sans-Serif" font-size="10.00">+</text>
<text text-anchor="start" x="23" y="-172.5" font-family="Helvetica,sans-Serif" font-size="10.00">translateEnabled(XPathExpr</text>
<text text-anchor="start" x="23" y="-161.25" font-family="Helvetica,sans-Serif" font-size="10.00"> $xpath)</text>
<text text-anchor="start" x="13" y="-146.5" font-family="Helvetica,sans-Serif" font-size="10.00">+</text>
<text text-anchor="start" x="23" y="-146.5" font-family="Helvetica,sans-Serif" font-size="10.00">translateLang(XPathExpr</text>
<text text-anchor="start" x="23" y="-135.25" font-family="Helvetica,sans-Serif" font-size="10.00"> $xpath, FunctionNode </text>
<text text-anchor="start" x="23" y="-124" font-family="Helvetica,sans-Serif" font-size="10.00">$function)</text>
<text text-anchor="start" x="13" y="-109.5" font-family="Helvetica,sans-Serif" font-size="10.00">+</text>
<text text-anchor="start" x="23" y="-109.5" font-family="Helvetica,sans-Serif" font-size="10.00">translateSelected</text>
<text text-anchor="start" x="23" y="-98.25" font-family="Helvetica,sans-Serif" font-size="10.00">(XPathExpr $xpath)</text>
<text text-anchor="start" x="13" y="-83.5" font-family="Helvetica,sans-Serif" font-size="10.00">+</text>
<text text-anchor="start" x="23" y="-83.5" font-family="Helvetica,sans-Serif" font-size="10.00">translateInvalid(XPathExpr</text>
<text text-anchor="start" x="23" y="-72.25" font-family="Helvetica,sans-Serif" font-size="10.00"> $xpath)</text>
<text text-anchor="start" x="13" y="-57.5" font-family="Helvetica,sans-Serif" font-size="10.00">+</text>
<text text-anchor="start" x="23" y="-57.5" font-family="Helvetica,sans-Serif" font-size="10.00">translateHover(XPathExpr</text>
<text text-anchor="start" x="23" y="-46.25" font-family="Helvetica,sans-Serif" font-size="10.00"> $xpath)</text>
<text text-anchor="start" x="13" y="-31.5" font-family="Helvetica,sans-Serif" font-size="10.00">+</text>
<text text-anchor="start" x="23" y="-31.5" font-family="Helvetica,sans-Serif" font-size="10.00">translateVisited(XPathExpr</text>
<text text-anchor="start" x="23" y="-20.25" font-family="Helvetica,sans-Serif" font-size="10.00"> $xpath)</text>
<text text-anchor="start" x="13" y="-5.5" font-family="Helvetica,sans-Serif" font-size="10.00">+</text>
<text text-anchor="start" x="23" y="-5.5" font-family="Helvetica,sans-Serif" font-size="10.00">getName()</text>
<polygon fill="#666666" stroke="#666666" points="9,-333 9,-333 153,-333 153,-333 9,-333"/>
<polygon fill="#666666" stroke="#666666" points="9,-318 9,-318 153,-318 153,-318 9,-318"/>
<polygon fill="none" stroke="#666666" points="9,0 9,-350 153,-350 153,0 9,0"/>
</a>
</g>
</g>
<!-- Node2 -->
<g id="Node000002" class="node">
<title>Node2</title>
<g id="a_Node000002"><a xlink:href="class_symfony_1_1_component_1_1_css_selector_1_1_x_path_1_1_extension_1_1_abstract_extension.html" target="_top" xlink:title=" ">
<polygon fill="white" stroke="none" points="162,-495 0,-495 0,-386 162,-386 162,-495"/>
<text text-anchor="start" x="40.88" y="-481.5" font-family="Helvetica,sans-Serif" font-size="10.00">AbstractExtension</text>
<text text-anchor="start" x="79.5" y="-466.5" font-family="Helvetica,sans-Serif" font-size="10.00"> </text>
<text text-anchor="start" x="4" y="-451.5" font-family="Helvetica,sans-Serif" font-size="10.00">+</text>
<text text-anchor="start" x="14" y="-451.5" font-family="Helvetica,sans-Serif" font-size="10.00">getNodeTranslators()</text>
<text text-anchor="start" x="4" y="-436.5" font-family="Helvetica,sans-Serif" font-size="10.00">+</text>
<text text-anchor="start" x="14" y="-436.5" font-family="Helvetica,sans-Serif" font-size="10.00">getCombinationTranslators()</text>
<text text-anchor="start" x="4" y="-421.5" font-family="Helvetica,sans-Serif" font-size="10.00">+</text>
<text text-anchor="start" x="14" y="-421.5" font-family="Helvetica,sans-Serif" font-size="10.00">getFunctionTranslators()</text>
<text text-anchor="start" x="4" y="-406.5" font-family="Helvetica,sans-Serif" font-size="10.00">+</text>
<text text-anchor="start" x="14" y="-406.5" font-family="Helvetica,sans-Serif" font-size="10.00">getPseudoClassTranslators()</text>
<text text-anchor="start" x="4" y="-391.5" font-family="Helvetica,sans-Serif" font-size="10.00">+</text>
<text text-anchor="start" x="14" y="-391.5" font-family="Helvetica,sans-Serif" font-size="10.00">getAttributeMatchingTranslators()</text>
<polygon fill="#666666" stroke="#666666" points="0,-478 0,-478 162,-478 162,-478 0,-478"/>
<polygon fill="#666666" stroke="#666666" points="0,-463 0,-463 162,-463 162,-463 0,-463"/>
<polygon fill="none" stroke="#666666" points="0,-386 0,-495 162,-495 162,-386 0,-386"/>
</a>
</g>
</g>
<!-- Node2&#45;&gt;Node1 -->
<g id="edge1_Node000001_Node000002" class="edge">
<title>Node2&#45;&gt;Node1</title>
<g id="a_edge1_Node000001_Node000002"><a xlink:title=" ">
<path fill="none" stroke="#63b8ff" d="M81,-374.86C81,-366.91 81,-358.51 81,-349.84"/>
<polygon fill="none" stroke="#63b8ff" points="77.5,-374.66 81,-384.66 84.5,-374.66 77.5,-374.66"/>
</a>
</g>
</g>
<!-- Node3 -->
<g id="Node000003" class="node">
<title>Node3</title>
<g id="a_Node000003"><a xlink:href="interface_symfony_1_1_component_1_1_css_selector_1_1_x_path_1_1_extension_1_1_extension_interface.html" target="_top" xlink:title=" ">
<polygon fill="white" stroke="none" points="162,-655 0,-655 0,-531 162,-531 162,-655"/>
<text text-anchor="start" x="40.12" y="-641.5" font-family="Helvetica,sans-Serif" font-size="10.00">ExtensionInterface</text>
<text text-anchor="start" x="79.5" y="-626.5" font-family="Helvetica,sans-Serif" font-size="10.00"> </text>
<text text-anchor="start" x="4" y="-611.5" font-family="Helvetica,sans-Serif" font-size="10.00">+</text>
<text text-anchor="start" x="14" y="-611.5" font-family="Helvetica,sans-Serif" font-size="10.00">getNodeTranslators()</text>
<text text-anchor="start" x="4" y="-596.5" font-family="Helvetica,sans-Serif" font-size="10.00">+</text>
<text text-anchor="start" x="14" y="-596.5" font-family="Helvetica,sans-Serif" font-size="10.00">getCombinationTranslators()</text>
<text text-anchor="start" x="4" y="-581.5" font-family="Helvetica,sans-Serif" font-size="10.00">+</text>
<text text-anchor="start" x="14" y="-581.5" font-family="Helvetica,sans-Serif" font-size="10.00">getFunctionTranslators()</text>
<text text-anchor="start" x="4" y="-566.5" font-family="Helvetica,sans-Serif" font-size="10.00">+</text>
<text text-anchor="start" x="14" y="-566.5" font-family="Helvetica,sans-Serif" font-size="10.00">getPseudoClassTranslators()</text>
<text text-anchor="start" x="4" y="-551.5" font-family="Helvetica,sans-Serif" font-size="10.00">+</text>
<text text-anchor="start" x="14" y="-551.5" font-family="Helvetica,sans-Serif" font-size="10.00">getAttributeMatchingTranslators()</text>
<text text-anchor="start" x="4" y="-536.5" font-family="Helvetica,sans-Serif" font-size="10.00">+</text>
<text text-anchor="start" x="14" y="-536.5" font-family="Helvetica,sans-Serif" font-size="10.00">getName()</text>
<polygon fill="#666666" stroke="#666666" points="0,-638 0,-638 162,-638 162,-638 0,-638"/>
<polygon fill="#666666" stroke="#666666" points="0,-623 0,-623 162,-623 162,-623 0,-623"/>
<polygon fill="none" stroke="#666666" points="0,-531 0,-655 162,-655 162,-531 0,-531"/>
</a>
</g>
</g>
<!-- Node3&#45;&gt;Node2 -->
<g id="edge2_Node000002_Node000003" class="edge">
<title>Node3&#45;&gt;Node2</title>
<g id="a_edge2_Node000002_Node000003"><a xlink:title=" ">
<path fill="none" stroke="#63b8ff" d="M81,-519.79C81,-511.35 81,-502.87 81,-494.76"/>
<polygon fill="none" stroke="#63b8ff" points="77.5,-519.71 81,-529.71 84.5,-519.71 77.5,-519.71"/>
</a>
</g>
</g>
</g>
</svg>

<g id="navigator" transform="translate(0 0)" fill="#404254">
  <rect fill="#f2f5e9" fill-opacity="0.5" stroke="#606060" stroke-width=".5" x="0" y="0" width="60" height="60"/>
  <use id="zoomplus" xlink:href="#zoomPlus" x="17" y="9" onmousedown="handleZoom(evt,'in')"/>
  <use id="zoomminus" xlink:href="#zoomMin" x="42" y="9" onmousedown="handleZoom(evt,'out')"/>
  <use id="reset" xlink:href="#resetDef" x="30" y="36" onmousedown="handleReset()"/>
   <use id="arrowup" xlink:href="#arrowUp" x="0" y="0" onmousedown="handlePan(0,-1)"/>
  <use id="arrowright" xlink:href="#arrowRight" x="0" y="0" onmousedown="handlePan(1,0)"/>
  <use id="arrowdown" xlink:href="#arrowDown" x="0" y="0" onmousedown="handlePan(0,1)"/>
  <use id="arrowleft" xlink:href="#arrowLeft" x="0" y="0" onmousedown="handlePan(-1,0)"/>
</g>
<svg viewBox="0 0 15 15" width="100%" height="30px" preserveAspectRatio="xMaxYMin meet">
 <g id="arrow_out" transform="scale(0.3 0.3)">
  <a xlink:href="class_symfony_1_1_component_1_1_css_selector_1_1_x_path_1_1_extension_1_1_html_extension__coll__graph_org.svg" target="_base">
   <rect id="button" ry="5" rx="5" y="6" x="6" height="38" width="38"
        fill="#f2f5e9" fill-opacity="0.5" stroke="#606060" stroke-width="1.0"/>
   <path id="arrow"
     d="M 11.500037,31.436501 C 11.940474,20.09759 22.043105,11.32322 32.158766,21.979434 L 37.068811,17.246167 C 37.068811,17.246167 37.088388,32 37.088388,32 L 22.160133,31.978069 C 22.160133,31.978069 26.997745,27.140456 26.997745,27.140456 C 18.528582,18.264221 13.291696,25.230495 11.500037,31.436501 z"
     style="fill:#404040;"/>
  </a>
 </g>
</svg>

<style type='text/css'>
<![CDATA[
[data-mouse-over-selected='false'] { opacity: 0.7; }
[data-mouse-over-selected='true']  { opacity: 1.0; }
]]>
</style>
<script type="application/ecmascript"><![CDATA[
document.addEventListener('DOMContentLoaded', (event) => {
  highlightEdges();
  highlightAdjacentNodes();
});
]]></script>
</svg>
