<?xml version="1.0" encoding="UTF-8" standalone="no"?>
<!DOCTYPE svg PUBLIC "-//W3C//DTD SVG 1.1//EN"
 "http://www.w3.org/Graphics/SVG/1.1/DTD/svg11.dtd">
<!-- Generated by graphviz version 10.0.1 (20240210.2158)
 -->
<!-- Title: canAddItem Pages: 1 -->
<!--zoomable 439 -->

<svg id="main" version="1.1" xmlns="http://www.w3.org/2000/svg" xmlns:xlink="http://www.w3.org/1999/xlink" xml:space="preserve" onload="init(evt)">
<style type="text/css"><![CDATA[
.node, .edge {opacity: 0.7;}
.node.selected, .edge.selected {opacity: 1;}
.edge:hover path { stroke: red; }
.edge:hover polygon { stroke: red; fill: red; }
]]></style>

<defs>
  <circle id="rim" cx="0" cy="0" r="7"/>
  <circle id="rim2" cx="0" cy="0" r="3.5"/>
  <g id="zoomPlus">
    <use xlink:href="#rim" fill="#404040"><set attributeName="fill" to="#808080" begin="zoomplus.mouseover" end="zoomplus.mouseout"/></use>
    <path d="M-4,0h8M0,-4v8" fill="none" stroke="white" stroke-width="1.5" pointer-events="none"/>
  </g>
  <g id="zoomMin">
    <use xlink:href="#rim" fill="#404040"><set attributeName="fill" to="#808080" begin="zoomminus.mouseover" end="zoomminus.mouseout"/></use>
    <path d="M-4,0h8" fill="none" stroke="white" stroke-width="1.5" pointer-events="none"/>
  </g>
  <g id="arrowUp" transform="translate(30 24)">
    <use xlink:href="#rim"/>
    <path pointer-events="none" fill="none" stroke="white" stroke-width="1.5" d="M0,-3.0v7 M-2.5,-0.5L0,-3.0L2.5,-0.5"/>
  </g>
  <g id="arrowRight" transform="rotate(90) translate(36 -43)">
    <use xlink:href="#rim"/>
    <path pointer-events="none" fill="none" stroke="white" stroke-width="1.5" d="M0,-3.0v7 M-2.5,-0.5L0,-3.0L2.5,-0.5"/>
  </g>
  <g id="arrowDown" transform="rotate(180) translate(-30 -48)">
    <use xlink:href="#rim"/>
    <path pointer-events="none" fill="none" stroke="white" stroke-width="1.5" d="M0,-3.0v7 M-2.5,-0.5L0,-3.0L2.5,-0.5"/>
  </g>
  <g id="arrowLeft" transform="rotate(270) translate(-36 17)">
    <use xlink:href="#rim"/>
    <path pointer-events="none" fill="none" stroke="white" stroke-width="1.5" d="M0,-3.0v7 M-2.5,-0.5L0,-3.0L2.5,-0.5"/>
  </g>
  <g id="resetDef">
    <use xlink:href="#rim2" fill="#404040"><set attributeName="fill" to="#808080" begin="reset.mouseover" end="reset.mouseout"/></use>
  </g>
</defs>
<script type="application/ecmascript">
var viewWidth = 644;
var viewHeight = 439;
var sectionId = 'dynsection-10';
</script>
<script type="application/ecmascript" xlink:href="svg.min.js"/>
<svg id="graph" class="graph">
<g id="viewport">
<title>canAddItem</title>
<!-- Node1 -->
<g id="Node000001" class="node">
<title>Node1</title>
<g id="a_Node000001"><a xlink:title=" ">
<polygon fill="#999999" stroke="#666666" points="68.5,-205.25 0,-205.25 0,-186 68.5,-186 68.5,-205.25"/>
<text text-anchor="middle" x="34.25" y="-191.75" font-family="Helvetica,sans-Serif" font-size="10.00">canAddItem</text>
</a>
</g>
</g>
<!-- Node2 -->
<g id="Node000002" class="node">
<title>Node2</title>
<g id="a_Node000002"><a xlink:href="class_common_d_b_t_m.html#a59be9ea1dca9dfa7b48373f9d60a9332" target="_top" xlink:title=" ">
<polygon fill="white" stroke="#666666" points="140.38,-224.25 108.62,-224.25 108.62,-205 140.38,-205 140.38,-224.25"/>
<text text-anchor="middle" x="124.5" y="-210.75" font-family="Helvetica,sans-Serif" font-size="10.00">can</text>
</a>
</g>
</g>
<!-- Node1&#45;&gt;Node2 -->
<g id="edge1_Node000001_Node000002" class="edge">
<title>Node1&#45;&gt;Node2</title>
<g id="a_edge1_Node000001_Node000002"><a xlink:title=" ">
<path fill="none" stroke="#63b8ff" d="M68.87,-202.86C78.24,-204.88 88.29,-207.04 97.18,-208.96"/>
<polygon fill="#63b8ff" stroke="#63b8ff" points="96.42,-212.38 106.93,-211.06 97.89,-205.53 96.42,-212.38"/>
</a>
</g>
</g>
<!-- Node18 -->
<g id="Node000018" class="node">
<title>Node18</title>
<g id="a_Node000018"><a xlink:href="class_common_d_b_t_m.html#a30dd7fff4fec7a39f9be9d27d4b22a59" target="_top" xlink:title=" ">
<polygon fill="white" stroke="#666666" points="144.5,-187.25 104.5,-187.25 104.5,-168 144.5,-168 144.5,-187.25"/>
<text text-anchor="middle" x="124.5" y="-173.75" font-family="Helvetica,sans-Serif" font-size="10.00">getID</text>
</a>
</g>
</g>
<!-- Node1&#45;&gt;Node18 -->
<g id="edge26_Node000001_Node000018" class="edge">
<title>Node1&#45;&gt;Node18</title>
<g id="a_edge26_Node000001_Node000018"><a xlink:title=" ">
<path fill="none" stroke="#63b8ff" d="M68.87,-188.77C76.76,-187.16 85.13,-185.45 92.88,-183.87"/>
<polygon fill="#63b8ff" stroke="#63b8ff" points="93.45,-187.33 102.55,-181.9 92.05,-180.47 93.45,-187.33"/>
</a>
</g>
</g>
<!-- Node3 -->
<g id="Node000003" class="node">
<title>Node3</title>
<g id="a_Node000003"><a xlink:href="class_common_d_b_t_m.html#aafdbf7eaa1fd9b47b562d0ef84275827" target="_top" xlink:title=" ">
<polygon fill="white" stroke="#666666" points="294.75,-431.25 180.5,-431.25 180.5,-412 294.75,-412 294.75,-431.25"/>
<text text-anchor="middle" x="237.62" y="-417.75" font-family="Helvetica,sans-Serif" font-size="10.00">addNeededInfoToInput</text>
</a>
</g>
</g>
<!-- Node2&#45;&gt;Node3 -->
<g id="edge2_Node000002_Node000003" class="edge">
<title>Node2&#45;&gt;Node3</title>
<g id="a_edge2_Node000002_Node000003"><a xlink:title=" ">
<path fill="none" stroke="#63b8ff" d="M125.66,-224.34C126.67,-254.1 133.63,-345.19 180.5,-397.62 183.35,-400.82 186.7,-403.6 190.32,-406.02"/>
<polygon fill="#63b8ff" stroke="#63b8ff" points="188.6,-409.07 199.04,-410.88 192.01,-402.96 188.6,-409.07"/>
</a>
</g>
</g>
<!-- Node4 -->
<g id="Node000004" class="node">
<title>Node4</title>
<g id="a_Node000004"><a xlink:href="class_common_d_b_t_m.html#a6e182bf28c50698ab7215435ebfc196c" target="_top" xlink:title=" ">
<polygon fill="white" stroke="#666666" points="277.88,-280.25 197.38,-280.25 197.38,-261 277.88,-261 277.88,-280.25"/>
<text text-anchor="middle" x="237.62" y="-266.75" font-family="Helvetica,sans-Serif" font-size="10.00">canCreateItem</text>
</a>
</g>
</g>
<!-- Node2&#45;&gt;Node4 -->
<g id="edge3_Node000002_Node000004" class="edge">
<title>Node2&#45;&gt;Node4</title>
<g id="a_edge3_Node000002_Node000004"><a xlink:title=" ">
<path fill="none" stroke="#63b8ff" d="M137.52,-224.49C148.25,-232.9 164.67,-244.83 180.5,-252.62 183.25,-253.98 186.12,-255.26 189.04,-256.47"/>
<polygon fill="#63b8ff" stroke="#63b8ff" points="187.77,-259.73 198.37,-259.99 190.25,-253.18 187.77,-259.73"/>
</a>
</g>
</g>
<!-- Node6 -->
<g id="Node000006" class="node">
<title>Node6</title>
<g id="a_Node000006"><a xlink:href="class_common_d_b_t_m.html#a1ad0e84aef9bfb7fe28ac6fcafa1b14b" target="_top" xlink:title=" ">
<polygon fill="white" stroke="#666666" points="509.38,-350.25 443.88,-350.25 443.88,-331 509.38,-331 509.38,-350.25"/>
<text text-anchor="middle" x="476.62" y="-336.75" font-family="Helvetica,sans-Serif" font-size="10.00">getEntityID</text>
</a>
</g>
</g>
<!-- Node2&#45;&gt;Node6 -->
<g id="edge20_Node000002_Node000006" class="edge">
<title>Node2&#45;&gt;Node6</title>
<g id="a_edge20_Node000002_Node000006"><a xlink:title=" ">
<path fill="none" stroke="#63b8ff" d="M126.98,-224.6C130.95,-247.31 144.1,-302.73 180.5,-326.62 257.24,-377 370.92,-363.78 432.38,-351.27"/>
<polygon fill="#63b8ff" stroke="#63b8ff" points="433.07,-354.7 442.11,-349.19 431.6,-347.86 433.07,-354.7"/>
</a>
</g>
</g>
<!-- Node7 -->
<g id="Node000007" class="node">
<title>Node7</title>
<g id="a_Node000007"><a xlink:href="class_common_d_b_t_m.html#abd1fba5cbce28a1d30906bebf5b88ead" target="_top" xlink:title=" ">
<polygon fill="white" stroke="#666666" points="630.75,-350.25 551.75,-350.25 551.75,-331 630.75,-331 630.75,-350.25"/>
<text text-anchor="middle" x="591.25" y="-336.75" font-family="Helvetica,sans-Serif" font-size="10.00">isEntityAssign</text>
</a>
</g>
</g>
<!-- Node2&#45;&gt;Node7 -->
<g id="edge21_Node000002_Node000007" class="edge">
<title>Node2&#45;&gt;Node7</title>
<g id="a_edge21_Node000002_Node000007"><a xlink:title=" ">
<path fill="none" stroke="#63b8ff" d="M125.93,-224.71C127.65,-251.51 136.39,-324.67 180.5,-357.62 294.66,-442.92 480.79,-384.45 556.56,-354.88"/>
<polygon fill="#63b8ff" stroke="#63b8ff" points="557.52,-358.26 565.51,-351.3 554.93,-351.76 557.52,-358.26"/>
</a>
</g>
</g>
<!-- Node9 -->
<g id="Node000009" class="node">
<title>Node9</title>
<g id="a_Node000009"><a xlink:href="class_common_d_b_t_m.html#a74710ea062a0f689b4f3a72acbf91a07" target="_top" xlink:title=" ">
<polygon fill="white" stroke="#666666" points="636,-209.25 546.5,-209.25 546.5,-190 636,-190 636,-209.25"/>
<text text-anchor="middle" x="591.25" y="-195.75" font-family="Helvetica,sans-Serif" font-size="10.00">maybeRecursive</text>
</a>
</g>
</g>
<!-- Node2&#45;&gt;Node9 -->
<g id="edge25_Node000002_Node000009" class="edge">
<title>Node2&#45;&gt;Node9</title>
<g id="a_edge25_Node000002_Node000009"><a xlink:title=" ">
<path fill="none" stroke="#63b8ff" d="M136.8,-204.77C139.46,-202.23 142.18,-199.42 144.5,-196.62 163.38,-173.84 154.53,-154.8 180.5,-140.62 308.94,-70.5 492.27,-149.24 561.93,-184.41"/>
<polygon fill="#63b8ff" stroke="#63b8ff" points="560.27,-187.49 570.76,-188.96 563.47,-181.27 560.27,-187.49"/>
</a>
</g>
</g>
<!-- Node10 -->
<g id="Node000010" class="node">
<title>Node10</title>
<g id="a_Node000010"><a xlink:href="class_common_d_b_t_m.html#a8142550614a9fca5712a015e07fcd858" target="_top" xlink:title=" ">
<polygon fill="white" stroke="#666666" points="277.5,-243.25 197.75,-243.25 197.75,-224 277.5,-224 277.5,-243.25"/>
<text text-anchor="middle" x="237.62" y="-229.75" font-family="Helvetica,sans-Serif" font-size="10.00">canDeleteItem</text>
</a>
</g>
</g>
<!-- Node2&#45;&gt;Node10 -->
<g id="edge11_Node000002_Node000010" class="edge">
<title>Node2&#45;&gt;Node10</title>
<g id="a_edge11_Node000002_Node000010"><a xlink:title=" ">
<path fill="none" stroke="#63b8ff" d="M140.49,-217.19C152.33,-219.21 169.58,-222.16 186.2,-225"/>
<polygon fill="#63b8ff" stroke="#63b8ff" points="185.6,-228.45 196.05,-226.69 186.78,-221.55 185.6,-228.45"/>
</a>
</g>
</g>
<!-- Node11 -->
<g id="Node000011" class="node">
<title>Node11</title>
<g id="a_Node000011"><a xlink:href="class_common_d_b_t_m.html#ab84ea04b18accd017906c4277eccdcf5" target="_top" xlink:title=" ">
<polygon fill="white" stroke="#666666" points="276,-206.25 199.25,-206.25 199.25,-187 276,-187 276,-206.25"/>
<text text-anchor="middle" x="237.62" y="-192.75" font-family="Helvetica,sans-Serif" font-size="10.00">canPurgeItem</text>
</a>
</g>
</g>
<!-- Node2&#45;&gt;Node11 -->
<g id="edge13_Node000002_Node000011" class="edge">
<title>Node2&#45;&gt;Node11</title>
<g id="a_edge13_Node000002_Node000011"><a xlink:title=" ">
<path fill="none" stroke="#63b8ff" d="M140.49,-212.2C152.73,-210.21 170.76,-207.29 187.91,-204.52"/>
<polygon fill="#63b8ff" stroke="#63b8ff" points="188.17,-208.02 197.48,-202.96 187.05,-201.11 188.17,-208.02"/>
</a>
</g>
</g>
<!-- Node12 -->
<g id="Node000012" class="node">
<title>Node12</title>
<g id="a_Node000012"><a xlink:href="class_common_d_b_t_m.html#a8875d28d49c7b3a5fe040e3dc894c935" target="_top" xlink:title=" ">
<polygon fill="white" stroke="#666666" points="279,-169.25 196.25,-169.25 196.25,-150 279,-150 279,-169.25"/>
<text text-anchor="middle" x="237.62" y="-155.75" font-family="Helvetica,sans-Serif" font-size="10.00">canUpdateItem</text>
</a>
</g>
</g>
<!-- Node2&#45;&gt;Node12 -->
<g id="edge15_Node000002_Node000012" class="edge">
<title>Node2&#45;&gt;Node12</title>
<g id="a_edge15_Node000002_Node000012"><a xlink:title=" ">
<path fill="none" stroke="#63b8ff" d="M137.99,-204.72C148.75,-196.56 164.97,-185.15 180.5,-177.62 183.39,-176.22 186.42,-174.89 189.5,-173.64"/>
<polygon fill="#63b8ff" stroke="#63b8ff" points="190.55,-176.99 198.69,-170.21 188.1,-170.43 190.55,-176.99"/>
</a>
</g>
</g>
<!-- Node13 -->
<g id="Node000013" class="node">
<title>Node13</title>
<g id="a_Node000013"><a xlink:href="class_common_d_b_t_m.html#ac73fbb33d08471d618cd753ea8a73b75" target="_top" xlink:title=" ">
<polygon fill="white" stroke="#666666" points="274.12,-317.25 201.12,-317.25 201.12,-298 274.12,-298 274.12,-317.25"/>
<text text-anchor="middle" x="237.62" y="-303.75" font-family="Helvetica,sans-Serif" font-size="10.00">canViewItem</text>
</a>
</g>
</g>
<!-- Node2&#45;&gt;Node13 -->
<g id="edge17_Node000002_Node000013" class="edge">
<title>Node2&#45;&gt;Node13</title>
<g id="a_edge17_Node000002_Node000013"><a xlink:title=" ">
<path fill="none" stroke="#63b8ff" d="M130.25,-224.7C138.33,-240.77 156.26,-272.17 180.5,-289.62 183.53,-291.81 186.84,-293.73 190.28,-295.43"/>
<polygon fill="#63b8ff" stroke="#63b8ff" points="188.91,-298.65 199.48,-299.29 191.61,-292.2 188.91,-298.65"/>
</a>
</g>
</g>
<!-- Node14 -->
<g id="Node000014" class="node">
<title>Node14</title>
<g id="a_Node000014"><a xlink:href="class_toolbox.html#af83f6c7e4bbe78a18b1c04a70d143cd7" target="_top" xlink:title=" ">
<polygon fill="white" stroke="#666666" points="290.62,-93.25 184.62,-93.25 184.62,-74 290.62,-74 290.62,-93.25"/>
<text text-anchor="middle" x="237.62" y="-79.75" font-family="Helvetica,sans-Serif" font-size="10.00">Toolbox\cleanInteger</text>
</a>
</g>
</g>
<!-- Node2&#45;&gt;Node14 -->
<g id="edge19_Node000002_Node000014" class="edge">
<title>Node2&#45;&gt;Node14</title>
<g id="a_edge19_Node000002_Node000014"><a xlink:title=" ">
<path fill="none" stroke="#63b8ff" d="M137.59,-204.67C140.09,-202.22 142.55,-199.48 144.5,-196.62 168.54,-161.37 150.63,-138.09 180.5,-107.62 183.66,-104.4 187.33,-101.58 191.25,-99.12"/>
<polygon fill="#63b8ff" stroke="#63b8ff" points="192.84,-102.24 200.01,-94.45 189.54,-96.07 192.84,-102.24"/>
</a>
</g>
</g>
<!-- Node15 -->
<g id="Node000015" class="node">
<title>Node15</title>
<g id="a_Node000015"><a xlink:href="class_common_d_b_t_m.html#a7cb79784c4f52138c643c5e3d276e3aa" target="_top" xlink:title=" ">
<polygon fill="white" stroke="#666666" points="264.75,-56.25 210.5,-56.25 210.5,-37 264.75,-37 264.75,-56.25"/>
<text text-anchor="middle" x="237.62" y="-42.75" font-family="Helvetica,sans-Serif" font-size="10.00">isNewID</text>
</a>
</g>
</g>
<!-- Node2&#45;&gt;Node15 -->
<g id="edge22_Node000002_Node000015" class="edge">
<title>Node2&#45;&gt;Node15</title>
<g id="a_edge22_Node000002_Node000015"><a xlink:title=" ">
<path fill="none" stroke="#63b8ff" d="M137.84,-204.84C140.33,-202.38 142.73,-199.59 144.5,-196.62 175.73,-144.45 138.46,-108.56 180.5,-64.62 185.61,-59.29 192.3,-55.53 199.27,-52.88"/>
<polygon fill="#63b8ff" stroke="#63b8ff" points="200.26,-56.24 208.83,-50.01 198.24,-49.54 200.26,-56.24"/>
</a>
</g>
</g>
<!-- Node16 -->
<g id="Node000016" class="node">
<title>Node16</title>
<g id="a_Node000016"><a xlink:href="class_common_d_b_t_m.html#a55426c7f8596f9fc117210bf5311d4b9" target="_top" xlink:title=" ">
<polygon fill="white" stroke="#666666" points="264.75,-19.25 210.5,-19.25 210.5,0 264.75,0 264.75,-19.25"/>
<text text-anchor="middle" x="237.62" y="-5.75" font-family="Helvetica,sans-Serif" font-size="10.00">isPrivate</text>
</a>
</g>
</g>
<!-- Node2&#45;&gt;Node16 -->
<g id="edge23_Node000002_Node000016" class="edge">
<title>Node2&#45;&gt;Node16</title>
<g id="a_edge23_Node000002_Node000016"><a xlink:title=" ">
<path fill="none" stroke="#63b8ff" d="M138.36,-204.52C140.7,-202.15 142.9,-199.48 144.5,-196.62 182.07,-129.64 128.99,-84.59 180.5,-27.62 185.45,-22.15 192.08,-18.33 199.03,-15.66"/>
<polygon fill="#63b8ff" stroke="#63b8ff" points="200.02,-19.02 208.6,-12.8 198.01,-12.32 200.02,-19.02"/>
</a>
</g>
</g>
<!-- Node5 -->
<g id="Node000005" class="node">
<title>Node5</title>
<g id="a_Node000005"><a xlink:href="class_common_d_b_t_m.html#a4994fe60f4f6b6328091e914c2b681ac" target="_top" xlink:title=" ">
<polygon fill="white" stroke="#666666" points="402.62,-247.25 334.88,-247.25 334.88,-228 402.62,-228 402.62,-247.25"/>
<text text-anchor="middle" x="368.75" y="-233.75" font-family="Helvetica,sans-Serif" font-size="10.00">checkEntity</text>
</a>
</g>
</g>
<!-- Node4&#45;&gt;Node5 -->
<g id="edge4_Node000004_Node000005" class="edge">
<title>Node4&#45;&gt;Node5</title>
<g id="a_edge4_Node000004_Node000005"><a xlink:title=" ">
<path fill="none" stroke="#63b8ff" d="M278.07,-260.54C292.49,-256.86 308.89,-252.67 323.69,-248.89"/>
<polygon fill="#63b8ff" stroke="#63b8ff" points="324.34,-252.33 333.17,-246.46 322.61,-245.55 324.34,-252.33"/>
</a>
</g>
</g>
<!-- Node5&#45;&gt;Node6 -->
<g id="edge5_Node000005_Node000006" class="edge">
<title>Node5&#45;&gt;Node6</title>
<g id="a_edge5_Node000005_Node000006"><a xlink:title=" ">
<path fill="none" stroke="#63b8ff" d="M379.9,-247.5C397.72,-264.84 434.86,-300.97 457.28,-322.78"/>
<polygon fill="#63b8ff" stroke="#63b8ff" points="454.66,-325.11 464.26,-329.57 459.54,-320.09 454.66,-325.11"/>
</a>
</g>
</g>
<!-- Node5&#45;&gt;Node7 -->
<g id="edge7_Node000005_Node000007" class="edge">
<title>Node5&#45;&gt;Node7</title>
<g id="a_edge7_Node000005_Node000007"><a xlink:title=" ">
<path fill="none" stroke="#63b8ff" d="M391.29,-247.69C430.32,-265.92 512.88,-304.48 558.42,-325.76"/>
<polygon fill="#63b8ff" stroke="#63b8ff" points="556.71,-328.82 567.25,-329.88 559.67,-322.48 556.71,-328.82"/>
</a>
</g>
</g>
<!-- Node8 -->
<g id="Node000008" class="node">
<title>Node8</title>
<g id="a_Node000008"><a xlink:href="class_common_d_b_t_m.html#aaa472e233121aa79f3c5c1298b4bc7cb" target="_top" xlink:title=" ">
<polygon fill="white" stroke="#666666" points="510.5,-247.25 442.75,-247.25 442.75,-228 510.5,-228 510.5,-247.25"/>
<text text-anchor="middle" x="476.62" y="-233.75" font-family="Helvetica,sans-Serif" font-size="10.00">isRecursive</text>
</a>
</g>
</g>
<!-- Node5&#45;&gt;Node8 -->
<g id="edge8_Node000005_Node000008" class="edge">
<title>Node5&#45;&gt;Node8</title>
<g id="a_edge8_Node000005_Node000008"><a xlink:title=" ">
<path fill="none" stroke="#63b8ff" d="M402.96,-237.62C411.93,-237.62 421.78,-237.62 431.25,-237.62"/>
<polygon fill="#63b8ff" stroke="#63b8ff" points="431.02,-241.13 441.02,-237.63 431.02,-234.13 431.02,-241.13"/>
</a>
</g>
</g>
<!-- Node5&#45;&gt;Node9 -->
<g id="edge10_Node000005_Node000009" class="edge">
<title>Node5&#45;&gt;Node9</title>
<g id="a_edge10_Node000005_Node000009"><a xlink:title=" ">
<path fill="none" stroke="#63b8ff" d="M402.98,-228.03C415.38,-224.7 429.64,-221.17 442.75,-218.62 473.05,-212.76 507.21,-208.22 535.02,-205.06"/>
<polygon fill="#63b8ff" stroke="#63b8ff" points="535.07,-208.58 544.62,-204 534.3,-201.62 535.07,-208.58"/>
</a>
</g>
</g>
<!-- Node6&#45;&gt;Node7 -->
<g id="edge6_Node000006_Node000007" class="edge">
<title>Node6&#45;&gt;Node7</title>
<g id="a_edge6_Node000006_Node000007"><a xlink:title=" ">
<path fill="none" stroke="#63b8ff" d="M509.6,-340.62C519.05,-340.62 529.63,-340.62 539.94,-340.62"/>
<polygon fill="#63b8ff" stroke="#63b8ff" points="539.88,-344.13 549.88,-340.63 539.88,-337.13 539.88,-344.13"/>
</a>
</g>
</g>
<!-- Node8&#45;&gt;Node9 -->
<g id="edge9_Node000008_Node000009" class="edge">
<title>Node8&#45;&gt;Node9</title>
<g id="a_edge9_Node000008_Node000009"><a xlink:title=" ">
<path fill="none" stroke="#63b8ff" d="M507.51,-227.54C520.47,-223.17 535.84,-217.98 549.8,-213.27"/>
<polygon fill="#63b8ff" stroke="#63b8ff" points="550.83,-216.62 559.18,-210.11 548.59,-209.99 550.83,-216.62"/>
</a>
</g>
</g>
<!-- Node10&#45;&gt;Node5 -->
<g id="edge12_Node000010_Node000005" class="edge">
<title>Node10&#45;&gt;Node5</title>
<g id="a_edge12_Node000010_Node000005"><a xlink:title=" ">
<path fill="none" stroke="#63b8ff" d="M277.72,-234.84C292.01,-235.28 308.28,-235.78 323.03,-236.24"/>
<polygon fill="#63b8ff" stroke="#63b8ff" points="322.84,-239.74 332.94,-236.55 323.06,-232.74 322.84,-239.74"/>
</a>
</g>
</g>
<!-- Node11&#45;&gt;Node5 -->
<g id="edge14_Node000011_Node000005" class="edge">
<title>Node11&#45;&gt;Node5</title>
<g id="a_edge14_Node000011_Node000005"><a xlink:title=" ">
<path fill="none" stroke="#63b8ff" d="M270.21,-206.65C286.78,-211.92 307.31,-218.44 325.26,-224.13"/>
<polygon fill="#63b8ff" stroke="#63b8ff" points="324.01,-227.41 334.6,-227.1 326.13,-220.74 324.01,-227.41"/>
</a>
</g>
</g>
<!-- Node12&#45;&gt;Node5 -->
<g id="edge16_Node000012_Node000005" class="edge">
<title>Node12&#45;&gt;Node5</title>
<g id="a_edge16_Node000012_Node000005"><a xlink:title=" ">
<path fill="none" stroke="#63b8ff" d="M276.87,-169.74C283.02,-171.97 289.18,-174.59 294.75,-177.62 315.54,-188.96 336.1,-206.6 350.08,-219.82"/>
<polygon fill="#63b8ff" stroke="#63b8ff" points="347.55,-222.24 357.16,-226.7 352.43,-217.22 347.55,-222.24"/>
</a>
</g>
</g>
<!-- Node13&#45;&gt;Node5 -->
<g id="edge18_Node000013_Node000005" class="edge">
<title>Node13&#45;&gt;Node5</title>
<g id="a_edge18_Node000013_Node000005"><a xlink:title=" ">
<path fill="none" stroke="#63b8ff" d="M274.61,-297.91C281.45,-295.55 288.44,-292.79 294.75,-289.62 313.74,-280.11 333.23,-265.96 347.29,-254.82"/>
<polygon fill="#63b8ff" stroke="#63b8ff" points="349.35,-257.65 354.91,-248.64 344.94,-252.22 349.35,-257.65"/>
</a>
</g>
</g>
<!-- Node17 -->
<g id="Node000017" class="node">
<title>Node17</title>
<g id="a_Node000017"><a xlink:href="class_common_d_b_t_m.html#a81f675f92c7e501b57eaafe44ceb0e9f" target="_top" xlink:title=" ">
<polygon fill="white" stroke="#666666" points="406.75,-19.25 330.75,-19.25 330.75,0 406.75,0 406.75,-19.25"/>
<text text-anchor="middle" x="368.75" y="-5.75" font-family="Helvetica,sans-Serif" font-size="10.00">maybePrivate</text>
</a>
</g>
</g>
<!-- Node16&#45;&gt;Node17 -->
<g id="edge24_Node000016_Node000017" class="edge">
<title>Node16&#45;&gt;Node17</title>
<g id="a_edge24_Node000016_Node000017"><a xlink:title=" ">
<path fill="none" stroke="#63b8ff" d="M265.07,-9.62C280.64,-9.62 300.81,-9.62 319.15,-9.62"/>
<polygon fill="#63b8ff" stroke="#63b8ff" points="319.06,-13.13 329.06,-9.63 319.06,-6.13 319.06,-13.13"/>
</a>
</g>
</g>
</g>
</svg>

<g id="navigator" transform="translate(0 0)" fill="#404254">
  <rect fill="#f2f5e9" fill-opacity="0.5" stroke="#606060" stroke-width=".5" x="0" y="0" width="60" height="60"/>
  <use id="zoomplus" xlink:href="#zoomPlus" x="17" y="9" onmousedown="handleZoom(evt,'in')"/>
  <use id="zoomminus" xlink:href="#zoomMin" x="42" y="9" onmousedown="handleZoom(evt,'out')"/>
  <use id="reset" xlink:href="#resetDef" x="30" y="36" onmousedown="handleReset()"/>
   <use id="arrowup" xlink:href="#arrowUp" x="0" y="0" onmousedown="handlePan(0,-1)"/>
  <use id="arrowright" xlink:href="#arrowRight" x="0" y="0" onmousedown="handlePan(1,0)"/>
  <use id="arrowdown" xlink:href="#arrowDown" x="0" y="0" onmousedown="handlePan(0,1)"/>
  <use id="arrowleft" xlink:href="#arrowLeft" x="0" y="0" onmousedown="handlePan(-1,0)"/>
</g>
<svg viewBox="0 0 15 15" width="100%" height="30px" preserveAspectRatio="xMaxYMin meet">
 <g id="arrow_out" transform="scale(0.3 0.3)">
  <a xlink:href="class_common_d_b_t_m_a89f2245a9ae902892940c2592056d806_cgraph_org.svg" target="_base">
   <rect id="button" ry="5" rx="5" y="6" x="6" height="38" width="38"
        fill="#f2f5e9" fill-opacity="0.5" stroke="#606060" stroke-width="1.0"/>
   <path id="arrow"
     d="M 11.500037,31.436501 C 11.940474,20.09759 22.043105,11.32322 32.158766,21.979434 L 37.068811,17.246167 C 37.068811,17.246167 37.088388,32 37.088388,32 L 22.160133,31.978069 C 22.160133,31.978069 26.997745,27.140456 26.997745,27.140456 C 18.528582,18.264221 13.291696,25.230495 11.500037,31.436501 z"
     style="fill:#404040;"/>
  </a>
 </g>
</svg>

<style type='text/css'>
<![CDATA[
[data-mouse-over-selected='false'] { opacity: 0.7; }
[data-mouse-over-selected='true']  { opacity: 1.0; }
]]>
</style>
<script type="application/ecmascript"><![CDATA[
document.addEventListener('DOMContentLoaded', (event) => {
  highlightEdges();
  highlightAdjacentNodes();
});
]]></script>
</svg>
