<?xml version="1.0" encoding="UTF-8" standalone="no"?>
<!DOCTYPE svg PUBLIC "-//W3C//DTD SVG 1.1//EN"
 "http://www.w3.org/Graphics/SVG/1.1/DTD/svg11.dtd">
<!-- Generated by graphviz version 10.0.1 (20240210.2158)
 -->
<!-- Title: addTarget Pages: 1 -->
<!--zoomable 626 -->

<svg id="main" version="1.1" xmlns="http://www.w3.org/2000/svg" xmlns:xlink="http://www.w3.org/1999/xlink" xml:space="preserve" onload="init(evt)">
<style type="text/css"><![CDATA[
.node, .edge {opacity: 0.7;}
.node.selected, .edge.selected {opacity: 1;}
.edge:hover path { stroke: red; }
.edge:hover polygon { stroke: red; fill: red; }
]]></style>

<defs>
  <circle id="rim" cx="0" cy="0" r="7"/>
  <circle id="rim2" cx="0" cy="0" r="3.5"/>
  <g id="zoomPlus">
    <use xlink:href="#rim" fill="#404040"><set attributeName="fill" to="#808080" begin="zoomplus.mouseover" end="zoomplus.mouseout"/></use>
    <path d="M-4,0h8M0,-4v8" fill="none" stroke="white" stroke-width="1.5" pointer-events="none"/>
  </g>
  <g id="zoomMin">
    <use xlink:href="#rim" fill="#404040"><set attributeName="fill" to="#808080" begin="zoomminus.mouseover" end="zoomminus.mouseout"/></use>
    <path d="M-4,0h8" fill="none" stroke="white" stroke-width="1.5" pointer-events="none"/>
  </g>
  <g id="arrowUp" transform="translate(30 24)">
    <use xlink:href="#rim"/>
    <path pointer-events="none" fill="none" stroke="white" stroke-width="1.5" d="M0,-3.0v7 M-2.5,-0.5L0,-3.0L2.5,-0.5"/>
  </g>
  <g id="arrowRight" transform="rotate(90) translate(36 -43)">
    <use xlink:href="#rim"/>
    <path pointer-events="none" fill="none" stroke="white" stroke-width="1.5" d="M0,-3.0v7 M-2.5,-0.5L0,-3.0L2.5,-0.5"/>
  </g>
  <g id="arrowDown" transform="rotate(180) translate(-30 -48)">
    <use xlink:href="#rim"/>
    <path pointer-events="none" fill="none" stroke="white" stroke-width="1.5" d="M0,-3.0v7 M-2.5,-0.5L0,-3.0L2.5,-0.5"/>
  </g>
  <g id="arrowLeft" transform="rotate(270) translate(-36 17)">
    <use xlink:href="#rim"/>
    <path pointer-events="none" fill="none" stroke="white" stroke-width="1.5" d="M0,-3.0v7 M-2.5,-0.5L0,-3.0L2.5,-0.5"/>
  </g>
  <g id="resetDef">
    <use xlink:href="#rim2" fill="#404040"><set attributeName="fill" to="#808080" begin="reset.mouseover" end="reset.mouseout"/></use>
  </g>
</defs>
<script type="application/ecmascript">
var viewWidth = 362;
var viewHeight = 626;
var sectionId = 'dynsection-22';
</script>
<script type="application/ecmascript" xlink:href="svg.min.js"/>
<svg id="graph" class="graph">
<g id="viewport">
<title>addTarget</title>
<!-- Node1 -->
<g id="Node000001" class="node">
<title>Node1</title>
<g id="a_Node000001"><a xlink:title=" ">
<polygon fill="#999999" stroke="#666666" points="354,-312.88 295.25,-312.88 295.25,-293.62 354,-293.62 354,-312.88"/>
<text text-anchor="middle" x="324.62" y="-299.38" font-family="Helvetica,sans-Serif" font-size="10.00">addTarget</text>
</a>
</g>
</g>
<!-- Node2 -->
<g id="Node000002" class="node">
<title>Node2</title>
<g id="a_Node000002"><a xlink:href="class_notification_target_certificate.html#a741d4801ee146052e504324aee4021a4" target="_top" xlink:title=" ">
<polygon fill="white" stroke="#666666" points="249.88,-617.5 112.38,-617.5 112.38,-587 249.88,-587 249.88,-617.5"/>
<text text-anchor="start" x="120.38" y="-604" font-family="Helvetica,sans-Serif" font-size="10.00">NotificationTargetCertificate</text>
<text text-anchor="middle" x="181.12" y="-592.75" font-family="Helvetica,sans-Serif" font-size="10.00">\addAdditionalTargets</text>
</a>
</g>
</g>
<!-- Node1&#45;&gt;Node2 -->
<g id="edge1_Node000001_Node000002" class="edge">
<title>Node1&#45;&gt;Node2</title>
<g id="a_edge1_Node000001_Node000002"><a xlink:title=" ">
<path fill="none" stroke="#63b8ff" d="M321.34,-324.38C314.7,-381.97 293.71,-539.82 259.25,-577.25 255.91,-580.87 252.05,-583.98 247.86,-586.63"/>
<polygon fill="#63b8ff" stroke="#63b8ff" points="324.79,-324.97 322.43,-314.64 317.84,-324.19 324.79,-324.97"/>
</a>
</g>
</g>
<!-- Node3 -->
<g id="Node000003" class="node">
<title>Node3</title>
<g id="a_Node000003"><a xlink:href="class_notification_target_common_i_t_i_l_object.html#a741d4801ee146052e504324aee4021a4" target="_top" xlink:title=" ">
<polygon fill="white" stroke="#666666" points="258.88,-568.5 103.38,-568.5 103.38,-538 258.88,-538 258.88,-568.5"/>
<text text-anchor="start" x="111.38" y="-555" font-family="Helvetica,sans-Serif" font-size="10.00">NotificationTargetCommon</text>
<text text-anchor="middle" x="181.12" y="-543.75" font-family="Helvetica,sans-Serif" font-size="10.00">ITILObject\addAdditionalTargets</text>
</a>
</g>
</g>
<!-- Node1&#45;&gt;Node3 -->
<g id="edge2_Node000001_Node000003" class="edge">
<title>Node1&#45;&gt;Node3</title>
<g id="a_edge2_Node000001_Node000003"><a xlink:title=" ">
<path fill="none" stroke="#63b8ff" d="M323.8,-324.37C323.01,-368.39 314.88,-470.65 259.25,-528.25 255.73,-531.89 251.67,-535.01 247.3,-537.67"/>
<polygon fill="#63b8ff" stroke="#63b8ff" points="327.3,-324.44 323.85,-314.42 320.3,-324.4 327.3,-324.44"/>
</a>
</g>
</g>
<!-- Node4 -->
<g id="Node000004" class="node">
<title>Node4</title>
<g id="a_Node000004"><a xlink:href="class_notification_target_domain.html#a741d4801ee146052e504324aee4021a4" target="_top" xlink:title=" ">
<polygon fill="white" stroke="#666666" points="244.25,-519.5 118,-519.5 118,-489 244.25,-489 244.25,-519.5"/>
<text text-anchor="start" x="126" y="-506" font-family="Helvetica,sans-Serif" font-size="10.00">NotificationTargetDomain</text>
<text text-anchor="middle" x="181.12" y="-494.75" font-family="Helvetica,sans-Serif" font-size="10.00">\addAdditionalTargets</text>
</a>
</g>
</g>
<!-- Node1&#45;&gt;Node4 -->
<g id="edge3_Node000001_Node000004" class="edge">
<title>Node1&#45;&gt;Node4</title>
<g id="a_edge3_Node000001_Node000004"><a xlink:title=" ">
<path fill="none" stroke="#63b8ff" d="M321.79,-324.49C317.48,-361.19 303.47,-436.64 259.25,-479.25 254.89,-483.45 249.82,-486.94 244.4,-489.85"/>
<polygon fill="#63b8ff" stroke="#63b8ff" points="325.25,-325.05 322.79,-314.74 318.28,-324.33 325.25,-325.05"/>
</a>
</g>
</g>
<!-- Node5 -->
<g id="Node000005" class="node">
<title>Node5</title>
<g id="a_Node000005"><a xlink:href="class_notification_target_project.html#a741d4801ee146052e504324aee4021a4" target="_top" xlink:title=" ">
<polygon fill="white" stroke="#666666" points="242.75,-470.5 119.5,-470.5 119.5,-440 242.75,-440 242.75,-470.5"/>
<text text-anchor="start" x="127.5" y="-457" font-family="Helvetica,sans-Serif" font-size="10.00">NotificationTargetProject</text>
<text text-anchor="middle" x="181.12" y="-445.75" font-family="Helvetica,sans-Serif" font-size="10.00">\addAdditionalTargets</text>
</a>
</g>
</g>
<!-- Node1&#45;&gt;Node5 -->
<g id="edge4_Node000001_Node000005" class="edge">
<title>Node1&#45;&gt;Node5</title>
<g id="a_edge4_Node000001_Node000005"><a xlink:title=" ">
<path fill="none" stroke="#63b8ff" d="M318.49,-324.02C310.51,-352.08 292.47,-401.84 259.25,-430.25 254.44,-434.37 248.93,-437.81 243.13,-440.69"/>
<polygon fill="#63b8ff" stroke="#63b8ff" points="321.81,-325.16 321,-314.6 315.05,-323.36 321.81,-325.16"/>
</a>
</g>
</g>
<!-- Node6 -->
<g id="Node000006" class="node">
<title>Node6</title>
<g id="a_Node000006"><a xlink:href="class_notification_target_project_task.html#a741d4801ee146052e504324aee4021a4" target="_top" xlink:title=" ">
<polygon fill="white" stroke="#666666" points="246.5,-421.5 115.75,-421.5 115.75,-391 246.5,-391 246.5,-421.5"/>
<text text-anchor="start" x="123.75" y="-408" font-family="Helvetica,sans-Serif" font-size="10.00">NotificationTargetProject</text>
<text text-anchor="middle" x="181.12" y="-396.75" font-family="Helvetica,sans-Serif" font-size="10.00">Task\addAdditionalTargets</text>
</a>
</g>
</g>
<!-- Node1&#45;&gt;Node6 -->
<g id="edge5_Node000001_Node000006" class="edge">
<title>Node1&#45;&gt;Node6</title>
<g id="a_edge5_Node000001_Node000006"><a xlink:title=" ">
<path fill="none" stroke="#63b8ff" d="M312.27,-322.5C300.93,-340.15 281.95,-365.82 259.25,-381.25 254.01,-384.81 248.23,-387.89 242.26,-390.55"/>
<polygon fill="#63b8ff" stroke="#63b8ff" points="314.96,-324.81 317.24,-314.46 309,-321.13 314.96,-324.81"/>
</a>
</g>
</g>
<!-- Node7 -->
<g id="Node000007" class="node">
<title>Node7</title>
<g id="a_Node000007"><a xlink:href="class_notification_target_reservation.html#a741d4801ee146052e504324aee4021a4" target="_top" xlink:title=" ">
<polygon fill="white" stroke="#666666" points="253.62,-372.5 108.62,-372.5 108.62,-342 253.62,-342 253.62,-372.5"/>
<text text-anchor="start" x="116.62" y="-359" font-family="Helvetica,sans-Serif" font-size="10.00">NotificationTargetReservation</text>
<text text-anchor="middle" x="181.12" y="-347.75" font-family="Helvetica,sans-Serif" font-size="10.00">\addAdditionalTargets</text>
</a>
</g>
</g>
<!-- Node1&#45;&gt;Node7 -->
<g id="edge6_Node000001_Node000007" class="edge">
<title>Node1&#45;&gt;Node7</title>
<g id="a_edge6_Node000001_Node000007"><a xlink:title=" ">
<path fill="none" stroke="#63b8ff" d="M293.78,-318.18C283.03,-323.28 270.72,-328.82 259.25,-333.25 251.79,-336.13 243.84,-338.92 235.97,-341.51"/>
<polygon fill="#63b8ff" stroke="#63b8ff" points="295.07,-321.44 302.55,-313.94 292.03,-315.14 295.07,-321.44"/>
</a>
</g>
</g>
<!-- Node8 -->
<g id="Node000008" class="node">
<title>Node8</title>
<g id="a_Node000008"><a xlink:href="class_glpi_1_1_marketplace_1_1_notification_target_controller.html#abc4974fb71a22845a3e8a9f3aed98780" target="_top" xlink:title=" ">
<polygon fill="white" stroke="#666666" points="257.75,-324.12 104.5,-324.12 104.5,-282.38 257.75,-282.38 257.75,-324.12"/>
<text text-anchor="start" x="112.5" y="-310.62" font-family="Helvetica,sans-Serif" font-size="10.00">Glpi\Marketplace\Notification</text>
<text text-anchor="start" x="112.5" y="-299.38" font-family="Helvetica,sans-Serif" font-size="10.00">TargetController\addNotification</text>
<text text-anchor="middle" x="181.12" y="-288.12" font-family="Helvetica,sans-Serif" font-size="10.00">Targets</text>
</a>
</g>
</g>
<!-- Node1&#45;&gt;Node8 -->
<g id="edge7_Node000001_Node000008" class="edge">
<title>Node1&#45;&gt;Node8</title>
<g id="a_edge7_Node000001_Node000008"><a xlink:title=" ">
<path fill="none" stroke="#63b8ff" d="M283.74,-303.25C275.69,-303.25 266.97,-303.25 258.15,-303.25"/>
<polygon fill="#63b8ff" stroke="#63b8ff" points="283.48,-306.75 293.48,-303.25 283.48,-299.75 283.48,-306.75"/>
</a>
</g>
</g>
<!-- Node9 -->
<g id="Node000009" class="node">
<title>Node9</title>
<g id="a_Node000009"><a xlink:href="class_notification_target.html#abc4974fb71a22845a3e8a9f3aed98780" target="_top" xlink:title=" ">
<polygon fill="white" stroke="#666666" points="237.88,-263.88 124.38,-263.88 124.38,-244.62 237.88,-244.62 237.88,-263.88"/>
<text text-anchor="middle" x="181.12" y="-250.38" font-family="Helvetica,sans-Serif" font-size="10.00">addNotificationTargets</text>
</a>
</g>
</g>
<!-- Node1&#45;&gt;Node9 -->
<g id="edge8_Node000001_Node000009" class="edge">
<title>Node1&#45;&gt;Node9</title>
<g id="a_edge8_Node000001_Node000009"><a xlink:title=" ">
<path fill="none" stroke="#63b8ff" d="M294.4,-288.17C283.56,-282.96 271.02,-277.4 259.25,-273.25 249.76,-269.9 239.4,-266.92 229.46,-264.37"/>
<polygon fill="#63b8ff" stroke="#63b8ff" points="292.72,-291.24 303.24,-292.52 295.82,-284.96 292.72,-291.24"/>
</a>
</g>
</g>
<!-- Node11 -->
<g id="Node000011" class="node">
<title>Node11</title>
<g id="a_Node000011"><a xlink:href="class_notification_target_d_b_connection.html#abc4974fb71a22845a3e8a9f3aed98780" target="_top" xlink:title=" ">
<polygon fill="white" stroke="#666666" points="259.25,-226.5 103,-226.5 103,-196 259.25,-196 259.25,-226.5"/>
<text text-anchor="start" x="111" y="-213" font-family="Helvetica,sans-Serif" font-size="10.00">NotificationTargetDBConnection</text>
<text text-anchor="middle" x="181.12" y="-201.75" font-family="Helvetica,sans-Serif" font-size="10.00">\addNotificationTargets</text>
</a>
</g>
</g>
<!-- Node1&#45;&gt;Node11 -->
<g id="edge10_Node000001_Node000011" class="edge">
<title>Node1&#45;&gt;Node11</title>
<g id="a_edge10_Node000001_Node000011"><a xlink:title=" ">
<path fill="none" stroke="#63b8ff" d="M310.13,-284.35C298.32,-269.08 279.85,-248.09 259.25,-235.25 254.25,-232.14 248.82,-229.4 243.22,-226.99"/>
<polygon fill="#63b8ff" stroke="#63b8ff" points="307.2,-286.27 315.99,-292.2 312.82,-282.09 307.2,-286.27"/>
</a>
</g>
</g>
<!-- Node12 -->
<g id="Node000012" class="node">
<title>Node12</title>
<g id="a_Node000012"><a xlink:href="class_notification_target_object_lock.html#abc4974fb71a22845a3e8a9f3aed98780" target="_top" xlink:title=" ">
<polygon fill="white" stroke="#666666" points="249.88,-177.5 112.38,-177.5 112.38,-147 249.88,-147 249.88,-177.5"/>
<text text-anchor="start" x="120.38" y="-164" font-family="Helvetica,sans-Serif" font-size="10.00">NotificationTargetObject</text>
<text text-anchor="middle" x="181.12" y="-152.75" font-family="Helvetica,sans-Serif" font-size="10.00">Lock\addNotificationTargets</text>
</a>
</g>
</g>
<!-- Node1&#45;&gt;Node12 -->
<g id="edge11_Node000001_Node000012" class="edge">
<title>Node1&#45;&gt;Node12</title>
<g id="a_edge11_Node000001_Node000012"><a xlink:title=" ">
<path fill="none" stroke="#63b8ff" d="M317.36,-282.41C308.52,-256.47 289.95,-212.53 259.25,-187.25 254.9,-183.67 250.03,-180.6 244.91,-177.97"/>
<polygon fill="#63b8ff" stroke="#63b8ff" points="313.98,-283.34 320.37,-291.79 320.65,-281.2 313.98,-283.34"/>
</a>
</g>
</g>
<!-- Node13 -->
<g id="Node000013" class="node">
<title>Node13</title>
<g id="a_Node000013"><a xlink:href="class_notification_target_planning_recall.html#abc4974fb71a22845a3e8a9f3aed98780" target="_top" xlink:title=" ">
<polygon fill="white" stroke="#666666" points="253.25,-128.5 109,-128.5 109,-98 253.25,-98 253.25,-128.5"/>
<text text-anchor="start" x="117" y="-115" font-family="Helvetica,sans-Serif" font-size="10.00">NotificationTargetPlanning</text>
<text text-anchor="middle" x="181.12" y="-103.75" font-family="Helvetica,sans-Serif" font-size="10.00">Recall\addNotificationTargets</text>
</a>
</g>
</g>
<!-- Node1&#45;&gt;Node13 -->
<g id="edge12_Node000001_Node000013" class="edge">
<title>Node1&#45;&gt;Node13</title>
<g id="a_edge12_Node000001_Node000013"><a xlink:title=" ">
<path fill="none" stroke="#63b8ff" d="M321.24,-282.37C316.15,-247.58 301.09,-177.71 259.25,-138.25 255.46,-134.68 251.16,-131.61 246.56,-128.99"/>
<polygon fill="#63b8ff" stroke="#63b8ff" points="317.72,-282.51 322.49,-291.97 324.67,-281.6 317.72,-282.51"/>
</a>
</g>
</g>
<!-- Node14 -->
<g id="Node000014" class="node">
<title>Node14</title>
<g id="a_Node000014"><a xlink:href="class_notification_target_saved_search___alert.html#abc4974fb71a22845a3e8a9f3aed98780" target="_top" xlink:title=" ">
<polygon fill="white" stroke="#666666" points="256.62,-79.5 105.62,-79.5 105.62,-49 256.62,-49 256.62,-79.5"/>
<text text-anchor="start" x="113.62" y="-66" font-family="Helvetica,sans-Serif" font-size="10.00">NotificationTargetSavedSearch</text>
<text text-anchor="middle" x="181.12" y="-54.75" font-family="Helvetica,sans-Serif" font-size="10.00">_Alert\addNotificationTargets</text>
</a>
</g>
</g>
<!-- Node1&#45;&gt;Node14 -->
<g id="edge13_Node000001_Node000014" class="edge">
<title>Node1&#45;&gt;Node14</title>
<g id="a_edge13_Node000001_Node000014"><a xlink:title=" ">
<path fill="none" stroke="#63b8ff" d="M323.41,-281.69C321.81,-239.03 312.13,-143.27 259.25,-89.25 255.71,-85.63 251.63,-82.53 247.25,-79.88"/>
<polygon fill="#63b8ff" stroke="#63b8ff" points="319.91,-281.7 323.65,-291.61 326.91,-281.53 319.91,-281.7"/>
</a>
</g>
</g>
<!-- Node15 -->
<g id="Node000015" class="node">
<title>Node15</title>
<g id="a_Node000015"><a xlink:href="class_notification_target_user.html#abc4974fb71a22845a3e8a9f3aed98780" target="_top" xlink:title=" ">
<polygon fill="white" stroke="#666666" points="239.38,-30.5 122.88,-30.5 122.88,0 239.38,0 239.38,-30.5"/>
<text text-anchor="start" x="130.88" y="-17" font-family="Helvetica,sans-Serif" font-size="10.00">NotificationTargetUser</text>
<text text-anchor="middle" x="181.12" y="-5.75" font-family="Helvetica,sans-Serif" font-size="10.00">\addNotificationTargets</text>
</a>
</g>
</g>
<!-- Node1&#45;&gt;Node15 -->
<g id="edge14_Node000001_Node000015" class="edge">
<title>Node1&#45;&gt;Node15</title>
<g id="a_edge14_Node000001_Node000015"><a xlink:title=" ">
<path fill="none" stroke="#63b8ff" d="M321.08,-281.86C313.99,-225.68 292.35,-75.87 259.25,-40.25 253.79,-34.37 246.94,-29.87 239.58,-26.43"/>
<polygon fill="#63b8ff" stroke="#63b8ff" points="317.59,-282.18 322.29,-291.68 324.54,-281.33 317.59,-282.18"/>
</a>
</g>
</g>
<!-- Node10 -->
<g id="Node000010" class="node">
<title>Node10</title>
<g id="a_Node000010"><a xlink:href="class_notification_target.html#a3bb98e3b2b166c253126735d407e4f01" target="_top" xlink:title=" ">
<polygon fill="white" stroke="#666666" points="67,-263.88 0,-263.88 0,-244.62 67,-244.62 67,-263.88"/>
<text text-anchor="middle" x="33.5" y="-250.38" font-family="Helvetica,sans-Serif" font-size="10.00">__construct</text>
</a>
</g>
</g>
<!-- Node9&#45;&gt;Node10 -->
<g id="edge9_Node000009_Node000010" class="edge">
<title>Node9&#45;&gt;Node10</title>
<g id="a_edge9_Node000009_Node000010"><a xlink:title=" ">
<path fill="none" stroke="#63b8ff" d="M112.81,-254.25C96.97,-254.25 80.79,-254.25 67.27,-254.25"/>
<polygon fill="#63b8ff" stroke="#63b8ff" points="112.73,-257.75 122.73,-254.25 112.73,-250.75 112.73,-257.75"/>
</a>
</g>
</g>
</g>
</svg>

<g id="navigator" transform="translate(0 0)" fill="#404254">
  <rect fill="#f2f5e9" fill-opacity="0.5" stroke="#606060" stroke-width=".5" x="0" y="0" width="60" height="60"/>
  <use id="zoomplus" xlink:href="#zoomPlus" x="17" y="9" onmousedown="handleZoom(evt,'in')"/>
  <use id="zoomminus" xlink:href="#zoomMin" x="42" y="9" onmousedown="handleZoom(evt,'out')"/>
  <use id="reset" xlink:href="#resetDef" x="30" y="36" onmousedown="handleReset()"/>
   <use id="arrowup" xlink:href="#arrowUp" x="0" y="0" onmousedown="handlePan(0,-1)"/>
  <use id="arrowright" xlink:href="#arrowRight" x="0" y="0" onmousedown="handlePan(1,0)"/>
  <use id="arrowdown" xlink:href="#arrowDown" x="0" y="0" onmousedown="handlePan(0,1)"/>
  <use id="arrowleft" xlink:href="#arrowLeft" x="0" y="0" onmousedown="handlePan(-1,0)"/>
</g>
<svg viewBox="0 0 15 15" width="100%" height="30px" preserveAspectRatio="xMaxYMin meet">
 <g id="arrow_out" transform="scale(0.3 0.3)">
  <a xlink:href="class_notification_target_aa2a08b672bc84c547a2c2f9e1fa50dbb_icgraph_org.svg" target="_base">
   <rect id="button" ry="5" rx="5" y="6" x="6" height="38" width="38"
        fill="#f2f5e9" fill-opacity="0.5" stroke="#606060" stroke-width="1.0"/>
   <path id="arrow"
     d="M 11.500037,31.436501 C 11.940474,20.09759 22.043105,11.32322 32.158766,21.979434 L 37.068811,17.246167 C 37.068811,17.246167 37.088388,32 37.088388,32 L 22.160133,31.978069 C 22.160133,31.978069 26.997745,27.140456 26.997745,27.140456 C 18.528582,18.264221 13.291696,25.230495 11.500037,31.436501 z"
     style="fill:#404040;"/>
  </a>
 </g>
</svg>

<style type='text/css'>
<![CDATA[
[data-mouse-over-selected='false'] { opacity: 0.7; }
[data-mouse-over-selected='true']  { opacity: 1.0; }
]]>
</style>
<script type="application/ecmascript"><![CDATA[
document.addEventListener('DOMContentLoaded', (event) => {
  highlightEdges();
  highlightAdjacentNodes();
});
]]></script>
</svg>
