<?xml version="1.0" encoding="UTF-8" standalone="no"?>
<!DOCTYPE svg PUBLIC "-//W3C//DTD SVG 1.1//EN"
 "http://www.w3.org/Graphics/SVG/1.1/DTD/svg11.dtd">
<!-- Generated by graphviz version 10.0.1 (20240210.2158)
 -->
<!-- Title: FormatterHelper Pages: 1 -->
<!--zoomable 635 -->

<svg id="main" version="1.1" xmlns="http://www.w3.org/2000/svg" xmlns:xlink="http://www.w3.org/1999/xlink" xml:space="preserve" onload="init(evt)">
<style type="text/css"><![CDATA[
.node, .edge {opacity: 0.7;}
.node.selected, .edge.selected {opacity: 1;}
.edge:hover path { stroke: red; }
.edge:hover polygon { stroke: red; fill: red; }
]]></style>

<defs>
  <circle id="rim" cx="0" cy="0" r="7"/>
  <circle id="rim2" cx="0" cy="0" r="3.5"/>
  <g id="zoomPlus">
    <use xlink:href="#rim" fill="#404040"><set attributeName="fill" to="#808080" begin="zoomplus.mouseover" end="zoomplus.mouseout"/></use>
    <path d="M-4,0h8M0,-4v8" fill="none" stroke="white" stroke-width="1.5" pointer-events="none"/>
  </g>
  <g id="zoomMin">
    <use xlink:href="#rim" fill="#404040"><set attributeName="fill" to="#808080" begin="zoomminus.mouseover" end="zoomminus.mouseout"/></use>
    <path d="M-4,0h8" fill="none" stroke="white" stroke-width="1.5" pointer-events="none"/>
  </g>
  <g id="arrowUp" transform="translate(30 24)">
    <use xlink:href="#rim"/>
    <path pointer-events="none" fill="none" stroke="white" stroke-width="1.5" d="M0,-3.0v7 M-2.5,-0.5L0,-3.0L2.5,-0.5"/>
  </g>
  <g id="arrowRight" transform="rotate(90) translate(36 -43)">
    <use xlink:href="#rim"/>
    <path pointer-events="none" fill="none" stroke="white" stroke-width="1.5" d="M0,-3.0v7 M-2.5,-0.5L0,-3.0L2.5,-0.5"/>
  </g>
  <g id="arrowDown" transform="rotate(180) translate(-30 -48)">
    <use xlink:href="#rim"/>
    <path pointer-events="none" fill="none" stroke="white" stroke-width="1.5" d="M0,-3.0v7 M-2.5,-0.5L0,-3.0L2.5,-0.5"/>
  </g>
  <g id="arrowLeft" transform="rotate(270) translate(-36 17)">
    <use xlink:href="#rim"/>
    <path pointer-events="none" fill="none" stroke="white" stroke-width="1.5" d="M0,-3.0v7 M-2.5,-0.5L0,-3.0L2.5,-0.5"/>
  </g>
  <g id="resetDef">
    <use xlink:href="#rim2" fill="#404040"><set attributeName="fill" to="#808080" begin="reset.mouseover" end="reset.mouseout"/></use>
  </g>
</defs>
<script type="application/ecmascript">
var viewWidth = 158;
var viewHeight = 635;
var sectionId = 'dynsection-0';
</script>
<script type="application/ecmascript" xlink:href="svg.min.js"/>
<svg id="graph" class="graph">
<g id="viewport">
<title>FormatterHelper</title>
<!-- Node1 -->
<g id="Node000001" class="node">
<title>Node1</title>
<g id="a_Node000001"><a xlink:title=" ">
<polygon fill="#999999" stroke="none" points="150,-149 0,-149 0,0 150,0 150,-149"/>
<text text-anchor="start" x="39.75" y="-135.5" font-family="Helvetica,sans-Serif" font-size="10.00">FormatterHelper</text>
<text text-anchor="start" x="73.5" y="-120.5" font-family="Helvetica,sans-Serif" font-size="10.00"> </text>
<text text-anchor="start" x="4" y="-105.5" font-family="Helvetica,sans-Serif" font-size="10.00">+</text>
<text text-anchor="start" x="14" y="-105.5" font-family="Helvetica,sans-Serif" font-size="10.00">formatSection(string</text>
<text text-anchor="start" x="14" y="-94.25" font-family="Helvetica,sans-Serif" font-size="10.00"> $section, string $message,</text>
<text text-anchor="start" x="14" y="-83" font-family="Helvetica,sans-Serif" font-size="10.00"> string $style=&#39;info&#39;)</text>
<text text-anchor="start" x="4" y="-68.5" font-family="Helvetica,sans-Serif" font-size="10.00">+</text>
<text text-anchor="start" x="14" y="-68.5" font-family="Helvetica,sans-Serif" font-size="10.00">formatBlock($messages,</text>
<text text-anchor="start" x="14" y="-57.25" font-family="Helvetica,sans-Serif" font-size="10.00"> string $style, bool </text>
<text text-anchor="start" x="14" y="-46" font-family="Helvetica,sans-Serif" font-size="10.00">$large=false)</text>
<text text-anchor="start" x="4" y="-31.5" font-family="Helvetica,sans-Serif" font-size="10.00">+</text>
<text text-anchor="start" x="14" y="-31.5" font-family="Helvetica,sans-Serif" font-size="10.00">truncate(string $message,</text>
<text text-anchor="start" x="14" y="-20.25" font-family="Helvetica,sans-Serif" font-size="10.00"> int $length, string $suffix=&#39;...&#39;)</text>
<text text-anchor="start" x="4" y="-5.5" font-family="Helvetica,sans-Serif" font-size="10.00">+</text>
<text text-anchor="start" x="14" y="-5.5" font-family="Helvetica,sans-Serif" font-size="10.00">getName()</text>
<polygon fill="#666666" stroke="#666666" points="0,-132 0,-132 150,-132 150,-132 0,-132"/>
<polygon fill="#666666" stroke="#666666" points="0,-117 0,-117 150,-117 150,-117 0,-117"/>
<polygon fill="none" stroke="#666666" points="0,0 0,-149 150,-149 150,0 0,0"/>
</a>
</g>
</g>
<!-- Node2 -->
<g id="Node000002" class="node">
<title>Node2</title>
<g id="a_Node000002"><a xlink:href="class_symfony_1_1_component_1_1_console_1_1_helper_1_1_helper.html" target="_top" xlink:title=" ">
<polygon fill="white" stroke="none" points="150,-501 0,-501 0,-185 150,-185 150,-501"/>
<text text-anchor="start" x="60.75" y="-487.5" font-family="Helvetica,sans-Serif" font-size="10.00">Helper</text>
<text text-anchor="start" x="4.38" y="-472.5" font-family="Helvetica,sans-Serif" font-size="10.00">#</text>
<text text-anchor="start" x="14" y="-472.5" font-family="Helvetica,sans-Serif" font-size="10.00">$helperSet</text>
<text text-anchor="start" x="4" y="-457.5" font-family="Helvetica,sans-Serif" font-size="10.00">+</text>
<text text-anchor="start" x="14" y="-457.5" font-family="Helvetica,sans-Serif" font-size="10.00">setHelperSet(HelperSet</text>
<text text-anchor="start" x="14" y="-446.25" font-family="Helvetica,sans-Serif" font-size="10.00"> $helperSet=null)</text>
<text text-anchor="start" x="4" y="-431.5" font-family="Helvetica,sans-Serif" font-size="10.00">+</text>
<text text-anchor="start" x="14" y="-431.5" font-family="Helvetica,sans-Serif" font-size="10.00">getHelperSet()</text>
<text text-anchor="start" x="4" y="-416.5" font-family="Helvetica,sans-Serif" font-size="10.00">+</text>
<text text-anchor="start" x="14" y="-416.5" font-family="Helvetica,sans-Serif" font-size="10.00">static strlen(?string</text>
<text text-anchor="start" x="14" y="-405.25" font-family="Helvetica,sans-Serif" font-size="10.00"> $string)</text>
<text text-anchor="start" x="4" y="-390.5" font-family="Helvetica,sans-Serif" font-size="10.00">+</text>
<text text-anchor="start" x="14" y="-390.5" font-family="Helvetica,sans-Serif" font-size="10.00">static width(?string</text>
<text text-anchor="start" x="14" y="-379.25" font-family="Helvetica,sans-Serif" font-size="10.00"> $string)</text>
<text text-anchor="start" x="4" y="-364.5" font-family="Helvetica,sans-Serif" font-size="10.00">+</text>
<text text-anchor="start" x="14" y="-364.5" font-family="Helvetica,sans-Serif" font-size="10.00">static length(?string</text>
<text text-anchor="start" x="14" y="-353.25" font-family="Helvetica,sans-Serif" font-size="10.00"> $string)</text>
<text text-anchor="start" x="4" y="-338.5" font-family="Helvetica,sans-Serif" font-size="10.00">+</text>
<text text-anchor="start" x="14" y="-338.5" font-family="Helvetica,sans-Serif" font-size="10.00">static substr(?string</text>
<text text-anchor="start" x="14" y="-327.25" font-family="Helvetica,sans-Serif" font-size="10.00"> $string, int $from,</text>
<text text-anchor="start" x="14" y="-316" font-family="Helvetica,sans-Serif" font-size="10.00"> int $length=null)</text>
<text text-anchor="start" x="4" y="-301.5" font-family="Helvetica,sans-Serif" font-size="10.00">+</text>
<text text-anchor="start" x="14" y="-301.5" font-family="Helvetica,sans-Serif" font-size="10.00">static formatTime(</text>
<text text-anchor="start" x="14" y="-290.25" font-family="Helvetica,sans-Serif" font-size="10.00">$secs)</text>
<text text-anchor="start" x="4" y="-275.5" font-family="Helvetica,sans-Serif" font-size="10.00">+</text>
<text text-anchor="start" x="14" y="-275.5" font-family="Helvetica,sans-Serif" font-size="10.00">static formatMemory</text>
<text text-anchor="start" x="14" y="-264.25" font-family="Helvetica,sans-Serif" font-size="10.00">(int $memory)</text>
<text text-anchor="start" x="4" y="-249.5" font-family="Helvetica,sans-Serif" font-size="10.00">+</text>
<text text-anchor="start" x="14" y="-249.5" font-family="Helvetica,sans-Serif" font-size="10.00">static strlenWithoutDecoration</text>
<text text-anchor="start" x="14" y="-238.25" font-family="Helvetica,sans-Serif" font-size="10.00">(OutputFormatterInterface</text>
<text text-anchor="start" x="14" y="-227" font-family="Helvetica,sans-Serif" font-size="10.00"> $formatter, ?string $string)</text>
<text text-anchor="start" x="4" y="-212.5" font-family="Helvetica,sans-Serif" font-size="10.00">+</text>
<text text-anchor="start" x="14" y="-212.5" font-family="Helvetica,sans-Serif" font-size="10.00">static removeDecoration</text>
<text text-anchor="start" x="14" y="-201.25" font-family="Helvetica,sans-Serif" font-size="10.00">(OutputFormatterInterface</text>
<text text-anchor="start" x="14" y="-190" font-family="Helvetica,sans-Serif" font-size="10.00"> $formatter, ?string $string)</text>
<polygon fill="#666666" stroke="#666666" points="0,-484 0,-484 150,-484 150,-484 0,-484"/>
<polygon fill="#666666" stroke="#666666" points="0,-469 0,-469 12,-469 12,-469 0,-469"/>
<polygon fill="#666666" stroke="#666666" points="12,-469 12,-469 150,-469 150,-469 12,-469"/>
<polygon fill="none" stroke="#666666" points="0,-185 0,-501 150,-501 150,-185 0,-185"/>
</a>
</g>
</g>
<!-- Node2&#45;&gt;Node1 -->
<g id="edge1_Node000001_Node000002" class="edge">
<title>Node2&#45;&gt;Node1</title>
<g id="a_edge1_Node000001_Node000002"><a xlink:title=" ">
<path fill="none" stroke="#63b8ff" d="M75,-173.68C75,-165.11 75,-156.75 75,-148.75"/>
<polygon fill="none" stroke="#63b8ff" points="71.5,-173.54 75,-183.54 78.5,-173.54 71.5,-173.54"/>
</a>
</g>
</g>
<!-- Node3 -->
<g id="Node000003" class="node">
<title>Node3</title>
<g id="a_Node000003"><a xlink:href="interface_symfony_1_1_component_1_1_console_1_1_helper_1_1_helper_interface.html" target="_top" xlink:title=" ">
<polygon fill="white" stroke="none" points="135.5,-627 14.5,-627 14.5,-537 135.5,-537 135.5,-627"/>
<text text-anchor="start" x="41.62" y="-613.5" font-family="Helvetica,sans-Serif" font-size="10.00">HelperInterface</text>
<text text-anchor="start" x="73.5" y="-598.5" font-family="Helvetica,sans-Serif" font-size="10.00"> </text>
<text text-anchor="start" x="18.5" y="-583.5" font-family="Helvetica,sans-Serif" font-size="10.00">+</text>
<text text-anchor="start" x="28.5" y="-583.5" font-family="Helvetica,sans-Serif" font-size="10.00">setHelperSet(HelperSet</text>
<text text-anchor="start" x="28.5" y="-572.25" font-family="Helvetica,sans-Serif" font-size="10.00"> $helperSet=null)</text>
<text text-anchor="start" x="18.5" y="-557.5" font-family="Helvetica,sans-Serif" font-size="10.00">+</text>
<text text-anchor="start" x="28.5" y="-557.5" font-family="Helvetica,sans-Serif" font-size="10.00">getHelperSet()</text>
<text text-anchor="start" x="18.5" y="-542.5" font-family="Helvetica,sans-Serif" font-size="10.00">+</text>
<text text-anchor="start" x="28.5" y="-542.5" font-family="Helvetica,sans-Serif" font-size="10.00">getName()</text>
<polygon fill="#666666" stroke="#666666" points="14.5,-610 14.5,-610 135.5,-610 135.5,-610 14.5,-610"/>
<polygon fill="#666666" stroke="#666666" points="14.5,-595 14.5,-595 135.5,-595 135.5,-595 14.5,-595"/>
<polygon fill="none" stroke="#666666" points="14.5,-537 14.5,-627 135.5,-627 135.5,-537 14.5,-537"/>
</a>
</g>
</g>
<!-- Node3&#45;&gt;Node2 -->
<g id="edge2_Node000002_Node000003" class="edge">
<title>Node3&#45;&gt;Node2</title>
<g id="a_edge2_Node000002_Node000003"><a xlink:title=" ">
<path fill="none" stroke="#63b8ff" d="M75,-526.02C75,-518.07 75,-509.57 75,-500.76"/>
<polygon fill="none" stroke="#63b8ff" points="71.5,-525.74 75,-535.74 78.5,-525.74 71.5,-525.74"/>
</a>
</g>
</g>
</g>
</svg>

<g id="navigator" transform="translate(0 0)" fill="#404254">
  <rect fill="#f2f5e9" fill-opacity="0.5" stroke="#606060" stroke-width=".5" x="0" y="0" width="60" height="60"/>
  <use id="zoomplus" xlink:href="#zoomPlus" x="17" y="9" onmousedown="handleZoom(evt,'in')"/>
  <use id="zoomminus" xlink:href="#zoomMin" x="42" y="9" onmousedown="handleZoom(evt,'out')"/>
  <use id="reset" xlink:href="#resetDef" x="30" y="36" onmousedown="handleReset()"/>
   <use id="arrowup" xlink:href="#arrowUp" x="0" y="0" onmousedown="handlePan(0,-1)"/>
  <use id="arrowright" xlink:href="#arrowRight" x="0" y="0" onmousedown="handlePan(1,0)"/>
  <use id="arrowdown" xlink:href="#arrowDown" x="0" y="0" onmousedown="handlePan(0,1)"/>
  <use id="arrowleft" xlink:href="#arrowLeft" x="0" y="0" onmousedown="handlePan(-1,0)"/>
</g>
<svg viewBox="0 0 15 15" width="100%" height="30px" preserveAspectRatio="xMaxYMin meet">
 <g id="arrow_out" transform="scale(0.3 0.3)">
  <a xlink:href="class_symfony_1_1_component_1_1_console_1_1_helper_1_1_formatter_helper__inherit__graph_org.svg" target="_base">
   <rect id="button" ry="5" rx="5" y="6" x="6" height="38" width="38"
        fill="#f2f5e9" fill-opacity="0.5" stroke="#606060" stroke-width="1.0"/>
   <path id="arrow"
     d="M 11.500037,31.436501 C 11.940474,20.09759 22.043105,11.32322 32.158766,21.979434 L 37.068811,17.246167 C 37.068811,17.246167 37.088388,32 37.088388,32 L 22.160133,31.978069 C 22.160133,31.978069 26.997745,27.140456 26.997745,27.140456 C 18.528582,18.264221 13.291696,25.230495 11.500037,31.436501 z"
     style="fill:#404040;"/>
  </a>
 </g>
</svg>

<style type='text/css'>
<![CDATA[
[data-mouse-over-selected='false'] { opacity: 0.7; }
[data-mouse-over-selected='true']  { opacity: 1.0; }
]]>
</style>
<script type="application/ecmascript"><![CDATA[
document.addEventListener('DOMContentLoaded', (event) => {
  highlightEdges();
  highlightAdjacentNodes();
});
]]></script>
</svg>
