<?xml version="1.0" encoding="UTF-8" standalone="no"?>
<!DOCTYPE svg PUBLIC "-//W3C//DTD SVG 1.1//EN"
 "http://www.w3.org/Graphics/SVG/1.1/DTD/svg11.dtd">
<!-- Generated by graphviz version 10.0.1 (20240210.2158)
 -->
<!-- Title: translateNthLastChild Pages: 1 -->
<!--zoomable 160 -->

<svg id="main" version="1.1" xmlns="http://www.w3.org/2000/svg" xmlns:xlink="http://www.w3.org/1999/xlink" xml:space="preserve" onload="init(evt)">
<style type="text/css"><![CDATA[
.node, .edge {opacity: 0.7;}
.node.selected, .edge.selected {opacity: 1;}
.edge:hover path { stroke: red; }
.edge:hover polygon { stroke: red; fill: red; }
]]></style>

<defs>
  <circle id="rim" cx="0" cy="0" r="7"/>
  <circle id="rim2" cx="0" cy="0" r="3.5"/>
  <g id="zoomPlus">
    <use xlink:href="#rim" fill="#404040"><set attributeName="fill" to="#808080" begin="zoomplus.mouseover" end="zoomplus.mouseout"/></use>
    <path d="M-4,0h8M0,-4v8" fill="none" stroke="white" stroke-width="1.5" pointer-events="none"/>
  </g>
  <g id="zoomMin">
    <use xlink:href="#rim" fill="#404040"><set attributeName="fill" to="#808080" begin="zoomminus.mouseover" end="zoomminus.mouseout"/></use>
    <path d="M-4,0h8" fill="none" stroke="white" stroke-width="1.5" pointer-events="none"/>
  </g>
  <g id="arrowUp" transform="translate(30 24)">
    <use xlink:href="#rim"/>
    <path pointer-events="none" fill="none" stroke="white" stroke-width="1.5" d="M0,-3.0v7 M-2.5,-0.5L0,-3.0L2.5,-0.5"/>
  </g>
  <g id="arrowRight" transform="rotate(90) translate(36 -43)">
    <use xlink:href="#rim"/>
    <path pointer-events="none" fill="none" stroke="white" stroke-width="1.5" d="M0,-3.0v7 M-2.5,-0.5L0,-3.0L2.5,-0.5"/>
  </g>
  <g id="arrowDown" transform="rotate(180) translate(-30 -48)">
    <use xlink:href="#rim"/>
    <path pointer-events="none" fill="none" stroke="white" stroke-width="1.5" d="M0,-3.0v7 M-2.5,-0.5L0,-3.0L2.5,-0.5"/>
  </g>
  <g id="arrowLeft" transform="rotate(270) translate(-36 17)">
    <use xlink:href="#rim"/>
    <path pointer-events="none" fill="none" stroke="white" stroke-width="1.5" d="M0,-3.0v7 M-2.5,-0.5L0,-3.0L2.5,-0.5"/>
  </g>
  <g id="resetDef">
    <use xlink:href="#rim2" fill="#404040"><set attributeName="fill" to="#808080" begin="reset.mouseover" end="reset.mouseout"/></use>
  </g>
</defs>
<script type="application/ecmascript">
var viewWidth = 649;
var viewHeight = 160;
var sectionId = 'dynsection-6';
</script>
<script type="application/ecmascript" xlink:href="svg.min.js"/>
<svg id="graph" class="graph">
<g id="viewport">
<title>translateNthLastChild</title>
<!-- Node1 -->
<g id="Node000001" class="node">
<title>Node1</title>
<g id="a_Node000001"><a xlink:title=" ">
<polygon fill="#999999" stroke="#666666" points="110.5,-97.88 0,-97.88 0,-78.62 110.5,-78.62 110.5,-97.88"/>
<text text-anchor="middle" x="55.25" y="-84.38" font-family="Helvetica,sans-Serif" font-size="10.00">translateNthLastChild</text>
</a>
</g>
</g>
<!-- Node2 -->
<g id="Node000002" class="node">
<title>Node2</title>
<g id="a_Node000002"><a xlink:href="class_symfony_1_1_component_1_1_css_selector_1_1_x_path_1_1_extension_1_1_function_extension.html#aa7101ecc67b4f9e4ccf3f21d826deecf" target="_top" xlink:title=" ">
<polygon fill="white" stroke="#666666" points="238.25,-97.88 146.5,-97.88 146.5,-78.62 238.25,-78.62 238.25,-97.88"/>
<text text-anchor="middle" x="192.38" y="-84.38" font-family="Helvetica,sans-Serif" font-size="10.00">translateNthChild</text>
</a>
</g>
</g>
<!-- Node1&#45;&gt;Node2 -->
<g id="edge1_Node000001_Node000002" class="edge">
<title>Node1&#45;&gt;Node2</title>
<g id="a_edge1_Node000001_Node000002"><a xlink:title=" ">
<path fill="none" stroke="#63b8ff" d="M110.82,-88.25C118.7,-88.25 126.81,-88.25 134.73,-88.25"/>
<polygon fill="#63b8ff" stroke="#63b8ff" points="134.61,-91.75 144.61,-88.25 134.61,-84.75 134.61,-91.75"/>
</a>
</g>
</g>
<!-- Node3 -->
<g id="Node000003" class="node">
<title>Node3</title>
<g id="a_Node000003"><a xlink:href="class_symfony_1_1_component_1_1_css_selector_1_1_x_path_1_1_x_path_expr.html#ab7af4a256e5e76e7a748de4905b4c180" target="_top" xlink:title=" ">
<polygon fill="white" stroke="#666666" points="640.75,-149.5 475.5,-149.5 475.5,-119 640.75,-119 640.75,-149.5"/>
<text text-anchor="start" x="483.5" y="-136" font-family="Helvetica,sans-Serif" font-size="10.00">Symfony\Component\CssSelector</text>
<text text-anchor="middle" x="558.12" y="-124.75" font-family="Helvetica,sans-Serif" font-size="10.00">\XPath\XPathExpr\addCondition</text>
</a>
</g>
</g>
<!-- Node2&#45;&gt;Node3 -->
<g id="edge2_Node000002_Node000003" class="edge">
<title>Node2&#45;&gt;Node3</title>
<g id="a_edge2_Node000002_Node000003"><a xlink:title=" ">
<path fill="none" stroke="#63b8ff" d="M205.26,-98.37C220.21,-110.37 247.21,-129.7 274.25,-137.25 335.76,-154.43 407.77,-153.38 463.75,-148.19"/>
<polygon fill="#63b8ff" stroke="#63b8ff" points="463.97,-151.69 473.57,-147.21 463.27,-144.72 463.97,-151.69"/>
</a>
</g>
</g>
<!-- Node4 -->
<g id="Node000004" class="node">
<title>Node4</title>
<g id="a_Node000004"><a xlink:href="class_symfony_1_1_component_1_1_css_selector_1_1_x_path_1_1_x_path_expr.html#a24b5ee876cacc2f470ee2f6480c9160a" target="_top" xlink:title=" ">
<polygon fill="white" stroke="#666666" points="439.5,-128.5 274.25,-128.5 274.25,-98 439.5,-98 439.5,-128.5"/>
<text text-anchor="start" x="282.25" y="-115" font-family="Helvetica,sans-Serif" font-size="10.00">Symfony\Component\CssSelector</text>
<text text-anchor="middle" x="356.88" y="-103.75" font-family="Helvetica,sans-Serif" font-size="10.00">\XPath\XPathExpr\addNameTest</text>
</a>
</g>
</g>
<!-- Node2&#45;&gt;Node4 -->
<g id="edge3_Node000002_Node000004" class="edge">
<title>Node2&#45;&gt;Node4</title>
<g id="a_edge3_Node000002_Node000004"><a xlink:title=" ">
<path fill="none" stroke="#63b8ff" d="M238.64,-95.21C246.19,-96.38 254.27,-97.62 262.51,-98.89"/>
<polygon fill="#63b8ff" stroke="#63b8ff" points="261.92,-102.34 272.33,-100.4 262.98,-95.42 261.92,-102.34"/>
</a>
</g>
</g>
<!-- Node5 -->
<g id="Node000005" class="node">
<title>Node5</title>
<g id="a_Node000005"><a xlink:href="class_symfony_1_1_component_1_1_css_selector_1_1_x_path_1_1_x_path_expr.html#ae98bbb2bef0fbaa9bfc4419b3f8d8127" target="_top" xlink:title=" ">
<polygon fill="white" stroke="#666666" points="439.5,-79.5 274.25,-79.5 274.25,-49 439.5,-49 439.5,-79.5"/>
<text text-anchor="start" x="282.25" y="-66" font-family="Helvetica,sans-Serif" font-size="10.00">Symfony\Component\CssSelector</text>
<text text-anchor="middle" x="356.88" y="-54.75" font-family="Helvetica,sans-Serif" font-size="10.00">\XPath\XPathExpr\addStarPrefix</text>
</a>
</g>
</g>
<!-- Node2&#45;&gt;Node5 -->
<g id="edge5_Node000002_Node000005" class="edge">
<title>Node2&#45;&gt;Node5</title>
<g id="a_edge5_Node000002_Node000005"><a xlink:title=" ">
<path fill="none" stroke="#63b8ff" d="M238.64,-81.56C246.19,-80.45 254.27,-79.26 262.51,-78.04"/>
<polygon fill="#63b8ff" stroke="#63b8ff" points="262.95,-81.51 272.33,-76.59 261.93,-74.59 262.95,-81.51"/>
</a>
</g>
</g>
<!-- Node6 -->
<g id="Node000006" class="node">
<title>Node6</title>
<g id="a_Node000006"><a xlink:href="class_symfony_1_1_component_1_1_css_selector_1_1_parser_1_1_parser.html#a14ef59415cb022e6e6ec883cb99514fb" target="_top" xlink:title=" ">
<polygon fill="white" stroke="#666666" points="439.5,-30.5 274.25,-30.5 274.25,0 439.5,0 439.5,-30.5"/>
<text text-anchor="start" x="282.25" y="-17" font-family="Helvetica,sans-Serif" font-size="10.00">Symfony\Component\CssSelector</text>
<text text-anchor="middle" x="356.88" y="-5.75" font-family="Helvetica,sans-Serif" font-size="10.00">\Parser\Parser\parseSeries</text>
</a>
</g>
</g>
<!-- Node2&#45;&gt;Node6 -->
<g id="edge6_Node000002_Node000006" class="edge">
<title>Node2&#45;&gt;Node6</title>
<g id="a_edge6_Node000002_Node000006"><a xlink:title=" ">
<path fill="none" stroke="#63b8ff" d="M207.71,-78.3C223.46,-67.73 249.76,-51.08 274.25,-40.25 278.72,-38.27 283.39,-36.39 288.13,-34.62"/>
<polygon fill="#63b8ff" stroke="#63b8ff" points="288.92,-38.05 297.17,-31.4 286.57,-31.45 288.92,-38.05"/>
</a>
</g>
</g>
<!-- Node4&#45;&gt;Node3 -->
<g id="edge4_Node000004_Node000003" class="edge">
<title>Node4&#45;&gt;Node3</title>
<g id="a_edge4_Node000004_Node000003"><a xlink:title=" ">
<path fill="none" stroke="#63b8ff" d="M439.78,-121.88C447.73,-122.72 455.84,-123.58 463.89,-124.42"/>
<polygon fill="#63b8ff" stroke="#63b8ff" points="463.4,-127.89 473.71,-125.46 464.13,-120.93 463.4,-127.89"/>
</a>
</g>
</g>
</g>
</svg>

<g id="navigator" transform="translate(0 0)" fill="#404254">
  <rect fill="#f2f5e9" fill-opacity="0.5" stroke="#606060" stroke-width=".5" x="0" y="0" width="60" height="60"/>
  <use id="zoomplus" xlink:href="#zoomPlus" x="17" y="9" onmousedown="handleZoom(evt,'in')"/>
  <use id="zoomminus" xlink:href="#zoomMin" x="42" y="9" onmousedown="handleZoom(evt,'out')"/>
  <use id="reset" xlink:href="#resetDef" x="30" y="36" onmousedown="handleReset()"/>
   <use id="arrowup" xlink:href="#arrowUp" x="0" y="0" onmousedown="handlePan(0,-1)"/>
  <use id="arrowright" xlink:href="#arrowRight" x="0" y="0" onmousedown="handlePan(1,0)"/>
  <use id="arrowdown" xlink:href="#arrowDown" x="0" y="0" onmousedown="handlePan(0,1)"/>
  <use id="arrowleft" xlink:href="#arrowLeft" x="0" y="0" onmousedown="handlePan(-1,0)"/>
</g>
<svg viewBox="0 0 15 15" width="100%" height="30px" preserveAspectRatio="xMaxYMin meet">
 <g id="arrow_out" transform="scale(0.3 0.3)">
  <a xlink:href="class_symfony_1_1_component_1_1_css_selector_1_1_x_path_1_1_extension_1_1_function_extension_aac4af56a6aaf7b0aaae7ffcd224ae190_cgraph_org.svg" target="_base">
   <rect id="button" ry="5" rx="5" y="6" x="6" height="38" width="38"
        fill="#f2f5e9" fill-opacity="0.5" stroke="#606060" stroke-width="1.0"/>
   <path id="arrow"
     d="M 11.500037,31.436501 C 11.940474,20.09759 22.043105,11.32322 32.158766,21.979434 L 37.068811,17.246167 C 37.068811,17.246167 37.088388,32 37.088388,32 L 22.160133,31.978069 C 22.160133,31.978069 26.997745,27.140456 26.997745,27.140456 C 18.528582,18.264221 13.291696,25.230495 11.500037,31.436501 z"
     style="fill:#404040;"/>
  </a>
 </g>
</svg>

<style type='text/css'>
<![CDATA[
[data-mouse-over-selected='false'] { opacity: 0.7; }
[data-mouse-over-selected='true']  { opacity: 1.0; }
]]>
</style>
<script type="application/ecmascript"><![CDATA[
document.addEventListener('DOMContentLoaded', (event) => {
  highlightEdges();
  highlightAdjacentNodes();
});
]]></script>
</svg>
