<?xml version="1.0" encoding="UTF-8" standalone="no"?>
<!DOCTYPE svg PUBLIC "-//W3C//DTD SVG 1.1//EN"
 "http://www.w3.org/Graphics/SVG/1.1/DTD/svg11.dtd">
<!-- Generated by graphviz version 10.0.1 (20240210.2158)
 -->
<!-- Title: getAccessTokenMethod Pages: 1 -->
<svg width="553pt" height="46pt"
 viewBox="0.00 0.00 552.75 46.25" xmlns="http://www.w3.org/2000/svg" xmlns:xlink="http://www.w3.org/1999/xlink">
<g id="graph0" class="graph" transform="scale(1 1) rotate(0) translate(4 42.25)">
<title>getAccessTokenMethod</title>
<!-- Node1 -->
<g id="Node000001" class="node">
<title>Node1</title>
<g id="a_Node000001"><a xlink:title=" ">
<polygon fill="#999999" stroke="#666666" points="544.75,-38.25 423.75,-38.25 423.75,-19 544.75,-19 544.75,-38.25"/>
<text text-anchor="middle" x="484.25" y="-24.75" font-family="Helvetica,sans-Serif" font-size="10.00">getAccessTokenMethod</text>
</a>
</g>
</g>
<!-- Node2 -->
<g id="Node000002" class="node">
<title>Node2</title>
<g id="a_Node000002"><a xlink:href="class_league_1_1_o_auth2_1_1_client_1_1_provider_1_1_abstract_provider.html#a612ff8d72684d0c884ec93c3a7e24a68" target="_top" xlink:title=" ">
<polygon fill="white" stroke="#666666" points="250.25,-38.25 124.75,-38.25 124.75,-19 250.25,-19 250.25,-38.25"/>
<text text-anchor="middle" x="187.5" y="-24.75" font-family="Helvetica,sans-Serif" font-size="10.00">getAccessTokenRequest</text>
</a>
</g>
</g>
<!-- Node1&#45;&gt;Node2 -->
<g id="edge1_Node000001_Node000002" class="edge">
<title>Node1&#45;&gt;Node2</title>
<g id="a_edge1_Node000001_Node000002"><a xlink:title=" ">
<path fill="none" stroke="#63b8ff" d="M412.38,-28.62C363.05,-28.62 297.89,-28.62 250.6,-28.62"/>
<polygon fill="#63b8ff" stroke="#63b8ff" points="412.09,-32.13 422.09,-28.63 412.09,-25.13 412.09,-32.13"/>
</a>
</g>
</g>
<!-- Node4 -->
<g id="Node000004" class="node">
<title>Node4</title>
<g id="a_Node000004"><a xlink:href="class_league_1_1_o_auth2_1_1_client_1_1_provider_1_1_abstract_provider.html#a9f4d2f81e288f02ea2caeb621cf02f48" target="_top" xlink:title=" ">
<polygon fill="white" stroke="#666666" points="387.75,-19.25 286.25,-19.25 286.25,0 387.75,0 387.75,-19.25"/>
<text text-anchor="middle" x="337" y="-5.75" font-family="Helvetica,sans-Serif" font-size="10.00">getAccessTokenUrl</text>
</a>
</g>
</g>
<!-- Node1&#45;&gt;Node4 -->
<g id="edge3_Node000001_Node000004" class="edge">
<title>Node1&#45;&gt;Node4</title>
<g id="a_edge3_Node000001_Node000004"><a xlink:title=" ">
<path fill="none" stroke="#63b8ff" d="M411.97,-19.3C403.89,-18.24 395.79,-17.18 388.07,-16.17"/>
<polygon fill="#63b8ff" stroke="#63b8ff" points="411.46,-22.76 421.83,-20.59 412.37,-15.82 411.46,-22.76"/>
</a>
</g>
</g>
<!-- Node3 -->
<g id="Node000003" class="node">
<title>Node3</title>
<g id="a_Node000003"><a xlink:href="class_league_1_1_o_auth2_1_1_client_1_1_provider_1_1_abstract_provider.html#a552ec704dee17ba1dc33dad14d80a658" target="_top" xlink:title=" ">
<polygon fill="white" stroke="#666666" points="88.75,-38.25 0,-38.25 0,-19 88.75,-19 88.75,-38.25"/>
<text text-anchor="middle" x="44.38" y="-24.75" font-family="Helvetica,sans-Serif" font-size="10.00">getAccessToken</text>
</a>
</g>
</g>
<!-- Node2&#45;&gt;Node3 -->
<g id="edge2_Node000002_Node000003" class="edge">
<title>Node2&#45;&gt;Node3</title>
<g id="a_edge2_Node000002_Node000003"><a xlink:title=" ">
<path fill="none" stroke="#63b8ff" d="M113.3,-28.62C105,-28.62 96.75,-28.62 89.01,-28.62"/>
<polygon fill="#63b8ff" stroke="#63b8ff" points="113.09,-32.13 123.09,-28.63 113.09,-25.13 113.09,-32.13"/>
</a>
</g>
</g>
<!-- Node4&#45;&gt;Node2 -->
<g id="edge4_Node000004_Node000002" class="edge">
<title>Node4&#45;&gt;Node2</title>
<g id="a_edge4_Node000004_Node000002"><a xlink:title=" ">
<path fill="none" stroke="#63b8ff" d="M274.65,-17.53C266.73,-18.55 258.61,-19.59 250.68,-20.62"/>
<polygon fill="#63b8ff" stroke="#63b8ff" points="275.09,-21 284.56,-16.25 274.2,-14.06 275.09,-21"/>
</a>
</g>
</g>
</g>
</svg>
