<?xml version="1.0" encoding="UTF-8" standalone="no"?>
<!DOCTYPE svg PUBLIC "-//W3C//DTD SVG 1.1//EN"
 "http://www.w3.org/Graphics/SVG/1.1/DTD/svg11.dtd">
<!-- Generated by graphviz version 10.0.1 (20240210.2158)
 -->
<!-- Title: macro_field Pages: 1 -->
<svg width="395pt" height="323pt"
 viewBox="0.00 0.00 395.00 323.25" xmlns="http://www.w3.org/2000/svg" xmlns:xlink="http://www.w3.org/1999/xlink">

<svg id="main" version="1.1" xmlns="http://www.w3.org/2000/svg" xmlns:xlink="http://www.w3.org/1999/xlink" xml:space="preserve" onload="init(evt)">
<style type="text/css"><![CDATA[
.node, .edge {opacity: 0.7;}
.node.selected, .edge.selected {opacity: 1;}
.edge:hover path { stroke: red; }
.edge:hover polygon { stroke: red; fill: red; }
]]></style>
<script type="application/ecmascript" xlink:href="svg.min.js"/>
<svg id="graph" class="graph">
<g id="graph0" class="graph" transform="scale(1 1) rotate(0) translate(4 319.25)">
<title>macro_field</title>
<!-- Node1 -->
<g id="Node000001" class="node">
<title>Node1</title>
<g id="a_Node000001"><a xlink:title=" ">
<polygon fill="#999999" stroke="#666666" points="66.25,-167.25 0,-167.25 0,-148 66.25,-148 66.25,-167.25"/>
<text text-anchor="middle" x="33.12" y="-153.75" font-family="Helvetica,sans-Serif" font-size="10.00">macro_field</text>
</a>
</g>
</g>
<!-- Node2 -->
<g id="Node000002" class="node">
<title>Node2</title>
<g id="a_Node000002"><a xlink:href="class_____twig_template__4cad302603e5c77a607dc9e0bac1ebc3.html#a38152512ea69c5f598112d1e1064e4b5" target="_top" xlink:title=" ">
<polygon fill="white" stroke="#666666" points="197,-315.25 102.25,-315.25 102.25,-296 197,-296 197,-315.25"/>
<text text-anchor="middle" x="149.62" y="-301.75" font-family="Helvetica,sans-Serif" font-size="10.00">getSourceContext</text>
</a>
</g>
</g>
<!-- Node1&#45;&gt;Node2 -->
<g id="edge1_Node000001_Node000002" class="edge">
<title>Node1&#45;&gt;Node2</title>
<g id="a_edge1_Node000001_Node000002"><a xlink:title=" ">
<path fill="none" stroke="#63b8ff" d="M36.72,-167.6C43.44,-191.61 63.68,-253.16 102.25,-287.62 103.15,-288.43 104.09,-289.2 105.07,-289.94"/>
<polygon fill="#63b8ff" stroke="#63b8ff" points="102.89,-292.71 113.25,-294.94 106.54,-286.74 102.89,-292.71"/>
</a>
</g>
</g>
<!-- Node3 -->
<g id="Node000003" class="node">
<title>Node3</title>
<g id="a_Node000003"><a xlink:href="_core_extension_8php.html#a2d50d273b88123237405a3388a6012a5" target="_top" xlink:title=" ">
<polygon fill="white" stroke="#666666" points="196.25,-241.25 103,-241.25 103,-222 196.25,-222 196.25,-241.25"/>
<text text-anchor="middle" x="149.62" y="-227.75" font-family="Helvetica,sans-Serif" font-size="10.00">twig_array_merge</text>
</a>
</g>
</g>
<!-- Node1&#45;&gt;Node3 -->
<g id="edge2_Node000001_Node000003" class="edge">
<title>Node1&#45;&gt;Node3</title>
<g id="a_edge2_Node000001_Node000003"><a xlink:title=" ">
<path fill="none" stroke="#63b8ff" d="M43.97,-167.46C56.58,-179.62 79.52,-200.33 102.25,-213.62 104.15,-214.74 106.13,-215.81 108.16,-216.83"/>
<polygon fill="#63b8ff" stroke="#63b8ff" points="106.6,-219.96 117.15,-220.93 109.51,-213.6 106.6,-219.96"/>
</a>
</g>
</g>
<!-- Node5 -->
<g id="Node000005" class="node">
<title>Node5</title>
<g id="a_Node000005"><a xlink:href="_core_extension_8php.html#a01c03508433819ad3d9b5afd9ba53193" target="_top" xlink:title=" ">
<polygon fill="white" stroke="#666666" points="192.88,-56.25 106.38,-56.25 106.38,-37 192.88,-37 192.88,-56.25"/>
<text text-anchor="middle" x="149.62" y="-42.75" font-family="Helvetica,sans-Serif" font-size="10.00">twig_call_macro</text>
</a>
</g>
</g>
<!-- Node1&#45;&gt;Node5 -->
<g id="edge4_Node000001_Node000005" class="edge">
<title>Node1&#45;&gt;Node5</title>
<g id="a_edge4_Node000001_Node000005"><a xlink:title=" ">
<path fill="none" stroke="#63b8ff" d="M38.9,-147.77C48.45,-129.06 71.6,-88.14 102.25,-64.62 103.41,-63.74 104.61,-62.89 105.85,-62.08"/>
<polygon fill="#63b8ff" stroke="#63b8ff" points="107.5,-65.17 114.6,-57.3 104.15,-59.02 107.5,-65.17"/>
</a>
</g>
</g>
<!-- Node6 -->
<g id="Node000006" class="node">
<title>Node6</title>
<g id="a_Node000006"><a xlink:href="_escaper_extension_8php.html#aabeb5b51fb981707d997d1c588d7c509" target="_top" xlink:title=" ">
<polygon fill="white" stroke="#666666" points="197,-167.25 102.25,-167.25 102.25,-148 197,-148 197,-167.25"/>
<text text-anchor="middle" x="149.62" y="-153.75" font-family="Helvetica,sans-Serif" font-size="10.00">twig_escape_filter</text>
</a>
</g>
</g>
<!-- Node1&#45;&gt;Node6 -->
<g id="edge5_Node000001_Node000006" class="edge">
<title>Node1&#45;&gt;Node6</title>
<g id="a_edge5_Node000001_Node000006"><a xlink:title=" ">
<path fill="none" stroke="#63b8ff" d="M66.63,-157.62C74.09,-157.62 82.24,-157.62 90.42,-157.62"/>
<polygon fill="#63b8ff" stroke="#63b8ff" points="90.42,-161.13 100.42,-157.63 90.42,-154.13 90.42,-161.13"/>
</a>
</g>
</g>
<!-- Node10 -->
<g id="Node000010" class="node">
<title>Node10</title>
<g id="a_Node000010"><a xlink:href="_core_extension_8php.html#aeb74e277ae38926f0b4c91f83c580705" target="_top" xlink:title=" ">
<polygon fill="white" stroke="#666666" points="196.25,-93.25 103,-93.25 103,-74 196.25,-74 196.25,-93.25"/>
<text text-anchor="middle" x="149.62" y="-79.75" font-family="Helvetica,sans-Serif" font-size="10.00">twig_get_attribute</text>
</a>
</g>
</g>
<!-- Node1&#45;&gt;Node10 -->
<g id="edge9_Node000001_Node000010" class="edge">
<title>Node1&#45;&gt;Node10</title>
<g id="a_edge9_Node000001_Node000010"><a xlink:title=" ">
<path fill="none" stroke="#63b8ff" d="M43.97,-147.79C56.58,-135.63 79.52,-114.92 102.25,-101.62 104.15,-100.51 106.13,-99.44 108.16,-98.42"/>
<polygon fill="#63b8ff" stroke="#63b8ff" points="109.51,-101.65 117.15,-94.32 106.6,-95.29 109.51,-101.65"/>
</a>
</g>
</g>
<!-- Node12 -->
<g id="Node000012" class="node">
<title>Node12</title>
<g id="a_Node000012"><a xlink:href="_core_extension_8php.html#a865b65eeb9df87675788913e1e69fc7d" target="_top" xlink:title=" ">
<polygon fill="white" stroke="#666666" points="185,-19.25 114.25,-19.25 114.25,0 185,0 185,-19.25"/>
<text text-anchor="middle" x="149.62" y="-5.75" font-family="Helvetica,sans-Serif" font-size="10.00">twig_in_filter</text>
</a>
</g>
</g>
<!-- Node1&#45;&gt;Node12 -->
<g id="edge12_Node000001_Node000012" class="edge">
<title>Node1&#45;&gt;Node12</title>
<g id="a_edge12_Node000001_Node000012"><a xlink:title=" ">
<path fill="none" stroke="#63b8ff" d="M36.72,-147.65C43.44,-123.64 63.68,-62.09 102.25,-27.62 103.15,-26.82 104.09,-26.05 105.07,-25.31"/>
<polygon fill="#63b8ff" stroke="#63b8ff" points="106.54,-28.51 113.25,-20.31 102.89,-22.54 106.54,-28.51"/>
</a>
</g>
</g>
<!-- Node14 -->
<g id="Node000014" class="node">
<title>Node14</title>
<g id="a_Node000014"><a xlink:href="_core_extension_8php.html#a9406216b24c030f1de8792d9a386eb77" target="_top" xlink:title=" ">
<polygon fill="white" stroke="#666666" points="194.38,-130.25 104.88,-130.25 104.88,-111 194.38,-111 194.38,-130.25"/>
<text text-anchor="middle" x="149.62" y="-116.75" font-family="Helvetica,sans-Serif" font-size="10.00">twig_length_filter</text>
</a>
</g>
</g>
<!-- Node1&#45;&gt;Node14 -->
<g id="edge14_Node000001_Node000014" class="edge">
<title>Node1&#45;&gt;Node14</title>
<g id="a_edge14_Node000001_Node000014"><a xlink:title=" ">
<path fill="none" stroke="#63b8ff" d="M65.41,-147.51C78.16,-143.4 93.09,-138.57 106.75,-134.16"/>
<polygon fill="#63b8ff" stroke="#63b8ff" points="107.5,-137.59 115.93,-131.19 105.34,-130.93 107.5,-137.59"/>
</a>
</g>
</g>
<!-- Node15 -->
<g id="Node000015" class="node">
<title>Node15</title>
<g id="a_Node000015"><a xlink:href="_core_extension_8php.html#a58143cb7cfe98f1ef38883299f5c1dee" target="_top" xlink:title=" ">
<polygon fill="white" stroke="#666666" points="185.38,-204.25 113.88,-204.25 113.88,-185 185.38,-185 185.38,-204.25"/>
<text text-anchor="middle" x="149.62" y="-190.75" font-family="Helvetica,sans-Serif" font-size="10.00">twig_random</text>
</a>
</g>
</g>
<!-- Node1&#45;&gt;Node15 -->
<g id="edge16_Node000001_Node000015" class="edge">
<title>Node1&#45;&gt;Node15</title>
<g id="a_edge16_Node000001_Node000015"><a xlink:title=" ">
<path fill="none" stroke="#63b8ff" d="M65.41,-167.74C78.16,-171.85 93.09,-176.68 106.75,-181.09"/>
<polygon fill="#63b8ff" stroke="#63b8ff" points="105.34,-184.32 115.93,-184.06 107.5,-177.66 105.34,-184.32"/>
</a>
</g>
</g>
<!-- Node16 -->
<g id="Node000016" class="node">
<title>Node16</title>
<g id="a_Node000016"><a xlink:href="_core_extension_8php.html#ad7b11011c24881206b82608150d3ba36" target="_top" xlink:title=" ">
<polygon fill="white" stroke="#666666" points="197,-278.25 102.25,-278.25 102.25,-259 197,-259 197,-278.25"/>
<text text-anchor="middle" x="149.62" y="-264.75" font-family="Helvetica,sans-Serif" font-size="10.00">twig_replace_filter</text>
</a>
</g>
</g>
<!-- Node1&#45;&gt;Node16 -->
<g id="edge20_Node000001_Node000016" class="edge">
<title>Node1&#45;&gt;Node16</title>
<g id="a_edge20_Node000001_Node000016"><a xlink:title=" ">
<path fill="none" stroke="#63b8ff" d="M38.9,-167.48C48.45,-186.19 71.6,-227.11 102.25,-250.62 103.41,-251.51 104.61,-252.36 105.85,-253.17"/>
<polygon fill="#63b8ff" stroke="#63b8ff" points="104.15,-256.23 114.6,-257.95 107.5,-250.08 104.15,-256.23"/>
</a>
</g>
</g>
<!-- Node4 -->
<g id="Node000004" class="node">
<title>Node4</title>
<g id="a_Node000004"><a xlink:href="_core_extension_8php.html#add6085b705776ea6e84cec0f1f6c6e8b" target="_top" xlink:title=" ">
<polygon fill="white" stroke="#666666" points="347.25,-241.25 272.75,-241.25 272.75,-222 347.25,-222 347.25,-241.25"/>
<text text-anchor="middle" x="310" y="-227.75" font-family="Helvetica,sans-Serif" font-size="10.00">twig_to_array</text>
</a>
</g>
</g>
<!-- Node3&#45;&gt;Node4 -->
<g id="edge3_Node000003_Node000004" class="edge">
<title>Node3&#45;&gt;Node4</title>
<g id="a_edge3_Node000003_Node000004"><a xlink:title=" ">
<path fill="none" stroke="#63b8ff" d="M196.43,-231.62C216.69,-231.62 240.51,-231.62 261.01,-231.62"/>
<polygon fill="#63b8ff" stroke="#63b8ff" points="260.82,-235.13 270.82,-231.63 260.82,-228.13 260.82,-235.13"/>
</a>
</g>
</g>
<!-- Node7 -->
<g id="Node000007" class="node">
<title>Node7</title>
<g id="a_Node000007"><a xlink:href="class_twig_1_1_environment.html#abca2d528da8311b6fcfe040768cbaa24" target="_top" xlink:title=" ">
<polygon fill="white" stroke="#666666" points="382.5,-167.25 237.5,-167.25 237.5,-148 382.5,-148 382.5,-167.25"/>
<text text-anchor="middle" x="310" y="-153.75" font-family="Helvetica,sans-Serif" font-size="10.00">Twig\Environment\getCharset</text>
</a>
</g>
</g>
<!-- Node6&#45;&gt;Node7 -->
<g id="edge6_Node000006_Node000007" class="edge">
<title>Node6&#45;&gt;Node7</title>
<g id="a_edge6_Node000006_Node000007"><a xlink:title=" ">
<path fill="none" stroke="#63b8ff" d="M197.29,-157.62C206.27,-157.62 215.93,-157.62 225.68,-157.62"/>
<polygon fill="#63b8ff" stroke="#63b8ff" points="225.6,-161.13 235.6,-157.63 225.6,-154.13 225.6,-161.13"/>
</a>
</g>
</g>
<!-- Node8 -->
<g id="Node000008" class="node">
<title>Node8</title>
<g id="a_Node000008"><a xlink:href="class_twig_1_1_environment.html#a5023c2a5ed30e298f55126721092f13d" target="_top" xlink:title=" ">
<polygon fill="white" stroke="#666666" points="387,-130.25 233,-130.25 233,-111 387,-111 387,-130.25"/>
<text text-anchor="middle" x="310" y="-116.75" font-family="Helvetica,sans-Serif" font-size="10.00">Twig\Environment\getExtension</text>
</a>
</g>
</g>
<!-- Node6&#45;&gt;Node8 -->
<g id="edge7_Node000006_Node000008" class="edge">
<title>Node6&#45;&gt;Node8</title>
<g id="a_edge7_Node000006_Node000008"><a xlink:title=" ">
<path fill="none" stroke="#63b8ff" d="M193.9,-147.51C212.67,-143.13 234.85,-137.95 254.71,-133.31"/>
<polygon fill="#63b8ff" stroke="#63b8ff" points="255.36,-136.75 264.3,-131.07 253.77,-129.93 255.36,-136.75"/>
</a>
</g>
</g>
<!-- Node9 -->
<g id="Node000009" class="node">
<title>Node9</title>
<g id="a_Node000009"><a xlink:href="_core_extension_8php.html#ae288325a1d8fc4e036d1e828d7fac1f6" target="_top" xlink:title=" ">
<polygon fill="white" stroke="#666666" points="367.88,-204.25 252.12,-204.25 252.12,-185 367.88,-185 367.88,-204.25"/>
<text text-anchor="middle" x="310" y="-190.75" font-family="Helvetica,sans-Serif" font-size="10.00">twig_convert_encoding</text>
</a>
</g>
</g>
<!-- Node6&#45;&gt;Node9 -->
<g id="edge8_Node000006_Node000009" class="edge">
<title>Node6&#45;&gt;Node9</title>
<g id="a_edge8_Node000006_Node000009"><a xlink:title=" ">
<path fill="none" stroke="#63b8ff" d="M193.9,-167.74C212.67,-172.12 234.85,-177.3 254.71,-181.94"/>
<polygon fill="#63b8ff" stroke="#63b8ff" points="253.77,-185.32 264.3,-184.18 255.36,-178.5 253.77,-185.32"/>
</a>
</g>
</g>
<!-- Node10&#45;&gt;Node8 -->
<g id="edge10_Node000010_Node000008" class="edge">
<title>Node10&#45;&gt;Node8</title>
<g id="a_edge10_Node000010_Node000008"><a xlink:title=" ">
<path fill="none" stroke="#63b8ff" d="M193.9,-93.74C212.67,-98.12 234.85,-103.3 254.71,-107.94"/>
<polygon fill="#63b8ff" stroke="#63b8ff" points="253.77,-111.32 264.3,-110.18 255.36,-104.5 253.77,-111.32"/>
</a>
</g>
</g>
<!-- Node11 -->
<g id="Node000011" class="node">
<title>Node11</title>
<g id="a_Node000011"><a xlink:href="class_twig_1_1_environment.html#ab39d5897ee5022ecc92032d769b9c60c" target="_top" xlink:title=" ">
<polygon fill="white" stroke="#666666" points="373.88,-92.88 246.12,-92.88 246.12,-62.38 373.88,-62.38 373.88,-92.88"/>
<text text-anchor="start" x="254.12" y="-79.38" font-family="Helvetica,sans-Serif" font-size="10.00">Twig\Environment\isStrict</text>
<text text-anchor="middle" x="310" y="-68.12" font-family="Helvetica,sans-Serif" font-size="10.00">Variables</text>
</a>
</g>
</g>
<!-- Node10&#45;&gt;Node11 -->
<g id="edge11_Node000010_Node000011" class="edge">
<title>Node10&#45;&gt;Node11</title>
<g id="a_edge11_Node000010_Node000011"><a xlink:title=" ">
<path fill="none" stroke="#63b8ff" d="M196.43,-81.89C208.37,-81.44 221.56,-80.94 234.56,-80.44"/>
<polygon fill="#63b8ff" stroke="#63b8ff" points="234.54,-83.95 244.4,-80.07 234.28,-76.95 234.54,-83.95"/>
</a>
</g>
</g>
<!-- Node13 -->
<g id="Node000013" class="node">
<title>Node13</title>
<g id="a_Node000013"><a xlink:href="_core_extension_8php.html#a76c9a3e591fd568aa228cd768b990508" target="_top" xlink:title=" ">
<polygon fill="white" stroke="#666666" points="348.38,-19.25 271.62,-19.25 271.62,0 348.38,0 348.38,-19.25"/>
<text text-anchor="middle" x="310" y="-5.75" font-family="Helvetica,sans-Serif" font-size="10.00">twig_compare</text>
</a>
</g>
</g>
<!-- Node12&#45;&gt;Node13 -->
<g id="edge13_Node000012_Node000013" class="edge">
<title>Node12&#45;&gt;Node13</title>
<g id="a_edge13_Node000012_Node000013"><a xlink:title=" ">
<path fill="none" stroke="#63b8ff" d="M185.38,-9.62C207.21,-9.62 235.71,-9.62 259.84,-9.62"/>
<polygon fill="#63b8ff" stroke="#63b8ff" points="259.77,-13.13 269.77,-9.63 259.77,-6.13 259.77,-13.13"/>
</a>
</g>
</g>
<!-- Node14&#45;&gt;Node7 -->
<g id="edge15_Node000014_Node000007" class="edge">
<title>Node14&#45;&gt;Node7</title>
<g id="a_edge15_Node000014_Node000007"><a xlink:title=" ">
<path fill="none" stroke="#63b8ff" d="M193.9,-130.74C212.67,-135.12 234.85,-140.3 254.71,-144.94"/>
<polygon fill="#63b8ff" stroke="#63b8ff" points="253.77,-148.32 264.3,-147.18 255.36,-141.5 253.77,-148.32"/>
</a>
</g>
</g>
<!-- Node15&#45;&gt;Node4 -->
<g id="edge19_Node000015_Node000004" class="edge">
<title>Node15&#45;&gt;Node4</title>
<g id="a_edge19_Node000015_Node000004"><a xlink:title=" ">
<path fill="none" stroke="#63b8ff" d="M185.77,-202.84C207.96,-208.02 236.91,-214.78 261.17,-220.45"/>
<polygon fill="#63b8ff" stroke="#63b8ff" points="260.29,-223.84 270.82,-222.71 261.88,-217.02 260.29,-223.84"/>
</a>
</g>
</g>
<!-- Node15&#45;&gt;Node7 -->
<g id="edge17_Node000015_Node000007" class="edge">
<title>Node15&#45;&gt;Node7</title>
<g id="a_edge17_Node000015_Node000007"><a xlink:title=" ">
<path fill="none" stroke="#63b8ff" d="M185.77,-186.41C206.06,-181.67 231.99,-175.62 254.83,-170.28"/>
<polygon fill="#63b8ff" stroke="#63b8ff" points="255.34,-173.75 264.29,-168.07 253.75,-166.94 255.34,-173.75"/>
</a>
</g>
</g>
<!-- Node15&#45;&gt;Node9 -->
<g id="edge18_Node000015_Node000009" class="edge">
<title>Node15&#45;&gt;Node9</title>
<g id="a_edge18_Node000015_Node000009"><a xlink:title=" ">
<path fill="none" stroke="#63b8ff" d="M185.77,-194.62C201.92,-194.62 221.66,-194.62 240.56,-194.62"/>
<polygon fill="#63b8ff" stroke="#63b8ff" points="240.35,-198.13 250.35,-194.63 240.35,-191.13 240.35,-198.13"/>
</a>
</g>
</g>
<!-- Node16&#45;&gt;Node4 -->
<g id="edge21_Node000016_Node000004" class="edge">
<title>Node16&#45;&gt;Node4</title>
<g id="a_edge21_Node000016_Node000004"><a xlink:title=" ">
<path fill="none" stroke="#63b8ff" d="M193.9,-258.51C214.79,-253.64 239.9,-247.77 261.33,-242.76"/>
<polygon fill="#63b8ff" stroke="#63b8ff" points="262.06,-246.18 271.01,-240.5 260.47,-239.37 262.06,-246.18"/>
</a>
</g>
</g>
</g>
</svg>
</svg>

<style type='text/css'>
<![CDATA[
[data-mouse-over-selected='false'] { opacity: 0.7; }
[data-mouse-over-selected='true']  { opacity: 1.0; }
]]>
</style>
<script type="application/ecmascript"><![CDATA[
document.addEventListener('DOMContentLoaded', (event) => {
  highlightEdges();
  highlightAdjacentNodes();
});
]]></script>
</svg>
