<?xml version="1.0" encoding="UTF-8" standalone="no"?>
<!DOCTYPE svg PUBLIC "-//W3C//DTD SVG 1.1//EN"
 "http://www.w3.org/Graphics/SVG/1.1/DTD/svg11.dtd">
<!-- Generated by graphviz version 10.0.1 (20240210.2158)
 -->
<!-- Title: prepare Pages: 1 -->
<svg width="269pt" height="57pt"
 viewBox="0.00 0.00 268.61 56.50" xmlns="http://www.w3.org/2000/svg" xmlns:xlink="http://www.w3.org/1999/xlink">

<svg id="main" version="1.1" xmlns="http://www.w3.org/2000/svg" xmlns:xlink="http://www.w3.org/1999/xlink" xml:space="preserve" onload="init(evt)">
<style type="text/css"><![CDATA[
.node, .edge {opacity: 0.7;}
.node.selected, .edge.selected {opacity: 1;}
.edge:hover path { stroke: red; }
.edge:hover polygon { stroke: red; fill: red; }
]]></style>
<script type="application/ecmascript" xlink:href="svg.min.js"/>
<svg id="graph" class="graph">
<g id="graph0" class="graph" transform="scale(1 1) rotate(0) translate(4 52.5)">
<title>prepare</title>
<!-- Node1 -->
<g id="Node000001" class="node">
<title>Node1</title>
<g id="a_Node000001"><a xlink:title=" ">
<polygon fill="#999999" stroke="#666666" points="51.86,-24.88 3.61,-24.88 3.61,-5.63 51.86,-5.63 51.86,-24.88"/>
<text text-anchor="middle" x="27.74" y="-11.38" font-family="Helvetica,sans-Serif" font-size="10.00">prepare</text>
</a>
</g>
</g>
<!-- Node1&#45;&gt;Node1 -->
<g id="edge3_Node000001_Node000001" class="edge">
<title>Node1&#45;&gt;Node1</title>
<g id="a_edge3_Node000001_Node000001"><a xlink:title=" ">
<path fill="none" stroke="#63b8ff" d="M4.8,-25.16C-5.66,-33.77 1.99,-42.88 27.74,-42.88 42.22,-42.88 50.98,-39.99 54.01,-35.94"/>
<polygon fill="#63b8ff" stroke="#63b8ff" points="57.42,-35.13 51.12,-26.61 50.73,-37.2 57.42,-35.13"/>
</a>
</g>
</g>
<!-- Node2 -->
<g id="Node000002" class="node">
<title>Node2</title>
<g id="a_Node000002"><a xlink:href="class_symfony_1_1_component_1_1_var_exporter_1_1_internal_1_1_registry.html#ad5cca86009a280d5a706bf985d153897" target="_top" xlink:title=" ">
<polygon fill="white" stroke="#666666" points="260.61,-30.5 87.86,-30.5 87.86,0 260.61,0 260.61,-30.5"/>
<text text-anchor="start" x="95.86" y="-17" font-family="Helvetica,sans-Serif" font-size="10.00">Symfony\Component\VarExporter</text>
<text text-anchor="middle" x="174.24" y="-5.75" font-family="Helvetica,sans-Serif" font-size="10.00">\Internal\Registry\getClassReflector</text>
</a>
</g>
</g>
<!-- Node1&#45;&gt;Node2 -->
<g id="edge1_Node000001_Node000002" class="edge">
<title>Node1&#45;&gt;Node2</title>
<g id="a_edge1_Node000001_Node000002"><a xlink:title=" ">
<path fill="none" stroke="#63b8ff" d="M52.28,-15.25C59.31,-15.25 67.49,-15.25 76.21,-15.25"/>
<polygon fill="#63b8ff" stroke="#63b8ff" points="76.01,-18.75 86.01,-15.25 76.01,-11.75 76.01,-18.75"/>
</a>
</g>
</g>
<!-- Node2&#45;&gt;Node2 -->
<g id="edge2_Node000002_Node000002" class="edge">
<title>Node2&#45;&gt;Node2</title>
<g id="a_edge2_Node000002_Node000002"><a xlink:title=" ">
<path fill="none" stroke="#63b8ff" d="M148.28,-30.99C142.98,-40.06 151.63,-48.5 174.24,-48.5 186.6,-48.5 194.79,-45.97 198.81,-42.2"/>
<polygon fill="#63b8ff" stroke="#63b8ff" points="202.25,-42.84 200.01,-32.49 195.31,-41.98 202.25,-42.84"/>
</a>
</g>
</g>
</g>
</svg>
</svg>

<style type='text/css'>
<![CDATA[
[data-mouse-over-selected='false'] { opacity: 0.7; }
[data-mouse-over-selected='true']  { opacity: 1.0; }
]]>
</style>
<script type="application/ecmascript"><![CDATA[
document.addEventListener('DOMContentLoaded', (event) => {
  highlightEdges();
  highlightAdjacentNodes();
});
]]></script>
</svg>
