<?xml version="1.0" encoding="UTF-8" standalone="no"?>
<!DOCTYPE svg PUBLIC "-//W3C//DTD SVG 1.1//EN"
 "http://www.w3.org/Graphics/SVG/1.1/DTD/svg11.dtd">
<!-- Generated by graphviz version 10.0.1 (20240210.2158)
 -->
<!-- Title: current Pages: 1 -->
<svg width="138pt" height="64pt"
 viewBox="0.00 0.00 138.25 64.25" xmlns="http://www.w3.org/2000/svg" xmlns:xlink="http://www.w3.org/1999/xlink">

<svg id="main" version="1.1" xmlns="http://www.w3.org/2000/svg" xmlns:xlink="http://www.w3.org/1999/xlink" xml:space="preserve" onload="init(evt)">
<style type="text/css"><![CDATA[
.node, .edge {opacity: 0.7;}
.node.selected, .edge.selected {opacity: 1;}
.edge:hover path { stroke: red; }
.edge:hover polygon { stroke: red; fill: red; }
]]></style>
<script type="application/ecmascript" xlink:href="svg.min.js"/>
<svg id="graph" class="graph">
<g id="graph0" class="graph" transform="scale(1 1) rotate(0) translate(4 60.25)">
<title>current</title>
<!-- Node1 -->
<g id="Node000001" class="node">
<title>Node1</title>
<g id="a_Node000001"><a xlink:title=" ">
<polygon fill="#999999" stroke="#666666" points="130.25,-37.25 84.25,-37.25 84.25,-18 130.25,-18 130.25,-37.25"/>
<text text-anchor="middle" x="107.25" y="-23.75" font-family="Helvetica,sans-Serif" font-size="10.00">current</text>
</a>
</g>
</g>
<!-- Node1&#45;&gt;Node1 -->
<g id="edge1_Node000001_Node000001" class="edge">
<title>Node1&#45;&gt;Node1</title>
<g id="a_edge1_Node000001_Node000001"><a xlink:title=" ">
<path fill="none" stroke="#63b8ff" d="M122,-48.65C120.16,-52.53 115.24,-55.25 107.25,-55.25 92.64,-55.25 88.3,-46.15 94.24,-37.54"/>
<polygon fill="#63b8ff" stroke="#63b8ff" points="125.5,-48.37 120.5,-39.03 118.59,-49.45 125.5,-48.37"/>
</a>
</g>
</g>
<!-- Node2 -->
<g id="Node000002" class="node">
<title>Node2</title>
<g id="a_Node000002"><a xlink:href="class_laminas_1_1_stdlib_1_1_fast_priority_queue.html#a017ef4fbe3e4fedcdffd97fed288016f" target="_top" xlink:title=" ">
<polygon fill="white" stroke="#666666" points="47.12,-56.25 1.12,-56.25 1.12,-37 47.12,-37 47.12,-56.25"/>
<text text-anchor="middle" x="24.12" y="-42.75" font-family="Helvetica,sans-Serif" font-size="10.00">extract</text>
</a>
</g>
</g>
<!-- Node1&#45;&gt;Node2 -->
<g id="edge2_Node000001_Node000002" class="edge">
<title>Node1&#45;&gt;Node2</title>
<g id="a_edge2_Node000001_Node000002"><a xlink:title=" ">
<path fill="none" stroke="#63b8ff" d="M73.16,-35.37C64.55,-37.39 55.47,-39.52 47.55,-41.37"/>
<polygon fill="#63b8ff" stroke="#63b8ff" points="73.67,-38.85 82.61,-33.16 72.07,-32.03 73.67,-38.85"/>
</a>
</g>
</g>
<!-- Node3 -->
<g id="Node000003" class="node">
<title>Node3</title>
<g id="a_Node000003"><a xlink:href="class_laminas_1_1_stdlib_1_1_fast_priority_queue.html#ae62e61c6cc8d2975e6a63c5d8c5790a7" target="_top" xlink:title=" ">
<polygon fill="white" stroke="#666666" points="48.25,-19.25 0,-19.25 0,0 48.25,0 48.25,-19.25"/>
<text text-anchor="middle" x="24.12" y="-5.75" font-family="Helvetica,sans-Serif" font-size="10.00">remove</text>
</a>
</g>
</g>
<!-- Node1&#45;&gt;Node3 -->
<g id="edge3_Node000001_Node000003" class="edge">
<title>Node1&#45;&gt;Node3</title>
<g id="a_edge3_Node000001_Node000003"><a xlink:title=" ">
<path fill="none" stroke="#63b8ff" d="M72.98,-20.24C64.83,-18.43 56.27,-16.54 48.69,-14.85"/>
<polygon fill="#63b8ff" stroke="#63b8ff" points="72.08,-23.63 82.6,-22.38 73.6,-16.8 72.08,-23.63"/>
</a>
</g>
</g>
</g>
</svg>
</svg>

<style type='text/css'>
<![CDATA[
[data-mouse-over-selected='false'] { opacity: 0.7; }
[data-mouse-over-selected='true']  { opacity: 1.0; }
]]>
</style>
<script type="application/ecmascript"><![CDATA[
document.addEventListener('DOMContentLoaded', (event) => {
  highlightEdges();
  highlightAdjacentNodes();
});
]]></script>
</svg>
