<?xml version="1.0" encoding="UTF-8" standalone="no"?>
<!DOCTYPE svg PUBLIC "-//W3C//DTD SVG 1.1//EN"
 "http://www.w3.org/Graphics/SVG/1.1/DTD/svg11.dtd">
<!-- Generated by graphviz version 10.0.1 (20240210.2158)
 -->
<!-- Title: translateNthChild Pages: 1 -->
<!--zoomable 160 -->

<svg id="main" version="1.1" xmlns="http://www.w3.org/2000/svg" xmlns:xlink="http://www.w3.org/1999/xlink" xml:space="preserve" onload="init(evt)">
<style type="text/css"><![CDATA[
.node, .edge {opacity: 0.7;}
.node.selected, .edge.selected {opacity: 1;}
.edge:hover path { stroke: red; }
.edge:hover polygon { stroke: red; fill: red; }
]]></style>

<defs>
  <circle id="rim" cx="0" cy="0" r="7"/>
  <circle id="rim2" cx="0" cy="0" r="3.5"/>
  <g id="zoomPlus">
    <use xlink:href="#rim" fill="#404040"><set attributeName="fill" to="#808080" begin="zoomplus.mouseover" end="zoomplus.mouseout"/></use>
    <path d="M-4,0h8M0,-4v8" fill="none" stroke="white" stroke-width="1.5" pointer-events="none"/>
  </g>
  <g id="zoomMin">
    <use xlink:href="#rim" fill="#404040"><set attributeName="fill" to="#808080" begin="zoomminus.mouseover" end="zoomminus.mouseout"/></use>
    <path d="M-4,0h8" fill="none" stroke="white" stroke-width="1.5" pointer-events="none"/>
  </g>
  <g id="arrowUp" transform="translate(30 24)">
    <use xlink:href="#rim"/>
    <path pointer-events="none" fill="none" stroke="white" stroke-width="1.5" d="M0,-3.0v7 M-2.5,-0.5L0,-3.0L2.5,-0.5"/>
  </g>
  <g id="arrowRight" transform="rotate(90) translate(36 -43)">
    <use xlink:href="#rim"/>
    <path pointer-events="none" fill="none" stroke="white" stroke-width="1.5" d="M0,-3.0v7 M-2.5,-0.5L0,-3.0L2.5,-0.5"/>
  </g>
  <g id="arrowDown" transform="rotate(180) translate(-30 -48)">
    <use xlink:href="#rim"/>
    <path pointer-events="none" fill="none" stroke="white" stroke-width="1.5" d="M0,-3.0v7 M-2.5,-0.5L0,-3.0L2.5,-0.5"/>
  </g>
  <g id="arrowLeft" transform="rotate(270) translate(-36 17)">
    <use xlink:href="#rim"/>
    <path pointer-events="none" fill="none" stroke="white" stroke-width="1.5" d="M0,-3.0v7 M-2.5,-0.5L0,-3.0L2.5,-0.5"/>
  </g>
  <g id="resetDef">
    <use xlink:href="#rim2" fill="#404040"><set attributeName="fill" to="#808080" begin="reset.mouseover" end="reset.mouseout"/></use>
  </g>
</defs>
<script type="application/ecmascript">
var viewWidth = 502;
var viewHeight = 160;
var sectionId = 'dynsection-4';
</script>
<script type="application/ecmascript" xlink:href="svg.min.js"/>
<svg id="graph" class="graph">
<g id="viewport">
<title>translateNthChild</title>
<!-- Node1 -->
<g id="Node000001" class="node">
<title>Node1</title>
<g id="a_Node000001"><a xlink:title=" ">
<polygon fill="#999999" stroke="#666666" points="91.75,-97.88 0,-97.88 0,-78.62 91.75,-78.62 91.75,-97.88"/>
<text text-anchor="middle" x="45.88" y="-84.38" font-family="Helvetica,sans-Serif" font-size="10.00">translateNthChild</text>
</a>
</g>
</g>
<!-- Node2 -->
<g id="Node000002" class="node">
<title>Node2</title>
<g id="a_Node000002"><a xlink:href="class_symfony_1_1_component_1_1_css_selector_1_1_x_path_1_1_x_path_expr.html#ab7af4a256e5e76e7a748de4905b4c180" target="_top" xlink:title=" ">
<polygon fill="white" stroke="#666666" points="494.25,-149.5 329,-149.5 329,-119 494.25,-119 494.25,-149.5"/>
<text text-anchor="start" x="337" y="-136" font-family="Helvetica,sans-Serif" font-size="10.00">Symfony\Component\CssSelector</text>
<text text-anchor="middle" x="411.62" y="-124.75" font-family="Helvetica,sans-Serif" font-size="10.00">\XPath\XPathExpr\addCondition</text>
</a>
</g>
</g>
<!-- Node1&#45;&gt;Node2 -->
<g id="edge1_Node000001_Node000002" class="edge">
<title>Node1&#45;&gt;Node2</title>
<g id="a_edge1_Node000001_Node000002"><a xlink:title=" ">
<path fill="none" stroke="#63b8ff" d="M58.76,-98.37C73.71,-110.37 100.71,-129.7 127.75,-137.25 189.26,-154.43 261.27,-153.38 317.25,-148.19"/>
<polygon fill="#63b8ff" stroke="#63b8ff" points="317.47,-151.69 327.07,-147.21 316.77,-144.72 317.47,-151.69"/>
</a>
</g>
</g>
<!-- Node3 -->
<g id="Node000003" class="node">
<title>Node3</title>
<g id="a_Node000003"><a xlink:href="class_symfony_1_1_component_1_1_css_selector_1_1_x_path_1_1_x_path_expr.html#a24b5ee876cacc2f470ee2f6480c9160a" target="_top" xlink:title=" ">
<polygon fill="white" stroke="#666666" points="293,-128.5 127.75,-128.5 127.75,-98 293,-98 293,-128.5"/>
<text text-anchor="start" x="135.75" y="-115" font-family="Helvetica,sans-Serif" font-size="10.00">Symfony\Component\CssSelector</text>
<text text-anchor="middle" x="210.38" y="-103.75" font-family="Helvetica,sans-Serif" font-size="10.00">\XPath\XPathExpr\addNameTest</text>
</a>
</g>
</g>
<!-- Node1&#45;&gt;Node3 -->
<g id="edge2_Node000001_Node000003" class="edge">
<title>Node1&#45;&gt;Node3</title>
<g id="a_edge2_Node000001_Node000003"><a xlink:title=" ">
<path fill="none" stroke="#63b8ff" d="M92.14,-95.21C99.69,-96.38 107.77,-97.62 116.01,-98.89"/>
<polygon fill="#63b8ff" stroke="#63b8ff" points="115.42,-102.34 125.83,-100.4 116.48,-95.42 115.42,-102.34"/>
</a>
</g>
</g>
<!-- Node4 -->
<g id="Node000004" class="node">
<title>Node4</title>
<g id="a_Node000004"><a xlink:href="class_symfony_1_1_component_1_1_css_selector_1_1_x_path_1_1_x_path_expr.html#ae98bbb2bef0fbaa9bfc4419b3f8d8127" target="_top" xlink:title=" ">
<polygon fill="white" stroke="#666666" points="293,-79.5 127.75,-79.5 127.75,-49 293,-49 293,-79.5"/>
<text text-anchor="start" x="135.75" y="-66" font-family="Helvetica,sans-Serif" font-size="10.00">Symfony\Component\CssSelector</text>
<text text-anchor="middle" x="210.38" y="-54.75" font-family="Helvetica,sans-Serif" font-size="10.00">\XPath\XPathExpr\addStarPrefix</text>
</a>
</g>
</g>
<!-- Node1&#45;&gt;Node4 -->
<g id="edge4_Node000001_Node000004" class="edge">
<title>Node1&#45;&gt;Node4</title>
<g id="a_edge4_Node000001_Node000004"><a xlink:title=" ">
<path fill="none" stroke="#63b8ff" d="M92.14,-81.56C99.69,-80.45 107.77,-79.26 116.01,-78.04"/>
<polygon fill="#63b8ff" stroke="#63b8ff" points="116.45,-81.51 125.83,-76.59 115.43,-74.59 116.45,-81.51"/>
</a>
</g>
</g>
<!-- Node5 -->
<g id="Node000005" class="node">
<title>Node5</title>
<g id="a_Node000005"><a xlink:href="class_symfony_1_1_component_1_1_css_selector_1_1_parser_1_1_parser.html#a14ef59415cb022e6e6ec883cb99514fb" target="_top" xlink:title=" ">
<polygon fill="white" stroke="#666666" points="293,-30.5 127.75,-30.5 127.75,0 293,0 293,-30.5"/>
<text text-anchor="start" x="135.75" y="-17" font-family="Helvetica,sans-Serif" font-size="10.00">Symfony\Component\CssSelector</text>
<text text-anchor="middle" x="210.38" y="-5.75" font-family="Helvetica,sans-Serif" font-size="10.00">\Parser\Parser\parseSeries</text>
</a>
</g>
</g>
<!-- Node1&#45;&gt;Node5 -->
<g id="edge5_Node000001_Node000005" class="edge">
<title>Node1&#45;&gt;Node5</title>
<g id="a_edge5_Node000001_Node000005"><a xlink:title=" ">
<path fill="none" stroke="#63b8ff" d="M61.21,-78.3C76.96,-67.73 103.26,-51.08 127.75,-40.25 132.22,-38.27 136.89,-36.39 141.63,-34.62"/>
<polygon fill="#63b8ff" stroke="#63b8ff" points="142.42,-38.05 150.67,-31.4 140.07,-31.45 142.42,-38.05"/>
</a>
</g>
</g>
<!-- Node3&#45;&gt;Node2 -->
<g id="edge3_Node000003_Node000002" class="edge">
<title>Node3&#45;&gt;Node2</title>
<g id="a_edge3_Node000003_Node000002"><a xlink:title=" ">
<path fill="none" stroke="#63b8ff" d="M293.28,-121.88C301.23,-122.72 309.34,-123.58 317.39,-124.42"/>
<polygon fill="#63b8ff" stroke="#63b8ff" points="316.9,-127.89 327.21,-125.46 317.63,-120.93 316.9,-127.89"/>
</a>
</g>
</g>
</g>
</svg>

<g id="navigator" transform="translate(0 0)" fill="#404254">
  <rect fill="#f2f5e9" fill-opacity="0.5" stroke="#606060" stroke-width=".5" x="0" y="0" width="60" height="60"/>
  <use id="zoomplus" xlink:href="#zoomPlus" x="17" y="9" onmousedown="handleZoom(evt,'in')"/>
  <use id="zoomminus" xlink:href="#zoomMin" x="42" y="9" onmousedown="handleZoom(evt,'out')"/>
  <use id="reset" xlink:href="#resetDef" x="30" y="36" onmousedown="handleReset()"/>
   <use id="arrowup" xlink:href="#arrowUp" x="0" y="0" onmousedown="handlePan(0,-1)"/>
  <use id="arrowright" xlink:href="#arrowRight" x="0" y="0" onmousedown="handlePan(1,0)"/>
  <use id="arrowdown" xlink:href="#arrowDown" x="0" y="0" onmousedown="handlePan(0,1)"/>
  <use id="arrowleft" xlink:href="#arrowLeft" x="0" y="0" onmousedown="handlePan(-1,0)"/>
</g>
<svg viewBox="0 0 15 15" width="100%" height="30px" preserveAspectRatio="xMaxYMin meet">
 <g id="arrow_out" transform="scale(0.3 0.3)">
  <a xlink:href="class_symfony_1_1_component_1_1_css_selector_1_1_x_path_1_1_extension_1_1_function_extension_aa7101ecc67b4f9e4ccf3f21d826deecf_cgraph_org.svg" target="_base">
   <rect id="button" ry="5" rx="5" y="6" x="6" height="38" width="38"
        fill="#f2f5e9" fill-opacity="0.5" stroke="#606060" stroke-width="1.0"/>
   <path id="arrow"
     d="M 11.500037,31.436501 C 11.940474,20.09759 22.043105,11.32322 32.158766,21.979434 L 37.068811,17.246167 C 37.068811,17.246167 37.088388,32 37.088388,32 L 22.160133,31.978069 C 22.160133,31.978069 26.997745,27.140456 26.997745,27.140456 C 18.528582,18.264221 13.291696,25.230495 11.500037,31.436501 z"
     style="fill:#404040;"/>
  </a>
 </g>
</svg>

<style type='text/css'>
<![CDATA[
[data-mouse-over-selected='false'] { opacity: 0.7; }
[data-mouse-over-selected='true']  { opacity: 1.0; }
]]>
</style>
<script type="application/ecmascript"><![CDATA[
document.addEventListener('DOMContentLoaded', (event) => {
  highlightEdges();
  highlightAdjacentNodes();
});
]]></script>
</svg>
