<?xml version="1.0" encoding="UTF-8" standalone="no"?>
<!DOCTYPE svg PUBLIC "-//W3C//DTD SVG 1.1//EN"
 "http://www.w3.org/Graphics/SVG/1.1/DTD/svg11.dtd">
<!-- Generated by graphviz version 10.0.1 (20240210.2158)
 -->
<!-- Title: PurgeLogs Pages: 1 -->
<svg width="370pt" height="1706pt"
 viewBox="0.00 0.00 370.00 1706.25" xmlns="http://www.w3.org/2000/svg" xmlns:xlink="http://www.w3.org/1999/xlink">
<g id="graph0" class="graph" transform="scale(1 1) rotate(0) translate(4 1702.25)">
<title>PurgeLogs</title>
<!-- Node1 -->
<g id="Node000001" class="node">
<title>Node1</title>
<g id="a_Node000001"><a xlink:title=" ">
<polygon fill="#999999" stroke="none" points="145,-142 0,-142 0,0 145,0 145,-142"/>
<text text-anchor="start" x="49.25" y="-128.5" font-family="Helvetica,sans-Serif" font-size="10.00">PurgeLogs</text>
<text text-anchor="start" x="71" y="-113.5" font-family="Helvetica,sans-Serif" font-size="10.00"> </text>
<text text-anchor="start" x="4" y="-98.5" font-family="Helvetica,sans-Serif" font-size="10.00">+</text>
<text text-anchor="start" x="14" y="-98.5" font-family="Helvetica,sans-Serif" font-size="10.00">static getTypeName</text>
<text text-anchor="start" x="14" y="-87.25" font-family="Helvetica,sans-Serif" font-size="10.00">($nb=0)</text>
<text text-anchor="start" x="4" y="-72.5" font-family="Helvetica,sans-Serif" font-size="10.00">+</text>
<text text-anchor="start" x="14" y="-72.5" font-family="Helvetica,sans-Serif" font-size="10.00">static cronPurgeLogs</text>
<text text-anchor="start" x="14" y="-61.25" font-family="Helvetica,sans-Serif" font-size="10.00">($task)</text>
<text text-anchor="start" x="4" y="-46.5" font-family="Helvetica,sans-Serif" font-size="10.00">+</text>
<text text-anchor="start" x="14" y="-46.5" font-family="Helvetica,sans-Serif" font-size="10.00">static cronInfo($name)</text>
<text text-anchor="start" x="4" y="-31.5" font-family="Helvetica,sans-Serif" font-size="10.00">+</text>
<text text-anchor="start" x="14" y="-31.5" font-family="Helvetica,sans-Serif" font-size="10.00">static getDateModRestriction</text>
<text text-anchor="start" x="14" y="-20.25" font-family="Helvetica,sans-Serif" font-size="10.00">($month)</text>
<text text-anchor="start" x="4" y="-5.5" font-family="Helvetica,sans-Serif" font-size="10.00">+</text>
<text text-anchor="start" x="14" y="-5.5" font-family="Helvetica,sans-Serif" font-size="10.00">static getLogsCount()</text>
<polygon fill="#666666" stroke="#666666" points="0,-125 0,-125 145,-125 145,-125 0,-125"/>
<polygon fill="#666666" stroke="#666666" points="0,-110 0,-110 145,-110 145,-110 0,-110"/>
<polygon fill="none" stroke="#666666" points="0,0 0,-142 145,-142 145,0 0,0"/>
</a>
</g>
</g>
<!-- Node2 -->
<g id="Node000002" class="node">
<title>Node2</title>
<g id="a_Node000002"><a xlink:href="class_common_d_b_t_m.html" target="_top" xlink:title=" ">
<polygon fill="white" stroke="none" points="222,-983 69,-983 69,-179 222,-179 222,-983"/>
<text text-anchor="start" x="111.38" y="-969.5" font-family="Helvetica,sans-Serif" font-size="10.00">CommonDBTM</text>
<text text-anchor="start" x="73" y="-954.5" font-family="Helvetica,sans-Serif" font-size="10.00">+</text>
<text text-anchor="start" x="83" y="-954.5" font-family="Helvetica,sans-Serif" font-size="10.00">$fields</text>
<text text-anchor="start" x="73" y="-939.5" font-family="Helvetica,sans-Serif" font-size="10.00">+</text>
<text text-anchor="start" x="83" y="-939.5" font-family="Helvetica,sans-Serif" font-size="10.00">$input</text>
<text text-anchor="start" x="73" y="-924.5" font-family="Helvetica,sans-Serif" font-size="10.00">+</text>
<text text-anchor="start" x="83" y="-924.5" font-family="Helvetica,sans-Serif" font-size="10.00">$updates</text>
<text text-anchor="start" x="73" y="-909.5" font-family="Helvetica,sans-Serif" font-size="10.00">+</text>
<text text-anchor="start" x="83" y="-909.5" font-family="Helvetica,sans-Serif" font-size="10.00">$oldvalues</text>
<text text-anchor="start" x="73" y="-894.5" font-family="Helvetica,sans-Serif" font-size="10.00">+</text>
<text text-anchor="start" x="83" y="-894.5" font-family="Helvetica,sans-Serif" font-size="10.00">$dohistory</text>
<text text-anchor="start" x="73" y="-879.5" font-family="Helvetica,sans-Serif" font-size="10.00">+</text>
<text text-anchor="start" x="83" y="-879.5" font-family="Helvetica,sans-Serif" font-size="10.00">$history_blacklist</text>
<text text-anchor="start" x="73" y="-864.5" font-family="Helvetica,sans-Serif" font-size="10.00">+</text>
<text text-anchor="start" x="83" y="-864.5" font-family="Helvetica,sans-Serif" font-size="10.00">$auto_message_on_action</text>
<text text-anchor="start" x="73" y="-849.5" font-family="Helvetica,sans-Serif" font-size="10.00">+</text>
<text text-anchor="start" x="83" y="-849.5" font-family="Helvetica,sans-Serif" font-size="10.00">$no_form_page</text>
<text text-anchor="start" x="73" y="-834.5" font-family="Helvetica,sans-Serif" font-size="10.00">+</text>
<text text-anchor="start" x="83" y="-834.5" font-family="Helvetica,sans-Serif" font-size="10.00">$additional_fields</text>
<text text-anchor="start" x="83" y="-823.25" font-family="Helvetica,sans-Serif" font-size="10.00">_for_dictionnary</text>
<text text-anchor="start" x="73" y="-808.5" font-family="Helvetica,sans-Serif" font-size="10.00">+</text>
<text text-anchor="start" x="83" y="-808.5" font-family="Helvetica,sans-Serif" font-size="10.00">$taborientation</text>
<text text-anchor="start" x="73" y="-793.5" font-family="Helvetica,sans-Serif" font-size="10.00">+</text>
<text text-anchor="start" x="83" y="-793.5" font-family="Helvetica,sans-Serif" font-size="10.00">$get_item_to_display_tab</text>
<text text-anchor="start" x="73" y="-778.5" font-family="Helvetica,sans-Serif" font-size="10.00">+</text>
<text text-anchor="start" x="83" y="-778.5" font-family="Helvetica,sans-Serif" font-size="10.00">$deduplicate_queued</text>
<text text-anchor="start" x="83" y="-767.25" font-family="Helvetica,sans-Serif" font-size="10.00">_notifications</text>
<text text-anchor="start" x="73" y="-752.5" font-family="Helvetica,sans-Serif" font-size="10.00">+</text>
<text text-anchor="start" x="83" y="-752.5" font-family="Helvetica,sans-Serif" font-size="10.00">$right</text>
<text text-anchor="start" x="73.38" y="-737.5" font-family="Helvetica,sans-Serif" font-size="10.00">#</text>
<text text-anchor="start" x="83" y="-737.5" font-family="Helvetica,sans-Serif" font-size="10.00">$fkfield</text>
<text text-anchor="start" x="73.38" y="-722.5" font-family="Helvetica,sans-Serif" font-size="10.00">#</text>
<text text-anchor="start" x="83" y="-722.5" font-family="Helvetica,sans-Serif" font-size="10.00">$searchopt</text>
<text text-anchor="start" x="73.38" y="-707.5" font-family="Helvetica,sans-Serif" font-size="10.00">#</text>
<text text-anchor="start" x="83" y="-707.5" font-family="Helvetica,sans-Serif" font-size="10.00">$usenotepad</text>
<text text-anchor="start" x="73" y="-692.5" font-family="Helvetica,sans-Serif" font-size="10.00">+</text>
<text text-anchor="start" x="83" y="-692.5" font-family="Helvetica,sans-Serif" font-size="10.00">getFromResultSet($rs)</text>
<text text-anchor="start" x="73" y="-677.5" font-family="Helvetica,sans-Serif" font-size="10.00">+</text>
<text text-anchor="start" x="83" y="-677.5" font-family="Helvetica,sans-Serif" font-size="10.00">getID()</text>
<text text-anchor="start" x="73" y="-662.5" font-family="Helvetica,sans-Serif" font-size="10.00">+</text>
<text text-anchor="start" x="83" y="-662.5" font-family="Helvetica,sans-Serif" font-size="10.00">post_getFromDB()</text>
<text text-anchor="start" x="73" y="-647.5" font-family="Helvetica,sans-Serif" font-size="10.00">+</text>
<text text-anchor="start" x="83" y="-647.5" font-family="Helvetica,sans-Serif" font-size="10.00">showForm($ID, array</text>
<text text-anchor="start" x="83" y="-636.25" font-family="Helvetica,sans-Serif" font-size="10.00"> $options=[])</text>
<text text-anchor="start" x="73" y="-621.5" font-family="Helvetica,sans-Serif" font-size="10.00">+</text>
<text text-anchor="start" x="83" y="-621.5" font-family="Helvetica,sans-Serif" font-size="10.00">getSNMPCredential()</text>
<text text-anchor="start" x="73" y="-606.5" font-family="Helvetica,sans-Serif" font-size="10.00">+</text>
<text text-anchor="start" x="83" y="-606.5" font-family="Helvetica,sans-Serif" font-size="10.00">getLockedFields()</text>
<text text-anchor="start" x="73" y="-591.5" font-family="Helvetica,sans-Serif" font-size="10.00">+</text>
<text text-anchor="start" x="83" y="-591.5" font-family="Helvetica,sans-Serif" font-size="10.00">post_getEmpty()</text>
<text text-anchor="start" x="73" y="-576.5" font-family="Helvetica,sans-Serif" font-size="10.00">+</text>
<text text-anchor="start" x="83" y="-576.5" font-family="Helvetica,sans-Serif" font-size="10.00">getLogTypeID()</text>
<text text-anchor="start" x="73" y="-561.5" font-family="Helvetica,sans-Serif" font-size="10.00">+</text>
<text text-anchor="start" x="83" y="-561.5" font-family="Helvetica,sans-Serif" font-size="10.00">post_deleteFromDB()</text>
<text text-anchor="start" x="73" y="-546.5" font-family="Helvetica,sans-Serif" font-size="10.00">+</text>
<text text-anchor="start" x="83" y="-546.5" font-family="Helvetica,sans-Serif" font-size="10.00">cleanDBonPurge()</text>
<text text-anchor="start" x="83" y="-531.5" font-family="Helvetica,sans-Serif" font-size="10.00">et 87 de plus...</text>
<text text-anchor="start" x="73" y="-516.5" font-family="Helvetica,sans-Serif" font-size="10.00">+</text>
<text text-anchor="start" x="83" y="-516.5" font-family="Helvetica,sans-Serif" font-size="10.00">static getTable($classname</text>
<text text-anchor="start" x="83" y="-505.25" font-family="Helvetica,sans-Serif" font-size="10.00">=null)</text>
<text text-anchor="start" x="73" y="-490.5" font-family="Helvetica,sans-Serif" font-size="10.00">+</text>
<text text-anchor="start" x="83" y="-490.5" font-family="Helvetica,sans-Serif" font-size="10.00">static forceTable(</text>
<text text-anchor="start" x="83" y="-479.25" font-family="Helvetica,sans-Serif" font-size="10.00">$table)</text>
<text text-anchor="start" x="73" y="-464.5" font-family="Helvetica,sans-Serif" font-size="10.00">+</text>
<text text-anchor="start" x="83" y="-464.5" font-family="Helvetica,sans-Serif" font-size="10.00">static getForeignKeyField()</text>
<text text-anchor="start" x="73" y="-449.5" font-family="Helvetica,sans-Serif" font-size="10.00">+</text>
<text text-anchor="start" x="83" y="-449.5" font-family="Helvetica,sans-Serif" font-size="10.00">static getTableField</text>
<text text-anchor="start" x="83" y="-438.25" font-family="Helvetica,sans-Serif" font-size="10.00">($field, $classname=null)</text>
<text text-anchor="start" x="73" y="-423.5" font-family="Helvetica,sans-Serif" font-size="10.00">+</text>
<text text-anchor="start" x="83" y="-423.5" font-family="Helvetica,sans-Serif" font-size="10.00">static getFromIter</text>
<text text-anchor="start" x="83" y="-412.25" font-family="Helvetica,sans-Serif" font-size="10.00">(DBmysqlIterator $iter)</text>
<text text-anchor="start" x="73" y="-397.5" font-family="Helvetica,sans-Serif" font-size="10.00">+</text>
<text text-anchor="start" x="83" y="-397.5" font-family="Helvetica,sans-Serif" font-size="10.00">static unsetUndisclosedFields</text>
<text text-anchor="start" x="83" y="-386.25" font-family="Helvetica,sans-Serif" font-size="10.00">(&amp;$fields)</text>
<text text-anchor="start" x="73" y="-371.5" font-family="Helvetica,sans-Serif" font-size="10.00">+</text>
<text text-anchor="start" x="83" y="-371.5" font-family="Helvetica,sans-Serif" font-size="10.00">static getIndexName()</text>
<text text-anchor="start" x="73" y="-356.5" font-family="Helvetica,sans-Serif" font-size="10.00">+</text>
<text text-anchor="start" x="83" y="-356.5" font-family="Helvetica,sans-Serif" font-size="10.00">static isNewID($ID)</text>
<text text-anchor="start" x="73" y="-341.5" font-family="Helvetica,sans-Serif" font-size="10.00">+</text>
<text text-anchor="start" x="83" y="-341.5" font-family="Helvetica,sans-Serif" font-size="10.00">static getNameField()</text>
<text text-anchor="start" x="73" y="-326.5" font-family="Helvetica,sans-Serif" font-size="10.00">+</text>
<text text-anchor="start" x="83" y="-326.5" font-family="Helvetica,sans-Serif" font-size="10.00">static getCompleteNameField()</text>
<text text-anchor="start" x="83" y="-311.5" font-family="Helvetica,sans-Serif" font-size="10.00">et 26 de plus...</text>
<text text-anchor="start" x="73.38" y="-296.5" font-family="Helvetica,sans-Serif" font-size="10.00">#</text>
<text text-anchor="start" x="83" y="-296.5" font-family="Helvetica,sans-Serif" font-size="10.00">saveInput()</text>
<text text-anchor="start" x="73.38" y="-281.5" font-family="Helvetica,sans-Serif" font-size="10.00">#</text>
<text text-anchor="start" x="83" y="-281.5" font-family="Helvetica,sans-Serif" font-size="10.00">clearSavedInput()</text>
<text text-anchor="start" x="73.38" y="-266.5" font-family="Helvetica,sans-Serif" font-size="10.00">#</text>
<text text-anchor="start" x="83" y="-266.5" font-family="Helvetica,sans-Serif" font-size="10.00">restoreInput(array</text>
<text text-anchor="start" x="83" y="-255.25" font-family="Helvetica,sans-Serif" font-size="10.00"> $default=[])</text>
<text text-anchor="start" x="73.38" y="-240.5" font-family="Helvetica,sans-Serif" font-size="10.00">#</text>
<text text-anchor="start" x="83" y="-240.5" font-family="Helvetica,sans-Serif" font-size="10.00">restoreSavedValues</text>
<text text-anchor="start" x="83" y="-229.25" font-family="Helvetica,sans-Serif" font-size="10.00">(array $saved=[])</text>
<text text-anchor="start" x="73.38" y="-214.5" font-family="Helvetica,sans-Serif" font-size="10.00">#</text>
<text text-anchor="start" x="83" y="-214.5" font-family="Helvetica,sans-Serif" font-size="10.00">cleanLockedsOnAdd()</text>
<text text-anchor="start" x="73.38" y="-199.5" font-family="Helvetica,sans-Serif" font-size="10.00">#</text>
<text text-anchor="start" x="83" y="-199.5" font-family="Helvetica,sans-Serif" font-size="10.00">cleanLockeds()</text>
<text text-anchor="start" x="73.38" y="-184.5" font-family="Helvetica,sans-Serif" font-size="10.00">#</text>
<text text-anchor="start" x="83" y="-184.5" font-family="Helvetica,sans-Serif" font-size="10.00">computeFriendlyName()</text>
<polygon fill="#666666" stroke="#666666" points="69,-966 69,-966 222,-966 222,-966 69,-966"/>
<polygon fill="#666666" stroke="#666666" points="69,-704 69,-704 81,-704 81,-704 69,-704"/>
<polygon fill="#666666" stroke="#666666" points="81,-704 81,-704 222,-704 222,-704 81,-704"/>
<polygon fill="none" stroke="#666666" points="69,-179 69,-983 222,-983 222,-179 69,-179"/>
</a>
</g>
</g>
<!-- Node2&#45;&gt;Node1 -->
<g id="edge1_Node000001_Node000002" class="edge">
<title>Node2&#45;&gt;Node1</title>
<g id="a_edge1_Node000001_Node000002"><a xlink:title=" ">
<path fill="none" stroke="#63b8ff" d="M86.26,-167.76C84.95,-158.64 83.7,-149.96 82.54,-141.83"/>
<polygon fill="none" stroke="#63b8ff" points="82.79,-168.21 87.68,-177.61 89.72,-167.22 82.79,-168.21"/>
</a>
</g>
</g>
<!-- Node3 -->
<g id="Node000003" class="node">
<title>Node3</title>
<g id="a_Node000003"><a xlink:href="class_common_g_l_p_i.html" target="_top" xlink:title=" ">
<polygon fill="white" stroke="none" points="362,-1568.25 211,-1568.25 211,-1030.25 362,-1030.25 362,-1568.25"/>
<text text-anchor="start" x="255.38" y="-1554.75" font-family="Helvetica,sans-Serif" font-size="10.00">CommonGLPI</text>
<text text-anchor="start" x="215" y="-1539.75" font-family="Helvetica,sans-Serif" font-size="10.00">+</text>
<text text-anchor="start" x="225" y="-1539.75" font-family="Helvetica,sans-Serif" font-size="10.00">$showdebug</text>
<text text-anchor="start" x="215" y="-1524.75" font-family="Helvetica,sans-Serif" font-size="10.00">+</text>
<text text-anchor="start" x="225" y="-1524.75" font-family="Helvetica,sans-Serif" font-size="10.00">$taborientation</text>
<text text-anchor="start" x="215" y="-1509.75" font-family="Helvetica,sans-Serif" font-size="10.00">+</text>
<text text-anchor="start" x="225" y="-1509.75" font-family="Helvetica,sans-Serif" font-size="10.00">$get_item_to_display_tab</text>
<text text-anchor="start" x="215.38" y="-1494.75" font-family="Helvetica,sans-Serif" font-size="10.00">#</text>
<text text-anchor="start" x="225" y="-1494.75" font-family="Helvetica,sans-Serif" font-size="10.00">$type</text>
<text text-anchor="start" x="215.38" y="-1479.75" font-family="Helvetica,sans-Serif" font-size="10.00">#</text>
<text text-anchor="start" x="225" y="-1479.75" font-family="Helvetica,sans-Serif" font-size="10.00">$displaylist</text>
<text text-anchor="start" x="215" y="-1464.75" font-family="Helvetica,sans-Serif" font-size="10.00">+</text>
<text text-anchor="start" x="225" y="-1464.75" font-family="Helvetica,sans-Serif" font-size="10.00">__construct()</text>
<text text-anchor="start" x="215" y="-1449.75" font-family="Helvetica,sans-Serif" font-size="10.00">+</text>
<text text-anchor="start" x="225" y="-1449.75" font-family="Helvetica,sans-Serif" font-size="10.00">can($ID, $right, array</text>
<text text-anchor="start" x="225" y="-1438.5" font-family="Helvetica,sans-Serif" font-size="10.00"> &amp;$input=null)</text>
<text text-anchor="start" x="215" y="-1423.75" font-family="Helvetica,sans-Serif" font-size="10.00">+</text>
<text text-anchor="start" x="225" y="-1423.75" font-family="Helvetica,sans-Serif" font-size="10.00">defineTabs($options=[])</text>
<text text-anchor="start" x="215" y="-1408.75" font-family="Helvetica,sans-Serif" font-size="10.00">+</text>
<text text-anchor="start" x="225" y="-1408.75" font-family="Helvetica,sans-Serif" font-size="10.00">addStandardTab($itemtype,</text>
<text text-anchor="start" x="225" y="-1397.5" font-family="Helvetica,sans-Serif" font-size="10.00"> array &amp;$ong, array $options)</text>
<text text-anchor="start" x="215" y="-1382.75" font-family="Helvetica,sans-Serif" font-size="10.00">+</text>
<text text-anchor="start" x="225" y="-1382.75" font-family="Helvetica,sans-Serif" font-size="10.00">addDefaultFormTab</text>
<text text-anchor="start" x="225" y="-1371.5" font-family="Helvetica,sans-Serif" font-size="10.00">(array &amp;$ong)</text>
<text text-anchor="start" x="215" y="-1356.75" font-family="Helvetica,sans-Serif" font-size="10.00">+</text>
<text text-anchor="start" x="225" y="-1356.75" font-family="Helvetica,sans-Serif" font-size="10.00">getTabNameForItem</text>
<text text-anchor="start" x="225" y="-1345.5" font-family="Helvetica,sans-Serif" font-size="10.00">(CommonGLPI $item, </text>
<text text-anchor="start" x="225" y="-1334.25" font-family="Helvetica,sans-Serif" font-size="10.00">$withtemplate=0)</text>
<text text-anchor="start" x="215" y="-1319.75" font-family="Helvetica,sans-Serif" font-size="10.00">+</text>
<text text-anchor="start" x="225" y="-1319.75" font-family="Helvetica,sans-Serif" font-size="10.00">isNewItem()</text>
<text text-anchor="start" x="215" y="-1304.75" font-family="Helvetica,sans-Serif" font-size="10.00">+</text>
<text text-anchor="start" x="225" y="-1304.75" font-family="Helvetica,sans-Serif" font-size="10.00">showTabsContent($options=[])</text>
<text text-anchor="start" x="215" y="-1289.75" font-family="Helvetica,sans-Serif" font-size="10.00">+</text>
<text text-anchor="start" x="225" y="-1289.75" font-family="Helvetica,sans-Serif" font-size="10.00">getHeaderName()</text>
<text text-anchor="start" x="215" y="-1274.75" font-family="Helvetica,sans-Serif" font-size="10.00">+</text>
<text text-anchor="start" x="225" y="-1274.75" font-family="Helvetica,sans-Serif" font-size="10.00">display($options=[])</text>
<text text-anchor="start" x="215" y="-1259.75" font-family="Helvetica,sans-Serif" font-size="10.00">+</text>
<text text-anchor="start" x="225" y="-1259.75" font-family="Helvetica,sans-Serif" font-size="10.00">getErrorMessage($error,</text>
<text text-anchor="start" x="225" y="-1248.5" font-family="Helvetica,sans-Serif" font-size="10.00"> $object=&#39;&#39;)</text>
<text text-anchor="start" x="215" y="-1233.75" font-family="Helvetica,sans-Serif" font-size="10.00">+</text>
<text text-anchor="start" x="225" y="-1233.75" font-family="Helvetica,sans-Serif" font-size="10.00">static getTypeName</text>
<text text-anchor="start" x="225" y="-1222.5" font-family="Helvetica,sans-Serif" font-size="10.00">($nb=0)</text>
<text text-anchor="start" x="215" y="-1207.75" font-family="Helvetica,sans-Serif" font-size="10.00">+</text>
<text text-anchor="start" x="225" y="-1207.75" font-family="Helvetica,sans-Serif" font-size="10.00">static getFieldLabel()</text>
<text text-anchor="start" x="215" y="-1192.75" font-family="Helvetica,sans-Serif" font-size="10.00">+</text>
<text text-anchor="start" x="225" y="-1192.75" font-family="Helvetica,sans-Serif" font-size="10.00">static getType()</text>
<text text-anchor="start" x="215" y="-1177.75" font-family="Helvetica,sans-Serif" font-size="10.00">+</text>
<text text-anchor="start" x="225" y="-1177.75" font-family="Helvetica,sans-Serif" font-size="10.00">static canCreate()</text>
<text text-anchor="start" x="215" y="-1162.75" font-family="Helvetica,sans-Serif" font-size="10.00">+</text>
<text text-anchor="start" x="225" y="-1162.75" font-family="Helvetica,sans-Serif" font-size="10.00">static canView()</text>
<text text-anchor="start" x="215" y="-1147.75" font-family="Helvetica,sans-Serif" font-size="10.00">+</text>
<text text-anchor="start" x="225" y="-1147.75" font-family="Helvetica,sans-Serif" font-size="10.00">static canUpdate()</text>
<text text-anchor="start" x="215" y="-1132.75" font-family="Helvetica,sans-Serif" font-size="10.00">+</text>
<text text-anchor="start" x="225" y="-1132.75" font-family="Helvetica,sans-Serif" font-size="10.00">static canDelete()</text>
<text text-anchor="start" x="215" y="-1117.75" font-family="Helvetica,sans-Serif" font-size="10.00">+</text>
<text text-anchor="start" x="225" y="-1117.75" font-family="Helvetica,sans-Serif" font-size="10.00">static canPurge()</text>
<text text-anchor="start" x="215" y="-1102.75" font-family="Helvetica,sans-Serif" font-size="10.00">+</text>
<text text-anchor="start" x="225" y="-1102.75" font-family="Helvetica,sans-Serif" font-size="10.00">static registerStandardTab</text>
<text text-anchor="start" x="225" y="-1091.5" font-family="Helvetica,sans-Serif" font-size="10.00">($typeform, $typetab)</text>
<text text-anchor="start" x="215" y="-1076.75" font-family="Helvetica,sans-Serif" font-size="10.00">+</text>
<text text-anchor="start" x="225" y="-1076.75" font-family="Helvetica,sans-Serif" font-size="10.00">static getOtherTabs</text>
<text text-anchor="start" x="225" y="-1065.5" font-family="Helvetica,sans-Serif" font-size="10.00">($typeform)</text>
<text text-anchor="start" x="225" y="-1050.75" font-family="Helvetica,sans-Serif" font-size="10.00">et 17 de plus...</text>
<text text-anchor="start" x="215.38" y="-1035.75" font-family="Helvetica,sans-Serif" font-size="10.00">#</text>
<text text-anchor="start" x="225" y="-1035.75" font-family="Helvetica,sans-Serif" font-size="10.00">getFormHeaderToolbar()</text>
<polygon fill="#666666" stroke="#666666" points="211,-1551.25 211,-1551.25 362,-1551.25 362,-1551.25 211,-1551.25"/>
<polygon fill="#666666" stroke="#666666" points="211,-1476.25 211,-1476.25 223,-1476.25 223,-1476.25 211,-1476.25"/>
<polygon fill="#666666" stroke="#666666" points="223,-1476.25 223,-1476.25 362,-1476.25 362,-1476.25 223,-1476.25"/>
<polygon fill="none" stroke="#666666" points="211,-1030.25 211,-1568.25 362,-1568.25 362,-1030.25 211,-1030.25"/>
</a>
</g>
</g>
<!-- Node3&#45;&gt;Node2 -->
<g id="edge2_Node000002_Node000003" class="edge">
<title>Node3&#45;&gt;Node2</title>
<g id="a_edge2_Node000002_Node000003"><a xlink:title=" ">
<path fill="none" stroke="#63b8ff" d="M231.56,-1019.17C228.39,-1003.08 225.18,-986.77 221.96,-970.38"/>
<polygon fill="none" stroke="#63b8ff" points="228.09,-1019.65 233.45,-1028.79 234.96,-1018.3 228.09,-1019.65"/>
</a>
</g>
</g>
<!-- Node4 -->
<g id="Node000004" class="node">
<title>Node4</title>
<g id="a_Node000004"><a xlink:href="interface_common_g_l_p_i_interface.html" target="_top" xlink:title=" ">
<polygon fill="white" stroke="none" points="341.5,-1698.25 231.5,-1698.25 231.5,-1649.25 341.5,-1649.25 341.5,-1698.25"/>
<text text-anchor="start" x="236.25" y="-1684.75" font-family="Helvetica,sans-Serif" font-size="10.00">CommonGLPIInterface</text>
<text text-anchor="start" x="285" y="-1669.75" font-family="Helvetica,sans-Serif" font-size="10.00"> </text>
<text text-anchor="start" x="244" y="-1654.75" font-family="Helvetica,sans-Serif" font-size="10.00">+</text>
<text text-anchor="start" x="262.5" y="-1654.75" font-family="Helvetica,sans-Serif" font-size="10.00">__construct()</text>
<polygon fill="#666666" stroke="#666666" points="231.5,-1681.25 231.5,-1681.25 341.5,-1681.25 341.5,-1681.25 231.5,-1681.25"/>
<polygon fill="#666666" stroke="#666666" points="231.5,-1666.25 231.5,-1666.25 341.5,-1666.25 341.5,-1666.25 231.5,-1666.25"/>
<polygon fill="none" stroke="#666666" points="231.5,-1649.25 231.5,-1698.25 341.5,-1698.25 341.5,-1649.25 231.5,-1649.25"/>
</a>
</g>
</g>
<!-- Node4&#45;&gt;Node3 -->
<g id="edge3_Node000003_Node000004" class="edge">
<title>Node4&#45;&gt;Node3</title>
<g id="a_edge3_Node000003_Node000004"><a xlink:title=" ">
<path fill="none" stroke="#63b8ff" d="M286.5,-1638.03C286.5,-1619.7 286.5,-1595.36 286.5,-1568.12"/>
<polygon fill="none" stroke="#63b8ff" points="283,-1637.93 286.5,-1647.93 290,-1637.93 283,-1637.93"/>
</a>
</g>
</g>
<!-- Node5 -->
<g id="Node000005" class="node">
<title>Node5</title>
<g id="a_Node000005"><a xlink:title=" ">
<polygon fill="white" stroke="none" points="117.5,-1698.25 83.5,-1698.25 83.5,-1649.25 117.5,-1649.25 117.5,-1698.25"/>
<text text-anchor="start" x="88.5" y="-1684.75" font-family="Helvetica,sans-Serif" font-size="10.00">static</text>
<text text-anchor="start" x="99" y="-1669.75" font-family="Helvetica,sans-Serif" font-size="10.00"> </text>
<text text-anchor="start" x="99" y="-1654.75" font-family="Helvetica,sans-Serif" font-size="10.00"> </text>
<polygon fill="#666666" stroke="#666666" points="83.5,-1681.25 83.5,-1681.25 117.5,-1681.25 117.5,-1681.25 83.5,-1681.25"/>
<polygon fill="#666666" stroke="#666666" points="83.5,-1666.25 83.5,-1666.25 117.5,-1666.25 117.5,-1666.25 83.5,-1666.25"/>
<polygon fill="none" stroke="#666666" points="83.5,-1649.25 83.5,-1698.25 117.5,-1698.25 117.5,-1649.25 83.5,-1649.25"/>
</a>
</g>
</g>
<!-- Node5&#45;&gt;Node1 -->
<g id="edge6_Node000001_Node000005" class="edge">
<title>Node5&#45;&gt;Node1</title>
<g id="a_edge6_Node000001_Node000005"><a xlink:title=" ">
<path fill="none" stroke="#63b8ff" d="M97.43,-1649.51C96.72,-1643.57 96.02,-1637.18 95.5,-1631.25 70.23,-1343.8 67.5,-1271.44 59.5,-983 49.59,-625.8 37.91,-535.68 59.5,-179 59.98,-171.09 60.65,-162.88 61.45,-154.67"/>
<polygon fill="none" stroke="#63b8ff" points="61.45,-154.65 58.09,-148.27 62.69,-142.72 66.05,-149.1 61.45,-154.65"/>
</a>
</g>
<text text-anchor="middle" x="83" y="-1002.75" font-family="Helvetica,sans-Serif" font-size="10.00" fill="grey"> #$notable</text>
</g>
<!-- Node5&#45;&gt;Node2 -->
<g id="edge5_Node000002_Node000005" class="edge">
<title>Node5&#45;&gt;Node2</title>
<g id="a_edge5_Node000002_Node000005"><a xlink:title=" ">
<path fill="none" stroke="#63b8ff" d="M100.32,-1649.4C99.79,-1565.58 98.92,-1272.07 110.25,-1030.25 110.79,-1018.8 111.38,-1007.18 112.02,-995.46"/>
<polygon fill="none" stroke="#63b8ff" points="112.01,-995.59 108.35,-989.38 112.67,-983.61 116.34,-989.82 112.01,-995.59"/>
</a>
</g>
<text text-anchor="start" x="109.5" y="-1340.38" font-family="Helvetica,sans-Serif" font-size="10.00" fill="grey"> #$foreign_key_fields</text>
<text text-anchor="middle" x="155.62" y="-1329.12" font-family="Helvetica,sans-Serif" font-size="10.00" fill="grey">_of</text>
<text text-anchor="start" x="109.5" y="-1317.88" font-family="Helvetica,sans-Serif" font-size="10.00" fill="grey">#$forward_entity</text>
<text text-anchor="middle" x="155.62" y="-1306.62" font-family="Helvetica,sans-Serif" font-size="10.00" fill="grey">_to</text>
<text text-anchor="middle" x="155.62" y="-1295.38" font-family="Helvetica,sans-Serif" font-size="10.00" fill="grey">#$notable</text>
<text text-anchor="start" x="109.5" y="-1284.12" font-family="Helvetica,sans-Serif" font-size="10.00" fill="grey">#$plugins_forward</text>
<text text-anchor="middle" x="155.62" y="-1272.88" font-family="Helvetica,sans-Serif" font-size="10.00" fill="grey">_entity</text>
<text text-anchor="middle" x="155.62" y="-1261.62" font-family="Helvetica,sans-Serif" font-size="10.00" fill="grey">#$tables_of</text>
<text text-anchor="middle" x="155.62" y="-1250.38" font-family="Helvetica,sans-Serif" font-size="10.00" fill="grey">+$undisclosedFields</text>
</g>
<!-- Node5&#45;&gt;Node3 -->
<g id="edge4_Node000003_Node000005" class="edge">
<title>Node5&#45;&gt;Node3</title>
<g id="a_edge4_Node000003_Node000005"><a xlink:title=" ">
<path fill="none" stroke="#63b8ff" d="M117.45,-1651.31C132.07,-1633.29 154.09,-1607.2 175.25,-1586.25 184.05,-1577.54 189.55,-1578.49 196.5,-1568.25 199.21,-1564.26 201.84,-1560.18 204.4,-1556.02"/>
<polygon fill="none" stroke="#63b8ff" points="204.44,-1555.96 204.05,-1548.76 210.54,-1545.63 210.93,-1552.83 204.44,-1555.96"/>
</a>
</g>
<text text-anchor="middle" x="228.12" y="-1621.75" font-family="Helvetica,sans-Serif" font-size="10.00" fill="grey"> #$othertabs</text>
<text text-anchor="start" x="174.5" y="-1610.5" font-family="Helvetica,sans-Serif" font-size="10.00" fill="grey">#$showTitleInNavigation</text>
<text text-anchor="middle" x="228.12" y="-1599.25" font-family="Helvetica,sans-Serif" font-size="10.00" fill="grey">Header</text>
<text text-anchor="middle" x="228.12" y="-1588" font-family="Helvetica,sans-Serif" font-size="10.00" fill="grey">+$rightname</text>
</g>
</g>
</svg>
