<?xml version="1.0" encoding="UTF-8" standalone="no"?>
<!DOCTYPE svg PUBLIC "-//W3C//DTD SVG 1.1//EN"
 "http://www.w3.org/Graphics/SVG/1.1/DTD/svg11.dtd">
<!-- Generated by graphviz version 10.0.1 (20240210.2158)
 -->
<!-- Title: createProgressBar Pages: 1 -->
<svg width="222pt" height="64pt"
 viewBox="0.00 0.00 222.25 64.25" xmlns="http://www.w3.org/2000/svg" xmlns:xlink="http://www.w3.org/1999/xlink">
<g id="graph0" class="graph" transform="scale(1 1) rotate(0) translate(4 60.25)">
<title>createProgressBar</title>
<!-- Node1 -->
<g id="Node000001" class="node">
<title>Node1</title>
<g id="a_Node000001"><a xlink:title=" ">
<polygon fill="#999999" stroke="#666666" points="214.25,-37.25 117.25,-37.25 117.25,-18 214.25,-18 214.25,-37.25"/>
<text text-anchor="middle" x="165.75" y="-23.75" font-family="Helvetica,sans-Serif" font-size="10.00">createProgressBar</text>
</a>
</g>
</g>
<!-- Node2 -->
<g id="Node000002" class="node">
<title>Node2</title>
<g id="a_Node000002"><a xlink:href="class_symfony_1_1_component_1_1_console_1_1_style_1_1_symfony_style.html#a0504158fefb8e49c6d3c265c7a282492" target="_top" xlink:title=" ">
<polygon fill="white" stroke="#666666" points="81.25,-56.25 0,-56.25 0,-37 81.25,-37 81.25,-56.25"/>
<text text-anchor="middle" x="40.62" y="-42.75" font-family="Helvetica,sans-Serif" font-size="10.00">progressIterate</text>
</a>
</g>
</g>
<!-- Node1&#45;&gt;Node2 -->
<g id="edge1_Node000001_Node000002" class="edge">
<title>Node1&#45;&gt;Node2</title>
<g id="a_edge1_Node000001_Node000002"><a xlink:title=" ">
<path fill="none" stroke="#63b8ff" d="M105.48,-36.77C97.42,-38.02 89.3,-39.27 81.68,-40.44"/>
<polygon fill="#63b8ff" stroke="#63b8ff" points="105.95,-40.24 115.3,-35.26 104.88,-33.32 105.95,-40.24"/>
</a>
</g>
</g>
<!-- Node3 -->
<g id="Node000003" class="node">
<title>Node3</title>
<g id="a_Node000003"><a xlink:href="class_symfony_1_1_component_1_1_console_1_1_style_1_1_symfony_style.html#a045092dd7966ae312a4e2d20f6d274c1" target="_top" xlink:title=" ">
<polygon fill="white" stroke="#666666" points="77.88,-19.25 3.38,-19.25 3.38,0 77.88,0 77.88,-19.25"/>
<text text-anchor="middle" x="40.62" y="-5.75" font-family="Helvetica,sans-Serif" font-size="10.00">progressStart</text>
</a>
</g>
</g>
<!-- Node1&#45;&gt;Node3 -->
<g id="edge2_Node000001_Node000003" class="edge">
<title>Node1&#45;&gt;Node3</title>
<g id="a_edge2_Node000001_Node000003"><a xlink:title=" ">
<path fill="none" stroke="#63b8ff" d="M105.52,-18.97C96.2,-17.6 86.81,-16.23 78.2,-14.97"/>
<polygon fill="#63b8ff" stroke="#63b8ff" points="104.9,-22.41 115.3,-20.4 105.91,-15.49 104.9,-22.41"/>
</a>
</g>
</g>
</g>
</svg>
