<?xml version="1.0" encoding="UTF-8" standalone="no"?>
<!DOCTYPE svg PUBLIC "-//W3C//DTD SVG 1.1//EN"
 "http://www.w3.org/Graphics/SVG/1.1/DTD/svg11.dtd">
<!-- Generated by graphviz version 10.0.1 (20240210.2158)
 -->
<!-- Title: post_addItem Pages: 1 -->
<!--zoomable 301 -->

<svg id="main" version="1.1" xmlns="http://www.w3.org/2000/svg" xmlns:xlink="http://www.w3.org/1999/xlink" xml:space="preserve" onload="init(evt)">
<style type="text/css"><![CDATA[
.node, .edge {opacity: 0.7;}
.node.selected, .edge.selected {opacity: 1;}
.edge:hover path { stroke: red; }
.edge:hover polygon { stroke: red; fill: red; }
]]></style>

<defs>
  <circle id="rim" cx="0" cy="0" r="7"/>
  <circle id="rim2" cx="0" cy="0" r="3.5"/>
  <g id="zoomPlus">
    <use xlink:href="#rim" fill="#404040"><set attributeName="fill" to="#808080" begin="zoomplus.mouseover" end="zoomplus.mouseout"/></use>
    <path d="M-4,0h8M0,-4v8" fill="none" stroke="white" stroke-width="1.5" pointer-events="none"/>
  </g>
  <g id="zoomMin">
    <use xlink:href="#rim" fill="#404040"><set attributeName="fill" to="#808080" begin="zoomminus.mouseover" end="zoomminus.mouseout"/></use>
    <path d="M-4,0h8" fill="none" stroke="white" stroke-width="1.5" pointer-events="none"/>
  </g>
  <g id="arrowUp" transform="translate(30 24)">
    <use xlink:href="#rim"/>
    <path pointer-events="none" fill="none" stroke="white" stroke-width="1.5" d="M0,-3.0v7 M-2.5,-0.5L0,-3.0L2.5,-0.5"/>
  </g>
  <g id="arrowRight" transform="rotate(90) translate(36 -43)">
    <use xlink:href="#rim"/>
    <path pointer-events="none" fill="none" stroke="white" stroke-width="1.5" d="M0,-3.0v7 M-2.5,-0.5L0,-3.0L2.5,-0.5"/>
  </g>
  <g id="arrowDown" transform="rotate(180) translate(-30 -48)">
    <use xlink:href="#rim"/>
    <path pointer-events="none" fill="none" stroke="white" stroke-width="1.5" d="M0,-3.0v7 M-2.5,-0.5L0,-3.0L2.5,-0.5"/>
  </g>
  <g id="arrowLeft" transform="rotate(270) translate(-36 17)">
    <use xlink:href="#rim"/>
    <path pointer-events="none" fill="none" stroke="white" stroke-width="1.5" d="M0,-3.0v7 M-2.5,-0.5L0,-3.0L2.5,-0.5"/>
  </g>
  <g id="resetDef">
    <use xlink:href="#rim2" fill="#404040"><set attributeName="fill" to="#808080" begin="reset.mouseover" end="reset.mouseout"/></use>
  </g>
</defs>
<script type="application/ecmascript">
var viewWidth = 1081;
var viewHeight = 301;
var sectionId = 'dynsection-25';
</script>
<script type="application/ecmascript" xlink:href="svg.min.js"/>
<svg id="graph" class="graph">
<g id="viewport">
<title>post_addItem</title>
<!-- Node1 -->
<g id="Node000001" class="node">
<title>Node1</title>
<g id="a_Node000001"><a xlink:title=" ">
<polygon fill="#999999" stroke="#666666" points="75.25,-209.25 0,-209.25 0,-190 75.25,-190 75.25,-209.25"/>
<text text-anchor="middle" x="37.62" y="-195.75" font-family="Helvetica,sans-Serif" font-size="10.00">post_addItem</text>
</a>
</g>
</g>
<!-- Node2 -->
<g id="Node000002" class="node">
<title>Node2</title>
<g id="a_Node000002"><a xlink:href="class_common_d_b_child.html#ab601372a67caeb485e0b9585168cae4c" target="_top" xlink:title=" ">
<polygon fill="white" stroke="#666666" points="232.25,-228.25 111.25,-228.25 111.25,-209 232.25,-209 232.25,-228.25"/>
<text text-anchor="middle" x="171.75" y="-214.75" font-family="Helvetica,sans-Serif" font-size="10.00">getHistoryNameForItem</text>
</a>
</g>
</g>
<!-- Node1&#45;&gt;Node2 -->
<g id="edge1_Node000001_Node000002" class="edge">
<title>Node1&#45;&gt;Node2</title>
<g id="a_edge1_Node000001_Node000002"><a xlink:title=" ">
<path fill="none" stroke="#63b8ff" d="M75.43,-204.92C82.99,-206 91.19,-207.18 99.5,-208.38"/>
<polygon fill="#63b8ff" stroke="#63b8ff" points="98.95,-211.84 109.35,-209.8 99.95,-204.91 98.95,-211.84"/>
</a>
</g>
</g>
<!-- Node16 -->
<g id="Node000016" class="node">
<title>Node16</title>
<g id="a_Node000016"><a xlink:href="class_common_d_b_child.html#abee3f3dcd7b366ce63515be99c13c239" target="_top" xlink:title=" ">
<polygon fill="white" stroke="#666666" points="196.25,-191.25 147.25,-191.25 147.25,-172 196.25,-172 196.25,-191.25"/>
<text text-anchor="middle" x="171.75" y="-177.75" font-family="Helvetica,sans-Serif" font-size="10.00">getItem</text>
</a>
</g>
</g>
<!-- Node1&#45;&gt;Node16 -->
<g id="edge17_Node000001_Node000016" class="edge">
<title>Node1&#45;&gt;Node16</title>
<g id="a_edge17_Node000001_Node000016"><a xlink:title=" ">
<path fill="none" stroke="#63b8ff" d="M75.43,-194.61C94.31,-192.04 117.19,-188.92 135.79,-186.39"/>
<polygon fill="#63b8ff" stroke="#63b8ff" points="136.1,-189.88 145.54,-185.06 135.16,-182.94 136.1,-189.88"/>
</a>
</g>
</g>
<!-- Node3 -->
<g id="Node000003" class="node">
<title>Node3</title>
<g id="a_Node000003"><a xlink:href="class_common_d_b_t_m.html#aabcc361b8449814251d95e3f71274491" target="_top" xlink:title=" ">
<polygon fill="white" stroke="#666666" points="434.25,-228.25 296.75,-228.25 296.75,-209 434.25,-209 434.25,-228.25"/>
<text text-anchor="middle" x="365.5" y="-214.75" font-family="Helvetica,sans-Serif" font-size="10.00">CommonDBTM\getNameID</text>
</a>
</g>
</g>
<!-- Node2&#45;&gt;Node3 -->
<g id="edge2_Node000002_Node000003" class="edge">
<title>Node2&#45;&gt;Node3</title>
<g id="a_edge2_Node000002_Node000003"><a xlink:title=" ">
<path fill="none" stroke="#63b8ff" d="M232.63,-218.62C249.22,-218.62 267.49,-218.62 285,-218.62"/>
<polygon fill="#63b8ff" stroke="#63b8ff" points="284.86,-222.13 294.86,-218.63 284.86,-215.13 284.86,-222.13"/>
</a>
</g>
</g>
<!-- Node4 -->
<g id="Node000004" class="node">
<title>Node4</title>
<g id="a_Node000004"><a xlink:href="class_common_d_b_t_m.html#af3034ead082330d2c046a69814009808" target="_top" xlink:title=" ">
<polygon fill="white" stroke="#666666" points="830.75,-228.25 682,-228.25 682,-209 830.75,-209 830.75,-228.25"/>
<text text-anchor="middle" x="756.38" y="-214.75" font-family="Helvetica,sans-Serif" font-size="10.00">CommonDBTM\getComments</text>
</a>
</g>
</g>
<!-- Node3&#45;&gt;Node4 -->
<g id="edge3_Node000003_Node000004" class="edge">
<title>Node3&#45;&gt;Node4</title>
<g id="a_edge3_Node000003_Node000004"><a xlink:title=" ">
<path fill="none" stroke="#63b8ff" d="M434.68,-218.62C500.33,-218.62 599.81,-218.62 670.54,-218.62"/>
<polygon fill="#63b8ff" stroke="#63b8ff" points="670.13,-222.13 680.13,-218.63 670.13,-215.13 670.13,-222.13"/>
</a>
</g>
</g>
<!-- Node5 -->
<g id="Node000005" class="node">
<title>Node5</title>
<g id="a_Node000005"><a xlink:href="class_common_d_b_t_m.html#ab51a31d365e0a095368688951e663e0d" target="_top" xlink:title=" ">
<polygon fill="white" stroke="#666666" points="1040.62,-293.25 918.88,-293.25 918.88,-274 1040.62,-274 1040.62,-293.25"/>
<text text-anchor="middle" x="979.75" y="-279.75" font-family="Helvetica,sans-Serif" font-size="10.00">CommonDBTM\getField</text>
</a>
</g>
</g>
<!-- Node3&#45;&gt;Node5 -->
<g id="edge8_Node000003_Node000005" class="edge">
<title>Node3&#45;&gt;Node5</title>
<g id="a_edge8_Node000003_Node000005"><a xlink:title=" ">
<path fill="none" stroke="#63b8ff" d="M434.66,-225.86C551.36,-238.25 788.35,-263.41 907.29,-276.04"/>
<polygon fill="#63b8ff" stroke="#63b8ff" points="906.6,-279.48 916.91,-277.06 907.34,-272.52 906.6,-279.48"/>
</a>
</g>
</g>
<!-- Node9 -->
<g id="Node000009" class="node">
<title>Node9</title>
<g id="a_Node000009"><a xlink:href="class_common_d_b_t_m.html#a2d8ac60003ffbc0f541149e1800b3edc" target="_top" xlink:title=" ">
<polygon fill="white" stroke="#666666" points="625.75,-154.25 498.75,-154.25 498.75,-135 625.75,-135 625.75,-154.25"/>
<text text-anchor="middle" x="562.25" y="-140.75" font-family="Helvetica,sans-Serif" font-size="10.00">CommonDBTM\getName</text>
</a>
</g>
</g>
<!-- Node3&#45;&gt;Node9 -->
<g id="edge9_Node000003_Node000009" class="edge">
<title>Node3&#45;&gt;Node9</title>
<g id="a_edge9_Node000003_Node000009"><a xlink:title=" ">
<path fill="none" stroke="#63b8ff" d="M434.58,-208.82C444.18,-206.6 453.81,-203.9 462.75,-200.62 490,-190.65 518.54,-173.58 537.85,-160.9"/>
<polygon fill="#63b8ff" stroke="#63b8ff" points="539.69,-163.88 546.04,-155.4 535.79,-158.07 539.69,-163.88"/>
</a>
</g>
</g>
<!-- Node4&#45;&gt;Node5 -->
<g id="edge4_Node000004_Node000005" class="edge">
<title>Node4&#45;&gt;Node5</title>
<g id="a_edge4_Node000004_Node000005"><a xlink:title=" ">
<path fill="none" stroke="#63b8ff" d="M781.38,-228.59C807.13,-238.99 849.4,-255.19 887,-265.62 894.15,-267.61 901.66,-269.46 909.19,-271.16"/>
<polygon fill="#63b8ff" stroke="#63b8ff" points="908.2,-274.52 918.71,-273.22 909.68,-267.68 908.2,-274.52"/>
</a>
</g>
</g>
<!-- Node6 -->
<g id="Node000006" class="node">
<title>Node6</title>
<g id="a_Node000006"><a xlink:href="class_common_g_l_p_i.html#a3dadfbfaa3d8e3b5fe01a60e28640ddb" target="_top" xlink:title=" ">
<polygon fill="white" stroke="#666666" points="1037.62,-256.25 921.88,-256.25 921.88,-237 1037.62,-237 1037.62,-256.25"/>
<text text-anchor="middle" x="979.75" y="-242.75" font-family="Helvetica,sans-Serif" font-size="10.00">CommonGLPI\getType</text>
</a>
</g>
</g>
<!-- Node4&#45;&gt;Node6 -->
<g id="edge5_Node000004_Node000006" class="edge">
<title>Node4&#45;&gt;Node6</title>
<g id="a_edge5_Node000004_Node000006"><a xlink:title=" ">
<path fill="none" stroke="#63b8ff" d="M831.09,-227.95C856.61,-231.18 885.1,-234.78 910.19,-237.95"/>
<polygon fill="#63b8ff" stroke="#63b8ff" points="909.6,-241.41 919.96,-239.19 910.47,-234.46 909.6,-241.41"/>
</a>
</g>
</g>
<!-- Node7 -->
<g id="Node000007" class="node">
<title>Node7</title>
<g id="a_Node000007"><a xlink:href="db_8function_8php.html#a23abce123a06acd83e5f5708bdcf969c" target="_top" xlink:title=" ">
<polygon fill="white" stroke="#666666" points="1018.12,-219.25 941.38,-219.25 941.38,-200 1018.12,-200 1018.12,-219.25"/>
<text text-anchor="middle" x="979.75" y="-205.75" font-family="Helvetica,sans-Serif" font-size="10.00">getUserName</text>
</a>
</g>
</g>
<!-- Node4&#45;&gt;Node7 -->
<g id="edge6_Node000004_Node000007" class="edge">
<title>Node4&#45;&gt;Node7</title>
<g id="a_edge6_Node000004_Node000007"><a xlink:title=" ">
<path fill="none" stroke="#63b8ff" d="M831.09,-215.63C863.48,-214.31 900.64,-212.8 929.58,-211.62"/>
<polygon fill="#63b8ff" stroke="#63b8ff" points="929.68,-215.12 939.53,-211.22 929.4,-208.13 929.68,-215.12"/>
</a>
</g>
</g>
<!-- Node8 -->
<g id="Node000008" class="node">
<title>Node8</title>
<g id="a_Node000008"><a xlink:href="class_common_d_b_t_m.html#a930b065732a1259f926c0cb52161739c" target="_top" xlink:title=" ">
<polygon fill="white" stroke="#666666" points="1037.62,-182.25 921.88,-182.25 921.88,-163 1037.62,-163 1037.62,-182.25"/>
<text text-anchor="middle" x="979.75" y="-168.75" font-family="Helvetica,sans-Serif" font-size="10.00">CommonDBTM\isField</text>
</a>
</g>
</g>
<!-- Node4&#45;&gt;Node8 -->
<g id="edge7_Node000004_Node000008" class="edge">
<title>Node4&#45;&gt;Node8</title>
<g id="a_edge7_Node000004_Node000008"><a xlink:title=" ">
<path fill="none" stroke="#63b8ff" d="M813.97,-208.51C826.22,-206.11 839.08,-203.42 851,-200.62 867.17,-196.83 870.84,-194.45 887,-190.62 895.24,-188.68 903.93,-186.77 912.54,-184.98"/>
<polygon fill="#63b8ff" stroke="#63b8ff" points="913.19,-188.42 922.29,-182.99 911.8,-181.56 913.19,-188.42"/>
</a>
</g>
</g>
<!-- Node9&#45;&gt;Node4 -->
<g id="edge10_Node000009_Node000004" class="edge">
<title>Node9&#45;&gt;Node4</title>
<g id="a_edge10_Node000009_Node000004"><a xlink:title=" ">
<path fill="none" stroke="#63b8ff" d="M577.21,-154.53C595.67,-167.16 629.64,-188.78 661.75,-200.62 666.78,-202.48 672.03,-204.15 677.36,-205.66"/>
<polygon fill="#63b8ff" stroke="#63b8ff" points="676.38,-209.02 686.94,-208.15 678.14,-202.24 676.38,-209.02"/>
</a>
</g>
</g>
<!-- Node10 -->
<g id="Node000010" class="node">
<title>Node10</title>
<g id="a_Node000010"><a xlink:href="class_common_d_b_t_m.html#ae09f432e51653377556550a5a4d983b9" target="_top" xlink:title=" ">
<polygon fill="white" stroke="#666666" points="837.12,-191.25 675.62,-191.25 675.62,-172 837.12,-172 837.12,-191.25"/>
<text text-anchor="middle" x="756.38" y="-177.75" font-family="Helvetica,sans-Serif" font-size="10.00">CommonDBTM\getFriendlyName</text>
</a>
</g>
</g>
<!-- Node9&#45;&gt;Node10 -->
<g id="edge11_Node000009_Node000010" class="edge">
<title>Node9&#45;&gt;Node10</title>
<g id="a_edge11_Node000009_Node000010"><a xlink:title=" ">
<path fill="none" stroke="#63b8ff" d="M615.65,-154.74C630.54,-157.61 646.79,-160.74 661.75,-163.62 671.43,-165.49 681.68,-167.46 691.7,-169.39"/>
<polygon fill="#63b8ff" stroke="#63b8ff" points="690.92,-172.8 701.4,-171.25 692.24,-165.93 690.92,-172.8"/>
</a>
</g>
</g>
<!-- Node12 -->
<g id="Node000012" class="node">
<title>Node12</title>
<g id="a_Node000012"><a xlink:href="class_common_d_b_t_m.html#aba4ebe60768c9021ba124a6daa421f2e" target="_top" xlink:title=" ">
<polygon fill="white" stroke="#666666" points="816.12,-154.25 696.62,-154.25 696.62,-135 816.12,-135 816.12,-154.25"/>
<text text-anchor="middle" x="756.38" y="-140.75" font-family="Helvetica,sans-Serif" font-size="10.00">CommonDBTM\getIcon</text>
</a>
</g>
</g>
<!-- Node9&#45;&gt;Node12 -->
<g id="edge13_Node000009_Node000012" class="edge">
<title>Node9&#45;&gt;Node12</title>
<g id="a_edge13_Node000009_Node000012"><a xlink:title=" ">
<path fill="none" stroke="#63b8ff" d="M626.16,-144.62C644.92,-144.62 665.6,-144.62 684.81,-144.62"/>
<polygon fill="#63b8ff" stroke="#63b8ff" points="684.72,-148.13 694.72,-144.63 684.72,-141.13 684.72,-148.13"/>
</a>
</g>
</g>
<!-- Node13 -->
<g id="Node000013" class="node">
<title>Node13</title>
<g id="a_Node000013"><a xlink:href="class_common_d_b_t_m.html#a3a83e3369f75c2412b7867100ddc6a41" target="_top" xlink:title=" ">
<polygon fill="white" stroke="#666666" points="838.25,-116.88 674.5,-116.88 674.5,-86.38 838.25,-86.38 838.25,-116.88"/>
<text text-anchor="start" x="682.5" y="-103.38" font-family="Helvetica,sans-Serif" font-size="10.00">CommonDBTM\getPostAdditional</text>
<text text-anchor="middle" x="756.38" y="-92.12" font-family="Helvetica,sans-Serif" font-size="10.00">InfosForName</text>
</a>
</g>
</g>
<!-- Node9&#45;&gt;Node13 -->
<g id="edge14_Node000009_Node000013" class="edge">
<title>Node9&#45;&gt;Node13</title>
<g id="a_edge14_Node000009_Node000013"><a xlink:title=" ">
<path fill="none" stroke="#63b8ff" d="M608.29,-134.54C627.93,-130.15 651.57,-124.86 674.1,-119.82"/>
<polygon fill="#63b8ff" stroke="#63b8ff" points="674.58,-123.3 683.57,-117.7 673.05,-116.46 674.58,-123.3"/>
</a>
</g>
</g>
<!-- Node14 -->
<g id="Node000014" class="node">
<title>Node14</title>
<g id="a_Node000014"><a xlink:href="class_common_d_b_t_m.html#aecef31a74cab59de3547a416a00db9c6" target="_top" xlink:title=" ">
<polygon fill="white" stroke="#666666" points="835.62,-67.88 677.12,-67.88 677.12,-37.38 835.62,-37.38 835.62,-67.88"/>
<text text-anchor="start" x="685.12" y="-54.38" font-family="Helvetica,sans-Serif" font-size="10.00">CommonDBTM\getPreAdditional</text>
<text text-anchor="middle" x="756.38" y="-43.12" font-family="Helvetica,sans-Serif" font-size="10.00">InfosForName</text>
</a>
</g>
</g>
<!-- Node9&#45;&gt;Node14 -->
<g id="edge15_Node000009_Node000014" class="edge">
<title>Node9&#45;&gt;Node14</title>
<g id="a_edge15_Node000009_Node000014"><a xlink:title=" ">
<path fill="none" stroke="#63b8ff" d="M575.19,-134.51C592.95,-119.95 627.9,-93.11 661.75,-77.62 666.05,-75.66 670.54,-73.82 675.12,-72.11"/>
<polygon fill="#63b8ff" stroke="#63b8ff" points="676.21,-75.43 684.5,-68.84 673.9,-68.82 676.21,-75.43"/>
</a>
</g>
</g>
<!-- Node15 -->
<g id="Node000015" class="node">
<title>Node15</title>
<g id="a_Node000015"><a xlink:href="class_common_d_b_t_m.html#ae283ea6cf6cd8f78ed85ded55f55c24f" target="_top" xlink:title=" ">
<polygon fill="white" stroke="#666666" points="851,-19.25 661.75,-19.25 661.75,0 851,0 851,-19.25"/>
<text text-anchor="middle" x="756.38" y="-5.75" font-family="Helvetica,sans-Serif" font-size="10.00">CommonDBTM\getRawCompleteName</text>
</a>
</g>
</g>
<!-- Node9&#45;&gt;Node15 -->
<g id="edge16_Node000009_Node000015" class="edge">
<title>Node9&#45;&gt;Node15</title>
<g id="a_edge16_Node000009_Node000015"><a xlink:title=" ">
<path fill="none" stroke="#63b8ff" d="M568.6,-134.6C581.38,-111.74 616.03,-55.63 661.75,-28.62 664.72,-26.87 667.83,-25.27 671.04,-23.82"/>
<polygon fill="#63b8ff" stroke="#63b8ff" points="672.12,-27.16 680.13,-20.22 669.55,-20.65 672.12,-27.16"/>
</a>
</g>
</g>
<!-- Node11 -->
<g id="Node000011" class="node">
<title>Node11</title>
<g id="a_Node000011"><a xlink:href="class_common_d_b_t_m.html#a29827f6c6205287c29e2f620559a5b25" target="_top" xlink:title=" ">
<polygon fill="white" stroke="#666666" points="1072.5,-145.25 887,-145.25 887,-126 1072.5,-126 1072.5,-145.25"/>
<text text-anchor="middle" x="979.75" y="-131.75" font-family="Helvetica,sans-Serif" font-size="10.00">CommonDBTM\computeFriendlyName</text>
</a>
</g>
</g>
<!-- Node10&#45;&gt;Node11 -->
<g id="edge12_Node000010_Node000011" class="edge">
<title>Node10&#45;&gt;Node11</title>
<g id="a_edge12_Node000010_Node000011"><a xlink:title=" ">
<path fill="none" stroke="#63b8ff" d="M813.97,-171.51C826.22,-169.11 839.08,-166.42 851,-163.62 867.17,-159.83 870.84,-157.45 887,-153.62 895.24,-151.68 903.93,-149.77 912.54,-147.98"/>
<polygon fill="#63b8ff" stroke="#63b8ff" points="913.19,-151.42 922.29,-145.99 911.8,-144.56 913.19,-151.42"/>
</a>
</g>
</g>
<!-- Node17 -->
<g id="Node000017" class="node">
<title>Node17</title>
<g id="a_Node000017"><a xlink:href="class_common_d_b_connexity.html#ade9838c9396e0210b6000d379ccf60ec" target="_top" xlink:title=" ">
<polygon fill="white" stroke="#666666" points="462.75,-191.25 268.25,-191.25 268.25,-172 462.75,-172 462.75,-191.25"/>
<text text-anchor="middle" x="365.5" y="-177.75" font-family="Helvetica,sans-Serif" font-size="10.00">CommonDBConnexity\getConnexityItem</text>
</a>
</g>
</g>
<!-- Node16&#45;&gt;Node17 -->
<g id="edge18_Node000016_Node000017" class="edge">
<title>Node16&#45;&gt;Node17</title>
<g id="a_edge18_Node000016_Node000017"><a xlink:title=" ">
<path fill="none" stroke="#63b8ff" d="M196.65,-181.62C212.28,-181.62 233.92,-181.62 256.48,-181.62"/>
<polygon fill="#63b8ff" stroke="#63b8ff" points="256.46,-185.13 266.46,-181.63 256.46,-178.13 256.46,-185.13"/>
</a>
</g>
</g>
</g>
</svg>

<g id="navigator" transform="translate(0 0)" fill="#404254">
  <rect fill="#f2f5e9" fill-opacity="0.5" stroke="#606060" stroke-width=".5" x="0" y="0" width="60" height="60"/>
  <use id="zoomplus" xlink:href="#zoomPlus" x="17" y="9" onmousedown="handleZoom(evt,'in')"/>
  <use id="zoomminus" xlink:href="#zoomMin" x="42" y="9" onmousedown="handleZoom(evt,'out')"/>
  <use id="reset" xlink:href="#resetDef" x="30" y="36" onmousedown="handleReset()"/>
   <use id="arrowup" xlink:href="#arrowUp" x="0" y="0" onmousedown="handlePan(0,-1)"/>
  <use id="arrowright" xlink:href="#arrowRight" x="0" y="0" onmousedown="handlePan(1,0)"/>
  <use id="arrowdown" xlink:href="#arrowDown" x="0" y="0" onmousedown="handlePan(0,1)"/>
  <use id="arrowleft" xlink:href="#arrowLeft" x="0" y="0" onmousedown="handlePan(-1,0)"/>
</g>
<svg viewBox="0 0 15 15" width="100%" height="30px" preserveAspectRatio="xMaxYMin meet">
 <g id="arrow_out" transform="scale(0.3 0.3)">
  <a xlink:href="class_common_d_b_child_ae03b1a7770dde04429eb011796379a5e_cgraph_org.svg" target="_base">
   <rect id="button" ry="5" rx="5" y="6" x="6" height="38" width="38"
        fill="#f2f5e9" fill-opacity="0.5" stroke="#606060" stroke-width="1.0"/>
   <path id="arrow"
     d="M 11.500037,31.436501 C 11.940474,20.09759 22.043105,11.32322 32.158766,21.979434 L 37.068811,17.246167 C 37.068811,17.246167 37.088388,32 37.088388,32 L 22.160133,31.978069 C 22.160133,31.978069 26.997745,27.140456 26.997745,27.140456 C 18.528582,18.264221 13.291696,25.230495 11.500037,31.436501 z"
     style="fill:#404040;"/>
  </a>
 </g>
</svg>

<style type='text/css'>
<![CDATA[
[data-mouse-over-selected='false'] { opacity: 0.7; }
[data-mouse-over-selected='true']  { opacity: 1.0; }
]]>
</style>
<script type="application/ecmascript"><![CDATA[
document.addEventListener('DOMContentLoaded', (event) => {
  highlightEdges();
  highlightAdjacentNodes();
});
]]></script>
</svg>
