<?xml version="1.0" encoding="UTF-8" standalone="no"?>
<!DOCTYPE svg PUBLIC "-//W3C//DTD SVG 1.1//EN"
 "http://www.w3.org/Graphics/SVG/1.1/DTD/svg11.dtd">
<!-- Generated by graphviz version 10.0.1 (20240210.2158)
 -->
<!-- Title: checkSessionToken Pages: 1 -->
<svg width="518pt" height="64pt"
 viewBox="0.00 0.00 517.50 64.25" xmlns="http://www.w3.org/2000/svg" xmlns:xlink="http://www.w3.org/1999/xlink">
<g id="graph0" class="graph" transform="scale(1 1) rotate(0) translate(4 60.25)">
<title>checkSessionToken</title>
<!-- Node1 -->
<g id="Node000001" class="node">
<title>Node1</title>
<g id="a_Node000001"><a xlink:title=" ">
<polygon fill="#999999" stroke="#666666" points="103.75,-37.25 0,-37.25 0,-18 103.75,-18 103.75,-37.25"/>
<text text-anchor="middle" x="51.88" y="-23.75" font-family="Helvetica,sans-Serif" font-size="10.00">checkSessionToken</text>
</a>
</g>
</g>
<!-- Node2 -->
<g id="Node000002" class="node">
<title>Node2</title>
<g id="a_Node000002"><a xlink:href="class_glpi_1_1_api_1_1_a_p_i.html#aa5255cf7fd4adbf47028d9473dc040d8" target="_top" xlink:title=" ">
<polygon fill="white" stroke="#666666" points="271.25,-56.25 159.25,-56.25 159.25,-37 271.25,-37 271.25,-56.25"/>
<text text-anchor="middle" x="215.25" y="-42.75" font-family="Helvetica,sans-Serif" font-size="10.00">messageSessionError</text>
</a>
</g>
</g>
<!-- Node1&#45;&gt;Node2 -->
<g id="edge1_Node000001_Node000002" class="edge">
<title>Node1&#45;&gt;Node2</title>
<g id="a_edge1_Node000001_Node000002"><a xlink:title=" ">
<path fill="none" stroke="#63b8ff" d="M103.94,-33.64C117.84,-35.27 133.11,-37.07 147.74,-38.79"/>
<polygon fill="#63b8ff" stroke="#63b8ff" points="146.93,-42.22 157.27,-39.92 147.75,-35.27 146.93,-42.22"/>
</a>
</g>
</g>
<!-- Node5 -->
<g id="Node000005" class="node">
<title>Node5</title>
<g id="a_Node000005"><a xlink:href="class_glpi_1_1_api_1_1_a_p_i.html#a859cab50ec4b9f6953f500e84619d521" target="_top" xlink:title=" ">
<polygon fill="white" stroke="#666666" points="290.75,-19.25 139.75,-19.25 139.75,0 290.75,0 290.75,-19.25"/>
<text text-anchor="middle" x="215.25" y="-5.75" font-family="Helvetica,sans-Serif" font-size="10.00">messageSessionTokenMissing</text>
</a>
</g>
</g>
<!-- Node1&#45;&gt;Node5 -->
<g id="edge4_Node000001_Node000005" class="edge">
<title>Node1&#45;&gt;Node5</title>
<g id="a_edge4_Node000001_Node000005"><a xlink:title=" ">
<path fill="none" stroke="#63b8ff" d="M103.94,-21.93C111.68,-21.07 119.85,-20.15 128.09,-19.24"/>
<polygon fill="#63b8ff" stroke="#63b8ff" points="128.3,-22.73 137.85,-18.15 127.52,-15.78 128.3,-22.73"/>
</a>
</g>
</g>
<!-- Node3 -->
<g id="Node000003" class="node">
<title>Node3</title>
<g id="a_Node000003"><a xlink:href="class_glpi_1_1_api_1_1_a_p_i.html#af8fc0014311c0740d4e186cbd124a293" target="_top" xlink:title=" ">
<polygon fill="white" stroke="#666666" points="388.5,-37.25 326.75,-37.25 326.75,-18 388.5,-18 388.5,-37.25"/>
<text text-anchor="middle" x="357.62" y="-23.75" font-family="Helvetica,sans-Serif" font-size="10.00">returnError</text>
</a>
</g>
</g>
<!-- Node2&#45;&gt;Node3 -->
<g id="edge2_Node000002_Node000003" class="edge">
<title>Node2&#45;&gt;Node3</title>
<g id="a_edge2_Node000002_Node000003"><a xlink:title=" ">
<path fill="none" stroke="#63b8ff" d="M271.73,-39.12C286.34,-37.14 301.84,-35.04 315.54,-33.19"/>
<polygon fill="#63b8ff" stroke="#63b8ff" points="315.62,-36.71 325.07,-31.9 314.69,-29.77 315.62,-36.71"/>
</a>
</g>
</g>
<!-- Node4 -->
<g id="Node000004" class="node">
<title>Node4</title>
<g id="a_Node000004"><a xlink:href="class_glpi_1_1_api_1_1_a_p_i.html#adf00380047c368069aa580e7aa332eec" target="_top" xlink:title=" ">
<polygon fill="white" stroke="#666666" points="509.5,-37.25 424.5,-37.25 424.5,-18 509.5,-18 509.5,-37.25"/>
<text text-anchor="middle" x="467" y="-23.75" font-family="Helvetica,sans-Serif" font-size="10.00">returnResponse</text>
</a>
</g>
</g>
<!-- Node3&#45;&gt;Node4 -->
<g id="edge3_Node000003_Node000004" class="edge">
<title>Node3&#45;&gt;Node4</title>
<g id="a_edge3_Node000003_Node000004"><a xlink:title=" ">
<path fill="none" stroke="#63b8ff" d="M388.82,-27.62C396.24,-27.62 404.41,-27.62 412.57,-27.62"/>
<polygon fill="#63b8ff" stroke="#63b8ff" points="412.5,-31.13 422.5,-27.63 412.5,-24.13 412.5,-31.13"/>
</a>
</g>
</g>
<!-- Node5&#45;&gt;Node3 -->
<g id="edge5_Node000005_Node000003" class="edge">
<title>Node5&#45;&gt;Node3</title>
<g id="a_edge5_Node000005_Node000003"><a xlink:title=" ">
<path fill="none" stroke="#63b8ff" d="M290.96,-19.2C299.31,-20.28 307.57,-21.33 315.27,-22.32"/>
<polygon fill="#63b8ff" stroke="#63b8ff" points="314.6,-25.77 324.97,-23.57 315.49,-18.82 314.6,-25.77"/>
</a>
</g>
</g>
</g>
</svg>
