<?xml version="1.0" encoding="UTF-8" standalone="no"?>
<!DOCTYPE svg PUBLIC "-//W3C//DTD SVG 1.1//EN"
 "http://www.w3.org/Graphics/SVG/1.1/DTD/svg11.dtd">
<!-- Generated by graphviz version 10.0.1 (20240210.2158)
 -->
<!-- Title: getHTMLTableCellForItem Pages: 1 -->
<!--zoomable 884 -->

<svg id="main" version="1.1" xmlns="http://www.w3.org/2000/svg" xmlns:xlink="http://www.w3.org/1999/xlink" xml:space="preserve" onload="init(evt)">
<style type="text/css"><![CDATA[
.node, .edge {opacity: 0.7;}
.node.selected, .edge.selected {opacity: 1;}
.edge:hover path { stroke: red; }
.edge:hover polygon { stroke: red; fill: red; }
]]></style>

<defs>
  <circle id="rim" cx="0" cy="0" r="7"/>
  <circle id="rim2" cx="0" cy="0" r="3.5"/>
  <g id="zoomPlus">
    <use xlink:href="#rim" fill="#404040"><set attributeName="fill" to="#808080" begin="zoomplus.mouseover" end="zoomplus.mouseout"/></use>
    <path d="M-4,0h8M0,-4v8" fill="none" stroke="white" stroke-width="1.5" pointer-events="none"/>
  </g>
  <g id="zoomMin">
    <use xlink:href="#rim" fill="#404040"><set attributeName="fill" to="#808080" begin="zoomminus.mouseover" end="zoomminus.mouseout"/></use>
    <path d="M-4,0h8" fill="none" stroke="white" stroke-width="1.5" pointer-events="none"/>
  </g>
  <g id="arrowUp" transform="translate(30 24)">
    <use xlink:href="#rim"/>
    <path pointer-events="none" fill="none" stroke="white" stroke-width="1.5" d="M0,-3.0v7 M-2.5,-0.5L0,-3.0L2.5,-0.5"/>
  </g>
  <g id="arrowRight" transform="rotate(90) translate(36 -43)">
    <use xlink:href="#rim"/>
    <path pointer-events="none" fill="none" stroke="white" stroke-width="1.5" d="M0,-3.0v7 M-2.5,-0.5L0,-3.0L2.5,-0.5"/>
  </g>
  <g id="arrowDown" transform="rotate(180) translate(-30 -48)">
    <use xlink:href="#rim"/>
    <path pointer-events="none" fill="none" stroke="white" stroke-width="1.5" d="M0,-3.0v7 M-2.5,-0.5L0,-3.0L2.5,-0.5"/>
  </g>
  <g id="arrowLeft" transform="rotate(270) translate(-36 17)">
    <use xlink:href="#rim"/>
    <path pointer-events="none" fill="none" stroke="white" stroke-width="1.5" d="M0,-3.0v7 M-2.5,-0.5L0,-3.0L2.5,-0.5"/>
  </g>
  <g id="resetDef">
    <use xlink:href="#rim2" fill="#404040"><set attributeName="fill" to="#808080" begin="reset.mouseover" end="reset.mouseout"/></use>
  </g>
</defs>
<script type="application/ecmascript">
var viewWidth = 1316;
var viewHeight = 884;
var sectionId = 'dynsection-3';
</script>
<script type="application/ecmascript" xlink:href="svg.min.js"/>
<svg id="graph" class="graph">
<g id="viewport">
<title>getHTMLTableCellForItem</title>
<!-- Node1 -->
<g id="Node000001" class="node">
<title>Node1</title>
<g id="a_Node000001"><a xlink:title=" ">
<polygon fill="#999999" stroke="#666666" points="130.75,-221.66 0,-221.66 0,-202.41 130.75,-202.41 130.75,-221.66"/>
<text text-anchor="middle" x="65.38" y="-208.16" font-family="Helvetica,sans-Serif" font-size="10.00">getHTMLTableCellForItem</text>
</a>
</g>
</g>
<!-- Node2 -->
<g id="Node000002" class="node">
<title>Node2</title>
<g id="a_Node000002"><a xlink:href="autoload_8function_8php.html#a00370b448958fc4d545e649de32d26fa" target="_top" xlink:title=" ">
<polygon fill="white" stroke="#666666" points="242,-296.66 210.25,-296.66 210.25,-277.41 242,-277.41 242,-296.66"/>
<text text-anchor="middle" x="226.12" y="-283.16" font-family="Helvetica,sans-Serif" font-size="10.00">__s</text>
</a>
</g>
</g>
<!-- Node1&#45;&gt;Node2 -->
<g id="edge1_Node000001_Node000002" class="edge">
<title>Node1&#45;&gt;Node2</title>
<g id="a_edge1_Node000001_Node000002"><a xlink:title=" ">
<path fill="none" stroke="#63b8ff" d="M81.48,-222C100.67,-234.33 135.11,-255.36 166.75,-269.03 177.08,-273.49 188.87,-277.35 199.14,-280.33"/>
<polygon fill="#63b8ff" stroke="#63b8ff" points="197.9,-283.62 208.47,-282.91 199.76,-276.87 197.9,-283.62"/>
</a>
</g>
</g>
<!-- Node3 -->
<g id="Node000003" class="node">
<title>Node3</title>
<g id="a_Node000003"><a xlink:href="class_common_d_b_t_m.html#a30dd7fff4fec7a39f9be9d27d4b22a59" target="_top" xlink:title=" ">
<polygon fill="white" stroke="#666666" points="635.88,-183.66 524.62,-183.66 524.62,-164.41 635.88,-164.41 635.88,-183.66"/>
<text text-anchor="middle" x="580.25" y="-170.16" font-family="Helvetica,sans-Serif" font-size="10.00">CommonDBTM\getID</text>
</a>
</g>
</g>
<!-- Node1&#45;&gt;Node3 -->
<g id="edge2_Node000001_Node000003" class="edge">
<title>Node1&#45;&gt;Node3</title>
<g id="a_edge2_Node000001_Node000003"><a xlink:title=" ">
<path fill="none" stroke="#63b8ff" d="M131.07,-207.24C228.99,-199.98 413.86,-186.29 512.8,-178.95"/>
<polygon fill="#63b8ff" stroke="#63b8ff" points="512.92,-182.46 522.63,-178.23 512.4,-175.48 512.92,-182.46"/>
</a>
</g>
</g>
<!-- Node4 -->
<g id="Node000004" class="node">
<title>Node4</title>
<g id="a_Node000004"><a xlink:href="class_common_d_b_t_m.html#a221b3b8879f06136a8961380360b381c" target="_top" xlink:title=" ">
<polygon fill="white" stroke="#666666" points="285.5,-259.66 166.75,-259.66 166.75,-240.41 285.5,-240.41 285.5,-259.66"/>
<text text-anchor="middle" x="226.12" y="-246.16" font-family="Helvetica,sans-Serif" font-size="10.00">CommonDBTM\getLink</text>
</a>
</g>
</g>
<!-- Node1&#45;&gt;Node4 -->
<g id="edge3_Node000001_Node000004" class="edge">
<title>Node1&#45;&gt;Node4</title>
<g id="a_edge3_Node000001_Node000004"><a xlink:title=" ">
<path fill="none" stroke="#63b8ff" d="M108.5,-222.12C127.95,-226.77 151.27,-232.35 171.92,-237.3"/>
<polygon fill="#63b8ff" stroke="#63b8ff" points="171.07,-240.69 181.61,-239.61 172.7,-233.88 171.07,-240.69"/>
</a>
</g>
</g>
<!-- Node25 -->
<g id="Node000025" class="node">
<title>Node25</title>
<g id="a_Node000025"><a xlink:href="class_common_d_b_t_m.html#a2d8ac60003ffbc0f541149e1800b3edc" target="_top" xlink:title=" ">
<polygon fill="white" stroke="#666666" points="643.75,-234.66 516.75,-234.66 516.75,-215.41 643.75,-215.41 643.75,-234.66"/>
<text text-anchor="middle" x="580.25" y="-221.16" font-family="Helvetica,sans-Serif" font-size="10.00">CommonDBTM\getName</text>
</a>
</g>
</g>
<!-- Node1&#45;&gt;Node25 -->
<g id="edge50_Node000001_Node000025" class="edge">
<title>Node1&#45;&gt;Node25</title>
<g id="a_edge50_Node000001_Node000025"><a xlink:title=" ">
<path fill="none" stroke="#63b8ff" d="M131.07,-213.67C226.49,-216.09 404.5,-220.6 505.08,-223.15"/>
<polygon fill="#63b8ff" stroke="#63b8ff" points="504.75,-226.64 514.84,-223.4 504.93,-219.65 504.75,-226.64"/>
</a>
</g>
</g>
<!-- Node28 -->
<g id="Node000028" class="node">
<title>Node28</title>
<g id="a_Node000028"><a xlink:href="class_common_g_l_p_i.html#a3dadfbfaa3d8e3b5fe01a60e28640ddb" target="_top" xlink:title=" ">
<polygon fill="white" stroke="#666666" points="1075.88,-210.66 960.12,-210.66 960.12,-191.41 1075.88,-191.41 1075.88,-210.66"/>
<text text-anchor="middle" x="1018" y="-197.16" font-family="Helvetica,sans-Serif" font-size="10.00">CommonGLPI\getType</text>
</a>
</g>
</g>
<!-- Node1&#45;&gt;Node28 -->
<g id="edge51_Node000001_Node000028" class="edge">
<title>Node1&#45;&gt;Node28</title>
<g id="a_edge51_Node000001_Node000028"><a xlink:title=" ">
<path fill="none" stroke="#63b8ff" d="M75.02,-202.03C110.01,-162.73 246.14,-21.03 390,-21.03 390,-21.03 390,-21.03 581.25,-21.03 718.4,-21.03 775.47,36.55 889.25,-40.03 919.92,-60.68 903.39,-85.21 925.25,-115.03 945.11,-142.12 974.23,-167.7 994.31,-183.81"/>
<polygon fill="#63b8ff" stroke="#63b8ff" points="992.15,-186.56 1002.17,-189.99 996.47,-181.06 992.15,-186.56"/>
</a>
</g>
</g>
<!-- Node5 -->
<g id="Node000005" class="node">
<title>Node5</title>
<g id="a_Node000005"><a xlink:href="class_common_d_b_t_m.html#a59be9ea1dca9dfa7b48373f9d60a9332" target="_top" xlink:title=" ">
<polygon fill="white" stroke="#666666" points="442.5,-625.66 339.5,-625.66 339.5,-606.41 442.5,-606.41 442.5,-625.66"/>
<text text-anchor="middle" x="391" y="-612.16" font-family="Helvetica,sans-Serif" font-size="10.00">CommonDBTM\can</text>
</a>
</g>
</g>
<!-- Node4&#45;&gt;Node5 -->
<g id="edge4_Node000004_Node000005" class="edge">
<title>Node4&#45;&gt;Node5</title>
<g id="a_edge4_Node000004_Node000005"><a xlink:title=" ">
<path fill="none" stroke="#63b8ff" d="M274.72,-260.11C278.68,-262.26 282.36,-264.87 285.5,-268.03 332.99,-315.87 374.02,-526.39 386.28,-594.61"/>
<polygon fill="#63b8ff" stroke="#63b8ff" points="382.83,-595.22 388.02,-604.46 389.72,-594 382.83,-595.22"/>
</a>
</g>
</g>
<!-- Node21 -->
<g id="Node000021" class="node">
<title>Node21</title>
<g id="a_Node000021"><a xlink:href="class_common_d_b_t_m.html#ae462eee8058eb0d64332d00a8f978934" target="_top" xlink:title=" ">
<polygon fill="white" stroke="#666666" points="460.5,-145.66 321.5,-145.66 321.5,-126.41 460.5,-126.41 460.5,-145.66"/>
<text text-anchor="middle" x="391" y="-132.16" font-family="Helvetica,sans-Serif" font-size="10.00">CommonDBTM\getLinkURL</text>
</a>
</g>
</g>
<!-- Node4&#45;&gt;Node21 -->
<g id="edge29_Node000004_Node000021" class="edge">
<title>Node4&#45;&gt;Node21</title>
<g id="a_edge29_Node000004_Node000021"><a xlink:title=" ">
<path fill="none" stroke="#63b8ff" d="M241.58,-239.91C269.78,-220.18 332.37,-176.37 366.57,-152.43"/>
<polygon fill="#63b8ff" stroke="#63b8ff" points="368.39,-155.43 374.57,-146.83 364.37,-149.7 368.39,-155.43"/>
</a>
</g>
</g>
<!-- Node4&#45;&gt;Node25 -->
<g id="edge34_Node000004_Node000025" class="edge">
<title>Node4&#45;&gt;Node25</title>
<g id="a_edge34_Node000004_Node000025"><a xlink:title=" ">
<path fill="none" stroke="#63b8ff" d="M285.67,-245.88C345.81,-241.61 439.62,-234.94 504.96,-230.31"/>
<polygon fill="#63b8ff" stroke="#63b8ff" points="505.17,-233.8 514.9,-229.6 504.67,-226.82 505.17,-233.8"/>
</a>
</g>
</g>
<!-- Node37 -->
<g id="Node000037" class="node">
<title>Node37</title>
<g id="a_Node000037"><a xlink:href="class_common_d_b_t_m.html#aabcc361b8449814251d95e3f71274491" target="_top" xlink:title=" ">
<polygon fill="white" stroke="#666666" points="459.75,-306.66 322.25,-306.66 322.25,-287.41 459.75,-287.41 459.75,-306.66"/>
<text text-anchor="middle" x="391" y="-293.16" font-family="Helvetica,sans-Serif" font-size="10.00">CommonDBTM\getNameID</text>
</a>
</g>
</g>
<!-- Node4&#45;&gt;Node37 -->
<g id="edge46_Node000004_Node000037" class="edge">
<title>Node4&#45;&gt;Node37</title>
<g id="a_edge46_Node000004_Node000037"><a xlink:title=" ">
<path fill="none" stroke="#63b8ff" d="M262.07,-260.11C286.11,-267.05 318.29,-276.34 344.36,-283.86"/>
<polygon fill="#63b8ff" stroke="#63b8ff" points="343.08,-287.14 353.66,-286.55 345.03,-280.41 343.08,-287.14"/>
</a>
</g>
</g>
<!-- Node6 -->
<g id="Node000006" class="node">
<title>Node6</title>
<g id="a_Node000006"><a xlink:href="class_common_d_b_t_m.html#aafdbf7eaa1fd9b47b562d0ef84275827" target="_top" xlink:title=" ">
<polygon fill="white" stroke="#666666" points="656.88,-588.28 503.62,-588.28 503.62,-557.78 656.88,-557.78 656.88,-588.28"/>
<text text-anchor="start" x="511.62" y="-574.78" font-family="Helvetica,sans-Serif" font-size="10.00">CommonDBTM\addNeededInfo</text>
<text text-anchor="middle" x="580.25" y="-563.53" font-family="Helvetica,sans-Serif" font-size="10.00">ToInput</text>
</a>
</g>
</g>
<!-- Node5&#45;&gt;Node6 -->
<g id="edge5_Node000005_Node000006" class="edge">
<title>Node5&#45;&gt;Node6</title>
<g id="a_edge5_Node000005_Node000006"><a xlink:title=" ">
<path fill="none" stroke="#63b8ff" d="M435.9,-605.95C454.95,-601.58 477.87,-596.31 499.74,-591.29"/>
<polygon fill="#63b8ff" stroke="#63b8ff" points="500.27,-594.76 509.23,-589.11 498.7,-587.94 500.27,-594.76"/>
</a>
</g>
</g>
<!-- Node7 -->
<g id="Node000007" class="node">
<title>Node7</title>
<g id="a_Node000007"><a xlink:href="class_common_d_b_t_m.html#a6e182bf28c50698ab7215435ebfc196c" target="_top" xlink:title=" ">
<polygon fill="white" stroke="#666666" points="656.12,-625.66 504.38,-625.66 504.38,-606.41 656.12,-606.41 656.12,-625.66"/>
<text text-anchor="middle" x="580.25" y="-612.16" font-family="Helvetica,sans-Serif" font-size="10.00">CommonDBTM\canCreateItem</text>
</a>
</g>
</g>
<!-- Node5&#45;&gt;Node7 -->
<g id="edge6_Node000005_Node000007" class="edge">
<title>Node5&#45;&gt;Node7</title>
<g id="a_edge6_Node000005_Node000007"><a xlink:title=" ">
<path fill="none" stroke="#63b8ff" d="M442.67,-616.03C458.13,-616.03 475.59,-616.03 492.72,-616.03"/>
<polygon fill="#63b8ff" stroke="#63b8ff" points="492.4,-619.53 502.4,-616.03 492.4,-612.53 492.4,-619.53"/>
</a>
</g>
</g>
<!-- Node9 -->
<g id="Node000009" class="node">
<title>Node9</title>
<g id="a_Node000009"><a xlink:href="class_common_d_b_t_m.html#a1ad0e84aef9bfb7fe28ac6fcafa1b14b" target="_top" xlink:title=" ">
<polygon fill="white" stroke="#666666" points="1086.38,-786.66 949.62,-786.66 949.62,-767.41 1086.38,-767.41 1086.38,-786.66"/>
<text text-anchor="middle" x="1018" y="-773.16" font-family="Helvetica,sans-Serif" font-size="10.00">CommonDBTM\getEntityID</text>
</a>
</g>
</g>
<!-- Node5&#45;&gt;Node9 -->
<g id="edge23_Node000005_Node000009" class="edge">
<title>Node5&#45;&gt;Node9</title>
<g id="a_edge23_Node000005_Node000009"><a xlink:title=" ">
<path fill="none" stroke="#63b8ff" d="M394.58,-626.02C403.03,-656.43 433.07,-747.9 496.5,-783.03 570.07,-823.78 811.82,-802.1 938.29,-787.23"/>
<polygon fill="#63b8ff" stroke="#63b8ff" points="938.4,-790.75 947.92,-786.09 937.57,-783.8 938.4,-790.75"/>
</a>
</g>
</g>
<!-- Node10 -->
<g id="Node000010" class="node">
<title>Node10</title>
<g id="a_Node000010"><a xlink:href="class_common_d_b_t_m.html#abd1fba5cbce28a1d30906bebf5b88ead" target="_top" xlink:title=" ">
<polygon fill="white" stroke="#666666" points="1302.25,-786.66 1152,-786.66 1152,-767.41 1302.25,-767.41 1302.25,-786.66"/>
<text text-anchor="middle" x="1227.12" y="-773.16" font-family="Helvetica,sans-Serif" font-size="10.00">CommonDBTM\isEntityAssign</text>
</a>
</g>
</g>
<!-- Node5&#45;&gt;Node10 -->
<g id="edge24_Node000005_Node000010" class="edge">
<title>Node5&#45;&gt;Node10</title>
<g id="a_edge24_Node000005_Node000010"><a xlink:title=" ">
<path fill="none" stroke="#63b8ff" d="M393.82,-625.95C400.49,-658.98 426.87,-765.49 496.5,-808.03 727.14,-948.95 1079.61,-833.68 1191.07,-791.17"/>
<polygon fill="#63b8ff" stroke="#63b8ff" points="1192.21,-794.48 1200.28,-787.61 1189.69,-787.95 1192.21,-794.48"/>
</a>
</g>
</g>
<!-- Node12 -->
<g id="Node000012" class="node">
<title>Node12</title>
<g id="a_Node000012"><a xlink:href="class_common_d_b_t_m.html#a74710ea062a0f689b4f3a72acbf91a07" target="_top" xlink:title=" ">
<polygon fill="white" stroke="#666666" points="1307.5,-525.66 1146.75,-525.66 1146.75,-506.41 1307.5,-506.41 1307.5,-525.66"/>
<text text-anchor="middle" x="1227.12" y="-512.16" font-family="Helvetica,sans-Serif" font-size="10.00">CommonDBTM\maybeRecursive</text>
</a>
</g>
</g>
<!-- Node5&#45;&gt;Node12 -->
<g id="edge28_Node000005_Node000012" class="edge">
<title>Node5&#45;&gt;Node12</title>
<g id="a_edge28_Node000005_Node000012"><a xlink:title=" ">
<path fill="none" stroke="#63b8ff" d="M394.12,-606.25C401.56,-574.7 429.72,-475.37 496.5,-437.03 735.55,-299.78 1091.65,-450.93 1196.23,-501.05"/>
<polygon fill="#63b8ff" stroke="#63b8ff" points="1194.49,-504.1 1205.01,-505.31 1197.55,-497.8 1194.49,-504.1"/>
</a>
</g>
</g>
<!-- Node13 -->
<g id="Node000013" class="node">
<title>Node13</title>
<g id="a_Node000013"><a xlink:href="class_common_d_b_t_m.html#a8142550614a9fca5712a015e07fcd858" target="_top" xlink:title=" ">
<polygon fill="white" stroke="#666666" points="655.75,-465.66 504.75,-465.66 504.75,-446.41 655.75,-446.41 655.75,-465.66"/>
<text text-anchor="middle" x="580.25" y="-452.16" font-family="Helvetica,sans-Serif" font-size="10.00">CommonDBTM\canDeleteItem</text>
</a>
</g>
</g>
<!-- Node5&#45;&gt;Node13 -->
<g id="edge14_Node000005_Node000013" class="edge">
<title>Node5&#45;&gt;Node13</title>
<g id="a_edge14_Node000005_Node000013"><a xlink:title=" ">
<path fill="none" stroke="#63b8ff" d="M396.18,-606.2C407.82,-580.07 443.34,-508.5 496.5,-474.03 498.35,-472.83 500.27,-471.71 502.24,-470.66"/>
<polygon fill="#63b8ff" stroke="#63b8ff" points="503.43,-473.97 511.09,-466.64 500.54,-467.59 503.43,-473.97"/>
</a>
</g>
</g>
<!-- Node14 -->
<g id="Node000014" class="node">
<title>Node14</title>
<g id="a_Node000014"><a xlink:href="class_common_d_b_t_m.html#ab84ea04b18accd017906c4277eccdcf5" target="_top" xlink:title=" ">
<polygon fill="white" stroke="#666666" points="654.25,-736.66 506.25,-736.66 506.25,-717.41 654.25,-717.41 654.25,-736.66"/>
<text text-anchor="middle" x="580.25" y="-723.16" font-family="Helvetica,sans-Serif" font-size="10.00">CommonDBTM\canPurgeItem</text>
</a>
</g>
</g>
<!-- Node5&#45;&gt;Node14 -->
<g id="edge16_Node000005_Node000014" class="edge">
<title>Node5&#45;&gt;Node14</title>
<g id="a_edge16_Node000005_Node000014"><a xlink:title=" ">
<path fill="none" stroke="#63b8ff" d="M400.03,-625.99C416.15,-645.27 454.51,-687.66 496.5,-709.03 499.55,-710.58 502.72,-712 505.98,-713.29"/>
<polygon fill="#63b8ff" stroke="#63b8ff" points="504.57,-716.51 515.17,-716.53 506.9,-709.91 504.57,-716.51"/>
</a>
</g>
</g>
<!-- Node15 -->
<g id="Node000015" class="node">
<title>Node15</title>
<g id="a_Node000015"><a xlink:href="class_common_d_b_t_m.html#a8875d28d49c7b3a5fe040e3dc894c935" target="_top" xlink:title=" ">
<polygon fill="white" stroke="#666666" points="657.25,-539.66 503.25,-539.66 503.25,-520.41 657.25,-520.41 657.25,-539.66"/>
<text text-anchor="middle" x="580.25" y="-526.16" font-family="Helvetica,sans-Serif" font-size="10.00">CommonDBTM\canUpdateItem</text>
</a>
</g>
</g>
<!-- Node5&#45;&gt;Node15 -->
<g id="edge18_Node000005_Node000015" class="edge">
<title>Node5&#45;&gt;Node15</title>
<g id="a_edge18_Node000005_Node000015"><a xlink:title=" ">
<path fill="none" stroke="#63b8ff" d="M404.39,-606.04C423.19,-591.38 460.54,-564.15 496.5,-549.03 501.63,-546.87 507.05,-544.94 512.57,-543.21"/>
<polygon fill="#63b8ff" stroke="#63b8ff" points="513.14,-546.69 521.77,-540.55 511.19,-539.96 513.14,-546.69"/>
</a>
</g>
</g>
<!-- Node16 -->
<g id="Node000016" class="node">
<title>Node16</title>
<g id="a_Node000016"><a xlink:href="class_common_d_b_t_m.html#ac73fbb33d08471d618cd753ea8a73b75" target="_top" xlink:title=" ">
<polygon fill="white" stroke="#666666" points="652.38,-502.66 508.12,-502.66 508.12,-483.41 652.38,-483.41 652.38,-502.66"/>
<text text-anchor="middle" x="580.25" y="-489.16" font-family="Helvetica,sans-Serif" font-size="10.00">CommonDBTM\canViewItem</text>
</a>
</g>
</g>
<!-- Node5&#45;&gt;Node16 -->
<g id="edge20_Node000005_Node000016" class="edge">
<title>Node5&#45;&gt;Node16</title>
<g id="a_edge20_Node000005_Node000016"><a xlink:title=" ">
<path fill="none" stroke="#63b8ff" d="M398.78,-606.07C413.75,-584.93 451.84,-535.49 496.5,-511.03 499.04,-509.64 501.68,-508.36 504.38,-507.17"/>
<polygon fill="#63b8ff" stroke="#63b8ff" points="505.59,-510.46 513.68,-503.62 503.09,-503.92 505.59,-510.46"/>
</a>
</g>
</g>
<!-- Node17 -->
<g id="Node000017" class="node">
<title>Node17</title>
<g id="a_Node000017"><a xlink:href="class_toolbox.html#af83f6c7e4bbe78a18b1c04a70d143cd7" target="_top" xlink:title=" ">
<polygon fill="white" stroke="#666666" points="633.25,-699.66 527.25,-699.66 527.25,-680.41 633.25,-680.41 633.25,-699.66"/>
<text text-anchor="middle" x="580.25" y="-686.16" font-family="Helvetica,sans-Serif" font-size="10.00">Toolbox\cleanInteger</text>
</a>
</g>
</g>
<!-- Node5&#45;&gt;Node17 -->
<g id="edge22_Node000005_Node000017" class="edge">
<title>Node5&#45;&gt;Node17</title>
<g id="a_edge22_Node000005_Node000017"><a xlink:title=" ">
<path fill="none" stroke="#63b8ff" d="M407.29,-625.99C427.11,-638.47 463.09,-659.72 496.5,-672.03 502.69,-674.31 509.24,-676.34 515.85,-678.15"/>
<polygon fill="#63b8ff" stroke="#63b8ff" points="514.95,-681.53 525.5,-680.6 516.67,-674.74 514.95,-681.53"/>
</a>
</g>
</g>
<!-- Node18 -->
<g id="Node000018" class="node">
<title>Node18</title>
<g id="a_Node000018"><a xlink:href="class_common_d_b_t_m.html#a7cb79784c4f52138c643c5e3d276e3aa" target="_top" xlink:title=" ">
<polygon fill="white" stroke="#666666" points="643,-662.66 517.5,-662.66 517.5,-643.41 643,-643.41 643,-662.66"/>
<text text-anchor="middle" x="580.25" y="-649.16" font-family="Helvetica,sans-Serif" font-size="10.00">CommonDBTM\isNewID</text>
</a>
</g>
</g>
<!-- Node5&#45;&gt;Node18 -->
<g id="edge25_Node000005_Node000018" class="edge">
<title>Node5&#45;&gt;Node18</title>
<g id="a_edge25_Node000005_Node000018"><a xlink:title=" ">
<path fill="none" stroke="#63b8ff" d="M442.67,-626.04C465.58,-630.57 492.87,-635.96 517.01,-640.73"/>
<polygon fill="#63b8ff" stroke="#63b8ff" points="516.24,-644.15 526.73,-642.65 517.6,-637.28 516.24,-644.15"/>
</a>
</g>
</g>
<!-- Node19 -->
<g id="Node000019" class="node">
<title>Node19</title>
<g id="a_Node000019"><a xlink:href="class_common_d_b_t_m.html#a55426c7f8596f9fc117210bf5311d4b9" target="_top" xlink:title=" ">
<polygon fill="white" stroke="#666666" points="643,-773.66 517.5,-773.66 517.5,-754.41 643,-754.41 643,-773.66"/>
<text text-anchor="middle" x="580.25" y="-760.16" font-family="Helvetica,sans-Serif" font-size="10.00">CommonDBTM\isPrivate</text>
</a>
</g>
</g>
<!-- Node5&#45;&gt;Node19 -->
<g id="edge26_Node000005_Node000019" class="edge">
<title>Node5&#45;&gt;Node19</title>
<g id="a_edge26_Node000005_Node000019"><a xlink:title=" ">
<path fill="none" stroke="#63b8ff" d="M396.96,-626.1C409.73,-650.86 446.26,-714.96 496.5,-746.03 499.79,-748.07 503.27,-749.87 506.88,-751.47"/>
<polygon fill="#63b8ff" stroke="#63b8ff" points="505.31,-754.62 515.9,-754.94 507.82,-748.08 505.31,-754.62"/>
</a>
</g>
</g>
<!-- Node8 -->
<g id="Node000008" class="node">
<title>Node8</title>
<g id="a_Node000008"><a xlink:href="class_common_d_b_t_m.html#a4994fe60f4f6b6328091e914c2b681ac" target="_top" xlink:title=" ">
<polygon fill="white" stroke="#666666" points="864.12,-563.66 725.12,-563.66 725.12,-544.41 864.12,-544.41 864.12,-563.66"/>
<text text-anchor="middle" x="794.62" y="-550.16" font-family="Helvetica,sans-Serif" font-size="10.00">CommonDBTM\checkEntity</text>
</a>
</g>
</g>
<!-- Node7&#45;&gt;Node8 -->
<g id="edge7_Node000007_Node000008" class="edge">
<title>Node7&#45;&gt;Node8</title>
<g id="a_edge7_Node000007_Node000008"><a xlink:title=" ">
<path fill="none" stroke="#63b8ff" d="M628.71,-605.95C640.31,-603.26 652.64,-600.21 664,-597.03 694.93,-588.37 729.42,-576.84 755.04,-567.9"/>
<polygon fill="#63b8ff" stroke="#63b8ff" points="756.09,-571.24 764.37,-564.62 753.77,-564.63 756.09,-571.24"/>
</a>
</g>
</g>
<!-- Node8&#45;&gt;Node9 -->
<g id="edge8_Node000008_Node000009" class="edge">
<title>Node8&#45;&gt;Node9</title>
<g id="a_edge8_Node000008_Node000009"><a xlink:title=" ">
<path fill="none" stroke="#63b8ff" d="M803.23,-564.06C822.36,-589.02 874.6,-655.4 925.25,-704.03 947.01,-724.92 974.31,-746.08 993.46,-760.21"/>
<polygon fill="#63b8ff" stroke="#63b8ff" points="991.29,-762.96 1001.43,-766.02 995.41,-757.3 991.29,-762.96"/>
</a>
</g>
</g>
<!-- Node8&#45;&gt;Node10 -->
<g id="edge10_Node000008_Node000010" class="edge">
<title>Node8&#45;&gt;Node10</title>
<g id="a_edge10_Node000008_Node000010"><a xlink:title=" ">
<path fill="none" stroke="#63b8ff" d="M814.96,-564.05C883.38,-599.49 1114.37,-719.14 1196.68,-761.78"/>
<polygon fill="#63b8ff" stroke="#63b8ff" points="1195.01,-764.86 1205.5,-766.35 1198.23,-758.64 1195.01,-764.86"/>
</a>
</g>
</g>
<!-- Node11 -->
<g id="Node000011" class="node">
<title>Node11</title>
<g id="a_Node000011"><a xlink:href="class_common_d_b_t_m.html#aaa472e233121aa79f3c5c1298b4bc7cb" target="_top" xlink:title=" ">
<polygon fill="white" stroke="#666666" points="1087.5,-563.66 948.5,-563.66 948.5,-544.41 1087.5,-544.41 1087.5,-563.66"/>
<text text-anchor="middle" x="1018" y="-550.16" font-family="Helvetica,sans-Serif" font-size="10.00">CommonDBTM\isRecursive</text>
</a>
</g>
</g>
<!-- Node8&#45;&gt;Node11 -->
<g id="edge11_Node000008_Node000011" class="edge">
<title>Node8&#45;&gt;Node11</title>
<g id="a_edge11_Node000008_Node000011"><a xlink:title=" ">
<path fill="none" stroke="#63b8ff" d="M864.46,-554.03C887.36,-554.03 913.07,-554.03 936.76,-554.03"/>
<polygon fill="#63b8ff" stroke="#63b8ff" points="936.7,-557.53 946.7,-554.03 936.7,-550.53 936.7,-557.53"/>
</a>
</g>
</g>
<!-- Node8&#45;&gt;Node12 -->
<g id="edge13_Node000008_Node000012" class="edge">
<title>Node8&#45;&gt;Node12</title>
<g id="a_edge13_Node000008_Node000012"><a xlink:title=" ">
<path fill="none" stroke="#63b8ff" d="M857.14,-543.95C878.64,-540.71 902.97,-537.36 925.25,-535.03 995.55,-527.67 1075.41,-522.79 1135.18,-519.82"/>
<polygon fill="#63b8ff" stroke="#63b8ff" points="1135.14,-523.33 1144.96,-519.34 1134.8,-516.33 1135.14,-523.33"/>
</a>
</g>
</g>
<!-- Node9&#45;&gt;Node10 -->
<g id="edge9_Node000009_Node000010" class="edge">
<title>Node9&#45;&gt;Node10</title>
<g id="a_edge9_Node000009_Node000010"><a xlink:title=" ">
<path fill="none" stroke="#63b8ff" d="M1086.82,-777.03C1103.94,-777.03 1122.53,-777.03 1140.4,-777.03"/>
<polygon fill="#63b8ff" stroke="#63b8ff" points="1140.2,-780.53 1150.2,-777.03 1140.2,-773.53 1140.2,-780.53"/>
</a>
</g>
</g>
<!-- Node11&#45;&gt;Node12 -->
<g id="edge12_Node000011_Node000012" class="edge">
<title>Node11&#45;&gt;Node12</title>
<g id="a_edge12_Node000011_Node000012"><a xlink:title=" ">
<path fill="none" stroke="#63b8ff" d="M1073.96,-543.95C1100.4,-539.1 1132.31,-533.24 1160.06,-528.15"/>
<polygon fill="#63b8ff" stroke="#63b8ff" points="1160.57,-531.62 1169.78,-526.37 1159.31,-524.73 1160.57,-531.62"/>
</a>
</g>
</g>
<!-- Node13&#45;&gt;Node8 -->
<g id="edge15_Node000013_Node000008" class="edge">
<title>Node13&#45;&gt;Node8</title>
<g id="a_edge15_Node000013_Node000008"><a xlink:title=" ">
<path fill="none" stroke="#63b8ff" d="M639.43,-466.07C647.82,-468.26 656.23,-470.9 664,-474.03 704.52,-490.38 746.74,-518.96 771.58,-537.16"/>
<polygon fill="#63b8ff" stroke="#63b8ff" points="769.48,-539.96 779.59,-543.13 773.66,-534.35 769.48,-539.96"/>
</a>
</g>
</g>
<!-- Node14&#45;&gt;Node8 -->
<g id="edge17_Node000014_Node000008" class="edge">
<title>Node14&#45;&gt;Node8</title>
<g id="a_edge17_Node000014_Node000008"><a xlink:title=" ">
<path fill="none" stroke="#63b8ff" d="M646.97,-717.03C652.94,-714.86 658.72,-712.23 664,-709.03 720.35,-674.93 763.78,-607.46 782.92,-573.92"/>
<polygon fill="#63b8ff" stroke="#63b8ff" points="785.93,-575.71 787.73,-565.27 779.81,-572.31 785.93,-575.71"/>
</a>
</g>
</g>
<!-- Node15&#45;&gt;Node8 -->
<g id="edge19_Node000015_Node000008" class="edge">
<title>Node15&#45;&gt;Node8</title>
<g id="a_edge19_Node000015_Node000008"><a xlink:title=" ">
<path fill="none" stroke="#63b8ff" d="M657.62,-538.66C675.74,-540.71 695.12,-542.9 713.41,-544.97"/>
<polygon fill="#63b8ff" stroke="#63b8ff" points="712.8,-548.42 723.13,-546.06 713.58,-541.46 712.8,-548.42"/>
</a>
</g>
</g>
<!-- Node16&#45;&gt;Node8 -->
<g id="edge21_Node000016_Node000008" class="edge">
<title>Node16&#45;&gt;Node8</title>
<g id="a_edge21_Node000016_Node000008"><a xlink:title=" ">
<path fill="none" stroke="#63b8ff" d="M631.78,-503.13C642.47,-505.52 653.65,-508.2 664,-511.03 695.08,-519.54 729.69,-531.13 755.32,-540.14"/>
<polygon fill="#63b8ff" stroke="#63b8ff" points="754.05,-543.4 764.64,-543.44 756.39,-536.8 754.05,-543.4"/>
</a>
</g>
</g>
<!-- Node20 -->
<g id="Node000020" class="node">
<title>Node20</title>
<g id="a_Node000020"><a xlink:href="class_common_d_b_t_m.html#a81f675f92c7e501b57eaafe44ceb0e9f" target="_top" xlink:title=" ">
<polygon fill="white" stroke="#666666" points="868.25,-773.66 721,-773.66 721,-754.41 868.25,-754.41 868.25,-773.66"/>
<text text-anchor="middle" x="794.62" y="-760.16" font-family="Helvetica,sans-Serif" font-size="10.00">CommonDBTM\maybePrivate</text>
</a>
</g>
</g>
<!-- Node19&#45;&gt;Node20 -->
<g id="edge27_Node000019_Node000020" class="edge">
<title>Node19&#45;&gt;Node20</title>
<g id="a_edge27_Node000019_Node000020"><a xlink:title=" ">
<path fill="none" stroke="#63b8ff" d="M643.25,-764.03C663.89,-764.03 687.25,-764.03 709.29,-764.03"/>
<polygon fill="#63b8ff" stroke="#63b8ff" points="709.16,-767.53 719.16,-764.03 709.16,-760.53 709.16,-767.53"/>
</a>
</g>
</g>
<!-- Node21&#45;&gt;Node3 -->
<g id="edge31_Node000021_Node000003" class="edge">
<title>Node21&#45;&gt;Node3</title>
<g id="a_edge31_Node000021_Node000003"><a xlink:title=" ">
<path fill="none" stroke="#63b8ff" d="M441.69,-146.12C465.27,-150.9 493.66,-156.66 518.52,-161.71"/>
<polygon fill="#63b8ff" stroke="#63b8ff" points="517.68,-165.11 528.17,-163.67 519.07,-158.25 517.68,-165.11"/>
</a>
</g>
</g>
<!-- Node22 -->
<g id="Node000022" class="node">
<title>Node22</title>
<g id="a_Node000022"><a xlink:href="class_common_g_l_p_i.html#a3080299ae6729719ef5e8c7e98015069" target="_top" xlink:title=" ">
<polygon fill="white" stroke="#666666" points="664,-145.66 496.5,-145.66 496.5,-126.41 664,-126.41 664,-145.66"/>
<text text-anchor="middle" x="580.25" y="-132.16" font-family="Helvetica,sans-Serif" font-size="10.00">CommonGLPI\getFormURLWithID</text>
</a>
</g>
</g>
<!-- Node21&#45;&gt;Node22 -->
<g id="edge30_Node000021_Node000022" class="edge">
<title>Node21&#45;&gt;Node22</title>
<g id="a_edge30_Node000021_Node000022"><a xlink:title=" ">
<path fill="none" stroke="#63b8ff" d="M460.93,-136.03C468.72,-136.03 476.77,-136.03 484.82,-136.03"/>
<polygon fill="#63b8ff" stroke="#63b8ff" points="484.67,-139.53 494.67,-136.03 484.67,-132.53 484.67,-139.53"/>
</a>
</g>
</g>
<!-- Node23 -->
<g id="Node000023" class="node">
<title>Node23</title>
<g id="a_Node000023"><a xlink:href="class_common_d_b_t_m.html#a965825ba500d5526200b008e4f5f3029" target="_top" xlink:title=" ">
<polygon fill="white" stroke="#666666" points="647.5,-82.66 513,-82.66 513,-63.41 647.5,-63.41 647.5,-82.66"/>
<text text-anchor="middle" x="580.25" y="-69.16" font-family="Helvetica,sans-Serif" font-size="10.00">CommonDBTM\isTemplate</text>
</a>
</g>
</g>
<!-- Node21&#45;&gt;Node23 -->
<g id="edge32_Node000021_Node000023" class="edge">
<title>Node21&#45;&gt;Node23</title>
<g id="a_edge32_Node000021_Node000023"><a xlink:title=" ">
<path fill="none" stroke="#63b8ff" d="M422.08,-125.91C453.62,-115.3 503.35,-98.57 538.41,-86.77"/>
<polygon fill="#63b8ff" stroke="#63b8ff" points="539.44,-90.12 547.81,-83.61 537.21,-83.48 539.44,-90.12"/>
</a>
</g>
</g>
<!-- Node24 -->
<g id="Node000024" class="node">
<title>Node24</title>
<g id="a_Node000024"><a xlink:href="class_common_d_b_t_m.html#ae1dc280784ae4f6c14ef04456be46a3c" target="_top" xlink:title=" ">
<polygon fill="white" stroke="#666666" points="872.75,-68.66 716.5,-68.66 716.5,-49.41 872.75,-49.41 872.75,-68.66"/>
<text text-anchor="middle" x="794.62" y="-55.16" font-family="Helvetica,sans-Serif" font-size="10.00">CommonDBTM\maybeTemplate</text>
</a>
</g>
</g>
<!-- Node23&#45;&gt;Node24 -->
<g id="edge33_Node000023_Node000024" class="edge">
<title>Node23&#45;&gt;Node24</title>
<g id="a_edge33_Node000023_Node000024"><a xlink:title=" ">
<path fill="none" stroke="#63b8ff" d="M647.86,-68.64C665.88,-67.45 685.67,-66.15 704.7,-64.89"/>
<polygon fill="#63b8ff" stroke="#63b8ff" points="704.85,-68.39 714.6,-64.24 704.39,-61.41 704.85,-68.39"/>
</a>
</g>
</g>
<!-- Node26 -->
<g id="Node000026" class="node">
<title>Node26</title>
<g id="a_Node000026"><a xlink:href="class_common_d_b_t_m.html#af3034ead082330d2c046a69814009808" target="_top" xlink:title=" ">
<polygon fill="white" stroke="#666666" points="869,-353.66 720.25,-353.66 720.25,-334.41 869,-334.41 869,-353.66"/>
<text text-anchor="middle" x="794.62" y="-340.16" font-family="Helvetica,sans-Serif" font-size="10.00">CommonDBTM\getComments</text>
</a>
</g>
</g>
<!-- Node25&#45;&gt;Node26 -->
<g id="edge35_Node000025_Node000026" class="edge">
<title>Node25&#45;&gt;Node26</title>
<g id="a_edge35_Node000025_Node000026"><a xlink:title=" ">
<path fill="none" stroke="#63b8ff" d="M598.99,-234.97C636,-255.71 721.67,-303.71 765.97,-328.54"/>
<polygon fill="#63b8ff" stroke="#63b8ff" points="764.03,-331.46 774.46,-333.3 767.45,-325.35 764.03,-331.46"/>
</a>
</g>
</g>
<!-- Node31 -->
<g id="Node000031" class="node">
<title>Node31</title>
<g id="a_Node000031"><a xlink:href="class_common_d_b_t_m.html#ae09f432e51653377556550a5a4d983b9" target="_top" xlink:title=" ">
<polygon fill="white" stroke="#666666" points="875.38,-105.66 713.88,-105.66 713.88,-86.41 875.38,-86.41 875.38,-105.66"/>
<text text-anchor="middle" x="794.62" y="-92.16" font-family="Helvetica,sans-Serif" font-size="10.00">CommonDBTM\getFriendlyName</text>
</a>
</g>
</g>
<!-- Node25&#45;&gt;Node31 -->
<g id="edge40_Node000025_Node000031" class="edge">
<title>Node25&#45;&gt;Node31</title>
<g id="a_edge40_Node000025_Node000031"><a xlink:title=" ">
<path fill="none" stroke="#63b8ff" d="M625.21,-215.05C638.92,-210.21 653.24,-203.18 664,-193.03 692.07,-166.56 669.67,-137.89 700,-114.03 701.17,-113.11 702.38,-112.23 703.61,-111.39"/>
<polygon fill="#63b8ff" stroke="#63b8ff" points="705.3,-114.46 712.27,-106.48 701.84,-108.37 705.3,-114.46"/>
</a>
</g>
</g>
<!-- Node33 -->
<g id="Node000033" class="node">
<title>Node33</title>
<g id="a_Node000033"><a xlink:href="class_common_d_b_t_m.html#aba4ebe60768c9021ba124a6daa421f2e" target="_top" xlink:title=" ">
<polygon fill="white" stroke="#666666" points="854.38,-277.66 734.88,-277.66 734.88,-258.41 854.38,-258.41 854.38,-277.66"/>
<text text-anchor="middle" x="794.62" y="-264.16" font-family="Helvetica,sans-Serif" font-size="10.00">CommonDBTM\getIcon</text>
</a>
</g>
</g>
<!-- Node25&#45;&gt;Node33 -->
<g id="edge42_Node000025_Node000033" class="edge">
<title>Node25&#45;&gt;Node33</title>
<g id="a_edge42_Node000025_Node000033"><a xlink:title=" ">
<path fill="none" stroke="#63b8ff" d="M631.04,-235.11C661.42,-241.26 700.47,-249.17 732.69,-255.69"/>
<polygon fill="#63b8ff" stroke="#63b8ff" points="731.8,-259.08 742.29,-257.64 733.19,-252.22 731.8,-259.08"/>
</a>
</g>
</g>
<!-- Node34 -->
<g id="Node000034" class="node">
<title>Node34</title>
<g id="a_Node000034"><a xlink:href="class_common_d_b_t_m.html#a3a83e3369f75c2412b7867100ddc6a41" target="_top" xlink:title=" ">
<polygon fill="white" stroke="#666666" points="876.5,-240.28 712.75,-240.28 712.75,-209.78 876.5,-209.78 876.5,-240.28"/>
<text text-anchor="start" x="720.75" y="-226.78" font-family="Helvetica,sans-Serif" font-size="10.00">CommonDBTM\getPostAdditional</text>
<text text-anchor="middle" x="794.62" y="-215.53" font-family="Helvetica,sans-Serif" font-size="10.00">InfosForName</text>
</a>
</g>
</g>
<!-- Node25&#45;&gt;Node34 -->
<g id="edge43_Node000025_Node000034" class="edge">
<title>Node25&#45;&gt;Node34</title>
<g id="a_edge43_Node000025_Node000034"><a xlink:title=" ">
<path fill="none" stroke="#63b8ff" d="M644.11,-225.03C662,-225.03 681.87,-225.03 701.14,-225.03"/>
<polygon fill="#63b8ff" stroke="#63b8ff" points="700.88,-228.53 710.88,-225.03 700.88,-221.53 700.88,-228.53"/>
</a>
</g>
</g>
<!-- Node35 -->
<g id="Node000035" class="node">
<title>Node35</title>
<g id="a_Node000035"><a xlink:href="class_common_d_b_t_m.html#aecef31a74cab59de3547a416a00db9c6" target="_top" xlink:title=" ">
<polygon fill="white" stroke="#666666" points="873.88,-191.28 715.38,-191.28 715.38,-160.78 873.88,-160.78 873.88,-191.28"/>
<text text-anchor="start" x="723.38" y="-177.78" font-family="Helvetica,sans-Serif" font-size="10.00">CommonDBTM\getPreAdditional</text>
<text text-anchor="middle" x="794.62" y="-166.53" font-family="Helvetica,sans-Serif" font-size="10.00">InfosForName</text>
</a>
</g>
</g>
<!-- Node25&#45;&gt;Node35 -->
<g id="edge44_Node000025_Node000035" class="edge">
<title>Node25&#45;&gt;Node35</title>
<g id="a_edge44_Node000025_Node000035"><a xlink:title=" ">
<path fill="none" stroke="#63b8ff" d="M625,-214.94C650.84,-208.97 684.34,-201.25 714.67,-194.25"/>
<polygon fill="#63b8ff" stroke="#63b8ff" points="715.25,-197.71 724.2,-192.05 713.67,-190.89 715.25,-197.71"/>
</a>
</g>
</g>
<!-- Node36 -->
<g id="Node000036" class="node">
<title>Node36</title>
<g id="a_Node000036"><a xlink:href="class_common_d_b_t_m.html#ae283ea6cf6cd8f78ed85ded55f55c24f" target="_top" xlink:title=" ">
<polygon fill="white" stroke="#666666" points="889.25,-142.66 700,-142.66 700,-123.41 889.25,-123.41 889.25,-142.66"/>
<text text-anchor="middle" x="794.62" y="-129.16" font-family="Helvetica,sans-Serif" font-size="10.00">CommonDBTM\getRawCompleteName</text>
</a>
</g>
</g>
<!-- Node25&#45;&gt;Node36 -->
<g id="edge45_Node000025_Node000036" class="edge">
<title>Node25&#45;&gt;Node36</title>
<g id="a_edge45_Node000025_Node000036"><a xlink:title=" ">
<path fill="none" stroke="#63b8ff" d="M618.15,-215C633.19,-209.87 650.23,-202.64 664,-193.03 683.88,-179.15 679.02,-164.19 700,-152.03 703.16,-150.2 706.46,-148.55 709.87,-147.05"/>
<polygon fill="#63b8ff" stroke="#63b8ff" points="710.85,-150.42 718.92,-143.56 708.34,-143.89 710.85,-150.42"/>
</a>
</g>
</g>
<!-- Node27 -->
<g id="Node000027" class="node">
<title>Node27</title>
<g id="a_Node000027"><a xlink:href="class_common_d_b_t_m.html#ab51a31d365e0a095368688951e663e0d" target="_top" xlink:title=" ">
<polygon fill="white" stroke="#666666" points="1078.88,-315.66 957.12,-315.66 957.12,-296.41 1078.88,-296.41 1078.88,-315.66"/>
<text text-anchor="middle" x="1018" y="-302.16" font-family="Helvetica,sans-Serif" font-size="10.00">CommonDBTM\getField</text>
</a>
</g>
</g>
<!-- Node26&#45;&gt;Node27 -->
<g id="edge36_Node000026_Node000027" class="edge">
<title>Node26&#45;&gt;Node27</title>
<g id="a_edge36_Node000026_Node000027"><a xlink:title=" ">
<path fill="none" stroke="#63b8ff" d="M854.37,-333.95C882.88,-329.05 917.33,-323.14 947.18,-318.02"/>
<polygon fill="#63b8ff" stroke="#63b8ff" points="947.61,-321.49 956.87,-316.35 946.43,-314.59 947.61,-321.49"/>
</a>
</g>
</g>
<!-- Node26&#45;&gt;Node28 -->
<g id="edge37_Node000026_Node000028" class="edge">
<title>Node26&#45;&gt;Node28</title>
<g id="a_edge37_Node000026_Node000028"><a xlink:title=" ">
<path fill="none" stroke="#63b8ff" d="M812.68,-333.96C831.56,-322.75 862.81,-303.97 889.25,-287.03 926.02,-263.48 967.87,-234.98 993.35,-217.42"/>
<polygon fill="#63b8ff" stroke="#63b8ff" points="995.1,-220.47 1001.34,-211.91 991.12,-214.71 995.1,-220.47"/>
</a>
</g>
</g>
<!-- Node29 -->
<g id="Node000029" class="node">
<title>Node29</title>
<g id="a_Node000029"><a xlink:href="db_8function_8php.html#a23abce123a06acd83e5f5708bdcf969c" target="_top" xlink:title=" ">
<polygon fill="white" stroke="#666666" points="1056.38,-352.66 979.62,-352.66 979.62,-333.41 1056.38,-333.41 1056.38,-352.66"/>
<text text-anchor="middle" x="1018" y="-339.16" font-family="Helvetica,sans-Serif" font-size="10.00">getUserName</text>
</a>
</g>
</g>
<!-- Node26&#45;&gt;Node29 -->
<g id="edge38_Node000026_Node000029" class="edge">
<title>Node26&#45;&gt;Node29</title>
<g id="a_edge38_Node000026_Node000029"><a xlink:title=" ">
<path fill="none" stroke="#63b8ff" d="M869.34,-343.7C901.73,-343.55 938.89,-343.38 967.83,-343.25"/>
<polygon fill="#63b8ff" stroke="#63b8ff" points="967.79,-346.75 977.78,-343.21 967.76,-339.75 967.79,-346.75"/>
</a>
</g>
</g>
<!-- Node30 -->
<g id="Node000030" class="node">
<title>Node30</title>
<g id="a_Node000030"><a xlink:href="class_common_d_b_t_m.html#a930b065732a1259f926c0cb52161739c" target="_top" xlink:title=" ">
<polygon fill="white" stroke="#666666" points="1075.88,-389.66 960.12,-389.66 960.12,-370.41 1075.88,-370.41 1075.88,-389.66"/>
<text text-anchor="middle" x="1018" y="-376.16" font-family="Helvetica,sans-Serif" font-size="10.00">CommonDBTM\isField</text>
</a>
</g>
</g>
<!-- Node26&#45;&gt;Node30 -->
<g id="edge39_Node000026_Node000030" class="edge">
<title>Node26&#45;&gt;Node30</title>
<g id="a_edge39_Node000026_Node000030"><a xlink:title=" ">
<path fill="none" stroke="#63b8ff" d="M857.88,-354.16C886.1,-358.75 919.56,-364.19 948.5,-368.89"/>
<polygon fill="#63b8ff" stroke="#63b8ff" points="947.83,-372.33 958.26,-370.48 948.96,-365.42 947.83,-372.33"/>
</a>
</g>
</g>
<!-- Node32 -->
<g id="Node000032" class="node">
<title>Node32</title>
<g id="a_Node000032"><a xlink:href="class_common_d_b_t_m.html#a29827f6c6205287c29e2f620559a5b25" target="_top" xlink:title=" ">
<polygon fill="white" stroke="#666666" points="1110.75,-105.66 925.25,-105.66 925.25,-86.41 1110.75,-86.41 1110.75,-105.66"/>
<text text-anchor="middle" x="1018" y="-92.16" font-family="Helvetica,sans-Serif" font-size="10.00">CommonDBTM\computeFriendlyName</text>
</a>
</g>
</g>
<!-- Node31&#45;&gt;Node32 -->
<g id="edge41_Node000031_Node000032" class="edge">
<title>Node31&#45;&gt;Node32</title>
<g id="a_edge41_Node000031_Node000032"><a xlink:title=" ">
<path fill="none" stroke="#63b8ff" d="M875.86,-96.03C888.21,-96.03 901.1,-96.03 913.86,-96.03"/>
<polygon fill="#63b8ff" stroke="#63b8ff" points="913.51,-99.53 923.51,-96.03 913.51,-92.53 913.51,-99.53"/>
</a>
</g>
</g>
<!-- Node37&#45;&gt;Node25 -->
<g id="edge49_Node000037_Node000025" class="edge">
<title>Node37&#45;&gt;Node25</title>
<g id="a_edge49_Node000037_Node000025"><a xlink:title=" ">
<path fill="none" stroke="#63b8ff" d="M418.04,-287.02C450.37,-274.59 505.72,-253.31 542.4,-239.2"/>
<polygon fill="#63b8ff" stroke="#63b8ff" points="543.64,-242.47 551.72,-235.62 541.13,-235.94 543.64,-242.47"/>
</a>
</g>
</g>
<!-- Node37&#45;&gt;Node26 -->
<g id="edge47_Node000037_Node000026" class="edge">
<title>Node37&#45;&gt;Node26</title>
<g id="a_edge47_Node000037_Node000026"><a xlink:title=" ">
<path fill="none" stroke="#63b8ff" d="M431.46,-307.05C450.93,-311.65 474.82,-316.79 496.5,-320.03 567.66,-330.69 649.17,-336.85 708.8,-340.25"/>
<polygon fill="#63b8ff" stroke="#63b8ff" points="708.35,-343.73 718.53,-340.79 708.74,-336.74 708.35,-343.73"/>
</a>
</g>
</g>
<!-- Node37&#45;&gt;Node27 -->
<g id="edge48_Node000037_Node000027" class="edge">
<title>Node37&#45;&gt;Node27</title>
<g id="a_edge48_Node000037_Node000027"><a xlink:title=" ">
<path fill="none" stroke="#63b8ff" d="M460.08,-298.01C579.15,-299.73 824.09,-303.25 945.52,-305"/>
<polygon fill="#63b8ff" stroke="#63b8ff" points="945.31,-308.5 955.36,-305.14 945.41,-301.5 945.31,-308.5"/>
</a>
</g>
</g>
</g>
</svg>

<g id="navigator" transform="translate(0 0)" fill="#404254">
  <rect fill="#f2f5e9" fill-opacity="0.5" stroke="#606060" stroke-width=".5" x="0" y="0" width="60" height="60"/>
  <use id="zoomplus" xlink:href="#zoomPlus" x="17" y="9" onmousedown="handleZoom(evt,'in')"/>
  <use id="zoomminus" xlink:href="#zoomMin" x="42" y="9" onmousedown="handleZoom(evt,'out')"/>
  <use id="reset" xlink:href="#resetDef" x="30" y="36" onmousedown="handleReset()"/>
   <use id="arrowup" xlink:href="#arrowUp" x="0" y="0" onmousedown="handlePan(0,-1)"/>
  <use id="arrowright" xlink:href="#arrowRight" x="0" y="0" onmousedown="handlePan(1,0)"/>
  <use id="arrowdown" xlink:href="#arrowDown" x="0" y="0" onmousedown="handlePan(0,1)"/>
  <use id="arrowleft" xlink:href="#arrowLeft" x="0" y="0" onmousedown="handlePan(-1,0)"/>
</g>
<svg viewBox="0 0 15 15" width="100%" height="30px" preserveAspectRatio="xMaxYMin meet">
 <g id="arrow_out" transform="scale(0.3 0.3)">
  <a xlink:href="class_common_device_a059cbcefba05e4e3fa9bf1f9c8136578_cgraph_org.svg" target="_base">
   <rect id="button" ry="5" rx="5" y="6" x="6" height="38" width="38"
        fill="#f2f5e9" fill-opacity="0.5" stroke="#606060" stroke-width="1.0"/>
   <path id="arrow"
     d="M 11.500037,31.436501 C 11.940474,20.09759 22.043105,11.32322 32.158766,21.979434 L 37.068811,17.246167 C 37.068811,17.246167 37.088388,32 37.088388,32 L 22.160133,31.978069 C 22.160133,31.978069 26.997745,27.140456 26.997745,27.140456 C 18.528582,18.264221 13.291696,25.230495 11.500037,31.436501 z"
     style="fill:#404040;"/>
  </a>
 </g>
</svg>

<style type='text/css'>
<![CDATA[
[data-mouse-over-selected='false'] { opacity: 0.7; }
[data-mouse-over-selected='true']  { opacity: 1.0; }
]]>
</style>
<script type="application/ecmascript"><![CDATA[
document.addEventListener('DOMContentLoaded', (event) => {
  highlightEdges();
  highlightAdjacentNodes();
});
]]></script>
</svg>
