<?xml version="1.0" encoding="UTF-8" standalone="no"?>
<!DOCTYPE svg PUBLIC "-//W3C//DTD SVG 1.1//EN"
 "http://www.w3.org/Graphics/SVG/1.1/DTD/svg11.dtd">
<!-- Generated by graphviz version 10.0.1 (20240210.2158)
 -->
<!-- Title: showForm Pages: 1 -->
<svg width="308pt" height="138pt"
 viewBox="0.00 0.00 308.05 138.25" xmlns="http://www.w3.org/2000/svg" xmlns:xlink="http://www.w3.org/1999/xlink">

<svg id="main" version="1.1" xmlns="http://www.w3.org/2000/svg" xmlns:xlink="http://www.w3.org/1999/xlink" xml:space="preserve" onload="init(evt)">
<style type="text/css"><![CDATA[
.node, .edge {opacity: 0.7;}
.node.selected, .edge.selected {opacity: 1;}
.edge:hover path { stroke: red; }
.edge:hover polygon { stroke: red; fill: red; }
]]></style>
<script type="application/ecmascript" xlink:href="svg.min.js"/>
<svg id="graph" class="graph">
<g id="graph0" class="graph" transform="scale(1 1) rotate(0) translate(4 134.25)">
<title>showForm</title>
<!-- Node1 -->
<g id="Node000001" class="node">
<title>Node1</title>
<g id="a_Node000001"><a xlink:title=" ">
<polygon fill="#999999" stroke="#666666" points="61.75,-74.25 0,-74.25 0,-55 61.75,-55 61.75,-74.25"/>
<text text-anchor="middle" x="30.88" y="-60.75" font-family="Helvetica,sans-Serif" font-size="10.00">showForm</text>
</a>
</g>
</g>
<!-- Node2 -->
<g id="Node000002" class="node">
<title>Node2</title>
<g id="a_Node000002"><a xlink:href="autoload_8function_8php.html#a00370b448958fc4d545e649de32d26fa" target="_top" xlink:title=" ">
<polygon fill="white" stroke="#666666" points="182.38,-130.25 150.62,-130.25 150.62,-111 182.38,-111 182.38,-130.25"/>
<text text-anchor="middle" x="166.5" y="-116.75" font-family="Helvetica,sans-Serif" font-size="10.00">__s</text>
</a>
</g>
</g>
<!-- Node1&#45;&gt;Node2 -->
<g id="edge1_Node000001_Node000002" class="edge">
<title>Node1&#45;&gt;Node2</title>
<g id="a_edge1_Node000001_Node000002"><a xlink:title=" ">
<path fill="none" stroke="#63b8ff" d="M46.73,-74.72C59.71,-83.16 79.32,-95.02 97.75,-102.62 111.1,-108.14 126.63,-112.4 139.45,-115.4"/>
<polygon fill="#63b8ff" stroke="#63b8ff" points="138.33,-118.74 148.85,-117.47 139.83,-111.9 138.33,-118.74"/>
</a>
</g>
</g>
<!-- Node3 -->
<g id="Node000003" class="node">
<title>Node3</title>
<g id="a_Node000003"><a xlink:href="autoload_8function_8php.html#affc4787304a41a695a489fc24d60877d" target="_top" xlink:title=" ">
<polygon fill="white" stroke="#666666" points="182.38,-93.25 150.62,-93.25 150.62,-74 182.38,-74 182.38,-93.25"/>
<text text-anchor="middle" x="166.5" y="-79.75" font-family="Helvetica,sans-Serif" font-size="10.00">_sx</text>
</a>
</g>
</g>
<!-- Node1&#45;&gt;Node3 -->
<g id="edge2_Node000001_Node000003" class="edge">
<title>Node1&#45;&gt;Node3</title>
<g id="a_edge2_Node000001_Node000003"><a xlink:title=" ">
<path fill="none" stroke="#63b8ff" d="M62.2,-68.94C85.33,-72.23 116.87,-76.71 139,-79.86"/>
<polygon fill="#63b8ff" stroke="#63b8ff" points="138.32,-83.29 148.71,-81.24 139.3,-76.36 138.32,-83.29"/>
</a>
</g>
</g>
<!-- Node5 -->
<g id="Node000005" class="node">
<title>Node5</title>
<g id="a_Node000005"><a xlink:href="class_common_g_l_p_i.html#af6dc8cb908bd14b99d0e90e9fcbeab0d" target="_top" xlink:title=" ">
<polygon fill="white" stroke="#666666" points="235.25,-56.25 97.75,-56.25 97.75,-37 235.25,-37 235.25,-56.25"/>
<text text-anchor="middle" x="166.5" y="-42.75" font-family="Helvetica,sans-Serif" font-size="10.00">CommonGLPI\getFormURL</text>
</a>
</g>
</g>
<!-- Node1&#45;&gt;Node5 -->
<g id="edge4_Node000001_Node000005" class="edge">
<title>Node1&#45;&gt;Node5</title>
<g id="a_edge4_Node000001_Node000005"><a xlink:title=" ">
<path fill="none" stroke="#63b8ff" d="M62.2,-60.54C69.53,-59.55 77.71,-58.45 86.17,-57.31"/>
<polygon fill="#63b8ff" stroke="#63b8ff" points="86.46,-60.8 95.9,-56 85.53,-53.87 86.46,-60.8"/>
</a>
</g>
</g>
<!-- Node6 -->
<g id="Node000006" class="node">
<title>Node6</title>
<g id="a_Node000006"><a xlink:href="db_8function_8php.html#a5bb7668a0ab5705035e0608178fabcba" target="_top" xlink:title=" ">
<polygon fill="white" stroke="#666666" points="217.25,-19.25 115.75,-19.25 115.75,0 217.25,0 217.25,-19.25"/>
<text text-anchor="middle" x="166.5" y="-5.75" font-family="Helvetica,sans-Serif" font-size="10.00">getItemForItemtype</text>
</a>
</g>
</g>
<!-- Node1&#45;&gt;Node6 -->
<g id="edge5_Node000001_Node000006" class="edge">
<title>Node1&#45;&gt;Node6</title>
<g id="a_edge5_Node000001_Node000006"><a xlink:title=" ">
<path fill="none" stroke="#63b8ff" d="M47.03,-54.66C60.04,-46.46 79.52,-35.03 97.75,-27.62 101.82,-25.97 106.09,-24.43 110.42,-22.99"/>
<polygon fill="#63b8ff" stroke="#63b8ff" points="111.27,-26.4 119.79,-20.1 109.2,-19.71 111.27,-26.4"/>
</a>
</g>
</g>
<!-- Node4 -->
<g id="Node000004" class="node">
<title>Node4</title>
<g id="a_Node000004"><a xlink:href="autoload_8function_8php.html#a2111ba1b23d22b49aee91462961bda8a" target="_top" xlink:title=" ">
<polygon fill="white" stroke="#666666" points="300.05,-93.25 271.25,-93.25 271.25,-74 300.05,-74 300.05,-93.25"/>
<text text-anchor="middle" x="285.65" y="-79.75" font-family="Helvetica,sans-Serif" font-size="10.00">_x</text>
</a>
</g>
</g>
<!-- Node3&#45;&gt;Node4 -->
<g id="edge3_Node000003_Node000004" class="edge">
<title>Node3&#45;&gt;Node4</title>
<g id="a_edge3_Node000003_Node000004"><a xlink:title=" ">
<path fill="none" stroke="#63b8ff" d="M182.82,-83.62C202.27,-83.62 236.1,-83.62 259.4,-83.62"/>
<polygon fill="#63b8ff" stroke="#63b8ff" points="259.28,-87.13 269.28,-83.63 259.28,-80.13 259.28,-87.13"/>
</a>
</g>
</g>
</g>
</svg>
</svg>

<style type='text/css'>
<![CDATA[
[data-mouse-over-selected='false'] { opacity: 0.7; }
[data-mouse-over-selected='true']  { opacity: 1.0; }
]]>
</style>
<script type="application/ecmascript"><![CDATA[
document.addEventListener('DOMContentLoaded', (event) => {
  highlightEdges();
  highlightAdjacentNodes();
});
]]></script>
</svg>
