<?xml version="1.0" encoding="UTF-8" standalone="no"?>
<!DOCTYPE svg PUBLIC "-//W3C//DTD SVG 1.1//EN"
 "http://www.w3.org/Graphics/SVG/1.1/DTD/svg11.dtd">
<!-- Generated by graphviz version 10.0.1 (20240210.2158)
 -->
<!-- Title: showFormHelpdesk Pages: 1 -->
<!--zoomable 314 -->

<svg id="main" version="1.1" xmlns="http://www.w3.org/2000/svg" xmlns:xlink="http://www.w3.org/1999/xlink" xml:space="preserve" onload="init(evt)">
<style type="text/css"><![CDATA[
.node, .edge {opacity: 0.7;}
.node.selected, .edge.selected {opacity: 1;}
.edge:hover path { stroke: red; }
.edge:hover polygon { stroke: red; fill: red; }
]]></style>

<defs>
  <circle id="rim" cx="0" cy="0" r="7"/>
  <circle id="rim2" cx="0" cy="0" r="3.5"/>
  <g id="zoomPlus">
    <use xlink:href="#rim" fill="#404040"><set attributeName="fill" to="#808080" begin="zoomplus.mouseover" end="zoomplus.mouseout"/></use>
    <path d="M-4,0h8M0,-4v8" fill="none" stroke="white" stroke-width="1.5" pointer-events="none"/>
  </g>
  <g id="zoomMin">
    <use xlink:href="#rim" fill="#404040"><set attributeName="fill" to="#808080" begin="zoomminus.mouseover" end="zoomminus.mouseout"/></use>
    <path d="M-4,0h8" fill="none" stroke="white" stroke-width="1.5" pointer-events="none"/>
  </g>
  <g id="arrowUp" transform="translate(30 24)">
    <use xlink:href="#rim"/>
    <path pointer-events="none" fill="none" stroke="white" stroke-width="1.5" d="M0,-3.0v7 M-2.5,-0.5L0,-3.0L2.5,-0.5"/>
  </g>
  <g id="arrowRight" transform="rotate(90) translate(36 -43)">
    <use xlink:href="#rim"/>
    <path pointer-events="none" fill="none" stroke="white" stroke-width="1.5" d="M0,-3.0v7 M-2.5,-0.5L0,-3.0L2.5,-0.5"/>
  </g>
  <g id="arrowDown" transform="rotate(180) translate(-30 -48)">
    <use xlink:href="#rim"/>
    <path pointer-events="none" fill="none" stroke="white" stroke-width="1.5" d="M0,-3.0v7 M-2.5,-0.5L0,-3.0L2.5,-0.5"/>
  </g>
  <g id="arrowLeft" transform="rotate(270) translate(-36 17)">
    <use xlink:href="#rim"/>
    <path pointer-events="none" fill="none" stroke="white" stroke-width="1.5" d="M0,-3.0v7 M-2.5,-0.5L0,-3.0L2.5,-0.5"/>
  </g>
  <g id="resetDef">
    <use xlink:href="#rim2" fill="#404040"><set attributeName="fill" to="#808080" begin="reset.mouseover" end="reset.mouseout"/></use>
  </g>
</defs>
<script type="application/ecmascript">
var viewWidth = 868;
var viewHeight = 314;
var sectionId = 'dynsection-48';
</script>
<script type="application/ecmascript" xlink:href="svg.min.js"/>
<svg id="graph" class="graph">
<g id="viewport">
<title>showFormHelpdesk</title>
<!-- Node1 -->
<g id="Node000001" class="node">
<title>Node1</title>
<g id="a_Node000001"><a xlink:title=" ">
<polygon fill="#999999" stroke="#666666" points="103,-193.25 0,-193.25 0,-174 103,-174 103,-193.25"/>
<text text-anchor="middle" x="51.5" y="-179.75" font-family="Helvetica,sans-Serif" font-size="10.00">showFormHelpdesk</text>
</a>
</g>
</g>
<!-- Node2 -->
<g id="Node000002" class="node">
<title>Node2</title>
<g id="a_Node000002"><a xlink:href="class_toolbox.html#ad50280b7166f71c7e5fbabb05274b730" target="_top" xlink:title=" ">
<polygon fill="white" stroke="#666666" points="282.12,-288.25 160.38,-288.25 160.38,-269 282.12,-269 282.12,-288.25"/>
<text text-anchor="middle" x="221.25" y="-274.75" font-family="Helvetica,sans-Serif" font-size="10.00">Toolbox\append_params</text>
</a>
</g>
</g>
<!-- Node1&#45;&gt;Node2 -->
<g id="edge1_Node000001_Node000002" class="edge">
<title>Node1&#45;&gt;Node2</title>
<g id="a_edge1_Node000001_Node000002"><a xlink:title=" ">
<path fill="none" stroke="#63b8ff" d="M61.93,-193.59C76.88,-208.85 107.58,-237.98 139,-254.62 146.68,-258.69 155.14,-262.16 163.61,-265.09"/>
<polygon fill="#63b8ff" stroke="#63b8ff" points="162.25,-268.33 172.85,-268.05 164.39,-261.67 162.25,-268.33"/>
</a>
</g>
</g>
<!-- Node3 -->
<g id="Node000003" class="node">
<title>Node3</title>
<g id="a_Node000003"><a xlink:href="class_common_i_t_i_l_object.html#ae4c8bd12f1360efa80373c6b729073a3" target="_top" xlink:title=" ">
<polygon fill="white" stroke="#666666" points="514.5,-255.88 339.5,-255.88 339.5,-225.38 514.5,-225.38 514.5,-255.88"/>
<text text-anchor="start" x="347.5" y="-242.38" font-family="Helvetica,sans-Serif" font-size="10.00">CommonITILObject\getITILTemplate</text>
<text text-anchor="middle" x="427" y="-231.12" font-family="Helvetica,sans-Serif" font-size="10.00">ToUse</text>
</a>
</g>
</g>
<!-- Node1&#45;&gt;Node3 -->
<g id="edge3_Node000001_Node000003" class="edge">
<title>Node1&#45;&gt;Node3</title>
<g id="a_edge3_Node000001_Node000003"><a xlink:title=" ">
<path fill="none" stroke="#63b8ff" d="M70.41,-193.71C87.46,-202.76 114.15,-215.54 139,-221.62 200.6,-236.7 271.72,-241.49 327.74,-242.5"/>
<polygon fill="#63b8ff" stroke="#63b8ff" points="327.54,-246 337.59,-242.63 327.64,-239 327.54,-246"/>
</a>
</g>
</g>
<!-- Node6 -->
<g id="Node000006" class="node">
<title>Node6</title>
<g id="a_Node000006"><a xlink:href="class_common_g_l_p_i.html#adb99de7dd30cc89a5aed870b8802d6aa" target="_top" xlink:title=" ">
<polygon fill="white" stroke="#666666" points="294.12,-212.25 148.38,-212.25 148.38,-193 294.12,-193 294.12,-212.25"/>
<text text-anchor="middle" x="221.25" y="-198.75" font-family="Helvetica,sans-Serif" font-size="10.00">CommonGLPI\getSearchURL</text>
</a>
</g>
</g>
<!-- Node1&#45;&gt;Node6 -->
<g id="edge7_Node000001_Node000006" class="edge">
<title>Node1&#45;&gt;Node6</title>
<g id="a_edge7_Node000001_Node000006"><a xlink:title=" ">
<path fill="none" stroke="#63b8ff" d="M103.29,-189.38C113.85,-190.57 125.24,-191.86 136.62,-193.15"/>
<polygon fill="#63b8ff" stroke="#63b8ff" points="136.14,-196.62 146.47,-194.27 136.93,-189.67 136.14,-196.62"/>
</a>
</g>
</g>
<!-- Node7 -->
<g id="Node000007" class="node">
<title>Node7</title>
<g id="a_Node000007"><a xlink:href="class_toolbox.html#a4d36645bc9e57bf89132deef5175599d" target="_top" xlink:title=" ">
<polygon fill="white" stroke="#666666" points="293.38,-175.25 149.12,-175.25 149.12,-156 293.38,-156 293.38,-175.25"/>
<text text-anchor="middle" x="221.25" y="-161.75" font-family="Helvetica,sans-Serif" font-size="10.00">Toolbox\prepareArrayForInput</text>
</a>
</g>
</g>
<!-- Node1&#45;&gt;Node7 -->
<g id="edge8_Node000001_Node000007" class="edge">
<title>Node1&#45;&gt;Node7</title>
<g id="a_edge8_Node000001_Node000007"><a xlink:title=" ">
<path fill="none" stroke="#63b8ff" d="M103.29,-178.18C114.17,-177.01 125.95,-175.74 137.69,-174.48"/>
<polygon fill="#63b8ff" stroke="#63b8ff" points="137.83,-177.99 147.4,-173.44 137.08,-171.03 137.83,-177.99"/>
</a>
</g>
</g>
<!-- Node8 -->
<g id="Node000008" class="node">
<title>Node8</title>
<g id="a_Node000008"><a xlink:href="class_common_i_t_i_l_object.html#a87a973a8b4a8dc5b5bf5ed0677d47a9e" target="_top" xlink:title=" ">
<polygon fill="white" stroke="#666666" points="288.5,-137.88 154,-137.88 154,-107.38 288.5,-107.38 288.5,-137.88"/>
<text text-anchor="start" x="162" y="-124.38" font-family="Helvetica,sans-Serif" font-size="10.00">CommonITILObject\restore</text>
<text text-anchor="middle" x="221.25" y="-113.12" font-family="Helvetica,sans-Serif" font-size="10.00">InputAndDefaults</text>
</a>
</g>
</g>
<!-- Node1&#45;&gt;Node8 -->
<g id="edge9_Node000001_Node000008" class="edge">
<title>Node1&#45;&gt;Node8</title>
<g id="a_edge9_Node000001_Node000008"><a xlink:title=" ">
<path fill="none" stroke="#63b8ff" d="M73.9,-173.64C91.24,-165.75 116.41,-154.76 139,-146.62 143.64,-144.95 148.46,-143.31 153.33,-141.71"/>
<polygon fill="#63b8ff" stroke="#63b8ff" points="154.12,-145.13 162.58,-138.76 151.99,-138.46 154.12,-145.13"/>
</a>
</g>
</g>
<!-- Node12 -->
<g id="Node000012" class="node">
<title>Node12</title>
<g id="a_Node000012"><a xlink:href="class_common_i_t_i_l_object.html#a1e651f68d5ed22ff54060f5daf732366" target="_top" xlink:title=" ">
<polygon fill="white" stroke="#666666" points="303.5,-75.88 139,-75.88 139,-45.38 303.5,-45.38 303.5,-75.88"/>
<text text-anchor="start" x="147" y="-62.38" font-family="Helvetica,sans-Serif" font-size="10.00">CommonITILObject\setPredefined</text>
<text text-anchor="middle" x="221.25" y="-51.12" font-family="Helvetica,sans-Serif" font-size="10.00">Fields</text>
</a>
</g>
</g>
<!-- Node1&#45;&gt;Node12 -->
<g id="edge15_Node000001_Node000012" class="edge">
<title>Node1&#45;&gt;Node12</title>
<g id="a_edge15_Node000001_Node000012"><a xlink:title=" ">
<path fill="none" stroke="#63b8ff" d="M60.69,-173.6C75.08,-156.46 106.49,-121.2 139,-98.62 148.4,-92.1 159.1,-86.18 169.58,-81.07"/>
<polygon fill="#63b8ff" stroke="#63b8ff" points="170.98,-84.28 178.56,-76.87 168.02,-77.94 170.98,-84.28"/>
</a>
</g>
</g>
<!-- Node2&#45;&gt;Node2 -->
<g id="edge2_Node000002_Node000002" class="edge">
<title>Node2&#45;&gt;Node2</title>
<g id="a_edge2_Node000002_Node000002"><a xlink:title=" ">
<path fill="none" stroke="#63b8ff" d="M194.67,-288.54C182.55,-297.15 191.41,-306.25 221.25,-306.25 238.03,-306.25 248.18,-303.37 251.69,-299.32"/>
<polygon fill="#63b8ff" stroke="#63b8ff" points="255,-298.2 248.34,-289.96 248.41,-300.56 255,-298.2"/>
</a>
</g>
</g>
<!-- Node4 -->
<g id="Node000004" class="node">
<title>Node4</title>
<g id="a_Node000004"><a xlink:href="class_common_i_t_i_l_object.html#a6859bb915d4c76b556de47438c6f2fe1" target="_top" xlink:title=" ">
<polygon fill="white" stroke="#666666" points="708.25,-256.88 550.5,-256.88 550.5,-226.38 708.25,-226.38 708.25,-256.88"/>
<text text-anchor="start" x="558.5" y="-243.38" font-family="Helvetica,sans-Serif" font-size="10.00">CommonITILObject\getTemplate</text>
<text text-anchor="middle" x="629.38" y="-232.12" font-family="Helvetica,sans-Serif" font-size="10.00">FieldName</text>
</a>
</g>
</g>
<!-- Node3&#45;&gt;Node4 -->
<g id="edge4_Node000003_Node000004" class="edge">
<title>Node3&#45;&gt;Node4</title>
<g id="a_edge4_Node000003_Node000004"><a xlink:title=" ">
<path fill="none" stroke="#63b8ff" d="M514.72,-241.06C522.61,-241.1 530.61,-241.14 538.53,-241.18"/>
<polygon fill="#63b8ff" stroke="#63b8ff" points="538.51,-244.68 548.52,-241.23 538.54,-237.68 538.51,-244.68"/>
</a>
</g>
</g>
<!-- Node5 -->
<g id="Node000005" class="node">
<title>Node5</title>
<g id="a_Node000005"><a xlink:href="class_common_g_l_p_i.html#a3dadfbfaa3d8e3b5fe01a60e28640ddb" target="_top" xlink:title=" ">
<polygon fill="white" stroke="#666666" points="860,-170.25 744.25,-170.25 744.25,-151 860,-151 860,-170.25"/>
<text text-anchor="middle" x="802.12" y="-156.75" font-family="Helvetica,sans-Serif" font-size="10.00">CommonGLPI\getType</text>
</a>
</g>
</g>
<!-- Node3&#45;&gt;Node5 -->
<g id="edge6_Node000003_Node000005" class="edge">
<title>Node3&#45;&gt;Node5</title>
<g id="a_edge6_Node000003_Node000005"><a xlink:title=" ">
<path fill="none" stroke="#63b8ff" d="M501.27,-224.92C572.09,-209.73 677.97,-187.03 743.12,-173.06"/>
<polygon fill="#63b8ff" stroke="#63b8ff" points="743.48,-176.56 752.53,-171.04 742.02,-169.72 743.48,-176.56"/>
</a>
</g>
</g>
<!-- Node4&#45;&gt;Node5 -->
<g id="edge5_Node000004_Node000005" class="edge">
<title>Node4&#45;&gt;Node5</title>
<g id="a_edge5_Node000004_Node000005"><a xlink:title=" ">
<path fill="none" stroke="#63b8ff" d="M676.16,-225.92C686.82,-221.89 698.04,-217.35 708.25,-212.62 731.63,-201.8 757.09,-187.35 775.43,-176.42"/>
<polygon fill="#63b8ff" stroke="#63b8ff" points="777.03,-179.55 783.79,-171.39 773.41,-173.55 777.03,-179.55"/>
</a>
</g>
</g>
<!-- Node9 -->
<g id="Node000009" class="node">
<title>Node9</title>
<g id="a_Node000009"><a xlink:href="class_common_d_b_t_m.html#a56f45881f9c2d6e972c40a18cf71be86" target="_top" xlink:title=" ">
<polygon fill="white" stroke="#666666" points="496.5,-169.25 357.5,-169.25 357.5,-150 496.5,-150 496.5,-169.25"/>
<text text-anchor="middle" x="427" y="-155.75" font-family="Helvetica,sans-Serif" font-size="10.00">CommonDBTM\restoreInput</text>
</a>
</g>
</g>
<!-- Node8&#45;&gt;Node9 -->
<g id="edge10_Node000008_Node000009" class="edge">
<title>Node8&#45;&gt;Node9</title>
<g id="a_edge10_Node000008_Node000009"><a xlink:title=" ">
<path fill="none" stroke="#63b8ff" d="M288.97,-134.74C311.5,-138.83 336.66,-143.4 359.2,-147.49"/>
<polygon fill="#63b8ff" stroke="#63b8ff" points="358.43,-150.91 368.89,-149.25 359.68,-144.02 358.43,-150.91"/>
</a>
</g>
</g>
<!-- Node11 -->
<g id="Node000011" class="node">
<title>Node11</title>
<g id="a_Node000011"><a xlink:href="class_common_d_b_t_m.html#a9732feba17fb9098def8845bc8f59242" target="_top" xlink:title=" ">
<polygon fill="white" stroke="#666666" points="514.12,-132.25 339.88,-132.25 339.88,-113 514.12,-113 514.12,-132.25"/>
<text text-anchor="middle" x="427" y="-118.75" font-family="Helvetica,sans-Serif" font-size="10.00">CommonDBTM\restoreSavedValues</text>
</a>
</g>
</g>
<!-- Node8&#45;&gt;Node11 -->
<g id="edge14_Node000008_Node000011" class="edge">
<title>Node8&#45;&gt;Node11</title>
<g id="a_edge14_Node000008_Node000011"><a xlink:title=" ">
<path fill="none" stroke="#63b8ff" d="M288.97,-122.62C301.57,-122.62 314.99,-122.62 328.32,-122.62"/>
<polygon fill="#63b8ff" stroke="#63b8ff" points="327.95,-126.13 337.95,-122.63 327.95,-119.13 327.95,-126.13"/>
</a>
</g>
</g>
<!-- Node9&#45;&gt;Node5 -->
<g id="edge13_Node000009_Node000005" class="edge">
<title>Node9&#45;&gt;Node5</title>
<g id="a_edge13_Node000009_Node000005"><a xlink:title=" ">
<path fill="none" stroke="#63b8ff" d="M496.87,-159.81C564.05,-159.99 665.65,-160.26 732.68,-160.44"/>
<polygon fill="#63b8ff" stroke="#63b8ff" points="732.43,-163.94 742.44,-160.47 732.45,-156.94 732.43,-163.94"/>
</a>
</g>
</g>
<!-- Node10 -->
<g id="Node000010" class="node">
<title>Node10</title>
<g id="a_Node000010"><a xlink:href="class_common_d_b_t_m.html#a9676fff012745218481e021cfbd93c6a" target="_top" xlink:title=" ">
<polygon fill="white" stroke="#666666" points="708.25,-132.25 550.5,-132.25 550.5,-113 708.25,-113 708.25,-132.25"/>
<text text-anchor="middle" x="629.38" y="-118.75" font-family="Helvetica,sans-Serif" font-size="10.00">CommonDBTM\clearSavedInput</text>
</a>
</g>
</g>
<!-- Node9&#45;&gt;Node10 -->
<g id="edge11_Node000009_Node000010" class="edge">
<title>Node9&#45;&gt;Node10</title>
<g id="a_edge11_Node000009_Node000010"><a xlink:title=" ">
<path fill="none" stroke="#63b8ff" d="M482.75,-149.51C507.38,-144.97 536.66,-139.56 562.48,-134.79"/>
<polygon fill="#63b8ff" stroke="#63b8ff" points="563,-138.26 572.2,-133 561.73,-131.37 563,-138.26"/>
</a>
</g>
</g>
<!-- Node10&#45;&gt;Node5 -->
<g id="edge12_Node000010_Node000005" class="edge">
<title>Node10&#45;&gt;Node5</title>
<g id="a_edge12_Node000010_Node000005"><a xlink:title=" ">
<path fill="none" stroke="#63b8ff" d="M675.68,-132.71C696.9,-137.43 722.38,-143.1 744.82,-148.09"/>
<polygon fill="#63b8ff" stroke="#63b8ff" points="743.9,-151.48 754.42,-150.23 745.42,-144.64 743.9,-151.48"/>
</a>
</g>
</g>
<!-- Node12&#45;&gt;Node5 -->
<g id="edge17_Node000012_Node000005" class="edge">
<title>Node12&#45;&gt;Node5</title>
<g id="a_edge17_Node000012_Node000005"><a xlink:title=" ">
<path fill="none" stroke="#63b8ff" d="M303.78,-65.79C432.21,-74.23 670.93,-91.28 708.25,-103.62 735.08,-112.5 762.21,-130.41 780.16,-143.81"/>
<polygon fill="#63b8ff" stroke="#63b8ff" points="777.87,-146.46 787.93,-149.77 782.13,-140.91 777.87,-146.46"/>
</a>
</g>
</g>
<!-- Node13 -->
<g id="Node000013" class="node">
<title>Node13</title>
<g id="a_Node000013"><a xlink:href="class_toolbox.html#ab5023a3ff74068988736e1b03ff4ac72" target="_top" xlink:title=" ">
<polygon fill="white" stroke="#666666" points="502.88,-56.25 351.12,-56.25 351.12,-37 502.88,-37 502.88,-56.25"/>
<text text-anchor="middle" x="427" y="-42.75" font-family="Helvetica,sans-Serif" font-size="10.00">Toolbox\decodeArrayFromInput</text>
</a>
</g>
</g>
<!-- Node12&#45;&gt;Node13 -->
<g id="edge16_Node000012_Node000013" class="edge">
<title>Node12&#45;&gt;Node13</title>
<g id="a_edge16_Node000012_Node000013"><a xlink:title=" ">
<path fill="none" stroke="#63b8ff" d="M303.95,-55.01C315.69,-54.2 327.81,-53.37 339.65,-52.56"/>
<polygon fill="#63b8ff" stroke="#63b8ff" points="339.64,-56.07 349.37,-51.89 339.16,-49.08 339.64,-56.07"/>
</a>
</g>
</g>
<!-- Node14 -->
<g id="Node000014" class="node">
<title>Node14</title>
<g id="a_Node000014"><a xlink:href="class_common_d_b_t_m.html#a16827e3c0e8aee170fc0798896337b31" target="_top" xlink:title=" ">
<polygon fill="white" stroke="#666666" points="494.25,-19.25 359.75,-19.25 359.75,0 494.25,0 494.25,-19.25"/>
<text text-anchor="middle" x="427" y="-5.75" font-family="Helvetica,sans-Serif" font-size="10.00">CommonDBTM\isNewItem</text>
</a>
</g>
</g>
<!-- Node12&#45;&gt;Node14 -->
<g id="edge18_Node000012_Node000014" class="edge">
<title>Node12&#45;&gt;Node14</title>
<g id="a_edge18_Node000012_Node000014"><a xlink:title=" ">
<path fill="none" stroke="#63b8ff" d="M275.16,-44.9C295.23,-39.15 318.34,-32.8 339.5,-27.62 347.29,-25.72 355.5,-23.85 363.63,-22.06"/>
<polygon fill="#63b8ff" stroke="#63b8ff" points="364.12,-25.54 373.16,-20.02 362.65,-18.7 364.12,-25.54"/>
</a>
</g>
</g>
<!-- Node15 -->
<g id="Node000015" class="node">
<title>Node15</title>
<g id="a_Node000015"><a xlink:href="class_common_d_b_t_m.html#a7cb79784c4f52138c643c5e3d276e3aa" target="_top" xlink:title=" ">
<polygon fill="white" stroke="#666666" points="692.12,-19.25 566.62,-19.25 566.62,0 692.12,0 692.12,-19.25"/>
<text text-anchor="middle" x="629.38" y="-5.75" font-family="Helvetica,sans-Serif" font-size="10.00">CommonDBTM\isNewID</text>
</a>
</g>
</g>
<!-- Node14&#45;&gt;Node15 -->
<g id="edge19_Node000014_Node000015" class="edge">
<title>Node14&#45;&gt;Node15</title>
<g id="a_edge19_Node000014_Node000015"><a xlink:title=" ">
<path fill="none" stroke="#63b8ff" d="M494.72,-9.62C514.04,-9.62 535.24,-9.62 554.94,-9.62"/>
<polygon fill="#63b8ff" stroke="#63b8ff" points="554.83,-13.13 564.83,-9.63 554.83,-6.13 554.83,-13.13"/>
</a>
</g>
</g>
</g>
</svg>

<g id="navigator" transform="translate(0 0)" fill="#404254">
  <rect fill="#f2f5e9" fill-opacity="0.5" stroke="#606060" stroke-width=".5" x="0" y="0" width="60" height="60"/>
  <use id="zoomplus" xlink:href="#zoomPlus" x="17" y="9" onmousedown="handleZoom(evt,'in')"/>
  <use id="zoomminus" xlink:href="#zoomMin" x="42" y="9" onmousedown="handleZoom(evt,'out')"/>
  <use id="reset" xlink:href="#resetDef" x="30" y="36" onmousedown="handleReset()"/>
   <use id="arrowup" xlink:href="#arrowUp" x="0" y="0" onmousedown="handlePan(0,-1)"/>
  <use id="arrowright" xlink:href="#arrowRight" x="0" y="0" onmousedown="handlePan(1,0)"/>
  <use id="arrowdown" xlink:href="#arrowDown" x="0" y="0" onmousedown="handlePan(0,1)"/>
  <use id="arrowleft" xlink:href="#arrowLeft" x="0" y="0" onmousedown="handlePan(-1,0)"/>
</g>
<svg viewBox="0 0 15 15" width="100%" height="30px" preserveAspectRatio="xMaxYMin meet">
 <g id="arrow_out" transform="scale(0.3 0.3)">
  <a xlink:href="class_ticket_a176e463aded5cb1d9d866ddbe5833f47_cgraph_org.svg" target="_base">
   <rect id="button" ry="5" rx="5" y="6" x="6" height="38" width="38"
        fill="#f2f5e9" fill-opacity="0.5" stroke="#606060" stroke-width="1.0"/>
   <path id="arrow"
     d="M 11.500037,31.436501 C 11.940474,20.09759 22.043105,11.32322 32.158766,21.979434 L 37.068811,17.246167 C 37.068811,17.246167 37.088388,32 37.088388,32 L 22.160133,31.978069 C 22.160133,31.978069 26.997745,27.140456 26.997745,27.140456 C 18.528582,18.264221 13.291696,25.230495 11.500037,31.436501 z"
     style="fill:#404040;"/>
  </a>
 </g>
</svg>

<style type='text/css'>
<![CDATA[
[data-mouse-over-selected='false'] { opacity: 0.7; }
[data-mouse-over-selected='true']  { opacity: 1.0; }
]]>
</style>
<script type="application/ecmascript"><![CDATA[
document.addEventListener('DOMContentLoaded', (event) => {
  highlightEdges();
  highlightAdjacentNodes();
});
]]></script>
</svg>
