<?xml version="1.0" encoding="UTF-8" standalone="no"?>
<!DOCTYPE svg PUBLIC "-//W3C//DTD SVG 1.1//EN"
 "http://www.w3.org/Graphics/SVG/1.1/DTD/svg11.dtd">
<!-- Generated by graphviz version 10.0.1 (20240210.2158)
 -->
<!-- Title: GLPIUploadHandler Pages: 1 -->
<svg width="184pt" height="705pt"
 viewBox="0.00 0.00 183.50 704.75" xmlns="http://www.w3.org/2000/svg" xmlns:xlink="http://www.w3.org/1999/xlink">
<g id="graph0" class="graph" transform="scale(1 1) rotate(0) translate(4 700.75)">
<title>GLPIUploadHandler</title>
<!-- Node1 -->
<g id="Node000001" class="node">
<title>Node1</title>
<g id="a_Node000001"><a xlink:title=" ">
<polygon fill="#999999" stroke="none" points="128,-60 31,-60 31,0 128,0 128,-60"/>
<text text-anchor="start" x="36" y="-46.5" font-family="Helvetica,sans-Serif" font-size="10.00">GLPIUploadHandler</text>
<text text-anchor="start" x="78" y="-31.5" font-family="Helvetica,sans-Serif" font-size="10.00"> </text>
<text text-anchor="start" x="35.5" y="-16.5" font-family="Helvetica,sans-Serif" font-size="10.00">+</text>
<text text-anchor="start" x="46" y="-16.5" font-family="Helvetica,sans-Serif" font-size="10.00">static uploadFiles</text>
<text text-anchor="start" x="46" y="-5.25" font-family="Helvetica,sans-Serif" font-size="10.00">($params=[])</text>
<polygon fill="#666666" stroke="#666666" points="31,-43 31,-43 128,-43 128,-43 31,-43"/>
<polygon fill="#666666" stroke="#666666" points="31,-28 31,-28 128,-28 128,-28 31,-28"/>
<polygon fill="none" stroke="#666666" points="31,0 31,-60 128,-60 128,0 31,0"/>
</a>
</g>
</g>
<!-- Node2 -->
<g id="Node000002" class="node">
<title>Node2</title>
<g id="a_Node000002"><a xlink:href="class_upload_handler.html" target="_top" xlink:title=" ">
<polygon fill="white" stroke="none" points="159,-578 0,-578 0,-97 159,-97 159,-578"/>
<text text-anchor="start" x="47.25" y="-564.5" font-family="Helvetica,sans-Serif" font-size="10.00">UploadHandler</text>
<text text-anchor="start" x="4.38" y="-549.5" font-family="Helvetica,sans-Serif" font-size="10.00">#</text>
<text text-anchor="start" x="14" y="-549.5" font-family="Helvetica,sans-Serif" font-size="10.00">$options</text>
<text text-anchor="start" x="4.38" y="-534.5" font-family="Helvetica,sans-Serif" font-size="10.00">#</text>
<text text-anchor="start" x="14" y="-534.5" font-family="Helvetica,sans-Serif" font-size="10.00">$error_messages</text>
<text text-anchor="start" x="4.38" y="-519.5" font-family="Helvetica,sans-Serif" font-size="10.00">#</text>
<text text-anchor="start" x="14" y="-519.5" font-family="Helvetica,sans-Serif" font-size="10.00">$image_objects</text>
<text text-anchor="start" x="4.38" y="-504.5" font-family="Helvetica,sans-Serif" font-size="10.00">#</text>
<text text-anchor="start" x="14" y="-504.5" font-family="Helvetica,sans-Serif" font-size="10.00">$response</text>
<text text-anchor="start" x="4" y="-489.5" font-family="Helvetica,sans-Serif" font-size="10.00">+</text>
<text text-anchor="start" x="14" y="-489.5" font-family="Helvetica,sans-Serif" font-size="10.00">get_config_bytes($val)</text>
<text text-anchor="start" x="4" y="-474.5" font-family="Helvetica,sans-Serif" font-size="10.00">+</text>
<text text-anchor="start" x="14" y="-474.5" font-family="Helvetica,sans-Serif" font-size="10.00">generate_response</text>
<text text-anchor="start" x="14" y="-463.25" font-family="Helvetica,sans-Serif" font-size="10.00">($content, $print_response=true)</text>
<text text-anchor="start" x="4" y="-448.5" font-family="Helvetica,sans-Serif" font-size="10.00">+</text>
<text text-anchor="start" x="14" y="-448.5" font-family="Helvetica,sans-Serif" font-size="10.00">get_response()</text>
<text text-anchor="start" x="4" y="-433.5" font-family="Helvetica,sans-Serif" font-size="10.00">+</text>
<text text-anchor="start" x="14" y="-433.5" font-family="Helvetica,sans-Serif" font-size="10.00">head()</text>
<text text-anchor="start" x="4" y="-418.5" font-family="Helvetica,sans-Serif" font-size="10.00">+</text>
<text text-anchor="start" x="14" y="-418.5" font-family="Helvetica,sans-Serif" font-size="10.00">get($print_response</text>
<text text-anchor="start" x="14" y="-407.25" font-family="Helvetica,sans-Serif" font-size="10.00">=true)</text>
<text text-anchor="start" x="4" y="-392.5" font-family="Helvetica,sans-Serif" font-size="10.00">+</text>
<text text-anchor="start" x="14" y="-392.5" font-family="Helvetica,sans-Serif" font-size="10.00">post($print_response</text>
<text text-anchor="start" x="14" y="-381.25" font-family="Helvetica,sans-Serif" font-size="10.00">=true)</text>
<text text-anchor="start" x="4" y="-366.5" font-family="Helvetica,sans-Serif" font-size="10.00">+</text>
<text text-anchor="start" x="14" y="-366.5" font-family="Helvetica,sans-Serif" font-size="10.00">delete($print_response</text>
<text text-anchor="start" x="14" y="-355.25" font-family="Helvetica,sans-Serif" font-size="10.00">=true)</text>
<text text-anchor="start" x="4.38" y="-340.5" font-family="Helvetica,sans-Serif" font-size="10.00">#</text>
<text text-anchor="start" x="14" y="-340.5" font-family="Helvetica,sans-Serif" font-size="10.00">initialize()</text>
<text text-anchor="start" x="4.38" y="-325.5" font-family="Helvetica,sans-Serif" font-size="10.00">#</text>
<text text-anchor="start" x="14" y="-325.5" font-family="Helvetica,sans-Serif" font-size="10.00">get_full_url()</text>
<text text-anchor="start" x="4.38" y="-310.5" font-family="Helvetica,sans-Serif" font-size="10.00">#</text>
<text text-anchor="start" x="14" y="-310.5" font-family="Helvetica,sans-Serif" font-size="10.00">get_user_id()</text>
<text text-anchor="start" x="4.38" y="-295.5" font-family="Helvetica,sans-Serif" font-size="10.00">#</text>
<text text-anchor="start" x="14" y="-295.5" font-family="Helvetica,sans-Serif" font-size="10.00">get_user_path()</text>
<text text-anchor="start" x="4.38" y="-280.5" font-family="Helvetica,sans-Serif" font-size="10.00">#</text>
<text text-anchor="start" x="14" y="-280.5" font-family="Helvetica,sans-Serif" font-size="10.00">get_upload_path($file</text>
<text text-anchor="start" x="14" y="-269.25" font-family="Helvetica,sans-Serif" font-size="10.00">_name=null, $version=null)</text>
<text text-anchor="start" x="4.38" y="-254.5" font-family="Helvetica,sans-Serif" font-size="10.00">#</text>
<text text-anchor="start" x="14" y="-254.5" font-family="Helvetica,sans-Serif" font-size="10.00">get_query_separator</text>
<text text-anchor="start" x="14" y="-243.25" font-family="Helvetica,sans-Serif" font-size="10.00">($url)</text>
<text text-anchor="start" x="4.38" y="-228.5" font-family="Helvetica,sans-Serif" font-size="10.00">#</text>
<text text-anchor="start" x="14" y="-228.5" font-family="Helvetica,sans-Serif" font-size="10.00">get_download_url(</text>
<text text-anchor="start" x="14" y="-217.25" font-family="Helvetica,sans-Serif" font-size="10.00">$file_name, $version</text>
<text text-anchor="start" x="14" y="-206" font-family="Helvetica,sans-Serif" font-size="10.00">=null, $direct=false)</text>
<text text-anchor="start" x="4.38" y="-191.5" font-family="Helvetica,sans-Serif" font-size="10.00">#</text>
<text text-anchor="start" x="14" y="-191.5" font-family="Helvetica,sans-Serif" font-size="10.00">set_additional_file</text>
<text text-anchor="start" x="14" y="-180.25" font-family="Helvetica,sans-Serif" font-size="10.00">_properties($file)</text>
<text text-anchor="start" x="4.38" y="-165.5" font-family="Helvetica,sans-Serif" font-size="10.00">#</text>
<text text-anchor="start" x="14" y="-165.5" font-family="Helvetica,sans-Serif" font-size="10.00">fix_integer_overflow</text>
<text text-anchor="start" x="14" y="-154.25" font-family="Helvetica,sans-Serif" font-size="10.00">($size)</text>
<text text-anchor="start" x="4.38" y="-139.5" font-family="Helvetica,sans-Serif" font-size="10.00">#</text>
<text text-anchor="start" x="14" y="-139.5" font-family="Helvetica,sans-Serif" font-size="10.00">get_file_size($file</text>
<text text-anchor="start" x="14" y="-128.25" font-family="Helvetica,sans-Serif" font-size="10.00">_path, $clear_stat_cache</text>
<text text-anchor="start" x="14" y="-117" font-family="Helvetica,sans-Serif" font-size="10.00">=false)</text>
<text text-anchor="start" x="14" y="-102.5" font-family="Helvetica,sans-Serif" font-size="10.00">et 46 de plus...</text>
<polygon fill="#666666" stroke="#666666" points="0,-561 0,-561 159,-561 159,-561 0,-561"/>
<polygon fill="#666666" stroke="#666666" points="0,-501 0,-501 12,-501 12,-501 0,-501"/>
<polygon fill="#666666" stroke="#666666" points="12,-501 12,-501 159,-501 159,-501 12,-501"/>
<polygon fill="none" stroke="#666666" points="0,-97 0,-578 159,-578 159,-97 0,-97"/>
</a>
</g>
</g>
<!-- Node2&#45;&gt;Node1 -->
<g id="edge1_Node000001_Node000002" class="edge">
<title>Node2&#45;&gt;Node1</title>
<g id="a_edge1_Node000001_Node000002"><a xlink:title=" ">
<path fill="none" stroke="#63b8ff" d="M79.5,-86C79.5,-76.32 79.5,-67.55 79.5,-59.99"/>
<polygon fill="none" stroke="#63b8ff" points="76,-85.78 79.5,-95.78 83,-85.78 76,-85.78"/>
</a>
</g>
</g>
<!-- Node3 -->
<g id="Node000003" class="node">
<title>Node3</title>
<g id="a_Node000003"><a xlink:title=" ">
<polygon fill="white" stroke="none" points="96.5,-696.75 62.5,-696.75 62.5,-647.75 96.5,-647.75 96.5,-696.75"/>
<text text-anchor="start" x="67.5" y="-683.25" font-family="Helvetica,sans-Serif" font-size="10.00">const</text>
<text text-anchor="start" x="78" y="-668.25" font-family="Helvetica,sans-Serif" font-size="10.00"> </text>
<text text-anchor="start" x="78" y="-653.25" font-family="Helvetica,sans-Serif" font-size="10.00"> </text>
<polygon fill="#666666" stroke="#666666" points="62.5,-679.75 62.5,-679.75 96.5,-679.75 96.5,-679.75 62.5,-679.75"/>
<polygon fill="#666666" stroke="#666666" points="62.5,-664.75 62.5,-664.75 96.5,-664.75 96.5,-664.75 62.5,-664.75"/>
<polygon fill="none" stroke="#666666" points="62.5,-647.75 62.5,-696.75 96.5,-696.75 96.5,-647.75 62.5,-647.75"/>
</a>
</g>
</g>
<!-- Node3&#45;&gt;Node2 -->
<g id="edge2_Node000002_Node000003" class="edge">
<title>Node3&#45;&gt;Node2</title>
<g id="a_edge2_Node000002_Node000003"><a xlink:title=" ">
<path fill="none" stroke="#63b8ff" d="M79.5,-647.85C79.5,-633.56 79.5,-613.65 79.5,-590.74"/>
<polygon fill="none" stroke="#63b8ff" points="79.5,-590.63 75.5,-584.63 79.5,-578.63 83.5,-584.63 79.5,-590.63"/>
</a>
</g>
<text text-anchor="middle" x="127.5" y="-620.25" font-family="Helvetica,sans-Serif" font-size="10.00" fill="grey"> +IMAGETYPE_GIF</text>
<text text-anchor="middle" x="127.5" y="-609" font-family="Helvetica,sans-Serif" font-size="10.00" fill="grey">+IMAGETYPE_JPEG</text>
<text text-anchor="middle" x="127.5" y="-597.75" font-family="Helvetica,sans-Serif" font-size="10.00" fill="grey">+IMAGETYPE_PNG</text>
</g>
</g>
</svg>
