<?xml version="1.0" encoding="UTF-8" standalone="no"?>
<!DOCTYPE svg PUBLIC "-//W3C//DTD SVG 1.1//EN"
 "http://www.w3.org/Graphics/SVG/1.1/DTD/svg11.dtd">
<!-- Generated by graphviz version 10.0.1 (20240210.2158)
 -->
<!-- Title: RedisTagAwareAdapter Pages: 1 -->
<!--zoomable 1012 -->

<svg id="main" version="1.1" xmlns="http://www.w3.org/2000/svg" xmlns:xlink="http://www.w3.org/1999/xlink" xml:space="preserve" onload="init(evt)">
<style type="text/css"><![CDATA[
.node, .edge {opacity: 0.7;}
.node.selected, .edge.selected {opacity: 1;}
.edge:hover path { stroke: red; }
.edge:hover polygon { stroke: red; fill: red; }
]]></style>

<defs>
  <circle id="rim" cx="0" cy="0" r="7"/>
  <circle id="rim2" cx="0" cy="0" r="3.5"/>
  <g id="zoomPlus">
    <use xlink:href="#rim" fill="#404040"><set attributeName="fill" to="#808080" begin="zoomplus.mouseover" end="zoomplus.mouseout"/></use>
    <path d="M-4,0h8M0,-4v8" fill="none" stroke="white" stroke-width="1.5" pointer-events="none"/>
  </g>
  <g id="zoomMin">
    <use xlink:href="#rim" fill="#404040"><set attributeName="fill" to="#808080" begin="zoomminus.mouseover" end="zoomminus.mouseout"/></use>
    <path d="M-4,0h8" fill="none" stroke="white" stroke-width="1.5" pointer-events="none"/>
  </g>
  <g id="arrowUp" transform="translate(30 24)">
    <use xlink:href="#rim"/>
    <path pointer-events="none" fill="none" stroke="white" stroke-width="1.5" d="M0,-3.0v7 M-2.5,-0.5L0,-3.0L2.5,-0.5"/>
  </g>
  <g id="arrowRight" transform="rotate(90) translate(36 -43)">
    <use xlink:href="#rim"/>
    <path pointer-events="none" fill="none" stroke="white" stroke-width="1.5" d="M0,-3.0v7 M-2.5,-0.5L0,-3.0L2.5,-0.5"/>
  </g>
  <g id="arrowDown" transform="rotate(180) translate(-30 -48)">
    <use xlink:href="#rim"/>
    <path pointer-events="none" fill="none" stroke="white" stroke-width="1.5" d="M0,-3.0v7 M-2.5,-0.5L0,-3.0L2.5,-0.5"/>
  </g>
  <g id="arrowLeft" transform="rotate(270) translate(-36 17)">
    <use xlink:href="#rim"/>
    <path pointer-events="none" fill="none" stroke="white" stroke-width="1.5" d="M0,-3.0v7 M-2.5,-0.5L0,-3.0L2.5,-0.5"/>
  </g>
  <g id="resetDef">
    <use xlink:href="#rim2" fill="#404040"><set attributeName="fill" to="#808080" begin="reset.mouseover" end="reset.mouseout"/></use>
  </g>
</defs>
<script type="application/ecmascript">
var viewWidth = 563;
var viewHeight = 1012;
var sectionId = 'dynsection-0';
</script>
<script type="application/ecmascript" xlink:href="svg.min.js"/>
<svg id="graph" class="graph">
<g id="viewport">
<title>RedisTagAwareAdapter</title>
<!-- Node1 -->
<g id="Node000001" class="node">
<title>Node1</title>
<g id="a_Node000001"><a xlink:title=" ">
<polygon fill="#999999" stroke="none" points="363.5,-221 245.5,-221 245.5,0 363.5,0 363.5,-221"/>
<text text-anchor="start" x="253.12" y="-207.5" font-family="Helvetica,sans-Serif" font-size="10.00">RedisTagAwareAdapter</text>
<text text-anchor="start" x="303" y="-192.5" font-family="Helvetica,sans-Serif" font-size="10.00"> </text>
<text text-anchor="start" x="249.5" y="-177.5" font-family="Helvetica,sans-Serif" font-size="10.00">+</text>
<text text-anchor="start" x="259.5" y="-177.5" font-family="Helvetica,sans-Serif" font-size="10.00">__construct($redis,</text>
<text text-anchor="start" x="259.5" y="-166.25" font-family="Helvetica,sans-Serif" font-size="10.00"> string $namespace=&#39;&#39;,</text>
<text text-anchor="start" x="259.5" y="-155" font-family="Helvetica,sans-Serif" font-size="10.00"> int $defaultLifetime</text>
<text text-anchor="start" x="259.5" y="-143.75" font-family="Helvetica,sans-Serif" font-size="10.00">=0, MarshallerInterface</text>
<text text-anchor="start" x="259.5" y="-132.5" font-family="Helvetica,sans-Serif" font-size="10.00"> $marshaller=null)</text>
<text text-anchor="start" x="249.88" y="-117.5" font-family="Helvetica,sans-Serif" font-size="10.00">#</text>
<text text-anchor="start" x="259.5" y="-117.5" font-family="Helvetica,sans-Serif" font-size="10.00">doSave(array $values,</text>
<text text-anchor="start" x="259.5" y="-106.25" font-family="Helvetica,sans-Serif" font-size="10.00"> int $lifetime, array</text>
<text text-anchor="start" x="259.5" y="-95" font-family="Helvetica,sans-Serif" font-size="10.00"> $addTagData=[], array</text>
<text text-anchor="start" x="259.5" y="-83.75" font-family="Helvetica,sans-Serif" font-size="10.00"> $delTagData=[])</text>
<text text-anchor="start" x="249.88" y="-68.5" font-family="Helvetica,sans-Serif" font-size="10.00">#</text>
<text text-anchor="start" x="259.5" y="-68.5" font-family="Helvetica,sans-Serif" font-size="10.00">doDeleteYieldTags</text>
<text text-anchor="start" x="259.5" y="-57.25" font-family="Helvetica,sans-Serif" font-size="10.00">(array $ids)</text>
<text text-anchor="start" x="249.88" y="-42.5" font-family="Helvetica,sans-Serif" font-size="10.00">#</text>
<text text-anchor="start" x="259.5" y="-42.5" font-family="Helvetica,sans-Serif" font-size="10.00">doDeleteTagRelations</text>
<text text-anchor="start" x="259.5" y="-31.25" font-family="Helvetica,sans-Serif" font-size="10.00">(array $tagData)</text>
<text text-anchor="start" x="249.88" y="-16.5" font-family="Helvetica,sans-Serif" font-size="10.00">#</text>
<text text-anchor="start" x="259.5" y="-16.5" font-family="Helvetica,sans-Serif" font-size="10.00">doInvalidate(array</text>
<text text-anchor="start" x="259.5" y="-5.25" font-family="Helvetica,sans-Serif" font-size="10.00"> $tagIds)</text>
<polygon fill="#666666" stroke="#666666" points="245.5,-204 245.5,-204 363.5,-204 363.5,-204 245.5,-204"/>
<polygon fill="#666666" stroke="#666666" points="245.5,-189 245.5,-189 363.5,-189 363.5,-189 245.5,-189"/>
<polygon fill="none" stroke="#666666" points="245.5,0 245.5,-221 363.5,-221 363.5,0 245.5,0"/>
</a>
</g>
</g>
<!-- Node2 -->
<g id="Node000002" class="node">
<title>Node2</title>
<g id="a_Node000002"><a xlink:href="class_symfony_1_1_component_1_1_cache_1_1_adapter_1_1_abstract_tag_aware_adapter.html" target="_top" xlink:title=" ">
<polygon fill="white" stroke="none" points="366.5,-537 242.5,-537 242.5,-257 366.5,-257 366.5,-537"/>
<text text-anchor="start" x="247.5" y="-523.5" font-family="Helvetica,sans-Serif" font-size="10.00">AbstractTagAwareAdapter</text>
<text text-anchor="start" x="303" y="-508.5" font-family="Helvetica,sans-Serif" font-size="10.00"> </text>
<text text-anchor="start" x="248" y="-493.5" font-family="Helvetica,sans-Serif" font-size="10.00">+</text>
<text text-anchor="start" x="259.5" y="-493.5" font-family="Helvetica,sans-Serif" font-size="10.00">commit()</text>
<text text-anchor="start" x="248" y="-478.5" font-family="Helvetica,sans-Serif" font-size="10.00">+</text>
<text text-anchor="start" x="259.5" y="-478.5" font-family="Helvetica,sans-Serif" font-size="10.00">deleteItems(array</text>
<text text-anchor="start" x="259.5" y="-467.25" font-family="Helvetica,sans-Serif" font-size="10.00"> $keys)</text>
<text text-anchor="start" x="248" y="-452.5" font-family="Helvetica,sans-Serif" font-size="10.00">+</text>
<text text-anchor="start" x="259.5" y="-452.5" font-family="Helvetica,sans-Serif" font-size="10.00">invalidateTags(array</text>
<text text-anchor="start" x="259.5" y="-441.25" font-family="Helvetica,sans-Serif" font-size="10.00"> $tags)</text>
<text text-anchor="start" x="248.38" y="-426.5" font-family="Helvetica,sans-Serif" font-size="10.00">#</text>
<text text-anchor="start" x="259.5" y="-426.5" font-family="Helvetica,sans-Serif" font-size="10.00">__construct(string</text>
<text text-anchor="start" x="259.5" y="-415.25" font-family="Helvetica,sans-Serif" font-size="10.00"> $namespace=&#39;&#39;, int</text>
<text text-anchor="start" x="259.5" y="-404" font-family="Helvetica,sans-Serif" font-size="10.00"> $defaultLifetime=0)</text>
<text text-anchor="start" x="248.38" y="-389.5" font-family="Helvetica,sans-Serif" font-size="10.00">#</text>
<text text-anchor="start" x="259.5" y="-389.5" font-family="Helvetica,sans-Serif" font-size="10.00">doSave(array $values,</text>
<text text-anchor="start" x="259.5" y="-378.25" font-family="Helvetica,sans-Serif" font-size="10.00"> int $lifetime, array</text>
<text text-anchor="start" x="259.5" y="-367" font-family="Helvetica,sans-Serif" font-size="10.00"> $addTagData=[], array</text>
<text text-anchor="start" x="259.5" y="-355.75" font-family="Helvetica,sans-Serif" font-size="10.00"> $removeTagData=[])</text>
<text text-anchor="start" x="248.38" y="-340.5" font-family="Helvetica,sans-Serif" font-size="10.00">#</text>
<text text-anchor="start" x="259.5" y="-340.5" font-family="Helvetica,sans-Serif" font-size="10.00">doDelete(array $ids)</text>
<text text-anchor="start" x="248.38" y="-325.5" font-family="Helvetica,sans-Serif" font-size="10.00">#</text>
<text text-anchor="start" x="259.5" y="-325.5" font-family="Helvetica,sans-Serif" font-size="10.00">doDeleteTagRelations</text>
<text text-anchor="start" x="259.5" y="-314.25" font-family="Helvetica,sans-Serif" font-size="10.00">(array $tagData)</text>
<text text-anchor="start" x="248.38" y="-299.5" font-family="Helvetica,sans-Serif" font-size="10.00">#</text>
<text text-anchor="start" x="259.5" y="-299.5" font-family="Helvetica,sans-Serif" font-size="10.00">doInvalidate(array</text>
<text text-anchor="start" x="259.5" y="-288.25" font-family="Helvetica,sans-Serif" font-size="10.00"> $tagIds)</text>
<text text-anchor="start" x="248.38" y="-273.5" font-family="Helvetica,sans-Serif" font-size="10.00">#</text>
<text text-anchor="start" x="259.5" y="-273.5" font-family="Helvetica,sans-Serif" font-size="10.00">doDeleteYieldTags</text>
<text text-anchor="start" x="259.5" y="-262.25" font-family="Helvetica,sans-Serif" font-size="10.00">(array $ids)</text>
<polygon fill="#666666" stroke="#666666" points="242.5,-520 242.5,-520 366.5,-520 366.5,-520 242.5,-520"/>
<polygon fill="#666666" stroke="#666666" points="242.5,-505 242.5,-505 366.5,-505 366.5,-505 242.5,-505"/>
<polygon fill="none" stroke="#666666" points="242.5,-257 242.5,-537 366.5,-537 366.5,-257 242.5,-257"/>
</a>
</g>
</g>
<!-- Node2&#45;&gt;Node1 -->
<g id="edge1_Node000001_Node000002" class="edge">
<title>Node2&#45;&gt;Node1</title>
<g id="a_edge1_Node000001_Node000002"><a xlink:title=" ">
<path fill="none" stroke="#63b8ff" d="M304.5,-245.71C304.5,-237.38 304.5,-229.09 304.5,-220.95"/>
<polygon fill="none" stroke="#63b8ff" points="301,-245.57 304.5,-255.57 308,-245.57 301,-245.57"/>
</a>
</g>
</g>
<!-- Node3 -->
<g id="Node000003" class="node">
<title>Node3</title>
<g id="a_Node000003"><a xlink:href="interface_symfony_1_1_component_1_1_cache_1_1_adapter_1_1_tag_aware_adapter_interface.html" target="_top" xlink:title=" ">
<polygon fill="white" stroke="none" points="151,-633 26,-633 26,-573 151,-573 151,-633"/>
<text text-anchor="start" x="30.75" y="-619.5" font-family="Helvetica,sans-Serif" font-size="10.00">TagAwareAdapterInterface</text>
<text text-anchor="start" x="87" y="-604.5" font-family="Helvetica,sans-Serif" font-size="10.00"> </text>
<text text-anchor="start" x="35" y="-589.5" font-family="Helvetica,sans-Serif" font-size="10.00">+</text>
<text text-anchor="start" x="50" y="-589.5" font-family="Helvetica,sans-Serif" font-size="10.00">invalidateTags(array</text>
<text text-anchor="start" x="50" y="-578.25" font-family="Helvetica,sans-Serif" font-size="10.00"> $tags)</text>
<polygon fill="#666666" stroke="#666666" points="26,-616 26,-616 151,-616 151,-616 26,-616"/>
<polygon fill="#666666" stroke="#666666" points="26,-601 26,-601 151,-601 151,-601 26,-601"/>
<polygon fill="none" stroke="#666666" points="26,-573 26,-633 151,-633 151,-573 26,-573"/>
</a>
</g>
</g>
<!-- Node3&#45;&gt;Node2 -->
<g id="edge2_Node000002_Node000003" class="edge">
<title>Node3&#45;&gt;Node2</title>
<g id="a_edge2_Node000002_Node000003"><a xlink:title=" ">
<path fill="none" stroke="#63b8ff" d="M127.23,-565.42C159.29,-535.14 205.43,-491.56 242.61,-456.45"/>
<polygon fill="none" stroke="#63b8ff" points="124.96,-562.75 120.09,-572.17 129.76,-567.84 124.96,-562.75"/>
</a>
</g>
</g>
<!-- Node4 -->
<g id="Node000004" class="node">
<title>Node4</title>
<g id="a_Node000004"><a xlink:href="interface_symfony_1_1_component_1_1_cache_1_1_adapter_1_1_adapter_interface.html" target="_top" xlink:title=" ">
<polygon fill="white" stroke="none" points="145,-751.5 20,-751.5 20,-672.5 145,-672.5 145,-751.5"/>
<text text-anchor="start" x="46.5" y="-738" font-family="Helvetica,sans-Serif" font-size="10.00">AdapterInterface</text>
<text text-anchor="start" x="81" y="-723" font-family="Helvetica,sans-Serif" font-size="10.00"> </text>
<text text-anchor="start" x="24" y="-708" font-family="Helvetica,sans-Serif" font-size="10.00">+</text>
<text text-anchor="start" x="34" y="-708" font-family="Helvetica,sans-Serif" font-size="10.00">getItem($key)</text>
<text text-anchor="start" x="24" y="-693" font-family="Helvetica,sans-Serif" font-size="10.00">+</text>
<text text-anchor="start" x="34" y="-693" font-family="Helvetica,sans-Serif" font-size="10.00">getItems(array $keys=[])</text>
<text text-anchor="start" x="24" y="-678" font-family="Helvetica,sans-Serif" font-size="10.00">+</text>
<text text-anchor="start" x="34" y="-678" font-family="Helvetica,sans-Serif" font-size="10.00">clear(string $prefix=&#39;&#39;)</text>
<polygon fill="#666666" stroke="#666666" points="20,-734.5 20,-734.5 145,-734.5 145,-734.5 20,-734.5"/>
<polygon fill="#666666" stroke="#666666" points="20,-719.5 20,-719.5 145,-719.5 145,-719.5 20,-719.5"/>
<polygon fill="none" stroke="#666666" points="20,-672.5 20,-751.5 145,-751.5 145,-672.5 20,-672.5"/>
</a>
</g>
</g>
<!-- Node4&#45;&gt;Node3 -->
<g id="edge3_Node000003_Node000004" class="edge">
<title>Node4&#45;&gt;Node3</title>
<g id="a_edge3_Node000003_Node000004"><a xlink:title=" ">
<path fill="none" stroke="#63b8ff" d="M85.28,-661.41C85.83,-651.68 86.38,-641.77 86.87,-632.99"/>
<polygon fill="none" stroke="#63b8ff" points="81.8,-660.98 84.73,-671.16 88.79,-661.37 81.8,-660.98"/>
</a>
</g>
</g>
<!-- Node5 -->
<g id="Node000005" class="node">
<title>Node5</title>
<g id="a_Node000005"><a xlink:href="interface_psr_1_1_cache_1_1_cache_item_pool_interface.html" target="_top" xlink:title=" ">
<polygon fill="white" stroke="none" points="165,-1004 0,-1004 0,-791 165,-791 165,-1004"/>
<text text-anchor="start" x="29.62" y="-990.5" font-family="Helvetica,sans-Serif" font-size="10.00">CacheItemPoolInterface</text>
<text text-anchor="start" x="81" y="-975.5" font-family="Helvetica,sans-Serif" font-size="10.00"> </text>
<text text-anchor="start" x="4" y="-960.5" font-family="Helvetica,sans-Serif" font-size="10.00">+</text>
<text text-anchor="start" x="14" y="-960.5" font-family="Helvetica,sans-Serif" font-size="10.00">getItem($key)</text>
<text text-anchor="start" x="4" y="-945.5" font-family="Helvetica,sans-Serif" font-size="10.00">+</text>
<text text-anchor="start" x="14" y="-945.5" font-family="Helvetica,sans-Serif" font-size="10.00">getItems(array $keys</text>
<text text-anchor="start" x="14" y="-934.25" font-family="Helvetica,sans-Serif" font-size="10.00">=array())</text>
<text text-anchor="start" x="4" y="-919.5" font-family="Helvetica,sans-Serif" font-size="10.00">+</text>
<text text-anchor="start" x="14" y="-919.5" font-family="Helvetica,sans-Serif" font-size="10.00">hasItem($key)</text>
<text text-anchor="start" x="4" y="-904.5" font-family="Helvetica,sans-Serif" font-size="10.00">+</text>
<text text-anchor="start" x="14" y="-904.5" font-family="Helvetica,sans-Serif" font-size="10.00">clear()</text>
<text text-anchor="start" x="4" y="-889.5" font-family="Helvetica,sans-Serif" font-size="10.00">+</text>
<text text-anchor="start" x="14" y="-889.5" font-family="Helvetica,sans-Serif" font-size="10.00">deleteItem($key)</text>
<text text-anchor="start" x="4" y="-874.5" font-family="Helvetica,sans-Serif" font-size="10.00">+</text>
<text text-anchor="start" x="14" y="-874.5" font-family="Helvetica,sans-Serif" font-size="10.00">deleteItems(array</text>
<text text-anchor="start" x="14" y="-863.25" font-family="Helvetica,sans-Serif" font-size="10.00"> $keys)</text>
<text text-anchor="start" x="4" y="-848.5" font-family="Helvetica,sans-Serif" font-size="10.00">+</text>
<text text-anchor="start" x="14" y="-848.5" font-family="Helvetica,sans-Serif" font-size="10.00">save(CacheItemInterface</text>
<text text-anchor="start" x="14" y="-837.25" font-family="Helvetica,sans-Serif" font-size="10.00"> $item)</text>
<text text-anchor="start" x="4" y="-822.5" font-family="Helvetica,sans-Serif" font-size="10.00">+</text>
<text text-anchor="start" x="14" y="-822.5" font-family="Helvetica,sans-Serif" font-size="10.00">saveDeferred(CacheItemInterface</text>
<text text-anchor="start" x="14" y="-811.25" font-family="Helvetica,sans-Serif" font-size="10.00"> $item)</text>
<text text-anchor="start" x="4" y="-796.5" font-family="Helvetica,sans-Serif" font-size="10.00">+</text>
<text text-anchor="start" x="14" y="-796.5" font-family="Helvetica,sans-Serif" font-size="10.00">commit()</text>
<polygon fill="#666666" stroke="#666666" points="0,-987 0,-987 165,-987 165,-987 0,-987"/>
<polygon fill="#666666" stroke="#666666" points="0,-972 0,-972 165,-972 165,-972 0,-972"/>
<polygon fill="none" stroke="#666666" points="0,-791 0,-1004 165,-1004 165,-791 0,-791"/>
</a>
</g>
</g>
<!-- Node5&#45;&gt;Node4 -->
<g id="edge4_Node000004_Node000005" class="edge">
<title>Node5&#45;&gt;Node4</title>
<g id="a_edge4_Node000004_Node000005"><a xlink:title=" ">
<path fill="none" stroke="#63b8ff" d="M82.5,-779.88C82.5,-769.68 82.5,-759.93 82.5,-751.18"/>
<polygon fill="none" stroke="#63b8ff" points="79,-779.57 82.5,-789.57 86,-779.57 79,-779.57"/>
</a>
</g>
</g>
<!-- Node6 -->
<g id="Node000006" class="node">
<title>Node6</title>
<g id="a_Node000006"><a xlink:href="interface_symfony_1_1_contracts_1_1_cache_1_1_tag_aware_cache_interface.html" target="_top" xlink:title=" ">
<polygon fill="white" stroke="none" points="292.5,-633 172.5,-633 172.5,-573 292.5,-573 292.5,-633"/>
<text text-anchor="start" x="177.38" y="-619.5" font-family="Helvetica,sans-Serif" font-size="10.00">TagAwareCacheInterface</text>
<text text-anchor="start" x="231" y="-604.5" font-family="Helvetica,sans-Serif" font-size="10.00"> </text>
<text text-anchor="start" x="180" y="-589.5" font-family="Helvetica,sans-Serif" font-size="10.00">+</text>
<text text-anchor="start" x="193.5" y="-589.5" font-family="Helvetica,sans-Serif" font-size="10.00">invalidateTags(array</text>
<text text-anchor="start" x="193.5" y="-578.25" font-family="Helvetica,sans-Serif" font-size="10.00"> $tags)</text>
<polygon fill="#666666" stroke="#666666" points="172.5,-616 172.5,-616 292.5,-616 292.5,-616 172.5,-616"/>
<polygon fill="#666666" stroke="#666666" points="172.5,-601 172.5,-601 292.5,-601 292.5,-601 172.5,-601"/>
<polygon fill="none" stroke="#666666" points="172.5,-573 172.5,-633 292.5,-633 292.5,-573 172.5,-573"/>
</a>
</g>
</g>
<!-- Node6&#45;&gt;Node2 -->
<g id="edge5_Node000002_Node000006" class="edge">
<title>Node6&#45;&gt;Node2</title>
<g id="a_edge5_Node000002_Node000006"><a xlink:title=" ">
<path fill="none" stroke="#63b8ff" d="M246.42,-562.55C249.23,-554.6 252.33,-545.82 255.59,-536.58"/>
<polygon fill="none" stroke="#63b8ff" points="243.19,-561.18 243.17,-571.78 249.8,-563.51 243.19,-561.18"/>
</a>
</g>
</g>
<!-- Node7 -->
<g id="Node000007" class="node">
<title>Node7</title>
<g id="a_Node000007"><a xlink:href="interface_symfony_1_1_contracts_1_1_cache_1_1_cache_interface.html" target="_top" xlink:title=" ">
<polygon fill="white" stroke="none" points="309.5,-755 163.5,-755 163.5,-669 309.5,-669 309.5,-755"/>
<text text-anchor="start" x="203.12" y="-741.5" font-family="Helvetica,sans-Serif" font-size="10.00">CacheInterface</text>
<text text-anchor="start" x="235" y="-726.5" font-family="Helvetica,sans-Serif" font-size="10.00"> </text>
<text text-anchor="start" x="167.5" y="-711.5" font-family="Helvetica,sans-Serif" font-size="10.00">+</text>
<text text-anchor="start" x="177.5" y="-711.5" font-family="Helvetica,sans-Serif" font-size="10.00">get(string $key, callable</text>
<text text-anchor="start" x="177.5" y="-700.25" font-family="Helvetica,sans-Serif" font-size="10.00"> $callback, float $beta</text>
<text text-anchor="start" x="177.5" y="-689" font-family="Helvetica,sans-Serif" font-size="10.00">=null, array &amp;$metadata=null)</text>
<text text-anchor="start" x="167.5" y="-674.5" font-family="Helvetica,sans-Serif" font-size="10.00">+</text>
<text text-anchor="start" x="177.5" y="-674.5" font-family="Helvetica,sans-Serif" font-size="10.00">delete(string $key)</text>
<polygon fill="#666666" stroke="#666666" points="163.5,-738 163.5,-738 309.5,-738 309.5,-738 163.5,-738"/>
<polygon fill="#666666" stroke="#666666" points="163.5,-723 163.5,-723 309.5,-723 309.5,-723 163.5,-723"/>
<polygon fill="none" stroke="#666666" points="163.5,-669 163.5,-755 309.5,-755 309.5,-669 163.5,-669"/>
</a>
</g>
</g>
<!-- Node7&#45;&gt;Node6 -->
<g id="edge6_Node000006_Node000007" class="edge">
<title>Node7&#45;&gt;Node6</title>
<g id="a_edge6_Node000006_Node000007"><a xlink:title=" ">
<path fill="none" stroke="#63b8ff" d="M234.5,-657.55C234.19,-649.08 233.87,-640.61 233.58,-632.99"/>
<polygon fill="none" stroke="#63b8ff" points="231,-657.64 234.87,-667.51 238,-657.38 231,-657.64"/>
</a>
</g>
</g>
<!-- Node8 -->
<g id="Node000008" class="node">
<title>Node8</title>
<g id="a_Node000008"><a xlink:href="interface_psr_1_1_log_1_1_logger_aware_interface.html" target="_top" xlink:title=" ">
<polygon fill="white" stroke="none" points="442,-633 311,-633 311,-573 442,-573 442,-633"/>
<text text-anchor="start" x="328.88" y="-619.5" font-family="Helvetica,sans-Serif" font-size="10.00">LoggerAwareInterface</text>
<text text-anchor="start" x="375" y="-604.5" font-family="Helvetica,sans-Serif" font-size="10.00"> </text>
<text text-anchor="start" x="315" y="-589.5" font-family="Helvetica,sans-Serif" font-size="10.00">+</text>
<text text-anchor="start" x="325" y="-589.5" font-family="Helvetica,sans-Serif" font-size="10.00">setLogger(LoggerInterface</text>
<text text-anchor="start" x="325" y="-578.25" font-family="Helvetica,sans-Serif" font-size="10.00"> $logger)</text>
<polygon fill="#666666" stroke="#666666" points="311,-616 311,-616 442,-616 442,-616 311,-616"/>
<polygon fill="#666666" stroke="#666666" points="311,-601 311,-601 442,-601 442,-601 311,-601"/>
<polygon fill="none" stroke="#666666" points="311,-573 311,-633 442,-633 442,-573 311,-573"/>
</a>
</g>
</g>
<!-- Node8&#45;&gt;Node2 -->
<g id="edge7_Node000002_Node000008" class="edge">
<title>Node8&#45;&gt;Node2</title>
<g id="a_edge7_Node000002_Node000008"><a xlink:title=" ">
<path fill="none" stroke="#63b8ff" d="M362.58,-562.55C359.77,-554.6 356.67,-545.82 353.41,-536.58"/>
<polygon fill="none" stroke="#63b8ff" points="359.2,-563.51 365.83,-571.78 365.81,-561.18 359.2,-563.51"/>
</a>
</g>
</g>
<!-- Node9 -->
<g id="Node000009" class="node">
<title>Node9</title>
<g id="a_Node000009"><a xlink:href="interface_symfony_1_1_component_1_1_cache_1_1_resettable_interface.html" target="_top" xlink:title=" ">
<polygon fill="white" stroke="none" points="555,-627.5 460,-627.5 460,-578.5 555,-578.5 555,-627.5"/>
<text text-anchor="start" x="464.75" y="-614" font-family="Helvetica,sans-Serif" font-size="10.00">ResettableInterface</text>
<text text-anchor="start" x="506" y="-599" font-family="Helvetica,sans-Serif" font-size="10.00"> </text>
<text text-anchor="start" x="506" y="-584" font-family="Helvetica,sans-Serif" font-size="10.00"> </text>
<polygon fill="#666666" stroke="#666666" points="460,-610.5 460,-610.5 555,-610.5 555,-610.5 460,-610.5"/>
<polygon fill="#666666" stroke="#666666" points="460,-595.5 460,-595.5 555,-595.5 555,-595.5 460,-595.5"/>
<polygon fill="none" stroke="#666666" points="460,-578.5 460,-627.5 555,-627.5 555,-578.5 460,-578.5"/>
</a>
</g>
</g>
<!-- Node9&#45;&gt;Node2 -->
<g id="edge8_Node000002_Node000009" class="edge">
<title>Node9&#45;&gt;Node2</title>
<g id="a_edge8_Node000002_Node000009"><a xlink:title=" ">
<path fill="none" stroke="#63b8ff" d="M476.41,-570.76C447.25,-541.45 402.79,-496.78 366.4,-460.2"/>
<polygon fill="none" stroke="#63b8ff" points="473.61,-572.91 483.15,-577.53 478.57,-567.97 473.61,-572.91"/>
</a>
</g>
</g>
<!-- Node10 -->
<g id="Node000010" class="node">
<title>Node10</title>
<g id="a_Node000010"><a xlink:href="interface_symfony_1_1_contracts_1_1_service_1_1_reset_interface.html" target="_top" xlink:title=" ">
<polygon fill="white" stroke="none" points="544.5,-736.5 470.5,-736.5 470.5,-687.5 544.5,-687.5 544.5,-736.5"/>
<text text-anchor="start" x="475.25" y="-723" font-family="Helvetica,sans-Serif" font-size="10.00">ResetInterface</text>
<text text-anchor="start" x="506" y="-708" font-family="Helvetica,sans-Serif" font-size="10.00"> </text>
<text text-anchor="start" x="481.5" y="-693" font-family="Helvetica,sans-Serif" font-size="10.00">+</text>
<text text-anchor="start" x="498.5" y="-693" font-family="Helvetica,sans-Serif" font-size="10.00">reset()</text>
<polygon fill="#666666" stroke="#666666" points="470.5,-719.5 470.5,-719.5 544.5,-719.5 544.5,-719.5 470.5,-719.5"/>
<polygon fill="#666666" stroke="#666666" points="470.5,-704.5 470.5,-704.5 544.5,-704.5 544.5,-704.5 470.5,-704.5"/>
<polygon fill="none" stroke="#666666" points="470.5,-687.5 470.5,-736.5 544.5,-736.5 544.5,-687.5 470.5,-687.5"/>
</a>
</g>
</g>
<!-- Node10&#45;&gt;Node9 -->
<g id="edge9_Node000009_Node000010" class="edge">
<title>Node10&#45;&gt;Node9</title>
<g id="a_edge9_Node000009_Node000010"><a xlink:title=" ">
<path fill="none" stroke="#63b8ff" d="M507.5,-676.41C507.5,-660.39 507.5,-641.77 507.5,-627.43"/>
<polygon fill="none" stroke="#63b8ff" points="504,-676 507.5,-686 511,-676 504,-676"/>
</a>
</g>
</g>
</g>
</svg>

<g id="navigator" transform="translate(0 0)" fill="#404254">
  <rect fill="#f2f5e9" fill-opacity="0.5" stroke="#606060" stroke-width=".5" x="0" y="0" width="60" height="60"/>
  <use id="zoomplus" xlink:href="#zoomPlus" x="17" y="9" onmousedown="handleZoom(evt,'in')"/>
  <use id="zoomminus" xlink:href="#zoomMin" x="42" y="9" onmousedown="handleZoom(evt,'out')"/>
  <use id="reset" xlink:href="#resetDef" x="30" y="36" onmousedown="handleReset()"/>
   <use id="arrowup" xlink:href="#arrowUp" x="0" y="0" onmousedown="handlePan(0,-1)"/>
  <use id="arrowright" xlink:href="#arrowRight" x="0" y="0" onmousedown="handlePan(1,0)"/>
  <use id="arrowdown" xlink:href="#arrowDown" x="0" y="0" onmousedown="handlePan(0,1)"/>
  <use id="arrowleft" xlink:href="#arrowLeft" x="0" y="0" onmousedown="handlePan(-1,0)"/>
</g>
<svg viewBox="0 0 15 15" width="100%" height="30px" preserveAspectRatio="xMaxYMin meet">
 <g id="arrow_out" transform="scale(0.3 0.3)">
  <a xlink:href="class_symfony_1_1_component_1_1_cache_1_1_adapter_1_1_redis_tag_aware_adapter__inherit__graph_org.svg" target="_base">
   <rect id="button" ry="5" rx="5" y="6" x="6" height="38" width="38"
        fill="#f2f5e9" fill-opacity="0.5" stroke="#606060" stroke-width="1.0"/>
   <path id="arrow"
     d="M 11.500037,31.436501 C 11.940474,20.09759 22.043105,11.32322 32.158766,21.979434 L 37.068811,17.246167 C 37.068811,17.246167 37.088388,32 37.088388,32 L 22.160133,31.978069 C 22.160133,31.978069 26.997745,27.140456 26.997745,27.140456 C 18.528582,18.264221 13.291696,25.230495 11.500037,31.436501 z"
     style="fill:#404040;"/>
  </a>
 </g>
</svg>

<style type='text/css'>
<![CDATA[
[data-mouse-over-selected='false'] { opacity: 0.7; }
[data-mouse-over-selected='true']  { opacity: 1.0; }
]]>
</style>
<script type="application/ecmascript"><![CDATA[
document.addEventListener('DOMContentLoaded', (event) => {
  highlightEdges();
  highlightAdjacentNodes();
});
]]></script>
</svg>
