<?xml version="1.0" encoding="UTF-8" standalone="no"?>
<!DOCTYPE svg PUBLIC "-//W3C//DTD SVG 1.1//EN"
 "http://www.w3.org/Graphics/SVG/1.1/DTD/svg11.dtd">
<!-- Generated by graphviz version 10.0.1 (20240210.2158)
 -->
<!-- Title: ristretto255_sub Pages: 1 -->
<!--zoomable 580 -->

<svg id="main" version="1.1" xmlns="http://www.w3.org/2000/svg" xmlns:xlink="http://www.w3.org/1999/xlink" xml:space="preserve" onload="init(evt)">
<style type="text/css"><![CDATA[
.node, .edge {opacity: 0.7;}
.node.selected, .edge.selected {opacity: 1;}
.edge:hover path { stroke: red; }
.edge:hover polygon { stroke: red; fill: red; }
]]></style>

<defs>
  <circle id="rim" cx="0" cy="0" r="7"/>
  <circle id="rim2" cx="0" cy="0" r="3.5"/>
  <g id="zoomPlus">
    <use xlink:href="#rim" fill="#404040"><set attributeName="fill" to="#808080" begin="zoomplus.mouseover" end="zoomplus.mouseout"/></use>
    <path d="M-4,0h8M0,-4v8" fill="none" stroke="white" stroke-width="1.5" pointer-events="none"/>
  </g>
  <g id="zoomMin">
    <use xlink:href="#rim" fill="#404040"><set attributeName="fill" to="#808080" begin="zoomminus.mouseover" end="zoomminus.mouseout"/></use>
    <path d="M-4,0h8" fill="none" stroke="white" stroke-width="1.5" pointer-events="none"/>
  </g>
  <g id="arrowUp" transform="translate(30 24)">
    <use xlink:href="#rim"/>
    <path pointer-events="none" fill="none" stroke="white" stroke-width="1.5" d="M0,-3.0v7 M-2.5,-0.5L0,-3.0L2.5,-0.5"/>
  </g>
  <g id="arrowRight" transform="rotate(90) translate(36 -43)">
    <use xlink:href="#rim"/>
    <path pointer-events="none" fill="none" stroke="white" stroke-width="1.5" d="M0,-3.0v7 M-2.5,-0.5L0,-3.0L2.5,-0.5"/>
  </g>
  <g id="arrowDown" transform="rotate(180) translate(-30 -48)">
    <use xlink:href="#rim"/>
    <path pointer-events="none" fill="none" stroke="white" stroke-width="1.5" d="M0,-3.0v7 M-2.5,-0.5L0,-3.0L2.5,-0.5"/>
  </g>
  <g id="arrowLeft" transform="rotate(270) translate(-36 17)">
    <use xlink:href="#rim"/>
    <path pointer-events="none" fill="none" stroke="white" stroke-width="1.5" d="M0,-3.0v7 M-2.5,-0.5L0,-3.0L2.5,-0.5"/>
  </g>
  <g id="resetDef">
    <use xlink:href="#rim2" fill="#404040"><set attributeName="fill" to="#808080" begin="reset.mouseover" end="reset.mouseout"/></use>
  </g>
</defs>
<script type="application/ecmascript">
var viewWidth = 1260;
var viewHeight = 580;
var sectionId = 'dynsection-44';
</script>
<script type="application/ecmascript" xlink:href="svg.min.js"/>
<svg id="graph" class="graph">
<g id="viewport">
<title>ristretto255_sub</title>
<!-- Node1 -->
<g id="Node000001" class="node">
<title>Node1</title>
<g id="a_Node000001"><a xlink:title=" ">
<polygon fill="#999999" stroke="#666666" points="85.75,-276.14 0,-276.14 0,-256.89 85.75,-256.89 85.75,-276.14"/>
<text text-anchor="middle" x="42.88" y="-262.64" font-family="Helvetica,sans-Serif" font-size="10.00">ristretto255_sub</text>
</a>
</g>
</g>
<!-- Node2 -->
<g id="Node000002" class="node">
<title>Node2</title>
<g id="a_Node000002"><a xlink:href="class_paragon_i_e___sodium___core___curve25519.html#a1b9355fd9a5878362911c83bea5120b9" target="_top" xlink:title=" ">
<polygon fill="white" stroke="#666666" points="264.5,-115.76 121.75,-115.76 121.75,-85.26 264.5,-85.26 264.5,-115.76"/>
<text text-anchor="start" x="129.75" y="-102.26" font-family="Helvetica,sans-Serif" font-size="10.00">ParagonIE_Sodium_Core</text>
<text text-anchor="middle" x="193.12" y="-91.01" font-family="Helvetica,sans-Serif" font-size="10.00">_Curve25519\ge_p1p1_to_p3</text>
</a>
</g>
</g>
<!-- Node1&#45;&gt;Node2 -->
<g id="edge1_Node000001_Node000002" class="edge">
<title>Node1&#45;&gt;Node2</title>
<g id="a_edge1_Node000001_Node000002"><a xlink:title=" ">
<path fill="none" stroke="#63b8ff" d="M50.62,-256.48C63.48,-237.65 92.83,-196.03 121.75,-164.51 135.03,-150.04 151.16,-135.2 164.63,-123.46"/>
<polygon fill="#63b8ff" stroke="#63b8ff" points="166.59,-126.38 171.89,-117.21 162.03,-121.08 166.59,-126.38"/>
</a>
</g>
</g>
<!-- Node6 -->
<g id="Node000006" class="node">
<title>Node6</title>
<g id="a_Node000006"><a xlink:href="class_paragon_i_e___sodium___core___curve25519.html#a613d9434e170ba988d1212620358a5ce" target="_top" xlink:title=" ">
<polygon fill="white" stroke="#666666" points="430.88,-344.76 304.62,-344.76 304.62,-314.26 430.88,-314.26 430.88,-344.76"/>
<text text-anchor="start" x="312.62" y="-331.26" font-family="Helvetica,sans-Serif" font-size="10.00">ParagonIE_Sodium_Core</text>
<text text-anchor="middle" x="367.75" y="-320.01" font-family="Helvetica,sans-Serif" font-size="10.00">_Curve25519\ge_sub</text>
</a>
</g>
</g>
<!-- Node1&#45;&gt;Node6 -->
<g id="edge5_Node000001_Node000006" class="edge">
<title>Node1&#45;&gt;Node6</title>
<g id="a_edge5_Node000001_Node000006"><a xlink:title=" ">
<path fill="none" stroke="#63b8ff" d="M86.09,-274.75C138.57,-284.99 229.05,-302.64 293.08,-315.14"/>
<polygon fill="#63b8ff" stroke="#63b8ff" points="292.34,-318.56 302.82,-317.04 293.68,-311.69 292.34,-318.56"/>
</a>
</g>
</g>
<!-- Node8 -->
<g id="Node000008" class="node">
<title>Node8</title>
<g id="a_Node000008"><a xlink:href="class_paragon_i_e___sodium___core___ristretto255.html#aa7bb6548261c9912b833f16d9e0784ca" target="_top" xlink:title=" ">
<polygon fill="white" stroke="#666666" points="249.88,-420.14 136.38,-420.14 136.38,-400.89 249.88,-400.89 249.88,-420.14"/>
<text text-anchor="middle" x="193.12" y="-406.64" font-family="Helvetica,sans-Serif" font-size="10.00">ristretto255_frombytes</text>
</a>
</g>
</g>
<!-- Node1&#45;&gt;Node8 -->
<g id="edge9_Node000001_Node000008" class="edge">
<title>Node1&#45;&gt;Node8</title>
<g id="a_edge9_Node000001_Node000008"><a xlink:title=" ">
<path fill="none" stroke="#63b8ff" d="M54.06,-276.41C78.82,-300.45 142.4,-362.21 173.89,-392.8"/>
<polygon fill="#63b8ff" stroke="#63b8ff" points="171.17,-395.03 180.78,-399.49 176.04,-390.01 171.17,-395.03"/>
</a>
</g>
</g>
<!-- Node16 -->
<g id="Node000016" class="node">
<title>Node16</title>
<g id="a_Node000016"><a xlink:href="class_paragon_i_e___sodium___core___ristretto255.html#a786c746eff25ae4f0b1c083d235edf28" target="_top" xlink:title=" ">
<polygon fill="white" stroke="#666666" points="252.12,-193.14 134.12,-193.14 134.12,-173.89 252.12,-173.89 252.12,-193.14"/>
<text text-anchor="middle" x="193.12" y="-179.64" font-family="Helvetica,sans-Serif" font-size="10.00">ristretto255_p3_tobytes</text>
</a>
</g>
</g>
<!-- Node1&#45;&gt;Node16 -->
<g id="edge25_Node000001_Node000016" class="edge">
<title>Node1&#45;&gt;Node16</title>
<g id="a_edge25_Node000001_Node000016"><a xlink:title=" ">
<path fill="none" stroke="#63b8ff" d="M61.76,-256.5C87.25,-242.23 134.26,-215.91 164.32,-199.08"/>
<polygon fill="#63b8ff" stroke="#63b8ff" points="165.84,-202.24 172.86,-194.3 162.42,-196.13 165.84,-202.24"/>
</a>
</g>
</g>
<!-- Node3 -->
<g id="Node000003" class="node">
<title>Node3</title>
<g id="a_Node000003"><a xlink:href="class_paragon_i_e___sodium___core___curve25519.html#a64516f7aacad228d305e021632044d36" target="_top" xlink:title=" ">
<polygon fill="white" stroke="#666666" points="597.25,-279.76 471,-279.76 471,-249.26 597.25,-249.26 597.25,-279.76"/>
<text text-anchor="start" x="479" y="-266.26" font-family="Helvetica,sans-Serif" font-size="10.00">ParagonIE_Sodium_Core</text>
<text text-anchor="middle" x="534.12" y="-255.01" font-family="Helvetica,sans-Serif" font-size="10.00">_Curve25519\fe_mul</text>
</a>
</g>
</g>
<!-- Node2&#45;&gt;Node3 -->
<g id="edge2_Node000002_Node000003" class="edge">
<title>Node2&#45;&gt;Node3</title>
<g id="a_edge2_Node000002_Node000003"><a xlink:title=" ">
<path fill="none" stroke="#63b8ff" d="M220.3,-84.81C267.15,-58.95 366.79,-14.36 435,-57.51 498.56,-97.72 521.76,-191.47 529.55,-237.73"/>
<polygon fill="#63b8ff" stroke="#63b8ff" points="526.06,-238.08 531.05,-247.42 532.97,-237.01 526.06,-238.08"/>
</a>
</g>
</g>
<!-- Node4 -->
<g id="Node000004" class="node">
<title>Node4</title>
<g id="a_Node000004"><a xlink:href="class_paragon_i_e___sodium___core___curve25519.html#ae05bd0648b1253432e7c969447d1b77e" target="_top" xlink:title=" ">
<polygon fill="white" stroke="#666666" points="1090,-344.76 957.75,-344.76 957.75,-314.26 1090,-314.26 1090,-344.76"/>
<text text-anchor="start" x="965.75" y="-331.26" font-family="Helvetica,sans-Serif" font-size="10.00">ParagonIE_Sodium_Core</text>
<text text-anchor="middle" x="1023.88" y="-320.01" font-family="Helvetica,sans-Serif" font-size="10.00">_Curve25519\fe_normalize</text>
</a>
</g>
</g>
<!-- Node3&#45;&gt;Node4 -->
<g id="edge3_Node000003_Node000004" class="edge">
<title>Node3&#45;&gt;Node4</title>
<g id="a_edge3_Node000003_Node000004"><a xlink:title=" ">
<path fill="none" stroke="#63b8ff" d="M597.39,-272.81C686.36,-284.67 849.72,-306.44 946.07,-319.28"/>
<polygon fill="#63b8ff" stroke="#63b8ff" points="945.61,-322.74 955.98,-320.6 946.53,-315.81 945.61,-322.74"/>
</a>
</g>
</g>
<!-- Node5 -->
<g id="Node000005" class="node">
<title>Node5</title>
<g id="a_Node000005"><a xlink:href="class_paragon_i_e___sodium___core___curve25519.html#a93bcc24a23d277ecec10386f3f2e38d5" target="_top" xlink:title=" ">
<polygon fill="white" stroke="#666666" points="1252.25,-179.76 1126,-179.76 1126,-149.26 1252.25,-149.26 1252.25,-179.76"/>
<text text-anchor="start" x="1134" y="-166.26" font-family="Helvetica,sans-Serif" font-size="10.00">ParagonIE_Sodium_Core</text>
<text text-anchor="middle" x="1189.12" y="-155.01" font-family="Helvetica,sans-Serif" font-size="10.00">_Curve25519\fe_copy</text>
</a>
</g>
</g>
<!-- Node4&#45;&gt;Node5 -->
<g id="edge4_Node000004_Node000005" class="edge">
<title>Node4&#45;&gt;Node5</title>
<g id="a_edge4_Node000004_Node000005"><a xlink:title=" ">
<path fill="none" stroke="#63b8ff" d="M1040.23,-313.99C1068.92,-285 1130.78,-222.47 1164.7,-188.18"/>
<polygon fill="#63b8ff" stroke="#63b8ff" points="1167.08,-190.76 1171.62,-181.19 1162.1,-185.84 1167.08,-190.76"/>
</a>
</g>
</g>
<!-- Node6&#45;&gt;Node3 -->
<g id="edge6_Node000006_Node000003" class="edge">
<title>Node6&#45;&gt;Node3</title>
<g id="a_edge6_Node000006_Node000003"><a xlink:title=" ">
<path fill="none" stroke="#63b8ff" d="M408.54,-313.78C430.87,-304.95 458.95,-293.84 482.79,-284.41"/>
<polygon fill="#63b8ff" stroke="#63b8ff" points="484,-287.7 492.01,-280.77 481.42,-281.19 484,-287.7"/>
</a>
</g>
</g>
<!-- Node7 -->
<g id="Node000007" class="node">
<title>Node7</title>
<g id="a_Node000007"><a xlink:href="class_paragon_i_e___sodium___core___curve25519.html#a1e43e8c9928ebeed3060bc1e962a8530" target="_top" xlink:title=" ">
<polygon fill="white" stroke="#666666" points="597.25,-344.76 471,-344.76 471,-314.26 597.25,-314.26 597.25,-344.76"/>
<text text-anchor="start" x="479" y="-331.26" font-family="Helvetica,sans-Serif" font-size="10.00">ParagonIE_Sodium_Core</text>
<text text-anchor="middle" x="534.12" y="-320.01" font-family="Helvetica,sans-Serif" font-size="10.00">_Curve25519\fe_sub</text>
</a>
</g>
</g>
<!-- Node6&#45;&gt;Node7 -->
<g id="edge7_Node000006_Node000007" class="edge">
<title>Node6&#45;&gt;Node7</title>
<g id="a_edge7_Node000006_Node000007"><a xlink:title=" ">
<path fill="none" stroke="#63b8ff" d="M431.36,-329.51C440.52,-329.51 450.02,-329.51 459.38,-329.51"/>
<polygon fill="#63b8ff" stroke="#63b8ff" points="459.17,-333.01 469.17,-329.51 459.17,-326.01 459.17,-333.01"/>
</a>
</g>
</g>
<!-- Node7&#45;&gt;Node4 -->
<g id="edge8_Node000007_Node000004" class="edge">
<title>Node7&#45;&gt;Node4</title>
<g id="a_edge8_Node000007_Node000004"><a xlink:title=" ">
<path fill="none" stroke="#63b8ff" d="M597.39,-329.51C686.36,-329.51 849.72,-329.51 946.07,-329.51"/>
<polygon fill="#63b8ff" stroke="#63b8ff" points="945.97,-333.01 955.97,-329.51 945.97,-326.01 945.97,-333.01"/>
</a>
</g>
</g>
<!-- Node8&#45;&gt;Node3 -->
<g id="edge16_Node000008_Node000003" class="edge">
<title>Node8&#45;&gt;Node3</title>
<g id="a_edge16_Node000008_Node000003"><a xlink:title=" ">
<path fill="none" stroke="#63b8ff" d="M201,-400.41C216.18,-379.01 254.85,-329.09 300.5,-305.51 349.65,-280.13 411.58,-270.12 459.18,-266.32"/>
<polygon fill="#63b8ff" stroke="#63b8ff" points="459.42,-269.81 469.14,-265.61 458.92,-262.83 459.42,-269.81"/>
</a>
</g>
</g>
<!-- Node8&#45;&gt;Node7 -->
<g id="edge20_Node000008_Node000007" class="edge">
<title>Node8&#45;&gt;Node7</title>
<g id="a_edge20_Node000008_Node000007"><a xlink:title=" ">
<path fill="none" stroke="#63b8ff" d="M200.28,-420.56C214.57,-442.8 252.49,-495.81 300.5,-515.51 355.8,-538.21 388.37,-552.92 435,-515.51 492.53,-469.36 422.9,-409.43 471,-353.51 471.25,-353.22 471.51,-352.92 471.78,-352.63"/>
<polygon fill="#63b8ff" stroke="#63b8ff" points="473.93,-355.4 479.21,-346.22 469.35,-350.1 473.93,-355.4"/>
</a>
</g>
</g>
<!-- Node9 -->
<g id="Node000009" class="node">
<title>Node9</title>
<g id="a_Node000009"><a xlink:href="class_paragon_i_e___sodium___core___curve25519.html#a182693398bc40853b69a13d89f7c259b" target="_top" xlink:title=" ">
<polygon fill="white" stroke="#666666" points="430.88,-220.76 304.62,-220.76 304.62,-190.26 430.88,-190.26 430.88,-220.76"/>
<text text-anchor="start" x="312.62" y="-207.26" font-family="Helvetica,sans-Serif" font-size="10.00">ParagonIE_Sodium_Core</text>
<text text-anchor="middle" x="367.75" y="-196.01" font-family="Helvetica,sans-Serif" font-size="10.00">_Curve25519\fe_1</text>
</a>
</g>
</g>
<!-- Node8&#45;&gt;Node9 -->
<g id="edge10_Node000008_Node000009" class="edge">
<title>Node8&#45;&gt;Node9</title>
<g id="a_edge10_Node000008_Node000009"><a xlink:title=" ">
<path fill="none" stroke="#63b8ff" d="M197.58,-400.71C208.32,-371.54 243.86,-284.18 300.5,-234.51 303.66,-231.74 307.13,-229.2 310.76,-226.87"/>
<polygon fill="#63b8ff" stroke="#63b8ff" points="312.43,-229.95 319.39,-221.96 308.97,-223.87 312.43,-229.95"/>
</a>
</g>
</g>
<!-- Node10 -->
<g id="Node000010" class="node">
<title>Node10</title>
<g id="a_Node000010"><a xlink:href="class_paragon_i_e___sodium___core___ristretto255.html#a0eb235a6349515622eaf8df07820986a" target="_top" xlink:title=" ">
<polygon fill="white" stroke="#666666" points="556.75,-382.14 511.5,-382.14 511.5,-362.89 556.75,-362.89 556.75,-382.14"/>
<text text-anchor="middle" x="534.12" y="-368.64" font-family="Helvetica,sans-Serif" font-size="10.00">fe_abs</text>
</a>
</g>
</g>
<!-- Node8&#45;&gt;Node10 -->
<g id="edge11_Node000008_Node000010" class="edge">
<title>Node8&#45;&gt;Node10</title>
<g id="a_edge11_Node000008_Node000010"><a xlink:title=" ">
<path fill="none" stroke="#63b8ff" d="M250.29,-407.87C299.23,-405.15 372.03,-400.06 435,-391.51 456.79,-388.55 481.04,-383.87 499.99,-379.89"/>
<polygon fill="#63b8ff" stroke="#63b8ff" points="500.5,-383.36 509.55,-377.85 499.04,-376.52 500.5,-383.36"/>
</a>
</g>
</g>
<!-- Node12 -->
<g id="Node000012" class="node">
<title>Node12</title>
<g id="a_Node000012"><a xlink:href="class_paragon_i_e___sodium___core___curve25519.html#a7a62200990869547d2aeca55fed70222" target="_top" xlink:title=" ">
<polygon fill="white" stroke="#666666" points="921.75,-387.76 795.5,-387.76 795.5,-357.26 921.75,-357.26 921.75,-387.76"/>
<text text-anchor="start" x="803.5" y="-374.26" font-family="Helvetica,sans-Serif" font-size="10.00">ParagonIE_Sodium_Core</text>
<text text-anchor="middle" x="858.62" y="-363.01" font-family="Helvetica,sans-Serif" font-size="10.00">_Curve25519\fe_neg</text>
</a>
</g>
</g>
<!-- Node8&#45;&gt;Node12 -->
<g id="edge17_Node000008_Node000012" class="edge">
<title>Node8&#45;&gt;Node12</title>
<g id="a_edge17_Node000008_Node000012"><a xlink:title=" ">
<path fill="none" stroke="#63b8ff" d="M250.16,-411.76C266.4,-412.07 284.15,-412.36 300.5,-412.51 504.7,-414.43 556.96,-417.57 759.5,-391.51 767.43,-390.49 775.68,-389.22 783.88,-387.83"/>
<polygon fill="#63b8ff" stroke="#63b8ff" points="784.27,-391.31 793.51,-386.13 783.05,-384.42 784.27,-391.31"/>
</a>
</g>
</g>
<!-- Node13 -->
<g id="Node000013" class="node">
<title>Node13</title>
<g id="a_Node000013"><a xlink:href="class_paragon_i_e___sodium___core___curve25519.html#a055f1960dce7517e824085d85e1da538" target="_top" xlink:title=" ">
<polygon fill="white" stroke="#666666" points="434.62,-506.76 300.88,-506.76 300.88,-476.26 434.62,-476.26 434.62,-506.76"/>
<text text-anchor="start" x="308.88" y="-493.26" font-family="Helvetica,sans-Serif" font-size="10.00">ParagonIE_Sodium_Core</text>
<text text-anchor="middle" x="367.75" y="-482.01" font-family="Helvetica,sans-Serif" font-size="10.00">_Curve25519\fe_frombytes</text>
</a>
</g>
</g>
<!-- Node8&#45;&gt;Node13 -->
<g id="edge15_Node000008_Node000013" class="edge">
<title>Node8&#45;&gt;Node13</title>
<g id="a_edge15_Node000008_Node000013"><a xlink:title=" ">
<path fill="none" stroke="#63b8ff" d="M214,-420.54C235.28,-431.2 270.09,-448.43 300.5,-462.51 306.78,-465.42 313.43,-468.42 319.99,-471.34"/>
<polygon fill="#63b8ff" stroke="#63b8ff" points="318.23,-474.39 328.79,-475.22 321.06,-467.98 318.23,-474.39"/>
</a>
</g>
</g>
<!-- Node14 -->
<g id="Node000014" class="node">
<title>Node14</title>
<g id="a_Node000014"><a xlink:href="class_paragon_i_e___sodium___core___curve25519.html#a59f7bf4bc4e4cedd40177472cdc31cb8" target="_top" xlink:title=" ">
<polygon fill="white" stroke="#666666" points="759.5,-548.76 633.25,-548.76 633.25,-518.26 759.5,-518.26 759.5,-548.76"/>
<text text-anchor="start" x="641.25" y="-535.26" font-family="Helvetica,sans-Serif" font-size="10.00">ParagonIE_Sodium_Core</text>
<text text-anchor="middle" x="696.38" y="-524.01" font-family="Helvetica,sans-Serif" font-size="10.00">_Curve25519\fe_sq</text>
</a>
</g>
</g>
<!-- Node8&#45;&gt;Node14 -->
<g id="edge18_Node000008_Node000014" class="edge">
<title>Node8&#45;&gt;Node14</title>
<g id="a_edge18_Node000008_Node000014"><a xlink:title=" ">
<path fill="none" stroke="#63b8ff" d="M198.5,-420.51C210.41,-446.28 246.21,-514.79 300.5,-540.51 406.58,-590.78 547.37,-570.68 629.01,-551.85"/>
<polygon fill="#63b8ff" stroke="#63b8ff" points="629.73,-555.28 638.66,-549.56 628.12,-548.47 629.73,-555.28"/>
</a>
</g>
</g>
<!-- Node15 -->
<g id="Node000015" class="node">
<title>Node15</title>
<g id="a_Node000015"><a xlink:href="class_paragon_i_e___sodium___core___ristretto255.html#a3ab97af3c8c8ad2d57e1e5058d9f7e6f" target="_top" xlink:title=" ">
<polygon fill="white" stroke="#666666" points="432.38,-382.14 303.12,-382.14 303.12,-362.89 432.38,-362.89 432.38,-382.14"/>
<text text-anchor="middle" x="367.75" y="-368.64" font-family="Helvetica,sans-Serif" font-size="10.00">ristretto255_sqrt_ratio_m1</text>
</a>
</g>
</g>
<!-- Node8&#45;&gt;Node15 -->
<g id="edge21_Node000008_Node000015" class="edge">
<title>Node8&#45;&gt;Node15</title>
<g id="a_edge21_Node000008_Node000015"><a xlink:title=" ">
<path fill="none" stroke="#63b8ff" d="M239.93,-400.43C261.38,-395.71 287.14,-390.04 309.83,-385.04"/>
<polygon fill="#63b8ff" stroke="#63b8ff" points="310.54,-388.47 319.55,-382.9 309.03,-381.63 310.54,-388.47"/>
</a>
</g>
</g>
<!-- Node11 -->
<g id="Node000011" class="node">
<title>Node11</title>
<g id="a_Node000011"><a xlink:href="class_paragon_i_e___sodium___core___ristretto255.html#ae3766f3900549653469481590de10a60" target="_top" xlink:title=" ">
<polygon fill="white" stroke="#666666" points="721.62,-382.14 671.12,-382.14 671.12,-362.89 721.62,-362.89 721.62,-382.14"/>
<text text-anchor="middle" x="696.38" y="-368.64" font-family="Helvetica,sans-Serif" font-size="10.00">fe_cneg</text>
</a>
</g>
</g>
<!-- Node10&#45;&gt;Node11 -->
<g id="edge12_Node000010_Node000011" class="edge">
<title>Node10&#45;&gt;Node11</title>
<g id="a_edge12_Node000010_Node000011"><a xlink:title=" ">
<path fill="none" stroke="#63b8ff" d="M557.07,-372.51C583.45,-372.51 628.07,-372.51 659.48,-372.51"/>
<polygon fill="#63b8ff" stroke="#63b8ff" points="659.3,-376.01 669.3,-372.51 659.3,-369.01 659.3,-376.01"/>
</a>
</g>
</g>
<!-- Node11&#45;&gt;Node12 -->
<g id="edge13_Node000011_Node000012" class="edge">
<title>Node11&#45;&gt;Node12</title>
<g id="a_edge13_Node000011_Node000012"><a xlink:title=" ">
<path fill="none" stroke="#63b8ff" d="M722.06,-372.51C738.66,-372.51 761.48,-372.51 783.67,-372.51"/>
<polygon fill="#63b8ff" stroke="#63b8ff" points="783.67,-376.01 793.67,-372.51 783.67,-369.01 783.67,-376.01"/>
</a>
</g>
</g>
<!-- Node12&#45;&gt;Node4 -->
<g id="edge14_Node000012_Node000004" class="edge">
<title>Node12&#45;&gt;Node4</title>
<g id="a_edge14_Node000012_Node000004"><a xlink:title=" ">
<path fill="none" stroke="#63b8ff" d="M919.02,-356.87C929.83,-354.02 941.19,-351.03 952.28,-348.11"/>
<polygon fill="#63b8ff" stroke="#63b8ff" points="953,-351.53 961.78,-345.6 951.22,-344.77 953,-351.53"/>
</a>
</g>
</g>
<!-- Node14&#45;&gt;Node4 -->
<g id="edge19_Node000014_Node000004" class="edge">
<title>Node14&#45;&gt;Node4</title>
<g id="a_edge19_Node000014_Node000004"><a xlink:title=" ">
<path fill="none" stroke="#63b8ff" d="M723.82,-517.79C765.98,-492.64 850.9,-441.59 921.75,-396.51 944.85,-381.81 970.58,-364.76 990.3,-351.54"/>
<polygon fill="#63b8ff" stroke="#63b8ff" points="992.13,-354.52 998.48,-346.04 988.23,-348.71 992.13,-354.52"/>
</a>
</g>
</g>
<!-- Node15&#45;&gt;Node3 -->
<g id="edge23_Node000015_Node000003" class="edge">
<title>Node15&#45;&gt;Node3</title>
<g id="a_edge23_Node000015_Node000003"><a xlink:title=" ">
<path fill="none" stroke="#63b8ff" d="M417.81,-362.4C423.88,-360.03 429.78,-357.11 435,-353.51 456.96,-338.38 451.59,-323.79 471,-305.51 478.38,-298.56 487.08,-292.02 495.58,-286.29"/>
<polygon fill="#63b8ff" stroke="#63b8ff" points="497.26,-289.37 503.76,-281.01 493.46,-283.49 497.26,-289.37"/>
</a>
</g>
</g>
<!-- Node15&#45;&gt;Node7 -->
<g id="edge24_Node000015_Node000007" class="edge">
<title>Node15&#45;&gt;Node7</title>
<g id="a_edge24_Node000015_Node000007"><a xlink:title=" ">
<path fill="none" stroke="#63b8ff" d="M407.29,-362.43C423.63,-358.16 443.21,-353.03 462.01,-348.12"/>
<polygon fill="#63b8ff" stroke="#63b8ff" points="462.7,-351.55 471.49,-345.63 460.93,-344.78 462.7,-351.55"/>
</a>
</g>
</g>
<!-- Node15&#45;&gt;Node10 -->
<g id="edge22_Node000015_Node000010" class="edge">
<title>Node15&#45;&gt;Node10</title>
<g id="a_edge22_Node000015_Node000010"><a xlink:title=" ">
<path fill="none" stroke="#63b8ff" d="M432.77,-372.51C455.66,-372.51 480.52,-372.51 499.77,-372.51"/>
<polygon fill="#63b8ff" stroke="#63b8ff" points="499.74,-376.01 509.74,-372.51 499.74,-369.01 499.74,-376.01"/>
</a>
</g>
</g>
<!-- Node16&#45;&gt;Node3 -->
<g id="edge30_Node000016_Node000003" class="edge">
<title>Node16&#45;&gt;Node3</title>
<g id="a_edge30_Node000016_Node000003"><a xlink:title=" ">
<path fill="none" stroke="#63b8ff" d="M242.43,-173.4C292.31,-165.16 371.58,-158.29 435,-181.51 466.8,-193.16 495.38,-220.16 513.38,-240.22"/>
<polygon fill="#63b8ff" stroke="#63b8ff" points="510.7,-242.47 519.89,-247.73 515.98,-237.88 510.7,-242.47"/>
</a>
</g>
</g>
<!-- Node16&#45;&gt;Node5 -->
<g id="edge28_Node000016_Node000005" class="edge">
<title>Node16&#45;&gt;Node5</title>
<g id="a_edge28_Node000016_Node000005"><a xlink:title=" ">
<path fill="none" stroke="#63b8ff" d="M209.31,-173.39C224.64,-162.62 248.3,-144.42 264.5,-124.51 285.84,-98.29 273.77,-78.21 300.5,-57.51 384.66,7.67 426.68,-0.51 533.12,-0.51 533.12,-0.51 533.12,-0.51 859.62,-0.51 984.36,-0.51 1110.34,-96.33 1162.78,-141.49"/>
<polygon fill="#63b8ff" stroke="#63b8ff" points="1160.16,-143.84 1169.99,-147.79 1164.77,-138.57 1160.16,-143.84"/>
</a>
</g>
</g>
<!-- Node16&#45;&gt;Node7 -->
<g id="edge31_Node000016_Node000007" class="edge">
<title>Node16&#45;&gt;Node7</title>
<g id="a_edge31_Node000016_Node000007"><a xlink:title=" ">
<path fill="none" stroke="#63b8ff" d="M217.36,-193.58C238.91,-202.91 271.86,-217.16 300.5,-229.51 364.73,-257.2 438.98,-289.1 485.98,-309.28"/>
<polygon fill="#63b8ff" stroke="#63b8ff" points="484.49,-312.45 495.06,-313.18 487.25,-306.02 484.49,-312.45"/>
</a>
</g>
</g>
<!-- Node16&#45;&gt;Node9 -->
<g id="edge26_Node000016_Node000009" class="edge">
<title>Node16&#45;&gt;Node9</title>
<g id="a_edge26_Node000016_Node000009"><a xlink:title=" ">
<path fill="none" stroke="#63b8ff" d="M252.57,-190.96C265.56,-192.62 279.49,-194.39 293.01,-196.11"/>
<polygon fill="#63b8ff" stroke="#63b8ff" points="292.37,-199.56 302.73,-197.35 293.25,-192.62 292.37,-199.56"/>
</a>
</g>
</g>
<!-- Node16&#45;&gt;Node11 -->
<g id="edge27_Node000016_Node000011" class="edge">
<title>Node16&#45;&gt;Node11</title>
<g id="a_edge27_Node000016_Node000011"><a xlink:title=" ">
<path fill="none" stroke="#63b8ff" d="M230.51,-173.43C278.1,-161.82 363.79,-146.28 435,-162.51 513.01,-180.29 535.53,-189.59 597.25,-240.51 636.72,-273.08 669.02,-324.74 684.84,-352.8"/>
<polygon fill="#63b8ff" stroke="#63b8ff" points="681.63,-354.23 689.52,-361.3 687.76,-350.85 681.63,-354.23"/>
</a>
</g>
</g>
<!-- Node16&#45;&gt;Node15 -->
<g id="edge32_Node000016_Node000015" class="edge">
<title>Node16&#45;&gt;Node15</title>
<g id="a_edge32_Node000016_Node000015"><a xlink:title=" ">
<path fill="none" stroke="#63b8ff" d="M197.39,-193.33C207.61,-222.49 241.82,-309.32 300.5,-353.51 302.29,-354.86 304.18,-356.11 306.13,-357.28"/>
<polygon fill="#63b8ff" stroke="#63b8ff" points="304.51,-360.38 315.02,-361.72 307.64,-354.12 304.51,-360.38"/>
</a>
</g>
</g>
<!-- Node17 -->
<g id="Node000017" class="node">
<title>Node17</title>
<g id="a_Node000017"><a xlink:href="class_paragon_i_e___sodium___core___curve25519.html#a2344287b4095f432fa1b781ffe5cc5a8" target="_top" xlink:title=" ">
<polygon fill="white" stroke="#666666" points="435,-96.76 300.5,-96.76 300.5,-66.26 435,-66.26 435,-96.76"/>
<text text-anchor="start" x="308.5" y="-83.26" font-family="Helvetica,sans-Serif" font-size="10.00">ParagonIE_Sodium_Core</text>
<text text-anchor="middle" x="367.75" y="-72.01" font-family="Helvetica,sans-Serif" font-size="10.00">_Curve25519\fe_isnegative</text>
</a>
</g>
</g>
<!-- Node16&#45;&gt;Node17 -->
<g id="edge29_Node000016_Node000017" class="edge">
<title>Node16&#45;&gt;Node17</title>
<g id="a_edge29_Node000016_Node000017"><a xlink:title=" ">
<path fill="none" stroke="#63b8ff" d="M207.04,-173.45C226.56,-158.54 265.06,-130.2 300.5,-110.51 305.85,-107.54 311.57,-104.65 317.31,-101.91"/>
<polygon fill="#63b8ff" stroke="#63b8ff" points="318.62,-105.17 326.24,-97.81 315.7,-98.8 318.62,-105.17"/>
</a>
</g>
</g>
</g>
</svg>

<g id="navigator" transform="translate(0 0)" fill="#404254">
  <rect fill="#f2f5e9" fill-opacity="0.5" stroke="#606060" stroke-width=".5" x="0" y="0" width="60" height="60"/>
  <use id="zoomplus" xlink:href="#zoomPlus" x="17" y="9" onmousedown="handleZoom(evt,'in')"/>
  <use id="zoomminus" xlink:href="#zoomMin" x="42" y="9" onmousedown="handleZoom(evt,'out')"/>
  <use id="reset" xlink:href="#resetDef" x="30" y="36" onmousedown="handleReset()"/>
   <use id="arrowup" xlink:href="#arrowUp" x="0" y="0" onmousedown="handlePan(0,-1)"/>
  <use id="arrowright" xlink:href="#arrowRight" x="0" y="0" onmousedown="handlePan(1,0)"/>
  <use id="arrowdown" xlink:href="#arrowDown" x="0" y="0" onmousedown="handlePan(0,1)"/>
  <use id="arrowleft" xlink:href="#arrowLeft" x="0" y="0" onmousedown="handlePan(-1,0)"/>
</g>
<svg viewBox="0 0 15 15" width="100%" height="30px" preserveAspectRatio="xMaxYMin meet">
 <g id="arrow_out" transform="scale(0.3 0.3)">
  <a xlink:href="class_paragon_i_e___sodium___core___ristretto255_aecc8b0106347644478f063a1116e866c_cgraph_org.svg" target="_base">
   <rect id="button" ry="5" rx="5" y="6" x="6" height="38" width="38"
        fill="#f2f5e9" fill-opacity="0.5" stroke="#606060" stroke-width="1.0"/>
   <path id="arrow"
     d="M 11.500037,31.436501 C 11.940474,20.09759 22.043105,11.32322 32.158766,21.979434 L 37.068811,17.246167 C 37.068811,17.246167 37.088388,32 37.088388,32 L 22.160133,31.978069 C 22.160133,31.978069 26.997745,27.140456 26.997745,27.140456 C 18.528582,18.264221 13.291696,25.230495 11.500037,31.436501 z"
     style="fill:#404040;"/>
  </a>
 </g>
</svg>

<style type='text/css'>
<![CDATA[
[data-mouse-over-selected='false'] { opacity: 0.7; }
[data-mouse-over-selected='true']  { opacity: 1.0; }
]]>
</style>
<script type="application/ecmascript"><![CDATA[
document.addEventListener('DOMContentLoaded', (event) => {
  highlightEdges();
  highlightAdjacentNodes();
});
]]></script>
</svg>
