<?xml version="1.0" encoding="UTF-8" standalone="no"?>
<!DOCTYPE svg PUBLIC "-//W3C//DTD SVG 1.1//EN"
 "http://www.w3.org/Graphics/SVG/1.1/DTD/svg11.dtd">
<!-- Generated by graphviz version 10.0.1 (20240210.2158)
 -->
<!-- Title: getFormatter Pages: 1 -->
<svg width="245pt" height="76pt"
 viewBox="0.00 0.00 244.75 75.88" xmlns="http://www.w3.org/2000/svg" xmlns:xlink="http://www.w3.org/1999/xlink">
<g id="graph0" class="graph" transform="scale(1 1) rotate(0) translate(4 71.88)">
<title>getFormatter</title>
<!-- Node1 -->
<g id="Node000001" class="node">
<title>Node1</title>
<g id="a_Node000001"><a xlink:title=" ">
<polygon fill="#999999" stroke="#666666" points="71.5,-40.25 0,-40.25 0,-21 71.5,-21 71.5,-40.25"/>
<text text-anchor="middle" x="35.75" y="-26.75" font-family="Helvetica,sans-Serif" font-size="10.00">getFormatter</text>
</a>
</g>
</g>
<!-- Node2 -->
<g id="Node000002" class="node">
<title>Node2</title>
<g id="a_Node000002"><a xlink:href="class_laminas_1_1_i18n_1_1_filter_1_1_abstract_locale.html#ad532b661eb33c3e755bd3fa8ff1bd7af" target="_top" xlink:title=" ">
<polygon fill="white" stroke="#666666" points="236.75,-67.88 107.5,-67.88 107.5,-37.38 236.75,-37.38 236.75,-67.88"/>
<text text-anchor="start" x="115.5" y="-54.38" font-family="Helvetica,sans-Serif" font-size="10.00">Laminas\I18n\Filter</text>
<text text-anchor="middle" x="172.12" y="-43.12" font-family="Helvetica,sans-Serif" font-size="10.00">\AbstractLocale\getLocale</text>
</a>
</g>
</g>
<!-- Node1&#45;&gt;Node2 -->
<g id="edge1_Node000001_Node000002" class="edge">
<title>Node1&#45;&gt;Node2</title>
<g id="a_edge1_Node000001_Node000002"><a xlink:title=" ">
<path fill="none" stroke="#63b8ff" d="M71.7,-36.35C79.27,-37.59 87.56,-38.94 96.01,-40.33"/>
<polygon fill="#63b8ff" stroke="#63b8ff" points="95.25,-43.75 105.69,-41.91 96.38,-36.84 95.25,-43.75"/>
</a>
</g>
</g>
<!-- Node3 -->
<g id="Node000003" class="node">
<title>Node3</title>
<g id="a_Node000003"><a xlink:href="class_laminas_1_1_i18n_1_1_filter_1_1_number_parse.html#a1a9c641ae8a39113009425cbccaee5d5" target="_top" xlink:title=" ">
<polygon fill="white" stroke="#666666" points="198.12,-19.25 146.12,-19.25 146.12,0 198.12,0 198.12,-19.25"/>
<text text-anchor="middle" x="172.12" y="-5.75" font-family="Helvetica,sans-Serif" font-size="10.00">getStyle</text>
</a>
</g>
</g>
<!-- Node1&#45;&gt;Node3 -->
<g id="edge2_Node000001_Node000003" class="edge">
<title>Node1&#45;&gt;Node3</title>
<g id="a_edge2_Node000001_Node000003"><a xlink:title=" ">
<path fill="none" stroke="#63b8ff" d="M71.7,-25.16C90.99,-22.15 114.91,-18.41 134.45,-15.36"/>
<polygon fill="#63b8ff" stroke="#63b8ff" points="134.85,-18.84 144.19,-13.83 133.77,-11.92 134.85,-18.84"/>
</a>
</g>
</g>
</g>
</svg>
