<?xml version="1.0" encoding="UTF-8" standalone="no"?>
<!DOCTYPE svg PUBLIC "-//W3C//DTD SVG 1.1//EN"
 "http://www.w3.org/Graphics/SVG/1.1/DTD/svg11.dtd">
<!-- Generated by graphviz version 10.0.1 (20240210.2158)
 -->
<!-- Title: doDisplay Pages: 1 -->
<svg width="422pt" height="101pt"
 viewBox="0.00 0.00 422.00 101.25" xmlns="http://www.w3.org/2000/svg" xmlns:xlink="http://www.w3.org/1999/xlink">

<svg id="main" version="1.1" xmlns="http://www.w3.org/2000/svg" xmlns:xlink="http://www.w3.org/1999/xlink" xml:space="preserve" onload="init(evt)">
<style type="text/css"><![CDATA[
.node, .edge {opacity: 0.7;}
.node.selected, .edge.selected {opacity: 1;}
.edge:hover path { stroke: red; }
.edge:hover polygon { stroke: red; fill: red; }
]]></style>
<script type="application/ecmascript" xlink:href="svg.min.js"/>
<svg id="graph" class="graph">
<g id="graph0" class="graph" transform="scale(1 1) rotate(0) translate(4 97.25)">
<title>doDisplay</title>
<!-- Node1 -->
<g id="Node000001" class="node">
<title>Node1</title>
<g id="a_Node000001"><a xlink:title=" ">
<polygon fill="#999999" stroke="#666666" points="59.5,-74.25 0,-74.25 0,-55 59.5,-55 59.5,-74.25"/>
<text text-anchor="middle" x="29.75" y="-60.75" font-family="Helvetica,sans-Serif" font-size="10.00">doDisplay</text>
</a>
</g>
</g>
<!-- Node2 -->
<g id="Node000002" class="node">
<title>Node2</title>
<g id="a_Node000002"><a xlink:href="class_twig_1_1_template.html#aa24212b916ba8473abefd02e32a680f4" target="_top" xlink:title=" ">
<polygon fill="white" stroke="#666666" points="233,-93.25 95.5,-93.25 95.5,-74 233,-74 233,-93.25"/>
<text text-anchor="middle" x="164.25" y="-79.75" font-family="Helvetica,sans-Serif" font-size="10.00">Twig\Template\displayBlock</text>
</a>
</g>
</g>
<!-- Node1&#45;&gt;Node2 -->
<g id="edge1_Node000001_Node000002" class="edge">
<title>Node1&#45;&gt;Node2</title>
<g id="a_edge1_Node000001_Node000002"><a xlink:title=" ">
<path fill="none" stroke="#63b8ff" d="M59.83,-68.79C67.14,-69.84 75.34,-71.02 83.84,-72.24"/>
<polygon fill="#63b8ff" stroke="#63b8ff" points="83.25,-75.69 93.65,-73.64 84.25,-68.76 83.25,-75.69"/>
</a>
</g>
</g>
<!-- Node3 -->
<g id="Node000003" class="node">
<title>Node3</title>
<g id="a_Node000003"><a xlink:href="_core_extension_8php.html#a58143cb7cfe98f1ef38883299f5c1dee" target="_top" xlink:title=" ">
<polygon fill="white" stroke="#666666" points="200,-56.25 128.5,-56.25 128.5,-37 200,-37 200,-56.25"/>
<text text-anchor="middle" x="164.25" y="-42.75" font-family="Helvetica,sans-Serif" font-size="10.00">twig_random</text>
</a>
</g>
</g>
<!-- Node1&#45;&gt;Node3 -->
<g id="edge2_Node000001_Node000003" class="edge">
<title>Node1&#45;&gt;Node3</title>
<g id="a_edge2_Node000001_Node000003"><a xlink:title=" ">
<path fill="none" stroke="#63b8ff" d="M59.83,-60.67C76.56,-58.4 97.97,-55.49 116.97,-52.91"/>
<polygon fill="#63b8ff" stroke="#63b8ff" points="117.18,-56.42 126.62,-51.6 116.24,-49.48 117.18,-56.42"/>
</a>
</g>
</g>
<!-- Node4 -->
<g id="Node000004" class="node">
<title>Node4</title>
<g id="a_Node000004"><a xlink:href="class_twig_1_1_environment.html#abca2d528da8311b6fcfe040768cbaa24" target="_top" xlink:title=" ">
<polygon fill="white" stroke="#666666" points="414,-93.25 269,-93.25 269,-74 414,-74 414,-93.25"/>
<text text-anchor="middle" x="341.5" y="-79.75" font-family="Helvetica,sans-Serif" font-size="10.00">Twig\Environment\getCharset</text>
</a>
</g>
</g>
<!-- Node3&#45;&gt;Node4 -->
<g id="edge3_Node000003_Node000004" class="edge">
<title>Node3&#45;&gt;Node4</title>
<g id="a_edge3_Node000003_Node000004"><a xlink:title=" ">
<path fill="none" stroke="#63b8ff" d="M200.29,-54.02C223.45,-58.91 254.39,-65.45 281.32,-71.13"/>
<polygon fill="#63b8ff" stroke="#63b8ff" points="280.59,-74.55 291.09,-73.19 282.03,-67.7 280.59,-74.55"/>
</a>
</g>
</g>
<!-- Node5 -->
<g id="Node000005" class="node">
<title>Node5</title>
<g id="a_Node000005"><a xlink:href="_core_extension_8php.html#ae288325a1d8fc4e036d1e828d7fac1f6" target="_top" xlink:title=" ">
<polygon fill="white" stroke="#666666" points="399.38,-56.25 283.62,-56.25 283.62,-37 399.38,-37 399.38,-56.25"/>
<text text-anchor="middle" x="341.5" y="-42.75" font-family="Helvetica,sans-Serif" font-size="10.00">twig_convert_encoding</text>
</a>
</g>
</g>
<!-- Node3&#45;&gt;Node5 -->
<g id="edge4_Node000003_Node000005" class="edge">
<title>Node3&#45;&gt;Node5</title>
<g id="a_edge4_Node000003_Node000005"><a xlink:title=" ">
<path fill="none" stroke="#63b8ff" d="M200.29,-46.62C220.82,-46.62 247.45,-46.62 271.98,-46.62"/>
<polygon fill="#63b8ff" stroke="#63b8ff" points="271.93,-50.13 281.93,-46.63 271.93,-43.13 271.93,-50.13"/>
</a>
</g>
</g>
<!-- Node6 -->
<g id="Node000006" class="node">
<title>Node6</title>
<g id="a_Node000006"><a xlink:href="_core_extension_8php.html#add6085b705776ea6e84cec0f1f6c6e8b" target="_top" xlink:title=" ">
<polygon fill="white" stroke="#666666" points="378.75,-19.25 304.25,-19.25 304.25,0 378.75,0 378.75,-19.25"/>
<text text-anchor="middle" x="341.5" y="-5.75" font-family="Helvetica,sans-Serif" font-size="10.00">twig_to_array</text>
</a>
</g>
</g>
<!-- Node3&#45;&gt;Node6 -->
<g id="edge5_Node000003_Node000006" class="edge">
<title>Node3&#45;&gt;Node6</title>
<g id="a_edge5_Node000003_Node000006"><a xlink:title=" ">
<path fill="none" stroke="#63b8ff" d="M200.29,-39.23C226.84,-33.62 263.59,-25.86 292.81,-19.69"/>
<polygon fill="#63b8ff" stroke="#63b8ff" points="293.47,-23.13 302.53,-17.64 292.02,-16.28 293.47,-23.13"/>
</a>
</g>
</g>
</g>
</svg>
</svg>

<style type='text/css'>
<![CDATA[
[data-mouse-over-selected='false'] { opacity: 0.7; }
[data-mouse-over-selected='true']  { opacity: 1.0; }
]]>
</style>
<script type="application/ecmascript"><![CDATA[
document.addEventListener('DOMContentLoaded', (event) => {
  highlightEdges();
  highlightAdjacentNodes();
});
]]></script>
</svg>
