<?xml version="1.0" encoding="UTF-8" standalone="no"?>
<!DOCTYPE svg PUBLIC "-//W3C//DTD SVG 1.1//EN"
 "http://www.w3.org/Graphics/SVG/1.1/DTD/svg11.dtd">
<!-- Generated by graphviz version 10.0.1 (20240210.2158)
 -->
<!-- Title: write Pages: 1 -->
<svg width="232pt" height="64pt"
 viewBox="0.00 0.00 232.00 64.25" xmlns="http://www.w3.org/2000/svg" xmlns:xlink="http://www.w3.org/1999/xlink">
<g id="graph0" class="graph" transform="scale(1 1) rotate(0) translate(4 60.25)">
<title>write</title>
<!-- Node1 -->
<g id="Node000001" class="node">
<title>Node1</title>
<g id="a_Node000001"><a xlink:title=" ">
<polygon fill="#999999" stroke="#666666" points="37,-37.25 0,-37.25 0,-18 37,-18 37,-37.25"/>
<text text-anchor="middle" x="18.5" y="-23.75" font-family="Helvetica,sans-Serif" font-size="10.00">write</text>
</a>
</g>
</g>
<!-- Node2 -->
<g id="Node000002" class="node">
<title>Node2</title>
<g id="a_Node000002"><a xlink:href="class_monolog_1_1_logger.html#a89e99f08ab7a4f44dfd35e6376b02be6" target="_top" xlink:title=" ">
<polygon fill="white" stroke="#666666" points="224,-56.25 73,-56.25 73,-37 224,-37 224,-56.25"/>
<text text-anchor="middle" x="148.5" y="-42.75" font-family="Helvetica,sans-Serif" font-size="10.00">Monolog\Logger\getLevelName</text>
</a>
</g>
</g>
<!-- Node1&#45;&gt;Node2 -->
<g id="edge1_Node000001_Node000002" class="edge">
<title>Node1&#45;&gt;Node2</title>
<g id="a_edge1_Node000001_Node000002"><a xlink:title=" ">
<path fill="none" stroke="#63b8ff" d="M37.3,-30.27C45.78,-31.53 56.59,-33.13 68.1,-34.84"/>
<polygon fill="#63b8ff" stroke="#63b8ff" points="67.4,-38.27 77.8,-36.28 68.43,-31.35 67.4,-38.27"/>
</a>
</g>
</g>
<!-- Node3 -->
<g id="Node000003" class="node">
<title>Node3</title>
<g id="a_Node000003"><a xlink:href="class_monolog_1_1_handler_1_1_zend_monitor_handler.html#a13b29dfb1e4fbe43c50e3d270984645c" target="_top" xlink:title=" ">
<polygon fill="white" stroke="#666666" points="224,-19.25 73,-19.25 73,0 224,0 224,-19.25"/>
<text text-anchor="middle" x="148.5" y="-5.75" font-family="Helvetica,sans-Serif" font-size="10.00">writeZendMonitorCustomEvent</text>
</a>
</g>
</g>
<!-- Node1&#45;&gt;Node3 -->
<g id="edge2_Node000001_Node000003" class="edge">
<title>Node1&#45;&gt;Node3</title>
<g id="a_edge2_Node000001_Node000003"><a xlink:title=" ">
<path fill="none" stroke="#63b8ff" d="M37.3,-25.12C44.86,-24.06 54.28,-22.73 64.39,-21.31"/>
<polygon fill="#63b8ff" stroke="#63b8ff" points="64.67,-24.81 74.09,-19.95 63.7,-17.88 64.67,-24.81"/>
</a>
</g>
</g>
</g>
</svg>
