<?xml version="1.0" encoding="UTF-8" standalone="no"?>
<!DOCTYPE svg PUBLIC "-//W3C//DTD SVG 1.1//EN"
 "http://www.w3.org/Graphics/SVG/1.1/DTD/svg11.dtd">
<!-- Generated by graphviz version 10.0.1 (20240210.2158)
 -->
<!-- Title: crypto_scalarmult_curve25519_ref10_base Pages: 1 -->
<!--zoomable 191 -->

<svg id="main" version="1.1" xmlns="http://www.w3.org/2000/svg" xmlns:xlink="http://www.w3.org/1999/xlink" xml:space="preserve" onload="init(evt)">
<style type="text/css"><![CDATA[
.node, .edge {opacity: 0.7;}
.node.selected, .edge.selected {opacity: 1;}
.edge:hover path { stroke: red; }
.edge:hover polygon { stroke: red; fill: red; }
]]></style>

<defs>
  <circle id="rim" cx="0" cy="0" r="7"/>
  <circle id="rim2" cx="0" cy="0" r="3.5"/>
  <g id="zoomPlus">
    <use xlink:href="#rim" fill="#404040"><set attributeName="fill" to="#808080" begin="zoomplus.mouseover" end="zoomplus.mouseout"/></use>
    <path d="M-4,0h8M0,-4v8" fill="none" stroke="white" stroke-width="1.5" pointer-events="none"/>
  </g>
  <g id="zoomMin">
    <use xlink:href="#rim" fill="#404040"><set attributeName="fill" to="#808080" begin="zoomminus.mouseover" end="zoomminus.mouseout"/></use>
    <path d="M-4,0h8" fill="none" stroke="white" stroke-width="1.5" pointer-events="none"/>
  </g>
  <g id="arrowUp" transform="translate(30 24)">
    <use xlink:href="#rim"/>
    <path pointer-events="none" fill="none" stroke="white" stroke-width="1.5" d="M0,-3.0v7 M-2.5,-0.5L0,-3.0L2.5,-0.5"/>
  </g>
  <g id="arrowRight" transform="rotate(90) translate(36 -43)">
    <use xlink:href="#rim"/>
    <path pointer-events="none" fill="none" stroke="white" stroke-width="1.5" d="M0,-3.0v7 M-2.5,-0.5L0,-3.0L2.5,-0.5"/>
  </g>
  <g id="arrowDown" transform="rotate(180) translate(-30 -48)">
    <use xlink:href="#rim"/>
    <path pointer-events="none" fill="none" stroke="white" stroke-width="1.5" d="M0,-3.0v7 M-2.5,-0.5L0,-3.0L2.5,-0.5"/>
  </g>
  <g id="arrowLeft" transform="rotate(270) translate(-36 17)">
    <use xlink:href="#rim"/>
    <path pointer-events="none" fill="none" stroke="white" stroke-width="1.5" d="M0,-3.0v7 M-2.5,-0.5L0,-3.0L2.5,-0.5"/>
  </g>
  <g id="resetDef">
    <use xlink:href="#rim2" fill="#404040"><set attributeName="fill" to="#808080" begin="reset.mouseover" end="reset.mouseout"/></use>
  </g>
</defs>
<script type="application/ecmascript">
var viewWidth = 704;
var viewHeight = 191;
var sectionId = 'dynsection-3';
</script>
<script type="application/ecmascript" xlink:href="svg.min.js"/>
<svg id="graph" class="graph">
<g id="viewport">
<title>crypto_scalarmult_curve25519_ref10_base</title>
<!-- Node1 -->
<g id="Node000001" class="node">
<title>Node1</title>
<g id="a_Node000001"><a xlink:title=" ">
<polygon fill="#999999" stroke="#666666" points="695.5,-103.5 546.75,-103.5 546.75,-73 695.5,-73 695.5,-103.5"/>
<text text-anchor="start" x="554.75" y="-90" font-family="Helvetica,sans-Serif" font-size="10.00">crypto_scalarmult_curve25519</text>
<text text-anchor="middle" x="621.12" y="-78.75" font-family="Helvetica,sans-Serif" font-size="10.00">_ref10_base</text>
</a>
</g>
</g>
<!-- Node2 -->
<g id="Node000002" class="node">
<title>Node2</title>
<g id="a_Node000002"><a xlink:href="class_paragon_i_e___sodium___crypto32.html#a79cfb734b2a78effc2cd56f2536aa708" target="_top" xlink:title=" ">
<polygon fill="white" stroke="#666666" points="510.75,-103.5 365.75,-103.5 365.75,-73 510.75,-73 510.75,-103.5"/>
<text text-anchor="start" x="373.75" y="-90" font-family="Helvetica,sans-Serif" font-size="10.00">ParagonIE_Sodium_Crypto32</text>
<text text-anchor="middle" x="438.25" y="-78.75" font-family="Helvetica,sans-Serif" font-size="10.00">\scalarmult_base</text>
</a>
</g>
</g>
<!-- Node1&#45;&gt;Node2 -->
<g id="edge1_Node000001_Node000002" class="edge">
<title>Node1&#45;&gt;Node2</title>
<g id="a_edge1_Node000001_Node000002"><a xlink:title=" ">
<path fill="none" stroke="#63b8ff" d="M535.03,-88.25C527.02,-88.25 518.96,-88.25 511.09,-88.25"/>
<polygon fill="#63b8ff" stroke="#63b8ff" points="534.78,-91.75 544.78,-88.25 534.78,-84.75 534.78,-91.75"/>
</a>
</g>
</g>
<!-- Node3 -->
<g id="Node000003" class="node">
<title>Node3</title>
<g id="a_Node000003"><a xlink:href="class_paragon_i_e___sodium___crypto32.html#ae08f4ba56e6824e3dec171a73d351427" target="_top" xlink:title=" ">
<polygon fill="white" stroke="#666666" points="325.25,-179.5 180.25,-179.5 180.25,-149 325.25,-149 325.25,-179.5"/>
<text text-anchor="start" x="188.25" y="-166" font-family="Helvetica,sans-Serif" font-size="10.00">ParagonIE_Sodium_Crypto32</text>
<text text-anchor="middle" x="252.75" y="-154.75" font-family="Helvetica,sans-Serif" font-size="10.00">\box_keypair</text>
</a>
</g>
</g>
<!-- Node2&#45;&gt;Node3 -->
<g id="edge2_Node000002_Node000003" class="edge">
<title>Node2&#45;&gt;Node3</title>
<g id="a_edge2_Node000002_Node000003"><a xlink:title=" ">
<path fill="none" stroke="#63b8ff" d="M394.95,-108.55C375.29,-117.72 351.51,-128.45 329.75,-137.25 320.14,-141.14 309.74,-145.03 299.81,-148.61"/>
<polygon fill="#63b8ff" stroke="#63b8ff" points="396.17,-111.84 403.74,-104.42 393.2,-105.51 396.17,-111.84"/>
</a>
</g>
</g>
<!-- Node5 -->
<g id="Node000005" class="node">
<title>Node5</title>
<g id="a_Node000005"><a xlink:href="class_paragon_i_e___sodium___crypto32.html#a39d42c258adda54d77222bb1a6ecdaed" target="_top" xlink:title=" ">
<polygon fill="white" stroke="#666666" points="329.75,-128.5 175.75,-128.5 175.75,-98 329.75,-98 329.75,-128.5"/>
<text text-anchor="start" x="183.75" y="-115" font-family="Helvetica,sans-Serif" font-size="10.00">ParagonIE_Sodium_Crypto32</text>
<text text-anchor="middle" x="252.75" y="-103.75" font-family="Helvetica,sans-Serif" font-size="10.00">\box_publickey_from_secretkey</text>
</a>
</g>
</g>
<!-- Node2&#45;&gt;Node5 -->
<g id="edge4_Node000002_Node000005" class="edge">
<title>Node2&#45;&gt;Node5</title>
<g id="a_edge4_Node000002_Node000005"><a xlink:title=" ">
<path fill="none" stroke="#63b8ff" d="M354.05,-99.59C346.06,-100.67 337.99,-101.77 330.08,-102.85"/>
<polygon fill="#63b8ff" stroke="#63b8ff" points="354.32,-103.08 363.75,-98.26 353.37,-96.15 354.32,-103.08"/>
</a>
</g>
</g>
<!-- Node7 -->
<g id="Node000007" class="node">
<title>Node7</title>
<g id="a_Node000007"><a xlink:href="class_paragon_i_e___sodium___crypto32.html#a97c04f46084193b0bfaca3e8e3ae1e26" target="_top" xlink:title=" ">
<polygon fill="white" stroke="#666666" points="325.25,-79.5 180.25,-79.5 180.25,-49 325.25,-49 325.25,-79.5"/>
<text text-anchor="start" x="188.25" y="-66" font-family="Helvetica,sans-Serif" font-size="10.00">ParagonIE_Sodium_Crypto32</text>
<text text-anchor="middle" x="252.75" y="-54.75" font-family="Helvetica,sans-Serif" font-size="10.00">\box_seed_keypair</text>
</a>
</g>
</g>
<!-- Node2&#45;&gt;Node7 -->
<g id="edge6_Node000002_Node000007" class="edge">
<title>Node2&#45;&gt;Node7</title>
<g id="a_edge6_Node000002_Node000007"><a xlink:title=" ">
<path fill="none" stroke="#63b8ff" d="M354.13,-77.38C344.59,-76.13 334.92,-74.87 325.54,-73.64"/>
<polygon fill="#63b8ff" stroke="#63b8ff" points="353.38,-80.81 363.75,-78.64 354.29,-73.87 353.38,-80.81"/>
</a>
</g>
</g>
<!-- Node9 -->
<g id="Node000009" class="node">
<title>Node9</title>
<g id="a_Node000009"><a xlink:href="class_paragon_i_e___sodium___compat.html#a79ae67bc8efa4079a56583fe572d7f01" target="_top" xlink:title=" ">
<polygon fill="white" stroke="#666666" points="322.62,-30.5 182.88,-30.5 182.88,0 322.62,0 322.62,-30.5"/>
<text text-anchor="start" x="190.88" y="-17" font-family="Helvetica,sans-Serif" font-size="10.00">ParagonIE_Sodium_Compat</text>
<text text-anchor="middle" x="252.75" y="-5.75" font-family="Helvetica,sans-Serif" font-size="10.00">\crypto_scalarmult_base</text>
</a>
</g>
</g>
<!-- Node2&#45;&gt;Node9 -->
<g id="edge8_Node000002_Node000009" class="edge">
<title>Node2&#45;&gt;Node9</title>
<g id="a_edge8_Node000002_Node000009"><a xlink:title=" ">
<path fill="none" stroke="#63b8ff" d="M394.29,-67.86C374.79,-58.92 351.3,-48.58 329.75,-40.25 321.46,-37.04 312.56,-33.88 303.88,-30.93"/>
<polygon fill="#63b8ff" stroke="#63b8ff" points="392.76,-71.01 403.31,-72.03 395.7,-64.66 392.76,-71.01"/>
</a>
</g>
</g>
<!-- Node4 -->
<g id="Node000004" class="node">
<title>Node4</title>
<g id="a_Node000004"><a xlink:href="class_paragon_i_e___sodium___compat.html#a4bf10b2a5b7ee1f5c18a11b7162241ac" target="_top" xlink:title=" ">
<polygon fill="white" stroke="#666666" points="139.75,-182.5 0,-182.5 0,-152 139.75,-152 139.75,-182.5"/>
<text text-anchor="start" x="8" y="-169" font-family="Helvetica,sans-Serif" font-size="10.00">ParagonIE_Sodium_Compat</text>
<text text-anchor="middle" x="69.88" y="-157.75" font-family="Helvetica,sans-Serif" font-size="10.00">\crypto_box_keypair</text>
</a>
</g>
</g>
<!-- Node3&#45;&gt;Node4 -->
<g id="edge3_Node000003_Node000004" class="edge">
<title>Node3&#45;&gt;Node4</title>
<g id="a_edge3_Node000003_Node000004"><a xlink:title=" ">
<path fill="none" stroke="#63b8ff" d="M168.52,-165.63C159.04,-165.79 149.45,-165.95 140.17,-166.1"/>
<polygon fill="#63b8ff" stroke="#63b8ff" points="168.55,-169.13 178.49,-165.47 168.43,-162.13 168.55,-169.13"/>
</a>
</g>
</g>
<!-- Node6 -->
<g id="Node000006" class="node">
<title>Node6</title>
<g id="a_Node000006"><a xlink:href="class_paragon_i_e___sodium___compat.html#a526920f73d53e40fab1b0e288564342d" target="_top" xlink:title=" ">
<polygon fill="white" stroke="#666666" points="139.75,-134.12 0,-134.12 0,-92.38 139.75,-92.38 139.75,-134.12"/>
<text text-anchor="start" x="8" y="-120.62" font-family="Helvetica,sans-Serif" font-size="10.00">ParagonIE_Sodium_Compat</text>
<text text-anchor="start" x="8" y="-109.38" font-family="Helvetica,sans-Serif" font-size="10.00">\crypto_box_publickey</text>
<text text-anchor="middle" x="69.88" y="-98.12" font-family="Helvetica,sans-Serif" font-size="10.00">_from_secretkey</text>
</a>
</g>
</g>
<!-- Node5&#45;&gt;Node6 -->
<g id="edge5_Node000005_Node000006" class="edge">
<title>Node5&#45;&gt;Node6</title>
<g id="a_edge5_Node000005_Node000006"><a xlink:title=" ">
<path fill="none" stroke="#63b8ff" d="M164.02,-113.25C156.01,-113.25 147.97,-113.25 140.15,-113.25"/>
<polygon fill="#63b8ff" stroke="#63b8ff" points="163.79,-116.75 173.79,-113.25 163.79,-109.75 163.79,-116.75"/>
</a>
</g>
</g>
<!-- Node8 -->
<g id="Node000008" class="node">
<title>Node8</title>
<g id="a_Node000008"><a xlink:href="class_paragon_i_e___sodium___compat.html#a0e8c1062ca216e922034d5e78ec33d5b" target="_top" xlink:title=" ">
<polygon fill="white" stroke="#666666" points="139.75,-74.5 0,-74.5 0,-44 139.75,-44 139.75,-74.5"/>
<text text-anchor="start" x="8" y="-61" font-family="Helvetica,sans-Serif" font-size="10.00">ParagonIE_Sodium_Compat</text>
<text text-anchor="middle" x="69.88" y="-49.75" font-family="Helvetica,sans-Serif" font-size="10.00">\crypto_box_seed_keypair</text>
</a>
</g>
</g>
<!-- Node7&#45;&gt;Node8 -->
<g id="edge7_Node000007_Node000008" class="edge">
<title>Node7&#45;&gt;Node8</title>
<g id="a_edge7_Node000007_Node000008"><a xlink:title=" ">
<path fill="none" stroke="#63b8ff" d="M168.52,-61.95C159.04,-61.69 149.45,-61.42 140.17,-61.17"/>
<polygon fill="#63b8ff" stroke="#63b8ff" points="168.4,-65.45 178.49,-62.22 168.59,-58.45 168.4,-65.45"/>
</a>
</g>
</g>
</g>
</svg>

<g id="navigator" transform="translate(0 0)" fill="#404254">
  <rect fill="#f2f5e9" fill-opacity="0.5" stroke="#606060" stroke-width=".5" x="0" y="0" width="60" height="60"/>
  <use id="zoomplus" xlink:href="#zoomPlus" x="17" y="9" onmousedown="handleZoom(evt,'in')"/>
  <use id="zoomminus" xlink:href="#zoomMin" x="42" y="9" onmousedown="handleZoom(evt,'out')"/>
  <use id="reset" xlink:href="#resetDef" x="30" y="36" onmousedown="handleReset()"/>
   <use id="arrowup" xlink:href="#arrowUp" x="0" y="0" onmousedown="handlePan(0,-1)"/>
  <use id="arrowright" xlink:href="#arrowRight" x="0" y="0" onmousedown="handlePan(1,0)"/>
  <use id="arrowdown" xlink:href="#arrowDown" x="0" y="0" onmousedown="handlePan(0,1)"/>
  <use id="arrowleft" xlink:href="#arrowLeft" x="0" y="0" onmousedown="handlePan(-1,0)"/>
</g>
<svg viewBox="0 0 15 15" width="100%" height="30px" preserveAspectRatio="xMaxYMin meet">
 <g id="arrow_out" transform="scale(0.3 0.3)">
  <a xlink:href="class_paragon_i_e___sodium___core32___x25519_a7757ccb7ab2a3ae77f6bb8c3d5ff67e8_icgraph_org.svg" target="_base">
   <rect id="button" ry="5" rx="5" y="6" x="6" height="38" width="38"
        fill="#f2f5e9" fill-opacity="0.5" stroke="#606060" stroke-width="1.0"/>
   <path id="arrow"
     d="M 11.500037,31.436501 C 11.940474,20.09759 22.043105,11.32322 32.158766,21.979434 L 37.068811,17.246167 C 37.068811,17.246167 37.088388,32 37.088388,32 L 22.160133,31.978069 C 22.160133,31.978069 26.997745,27.140456 26.997745,27.140456 C 18.528582,18.264221 13.291696,25.230495 11.500037,31.436501 z"
     style="fill:#404040;"/>
  </a>
 </g>
</svg>

<style type='text/css'>
<![CDATA[
[data-mouse-over-selected='false'] { opacity: 0.7; }
[data-mouse-over-selected='true']  { opacity: 1.0; }
]]>
</style>
<script type="application/ecmascript"><![CDATA[
document.addEventListener('DOMContentLoaded', (event) => {
  highlightEdges();
  highlightAdjacentNodes();
});
]]></script>
</svg>
