<?xml version="1.0" encoding="UTF-8" standalone="no"?>
<!DOCTYPE svg PUBLIC "-//W3C//DTD SVG 1.1//EN"
 "http://www.w3.org/Graphics/SVG/1.1/DTD/svg11.dtd">
<!-- Generated by graphviz version 10.0.1 (20240210.2158)
 -->
<!-- Title: InvalidPathException Pages: 1 -->
<svg width="170pt" height="142pt"
 viewBox="0.00 0.00 170.00 142.00" xmlns="http://www.w3.org/2000/svg" xmlns:xlink="http://www.w3.org/1999/xlink">

<svg id="main" version="1.1" xmlns="http://www.w3.org/2000/svg" xmlns:xlink="http://www.w3.org/1999/xlink" xml:space="preserve" onload="init(evt)">
<style type="text/css"><![CDATA[
.node, .edge {opacity: 0.7;}
.node.selected, .edge.selected {opacity: 1;}
.edge:hover path { stroke: red; }
.edge:hover polygon { stroke: red; fill: red; }
]]></style>
<script type="application/ecmascript" xlink:href="svg.min.js"/>
<svg id="graph" class="graph">
<g id="graph0" class="graph" transform="scale(1 1) rotate(0) translate(4 138)">
<title>InvalidPathException</title>
<!-- Node1 -->
<g id="Node000001" class="node">
<title>Node1</title>
<g id="a_Node000001"><a xlink:title=" ">
<polygon fill="#999999" stroke="none" points="122.5,-49 20.5,-49 20.5,0 122.5,0 122.5,-49"/>
<text text-anchor="start" x="25.38" y="-35.5" font-family="Helvetica,sans-Serif" font-size="10.00">InvalidPathException</text>
<text text-anchor="start" x="70" y="-20.5" font-family="Helvetica,sans-Serif" font-size="10.00"> </text>
<text text-anchor="start" x="70" y="-5.5" font-family="Helvetica,sans-Serif" font-size="10.00"> </text>
<polygon fill="#666666" stroke="#666666" points="20.5,-32 20.5,-32 122.5,-32 122.5,-32 20.5,-32"/>
<polygon fill="#666666" stroke="#666666" points="20.5,-17 20.5,-17 122.5,-17 122.5,-17 20.5,-17"/>
<polygon fill="none" stroke="#666666" points="20.5,0 20.5,-49 122.5,-49 122.5,0 20.5,0"/>
</a>
</g>
</g>
<!-- Node2 -->
<g id="Node000002" class="node">
<title>Node2</title>
<g id="a_Node000002"><a xlink:title=" ">
<polygon fill="white" stroke="none" points="53,-134 0,-134 0,-85 53,-85 53,-134"/>
<text text-anchor="start" x="4.75" y="-120.5" font-family="Helvetica,sans-Serif" font-size="10.00">Exception</text>
<text text-anchor="start" x="25" y="-105.5" font-family="Helvetica,sans-Serif" font-size="10.00"> </text>
<text text-anchor="start" x="25" y="-90.5" font-family="Helvetica,sans-Serif" font-size="10.00"> </text>
<polygon fill="#666666" stroke="#666666" points="0,-117 0,-117 53,-117 53,-117 0,-117"/>
<polygon fill="#666666" stroke="#666666" points="0,-102 0,-102 53,-102 53,-102 0,-102"/>
<polygon fill="none" stroke="#666666" points="0,-85 0,-134 53,-134 53,-85 0,-85"/>
</a>
</g>
</g>
<!-- Node2&#45;&gt;Node1 -->
<g id="edge1_Node000001_Node000002" class="edge">
<title>Node2&#45;&gt;Node1</title>
<g id="a_edge1_Node000001_Node000002"><a xlink:title=" ">
<path fill="none" stroke="#63b8ff" d="M44.5,-75.3C49.32,-66.42 54.42,-57.01 58.88,-48.78"/>
<polygon fill="none" stroke="#63b8ff" points="41.45,-73.59 39.76,-84.05 47.6,-76.93 41.45,-73.59"/>
</a>
</g>
</g>
<!-- Node3 -->
<g id="Node000003" class="node">
<title>Node3</title>
<g id="a_Node000003"><a xlink:href="interface_laminas_1_1_loader_1_1_exception_1_1_exception_interface.html" target="_top" xlink:title=" ">
<polygon fill="white" stroke="none" points="162,-134 71,-134 71,-85 162,-85 162,-134"/>
<text text-anchor="start" x="75.62" y="-120.5" font-family="Helvetica,sans-Serif" font-size="10.00">ExceptionInterface</text>
<text text-anchor="start" x="115" y="-105.5" font-family="Helvetica,sans-Serif" font-size="10.00"> </text>
<text text-anchor="start" x="115" y="-90.5" font-family="Helvetica,sans-Serif" font-size="10.00"> </text>
<polygon fill="#666666" stroke="#666666" points="71,-117 71,-117 162,-117 162,-117 71,-117"/>
<polygon fill="#666666" stroke="#666666" points="71,-102 71,-102 162,-102 162,-102 71,-102"/>
<polygon fill="none" stroke="#666666" points="71,-85 71,-134 162,-134 162,-85 71,-85"/>
</a>
</g>
</g>
<!-- Node3&#45;&gt;Node1 -->
<g id="edge2_Node000001_Node000003" class="edge">
<title>Node3&#45;&gt;Node1</title>
<g id="a_edge2_Node000001_Node000003"><a xlink:title=" ">
<path fill="none" stroke="#63b8ff" d="M98.5,-75.3C93.68,-66.42 88.58,-57.01 84.12,-48.78"/>
<polygon fill="none" stroke="#63b8ff" points="95.4,-76.93 103.24,-84.05 101.55,-73.59 95.4,-76.93"/>
</a>
</g>
</g>
</g>
</svg>
</svg>

<style type='text/css'>
<![CDATA[
[data-mouse-over-selected='false'] { opacity: 0.7; }
[data-mouse-over-selected='true']  { opacity: 1.0; }
]]>
</style>
<script type="application/ecmascript"><![CDATA[
document.addEventListener('DOMContentLoaded', (event) => {
  highlightEdges();
  highlightAdjacentNodes();
});
]]></script>
</svg>
