<?xml version="1.0" encoding="UTF-8" standalone="no"?>
<!DOCTYPE svg PUBLIC "-//W3C//DTD SVG 1.1//EN"
 "http://www.w3.org/Graphics/SVG/1.1/DTD/svg11.dtd">
<!-- Generated by graphviz version 10.0.1 (20240210.2158)
 -->
<!-- Title: doDisplay Pages: 1 -->
<svg width="415pt" height="261pt"
 viewBox="0.00 0.00 415.25 260.88" xmlns="http://www.w3.org/2000/svg" xmlns:xlink="http://www.w3.org/1999/xlink">

<svg id="main" version="1.1" xmlns="http://www.w3.org/2000/svg" xmlns:xlink="http://www.w3.org/1999/xlink" xml:space="preserve" onload="init(evt)">
<style type="text/css"><![CDATA[
.node, .edge {opacity: 0.7;}
.node.selected, .edge.selected {opacity: 1;}
.edge:hover path { stroke: red; }
.edge:hover polygon { stroke: red; fill: red; }
]]></style>
<script type="application/ecmascript" xlink:href="svg.min.js"/>
<svg id="graph" class="graph">
<g id="graph0" class="graph" transform="scale(1 1) rotate(0) translate(4 256.88)">
<title>doDisplay</title>
<!-- Node1 -->
<g id="Node000001" class="node">
<title>Node1</title>
<g id="a_Node000001"><a xlink:title=" ">
<polygon fill="#999999" stroke="#666666" points="59.5,-159.88 0,-159.88 0,-140.62 59.5,-140.62 59.5,-159.88"/>
<text text-anchor="middle" x="29.75" y="-146.38" font-family="Helvetica,sans-Serif" font-size="10.00">doDisplay</text>
</a>
</g>
</g>
<!-- Node2 -->
<g id="Node000002" class="node">
<title>Node2</title>
<g id="a_Node000002"><a xlink:href="_core_extension_8php.html#adf5ce5c7b07db84385ba1338e106fc3b" target="_top" xlink:title=" ">
<polygon fill="white" stroke="#666666" points="205.25,-252.88 107.5,-252.88 107.5,-233.62 205.25,-233.62 205.25,-252.88"/>
<text text-anchor="middle" x="156.38" y="-239.38" font-family="Helvetica,sans-Serif" font-size="10.00">_twig_default_filter</text>
</a>
</g>
</g>
<!-- Node1&#45;&gt;Node2 -->
<g id="edge1_Node000001_Node000002" class="edge">
<title>Node1&#45;&gt;Node2</title>
<g id="a_edge1_Node000001_Node000002"><a xlink:title=" ">
<path fill="none" stroke="#63b8ff" d="M36.77,-160.36C46.87,-176.48 68.8,-207.93 95.5,-225.25 97.31,-226.42 99.2,-227.52 101.15,-228.55"/>
<polygon fill="#63b8ff" stroke="#63b8ff" points="99.31,-231.57 109.86,-232.52 102.21,-225.19 99.31,-231.57"/>
</a>
</g>
</g>
<!-- Node4 -->
<g id="Node000004" class="node">
<title>Node4</title>
<g id="a_Node000004"><a xlink:href="autoload_8function_8php.html#a2111ba1b23d22b49aee91462961bda8a" target="_top" xlink:title=" ">
<polygon fill="white" stroke="#666666" points="170.78,-215.88 141.97,-215.88 141.97,-196.62 170.78,-196.62 170.78,-215.88"/>
<text text-anchor="middle" x="156.38" y="-202.38" font-family="Helvetica,sans-Serif" font-size="10.00">_x</text>
</a>
</g>
</g>
<!-- Node1&#45;&gt;Node4 -->
<g id="edge3_Node000001_Node000004" class="edge">
<title>Node1&#45;&gt;Node4</title>
<g id="a_edge3_Node000001_Node000004"><a xlink:title=" ">
<path fill="none" stroke="#63b8ff" d="M45.39,-160.21C58.17,-168.57 77.46,-180.38 95.5,-188.25 106.75,-193.16 119.75,-197.24 130.75,-200.27"/>
<polygon fill="#63b8ff" stroke="#63b8ff" points="129.71,-203.62 140.27,-202.76 131.47,-196.85 129.71,-203.62"/>
</a>
</g>
</g>
<!-- Node5 -->
<g id="Node000005" class="node">
<title>Node5</title>
<g id="a_Node000005"><a xlink:href="_core_extension_8php.html#a62b2aa48653c37ade953be5493461c59" target="_top" xlink:title=" ">
<polygon fill="white" stroke="#666666" points="217.25,-178.88 95.5,-178.88 95.5,-159.62 217.25,-159.62 217.25,-178.88"/>
<text text-anchor="middle" x="156.38" y="-165.38" font-family="Helvetica,sans-Serif" font-size="10.00">twig_ensure_traversable</text>
</a>
</g>
</g>
<!-- Node1&#45;&gt;Node5 -->
<g id="edge4_Node000001_Node000005" class="edge">
<title>Node1&#45;&gt;Node5</title>
<g id="a_edge4_Node000001_Node000005"><a xlink:title=" ">
<path fill="none" stroke="#63b8ff" d="M59.97,-154.7C67.32,-155.83 75.54,-157.08 83.99,-158.37"/>
<polygon fill="#63b8ff" stroke="#63b8ff" points="83.26,-161.8 93.67,-159.84 84.32,-154.88 83.26,-161.8"/>
</a>
</g>
</g>
<!-- Node6 -->
<g id="Node000006" class="node">
<title>Node6</title>
<g id="a_Node000006"><a xlink:href="_escaper_extension_8php.html#aabeb5b51fb981707d997d1c588d7c509" target="_top" xlink:title=" ">
<polygon fill="white" stroke="#666666" points="203.75,-104.88 109,-104.88 109,-85.62 203.75,-85.62 203.75,-104.88"/>
<text text-anchor="middle" x="156.38" y="-91.38" font-family="Helvetica,sans-Serif" font-size="10.00">twig_escape_filter</text>
</a>
</g>
</g>
<!-- Node1&#45;&gt;Node6 -->
<g id="edge5_Node000001_Node000006" class="edge">
<title>Node1&#45;&gt;Node6</title>
<g id="a_edge5_Node000001_Node000006"><a xlink:title=" ">
<path fill="none" stroke="#63b8ff" d="M45.94,-140.25C58.75,-132.15 77.77,-120.86 95.5,-113.25 99.05,-111.73 102.77,-110.28 106.54,-108.91"/>
<polygon fill="#63b8ff" stroke="#63b8ff" points="107.44,-112.31 115.79,-105.79 105.19,-105.68 107.44,-112.31"/>
</a>
</g>
</g>
<!-- Node10 -->
<g id="Node000010" class="node">
<title>Node10</title>
<g id="a_Node000010"><a xlink:href="_core_extension_8php.html#aeb74e277ae38926f0b4c91f83c580705" target="_top" xlink:title=" ">
<polygon fill="white" stroke="#666666" points="203,-67.88 109.75,-67.88 109.75,-48.62 203,-48.62 203,-67.88"/>
<text text-anchor="middle" x="156.38" y="-54.38" font-family="Helvetica,sans-Serif" font-size="10.00">twig_get_attribute</text>
</a>
</g>
</g>
<!-- Node1&#45;&gt;Node10 -->
<g id="edge9_Node000001_Node000010" class="edge">
<title>Node1&#45;&gt;Node10</title>
<g id="a_edge9_Node000001_Node000010"><a xlink:title=" ">
<path fill="none" stroke="#63b8ff" d="M36.8,-140.28C46.96,-124.38 68.95,-93.35 95.5,-76.25 97.35,-75.06 99.28,-73.95 101.27,-72.9"/>
<polygon fill="#63b8ff" stroke="#63b8ff" points="102.51,-76.18 110.19,-68.88 99.64,-69.8 102.51,-76.18"/>
</a>
</g>
</g>
<!-- Node12 -->
<g id="Node000012" class="node">
<title>Node12</title>
<g id="a_Node000012"><a xlink:href="_core_extension_8php.html#a9406216b24c030f1de8792d9a386eb77" target="_top" xlink:title=" ">
<polygon fill="white" stroke="#666666" points="201.12,-141.88 111.62,-141.88 111.62,-122.62 201.12,-122.62 201.12,-141.88"/>
<text text-anchor="middle" x="156.38" y="-128.38" font-family="Helvetica,sans-Serif" font-size="10.00">twig_length_filter</text>
</a>
</g>
</g>
<!-- Node1&#45;&gt;Node12 -->
<g id="edge12_Node000001_Node000012" class="edge">
<title>Node1&#45;&gt;Node12</title>
<g id="a_edge12_Node000001_Node000012"><a xlink:title=" ">
<path fill="none" stroke="#63b8ff" d="M59.97,-146.03C71.88,-144.31 86.07,-142.26 99.82,-140.27"/>
<polygon fill="#63b8ff" stroke="#63b8ff" points="100.31,-143.74 109.71,-138.85 99.31,-136.81 100.31,-143.74"/>
</a>
</g>
</g>
<!-- Node3 -->
<g id="Node000003" class="node">
<title>Node3</title>
<g id="a_Node000003"><a xlink:href="_core_extension_8php.html#ac345ab6a3d1194b2ac8ed45b678f9756" target="_top" xlink:title=" ">
<polygon fill="white" stroke="#666666" points="374.25,-252.88 286.25,-252.88 286.25,-233.62 374.25,-233.62 374.25,-252.88"/>
<text text-anchor="middle" x="330.25" y="-239.38" font-family="Helvetica,sans-Serif" font-size="10.00">twig_test_empty</text>
</a>
</g>
</g>
<!-- Node2&#45;&gt;Node3 -->
<g id="edge2_Node000002_Node000003" class="edge">
<title>Node2&#45;&gt;Node3</title>
<g id="a_edge2_Node000002_Node000003"><a xlink:title=" ">
<path fill="none" stroke="#63b8ff" d="M205.71,-243.25C227.19,-243.25 252.56,-243.25 274.72,-243.25"/>
<polygon fill="#63b8ff" stroke="#63b8ff" points="274.45,-246.75 284.45,-243.25 274.45,-239.75 274.45,-246.75"/>
</a>
</g>
</g>
<!-- Node7 -->
<g id="Node000007" class="node">
<title>Node7</title>
<g id="a_Node000007"><a xlink:href="class_twig_1_1_environment.html#abca2d528da8311b6fcfe040768cbaa24" target="_top" xlink:title=" ">
<polygon fill="white" stroke="#666666" points="402.75,-141.88 257.75,-141.88 257.75,-122.62 402.75,-122.62 402.75,-141.88"/>
<text text-anchor="middle" x="330.25" y="-128.38" font-family="Helvetica,sans-Serif" font-size="10.00">Twig\Environment\getCharset</text>
</a>
</g>
</g>
<!-- Node6&#45;&gt;Node7 -->
<g id="edge6_Node000006_Node000007" class="edge">
<title>Node6&#45;&gt;Node7</title>
<g id="a_edge6_Node000006_Node000007"><a xlink:title=" ">
<path fill="none" stroke="#63b8ff" d="M203.89,-105.26C224.63,-109.73 249.28,-115.04 271.22,-119.76"/>
<polygon fill="#63b8ff" stroke="#63b8ff" points="270.41,-123.16 280.92,-121.85 271.88,-116.32 270.41,-123.16"/>
</a>
</g>
</g>
<!-- Node8 -->
<g id="Node000008" class="node">
<title>Node8</title>
<g id="a_Node000008"><a xlink:href="class_twig_1_1_environment.html#a5023c2a5ed30e298f55126721092f13d" target="_top" xlink:title=" ">
<polygon fill="white" stroke="#666666" points="407.25,-67.88 253.25,-67.88 253.25,-48.62 407.25,-48.62 407.25,-67.88"/>
<text text-anchor="middle" x="330.25" y="-54.38" font-family="Helvetica,sans-Serif" font-size="10.00">Twig\Environment\getExtension</text>
</a>
</g>
</g>
<!-- Node6&#45;&gt;Node8 -->
<g id="edge7_Node000006_Node000008" class="edge">
<title>Node6&#45;&gt;Node8</title>
<g id="a_edge7_Node000006_Node000008"><a xlink:title=" ">
<path fill="none" stroke="#63b8ff" d="M203.89,-85.24C224.63,-80.77 249.28,-75.46 271.22,-70.74"/>
<polygon fill="#63b8ff" stroke="#63b8ff" points="271.88,-74.18 280.92,-68.65 270.41,-67.34 271.88,-74.18"/>
</a>
</g>
</g>
<!-- Node9 -->
<g id="Node000009" class="node">
<title>Node9</title>
<g id="a_Node000009"><a xlink:href="_core_extension_8php.html#ae288325a1d8fc4e036d1e828d7fac1f6" target="_top" xlink:title=" ">
<polygon fill="white" stroke="#666666" points="388.12,-104.88 272.38,-104.88 272.38,-85.62 388.12,-85.62 388.12,-104.88"/>
<text text-anchor="middle" x="330.25" y="-91.38" font-family="Helvetica,sans-Serif" font-size="10.00">twig_convert_encoding</text>
</a>
</g>
</g>
<!-- Node6&#45;&gt;Node9 -->
<g id="edge8_Node000006_Node000009" class="edge">
<title>Node6&#45;&gt;Node9</title>
<g id="a_edge8_Node000006_Node000009"><a xlink:title=" ">
<path fill="none" stroke="#63b8ff" d="M203.89,-95.25C221.34,-95.25 241.56,-95.25 260.61,-95.25"/>
<polygon fill="#63b8ff" stroke="#63b8ff" points="260.45,-98.75 270.45,-95.25 260.45,-91.75 260.45,-98.75"/>
</a>
</g>
</g>
<!-- Node10&#45;&gt;Node8 -->
<g id="edge10_Node000010_Node000008" class="edge">
<title>Node10&#45;&gt;Node8</title>
<g id="a_edge10_Node000010_Node000008"><a xlink:title=" ">
<path fill="none" stroke="#63b8ff" d="M203.43,-58.25C215.2,-58.25 228.25,-58.25 241.36,-58.25"/>
<polygon fill="#63b8ff" stroke="#63b8ff" points="241.35,-61.75 251.35,-58.25 241.35,-54.75 241.35,-61.75"/>
</a>
</g>
</g>
<!-- Node11 -->
<g id="Node000011" class="node">
<title>Node11</title>
<g id="a_Node000011"><a xlink:href="class_twig_1_1_environment.html#ab39d5897ee5022ecc92032d769b9c60c" target="_top" xlink:title=" ">
<polygon fill="white" stroke="#666666" points="394.12,-30.5 266.38,-30.5 266.38,0 394.12,0 394.12,-30.5"/>
<text text-anchor="start" x="274.38" y="-17" font-family="Helvetica,sans-Serif" font-size="10.00">Twig\Environment\isStrict</text>
<text text-anchor="middle" x="330.25" y="-5.75" font-family="Helvetica,sans-Serif" font-size="10.00">Variables</text>
</a>
</g>
</g>
<!-- Node10&#45;&gt;Node11 -->
<g id="edge11_Node000010_Node000011" class="edge">
<title>Node10&#45;&gt;Node11</title>
<g id="a_edge11_Node000010_Node000011"><a xlink:title=" ">
<path fill="none" stroke="#63b8ff" d="M197.67,-48.17C214.92,-43.85 235.62,-38.67 255.44,-33.72"/>
<polygon fill="#63b8ff" stroke="#63b8ff" points="256.01,-37.18 264.87,-31.36 254.32,-30.39 256.01,-37.18"/>
</a>
</g>
</g>
<!-- Node12&#45;&gt;Node7 -->
<g id="edge13_Node000012_Node000007" class="edge">
<title>Node12&#45;&gt;Node7</title>
<g id="a_edge13_Node000012_Node000007"><a xlink:title=" ">
<path fill="none" stroke="#63b8ff" d="M201.19,-132.25C214.96,-132.25 230.64,-132.25 246.19,-132.25"/>
<polygon fill="#63b8ff" stroke="#63b8ff" points="245.95,-135.75 255.95,-132.25 245.95,-128.75 245.95,-135.75"/>
</a>
</g>
</g>
</g>
</svg>
</svg>

<style type='text/css'>
<![CDATA[
[data-mouse-over-selected='false'] { opacity: 0.7; }
[data-mouse-over-selected='true']  { opacity: 1.0; }
]]>
</style>
<script type="application/ecmascript"><![CDATA[
document.addEventListener('DOMContentLoaded', (event) => {
  highlightEdges();
  highlightAdjacentNodes();
});
]]></script>
</svg>
