<?xml version="1.0" encoding="UTF-8" standalone="no"?>
<!DOCTYPE svg PUBLIC "-//W3C//DTD SVG 1.1//EN"
 "http://www.w3.org/Graphics/SVG/1.1/DTD/svg11.dtd">
<!-- Generated by graphviz version 10.0.1 (20240210.2158)
 -->
<!-- Title: parseProperties Pages: 1 -->
<svg width="208pt" height="45pt"
 viewBox="0.00 0.00 208.00 45.25" xmlns="http://www.w3.org/2000/svg" xmlns:xlink="http://www.w3.org/1999/xlink">
<g id="graph0" class="graph" transform="scale(1 1) rotate(0) translate(4 41.25)">
<title>parseProperties</title>
<!-- Node1 -->
<g id="Node000001" class="node">
<title>Node1</title>
<g id="a_Node000001"><a xlink:title=" ">
<polygon fill="#999999" stroke="#666666" points="84.25,-19.25 0,-19.25 0,0 84.25,0 84.25,-19.25"/>
<text text-anchor="middle" x="42.12" y="-5.75" font-family="Helvetica,sans-Serif" font-size="10.00">parseProperties</text>
</a>
</g>
</g>
<!-- Node1&#45;&gt;Node1 -->
<g id="edge2_Node000001_Node000001" class="edge">
<title>Node1&#45;&gt;Node1</title>
<g id="a_edge2_Node000001_Node000001"><a xlink:title=" ">
<path fill="none" stroke="#63b8ff" d="M23.65,-19.54C15.22,-28.15 21.38,-37.25 42.12,-37.25 53.47,-37.25 60.45,-34.53 63.07,-30.65"/>
<polygon fill="#63b8ff" stroke="#63b8ff" points="66.51,-30.02 60.93,-21.02 59.68,-31.54 66.51,-30.02"/>
</a>
</g>
</g>
<!-- Node2 -->
<g id="Node000002" class="node">
<title>Node2</title>
<g id="a_Node000002"><a xlink:href="class_sabre_1_1_v_object_1_1_parser_1_1_x_m_l.html#a8a125dadd647c89601bad56e8963113a" target="_top" xlink:title=" ">
<polygon fill="white" stroke="#666666" points="200,-19.25 120.25,-19.25 120.25,0 200,0 200,-19.25"/>
<text text-anchor="middle" x="160.12" y="-5.75" font-family="Helvetica,sans-Serif" font-size="10.00">createProperty</text>
</a>
</g>
</g>
<!-- Node1&#45;&gt;Node2 -->
<g id="edge1_Node000001_Node000002" class="edge">
<title>Node1&#45;&gt;Node2</title>
<g id="a_edge1_Node000001_Node000002"><a xlink:title=" ">
<path fill="none" stroke="#63b8ff" d="M84.68,-9.62C92.36,-9.62 100.47,-9.62 108.39,-9.62"/>
<polygon fill="#63b8ff" stroke="#63b8ff" points="108.29,-13.13 118.29,-9.63 108.29,-6.13 108.29,-13.13"/>
</a>
</g>
</g>
</g>
</svg>
