<?xml version="1.0" encoding="UTF-8" standalone="no"?>
<!DOCTYPE svg PUBLIC "-//W3C//DTD SVG 1.1//EN"
 "http://www.w3.org/Graphics/SVG/1.1/DTD/svg11.dtd">
<!-- Generated by graphviz version 10.0.1 (20240210.2158)
 -->
<!-- Title: RuleDictionnaryPhoneType Pages: 1 -->
<svg width="555pt" height="2587pt"
 viewBox="0.00 0.00 555.00 2587.25" xmlns="http://www.w3.org/2000/svg" xmlns:xlink="http://www.w3.org/1999/xlink">
<g id="graph0" class="graph" transform="scale(1 1) rotate(0) translate(4 2583.25)">
<title>RuleDictionnaryPhoneType</title>
<!-- Node1 -->
<g id="Node000001" class="node">
<title>Node1</title>
<g id="a_Node000001"><a xlink:title=" ">
<polygon fill="#999999" stroke="none" points="490,-64 362,-64 362,0 490,0 490,-64"/>
<text text-anchor="start" x="366.75" y="-50.5" font-family="Helvetica,sans-Serif" font-size="10.00">RuleDictionnaryPhoneType</text>
<text text-anchor="start" x="424.5" y="-35.5" font-family="Helvetica,sans-Serif" font-size="10.00"> </text>
<text text-anchor="start" x="379.5" y="-20.5" font-family="Helvetica,sans-Serif" font-size="10.00">+</text>
<text text-anchor="start" x="403" y="-20.5" font-family="Helvetica,sans-Serif" font-size="10.00">getCriterias()</text>
<text text-anchor="start" x="379.5" y="-5.5" font-family="Helvetica,sans-Serif" font-size="10.00">+</text>
<text text-anchor="start" x="403" y="-5.5" font-family="Helvetica,sans-Serif" font-size="10.00">getActions()</text>
<polygon fill="#666666" stroke="#666666" points="362,-47 362,-47 490,-47 490,-47 362,-47"/>
<polygon fill="#666666" stroke="#666666" points="362,-32 362,-32 490,-32 490,-32 362,-32"/>
<polygon fill="none" stroke="#666666" points="362,0 362,-64 490,-64 490,0 362,0"/>
</a>
</g>
</g>
<!-- Node2 -->
<g id="Node000002" class="node">
<title>Node2</title>
<g id="a_Node000002"><a xlink:href="class_rule_dictionnary_dropdown.html" target="_top" xlink:title=" ">
<polygon fill="white" stroke="none" points="488,-150 364,-150 364,-101 488,-101 488,-150"/>
<text text-anchor="start" x="369" y="-136.5" font-family="Helvetica,sans-Serif" font-size="10.00">RuleDictionnaryDropdown</text>
<text text-anchor="start" x="373.5" y="-121.5" font-family="Helvetica,sans-Serif" font-size="10.00">+</text>
<text text-anchor="start" x="389" y="-121.5" font-family="Helvetica,sans-Serif" font-size="10.00">$can_sort</text>
<text text-anchor="start" x="373.5" y="-106.5" font-family="Helvetica,sans-Serif" font-size="10.00">+</text>
<text text-anchor="start" x="389" y="-106.5" font-family="Helvetica,sans-Serif" font-size="10.00">maxActionsCount()</text>
<polygon fill="#666666" stroke="#666666" points="364,-133 364,-133 488,-133 488,-133 364,-133"/>
<polygon fill="#666666" stroke="#666666" points="364,-118 364,-118 387,-118 387,-118 364,-118"/>
<polygon fill="#666666" stroke="#666666" points="387,-118 387,-118 488,-118 488,-118 387,-118"/>
<polygon fill="none" stroke="#666666" points="364,-101 364,-150 488,-150 488,-101 364,-101"/>
</a>
</g>
</g>
<!-- Node2&#45;&gt;Node1 -->
<g id="edge1_Node000001_Node000002" class="edge">
<title>Node2&#45;&gt;Node1</title>
<g id="a_edge1_Node000001_Node000002"><a xlink:title=" ">
<path fill="none" stroke="#63b8ff" d="M426,-90.08C426,-81.41 426,-72.16 426,-63.69"/>
<polygon fill="none" stroke="#63b8ff" points="422.5,-89.9 426,-99.9 429.5,-89.9 422.5,-89.9"/>
</a>
</g>
</g>
<!-- Node3 -->
<g id="Node000003" class="node">
<title>Node3</title>
<g id="a_Node000003"><a xlink:href="class_rule.html" target="_top" xlink:title=" ">
<polygon fill="white" stroke="none" points="443,-889 251,-889 251,-187 443,-187 443,-889"/>
<text text-anchor="start" x="336.88" y="-875.5" font-family="Helvetica,sans-Serif" font-size="10.00">Rule</text>
<text text-anchor="start" x="255" y="-860.5" font-family="Helvetica,sans-Serif" font-size="10.00">+</text>
<text text-anchor="start" x="265" y="-860.5" font-family="Helvetica,sans-Serif" font-size="10.00">$dohistory</text>
<text text-anchor="start" x="255" y="-845.5" font-family="Helvetica,sans-Serif" font-size="10.00">+</text>
<text text-anchor="start" x="265" y="-845.5" font-family="Helvetica,sans-Serif" font-size="10.00">$actions</text>
<text text-anchor="start" x="255" y="-830.5" font-family="Helvetica,sans-Serif" font-size="10.00">+</text>
<text text-anchor="start" x="265" y="-830.5" font-family="Helvetica,sans-Serif" font-size="10.00">$criterias</text>
<text text-anchor="start" x="255" y="-815.5" font-family="Helvetica,sans-Serif" font-size="10.00">+</text>
<text text-anchor="start" x="265" y="-815.5" font-family="Helvetica,sans-Serif" font-size="10.00">$can_sort</text>
<text text-anchor="start" x="255" y="-800.5" font-family="Helvetica,sans-Serif" font-size="10.00">+</text>
<text text-anchor="start" x="265" y="-800.5" font-family="Helvetica,sans-Serif" font-size="10.00">$orderby</text>
<text text-anchor="start" x="255" y="-785.5" font-family="Helvetica,sans-Serif" font-size="10.00">+</text>
<text text-anchor="start" x="265" y="-785.5" font-family="Helvetica,sans-Serif" font-size="10.00">$restrict_matching</text>
<text text-anchor="start" x="255" y="-770.5" font-family="Helvetica,sans-Serif" font-size="10.00">+</text>
<text text-anchor="start" x="265" y="-770.5" font-family="Helvetica,sans-Serif" font-size="10.00">$specific_parameters</text>
<text text-anchor="start" x="255" y="-755.5" font-family="Helvetica,sans-Serif" font-size="10.00">+</text>
<text text-anchor="start" x="265" y="-755.5" font-family="Helvetica,sans-Serif" font-size="10.00">$regex_results</text>
<text text-anchor="start" x="255" y="-740.5" font-family="Helvetica,sans-Serif" font-size="10.00">+</text>
<text text-anchor="start" x="265" y="-740.5" font-family="Helvetica,sans-Serif" font-size="10.00">$criterias_results</text>
<text text-anchor="start" x="255" y="-725.5" font-family="Helvetica,sans-Serif" font-size="10.00">+</text>
<text text-anchor="start" x="265" y="-725.5" font-family="Helvetica,sans-Serif" font-size="10.00">const RULE_NOT_IN_CACHE</text>
<text text-anchor="start" x="265" y="-710.5" font-family="Helvetica,sans-Serif" font-size="10.00">et 9 de plus...</text>
<text text-anchor="start" x="255.38" y="-695.5" font-family="Helvetica,sans-Serif" font-size="10.00">#</text>
<text text-anchor="start" x="265" y="-695.5" font-family="Helvetica,sans-Serif" font-size="10.00">$rules_id_field</text>
<text text-anchor="start" x="255.38" y="-680.5" font-family="Helvetica,sans-Serif" font-size="10.00">#</text>
<text text-anchor="start" x="265" y="-680.5" font-family="Helvetica,sans-Serif" font-size="10.00">$ruleactionclass</text>
<text text-anchor="start" x="255.38" y="-665.5" font-family="Helvetica,sans-Serif" font-size="10.00">#</text>
<text text-anchor="start" x="265" y="-665.5" font-family="Helvetica,sans-Serif" font-size="10.00">$rulecriteriaclass</text>
<text text-anchor="start" x="255" y="-650.5" font-family="Helvetica,sans-Serif" font-size="10.00">+</text>
<text text-anchor="start" x="265" y="-650.5" font-family="Helvetica,sans-Serif" font-size="10.00">getCloneRelations()</text>
<text text-anchor="start" x="255" y="-635.5" font-family="Helvetica,sans-Serif" font-size="10.00">+</text>
<text text-anchor="start" x="265" y="-635.5" font-family="Helvetica,sans-Serif" font-size="10.00">useConditions()</text>
<text text-anchor="start" x="255" y="-620.5" font-family="Helvetica,sans-Serif" font-size="10.00">+</text>
<text text-anchor="start" x="265" y="-620.5" font-family="Helvetica,sans-Serif" font-size="10.00">getRuleActionClass()</text>
<text text-anchor="start" x="255" y="-605.5" font-family="Helvetica,sans-Serif" font-size="10.00">+</text>
<text text-anchor="start" x="265" y="-605.5" font-family="Helvetica,sans-Serif" font-size="10.00">getRuleCriteriaClass()</text>
<text text-anchor="start" x="255" y="-590.5" font-family="Helvetica,sans-Serif" font-size="10.00">+</text>
<text text-anchor="start" x="265" y="-590.5" font-family="Helvetica,sans-Serif" font-size="10.00">getRuleIdField()</text>
<text text-anchor="start" x="255" y="-575.5" font-family="Helvetica,sans-Serif" font-size="10.00">+</text>
<text text-anchor="start" x="265" y="-575.5" font-family="Helvetica,sans-Serif" font-size="10.00">isEntityAssign()</text>
<text text-anchor="start" x="255" y="-560.5" font-family="Helvetica,sans-Serif" font-size="10.00">+</text>
<text text-anchor="start" x="265" y="-560.5" font-family="Helvetica,sans-Serif" font-size="10.00">post_getEmpty()</text>
<text text-anchor="start" x="255" y="-545.5" font-family="Helvetica,sans-Serif" font-size="10.00">+</text>
<text text-anchor="start" x="265" y="-545.5" font-family="Helvetica,sans-Serif" font-size="10.00">getTitle()</text>
<text text-anchor="start" x="255" y="-530.5" font-family="Helvetica,sans-Serif" font-size="10.00">+</text>
<text text-anchor="start" x="265" y="-530.5" font-family="Helvetica,sans-Serif" font-size="10.00">getCollectionClassName()</text>
<text text-anchor="start" x="255" y="-515.5" font-family="Helvetica,sans-Serif" font-size="10.00">+</text>
<text text-anchor="start" x="265" y="-515.5" font-family="Helvetica,sans-Serif" font-size="10.00">getSpecificMassiveActions</text>
<text text-anchor="start" x="265" y="-504.25" font-family="Helvetica,sans-Serif" font-size="10.00">($checkitem=null)</text>
<text text-anchor="start" x="265" y="-489.5" font-family="Helvetica,sans-Serif" font-size="10.00">et 47 de plus...</text>
<text text-anchor="start" x="255" y="-474.5" font-family="Helvetica,sans-Serif" font-size="10.00">+</text>
<text text-anchor="start" x="265" y="-474.5" font-family="Helvetica,sans-Serif" font-size="10.00">static getTable($classname</text>
<text text-anchor="start" x="265" y="-463.25" font-family="Helvetica,sans-Serif" font-size="10.00">=null)</text>
<text text-anchor="start" x="255" y="-448.5" font-family="Helvetica,sans-Serif" font-size="10.00">+</text>
<text text-anchor="start" x="265" y="-448.5" font-family="Helvetica,sans-Serif" font-size="10.00">static getTypeName</text>
<text text-anchor="start" x="265" y="-437.25" font-family="Helvetica,sans-Serif" font-size="10.00">($nb=0)</text>
<text text-anchor="start" x="255" y="-422.5" font-family="Helvetica,sans-Serif" font-size="10.00">+</text>
<text text-anchor="start" x="265" y="-422.5" font-family="Helvetica,sans-Serif" font-size="10.00">static getRuleObjectByID</text>
<text text-anchor="start" x="265" y="-411.25" font-family="Helvetica,sans-Serif" font-size="10.00">($rules_id)</text>
<text text-anchor="start" x="255" y="-396.5" font-family="Helvetica,sans-Serif" font-size="10.00">+</text>
<text text-anchor="start" x="265" y="-396.5" font-family="Helvetica,sans-Serif" font-size="10.00">static getConditionsArray()</text>
<text text-anchor="start" x="255" y="-381.5" font-family="Helvetica,sans-Serif" font-size="10.00">+</text>
<text text-anchor="start" x="265" y="-381.5" font-family="Helvetica,sans-Serif" font-size="10.00">static dropdownConditions</text>
<text text-anchor="start" x="265" y="-370.25" font-family="Helvetica,sans-Serif" font-size="10.00">($options=[])</text>
<text text-anchor="start" x="255" y="-355.5" font-family="Helvetica,sans-Serif" font-size="10.00">+</text>
<text text-anchor="start" x="265" y="-355.5" font-family="Helvetica,sans-Serif" font-size="10.00">static getConditionName</text>
<text text-anchor="start" x="265" y="-344.25" font-family="Helvetica,sans-Serif" font-size="10.00">($value)</text>
<text text-anchor="start" x="255" y="-329.5" font-family="Helvetica,sans-Serif" font-size="10.00">+</text>
<text text-anchor="start" x="265" y="-329.5" font-family="Helvetica,sans-Serif" font-size="10.00">static showMassiveActions</text>
<text text-anchor="start" x="265" y="-318.25" font-family="Helvetica,sans-Serif" font-size="10.00">SubForm(MassiveAction $ma)</text>
<text text-anchor="start" x="255" y="-303.5" font-family="Helvetica,sans-Serif" font-size="10.00">+</text>
<text text-anchor="start" x="265" y="-303.5" font-family="Helvetica,sans-Serif" font-size="10.00">static processMassiveActions</text>
<text text-anchor="start" x="265" y="-292.25" font-family="Helvetica,sans-Serif" font-size="10.00">ForOneItemtype(MassiveAction</text>
<text text-anchor="start" x="265" y="-281" font-family="Helvetica,sans-Serif" font-size="10.00"> $ma, CommonDBTM $item, array $ids)</text>
<text text-anchor="start" x="255" y="-266.5" font-family="Helvetica,sans-Serif" font-size="10.00">+</text>
<text text-anchor="start" x="265" y="-266.5" font-family="Helvetica,sans-Serif" font-size="10.00">static getSpecificValueTo</text>
<text text-anchor="start" x="265" y="-255.25" font-family="Helvetica,sans-Serif" font-size="10.00">Display($field, $values,</text>
<text text-anchor="start" x="265" y="-244" font-family="Helvetica,sans-Serif" font-size="10.00"> array $options=[])</text>
<text text-anchor="start" x="255" y="-229.5" font-family="Helvetica,sans-Serif" font-size="10.00">+</text>
<text text-anchor="start" x="265" y="-229.5" font-family="Helvetica,sans-Serif" font-size="10.00">static getSpecificValueTo</text>
<text text-anchor="start" x="265" y="-218.25" font-family="Helvetica,sans-Serif" font-size="10.00">Select($field, $name=&#39;&#39;,</text>
<text text-anchor="start" x="265" y="-207" font-family="Helvetica,sans-Serif" font-size="10.00"> $values=&#39;&#39;, array $options=[])</text>
<text text-anchor="start" x="265" y="-192.5" font-family="Helvetica,sans-Serif" font-size="10.00">et 11 de plus...</text>
<polygon fill="#666666" stroke="#666666" points="251,-872 251,-872 443,-872 443,-872 251,-872"/>
<polygon fill="#666666" stroke="#666666" points="251,-662 251,-662 263,-662 263,-662 251,-662"/>
<polygon fill="#666666" stroke="#666666" points="263,-662 263,-662 443,-662 443,-662 263,-662"/>
<polygon fill="none" stroke="#666666" points="251,-187 251,-889 443,-889 443,-187 251,-187"/>
</a>
</g>
</g>
<!-- Node3&#45;&gt;Node2 -->
<g id="edge2_Node000002_Node000003" class="edge">
<title>Node3&#45;&gt;Node2</title>
<g id="a_edge2_Node000002_Node000003"><a xlink:title=" ">
<path fill="none" stroke="#63b8ff" d="M416.51,-175.81C418.43,-165.85 420.11,-157.08 421.51,-149.81"/>
<polygon fill="none" stroke="#63b8ff" points="413.08,-175.1 414.63,-185.58 419.96,-176.43 413.08,-175.1"/>
</a>
</g>
</g>
<!-- Node4 -->
<g id="Node000004" class="node">
<title>Node4</title>
<g id="a_Node000004"><a xlink:href="class_common_d_b_t_m.html" target="_top" xlink:title=" ">
<polygon fill="white" stroke="none" points="286.5,-1864 133.5,-1864 133.5,-1060 286.5,-1060 286.5,-1864"/>
<text text-anchor="start" x="175.88" y="-1850.5" font-family="Helvetica,sans-Serif" font-size="10.00">CommonDBTM</text>
<text text-anchor="start" x="137.5" y="-1835.5" font-family="Helvetica,sans-Serif" font-size="10.00">+</text>
<text text-anchor="start" x="147.5" y="-1835.5" font-family="Helvetica,sans-Serif" font-size="10.00">$fields</text>
<text text-anchor="start" x="137.5" y="-1820.5" font-family="Helvetica,sans-Serif" font-size="10.00">+</text>
<text text-anchor="start" x="147.5" y="-1820.5" font-family="Helvetica,sans-Serif" font-size="10.00">$input</text>
<text text-anchor="start" x="137.5" y="-1805.5" font-family="Helvetica,sans-Serif" font-size="10.00">+</text>
<text text-anchor="start" x="147.5" y="-1805.5" font-family="Helvetica,sans-Serif" font-size="10.00">$updates</text>
<text text-anchor="start" x="137.5" y="-1790.5" font-family="Helvetica,sans-Serif" font-size="10.00">+</text>
<text text-anchor="start" x="147.5" y="-1790.5" font-family="Helvetica,sans-Serif" font-size="10.00">$oldvalues</text>
<text text-anchor="start" x="137.5" y="-1775.5" font-family="Helvetica,sans-Serif" font-size="10.00">+</text>
<text text-anchor="start" x="147.5" y="-1775.5" font-family="Helvetica,sans-Serif" font-size="10.00">$dohistory</text>
<text text-anchor="start" x="137.5" y="-1760.5" font-family="Helvetica,sans-Serif" font-size="10.00">+</text>
<text text-anchor="start" x="147.5" y="-1760.5" font-family="Helvetica,sans-Serif" font-size="10.00">$history_blacklist</text>
<text text-anchor="start" x="137.5" y="-1745.5" font-family="Helvetica,sans-Serif" font-size="10.00">+</text>
<text text-anchor="start" x="147.5" y="-1745.5" font-family="Helvetica,sans-Serif" font-size="10.00">$auto_message_on_action</text>
<text text-anchor="start" x="137.5" y="-1730.5" font-family="Helvetica,sans-Serif" font-size="10.00">+</text>
<text text-anchor="start" x="147.5" y="-1730.5" font-family="Helvetica,sans-Serif" font-size="10.00">$no_form_page</text>
<text text-anchor="start" x="137.5" y="-1715.5" font-family="Helvetica,sans-Serif" font-size="10.00">+</text>
<text text-anchor="start" x="147.5" y="-1715.5" font-family="Helvetica,sans-Serif" font-size="10.00">$additional_fields</text>
<text text-anchor="start" x="147.5" y="-1704.25" font-family="Helvetica,sans-Serif" font-size="10.00">_for_dictionnary</text>
<text text-anchor="start" x="137.5" y="-1689.5" font-family="Helvetica,sans-Serif" font-size="10.00">+</text>
<text text-anchor="start" x="147.5" y="-1689.5" font-family="Helvetica,sans-Serif" font-size="10.00">$taborientation</text>
<text text-anchor="start" x="137.5" y="-1674.5" font-family="Helvetica,sans-Serif" font-size="10.00">+</text>
<text text-anchor="start" x="147.5" y="-1674.5" font-family="Helvetica,sans-Serif" font-size="10.00">$get_item_to_display_tab</text>
<text text-anchor="start" x="137.5" y="-1659.5" font-family="Helvetica,sans-Serif" font-size="10.00">+</text>
<text text-anchor="start" x="147.5" y="-1659.5" font-family="Helvetica,sans-Serif" font-size="10.00">$deduplicate_queued</text>
<text text-anchor="start" x="147.5" y="-1648.25" font-family="Helvetica,sans-Serif" font-size="10.00">_notifications</text>
<text text-anchor="start" x="137.5" y="-1633.5" font-family="Helvetica,sans-Serif" font-size="10.00">+</text>
<text text-anchor="start" x="147.5" y="-1633.5" font-family="Helvetica,sans-Serif" font-size="10.00">$right</text>
<text text-anchor="start" x="137.88" y="-1618.5" font-family="Helvetica,sans-Serif" font-size="10.00">#</text>
<text text-anchor="start" x="147.5" y="-1618.5" font-family="Helvetica,sans-Serif" font-size="10.00">$fkfield</text>
<text text-anchor="start" x="137.88" y="-1603.5" font-family="Helvetica,sans-Serif" font-size="10.00">#</text>
<text text-anchor="start" x="147.5" y="-1603.5" font-family="Helvetica,sans-Serif" font-size="10.00">$searchopt</text>
<text text-anchor="start" x="137.88" y="-1588.5" font-family="Helvetica,sans-Serif" font-size="10.00">#</text>
<text text-anchor="start" x="147.5" y="-1588.5" font-family="Helvetica,sans-Serif" font-size="10.00">$usenotepad</text>
<text text-anchor="start" x="137.5" y="-1573.5" font-family="Helvetica,sans-Serif" font-size="10.00">+</text>
<text text-anchor="start" x="147.5" y="-1573.5" font-family="Helvetica,sans-Serif" font-size="10.00">getFromResultSet($rs)</text>
<text text-anchor="start" x="137.5" y="-1558.5" font-family="Helvetica,sans-Serif" font-size="10.00">+</text>
<text text-anchor="start" x="147.5" y="-1558.5" font-family="Helvetica,sans-Serif" font-size="10.00">getID()</text>
<text text-anchor="start" x="137.5" y="-1543.5" font-family="Helvetica,sans-Serif" font-size="10.00">+</text>
<text text-anchor="start" x="147.5" y="-1543.5" font-family="Helvetica,sans-Serif" font-size="10.00">post_getFromDB()</text>
<text text-anchor="start" x="137.5" y="-1528.5" font-family="Helvetica,sans-Serif" font-size="10.00">+</text>
<text text-anchor="start" x="147.5" y="-1528.5" font-family="Helvetica,sans-Serif" font-size="10.00">showForm($ID, array</text>
<text text-anchor="start" x="147.5" y="-1517.25" font-family="Helvetica,sans-Serif" font-size="10.00"> $options=[])</text>
<text text-anchor="start" x="137.5" y="-1502.5" font-family="Helvetica,sans-Serif" font-size="10.00">+</text>
<text text-anchor="start" x="147.5" y="-1502.5" font-family="Helvetica,sans-Serif" font-size="10.00">getSNMPCredential()</text>
<text text-anchor="start" x="137.5" y="-1487.5" font-family="Helvetica,sans-Serif" font-size="10.00">+</text>
<text text-anchor="start" x="147.5" y="-1487.5" font-family="Helvetica,sans-Serif" font-size="10.00">getLockedFields()</text>
<text text-anchor="start" x="137.5" y="-1472.5" font-family="Helvetica,sans-Serif" font-size="10.00">+</text>
<text text-anchor="start" x="147.5" y="-1472.5" font-family="Helvetica,sans-Serif" font-size="10.00">post_getEmpty()</text>
<text text-anchor="start" x="137.5" y="-1457.5" font-family="Helvetica,sans-Serif" font-size="10.00">+</text>
<text text-anchor="start" x="147.5" y="-1457.5" font-family="Helvetica,sans-Serif" font-size="10.00">getLogTypeID()</text>
<text text-anchor="start" x="137.5" y="-1442.5" font-family="Helvetica,sans-Serif" font-size="10.00">+</text>
<text text-anchor="start" x="147.5" y="-1442.5" font-family="Helvetica,sans-Serif" font-size="10.00">post_deleteFromDB()</text>
<text text-anchor="start" x="137.5" y="-1427.5" font-family="Helvetica,sans-Serif" font-size="10.00">+</text>
<text text-anchor="start" x="147.5" y="-1427.5" font-family="Helvetica,sans-Serif" font-size="10.00">cleanDBonPurge()</text>
<text text-anchor="start" x="147.5" y="-1412.5" font-family="Helvetica,sans-Serif" font-size="10.00">et 87 de plus...</text>
<text text-anchor="start" x="137.5" y="-1397.5" font-family="Helvetica,sans-Serif" font-size="10.00">+</text>
<text text-anchor="start" x="147.5" y="-1397.5" font-family="Helvetica,sans-Serif" font-size="10.00">static getTable($classname</text>
<text text-anchor="start" x="147.5" y="-1386.25" font-family="Helvetica,sans-Serif" font-size="10.00">=null)</text>
<text text-anchor="start" x="137.5" y="-1371.5" font-family="Helvetica,sans-Serif" font-size="10.00">+</text>
<text text-anchor="start" x="147.5" y="-1371.5" font-family="Helvetica,sans-Serif" font-size="10.00">static forceTable(</text>
<text text-anchor="start" x="147.5" y="-1360.25" font-family="Helvetica,sans-Serif" font-size="10.00">$table)</text>
<text text-anchor="start" x="137.5" y="-1345.5" font-family="Helvetica,sans-Serif" font-size="10.00">+</text>
<text text-anchor="start" x="147.5" y="-1345.5" font-family="Helvetica,sans-Serif" font-size="10.00">static getForeignKeyField()</text>
<text text-anchor="start" x="137.5" y="-1330.5" font-family="Helvetica,sans-Serif" font-size="10.00">+</text>
<text text-anchor="start" x="147.5" y="-1330.5" font-family="Helvetica,sans-Serif" font-size="10.00">static getTableField</text>
<text text-anchor="start" x="147.5" y="-1319.25" font-family="Helvetica,sans-Serif" font-size="10.00">($field, $classname=null)</text>
<text text-anchor="start" x="137.5" y="-1304.5" font-family="Helvetica,sans-Serif" font-size="10.00">+</text>
<text text-anchor="start" x="147.5" y="-1304.5" font-family="Helvetica,sans-Serif" font-size="10.00">static getFromIter</text>
<text text-anchor="start" x="147.5" y="-1293.25" font-family="Helvetica,sans-Serif" font-size="10.00">(DBmysqlIterator $iter)</text>
<text text-anchor="start" x="137.5" y="-1278.5" font-family="Helvetica,sans-Serif" font-size="10.00">+</text>
<text text-anchor="start" x="147.5" y="-1278.5" font-family="Helvetica,sans-Serif" font-size="10.00">static unsetUndisclosedFields</text>
<text text-anchor="start" x="147.5" y="-1267.25" font-family="Helvetica,sans-Serif" font-size="10.00">(&amp;$fields)</text>
<text text-anchor="start" x="137.5" y="-1252.5" font-family="Helvetica,sans-Serif" font-size="10.00">+</text>
<text text-anchor="start" x="147.5" y="-1252.5" font-family="Helvetica,sans-Serif" font-size="10.00">static getIndexName()</text>
<text text-anchor="start" x="137.5" y="-1237.5" font-family="Helvetica,sans-Serif" font-size="10.00">+</text>
<text text-anchor="start" x="147.5" y="-1237.5" font-family="Helvetica,sans-Serif" font-size="10.00">static isNewID($ID)</text>
<text text-anchor="start" x="137.5" y="-1222.5" font-family="Helvetica,sans-Serif" font-size="10.00">+</text>
<text text-anchor="start" x="147.5" y="-1222.5" font-family="Helvetica,sans-Serif" font-size="10.00">static getNameField()</text>
<text text-anchor="start" x="137.5" y="-1207.5" font-family="Helvetica,sans-Serif" font-size="10.00">+</text>
<text text-anchor="start" x="147.5" y="-1207.5" font-family="Helvetica,sans-Serif" font-size="10.00">static getCompleteNameField()</text>
<text text-anchor="start" x="147.5" y="-1192.5" font-family="Helvetica,sans-Serif" font-size="10.00">et 26 de plus...</text>
<text text-anchor="start" x="137.88" y="-1177.5" font-family="Helvetica,sans-Serif" font-size="10.00">#</text>
<text text-anchor="start" x="147.5" y="-1177.5" font-family="Helvetica,sans-Serif" font-size="10.00">saveInput()</text>
<text text-anchor="start" x="137.88" y="-1162.5" font-family="Helvetica,sans-Serif" font-size="10.00">#</text>
<text text-anchor="start" x="147.5" y="-1162.5" font-family="Helvetica,sans-Serif" font-size="10.00">clearSavedInput()</text>
<text text-anchor="start" x="137.88" y="-1147.5" font-family="Helvetica,sans-Serif" font-size="10.00">#</text>
<text text-anchor="start" x="147.5" y="-1147.5" font-family="Helvetica,sans-Serif" font-size="10.00">restoreInput(array</text>
<text text-anchor="start" x="147.5" y="-1136.25" font-family="Helvetica,sans-Serif" font-size="10.00"> $default=[])</text>
<text text-anchor="start" x="137.88" y="-1121.5" font-family="Helvetica,sans-Serif" font-size="10.00">#</text>
<text text-anchor="start" x="147.5" y="-1121.5" font-family="Helvetica,sans-Serif" font-size="10.00">restoreSavedValues</text>
<text text-anchor="start" x="147.5" y="-1110.25" font-family="Helvetica,sans-Serif" font-size="10.00">(array $saved=[])</text>
<text text-anchor="start" x="137.88" y="-1095.5" font-family="Helvetica,sans-Serif" font-size="10.00">#</text>
<text text-anchor="start" x="147.5" y="-1095.5" font-family="Helvetica,sans-Serif" font-size="10.00">cleanLockedsOnAdd()</text>
<text text-anchor="start" x="137.88" y="-1080.5" font-family="Helvetica,sans-Serif" font-size="10.00">#</text>
<text text-anchor="start" x="147.5" y="-1080.5" font-family="Helvetica,sans-Serif" font-size="10.00">cleanLockeds()</text>
<text text-anchor="start" x="137.88" y="-1065.5" font-family="Helvetica,sans-Serif" font-size="10.00">#</text>
<text text-anchor="start" x="147.5" y="-1065.5" font-family="Helvetica,sans-Serif" font-size="10.00">computeFriendlyName()</text>
<polygon fill="#666666" stroke="#666666" points="133.5,-1847 133.5,-1847 286.5,-1847 286.5,-1847 133.5,-1847"/>
<polygon fill="#666666" stroke="#666666" points="133.5,-1585 133.5,-1585 145.5,-1585 145.5,-1585 133.5,-1585"/>
<polygon fill="#666666" stroke="#666666" points="145.5,-1585 145.5,-1585 286.5,-1585 286.5,-1585 145.5,-1585"/>
<polygon fill="none" stroke="#666666" points="133.5,-1060 133.5,-1864 286.5,-1864 286.5,-1060 133.5,-1060"/>
</a>
</g>
</g>
<!-- Node4&#45;&gt;Node3 -->
<g id="edge3_Node000003_Node000004" class="edge">
<title>Node4&#45;&gt;Node3</title>
<g id="a_edge3_Node000003_Node000004"><a xlink:title=" ">
<path fill="none" stroke="#63b8ff" d="M271.23,-1048.9C279.17,-995.47 287.24,-941.15 295.01,-888.86"/>
<polygon fill="none" stroke="#63b8ff" points="267.77,-1048.38 269.76,-1058.79 274.7,-1049.41 267.77,-1048.38"/>
</a>
</g>
</g>
<!-- Node5 -->
<g id="Node000005" class="node">
<title>Node5</title>
<g id="a_Node000005"><a xlink:href="class_common_g_l_p_i.html" target="_top" xlink:title=" ">
<polygon fill="white" stroke="none" points="163.5,-2449.25 12.5,-2449.25 12.5,-1911.25 163.5,-1911.25 163.5,-2449.25"/>
<text text-anchor="start" x="56.88" y="-2435.75" font-family="Helvetica,sans-Serif" font-size="10.00">CommonGLPI</text>
<text text-anchor="start" x="16.5" y="-2420.75" font-family="Helvetica,sans-Serif" font-size="10.00">+</text>
<text text-anchor="start" x="26.5" y="-2420.75" font-family="Helvetica,sans-Serif" font-size="10.00">$showdebug</text>
<text text-anchor="start" x="16.5" y="-2405.75" font-family="Helvetica,sans-Serif" font-size="10.00">+</text>
<text text-anchor="start" x="26.5" y="-2405.75" font-family="Helvetica,sans-Serif" font-size="10.00">$taborientation</text>
<text text-anchor="start" x="16.5" y="-2390.75" font-family="Helvetica,sans-Serif" font-size="10.00">+</text>
<text text-anchor="start" x="26.5" y="-2390.75" font-family="Helvetica,sans-Serif" font-size="10.00">$get_item_to_display_tab</text>
<text text-anchor="start" x="16.88" y="-2375.75" font-family="Helvetica,sans-Serif" font-size="10.00">#</text>
<text text-anchor="start" x="26.5" y="-2375.75" font-family="Helvetica,sans-Serif" font-size="10.00">$type</text>
<text text-anchor="start" x="16.88" y="-2360.75" font-family="Helvetica,sans-Serif" font-size="10.00">#</text>
<text text-anchor="start" x="26.5" y="-2360.75" font-family="Helvetica,sans-Serif" font-size="10.00">$displaylist</text>
<text text-anchor="start" x="16.5" y="-2345.75" font-family="Helvetica,sans-Serif" font-size="10.00">+</text>
<text text-anchor="start" x="26.5" y="-2345.75" font-family="Helvetica,sans-Serif" font-size="10.00">__construct()</text>
<text text-anchor="start" x="16.5" y="-2330.75" font-family="Helvetica,sans-Serif" font-size="10.00">+</text>
<text text-anchor="start" x="26.5" y="-2330.75" font-family="Helvetica,sans-Serif" font-size="10.00">can($ID, $right, array</text>
<text text-anchor="start" x="26.5" y="-2319.5" font-family="Helvetica,sans-Serif" font-size="10.00"> &amp;$input=null)</text>
<text text-anchor="start" x="16.5" y="-2304.75" font-family="Helvetica,sans-Serif" font-size="10.00">+</text>
<text text-anchor="start" x="26.5" y="-2304.75" font-family="Helvetica,sans-Serif" font-size="10.00">defineTabs($options=[])</text>
<text text-anchor="start" x="16.5" y="-2289.75" font-family="Helvetica,sans-Serif" font-size="10.00">+</text>
<text text-anchor="start" x="26.5" y="-2289.75" font-family="Helvetica,sans-Serif" font-size="10.00">addStandardTab($itemtype,</text>
<text text-anchor="start" x="26.5" y="-2278.5" font-family="Helvetica,sans-Serif" font-size="10.00"> array &amp;$ong, array $options)</text>
<text text-anchor="start" x="16.5" y="-2263.75" font-family="Helvetica,sans-Serif" font-size="10.00">+</text>
<text text-anchor="start" x="26.5" y="-2263.75" font-family="Helvetica,sans-Serif" font-size="10.00">addDefaultFormTab</text>
<text text-anchor="start" x="26.5" y="-2252.5" font-family="Helvetica,sans-Serif" font-size="10.00">(array &amp;$ong)</text>
<text text-anchor="start" x="16.5" y="-2237.75" font-family="Helvetica,sans-Serif" font-size="10.00">+</text>
<text text-anchor="start" x="26.5" y="-2237.75" font-family="Helvetica,sans-Serif" font-size="10.00">getTabNameForItem</text>
<text text-anchor="start" x="26.5" y="-2226.5" font-family="Helvetica,sans-Serif" font-size="10.00">(CommonGLPI $item, </text>
<text text-anchor="start" x="26.5" y="-2215.25" font-family="Helvetica,sans-Serif" font-size="10.00">$withtemplate=0)</text>
<text text-anchor="start" x="16.5" y="-2200.75" font-family="Helvetica,sans-Serif" font-size="10.00">+</text>
<text text-anchor="start" x="26.5" y="-2200.75" font-family="Helvetica,sans-Serif" font-size="10.00">isNewItem()</text>
<text text-anchor="start" x="16.5" y="-2185.75" font-family="Helvetica,sans-Serif" font-size="10.00">+</text>
<text text-anchor="start" x="26.5" y="-2185.75" font-family="Helvetica,sans-Serif" font-size="10.00">showTabsContent($options=[])</text>
<text text-anchor="start" x="16.5" y="-2170.75" font-family="Helvetica,sans-Serif" font-size="10.00">+</text>
<text text-anchor="start" x="26.5" y="-2170.75" font-family="Helvetica,sans-Serif" font-size="10.00">getHeaderName()</text>
<text text-anchor="start" x="16.5" y="-2155.75" font-family="Helvetica,sans-Serif" font-size="10.00">+</text>
<text text-anchor="start" x="26.5" y="-2155.75" font-family="Helvetica,sans-Serif" font-size="10.00">display($options=[])</text>
<text text-anchor="start" x="16.5" y="-2140.75" font-family="Helvetica,sans-Serif" font-size="10.00">+</text>
<text text-anchor="start" x="26.5" y="-2140.75" font-family="Helvetica,sans-Serif" font-size="10.00">getErrorMessage($error,</text>
<text text-anchor="start" x="26.5" y="-2129.5" font-family="Helvetica,sans-Serif" font-size="10.00"> $object=&#39;&#39;)</text>
<text text-anchor="start" x="16.5" y="-2114.75" font-family="Helvetica,sans-Serif" font-size="10.00">+</text>
<text text-anchor="start" x="26.5" y="-2114.75" font-family="Helvetica,sans-Serif" font-size="10.00">static getTypeName</text>
<text text-anchor="start" x="26.5" y="-2103.5" font-family="Helvetica,sans-Serif" font-size="10.00">($nb=0)</text>
<text text-anchor="start" x="16.5" y="-2088.75" font-family="Helvetica,sans-Serif" font-size="10.00">+</text>
<text text-anchor="start" x="26.5" y="-2088.75" font-family="Helvetica,sans-Serif" font-size="10.00">static getFieldLabel()</text>
<text text-anchor="start" x="16.5" y="-2073.75" font-family="Helvetica,sans-Serif" font-size="10.00">+</text>
<text text-anchor="start" x="26.5" y="-2073.75" font-family="Helvetica,sans-Serif" font-size="10.00">static getType()</text>
<text text-anchor="start" x="16.5" y="-2058.75" font-family="Helvetica,sans-Serif" font-size="10.00">+</text>
<text text-anchor="start" x="26.5" y="-2058.75" font-family="Helvetica,sans-Serif" font-size="10.00">static canCreate()</text>
<text text-anchor="start" x="16.5" y="-2043.75" font-family="Helvetica,sans-Serif" font-size="10.00">+</text>
<text text-anchor="start" x="26.5" y="-2043.75" font-family="Helvetica,sans-Serif" font-size="10.00">static canView()</text>
<text text-anchor="start" x="16.5" y="-2028.75" font-family="Helvetica,sans-Serif" font-size="10.00">+</text>
<text text-anchor="start" x="26.5" y="-2028.75" font-family="Helvetica,sans-Serif" font-size="10.00">static canUpdate()</text>
<text text-anchor="start" x="16.5" y="-2013.75" font-family="Helvetica,sans-Serif" font-size="10.00">+</text>
<text text-anchor="start" x="26.5" y="-2013.75" font-family="Helvetica,sans-Serif" font-size="10.00">static canDelete()</text>
<text text-anchor="start" x="16.5" y="-1998.75" font-family="Helvetica,sans-Serif" font-size="10.00">+</text>
<text text-anchor="start" x="26.5" y="-1998.75" font-family="Helvetica,sans-Serif" font-size="10.00">static canPurge()</text>
<text text-anchor="start" x="16.5" y="-1983.75" font-family="Helvetica,sans-Serif" font-size="10.00">+</text>
<text text-anchor="start" x="26.5" y="-1983.75" font-family="Helvetica,sans-Serif" font-size="10.00">static registerStandardTab</text>
<text text-anchor="start" x="26.5" y="-1972.5" font-family="Helvetica,sans-Serif" font-size="10.00">($typeform, $typetab)</text>
<text text-anchor="start" x="16.5" y="-1957.75" font-family="Helvetica,sans-Serif" font-size="10.00">+</text>
<text text-anchor="start" x="26.5" y="-1957.75" font-family="Helvetica,sans-Serif" font-size="10.00">static getOtherTabs</text>
<text text-anchor="start" x="26.5" y="-1946.5" font-family="Helvetica,sans-Serif" font-size="10.00">($typeform)</text>
<text text-anchor="start" x="26.5" y="-1931.75" font-family="Helvetica,sans-Serif" font-size="10.00">et 17 de plus...</text>
<text text-anchor="start" x="16.88" y="-1916.75" font-family="Helvetica,sans-Serif" font-size="10.00">#</text>
<text text-anchor="start" x="26.5" y="-1916.75" font-family="Helvetica,sans-Serif" font-size="10.00">getFormHeaderToolbar()</text>
<polygon fill="#666666" stroke="#666666" points="12.5,-2432.25 12.5,-2432.25 163.5,-2432.25 163.5,-2432.25 12.5,-2432.25"/>
<polygon fill="#666666" stroke="#666666" points="12.5,-2357.25 12.5,-2357.25 24.5,-2357.25 24.5,-2357.25 12.5,-2357.25"/>
<polygon fill="#666666" stroke="#666666" points="24.5,-2357.25 24.5,-2357.25 163.5,-2357.25 163.5,-2357.25 24.5,-2357.25"/>
<polygon fill="none" stroke="#666666" points="12.5,-1911.25 12.5,-2449.25 163.5,-2449.25 163.5,-1911.25 12.5,-1911.25"/>
</a>
</g>
</g>
<!-- Node5&#45;&gt;Node4 -->
<g id="edge4_Node000004_Node000005" class="edge">
<title>Node5&#45;&gt;Node4</title>
<g id="a_edge4_Node000004_Node000005"><a xlink:title=" ">
<path fill="none" stroke="#63b8ff" d="M135.52,-1900.27C137.57,-1888.25 139.64,-1876.11 141.72,-1863.89"/>
<polygon fill="none" stroke="#63b8ff" points="132.13,-1899.33 133.9,-1909.78 139.03,-1900.51 132.13,-1899.33"/>
</a>
</g>
</g>
<!-- Node6 -->
<g id="Node000006" class="node">
<title>Node6</title>
<g id="a_Node000006"><a xlink:href="interface_common_g_l_p_i_interface.html" target="_top" xlink:title=" ">
<polygon fill="white" stroke="none" points="110,-2579.25 0,-2579.25 0,-2530.25 110,-2530.25 110,-2579.25"/>
<text text-anchor="start" x="4.75" y="-2565.75" font-family="Helvetica,sans-Serif" font-size="10.00">CommonGLPIInterface</text>
<text text-anchor="start" x="53.5" y="-2550.75" font-family="Helvetica,sans-Serif" font-size="10.00"> </text>
<text text-anchor="start" x="12.5" y="-2535.75" font-family="Helvetica,sans-Serif" font-size="10.00">+</text>
<text text-anchor="start" x="31" y="-2535.75" font-family="Helvetica,sans-Serif" font-size="10.00">__construct()</text>
<polygon fill="#666666" stroke="#666666" points="0,-2562.25 0,-2562.25 110,-2562.25 110,-2562.25 0,-2562.25"/>
<polygon fill="#666666" stroke="#666666" points="0,-2547.25 0,-2547.25 110,-2547.25 110,-2547.25 0,-2547.25"/>
<polygon fill="none" stroke="#666666" points="0,-2530.25 0,-2579.25 110,-2579.25 110,-2530.25 0,-2530.25"/>
</a>
</g>
</g>
<!-- Node6&#45;&gt;Node5 -->
<g id="edge5_Node000005_Node000006" class="edge">
<title>Node6&#45;&gt;Node5</title>
<g id="a_edge5_Node000005_Node000006"><a xlink:title=" ">
<path fill="none" stroke="#63b8ff" d="M58.08,-2519.03C59.7,-2500.7 61.86,-2476.36 64.27,-2449.12"/>
<polygon fill="none" stroke="#63b8ff" points="54.59,-2518.67 57.2,-2528.94 61.57,-2519.29 54.59,-2518.67"/>
</a>
</g>
</g>
<!-- Node7 -->
<g id="Node000007" class="node">
<title>Node7</title>
<g id="a_Node000007"><a xlink:title=" ">
<polygon fill="white" stroke="none" points="287,-2579.25 253,-2579.25 253,-2530.25 287,-2530.25 287,-2579.25"/>
<text text-anchor="start" x="258" y="-2565.75" font-family="Helvetica,sans-Serif" font-size="10.00">static</text>
<text text-anchor="start" x="268.5" y="-2550.75" font-family="Helvetica,sans-Serif" font-size="10.00"> </text>
<text text-anchor="start" x="268.5" y="-2535.75" font-family="Helvetica,sans-Serif" font-size="10.00"> </text>
<polygon fill="#666666" stroke="#666666" points="253,-2562.25 253,-2562.25 287,-2562.25 287,-2562.25 253,-2562.25"/>
<polygon fill="#666666" stroke="#666666" points="253,-2547.25 253,-2547.25 287,-2547.25 287,-2547.25 253,-2547.25"/>
<polygon fill="none" stroke="#666666" points="253,-2530.25 253,-2579.25 287,-2579.25 287,-2530.25 253,-2530.25"/>
</a>
</g>
</g>
<!-- Node7&#45;&gt;Node2 -->
<g id="edge10_Node000002_Node000007" class="edge">
<title>Node7&#45;&gt;Node2</title>
<g id="a_edge10_Node000002_Node000007"><a xlink:title=" ">
<path fill="none" stroke="#63b8ff" d="M286.67,-2541.15C296.05,-2533.5 307.55,-2523.12 316,-2512.25 417.95,-2380.99 490,-2347.45 490,-2181.25 490,-2181.25 490,-2181.25 490,-537 490,-380.53 491.77,-338.33 452,-187 449.78,-178.56 446.57,-169.77 443.16,-161.59"/>
<polygon fill="none" stroke="#63b8ff" points="443.15,-161.57 437.07,-157.7 438.3,-150.59 444.38,-154.46 443.15,-161.57"/>
</a>
</g>
<text text-anchor="middle" x="518.5" y="-1458.12" font-family="Helvetica,sans-Serif" font-size="10.00" fill="grey"> +$rightname</text>
</g>
<!-- Node7&#45;&gt;Node3 -->
<g id="edge8_Node000003_Node000007" class="edge">
<title>Node7&#45;&gt;Node3</title>
<g id="a_edge8_Node000003_Node000007"><a xlink:title=" ">
<path fill="none" stroke="#63b8ff" d="M283.42,-2530.6C294.55,-2510 309.56,-2478.68 316,-2449.25 332.19,-2375.29 341.05,-1434.85 344.81,-901.73"/>
<polygon fill="none" stroke="#63b8ff" points="344.81,-901.72 340.85,-895.69 344.89,-889.72 348.85,-895.75 344.81,-901.72"/>
</a>
</g>
<text text-anchor="middle" x="362.5" y="-1883.75" font-family="Helvetica,sans-Serif" font-size="10.00" fill="grey"> +$rightname</text>
</g>
<!-- Node7&#45;&gt;Node4 -->
<g id="edge7_Node000004_Node000007" class="edge">
<title>Node7&#45;&gt;Node4</title>
<g id="a_edge7_Node000004_Node000007"><a xlink:title=" ">
<path fill="none" stroke="#63b8ff" d="M256.49,-2530.61C245.29,-2510.03 230.19,-2478.71 223.75,-2449.25 183.29,-2264.23 175.22,-2054.99 179.11,-1876.99"/>
<polygon fill="none" stroke="#63b8ff" points="179.11,-1876.86 175.26,-1870.77 179.4,-1864.86 183.25,-1870.96 179.11,-1876.86"/>
</a>
</g>
<text text-anchor="start" x="224" y="-2221.38" font-family="Helvetica,sans-Serif" font-size="10.00" fill="grey"> #$foreign_key_fields</text>
<text text-anchor="middle" x="270.12" y="-2210.12" font-family="Helvetica,sans-Serif" font-size="10.00" fill="grey">_of</text>
<text text-anchor="start" x="224" y="-2198.88" font-family="Helvetica,sans-Serif" font-size="10.00" fill="grey">#$forward_entity</text>
<text text-anchor="middle" x="270.12" y="-2187.62" font-family="Helvetica,sans-Serif" font-size="10.00" fill="grey">_to</text>
<text text-anchor="middle" x="270.12" y="-2176.38" font-family="Helvetica,sans-Serif" font-size="10.00" fill="grey">#$notable</text>
<text text-anchor="start" x="224" y="-2165.12" font-family="Helvetica,sans-Serif" font-size="10.00" fill="grey">#$plugins_forward</text>
<text text-anchor="middle" x="270.12" y="-2153.88" font-family="Helvetica,sans-Serif" font-size="10.00" fill="grey">_entity</text>
<text text-anchor="middle" x="270.12" y="-2142.62" font-family="Helvetica,sans-Serif" font-size="10.00" fill="grey">#$tables_of</text>
<text text-anchor="middle" x="270.12" y="-2131.38" font-family="Helvetica,sans-Serif" font-size="10.00" fill="grey">+$undisclosedFields</text>
</g>
<!-- Node7&#45;&gt;Node5 -->
<g id="edge6_Node000005_Node000007" class="edge">
<title>Node7&#45;&gt;Node5</title>
<g id="a_edge6_Node000005_Node000007"><a xlink:title=" ">
<path fill="none" stroke="#63b8ff" d="M253.15,-2552.49C212.19,-2549.05 109.3,-2537.98 88.75,-2512.25 80.31,-2501.69 74.95,-2483.83 71.82,-2461.72"/>
<polygon fill="none" stroke="#63b8ff" points="71.84,-2461.83 67.15,-2456.35 70.41,-2449.91 75.1,-2455.4 71.84,-2461.83"/>
</a>
</g>
<text text-anchor="middle" x="142.62" y="-2502.75" font-family="Helvetica,sans-Serif" font-size="10.00" fill="grey"> #$othertabs</text>
<text text-anchor="start" x="89" y="-2491.5" font-family="Helvetica,sans-Serif" font-size="10.00" fill="grey">#$showTitleInNavigation</text>
<text text-anchor="middle" x="142.62" y="-2480.25" font-family="Helvetica,sans-Serif" font-size="10.00" fill="grey">Header</text>
<text text-anchor="middle" x="142.62" y="-2469" font-family="Helvetica,sans-Serif" font-size="10.00" fill="grey">+$rightname</text>
</g>
<!-- Node8 -->
<g id="Node000008" class="node">
<title>Node8</title>
<g id="a_Node000008"><a xlink:title=" ">
<polygon fill="white" stroke="none" points="392,-1486.5 358,-1486.5 358,-1437.5 392,-1437.5 392,-1486.5"/>
<text text-anchor="start" x="363" y="-1473" font-family="Helvetica,sans-Serif" font-size="10.00">const</text>
<text text-anchor="start" x="373.5" y="-1458" font-family="Helvetica,sans-Serif" font-size="10.00"> </text>
<text text-anchor="start" x="373.5" y="-1443" font-family="Helvetica,sans-Serif" font-size="10.00"> </text>
<polygon fill="#666666" stroke="#666666" points="358,-1469.5 358,-1469.5 392,-1469.5 392,-1469.5 358,-1469.5"/>
<polygon fill="#666666" stroke="#666666" points="358,-1454.5 358,-1454.5 392,-1454.5 392,-1454.5 358,-1454.5"/>
<polygon fill="none" stroke="#666666" points="358,-1437.5 358,-1486.5 392,-1486.5 392,-1437.5 358,-1437.5"/>
</a>
</g>
</g>
<!-- Node8&#45;&gt;Node3 -->
<g id="edge9_Node000003_Node000008" class="edge">
<title>Node8&#45;&gt;Node3</title>
<g id="a_edge9_Node000003_Node000008"><a xlink:title=" ">
<path fill="none" stroke="#63b8ff" d="M374.29,-1437.75C372,-1362.33 364.55,-1116.9 358.01,-901.55"/>
<polygon fill="none" stroke="#63b8ff" points="358.01,-901.61 353.83,-895.74 357.65,-889.62 361.83,-895.49 358.01,-901.61"/>
</a>
</g>
<text text-anchor="middle" x="416.88" y="-1032.5" font-family="Helvetica,sans-Serif" font-size="10.00" fill="grey"> +AND_MATCHING</text>
<text text-anchor="middle" x="416.88" y="-1021.25" font-family="Helvetica,sans-Serif" font-size="10.00" fill="grey">+OR_MATCHING</text>
<text text-anchor="middle" x="416.88" y="-1010" font-family="Helvetica,sans-Serif" font-size="10.00" fill="grey">+PATTERN_BEGIN</text>
<text text-anchor="middle" x="416.88" y="-998.75" font-family="Helvetica,sans-Serif" font-size="10.00" fill="grey">+PATTERN_CIDR</text>
<text text-anchor="middle" x="416.88" y="-987.5" font-family="Helvetica,sans-Serif" font-size="10.00" fill="grey">+PATTERN_CONTAIN</text>
<text text-anchor="start" x="361" y="-976.25" font-family="Helvetica,sans-Serif" font-size="10.00" fill="grey">+PATTERN_DOES_NOT</text>
<text text-anchor="middle" x="416.88" y="-965" font-family="Helvetica,sans-Serif" font-size="10.00" fill="grey">_EXISTS</text>
<text text-anchor="middle" x="416.88" y="-953.75" font-family="Helvetica,sans-Serif" font-size="10.00" fill="grey">+PATTERN_END</text>
<text text-anchor="middle" x="416.88" y="-942.5" font-family="Helvetica,sans-Serif" font-size="10.00" fill="grey">+PATTERN_EXISTS</text>
<text text-anchor="middle" x="416.88" y="-931.25" font-family="Helvetica,sans-Serif" font-size="10.00" fill="grey">+PATTERN_FIND</text>
<text text-anchor="middle" x="416.88" y="-920" font-family="Helvetica,sans-Serif" font-size="10.00" fill="grey">+PATTERN_IS</text>
<text text-anchor="middle" x="416.88" y="-908.75" font-family="Helvetica,sans-Serif" font-size="10.00" fill="grey">...</text>
</g>
</g>
</svg>
