<?xml version="1.0" encoding="UTF-8" standalone="no"?>
<!DOCTYPE svg PUBLIC "-//W3C//DTD SVG 1.1//EN"
 "http://www.w3.org/Graphics/SVG/1.1/DTD/svg11.dtd">
<!-- Generated by graphviz version 10.0.1 (20240210.2158)
 -->
<!-- Title: Service Pages: 1 -->
<svg width="194pt" height="410pt"
 viewBox="0.00 0.00 194.00 410.00" xmlns="http://www.w3.org/2000/svg" xmlns:xlink="http://www.w3.org/1999/xlink">

<svg id="main" version="1.1" xmlns="http://www.w3.org/2000/svg" xmlns:xlink="http://www.w3.org/1999/xlink" xml:space="preserve" onload="init(evt)">
<style type="text/css"><![CDATA[
.node, .edge {opacity: 0.7;}
.node.selected, .edge.selected {opacity: 1;}
.edge:hover path { stroke: red; }
.edge:hover polygon { stroke: red; fill: red; }
]]></style>
<script type="application/ecmascript" xlink:href="svg.min.js"/>
<svg id="graph" class="graph">
<g id="graph0" class="graph" transform="scale(1 1) rotate(0) translate(4 406)">
<title>Service</title>
<!-- Node1 -->
<g id="Node000001" class="node">
<title>Node1</title>
<g id="a_Node000001"><a xlink:title=" ">
<polygon fill="#999999" stroke="none" points="139,-64 47,-64 47,0 139,0 139,-64"/>
<text text-anchor="start" x="76.5" y="-50.5" font-family="Helvetica,sans-Serif" font-size="10.00">Service</text>
<text text-anchor="start" x="51" y="-35.5" font-family="Helvetica,sans-Serif" font-size="10.00">+</text>
<text text-anchor="start" x="61" y="-35.5" font-family="Helvetica,sans-Serif" font-size="10.00">$elementMap</text>
<text text-anchor="start" x="51" y="-20.5" font-family="Helvetica,sans-Serif" font-size="10.00">+</text>
<text text-anchor="start" x="61" y="-20.5" font-family="Helvetica,sans-Serif" font-size="10.00">$namespaceMap</text>
<text text-anchor="start" x="91.5" y="-5.5" font-family="Helvetica,sans-Serif" font-size="10.00"> </text>
<polygon fill="#666666" stroke="#666666" points="47,-47 47,-47 139,-47 139,-47 47,-47"/>
<polygon fill="#666666" stroke="#666666" points="47,-17 47,-17 59,-17 59,-17 47,-17"/>
<polygon fill="#666666" stroke="#666666" points="59,-17 59,-17 139,-17 139,-17 59,-17"/>
<polygon fill="none" stroke="#666666" points="47,0 47,-64 139,-64 139,0 47,0"/>
</a>
</g>
</g>
<!-- Node2 -->
<g id="Node000002" class="node">
<title>Node2</title>
<g id="a_Node000002"><a xlink:href="class_sabre_1_1_xml_1_1_service.html" target="_top" xlink:title=" ">
<polygon fill="white" stroke="none" points="186,-402 0,-402 0,-100 186,-100 186,-402"/>
<text text-anchor="start" x="76.5" y="-388.5" font-family="Helvetica,sans-Serif" font-size="10.00">Service</text>
<text text-anchor="start" x="4" y="-373.5" font-family="Helvetica,sans-Serif" font-size="10.00">+</text>
<text text-anchor="start" x="14" y="-373.5" font-family="Helvetica,sans-Serif" font-size="10.00">$elementMap</text>
<text text-anchor="start" x="4" y="-358.5" font-family="Helvetica,sans-Serif" font-size="10.00">+</text>
<text text-anchor="start" x="14" y="-358.5" font-family="Helvetica,sans-Serif" font-size="10.00">$namespaceMap</text>
<text text-anchor="start" x="4" y="-343.5" font-family="Helvetica,sans-Serif" font-size="10.00">+</text>
<text text-anchor="start" x="14" y="-343.5" font-family="Helvetica,sans-Serif" font-size="10.00">$classMap</text>
<text text-anchor="start" x="4" y="-328.5" font-family="Helvetica,sans-Serif" font-size="10.00">+</text>
<text text-anchor="start" x="14" y="-328.5" font-family="Helvetica,sans-Serif" font-size="10.00">$options</text>
<text text-anchor="start" x="4.38" y="-313.5" font-family="Helvetica,sans-Serif" font-size="10.00">#</text>
<text text-anchor="start" x="14" y="-313.5" font-family="Helvetica,sans-Serif" font-size="10.00">$valueObjectMap</text>
<text text-anchor="start" x="4" y="-298.5" font-family="Helvetica,sans-Serif" font-size="10.00">+</text>
<text text-anchor="start" x="14" y="-298.5" font-family="Helvetica,sans-Serif" font-size="10.00">getReader()</text>
<text text-anchor="start" x="4" y="-283.5" font-family="Helvetica,sans-Serif" font-size="10.00">+</text>
<text text-anchor="start" x="14" y="-283.5" font-family="Helvetica,sans-Serif" font-size="10.00">getWriter()</text>
<text text-anchor="start" x="4" y="-268.5" font-family="Helvetica,sans-Serif" font-size="10.00">+</text>
<text text-anchor="start" x="14" y="-268.5" font-family="Helvetica,sans-Serif" font-size="10.00">parse($input, string</text>
<text text-anchor="start" x="14" y="-257.25" font-family="Helvetica,sans-Serif" font-size="10.00"> $contextUri=null, string</text>
<text text-anchor="start" x="14" y="-246" font-family="Helvetica,sans-Serif" font-size="10.00"> &amp;$rootElementName=null)</text>
<text text-anchor="start" x="4" y="-231.5" font-family="Helvetica,sans-Serif" font-size="10.00">+</text>
<text text-anchor="start" x="14" y="-231.5" font-family="Helvetica,sans-Serif" font-size="10.00">expect($rootElementName,</text>
<text text-anchor="start" x="14" y="-220.25" font-family="Helvetica,sans-Serif" font-size="10.00"> $input, string $contextUri=null)</text>
<text text-anchor="start" x="4" y="-205.5" font-family="Helvetica,sans-Serif" font-size="10.00">+</text>
<text text-anchor="start" x="14" y="-205.5" font-family="Helvetica,sans-Serif" font-size="10.00">write(string $rootElement</text>
<text text-anchor="start" x="14" y="-194.25" font-family="Helvetica,sans-Serif" font-size="10.00">Name, $value, string $contextUri=null)</text>
<text text-anchor="start" x="4" y="-179.5" font-family="Helvetica,sans-Serif" font-size="10.00">+</text>
<text text-anchor="start" x="14" y="-179.5" font-family="Helvetica,sans-Serif" font-size="10.00">mapValueObject(string</text>
<text text-anchor="start" x="14" y="-168.25" font-family="Helvetica,sans-Serif" font-size="10.00"> $elementName, string</text>
<text text-anchor="start" x="14" y="-157" font-family="Helvetica,sans-Serif" font-size="10.00"> $className)</text>
<text text-anchor="start" x="4" y="-142.5" font-family="Helvetica,sans-Serif" font-size="10.00">+</text>
<text text-anchor="start" x="14" y="-142.5" font-family="Helvetica,sans-Serif" font-size="10.00">writeValueObject(</text>
<text text-anchor="start" x="14" y="-131.25" font-family="Helvetica,sans-Serif" font-size="10.00">$object, string $contextUri=null)</text>
<text text-anchor="start" x="4" y="-116.5" font-family="Helvetica,sans-Serif" font-size="10.00">+</text>
<text text-anchor="start" x="14" y="-116.5" font-family="Helvetica,sans-Serif" font-size="10.00">static parseClarkNotation</text>
<text text-anchor="start" x="14" y="-105.25" font-family="Helvetica,sans-Serif" font-size="10.00">(string $str)</text>
<polygon fill="#666666" stroke="#666666" points="0,-385 0,-385 186,-385 186,-385 0,-385"/>
<polygon fill="#666666" stroke="#666666" points="0,-310 0,-310 12,-310 12,-310 0,-310"/>
<polygon fill="#666666" stroke="#666666" points="12,-310 12,-310 186,-310 186,-310 12,-310"/>
<polygon fill="none" stroke="#666666" points="0,-100 0,-402 186,-402 186,-100 0,-100"/>
</a>
</g>
</g>
<!-- Node2&#45;&gt;Node1 -->
<g id="edge1_Node000001_Node000002" class="edge">
<title>Node2&#45;&gt;Node1</title>
<g id="a_edge1_Node000001_Node000002"><a xlink:title=" ">
<path fill="none" stroke="#63b8ff" d="M93,-88.78C93,-79.68 93,-71.24 93,-63.81"/>
<polygon fill="none" stroke="#63b8ff" points="89.5,-88.66 93,-98.66 96.5,-88.66 89.5,-88.66"/>
</a>
</g>
</g>
</g>
</svg>
</svg>

<style type='text/css'>
<![CDATA[
[data-mouse-over-selected='false'] { opacity: 0.7; }
[data-mouse-over-selected='true']  { opacity: 1.0; }
]]>
</style>
<script type="application/ecmascript"><![CDATA[
document.addEventListener('DOMContentLoaded', (event) => {
  highlightEdges();
  highlightAdjacentNodes();
});
]]></script>
</svg>
