<?xml version="1.0" encoding="UTF-8" standalone="no"?>
<!DOCTYPE svg PUBLIC "-//W3C//DTD SVG 1.1//EN"
 "http://www.w3.org/Graphics/SVG/1.1/DTD/svg11.dtd">
<!-- Generated by graphviz version 10.0.1 (20240210.2158)
 -->
<!-- Title: DateAndOrTime Pages: 1 -->
<!--zoomable 1036 -->

<svg id="main" version="1.1" xmlns="http://www.w3.org/2000/svg" xmlns:xlink="http://www.w3.org/1999/xlink" xml:space="preserve" onload="init(evt)">
<style type="text/css"><![CDATA[
.node, .edge {opacity: 0.7;}
.node.selected, .edge.selected {opacity: 1;}
.edge:hover path { stroke: red; }
.edge:hover polygon { stroke: red; fill: red; }
]]></style>

<defs>
  <circle id="rim" cx="0" cy="0" r="7"/>
  <circle id="rim2" cx="0" cy="0" r="3.5"/>
  <g id="zoomPlus">
    <use xlink:href="#rim" fill="#404040"><set attributeName="fill" to="#808080" begin="zoomplus.mouseover" end="zoomplus.mouseout"/></use>
    <path d="M-4,0h8M0,-4v8" fill="none" stroke="white" stroke-width="1.5" pointer-events="none"/>
  </g>
  <g id="zoomMin">
    <use xlink:href="#rim" fill="#404040"><set attributeName="fill" to="#808080" begin="zoomminus.mouseover" end="zoomminus.mouseout"/></use>
    <path d="M-4,0h8" fill="none" stroke="white" stroke-width="1.5" pointer-events="none"/>
  </g>
  <g id="arrowUp" transform="translate(30 24)">
    <use xlink:href="#rim"/>
    <path pointer-events="none" fill="none" stroke="white" stroke-width="1.5" d="M0,-3.0v7 M-2.5,-0.5L0,-3.0L2.5,-0.5"/>
  </g>
  <g id="arrowRight" transform="rotate(90) translate(36 -43)">
    <use xlink:href="#rim"/>
    <path pointer-events="none" fill="none" stroke="white" stroke-width="1.5" d="M0,-3.0v7 M-2.5,-0.5L0,-3.0L2.5,-0.5"/>
  </g>
  <g id="arrowDown" transform="rotate(180) translate(-30 -48)">
    <use xlink:href="#rim"/>
    <path pointer-events="none" fill="none" stroke="white" stroke-width="1.5" d="M0,-3.0v7 M-2.5,-0.5L0,-3.0L2.5,-0.5"/>
  </g>
  <g id="arrowLeft" transform="rotate(270) translate(-36 17)">
    <use xlink:href="#rim"/>
    <path pointer-events="none" fill="none" stroke="white" stroke-width="1.5" d="M0,-3.0v7 M-2.5,-0.5L0,-3.0L2.5,-0.5"/>
  </g>
  <g id="resetDef">
    <use xlink:href="#rim2" fill="#404040"><set attributeName="fill" to="#808080" begin="reset.mouseover" end="reset.mouseout"/></use>
  </g>
</defs>
<script type="application/ecmascript">
var viewWidth = 555;
var viewHeight = 1036;
var sectionId = 'dynsection-1';
</script>
<script type="application/ecmascript" xlink:href="svg.min.js"/>
<svg id="graph" class="graph">
<g id="viewport">
<title>DateAndOrTime</title>
<!-- Node1 -->
<g id="Node000001" class="node">
<title>Node1</title>
<g id="a_Node000001"><a xlink:title=" ">
<polygon fill="#999999" stroke="none" points="346,-206 169,-206 169,0 346,0 346,-206"/>
<text text-anchor="start" x="222.25" y="-192.5" font-family="Helvetica,sans-Serif" font-size="10.00">DateAndOrTime</text>
<text text-anchor="start" x="173" y="-177.5" font-family="Helvetica,sans-Serif" font-size="10.00">+</text>
<text text-anchor="start" x="183" y="-177.5" font-family="Helvetica,sans-Serif" font-size="10.00">$delimiter</text>
<text text-anchor="start" x="173" y="-162.5" font-family="Helvetica,sans-Serif" font-size="10.00">+</text>
<text text-anchor="start" x="183" y="-162.5" font-family="Helvetica,sans-Serif" font-size="10.00">getValueType()</text>
<text text-anchor="start" x="173" y="-147.5" font-family="Helvetica,sans-Serif" font-size="10.00">+</text>
<text text-anchor="start" x="183" y="-147.5" font-family="Helvetica,sans-Serif" font-size="10.00">setParts(array $parts)</text>
<text text-anchor="start" x="173" y="-132.5" font-family="Helvetica,sans-Serif" font-size="10.00">+</text>
<text text-anchor="start" x="183" y="-132.5" font-family="Helvetica,sans-Serif" font-size="10.00">setValue($value)</text>
<text text-anchor="start" x="173" y="-117.5" font-family="Helvetica,sans-Serif" font-size="10.00">+</text>
<text text-anchor="start" x="183" y="-117.5" font-family="Helvetica,sans-Serif" font-size="10.00">setDateTime(DateTimeInterface $dt)</text>
<text text-anchor="start" x="173" y="-102.5" font-family="Helvetica,sans-Serif" font-size="10.00">+</text>
<text text-anchor="start" x="183" y="-102.5" font-family="Helvetica,sans-Serif" font-size="10.00">getDateTime()</text>
<text text-anchor="start" x="173" y="-87.5" font-family="Helvetica,sans-Serif" font-size="10.00">+</text>
<text text-anchor="start" x="183" y="-87.5" font-family="Helvetica,sans-Serif" font-size="10.00">getJsonValue()</text>
<text text-anchor="start" x="173" y="-72.5" font-family="Helvetica,sans-Serif" font-size="10.00">+</text>
<text text-anchor="start" x="183" y="-72.5" font-family="Helvetica,sans-Serif" font-size="10.00">setRawMimeDirValue</text>
<text text-anchor="start" x="183" y="-61.25" font-family="Helvetica,sans-Serif" font-size="10.00">($val)</text>
<text text-anchor="start" x="173" y="-46.5" font-family="Helvetica,sans-Serif" font-size="10.00">+</text>
<text text-anchor="start" x="183" y="-46.5" font-family="Helvetica,sans-Serif" font-size="10.00">getRawMimeDirValue()</text>
<text text-anchor="start" x="173" y="-31.5" font-family="Helvetica,sans-Serif" font-size="10.00">+</text>
<text text-anchor="start" x="183" y="-31.5" font-family="Helvetica,sans-Serif" font-size="10.00">validate($options=0)</text>
<text text-anchor="start" x="173.38" y="-16.5" font-family="Helvetica,sans-Serif" font-size="10.00">#</text>
<text text-anchor="start" x="183" y="-16.5" font-family="Helvetica,sans-Serif" font-size="10.00">xmlSerializeValue</text>
<text text-anchor="start" x="183" y="-5.25" font-family="Helvetica,sans-Serif" font-size="10.00">(Xml\Writer $writer)</text>
<polygon fill="#666666" stroke="#666666" points="169,-189 169,-189 346,-189 346,-189 169,-189"/>
<polygon fill="#666666" stroke="#666666" points="169,-174 169,-174 181,-174 181,-174 169,-174"/>
<polygon fill="#666666" stroke="#666666" points="181,-174 181,-174 346,-174 346,-174 181,-174"/>
<polygon fill="none" stroke="#666666" points="169,0 169,-206 346,-206 346,0 169,0"/>
</a>
</g>
</g>
<!-- Node2 -->
<g id="Node000002" class="node">
<title>Node2</title>
<g id="a_Node000002"><a xlink:href="class_sabre_1_1_v_object_1_1_property.html" target="_top" xlink:title=" ">
<polygon fill="white" stroke="none" points="319,-584 196,-584 196,-243 319,-243 319,-584"/>
<text text-anchor="start" x="239.12" y="-570.5" font-family="Helvetica,sans-Serif" font-size="10.00">Property</text>
<text text-anchor="start" x="200" y="-555.5" font-family="Helvetica,sans-Serif" font-size="10.00">+</text>
<text text-anchor="start" x="210" y="-555.5" font-family="Helvetica,sans-Serif" font-size="10.00">$name</text>
<text text-anchor="start" x="200" y="-540.5" font-family="Helvetica,sans-Serif" font-size="10.00">+</text>
<text text-anchor="start" x="210" y="-540.5" font-family="Helvetica,sans-Serif" font-size="10.00">$group</text>
<text text-anchor="start" x="200" y="-525.5" font-family="Helvetica,sans-Serif" font-size="10.00">+</text>
<text text-anchor="start" x="210" y="-525.5" font-family="Helvetica,sans-Serif" font-size="10.00">$parameters</text>
<text text-anchor="start" x="200" y="-510.5" font-family="Helvetica,sans-Serif" font-size="10.00">+</text>
<text text-anchor="start" x="210" y="-510.5" font-family="Helvetica,sans-Serif" font-size="10.00">$delimiter</text>
<text text-anchor="start" x="200.38" y="-495.5" font-family="Helvetica,sans-Serif" font-size="10.00">#</text>
<text text-anchor="start" x="210" y="-495.5" font-family="Helvetica,sans-Serif" font-size="10.00">$value</text>
<text text-anchor="start" x="200" y="-480.5" font-family="Helvetica,sans-Serif" font-size="10.00">+</text>
<text text-anchor="start" x="210" y="-480.5" font-family="Helvetica,sans-Serif" font-size="10.00">__construct(Component</text>
<text text-anchor="start" x="210" y="-469.25" font-family="Helvetica,sans-Serif" font-size="10.00"> $root, $name, $value</text>
<text text-anchor="start" x="210" y="-458" font-family="Helvetica,sans-Serif" font-size="10.00">=null, array $parameters</text>
<text text-anchor="start" x="210" y="-446.75" font-family="Helvetica,sans-Serif" font-size="10.00">=[], $group=null)</text>
<text text-anchor="start" x="200" y="-431.5" font-family="Helvetica,sans-Serif" font-size="10.00">+</text>
<text text-anchor="start" x="210" y="-431.5" font-family="Helvetica,sans-Serif" font-size="10.00">setValue($value)</text>
<text text-anchor="start" x="200" y="-416.5" font-family="Helvetica,sans-Serif" font-size="10.00">+</text>
<text text-anchor="start" x="210" y="-416.5" font-family="Helvetica,sans-Serif" font-size="10.00">getValue()</text>
<text text-anchor="start" x="200" y="-401.5" font-family="Helvetica,sans-Serif" font-size="10.00">+</text>
<text text-anchor="start" x="210" y="-401.5" font-family="Helvetica,sans-Serif" font-size="10.00">setParts(array $parts)</text>
<text text-anchor="start" x="200" y="-386.5" font-family="Helvetica,sans-Serif" font-size="10.00">+</text>
<text text-anchor="start" x="210" y="-386.5" font-family="Helvetica,sans-Serif" font-size="10.00">getParts()</text>
<text text-anchor="start" x="200" y="-371.5" font-family="Helvetica,sans-Serif" font-size="10.00">+</text>
<text text-anchor="start" x="210" y="-371.5" font-family="Helvetica,sans-Serif" font-size="10.00">add($name, $value</text>
<text text-anchor="start" x="210" y="-360.25" font-family="Helvetica,sans-Serif" font-size="10.00">=null)</text>
<text text-anchor="start" x="200" y="-345.5" font-family="Helvetica,sans-Serif" font-size="10.00">+</text>
<text text-anchor="start" x="210" y="-345.5" font-family="Helvetica,sans-Serif" font-size="10.00">parameters()</text>
<text text-anchor="start" x="200" y="-330.5" font-family="Helvetica,sans-Serif" font-size="10.00">+</text>
<text text-anchor="start" x="210" y="-330.5" font-family="Helvetica,sans-Serif" font-size="10.00">getValueType()</text>
<text text-anchor="start" x="200" y="-315.5" font-family="Helvetica,sans-Serif" font-size="10.00">+</text>
<text text-anchor="start" x="210" y="-315.5" font-family="Helvetica,sans-Serif" font-size="10.00">setRawMimeDirValue</text>
<text text-anchor="start" x="210" y="-304.25" font-family="Helvetica,sans-Serif" font-size="10.00">($val)</text>
<text text-anchor="start" x="200" y="-289.5" font-family="Helvetica,sans-Serif" font-size="10.00">+</text>
<text text-anchor="start" x="210" y="-289.5" font-family="Helvetica,sans-Serif" font-size="10.00">getRawMimeDirValue()</text>
<text text-anchor="start" x="210" y="-274.5" font-family="Helvetica,sans-Serif" font-size="10.00">et 14 de plus...</text>
<text text-anchor="start" x="200.38" y="-259.5" font-family="Helvetica,sans-Serif" font-size="10.00">#</text>
<text text-anchor="start" x="210" y="-259.5" font-family="Helvetica,sans-Serif" font-size="10.00">xmlSerializeValue</text>
<text text-anchor="start" x="210" y="-248.25" font-family="Helvetica,sans-Serif" font-size="10.00">(Xml\Writer $writer)</text>
<polygon fill="#666666" stroke="#666666" points="196,-567 196,-567 319,-567 319,-567 196,-567"/>
<polygon fill="#666666" stroke="#666666" points="196,-492 196,-492 208,-492 208,-492 196,-492"/>
<polygon fill="#666666" stroke="#666666" points="208,-492 208,-492 319,-492 319,-492 208,-492"/>
<polygon fill="none" stroke="#666666" points="196,-243 196,-584 319,-584 319,-243 196,-243"/>
</a>
</g>
</g>
<!-- Node2&#45;&gt;Node1 -->
<g id="edge1_Node000001_Node000002" class="edge">
<title>Node2&#45;&gt;Node1</title>
<g id="a_edge1_Node000001_Node000002"><a xlink:title=" ">
<path fill="none" stroke="#63b8ff" d="M257.5,-232.03C257.5,-223.13 257.5,-214.35 257.5,-205.81"/>
<polygon fill="none" stroke="#63b8ff" points="254,-231.84 257.5,-241.84 261,-231.84 254,-231.84"/>
</a>
</g>
</g>
<!-- Node3 -->
<g id="Node000003" class="node">
<title>Node3</title>
<g id="a_Node000003"><a xlink:href="class_sabre_1_1_v_object_1_1_node.html" target="_top" xlink:title=" ">
<polygon fill="white" stroke="none" points="317.5,-898 197.5,-898 197.5,-621 317.5,-621 317.5,-898"/>
<text text-anchor="start" x="245.88" y="-884.5" font-family="Helvetica,sans-Serif" font-size="10.00">Node</text>
<text text-anchor="start" x="201.5" y="-869.5" font-family="Helvetica,sans-Serif" font-size="10.00">+</text>
<text text-anchor="start" x="211.5" y="-869.5" font-family="Helvetica,sans-Serif" font-size="10.00">$parent</text>
<text text-anchor="start" x="201.88" y="-854.5" font-family="Helvetica,sans-Serif" font-size="10.00">#</text>
<text text-anchor="start" x="211.5" y="-854.5" font-family="Helvetica,sans-Serif" font-size="10.00">$iterator</text>
<text text-anchor="start" x="201.88" y="-839.5" font-family="Helvetica,sans-Serif" font-size="10.00">#</text>
<text text-anchor="start" x="211.5" y="-839.5" font-family="Helvetica,sans-Serif" font-size="10.00">$root</text>
<text text-anchor="start" x="201.5" y="-824.5" font-family="Helvetica,sans-Serif" font-size="10.00">+</text>
<text text-anchor="start" x="211.5" y="-824.5" font-family="Helvetica,sans-Serif" font-size="10.00">serialize()</text>
<text text-anchor="start" x="201.5" y="-809.5" font-family="Helvetica,sans-Serif" font-size="10.00">+</text>
<text text-anchor="start" x="211.5" y="-809.5" font-family="Helvetica,sans-Serif" font-size="10.00">jsonSerialize()</text>
<text text-anchor="start" x="201.5" y="-794.5" font-family="Helvetica,sans-Serif" font-size="10.00">+</text>
<text text-anchor="start" x="211.5" y="-794.5" font-family="Helvetica,sans-Serif" font-size="10.00">xmlSerialize(Xml\Writer</text>
<text text-anchor="start" x="211.5" y="-783.25" font-family="Helvetica,sans-Serif" font-size="10.00"> $writer)</text>
<text text-anchor="start" x="201.5" y="-768.5" font-family="Helvetica,sans-Serif" font-size="10.00">+</text>
<text text-anchor="start" x="211.5" y="-768.5" font-family="Helvetica,sans-Serif" font-size="10.00">destroy()</text>
<text text-anchor="start" x="201.5" y="-753.5" font-family="Helvetica,sans-Serif" font-size="10.00">+</text>
<text text-anchor="start" x="211.5" y="-753.5" font-family="Helvetica,sans-Serif" font-size="10.00">getIterator()</text>
<text text-anchor="start" x="201.5" y="-738.5" font-family="Helvetica,sans-Serif" font-size="10.00">+</text>
<text text-anchor="start" x="211.5" y="-738.5" font-family="Helvetica,sans-Serif" font-size="10.00">setIterator(ElementList</text>
<text text-anchor="start" x="211.5" y="-727.25" font-family="Helvetica,sans-Serif" font-size="10.00"> $iterator)</text>
<text text-anchor="start" x="201.5" y="-712.5" font-family="Helvetica,sans-Serif" font-size="10.00">+</text>
<text text-anchor="start" x="211.5" y="-712.5" font-family="Helvetica,sans-Serif" font-size="10.00">validate($options=0)</text>
<text text-anchor="start" x="201.5" y="-697.5" font-family="Helvetica,sans-Serif" font-size="10.00">+</text>
<text text-anchor="start" x="211.5" y="-697.5" font-family="Helvetica,sans-Serif" font-size="10.00">count()</text>
<text text-anchor="start" x="201.5" y="-682.5" font-family="Helvetica,sans-Serif" font-size="10.00">+</text>
<text text-anchor="start" x="211.5" y="-682.5" font-family="Helvetica,sans-Serif" font-size="10.00">offsetExists($offset)</text>
<text text-anchor="start" x="201.5" y="-667.5" font-family="Helvetica,sans-Serif" font-size="10.00">+</text>
<text text-anchor="start" x="211.5" y="-667.5" font-family="Helvetica,sans-Serif" font-size="10.00">offsetGet($offset)</text>
<text text-anchor="start" x="201.5" y="-652.5" font-family="Helvetica,sans-Serif" font-size="10.00">+</text>
<text text-anchor="start" x="211.5" y="-652.5" font-family="Helvetica,sans-Serif" font-size="10.00">offsetSet($offset,</text>
<text text-anchor="start" x="211.5" y="-641.25" font-family="Helvetica,sans-Serif" font-size="10.00"> $value)</text>
<text text-anchor="start" x="201.5" y="-626.5" font-family="Helvetica,sans-Serif" font-size="10.00">+</text>
<text text-anchor="start" x="211.5" y="-626.5" font-family="Helvetica,sans-Serif" font-size="10.00">offsetUnset($offset)</text>
<polygon fill="#666666" stroke="#666666" points="197.5,-881 197.5,-881 317.5,-881 317.5,-881 197.5,-881"/>
<polygon fill="#666666" stroke="#666666" points="197.5,-836 197.5,-836 209.5,-836 209.5,-836 197.5,-836"/>
<polygon fill="#666666" stroke="#666666" points="209.5,-836 209.5,-836 317.5,-836 317.5,-836 209.5,-836"/>
<polygon fill="none" stroke="#666666" points="197.5,-621 197.5,-898 317.5,-898 317.5,-621 197.5,-621"/>
</a>
</g>
</g>
<!-- Node3&#45;&gt;Node2 -->
<g id="edge2_Node000002_Node000003" class="edge">
<title>Node3&#45;&gt;Node2</title>
<g id="a_edge2_Node000002_Node000003"><a xlink:title=" ">
<path fill="none" stroke="#63b8ff" d="M257.5,-609.79C257.5,-601.18 257.5,-592.5 257.5,-583.82"/>
<polygon fill="none" stroke="#63b8ff" points="254,-609.55 257.5,-619.55 261,-609.55 254,-609.55"/>
</a>
</g>
</g>
<!-- Node4 -->
<g id="Node000004" class="node">
<title>Node4</title>
<g id="a_Node000004"><a xlink:title=" ">
<polygon fill="white" stroke="none" points="85,-1022.25 0,-1022.25 0,-973.25 85,-973.25 85,-1022.25"/>
<text text-anchor="start" x="5" y="-1008.75" font-family="Helvetica,sans-Serif" font-size="10.00">IteratorAggregate</text>
<text text-anchor="start" x="41" y="-993.75" font-family="Helvetica,sans-Serif" font-size="10.00"> </text>
<text text-anchor="start" x="41" y="-978.75" font-family="Helvetica,sans-Serif" font-size="10.00"> </text>
<polygon fill="#666666" stroke="#666666" points="0,-1005.25 0,-1005.25 85,-1005.25 85,-1005.25 0,-1005.25"/>
<polygon fill="#666666" stroke="#666666" points="0,-990.25 0,-990.25 85,-990.25 85,-990.25 0,-990.25"/>
<polygon fill="none" stroke="#666666" points="0,-973.25 0,-1022.25 85,-1022.25 85,-973.25 0,-973.25"/>
</a>
</g>
</g>
<!-- Node4&#45;&gt;Node3 -->
<g id="edge3_Node000003_Node000004" class="edge">
<title>Node4&#45;&gt;Node3</title>
<g id="a_edge3_Node000003_Node000004"><a xlink:title=" ">
<path fill="none" stroke="#63b8ff" d="M71.21,-965.2C103.38,-929.85 156.42,-871.58 197.69,-826.22"/>
<polygon fill="none" stroke="#63b8ff" points="68.67,-962.8 64.53,-972.55 73.84,-967.51 68.67,-962.8"/>
</a>
</g>
</g>
<!-- Node5 -->
<g id="Node000005" class="node">
<title>Node5</title>
<g id="a_Node000005"><a xlink:title=" ">
<polygon fill="white" stroke="none" points="169.5,-1022.25 103.5,-1022.25 103.5,-973.25 169.5,-973.25 169.5,-1022.25"/>
<text text-anchor="start" x="108.38" y="-1008.75" font-family="Helvetica,sans-Serif" font-size="10.00">ArrayAccess</text>
<text text-anchor="start" x="135" y="-993.75" font-family="Helvetica,sans-Serif" font-size="10.00"> </text>
<text text-anchor="start" x="135" y="-978.75" font-family="Helvetica,sans-Serif" font-size="10.00"> </text>
<polygon fill="#666666" stroke="#666666" points="103.5,-1005.25 103.5,-1005.25 169.5,-1005.25 169.5,-1005.25 103.5,-1005.25"/>
<polygon fill="#666666" stroke="#666666" points="103.5,-990.25 103.5,-990.25 169.5,-990.25 169.5,-990.25 103.5,-990.25"/>
<polygon fill="none" stroke="#666666" points="103.5,-973.25 103.5,-1022.25 169.5,-1022.25 169.5,-973.25 103.5,-973.25"/>
</a>
</g>
</g>
<!-- Node5&#45;&gt;Node3 -->
<g id="edge4_Node000003_Node000005" class="edge">
<title>Node5&#45;&gt;Node3</title>
<g id="a_edge4_Node000003_Node000005"><a xlink:title=" ">
<path fill="none" stroke="#63b8ff" d="M153.5,-963.57C165.15,-940.82 181.37,-909.15 197.53,-877.58"/>
<polygon fill="none" stroke="#63b8ff" points="150.46,-961.82 149.01,-972.32 156.69,-965.02 150.46,-961.82"/>
</a>
</g>
</g>
<!-- Node6 -->
<g id="Node000006" class="node">
<title>Node6</title>
<g id="a_Node000006"><a xlink:title=" ">
<polygon fill="white" stroke="none" points="241.5,-1022.25 187.5,-1022.25 187.5,-973.25 241.5,-973.25 241.5,-1022.25"/>
<text text-anchor="start" x="192.38" y="-1008.75" font-family="Helvetica,sans-Serif" font-size="10.00">Countable</text>
<text text-anchor="start" x="213" y="-993.75" font-family="Helvetica,sans-Serif" font-size="10.00"> </text>
<text text-anchor="start" x="213" y="-978.75" font-family="Helvetica,sans-Serif" font-size="10.00"> </text>
<polygon fill="#666666" stroke="#666666" points="187.5,-1005.25 187.5,-1005.25 241.5,-1005.25 241.5,-1005.25 187.5,-1005.25"/>
<polygon fill="#666666" stroke="#666666" points="187.5,-990.25 187.5,-990.25 241.5,-990.25 241.5,-990.25 187.5,-990.25"/>
<polygon fill="none" stroke="#666666" points="187.5,-973.25 187.5,-1022.25 241.5,-1022.25 241.5,-973.25 187.5,-973.25"/>
</a>
</g>
</g>
<!-- Node6&#45;&gt;Node3 -->
<g id="edge5_Node000003_Node000006" class="edge">
<title>Node6&#45;&gt;Node3</title>
<g id="a_edge5_Node000003_Node000006"><a xlink:title=" ">
<path fill="none" stroke="#63b8ff" d="M220.72,-962.55C223.95,-944.83 228.12,-921.9 232.49,-897.88"/>
<polygon fill="none" stroke="#63b8ff" points="217.32,-961.71 218.97,-972.18 224.21,-962.97 217.32,-961.71"/>
</a>
</g>
</g>
<!-- Node7 -->
<g id="Node000007" class="node">
<title>Node7</title>
<g id="a_Node000007"><a xlink:title=" ">
<polygon fill="white" stroke="none" points="341,-1022.25 260,-1022.25 260,-973.25 341,-973.25 341,-1022.25"/>
<text text-anchor="start" x="264.88" y="-1008.75" font-family="Helvetica,sans-Serif" font-size="10.00">JsonSerializable</text>
<text text-anchor="start" x="299" y="-993.75" font-family="Helvetica,sans-Serif" font-size="10.00"> </text>
<text text-anchor="start" x="299" y="-978.75" font-family="Helvetica,sans-Serif" font-size="10.00"> </text>
<polygon fill="#666666" stroke="#666666" points="260,-1005.25 260,-1005.25 341,-1005.25 341,-1005.25 260,-1005.25"/>
<polygon fill="#666666" stroke="#666666" points="260,-990.25 260,-990.25 341,-990.25 341,-990.25 260,-990.25"/>
<polygon fill="none" stroke="#666666" points="260,-973.25 260,-1022.25 341,-1022.25 341,-973.25 260,-973.25"/>
</a>
</g>
</g>
<!-- Node7&#45;&gt;Node3 -->
<g id="edge6_Node000003_Node000007" class="edge">
<title>Node7&#45;&gt;Node3</title>
<g id="a_edge6_Node000003_Node000007"><a xlink:title=" ">
<path fill="none" stroke="#63b8ff" d="M294.28,-962.55C291.05,-944.83 286.88,-921.9 282.51,-897.88"/>
<polygon fill="none" stroke="#63b8ff" points="290.79,-962.97 296.03,-972.18 297.68,-961.71 290.79,-962.97"/>
</a>
</g>
</g>
<!-- Node8 -->
<g id="Node000008" class="node">
<title>Node8</title>
<g id="a_Node000008"><a xlink:href="interface_sabre_1_1_xml_1_1_xml_serializable.html" target="_top" xlink:title=" ">
<polygon fill="white" stroke="none" points="458,-1027.75 359,-1027.75 359,-967.75 458,-967.75 458,-1027.75"/>
<text text-anchor="start" x="374.75" y="-1014.25" font-family="Helvetica,sans-Serif" font-size="10.00">XmlSerializable</text>
<text text-anchor="start" x="407" y="-999.25" font-family="Helvetica,sans-Serif" font-size="10.00"> </text>
<text text-anchor="start" x="363" y="-984.25" font-family="Helvetica,sans-Serif" font-size="10.00">+</text>
<text text-anchor="start" x="373" y="-984.25" font-family="Helvetica,sans-Serif" font-size="10.00">xmlSerialize(Writer</text>
<text text-anchor="start" x="373" y="-973" font-family="Helvetica,sans-Serif" font-size="10.00"> $writer)</text>
<polygon fill="#666666" stroke="#666666" points="359,-1010.75 359,-1010.75 458,-1010.75 458,-1010.75 359,-1010.75"/>
<polygon fill="#666666" stroke="#666666" points="359,-995.75 359,-995.75 458,-995.75 458,-995.75 359,-995.75"/>
<polygon fill="none" stroke="#666666" points="359,-967.75 359,-1027.75 458,-1027.75 458,-967.75 359,-967.75"/>
</a>
</g>
</g>
<!-- Node8&#45;&gt;Node3 -->
<g id="edge7_Node000003_Node000008" class="edge">
<title>Node8&#45;&gt;Node3</title>
<g id="a_edge7_Node000003_Node000008"><a xlink:title=" ">
<path fill="none" stroke="#63b8ff" d="M383.93,-958.31C365.93,-930.15 340.69,-890.65 317.48,-854.35"/>
<polygon fill="none" stroke="#63b8ff" points="380.83,-959.96 389.17,-966.51 386.73,-956.19 380.83,-959.96"/>
</a>
</g>
</g>
<!-- Node9 -->
<g id="Node000009" class="node">
<title>Node9</title>
<g id="a_Node000009"><a xlink:title=" ">
<polygon fill="white" stroke="none" points="510.5,-1022.25 476.5,-1022.25 476.5,-973.25 510.5,-973.25 510.5,-1022.25"/>
<text text-anchor="start" x="481.5" y="-1008.75" font-family="Helvetica,sans-Serif" font-size="10.00">const</text>
<text text-anchor="start" x="492" y="-993.75" font-family="Helvetica,sans-Serif" font-size="10.00"> </text>
<text text-anchor="start" x="492" y="-978.75" font-family="Helvetica,sans-Serif" font-size="10.00"> </text>
<polygon fill="#666666" stroke="#666666" points="476.5,-1005.25 476.5,-1005.25 510.5,-1005.25 510.5,-1005.25 476.5,-1005.25"/>
<polygon fill="#666666" stroke="#666666" points="476.5,-990.25 476.5,-990.25 510.5,-990.25 510.5,-990.25 476.5,-990.25"/>
<polygon fill="none" stroke="#666666" points="476.5,-973.25 476.5,-1022.25 510.5,-1022.25 510.5,-973.25 476.5,-973.25"/>
</a>
</g>
</g>
<!-- Node9&#45;&gt;Node3 -->
<g id="edge8_Node000003_Node000009" class="edge">
<title>Node9&#45;&gt;Node3</title>
<g id="a_edge8_Node000003_Node000009"><a xlink:title=" ">
<path fill="none" stroke="#63b8ff" d="M476.6,-977.57C473.6,-974.26 470.49,-970.88 467.5,-967.75 421.5,-919.49 367.99,-866.73 326.5,-826.52"/>
<polygon fill="none" stroke="#63b8ff" points="326.57,-826.59 319.48,-825.3 317.95,-818.25 325.04,-819.55 326.57,-826.59"/>
</a>
</g>
<text text-anchor="middle" x="495.88" y="-940.25" font-family="Helvetica,sans-Serif" font-size="10.00" fill="grey"> +PROFILE_CALDAV</text>
<text text-anchor="middle" x="495.88" y="-929" font-family="Helvetica,sans-Serif" font-size="10.00" fill="grey">+PROFILE_CARDDAV</text>
<text text-anchor="middle" x="495.88" y="-917.75" font-family="Helvetica,sans-Serif" font-size="10.00" fill="grey">+REPAIR</text>
</g>
</g>
</svg>

<g id="navigator" transform="translate(0 0)" fill="#404254">
  <rect fill="#f2f5e9" fill-opacity="0.5" stroke="#606060" stroke-width=".5" x="0" y="0" width="60" height="60"/>
  <use id="zoomplus" xlink:href="#zoomPlus" x="17" y="9" onmousedown="handleZoom(evt,'in')"/>
  <use id="zoomminus" xlink:href="#zoomMin" x="42" y="9" onmousedown="handleZoom(evt,'out')"/>
  <use id="reset" xlink:href="#resetDef" x="30" y="36" onmousedown="handleReset()"/>
   <use id="arrowup" xlink:href="#arrowUp" x="0" y="0" onmousedown="handlePan(0,-1)"/>
  <use id="arrowright" xlink:href="#arrowRight" x="0" y="0" onmousedown="handlePan(1,0)"/>
  <use id="arrowdown" xlink:href="#arrowDown" x="0" y="0" onmousedown="handlePan(0,1)"/>
  <use id="arrowleft" xlink:href="#arrowLeft" x="0" y="0" onmousedown="handlePan(-1,0)"/>
</g>
<svg viewBox="0 0 15 15" width="100%" height="30px" preserveAspectRatio="xMaxYMin meet">
 <g id="arrow_out" transform="scale(0.3 0.3)">
  <a xlink:href="class_sabre_1_1_v_object_1_1_property_1_1_v_card_1_1_date_and_or_time__coll__graph_org.svg" target="_base">
   <rect id="button" ry="5" rx="5" y="6" x="6" height="38" width="38"
        fill="#f2f5e9" fill-opacity="0.5" stroke="#606060" stroke-width="1.0"/>
   <path id="arrow"
     d="M 11.500037,31.436501 C 11.940474,20.09759 22.043105,11.32322 32.158766,21.979434 L 37.068811,17.246167 C 37.068811,17.246167 37.088388,32 37.088388,32 L 22.160133,31.978069 C 22.160133,31.978069 26.997745,27.140456 26.997745,27.140456 C 18.528582,18.264221 13.291696,25.230495 11.500037,31.436501 z"
     style="fill:#404040;"/>
  </a>
 </g>
</svg>

<style type='text/css'>
<![CDATA[
[data-mouse-over-selected='false'] { opacity: 0.7; }
[data-mouse-over-selected='true']  { opacity: 1.0; }
]]>
</style>
<script type="application/ecmascript"><![CDATA[
document.addEventListener('DOMContentLoaded', (event) => {
  highlightEdges();
  highlightAdjacentNodes();
});
]]></script>
</svg>
