<?xml version="1.0" encoding="UTF-8" standalone="no"?>
<!DOCTYPE svg PUBLIC "-//W3C//DTD SVG 1.1//EN"
 "http://www.w3.org/Graphics/SVG/1.1/DTD/svg11.dtd">
<!-- Generated by graphviz version 10.0.1 (20240210.2158)
 -->
<!-- Title: complete Pages: 1 -->
<svg width="388pt" height="431pt"
 viewBox="0.00 0.00 388.25 430.50" xmlns="http://www.w3.org/2000/svg" xmlns:xlink="http://www.w3.org/1999/xlink">
<g id="graph0" class="graph" transform="scale(1 1) rotate(0) translate(4 426.5)">
<title>complete</title>
<!-- Node1 -->
<g id="Node000001" class="node">
<title>Node1</title>
<g id="a_Node000001"><a xlink:title=" ">
<polygon fill="#999999" stroke="#666666" points="55.75,-220.88 0,-220.88 0,-201.62 55.75,-201.62 55.75,-220.88"/>
<text text-anchor="middle" x="27.88" y="-207.38" font-family="Helvetica,sans-Serif" font-size="10.00">complete</text>
</a>
</g>
</g>
<!-- Node2 -->
<g id="Node000002" class="node">
<title>Node2</title>
<g id="a_Node000002"><a xlink:href="class_symfony_1_1_component_1_1_console_1_1_command_1_1_lazy_command.html#a154e8997a5c7e497d5d54dcf340a80b1" target="_top" xlink:title=" ">
<polygon fill="white" stroke="#666666" points="166.25,-220.88 91.75,-220.88 91.75,-201.62 166.25,-201.62 166.25,-220.88"/>
<text text-anchor="middle" x="129" y="-207.38" font-family="Helvetica,sans-Serif" font-size="10.00">getCommand</text>
</a>
</g>
</g>
<!-- Node1&#45;&gt;Node2 -->
<g id="edge1_Node000001_Node000002" class="edge">
<title>Node1&#45;&gt;Node2</title>
<g id="a_edge1_Node000001_Node000002"><a xlink:title=" ">
<path fill="none" stroke="#63b8ff" d="M56.22,-211.25C63.62,-211.25 71.86,-211.25 80.03,-211.25"/>
<polygon fill="#63b8ff" stroke="#63b8ff" points="79.95,-214.75 89.95,-211.25 79.95,-207.75 79.95,-214.75"/>
</a>
</g>
</g>
<!-- Node3 -->
<g id="Node000003" class="node">
<title>Node3</title>
<g id="a_Node000003"><a xlink:href="class_symfony_1_1_component_1_1_console_1_1_command_1_1_command.html#a1e9e143d493aedb855d3c5edadb17bb2" target="_top" xlink:title=" ">
<polygon fill="white" stroke="#666666" points="371.62,-422.5 210.88,-422.5 210.88,-392 371.62,-392 371.62,-422.5"/>
<text text-anchor="start" x="218.88" y="-409" font-family="Helvetica,sans-Serif" font-size="10.00">Symfony\Component\Console</text>
<text text-anchor="middle" x="291.25" y="-397.75" font-family="Helvetica,sans-Serif" font-size="10.00">\Command\Command\getAliases</text>
</a>
</g>
</g>
<!-- Node2&#45;&gt;Node3 -->
<g id="edge2_Node000002_Node000003" class="edge">
<title>Node2&#45;&gt;Node3</title>
<g id="a_edge2_Node000002_Node000003"><a xlink:title=" ">
<path fill="none" stroke="#63b8ff" d="M131.19,-221.07C135.26,-250.25 151.3,-337.21 202.25,-382.25 203.51,-383.37 204.83,-384.44 206.18,-385.46"/>
<polygon fill="#63b8ff" stroke="#63b8ff" points="204.04,-388.25 214.35,-390.71 207.83,-382.36 204.04,-388.25"/>
</a>
</g>
</g>
<!-- Node4 -->
<g id="Node000004" class="node">
<title>Node4</title>
<g id="a_Node000004"><a xlink:href="class_symfony_1_1_component_1_1_console_1_1_command_1_1_command.html#ab2019a6d5eaa4bde2a1a780dea55aca6" target="_top" xlink:title=" ">
<polygon fill="white" stroke="#666666" points="379.5,-373.5 203,-373.5 203,-343 379.5,-343 379.5,-373.5"/>
<text text-anchor="start" x="211" y="-360" font-family="Helvetica,sans-Serif" font-size="10.00">Symfony\Component\Console</text>
<text text-anchor="middle" x="291.25" y="-348.75" font-family="Helvetica,sans-Serif" font-size="10.00">\Command\Command\getApplication</text>
</a>
</g>
</g>
<!-- Node2&#45;&gt;Node4 -->
<g id="edge3_Node000002_Node000004" class="edge">
<title>Node2&#45;&gt;Node4</title>
<g id="a_edge3_Node000002_Node000004"><a xlink:title=" ">
<path fill="none" stroke="#63b8ff" d="M133.03,-221.19C140.65,-244.49 162.86,-302.9 202.25,-333.25 204,-334.59 205.81,-335.87 207.68,-337.07"/>
<polygon fill="#63b8ff" stroke="#63b8ff" points="205.7,-339.97 216.13,-341.8 209.12,-333.86 205.7,-339.97"/>
</a>
</g>
</g>
<!-- Node5 -->
<g id="Node000005" class="node">
<title>Node5</title>
<g id="a_Node000005"><a xlink:href="class_symfony_1_1_component_1_1_console_1_1_command_1_1_command.html#a2e7bb35c71bf1824456ceb944cb7a845" target="_top" xlink:title=" ">
<polygon fill="white" stroke="#666666" points="380.25,-324.5 202.25,-324.5 202.25,-294 380.25,-294 380.25,-324.5"/>
<text text-anchor="start" x="210.25" y="-311" font-family="Helvetica,sans-Serif" font-size="10.00">Symfony\Component\Console</text>
<text text-anchor="middle" x="291.25" y="-299.75" font-family="Helvetica,sans-Serif" font-size="10.00">\Command\Command\getDescription</text>
</a>
</g>
</g>
<!-- Node2&#45;&gt;Node5 -->
<g id="edge4_Node000002_Node000005" class="edge">
<title>Node2&#45;&gt;Node5</title>
<g id="a_edge4_Node000002_Node000005"><a xlink:title=" ">
<path fill="none" stroke="#63b8ff" d="M137.23,-221.36C149.04,-237.15 174,-267.56 202.25,-284.25 205.07,-285.92 208.01,-287.48 211.02,-288.94"/>
<polygon fill="#63b8ff" stroke="#63b8ff" points="209.58,-292.13 220.15,-292.92 212.38,-285.71 209.58,-292.13"/>
</a>
</g>
</g>
<!-- Node6 -->
<g id="Node000006" class="node">
<title>Node6</title>
<g id="a_Node000006"><a xlink:href="class_symfony_1_1_component_1_1_console_1_1_command_1_1_command.html#ab1ffe5022cd0569add0ffdd3493e8ff0" target="_top" xlink:title=" ">
<polygon fill="white" stroke="#666666" points="377.25,-275.5 205.25,-275.5 205.25,-245 377.25,-245 377.25,-275.5"/>
<text text-anchor="start" x="213.25" y="-262" font-family="Helvetica,sans-Serif" font-size="10.00">Symfony\Component\Console</text>
<text text-anchor="middle" x="291.25" y="-250.75" font-family="Helvetica,sans-Serif" font-size="10.00">\Command\Command\getHelperSet</text>
</a>
</g>
</g>
<!-- Node2&#45;&gt;Node6 -->
<g id="edge5_Node000002_Node000006" class="edge">
<title>Node2&#45;&gt;Node6</title>
<g id="a_edge5_Node000002_Node000006"><a xlink:title=" ">
<path fill="none" stroke="#63b8ff" d="M159.43,-221.35C172.5,-225.75 188.1,-230.89 202.25,-235.25 208.92,-237.31 215.9,-239.39 222.88,-241.44"/>
<polygon fill="#63b8ff" stroke="#63b8ff" points="221.77,-244.76 232.35,-244.19 223.73,-238.04 221.77,-244.76"/>
</a>
</g>
</g>
<!-- Node7 -->
<g id="Node000007" class="node">
<title>Node7</title>
<g id="a_Node000007"><a xlink:href="class_symfony_1_1_component_1_1_console_1_1_command_1_1_command.html#a3d0963e68bb313b163a73f2803c64600" target="_top" xlink:title=" ">
<polygon fill="white" stroke="#666666" points="368.62,-226.5 213.88,-226.5 213.88,-196 368.62,-196 368.62,-226.5"/>
<text text-anchor="start" x="221.88" y="-213" font-family="Helvetica,sans-Serif" font-size="10.00">Symfony\Component\Console</text>
<text text-anchor="middle" x="291.25" y="-201.75" font-family="Helvetica,sans-Serif" font-size="10.00">\Command\Command\getName</text>
</a>
</g>
</g>
<!-- Node2&#45;&gt;Node7 -->
<g id="edge6_Node000002_Node000007" class="edge">
<title>Node2&#45;&gt;Node7</title>
<g id="a_edge6_Node000002_Node000007"><a xlink:title=" ">
<path fill="none" stroke="#63b8ff" d="M166.36,-211.25C177.22,-211.25 189.62,-211.25 202.29,-211.25"/>
<polygon fill="#63b8ff" stroke="#63b8ff" points="201.94,-214.75 211.94,-211.25 201.94,-207.75 201.94,-214.75"/>
</a>
</g>
</g>
<!-- Node8 -->
<g id="Node000008" class="node">
<title>Node8</title>
<g id="a_Node000008"><a xlink:href="class_symfony_1_1_component_1_1_console_1_1_command_1_1_command.html#acbd42dc98fc1c0649ae7b1aeaf842b3d" target="_top" xlink:title=" ">
<polygon fill="white" stroke="#666666" points="367.88,-177.5 214.62,-177.5 214.62,-147 367.88,-147 367.88,-177.5"/>
<text text-anchor="start" x="222.62" y="-164" font-family="Helvetica,sans-Serif" font-size="10.00">Symfony\Component\Console</text>
<text text-anchor="middle" x="291.25" y="-152.75" font-family="Helvetica,sans-Serif" font-size="10.00">\Command\Command\isHidden</text>
</a>
</g>
</g>
<!-- Node2&#45;&gt;Node8 -->
<g id="edge7_Node000002_Node000008" class="edge">
<title>Node2&#45;&gt;Node8</title>
<g id="a_edge7_Node000002_Node000008"><a xlink:title=" ">
<path fill="none" stroke="#63b8ff" d="M159.43,-201.15C172.5,-196.75 188.1,-191.61 202.25,-187.25 208.92,-185.19 215.9,-183.11 222.88,-181.06"/>
<polygon fill="#63b8ff" stroke="#63b8ff" points="223.73,-184.46 232.35,-178.31 221.77,-177.74 223.73,-184.46"/>
</a>
</g>
</g>
<!-- Node9 -->
<g id="Node000009" class="node">
<title>Node9</title>
<g id="a_Node000009"><a xlink:href="class_symfony_1_1_component_1_1_console_1_1_command_1_1_command.html#a587da84fe6cd5996be141fd58ad96404" target="_top" xlink:title=" ">
<polygon fill="white" stroke="#666666" points="371.62,-128.5 210.88,-128.5 210.88,-98 371.62,-98 371.62,-128.5"/>
<text text-anchor="start" x="218.88" y="-115" font-family="Helvetica,sans-Serif" font-size="10.00">Symfony\Component\Console</text>
<text text-anchor="middle" x="291.25" y="-103.75" font-family="Helvetica,sans-Serif" font-size="10.00">\Command\Command\setAliases</text>
</a>
</g>
</g>
<!-- Node2&#45;&gt;Node9 -->
<g id="edge8_Node000002_Node000009" class="edge">
<title>Node2&#45;&gt;Node9</title>
<g id="a_edge8_Node000002_Node000009"><a xlink:title=" ">
<path fill="none" stroke="#63b8ff" d="M137.23,-201.14C149.04,-185.35 174,-154.94 202.25,-138.25 205.07,-136.58 208.01,-135.02 211.02,-133.56"/>
<polygon fill="#63b8ff" stroke="#63b8ff" points="212.38,-136.79 220.15,-129.58 209.58,-130.37 212.38,-136.79"/>
</a>
</g>
</g>
<!-- Node10 -->
<g id="Node000010" class="node">
<title>Node10</title>
<g id="a_Node000010"><a xlink:href="class_symfony_1_1_component_1_1_console_1_1_command_1_1_command.html#a3eda7afea80371b606cd289c66ab3e7c" target="_top" xlink:title=" ">
<polygon fill="white" stroke="#666666" points="380.25,-79.5 202.25,-79.5 202.25,-49 380.25,-49 380.25,-79.5"/>
<text text-anchor="start" x="210.25" y="-66" font-family="Helvetica,sans-Serif" font-size="10.00">Symfony\Component\Console</text>
<text text-anchor="middle" x="291.25" y="-54.75" font-family="Helvetica,sans-Serif" font-size="10.00">\Command\Command\setDescription</text>
</a>
</g>
</g>
<!-- Node2&#45;&gt;Node10 -->
<g id="edge9_Node000002_Node000010" class="edge">
<title>Node2&#45;&gt;Node10</title>
<g id="a_edge9_Node000002_Node000010"><a xlink:title=" ">
<path fill="none" stroke="#63b8ff" d="M133.03,-201.31C140.65,-178.01 162.86,-119.6 202.25,-89.25 204,-87.91 205.81,-86.63 207.68,-85.43"/>
<polygon fill="#63b8ff" stroke="#63b8ff" points="209.12,-88.64 216.13,-80.7 205.7,-82.53 209.12,-88.64"/>
</a>
</g>
</g>
<!-- Node11 -->
<g id="Node000011" class="node">
<title>Node11</title>
<g id="a_Node000011"><a xlink:href="class_symfony_1_1_component_1_1_console_1_1_command_1_1_command.html#a88f15de947b7c9596cf3dab5d35ce6af" target="_top" xlink:title=" ">
<polygon fill="white" stroke="#666666" points="370.88,-30.5 211.62,-30.5 211.62,0 370.88,0 370.88,-30.5"/>
<text text-anchor="start" x="219.62" y="-17" font-family="Helvetica,sans-Serif" font-size="10.00">Symfony\Component\Console</text>
<text text-anchor="middle" x="291.25" y="-5.75" font-family="Helvetica,sans-Serif" font-size="10.00">\Command\Command\setHidden</text>
</a>
</g>
</g>
<!-- Node2&#45;&gt;Node11 -->
<g id="edge10_Node000002_Node000011" class="edge">
<title>Node2&#45;&gt;Node11</title>
<g id="a_edge10_Node000002_Node000011"><a xlink:title=" ">
<path fill="none" stroke="#63b8ff" d="M131.19,-201.43C135.26,-172.25 151.3,-85.29 202.25,-40.25 203.51,-39.13 204.83,-38.06 206.18,-37.04"/>
<polygon fill="#63b8ff" stroke="#63b8ff" points="207.83,-40.14 214.35,-31.79 204.04,-34.25 207.83,-40.14"/>
</a>
</g>
</g>
</g>
</svg>
