<?xml version="1.0" encoding="UTF-8" standalone="no"?>
<!DOCTYPE svg PUBLIC "-//W3C//DTD SVG 1.1//EN"
 "http://www.w3.org/Graphics/SVG/1.1/DTD/svg11.dtd">
<!-- Generated by graphviz version 10.0.1 (20240210.2158)
 -->
<!-- Title: OutputFormatterStyle Pages: 1 -->
<svg width="150pt" height="466pt"
 viewBox="0.00 0.00 150.00 466.00" xmlns="http://www.w3.org/2000/svg" xmlns:xlink="http://www.w3.org/1999/xlink">
<g id="graph0" class="graph" transform="scale(1 1) rotate(0) translate(4 462)">
<title>OutputFormatterStyle</title>
<!-- Node1 -->
<g id="Node000001" class="node">
<title>Node1</title>
<g id="a_Node000001"><a xlink:title=" ">
<polygon fill="#999999" stroke="none" points="133.5,-243 8.5,-243 8.5,0 133.5,0 133.5,-243"/>
<text text-anchor="start" x="24.12" y="-229.5" font-family="Helvetica,sans-Serif" font-size="10.00">OutputFormatterStyle</text>
<text text-anchor="start" x="69.5" y="-214.5" font-family="Helvetica,sans-Serif" font-size="10.00"> </text>
<text text-anchor="start" x="12.5" y="-199.5" font-family="Helvetica,sans-Serif" font-size="10.00">+</text>
<text text-anchor="start" x="22.5" y="-199.5" font-family="Helvetica,sans-Serif" font-size="10.00">__construct(string</text>
<text text-anchor="start" x="22.5" y="-188.25" font-family="Helvetica,sans-Serif" font-size="10.00"> $foreground=null, string</text>
<text text-anchor="start" x="22.5" y="-177" font-family="Helvetica,sans-Serif" font-size="10.00"> $background=null, array</text>
<text text-anchor="start" x="22.5" y="-165.75" font-family="Helvetica,sans-Serif" font-size="10.00"> $options=[])</text>
<text text-anchor="start" x="12.5" y="-150.5" font-family="Helvetica,sans-Serif" font-size="10.00">+</text>
<text text-anchor="start" x="22.5" y="-150.5" font-family="Helvetica,sans-Serif" font-size="10.00">setForeground(string</text>
<text text-anchor="start" x="22.5" y="-139.25" font-family="Helvetica,sans-Serif" font-size="10.00"> $color=null)</text>
<text text-anchor="start" x="12.5" y="-124.5" font-family="Helvetica,sans-Serif" font-size="10.00">+</text>
<text text-anchor="start" x="22.5" y="-124.5" font-family="Helvetica,sans-Serif" font-size="10.00">setBackground(string</text>
<text text-anchor="start" x="22.5" y="-113.25" font-family="Helvetica,sans-Serif" font-size="10.00"> $color=null)</text>
<text text-anchor="start" x="12.5" y="-98.5" font-family="Helvetica,sans-Serif" font-size="10.00">+</text>
<text text-anchor="start" x="22.5" y="-98.5" font-family="Helvetica,sans-Serif" font-size="10.00">setHref(string $url)</text>
<text text-anchor="start" x="12.5" y="-83.5" font-family="Helvetica,sans-Serif" font-size="10.00">+</text>
<text text-anchor="start" x="22.5" y="-83.5" font-family="Helvetica,sans-Serif" font-size="10.00">setOption(string </text>
<text text-anchor="start" x="22.5" y="-72.25" font-family="Helvetica,sans-Serif" font-size="10.00">$option)</text>
<text text-anchor="start" x="12.5" y="-57.5" font-family="Helvetica,sans-Serif" font-size="10.00">+</text>
<text text-anchor="start" x="22.5" y="-57.5" font-family="Helvetica,sans-Serif" font-size="10.00">unsetOption(string</text>
<text text-anchor="start" x="22.5" y="-46.25" font-family="Helvetica,sans-Serif" font-size="10.00"> $option)</text>
<text text-anchor="start" x="12.5" y="-31.5" font-family="Helvetica,sans-Serif" font-size="10.00">+</text>
<text text-anchor="start" x="22.5" y="-31.5" font-family="Helvetica,sans-Serif" font-size="10.00">setOptions(array </text>
<text text-anchor="start" x="22.5" y="-20.25" font-family="Helvetica,sans-Serif" font-size="10.00">$options)</text>
<text text-anchor="start" x="12.5" y="-5.5" font-family="Helvetica,sans-Serif" font-size="10.00">+</text>
<text text-anchor="start" x="22.5" y="-5.5" font-family="Helvetica,sans-Serif" font-size="10.00">apply(string $text)</text>
<polygon fill="#666666" stroke="#666666" points="8.5,-226 8.5,-226 133.5,-226 133.5,-226 8.5,-226"/>
<polygon fill="#666666" stroke="#666666" points="8.5,-211 8.5,-211 133.5,-211 133.5,-211 8.5,-211"/>
<polygon fill="none" stroke="#666666" points="8.5,0 8.5,-243 133.5,-243 133.5,0 8.5,0"/>
</a>
</g>
</g>
<!-- Node2 -->
<g id="Node000002" class="node">
<title>Node2</title>
<g id="a_Node000002"><a xlink:href="interface_symfony_1_1_component_1_1_console_1_1_formatter_1_1_output_formatter_style_interface.html" target="_top" xlink:title=" ">
<polygon fill="white" stroke="none" points="142,-458 0,-458 0,-279 142,-279 142,-458"/>
<text text-anchor="start" x="5" y="-444.5" font-family="Helvetica,sans-Serif" font-size="10.00">OutputFormatterStyleInterface</text>
<text text-anchor="start" x="69.5" y="-429.5" font-family="Helvetica,sans-Serif" font-size="10.00"> </text>
<text text-anchor="start" x="12" y="-414.5" font-family="Helvetica,sans-Serif" font-size="10.00">+</text>
<text text-anchor="start" x="30" y="-414.5" font-family="Helvetica,sans-Serif" font-size="10.00">setForeground(string</text>
<text text-anchor="start" x="30" y="-403.25" font-family="Helvetica,sans-Serif" font-size="10.00"> $color=null)</text>
<text text-anchor="start" x="12" y="-388.5" font-family="Helvetica,sans-Serif" font-size="10.00">+</text>
<text text-anchor="start" x="30" y="-388.5" font-family="Helvetica,sans-Serif" font-size="10.00">setBackground(string</text>
<text text-anchor="start" x="30" y="-377.25" font-family="Helvetica,sans-Serif" font-size="10.00"> $color=null)</text>
<text text-anchor="start" x="12" y="-362.5" font-family="Helvetica,sans-Serif" font-size="10.00">+</text>
<text text-anchor="start" x="30" y="-362.5" font-family="Helvetica,sans-Serif" font-size="10.00">setOption(string </text>
<text text-anchor="start" x="30" y="-351.25" font-family="Helvetica,sans-Serif" font-size="10.00">$option)</text>
<text text-anchor="start" x="12" y="-336.5" font-family="Helvetica,sans-Serif" font-size="10.00">+</text>
<text text-anchor="start" x="30" y="-336.5" font-family="Helvetica,sans-Serif" font-size="10.00">unsetOption(string</text>
<text text-anchor="start" x="30" y="-325.25" font-family="Helvetica,sans-Serif" font-size="10.00"> $option)</text>
<text text-anchor="start" x="12" y="-310.5" font-family="Helvetica,sans-Serif" font-size="10.00">+</text>
<text text-anchor="start" x="30" y="-310.5" font-family="Helvetica,sans-Serif" font-size="10.00">setOptions(array </text>
<text text-anchor="start" x="30" y="-299.25" font-family="Helvetica,sans-Serif" font-size="10.00">$options)</text>
<text text-anchor="start" x="12" y="-284.5" font-family="Helvetica,sans-Serif" font-size="10.00">+</text>
<text text-anchor="start" x="30" y="-284.5" font-family="Helvetica,sans-Serif" font-size="10.00">apply(string $text)</text>
<polygon fill="#666666" stroke="#666666" points="0,-441 0,-441 142,-441 142,-441 0,-441"/>
<polygon fill="#666666" stroke="#666666" points="0,-426 0,-426 142,-426 142,-426 0,-426"/>
<polygon fill="none" stroke="#666666" points="0,-279 0,-458 142,-458 142,-279 0,-279"/>
</a>
</g>
</g>
<!-- Node2&#45;&gt;Node1 -->
<g id="edge1_Node000001_Node000002" class="edge">
<title>Node2&#45;&gt;Node1</title>
<g id="a_edge1_Node000001_Node000002"><a xlink:title=" ">
<path fill="none" stroke="#63b8ff" d="M71,-267.6C71,-259.42 71,-251.1 71,-242.8"/>
<polygon fill="none" stroke="#63b8ff" points="67.5,-267.54 71,-277.54 74.5,-267.54 67.5,-267.54"/>
</a>
</g>
</g>
</g>
</svg>
