<?xml version="1.0" encoding="UTF-8" standalone="no"?>
<!DOCTYPE svg PUBLIC "-//W3C//DTD SVG 1.1//EN"
 "http://www.w3.org/Graphics/SVG/1.1/DTD/svg11.dtd">
<!-- Generated by graphviz version 10.0.1 (20240210.2158)
 -->
<!-- Title: mod Pages: 1 -->
<svg width="115pt" height="64pt"
 viewBox="0.00 0.00 115.00 64.25" xmlns="http://www.w3.org/2000/svg" xmlns:xlink="http://www.w3.org/1999/xlink">
<g id="graph0" class="graph" transform="scale(1 1) rotate(0) translate(4 60.25)">
<title>mod</title>
<!-- Node1 -->
<g id="Node000001" class="node">
<title>Node1</title>
<g id="a_Node000001"><a xlink:title=" ">
<polygon fill="#999999" stroke="#666666" points="34.75,-37.25 0,-37.25 0,-18 34.75,-18 34.75,-37.25"/>
<text text-anchor="middle" x="17.38" y="-23.75" font-family="Helvetica,sans-Serif" font-size="10.00">mod</text>
</a>
</g>
</g>
<!-- Node2 -->
<g id="Node000002" class="node">
<title>Node2</title>
<g id="a_Node000002"><a xlink:href="class_brick_1_1_math_1_1_internal_1_1_calculator.html#a99e462cd00ba3948d0986761c9268827" target="_top" xlink:title=" ">
<polygon fill="white" stroke="#666666" points="104.75,-56.25 73,-56.25 73,-37 104.75,-37 104.75,-56.25"/>
<text text-anchor="middle" x="88.88" y="-42.75" font-family="Helvetica,sans-Serif" font-size="10.00">add</text>
</a>
</g>
</g>
<!-- Node1&#45;&gt;Node2 -->
<g id="edge1_Node000001_Node000002" class="edge">
<title>Node1&#45;&gt;Node2</title>
<g id="a_edge1_Node000001_Node000002"><a xlink:title=" ">
<path fill="none" stroke="#63b8ff" d="M35.2,-32.22C43.13,-34.39 52.78,-37.03 61.64,-39.45"/>
<polygon fill="#63b8ff" stroke="#63b8ff" points="60.6,-42.8 71.17,-42.06 62.45,-36.04 60.6,-42.8"/>
</a>
</g>
</g>
<!-- Node3 -->
<g id="Node000003" class="node">
<title>Node3</title>
<g id="a_Node000003"><a xlink:href="class_brick_1_1_math_1_1_internal_1_1_calculator.html#a8f49aac65ac0a661c0a024250ffb1db9" target="_top" xlink:title=" ">
<polygon fill="white" stroke="#666666" points="107,-19.25 70.75,-19.25 70.75,0 107,0 107,-19.25"/>
<text text-anchor="middle" x="88.88" y="-5.75" font-family="Helvetica,sans-Serif" font-size="10.00">divR</text>
</a>
</g>
</g>
<!-- Node1&#45;&gt;Node3 -->
<g id="edge2_Node000001_Node000003" class="edge">
<title>Node1&#45;&gt;Node3</title>
<g id="a_edge2_Node000001_Node000003"><a xlink:title=" ">
<path fill="none" stroke="#63b8ff" d="M35.2,-23.27C42.6,-21.35 51.5,-19.05 59.85,-16.88"/>
<polygon fill="#63b8ff" stroke="#63b8ff" points="60.45,-20.34 69.26,-14.45 58.7,-13.57 60.45,-20.34"/>
</a>
</g>
</g>
</g>
</svg>
