<?xml version="1.0" encoding="UTF-8" standalone="no"?>
<!DOCTYPE svg PUBLIC "-//W3C//DTD SVG 1.1//EN"
 "http://www.w3.org/Graphics/SVG/1.1/DTD/svg11.dtd">
<!-- Generated by graphviz version 10.0.1 (20240210.2158)
 -->
<!-- Title: _putinfo Pages: 1 -->
<!--zoomable 150 -->

<svg id="main" version="1.1" xmlns="http://www.w3.org/2000/svg" xmlns:xlink="http://www.w3.org/1999/xlink" xml:space="preserve" onload="init(evt)">
<style type="text/css"><![CDATA[
.node, .edge {opacity: 0.7;}
.node.selected, .edge.selected {opacity: 1;}
.edge:hover path { stroke: red; }
.edge:hover polygon { stroke: red; fill: red; }
]]></style>

<defs>
  <circle id="rim" cx="0" cy="0" r="7"/>
  <circle id="rim2" cx="0" cy="0" r="3.5"/>
  <g id="zoomPlus">
    <use xlink:href="#rim" fill="#404040"><set attributeName="fill" to="#808080" begin="zoomplus.mouseover" end="zoomplus.mouseout"/></use>
    <path d="M-4,0h8M0,-4v8" fill="none" stroke="white" stroke-width="1.5" pointer-events="none"/>
  </g>
  <g id="zoomMin">
    <use xlink:href="#rim" fill="#404040"><set attributeName="fill" to="#808080" begin="zoomminus.mouseover" end="zoomminus.mouseout"/></use>
    <path d="M-4,0h8" fill="none" stroke="white" stroke-width="1.5" pointer-events="none"/>
  </g>
  <g id="arrowUp" transform="translate(30 24)">
    <use xlink:href="#rim"/>
    <path pointer-events="none" fill="none" stroke="white" stroke-width="1.5" d="M0,-3.0v7 M-2.5,-0.5L0,-3.0L2.5,-0.5"/>
  </g>
  <g id="arrowRight" transform="rotate(90) translate(36 -43)">
    <use xlink:href="#rim"/>
    <path pointer-events="none" fill="none" stroke="white" stroke-width="1.5" d="M0,-3.0v7 M-2.5,-0.5L0,-3.0L2.5,-0.5"/>
  </g>
  <g id="arrowDown" transform="rotate(180) translate(-30 -48)">
    <use xlink:href="#rim"/>
    <path pointer-events="none" fill="none" stroke="white" stroke-width="1.5" d="M0,-3.0v7 M-2.5,-0.5L0,-3.0L2.5,-0.5"/>
  </g>
  <g id="arrowLeft" transform="rotate(270) translate(-36 17)">
    <use xlink:href="#rim"/>
    <path pointer-events="none" fill="none" stroke="white" stroke-width="1.5" d="M0,-3.0v7 M-2.5,-0.5L0,-3.0L2.5,-0.5"/>
  </g>
  <g id="resetDef">
    <use xlink:href="#rim2" fill="#404040"><set attributeName="fill" to="#808080" begin="reset.mouseover" end="reset.mouseout"/></use>
  </g>
</defs>
<script type="application/ecmascript">
var viewWidth = 514;
var viewHeight = 150;
var sectionId = 'dynsection-83';
</script>
<script type="application/ecmascript" xlink:href="svg.min.js"/>
<svg id="graph" class="graph">
<g id="viewport">
<title>_putinfo</title>
<!-- Node1 -->
<g id="Node000001" class="node">
<title>Node1</title>
<g id="a_Node000001"><a xlink:title=" ">
<polygon fill="#999999" stroke="#666666" points="50.5,-79.25 0,-79.25 0,-60 50.5,-60 50.5,-79.25"/>
<text text-anchor="middle" x="25.25" y="-65.75" font-family="Helvetica,sans-Serif" font-size="10.00">_putinfo</text>
</a>
</g>
</g>
<!-- Node2 -->
<g id="Node000002" class="node">
<title>Node2</title>
<g id="a_Node000002"><a xlink:href="class_t_c_p_d_f.html#a6779d67dae49accb4cf7ab5847b11e81" target="_top" xlink:title=" ">
<polygon fill="white" stroke="#666666" points="202.25,-98.25 150.25,-98.25 150.25,-79 202.25,-79 202.25,-98.25"/>
<text text-anchor="middle" x="176.25" y="-84.75" font-family="Helvetica,sans-Serif" font-size="10.00">_newobj</text>
</a>
</g>
</g>
<!-- Node1&#45;&gt;Node2 -->
<g id="edge1_Node000001_Node000002" class="edge">
<title>Node1&#45;&gt;Node2</title>
<g id="a_edge1_Node000001_Node000002"><a xlink:title=" ">
<path fill="none" stroke="#63b8ff" d="M50.85,-72.76C74.79,-75.82 111.45,-80.49 138.78,-83.97"/>
<polygon fill="#63b8ff" stroke="#63b8ff" points="138,-87.4 148.36,-85.2 138.88,-80.46 138,-87.4"/>
</a>
</g>
</g>
<!-- Node4 -->
<g id="Node000004" class="node">
<title>Node4</title>
<g id="a_Node000004"><a xlink:href="class_t_c_p_d_f___s_t_a_t_i_c.html#a5e311abad71449e634216a5d897a65b6" target="_top" xlink:title=" ">
<polygon fill="white" stroke="#666666" points="505.75,-141.88 385.5,-141.88 385.5,-111.38 505.75,-111.38 505.75,-141.88"/>
<text text-anchor="start" x="393.5" y="-128.38" font-family="Helvetica,sans-Serif" font-size="10.00">TCPDF_STATIC\empty</text>
<text text-anchor="middle" x="445.62" y="-117.12" font-family="Helvetica,sans-Serif" font-size="10.00">_string</text>
</a>
</g>
</g>
<!-- Node1&#45;&gt;Node4 -->
<g id="edge9_Node000001_Node000004" class="edge">
<title>Node1&#45;&gt;Node4</title>
<g id="a_edge9_Node000001_Node000004"><a xlink:title=" ">
<path fill="none" stroke="#63b8ff" d="M37.79,-79.46C49.29,-88.62 67.88,-101.7 86.5,-107.62 182.39,-138.11 299.93,-137.68 373.57,-133.22"/>
<polygon fill="#63b8ff" stroke="#63b8ff" points="373.74,-136.71 383.49,-132.57 373.28,-129.73 373.74,-136.71"/>
</a>
</g>
</g>
<!-- Node5 -->
<g id="Node000005" class="node">
<title>Node5</title>
<g id="a_Node000005"><a xlink:href="class_t_c_p_d_f.html#a01627a8b7ad5c79ee736572b3d2ef3f5" target="_top" xlink:title=" ">
<polygon fill="white" stroke="#666666" points="343.12,-60.25 308.38,-60.25 308.38,-41 343.12,-41 343.12,-60.25"/>
<text text-anchor="middle" x="325.75" y="-46.75" font-family="Helvetica,sans-Serif" font-size="10.00">_out</text>
</a>
</g>
</g>
<!-- Node1&#45;&gt;Node5 -->
<g id="edge8_Node000001_Node000005" class="edge">
<title>Node1&#45;&gt;Node5</title>
<g id="a_edge8_Node000001_Node000005"><a xlink:title=" ">
<path fill="none" stroke="#63b8ff" d="M50.93,-68.05C106.09,-64.54 239.06,-56.08 296.99,-52.39"/>
<polygon fill="#63b8ff" stroke="#63b8ff" points="296.89,-55.91 306.65,-51.78 296.45,-48.92 296.89,-55.91"/>
</a>
</g>
</g>
<!-- Node9 -->
<g id="Node000009" class="node">
<title>Node9</title>
<g id="a_Node000009"><a xlink:href="class_t_c_p_d_f___s_t_a_t_i_c.html#aacf686ad67190a69504b1acf4015df17" target="_top" xlink:title=" ">
<polygon fill="white" stroke="#666666" points="266,-22.25 86.5,-22.25 86.5,-3 266,-3 266,-22.25"/>
<text text-anchor="middle" x="176.25" y="-8.75" font-family="Helvetica,sans-Serif" font-size="10.00">TCPDF_STATIC\getTCPDFProducer</text>
</a>
</g>
</g>
<!-- Node1&#45;&gt;Node9 -->
<g id="edge10_Node000001_Node000009" class="edge">
<title>Node1&#45;&gt;Node9</title>
<g id="a_edge10_Node000001_Node000009"><a xlink:title=" ">
<path fill="none" stroke="#63b8ff" d="M42.11,-59.58C53.97,-52.41 70.79,-42.95 86.5,-36.62 96.83,-32.47 108.12,-28.8 119.08,-25.65"/>
<polygon fill="#63b8ff" stroke="#63b8ff" points="119.7,-29.11 128.42,-23.09 117.85,-22.36 119.7,-29.11"/>
</a>
</g>
</g>
<!-- Node3 -->
<g id="Node000003" class="node">
<title>Node3</title>
<g id="a_Node000003"><a xlink:href="class_t_c_p_d_f.html#a9aac8335bc5c820ae15de203116387ce" target="_top" xlink:title=" ">
<polygon fill="white" stroke="#666666" points="349.5,-98.25 302,-98.25 302,-79 349.5,-79 349.5,-98.25"/>
<text text-anchor="middle" x="325.75" y="-84.75" font-family="Helvetica,sans-Serif" font-size="10.00">_getobj</text>
</a>
</g>
</g>
<!-- Node2&#45;&gt;Node3 -->
<g id="edge2_Node000002_Node000003" class="edge">
<title>Node2&#45;&gt;Node3</title>
<g id="a_edge2_Node000002_Node000003"><a xlink:title=" ">
<path fill="none" stroke="#63b8ff" d="M202.61,-88.62C226.86,-88.62 263.61,-88.62 290.46,-88.62"/>
<polygon fill="#63b8ff" stroke="#63b8ff" points="290.15,-92.13 300.15,-88.63 290.15,-85.13 290.15,-92.13"/>
</a>
</g>
</g>
<!-- Node2&#45;&gt;Node5 -->
<g id="edge4_Node000002_Node000005" class="edge">
<title>Node2&#45;&gt;Node5</title>
<g id="a_edge4_Node000002_Node000005"><a xlink:title=" ">
<path fill="none" stroke="#63b8ff" d="M202.61,-82.09C228.87,-75.33 269.78,-64.79 296.92,-57.79"/>
<polygon fill="#63b8ff" stroke="#63b8ff" points="297.7,-61.21 306.51,-55.32 295.95,-54.43 297.7,-61.21"/>
</a>
</g>
</g>
<!-- Node3&#45;&gt;Node4 -->
<g id="edge3_Node000003_Node000004" class="edge">
<title>Node3&#45;&gt;Node4</title>
<g id="a_edge3_Node000003_Node000004"><a xlink:title=" ">
<path fill="none" stroke="#63b8ff" d="M349.76,-96.04C359.91,-99.32 372.37,-103.33 384.88,-107.36"/>
<polygon fill="#63b8ff" stroke="#63b8ff" points="383.8,-110.69 394.39,-110.43 385.94,-104.03 383.8,-110.69"/>
</a>
</g>
</g>
<!-- Node6 -->
<g id="Node000006" class="node">
<title>Node6</title>
<g id="a_Node000006"><a xlink:href="class_t_c_p_d_f.html#a2f0c138e82371b95c3899451a330da05" target="_top" xlink:title=" ">
<polygon fill="white" stroke="#666666" points="484.75,-93.25 406.5,-93.25 406.5,-74 484.75,-74 484.75,-93.25"/>
<text text-anchor="middle" x="445.62" y="-79.75" font-family="Helvetica,sans-Serif" font-size="10.00">getPageBuffer</text>
</a>
</g>
</g>
<!-- Node5&#45;&gt;Node6 -->
<g id="edge5_Node000005_Node000006" class="edge">
<title>Node5&#45;&gt;Node6</title>
<g id="a_edge5_Node000005_Node000006"><a xlink:title=" ">
<path fill="none" stroke="#63b8ff" d="M343.39,-55.28C357.5,-59.23 378.45,-65.1 397.63,-70.47"/>
<polygon fill="#63b8ff" stroke="#63b8ff" points="396.63,-73.82 407.2,-73.15 398.52,-67.08 396.63,-73.82"/>
</a>
</g>
</g>
<!-- Node7 -->
<g id="Node000007" class="node">
<title>Node7</title>
<g id="a_Node000007"><a xlink:href="class_t_c_p_d_f.html#ac43455b74ede7e3f1d7558feb764eb6f" target="_top" xlink:title=" ">
<polygon fill="white" stroke="#666666" points="473.5,-56.25 417.75,-56.25 417.75,-37 473.5,-37 473.5,-56.25"/>
<text text-anchor="middle" x="445.62" y="-42.75" font-family="Helvetica,sans-Serif" font-size="10.00">setBuffer</text>
</a>
</g>
</g>
<!-- Node5&#45;&gt;Node7 -->
<g id="edge6_Node000005_Node000007" class="edge">
<title>Node5&#45;&gt;Node7</title>
<g id="a_edge6_Node000005_Node000007"><a xlink:title=" ">
<path fill="none" stroke="#63b8ff" d="M343.39,-50.06C359.67,-49.51 385.04,-48.65 406.32,-47.92"/>
<polygon fill="#63b8ff" stroke="#63b8ff" points="406.24,-51.43 416.12,-47.59 406,-44.43 406.24,-51.43"/>
</a>
</g>
</g>
<!-- Node8 -->
<g id="Node000008" class="node">
<title>Node8</title>
<g id="a_Node000008"><a xlink:href="class_t_c_p_d_f.html#af4d8e4aed525c0bded587be897297a7f" target="_top" xlink:title=" ">
<polygon fill="white" stroke="#666666" points="484.75,-19.25 406.5,-19.25 406.5,0 484.75,0 484.75,-19.25"/>
<text text-anchor="middle" x="445.62" y="-5.75" font-family="Helvetica,sans-Serif" font-size="10.00">setPageBuffer</text>
</a>
</g>
</g>
<!-- Node5&#45;&gt;Node8 -->
<g id="edge7_Node000005_Node000008" class="edge">
<title>Node5&#45;&gt;Node8</title>
<g id="a_edge7_Node000005_Node000008"><a xlink:title=" ">
<path fill="none" stroke="#63b8ff" d="M343.59,-43.63C355.26,-38.88 371.22,-32.59 385.5,-27.62 389.89,-26.1 394.49,-24.58 399.1,-23.1"/>
<polygon fill="#63b8ff" stroke="#63b8ff" points="399.84,-26.53 408.33,-20.2 397.74,-19.85 399.84,-26.53"/>
</a>
</g>
</g>
</g>
</svg>

<g id="navigator" transform="translate(0 0)" fill="#404254">
  <rect fill="#f2f5e9" fill-opacity="0.5" stroke="#606060" stroke-width=".5" x="0" y="0" width="60" height="60"/>
  <use id="zoomplus" xlink:href="#zoomPlus" x="17" y="9" onmousedown="handleZoom(evt,'in')"/>
  <use id="zoomminus" xlink:href="#zoomMin" x="42" y="9" onmousedown="handleZoom(evt,'out')"/>
  <use id="reset" xlink:href="#resetDef" x="30" y="36" onmousedown="handleReset()"/>
   <use id="arrowup" xlink:href="#arrowUp" x="0" y="0" onmousedown="handlePan(0,-1)"/>
  <use id="arrowright" xlink:href="#arrowRight" x="0" y="0" onmousedown="handlePan(1,0)"/>
  <use id="arrowdown" xlink:href="#arrowDown" x="0" y="0" onmousedown="handlePan(0,1)"/>
  <use id="arrowleft" xlink:href="#arrowLeft" x="0" y="0" onmousedown="handlePan(-1,0)"/>
</g>
<svg viewBox="0 0 15 15" width="100%" height="30px" preserveAspectRatio="xMaxYMin meet">
 <g id="arrow_out" transform="scale(0.3 0.3)">
  <a xlink:href="class_t_c_p_d_f_a6ae7e6d0a2180ed00042fb86d39c03ba_cgraph_org.svg" target="_base">
   <rect id="button" ry="5" rx="5" y="6" x="6" height="38" width="38"
        fill="#f2f5e9" fill-opacity="0.5" stroke="#606060" stroke-width="1.0"/>
   <path id="arrow"
     d="M 11.500037,31.436501 C 11.940474,20.09759 22.043105,11.32322 32.158766,21.979434 L 37.068811,17.246167 C 37.068811,17.246167 37.088388,32 37.088388,32 L 22.160133,31.978069 C 22.160133,31.978069 26.997745,27.140456 26.997745,27.140456 C 18.528582,18.264221 13.291696,25.230495 11.500037,31.436501 z"
     style="fill:#404040;"/>
  </a>
 </g>
</svg>

<style type='text/css'>
<![CDATA[
[data-mouse-over-selected='false'] { opacity: 0.7; }
[data-mouse-over-selected='true']  { opacity: 1.0; }
]]>
</style>
<script type="application/ecmascript"><![CDATA[
document.addEventListener('DOMContentLoaded', (event) => {
  highlightEdges();
  highlightAdjacentNodes();
});
]]></script>
</svg>
