<?xml version="1.0" encoding="UTF-8" standalone="no"?>
<!DOCTYPE svg PUBLIC "-//W3C//DTD SVG 1.1//EN"
 "http://www.w3.org/Graphics/SVG/1.1/DTD/svg11.dtd">
<!-- Generated by graphviz version 10.0.1 (20240210.2158)
 -->
<!-- Title: getHandler Pages: 1 -->
<svg width="179pt" height="138pt"
 viewBox="0.00 0.00 178.75 138.25" xmlns="http://www.w3.org/2000/svg" xmlns:xlink="http://www.w3.org/1999/xlink">
<g id="graph0" class="graph" transform="scale(1 1) rotate(0) translate(4 134.25)">
<title>getHandler</title>
<!-- Node1 -->
<g id="Node000001" class="node">
<title>Node1</title>
<g id="a_Node000001"><a xlink:title=" ">
<polygon fill="#999999" stroke="#666666" points="170.75,-74.25 107.5,-74.25 107.5,-55 170.75,-55 170.75,-74.25"/>
<text text-anchor="middle" x="139.12" y="-60.75" font-family="Helvetica,sans-Serif" font-size="10.00">getHandler</text>
</a>
</g>
</g>
<!-- Node2 -->
<g id="Node000002" class="node">
<title>Node2</title>
<g id="a_Node000002"><a xlink:href="class_monolog_1_1_handler_1_1_filter_handler.html#aad3a8e83c90770a1f71a75bb51e782d8" target="_top" xlink:title=" ">
<polygon fill="white" stroke="#666666" points="71.5,-130.25 0,-130.25 0,-111 71.5,-111 71.5,-130.25"/>
<text text-anchor="middle" x="35.75" y="-116.75" font-family="Helvetica,sans-Serif" font-size="10.00">getFormatter</text>
</a>
</g>
</g>
<!-- Node1&#45;&gt;Node2 -->
<g id="edge1_Node000001_Node000002" class="edge">
<title>Node1&#45;&gt;Node2</title>
<g id="a_edge1_Node000001_Node000002"><a xlink:title=" ">
<path fill="none" stroke="#63b8ff" d="M111.08,-80.38C99.03,-87.31 84.62,-95.49 71.5,-102.62 66.61,-105.29 61.28,-108.09 56.3,-110.67"/>
<polygon fill="#63b8ff" stroke="#63b8ff" points="112.76,-83.45 119.67,-75.42 109.26,-77.39 112.76,-83.45"/>
</a>
</g>
</g>
<!-- Node3 -->
<g id="Node000003" class="node">
<title>Node3</title>
<g id="a_Node000003"><a xlink:href="class_monolog_1_1_handler_1_1_filter_handler.html#a944865926b0302ad2d802bea1eec3a57" target="_top" xlink:title=" ">
<polygon fill="white" stroke="#666666" points="70.75,-93.25 0.75,-93.25 0.75,-74 70.75,-74 70.75,-93.25"/>
<text text-anchor="middle" x="35.75" y="-79.75" font-family="Helvetica,sans-Serif" font-size="10.00">handleBatch</text>
</a>
</g>
</g>
<!-- Node1&#45;&gt;Node3 -->
<g id="edge2_Node000001_Node000003" class="edge">
<title>Node1&#45;&gt;Node3</title>
<g id="a_edge2_Node000001_Node000003"><a xlink:title=" ">
<path fill="none" stroke="#63b8ff" d="M96.08,-72.5C87.75,-74.07 79.1,-75.69 71.06,-77.19"/>
<polygon fill="#63b8ff" stroke="#63b8ff" points="96.49,-75.99 105.67,-70.71 95.2,-69.11 96.49,-75.99"/>
</a>
</g>
</g>
<!-- Node4 -->
<g id="Node000004" class="node">
<title>Node4</title>
<g id="a_Node000004"><a xlink:href="class_monolog_1_1_handler_1_1_filter_handler.html#a4a20559544fdf4dcb457e258dc976cf8" target="_top" xlink:title=" ">
<polygon fill="white" stroke="#666666" points="54.62,-56.25 16.88,-56.25 16.88,-37 54.62,-37 54.62,-56.25"/>
<text text-anchor="middle" x="35.75" y="-42.75" font-family="Helvetica,sans-Serif" font-size="10.00">reset</text>
</a>
</g>
</g>
<!-- Node1&#45;&gt;Node4 -->
<g id="edge3_Node000001_Node000004" class="edge">
<title>Node1&#45;&gt;Node4</title>
<g id="a_edge3_Node000001_Node000004"><a xlink:title=" ">
<path fill="none" stroke="#63b8ff" d="M95.94,-57.14C81.59,-54.59 66.31,-51.87 54.86,-49.84"/>
<polygon fill="#63b8ff" stroke="#63b8ff" points="95.21,-60.56 105.67,-58.86 96.43,-53.67 95.21,-60.56"/>
</a>
</g>
</g>
<!-- Node5 -->
<g id="Node000005" class="node">
<title>Node5</title>
<g id="a_Node000005"><a xlink:href="class_monolog_1_1_handler_1_1_filter_handler.html#a87804f2347dd817752ef1faa1f0dea05" target="_top" xlink:title=" ">
<polygon fill="white" stroke="#666666" points="71.5,-19.25 0,-19.25 0,0 71.5,0 71.5,-19.25"/>
<text text-anchor="middle" x="35.75" y="-5.75" font-family="Helvetica,sans-Serif" font-size="10.00">setFormatter</text>
</a>
</g>
</g>
<!-- Node1&#45;&gt;Node5 -->
<g id="edge4_Node000001_Node000005" class="edge">
<title>Node1&#45;&gt;Node5</title>
<g id="a_edge4_Node000001_Node000005"><a xlink:title=" ">
<path fill="none" stroke="#63b8ff" d="M110.54,-49.07C98.58,-42.39 84.39,-34.54 71.5,-27.62 66.59,-24.99 61.26,-22.2 56.28,-19.62"/>
<polygon fill="#63b8ff" stroke="#63b8ff" points="108.63,-52.01 119.07,-53.85 112.05,-45.91 108.63,-52.01"/>
</a>
</g>
</g>
</g>
</svg>
