<?xml version="1.0" encoding="UTF-8" standalone="no"?>
<!DOCTYPE svg PUBLIC "-//W3C//DTD SVG 1.1//EN"
 "http://www.w3.org/Graphics/SVG/1.1/DTD/svg11.dtd">
<!-- Generated by graphviz version 10.0.1 (20240210.2158)
 -->
<!-- Title: getHTMLTableHeader Pages: 1 -->
<svg width="324pt" height="186pt"
 viewBox="0.00 0.00 323.50 185.50" xmlns="http://www.w3.org/2000/svg" xmlns:xlink="http://www.w3.org/1999/xlink">

<svg id="main" version="1.1" xmlns="http://www.w3.org/2000/svg" xmlns:xlink="http://www.w3.org/1999/xlink" xml:space="preserve" onload="init(evt)">
<style type="text/css"><![CDATA[
.node, .edge {opacity: 0.7;}
.node.selected, .edge.selected {opacity: 1;}
.edge:hover path { stroke: red; }
.edge:hover polygon { stroke: red; fill: red; }
]]></style>
<script type="application/ecmascript" xlink:href="svg.min.js"/>
<svg id="graph" class="graph">
<g id="graph0" class="graph" transform="scale(1 1) rotate(0) translate(4 181.5)">
<title>getHTMLTableHeader</title>
<!-- Node1 -->
<g id="Node000001" class="node">
<title>Node1</title>
<g id="a_Node000001"><a xlink:title=" ">
<polygon fill="#999999" stroke="#666666" points="315.5,-97.88 204.25,-97.88 204.25,-78.62 315.5,-78.62 315.5,-97.88"/>
<text text-anchor="middle" x="259.88" y="-84.38" font-family="Helvetica,sans-Serif" font-size="10.00">getHTMLTableHeader</text>
</a>
</g>
</g>
<!-- Node2 -->
<g id="Node000002" class="node">
<title>Node2</title>
<g id="a_Node000002"><a xlink:href="class_device_control.html#acf16059d25ce7a1e87048c7b73c414c8" target="_top" xlink:title=" ">
<polygon fill="white" stroke="#666666" points="156.62,-177.5 11.62,-177.5 11.62,-147 156.62,-147 156.62,-177.5"/>
<text text-anchor="start" x="19.62" y="-164" font-family="Helvetica,sans-Serif" font-size="10.00">DeviceControl\getHTMLTable</text>
<text text-anchor="middle" x="84.12" y="-152.75" font-family="Helvetica,sans-Serif" font-size="10.00">Header</text>
</a>
</g>
</g>
<!-- Node1&#45;&gt;Node2 -->
<g id="edge1_Node000001_Node000002" class="edge">
<title>Node1&#45;&gt;Node2</title>
<g id="a_edge1_Node000001_Node000002"><a xlink:title=" ">
<path fill="none" stroke="#63b8ff" d="M233.04,-104.05C215.27,-114.46 190.89,-127.84 168.25,-137.25 160.18,-140.6 151.5,-143.72 142.9,-146.54"/>
<polygon fill="#63b8ff" stroke="#63b8ff" points="234.56,-107.22 241.37,-99.1 230.98,-101.2 234.56,-107.22"/>
</a>
</g>
</g>
<!-- Node3 -->
<g id="Node000003" class="node">
<title>Node3</title>
<g id="a_Node000003"><a xlink:href="class_device_drive.html#acf16059d25ce7a1e87048c7b73c414c8" target="_top" xlink:title=" ">
<polygon fill="white" stroke="#666666" points="152.5,-128.5 15.75,-128.5 15.75,-98 152.5,-98 152.5,-128.5"/>
<text text-anchor="start" x="23.75" y="-115" font-family="Helvetica,sans-Serif" font-size="10.00">DeviceDrive\getHTMLTable</text>
<text text-anchor="middle" x="84.12" y="-103.75" font-family="Helvetica,sans-Serif" font-size="10.00">Header</text>
</a>
</g>
</g>
<!-- Node1&#45;&gt;Node3 -->
<g id="edge2_Node000001_Node000003" class="edge">
<title>Node1&#45;&gt;Node3</title>
<g id="a_edge2_Node000001_Node000003"><a xlink:title=" ">
<path fill="none" stroke="#63b8ff" d="M192.65,-97.78C179.62,-99.65 165.94,-101.62 152.86,-103.5"/>
<polygon fill="#63b8ff" stroke="#63b8ff" points="193,-101.26 202.4,-96.38 192,-94.34 193,-101.26"/>
</a>
</g>
</g>
<!-- Node4 -->
<g id="Node000004" class="node">
<title>Node4</title>
<g id="a_Node000004"><a xlink:href="class_device_graphic_card.html#acf16059d25ce7a1e87048c7b73c414c8" target="_top" xlink:title=" ">
<polygon fill="white" stroke="#666666" points="168.25,-79.5 0,-79.5 0,-49 168.25,-49 168.25,-79.5"/>
<text text-anchor="start" x="8" y="-66" font-family="Helvetica,sans-Serif" font-size="10.00">DeviceGraphicCard\getHTMLTable</text>
<text text-anchor="middle" x="84.12" y="-54.75" font-family="Helvetica,sans-Serif" font-size="10.00">Header</text>
</a>
</g>
</g>
<!-- Node1&#45;&gt;Node4 -->
<g id="edge3_Node000001_Node000004" class="edge">
<title>Node1&#45;&gt;Node4</title>
<g id="a_edge3_Node000001_Node000004"><a xlink:title=" ">
<path fill="none" stroke="#63b8ff" d="M192.61,-79.1C184.76,-78.01 176.67,-76.9 168.63,-75.78"/>
<polygon fill="#63b8ff" stroke="#63b8ff" points="192.02,-82.55 202.4,-80.45 192.97,-75.61 192.02,-82.55"/>
</a>
</g>
</g>
<!-- Node5 -->
<g id="Node000005" class="node">
<title>Node5</title>
<g id="a_Node000005"><a xlink:href="class_device_hard_drive.html#acf16059d25ce7a1e87048c7b73c414c8" target="_top" xlink:title=" ">
<polygon fill="white" stroke="#666666" points="163,-30.5 5.25,-30.5 5.25,0 163,0 163,-30.5"/>
<text text-anchor="start" x="13.25" y="-17" font-family="Helvetica,sans-Serif" font-size="10.00">DeviceHardDrive\getHTMLTable</text>
<text text-anchor="middle" x="84.12" y="-5.75" font-family="Helvetica,sans-Serif" font-size="10.00">Header</text>
</a>
</g>
</g>
<!-- Node1&#45;&gt;Node5 -->
<g id="edge4_Node000001_Node000005" class="edge">
<title>Node1&#45;&gt;Node5</title>
<g id="a_edge4_Node000001_Node000005"><a xlink:title=" ">
<path fill="none" stroke="#63b8ff" d="M232.67,-72.62C214.92,-62.47 190.69,-49.46 168.25,-40.25 160.03,-36.87 151.18,-33.72 142.43,-30.88"/>
<polygon fill="#63b8ff" stroke="#63b8ff" points="230.6,-75.46 241,-77.45 234.11,-69.41 230.6,-75.46"/>
</a>
</g>
</g>
</g>
</svg>
</svg>

<style type='text/css'>
<![CDATA[
[data-mouse-over-selected='false'] { opacity: 0.7; }
[data-mouse-over-selected='true']  { opacity: 1.0; }
]]>
</style>
<script type="application/ecmascript"><![CDATA[
document.addEventListener('DOMContentLoaded', (event) => {
  highlightEdges();
  highlightAdjacentNodes();
});
]]></script>
</svg>
