<?xml version="1.0" encoding="UTF-8" standalone="no"?>
<!DOCTYPE svg PUBLIC "-//W3C//DTD SVG 1.1//EN"
 "http://www.w3.org/Graphics/SVG/1.1/DTD/svg11.dtd">
<!-- Generated by graphviz version 10.0.1 (20240210.2158)
 -->
<!-- Title: ShareDashboardDropdown Pages: 1 -->
<svg width="135pt" height="499pt"
 viewBox="0.00 0.00 135.00 499.25" xmlns="http://www.w3.org/2000/svg" xmlns:xlink="http://www.w3.org/1999/xlink">
<g id="graph0" class="graph" transform="scale(1 1) rotate(0) translate(4 495.25)">
<title>ShareDashboardDropdown</title>
<!-- Node1 -->
<g id="Node000001" class="node">
<title>Node1</title>
<g id="a_Node000001"><a xlink:title=" ">
<polygon fill="#999999" stroke="none" points="127,-49 0,-49 0,0 127,0 127,-49"/>
<text text-anchor="start" x="5" y="-35.5" font-family="Helvetica,sans-Serif" font-size="10.00">ShareDashboardDropdown</text>
<text text-anchor="start" x="62" y="-20.5" font-family="Helvetica,sans-Serif" font-size="10.00"> </text>
<text text-anchor="start" x="13.38" y="-5.5" font-family="Helvetica,sans-Serif" font-size="10.00">#</text>
<text text-anchor="start" x="32" y="-5.5" font-family="Helvetica,sans-Serif" font-size="10.00">static getTypes()</text>
<polygon fill="#666666" stroke="#666666" points="0,-32 0,-32 127,-32 127,-32 0,-32"/>
<polygon fill="#666666" stroke="#666666" points="0,-17 0,-17 127,-17 127,-17 0,-17"/>
<polygon fill="none" stroke="#666666" points="0,0 0,-49 127,-49 127,0 0,0"/>
</a>
</g>
</g>
<!-- Node2 -->
<g id="Node000002" class="node">
<title>Node2</title>
<g id="a_Node000002"><a xlink:href="class_abstract_rights_dropdown.html" target="_top" xlink:title=" ">
<polygon fill="white" stroke="none" points="123,-395 4,-395 4,-86 123,-86 123,-395"/>
<text text-anchor="start" x="8.75" y="-381.5" font-family="Helvetica,sans-Serif" font-size="10.00">AbstractRightsDropdown</text>
<text text-anchor="start" x="62" y="-366.5" font-family="Helvetica,sans-Serif" font-size="10.00"> </text>
<text text-anchor="start" x="8.5" y="-351.5" font-family="Helvetica,sans-Serif" font-size="10.00">+</text>
<text text-anchor="start" x="19" y="-351.5" font-family="Helvetica,sans-Serif" font-size="10.00">static show(string</text>
<text text-anchor="start" x="19" y="-340.25" font-family="Helvetica,sans-Serif" font-size="10.00"> $name, array $values)</text>
<text text-anchor="start" x="8.5" y="-325.5" font-family="Helvetica,sans-Serif" font-size="10.00">+</text>
<text text-anchor="start" x="19" y="-325.5" font-family="Helvetica,sans-Serif" font-size="10.00">static fetchValues</text>
<text text-anchor="start" x="19" y="-314.25" font-family="Helvetica,sans-Serif" font-size="10.00">(string $text=&quot;&quot;)</text>
<text text-anchor="start" x="8.5" y="-299.5" font-family="Helvetica,sans-Serif" font-size="10.00">+</text>
<text text-anchor="start" x="19" y="-299.5" font-family="Helvetica,sans-Serif" font-size="10.00">static getPostedIds</text>
<text text-anchor="start" x="19" y="-288.25" font-family="Helvetica,sans-Serif" font-size="10.00">(array $values, string</text>
<text text-anchor="start" x="19" y="-277" font-family="Helvetica,sans-Serif" font-size="10.00"> $class)</text>
<text text-anchor="start" x="8.88" y="-262.5" font-family="Helvetica,sans-Serif" font-size="10.00">#</text>
<text text-anchor="start" x="19" y="-262.5" font-family="Helvetica,sans-Serif" font-size="10.00">static getAjaxUrl()</text>
<text text-anchor="start" x="8.88" y="-247.5" font-family="Helvetica,sans-Serif" font-size="10.00">#</text>
<text text-anchor="start" x="19" y="-247.5" font-family="Helvetica,sans-Serif" font-size="10.00">static getTypes()</text>
<text text-anchor="start" x="8.88" y="-232.5" font-family="Helvetica,sans-Serif" font-size="10.00">#</text>
<text text-anchor="start" x="19" y="-232.5" font-family="Helvetica,sans-Serif" font-size="10.00">static isTypeEnabled</text>
<text text-anchor="start" x="19" y="-221.25" font-family="Helvetica,sans-Serif" font-size="10.00">(string $type)</text>
<text text-anchor="start" x="8.88" y="-206.5" font-family="Helvetica,sans-Serif" font-size="10.00">#</text>
<text text-anchor="start" x="19" y="-206.5" font-family="Helvetica,sans-Serif" font-size="10.00">static getValueNames</text>
<text text-anchor="start" x="19" y="-195.25" font-family="Helvetica,sans-Serif" font-size="10.00">(array $values)</text>
<text text-anchor="start" x="8.88" y="-180.5" font-family="Helvetica,sans-Serif" font-size="10.00">#</text>
<text text-anchor="start" x="19" y="-180.5" font-family="Helvetica,sans-Serif" font-size="10.00">static getProfiles</text>
<text text-anchor="start" x="19" y="-169.25" font-family="Helvetica,sans-Serif" font-size="10.00">(string $text)</text>
<text text-anchor="start" x="8.88" y="-154.5" font-family="Helvetica,sans-Serif" font-size="10.00">#</text>
<text text-anchor="start" x="19" y="-154.5" font-family="Helvetica,sans-Serif" font-size="10.00">static getEntities</text>
<text text-anchor="start" x="19" y="-143.25" font-family="Helvetica,sans-Serif" font-size="10.00">(string $text)</text>
<text text-anchor="start" x="8.88" y="-128.5" font-family="Helvetica,sans-Serif" font-size="10.00">#</text>
<text text-anchor="start" x="19" y="-128.5" font-family="Helvetica,sans-Serif" font-size="10.00">static getUsers(string</text>
<text text-anchor="start" x="19" y="-117.25" font-family="Helvetica,sans-Serif" font-size="10.00"> $text)</text>
<text text-anchor="start" x="8.88" y="-102.5" font-family="Helvetica,sans-Serif" font-size="10.00">#</text>
<text text-anchor="start" x="19" y="-102.5" font-family="Helvetica,sans-Serif" font-size="10.00">static getGroups(string</text>
<text text-anchor="start" x="19" y="-91.25" font-family="Helvetica,sans-Serif" font-size="10.00"> $text)</text>
<polygon fill="#666666" stroke="#666666" points="4,-378 4,-378 123,-378 123,-378 4,-378"/>
<polygon fill="#666666" stroke="#666666" points="4,-363 4,-363 123,-363 123,-363 4,-363"/>
<polygon fill="none" stroke="#666666" points="4,-86 4,-395 123,-395 123,-86 4,-86"/>
</a>
</g>
</g>
<!-- Node2&#45;&gt;Node1 -->
<g id="edge1_Node000001_Node000002" class="edge">
<title>Node2&#45;&gt;Node1</title>
<g id="a_edge1_Node000001_Node000002"><a xlink:title=" ">
<path fill="none" stroke="#63b8ff" d="M63.5,-74.83C63.5,-65.03 63.5,-56.15 63.5,-48.71"/>
<polygon fill="none" stroke="#63b8ff" points="60,-74.74 63.5,-84.74 67,-74.74 60,-74.74"/>
</a>
</g>
</g>
<!-- Node3 -->
<g id="Node000003" class="node">
<title>Node3</title>
<g id="a_Node000003"><a xlink:title=" ">
<polygon fill="white" stroke="none" points="80.5,-491.25 46.5,-491.25 46.5,-442.25 80.5,-442.25 80.5,-491.25"/>
<text text-anchor="start" x="51.5" y="-477.75" font-family="Helvetica,sans-Serif" font-size="10.00">const</text>
<text text-anchor="start" x="62" y="-462.75" font-family="Helvetica,sans-Serif" font-size="10.00"> </text>
<text text-anchor="start" x="62" y="-447.75" font-family="Helvetica,sans-Serif" font-size="10.00"> </text>
<polygon fill="#666666" stroke="#666666" points="46.5,-474.25 46.5,-474.25 80.5,-474.25 80.5,-474.25 46.5,-474.25"/>
<polygon fill="#666666" stroke="#666666" points="46.5,-459.25 46.5,-459.25 80.5,-459.25 80.5,-459.25 46.5,-459.25"/>
<polygon fill="none" stroke="#666666" points="46.5,-442.25 46.5,-491.25 80.5,-491.25 80.5,-442.25 46.5,-442.25"/>
</a>
</g>
</g>
<!-- Node3&#45;&gt;Node2 -->
<g id="edge2_Node000002_Node000003" class="edge">
<title>Node3&#45;&gt;Node2</title>
<g id="a_edge2_Node000002_Node000003"><a xlink:title=" ">
<path fill="none" stroke="#63b8ff" d="M63.5,-442.6C63.5,-433.1 63.5,-421.22 63.5,-408.02"/>
<polygon fill="none" stroke="#63b8ff" points="63.5,-407.89 59.5,-401.89 63.5,-395.89 67.5,-401.89 63.5,-407.89"/>
</a>
</g>
<text text-anchor="middle" x="80.75" y="-414.75" font-family="Helvetica,sans-Serif" font-size="10.00" fill="grey"> +LIMIT</text>
</g>
</g>
</svg>
