<?xml version="1.0" encoding="UTF-8" standalone="no"?>
<!DOCTYPE svg PUBLIC "-//W3C//DTD SVG 1.1//EN"
 "http://www.w3.org/Graphics/SVG/1.1/DTD/svg11.dtd">
<!-- Generated by graphviz version 10.0.1 (20240210.2158)
 -->
<!-- Title: RuleTicket Pages: 1 -->
<svg width="425pt" height="2736pt"
 viewBox="0.00 0.00 425.07 2736.25" xmlns="http://www.w3.org/2000/svg" xmlns:xlink="http://www.w3.org/1999/xlink">
<g id="graph0" class="graph" transform="scale(1 1) rotate(0) translate(4 2732.25)">
<title>RuleTicket</title>
<!-- Node1 -->
<g id="Node000001" class="node">
<title>Node1</title>
<g id="a_Node000001"><a xlink:title=" ">
<polygon fill="#999999" stroke="none" points="343.07,-299 191.07,-299 191.07,0 343.07,0 343.07,-299"/>
<text text-anchor="start" x="243.44" y="-285.5" font-family="Helvetica,sans-Serif" font-size="10.00">RuleTicket</text>
<text text-anchor="start" x="195.07" y="-270.5" font-family="Helvetica,sans-Serif" font-size="10.00">+</text>
<text text-anchor="start" x="205.07" y="-270.5" font-family="Helvetica,sans-Serif" font-size="10.00">$can_sort</text>
<text text-anchor="start" x="195.07" y="-255.5" font-family="Helvetica,sans-Serif" font-size="10.00">+</text>
<text text-anchor="start" x="205.07" y="-255.5" font-family="Helvetica,sans-Serif" font-size="10.00">getTitle()</text>
<text text-anchor="start" x="195.07" y="-240.5" font-family="Helvetica,sans-Serif" font-size="10.00">+</text>
<text text-anchor="start" x="205.07" y="-240.5" font-family="Helvetica,sans-Serif" font-size="10.00">maybeRecursive()</text>
<text text-anchor="start" x="195.07" y="-225.5" font-family="Helvetica,sans-Serif" font-size="10.00">+</text>
<text text-anchor="start" x="205.07" y="-225.5" font-family="Helvetica,sans-Serif" font-size="10.00">isEntityAssign()</text>
<text text-anchor="start" x="195.07" y="-210.5" font-family="Helvetica,sans-Serif" font-size="10.00">+</text>
<text text-anchor="start" x="205.07" y="-210.5" font-family="Helvetica,sans-Serif" font-size="10.00">canUnrecurs()</text>
<text text-anchor="start" x="195.07" y="-195.5" font-family="Helvetica,sans-Serif" font-size="10.00">+</text>
<text text-anchor="start" x="205.07" y="-195.5" font-family="Helvetica,sans-Serif" font-size="10.00">getTitleAction()</text>
<text text-anchor="start" x="195.07" y="-180.5" font-family="Helvetica,sans-Serif" font-size="10.00">+</text>
<text text-anchor="start" x="205.07" y="-180.5" font-family="Helvetica,sans-Serif" font-size="10.00">addSpecificParamsForPreview</text>
<text text-anchor="start" x="205.07" y="-169.25" font-family="Helvetica,sans-Serif" font-size="10.00">($params)</text>
<text text-anchor="start" x="195.07" y="-154.5" font-family="Helvetica,sans-Serif" font-size="10.00">+</text>
<text text-anchor="start" x="205.07" y="-154.5" font-family="Helvetica,sans-Serif" font-size="10.00">showSpecificCriteriasFor</text>
<text text-anchor="start" x="205.07" y="-143.25" font-family="Helvetica,sans-Serif" font-size="10.00">Preview($fields)</text>
<text text-anchor="start" x="195.07" y="-128.5" font-family="Helvetica,sans-Serif" font-size="10.00">+</text>
<text text-anchor="start" x="205.07" y="-128.5" font-family="Helvetica,sans-Serif" font-size="10.00">executeActions($output,</text>
<text text-anchor="start" x="205.07" y="-117.25" font-family="Helvetica,sans-Serif" font-size="10.00"> $params, array $input=[])</text>
<text text-anchor="start" x="195.07" y="-102.5" font-family="Helvetica,sans-Serif" font-size="10.00">+</text>
<text text-anchor="start" x="205.07" y="-102.5" font-family="Helvetica,sans-Serif" font-size="10.00">preProcessPreviewResults</text>
<text text-anchor="start" x="205.07" y="-91.25" font-family="Helvetica,sans-Serif" font-size="10.00">($output)</text>
<text text-anchor="start" x="195.07" y="-76.5" font-family="Helvetica,sans-Serif" font-size="10.00">+</text>
<text text-anchor="start" x="205.07" y="-76.5" font-family="Helvetica,sans-Serif" font-size="10.00">getCriterias()</text>
<text text-anchor="start" x="195.07" y="-61.5" font-family="Helvetica,sans-Serif" font-size="10.00">+</text>
<text text-anchor="start" x="205.07" y="-61.5" font-family="Helvetica,sans-Serif" font-size="10.00">getActions()</text>
<text text-anchor="start" x="195.07" y="-46.5" font-family="Helvetica,sans-Serif" font-size="10.00">+</text>
<text text-anchor="start" x="205.07" y="-46.5" font-family="Helvetica,sans-Serif" font-size="10.00">getRights($interface</text>
<text text-anchor="start" x="205.07" y="-35.25" font-family="Helvetica,sans-Serif" font-size="10.00">=&#39;central&#39;)</text>
<text text-anchor="start" x="195.07" y="-20.5" font-family="Helvetica,sans-Serif" font-size="10.00">+</text>
<text text-anchor="start" x="205.07" y="-20.5" font-family="Helvetica,sans-Serif" font-size="10.00">static getConditionsArray()</text>
<text text-anchor="start" x="195.07" y="-5.5" font-family="Helvetica,sans-Serif" font-size="10.00">+</text>
<text text-anchor="start" x="205.07" y="-5.5" font-family="Helvetica,sans-Serif" font-size="10.00">static getIcon()</text>
<polygon fill="#666666" stroke="#666666" points="191.07,-282 191.07,-282 343.07,-282 343.07,-282 191.07,-282"/>
<polygon fill="#666666" stroke="#666666" points="191.07,-267 191.07,-267 203.07,-267 203.07,-267 191.07,-267"/>
<polygon fill="#666666" stroke="#666666" points="203.07,-267 203.07,-267 343.07,-267 343.07,-267 203.07,-267"/>
<polygon fill="none" stroke="#666666" points="191.07,0 191.07,-299 343.07,-299 343.07,0 191.07,0"/>
</a>
</g>
</g>
<!-- Node2 -->
<g id="Node000002" class="node">
<title>Node2</title>
<g id="a_Node000002"><a xlink:href="class_rule.html" target="_top" xlink:title=" ">
<polygon fill="white" stroke="none" points="217.07,-1038 25.07,-1038 25.07,-336 217.07,-336 217.07,-1038"/>
<text text-anchor="start" x="110.94" y="-1024.5" font-family="Helvetica,sans-Serif" font-size="10.00">Rule</text>
<text text-anchor="start" x="29.07" y="-1009.5" font-family="Helvetica,sans-Serif" font-size="10.00">+</text>
<text text-anchor="start" x="39.07" y="-1009.5" font-family="Helvetica,sans-Serif" font-size="10.00">$dohistory</text>
<text text-anchor="start" x="29.07" y="-994.5" font-family="Helvetica,sans-Serif" font-size="10.00">+</text>
<text text-anchor="start" x="39.07" y="-994.5" font-family="Helvetica,sans-Serif" font-size="10.00">$actions</text>
<text text-anchor="start" x="29.07" y="-979.5" font-family="Helvetica,sans-Serif" font-size="10.00">+</text>
<text text-anchor="start" x="39.07" y="-979.5" font-family="Helvetica,sans-Serif" font-size="10.00">$criterias</text>
<text text-anchor="start" x="29.07" y="-964.5" font-family="Helvetica,sans-Serif" font-size="10.00">+</text>
<text text-anchor="start" x="39.07" y="-964.5" font-family="Helvetica,sans-Serif" font-size="10.00">$can_sort</text>
<text text-anchor="start" x="29.07" y="-949.5" font-family="Helvetica,sans-Serif" font-size="10.00">+</text>
<text text-anchor="start" x="39.07" y="-949.5" font-family="Helvetica,sans-Serif" font-size="10.00">$orderby</text>
<text text-anchor="start" x="29.07" y="-934.5" font-family="Helvetica,sans-Serif" font-size="10.00">+</text>
<text text-anchor="start" x="39.07" y="-934.5" font-family="Helvetica,sans-Serif" font-size="10.00">$restrict_matching</text>
<text text-anchor="start" x="29.07" y="-919.5" font-family="Helvetica,sans-Serif" font-size="10.00">+</text>
<text text-anchor="start" x="39.07" y="-919.5" font-family="Helvetica,sans-Serif" font-size="10.00">$specific_parameters</text>
<text text-anchor="start" x="29.07" y="-904.5" font-family="Helvetica,sans-Serif" font-size="10.00">+</text>
<text text-anchor="start" x="39.07" y="-904.5" font-family="Helvetica,sans-Serif" font-size="10.00">$regex_results</text>
<text text-anchor="start" x="29.07" y="-889.5" font-family="Helvetica,sans-Serif" font-size="10.00">+</text>
<text text-anchor="start" x="39.07" y="-889.5" font-family="Helvetica,sans-Serif" font-size="10.00">$criterias_results</text>
<text text-anchor="start" x="29.07" y="-874.5" font-family="Helvetica,sans-Serif" font-size="10.00">+</text>
<text text-anchor="start" x="39.07" y="-874.5" font-family="Helvetica,sans-Serif" font-size="10.00">const RULE_NOT_IN_CACHE</text>
<text text-anchor="start" x="39.07" y="-859.5" font-family="Helvetica,sans-Serif" font-size="10.00">et 9 de plus...</text>
<text text-anchor="start" x="29.44" y="-844.5" font-family="Helvetica,sans-Serif" font-size="10.00">#</text>
<text text-anchor="start" x="39.07" y="-844.5" font-family="Helvetica,sans-Serif" font-size="10.00">$rules_id_field</text>
<text text-anchor="start" x="29.44" y="-829.5" font-family="Helvetica,sans-Serif" font-size="10.00">#</text>
<text text-anchor="start" x="39.07" y="-829.5" font-family="Helvetica,sans-Serif" font-size="10.00">$ruleactionclass</text>
<text text-anchor="start" x="29.44" y="-814.5" font-family="Helvetica,sans-Serif" font-size="10.00">#</text>
<text text-anchor="start" x="39.07" y="-814.5" font-family="Helvetica,sans-Serif" font-size="10.00">$rulecriteriaclass</text>
<text text-anchor="start" x="29.07" y="-799.5" font-family="Helvetica,sans-Serif" font-size="10.00">+</text>
<text text-anchor="start" x="39.07" y="-799.5" font-family="Helvetica,sans-Serif" font-size="10.00">getCloneRelations()</text>
<text text-anchor="start" x="29.07" y="-784.5" font-family="Helvetica,sans-Serif" font-size="10.00">+</text>
<text text-anchor="start" x="39.07" y="-784.5" font-family="Helvetica,sans-Serif" font-size="10.00">useConditions()</text>
<text text-anchor="start" x="29.07" y="-769.5" font-family="Helvetica,sans-Serif" font-size="10.00">+</text>
<text text-anchor="start" x="39.07" y="-769.5" font-family="Helvetica,sans-Serif" font-size="10.00">getRuleActionClass()</text>
<text text-anchor="start" x="29.07" y="-754.5" font-family="Helvetica,sans-Serif" font-size="10.00">+</text>
<text text-anchor="start" x="39.07" y="-754.5" font-family="Helvetica,sans-Serif" font-size="10.00">getRuleCriteriaClass()</text>
<text text-anchor="start" x="29.07" y="-739.5" font-family="Helvetica,sans-Serif" font-size="10.00">+</text>
<text text-anchor="start" x="39.07" y="-739.5" font-family="Helvetica,sans-Serif" font-size="10.00">getRuleIdField()</text>
<text text-anchor="start" x="29.07" y="-724.5" font-family="Helvetica,sans-Serif" font-size="10.00">+</text>
<text text-anchor="start" x="39.07" y="-724.5" font-family="Helvetica,sans-Serif" font-size="10.00">isEntityAssign()</text>
<text text-anchor="start" x="29.07" y="-709.5" font-family="Helvetica,sans-Serif" font-size="10.00">+</text>
<text text-anchor="start" x="39.07" y="-709.5" font-family="Helvetica,sans-Serif" font-size="10.00">post_getEmpty()</text>
<text text-anchor="start" x="29.07" y="-694.5" font-family="Helvetica,sans-Serif" font-size="10.00">+</text>
<text text-anchor="start" x="39.07" y="-694.5" font-family="Helvetica,sans-Serif" font-size="10.00">getTitle()</text>
<text text-anchor="start" x="29.07" y="-679.5" font-family="Helvetica,sans-Serif" font-size="10.00">+</text>
<text text-anchor="start" x="39.07" y="-679.5" font-family="Helvetica,sans-Serif" font-size="10.00">getCollectionClassName()</text>
<text text-anchor="start" x="29.07" y="-664.5" font-family="Helvetica,sans-Serif" font-size="10.00">+</text>
<text text-anchor="start" x="39.07" y="-664.5" font-family="Helvetica,sans-Serif" font-size="10.00">getSpecificMassiveActions</text>
<text text-anchor="start" x="39.07" y="-653.25" font-family="Helvetica,sans-Serif" font-size="10.00">($checkitem=null)</text>
<text text-anchor="start" x="39.07" y="-638.5" font-family="Helvetica,sans-Serif" font-size="10.00">et 47 de plus...</text>
<text text-anchor="start" x="29.07" y="-623.5" font-family="Helvetica,sans-Serif" font-size="10.00">+</text>
<text text-anchor="start" x="39.07" y="-623.5" font-family="Helvetica,sans-Serif" font-size="10.00">static getTable($classname</text>
<text text-anchor="start" x="39.07" y="-612.25" font-family="Helvetica,sans-Serif" font-size="10.00">=null)</text>
<text text-anchor="start" x="29.07" y="-597.5" font-family="Helvetica,sans-Serif" font-size="10.00">+</text>
<text text-anchor="start" x="39.07" y="-597.5" font-family="Helvetica,sans-Serif" font-size="10.00">static getTypeName</text>
<text text-anchor="start" x="39.07" y="-586.25" font-family="Helvetica,sans-Serif" font-size="10.00">($nb=0)</text>
<text text-anchor="start" x="29.07" y="-571.5" font-family="Helvetica,sans-Serif" font-size="10.00">+</text>
<text text-anchor="start" x="39.07" y="-571.5" font-family="Helvetica,sans-Serif" font-size="10.00">static getRuleObjectByID</text>
<text text-anchor="start" x="39.07" y="-560.25" font-family="Helvetica,sans-Serif" font-size="10.00">($rules_id)</text>
<text text-anchor="start" x="29.07" y="-545.5" font-family="Helvetica,sans-Serif" font-size="10.00">+</text>
<text text-anchor="start" x="39.07" y="-545.5" font-family="Helvetica,sans-Serif" font-size="10.00">static getConditionsArray()</text>
<text text-anchor="start" x="29.07" y="-530.5" font-family="Helvetica,sans-Serif" font-size="10.00">+</text>
<text text-anchor="start" x="39.07" y="-530.5" font-family="Helvetica,sans-Serif" font-size="10.00">static dropdownConditions</text>
<text text-anchor="start" x="39.07" y="-519.25" font-family="Helvetica,sans-Serif" font-size="10.00">($options=[])</text>
<text text-anchor="start" x="29.07" y="-504.5" font-family="Helvetica,sans-Serif" font-size="10.00">+</text>
<text text-anchor="start" x="39.07" y="-504.5" font-family="Helvetica,sans-Serif" font-size="10.00">static getConditionName</text>
<text text-anchor="start" x="39.07" y="-493.25" font-family="Helvetica,sans-Serif" font-size="10.00">($value)</text>
<text text-anchor="start" x="29.07" y="-478.5" font-family="Helvetica,sans-Serif" font-size="10.00">+</text>
<text text-anchor="start" x="39.07" y="-478.5" font-family="Helvetica,sans-Serif" font-size="10.00">static showMassiveActions</text>
<text text-anchor="start" x="39.07" y="-467.25" font-family="Helvetica,sans-Serif" font-size="10.00">SubForm(MassiveAction $ma)</text>
<text text-anchor="start" x="29.07" y="-452.5" font-family="Helvetica,sans-Serif" font-size="10.00">+</text>
<text text-anchor="start" x="39.07" y="-452.5" font-family="Helvetica,sans-Serif" font-size="10.00">static processMassiveActions</text>
<text text-anchor="start" x="39.07" y="-441.25" font-family="Helvetica,sans-Serif" font-size="10.00">ForOneItemtype(MassiveAction</text>
<text text-anchor="start" x="39.07" y="-430" font-family="Helvetica,sans-Serif" font-size="10.00"> $ma, CommonDBTM $item, array $ids)</text>
<text text-anchor="start" x="29.07" y="-415.5" font-family="Helvetica,sans-Serif" font-size="10.00">+</text>
<text text-anchor="start" x="39.07" y="-415.5" font-family="Helvetica,sans-Serif" font-size="10.00">static getSpecificValueTo</text>
<text text-anchor="start" x="39.07" y="-404.25" font-family="Helvetica,sans-Serif" font-size="10.00">Display($field, $values,</text>
<text text-anchor="start" x="39.07" y="-393" font-family="Helvetica,sans-Serif" font-size="10.00"> array $options=[])</text>
<text text-anchor="start" x="29.07" y="-378.5" font-family="Helvetica,sans-Serif" font-size="10.00">+</text>
<text text-anchor="start" x="39.07" y="-378.5" font-family="Helvetica,sans-Serif" font-size="10.00">static getSpecificValueTo</text>
<text text-anchor="start" x="39.07" y="-367.25" font-family="Helvetica,sans-Serif" font-size="10.00">Select($field, $name=&#39;&#39;,</text>
<text text-anchor="start" x="39.07" y="-356" font-family="Helvetica,sans-Serif" font-size="10.00"> $values=&#39;&#39;, array $options=[])</text>
<text text-anchor="start" x="39.07" y="-341.5" font-family="Helvetica,sans-Serif" font-size="10.00">et 11 de plus...</text>
<polygon fill="#666666" stroke="#666666" points="25.07,-1021 25.07,-1021 217.07,-1021 217.07,-1021 25.07,-1021"/>
<polygon fill="#666666" stroke="#666666" points="25.07,-811 25.07,-811 37.07,-811 37.07,-811 25.07,-811"/>
<polygon fill="#666666" stroke="#666666" points="37.07,-811 37.07,-811 217.07,-811 217.07,-811 37.07,-811"/>
<polygon fill="none" stroke="#666666" points="25.07,-336 25.07,-1038 217.07,-1038 217.07,-336 25.07,-336"/>
</a>
</g>
</g>
<!-- Node2&#45;&gt;Node1 -->
<g id="edge1_Node000001_Node000002" class="edge">
<title>Node2&#45;&gt;Node1</title>
<g id="a_edge1_Node000001_Node000002"><a xlink:title=" ">
<path fill="none" stroke="#63b8ff" d="M219.42,-325.26C221.87,-316.28 224.27,-307.46 226.62,-298.85"/>
<polygon fill="none" stroke="#63b8ff" points="216.06,-324.26 216.81,-334.83 222.82,-326.1 216.06,-324.26"/>
</a>
</g>
</g>
<!-- Node3 -->
<g id="Node000003" class="node">
<title>Node3</title>
<g id="a_Node000003"><a xlink:href="class_common_d_b_t_m.html" target="_top" xlink:title=" ">
<polygon fill="white" stroke="none" points="183.57,-2013 30.57,-2013 30.57,-1209 183.57,-1209 183.57,-2013"/>
<text text-anchor="start" x="72.94" y="-1999.5" font-family="Helvetica,sans-Serif" font-size="10.00">CommonDBTM</text>
<text text-anchor="start" x="34.57" y="-1984.5" font-family="Helvetica,sans-Serif" font-size="10.00">+</text>
<text text-anchor="start" x="44.57" y="-1984.5" font-family="Helvetica,sans-Serif" font-size="10.00">$fields</text>
<text text-anchor="start" x="34.57" y="-1969.5" font-family="Helvetica,sans-Serif" font-size="10.00">+</text>
<text text-anchor="start" x="44.57" y="-1969.5" font-family="Helvetica,sans-Serif" font-size="10.00">$input</text>
<text text-anchor="start" x="34.57" y="-1954.5" font-family="Helvetica,sans-Serif" font-size="10.00">+</text>
<text text-anchor="start" x="44.57" y="-1954.5" font-family="Helvetica,sans-Serif" font-size="10.00">$updates</text>
<text text-anchor="start" x="34.57" y="-1939.5" font-family="Helvetica,sans-Serif" font-size="10.00">+</text>
<text text-anchor="start" x="44.57" y="-1939.5" font-family="Helvetica,sans-Serif" font-size="10.00">$oldvalues</text>
<text text-anchor="start" x="34.57" y="-1924.5" font-family="Helvetica,sans-Serif" font-size="10.00">+</text>
<text text-anchor="start" x="44.57" y="-1924.5" font-family="Helvetica,sans-Serif" font-size="10.00">$dohistory</text>
<text text-anchor="start" x="34.57" y="-1909.5" font-family="Helvetica,sans-Serif" font-size="10.00">+</text>
<text text-anchor="start" x="44.57" y="-1909.5" font-family="Helvetica,sans-Serif" font-size="10.00">$history_blacklist</text>
<text text-anchor="start" x="34.57" y="-1894.5" font-family="Helvetica,sans-Serif" font-size="10.00">+</text>
<text text-anchor="start" x="44.57" y="-1894.5" font-family="Helvetica,sans-Serif" font-size="10.00">$auto_message_on_action</text>
<text text-anchor="start" x="34.57" y="-1879.5" font-family="Helvetica,sans-Serif" font-size="10.00">+</text>
<text text-anchor="start" x="44.57" y="-1879.5" font-family="Helvetica,sans-Serif" font-size="10.00">$no_form_page</text>
<text text-anchor="start" x="34.57" y="-1864.5" font-family="Helvetica,sans-Serif" font-size="10.00">+</text>
<text text-anchor="start" x="44.57" y="-1864.5" font-family="Helvetica,sans-Serif" font-size="10.00">$additional_fields</text>
<text text-anchor="start" x="44.57" y="-1853.25" font-family="Helvetica,sans-Serif" font-size="10.00">_for_dictionnary</text>
<text text-anchor="start" x="34.57" y="-1838.5" font-family="Helvetica,sans-Serif" font-size="10.00">+</text>
<text text-anchor="start" x="44.57" y="-1838.5" font-family="Helvetica,sans-Serif" font-size="10.00">$taborientation</text>
<text text-anchor="start" x="34.57" y="-1823.5" font-family="Helvetica,sans-Serif" font-size="10.00">+</text>
<text text-anchor="start" x="44.57" y="-1823.5" font-family="Helvetica,sans-Serif" font-size="10.00">$get_item_to_display_tab</text>
<text text-anchor="start" x="34.57" y="-1808.5" font-family="Helvetica,sans-Serif" font-size="10.00">+</text>
<text text-anchor="start" x="44.57" y="-1808.5" font-family="Helvetica,sans-Serif" font-size="10.00">$deduplicate_queued</text>
<text text-anchor="start" x="44.57" y="-1797.25" font-family="Helvetica,sans-Serif" font-size="10.00">_notifications</text>
<text text-anchor="start" x="34.57" y="-1782.5" font-family="Helvetica,sans-Serif" font-size="10.00">+</text>
<text text-anchor="start" x="44.57" y="-1782.5" font-family="Helvetica,sans-Serif" font-size="10.00">$right</text>
<text text-anchor="start" x="34.94" y="-1767.5" font-family="Helvetica,sans-Serif" font-size="10.00">#</text>
<text text-anchor="start" x="44.57" y="-1767.5" font-family="Helvetica,sans-Serif" font-size="10.00">$fkfield</text>
<text text-anchor="start" x="34.94" y="-1752.5" font-family="Helvetica,sans-Serif" font-size="10.00">#</text>
<text text-anchor="start" x="44.57" y="-1752.5" font-family="Helvetica,sans-Serif" font-size="10.00">$searchopt</text>
<text text-anchor="start" x="34.94" y="-1737.5" font-family="Helvetica,sans-Serif" font-size="10.00">#</text>
<text text-anchor="start" x="44.57" y="-1737.5" font-family="Helvetica,sans-Serif" font-size="10.00">$usenotepad</text>
<text text-anchor="start" x="34.57" y="-1722.5" font-family="Helvetica,sans-Serif" font-size="10.00">+</text>
<text text-anchor="start" x="44.57" y="-1722.5" font-family="Helvetica,sans-Serif" font-size="10.00">getFromResultSet($rs)</text>
<text text-anchor="start" x="34.57" y="-1707.5" font-family="Helvetica,sans-Serif" font-size="10.00">+</text>
<text text-anchor="start" x="44.57" y="-1707.5" font-family="Helvetica,sans-Serif" font-size="10.00">getID()</text>
<text text-anchor="start" x="34.57" y="-1692.5" font-family="Helvetica,sans-Serif" font-size="10.00">+</text>
<text text-anchor="start" x="44.57" y="-1692.5" font-family="Helvetica,sans-Serif" font-size="10.00">post_getFromDB()</text>
<text text-anchor="start" x="34.57" y="-1677.5" font-family="Helvetica,sans-Serif" font-size="10.00">+</text>
<text text-anchor="start" x="44.57" y="-1677.5" font-family="Helvetica,sans-Serif" font-size="10.00">showForm($ID, array</text>
<text text-anchor="start" x="44.57" y="-1666.25" font-family="Helvetica,sans-Serif" font-size="10.00"> $options=[])</text>
<text text-anchor="start" x="34.57" y="-1651.5" font-family="Helvetica,sans-Serif" font-size="10.00">+</text>
<text text-anchor="start" x="44.57" y="-1651.5" font-family="Helvetica,sans-Serif" font-size="10.00">getSNMPCredential()</text>
<text text-anchor="start" x="34.57" y="-1636.5" font-family="Helvetica,sans-Serif" font-size="10.00">+</text>
<text text-anchor="start" x="44.57" y="-1636.5" font-family="Helvetica,sans-Serif" font-size="10.00">getLockedFields()</text>
<text text-anchor="start" x="34.57" y="-1621.5" font-family="Helvetica,sans-Serif" font-size="10.00">+</text>
<text text-anchor="start" x="44.57" y="-1621.5" font-family="Helvetica,sans-Serif" font-size="10.00">post_getEmpty()</text>
<text text-anchor="start" x="34.57" y="-1606.5" font-family="Helvetica,sans-Serif" font-size="10.00">+</text>
<text text-anchor="start" x="44.57" y="-1606.5" font-family="Helvetica,sans-Serif" font-size="10.00">getLogTypeID()</text>
<text text-anchor="start" x="34.57" y="-1591.5" font-family="Helvetica,sans-Serif" font-size="10.00">+</text>
<text text-anchor="start" x="44.57" y="-1591.5" font-family="Helvetica,sans-Serif" font-size="10.00">post_deleteFromDB()</text>
<text text-anchor="start" x="34.57" y="-1576.5" font-family="Helvetica,sans-Serif" font-size="10.00">+</text>
<text text-anchor="start" x="44.57" y="-1576.5" font-family="Helvetica,sans-Serif" font-size="10.00">cleanDBonPurge()</text>
<text text-anchor="start" x="44.57" y="-1561.5" font-family="Helvetica,sans-Serif" font-size="10.00">et 87 de plus...</text>
<text text-anchor="start" x="34.57" y="-1546.5" font-family="Helvetica,sans-Serif" font-size="10.00">+</text>
<text text-anchor="start" x="44.57" y="-1546.5" font-family="Helvetica,sans-Serif" font-size="10.00">static getTable($classname</text>
<text text-anchor="start" x="44.57" y="-1535.25" font-family="Helvetica,sans-Serif" font-size="10.00">=null)</text>
<text text-anchor="start" x="34.57" y="-1520.5" font-family="Helvetica,sans-Serif" font-size="10.00">+</text>
<text text-anchor="start" x="44.57" y="-1520.5" font-family="Helvetica,sans-Serif" font-size="10.00">static forceTable(</text>
<text text-anchor="start" x="44.57" y="-1509.25" font-family="Helvetica,sans-Serif" font-size="10.00">$table)</text>
<text text-anchor="start" x="34.57" y="-1494.5" font-family="Helvetica,sans-Serif" font-size="10.00">+</text>
<text text-anchor="start" x="44.57" y="-1494.5" font-family="Helvetica,sans-Serif" font-size="10.00">static getForeignKeyField()</text>
<text text-anchor="start" x="34.57" y="-1479.5" font-family="Helvetica,sans-Serif" font-size="10.00">+</text>
<text text-anchor="start" x="44.57" y="-1479.5" font-family="Helvetica,sans-Serif" font-size="10.00">static getTableField</text>
<text text-anchor="start" x="44.57" y="-1468.25" font-family="Helvetica,sans-Serif" font-size="10.00">($field, $classname=null)</text>
<text text-anchor="start" x="34.57" y="-1453.5" font-family="Helvetica,sans-Serif" font-size="10.00">+</text>
<text text-anchor="start" x="44.57" y="-1453.5" font-family="Helvetica,sans-Serif" font-size="10.00">static getFromIter</text>
<text text-anchor="start" x="44.57" y="-1442.25" font-family="Helvetica,sans-Serif" font-size="10.00">(DBmysqlIterator $iter)</text>
<text text-anchor="start" x="34.57" y="-1427.5" font-family="Helvetica,sans-Serif" font-size="10.00">+</text>
<text text-anchor="start" x="44.57" y="-1427.5" font-family="Helvetica,sans-Serif" font-size="10.00">static unsetUndisclosedFields</text>
<text text-anchor="start" x="44.57" y="-1416.25" font-family="Helvetica,sans-Serif" font-size="10.00">(&amp;$fields)</text>
<text text-anchor="start" x="34.57" y="-1401.5" font-family="Helvetica,sans-Serif" font-size="10.00">+</text>
<text text-anchor="start" x="44.57" y="-1401.5" font-family="Helvetica,sans-Serif" font-size="10.00">static getIndexName()</text>
<text text-anchor="start" x="34.57" y="-1386.5" font-family="Helvetica,sans-Serif" font-size="10.00">+</text>
<text text-anchor="start" x="44.57" y="-1386.5" font-family="Helvetica,sans-Serif" font-size="10.00">static isNewID($ID)</text>
<text text-anchor="start" x="34.57" y="-1371.5" font-family="Helvetica,sans-Serif" font-size="10.00">+</text>
<text text-anchor="start" x="44.57" y="-1371.5" font-family="Helvetica,sans-Serif" font-size="10.00">static getNameField()</text>
<text text-anchor="start" x="34.57" y="-1356.5" font-family="Helvetica,sans-Serif" font-size="10.00">+</text>
<text text-anchor="start" x="44.57" y="-1356.5" font-family="Helvetica,sans-Serif" font-size="10.00">static getCompleteNameField()</text>
<text text-anchor="start" x="44.57" y="-1341.5" font-family="Helvetica,sans-Serif" font-size="10.00">et 26 de plus...</text>
<text text-anchor="start" x="34.94" y="-1326.5" font-family="Helvetica,sans-Serif" font-size="10.00">#</text>
<text text-anchor="start" x="44.57" y="-1326.5" font-family="Helvetica,sans-Serif" font-size="10.00">saveInput()</text>
<text text-anchor="start" x="34.94" y="-1311.5" font-family="Helvetica,sans-Serif" font-size="10.00">#</text>
<text text-anchor="start" x="44.57" y="-1311.5" font-family="Helvetica,sans-Serif" font-size="10.00">clearSavedInput()</text>
<text text-anchor="start" x="34.94" y="-1296.5" font-family="Helvetica,sans-Serif" font-size="10.00">#</text>
<text text-anchor="start" x="44.57" y="-1296.5" font-family="Helvetica,sans-Serif" font-size="10.00">restoreInput(array</text>
<text text-anchor="start" x="44.57" y="-1285.25" font-family="Helvetica,sans-Serif" font-size="10.00"> $default=[])</text>
<text text-anchor="start" x="34.94" y="-1270.5" font-family="Helvetica,sans-Serif" font-size="10.00">#</text>
<text text-anchor="start" x="44.57" y="-1270.5" font-family="Helvetica,sans-Serif" font-size="10.00">restoreSavedValues</text>
<text text-anchor="start" x="44.57" y="-1259.25" font-family="Helvetica,sans-Serif" font-size="10.00">(array $saved=[])</text>
<text text-anchor="start" x="34.94" y="-1244.5" font-family="Helvetica,sans-Serif" font-size="10.00">#</text>
<text text-anchor="start" x="44.57" y="-1244.5" font-family="Helvetica,sans-Serif" font-size="10.00">cleanLockedsOnAdd()</text>
<text text-anchor="start" x="34.94" y="-1229.5" font-family="Helvetica,sans-Serif" font-size="10.00">#</text>
<text text-anchor="start" x="44.57" y="-1229.5" font-family="Helvetica,sans-Serif" font-size="10.00">cleanLockeds()</text>
<text text-anchor="start" x="34.94" y="-1214.5" font-family="Helvetica,sans-Serif" font-size="10.00">#</text>
<text text-anchor="start" x="44.57" y="-1214.5" font-family="Helvetica,sans-Serif" font-size="10.00">computeFriendlyName()</text>
<polygon fill="#666666" stroke="#666666" points="30.57,-1996 30.57,-1996 183.57,-1996 183.57,-1996 30.57,-1996"/>
<polygon fill="#666666" stroke="#666666" points="30.57,-1734 30.57,-1734 42.57,-1734 42.57,-1734 30.57,-1734"/>
<polygon fill="#666666" stroke="#666666" points="42.57,-1734 42.57,-1734 183.57,-1734 183.57,-1734 42.57,-1734"/>
<polygon fill="none" stroke="#666666" points="30.57,-1209 30.57,-2013 183.57,-2013 183.57,-1209 30.57,-1209"/>
</a>
</g>
</g>
<!-- Node3&#45;&gt;Node2 -->
<g id="edge2_Node000002_Node000003" class="edge">
<title>Node3&#45;&gt;Node2</title>
<g id="a_edge2_Node000002_Node000003"><a xlink:title=" ">
<path fill="none" stroke="#63b8ff" d="M113.32,-1197.9C114.14,-1144.47 114.96,-1090.15 115.75,-1037.86"/>
<polygon fill="none" stroke="#63b8ff" points="109.83,-1197.72 113.17,-1207.77 116.83,-1197.83 109.83,-1197.72"/>
</a>
</g>
</g>
<!-- Node4 -->
<g id="Node000004" class="node">
<title>Node4</title>
<g id="a_Node000004"><a xlink:href="class_common_g_l_p_i.html" target="_top" xlink:title=" ">
<polygon fill="white" stroke="none" points="331.57,-2598.25 180.57,-2598.25 180.57,-2060.25 331.57,-2060.25 331.57,-2598.25"/>
<text text-anchor="start" x="224.94" y="-2584.75" font-family="Helvetica,sans-Serif" font-size="10.00">CommonGLPI</text>
<text text-anchor="start" x="184.57" y="-2569.75" font-family="Helvetica,sans-Serif" font-size="10.00">+</text>
<text text-anchor="start" x="194.57" y="-2569.75" font-family="Helvetica,sans-Serif" font-size="10.00">$showdebug</text>
<text text-anchor="start" x="184.57" y="-2554.75" font-family="Helvetica,sans-Serif" font-size="10.00">+</text>
<text text-anchor="start" x="194.57" y="-2554.75" font-family="Helvetica,sans-Serif" font-size="10.00">$taborientation</text>
<text text-anchor="start" x="184.57" y="-2539.75" font-family="Helvetica,sans-Serif" font-size="10.00">+</text>
<text text-anchor="start" x="194.57" y="-2539.75" font-family="Helvetica,sans-Serif" font-size="10.00">$get_item_to_display_tab</text>
<text text-anchor="start" x="184.94" y="-2524.75" font-family="Helvetica,sans-Serif" font-size="10.00">#</text>
<text text-anchor="start" x="194.57" y="-2524.75" font-family="Helvetica,sans-Serif" font-size="10.00">$type</text>
<text text-anchor="start" x="184.94" y="-2509.75" font-family="Helvetica,sans-Serif" font-size="10.00">#</text>
<text text-anchor="start" x="194.57" y="-2509.75" font-family="Helvetica,sans-Serif" font-size="10.00">$displaylist</text>
<text text-anchor="start" x="184.57" y="-2494.75" font-family="Helvetica,sans-Serif" font-size="10.00">+</text>
<text text-anchor="start" x="194.57" y="-2494.75" font-family="Helvetica,sans-Serif" font-size="10.00">__construct()</text>
<text text-anchor="start" x="184.57" y="-2479.75" font-family="Helvetica,sans-Serif" font-size="10.00">+</text>
<text text-anchor="start" x="194.57" y="-2479.75" font-family="Helvetica,sans-Serif" font-size="10.00">can($ID, $right, array</text>
<text text-anchor="start" x="194.57" y="-2468.5" font-family="Helvetica,sans-Serif" font-size="10.00"> &amp;$input=null)</text>
<text text-anchor="start" x="184.57" y="-2453.75" font-family="Helvetica,sans-Serif" font-size="10.00">+</text>
<text text-anchor="start" x="194.57" y="-2453.75" font-family="Helvetica,sans-Serif" font-size="10.00">defineTabs($options=[])</text>
<text text-anchor="start" x="184.57" y="-2438.75" font-family="Helvetica,sans-Serif" font-size="10.00">+</text>
<text text-anchor="start" x="194.57" y="-2438.75" font-family="Helvetica,sans-Serif" font-size="10.00">addStandardTab($itemtype,</text>
<text text-anchor="start" x="194.57" y="-2427.5" font-family="Helvetica,sans-Serif" font-size="10.00"> array &amp;$ong, array $options)</text>
<text text-anchor="start" x="184.57" y="-2412.75" font-family="Helvetica,sans-Serif" font-size="10.00">+</text>
<text text-anchor="start" x="194.57" y="-2412.75" font-family="Helvetica,sans-Serif" font-size="10.00">addDefaultFormTab</text>
<text text-anchor="start" x="194.57" y="-2401.5" font-family="Helvetica,sans-Serif" font-size="10.00">(array &amp;$ong)</text>
<text text-anchor="start" x="184.57" y="-2386.75" font-family="Helvetica,sans-Serif" font-size="10.00">+</text>
<text text-anchor="start" x="194.57" y="-2386.75" font-family="Helvetica,sans-Serif" font-size="10.00">getTabNameForItem</text>
<text text-anchor="start" x="194.57" y="-2375.5" font-family="Helvetica,sans-Serif" font-size="10.00">(CommonGLPI $item, </text>
<text text-anchor="start" x="194.57" y="-2364.25" font-family="Helvetica,sans-Serif" font-size="10.00">$withtemplate=0)</text>
<text text-anchor="start" x="184.57" y="-2349.75" font-family="Helvetica,sans-Serif" font-size="10.00">+</text>
<text text-anchor="start" x="194.57" y="-2349.75" font-family="Helvetica,sans-Serif" font-size="10.00">isNewItem()</text>
<text text-anchor="start" x="184.57" y="-2334.75" font-family="Helvetica,sans-Serif" font-size="10.00">+</text>
<text text-anchor="start" x="194.57" y="-2334.75" font-family="Helvetica,sans-Serif" font-size="10.00">showTabsContent($options=[])</text>
<text text-anchor="start" x="184.57" y="-2319.75" font-family="Helvetica,sans-Serif" font-size="10.00">+</text>
<text text-anchor="start" x="194.57" y="-2319.75" font-family="Helvetica,sans-Serif" font-size="10.00">getHeaderName()</text>
<text text-anchor="start" x="184.57" y="-2304.75" font-family="Helvetica,sans-Serif" font-size="10.00">+</text>
<text text-anchor="start" x="194.57" y="-2304.75" font-family="Helvetica,sans-Serif" font-size="10.00">display($options=[])</text>
<text text-anchor="start" x="184.57" y="-2289.75" font-family="Helvetica,sans-Serif" font-size="10.00">+</text>
<text text-anchor="start" x="194.57" y="-2289.75" font-family="Helvetica,sans-Serif" font-size="10.00">getErrorMessage($error,</text>
<text text-anchor="start" x="194.57" y="-2278.5" font-family="Helvetica,sans-Serif" font-size="10.00"> $object=&#39;&#39;)</text>
<text text-anchor="start" x="184.57" y="-2263.75" font-family="Helvetica,sans-Serif" font-size="10.00">+</text>
<text text-anchor="start" x="194.57" y="-2263.75" font-family="Helvetica,sans-Serif" font-size="10.00">static getTypeName</text>
<text text-anchor="start" x="194.57" y="-2252.5" font-family="Helvetica,sans-Serif" font-size="10.00">($nb=0)</text>
<text text-anchor="start" x="184.57" y="-2237.75" font-family="Helvetica,sans-Serif" font-size="10.00">+</text>
<text text-anchor="start" x="194.57" y="-2237.75" font-family="Helvetica,sans-Serif" font-size="10.00">static getFieldLabel()</text>
<text text-anchor="start" x="184.57" y="-2222.75" font-family="Helvetica,sans-Serif" font-size="10.00">+</text>
<text text-anchor="start" x="194.57" y="-2222.75" font-family="Helvetica,sans-Serif" font-size="10.00">static getType()</text>
<text text-anchor="start" x="184.57" y="-2207.75" font-family="Helvetica,sans-Serif" font-size="10.00">+</text>
<text text-anchor="start" x="194.57" y="-2207.75" font-family="Helvetica,sans-Serif" font-size="10.00">static canCreate()</text>
<text text-anchor="start" x="184.57" y="-2192.75" font-family="Helvetica,sans-Serif" font-size="10.00">+</text>
<text text-anchor="start" x="194.57" y="-2192.75" font-family="Helvetica,sans-Serif" font-size="10.00">static canView()</text>
<text text-anchor="start" x="184.57" y="-2177.75" font-family="Helvetica,sans-Serif" font-size="10.00">+</text>
<text text-anchor="start" x="194.57" y="-2177.75" font-family="Helvetica,sans-Serif" font-size="10.00">static canUpdate()</text>
<text text-anchor="start" x="184.57" y="-2162.75" font-family="Helvetica,sans-Serif" font-size="10.00">+</text>
<text text-anchor="start" x="194.57" y="-2162.75" font-family="Helvetica,sans-Serif" font-size="10.00">static canDelete()</text>
<text text-anchor="start" x="184.57" y="-2147.75" font-family="Helvetica,sans-Serif" font-size="10.00">+</text>
<text text-anchor="start" x="194.57" y="-2147.75" font-family="Helvetica,sans-Serif" font-size="10.00">static canPurge()</text>
<text text-anchor="start" x="184.57" y="-2132.75" font-family="Helvetica,sans-Serif" font-size="10.00">+</text>
<text text-anchor="start" x="194.57" y="-2132.75" font-family="Helvetica,sans-Serif" font-size="10.00">static registerStandardTab</text>
<text text-anchor="start" x="194.57" y="-2121.5" font-family="Helvetica,sans-Serif" font-size="10.00">($typeform, $typetab)</text>
<text text-anchor="start" x="184.57" y="-2106.75" font-family="Helvetica,sans-Serif" font-size="10.00">+</text>
<text text-anchor="start" x="194.57" y="-2106.75" font-family="Helvetica,sans-Serif" font-size="10.00">static getOtherTabs</text>
<text text-anchor="start" x="194.57" y="-2095.5" font-family="Helvetica,sans-Serif" font-size="10.00">($typeform)</text>
<text text-anchor="start" x="194.57" y="-2080.75" font-family="Helvetica,sans-Serif" font-size="10.00">et 17 de plus...</text>
<text text-anchor="start" x="184.94" y="-2065.75" font-family="Helvetica,sans-Serif" font-size="10.00">#</text>
<text text-anchor="start" x="194.57" y="-2065.75" font-family="Helvetica,sans-Serif" font-size="10.00">getFormHeaderToolbar()</text>
<polygon fill="#666666" stroke="#666666" points="180.57,-2581.25 180.57,-2581.25 331.57,-2581.25 331.57,-2581.25 180.57,-2581.25"/>
<polygon fill="#666666" stroke="#666666" points="180.57,-2506.25 180.57,-2506.25 192.57,-2506.25 192.57,-2506.25 180.57,-2506.25"/>
<polygon fill="#666666" stroke="#666666" points="192.57,-2506.25 192.57,-2506.25 331.57,-2506.25 331.57,-2506.25 192.57,-2506.25"/>
<polygon fill="none" stroke="#666666" points="180.57,-2060.25 180.57,-2598.25 331.57,-2598.25 331.57,-2060.25 180.57,-2060.25"/>
</a>
</g>
</g>
<!-- Node4&#45;&gt;Node3 -->
<g id="edge3_Node000003_Node000004" class="edge">
<title>Node4&#45;&gt;Node3</title>
<g id="a_edge3_Node000003_Node000004"><a xlink:title=" ">
<path fill="none" stroke="#63b8ff" d="M197.99,-2049.09C193.24,-2026.23 188.39,-2002.91 183.53,-1979.55"/>
<polygon fill="none" stroke="#63b8ff" points="194.55,-2049.71 200.01,-2058.79 201.4,-2048.29 194.55,-2049.71"/>
</a>
</g>
</g>
<!-- Node5 -->
<g id="Node000005" class="node">
<title>Node5</title>
<g id="a_Node000005"><a xlink:href="interface_common_g_l_p_i_interface.html" target="_top" xlink:title=" ">
<polygon fill="white" stroke="none" points="311.07,-2728.25 201.07,-2728.25 201.07,-2679.25 311.07,-2679.25 311.07,-2728.25"/>
<text text-anchor="start" x="205.82" y="-2714.75" font-family="Helvetica,sans-Serif" font-size="10.00">CommonGLPIInterface</text>
<text text-anchor="start" x="254.57" y="-2699.75" font-family="Helvetica,sans-Serif" font-size="10.00"> </text>
<text text-anchor="start" x="213.57" y="-2684.75" font-family="Helvetica,sans-Serif" font-size="10.00">+</text>
<text text-anchor="start" x="232.07" y="-2684.75" font-family="Helvetica,sans-Serif" font-size="10.00">__construct()</text>
<polygon fill="#666666" stroke="#666666" points="201.07,-2711.25 201.07,-2711.25 311.07,-2711.25 311.07,-2711.25 201.07,-2711.25"/>
<polygon fill="#666666" stroke="#666666" points="201.07,-2696.25 201.07,-2696.25 311.07,-2696.25 311.07,-2696.25 201.07,-2696.25"/>
<polygon fill="none" stroke="#666666" points="201.07,-2679.25 201.07,-2728.25 311.07,-2728.25 311.07,-2679.25 201.07,-2679.25"/>
</a>
</g>
</g>
<!-- Node5&#45;&gt;Node4 -->
<g id="edge4_Node000004_Node000005" class="edge">
<title>Node5&#45;&gt;Node4</title>
<g id="a_edge4_Node000004_Node000005"><a xlink:title=" ">
<path fill="none" stroke="#63b8ff" d="M256.07,-2668.03C256.07,-2649.7 256.07,-2625.36 256.07,-2598.12"/>
<polygon fill="none" stroke="#63b8ff" points="252.57,-2667.93 256.07,-2677.93 259.57,-2667.93 252.57,-2667.93"/>
</a>
</g>
</g>
<!-- Node6 -->
<g id="Node000006" class="node">
<title>Node6</title>
<g id="a_Node000006"><a xlink:title=" ">
<polygon fill="white" stroke="none" points="104.07,-2728.25 70.07,-2728.25 70.07,-2679.25 104.07,-2679.25 104.07,-2728.25"/>
<text text-anchor="start" x="75.07" y="-2714.75" font-family="Helvetica,sans-Serif" font-size="10.00">static</text>
<text text-anchor="start" x="85.57" y="-2699.75" font-family="Helvetica,sans-Serif" font-size="10.00"> </text>
<text text-anchor="start" x="85.57" y="-2684.75" font-family="Helvetica,sans-Serif" font-size="10.00"> </text>
<polygon fill="#666666" stroke="#666666" points="70.07,-2711.25 70.07,-2711.25 104.07,-2711.25 104.07,-2711.25 70.07,-2711.25"/>
<polygon fill="#666666" stroke="#666666" points="70.07,-2696.25 70.07,-2696.25 104.07,-2696.25 104.07,-2696.25 70.07,-2696.25"/>
<polygon fill="none" stroke="#666666" points="70.07,-2679.25 70.07,-2728.25 104.07,-2728.25 104.07,-2679.25 70.07,-2679.25"/>
</a>
</g>
</g>
<!-- Node6&#45;&gt;Node1 -->
<g id="edge9_Node000001_Node000006" class="edge">
<title>Node6&#45;&gt;Node1</title>
<g id="a_edge9_Node000001_Node000006"><a xlink:title=" ">
<path fill="none" stroke="#63b8ff" d="M104.01,-2698.99C144.05,-2690.05 242.19,-2667.77 256.07,-2661.25 298.62,-2641.25 318.45,-2639.47 341.07,-2598.25 398.51,-2493.57 360.07,-2449.66 360.07,-2330.25 360.07,-2330.25 360.07,-2330.25 360.07,-686 360.07,-529.95 364.36,-488.68 332.07,-336 330.35,-327.91 328.38,-319.68 326.22,-311.43"/>
<polygon fill="none" stroke="#63b8ff" points="326.19,-311.33 320.75,-306.6 323.03,-299.76 328.47,-304.49 326.19,-311.33"/>
</a>
</g>
<text text-anchor="middle" x="388.57" y="-1607.12" font-family="Helvetica,sans-Serif" font-size="10.00" fill="grey"> +$rightname</text>
</g>
<!-- Node6&#45;&gt;Node2 -->
<g id="edge7_Node000002_Node000006" class="edge">
<title>Node6&#45;&gt;Node2</title>
<g id="a_edge7_Node000002_Node000006"><a xlink:title=" ">
<path fill="none" stroke="#63b8ff" d="M80.29,-2679.62C78.72,-2673.67 77.19,-2667.26 76.07,-2661.25 70.89,-2633.56 71.88,-2626.28 69.07,-2598.25 44.25,-2351.39 30.19,-2290.11 19.07,-2042.25 2.46,-1672.29 -14.44,-1577.63 21.07,-1209 26.03,-1157.44 33.64,-1103.39 42.5,-1050.43"/>
<polygon fill="none" stroke="#63b8ff" points="42.5,-1050.43 39.55,-1043.85 44.5,-1038.6 47.44,-1045.19 42.5,-1050.43"/>
</a>
</g>
<text text-anchor="middle" x="47.57" y="-2032.75" font-family="Helvetica,sans-Serif" font-size="10.00" fill="grey"> +$rightname</text>
</g>
<!-- Node6&#45;&gt;Node3 -->
<g id="edge6_Node000003_Node000006" class="edge">
<title>Node6&#45;&gt;Node3</title>
<g id="a_edge6_Node000003_Node000006"><a xlink:title=" ">
<path fill="none" stroke="#63b8ff" d="M84.71,-2679.54C82.68,-2658.38 79.92,-2626.25 78.82,-2598.25 69.4,-2359.32 71.29,-2299.24 78.82,-2060.25 79.18,-2048.8 79.59,-2037.19 80.05,-2025.48"/>
<polygon fill="none" stroke="#63b8ff" points="80.04,-2025.62 76.28,-2019.46 80.52,-2013.63 84.28,-2019.79 80.04,-2025.62"/>
</a>
</g>
<text text-anchor="start" x="79.07" y="-2370.38" font-family="Helvetica,sans-Serif" font-size="10.00" fill="grey"> #$foreign_key_fields</text>
<text text-anchor="middle" x="125.19" y="-2359.12" font-family="Helvetica,sans-Serif" font-size="10.00" fill="grey">_of</text>
<text text-anchor="start" x="79.07" y="-2347.88" font-family="Helvetica,sans-Serif" font-size="10.00" fill="grey">#$forward_entity</text>
<text text-anchor="middle" x="125.19" y="-2336.62" font-family="Helvetica,sans-Serif" font-size="10.00" fill="grey">_to</text>
<text text-anchor="middle" x="125.19" y="-2325.38" font-family="Helvetica,sans-Serif" font-size="10.00" fill="grey">#$notable</text>
<text text-anchor="start" x="79.07" y="-2314.12" font-family="Helvetica,sans-Serif" font-size="10.00" fill="grey">#$plugins_forward</text>
<text text-anchor="middle" x="125.19" y="-2302.88" font-family="Helvetica,sans-Serif" font-size="10.00" fill="grey">_entity</text>
<text text-anchor="middle" x="125.19" y="-2291.62" font-family="Helvetica,sans-Serif" font-size="10.00" fill="grey">#$tables_of</text>
<text text-anchor="middle" x="125.19" y="-2280.38" font-family="Helvetica,sans-Serif" font-size="10.00" fill="grey">+$undisclosedFields</text>
</g>
<!-- Node6&#45;&gt;Node4 -->
<g id="edge5_Node000004_Node000006" class="edge">
<title>Node6&#45;&gt;Node4</title>
<g id="a_edge5_Node000004_Node000006"><a xlink:title=" ">
<path fill="none" stroke="#63b8ff" d="M100.17,-2679.46C110.95,-2661.29 127.27,-2635.92 144.82,-2616.25 153.06,-2607.01 159.12,-2608.49 166.07,-2598.25 168.77,-2594.26 171.41,-2590.18 173.97,-2586.02"/>
<polygon fill="none" stroke="#63b8ff" points="174,-2585.96 173.61,-2578.76 180.11,-2575.63 180.5,-2582.83 174,-2585.96"/>
</a>
</g>
<text text-anchor="middle" x="198.69" y="-2651.75" font-family="Helvetica,sans-Serif" font-size="10.00" fill="grey"> #$othertabs</text>
<text text-anchor="start" x="145.07" y="-2640.5" font-family="Helvetica,sans-Serif" font-size="10.00" fill="grey">#$showTitleInNavigation</text>
<text text-anchor="middle" x="198.69" y="-2629.25" font-family="Helvetica,sans-Serif" font-size="10.00" fill="grey">Header</text>
<text text-anchor="middle" x="198.69" y="-2618" font-family="Helvetica,sans-Serif" font-size="10.00" fill="grey">+$rightname</text>
</g>
<!-- Node7 -->
<g id="Node000007" class="node">
<title>Node7</title>
<g id="a_Node000007"><a xlink:title=" ">
<polygon fill="white" stroke="none" points="260.07,-1635.5 226.07,-1635.5 226.07,-1586.5 260.07,-1586.5 260.07,-1635.5"/>
<text text-anchor="start" x="231.07" y="-1622" font-family="Helvetica,sans-Serif" font-size="10.00">const</text>
<text text-anchor="start" x="241.57" y="-1607" font-family="Helvetica,sans-Serif" font-size="10.00"> </text>
<text text-anchor="start" x="241.57" y="-1592" font-family="Helvetica,sans-Serif" font-size="10.00"> </text>
<polygon fill="#666666" stroke="#666666" points="226.07,-1618.5 226.07,-1618.5 260.07,-1618.5 260.07,-1618.5 226.07,-1618.5"/>
<polygon fill="#666666" stroke="#666666" points="226.07,-1603.5 226.07,-1603.5 260.07,-1603.5 260.07,-1603.5 226.07,-1603.5"/>
<polygon fill="none" stroke="#666666" points="226.07,-1586.5 226.07,-1635.5 260.07,-1635.5 260.07,-1586.5 226.07,-1586.5"/>
</a>
</g>
</g>
<!-- Node7&#45;&gt;Node1 -->
<g id="edge10_Node000001_Node000007" class="edge">
<title>Node7&#45;&gt;Node1</title>
<g id="a_edge10_Node000001_Node000007"><a xlink:title=" ">
<path fill="none" stroke="#63b8ff" d="M243.7,-1586.84C245.43,-1523.48 250.25,-1341.96 253.07,-1191 258.87,-879.77 263.21,-516.13 265.42,-311.63"/>
<polygon fill="none" stroke="#63b8ff" points="265.42,-311.59 261.48,-305.55 265.55,-299.59 269.48,-305.64 265.42,-311.59"/>
</a>
</g>
<text text-anchor="middle" x="296.82" y="-694.38" font-family="Helvetica,sans-Serif" font-size="10.00" fill="grey"> +ONADD</text>
<text text-anchor="middle" x="296.82" y="-683.12" font-family="Helvetica,sans-Serif" font-size="10.00" fill="grey">+ONUPDATE</text>
<text text-anchor="middle" x="296.82" y="-671.88" font-family="Helvetica,sans-Serif" font-size="10.00" fill="grey">+PARENT</text>
</g>
<!-- Node7&#45;&gt;Node2 -->
<g id="edge8_Node000002_Node000007" class="edge">
<title>Node7&#45;&gt;Node2</title>
<g id="a_edge8_Node000002_Node000007"><a xlink:title=" ">
<path fill="none" stroke="#63b8ff" d="M247.67,-1586.93C259.61,-1520.08 284.53,-1323.76 192.07,-1209 177.05,-1190.36 155.51,-1210.27 141.32,-1191 130.75,-1176.67 124.86,-1120.5 121.74,-1050.58"/>
<polygon fill="none" stroke="#63b8ff" points="121.75,-1050.74 117.5,-1044.91 121.25,-1038.75 125.49,-1044.57 121.75,-1050.74"/>
</a>
</g>
<text text-anchor="middle" x="197.94" y="-1181.5" font-family="Helvetica,sans-Serif" font-size="10.00" fill="grey"> +AND_MATCHING</text>
<text text-anchor="middle" x="197.94" y="-1170.25" font-family="Helvetica,sans-Serif" font-size="10.00" fill="grey">+OR_MATCHING</text>
<text text-anchor="middle" x="197.94" y="-1159" font-family="Helvetica,sans-Serif" font-size="10.00" fill="grey">+PATTERN_BEGIN</text>
<text text-anchor="middle" x="197.94" y="-1147.75" font-family="Helvetica,sans-Serif" font-size="10.00" fill="grey">+PATTERN_CIDR</text>
<text text-anchor="middle" x="197.94" y="-1136.5" font-family="Helvetica,sans-Serif" font-size="10.00" fill="grey">+PATTERN_CONTAIN</text>
<text text-anchor="start" x="142.07" y="-1125.25" font-family="Helvetica,sans-Serif" font-size="10.00" fill="grey">+PATTERN_DOES_NOT</text>
<text text-anchor="middle" x="197.94" y="-1114" font-family="Helvetica,sans-Serif" font-size="10.00" fill="grey">_EXISTS</text>
<text text-anchor="middle" x="197.94" y="-1102.75" font-family="Helvetica,sans-Serif" font-size="10.00" fill="grey">+PATTERN_END</text>
<text text-anchor="middle" x="197.94" y="-1091.5" font-family="Helvetica,sans-Serif" font-size="10.00" fill="grey">+PATTERN_EXISTS</text>
<text text-anchor="middle" x="197.94" y="-1080.25" font-family="Helvetica,sans-Serif" font-size="10.00" fill="grey">+PATTERN_FIND</text>
<text text-anchor="middle" x="197.94" y="-1069" font-family="Helvetica,sans-Serif" font-size="10.00" fill="grey">+PATTERN_IS</text>
<text text-anchor="middle" x="197.94" y="-1057.75" font-family="Helvetica,sans-Serif" font-size="10.00" fill="grey">...</text>
</g>
</g>
</svg>
