<?xml version="1.0" encoding="UTF-8" standalone="no"?>
<!DOCTYPE svg PUBLIC "-//W3C//DTD SVG 1.1//EN"
 "http://www.w3.org/Graphics/SVG/1.1/DTD/svg11.dtd">
<!-- Generated by graphviz version 10.0.1 (20240210.2158)
 -->
<!-- Title: validate Pages: 1 -->
<svg width="403pt" height="88pt"
 viewBox="0.00 0.00 403.25 87.50" xmlns="http://www.w3.org/2000/svg" xmlns:xlink="http://www.w3.org/1999/xlink">
<g id="graph0" class="graph" transform="scale(1 1) rotate(0) translate(4 83.5)">
<title>validate</title>
<!-- Node1 -->
<g id="Node000001" class="node">
<title>Node1</title>
<g id="a_Node000001"><a xlink:title=" ">
<polygon fill="#999999" stroke="#666666" points="49.75,-48.88 0,-48.88 0,-29.62 49.75,-29.62 49.75,-48.88"/>
<text text-anchor="middle" x="24.88" y="-35.38" font-family="Helvetica,sans-Serif" font-size="10.00">validate</text>
</a>
</g>
</g>
<!-- Node2 -->
<g id="Node000002" class="node">
<title>Node2</title>
<g id="a_Node000002"><a xlink:href="class_sabre_1_1_v_object_1_1_property.html#ac0bc18784b182c89fcfd276625aef435" target="_top" xlink:title=" ">
<polygon fill="white" stroke="#666666" points="222.5,-79.5 103,-79.5 103,-49 222.5,-49 222.5,-79.5"/>
<text text-anchor="start" x="111" y="-66" font-family="Helvetica,sans-Serif" font-size="10.00">Sabre\VObject\Property</text>
<text text-anchor="middle" x="162.75" y="-54.75" font-family="Helvetica,sans-Serif" font-size="10.00">\getValue</text>
</a>
</g>
</g>
<!-- Node1&#45;&gt;Node2 -->
<g id="edge1_Node000001_Node000002" class="edge">
<title>Node1&#45;&gt;Node2</title>
<g id="a_edge1_Node000001_Node000002"><a xlink:title=" ">
<path fill="none" stroke="#63b8ff" d="M50.17,-43.72C61.85,-45.87 76.51,-48.57 91.33,-51.29"/>
<polygon fill="#63b8ff" stroke="#63b8ff" points="90.69,-54.73 101.16,-53.1 91.96,-47.85 90.69,-54.73"/>
</a>
</g>
</g>
<!-- Node4 -->
<g id="Node000004" class="node">
<title>Node4</title>
<g id="a_Node000004"><a xlink:href="class_sabre_1_1_v_object_1_1_date_time_parser.html#a860b8ad62fbd4b259ef1d2185a769e83" target="_top" xlink:title=" ">
<polygon fill="white" stroke="#666666" points="239.75,-30.5 85.75,-30.5 85.75,0 239.75,0 239.75,-30.5"/>
<text text-anchor="start" x="93.75" y="-17" font-family="Helvetica,sans-Serif" font-size="10.00">Sabre\VObject\DateTimeParser</text>
<text text-anchor="middle" x="162.75" y="-5.75" font-family="Helvetica,sans-Serif" font-size="10.00">\parseVCardDateTime</text>
</a>
</g>
</g>
<!-- Node1&#45;&gt;Node4 -->
<g id="edge3_Node000001_Node000004" class="edge">
<title>Node1&#45;&gt;Node4</title>
<g id="a_edge3_Node000001_Node000004"><a xlink:title=" ">
<path fill="none" stroke="#63b8ff" d="M50.17,-34.96C57.31,-33.7 65.56,-32.24 74.28,-30.7"/>
<polygon fill="#63b8ff" stroke="#63b8ff" points="74.8,-34.16 84.04,-28.98 73.59,-27.27 74.8,-34.16"/>
</a>
</g>
</g>
<!-- Node3 -->
<g id="Node000003" class="node">
<title>Node3</title>
<g id="a_Node000003"><a xlink:href="class_sabre_1_1_v_object_1_1_property.html#a0ef96c4cf288c28e523fc70a51af00d9" target="_top" xlink:title=" ">
<polygon fill="white" stroke="#666666" points="395.25,-79.5 275.75,-79.5 275.75,-49 395.25,-49 395.25,-79.5"/>
<text text-anchor="start" x="283.75" y="-66" font-family="Helvetica,sans-Serif" font-size="10.00">Sabre\VObject\Property</text>
<text text-anchor="middle" x="335.5" y="-54.75" font-family="Helvetica,sans-Serif" font-size="10.00">\getRawMimeDirValue</text>
</a>
</g>
</g>
<!-- Node2&#45;&gt;Node3 -->
<g id="edge2_Node000002_Node000003" class="edge">
<title>Node2&#45;&gt;Node3</title>
<g id="a_edge2_Node000002_Node000003"><a xlink:title=" ">
<path fill="none" stroke="#63b8ff" d="M222.99,-64.25C236.24,-64.25 250.41,-64.25 264.06,-64.25"/>
<polygon fill="#63b8ff" stroke="#63b8ff" points="263.85,-67.75 273.85,-64.25 263.85,-60.75 263.85,-67.75"/>
</a>
</g>
</g>
</g>
</svg>
