<?xml version="1.0" encoding="UTF-8" standalone="no"?>
<!DOCTYPE svg PUBLIC "-//W3C//DTD SVG 1.1//EN"
 "http://www.w3.org/Graphics/SVG/1.1/DTD/svg11.dtd">
<!-- Generated by graphviz version 10.0.1 (20240210.2158)
 -->
<!-- Title: Response Pages: 1 -->
<svg width="199pt" height="232pt"
 viewBox="0.00 0.00 199.00 232.25" xmlns="http://www.w3.org/2000/svg" xmlns:xlink="http://www.w3.org/1999/xlink">
<g id="graph0" class="graph" transform="scale(1 1) rotate(0) translate(4 228.25)">
<title>Response</title>
<!-- Node1 -->
<g id="Node000001" class="node">
<title>Node1</title>
<g id="a_Node000001"><a xlink:title=" ">
<polygon fill="#999999" stroke="none" points="139,-83 0,-83 0,0 139,0 139,-83"/>
<text text-anchor="start" x="47.38" y="-69.5" font-family="Helvetica,sans-Serif" font-size="10.00">Response</text>
<text text-anchor="start" x="68" y="-54.5" font-family="Helvetica,sans-Serif" font-size="10.00"> </text>
<text text-anchor="start" x="4" y="-39.5" font-family="Helvetica,sans-Serif" font-size="10.00">+</text>
<text text-anchor="start" x="14" y="-39.5" font-family="Helvetica,sans-Serif" font-size="10.00">static sendError(int</text>
<text text-anchor="start" x="14" y="-28.25" font-family="Helvetica,sans-Serif" font-size="10.00"> $code, string $message,</text>
<text text-anchor="start" x="14" y="-17" font-family="Helvetica,sans-Serif" font-size="10.00"> string $content_type=self</text>
<text text-anchor="start" x="14" y="-5.75" font-family="Helvetica,sans-Serif" font-size="10.00">::CONTENT_TYPE_JSON)</text>
<polygon fill="#666666" stroke="#666666" points="0,-66 0,-66 139,-66 139,-66 0,-66"/>
<polygon fill="#666666" stroke="#666666" points="0,-51 0,-51 139,-51 139,-51 0,-51"/>
<polygon fill="none" stroke="#666666" points="0,0 0,-83 139,-83 139,0 0,0"/>
</a>
</g>
</g>
<!-- Node2 -->
<g id="Node000002" class="node">
<title>Node2</title>
<g id="a_Node000002"><a xlink:title=" ">
<polygon fill="white" stroke="none" points="86.5,-224.25 52.5,-224.25 52.5,-175.25 86.5,-175.25 86.5,-224.25"/>
<text text-anchor="start" x="57.5" y="-210.75" font-family="Helvetica,sans-Serif" font-size="10.00">const</text>
<text text-anchor="start" x="68" y="-195.75" font-family="Helvetica,sans-Serif" font-size="10.00"> </text>
<text text-anchor="start" x="68" y="-180.75" font-family="Helvetica,sans-Serif" font-size="10.00"> </text>
<polygon fill="#666666" stroke="#666666" points="52.5,-207.25 52.5,-207.25 86.5,-207.25 86.5,-207.25 52.5,-207.25"/>
<polygon fill="#666666" stroke="#666666" points="52.5,-192.25 52.5,-192.25 86.5,-192.25 86.5,-192.25 52.5,-192.25"/>
<polygon fill="none" stroke="#666666" points="52.5,-175.25 52.5,-224.25 86.5,-224.25 86.5,-175.25 52.5,-175.25"/>
</a>
</g>
</g>
<!-- Node2&#45;&gt;Node1 -->
<g id="edge1_Node000001_Node000002" class="edge">
<title>Node2&#45;&gt;Node1</title>
<g id="a_edge1_Node000001_Node000002"><a xlink:title=" ">
<path fill="none" stroke="#63b8ff" d="M69.5,-175.36C69.5,-154.36 69.5,-122.76 69.5,-95.65"/>
<polygon fill="none" stroke="#63b8ff" points="69.5,-95.67 65.5,-89.67 69.5,-83.67 73.5,-89.67 69.5,-95.67"/>
</a>
</g>
<text text-anchor="middle" x="130.25" y="-147.75" font-family="Helvetica,sans-Serif" font-size="10.00" fill="grey"> +CONTENT_TYPE_JSON</text>
<text text-anchor="start" x="69.5" y="-136.5" font-family="Helvetica,sans-Serif" font-size="10.00" fill="grey">+CONTENT_TYPE_TEXT</text>
<text text-anchor="middle" x="130.25" y="-125.25" font-family="Helvetica,sans-Serif" font-size="10.00" fill="grey">_HTML</text>
<text text-anchor="start" x="69.5" y="-114" font-family="Helvetica,sans-Serif" font-size="10.00" fill="grey">+CONTENT_TYPE_TEXT</text>
<text text-anchor="middle" x="130.25" y="-102.75" font-family="Helvetica,sans-Serif" font-size="10.00" fill="grey">_PLAIN</text>
</g>
</g>
</svg>
