<?xml version="1.0" encoding="UTF-8" standalone="no"?>
<!DOCTYPE svg PUBLIC "-//W3C//DTD SVG 1.1//EN"
 "http://www.w3.org/Graphics/SVG/1.1/DTD/svg11.dtd">
<!-- Generated by graphviz version 10.0.1 (20240210.2158)
 -->
<!-- Title: HtmlDumper Pages: 1 -->
<svg width="124pt" height="320pt"
 viewBox="0.00 0.00 124.00 320.00" xmlns="http://www.w3.org/2000/svg" xmlns:xlink="http://www.w3.org/1999/xlink">

<svg id="main" version="1.1" xmlns="http://www.w3.org/2000/svg" xmlns:xlink="http://www.w3.org/1999/xlink" xml:space="preserve" onload="init(evt)">
<style type="text/css"><![CDATA[
.node, .edge {opacity: 0.7;}
.node.selected, .edge.selected {opacity: 1;}
.edge:hover path { stroke: red; }
.edge:hover polygon { stroke: red; fill: red; }
]]></style>
<script type="application/ecmascript" xlink:href="svg.min.js"/>
<svg id="graph" class="graph">
<g id="graph0" class="graph" transform="scale(1 1) rotate(0) translate(4 316)">
<title>HtmlDumper</title>
<!-- Node1 -->
<g id="Node000001" class="node">
<title>Node1</title>
<g id="a_Node000001"><a xlink:title=" ">
<polygon fill="#999999" stroke="none" points="116,-138 0,-138 0,0 116,0 116,-138"/>
<text text-anchor="start" x="30.25" y="-124.5" font-family="Helvetica,sans-Serif" font-size="10.00">HtmlDumper</text>
<text text-anchor="start" x="56.5" y="-109.5" font-family="Helvetica,sans-Serif" font-size="10.00"> </text>
<text text-anchor="start" x="4" y="-94.5" font-family="Helvetica,sans-Serif" font-size="10.00">+</text>
<text text-anchor="start" x="14" y="-94.5" font-family="Helvetica,sans-Serif" font-size="10.00">dump(Profile $profile)</text>
<text text-anchor="start" x="4.38" y="-79.5" font-family="Helvetica,sans-Serif" font-size="10.00">#</text>
<text text-anchor="start" x="14" y="-79.5" font-family="Helvetica,sans-Serif" font-size="10.00">formatTemplate(Profile</text>
<text text-anchor="start" x="14" y="-68.25" font-family="Helvetica,sans-Serif" font-size="10.00"> $profile, $prefix)</text>
<text text-anchor="start" x="4.38" y="-53.5" font-family="Helvetica,sans-Serif" font-size="10.00">#</text>
<text text-anchor="start" x="14" y="-53.5" font-family="Helvetica,sans-Serif" font-size="10.00">formatNonTemplate</text>
<text text-anchor="start" x="14" y="-42.25" font-family="Helvetica,sans-Serif" font-size="10.00">(Profile $profile, </text>
<text text-anchor="start" x="14" y="-31" font-family="Helvetica,sans-Serif" font-size="10.00">$prefix)</text>
<text text-anchor="start" x="4.38" y="-16.5" font-family="Helvetica,sans-Serif" font-size="10.00">#</text>
<text text-anchor="start" x="14" y="-16.5" font-family="Helvetica,sans-Serif" font-size="10.00">formatTime(Profile</text>
<text text-anchor="start" x="14" y="-5.25" font-family="Helvetica,sans-Serif" font-size="10.00"> $profile, $percent)</text>
<polygon fill="#666666" stroke="#666666" points="0,-121 0,-121 116,-121 116,-121 0,-121"/>
<polygon fill="#666666" stroke="#666666" points="0,-106 0,-106 116,-106 116,-106 0,-106"/>
<polygon fill="none" stroke="#666666" points="0,0 0,-138 116,-138 116,0 0,0"/>
</a>
</g>
</g>
<!-- Node2 -->
<g id="Node000002" class="node">
<title>Node2</title>
<g id="a_Node000002"><a xlink:href="class_twig_1_1_profiler_1_1_dumper_1_1_base_dumper.html" target="_top" xlink:title=" ">
<polygon fill="white" stroke="none" points="116,-312 0,-312 0,-174 116,-174 116,-312"/>
<text text-anchor="start" x="29.5" y="-298.5" font-family="Helvetica,sans-Serif" font-size="10.00">BaseDumper</text>
<text text-anchor="start" x="56.5" y="-283.5" font-family="Helvetica,sans-Serif" font-size="10.00"> </text>
<text text-anchor="start" x="4" y="-268.5" font-family="Helvetica,sans-Serif" font-size="10.00">+</text>
<text text-anchor="start" x="14" y="-268.5" font-family="Helvetica,sans-Serif" font-size="10.00">dump(Profile $profile)</text>
<text text-anchor="start" x="4.38" y="-253.5" font-family="Helvetica,sans-Serif" font-size="10.00">#</text>
<text text-anchor="start" x="14" y="-253.5" font-family="Helvetica,sans-Serif" font-size="10.00">formatTemplate(Profile</text>
<text text-anchor="start" x="14" y="-242.25" font-family="Helvetica,sans-Serif" font-size="10.00"> $profile, $prefix)</text>
<text text-anchor="start" x="4.38" y="-227.5" font-family="Helvetica,sans-Serif" font-size="10.00">#</text>
<text text-anchor="start" x="14" y="-227.5" font-family="Helvetica,sans-Serif" font-size="10.00">formatNonTemplate</text>
<text text-anchor="start" x="14" y="-216.25" font-family="Helvetica,sans-Serif" font-size="10.00">(Profile $profile, </text>
<text text-anchor="start" x="14" y="-205" font-family="Helvetica,sans-Serif" font-size="10.00">$prefix)</text>
<text text-anchor="start" x="4.38" y="-190.5" font-family="Helvetica,sans-Serif" font-size="10.00">#</text>
<text text-anchor="start" x="14" y="-190.5" font-family="Helvetica,sans-Serif" font-size="10.00">formatTime(Profile</text>
<text text-anchor="start" x="14" y="-179.25" font-family="Helvetica,sans-Serif" font-size="10.00"> $profile, $percent)</text>
<polygon fill="#666666" stroke="#666666" points="0,-295 0,-295 116,-295 116,-295 0,-295"/>
<polygon fill="#666666" stroke="#666666" points="0,-280 0,-280 116,-280 116,-280 0,-280"/>
<polygon fill="none" stroke="#666666" points="0,-174 0,-312 116,-312 116,-174 0,-174"/>
</a>
</g>
</g>
<!-- Node2&#45;&gt;Node1 -->
<g id="edge1_Node000001_Node000002" class="edge">
<title>Node2&#45;&gt;Node1</title>
<g id="a_edge1_Node000001_Node000002"><a xlink:title=" ">
<path fill="none" stroke="#63b8ff" d="M58,-162.73C58,-154.39 58,-145.96 58,-137.77"/>
<polygon fill="none" stroke="#63b8ff" points="54.5,-162.51 58,-172.51 61.5,-162.51 54.5,-162.51"/>
</a>
</g>
</g>
</g>
</svg>
</svg>

<style type='text/css'>
<![CDATA[
[data-mouse-over-selected='false'] { opacity: 0.7; }
[data-mouse-over-selected='true']  { opacity: 1.0; }
]]>
</style>
<script type="application/ecmascript"><![CDATA[
document.addEventListener('DOMContentLoaded', (event) => {
  highlightEdges();
  highlightAdjacentNodes();
});
]]></script>
</svg>
