<?xml version="1.0" encoding="UTF-8" standalone="no"?>
<!DOCTYPE svg PUBLIC "-//W3C//DTD SVG 1.1//EN"
 "http://www.w3.org/Graphics/SVG/1.1/DTD/svg11.dtd">
<!-- Generated by graphviz version 10.0.1 (20240210.2158)
 -->
<!-- Title: httpPost Pages: 1 -->
<svg width="249pt" height="223pt"
 viewBox="0.00 0.00 248.50 222.88" xmlns="http://www.w3.org/2000/svg" xmlns:xlink="http://www.w3.org/1999/xlink">
<g id="graph0" class="graph" transform="scale(1 1) rotate(0) translate(4 218.88)">
<title>httpPost</title>
<!-- Node1 -->
<g id="Node000001" class="node">
<title>Node1</title>
<g id="a_Node000001"><a xlink:title=" ">
<polygon fill="#999999" stroke="#666666" points="52.75,-111.25 0,-111.25 0,-92 52.75,-92 52.75,-111.25"/>
<text text-anchor="middle" x="26.38" y="-97.75" font-family="Helvetica,sans-Serif" font-size="10.00">httpPost</text>
</a>
</g>
</g>
<!-- Node2 -->
<g id="Node000002" class="node">
<title>Node2</title>
<g id="a_Node000002"><a xlink:href="interface_sabre_1_1_h_t_t_p_1_1_message_interface.html#ad7bab1db052fb9fcc8bd0b4f3eac29ac" target="_top" xlink:title=" ">
<polygon fill="white" stroke="#666666" points="240.5,-214.88 88.75,-214.88 88.75,-184.38 240.5,-184.38 240.5,-214.88"/>
<text text-anchor="start" x="96.75" y="-201.38" font-family="Helvetica,sans-Serif" font-size="10.00">Sabre\HTTP\MessageInterface</text>
<text text-anchor="middle" x="164.62" y="-190.12" font-family="Helvetica,sans-Serif" font-size="10.00">\getBody</text>
</a>
</g>
</g>
<!-- Node1&#45;&gt;Node2 -->
<g id="edge1_Node000001_Node000002" class="edge">
<title>Node1&#45;&gt;Node2</title>
<g id="a_edge1_Node000001_Node000002"><a xlink:title=" ">
<path fill="none" stroke="#63b8ff" d="M33.23,-111.64C42.87,-127.28 63.55,-157.5 88.75,-174.62 90.95,-176.12 93.25,-177.53 95.61,-178.87"/>
<polygon fill="#63b8ff" stroke="#63b8ff" points="93.8,-181.87 104.31,-183.23 96.94,-175.62 93.8,-181.87"/>
</a>
</g>
</g>
<!-- Node3 -->
<g id="Node000003" class="node">
<title>Node3</title>
<g id="a_Node000003"><a xlink:href="interface_sabre_1_1_h_t_t_p_1_1_message_interface.html#acb98664b303c189cc4bca69025ab598c" target="_top" xlink:title=" ">
<polygon fill="white" stroke="#666666" points="240.5,-165.88 88.75,-165.88 88.75,-135.38 240.5,-135.38 240.5,-165.88"/>
<text text-anchor="start" x="96.75" y="-152.38" font-family="Helvetica,sans-Serif" font-size="10.00">Sabre\HTTP\MessageInterface</text>
<text text-anchor="middle" x="164.62" y="-141.12" font-family="Helvetica,sans-Serif" font-size="10.00">\getHeader</text>
</a>
</g>
</g>
<!-- Node1&#45;&gt;Node3 -->
<g id="edge2_Node000001_Node000003" class="edge">
<title>Node1&#45;&gt;Node3</title>
<g id="a_edge2_Node000001_Node000003"><a xlink:title=" ">
<path fill="none" stroke="#63b8ff" d="M52.35,-111.72C63.45,-116.12 76.7,-121.26 88.75,-125.62 94.01,-127.53 99.5,-129.46 105.01,-131.37"/>
<polygon fill="#63b8ff" stroke="#63b8ff" points="103.54,-134.57 114.14,-134.49 105.81,-127.94 103.54,-134.57"/>
</a>
</g>
</g>
<!-- Node4 -->
<g id="Node000004" class="node">
<title>Node4</title>
<g id="a_Node000004"><a xlink:href="interface_sabre_1_1_h_t_t_p_1_1_request_interface.html#a30c5c67b2bf8e2e2ccc7e361faa20afe" target="_top" xlink:title=" ">
<polygon fill="white" stroke="#666666" points="239,-116.88 90.25,-116.88 90.25,-86.38 239,-86.38 239,-116.88"/>
<text text-anchor="start" x="98.25" y="-103.38" font-family="Helvetica,sans-Serif" font-size="10.00">Sabre\HTTP\RequestInterface</text>
<text text-anchor="middle" x="164.62" y="-92.12" font-family="Helvetica,sans-Serif" font-size="10.00">\getPath</text>
</a>
</g>
</g>
<!-- Node1&#45;&gt;Node4 -->
<g id="edge3_Node000001_Node000004" class="edge">
<title>Node1&#45;&gt;Node4</title>
<g id="a_edge3_Node000001_Node000004"><a xlink:title=" ">
<path fill="none" stroke="#63b8ff" d="M53,-101.62C60.57,-101.62 69.29,-101.62 78.46,-101.62"/>
<polygon fill="#63b8ff" stroke="#63b8ff" points="78.29,-105.13 88.29,-101.63 78.29,-98.13 78.29,-105.13"/>
</a>
</g>
</g>
<!-- Node5 -->
<g id="Node000005" class="node">
<title>Node5</title>
<g id="a_Node000005"><a xlink:href="interface_sabre_1_1_h_t_t_p_1_1_request_interface.html#accd14bda49a1044b4d8dd93f020f11ee" target="_top" xlink:title=" ">
<polygon fill="white" stroke="#666666" points="239,-67.88 90.25,-67.88 90.25,-37.38 239,-37.38 239,-67.88"/>
<text text-anchor="start" x="98.25" y="-54.38" font-family="Helvetica,sans-Serif" font-size="10.00">Sabre\HTTP\RequestInterface</text>
<text text-anchor="middle" x="164.62" y="-43.12" font-family="Helvetica,sans-Serif" font-size="10.00">\getUrl</text>
</a>
</g>
</g>
<!-- Node1&#45;&gt;Node5 -->
<g id="edge4_Node000001_Node000005" class="edge">
<title>Node1&#45;&gt;Node5</title>
<g id="a_edge4_Node000001_Node000005"><a xlink:title=" ">
<path fill="none" stroke="#63b8ff" d="M52.35,-91.53C63.45,-87.13 76.7,-81.99 88.75,-77.62 94.01,-75.72 99.5,-73.79 105.01,-71.88"/>
<polygon fill="#63b8ff" stroke="#63b8ff" points="105.81,-75.31 114.14,-68.76 103.54,-68.68 105.81,-75.31"/>
</a>
</g>
</g>
<!-- Node6 -->
<g id="Node000006" class="node">
<title>Node6</title>
<g id="a_Node000006"><a xlink:href="class_sabre_1_1_d_a_v_1_1_sharing_1_1_plugin.html#a95d03927036942ad328b204f40f75d00" target="_top" xlink:title=" ">
<polygon fill="white" stroke="#666666" points="205.62,-19.25 123.62,-19.25 123.62,0 205.62,0 205.62,-19.25"/>
<text text-anchor="middle" x="164.62" y="-5.75" font-family="Helvetica,sans-Serif" font-size="10.00">shareResource</text>
</a>
</g>
</g>
<!-- Node1&#45;&gt;Node6 -->
<g id="edge5_Node000001_Node000006" class="edge">
<title>Node1&#45;&gt;Node6</title>
<g id="a_edge5_Node000001_Node000006"><a xlink:title=" ">
<path fill="none" stroke="#63b8ff" d="M32.93,-91.65C42.3,-75.77 62.8,-44.9 88.75,-28.62 95.94,-24.12 104.15,-20.68 112.43,-18.05"/>
<polygon fill="#63b8ff" stroke="#63b8ff" points="113.13,-21.49 121.83,-15.45 111.26,-14.74 113.13,-21.49"/>
</a>
</g>
</g>
</g>
</svg>
