<?xml version="1.0" encoding="UTF-8" standalone="no"?>
<!DOCTYPE svg PUBLIC "-//W3C//DTD SVG 1.1//EN"
 "http://www.w3.org/Graphics/SVG/1.1/DTD/svg11.dtd">
<!-- Generated by graphviz version 10.0.1 (20240210.2158)
 -->
<!-- Title: PDOBasicAuth Pages: 1 -->
<!--zoomable 498 -->

<svg id="main" version="1.1" xmlns="http://www.w3.org/2000/svg" xmlns:xlink="http://www.w3.org/1999/xlink" xml:space="preserve" onload="init(evt)">
<style type="text/css"><![CDATA[
.node, .edge {opacity: 0.7;}
.node.selected, .edge.selected {opacity: 1;}
.edge:hover path { stroke: red; }
.edge:hover polygon { stroke: red; fill: red; }
]]></style>

<defs>
  <circle id="rim" cx="0" cy="0" r="7"/>
  <circle id="rim2" cx="0" cy="0" r="3.5"/>
  <g id="zoomPlus">
    <use xlink:href="#rim" fill="#404040"><set attributeName="fill" to="#808080" begin="zoomplus.mouseover" end="zoomplus.mouseout"/></use>
    <path d="M-4,0h8M0,-4v8" fill="none" stroke="white" stroke-width="1.5" pointer-events="none"/>
  </g>
  <g id="zoomMin">
    <use xlink:href="#rim" fill="#404040"><set attributeName="fill" to="#808080" begin="zoomminus.mouseover" end="zoomminus.mouseout"/></use>
    <path d="M-4,0h8" fill="none" stroke="white" stroke-width="1.5" pointer-events="none"/>
  </g>
  <g id="arrowUp" transform="translate(30 24)">
    <use xlink:href="#rim"/>
    <path pointer-events="none" fill="none" stroke="white" stroke-width="1.5" d="M0,-3.0v7 M-2.5,-0.5L0,-3.0L2.5,-0.5"/>
  </g>
  <g id="arrowRight" transform="rotate(90) translate(36 -43)">
    <use xlink:href="#rim"/>
    <path pointer-events="none" fill="none" stroke="white" stroke-width="1.5" d="M0,-3.0v7 M-2.5,-0.5L0,-3.0L2.5,-0.5"/>
  </g>
  <g id="arrowDown" transform="rotate(180) translate(-30 -48)">
    <use xlink:href="#rim"/>
    <path pointer-events="none" fill="none" stroke="white" stroke-width="1.5" d="M0,-3.0v7 M-2.5,-0.5L0,-3.0L2.5,-0.5"/>
  </g>
  <g id="arrowLeft" transform="rotate(270) translate(-36 17)">
    <use xlink:href="#rim"/>
    <path pointer-events="none" fill="none" stroke="white" stroke-width="1.5" d="M0,-3.0v7 M-2.5,-0.5L0,-3.0L2.5,-0.5"/>
  </g>
  <g id="resetDef">
    <use xlink:href="#rim2" fill="#404040"><set attributeName="fill" to="#808080" begin="reset.mouseover" end="reset.mouseout"/></use>
  </g>
</defs>
<script type="application/ecmascript">
var viewWidth = 155;
var viewHeight = 498;
var sectionId = 'dynsection-0';
</script>
<script type="application/ecmascript" xlink:href="svg.min.js"/>
<svg id="graph" class="graph">
<g id="viewport">
<title>PDOBasicAuth</title>
<!-- Node1 -->
<g id="Node000001" class="node">
<title>Node1</title>
<g id="a_Node000001"><a xlink:title=" ">
<polygon fill="#999999" stroke="none" points="134.5,-146 12.5,-146 12.5,0 134.5,0 134.5,-146"/>
<text text-anchor="start" x="40.12" y="-132.5" font-family="Helvetica,sans-Serif" font-size="10.00">PDOBasicAuth</text>
<text text-anchor="start" x="16.88" y="-117.5" font-family="Helvetica,sans-Serif" font-size="10.00">#</text>
<text text-anchor="start" x="26.5" y="-117.5" font-family="Helvetica,sans-Serif" font-size="10.00">$pdo</text>
<text text-anchor="start" x="16.88" y="-102.5" font-family="Helvetica,sans-Serif" font-size="10.00">#</text>
<text text-anchor="start" x="26.5" y="-102.5" font-family="Helvetica,sans-Serif" font-size="10.00">$tableName</text>
<text text-anchor="start" x="16.88" y="-87.5" font-family="Helvetica,sans-Serif" font-size="10.00">#</text>
<text text-anchor="start" x="26.5" y="-87.5" font-family="Helvetica,sans-Serif" font-size="10.00">$digestColumn</text>
<text text-anchor="start" x="16.88" y="-72.5" font-family="Helvetica,sans-Serif" font-size="10.00">#</text>
<text text-anchor="start" x="26.5" y="-72.5" font-family="Helvetica,sans-Serif" font-size="10.00">$uuidColumn</text>
<text text-anchor="start" x="16.88" y="-57.5" font-family="Helvetica,sans-Serif" font-size="10.00">#</text>
<text text-anchor="start" x="26.5" y="-57.5" font-family="Helvetica,sans-Serif" font-size="10.00">$digestPrefix</text>
<text text-anchor="start" x="16.5" y="-42.5" font-family="Helvetica,sans-Serif" font-size="10.00">+</text>
<text text-anchor="start" x="26.5" y="-42.5" font-family="Helvetica,sans-Serif" font-size="10.00">__construct(\PDO </text>
<text text-anchor="start" x="26.5" y="-31.25" font-family="Helvetica,sans-Serif" font-size="10.00">$pdo, array $options=[])</text>
<text text-anchor="start" x="16.5" y="-16.5" font-family="Helvetica,sans-Serif" font-size="10.00">+</text>
<text text-anchor="start" x="26.5" y="-16.5" font-family="Helvetica,sans-Serif" font-size="10.00">validateUserPass(</text>
<text text-anchor="start" x="26.5" y="-5.25" font-family="Helvetica,sans-Serif" font-size="10.00">$username, $password)</text>
<polygon fill="#666666" stroke="#666666" points="12.5,-129 12.5,-129 134.5,-129 134.5,-129 12.5,-129"/>
<polygon fill="#666666" stroke="#666666" points="12.5,-54 12.5,-54 24.5,-54 24.5,-54 12.5,-54"/>
<polygon fill="#666666" stroke="#666666" points="24.5,-54 24.5,-54 134.5,-54 134.5,-54 24.5,-54"/>
<polygon fill="none" stroke="#666666" points="12.5,0 12.5,-146 134.5,-146 134.5,0 12.5,0"/>
</a>
</g>
</g>
<!-- Node2 -->
<g id="Node000002" class="node">
<title>Node2</title>
<g id="a_Node000002"><a xlink:href="class_sabre_1_1_d_a_v_1_1_auth_1_1_backend_1_1_abstract_basic.html" target="_top" xlink:title=" ">
<polygon fill="white" stroke="none" points="147,-346 0,-346 0,-182 147,-182 147,-346"/>
<text text-anchor="start" x="42.75" y="-332.5" font-family="Helvetica,sans-Serif" font-size="10.00">AbstractBasic</text>
<text text-anchor="start" x="4.38" y="-317.5" font-family="Helvetica,sans-Serif" font-size="10.00">#</text>
<text text-anchor="start" x="14" y="-317.5" font-family="Helvetica,sans-Serif" font-size="10.00">$realm</text>
<text text-anchor="start" x="4.38" y="-302.5" font-family="Helvetica,sans-Serif" font-size="10.00">#</text>
<text text-anchor="start" x="14" y="-302.5" font-family="Helvetica,sans-Serif" font-size="10.00">$principalPrefix</text>
<text text-anchor="start" x="4" y="-287.5" font-family="Helvetica,sans-Serif" font-size="10.00">+</text>
<text text-anchor="start" x="14" y="-287.5" font-family="Helvetica,sans-Serif" font-size="10.00">setRealm($realm)</text>
<text text-anchor="start" x="4" y="-272.5" font-family="Helvetica,sans-Serif" font-size="10.00">+</text>
<text text-anchor="start" x="14" y="-272.5" font-family="Helvetica,sans-Serif" font-size="10.00">check(RequestInterface</text>
<text text-anchor="start" x="14" y="-261.25" font-family="Helvetica,sans-Serif" font-size="10.00"> $request, ResponseInterface</text>
<text text-anchor="start" x="14" y="-250" font-family="Helvetica,sans-Serif" font-size="10.00"> $response)</text>
<text text-anchor="start" x="4" y="-235.5" font-family="Helvetica,sans-Serif" font-size="10.00">+</text>
<text text-anchor="start" x="14" y="-235.5" font-family="Helvetica,sans-Serif" font-size="10.00">challenge(RequestInterface</text>
<text text-anchor="start" x="14" y="-224.25" font-family="Helvetica,sans-Serif" font-size="10.00"> $request, ResponseInterface</text>
<text text-anchor="start" x="14" y="-213" font-family="Helvetica,sans-Serif" font-size="10.00"> $response)</text>
<text text-anchor="start" x="4.38" y="-198.5" font-family="Helvetica,sans-Serif" font-size="10.00">#</text>
<text text-anchor="start" x="14" y="-198.5" font-family="Helvetica,sans-Serif" font-size="10.00">validateUserPass(</text>
<text text-anchor="start" x="14" y="-187.25" font-family="Helvetica,sans-Serif" font-size="10.00">$username, $password)</text>
<polygon fill="#666666" stroke="#666666" points="0,-329 0,-329 147,-329 147,-329 0,-329"/>
<polygon fill="#666666" stroke="#666666" points="0,-299 0,-299 12,-299 12,-299 0,-299"/>
<polygon fill="#666666" stroke="#666666" points="12,-299 12,-299 147,-299 147,-299 12,-299"/>
<polygon fill="none" stroke="#666666" points="0,-182 0,-346 147,-346 147,-182 0,-182"/>
</a>
</g>
</g>
<!-- Node2&#45;&gt;Node1 -->
<g id="edge1_Node000001_Node000002" class="edge">
<title>Node2&#45;&gt;Node1</title>
<g id="a_edge1_Node000001_Node000002"><a xlink:title=" ">
<path fill="none" stroke="#63b8ff" d="M73.5,-170.69C73.5,-162.35 73.5,-153.99 73.5,-145.86"/>
<polygon fill="none" stroke="#63b8ff" points="70,-170.51 73.5,-180.51 77,-170.51 70,-170.51"/>
</a>
</g>
</g>
<!-- Node3 -->
<g id="Node000003" class="node">
<title>Node3</title>
<g id="a_Node000003"><a xlink:href="interface_sabre_1_1_d_a_v_1_1_auth_1_1_backend_1_1_backend_interface.html" target="_top" xlink:title=" ">
<polygon fill="white" stroke="none" points="147,-490 0,-490 0,-382 147,-382 147,-490"/>
<text text-anchor="start" x="35.25" y="-476.5" font-family="Helvetica,sans-Serif" font-size="10.00">BackendInterface</text>
<text text-anchor="start" x="72" y="-461.5" font-family="Helvetica,sans-Serif" font-size="10.00"> </text>
<text text-anchor="start" x="4" y="-446.5" font-family="Helvetica,sans-Serif" font-size="10.00">+</text>
<text text-anchor="start" x="14" y="-446.5" font-family="Helvetica,sans-Serif" font-size="10.00">check(RequestInterface</text>
<text text-anchor="start" x="14" y="-435.25" font-family="Helvetica,sans-Serif" font-size="10.00"> $request, ResponseInterface</text>
<text text-anchor="start" x="14" y="-424" font-family="Helvetica,sans-Serif" font-size="10.00"> $response)</text>
<text text-anchor="start" x="4" y="-409.5" font-family="Helvetica,sans-Serif" font-size="10.00">+</text>
<text text-anchor="start" x="14" y="-409.5" font-family="Helvetica,sans-Serif" font-size="10.00">challenge(RequestInterface</text>
<text text-anchor="start" x="14" y="-398.25" font-family="Helvetica,sans-Serif" font-size="10.00"> $request, ResponseInterface</text>
<text text-anchor="start" x="14" y="-387" font-family="Helvetica,sans-Serif" font-size="10.00"> $response)</text>
<polygon fill="#666666" stroke="#666666" points="0,-473 0,-473 147,-473 147,-473 0,-473"/>
<polygon fill="#666666" stroke="#666666" points="0,-458 0,-458 147,-458 147,-458 0,-458"/>
<polygon fill="none" stroke="#666666" points="0,-382 0,-490 147,-490 147,-382 0,-382"/>
</a>
</g>
</g>
<!-- Node3&#45;&gt;Node2 -->
<g id="edge2_Node000002_Node000003" class="edge">
<title>Node3&#45;&gt;Node2</title>
<g id="a_edge2_Node000002_Node000003"><a xlink:title=" ">
<path fill="none" stroke="#63b8ff" d="M73.5,-370.84C73.5,-362.7 73.5,-354.28 73.5,-345.91"/>
<polygon fill="none" stroke="#63b8ff" points="70,-370.63 73.5,-380.63 77,-370.63 70,-370.63"/>
</a>
</g>
</g>
</g>
</svg>

<g id="navigator" transform="translate(0 0)" fill="#404254">
  <rect fill="#f2f5e9" fill-opacity="0.5" stroke="#606060" stroke-width=".5" x="0" y="0" width="60" height="60"/>
  <use id="zoomplus" xlink:href="#zoomPlus" x="17" y="9" onmousedown="handleZoom(evt,'in')"/>
  <use id="zoomminus" xlink:href="#zoomMin" x="42" y="9" onmousedown="handleZoom(evt,'out')"/>
  <use id="reset" xlink:href="#resetDef" x="30" y="36" onmousedown="handleReset()"/>
   <use id="arrowup" xlink:href="#arrowUp" x="0" y="0" onmousedown="handlePan(0,-1)"/>
  <use id="arrowright" xlink:href="#arrowRight" x="0" y="0" onmousedown="handlePan(1,0)"/>
  <use id="arrowdown" xlink:href="#arrowDown" x="0" y="0" onmousedown="handlePan(0,1)"/>
  <use id="arrowleft" xlink:href="#arrowLeft" x="0" y="0" onmousedown="handlePan(-1,0)"/>
</g>
<svg viewBox="0 0 15 15" width="100%" height="30px" preserveAspectRatio="xMaxYMin meet">
 <g id="arrow_out" transform="scale(0.3 0.3)">
  <a xlink:href="class_sabre_1_1_d_a_v_1_1_auth_1_1_backend_1_1_p_d_o_basic_auth__inherit__graph_org.svg" target="_base">
   <rect id="button" ry="5" rx="5" y="6" x="6" height="38" width="38"
        fill="#f2f5e9" fill-opacity="0.5" stroke="#606060" stroke-width="1.0"/>
   <path id="arrow"
     d="M 11.500037,31.436501 C 11.940474,20.09759 22.043105,11.32322 32.158766,21.979434 L 37.068811,17.246167 C 37.068811,17.246167 37.088388,32 37.088388,32 L 22.160133,31.978069 C 22.160133,31.978069 26.997745,27.140456 26.997745,27.140456 C 18.528582,18.264221 13.291696,25.230495 11.500037,31.436501 z"
     style="fill:#404040;"/>
  </a>
 </g>
</svg>

<style type='text/css'>
<![CDATA[
[data-mouse-over-selected='false'] { opacity: 0.7; }
[data-mouse-over-selected='true']  { opacity: 1.0; }
]]>
</style>
<script type="application/ecmascript"><![CDATA[
document.addEventListener('DOMContentLoaded', (event) => {
  highlightEdges();
  highlightAdjacentNodes();
});
]]></script>
</svg>
