<?xml version="1.0" encoding="UTF-8" standalone="no"?>
<!DOCTYPE svg PUBLIC "-//W3C//DTD SVG 1.1//EN"
 "http://www.w3.org/Graphics/SVG/1.1/DTD/svg11.dtd">
<!-- Generated by graphviz version 10.0.1 (20240210.2158)
 -->
<!-- Title: ge_sub Pages: 1 -->
<svg width="415pt" height="39pt"
 viewBox="0.00 0.00 414.50 38.50" xmlns="http://www.w3.org/2000/svg" xmlns:xlink="http://www.w3.org/1999/xlink">
<g id="graph0" class="graph" transform="scale(1 1) rotate(0) translate(4 34.5)">
<title>ge_sub</title>
<!-- Node1 -->
<g id="Node000001" class="node">
<title>Node1</title>
<g id="a_Node000001"><a xlink:title=" ">
<polygon fill="#999999" stroke="#666666" points="406.5,-24.88 359,-24.88 359,-5.63 406.5,-5.63 406.5,-24.88"/>
<text text-anchor="middle" x="382.75" y="-11.38" font-family="Helvetica,sans-Serif" font-size="10.00">ge_sub</text>
</a>
</g>
</g>
<!-- Node2 -->
<g id="Node000002" class="node">
<title>Node2</title>
<g id="a_Node000002"><a xlink:href="class_paragon_i_e___sodium___core___ristretto255.html#aecc8b0106347644478f063a1116e866c" target="_top" xlink:title=" ">
<polygon fill="white" stroke="#666666" points="323,-30.5 175.75,-30.5 175.75,0 323,0 323,-30.5"/>
<text text-anchor="start" x="183.75" y="-17" font-family="Helvetica,sans-Serif" font-size="10.00">ParagonIE_Sodium_Core</text>
<text text-anchor="middle" x="249.38" y="-5.75" font-family="Helvetica,sans-Serif" font-size="10.00">_Ristretto255\ristretto255_sub</text>
</a>
</g>
</g>
<!-- Node1&#45;&gt;Node2 -->
<g id="edge1_Node000001_Node000002" class="edge">
<title>Node1&#45;&gt;Node2</title>
<g id="a_edge1_Node000001_Node000002"><a xlink:title=" ">
<path fill="none" stroke="#63b8ff" d="M347.14,-15.25C339.68,-15.25 331.53,-15.25 323.23,-15.25"/>
<polygon fill="#63b8ff" stroke="#63b8ff" points="347.05,-18.75 357.05,-15.25 347.05,-11.75 347.05,-18.75"/>
</a>
</g>
</g>
<!-- Node3 -->
<g id="Node000003" class="node">
<title>Node3</title>
<g id="a_Node000003"><a xlink:href="class_paragon_i_e___sodium___compat.html#a4b4a76e0921d15bccb8b008f5c9d20c3" target="_top" xlink:title=" ">
<polygon fill="white" stroke="#666666" points="139.75,-30.5 0,-30.5 0,0 139.75,0 139.75,-30.5"/>
<text text-anchor="start" x="8" y="-17" font-family="Helvetica,sans-Serif" font-size="10.00">ParagonIE_Sodium_Compat</text>
<text text-anchor="middle" x="69.88" y="-5.75" font-family="Helvetica,sans-Serif" font-size="10.00">\ristretto255_sub</text>
</a>
</g>
</g>
<!-- Node2&#45;&gt;Node3 -->
<g id="edge2_Node000002_Node000003" class="edge">
<title>Node2&#45;&gt;Node3</title>
<g id="a_edge2_Node000002_Node000003"><a xlink:title=" ">
<path fill="none" stroke="#63b8ff" d="M164.11,-15.25C156.08,-15.25 148,-15.25 140.13,-15.25"/>
<polygon fill="#63b8ff" stroke="#63b8ff" points="163.9,-18.75 173.9,-15.25 163.9,-11.75 163.9,-18.75"/>
</a>
</g>
</g>
</g>
</svg>
