<?xml version="1.0" encoding="UTF-8" standalone="no"?>
<!DOCTYPE svg PUBLIC "-//W3C//DTD SVG 1.1//EN"
 "http://www.w3.org/Graphics/SVG/1.1/DTD/svg11.dtd">
<!-- Generated by graphviz version 10.0.1 (20240210.2158)
 -->
<!-- Title: examine Pages: 1 -->
<svg width="517pt" height="119pt"
 viewBox="0.00 0.00 517.00 119.25" xmlns="http://www.w3.org/2000/svg" xmlns:xlink="http://www.w3.org/1999/xlink">
<g id="graph0" class="graph" transform="scale(1 1) rotate(0) translate(4 115.25)">
<title>examine</title>
<!-- Node1 -->
<g id="Node000001" class="node">
<title>Node1</title>
<g id="a_Node000001"><a xlink:title=" ">
<polygon fill="#999999" stroke="#666666" points="52.75,-56.25 0,-56.25 0,-37 52.75,-37 52.75,-56.25"/>
<text text-anchor="middle" x="26.38" y="-42.75" font-family="Helvetica,sans-Serif" font-size="10.00">examine</text>
</a>
</g>
</g>
<!-- Node2 -->
<g id="Node000002" class="node">
<title>Node2</title>
<g id="a_Node000002"><a xlink:href="class_laminas_1_1_mail_1_1_protocol_1_1_imap.html#a220c0b04b6a3c27f90a1082afb716bcc" target="_top" xlink:title=" ">
<polygon fill="white" stroke="#666666" points="179.75,-56.25 88.75,-56.25 88.75,-37 179.75,-37 179.75,-56.25"/>
<text text-anchor="middle" x="134.25" y="-42.75" font-family="Helvetica,sans-Serif" font-size="10.00">examineOrSelect</text>
</a>
</g>
</g>
<!-- Node1&#45;&gt;Node2 -->
<g id="edge1_Node000001_Node000002" class="edge">
<title>Node1&#45;&gt;Node2</title>
<g id="a_edge1_Node000001_Node000002"><a xlink:title=" ">
<path fill="none" stroke="#63b8ff" d="M53,-46.62C60.33,-46.62 68.61,-46.62 77,-46.62"/>
<polygon fill="#63b8ff" stroke="#63b8ff" points="76.92,-50.13 86.92,-46.63 76.92,-43.13 76.92,-50.13"/>
</a>
</g>
</g>
<!-- Node3 -->
<g id="Node000003" class="node">
<title>Node3</title>
<g id="a_Node000003"><a xlink:href="class_laminas_1_1_mail_1_1_protocol_1_1_imap.html#afadf58dcf9a66f9bf52ee8d4a19db97b" target="_top" xlink:title=" ">
<polygon fill="white" stroke="#666666" points="289.12,-93.25 216.12,-93.25 216.12,-74 289.12,-74 289.12,-93.25"/>
<text text-anchor="middle" x="252.62" y="-79.75" font-family="Helvetica,sans-Serif" font-size="10.00">escapeString</text>
</a>
</g>
</g>
<!-- Node2&#45;&gt;Node3 -->
<g id="edge2_Node000002_Node000003" class="edge">
<title>Node2&#45;&gt;Node3</title>
<g id="a_edge2_Node000002_Node000003"><a xlink:title=" ">
<path fill="none" stroke="#63b8ff" d="M167.05,-56.74C180.01,-60.85 195.18,-65.68 209.07,-70.09"/>
<polygon fill="#63b8ff" stroke="#63b8ff" points="207.83,-73.37 218.42,-73.07 209.95,-66.7 207.83,-73.37"/>
</a>
</g>
</g>
<!-- Node4 -->
<g id="Node000004" class="node">
<title>Node4</title>
<g id="a_Node000004"><a xlink:href="class_laminas_1_1_mail_1_1_protocol_1_1_imap.html#a207d3553d58b65ddb528e13736700138" target="_top" xlink:title=" ">
<polygon fill="white" stroke="#666666" points="279,-56.25 226.25,-56.25 226.25,-37 279,-37 279,-56.25"/>
<text text-anchor="middle" x="252.62" y="-42.75" font-family="Helvetica,sans-Serif" font-size="10.00">readLine</text>
</a>
</g>
</g>
<!-- Node2&#45;&gt;Node4 -->
<g id="edge4_Node000002_Node000004" class="edge">
<title>Node2&#45;&gt;Node4</title>
<g id="a_edge4_Node000002_Node000004"><a xlink:title=" ">
<path fill="none" stroke="#63b8ff" d="M180.24,-46.62C191.61,-46.62 203.69,-46.62 214.61,-46.62"/>
<polygon fill="#63b8ff" stroke="#63b8ff" points="214.41,-50.13 224.41,-46.63 214.41,-43.13 214.41,-50.13"/>
</a>
</g>
</g>
<!-- Node8 -->
<g id="Node000008" class="node">
<title>Node8</title>
<g id="a_Node000008"><a xlink:href="class_laminas_1_1_mail_1_1_protocol_1_1_imap.html#a316e24e6eb7c30e6c1d116c0cebf1327" target="_top" xlink:title=" ">
<polygon fill="white" stroke="#666666" points="289.5,-19.25 215.75,-19.25 215.75,0 289.5,0 289.5,-19.25"/>
<text text-anchor="middle" x="252.62" y="-5.75" font-family="Helvetica,sans-Serif" font-size="10.00">sendRequest</text>
</a>
</g>
</g>
<!-- Node2&#45;&gt;Node8 -->
<g id="edge9_Node000002_Node000008" class="edge">
<title>Node2&#45;&gt;Node8</title>
<g id="a_edge9_Node000002_Node000008"><a xlink:title=" ">
<path fill="none" stroke="#63b8ff" d="M167.05,-36.51C180.01,-32.4 195.18,-27.57 209.07,-23.16"/>
<polygon fill="#63b8ff" stroke="#63b8ff" points="209.95,-26.55 218.42,-20.18 207.83,-19.88 209.95,-26.55"/>
</a>
</g>
</g>
<!-- Node3&#45;&gt;Node3 -->
<g id="edge3_Node000003_Node000003" class="edge">
<title>Node3&#45;&gt;Node3</title>
<g id="a_edge3_Node000003_Node000003"><a xlink:title=" ">
<path fill="none" stroke="#63b8ff" d="M234.09,-93.54C225.64,-102.15 231.82,-111.25 252.62,-111.25 264,-111.25 271.01,-108.53 273.64,-104.65"/>
<polygon fill="#63b8ff" stroke="#63b8ff" points="277.08,-104.01 271.49,-95.02 270.25,-105.54 277.08,-104.01"/>
</a>
</g>
</g>
<!-- Node5 -->
<g id="Node000005" class="node">
<title>Node5</title>
<g id="a_Node000005"><a xlink:href="class_laminas_1_1_mail_1_1_protocol_1_1_imap.html#a84839fa405b3425ef711b10a0bb786da" target="_top" xlink:title=" ">
<polygon fill="white" stroke="#666666" points="405.62,-93.25 340.12,-93.25 340.12,-74 405.62,-74 405.62,-93.25"/>
<text text-anchor="middle" x="372.88" y="-79.75" font-family="Helvetica,sans-Serif" font-size="10.00">decodeLine</text>
</a>
</g>
</g>
<!-- Node4&#45;&gt;Node5 -->
<g id="edge5_Node000004_Node000005" class="edge">
<title>Node4&#45;&gt;Node5</title>
<g id="a_edge5_Node000004_Node000005"><a xlink:title=" ">
<path fill="none" stroke="#63b8ff" d="M279.28,-54.65C293.88,-59.22 312.54,-65.06 329.28,-70.3"/>
<polygon fill="#63b8ff" stroke="#63b8ff" points="327.9,-73.53 338.49,-73.18 329.99,-66.85 327.9,-73.53"/>
</a>
</g>
</g>
<!-- Node7 -->
<g id="Node000007" class="node">
<title>Node7</title>
<g id="a_Node000007"><a xlink:href="class_laminas_1_1_mail_1_1_protocol_1_1_imap.html#a1ce3109772526dcae2e801284abef0f5" target="_top" xlink:title=" ">
<polygon fill="white" stroke="#666666" points="415,-56.25 330.75,-56.25 330.75,-37 415,-37 415,-56.25"/>
<text text-anchor="middle" x="372.88" y="-42.75" font-family="Helvetica,sans-Serif" font-size="10.00">nextTaggedLine</text>
</a>
</g>
</g>
<!-- Node4&#45;&gt;Node7 -->
<g id="edge7_Node000004_Node000007" class="edge">
<title>Node4&#45;&gt;Node7</title>
<g id="a_edge7_Node000004_Node000007"><a xlink:title=" ">
<path fill="none" stroke="#63b8ff" d="M279.28,-46.62C290.96,-46.62 305.23,-46.62 319.04,-46.62"/>
<polygon fill="#63b8ff" stroke="#63b8ff" points="318.95,-50.13 328.95,-46.63 318.95,-43.13 318.95,-50.13"/>
</a>
</g>
</g>
<!-- Node6 -->
<g id="Node000006" class="node">
<title>Node6</title>
<g id="a_Node000006"><a xlink:href="class_laminas_1_1_mail_1_1_protocol_1_1_imap.html#a6d666e2d048380c0c1f55933bf83aa01" target="_top" xlink:title=" ">
<polygon fill="white" stroke="#666666" points="509,-56.25 456.25,-56.25 456.25,-37 509,-37 509,-56.25"/>
<text text-anchor="middle" x="482.62" y="-42.75" font-family="Helvetica,sans-Serif" font-size="10.00">nextLine</text>
</a>
</g>
</g>
<!-- Node5&#45;&gt;Node6 -->
<g id="edge6_Node000005_Node000006" class="edge">
<title>Node5&#45;&gt;Node6</title>
<g id="a_edge6_Node000005_Node000006"><a xlink:title=" ">
<path fill="none" stroke="#63b8ff" d="M403.32,-73.51C416.3,-69.06 431.68,-63.78 445.36,-59.08"/>
<polygon fill="#63b8ff" stroke="#63b8ff" points="446.13,-62.51 454.45,-55.96 443.86,-55.89 446.13,-62.51"/>
</a>
</g>
</g>
<!-- Node7&#45;&gt;Node6 -->
<g id="edge8_Node000007_Node000006" class="edge">
<title>Node7&#45;&gt;Node6</title>
<g id="a_edge8_Node000007_Node000006"><a xlink:title=" ">
<path fill="none" stroke="#63b8ff" d="M415.23,-46.62C424.82,-46.62 434.98,-46.62 444.39,-46.62"/>
<polygon fill="#63b8ff" stroke="#63b8ff" points="444.29,-50.13 454.29,-46.63 444.29,-43.13 444.29,-50.13"/>
</a>
</g>
</g>
<!-- Node9 -->
<g id="Node000009" class="node">
<title>Node9</title>
<g id="a_Node000009"><a xlink:href="class_laminas_1_1_mail_1_1_protocol_1_1_imap.html#ad4d8ede6cfaa32bd3e172b2b9a5a4402" target="_top" xlink:title=" ">
<polygon fill="white" stroke="#666666" points="420.25,-19.25 325.5,-19.25 325.5,0 420.25,0 420.25,-19.25"/>
<text text-anchor="middle" x="372.88" y="-5.75" font-family="Helvetica,sans-Serif" font-size="10.00">assumedNextLine</text>
</a>
</g>
</g>
<!-- Node8&#45;&gt;Node9 -->
<g id="edge10_Node000008_Node000009" class="edge">
<title>Node8&#45;&gt;Node9</title>
<g id="a_edge10_Node000008_Node000009"><a xlink:title=" ">
<path fill="none" stroke="#63b8ff" d="M289.75,-9.62C297.32,-9.62 305.48,-9.62 313.63,-9.62"/>
<polygon fill="#63b8ff" stroke="#63b8ff" points="313.55,-13.13 323.55,-9.63 313.55,-6.13 313.55,-13.13"/>
</a>
</g>
</g>
<!-- Node9&#45;&gt;Node6 -->
<g id="edge11_Node000009_Node000006" class="edge">
<title>Node9&#45;&gt;Node6</title>
<g id="a_edge11_Node000009_Node000006"><a xlink:title=" ">
<path fill="none" stroke="#63b8ff" d="M403.32,-19.74C416.3,-24.19 431.68,-29.47 445.36,-34.17"/>
<polygon fill="#63b8ff" stroke="#63b8ff" points="443.86,-37.36 454.45,-37.29 446.13,-30.74 443.86,-37.36"/>
</a>
</g>
</g>
</g>
</svg>
