<?xml version="1.0" encoding="UTF-8" standalone="no"?>
<!DOCTYPE svg PUBLIC "-//W3C//DTD SVG 1.1//EN"
 "http://www.w3.org/Graphics/SVG/1.1/DTD/svg11.dtd">
<!-- Generated by graphviz version 10.0.1 (20240210.2158)
 -->
<!-- Title: next Pages: 1 -->
<svg width="250pt" height="64pt"
 viewBox="0.00 0.00 249.50 64.25" xmlns="http://www.w3.org/2000/svg" xmlns:xlink="http://www.w3.org/1999/xlink">
<g id="graph0" class="graph" transform="scale(1 1) rotate(0) translate(4 60.25)">
<title>next</title>
<!-- Node1 -->
<g id="Node000001" class="node">
<title>Node1</title>
<g id="a_Node000001"><a xlink:title=" ">
<polygon fill="#999999" stroke="#666666" points="241.5,-37.25 206.75,-37.25 206.75,-18 241.5,-18 241.5,-37.25"/>
<text text-anchor="middle" x="224.12" y="-23.75" font-family="Helvetica,sans-Serif" font-size="10.00">next</text>
</a>
</g>
</g>
<!-- Node1&#45;&gt;Node1 -->
<g id="edge1_Node000001_Node000001" class="edge">
<title>Node1&#45;&gt;Node1</title>
<g id="a_edge1_Node000001_Node000001"><a xlink:title=" ">
<path fill="none" stroke="#63b8ff" d="M241.48,-48.65C239.31,-52.53 233.52,-55.25 224.12,-55.25 206.94,-55.25 201.84,-46.15 208.82,-37.54"/>
<polygon fill="#63b8ff" stroke="#63b8ff" points="244.96,-48.23 239.7,-39.03 238.07,-49.5 244.96,-48.23"/>
</a>
</g>
</g>
<!-- Node2 -->
<g id="Node000002" class="node">
<title>Node2</title>
<g id="a_Node000002"><a xlink:href="class_laminas_1_1_stdlib_1_1_fast_priority_queue.html#a1968fb794a0fabe0532e7d1339fc9f2e" target="_top" xlink:title=" ">
<polygon fill="white" stroke="#666666" points="170.75,-56.25 82,-56.25 82,-37 170.75,-37 170.75,-56.25"/>
<text text-anchor="middle" x="126.38" y="-42.75" font-family="Helvetica,sans-Serif" font-size="10.00">nextAndRemove</text>
</a>
</g>
</g>
<!-- Node1&#45;&gt;Node2 -->
<g id="edge2_Node000001_Node000002" class="edge">
<title>Node1&#45;&gt;Node2</title>
<g id="a_edge2_Node000001_Node000002"><a xlink:title=" ">
<path fill="none" stroke="#63b8ff" d="M195.31,-33.14C187.71,-34.65 179.27,-36.33 171.01,-37.97"/>
<polygon fill="#63b8ff" stroke="#63b8ff" points="195.83,-36.61 204.96,-31.23 194.47,-29.74 195.83,-36.61"/>
</a>
</g>
</g>
<!-- Node4 -->
<g id="Node000004" class="node">
<title>Node4</title>
<g id="a_Node000004"><a xlink:href="class_laminas_1_1_stdlib_1_1_fast_priority_queue.html#ae62e61c6cc8d2975e6a63c5d8c5790a7" target="_top" xlink:title=" ">
<polygon fill="white" stroke="#666666" points="150.5,-19.25 102.25,-19.25 102.25,0 150.5,0 150.5,-19.25"/>
<text text-anchor="middle" x="126.38" y="-5.75" font-family="Helvetica,sans-Serif" font-size="10.00">remove</text>
</a>
</g>
</g>
<!-- Node1&#45;&gt;Node4 -->
<g id="edge4_Node000001_Node000004" class="edge">
<title>Node1&#45;&gt;Node4</title>
<g id="a_edge4_Node000001_Node000004"><a xlink:title=" ">
<path fill="none" stroke="#63b8ff" d="M195.36,-22.41C181.19,-19.74 164.15,-16.54 150.68,-14.01"/>
<polygon fill="#63b8ff" stroke="#63b8ff" points="194.48,-25.8 204.96,-24.21 195.78,-18.92 194.48,-25.8"/>
</a>
</g>
</g>
<!-- Node3 -->
<g id="Node000003" class="node">
<title>Node3</title>
<g id="a_Node000003"><a xlink:href="class_laminas_1_1_stdlib_1_1_fast_priority_queue.html#a017ef4fbe3e4fedcdffd97fed288016f" target="_top" xlink:title=" ">
<polygon fill="white" stroke="#666666" points="46,-56.25 0,-56.25 0,-37 46,-37 46,-56.25"/>
<text text-anchor="middle" x="23" y="-42.75" font-family="Helvetica,sans-Serif" font-size="10.00">extract</text>
</a>
</g>
</g>
<!-- Node2&#45;&gt;Node3 -->
<g id="edge3_Node000002_Node000003" class="edge">
<title>Node2&#45;&gt;Node3</title>
<g id="a_edge3_Node000002_Node000003"><a xlink:title=" ">
<path fill="none" stroke="#63b8ff" d="M70.09,-46.62C61.74,-46.62 53.56,-46.62 46.46,-46.62"/>
<polygon fill="#63b8ff" stroke="#63b8ff" points="69.99,-50.13 79.99,-46.63 69.99,-43.13 69.99,-50.13"/>
</a>
</g>
</g>
</g>
</svg>
