<?xml version="1.0" encoding="UTF-8" standalone="no"?>
<!DOCTYPE svg PUBLIC "-//W3C//DTD SVG 1.1//EN"
 "http://www.w3.org/Graphics/SVG/1.1/DTD/svg11.dtd">
<!-- Generated by graphviz version 10.0.1 (20240210.2158)
 -->
<!-- Title: validate Pages: 1 -->
<svg width="396pt" height="57pt"
 viewBox="0.00 0.00 395.75 56.50" xmlns="http://www.w3.org/2000/svg" xmlns:xlink="http://www.w3.org/1999/xlink">
<g id="graph0" class="graph" transform="scale(1 1) rotate(0) translate(4 52.5)">
<title>validate</title>
<!-- Node1 -->
<g id="Node000001" class="node">
<title>Node1</title>
<g id="a_Node000001"><a xlink:title=" ">
<polygon fill="#999999" stroke="#666666" points="49.75,-24.88 0,-24.88 0,-5.63 49.75,-5.63 49.75,-24.88"/>
<text text-anchor="middle" x="24.88" y="-11.38" font-family="Helvetica,sans-Serif" font-size="10.00">validate</text>
</a>
</g>
</g>
<!-- Node2 -->
<g id="Node000002" class="node">
<title>Node2</title>
<g id="a_Node000002"><a xlink:href="class_sabre_1_1_v_object_1_1_component.html#a4a0dd3faad9f368686cbba82448b44fe" target="_top" xlink:title=" ">
<polygon fill="white" stroke="#666666" points="218.75,-30.5 85.75,-30.5 85.75,0 218.75,0 218.75,-30.5"/>
<text text-anchor="start" x="93.75" y="-17" font-family="Helvetica,sans-Serif" font-size="10.00">Sabre\VObject\Component</text>
<text text-anchor="middle" x="152.25" y="-5.75" font-family="Helvetica,sans-Serif" font-size="10.00">\select</text>
</a>
</g>
</g>
<!-- Node1&#45;&gt;Node2 -->
<g id="edge1_Node000001_Node000002" class="edge">
<title>Node1&#45;&gt;Node2</title>
<g id="a_edge1_Node000001_Node000002"><a xlink:title=" ">
<path fill="none" stroke="#63b8ff" d="M50.05,-15.25C57.17,-15.25 65.38,-15.25 73.98,-15.25"/>
<polygon fill="#63b8ff" stroke="#63b8ff" points="73.93,-18.75 83.93,-15.25 73.93,-11.75 73.93,-18.75"/>
</a>
</g>
</g>
<!-- Node3 -->
<g id="Node000003" class="node">
<title>Node3</title>
<g id="a_Node000003"><a xlink:href="class_sabre_1_1_v_object_1_1_component.html#a96b7b4a7058b19acb14d9f844c1e4736" target="_top" xlink:title=" ">
<polygon fill="white" stroke="#666666" points="387.75,-30.5 254.75,-30.5 254.75,0 387.75,0 387.75,-30.5"/>
<text text-anchor="start" x="262.75" y="-17" font-family="Helvetica,sans-Serif" font-size="10.00">Sabre\VObject\Component</text>
<text text-anchor="middle" x="321.25" y="-5.75" font-family="Helvetica,sans-Serif" font-size="10.00">\children</text>
</a>
</g>
</g>
<!-- Node2&#45;&gt;Node3 -->
<g id="edge2_Node000002_Node000003" class="edge">
<title>Node2&#45;&gt;Node3</title>
<g id="a_edge2_Node000002_Node000003"><a xlink:title=" ">
<path fill="none" stroke="#63b8ff" d="M218.77,-15.25C226.72,-15.25 234.9,-15.25 243,-15.25"/>
<polygon fill="#63b8ff" stroke="#63b8ff" points="242.85,-18.75 252.85,-15.25 242.85,-11.75 242.85,-18.75"/>
</a>
</g>
</g>
<!-- Node3&#45;&gt;Node3 -->
<g id="edge3_Node000003_Node000003" class="edge">
<title>Node3&#45;&gt;Node3</title>
<g id="a_edge3_Node000003_Node000003"><a xlink:title=" ">
<path fill="none" stroke="#63b8ff" d="M291.3,-30.99C285.19,-40.06 295.17,-48.5 321.25,-48.5 335.51,-48.5 344.96,-45.97 349.59,-42.2"/>
<polygon fill="#63b8ff" stroke="#63b8ff" points="353.03,-42.88 350.98,-32.48 346.1,-41.89 353.03,-42.88"/>
</a>
</g>
</g>
</g>
</svg>
