<?xml version="1.0" encoding="UTF-8" standalone="no"?>
<!DOCTYPE svg PUBLIC "-//W3C//DTD SVG 1.1//EN"
 "http://www.w3.org/Graphics/SVG/1.1/DTD/svg11.dtd">
<!-- Generated by graphviz version 10.0.1 (20240210.2158)
 -->
<!-- Title: add364 Pages: 1 -->
<svg width="214pt" height="27pt"
 viewBox="0.00 0.00 214.25 27.25" xmlns="http://www.w3.org/2000/svg" xmlns:xlink="http://www.w3.org/1999/xlink">
<g id="graph0" class="graph" transform="scale(1 1) rotate(0) translate(4 23.25)">
<title>add364</title>
<!-- Node1 -->
<g id="Node000001" class="node">
<title>Node1</title>
<g id="a_Node000001"><a xlink:title=" ">
<polygon fill="#999999" stroke="#666666" points="47.5,-19.25 0,-19.25 0,0 47.5,0 47.5,-19.25"/>
<text text-anchor="middle" x="23.75" y="-5.75" font-family="Helvetica,sans-Serif" font-size="10.00">add364</text>
</a>
</g>
</g>
<!-- Node2 -->
<g id="Node000002" class="node">
<title>Node2</title>
<g id="a_Node000002"><a xlink:href="class_paragon_i_e___sodium___core___b_l_a_k_e2b.html#ad3ee90c2982f34b295c84f2f61b21367" target="_top" xlink:title=" ">
<polygon fill="white" stroke="#666666" points="125.75,-19.25 83.5,-19.25 83.5,0 125.75,0 125.75,-19.25"/>
<text text-anchor="middle" x="104.62" y="-5.75" font-family="Helvetica,sans-Serif" font-size="10.00">add64</text>
</a>
</g>
</g>
<!-- Node1&#45;&gt;Node2 -->
<g id="edge1_Node000001_Node000002" class="edge">
<title>Node1&#45;&gt;Node2</title>
<g id="a_edge1_Node000001_Node000002"><a xlink:title=" ">
<path fill="none" stroke="#63b8ff" d="M47.99,-9.62C55.5,-9.62 63.96,-9.62 71.97,-9.62"/>
<polygon fill="#63b8ff" stroke="#63b8ff" points="71.72,-13.13 81.72,-9.63 71.72,-6.13 71.72,-13.13"/>
</a>
</g>
</g>
<!-- Node3 -->
<g id="Node000003" class="node">
<title>Node3</title>
<g id="a_Node000003"><a xlink:href="class_paragon_i_e___sodium___core___b_l_a_k_e2b.html#a6affc0699061e80f21a333a8419974f5" target="_top" xlink:title=" ">
<polygon fill="white" stroke="#666666" points="206.25,-19.25 161.75,-19.25 161.75,0 206.25,0 206.25,-19.25"/>
<text text-anchor="middle" x="184" y="-5.75" font-family="Helvetica,sans-Serif" font-size="10.00">new64</text>
</a>
</g>
</g>
<!-- Node2&#45;&gt;Node3 -->
<g id="edge2_Node000002_Node000003" class="edge">
<title>Node2&#45;&gt;Node3</title>
<g id="a_edge2_Node000002_Node000003"><a xlink:title=" ">
<path fill="none" stroke="#63b8ff" d="M125.95,-9.62C133.38,-9.62 141.98,-9.62 150.22,-9.62"/>
<polygon fill="#63b8ff" stroke="#63b8ff" points="149.94,-13.13 159.94,-9.63 149.94,-6.13 149.94,-13.13"/>
</a>
</g>
</g>
</g>
</svg>
