<?xml version="1.0" encoding="UTF-8" standalone="no"?>
<!DOCTYPE svg PUBLIC "-//W3C//DTD SVG 1.1//EN"
 "http://www.w3.org/Graphics/SVG/1.1/DTD/svg11.dtd">
<!-- Generated by graphviz version 10.0.1 (20240210.2158)
 -->
<!-- Title: Specificity Pages: 1 -->
<svg width="148pt" height="232pt"
 viewBox="0.00 0.00 148.00 231.75" xmlns="http://www.w3.org/2000/svg" xmlns:xlink="http://www.w3.org/1999/xlink">
<g id="graph0" class="graph" transform="scale(1 1) rotate(0) translate(4 227.75)">
<title>Specificity</title>
<!-- Node1 -->
<g id="Node000001" class="node">
<title>Node1</title>
<g id="a_Node000001"><a xlink:title=" ">
<polygon fill="#999999" stroke="none" points="140,-105 0,-105 0,0 140,0 140,-105"/>
<text text-anchor="start" x="47.12" y="-91.5" font-family="Helvetica,sans-Serif" font-size="10.00">Specificity</text>
<text text-anchor="start" x="68.5" y="-76.5" font-family="Helvetica,sans-Serif" font-size="10.00"> </text>
<text text-anchor="start" x="4" y="-61.5" font-family="Helvetica,sans-Serif" font-size="10.00">+</text>
<text text-anchor="start" x="14" y="-61.5" font-family="Helvetica,sans-Serif" font-size="10.00">__construct(int $a,</text>
<text text-anchor="start" x="14" y="-50.25" font-family="Helvetica,sans-Serif" font-size="10.00"> int $b, int $c)</text>
<text text-anchor="start" x="4" y="-35.5" font-family="Helvetica,sans-Serif" font-size="10.00">+</text>
<text text-anchor="start" x="14" y="-35.5" font-family="Helvetica,sans-Serif" font-size="10.00">plus(self $specificity)</text>
<text text-anchor="start" x="4" y="-20.5" font-family="Helvetica,sans-Serif" font-size="10.00">+</text>
<text text-anchor="start" x="14" y="-20.5" font-family="Helvetica,sans-Serif" font-size="10.00">getValue()</text>
<text text-anchor="start" x="4" y="-5.5" font-family="Helvetica,sans-Serif" font-size="10.00">+</text>
<text text-anchor="start" x="14" y="-5.5" font-family="Helvetica,sans-Serif" font-size="10.00">compareTo(self $specificity)</text>
<polygon fill="#666666" stroke="#666666" points="0,-88 0,-88 140,-88 140,-88 0,-88"/>
<polygon fill="#666666" stroke="#666666" points="0,-73 0,-73 140,-73 140,-73 0,-73"/>
<polygon fill="none" stroke="#666666" points="0,0 0,-105 140,-105 140,0 0,0"/>
</a>
</g>
</g>
<!-- Node2 -->
<g id="Node000002" class="node">
<title>Node2</title>
<g id="a_Node000002"><a xlink:title=" ">
<polygon fill="white" stroke="none" points="87,-223.75 53,-223.75 53,-174.75 87,-174.75 87,-223.75"/>
<text text-anchor="start" x="58" y="-210.25" font-family="Helvetica,sans-Serif" font-size="10.00">const</text>
<text text-anchor="start" x="68.5" y="-195.25" font-family="Helvetica,sans-Serif" font-size="10.00"> </text>
<text text-anchor="start" x="68.5" y="-180.25" font-family="Helvetica,sans-Serif" font-size="10.00"> </text>
<polygon fill="#666666" stroke="#666666" points="53,-206.75 53,-206.75 87,-206.75 87,-206.75 53,-206.75"/>
<polygon fill="#666666" stroke="#666666" points="53,-191.75 53,-191.75 87,-191.75 87,-191.75 53,-191.75"/>
<polygon fill="none" stroke="#666666" points="53,-174.75 53,-223.75 87,-223.75 87,-174.75 53,-174.75"/>
</a>
</g>
</g>
<!-- Node2&#45;&gt;Node1 -->
<g id="edge1_Node000001_Node000002" class="edge">
<title>Node2&#45;&gt;Node1</title>
<g id="a_edge1_Node000001_Node000002"><a xlink:title=" ">
<path fill="none" stroke="#63b8ff" d="M70,-174.99C70,-159.45 70,-138.18 70,-117.78"/>
<polygon fill="none" stroke="#63b8ff" points="70,-117.81 66,-111.81 70,-105.81 74,-111.81 70,-117.81"/>
</a>
</g>
<text text-anchor="middle" x="101.12" y="-147.25" font-family="Helvetica,sans-Serif" font-size="10.00" fill="grey"> +A_FACTOR</text>
<text text-anchor="middle" x="101.12" y="-136" font-family="Helvetica,sans-Serif" font-size="10.00" fill="grey">+B_FACTOR</text>
<text text-anchor="middle" x="101.12" y="-124.75" font-family="Helvetica,sans-Serif" font-size="10.00" fill="grey">+C_FACTOR</text>
</g>
</g>
</svg>
