<?xml version="1.0" encoding="UTF-8" standalone="no"?>
<!DOCTYPE svg PUBLIC "-//W3C//DTD SVG 1.1//EN"
 "http://www.w3.org/Graphics/SVG/1.1/DTD/svg11.dtd">
<!-- Generated by graphviz version 10.0.1 (20240210.2158)
 -->
<!-- Title: MethodNotAllowed Pages: 1 -->
<svg width="134pt" height="316pt"
 viewBox="0.00 0.00 134.00 316.00" xmlns="http://www.w3.org/2000/svg" xmlns:xlink="http://www.w3.org/1999/xlink">

<svg id="main" version="1.1" xmlns="http://www.w3.org/2000/svg" xmlns:xlink="http://www.w3.org/1999/xlink" xml:space="preserve" onload="init(evt)">
<style type="text/css"><![CDATA[
.node, .edge {opacity: 0.7;}
.node.selected, .edge.selected {opacity: 1;}
.edge:hover path { stroke: red; }
.edge:hover polygon { stroke: red; fill: red; }
]]></style>
<script type="application/ecmascript" xlink:href="svg.min.js"/>
<svg id="graph" class="graph">
<g id="graph0" class="graph" transform="scale(1 1) rotate(0) translate(4 312)">
<title>MethodNotAllowed</title>
<!-- Node1 -->
<g id="Node000001" class="node">
<title>Node1</title>
<g id="a_Node000001"><a xlink:title=" ">
<polygon fill="#999999" stroke="none" points="126,-75 0,-75 0,0 126,0 126,-75"/>
<text text-anchor="start" x="21.75" y="-61.5" font-family="Helvetica,sans-Serif" font-size="10.00">MethodNotAllowed</text>
<text text-anchor="start" x="61.5" y="-46.5" font-family="Helvetica,sans-Serif" font-size="10.00"> </text>
<text text-anchor="start" x="4" y="-31.5" font-family="Helvetica,sans-Serif" font-size="10.00">+</text>
<text text-anchor="start" x="14" y="-31.5" font-family="Helvetica,sans-Serif" font-size="10.00">getHTTPCode()</text>
<text text-anchor="start" x="4" y="-16.5" font-family="Helvetica,sans-Serif" font-size="10.00">+</text>
<text text-anchor="start" x="14" y="-16.5" font-family="Helvetica,sans-Serif" font-size="10.00">getHTTPHeaders(Server</text>
<text text-anchor="start" x="14" y="-5.25" font-family="Helvetica,sans-Serif" font-size="10.00"> $server)</text>
<polygon fill="#666666" stroke="#666666" points="0,-58 0,-58 126,-58 126,-58 0,-58"/>
<polygon fill="#666666" stroke="#666666" points="0,-43 0,-43 126,-43 126,-43 0,-43"/>
<polygon fill="none" stroke="#666666" points="0,0 0,-75 126,-75 126,0 0,0"/>
</a>
</g>
</g>
<!-- Node2 -->
<g id="Node000002" class="node">
<title>Node2</title>
<g id="a_Node000002"><a xlink:href="class_sabre_1_1_d_a_v_1_1_exception.html" target="_top" xlink:title=" ">
<polygon fill="white" stroke="none" points="126,-223 0,-223 0,-111 126,-111 126,-223"/>
<text text-anchor="start" x="41.25" y="-209.5" font-family="Helvetica,sans-Serif" font-size="10.00">Exception</text>
<text text-anchor="start" x="61.5" y="-194.5" font-family="Helvetica,sans-Serif" font-size="10.00"> </text>
<text text-anchor="start" x="4" y="-179.5" font-family="Helvetica,sans-Serif" font-size="10.00">+</text>
<text text-anchor="start" x="14" y="-179.5" font-family="Helvetica,sans-Serif" font-size="10.00">getHTTPCode()</text>
<text text-anchor="start" x="4" y="-164.5" font-family="Helvetica,sans-Serif" font-size="10.00">+</text>
<text text-anchor="start" x="14" y="-164.5" font-family="Helvetica,sans-Serif" font-size="10.00">serialize(Server </text>
<text text-anchor="start" x="14" y="-153.25" font-family="Helvetica,sans-Serif" font-size="10.00">$server, \DOMElement</text>
<text text-anchor="start" x="14" y="-142" font-family="Helvetica,sans-Serif" font-size="10.00"> $errorNode)</text>
<text text-anchor="start" x="4" y="-127.5" font-family="Helvetica,sans-Serif" font-size="10.00">+</text>
<text text-anchor="start" x="14" y="-127.5" font-family="Helvetica,sans-Serif" font-size="10.00">getHTTPHeaders(Server</text>
<text text-anchor="start" x="14" y="-116.25" font-family="Helvetica,sans-Serif" font-size="10.00"> $server)</text>
<polygon fill="#666666" stroke="#666666" points="0,-206 0,-206 126,-206 126,-206 0,-206"/>
<polygon fill="#666666" stroke="#666666" points="0,-191 0,-191 126,-191 126,-191 0,-191"/>
<polygon fill="none" stroke="#666666" points="0,-111 0,-223 126,-223 126,-111 0,-111"/>
</a>
</g>
</g>
<!-- Node2&#45;&gt;Node1 -->
<g id="edge1_Node000001_Node000002" class="edge">
<title>Node2&#45;&gt;Node1</title>
<g id="a_edge1_Node000001_Node000002"><a xlink:title=" ">
<path fill="none" stroke="#63b8ff" d="M63,-99.89C63,-91.28 63,-82.72 63,-74.86"/>
<polygon fill="none" stroke="#63b8ff" points="59.5,-99.68 63,-109.68 66.5,-99.68 59.5,-99.68"/>
</a>
</g>
</g>
<!-- Node3 -->
<g id="Node000003" class="node">
<title>Node3</title>
<g id="a_Node000003"><a xlink:title=" ">
<polygon fill="white" stroke="none" points="89.5,-308 36.5,-308 36.5,-259 89.5,-259 89.5,-308"/>
<text text-anchor="start" x="41.25" y="-294.5" font-family="Helvetica,sans-Serif" font-size="10.00">Exception</text>
<text text-anchor="start" x="61.5" y="-279.5" font-family="Helvetica,sans-Serif" font-size="10.00"> </text>
<text text-anchor="start" x="61.5" y="-264.5" font-family="Helvetica,sans-Serif" font-size="10.00"> </text>
<polygon fill="#666666" stroke="#666666" points="36.5,-291 36.5,-291 89.5,-291 89.5,-291 36.5,-291"/>
<polygon fill="#666666" stroke="#666666" points="36.5,-276 36.5,-276 89.5,-276 89.5,-276 36.5,-276"/>
<polygon fill="none" stroke="#666666" points="36.5,-259 36.5,-308 89.5,-308 89.5,-259 36.5,-259"/>
</a>
</g>
</g>
<!-- Node3&#45;&gt;Node2 -->
<g id="edge2_Node000002_Node000003" class="edge">
<title>Node3&#45;&gt;Node2</title>
<g id="a_edge2_Node000002_Node000003"><a xlink:title=" ">
<path fill="none" stroke="#63b8ff" d="M63,-247.65C63,-239.73 63,-231.14 63,-222.62"/>
<polygon fill="none" stroke="#63b8ff" points="59.5,-247.54 63,-257.54 66.5,-247.54 59.5,-247.54"/>
</a>
</g>
</g>
</g>
</svg>
</svg>

<style type='text/css'>
<![CDATA[
[data-mouse-over-selected='false'] { opacity: 0.7; }
[data-mouse-over-selected='true']  { opacity: 1.0; }
]]>
</style>
<script type="application/ecmascript"><![CDATA[
document.addEventListener('DOMContentLoaded', (event) => {
  highlightEdges();
  highlightAdjacentNodes();
});
]]></script>
</svg>
