<?xml version="1.0" encoding="UTF-8" standalone="no"?>
<!DOCTYPE svg PUBLIC "-//W3C//DTD SVG 1.1//EN"
 "http://www.w3.org/Graphics/SVG/1.1/DTD/svg11.dtd">
<!-- Generated by graphviz version 10.0.1 (20240210.2158)
 -->
<!-- Title: showFormSetupHelpdesk Pages: 1 -->
<svg width="375pt" height="138pt"
 viewBox="0.00 0.00 374.80 138.25" xmlns="http://www.w3.org/2000/svg" xmlns:xlink="http://www.w3.org/1999/xlink">

<svg id="main" version="1.1" xmlns="http://www.w3.org/2000/svg" xmlns:xlink="http://www.w3.org/1999/xlink" xml:space="preserve" onload="init(evt)">
<style type="text/css"><![CDATA[
.node, .edge {opacity: 0.7;}
.node.selected, .edge.selected {opacity: 1;}
.edge:hover path { stroke: red; }
.edge:hover polygon { stroke: red; fill: red; }
]]></style>
<script type="application/ecmascript" xlink:href="svg.min.js"/>
<svg id="graph" class="graph">
<g id="graph0" class="graph" transform="scale(1 1) rotate(0) translate(4 134.25)">
<title>showFormSetupHelpdesk</title>
<!-- Node1 -->
<g id="Node000001" class="node">
<title>Node1</title>
<g id="a_Node000001"><a xlink:title=" ">
<polygon fill="#999999" stroke="#666666" points="128.5,-74.25 0,-74.25 0,-55 128.5,-55 128.5,-74.25"/>
<text text-anchor="middle" x="64.25" y="-60.75" font-family="Helvetica,sans-Serif" font-size="10.00">showFormSetupHelpdesk</text>
</a>
</g>
</g>
<!-- Node2 -->
<g id="Node000002" class="node">
<title>Node2</title>
<g id="a_Node000002"><a xlink:href="autoload_8function_8php.html#affc4787304a41a695a489fc24d60877d" target="_top" xlink:title=" ">
<polygon fill="white" stroke="#666666" points="249.12,-130.25 217.38,-130.25 217.38,-111 249.12,-111 249.12,-130.25"/>
<text text-anchor="middle" x="233.25" y="-116.75" font-family="Helvetica,sans-Serif" font-size="10.00">_sx</text>
</a>
</g>
</g>
<!-- Node1&#45;&gt;Node2 -->
<g id="edge1_Node000001_Node000002" class="edge">
<title>Node1&#45;&gt;Node2</title>
<g id="a_edge1_Node000001_Node000002"><a xlink:title=" ">
<path fill="none" stroke="#63b8ff" d="M89.47,-74.72C109.4,-82.84 138.52,-94.23 164.5,-102.62 178.01,-106.99 193.29,-111.12 205.91,-114.32"/>
<polygon fill="#63b8ff" stroke="#63b8ff" points="205.03,-117.71 215.58,-116.71 206.71,-110.91 205.03,-117.71"/>
</a>
</g>
</g>
<!-- Node4 -->
<g id="Node000004" class="node">
<title>Node4</title>
<g id="a_Node000004"><a xlink:href="class_profile.html#abf389757e126e9d3d785925cf2c5596c" target="_top" xlink:title=" ">
<polygon fill="white" stroke="#666666" points="299.75,-93.25 166.75,-93.25 166.75,-74 299.75,-74 299.75,-93.25"/>
<text text-anchor="middle" x="233.25" y="-79.75" font-family="Helvetica,sans-Serif" font-size="10.00">displayRightsChoiceMatrix</text>
</a>
</g>
</g>
<!-- Node1&#45;&gt;Node4 -->
<g id="edge3_Node000001_Node000004" class="edge">
<title>Node1&#45;&gt;Node4</title>
<g id="a_edge3_Node000001_Node000004"><a xlink:title=" ">
<path fill="none" stroke="#63b8ff" d="M128.86,-71.86C137.39,-72.83 146.2,-73.84 154.93,-74.83"/>
<polygon fill="#63b8ff" stroke="#63b8ff" points="154.48,-78.3 164.82,-75.95 155.28,-71.34 154.48,-78.3"/>
</a>
</g>
</g>
<!-- Node5 -->
<g id="Node000005" class="node">
<title>Node5</title>
<g id="a_Node000005"><a xlink:href="class_common_g_l_p_i.html#af6dc8cb908bd14b99d0e90e9fcbeab0d" target="_top" xlink:title=" ">
<polygon fill="white" stroke="#666666" points="302,-56.25 164.5,-56.25 164.5,-37 302,-37 302,-56.25"/>
<text text-anchor="middle" x="233.25" y="-42.75" font-family="Helvetica,sans-Serif" font-size="10.00">CommonGLPI\getFormURL</text>
</a>
</g>
</g>
<!-- Node1&#45;&gt;Node5 -->
<g id="edge4_Node000001_Node000005" class="edge">
<title>Node1&#45;&gt;Node5</title>
<g id="a_edge4_Node000001_Node000005"><a xlink:title=" ">
<path fill="none" stroke="#63b8ff" d="M128.86,-57.77C136.69,-56.92 144.77,-56.05 152.8,-55.19"/>
<polygon fill="#63b8ff" stroke="#63b8ff" points="153.02,-58.69 162.58,-54.13 152.27,-51.73 153.02,-58.69"/>
</a>
</g>
</g>
<!-- Node6 -->
<g id="Node000006" class="node">
<title>Node6</title>
<g id="a_Node000006"><a xlink:href="class_profile.html#ac4cf18899c28fd6201cb6bd8663a90b2" target="_top" xlink:title=" ">
<polygon fill="white" stroke="#666666" points="268.62,-19.25 197.88,-19.25 197.88,0 268.62,0 268.62,-19.25"/>
<text text-anchor="middle" x="233.25" y="-5.75" font-family="Helvetica,sans-Serif" font-size="10.00">showLegend</text>
</a>
</g>
</g>
<!-- Node1&#45;&gt;Node6 -->
<g id="edge5_Node000001_Node000006" class="edge">
<title>Node1&#45;&gt;Node6</title>
<g id="a_edge5_Node000001_Node000006"><a xlink:title=" ">
<path fill="none" stroke="#63b8ff" d="M90.31,-54.51C110.23,-46.66 138.92,-35.77 164.5,-27.62 171.58,-25.37 179.15,-23.16 186.55,-21.12"/>
<polygon fill="#63b8ff" stroke="#63b8ff" points="187.39,-24.52 196.13,-18.53 185.57,-17.76 187.39,-24.52"/>
</a>
</g>
</g>
<!-- Node3 -->
<g id="Node000003" class="node">
<title>Node3</title>
<g id="a_Node000003"><a xlink:href="autoload_8function_8php.html#a2111ba1b23d22b49aee91462961bda8a" target="_top" xlink:title=" ">
<polygon fill="white" stroke="#666666" points="366.8,-130.25 338,-130.25 338,-111 366.8,-111 366.8,-130.25"/>
<text text-anchor="middle" x="352.4" y="-116.75" font-family="Helvetica,sans-Serif" font-size="10.00">_x</text>
</a>
</g>
</g>
<!-- Node2&#45;&gt;Node3 -->
<g id="edge2_Node000002_Node000003" class="edge">
<title>Node2&#45;&gt;Node3</title>
<g id="a_edge2_Node000002_Node000003"><a xlink:title=" ">
<path fill="none" stroke="#63b8ff" d="M249.57,-120.62C269.02,-120.62 302.85,-120.62 326.15,-120.62"/>
<polygon fill="#63b8ff" stroke="#63b8ff" points="326.03,-124.13 336.03,-120.63 326.03,-117.13 326.03,-124.13"/>
</a>
</g>
</g>
</g>
</svg>
</svg>

<style type='text/css'>
<![CDATA[
[data-mouse-over-selected='false'] { opacity: 0.7; }
[data-mouse-over-selected='true']  { opacity: 1.0; }
]]>
</style>
<script type="application/ecmascript"><![CDATA[
document.addEventListener('DOMContentLoaded', (event) => {
  highlightEdges();
  highlightAdjacentNodes();
});
]]></script>
</svg>
