<?xml version="1.0" encoding="UTF-8" standalone="no"?>
<!DOCTYPE svg PUBLIC "-//W3C//DTD SVG 1.1//EN"
 "http://www.w3.org/Graphics/SVG/1.1/DTD/svg11.dtd">
<!-- Generated by graphviz version 10.0.1 (20240210.2158)
 -->
<!-- Title: Circle Pages: 1 -->
<!--zoomable 323 -->

<svg id="main" version="1.1" xmlns="http://www.w3.org/2000/svg" xmlns:xlink="http://www.w3.org/1999/xlink" xml:space="preserve" onload="init(evt)">
<style type="text/css"><![CDATA[
.node, .edge {opacity: 0.7;}
.node.selected, .edge.selected {opacity: 1;}
.edge:hover path { stroke: red; }
.edge:hover polygon { stroke: red; fill: red; }
]]></style>

<defs>
  <circle id="rim" cx="0" cy="0" r="7"/>
  <circle id="rim2" cx="0" cy="0" r="3.5"/>
  <g id="zoomPlus">
    <use xlink:href="#rim" fill="#404040"><set attributeName="fill" to="#808080" begin="zoomplus.mouseover" end="zoomplus.mouseout"/></use>
    <path d="M-4,0h8M0,-4v8" fill="none" stroke="white" stroke-width="1.5" pointer-events="none"/>
  </g>
  <g id="zoomMin">
    <use xlink:href="#rim" fill="#404040"><set attributeName="fill" to="#808080" begin="zoomminus.mouseover" end="zoomminus.mouseout"/></use>
    <path d="M-4,0h8" fill="none" stroke="white" stroke-width="1.5" pointer-events="none"/>
  </g>
  <g id="arrowUp" transform="translate(30 24)">
    <use xlink:href="#rim"/>
    <path pointer-events="none" fill="none" stroke="white" stroke-width="1.5" d="M0,-3.0v7 M-2.5,-0.5L0,-3.0L2.5,-0.5"/>
  </g>
  <g id="arrowRight" transform="rotate(90) translate(36 -43)">
    <use xlink:href="#rim"/>
    <path pointer-events="none" fill="none" stroke="white" stroke-width="1.5" d="M0,-3.0v7 M-2.5,-0.5L0,-3.0L2.5,-0.5"/>
  </g>
  <g id="arrowDown" transform="rotate(180) translate(-30 -48)">
    <use xlink:href="#rim"/>
    <path pointer-events="none" fill="none" stroke="white" stroke-width="1.5" d="M0,-3.0v7 M-2.5,-0.5L0,-3.0L2.5,-0.5"/>
  </g>
  <g id="arrowLeft" transform="rotate(270) translate(-36 17)">
    <use xlink:href="#rim"/>
    <path pointer-events="none" fill="none" stroke="white" stroke-width="1.5" d="M0,-3.0v7 M-2.5,-0.5L0,-3.0L2.5,-0.5"/>
  </g>
  <g id="resetDef">
    <use xlink:href="#rim2" fill="#404040"><set attributeName="fill" to="#808080" begin="reset.mouseover" end="reset.mouseout"/></use>
  </g>
</defs>
<script type="application/ecmascript">
var viewWidth = 1648;
var viewHeight = 323;
var sectionId = 'dynsection-146';
</script>
<script type="application/ecmascript" xlink:href="svg.min.js"/>
<svg id="graph" class="graph">
<g id="viewport">
<title>Circle</title>
<!-- Node1 -->
<g id="Node000001" class="node">
<title>Node1</title>
<g id="a_Node000001"><a xlink:title=" ">
<polygon fill="#999999" stroke="#666666" points="41.5,-153.88 0,-153.88 0,-134.62 41.5,-134.62 41.5,-153.88"/>
<text text-anchor="middle" x="20.75" y="-140.38" font-family="Helvetica,sans-Serif" font-size="10.00">Circle</text>
</a>
</g>
</g>
<!-- Node2 -->
<g id="Node000002" class="node">
<title>Node2</title>
<g id="a_Node000002"><a xlink:href="class_t_c_p_d_f.html#aef64473c123bb4caa316e4deb584e3f5" target="_top" xlink:title=" ">
<polygon fill="white" stroke="#666666" points="122.75,-153.88 77.5,-153.88 77.5,-134.62 122.75,-134.62 122.75,-153.88"/>
<text text-anchor="middle" x="100.12" y="-140.38" font-family="Helvetica,sans-Serif" font-size="10.00">Ellipse</text>
</a>
</g>
</g>
<!-- Node1&#45;&gt;Node2 -->
<g id="edge1_Node000001_Node000002" class="edge">
<title>Node1&#45;&gt;Node2</title>
<g id="a_edge1_Node000001_Node000002"><a xlink:title=" ">
<path fill="none" stroke="#63b8ff" d="M41.68,-144.25C49.04,-144.25 57.6,-144.25 65.83,-144.25"/>
<polygon fill="#63b8ff" stroke="#63b8ff" points="65.57,-147.75 75.57,-144.25 65.57,-140.75 65.57,-147.75"/>
</a>
</g>
</g>
<!-- Node3 -->
<g id="Node000003" class="node">
<title>Node3</title>
<g id="a_Node000003"><a xlink:href="class_t_c_p_d_f.html#a01627a8b7ad5c79ee736572b3d2ef3f5" target="_top" xlink:title=" ">
<polygon fill="white" stroke="#666666" points="919.62,-210.88 884.88,-210.88 884.88,-191.62 919.62,-191.62 919.62,-210.88"/>
<text text-anchor="middle" x="902.25" y="-197.38" font-family="Helvetica,sans-Serif" font-size="10.00">_out</text>
</a>
</g>
</g>
<!-- Node2&#45;&gt;Node3 -->
<g id="edge2_Node000002_Node000003" class="edge">
<title>Node2&#45;&gt;Node3</title>
<g id="a_edge2_Node000002_Node000003"><a xlink:title=" ">
<path fill="none" stroke="#63b8ff" d="M107.43,-154.29C116.97,-168.79 136.37,-195.67 158.75,-212.25 249.81,-279.7 279.55,-313.25 392.88,-313.25 392.88,-313.25 392.88,-313.25 634.25,-313.25 702.99,-313.25 724.56,-321.32 787.75,-294.25 827.7,-277.13 864.82,-241.52 885.13,-219.67"/>
<polygon fill="#63b8ff" stroke="#63b8ff" points="887.63,-222.12 891.75,-212.36 882.44,-217.42 887.63,-222.12"/>
</a>
</g>
</g>
<!-- Node7 -->
<g id="Node000007" class="node">
<title>Node7</title>
<g id="a_Node000007"><a xlink:href="class_t_c_p_d_f.html#a7a4827e6bac10aa0e948aabaf1b18399" target="_top" xlink:title=" ">
<polygon fill="white" stroke="#666666" points="675,-228.88 591.5,-228.88 591.5,-209.62 675,-209.62 675,-228.88"/>
<text text-anchor="middle" x="633.25" y="-215.38" font-family="Helvetica,sans-Serif" font-size="10.00">_outellipticalarc</text>
</a>
</g>
</g>
<!-- Node2&#45;&gt;Node7 -->
<g id="edge6_Node000002_Node000007" class="edge">
<title>Node2&#45;&gt;Node7</title>
<g id="a_edge6_Node000002_Node000007"><a xlink:title=" ">
<path fill="none" stroke="#63b8ff" d="M112.54,-154.34C123.54,-163.4 141.07,-176.18 158.75,-182.25 304.86,-232.38 490.7,-228.95 579.87,-223.51"/>
<polygon fill="#63b8ff" stroke="#63b8ff" points="580.02,-227.01 589.77,-222.87 579.57,-220.02 580.02,-227.01"/>
</a>
</g>
</g>
<!-- Node11 -->
<g id="Node000011" class="node">
<title>Node11</title>
<g id="a_Node000011"><a xlink:href="class_t_c_p_d_f___s_t_a_t_i_c.html#a5e311abad71449e634216a5d897a65b6" target="_top" xlink:title=" ">
<polygon fill="white" stroke="#666666" points="293.62,-97.5 173.38,-97.5 173.38,-67 293.62,-67 293.62,-97.5"/>
<text text-anchor="start" x="181.38" y="-84" font-family="Helvetica,sans-Serif" font-size="10.00">TCPDF_STATIC\empty</text>
<text text-anchor="middle" x="233.5" y="-72.75" font-family="Helvetica,sans-Serif" font-size="10.00">_string</text>
</a>
</g>
</g>
<!-- Node2&#45;&gt;Node11 -->
<g id="edge13_Node000002_Node000011" class="edge">
<title>Node2&#45;&gt;Node11</title>
<g id="a_edge13_Node000002_Node000011"><a xlink:title=" ">
<path fill="none" stroke="#63b8ff" d="M116.93,-134.36C128.33,-127.45 144.2,-118.23 158.75,-111.25 165.33,-108.09 172.36,-105 179.36,-102.07"/>
<polygon fill="#63b8ff" stroke="#63b8ff" points="180.2,-105.51 188.14,-98.5 177.56,-99.03 180.2,-105.51"/>
</a>
</g>
</g>
<!-- Node12 -->
<g id="Node000012" class="node">
<title>Node12</title>
<g id="a_Node000012"><a xlink:href="class_t_c_p_d_f___s_t_a_t_i_c.html#a5ebc9848da9ebbae76c9b19609b3f04c" target="_top" xlink:title=" ">
<polygon fill="white" stroke="#666666" points="308.25,-30.5 158.75,-30.5 158.75,0 308.25,0 308.25,-30.5"/>
<text text-anchor="start" x="166.75" y="-17" font-family="Helvetica,sans-Serif" font-size="10.00">TCPDF_STATIC\getPathPaint</text>
<text text-anchor="middle" x="233.5" y="-5.75" font-family="Helvetica,sans-Serif" font-size="10.00">Operator</text>
</a>
</g>
</g>
<!-- Node2&#45;&gt;Node12 -->
<g id="edge14_Node000002_Node000012" class="edge">
<title>Node2&#45;&gt;Node12</title>
<g id="a_edge14_Node000002_Node000012"><a xlink:title=" ">
<path fill="none" stroke="#63b8ff" d="M105.95,-134.17C114.59,-116.92 134.12,-81.38 158.75,-58.25 167.51,-50.02 178.12,-42.69 188.53,-36.52"/>
<polygon fill="#63b8ff" stroke="#63b8ff" points="190.07,-39.66 197.06,-31.7 186.63,-33.57 190.07,-39.66"/>
</a>
</g>
</g>
<!-- Node13 -->
<g id="Node000013" class="node">
<title>Node13</title>
<g id="a_Node000013"><a xlink:href="class_t_c_p_d_f.html#aa6dde96cf573babe5f3dc89c781805e2" target="_top" xlink:title=" ">
<polygon fill="white" stroke="#666666" points="438.25,-97.88 349.5,-97.88 349.5,-78.62 438.25,-78.62 438.25,-97.88"/>
<text text-anchor="middle" x="393.88" y="-84.38" font-family="Helvetica,sans-Serif" font-size="10.00">setFillColorArray</text>
</a>
</g>
</g>
<!-- Node2&#45;&gt;Node13 -->
<g id="edge16_Node000002_Node000013" class="edge">
<title>Node2&#45;&gt;Node13</title>
<g id="a_edge16_Node000002_Node000013"><a xlink:title=" ">
<path fill="none" stroke="#63b8ff" d="M123.23,-140.4C161.15,-133.76 241.01,-119.57 308.25,-106.25 317.88,-104.34 328.12,-102.23 338.02,-100.15"/>
<polygon fill="#63b8ff" stroke="#63b8ff" points="338.46,-103.64 347.52,-98.14 337.01,-96.79 338.46,-103.64"/>
</a>
</g>
</g>
<!-- Node24 -->
<g id="Node000024" class="node">
<title>Node24</title>
<g id="a_Node000024"><a xlink:href="class_t_c_p_d_f.html#a20cb8b610261902e45c0c13aec203902" target="_top" xlink:title=" ">
<polygon fill="white" stroke="#666666" points="268.5,-172.88 198.5,-172.88 198.5,-153.62 268.5,-153.62 268.5,-172.88"/>
<text text-anchor="middle" x="233.5" y="-159.38" font-family="Helvetica,sans-Serif" font-size="10.00">setLineStyle</text>
</a>
</g>
</g>
<!-- Node2&#45;&gt;Node24 -->
<g id="edge29_Node000002_Node000024" class="edge">
<title>Node2&#45;&gt;Node24</title>
<g id="a_edge29_Node000002_Node000024"><a xlink:title=" ">
<path fill="none" stroke="#63b8ff" d="M123.11,-147.43C140.45,-149.94 165.22,-153.52 186.81,-156.64"/>
<polygon fill="#63b8ff" stroke="#63b8ff" points="186.18,-160.09 196.58,-158.05 187.18,-153.16 186.18,-160.09"/>
</a>
</g>
</g>
<!-- Node4 -->
<g id="Node000004" class="node">
<title>Node4</title>
<g id="a_Node000004"><a xlink:href="class_t_c_p_d_f.html#a2f0c138e82371b95c3899451a330da05" target="_top" xlink:title=" ">
<polygon fill="white" stroke="#666666" points="1095,-210.88 1016.75,-210.88 1016.75,-191.62 1095,-191.62 1095,-210.88"/>
<text text-anchor="middle" x="1055.88" y="-197.38" font-family="Helvetica,sans-Serif" font-size="10.00">getPageBuffer</text>
</a>
</g>
</g>
<!-- Node3&#45;&gt;Node4 -->
<g id="edge3_Node000003_Node000004" class="edge">
<title>Node3&#45;&gt;Node4</title>
<g id="a_edge3_Node000003_Node000004"><a xlink:title=" ">
<path fill="none" stroke="#63b8ff" d="M920.06,-201.25C940.41,-201.25 975.61,-201.25 1004.94,-201.25"/>
<polygon fill="#63b8ff" stroke="#63b8ff" points="1004.75,-204.75 1014.75,-201.25 1004.75,-197.75 1004.75,-204.75"/>
</a>
</g>
</g>
<!-- Node5 -->
<g id="Node000005" class="node">
<title>Node5</title>
<g id="a_Node000005"><a xlink:href="class_t_c_p_d_f.html#ac43455b74ede7e3f1d7558feb764eb6f" target="_top" xlink:title=" ">
<polygon fill="white" stroke="#666666" points="1083.75,-173.88 1028,-173.88 1028,-154.62 1083.75,-154.62 1083.75,-173.88"/>
<text text-anchor="middle" x="1055.88" y="-160.38" font-family="Helvetica,sans-Serif" font-size="10.00">setBuffer</text>
</a>
</g>
</g>
<!-- Node3&#45;&gt;Node5 -->
<g id="edge4_Node000003_Node000005" class="edge">
<title>Node3&#45;&gt;Node5</title>
<g id="a_edge4_Node000003_Node000005"><a xlink:title=" ">
<path fill="none" stroke="#63b8ff" d="M920.06,-197.15C943.27,-191.49 985.79,-181.11 1016.89,-173.52"/>
<polygon fill="#63b8ff" stroke="#63b8ff" points="1017.42,-176.99 1026.31,-171.22 1015.76,-170.19 1017.42,-176.99"/>
</a>
</g>
</g>
<!-- Node6 -->
<g id="Node000006" class="node">
<title>Node6</title>
<g id="a_Node000006"><a xlink:href="class_t_c_p_d_f.html#af4d8e4aed525c0bded587be897297a7f" target="_top" xlink:title=" ">
<polygon fill="white" stroke="#666666" points="1095,-247.88 1016.75,-247.88 1016.75,-228.62 1095,-228.62 1095,-247.88"/>
<text text-anchor="middle" x="1055.88" y="-234.38" font-family="Helvetica,sans-Serif" font-size="10.00">setPageBuffer</text>
</a>
</g>
</g>
<!-- Node3&#45;&gt;Node6 -->
<g id="edge5_Node000003_Node000006" class="edge">
<title>Node3&#45;&gt;Node6</title>
<g id="a_edge5_Node000003_Node000006"><a xlink:title=" ">
<path fill="none" stroke="#63b8ff" d="M920.06,-205.35C940.5,-210.34 975.92,-218.98 1005.33,-226.16"/>
<polygon fill="#63b8ff" stroke="#63b8ff" points="1004.24,-229.5 1014.79,-228.47 1005.9,-222.7 1004.24,-229.5"/>
</a>
</g>
</g>
<!-- Node8 -->
<g id="Node000008" class="node">
<title>Node8</title>
<g id="a_Node000008"><a xlink:href="class_t_c_p_d_f.html#a0d30dca877cd48361c5ceca48dfb43ed" target="_top" xlink:title=" ">
<polygon fill="white" stroke="#666666" points="779.88,-210.88 718.88,-210.88 718.88,-191.62 779.88,-191.62 779.88,-210.88"/>
<text text-anchor="middle" x="749.38" y="-197.38" font-family="Helvetica,sans-Serif" font-size="10.00">_outCurve</text>
</a>
</g>
</g>
<!-- Node7&#45;&gt;Node8 -->
<g id="edge7_Node000007_Node000008" class="edge">
<title>Node7&#45;&gt;Node8</title>
<g id="a_edge7_Node000007_Node000008"><a xlink:title=" ">
<path fill="none" stroke="#63b8ff" d="M675.45,-212.75C685.84,-211.11 697,-209.35 707.38,-207.72"/>
<polygon fill="#63b8ff" stroke="#63b8ff" points="707.86,-211.18 717.19,-206.17 706.77,-204.27 707.86,-211.18"/>
</a>
</g>
</g>
<!-- Node9 -->
<g id="Node000009" class="node">
<title>Node9</title>
<g id="a_Node000009"><a xlink:href="class_t_c_p_d_f.html#a0a2fb8f5ad902d1e41ec4e509c9b38f7" target="_top" xlink:title=" ">
<polygon fill="white" stroke="#666666" points="775.75,-284.88 723,-284.88 723,-265.62 775.75,-265.62 775.75,-284.88"/>
<text text-anchor="middle" x="749.38" y="-271.38" font-family="Helvetica,sans-Serif" font-size="10.00">_outLine</text>
</a>
</g>
</g>
<!-- Node7&#45;&gt;Node9 -->
<g id="edge9_Node000007_Node000009" class="edge">
<title>Node7&#45;&gt;Node9</title>
<g id="a_edge9_Node000007_Node000009"><a xlink:title=" ">
<path fill="none" stroke="#63b8ff" d="M654.42,-229.31C669.88,-237.01 691.76,-247.85 711,-257.25 712.99,-258.22 715.04,-259.22 717.11,-260.22"/>
<polygon fill="#63b8ff" stroke="#63b8ff" points="715.51,-263.34 726.04,-264.54 718.56,-257.04 715.51,-263.34"/>
</a>
</g>
</g>
<!-- Node10 -->
<g id="Node000010" class="node">
<title>Node10</title>
<g id="a_Node000010"><a xlink:href="class_t_c_p_d_f.html#a27a257ef0251606c00a441c0fc478e2c" target="_top" xlink:title=" ">
<polygon fill="white" stroke="#666666" points="778,-247.88 720.75,-247.88 720.75,-228.62 778,-228.62 778,-247.88"/>
<text text-anchor="middle" x="749.38" y="-234.38" font-family="Helvetica,sans-Serif" font-size="10.00">_outPoint</text>
</a>
</g>
</g>
<!-- Node7&#45;&gt;Node10 -->
<g id="edge11_Node000007_Node000010" class="edge">
<title>Node7&#45;&gt;Node10</title>
<g id="a_edge11_Node000007_Node000010"><a xlink:title=" ">
<path fill="none" stroke="#63b8ff" d="M675.45,-226.11C686.42,-227.94 698.25,-229.9 709.11,-231.71"/>
<polygon fill="#63b8ff" stroke="#63b8ff" points="708.51,-235.16 718.95,-233.35 709.66,-228.26 708.51,-235.16"/>
</a>
</g>
</g>
<!-- Node8&#45;&gt;Node3 -->
<g id="edge8_Node000008_Node000003" class="edge">
<title>Node8&#45;&gt;Node3</title>
<g id="a_edge8_Node000008_Node000003"><a xlink:title=" ">
<path fill="none" stroke="#63b8ff" d="M780.18,-201.25C807.17,-201.25 846.63,-201.25 873.09,-201.25"/>
<polygon fill="#63b8ff" stroke="#63b8ff" points="873.07,-204.75 883.07,-201.25 873.07,-197.75 873.07,-204.75"/>
</a>
</g>
</g>
<!-- Node9&#45;&gt;Node3 -->
<g id="edge10_Node000009_Node000003" class="edge">
<title>Node9&#45;&gt;Node3</title>
<g id="a_edge10_Node000009_Node000003"><a xlink:title=" ">
<path fill="none" stroke="#63b8ff" d="M771.35,-265.19C776.7,-262.61 782.44,-259.84 787.75,-257.25 817.59,-242.7 851.74,-225.82 874.72,-214.43"/>
<polygon fill="#63b8ff" stroke="#63b8ff" points="875.97,-217.71 883.38,-210.13 872.86,-211.44 875.97,-217.71"/>
</a>
</g>
</g>
<!-- Node10&#45;&gt;Node3 -->
<g id="edge12_Node000010_Node000003" class="edge">
<title>Node10&#45;&gt;Node3</title>
<g id="a_edge12_Node000010_Node000003"><a xlink:title=" ">
<path fill="none" stroke="#63b8ff" d="M778.4,-231.38C805.57,-224.71 846.54,-214.67 873.58,-208.03"/>
<polygon fill="#63b8ff" stroke="#63b8ff" points="874.24,-211.48 883.12,-205.7 872.57,-204.68 874.24,-211.48"/>
</a>
</g>
</g>
<!-- Node12&#45;&gt;Node12 -->
<g id="edge15_Node000012_Node000012" class="edge">
<title>Node12&#45;&gt;Node12</title>
<g id="a_edge15_Node000012_Node000012"><a xlink:title=" ">
<path fill="none" stroke="#63b8ff" d="M209.87,-30.99C205.04,-40.06 212.92,-48.5 233.5,-48.5 244.75,-48.5 252.21,-45.97 255.87,-42.2"/>
<polygon fill="#63b8ff" stroke="#63b8ff" points="259.32,-42.82 256.96,-32.49 252.36,-42.03 259.32,-42.82"/>
</a>
</g>
</g>
<!-- Node14 -->
<g id="Node000014" class="node">
<title>Node14</title>
<g id="a_Node000014"><a xlink:href="class_t_c_p_d_f.html#a5ecacf1e3748198de63fbf25a12b30d9" target="_top" xlink:title=" ">
<polygon fill="white" stroke="#666666" points="555.5,-97.88 479.5,-97.88 479.5,-78.62 555.5,-78.62 555.5,-97.88"/>
<text text-anchor="middle" x="517.5" y="-84.38" font-family="Helvetica,sans-Serif" font-size="10.00">setColorArray</text>
</a>
</g>
</g>
<!-- Node13&#45;&gt;Node14 -->
<g id="edge17_Node000013_Node000014" class="edge">
<title>Node13&#45;&gt;Node14</title>
<g id="a_edge17_Node000013_Node000014"><a xlink:title=" ">
<path fill="none" stroke="#63b8ff" d="M438.44,-88.25C448.04,-88.25 458.27,-88.25 468.05,-88.25"/>
<polygon fill="#63b8ff" stroke="#63b8ff" points="467.75,-91.75 477.75,-88.25 467.75,-84.75 467.75,-91.75"/>
</a>
</g>
</g>
<!-- Node15 -->
<g id="Node000015" class="node">
<title>Node15</title>
<g id="a_Node000015"><a xlink:href="class_t_c_p_d_f.html#a2ea736e8bea04d12a9c0941787cac439" target="_top" xlink:title=" ">
<polygon fill="white" stroke="#666666" points="659.62,-96.88 606.88,-96.88 606.88,-77.62 659.62,-77.62 659.62,-96.88"/>
<text text-anchor="middle" x="633.25" y="-83.38" font-family="Helvetica,sans-Serif" font-size="10.00">setColor</text>
</a>
</g>
</g>
<!-- Node14&#45;&gt;Node15 -->
<g id="edge18_Node000014_Node000015" class="edge">
<title>Node14&#45;&gt;Node15</title>
<g id="a_edge18_Node000014_Node000015"><a xlink:title=" ">
<path fill="none" stroke="#63b8ff" d="M555.75,-87.92C568.45,-87.81 582.63,-87.69 595.31,-87.57"/>
<polygon fill="#63b8ff" stroke="#63b8ff" points="594.96,-91.08 604.92,-87.49 594.89,-84.08 594.96,-91.08"/>
</a>
</g>
</g>
<!-- Node15&#45;&gt;Node3 -->
<g id="edge19_Node000015_Node000003" class="edge">
<title>Node15&#45;&gt;Node3</title>
<g id="a_edge19_Node000015_Node000003"><a xlink:title=" ">
<path fill="none" stroke="#63b8ff" d="M659.93,-97.21C690.53,-109.17 743.14,-130.03 787.75,-149.25 817.52,-162.07 851.23,-177.66 874.13,-188.4"/>
<polygon fill="#63b8ff" stroke="#63b8ff" points="872.53,-191.52 883.07,-192.61 875.51,-185.18 872.53,-191.52"/>
</a>
</g>
</g>
<!-- Node16 -->
<g id="Node000016" class="node">
<title>Node16</title>
<g id="a_Node000016"><a xlink:href="class_t_c_p_d_f.html#a4137e2e5e22a8f5b50fe38d51285ac8f" target="_top" xlink:title=" ">
<polygon fill="white" stroke="#666666" points="787.75,-96.88 711,-96.88 711,-77.62 787.75,-77.62 787.75,-96.88"/>
<text text-anchor="middle" x="749.38" y="-83.38" font-family="Helvetica,sans-Serif" font-size="10.00">AddSpotColor</text>
</a>
</g>
</g>
<!-- Node15&#45;&gt;Node16 -->
<g id="edge20_Node000015_Node000016" class="edge">
<title>Node15&#45;&gt;Node16</title>
<g id="a_edge20_Node000015_Node000016"><a xlink:title=" ">
<path fill="none" stroke="#63b8ff" d="M659.86,-87.25C671.57,-87.25 685.84,-87.25 699.48,-87.25"/>
<polygon fill="#63b8ff" stroke="#63b8ff" points="699.2,-90.75 709.2,-87.25 699.2,-83.75 699.2,-90.75"/>
</a>
</g>
</g>
<!-- Node17 -->
<g id="Node000017" class="node">
<title>Node17</title>
<g id="a_Node000017"><a xlink:href="class_t_c_p_d_f.html#a301436afa22feb9fe2de781e4018b60a" target="_top" xlink:title=" ">
<polygon fill="white" stroke="#666666" points="785.88,-59.88 712.88,-59.88 712.88,-40.62 785.88,-40.62 785.88,-59.88"/>
<text text-anchor="middle" x="749.38" y="-46.38" font-family="Helvetica,sans-Serif" font-size="10.00">setSpotColor</text>
</a>
</g>
</g>
<!-- Node15&#45;&gt;Node17 -->
<g id="edge21_Node000015_Node000017" class="edge">
<title>Node15&#45;&gt;Node17</title>
<g id="a_edge21_Node000015_Node000017"><a xlink:title=" ">
<path fill="none" stroke="#63b8ff" d="M659.86,-78.95C673.64,-74.48 690.97,-68.86 706.64,-63.78"/>
<polygon fill="#63b8ff" stroke="#63b8ff" points="707.28,-67.25 715.72,-60.84 705.12,-60.59 707.28,-67.25"/>
</a>
</g>
</g>
<!-- Node17&#45;&gt;Node3 -->
<g id="edge22_Node000017_Node000003" class="edge">
<title>Node17&#45;&gt;Node3</title>
<g id="a_edge22_Node000017_Node000003"><a xlink:title=" ">
<path fill="none" stroke="#63b8ff" d="M774.96,-60.28C779.42,-62.59 783.87,-65.26 787.75,-68.25 831.03,-101.6 869.56,-153.81 888.62,-181.86"/>
<polygon fill="#63b8ff" stroke="#63b8ff" points="885.65,-183.71 894.11,-190.09 891.47,-179.82 885.65,-183.71"/>
</a>
</g>
</g>
<!-- Node18 -->
<g id="Node000018" class="node">
<title>Node18</title>
<g id="a_Node000018"><a xlink:href="class_t_c_p_d_f.html#a5afab85a7aaf19395f9a0e86cae76928" target="_top" xlink:title=" ">
<polygon fill="white" stroke="#666666" points="920.75,-41.88 883.75,-41.88 883.75,-22.62 920.75,-22.62 920.75,-41.88"/>
<text text-anchor="middle" x="902.25" y="-28.38" font-family="Helvetica,sans-Serif" font-size="10.00">Error</text>
</a>
</g>
</g>
<!-- Node17&#45;&gt;Node18 -->
<g id="edge23_Node000017_Node000018" class="edge">
<title>Node17&#45;&gt;Node18</title>
<g id="a_edge23_Node000017_Node000018"><a xlink:title=" ">
<path fill="none" stroke="#63b8ff" d="M786.13,-45.98C812.37,-42.85 847.57,-38.65 872.11,-35.73"/>
<polygon fill="#63b8ff" stroke="#63b8ff" points="872.52,-39.2 882.03,-34.54 871.69,-32.25 872.52,-39.2"/>
</a>
</g>
</g>
<!-- Node23 -->
<g id="Node000023" class="node">
<title>Node23</title>
<g id="a_Node000023"><a xlink:href="class_t_c_p_d_f___c_o_l_o_r_s.html#a0acfb17940f35c8a197c3d8ce79a8437" target="_top" xlink:title=" ">
<polygon fill="white" stroke="#666666" points="980.75,-78.88 823.75,-78.88 823.75,-59.62 980.75,-59.62 980.75,-78.88"/>
<text text-anchor="middle" x="902.25" y="-65.38" font-family="Helvetica,sans-Serif" font-size="10.00">TCPDF_COLORS\getSpotColor</text>
</a>
</g>
</g>
<!-- Node17&#45;&gt;Node23 -->
<g id="edge28_Node000017_Node000023" class="edge">
<title>Node17&#45;&gt;Node23</title>
<g id="a_edge28_Node000017_Node000023"><a xlink:title=" ">
<path fill="none" stroke="#63b8ff" d="M786.13,-54.75C794.18,-55.77 803.08,-56.89 812.25,-58.04"/>
<polygon fill="#63b8ff" stroke="#63b8ff" points="811.68,-61.5 822.04,-59.28 812.56,-54.55 811.68,-61.5"/>
</a>
</g>
</g>
<!-- Node19 -->
<g id="Node000019" class="node">
<title>Node19</title>
<g id="a_Node000019"><a xlink:href="class_t_c_p_d_f.html#a3f1223ef6da2a75d708d2cf17129e35a" target="_top" xlink:title=" ">
<polygon fill="white" stroke="#666666" points="1082.62,-41.88 1029.12,-41.88 1029.12,-22.62 1082.62,-22.62 1082.62,-41.88"/>
<text text-anchor="middle" x="1055.88" y="-28.38" font-family="Helvetica,sans-Serif" font-size="10.00">_destroy</text>
</a>
</g>
</g>
<!-- Node18&#45;&gt;Node19 -->
<g id="edge24_Node000018_Node000019" class="edge">
<title>Node18&#45;&gt;Node19</title>
<g id="a_edge24_Node000018_Node000019"><a xlink:title=" ">
<path fill="none" stroke="#63b8ff" d="M921.24,-32.25C944.89,-32.25 987.02,-32.25 1017.67,-32.25"/>
<polygon fill="#63b8ff" stroke="#63b8ff" points="1017.28,-35.75 1027.28,-32.25 1017.28,-28.75 1017.28,-35.75"/>
</a>
</g>
</g>
<!-- Node20 -->
<g id="Node000020" class="node">
<title>Node20</title>
<g id="a_Node000020"><a xlink:href="class_t_c_p_d_f___s_t_a_t_i_c.html#a9e14c837e0fcb7de0b1b272f5b2384f7" target="_top" xlink:title=" ">
<polygon fill="white" stroke="#666666" points="1268.5,-41.88 1131,-41.88 1131,-22.62 1268.5,-22.62 1268.5,-41.88"/>
<text text-anchor="middle" x="1199.75" y="-28.38" font-family="Helvetica,sans-Serif" font-size="10.00">TCPDF_STATIC\file_exists</text>
</a>
</g>
</g>
<!-- Node19&#45;&gt;Node20 -->
<g id="edge25_Node000019_Node000020" class="edge">
<title>Node19&#45;&gt;Node20</title>
<g id="a_edge25_Node000019_Node000020"><a xlink:title=" ">
<path fill="none" stroke="#63b8ff" d="M1082.9,-32.25C1093.46,-32.25 1106.28,-32.25 1119.49,-32.25"/>
<polygon fill="#63b8ff" stroke="#63b8ff" points="1119.12,-35.75 1129.12,-32.25 1119.12,-28.75 1119.12,-35.75"/>
</a>
</g>
</g>
<!-- Node21 -->
<g id="Node000021" class="node">
<title>Node21</title>
<g id="a_Node000021"><a xlink:href="class_t_c_p_d_f___s_t_a_t_i_c.html#adeb9b51fef0b87a0befbdbb11e85f39b" target="_top" xlink:title=" ">
<polygon fill="white" stroke="#666666" points="1439.75,-41.88 1304.5,-41.88 1304.5,-22.62 1439.75,-22.62 1439.75,-41.88"/>
<text text-anchor="middle" x="1372.12" y="-28.38" font-family="Helvetica,sans-Serif" font-size="10.00">TCPDF_STATIC\url_exists</text>
</a>
</g>
</g>
<!-- Node20&#45;&gt;Node21 -->
<g id="edge26_Node000020_Node000021" class="edge">
<title>Node20&#45;&gt;Node21</title>
<g id="a_edge26_Node000020_Node000021"><a xlink:title=" ">
<path fill="none" stroke="#63b8ff" d="M1268.58,-32.25C1276.52,-32.25 1284.68,-32.25 1292.76,-32.25"/>
<polygon fill="#63b8ff" stroke="#63b8ff" points="1292.57,-35.75 1302.57,-32.25 1292.57,-28.75 1292.57,-35.75"/>
</a>
</g>
</g>
<!-- Node22 -->
<g id="Node000022" class="node">
<title>Node22</title>
<g id="a_Node000022"><a xlink:href="class_t_c_p_d_f___s_t_a_t_i_c.html#a79813ccb2446fdc8ec2b1a1f346a3809" target="_top" xlink:title=" ">
<polygon fill="white" stroke="#666666" points="1639.5,-41.88 1475.75,-41.88 1475.75,-22.62 1639.5,-22.62 1639.5,-41.88"/>
<text text-anchor="middle" x="1557.62" y="-28.38" font-family="Helvetica,sans-Serif" font-size="10.00">TCPDF_STATIC\encodeUrlQuery</text>
</a>
</g>
</g>
<!-- Node21&#45;&gt;Node22 -->
<g id="edge27_Node000021_Node000022" class="edge">
<title>Node21&#45;&gt;Node22</title>
<g id="a_edge27_Node000021_Node000022"><a xlink:title=" ">
<path fill="none" stroke="#63b8ff" d="M1440.15,-32.25C1447.95,-32.25 1456,-32.25 1464.06,-32.25"/>
<polygon fill="#63b8ff" stroke="#63b8ff" points="1463.92,-35.75 1473.92,-32.25 1463.92,-28.75 1463.92,-35.75"/>
</a>
</g>
</g>
<!-- Node24&#45;&gt;Node3 -->
<g id="edge30_Node000024_Node000003" class="edge">
<title>Node24&#45;&gt;Node3</title>
<g id="a_edge30_Node000024_Node000003"><a xlink:title=" ">
<path fill="none" stroke="#63b8ff" d="M268.79,-163.25C321.88,-163.25 427.15,-163.25 516.5,-163.25 516.5,-163.25 516.5,-163.25 634.25,-163.25 722.3,-163.25 825.08,-183.76 873.42,-194.64"/>
<polygon fill="#63b8ff" stroke="#63b8ff" points="872.49,-198.02 883.02,-196.84 874.06,-191.2 872.49,-198.02"/>
</a>
</g>
</g>
<!-- Node25 -->
<g id="Node000025" class="node">
<title>Node25</title>
<g id="a_Node000025"><a xlink:href="class_t_c_p_d_f.html#a14af863ae6e075cbfa79ffa18d6a733d" target="_top" xlink:title=" ">
<polygon fill="white" stroke="#666666" points="443.5,-134.88 344.25,-134.88 344.25,-115.62 443.5,-115.62 443.5,-134.88"/>
<text text-anchor="middle" x="393.88" y="-121.38" font-family="Helvetica,sans-Serif" font-size="10.00">setDrawColorArray</text>
</a>
</g>
</g>
<!-- Node24&#45;&gt;Node25 -->
<g id="edge31_Node000024_Node000025" class="edge">
<title>Node24&#45;&gt;Node25</title>
<g id="a_edge31_Node000024_Node000025"><a xlink:title=" ">
<path fill="none" stroke="#63b8ff" d="M268.87,-155C289.51,-150.05 316.2,-143.65 339.54,-138.05"/>
<polygon fill="#63b8ff" stroke="#63b8ff" points="340.3,-141.46 349.21,-135.73 338.67,-134.66 340.3,-141.46"/>
</a>
</g>
</g>
<!-- Node25&#45;&gt;Node14 -->
<g id="edge32_Node000025_Node000014" class="edge">
<title>Node25&#45;&gt;Node14</title>
<g id="a_edge32_Node000025_Node000014"><a xlink:title=" ">
<path fill="none" stroke="#63b8ff" d="M428.11,-115.14C441.79,-110.98 457.82,-106.1 472.45,-101.65"/>
<polygon fill="#63b8ff" stroke="#63b8ff" points="473.31,-105.05 481.86,-98.79 471.27,-98.35 473.31,-105.05"/>
</a>
</g>
</g>
</g>
</svg>

<g id="navigator" transform="translate(0 0)" fill="#404254">
  <rect fill="#f2f5e9" fill-opacity="0.5" stroke="#606060" stroke-width=".5" x="0" y="0" width="60" height="60"/>
  <use id="zoomplus" xlink:href="#zoomPlus" x="17" y="9" onmousedown="handleZoom(evt,'in')"/>
  <use id="zoomminus" xlink:href="#zoomMin" x="42" y="9" onmousedown="handleZoom(evt,'out')"/>
  <use id="reset" xlink:href="#resetDef" x="30" y="36" onmousedown="handleReset()"/>
   <use id="arrowup" xlink:href="#arrowUp" x="0" y="0" onmousedown="handlePan(0,-1)"/>
  <use id="arrowright" xlink:href="#arrowRight" x="0" y="0" onmousedown="handlePan(1,0)"/>
  <use id="arrowdown" xlink:href="#arrowDown" x="0" y="0" onmousedown="handlePan(0,1)"/>
  <use id="arrowleft" xlink:href="#arrowLeft" x="0" y="0" onmousedown="handlePan(-1,0)"/>
</g>
<svg viewBox="0 0 15 15" width="100%" height="30px" preserveAspectRatio="xMaxYMin meet">
 <g id="arrow_out" transform="scale(0.3 0.3)">
  <a xlink:href="class_t_c_p_d_f_a29f78edbfd2dfd19e9d6d0b6d329807c_cgraph_org.svg" target="_base">
   <rect id="button" ry="5" rx="5" y="6" x="6" height="38" width="38"
        fill="#f2f5e9" fill-opacity="0.5" stroke="#606060" stroke-width="1.0"/>
   <path id="arrow"
     d="M 11.500037,31.436501 C 11.940474,20.09759 22.043105,11.32322 32.158766,21.979434 L 37.068811,17.246167 C 37.068811,17.246167 37.088388,32 37.088388,32 L 22.160133,31.978069 C 22.160133,31.978069 26.997745,27.140456 26.997745,27.140456 C 18.528582,18.264221 13.291696,25.230495 11.500037,31.436501 z"
     style="fill:#404040;"/>
  </a>
 </g>
</svg>

<style type='text/css'>
<![CDATA[
[data-mouse-over-selected='false'] { opacity: 0.7; }
[data-mouse-over-selected='true']  { opacity: 1.0; }
]]>
</style>
<script type="application/ecmascript"><![CDATA[
document.addEventListener('DOMContentLoaded', (event) => {
  highlightEdges();
  highlightAdjacentNodes();
});
]]></script>
</svg>
