<?xml version="1.0" encoding="UTF-8" standalone="no"?>
<!DOCTYPE svg PUBLIC "-//W3C//DTD SVG 1.1//EN"
 "http://www.w3.org/Graphics/SVG/1.1/DTD/svg11.dtd">
<!-- Generated by graphviz version 10.0.1 (20240210.2158)
 -->
<!-- Title: setTextColor Pages: 1 -->
<!--zoomable 175 -->

<svg id="main" version="1.1" xmlns="http://www.w3.org/2000/svg" xmlns:xlink="http://www.w3.org/1999/xlink" xml:space="preserve" onload="init(evt)">
<style type="text/css"><![CDATA[
.node, .edge {opacity: 0.7;}
.node.selected, .edge.selected {opacity: 1;}
.edge:hover path { stroke: red; }
.edge:hover polygon { stroke: red; fill: red; }
]]></style>

<defs>
  <circle id="rim" cx="0" cy="0" r="7"/>
  <circle id="rim2" cx="0" cy="0" r="3.5"/>
  <g id="zoomPlus">
    <use xlink:href="#rim" fill="#404040"><set attributeName="fill" to="#808080" begin="zoomplus.mouseover" end="zoomplus.mouseout"/></use>
    <path d="M-4,0h8M0,-4v8" fill="none" stroke="white" stroke-width="1.5" pointer-events="none"/>
  </g>
  <g id="zoomMin">
    <use xlink:href="#rim" fill="#404040"><set attributeName="fill" to="#808080" begin="zoomminus.mouseover" end="zoomminus.mouseout"/></use>
    <path d="M-4,0h8" fill="none" stroke="white" stroke-width="1.5" pointer-events="none"/>
  </g>
  <g id="arrowUp" transform="translate(30 24)">
    <use xlink:href="#rim"/>
    <path pointer-events="none" fill="none" stroke="white" stroke-width="1.5" d="M0,-3.0v7 M-2.5,-0.5L0,-3.0L2.5,-0.5"/>
  </g>
  <g id="arrowRight" transform="rotate(90) translate(36 -43)">
    <use xlink:href="#rim"/>
    <path pointer-events="none" fill="none" stroke="white" stroke-width="1.5" d="M0,-3.0v7 M-2.5,-0.5L0,-3.0L2.5,-0.5"/>
  </g>
  <g id="arrowDown" transform="rotate(180) translate(-30 -48)">
    <use xlink:href="#rim"/>
    <path pointer-events="none" fill="none" stroke="white" stroke-width="1.5" d="M0,-3.0v7 M-2.5,-0.5L0,-3.0L2.5,-0.5"/>
  </g>
  <g id="arrowLeft" transform="rotate(270) translate(-36 17)">
    <use xlink:href="#rim"/>
    <path pointer-events="none" fill="none" stroke="white" stroke-width="1.5" d="M0,-3.0v7 M-2.5,-0.5L0,-3.0L2.5,-0.5"/>
  </g>
  <g id="resetDef">
    <use xlink:href="#rim2" fill="#404040"><set attributeName="fill" to="#808080" begin="reset.mouseover" end="reset.mouseout"/></use>
  </g>
</defs>
<script type="application/ecmascript">
var viewWidth = 1133;
var viewHeight = 175;
var sectionId = 'dynsection-432';
</script>
<script type="application/ecmascript" xlink:href="svg.min.js"/>
<svg id="graph" class="graph">
<g id="viewport">
<title>setTextColor</title>
<!-- Node1 -->
<g id="Node000001" class="node">
<title>Node1</title>
<g id="a_Node000001"><a xlink:title=" ">
<polygon fill="#999999" stroke="#666666" points="71.5,-92.25 0,-92.25 0,-73 71.5,-73 71.5,-92.25"/>
<text text-anchor="middle" x="35.75" y="-78.75" font-family="Helvetica,sans-Serif" font-size="10.00">setTextColor</text>
</a>
</g>
</g>
<!-- Node2 -->
<g id="Node000002" class="node">
<title>Node2</title>
<g id="a_Node000002"><a xlink:href="class_t_c_p_d_f.html#a2ea736e8bea04d12a9c0941787cac439" target="_top" xlink:title=" ">
<polygon fill="white" stroke="#666666" points="160.25,-92.25 107.5,-92.25 107.5,-73 160.25,-73 160.25,-92.25"/>
<text text-anchor="middle" x="133.88" y="-78.75" font-family="Helvetica,sans-Serif" font-size="10.00">setColor</text>
</a>
</g>
</g>
<!-- Node1&#45;&gt;Node2 -->
<g id="edge1_Node000001_Node000002" class="edge">
<title>Node1&#45;&gt;Node2</title>
<g id="a_edge1_Node000001_Node000002"><a xlink:title=" ">
<path fill="none" stroke="#63b8ff" d="M72,-82.62C79.75,-82.62 87.99,-82.62 95.82,-82.62"/>
<polygon fill="#63b8ff" stroke="#63b8ff" points="95.75,-86.13 105.75,-82.63 95.75,-79.13 95.75,-86.13"/>
</a>
</g>
</g>
<!-- Node3 -->
<g id="Node000003" class="node">
<title>Node3</title>
<g id="a_Node000003"><a xlink:href="class_t_c_p_d_f.html#a01627a8b7ad5c79ee736572b3d2ef3f5" target="_top" xlink:title=" ">
<polygon fill="white" stroke="#666666" points="404.88,-130.25 370.12,-130.25 370.12,-111 404.88,-111 404.88,-130.25"/>
<text text-anchor="middle" x="387.5" y="-116.75" font-family="Helvetica,sans-Serif" font-size="10.00">_out</text>
</a>
</g>
</g>
<!-- Node2&#45;&gt;Node3 -->
<g id="edge2_Node000002_Node000003" class="edge">
<title>Node2&#45;&gt;Node3</title>
<g id="a_edge2_Node000002_Node000003"><a xlink:title=" ">
<path fill="none" stroke="#63b8ff" d="M160.56,-91.84C171.44,-95.41 184.33,-99.21 196.25,-101.62 253.1,-113.14 320.98,-117.79 358.35,-119.58"/>
<polygon fill="#63b8ff" stroke="#63b8ff" points="358.14,-123.07 368.28,-120.02 358.44,-116.08 358.14,-123.07"/>
</a>
</g>
</g>
<!-- Node7 -->
<g id="Node000007" class="node">
<title>Node7</title>
<g id="a_Node000007"><a xlink:href="class_t_c_p_d_f.html#a4137e2e5e22a8f5b50fe38d51285ac8f" target="_top" xlink:title=" ">
<polygon fill="white" stroke="#666666" points="273,-92.25 196.25,-92.25 196.25,-73 273,-73 273,-92.25"/>
<text text-anchor="middle" x="234.62" y="-78.75" font-family="Helvetica,sans-Serif" font-size="10.00">AddSpotColor</text>
</a>
</g>
</g>
<!-- Node2&#45;&gt;Node7 -->
<g id="edge6_Node000002_Node000007" class="edge">
<title>Node2&#45;&gt;Node7</title>
<g id="a_edge6_Node000002_Node000007"><a xlink:title=" ">
<path fill="none" stroke="#63b8ff" d="M160.56,-82.62C167.86,-82.62 176.07,-82.62 184.28,-82.62"/>
<polygon fill="#63b8ff" stroke="#63b8ff" points="184.27,-86.13 194.27,-82.63 184.27,-79.13 184.27,-86.13"/>
</a>
</g>
</g>
<!-- Node8 -->
<g id="Node000008" class="node">
<title>Node8</title>
<g id="a_Node000008"><a xlink:href="class_t_c_p_d_f.html#a301436afa22feb9fe2de781e4018b60a" target="_top" xlink:title=" ">
<polygon fill="white" stroke="#666666" points="271.12,-55.25 198.12,-55.25 198.12,-36 271.12,-36 271.12,-55.25"/>
<text text-anchor="middle" x="234.62" y="-41.75" font-family="Helvetica,sans-Serif" font-size="10.00">setSpotColor</text>
</a>
</g>
</g>
<!-- Node2&#45;&gt;Node8 -->
<g id="edge7_Node000002_Node000008" class="edge">
<title>Node2&#45;&gt;Node8</title>
<g id="a_edge7_Node000002_Node000008"><a xlink:title=" ">
<path fill="none" stroke="#63b8ff" d="M160.56,-73C171.41,-68.93 184.26,-64.12 196.14,-59.67"/>
<polygon fill="#63b8ff" stroke="#63b8ff" points="197.13,-63.04 205.27,-56.25 194.68,-56.48 197.13,-63.04"/>
</a>
</g>
</g>
<!-- Node4 -->
<g id="Node000004" class="node">
<title>Node4</title>
<g id="a_Node000004"><a xlink:href="class_t_c_p_d_f.html#a2f0c138e82371b95c3899451a330da05" target="_top" xlink:title=" ">
<polygon fill="white" stroke="#666666" points="580.25,-167.25 502,-167.25 502,-148 580.25,-148 580.25,-167.25"/>
<text text-anchor="middle" x="541.12" y="-153.75" font-family="Helvetica,sans-Serif" font-size="10.00">getPageBuffer</text>
</a>
</g>
</g>
<!-- Node3&#45;&gt;Node4 -->
<g id="edge3_Node000003_Node000004" class="edge">
<title>Node3&#45;&gt;Node4</title>
<g id="a_edge3_Node000003_Node000004"><a xlink:title=" ">
<path fill="none" stroke="#63b8ff" d="M405.31,-124.73C425.75,-129.71 461.17,-138.36 490.58,-145.53"/>
<polygon fill="#63b8ff" stroke="#63b8ff" points="489.49,-148.87 500.04,-147.84 491.15,-142.07 489.49,-148.87"/>
</a>
</g>
</g>
<!-- Node5 -->
<g id="Node000005" class="node">
<title>Node5</title>
<g id="a_Node000005"><a xlink:href="class_t_c_p_d_f.html#ac43455b74ede7e3f1d7558feb764eb6f" target="_top" xlink:title=" ">
<polygon fill="white" stroke="#666666" points="569,-130.25 513.25,-130.25 513.25,-111 569,-111 569,-130.25"/>
<text text-anchor="middle" x="541.12" y="-116.75" font-family="Helvetica,sans-Serif" font-size="10.00">setBuffer</text>
</a>
</g>
</g>
<!-- Node3&#45;&gt;Node5 -->
<g id="edge4_Node000003_Node000005" class="edge">
<title>Node3&#45;&gt;Node5</title>
<g id="a_edge4_Node000003_Node000005"><a xlink:title=" ">
<path fill="none" stroke="#63b8ff" d="M405.31,-120.62C428.41,-120.62 470.67,-120.62 501.73,-120.62"/>
<polygon fill="#63b8ff" stroke="#63b8ff" points="501.51,-124.13 511.51,-120.63 501.51,-117.13 501.51,-124.13"/>
</a>
</g>
</g>
<!-- Node6 -->
<g id="Node000006" class="node">
<title>Node6</title>
<g id="a_Node000006"><a xlink:href="class_t_c_p_d_f.html#af4d8e4aed525c0bded587be897297a7f" target="_top" xlink:title=" ">
<polygon fill="white" stroke="#666666" points="580.25,-93.25 502,-93.25 502,-74 580.25,-74 580.25,-93.25"/>
<text text-anchor="middle" x="541.12" y="-79.75" font-family="Helvetica,sans-Serif" font-size="10.00">setPageBuffer</text>
</a>
</g>
</g>
<!-- Node3&#45;&gt;Node6 -->
<g id="edge5_Node000003_Node000006" class="edge">
<title>Node3&#45;&gt;Node6</title>
<g id="a_edge5_Node000003_Node000006"><a xlink:title=" ">
<path fill="none" stroke="#63b8ff" d="M405.31,-116.52C425.75,-111.54 461.17,-102.89 490.58,-95.72"/>
<polygon fill="#63b8ff" stroke="#63b8ff" points="491.15,-99.18 500.04,-93.41 489.49,-92.38 491.15,-99.18"/>
</a>
</g>
</g>
<!-- Node8&#45;&gt;Node3 -->
<g id="edge8_Node000008_Node000003" class="edge">
<title>Node8&#45;&gt;Node3</title>
<g id="a_edge8_Node000008_Node000003"><a xlink:title=" ">
<path fill="none" stroke="#63b8ff" d="M256.61,-55.66C261.96,-58.23 267.7,-61.02 273,-63.62 302.89,-78.33 337.03,-95.53 359.99,-107.16"/>
<polygon fill="#63b8ff" stroke="#63b8ff" points="358.15,-110.15 368.65,-111.55 361.32,-103.9 358.15,-110.15"/>
</a>
</g>
</g>
<!-- Node9 -->
<g id="Node000009" class="node">
<title>Node9</title>
<g id="a_Node000009"><a xlink:href="class_t_c_p_d_f.html#a5afab85a7aaf19395f9a0e86cae76928" target="_top" xlink:title=" ">
<polygon fill="white" stroke="#666666" points="406,-56.25 369,-56.25 369,-37 406,-37 406,-56.25"/>
<text text-anchor="middle" x="387.5" y="-42.75" font-family="Helvetica,sans-Serif" font-size="10.00">Error</text>
</a>
</g>
</g>
<!-- Node8&#45;&gt;Node9 -->
<g id="edge9_Node000008_Node000009" class="edge">
<title>Node8&#45;&gt;Node9</title>
<g id="a_edge9_Node000008_Node000009"><a xlink:title=" ">
<path fill="none" stroke="#63b8ff" d="M271.38,-45.86C297.62,-46.04 332.82,-46.27 357.36,-46.43"/>
<polygon fill="#63b8ff" stroke="#63b8ff" points="357.25,-49.93 367.27,-46.5 357.3,-42.93 357.25,-49.93"/>
</a>
</g>
</g>
<!-- Node14 -->
<g id="Node000014" class="node">
<title>Node14</title>
<g id="a_Node000014"><a xlink:href="class_t_c_p_d_f___c_o_l_o_r_s.html#a0acfb17940f35c8a197c3d8ce79a8437" target="_top" xlink:title=" ">
<polygon fill="white" stroke="#666666" points="466,-19.25 309,-19.25 309,0 466,0 466,-19.25"/>
<text text-anchor="middle" x="387.5" y="-5.75" font-family="Helvetica,sans-Serif" font-size="10.00">TCPDF_COLORS\getSpotColor</text>
</a>
</g>
</g>
<!-- Node8&#45;&gt;Node14 -->
<g id="edge14_Node000008_Node000014" class="edge">
<title>Node8&#45;&gt;Node14</title>
<g id="a_edge14_Node000008_Node000014"><a xlink:title=" ">
<path fill="none" stroke="#63b8ff" d="M271.43,-36.75C283.37,-33.81 296.75,-30.55 309,-27.62 316.31,-25.88 324.02,-24.06 331.62,-22.28"/>
<polygon fill="#63b8ff" stroke="#63b8ff" points="332.21,-25.74 341.15,-20.06 330.62,-18.92 332.21,-25.74"/>
</a>
</g>
</g>
<!-- Node10 -->
<g id="Node000010" class="node">
<title>Node10</title>
<g id="a_Node000010"><a xlink:href="class_t_c_p_d_f.html#a3f1223ef6da2a75d708d2cf17129e35a" target="_top" xlink:title=" ">
<polygon fill="white" stroke="#666666" points="567.88,-56.25 514.38,-56.25 514.38,-37 567.88,-37 567.88,-56.25"/>
<text text-anchor="middle" x="541.12" y="-42.75" font-family="Helvetica,sans-Serif" font-size="10.00">_destroy</text>
</a>
</g>
</g>
<!-- Node9&#45;&gt;Node10 -->
<g id="edge10_Node000009_Node000010" class="edge">
<title>Node9&#45;&gt;Node10</title>
<g id="a_edge10_Node000009_Node000010"><a xlink:title=" ">
<path fill="none" stroke="#63b8ff" d="M406.49,-46.62C430.14,-46.62 472.27,-46.62 502.92,-46.62"/>
<polygon fill="#63b8ff" stroke="#63b8ff" points="502.53,-50.13 512.53,-46.63 502.53,-43.13 502.53,-50.13"/>
</a>
</g>
</g>
<!-- Node11 -->
<g id="Node000011" class="node">
<title>Node11</title>
<g id="a_Node000011"><a xlink:href="class_t_c_p_d_f___s_t_a_t_i_c.html#a9e14c837e0fcb7de0b1b272f5b2384f7" target="_top" xlink:title=" ">
<polygon fill="white" stroke="#666666" points="753.75,-56.25 616.25,-56.25 616.25,-37 753.75,-37 753.75,-56.25"/>
<text text-anchor="middle" x="685" y="-42.75" font-family="Helvetica,sans-Serif" font-size="10.00">TCPDF_STATIC\file_exists</text>
</a>
</g>
</g>
<!-- Node10&#45;&gt;Node11 -->
<g id="edge11_Node000010_Node000011" class="edge">
<title>Node10&#45;&gt;Node11</title>
<g id="a_edge11_Node000010_Node000011"><a xlink:title=" ">
<path fill="none" stroke="#63b8ff" d="M568.15,-46.62C578.71,-46.62 591.53,-46.62 604.74,-46.62"/>
<polygon fill="#63b8ff" stroke="#63b8ff" points="604.37,-50.13 614.37,-46.63 604.37,-43.13 604.37,-50.13"/>
</a>
</g>
</g>
<!-- Node12 -->
<g id="Node000012" class="node">
<title>Node12</title>
<g id="a_Node000012"><a xlink:href="class_t_c_p_d_f___s_t_a_t_i_c.html#adeb9b51fef0b87a0befbdbb11e85f39b" target="_top" xlink:title=" ">
<polygon fill="white" stroke="#666666" points="925,-56.25 789.75,-56.25 789.75,-37 925,-37 925,-56.25"/>
<text text-anchor="middle" x="857.38" y="-42.75" font-family="Helvetica,sans-Serif" font-size="10.00">TCPDF_STATIC\url_exists</text>
</a>
</g>
</g>
<!-- Node11&#45;&gt;Node12 -->
<g id="edge12_Node000011_Node000012" class="edge">
<title>Node11&#45;&gt;Node12</title>
<g id="a_edge12_Node000011_Node000012"><a xlink:title=" ">
<path fill="none" stroke="#63b8ff" d="M753.83,-46.62C761.77,-46.62 769.93,-46.62 778.01,-46.62"/>
<polygon fill="#63b8ff" stroke="#63b8ff" points="777.82,-50.13 787.82,-46.63 777.82,-43.13 777.82,-50.13"/>
</a>
</g>
</g>
<!-- Node13 -->
<g id="Node000013" class="node">
<title>Node13</title>
<g id="a_Node000013"><a xlink:href="class_t_c_p_d_f___s_t_a_t_i_c.html#a79813ccb2446fdc8ec2b1a1f346a3809" target="_top" xlink:title=" ">
<polygon fill="white" stroke="#666666" points="1124.75,-56.25 961,-56.25 961,-37 1124.75,-37 1124.75,-56.25"/>
<text text-anchor="middle" x="1042.88" y="-42.75" font-family="Helvetica,sans-Serif" font-size="10.00">TCPDF_STATIC\encodeUrlQuery</text>
</a>
</g>
</g>
<!-- Node12&#45;&gt;Node13 -->
<g id="edge13_Node000012_Node000013" class="edge">
<title>Node12&#45;&gt;Node13</title>
<g id="a_edge13_Node000012_Node000013"><a xlink:title=" ">
<path fill="none" stroke="#63b8ff" d="M925.4,-46.62C933.2,-46.62 941.25,-46.62 949.31,-46.62"/>
<polygon fill="#63b8ff" stroke="#63b8ff" points="949.17,-50.13 959.17,-46.63 949.17,-43.13 949.17,-50.13"/>
</a>
</g>
</g>
</g>
</svg>

<g id="navigator" transform="translate(0 0)" fill="#404254">
  <rect fill="#f2f5e9" fill-opacity="0.5" stroke="#606060" stroke-width=".5" x="0" y="0" width="60" height="60"/>
  <use id="zoomplus" xlink:href="#zoomPlus" x="17" y="9" onmousedown="handleZoom(evt,'in')"/>
  <use id="zoomminus" xlink:href="#zoomMin" x="42" y="9" onmousedown="handleZoom(evt,'out')"/>
  <use id="reset" xlink:href="#resetDef" x="30" y="36" onmousedown="handleReset()"/>
   <use id="arrowup" xlink:href="#arrowUp" x="0" y="0" onmousedown="handlePan(0,-1)"/>
  <use id="arrowright" xlink:href="#arrowRight" x="0" y="0" onmousedown="handlePan(1,0)"/>
  <use id="arrowdown" xlink:href="#arrowDown" x="0" y="0" onmousedown="handlePan(0,1)"/>
  <use id="arrowleft" xlink:href="#arrowLeft" x="0" y="0" onmousedown="handlePan(-1,0)"/>
</g>
<svg viewBox="0 0 15 15" width="100%" height="30px" preserveAspectRatio="xMaxYMin meet">
 <g id="arrow_out" transform="scale(0.3 0.3)">
  <a xlink:href="class_t_c_p_d_f_a782b9140740ee0cf71ffad1aae0a7b5d_cgraph_org.svg" target="_base">
   <rect id="button" ry="5" rx="5" y="6" x="6" height="38" width="38"
        fill="#f2f5e9" fill-opacity="0.5" stroke="#606060" stroke-width="1.0"/>
   <path id="arrow"
     d="M 11.500037,31.436501 C 11.940474,20.09759 22.043105,11.32322 32.158766,21.979434 L 37.068811,17.246167 C 37.068811,17.246167 37.088388,32 37.088388,32 L 22.160133,31.978069 C 22.160133,31.978069 26.997745,27.140456 26.997745,27.140456 C 18.528582,18.264221 13.291696,25.230495 11.500037,31.436501 z"
     style="fill:#404040;"/>
  </a>
 </g>
</svg>

<style type='text/css'>
<![CDATA[
[data-mouse-over-selected='false'] { opacity: 0.7; }
[data-mouse-over-selected='true']  { opacity: 1.0; }
]]>
</style>
<script type="application/ecmascript"><![CDATA[
document.addEventListener('DOMContentLoaded', (event) => {
  highlightEdges();
  highlightAdjacentNodes();
});
]]></script>
</svg>
