<?xml version="1.0" encoding="UTF-8" standalone="no"?>
<!DOCTYPE svg PUBLIC "-//W3C//DTD SVG 1.1//EN"
 "http://www.w3.org/Graphics/SVG/1.1/DTD/svg11.dtd">
<!-- Generated by graphviz version 10.0.1 (20240210.2158)
 -->
<!-- Title: getAliasRightShift Pages: 1 -->
<!--zoomable 373 -->

<svg id="main" version="1.1" xmlns="http://www.w3.org/2000/svg" xmlns:xlink="http://www.w3.org/1999/xlink" xml:space="preserve" onload="init(evt)">
<style type="text/css"><![CDATA[
.node, .edge {opacity: 0.7;}
.node.selected, .edge.selected {opacity: 1;}
.edge:hover path { stroke: red; }
.edge:hover polygon { stroke: red; fill: red; }
]]></style>

<defs>
  <circle id="rim" cx="0" cy="0" r="7"/>
  <circle id="rim2" cx="0" cy="0" r="3.5"/>
  <g id="zoomPlus">
    <use xlink:href="#rim" fill="#404040"><set attributeName="fill" to="#808080" begin="zoomplus.mouseover" end="zoomplus.mouseout"/></use>
    <path d="M-4,0h8M0,-4v8" fill="none" stroke="white" stroke-width="1.5" pointer-events="none"/>
  </g>
  <g id="zoomMin">
    <use xlink:href="#rim" fill="#404040"><set attributeName="fill" to="#808080" begin="zoomminus.mouseover" end="zoomminus.mouseout"/></use>
    <path d="M-4,0h8" fill="none" stroke="white" stroke-width="1.5" pointer-events="none"/>
  </g>
  <g id="arrowUp" transform="translate(30 24)">
    <use xlink:href="#rim"/>
    <path pointer-events="none" fill="none" stroke="white" stroke-width="1.5" d="M0,-3.0v7 M-2.5,-0.5L0,-3.0L2.5,-0.5"/>
  </g>
  <g id="arrowRight" transform="rotate(90) translate(36 -43)">
    <use xlink:href="#rim"/>
    <path pointer-events="none" fill="none" stroke="white" stroke-width="1.5" d="M0,-3.0v7 M-2.5,-0.5L0,-3.0L2.5,-0.5"/>
  </g>
  <g id="arrowDown" transform="rotate(180) translate(-30 -48)">
    <use xlink:href="#rim"/>
    <path pointer-events="none" fill="none" stroke="white" stroke-width="1.5" d="M0,-3.0v7 M-2.5,-0.5L0,-3.0L2.5,-0.5"/>
  </g>
  <g id="arrowLeft" transform="rotate(270) translate(-36 17)">
    <use xlink:href="#rim"/>
    <path pointer-events="none" fill="none" stroke="white" stroke-width="1.5" d="M0,-3.0v7 M-2.5,-0.5L0,-3.0L2.5,-0.5"/>
  </g>
  <g id="resetDef">
    <use xlink:href="#rim2" fill="#404040"><set attributeName="fill" to="#808080" begin="reset.mouseover" end="reset.mouseout"/></use>
  </g>
</defs>
<script type="application/ecmascript">
var viewWidth = 1655;
var viewHeight = 373;
var sectionId = 'dynsection-180';
</script>
<script type="application/ecmascript" xlink:href="svg.min.js"/>
<svg id="graph" class="graph">
<g id="viewport">
<title>getAliasRightShift</title>
<!-- Node1 -->
<g id="Node000001" class="node">
<title>Node1</title>
<g id="a_Node000001"><a xlink:title=" ">
<polygon fill="#999999" stroke="#666666" points="94.75,-316.88 0,-316.88 0,-297.62 94.75,-297.62 94.75,-316.88"/>
<text text-anchor="middle" x="47.38" y="-303.38" font-family="Helvetica,sans-Serif" font-size="10.00">getAliasRightShift</text>
</a>
</g>
</g>
<!-- Node2 -->
<g id="Node000002" class="node">
<title>Node2</title>
<g id="a_Node000002"><a xlink:href="class_t_c_p_d_f.html#af0ba9f20f8924c15c39c1414f6291ce8" target="_top" xlink:title=" ">
<polygon fill="white" stroke="#666666" points="211.62,-316.88 132.62,-316.88 132.62,-297.62 211.62,-297.62 211.62,-316.88"/>
<text text-anchor="middle" x="172.12" y="-303.38" font-family="Helvetica,sans-Serif" font-size="10.00">GetNumChars</text>
</a>
</g>
</g>
<!-- Node1&#45;&gt;Node2 -->
<g id="edge1_Node000001_Node000002" class="edge">
<title>Node1&#45;&gt;Node2</title>
<g id="a_edge1_Node000001_Node000002"><a xlink:title=" ">
<path fill="none" stroke="#63b8ff" d="M95.13,-307.25C103.61,-307.25 112.48,-307.25 121.05,-307.25"/>
<polygon fill="#63b8ff" stroke="#63b8ff" points="120.97,-310.75 130.97,-307.25 120.97,-303.75 120.97,-310.75"/>
</a>
</g>
</g>
<!-- Node3 -->
<g id="Node000003" class="node">
<title>Node3</title>
<g id="a_Node000003"><a xlink:href="class_t_c_p_d_f.html#a1ac383413d5cb6e1d893989216df3566" target="_top" xlink:title=" ">
<polygon fill="white" stroke="#666666" points="566.88,-364.88 487.88,-364.88 487.88,-345.62 566.88,-345.62 566.88,-364.88"/>
<text text-anchor="middle" x="527.38" y="-351.38" font-family="Helvetica,sans-Serif" font-size="10.00">isUnicodeFont</text>
</a>
</g>
</g>
<!-- Node1&#45;&gt;Node3 -->
<g id="edge37_Node000001_Node000003" class="edge">
<title>Node1&#45;&gt;Node3</title>
<g id="a_edge37_Node000001_Node000003"><a xlink:title=" ">
<path fill="none" stroke="#63b8ff" d="M88.43,-317.34C101.83,-320.49 116.88,-323.78 130.75,-326.25 253.52,-348.1 400.53,-353.55 476.08,-354.87"/>
<polygon fill="#63b8ff" stroke="#63b8ff" points="476.01,-358.37 486.06,-355.02 476.12,-351.37 476.01,-358.37"/>
</a>
</g>
</g>
<!-- Node6 -->
<g id="Node000006" class="node">
<title>Node6</title>
<g id="a_Node000006"><a xlink:href="class_t_c_p_d_f.html#adfe661b21b2b7f77e24f497ef5f181bf" target="_top" xlink:title=" ">
<polygon fill="white" stroke="#666666" points="213.5,-276.88 130.75,-276.88 130.75,-257.62 213.5,-257.62 213.5,-276.88"/>
<text text-anchor="middle" x="172.12" y="-263.38" font-family="Helvetica,sans-Serif" font-size="10.00">GetStringWidth</text>
</a>
</g>
</g>
<!-- Node1&#45;&gt;Node6 -->
<g id="edge5_Node000001_Node000006" class="edge">
<title>Node1&#45;&gt;Node6</title>
<g id="a_edge5_Node000001_Node000006"><a xlink:title=" ">
<path fill="none" stroke="#63b8ff" d="M79.35,-297.16C94.47,-292.23 112.88,-286.23 129.23,-280.9"/>
<polygon fill="#63b8ff" stroke="#63b8ff" points="130.3,-284.24 138.72,-277.81 128.13,-277.58 130.3,-284.24"/>
</a>
</g>
</g>
<!-- Node2&#45;&gt;Node3 -->
<g id="edge2_Node000002_Node000003" class="edge">
<title>Node2&#45;&gt;Node3</title>
<g id="a_edge2_Node000002_Node000003"><a xlink:title=" ">
<path fill="none" stroke="#63b8ff" d="M211.94,-312.52C276.28,-321.27 404.99,-338.76 476.17,-348.43"/>
<polygon fill="#63b8ff" stroke="#63b8ff" points="475.62,-351.88 486,-349.76 476.56,-344.95 475.62,-351.88"/>
</a>
</g>
</g>
<!-- Node4 -->
<g id="Node000004" class="node">
<title>Node4</title>
<g id="a_Node000004"><a xlink:href="class_t_c_p_d_f___f_o_n_t_s.html#a3ebaf472fa553b1902b6048edbf1a3f4" target="_top" xlink:title=" ">
<polygon fill="white" stroke="#666666" points="402,-302.5 249.5,-302.5 249.5,-272 402,-272 402,-302.5"/>
<text text-anchor="start" x="257.5" y="-289" font-family="Helvetica,sans-Serif" font-size="10.00">TCPDF_FONTS\UTF8StringTo</text>
<text text-anchor="middle" x="325.75" y="-277.75" font-family="Helvetica,sans-Serif" font-size="10.00">Array</text>
</a>
</g>
</g>
<!-- Node2&#45;&gt;Node4 -->
<g id="edge3_Node000002_Node000004" class="edge">
<title>Node2&#45;&gt;Node4</title>
<g id="a_edge3_Node000002_Node000004"><a xlink:title=" ">
<path fill="none" stroke="#63b8ff" d="M211.78,-302.15C219.95,-301.07 228.89,-299.89 238.04,-298.69"/>
<polygon fill="#63b8ff" stroke="#63b8ff" points="238.32,-302.18 247.77,-297.4 237.4,-295.24 238.32,-302.18"/>
</a>
</g>
</g>
<!-- Node5 -->
<g id="Node000005" class="node">
<title>Node5</title>
<g id="a_Node000005"><a xlink:href="class_t_c_p_d_f___s_t_a_t_i_c.html#ad0824c9aeeca3999e1702cfbbde61679" target="_top" xlink:title=" ">
<polygon fill="white" stroke="#666666" points="593.12,-327.88 461.62,-327.88 461.62,-308.62 593.12,-308.62 593.12,-327.88"/>
<text text-anchor="middle" x="527.38" y="-314.38" font-family="Helvetica,sans-Serif" font-size="10.00">TCPDF_STATIC\pregSplit</text>
</a>
</g>
</g>
<!-- Node4&#45;&gt;Node5 -->
<g id="edge4_Node000004_Node000005" class="edge">
<title>Node4&#45;&gt;Node5</title>
<g id="a_edge4_Node000004_Node000005"><a xlink:title=" ">
<path fill="none" stroke="#63b8ff" d="M402.22,-298.97C417.86,-301.4 434.34,-303.96 450.01,-306.39"/>
<polygon fill="#63b8ff" stroke="#63b8ff" points="449.34,-309.83 459.76,-307.9 450.41,-302.91 449.34,-309.83"/>
</a>
</g>
</g>
<!-- Node6&#45;&gt;Node4 -->
<g id="edge36_Node000006_Node000004" class="edge">
<title>Node6&#45;&gt;Node4</title>
<g id="a_edge36_Node000006_Node000004"><a xlink:title=" ">
<path fill="none" stroke="#63b8ff" d="M213.76,-272.61C221.38,-273.62 229.62,-274.7 238.03,-275.81"/>
<polygon fill="#63b8ff" stroke="#63b8ff" points="237.3,-279.24 247.67,-277.08 238.21,-272.3 237.3,-279.24"/>
</a>
</g>
</g>
<!-- Node7 -->
<g id="Node000007" class="node">
<title>Node7</title>
<g id="a_Node000007"><a xlink:href="class_t_c_p_d_f.html#adc76b743490169679bffd827ce54cd7b" target="_top" xlink:title=" ">
<polygon fill="white" stroke="#666666" points="373.5,-253.88 278,-253.88 278,-234.62 373.5,-234.62 373.5,-253.88"/>
<text text-anchor="middle" x="325.75" y="-240.38" font-family="Helvetica,sans-Serif" font-size="10.00">GetArrStringWidth</text>
</a>
</g>
</g>
<!-- Node6&#45;&gt;Node7 -->
<g id="edge6_Node000006_Node000007" class="edge">
<title>Node6&#45;&gt;Node7</title>
<g id="a_edge6_Node000006_Node000007"><a xlink:title=" ">
<path fill="none" stroke="#63b8ff" d="M213.76,-261.09C229.88,-258.64 248.72,-255.78 266.26,-253.12"/>
<polygon fill="#63b8ff" stroke="#63b8ff" points="266.7,-256.6 276.06,-251.64 265.65,-249.68 266.7,-256.6"/>
</a>
</g>
</g>
<!-- Node29 -->
<g id="Node000029" class="node">
<title>Node29</title>
<g id="a_Node000029"><a xlink:href="class_t_c_p_d_f___f_o_n_t_s.html#ad81778eaf9190d36116b9ab32a38e5c1" target="_top" xlink:title=" ">
<polygon fill="white" stroke="#666666" points="388.12,-131.88 263.38,-131.88 263.38,-112.62 388.12,-112.62 388.12,-131.88"/>
<text text-anchor="middle" x="325.75" y="-118.38" font-family="Helvetica,sans-Serif" font-size="10.00">TCPDF_FONTS\utf8Bidi</text>
</a>
</g>
</g>
<!-- Node6&#45;&gt;Node29 -->
<g id="edge34_Node000006_Node000029" class="edge">
<title>Node6&#45;&gt;Node29</title>
<g id="a_edge34_Node000006_Node000029"><a xlink:title=" ">
<path fill="none" stroke="#63b8ff" d="M183.55,-257.28C208.87,-233.07 273.89,-170.88 306.1,-140.08"/>
<polygon fill="#63b8ff" stroke="#63b8ff" points="308.35,-142.77 313.16,-133.33 303.52,-137.71 308.35,-142.77"/>
</a>
</g>
</g>
<!-- Node7&#45;&gt;Node3 -->
<g id="edge11_Node000007_Node000003" class="edge">
<title>Node7&#45;&gt;Node3</title>
<g id="a_edge11_Node000007_Node000003"><a xlink:title=" ">
<path fill="none" stroke="#63b8ff" d="M373.86,-249.53C383.93,-252.38 393.95,-256.7 402,-263.25 430.38,-286.32 409.09,-314.84 438,-337.25 448.92,-345.72 462.82,-350.49 476.35,-353.1"/>
<polygon fill="#63b8ff" stroke="#63b8ff" points="475.63,-356.53 486.05,-354.59 476.7,-349.61 475.63,-356.53"/>
</a>
</g>
</g>
<!-- Node8 -->
<g id="Node000008" class="node">
<title>Node8</title>
<g id="a_Node000008"><a xlink:href="class_t_c_p_d_f___s_t_a_t_i_c.html#a5e311abad71449e634216a5d897a65b6" target="_top" xlink:title=" ">
<polygon fill="white" stroke="#666666" points="905.25,-30.5 785,-30.5 785,0 905.25,0 905.25,-30.5"/>
<text text-anchor="start" x="793" y="-17" font-family="Helvetica,sans-Serif" font-size="10.00">TCPDF_STATIC\empty</text>
<text text-anchor="middle" x="845.12" y="-5.75" font-family="Helvetica,sans-Serif" font-size="10.00">_string</text>
</a>
</g>
</g>
<!-- Node7&#45;&gt;Node8 -->
<g id="edge7_Node000007_Node000008" class="edge">
<title>Node7&#45;&gt;Node8</title>
<g id="a_edge7_Node000007_Node000008"><a xlink:title=" ">
<path fill="none" stroke="#63b8ff" d="M345.87,-234.18C367.9,-222.68 405.27,-203.5 438,-188.25 564.89,-129.14 717.46,-66.31 794.47,-35.16"/>
<polygon fill="#63b8ff" stroke="#63b8ff" points="795.46,-38.53 803.42,-31.54 792.84,-32.04 795.46,-38.53"/>
</a>
</g>
</g>
<!-- Node9 -->
<g id="Node000009" class="node">
<title>Node9</title>
<g id="a_Node000009"><a xlink:href="class_t_c_p_d_f.html#a256c6c79add01688b482a6c8e0b208b9" target="_top" xlink:title=" ">
<polygon fill="white" stroke="#666666" points="566.5,-290.88 488.25,-290.88 488.25,-271.62 566.5,-271.62 566.5,-290.88"/>
<text text-anchor="middle" x="527.38" y="-277.38" font-family="Helvetica,sans-Serif" font-size="10.00">GetCharWidth</text>
</a>
</g>
</g>
<!-- Node7&#45;&gt;Node9 -->
<g id="edge8_Node000007_Node000009" class="edge">
<title>Node7&#45;&gt;Node9</title>
<g id="a_edge8_Node000007_Node000009"><a xlink:title=" ">
<path fill="none" stroke="#63b8ff" d="M373.81,-252.97C404.81,-258.72 445.34,-266.23 476.84,-272.07"/>
<polygon fill="#63b8ff" stroke="#63b8ff" points="476.04,-275.48 486.51,-273.86 477.32,-268.6 476.04,-275.48"/>
</a>
</g>
</g>
<!-- Node12 -->
<g id="Node000012" class="node">
<title>Node12</title>
<g id="a_Node000012"><a xlink:href="class_t_c_p_d_f.html#a72c67d12759f8b67b9085ff0a274ee62" target="_top" xlink:title=" ">
<polygon fill="white" stroke="#666666" points="551.88,-216.88 502.88,-216.88 502.88,-197.62 551.88,-197.62 551.88,-216.88"/>
<text text-anchor="middle" x="527.38" y="-203.38" font-family="Helvetica,sans-Serif" font-size="10.00">setFont</text>
</a>
</g>
</g>
<!-- Node7&#45;&gt;Node12 -->
<g id="edge12_Node000007_Node000012" class="edge">
<title>Node7&#45;&gt;Node12</title>
<g id="a_edge12_Node000007_Node000012"><a xlink:title=" ">
<path fill="none" stroke="#63b8ff" d="M373.81,-235.53C409.84,-228.85 458.75,-219.78 491.38,-213.74"/>
<polygon fill="#63b8ff" stroke="#63b8ff" points="491.92,-217.2 501.12,-211.93 490.65,-210.31 491.92,-217.2"/>
</a>
</g>
</g>
<!-- Node28 -->
<g id="Node000028" class="node">
<title>Node28</title>
<g id="a_Node000028"><a xlink:href="class_t_c_p_d_f___f_o_n_t_s.html#af51f01784ab031ef60f2beb581a300fb" target="_top" xlink:title=" ">
<polygon fill="white" stroke="#666666" points="616.75,-253.88 438,-253.88 438,-234.62 616.75,-234.62 616.75,-253.88"/>
<text text-anchor="middle" x="527.38" y="-240.38" font-family="Helvetica,sans-Serif" font-size="10.00">TCPDF_FONTS\UTF8ArrToLatin1Arr</text>
</a>
</g>
</g>
<!-- Node7&#45;&gt;Node28 -->
<g id="edge33_Node000007_Node000028" class="edge">
<title>Node7&#45;&gt;Node28</title>
<g id="a_edge33_Node000007_Node000028"><a xlink:title=" ">
<path fill="none" stroke="#63b8ff" d="M373.81,-244.25C389.65,-244.25 407.99,-244.25 426.33,-244.25"/>
<polygon fill="#63b8ff" stroke="#63b8ff" points="426.22,-247.75 436.22,-244.25 426.22,-240.75 426.22,-247.75"/>
</a>
</g>
</g>
<!-- Node10 -->
<g id="Node000010" class="node">
<title>Node10</title>
<g id="a_Node000010"><a xlink:href="class_t_c_p_d_f.html#ab00563d8a67f261c973eb95bc68cc27d" target="_top" xlink:title=" ">
<polygon fill="white" stroke="#666666" points="749,-329.88 652.75,-329.88 652.75,-310.62 749,-310.62 749,-329.88"/>
<text text-anchor="middle" x="700.88" y="-316.38" font-family="Helvetica,sans-Serif" font-size="10.00">getRawCharWidth</text>
</a>
</g>
</g>
<!-- Node9&#45;&gt;Node10 -->
<g id="edge9_Node000009_Node000010" class="edge">
<title>Node9&#45;&gt;Node10</title>
<g id="a_edge9_Node000009_Node000010"><a xlink:title=" ">
<path fill="none" stroke="#63b8ff" d="M566.74,-288.66C582.3,-291.77 600.42,-295.53 616.75,-299.25 627.74,-301.76 639.51,-304.62 650.63,-307.41"/>
<polygon fill="#63b8ff" stroke="#63b8ff" points="649.46,-310.72 660.01,-309.78 651.17,-303.93 649.46,-310.72"/>
</a>
</g>
</g>
<!-- Node11 -->
<g id="Node000011" class="node">
<title>Node11</title>
<g id="a_Node000011"><a xlink:href="class_t_c_p_d_f.html#a16ee07e7218f1e5680513dab66fd4f36" target="_top" xlink:title=" ">
<polygon fill="white" stroke="#666666" points="897,-329.88 793.25,-329.88 793.25,-310.62 897,-310.62 897,-329.88"/>
<text text-anchor="middle" x="845.12" y="-316.38" font-family="Helvetica,sans-Serif" font-size="10.00">getAbsFontMeasure</text>
</a>
</g>
</g>
<!-- Node10&#45;&gt;Node11 -->
<g id="edge10_Node000010_Node000011" class="edge">
<title>Node10&#45;&gt;Node11</title>
<g id="a_edge10_Node000010_Node000011"><a xlink:title=" ">
<path fill="none" stroke="#63b8ff" d="M749.24,-320.25C759.68,-320.25 770.89,-320.25 781.81,-320.25"/>
<polygon fill="#63b8ff" stroke="#63b8ff" points="781.54,-323.75 791.54,-320.25 781.54,-316.75 781.54,-323.75"/>
</a>
</g>
</g>
<!-- Node13 -->
<g id="Node000013" class="node">
<title>Node13</title>
<g id="a_Node000013"><a xlink:href="class_t_c_p_d_f.html#a1a0390351695ec7f1a9c01d88d303a87" target="_top" xlink:title=" ">
<polygon fill="white" stroke="#666666" points="727.25,-160.88 674.5,-160.88 674.5,-141.62 727.25,-141.62 727.25,-160.88"/>
<text text-anchor="middle" x="700.88" y="-147.38" font-family="Helvetica,sans-Serif" font-size="10.00">AddFont</text>
</a>
</g>
</g>
<!-- Node12&#45;&gt;Node13 -->
<g id="edge13_Node000012_Node000013" class="edge">
<title>Node12&#45;&gt;Node13</title>
<g id="a_edge13_Node000012_Node000013"><a xlink:title=" ">
<path fill="none" stroke="#63b8ff" d="M552.22,-199.46C581.08,-190.04 629.97,-174.08 663.53,-163.12"/>
<polygon fill="#63b8ff" stroke="#63b8ff" points="664.42,-166.51 672.84,-160.08 662.24,-159.86 664.42,-166.51"/>
</a>
</g>
</g>
<!-- Node19 -->
<g id="Node000019" class="node">
<title>Node19</title>
<g id="a_Node000019"><a xlink:href="class_t_c_p_d_f.html#a90647c778bef4bd0329a254d3bc155c3" target="_top" xlink:title=" ">
<polygon fill="white" stroke="#666666" points="882.75,-255.88 807.5,-255.88 807.5,-236.62 882.75,-236.62 882.75,-255.88"/>
<text text-anchor="middle" x="845.12" y="-242.38" font-family="Helvetica,sans-Serif" font-size="10.00">getFontBuffer</text>
</a>
</g>
</g>
<!-- Node12&#45;&gt;Node19 -->
<g id="edge26_Node000012_Node000019" class="edge">
<title>Node12&#45;&gt;Node19</title>
<g id="a_edge26_Node000012_Node000019"><a xlink:title=" ">
<path fill="none" stroke="#63b8ff" d="M552.21,-210.38C577.24,-213.65 617.75,-218.9 652.75,-223.25 701.56,-229.32 757.41,-236 796.13,-240.59"/>
<polygon fill="#63b8ff" stroke="#63b8ff" points="795.22,-244.01 805.57,-241.71 796.05,-237.06 795.22,-244.01"/>
</a>
</g>
</g>
<!-- Node22 -->
<g id="Node000022" class="node">
<title>Node22</title>
<g id="a_Node000022"><a xlink:href="class_t_c_p_d_f.html#a3f269a566cb96649d817505c5b28b326" target="_top" xlink:title=" ">
<polygon fill="white" stroke="#666666" points="891.38,-218.88 798.88,-218.88 798.88,-199.62 891.38,-199.62 891.38,-218.88"/>
<text text-anchor="middle" x="845.12" y="-205.38" font-family="Helvetica,sans-Serif" font-size="10.00">setFontSubBuffer</text>
</a>
</g>
</g>
<!-- Node12&#45;&gt;Node22 -->
<g id="edge32_Node000012_Node000022" class="edge">
<title>Node12&#45;&gt;Node22</title>
<g id="a_edge32_Node000012_Node000022"><a xlink:title=" ">
<path fill="none" stroke="#63b8ff" d="M552.37,-207.4C602.06,-207.72 717.41,-208.45 787.27,-208.89"/>
<polygon fill="#63b8ff" stroke="#63b8ff" points="786.96,-212.39 796.98,-208.95 787,-205.39 786.96,-212.39"/>
</a>
</g>
</g>
<!-- Node23 -->
<g id="Node000023" class="node">
<title>Node23</title>
<g id="a_Node000023"><a xlink:href="class_t_c_p_d_f.html#ade17bbfd77ebd28174594d1ac70c77bd" target="_top" xlink:title=" ">
<polygon fill="white" stroke="#666666" points="735.12,-292.88 666.62,-292.88 666.62,-273.62 735.12,-273.62 735.12,-292.88"/>
<text text-anchor="middle" x="700.88" y="-279.38" font-family="Helvetica,sans-Serif" font-size="10.00">setFontSize</text>
</a>
</g>
</g>
<!-- Node12&#45;&gt;Node23 -->
<g id="edge27_Node000012_Node000023" class="edge">
<title>Node12&#45;&gt;Node23</title>
<g id="a_edge27_Node000012_Node000023"><a xlink:title=" ">
<path fill="none" stroke="#63b8ff" d="M552.07,-208.53C570.57,-210.34 596.46,-214.72 616.75,-225.25 636.28,-235.39 634.76,-246.57 652.75,-259.25 657.21,-262.39 662.13,-265.37 667.07,-268.08"/>
<polygon fill="#63b8ff" stroke="#63b8ff" points="665.23,-271.07 675.72,-272.57 668.45,-264.86 665.23,-271.07"/>
</a>
</g>
</g>
<!-- Node13&#45;&gt;Node8 -->
<g id="edge14_Node000013_Node000008" class="edge">
<title>Node13&#45;&gt;Node8</title>
<g id="a_edge14_Node000013_Node000008"><a xlink:title=" ">
<path fill="none" stroke="#63b8ff" d="M720.2,-141.15C729.74,-135.18 741.05,-126.91 749,-117.25 773.28,-87.78 757.38,-65.61 785,-39.25 785.62,-38.66 786.25,-38.09 786.9,-37.53"/>
<polygon fill="#63b8ff" stroke="#63b8ff" points="788.71,-40.53 794.79,-31.85 784.63,-34.85 788.71,-40.53"/>
</a>
</g>
</g>
<!-- Node14 -->
<g id="Node000014" class="node">
<title>Node14</title>
<g id="a_Node000014"><a xlink:href="class_t_c_p_d_f.html#a5afab85a7aaf19395f9a0e86cae76928" target="_top" xlink:title=" ">
<polygon fill="white" stroke="#666666" points="863.62,-67.88 826.62,-67.88 826.62,-48.62 863.62,-48.62 863.62,-67.88"/>
<text text-anchor="middle" x="845.12" y="-54.38" font-family="Helvetica,sans-Serif" font-size="10.00">Error</text>
</a>
</g>
</g>
<!-- Node13&#45;&gt;Node14 -->
<g id="edge15_Node000013_Node000014" class="edge">
<title>Node13&#45;&gt;Node14</title>
<g id="a_edge15_Node000013_Node000014"><a xlink:title=" ">
<path fill="none" stroke="#63b8ff" d="M717.4,-141.35C726.92,-134.97 739.14,-126.21 749,-117.25 766.95,-100.94 764.62,-89.39 785,-76.25 794.01,-70.44 804.99,-66.42 815.03,-63.68"/>
<polygon fill="#63b8ff" stroke="#63b8ff" points="815.83,-67.09 824.75,-61.38 814.21,-60.28 815.83,-67.09"/>
</a>
</g>
</g>
<!-- Node16 -->
<g id="Node000016" class="node">
<title>Node16</title>
<g id="a_Node000016"><a xlink:href="class_t_c_p_d_f___s_t_a_t_i_c.html#a9e14c837e0fcb7de0b1b272f5b2384f7" target="_top" xlink:title=" ">
<polygon fill="white" stroke="#666666" points="1275.5,-142.88 1138,-142.88 1138,-123.62 1275.5,-123.62 1275.5,-142.88"/>
<text text-anchor="middle" x="1206.75" y="-129.38" font-family="Helvetica,sans-Serif" font-size="10.00">TCPDF_STATIC\file_exists</text>
</a>
</g>
</g>
<!-- Node13&#45;&gt;Node16 -->
<g id="edge20_Node000013_Node000016" class="edge">
<title>Node13&#45;&gt;Node16</title>
<g id="a_edge20_Node000013_Node000016"><a xlink:title=" ">
<path fill="none" stroke="#63b8ff" d="M727.68,-153.59C744.08,-154.96 765.77,-156.56 785,-157.25 925.81,-162.33 961.84,-166.78 1102,-152.25 1117.02,-150.69 1133.13,-148.17 1148.07,-145.46"/>
<polygon fill="#63b8ff" stroke="#63b8ff" points="1148.56,-148.93 1157.74,-143.64 1147.27,-142.05 1148.56,-148.93"/>
</a>
</g>
</g>
<!-- Node13&#45;&gt;Node19 -->
<g id="edge21_Node000013_Node000019" class="edge">
<title>Node13&#45;&gt;Node19</title>
<g id="a_edge21_Node000013_Node000019"><a xlink:title=" ">
<path fill="none" stroke="#63b8ff" d="M710,-161.29C723.77,-177.64 753.27,-210.03 785,-228.25 788.61,-230.32 792.48,-232.18 796.45,-233.84"/>
<polygon fill="#63b8ff" stroke="#63b8ff" points="795.08,-237.06 805.67,-237.26 797.52,-230.5 795.08,-237.06"/>
</a>
</g>
</g>
<!-- Node20 -->
<g id="Node000020" class="node">
<title>Node20</title>
<g id="a_Node000020"><a xlink:href="class_t_c_p_d_f___f_o_n_t_s.html#a32394898b8badb214439dd0781b011cd" target="_top" xlink:title=" ">
<polygon fill="white" stroke="#666666" points="1102,-142.88 941.25,-142.88 941.25,-123.62 1102,-123.62 1102,-142.88"/>
<text text-anchor="middle" x="1021.62" y="-129.38" font-family="Helvetica,sans-Serif" font-size="10.00">TCPDF_FONTS\getFontFullPath</text>
</a>
</g>
</g>
<!-- Node13&#45;&gt;Node20 -->
<g id="edge22_Node000013_Node000020" class="edge">
<title>Node13&#45;&gt;Node20</title>
<g id="a_edge22_Node000013_Node000020"><a xlink:title=" ">
<path fill="none" stroke="#63b8ff" d="M727.69,-149.79C771.14,-147.34 860.88,-142.27 929.65,-138.39"/>
<polygon fill="#63b8ff" stroke="#63b8ff" points="929.63,-141.89 939.42,-137.84 929.24,-134.91 929.63,-141.89"/>
</a>
</g>
</g>
<!-- Node21 -->
<g id="Node000021" class="node">
<title>Node21</title>
<g id="a_Node000021"><a xlink:href="class_t_c_p_d_f.html#a10adf1445ebb13d2267c8e8810016661" target="_top" xlink:title=" ">
<polygon fill="white" stroke="#666666" points="882.75,-104.88 807.5,-104.88 807.5,-85.62 882.75,-85.62 882.75,-104.88"/>
<text text-anchor="middle" x="845.12" y="-91.38" font-family="Helvetica,sans-Serif" font-size="10.00">setFontBuffer</text>
</a>
</g>
</g>
<!-- Node13&#45;&gt;Node21 -->
<g id="edge24_Node000013_Node000021" class="edge">
<title>Node13&#45;&gt;Node21</title>
<g id="a_edge24_Node000013_Node000021"><a xlink:title=" ">
<path fill="none" stroke="#63b8ff" d="M727.31,-141.24C749.72,-132.41 782.64,-119.46 807.82,-109.54"/>
<polygon fill="#63b8ff" stroke="#63b8ff" points="809,-112.84 817.03,-105.92 806.44,-106.32 809,-112.84"/>
</a>
</g>
</g>
<!-- Node13&#45;&gt;Node22 -->
<g id="edge25_Node000013_Node000022" class="edge">
<title>Node13&#45;&gt;Node22</title>
<g id="a_edge25_Node000013_Node000022"><a xlink:title=" ">
<path fill="none" stroke="#63b8ff" d="M726.24,-161.23C742.8,-168.02 765.22,-177.19 785,-185.25 792.67,-188.38 800.9,-191.72 808.72,-194.89"/>
<polygon fill="#63b8ff" stroke="#63b8ff" points="807.39,-198.14 817.98,-198.65 810.03,-191.65 807.39,-198.14"/>
</a>
</g>
</g>
<!-- Node15 -->
<g id="Node000015" class="node">
<title>Node15</title>
<g id="a_Node000015"><a xlink:href="class_t_c_p_d_f.html#a3f1223ef6da2a75d708d2cf17129e35a" target="_top" xlink:title=" ">
<polygon fill="white" stroke="#666666" points="1048.38,-86.88 994.88,-86.88 994.88,-67.62 1048.38,-67.62 1048.38,-86.88"/>
<text text-anchor="middle" x="1021.62" y="-73.38" font-family="Helvetica,sans-Serif" font-size="10.00">_destroy</text>
</a>
</g>
</g>
<!-- Node14&#45;&gt;Node15 -->
<g id="edge16_Node000014_Node000015" class="edge">
<title>Node14&#45;&gt;Node15</title>
<g id="a_edge16_Node000014_Node000015"><a xlink:title=" ">
<path fill="none" stroke="#63b8ff" d="M863.82,-60.18C891.65,-63.21 946.28,-69.16 983.13,-73.17"/>
<polygon fill="#63b8ff" stroke="#63b8ff" points="982.59,-76.63 992.91,-74.23 983.35,-69.67 982.59,-76.63"/>
</a>
</g>
</g>
<!-- Node15&#45;&gt;Node16 -->
<g id="edge17_Node000015_Node000016" class="edge">
<title>Node15&#45;&gt;Node16</title>
<g id="a_edge17_Node000015_Node000016"><a xlink:title=" ">
<path fill="none" stroke="#63b8ff" d="M1048.86,-85.27C1078.31,-94.28 1126.57,-109.04 1161.8,-119.81"/>
<polygon fill="#63b8ff" stroke="#63b8ff" points="1160.71,-123.14 1171.3,-122.71 1162.76,-116.44 1160.71,-123.14"/>
</a>
</g>
</g>
<!-- Node17 -->
<g id="Node000017" class="node">
<title>Node17</title>
<g id="a_Node000017"><a xlink:href="class_t_c_p_d_f___s_t_a_t_i_c.html#adeb9b51fef0b87a0befbdbb11e85f39b" target="_top" xlink:title=" ">
<polygon fill="white" stroke="#666666" points="1446.75,-142.88 1311.5,-142.88 1311.5,-123.62 1446.75,-123.62 1446.75,-142.88"/>
<text text-anchor="middle" x="1379.12" y="-129.38" font-family="Helvetica,sans-Serif" font-size="10.00">TCPDF_STATIC\url_exists</text>
</a>
</g>
</g>
<!-- Node16&#45;&gt;Node17 -->
<g id="edge18_Node000016_Node000017" class="edge">
<title>Node16&#45;&gt;Node17</title>
<g id="a_edge18_Node000016_Node000017"><a xlink:title=" ">
<path fill="none" stroke="#63b8ff" d="M1275.58,-133.25C1283.52,-133.25 1291.68,-133.25 1299.76,-133.25"/>
<polygon fill="#63b8ff" stroke="#63b8ff" points="1299.57,-136.75 1309.57,-133.25 1299.57,-129.75 1299.57,-136.75"/>
</a>
</g>
</g>
<!-- Node18 -->
<g id="Node000018" class="node">
<title>Node18</title>
<g id="a_Node000018"><a xlink:href="class_t_c_p_d_f___s_t_a_t_i_c.html#a79813ccb2446fdc8ec2b1a1f346a3809" target="_top" xlink:title=" ">
<polygon fill="white" stroke="#666666" points="1646.5,-142.88 1482.75,-142.88 1482.75,-123.62 1646.5,-123.62 1646.5,-142.88"/>
<text text-anchor="middle" x="1564.62" y="-129.38" font-family="Helvetica,sans-Serif" font-size="10.00">TCPDF_STATIC\encodeUrlQuery</text>
</a>
</g>
</g>
<!-- Node17&#45;&gt;Node18 -->
<g id="edge19_Node000017_Node000018" class="edge">
<title>Node17&#45;&gt;Node18</title>
<g id="a_edge19_Node000017_Node000018"><a xlink:title=" ">
<path fill="none" stroke="#63b8ff" d="M1447.15,-133.25C1454.95,-133.25 1463,-133.25 1471.06,-133.25"/>
<polygon fill="#63b8ff" stroke="#63b8ff" points="1470.92,-136.75 1480.92,-133.25 1470.92,-129.75 1470.92,-136.75"/>
</a>
</g>
</g>
<!-- Node20&#45;&gt;Node16 -->
<g id="edge23_Node000020_Node000016" class="edge">
<title>Node20&#45;&gt;Node16</title>
<g id="a_edge23_Node000020_Node000016"><a xlink:title=" ">
<path fill="none" stroke="#63b8ff" d="M1102.41,-133.25C1110.31,-133.25 1118.33,-133.25 1126.23,-133.25"/>
<polygon fill="#63b8ff" stroke="#63b8ff" points="1126.17,-136.75 1136.17,-133.25 1126.17,-129.75 1126.17,-136.75"/>
</a>
</g>
</g>
<!-- Node24 -->
<g id="Node000024" class="node">
<title>Node24</title>
<g id="a_Node000024"><a xlink:href="class_t_c_p_d_f.html#a01627a8b7ad5c79ee736572b3d2ef3f5" target="_top" xlink:title=" ">
<polygon fill="white" stroke="#666666" points="862.5,-292.88 827.75,-292.88 827.75,-273.62 862.5,-273.62 862.5,-292.88"/>
<text text-anchor="middle" x="845.12" y="-279.38" font-family="Helvetica,sans-Serif" font-size="10.00">_out</text>
</a>
</g>
</g>
<!-- Node23&#45;&gt;Node24 -->
<g id="edge28_Node000023_Node000024" class="edge">
<title>Node23&#45;&gt;Node24</title>
<g id="a_edge28_Node000023_Node000024"><a xlink:title=" ">
<path fill="none" stroke="#63b8ff" d="M735.59,-283.25C760.1,-283.25 792.9,-283.25 816.01,-283.25"/>
<polygon fill="#63b8ff" stroke="#63b8ff" points="815.91,-286.75 825.91,-283.25 815.91,-279.75 815.91,-286.75"/>
</a>
</g>
</g>
<!-- Node25 -->
<g id="Node000025" class="node">
<title>Node25</title>
<g id="a_Node000025"><a xlink:href="class_t_c_p_d_f.html#a2f0c138e82371b95c3899451a330da05" target="_top" xlink:title=" ">
<polygon fill="white" stroke="#666666" points="1060.75,-329.88 982.5,-329.88 982.5,-310.62 1060.75,-310.62 1060.75,-329.88"/>
<text text-anchor="middle" x="1021.62" y="-316.38" font-family="Helvetica,sans-Serif" font-size="10.00">getPageBuffer</text>
</a>
</g>
</g>
<!-- Node24&#45;&gt;Node25 -->
<g id="edge29_Node000024_Node000025" class="edge">
<title>Node24&#45;&gt;Node25</title>
<g id="a_edge29_Node000024_Node000025"><a xlink:title=" ">
<path fill="none" stroke="#63b8ff" d="M862.86,-286.8C887.6,-292.04 934.92,-302.08 971.32,-309.79"/>
<polygon fill="#63b8ff" stroke="#63b8ff" points="970.23,-313.14 980.74,-311.79 971.69,-306.3 970.23,-313.14"/>
</a>
</g>
</g>
<!-- Node26 -->
<g id="Node000026" class="node">
<title>Node26</title>
<g id="a_Node000026"><a xlink:href="class_t_c_p_d_f.html#ac43455b74ede7e3f1d7558feb764eb6f" target="_top" xlink:title=" ">
<polygon fill="white" stroke="#666666" points="1049.5,-292.88 993.75,-292.88 993.75,-273.62 1049.5,-273.62 1049.5,-292.88"/>
<text text-anchor="middle" x="1021.62" y="-279.38" font-family="Helvetica,sans-Serif" font-size="10.00">setBuffer</text>
</a>
</g>
</g>
<!-- Node24&#45;&gt;Node26 -->
<g id="edge30_Node000024_Node000026" class="edge">
<title>Node24&#45;&gt;Node26</title>
<g id="a_edge30_Node000024_Node000026"><a xlink:title=" ">
<path fill="none" stroke="#63b8ff" d="M862.86,-283.25C890.11,-283.25 944.76,-283.25 982.02,-283.25"/>
<polygon fill="#63b8ff" stroke="#63b8ff" points="981.94,-286.75 991.94,-283.25 981.94,-279.75 981.94,-286.75"/>
</a>
</g>
</g>
<!-- Node27 -->
<g id="Node000027" class="node">
<title>Node27</title>
<g id="a_Node000027"><a xlink:href="class_t_c_p_d_f.html#af4d8e4aed525c0bded587be897297a7f" target="_top" xlink:title=" ">
<polygon fill="white" stroke="#666666" points="1060.75,-255.88 982.5,-255.88 982.5,-236.62 1060.75,-236.62 1060.75,-255.88"/>
<text text-anchor="middle" x="1021.62" y="-242.38" font-family="Helvetica,sans-Serif" font-size="10.00">setPageBuffer</text>
</a>
</g>
</g>
<!-- Node24&#45;&gt;Node27 -->
<g id="edge31_Node000024_Node000027" class="edge">
<title>Node24&#45;&gt;Node27</title>
<g id="a_edge31_Node000024_Node000027"><a xlink:title=" ">
<path fill="none" stroke="#63b8ff" d="M862.86,-279.7C887.6,-274.46 934.92,-264.42 971.32,-256.71"/>
<polygon fill="#63b8ff" stroke="#63b8ff" points="971.69,-260.2 980.74,-254.71 970.23,-253.36 971.69,-260.2"/>
</a>
</g>
</g>
<!-- Node29&#45;&gt;Node8 -->
<g id="edge35_Node000029_Node000008" class="edge">
<title>Node29&#45;&gt;Node8</title>
<g id="a_edge35_Node000029_Node000008"><a xlink:title=" ">
<path fill="none" stroke="#63b8ff" d="M357.2,-112.25C379.43,-105.19 410.37,-95.84 438,-89.25 554.51,-61.44 692,-38.4 773.41,-25.76"/>
<polygon fill="#63b8ff" stroke="#63b8ff" points="773.67,-29.26 783.02,-24.27 772.61,-22.34 773.67,-29.26"/>
</a>
</g>
</g>
</g>
</svg>

<g id="navigator" transform="translate(0 0)" fill="#404254">
  <rect fill="#f2f5e9" fill-opacity="0.5" stroke="#606060" stroke-width=".5" x="0" y="0" width="60" height="60"/>
  <use id="zoomplus" xlink:href="#zoomPlus" x="17" y="9" onmousedown="handleZoom(evt,'in')"/>
  <use id="zoomminus" xlink:href="#zoomMin" x="42" y="9" onmousedown="handleZoom(evt,'out')"/>
  <use id="reset" xlink:href="#resetDef" x="30" y="36" onmousedown="handleReset()"/>
   <use id="arrowup" xlink:href="#arrowUp" x="0" y="0" onmousedown="handlePan(0,-1)"/>
  <use id="arrowright" xlink:href="#arrowRight" x="0" y="0" onmousedown="handlePan(1,0)"/>
  <use id="arrowdown" xlink:href="#arrowDown" x="0" y="0" onmousedown="handlePan(0,1)"/>
  <use id="arrowleft" xlink:href="#arrowLeft" x="0" y="0" onmousedown="handlePan(-1,0)"/>
</g>
<svg viewBox="0 0 15 15" width="100%" height="30px" preserveAspectRatio="xMaxYMin meet">
 <g id="arrow_out" transform="scale(0.3 0.3)">
  <a xlink:href="class_t_c_p_d_f_afd67e3cf94d7da127cddc304fe382621_cgraph_org.svg" target="_base">
   <rect id="button" ry="5" rx="5" y="6" x="6" height="38" width="38"
        fill="#f2f5e9" fill-opacity="0.5" stroke="#606060" stroke-width="1.0"/>
   <path id="arrow"
     d="M 11.500037,31.436501 C 11.940474,20.09759 22.043105,11.32322 32.158766,21.979434 L 37.068811,17.246167 C 37.068811,17.246167 37.088388,32 37.088388,32 L 22.160133,31.978069 C 22.160133,31.978069 26.997745,27.140456 26.997745,27.140456 C 18.528582,18.264221 13.291696,25.230495 11.500037,31.436501 z"
     style="fill:#404040;"/>
  </a>
 </g>
</svg>

<style type='text/css'>
<![CDATA[
[data-mouse-over-selected='false'] { opacity: 0.7; }
[data-mouse-over-selected='true']  { opacity: 1.0; }
]]>
</style>
<script type="application/ecmascript"><![CDATA[
document.addEventListener('DOMContentLoaded', (event) => {
  highlightEdges();
  highlightAdjacentNodes();
});
]]></script>
</svg>
