<?xml version="1.0" encoding="UTF-8" standalone="no"?>
<!DOCTYPE svg PUBLIC "-//W3C//DTD SVG 1.1//EN"
 "http://www.w3.org/Graphics/SVG/1.1/DTD/svg11.dtd">
<!-- Generated by graphviz version 10.0.1 (20240210.2158)
 -->
<!-- Title: __toString Pages: 1 -->
<svg width="365pt" height="230pt"
 viewBox="0.00 0.00 365.00 229.75" xmlns="http://www.w3.org/2000/svg" xmlns:xlink="http://www.w3.org/1999/xlink">
<g id="graph0" class="graph" transform="scale(1 1) rotate(0) translate(4 225.75)">
<title>__toString</title>
<!-- Node1 -->
<g id="Node000001" class="node">
<title>Node1</title>
<g id="a_Node000001"><a xlink:title=" ">
<polygon fill="#999999" stroke="#666666" points="357,-120.5 296.75,-120.5 296.75,-101.25 357,-101.25 357,-120.5"/>
<text text-anchor="middle" x="326.88" y="-107" font-family="Helvetica,sans-Serif" font-size="10.00">__toString</text>
</a>
</g>
</g>
<!-- Node2 -->
<g id="Node000002" class="node">
<title>Node2</title>
<g id="a_Node000002"><a xlink:href="class_symfony_1_1_component_1_1_css_selector_1_1_x_path_1_1_x_path_expr.html#a096a97d36adb900db2b06170193d71d8" target="_top" xlink:title=" ">
<polygon fill="white" stroke="#666666" points="260.75,-120.5 229.75,-120.5 229.75,-101.25 260.75,-101.25 260.75,-120.5"/>
<text text-anchor="middle" x="245.25" y="-107" font-family="Helvetica,sans-Serif" font-size="10.00">join</text>
</a>
</g>
</g>
<!-- Node1&#45;&gt;Node2 -->
<g id="edge1_Node000001_Node000002" class="edge">
<title>Node1&#45;&gt;Node2</title>
<g id="a_edge1_Node000001_Node000002"><a xlink:title=" ">
<path fill="none" stroke="#63b8ff" d="M285.39,-110.88C276.72,-110.88 268.09,-110.88 261.15,-110.88"/>
<polygon fill="#63b8ff" stroke="#63b8ff" points="285.16,-114.38 295.16,-110.88 285.16,-107.38 285.16,-114.38"/>
</a>
</g>
</g>
<!-- Node3 -->
<g id="Node000003" class="node">
<title>Node3</title>
<g id="a_Node000003"><a xlink:href="class_symfony_1_1_component_1_1_css_selector_1_1_x_path_1_1_extension_1_1_combination_extension.html#ab5a4a803b222d55942e9d66e60edb449" target="_top" xlink:title=" ">
<polygon fill="white" stroke="#666666" points="193.75,-221.75 0,-221.75 0,-180 193.75,-180 193.75,-221.75"/>
<text text-anchor="start" x="8" y="-208.25" font-family="Helvetica,sans-Serif" font-size="10.00">Symfony\Component\CssSelector</text>
<text text-anchor="start" x="8" y="-197" font-family="Helvetica,sans-Serif" font-size="10.00">\XPath\Extension\CombinationExtension</text>
<text text-anchor="middle" x="96.88" y="-185.75" font-family="Helvetica,sans-Serif" font-size="10.00">\translateChild</text>
</a>
</g>
</g>
<!-- Node2&#45;&gt;Node3 -->
<g id="edge2_Node000002_Node000003" class="edge">
<title>Node2&#45;&gt;Node3</title>
<g id="a_edge2_Node000002_Node000003"><a xlink:title=" ">
<path fill="none" stroke="#63b8ff" d="M232.09,-130.48C223.01,-143.63 209.49,-160.4 193.75,-170.88 188.96,-174.06 183.81,-176.93 178.47,-179.5"/>
<polygon fill="#63b8ff" stroke="#63b8ff" points="234.99,-132.45 237.55,-122.17 229.14,-128.61 234.99,-132.45"/>
</a>
</g>
</g>
<!-- Node4 -->
<g id="Node000004" class="node">
<title>Node4</title>
<g id="a_Node000004"><a xlink:href="class_symfony_1_1_component_1_1_css_selector_1_1_x_path_1_1_extension_1_1_combination_extension.html#a6472760e2e1bdf27e7a9d4c411b9254c" target="_top" xlink:title=" ">
<polygon fill="white" stroke="#666666" points="193.75,-161.75 0,-161.75 0,-120 193.75,-120 193.75,-161.75"/>
<text text-anchor="start" x="8" y="-148.25" font-family="Helvetica,sans-Serif" font-size="10.00">Symfony\Component\CssSelector</text>
<text text-anchor="start" x="8" y="-137" font-family="Helvetica,sans-Serif" font-size="10.00">\XPath\Extension\CombinationExtension</text>
<text text-anchor="middle" x="96.88" y="-125.75" font-family="Helvetica,sans-Serif" font-size="10.00">\translateDescendant</text>
</a>
</g>
</g>
<!-- Node2&#45;&gt;Node4 -->
<g id="edge3_Node000002_Node000004" class="edge">
<title>Node2&#45;&gt;Node4</title>
<g id="a_edge3_Node000002_Node000004"><a xlink:title=" ">
<path fill="none" stroke="#63b8ff" d="M218.13,-116.23C210.99,-117.69 202.81,-119.37 194.15,-121.14"/>
<polygon fill="#63b8ff" stroke="#63b8ff" points="218.83,-119.66 227.93,-114.22 217.43,-112.8 218.83,-119.66"/>
</a>
</g>
</g>
<!-- Node5 -->
<g id="Node000005" class="node">
<title>Node5</title>
<g id="a_Node000005"><a xlink:href="class_symfony_1_1_component_1_1_css_selector_1_1_x_path_1_1_extension_1_1_combination_extension.html#ae932d91998c9d3d121ded3c00faa1df9" target="_top" xlink:title=" ">
<polygon fill="white" stroke="#666666" points="193.75,-101.75 0,-101.75 0,-60 193.75,-60 193.75,-101.75"/>
<text text-anchor="start" x="8" y="-88.25" font-family="Helvetica,sans-Serif" font-size="10.00">Symfony\Component\CssSelector</text>
<text text-anchor="start" x="8" y="-77" font-family="Helvetica,sans-Serif" font-size="10.00">\XPath\Extension\CombinationExtension</text>
<text text-anchor="middle" x="96.88" y="-65.75" font-family="Helvetica,sans-Serif" font-size="10.00">\translateDirectAdjacent</text>
</a>
</g>
</g>
<!-- Node2&#45;&gt;Node5 -->
<g id="edge4_Node000002_Node000005" class="edge">
<title>Node2&#45;&gt;Node5</title>
<g id="a_edge4_Node000002_Node000005"><a xlink:title=" ">
<path fill="none" stroke="#63b8ff" d="M218.13,-105.52C210.99,-104.06 202.81,-102.38 194.15,-100.61"/>
<polygon fill="#63b8ff" stroke="#63b8ff" points="217.43,-108.95 227.93,-107.53 218.83,-102.09 217.43,-108.95"/>
</a>
</g>
</g>
<!-- Node6 -->
<g id="Node000006" class="node">
<title>Node6</title>
<g id="a_Node000006"><a xlink:href="class_symfony_1_1_component_1_1_css_selector_1_1_x_path_1_1_extension_1_1_combination_extension.html#aaaa49e162ceffacd79171d56da896972" target="_top" xlink:title=" ">
<polygon fill="white" stroke="#666666" points="193.75,-41.75 0,-41.75 0,0 193.75,0 193.75,-41.75"/>
<text text-anchor="start" x="8" y="-28.25" font-family="Helvetica,sans-Serif" font-size="10.00">Symfony\Component\CssSelector</text>
<text text-anchor="start" x="8" y="-17" font-family="Helvetica,sans-Serif" font-size="10.00">\XPath\Extension\CombinationExtension</text>
<text text-anchor="middle" x="96.88" y="-5.75" font-family="Helvetica,sans-Serif" font-size="10.00">\translateIndirectAdjacent</text>
</a>
</g>
</g>
<!-- Node2&#45;&gt;Node6 -->
<g id="edge5_Node000002_Node000006" class="edge">
<title>Node2&#45;&gt;Node6</title>
<g id="a_edge5_Node000002_Node000006"><a xlink:title=" ">
<path fill="none" stroke="#63b8ff" d="M232.09,-91.27C223.01,-78.12 209.49,-61.35 193.75,-50.88 188.96,-47.69 183.81,-44.82 178.47,-42.25"/>
<polygon fill="#63b8ff" stroke="#63b8ff" points="229.14,-93.14 237.55,-99.58 234.99,-89.3 229.14,-93.14"/>
</a>
</g>
</g>
</g>
</svg>
