<?xml version="1.0" encoding="UTF-8" standalone="no"?>
<!DOCTYPE svg PUBLIC "-//W3C//DTD SVG 1.1//EN"
 "http://www.w3.org/Graphics/SVG/1.1/DTD/svg11.dtd">
<!-- Generated by graphviz version 10.0.1 (20240210.2158)
 -->
<!-- Title: updateItems Pages: 1 -->
<svg width="563pt" height="280pt"
 viewBox="0.00 0.00 563.25 279.88" xmlns="http://www.w3.org/2000/svg" xmlns:xlink="http://www.w3.org/1999/xlink">
<g id="graph0" class="graph" transform="scale(1 1) rotate(0) translate(4 275.88)">
<title>updateItems</title>
<!-- Node1 -->
<g id="Node000001" class="node">
<title>Node1</title>
<g id="a_Node000001"><a xlink:title=" ">
<polygon fill="#999999" stroke="#666666" points="70,-141.88 0,-141.88 0,-122.62 70,-122.62 70,-141.88"/>
<text text-anchor="middle" x="35" y="-128.38" font-family="Helvetica,sans-Serif" font-size="10.00">updateItems</text>
</a>
</g>
</g>
<!-- Node2 -->
<g id="Node000002" class="node">
<title>Node2</title>
<g id="a_Node000002"><a xlink:href="db_8function_8php.html#adbfe552a548f9401204d88d76a67239e" target="_top" xlink:title=" ">
<polygon fill="white" stroke="#666666" points="260.75,-234.88 106,-234.88 106,-215.62 260.75,-215.62 260.75,-234.88"/>
<text text-anchor="middle" x="183.38" y="-221.38" font-family="Helvetica,sans-Serif" font-size="10.00">getForeignKeyFieldForItemType</text>
</a>
</g>
</g>
<!-- Node1&#45;&gt;Node2 -->
<g id="edge1_Node000001_Node000002" class="edge">
<title>Node1&#45;&gt;Node2</title>
<g id="a_edge1_Node000001_Node000002"><a xlink:title=" ">
<path fill="none" stroke="#63b8ff" d="M42.41,-142.28C53.38,-158.57 77.34,-190.63 106,-207.25 108.2,-208.53 110.49,-209.71 112.84,-210.82"/>
<polygon fill="#63b8ff" stroke="#63b8ff" points="111.47,-214.04 122.05,-214.56 114.11,-207.55 111.47,-214.04"/>
</a>
</g>
</g>
<!-- Node5 -->
<g id="Node000005" class="node">
<title>Node5</title>
<g id="a_Node000005"><a xlink:href="class_glpi_1_1_api_1_1_a_p_i.html#a595c88e4dc303f420b6e92ba429ca1c3" target="_top" xlink:title=" ">
<polygon fill="white" stroke="#666666" points="233,-197.88 133.75,-197.88 133.75,-178.62 233,-178.62 233,-197.88"/>
<text text-anchor="middle" x="183.38" y="-184.38" font-family="Helvetica,sans-Serif" font-size="10.00">handleDepreciation</text>
</a>
</g>
</g>
<!-- Node1&#45;&gt;Node5 -->
<g id="edge4_Node000001_Node000005" class="edge">
<title>Node1&#45;&gt;Node5</title>
<g id="a_edge4_Node000001_Node000005"><a xlink:title=" ">
<path fill="none" stroke="#63b8ff" d="M51.55,-142.26C65.37,-150.77 86.36,-162.76 106,-170.25 111.27,-172.26 116.84,-174.09 122.47,-175.75"/>
<polygon fill="#63b8ff" stroke="#63b8ff" points="121.28,-179.05 131.85,-178.33 123.13,-172.3 121.28,-179.05"/>
</a>
</g>
</g>
<!-- Node7 -->
<g id="Node000007" class="node">
<title>Node7</title>
<g id="a_Node000007"><a xlink:href="class_glpi_1_1_api_1_1_a_p_i.html#aef821f8e8449d82f3dc3b9e3bcc24ed5" target="_top" xlink:title=" ">
<polygon fill="white" stroke="#666666" points="220.25,-160.88 146.5,-160.88 146.5,-141.62 220.25,-141.62 220.25,-160.88"/>
<text text-anchor="middle" x="183.38" y="-147.38" font-family="Helvetica,sans-Serif" font-size="10.00">isDeprecated</text>
</a>
</g>
</g>
<!-- Node1&#45;&gt;Node7 -->
<g id="edge6_Node000001_Node000007" class="edge">
<title>Node1&#45;&gt;Node7</title>
<g id="a_edge6_Node000001_Node000007"><a xlink:title=" ">
<path fill="none" stroke="#63b8ff" d="M70.32,-136.7C89.57,-139.2 113.87,-142.36 134.92,-145.09"/>
<polygon fill="#63b8ff" stroke="#63b8ff" points="134.36,-148.55 144.73,-146.36 135.26,-141.61 134.36,-148.55"/>
</a>
</g>
</g>
<!-- Node8 -->
<g id="Node000008" class="node">
<title>Node8</title>
<g id="a_Node000008"><a xlink:href="class_glpi_1_1_api_1_1_a_p_i.html#ab380995768ec8d806bbc6ad8dbd58f21" target="_top" xlink:title=" ">
<polygon fill="white" stroke="#666666" points="242,-123.88 124.75,-123.88 124.75,-104.62 242,-104.62 242,-123.88"/>
<text text-anchor="middle" x="183.38" y="-110.38" font-family="Helvetica,sans-Serif" font-size="10.00">messageBadArrayError</text>
</a>
</g>
</g>
<!-- Node1&#45;&gt;Node8 -->
<g id="edge7_Node000001_Node000008" class="edge">
<title>Node1&#45;&gt;Node8</title>
<g id="a_edge7_Node000001_Node000008"><a xlink:title=" ">
<path fill="none" stroke="#63b8ff" d="M70.32,-128.03C83.18,-126.45 98.3,-124.59 113.19,-122.76"/>
<polygon fill="#63b8ff" stroke="#63b8ff" points="113.5,-126.25 123,-121.55 112.64,-119.3 113.5,-126.25"/>
</a>
</g>
</g>
<!-- Node9 -->
<g id="Node000009" class="node">
<title>Node9</title>
<g id="a_Node000009"><a xlink:href="class_glpi_1_1_api_1_1_a_p_i.html#af8fc0014311c0740d4e186cbd124a293" target="_top" xlink:title=" ">
<polygon fill="white" stroke="#666666" points="396.38,-104.88 334.62,-104.88 334.62,-85.62 396.38,-85.62 396.38,-104.88"/>
<text text-anchor="middle" x="365.5" y="-91.38" font-family="Helvetica,sans-Serif" font-size="10.00">returnError</text>
</a>
</g>
</g>
<!-- Node1&#45;&gt;Node9 -->
<g id="edge10_Node000001_Node000009" class="edge">
<title>Node1&#45;&gt;Node9</title>
<g id="a_edge10_Node000001_Node000009"><a xlink:title=" ">
<path fill="none" stroke="#63b8ff" d="M49.91,-122.26C63.47,-113.18 85.05,-100.45 106,-95.25 180.76,-76.71 271.47,-83.03 323.14,-89.21"/>
<polygon fill="#63b8ff" stroke="#63b8ff" points="322.61,-92.67 332.97,-90.45 323.49,-85.72 322.61,-92.67"/>
</a>
</g>
</g>
<!-- Node11 -->
<g id="Node000011" class="node">
<title>Node11</title>
<g id="a_Node000011"><a xlink:href="class_glpi_1_1_toolbox_1_1_sanitizer.html#a21b13d4d0c089fa924e0524d48681ed0" target="_top" xlink:title=" ">
<polygon fill="white" stroke="#666666" points="239,-30.5 127.75,-30.5 127.75,0 239,0 239,-30.5"/>
<text text-anchor="start" x="135.75" y="-17" font-family="Helvetica,sans-Serif" font-size="10.00">Glpi\Toolbox\Sanitizer</text>
<text text-anchor="middle" x="183.38" y="-5.75" font-family="Helvetica,sans-Serif" font-size="10.00">\sanitize</text>
</a>
</g>
</g>
<!-- Node1&#45;&gt;Node11 -->
<g id="edge11_Node000001_Node000011" class="edge">
<title>Node1&#45;&gt;Node11</title>
<g id="a_edge11_Node000001_Node000011"><a xlink:title=" ">
<path fill="none" stroke="#63b8ff" d="M44.43,-122.47C56.98,-108.24 81.72,-81.43 106,-62.25 117.66,-53.04 131.25,-44.16 143.71,-36.65"/>
<polygon fill="#63b8ff" stroke="#63b8ff" points="145.25,-39.8 152.09,-31.7 141.7,-33.77 145.25,-39.8"/>
</a>
</g>
</g>
<!-- Node3 -->
<g id="Node000003" class="node">
<title>Node3</title>
<g id="a_Node000003"><a xlink:href="db_8function_8php.html#a0ddaf6f690dbc7aa7490ad91b9fae0a0" target="_top" xlink:title=" ">
<polygon fill="white" stroke="#666666" points="434.25,-271.88 296.75,-271.88 296.75,-252.62 434.25,-252.62 434.25,-271.88"/>
<text text-anchor="middle" x="365.5" y="-258.38" font-family="Helvetica,sans-Serif" font-size="10.00">getForeignKeyFieldForTable</text>
</a>
</g>
</g>
<!-- Node2&#45;&gt;Node3 -->
<g id="edge2_Node000002_Node000003" class="edge">
<title>Node2&#45;&gt;Node3</title>
<g id="a_edge2_Node000002_Node000003"><a xlink:title=" ">
<path fill="none" stroke="#63b8ff" d="M233.59,-235.36C255.44,-239.85 281.34,-245.17 304.32,-249.89"/>
<polygon fill="#63b8ff" stroke="#63b8ff" points="303.36,-253.26 313.86,-251.85 304.77,-246.41 303.36,-253.26"/>
</a>
</g>
</g>
<!-- Node4 -->
<g id="Node000004" class="node">
<title>Node4</title>
<g id="a_Node000004"><a xlink:href="db_8function_8php.html#af5d54dd0f42dddbdb9951111643af5f6" target="_top" xlink:title=" ">
<polygon fill="white" stroke="#666666" points="419.25,-234.88 311.75,-234.88 311.75,-215.62 419.25,-215.62 419.25,-234.88"/>
<text text-anchor="middle" x="365.5" y="-221.38" font-family="Helvetica,sans-Serif" font-size="10.00">getTableForItemType</text>
</a>
</g>
</g>
<!-- Node2&#45;&gt;Node4 -->
<g id="edge3_Node000002_Node000004" class="edge">
<title>Node2&#45;&gt;Node4</title>
<g id="a_edge3_Node000002_Node000004"><a xlink:title=" ">
<path fill="none" stroke="#63b8ff" d="M261.03,-225.25C274,-225.25 287.36,-225.25 299.98,-225.25"/>
<polygon fill="#63b8ff" stroke="#63b8ff" points="299.83,-228.75 309.83,-225.25 299.83,-221.75 299.83,-228.75"/>
</a>
</g>
</g>
<!-- Node6 -->
<g id="Node000006" class="node">
<title>Node6</title>
<g id="a_Node000006"><a xlink:href="class_toolbox.html#aa0ba3201619f26fcb9a683d179e3684b" target="_top" xlink:title=" ">
<polygon fill="white" stroke="#666666" points="429,-197.88 302,-197.88 302,-178.62 429,-178.62 429,-197.88"/>
<text text-anchor="middle" x="365.5" y="-184.38" font-family="Helvetica,sans-Serif" font-size="10.00">Toolbox\isAPIDeprecated</text>
</a>
</g>
</g>
<!-- Node5&#45;&gt;Node6 -->
<g id="edge5_Node000005_Node000006" class="edge">
<title>Node5&#45;&gt;Node6</title>
<g id="a_edge5_Node000005_Node000006"><a xlink:title=" ">
<path fill="none" stroke="#63b8ff" d="M233.12,-188.25C250.8,-188.25 271.19,-188.25 290.56,-188.25"/>
<polygon fill="#63b8ff" stroke="#63b8ff" points="290.3,-191.75 300.3,-188.25 290.3,-184.75 290.3,-191.75"/>
</a>
</g>
</g>
<!-- Node8&#45;&gt;Node9 -->
<g id="edge8_Node000008_Node000009" class="edge">
<title>Node8&#45;&gt;Node9</title>
<g id="a_edge8_Node000008_Node000009"><a xlink:title=" ">
<path fill="none" stroke="#63b8ff" d="M242.36,-108.13C268.61,-105.36 299.04,-102.15 322.96,-99.63"/>
<polygon fill="#63b8ff" stroke="#63b8ff" points="323.05,-103.14 332.63,-98.61 322.32,-96.18 323.05,-103.14"/>
</a>
</g>
</g>
<!-- Node10 -->
<g id="Node000010" class="node">
<title>Node10</title>
<g id="a_Node000010"><a xlink:href="class_glpi_1_1_api_1_1_a_p_i.html#adf00380047c368069aa580e7aa332eec" target="_top" xlink:title=" ">
<polygon fill="white" stroke="#666666" points="555.25,-104.88 470.25,-104.88 470.25,-85.62 555.25,-85.62 555.25,-104.88"/>
<text text-anchor="middle" x="512.75" y="-91.38" font-family="Helvetica,sans-Serif" font-size="10.00">returnResponse</text>
</a>
</g>
</g>
<!-- Node9&#45;&gt;Node10 -->
<g id="edge9_Node000009_Node000010" class="edge">
<title>Node9&#45;&gt;Node10</title>
<g id="a_edge9_Node000009_Node000010"><a xlink:title=" ">
<path fill="none" stroke="#63b8ff" d="M396.6,-95.25C414.47,-95.25 437.66,-95.25 458.54,-95.25"/>
<polygon fill="#63b8ff" stroke="#63b8ff" points="458.34,-98.75 468.34,-95.25 458.34,-91.75 458.34,-98.75"/>
</a>
</g>
</g>
<!-- Node11&#45;&gt;Node11 -->
<g id="edge13_Node000011_Node000011" class="edge">
<title>Node11&#45;&gt;Node11</title>
<g id="a_edge13_Node000011_Node000011"><a xlink:title=" ">
<path fill="none" stroke="#63b8ff" d="M157.08,-30.99C151.72,-40.06 160.48,-48.5 183.38,-48.5 195.9,-48.5 204.19,-45.97 208.26,-42.2"/>
<polygon fill="#63b8ff" stroke="#63b8ff" points="211.7,-42.85 209.48,-32.49 204.76,-41.97 211.7,-42.85"/>
</a>
</g>
</g>
<!-- Node12 -->
<g id="Node000012" class="node">
<title>Node12</title>
<g id="a_Node000012"><a xlink:href="class_glpi_1_1_toolbox_1_1_sanitizer.html#a2ae69a79bb2cfe252ecb5bfbb68db5f4" target="_top" xlink:title=" ">
<polygon fill="white" stroke="#666666" points="430.5,-30.5 300.5,-30.5 300.5,0 430.5,0 430.5,-30.5"/>
<text text-anchor="start" x="308.5" y="-17" font-family="Helvetica,sans-Serif" font-size="10.00">Glpi\Toolbox\Sanitizer</text>
<text text-anchor="middle" x="365.5" y="-5.75" font-family="Helvetica,sans-Serif" font-size="10.00">\encodeHtmlSpecialChars</text>
</a>
</g>
</g>
<!-- Node11&#45;&gt;Node12 -->
<g id="edge12_Node000011_Node000012" class="edge">
<title>Node11&#45;&gt;Node12</title>
<g id="a_edge12_Node000011_Node000012"><a xlink:title=" ">
<path fill="none" stroke="#63b8ff" d="M239.4,-15.25C254.95,-15.25 272.15,-15.25 288.7,-15.25"/>
<polygon fill="#63b8ff" stroke="#63b8ff" points="288.5,-18.75 298.5,-15.25 288.5,-11.75 288.5,-18.75"/>
</a>
</g>
</g>
</g>
</svg>
