<?xml version="1.0" encoding="UTF-8" standalone="no"?>
<!DOCTYPE svg PUBLIC "-//W3C//DTD SVG 1.1//EN"
 "http://www.w3.org/Graphics/SVG/1.1/DTD/svg11.dtd">
<!-- Generated by graphviz version 10.0.1 (20240210.2158)
 -->
<!-- Title: setLanguage Pages: 1 -->
<!--zoomable 593 -->

<svg id="main" version="1.1" xmlns="http://www.w3.org/2000/svg" xmlns:xlink="http://www.w3.org/1999/xlink" xml:space="preserve" onload="init(evt)">
<style type="text/css"><![CDATA[
.node, .edge {opacity: 0.7;}
.node.selected, .edge.selected {opacity: 1;}
.edge:hover path { stroke: red; }
.edge:hover polygon { stroke: red; fill: red; }
]]></style>

<defs>
  <circle id="rim" cx="0" cy="0" r="7"/>
  <circle id="rim2" cx="0" cy="0" r="3.5"/>
  <g id="zoomPlus">
    <use xlink:href="#rim" fill="#404040"><set attributeName="fill" to="#808080" begin="zoomplus.mouseover" end="zoomplus.mouseout"/></use>
    <path d="M-4,0h8M0,-4v8" fill="none" stroke="white" stroke-width="1.5" pointer-events="none"/>
  </g>
  <g id="zoomMin">
    <use xlink:href="#rim" fill="#404040"><set attributeName="fill" to="#808080" begin="zoomminus.mouseover" end="zoomminus.mouseout"/></use>
    <path d="M-4,0h8" fill="none" stroke="white" stroke-width="1.5" pointer-events="none"/>
  </g>
  <g id="arrowUp" transform="translate(30 24)">
    <use xlink:href="#rim"/>
    <path pointer-events="none" fill="none" stroke="white" stroke-width="1.5" d="M0,-3.0v7 M-2.5,-0.5L0,-3.0L2.5,-0.5"/>
  </g>
  <g id="arrowRight" transform="rotate(90) translate(36 -43)">
    <use xlink:href="#rim"/>
    <path pointer-events="none" fill="none" stroke="white" stroke-width="1.5" d="M0,-3.0v7 M-2.5,-0.5L0,-3.0L2.5,-0.5"/>
  </g>
  <g id="arrowDown" transform="rotate(180) translate(-30 -48)">
    <use xlink:href="#rim"/>
    <path pointer-events="none" fill="none" stroke="white" stroke-width="1.5" d="M0,-3.0v7 M-2.5,-0.5L0,-3.0L2.5,-0.5"/>
  </g>
  <g id="arrowLeft" transform="rotate(270) translate(-36 17)">
    <use xlink:href="#rim"/>
    <path pointer-events="none" fill="none" stroke="white" stroke-width="1.5" d="M0,-3.0v7 M-2.5,-0.5L0,-3.0L2.5,-0.5"/>
  </g>
  <g id="resetDef">
    <use xlink:href="#rim2" fill="#404040"><set attributeName="fill" to="#808080" begin="reset.mouseover" end="reset.mouseout"/></use>
  </g>
</defs>
<script type="application/ecmascript">
var viewWidth = 794;
var viewHeight = 593;
var sectionId = 'dynsection-76';
</script>
<script type="application/ecmascript" xlink:href="svg.min.js"/>
<svg id="graph" class="graph">
<g id="viewport">
<title>setLanguage</title>
<!-- Node1 -->
<g id="Node000001" class="node">
<title>Node1</title>
<g id="a_Node000001"><a xlink:title=" ">
<polygon fill="#999999" stroke="#666666" points="786.25,-319.25 714.75,-319.25 714.75,-300 786.25,-300 786.25,-319.25"/>
<text text-anchor="middle" x="750.5" y="-305.75" font-family="Helvetica,sans-Serif" font-size="10.00">setLanguage</text>
</a>
</g>
</g>
<!-- Node2 -->
<g id="Node000002" class="node">
<title>Node2</title>
<g id="a_Node000002"><a xlink:href="class_p_h_p_mailer_1_1_p_h_p_mailer_1_1_p_h_p_mailer.html#ac9287affc67c9523787013f3a22731cc" target="_top" xlink:title=" ">
<polygon fill="white" stroke="#666666" points="678.75,-338.25 596,-338.25 596,-319 678.75,-319 678.75,-338.25"/>
<text text-anchor="middle" x="637.38" y="-324.75" font-family="Helvetica,sans-Serif" font-size="10.00">getTranslations</text>
</a>
</g>
</g>
<!-- Node1&#45;&gt;Node2 -->
<g id="edge1_Node000001_Node000002" class="edge">
<title>Node1&#45;&gt;Node2</title>
<g id="a_edge1_Node000001_Node000002"><a xlink:title=" ">
<path fill="none" stroke="#63b8ff" d="M703.26,-317.53C695.25,-318.9 686.97,-320.32 679.12,-321.66"/>
<polygon fill="#63b8ff" stroke="#63b8ff" points="703.58,-321.03 712.85,-315.89 702.4,-314.13 703.58,-321.03"/>
</a>
</g>
</g>
<!-- Node3 -->
<g id="Node000003" class="node">
<title>Node3</title>
<g id="a_Node000003"><a xlink:href="class_p_h_p_mailer_1_1_p_h_p_mailer_1_1_p_h_p_mailer.html#a702ec4df6918a529cf123d1d09f608b7" target="_top" xlink:title=" ">
<polygon fill="white" stroke="#666666" points="654.38,-301.25 620.38,-301.25 620.38,-282 654.38,-282 654.38,-301.25"/>
<text text-anchor="middle" x="637.38" y="-287.75" font-family="Helvetica,sans-Serif" font-size="10.00">lang</text>
</a>
</g>
</g>
<!-- Node1&#45;&gt;Node3 -->
<g id="edge2_Node000001_Node000003" class="edge">
<title>Node1&#45;&gt;Node3</title>
<g id="a_edge2_Node000001_Node000003"><a xlink:title=" ">
<path fill="none" stroke="#63b8ff" d="M703.25,-302.13C686,-299.34 667.52,-296.35 654.71,-294.27"/>
<polygon fill="#63b8ff" stroke="#63b8ff" points="702.41,-305.54 712.85,-303.69 703.53,-298.63 702.41,-305.54"/>
</a>
</g>
</g>
<!-- Node4 -->
<g id="Node000004" class="node">
<title>Node4</title>
<g id="a_Node000004"><a xlink:href="class_p_h_p_mailer_1_1_p_h_p_mailer_1_1_p_h_p_mailer.html#ae528e32d5f3d0ce158aa5cac2f0f889e" target="_top" xlink:title=" ">
<polygon fill="white" stroke="#666666" points="400.75,-585.25 321,-585.25 321,-566 400.75,-566 400.75,-585.25"/>
<text text-anchor="middle" x="360.88" y="-571.75" font-family="Helvetica,sans-Serif" font-size="10.00">addAnAddress</text>
</a>
</g>
</g>
<!-- Node3&#45;&gt;Node4 -->
<g id="edge3_Node000003_Node000004" class="edge">
<title>Node3&#45;&gt;Node4</title>
<g id="a_edge3_Node000003_Node000004"><a xlink:title=" ">
<path fill="none" stroke="#63b8ff" d="M609.59,-299.07C604.41,-301.65 599.5,-305.08 596,-309.62 535.02,-388.83 628.61,-458.93 560,-531.62 519.25,-574.8 446.31,-580.2 401.21,-578.85"/>
<polygon fill="#63b8ff" stroke="#63b8ff" points="610.82,-302.35 618.87,-295.46 608.28,-295.83 610.82,-302.35"/>
</a>
</g>
</g>
<!-- Node5 -->
<g id="Node000005" class="node">
<title>Node5</title>
<g id="a_Node000005"><a xlink:href="class_p_h_p_mailer_1_1_p_h_p_mailer_1_1_p_h_p_mailer.html#abc77f9268b86ba3e12fa0010a977c4ec" target="_top" xlink:title=" ">
<polygon fill="white" stroke="#666666" points="401.88,-547.25 319.88,-547.25 319.88,-528 401.88,-528 401.88,-547.25"/>
<text text-anchor="middle" x="360.88" y="-533.75" font-family="Helvetica,sans-Serif" font-size="10.00">addAttachment</text>
</a>
</g>
</g>
<!-- Node3&#45;&gt;Node5 -->
<g id="edge4_Node000003_Node000005" class="edge">
<title>Node3&#45;&gt;Node5</title>
<g id="a_edge4_Node000003_Node000005"><a xlink:title=" ">
<path fill="none" stroke="#63b8ff" d="M609.44,-299.27C604.34,-301.83 599.51,-305.2 596,-309.62 543.15,-376.29 619.85,-437.17 560,-497.62 518.77,-539.27 447.02,-543.6 402.11,-541.58"/>
<polygon fill="#63b8ff" stroke="#63b8ff" points="610.55,-302.6 618.55,-295.66 607.96,-296.09 610.55,-302.6"/>
</a>
</g>
</g>
<!-- Node6 -->
<g id="Node000006" class="node">
<title>Node6</title>
<g id="a_Node000006"><a xlink:href="class_p_h_p_mailer_1_1_p_h_p_mailer_1_1_p_h_p_mailer.html#a58c011aa0d493a352c8d8d585a5e85d2" target="_top" xlink:title=" ">
<polygon fill="white" stroke="#666666" points="560,-93.25 462.25,-93.25 462.25,-74 560,-74 560,-93.25"/>
<text text-anchor="middle" x="511.12" y="-79.75" font-family="Helvetica,sans-Serif" font-size="10.00">addCustomHeader</text>
</a>
</g>
</g>
<!-- Node3&#45;&gt;Node6 -->
<g id="edge5_Node000003_Node000006" class="edge">
<title>Node3&#45;&gt;Node6</title>
<g id="a_edge5_Node000003_Node000006"><a xlink:title=" ">
<path fill="none" stroke="#63b8ff" d="M633.53,-270.5C627.24,-231.81 608.65,-149.19 560,-101.62 556.7,-98.4 552.76,-95.74 548.59,-93.55"/>
<polygon fill="#63b8ff" stroke="#63b8ff" points="630.06,-270.95 634.99,-280.33 636.98,-269.92 630.06,-270.95"/>
</a>
</g>
</g>
<!-- Node7 -->
<g id="Node000007" class="node">
<title>Node7</title>
<g id="a_Node000007"><a xlink:href="class_p_h_p_mailer_1_1_p_h_p_mailer_1_1_p_h_p_mailer.html#ab9dec7369dc3dcc3c07176791a29d9e6" target="_top" xlink:title=" ">
<polygon fill="white" stroke="#666666" points="413.5,-510.25 308.25,-510.25 308.25,-491 413.5,-491 413.5,-510.25"/>
<text text-anchor="middle" x="360.88" y="-496.75" font-family="Helvetica,sans-Serif" font-size="10.00">addEmbeddedImage</text>
</a>
</g>
</g>
<!-- Node3&#45;&gt;Node7 -->
<g id="edge6_Node000003_Node000007" class="edge">
<title>Node3&#45;&gt;Node7</title>
<g id="a_edge6_Node000003_Node000007"><a xlink:title=" ">
<path fill="none" stroke="#63b8ff" d="M609.57,-299.38C604.46,-301.93 599.6,-305.27 596,-309.62 550.99,-364.18 611.21,-415.84 560,-464.62 521.4,-501.4 458.48,-507.14 413.91,-505.76"/>
<polygon fill="#63b8ff" stroke="#63b8ff" points="610.67,-302.71 618.67,-295.75 608.08,-296.21 610.67,-302.71"/>
</a>
</g>
</g>
<!-- Node9 -->
<g id="Node000009" class="node">
<title>Node9</title>
<g id="a_Node000009"><a xlink:href="class_p_h_p_mailer_1_1_p_h_p_mailer_1_1_p_h_p_mailer.html#a61f7f5a3937e4382923604d6354d1934" target="_top" xlink:title=" ">
<polygon fill="white" stroke="#666666" points="425.12,-433.25 296.62,-433.25 296.62,-414 425.12,-414 425.12,-433.25"/>
<text text-anchor="middle" x="360.88" y="-419.75" font-family="Helvetica,sans-Serif" font-size="10.00">addOrEnqueueAnAddress</text>
</a>
</g>
</g>
<!-- Node3&#45;&gt;Node9 -->
<g id="edge8_Node000003_Node000009" class="edge">
<title>Node3&#45;&gt;Node9</title>
<g id="a_edge8_Node000003_Node000009"><a xlink:title=" ">
<path fill="none" stroke="#63b8ff" d="M609.75,-299.87C604.7,-302.38 599.81,-305.58 596,-309.62 564.77,-342.81 596.24,-378 560,-405.62 520.86,-435.46 463.9,-437.66 421.09,-433.74"/>
<polygon fill="#63b8ff" stroke="#63b8ff" points="610.72,-303.26 618.64,-296.23 608.06,-296.78 610.72,-303.26"/>
</a>
</g>
</g>
<!-- Node14 -->
<g id="Node000014" class="node">
<title>Node14</title>
<g id="a_Node000014"><a xlink:href="class_p_h_p_mailer_1_1_p_h_p_mailer_1_1_p_h_p_mailer.html#a7be450b4381025665e0677bc429c9e45" target="_top" xlink:title=" ">
<polygon fill="white" stroke="#666666" points="414.62,-319.25 307.12,-319.25 307.12,-300 414.62,-300 414.62,-319.25"/>
<text text-anchor="middle" x="360.88" y="-305.75" font-family="Helvetica,sans-Serif" font-size="10.00">addStringAttachment</text>
</a>
</g>
</g>
<!-- Node3&#45;&gt;Node14 -->
<g id="edge13_Node000003_Node000014" class="edge">
<title>Node3&#45;&gt;Node14</title>
<g id="a_edge13_Node000003_Node000014"><a xlink:title=" ">
<path fill="none" stroke="#63b8ff" d="M608.8,-293.43C563.61,-296.4 473.02,-302.34 415.02,-306.14"/>
<polygon fill="#63b8ff" stroke="#63b8ff" points="608.77,-296.94 618.52,-292.8 608.31,-289.96 608.77,-296.94"/>
</a>
</g>
</g>
<!-- Node15 -->
<g id="Node000015" class="node">
<title>Node15</title>
<g id="a_Node000015"><a xlink:href="class_p_h_p_mailer_1_1_p_h_p_mailer_1_1_p_h_p_mailer.html#a76727996084c05414125df4bbce90b05" target="_top" xlink:title=" ">
<polygon fill="white" stroke="#666666" points="426.25,-472.25 295.5,-472.25 295.5,-453 426.25,-453 426.25,-472.25"/>
<text text-anchor="middle" x="360.88" y="-458.75" font-family="Helvetica,sans-Serif" font-size="10.00">addStringEmbeddedImage</text>
</a>
</g>
</g>
<!-- Node3&#45;&gt;Node15 -->
<g id="edge14_Node000003_Node000015" class="edge">
<title>Node3&#45;&gt;Node15</title>
<g id="a_edge14_Node000003_Node000015"><a xlink:title=" ">
<path fill="none" stroke="#63b8ff" d="M609.75,-299.53C604.63,-302.07 599.71,-305.37 596,-309.62 558.29,-352.88 603.26,-395.92 560,-433.62 523.83,-465.14 469.08,-471.11 426.3,-469.91"/>
<polygon fill="#63b8ff" stroke="#63b8ff" points="610.85,-302.86 618.82,-295.89 608.24,-296.36 610.85,-302.86"/>
</a>
</g>
</g>
<!-- Node16 -->
<g id="Node000016" class="node">
<title>Node16</title>
<g id="a_Node000016"><a xlink:href="class_p_h_p_mailer_1_1_p_h_p_mailer_1_1_p_h_p_mailer.html#ad8d982cb84383c36585dab8ac1a01414" target="_top" xlink:title=" ">
<polygon fill="white" stroke="#666666" points="65.5,-284.25 0,-284.25 0,-265 65.5,-265 65.5,-284.25"/>
<text text-anchor="middle" x="32.75" y="-270.75" font-family="Helvetica,sans-Serif" font-size="10.00">createBody</text>
</a>
</g>
</g>
<!-- Node3&#45;&gt;Node16 -->
<g id="edge16_Node000003_Node000016" class="edge">
<title>Node3&#45;&gt;Node16</title>
<g id="a_edge16_Node000003_Node000016"><a xlink:title=" ">
<path fill="none" stroke="#63b8ff" d="M610.24,-275.99C562.62,-249.02 457.75,-196.62 361.88,-196.62 361.88,-196.62 361.88,-196.62 224.62,-196.62 153.39,-196.62 77.56,-243.76 47.33,-264.75"/>
<polygon fill="#63b8ff" stroke="#63b8ff" points="608.32,-278.92 618.73,-280.88 611.81,-272.85 608.32,-278.92"/>
</a>
</g>
</g>
<!-- Node17 -->
<g id="Node000017" class="node">
<title>Node17</title>
<g id="a_Node000017"><a xlink:href="class_p_h_p_mailer_1_1_p_h_p_mailer_1_1_p_h_p_mailer.html#aadcda1cd84010ce6e24880ef263581d7" target="_top" xlink:title=" ">
<polygon fill="white" stroke="#666666" points="544.25,-56.25 478,-56.25 478,-37 544.25,-37 544.25,-56.25"/>
<text text-anchor="middle" x="511.12" y="-42.75" font-family="Helvetica,sans-Serif" font-size="10.00">DKIM_Sign</text>
</a>
</g>
</g>
<!-- Node3&#45;&gt;Node17 -->
<g id="edge17_Node000003_Node000017" class="edge">
<title>Node3&#45;&gt;Node17</title>
<g id="a_edge17_Node000003_Node000017"><a xlink:title=" ">
<path fill="none" stroke="#63b8ff" d="M635.17,-270.74C631.53,-226.74 617.04,-123.7 560,-64.62 555.68,-60.15 550.15,-56.78 544.38,-54.24"/>
<polygon fill="#63b8ff" stroke="#63b8ff" points="631.66,-270.71 635.85,-280.43 638.64,-270.21 631.66,-270.71"/>
</a>
</g>
</g>
<!-- Node19 -->
<g id="Node000019" class="node">
<title>Node19</title>
<g id="a_Node000019"><a xlink:href="class_p_h_p_mailer_1_1_p_h_p_mailer_1_1_p_h_p_mailer.html#ac1e491611ab5d08cfc2c2cbcd5e60d06" target="_top" xlink:title=" ">
<polygon fill="white" stroke="#666666" points="257.25,-265.25 194,-265.25 194,-246 257.25,-246 257.25,-265.25"/>
<text text-anchor="middle" x="225.62" y="-251.75" font-family="Helvetica,sans-Serif" font-size="10.00">encodeFile</text>
</a>
</g>
</g>
<!-- Node3&#45;&gt;Node19 -->
<g id="edge19_Node000003_Node000019" class="edge">
<title>Node3&#45;&gt;Node19</title>
<g id="a_edge19_Node000003_Node000019"><a xlink:title=" ">
<path fill="none" stroke="#63b8ff" d="M608.81,-285.55C594.32,-282.43 576.23,-278.66 560,-275.62 500.78,-264.56 486.29,-258.53 426.25,-253.62 368.33,-248.89 353.6,-252.78 295.5,-253.62 283.06,-253.81 269.36,-254.17 257.48,-254.54"/>
<polygon fill="#63b8ff" stroke="#63b8ff" points="608.03,-288.96 618.55,-287.66 609.52,-282.12 608.03,-288.96"/>
</a>
</g>
</g>
<!-- Node21 -->
<g id="Node000021" class="node">
<title>Node21</title>
<g id="a_Node000021"><a xlink:href="class_p_h_p_mailer_1_1_p_h_p_mailer_1_1_p_h_p_mailer.html#a4f70959b8fb274fb46e7da6a6ffe113f" target="_top" xlink:title=" ">
<polygon fill="white" stroke="#666666" points="397.38,-395.25 324.38,-395.25 324.38,-376 397.38,-376 397.38,-395.25"/>
<text text-anchor="middle" x="360.88" y="-381.75" font-family="Helvetica,sans-Serif" font-size="10.00">encodeString</text>
</a>
</g>
</g>
<!-- Node3&#45;&gt;Node21 -->
<g id="edge22_Node000003_Node000021" class="edge">
<title>Node3&#45;&gt;Node21</title>
<g id="a_edge22_Node000003_Node000021"><a xlink:title=" ">
<path fill="none" stroke="#63b8ff" d="M609.38,-300.87C557.6,-318.6 444.74,-357.25 391.19,-375.58"/>
<polygon fill="#63b8ff" stroke="#63b8ff" points="610.27,-304.26 618.59,-297.71 608,-297.64 610.27,-304.26"/>
</a>
</g>
</g>
<!-- Node22 -->
<g id="Node000022" class="node">
<title>Node22</title>
<g id="a_Node000022"><a xlink:href="class_p_h_p_mailer_1_1_p_h_p_mailer_1_1_p_h_p_mailer.html#a9f43cac580fb8f33ef5e159f1eeb9148" target="_top" xlink:title=" ">
<polygon fill="white" stroke="#666666" points="539.38,-19.25 482.88,-19.25 482.88,0 539.38,0 539.38,-19.25"/>
<text text-anchor="middle" x="511.12" y="-5.75" font-family="Helvetica,sans-Serif" font-size="10.00">mailSend</text>
</a>
</g>
</g>
<!-- Node3&#45;&gt;Node22 -->
<g id="edge26_Node000003_Node000022" class="edge">
<title>Node3&#45;&gt;Node22</title>
<g id="a_edge26_Node000003_Node000022"><a xlink:title=" ">
<path fill="none" stroke="#63b8ff" d="M636.34,-270.42C635.11,-221.23 625.28,-98.2 560,-27.62 554.57,-21.76 547.05,-17.79 539.56,-15.11"/>
<polygon fill="#63b8ff" stroke="#63b8ff" points="632.84,-270.28 636.48,-280.23 639.84,-270.18 632.84,-270.28"/>
</a>
</g>
</g>
<!-- Node23 -->
<g id="Node000023" class="node">
<title>Node23</title>
<g id="a_Node000023"><a xlink:href="class_p_h_p_mailer_1_1_p_h_p_mailer_1_1_p_h_p_mailer.html#a71e1bd499bee8845b64d3a41f893cc3d" target="_top" xlink:title=" ">
<polygon fill="white" stroke="#666666" points="375.62,-282.25 346.12,-282.25 346.12,-263 375.62,-263 375.62,-282.25"/>
<text text-anchor="middle" x="360.88" y="-268.75" font-family="Helvetica,sans-Serif" font-size="10.00">set</text>
</a>
</g>
</g>
<!-- Node3&#45;&gt;Node23 -->
<g id="edge27_Node000003_Node000023" class="edge">
<title>Node3&#45;&gt;Node23</title>
<g id="a_edge27_Node000003_Node000023"><a xlink:title=" ">
<path fill="none" stroke="#63b8ff" d="M608.56,-289.7C550.78,-285.7 419.55,-276.62 376.12,-273.61"/>
<polygon fill="#63b8ff" stroke="#63b8ff" points="608.3,-293.19 618.52,-290.39 608.78,-286.21 608.3,-293.19"/>
</a>
</g>
</g>
<!-- Node24 -->
<g id="Node000024" class="node">
<title>Node24</title>
<g id="a_Node000024"><a xlink:href="class_p_h_p_mailer_1_1_p_h_p_mailer_1_1_p_h_p_mailer.html#a9b84595d8561a0abd81c0b83b6238472" target="_top" xlink:title=" ">
<polygon fill="white" stroke="#666666" points="536.38,-396.25 485.88,-396.25 485.88,-377 536.38,-377 536.38,-396.25"/>
<text text-anchor="middle" x="511.12" y="-382.75" font-family="Helvetica,sans-Serif" font-size="10.00">setError</text>
</a>
</g>
</g>
<!-- Node3&#45;&gt;Node24 -->
<g id="edge28_Node000003_Node000024" class="edge">
<title>Node3&#45;&gt;Node24</title>
<g id="a_edge28_Node000003_Node000024"><a xlink:title=" ">
<path fill="none" stroke="#63b8ff" d="M609.55,-301.05C604.76,-303.42 600.02,-306.27 596,-309.62 574.16,-327.9 581.42,-343.86 560,-362.62 553.15,-368.63 544.52,-373.55 536.49,-377.34"/>
<polygon fill="#63b8ff" stroke="#63b8ff" points="610.68,-304.37 618.49,-297.21 607.92,-297.94 610.68,-304.37"/>
</a>
</g>
</g>
<!-- Node25 -->
<g id="Node000025" class="node">
<title>Node25</title>
<g id="a_Node000025"><a xlink:href="class_p_h_p_mailer_1_1_p_h_p_mailer_1_1_p_h_p_mailer.html#a49eca48203f71281e82986420773c3be" target="_top" xlink:title=" ">
<polygon fill="white" stroke="#666666" points="391,-168.25 330.75,-168.25 330.75,-149 391,-149 391,-168.25"/>
<text text-anchor="middle" x="360.88" y="-154.75" font-family="Helvetica,sans-Serif" font-size="10.00">smtpSend</text>
</a>
</g>
</g>
<!-- Node3&#45;&gt;Node25 -->
<g id="edge41_Node000003_Node000025" class="edge">
<title>Node3&#45;&gt;Node25</title>
<g id="a_edge41_Node000003_Node000025"><a xlink:title=" ">
<path fill="none" stroke="#63b8ff" d="M628.39,-271.36C617.23,-245.95 594.37,-203.23 560,-182.62 507.25,-151 432.4,-151.69 391.46,-155.09"/>
<polygon fill="#63b8ff" stroke="#63b8ff" points="625.03,-272.4 632.12,-280.27 631.49,-269.7 625.03,-272.4"/>
</a>
</g>
</g>
<!-- Node26 -->
<g id="Node000026" class="node">
<title>Node26</title>
<g id="a_Node000026"><a xlink:href="class_p_h_p_mailer_1_1_p_h_p_mailer_1_1_p_h_p_mailer.html#a58e7e9d1a3e59fc691476b400a7b8fe0" target="_top" xlink:title=" ">
<polygon fill="white" stroke="#666666" points="548.38,-130.25 473.88,-130.25 473.88,-111 548.38,-111 548.38,-130.25"/>
<text text-anchor="middle" x="511.12" y="-116.75" font-family="Helvetica,sans-Serif" font-size="10.00">smtpConnect</text>
</a>
</g>
</g>
<!-- Node3&#45;&gt;Node26 -->
<g id="edge39_Node000003_Node000026" class="edge">
<title>Node3&#45;&gt;Node26</title>
<g id="a_edge39_Node000003_Node000026"><a xlink:title=" ">
<path fill="none" stroke="#63b8ff" d="M630.24,-271.02C620.12,-240.07 597.25,-181.34 560,-144.62 554.17,-138.88 546.69,-134.25 539.39,-130.65"/>
<polygon fill="#63b8ff" stroke="#63b8ff" points="626.82,-271.81 633.15,-280.31 633.5,-269.72 626.82,-271.81"/>
</a>
</g>
</g>
<!-- Node8 -->
<g id="Node000008" class="node">
<title>Node8</title>
<g id="a_Node000008"><a xlink:href="class_p_h_p_mailer_1_1_p_h_p_mailer_1_1_p_h_p_mailer.html#a6f48abba605717de6ac66ea2cceef1b1" target="_top" xlink:title=" ">
<polygon fill="white" stroke="#666666" points="256.5,-527.25 194.75,-527.25 194.75,-508 256.5,-508 256.5,-527.25"/>
<text text-anchor="middle" x="225.62" y="-513.75" font-family="Helvetica,sans-Serif" font-size="10.00">msgHTML</text>
</a>
</g>
</g>
<!-- Node7&#45;&gt;Node8 -->
<g id="edge7_Node000007_Node000008" class="edge">
<title>Node7&#45;&gt;Node8</title>
<g id="a_edge7_Node000007_Node000008"><a xlink:title=" ">
<path fill="none" stroke="#63b8ff" d="M296.83,-508.67C282.81,-510.46 268.59,-512.27 256.64,-513.8"/>
<polygon fill="#63b8ff" stroke="#63b8ff" points="297,-512.18 306.47,-507.44 296.11,-505.23 297,-512.18"/>
</a>
</g>
</g>
<!-- Node10 -->
<g id="Node000010" class="node">
<title>Node10</title>
<g id="a_Node000010"><a xlink:href="class_p_h_p_mailer_1_1_p_h_p_mailer_1_1_p_h_p_mailer.html#a923e1484897e470d8ab75646110d1da7" target="_top" xlink:title=" ">
<polygon fill="white" stroke="#666666" points="259.5,-453.25 191.75,-453.25 191.75,-434 259.5,-434 259.5,-453.25"/>
<text text-anchor="middle" x="225.62" y="-439.75" font-family="Helvetica,sans-Serif" font-size="10.00">addAddress</text>
</a>
</g>
</g>
<!-- Node9&#45;&gt;Node10 -->
<g id="edge9_Node000009_Node000010" class="edge">
<title>Node9&#45;&gt;Node10</title>
<g id="a_edge9_Node000009_Node000010"><a xlink:title=" ">
<path fill="none" stroke="#63b8ff" d="M285.16,-434.84C276.35,-436.16 267.73,-437.46 259.93,-438.63"/>
<polygon fill="#63b8ff" stroke="#63b8ff" points="285.51,-438.33 294.88,-433.38 284.47,-431.4 285.51,-438.33"/>
</a>
</g>
</g>
<!-- Node11 -->
<g id="Node000011" class="node">
<title>Node11</title>
<g id="a_Node000011"><a xlink:href="class_p_h_p_mailer_1_1_p_h_p_mailer_1_1_p_h_p_mailer.html#af87f1ad45a9debc2356001769a81cba4" target="_top" xlink:title=" ">
<polygon fill="white" stroke="#666666" points="252.38,-416.25 198.88,-416.25 198.88,-397 252.38,-397 252.38,-416.25"/>
<text text-anchor="middle" x="225.62" y="-402.75" font-family="Helvetica,sans-Serif" font-size="10.00">addBCC</text>
</a>
</g>
</g>
<!-- Node9&#45;&gt;Node11 -->
<g id="edge10_Node000009_Node000011" class="edge">
<title>Node9&#45;&gt;Node11</title>
<g id="a_edge10_Node000009_Node000011"><a xlink:title=" ">
<path fill="none" stroke="#63b8ff" d="M285.18,-414.1C273.56,-412.61 262.27,-411.17 252.76,-409.96"/>
<polygon fill="#63b8ff" stroke="#63b8ff" points="284.51,-417.54 294.87,-415.33 285.39,-410.59 284.51,-417.54"/>
</a>
</g>
</g>
<!-- Node12 -->
<g id="Node000012" class="node">
<title>Node12</title>
<g id="a_Node000012"><a xlink:href="class_p_h_p_mailer_1_1_p_h_p_mailer_1_1_p_h_p_mailer.html#adb07885d50dc0d531c4ed56dde03df39" target="_top" xlink:title=" ">
<polygon fill="white" stroke="#666666" points="249,-379.25 202.25,-379.25 202.25,-360 249,-360 249,-379.25"/>
<text text-anchor="middle" x="225.62" y="-365.75" font-family="Helvetica,sans-Serif" font-size="10.00">addCC</text>
</a>
</g>
</g>
<!-- Node9&#45;&gt;Node12 -->
<g id="edge11_Node000009_Node000012" class="edge">
<title>Node9&#45;&gt;Node12</title>
<g id="a_edge11_Node000009_Node000012"><a xlink:title=" ">
<path fill="none" stroke="#63b8ff" d="M310.74,-410.14C305.55,-408.42 300.39,-406.57 295.5,-404.62 285.78,-400.76 262.33,-388.61 245.49,-379.7"/>
<polygon fill="#63b8ff" stroke="#63b8ff" points="309.32,-413.37 319.91,-413.05 311.44,-406.69 309.32,-413.37"/>
</a>
</g>
</g>
<!-- Node13 -->
<g id="Node000013" class="node">
<title>Node13</title>
<g id="a_Node000013"><a xlink:href="class_p_h_p_mailer_1_1_p_h_p_mailer_1_1_p_h_p_mailer.html#a49232622a13aac39cb442d6a4a8446f3" target="_top" xlink:title=" ">
<polygon fill="white" stroke="#666666" points="259.5,-490.25 191.75,-490.25 191.75,-471 259.5,-471 259.5,-490.25"/>
<text text-anchor="middle" x="225.62" y="-476.75" font-family="Helvetica,sans-Serif" font-size="10.00">addReplyTo</text>
</a>
</g>
</g>
<!-- Node9&#45;&gt;Node13 -->
<g id="edge12_Node000009_Node000013" class="edge">
<title>Node9&#45;&gt;Node13</title>
<g id="a_edge12_Node000009_Node000013"><a xlink:title=" ">
<path fill="none" stroke="#63b8ff" d="M312.17,-437.31C306.49,-439.27 300.83,-441.39 295.5,-443.62 292.9,-444.71 264.71,-459.95 245.21,-470.53"/>
<polygon fill="#63b8ff" stroke="#63b8ff" points="313.17,-440.67 321.57,-434.22 310.98,-434.02 313.17,-440.67"/>
</a>
</g>
</g>
<!-- Node15&#45;&gt;Node8 -->
<g id="edge15_Node000015_Node000008" class="edge">
<title>Node15&#45;&gt;Node8</title>
<g id="a_edge15_Node000015_Node000008"><a xlink:title=" ">
<path fill="none" stroke="#63b8ff" d="M310.72,-476.05C305.53,-477.79 300.37,-479.65 295.5,-481.62 285.62,-485.62 261.7,-498.4 244.83,-507.59"/>
<polygon fill="#63b8ff" stroke="#63b8ff" points="311.42,-479.5 319.89,-473.13 309.3,-472.83 311.42,-479.5"/>
</a>
</g>
</g>
<!-- Node18 -->
<g id="Node000018" class="node">
<title>Node18</title>
<g id="a_Node000018"><a xlink:href="class_p_h_p_mailer_1_1_p_h_p_mailer_1_1_p_h_p_mailer.html#a3d464b41f5f853bb29c83d8e74fe1470" target="_top" xlink:title=" ">
<polygon fill="white" stroke="#666666" points="392.88,-56.25 328.88,-56.25 328.88,-37 392.88,-37 392.88,-56.25"/>
<text text-anchor="middle" x="360.88" y="-42.75" font-family="Helvetica,sans-Serif" font-size="10.00">DKIM_Add</text>
</a>
</g>
</g>
<!-- Node17&#45;&gt;Node18 -->
<g id="edge18_Node000017_Node000018" class="edge">
<title>Node17&#45;&gt;Node18</title>
<g id="a_edge18_Node000017_Node000018"><a xlink:title=" ">
<path fill="none" stroke="#63b8ff" d="M466.2,-46.62C442.78,-46.62 414.52,-46.62 393.32,-46.62"/>
<polygon fill="#63b8ff" stroke="#63b8ff" points="466.08,-50.13 476.08,-46.63 466.08,-43.13 466.08,-50.13"/>
</a>
</g>
</g>
<!-- Node20 -->
<g id="Node000020" class="node">
<title>Node20</title>
<g id="a_Node000020"><a xlink:href="class_p_h_p_mailer_1_1_p_h_p_mailer_1_1_p_h_p_mailer.html#ad5142fb4a879dbe9a4280772d255fff8" target="_top" xlink:title=" ">
<polygon fill="white" stroke="#666666" points="155.75,-284.25 101.5,-284.25 101.5,-265 155.75,-265 155.75,-284.25"/>
<text text-anchor="middle" x="128.62" y="-270.75" font-family="Helvetica,sans-Serif" font-size="10.00">attachAll</text>
</a>
</g>
</g>
<!-- Node19&#45;&gt;Node20 -->
<g id="edge20_Node000019_Node000020" class="edge">
<title>Node19&#45;&gt;Node20</title>
<g id="a_edge20_Node000019_Node000020"><a xlink:title=" ">
<path fill="none" stroke="#63b8ff" d="M182.39,-264.07C173.42,-265.87 164.2,-267.71 156.02,-269.35"/>
<polygon fill="#63b8ff" stroke="#63b8ff" points="182.91,-267.54 192.03,-262.14 181.54,-260.67 182.91,-267.54"/>
</a>
</g>
</g>
<!-- Node20&#45;&gt;Node16 -->
<g id="edge21_Node000020_Node000016" class="edge">
<title>Node20&#45;&gt;Node16</title>
<g id="a_edge21_Node000020_Node000016"><a xlink:title=" ">
<path fill="none" stroke="#63b8ff" d="M89.95,-274.62C82,-274.62 73.68,-274.62 65.96,-274.62"/>
<polygon fill="#63b8ff" stroke="#63b8ff" points="89.71,-278.13 99.71,-274.63 89.71,-271.13 89.71,-278.13"/>
</a>
</g>
</g>
<!-- Node21&#45;&gt;Node16 -->
<g id="edge24_Node000021_Node000016" class="edge">
<title>Node21&#45;&gt;Node16</title>
<g id="a_edge24_Node000021_Node000016"><a xlink:title=" ">
<path fill="none" stroke="#63b8ff" d="M320.65,-371.84C302.13,-365.35 279.69,-357.54 259.5,-350.62 189.67,-326.7 107.46,-299.19 64.09,-284.72"/>
<polygon fill="#63b8ff" stroke="#63b8ff" points="319.32,-375.08 329.92,-375.09 321.64,-368.48 319.32,-375.08"/>
</a>
</g>
</g>
<!-- Node21&#45;&gt;Node19 -->
<g id="edge25_Node000021_Node000019" class="edge">
<title>Node21&#45;&gt;Node19</title>
<g id="a_edge25_Node000021_Node000019"><a xlink:title=" ">
<path fill="none" stroke="#63b8ff" d="M313.51,-373.56C306.94,-370.43 300.68,-366.52 295.5,-361.62 266.57,-334.29 284.43,-310.65 259.5,-279.62 255.16,-274.23 249.33,-269.44 243.78,-265.6"/>
<polygon fill="#63b8ff" stroke="#63b8ff" points="311.97,-376.71 322.55,-377.28 314.64,-370.24 311.97,-376.71"/>
</a>
</g>
</g>
<!-- Node21&#45;&gt;Node20 -->
<g id="edge23_Node000021_Node000020" class="edge">
<title>Node21&#45;&gt;Node20</title>
<g id="a_edge23_Node000021_Node000020"><a xlink:title=" ">
<path fill="none" stroke="#63b8ff" d="M313.47,-371.74C307.15,-368.89 300.97,-365.54 295.5,-361.62 274.95,-346.92 280.32,-331.94 259.5,-317.62 227.7,-295.76 183.94,-284.32 156.22,-278.89"/>
<polygon fill="#63b8ff" stroke="#63b8ff" points="312.14,-374.98 322.72,-375.5 314.77,-368.49 312.14,-374.98"/>
</a>
</g>
</g>
<!-- Node24&#45;&gt;Node4 -->
<g id="edge29_Node000024_Node000004" class="edge">
<title>Node24&#45;&gt;Node4</title>
<g id="a_edge29_Node000024_Node000004"><a xlink:title=" ">
<path fill="none" stroke="#63b8ff" d="M505.64,-407.38C496.81,-443.19 473.77,-516.62 426.25,-556.62 419.12,-562.63 410.16,-566.74 401.21,-569.54"/>
<polygon fill="#63b8ff" stroke="#63b8ff" points="509,-408.4 507.84,-397.87 502.18,-406.82 509,-408.4"/>
</a>
</g>
</g>
<!-- Node24&#45;&gt;Node5 -->
<g id="edge30_Node000024_Node000005" class="edge">
<title>Node24&#45;&gt;Node5</title>
<g id="a_edge30_Node000024_Node000005"><a xlink:title=" ">
<path fill="none" stroke="#63b8ff" d="M502.62,-407.41C490.91,-436.86 465.5,-490.38 426.25,-519.62 419.18,-524.89 410.63,-528.62 402.11,-531.26"/>
<polygon fill="#63b8ff" stroke="#63b8ff" points="505.86,-408.75 506.14,-398.15 499.31,-406.26 505.86,-408.75"/>
</a>
</g>
</g>
<!-- Node24&#45;&gt;Node7 -->
<g id="edge31_Node000024_Node000007" class="edge">
<title>Node24&#45;&gt;Node7</title>
<g id="a_edge31_Node000024_Node000007"><a xlink:title=" ">
<path fill="none" stroke="#63b8ff" d="M497.92,-406.04C483.4,-427.59 457.19,-461.92 426.25,-481.62 420.65,-485.19 414.35,-488.12 407.94,-490.5"/>
<polygon fill="#63b8ff" stroke="#63b8ff" points="500.72,-408.16 503.26,-397.87 494.86,-404.33 500.72,-408.16"/>
</a>
</g>
</g>
<!-- Node24&#45;&gt;Node9 -->
<g id="edge32_Node000024_Node000009" class="edge">
<title>Node24&#45;&gt;Node9</title>
<g id="a_edge32_Node000024_Node000009"><a xlink:title=" ">
<path fill="none" stroke="#63b8ff" d="M474.58,-395.5C452.83,-400.92 424.94,-407.89 402.35,-413.52"/>
<polygon fill="#63b8ff" stroke="#63b8ff" points="475.32,-398.92 484.18,-393.1 473.63,-392.13 475.32,-398.92"/>
</a>
</g>
</g>
<!-- Node24&#45;&gt;Node14 -->
<g id="edge33_Node000024_Node000014" class="edge">
<title>Node24&#45;&gt;Node14</title>
<g id="a_edge33_Node000024_Node000014"><a xlink:title=" ">
<path fill="none" stroke="#63b8ff" d="M487.07,-370.23C470.63,-359 447.72,-344.27 426.25,-333.62 415.67,-328.38 403.65,-323.6 392.88,-319.72"/>
<polygon fill="#63b8ff" stroke="#63b8ff" points="484.94,-373.01 495.15,-375.84 488.93,-367.26 484.94,-373.01"/>
</a>
</g>
</g>
<!-- Node24&#45;&gt;Node15 -->
<g id="edge34_Node000024_Node000015" class="edge">
<title>Node24&#45;&gt;Node15</title>
<g id="a_edge34_Node000024_Node000015"><a xlink:title=" ">
<path fill="none" stroke="#63b8ff" d="M489,-403.23C472.63,-415.46 448.97,-431.79 426.25,-442.62 418.22,-446.45 409.29,-449.77 400.69,-452.54"/>
<polygon fill="#63b8ff" stroke="#63b8ff" points="490.7,-406.33 496.54,-397.49 486.46,-400.76 490.7,-406.33"/>
</a>
</g>
</g>
<!-- Node24&#45;&gt;Node19 -->
<g id="edge35_Node000024_Node000019" class="edge">
<title>Node24&#45;&gt;Node19</title>
<g id="a_edge35_Node000024_Node000019"><a xlink:title=" ">
<path fill="none" stroke="#63b8ff" d="M474.75,-377.69C415.79,-362.7 303.08,-333.65 295.5,-328.62 273.86,-314.28 277.64,-301.2 259.5,-282.62 253.51,-276.5 246.2,-270.38 240,-265.52"/>
<polygon fill="#63b8ff" stroke="#63b8ff" points="473.76,-381.05 484.31,-380.11 475.48,-374.26 473.76,-381.05"/>
</a>
</g>
</g>
<!-- Node24&#45;&gt;Node21 -->
<g id="edge36_Node000024_Node000021" class="edge">
<title>Node24&#45;&gt;Node21</title>
<g id="a_edge36_Node000024_Node000021"><a xlink:title=" ">
<path fill="none" stroke="#63b8ff" d="M474.22,-386.38C451.02,-386.23 420.96,-386.02 397.77,-385.87"/>
<polygon fill="#63b8ff" stroke="#63b8ff" points="474.11,-389.88 484.13,-386.45 474.15,-382.88 474.11,-389.88"/>
</a>
</g>
</g>
<!-- Node24&#45;&gt;Node23 -->
<g id="edge37_Node000024_Node000023" class="edge">
<title>Node24&#45;&gt;Node23</title>
<g id="a_edge37_Node000024_Node000023"><a xlink:title=" ">
<path fill="none" stroke="#63b8ff" d="M498.25,-367.26C483.86,-345.43 457.62,-310.41 426.25,-290.62 410.64,-280.78 389.59,-276.22 375.88,-274.18"/>
<polygon fill="#63b8ff" stroke="#63b8ff" points="495.18,-368.97 503.51,-375.52 501.09,-365.2 495.18,-368.97"/>
</a>
</g>
</g>
<!-- Node24&#45;&gt;Node25 -->
<g id="edge38_Node000024_Node000025" class="edge">
<title>Node24&#45;&gt;Node25</title>
<g id="a_edge38_Node000024_Node000025"><a xlink:title=" ">
<path fill="none" stroke="#63b8ff" d="M498.07,-367.07C481.96,-341.02 452.38,-293.59 426.25,-253.62 405.75,-222.28 380.64,-185.74 368.75,-168.54"/>
<polygon fill="#63b8ff" stroke="#63b8ff" points="494.9,-368.59 503.13,-375.25 500.85,-364.91 494.9,-368.59"/>
</a>
</g>
</g>
<!-- Node26&#45;&gt;Node25 -->
<g id="edge40_Node000026_Node000025" class="edge">
<title>Node26&#45;&gt;Node25</title>
<g id="a_edge40_Node000026_Node000025"><a xlink:title=" ">
<path fill="none" stroke="#63b8ff" d="M462.35,-132.87C438.92,-138.88 411.44,-145.92 391.15,-151.12"/>
<polygon fill="#63b8ff" stroke="#63b8ff" points="463.19,-136.27 472.01,-130.39 461.46,-129.49 463.19,-136.27"/>
</a>
</g>
</g>
</g>
</svg>

<g id="navigator" transform="translate(0 0)" fill="#404254">
  <rect fill="#f2f5e9" fill-opacity="0.5" stroke="#606060" stroke-width=".5" x="0" y="0" width="60" height="60"/>
  <use id="zoomplus" xlink:href="#zoomPlus" x="17" y="9" onmousedown="handleZoom(evt,'in')"/>
  <use id="zoomminus" xlink:href="#zoomMin" x="42" y="9" onmousedown="handleZoom(evt,'out')"/>
  <use id="reset" xlink:href="#resetDef" x="30" y="36" onmousedown="handleReset()"/>
   <use id="arrowup" xlink:href="#arrowUp" x="0" y="0" onmousedown="handlePan(0,-1)"/>
  <use id="arrowright" xlink:href="#arrowRight" x="0" y="0" onmousedown="handlePan(1,0)"/>
  <use id="arrowdown" xlink:href="#arrowDown" x="0" y="0" onmousedown="handlePan(0,1)"/>
  <use id="arrowleft" xlink:href="#arrowLeft" x="0" y="0" onmousedown="handlePan(-1,0)"/>
</g>
<svg viewBox="0 0 15 15" width="100%" height="30px" preserveAspectRatio="xMaxYMin meet">
 <g id="arrow_out" transform="scale(0.3 0.3)">
  <a xlink:href="class_p_h_p_mailer_1_1_p_h_p_mailer_1_1_p_h_p_mailer_aaf95e152019d45c4721612c4a08dbcd9_icgraph_org.svg" target="_base">
   <rect id="button" ry="5" rx="5" y="6" x="6" height="38" width="38"
        fill="#f2f5e9" fill-opacity="0.5" stroke="#606060" stroke-width="1.0"/>
   <path id="arrow"
     d="M 11.500037,31.436501 C 11.940474,20.09759 22.043105,11.32322 32.158766,21.979434 L 37.068811,17.246167 C 37.068811,17.246167 37.088388,32 37.088388,32 L 22.160133,31.978069 C 22.160133,31.978069 26.997745,27.140456 26.997745,27.140456 C 18.528582,18.264221 13.291696,25.230495 11.500037,31.436501 z"
     style="fill:#404040;"/>
  </a>
 </g>
</svg>

<style type='text/css'>
<![CDATA[
[data-mouse-over-selected='false'] { opacity: 0.7; }
[data-mouse-over-selected='true']  { opacity: 1.0; }
]]>
</style>
<script type="application/ecmascript"><![CDATA[
document.addEventListener('DOMContentLoaded', (event) => {
  highlightEdges();
  highlightAdjacentNodes();
});
]]></script>
</svg>
