<?xml version="1.0" encoding="UTF-8" standalone="no"?>
<!DOCTYPE svg PUBLIC "-//W3C//DTD SVG 1.1//EN"
 "http://www.w3.org/Graphics/SVG/1.1/DTD/svg11.dtd">
<!-- Generated by graphviz version 10.0.1 (20240210.2158)
 -->
<!-- Title: getFrom Pages: 1 -->
<svg width="677pt" height="27pt"
 viewBox="0.00 0.00 677.00 27.25" xmlns="http://www.w3.org/2000/svg" xmlns:xlink="http://www.w3.org/1999/xlink">
<g id="graph0" class="graph" transform="scale(1 1) rotate(0) translate(4 23.25)">
<title>getFrom</title>
<!-- Node1 -->
<g id="Node000001" class="node">
<title>Node1</title>
<g id="a_Node000001"><a xlink:title=" ">
<polygon fill="#999999" stroke="#666666" points="52,-19.25 0,-19.25 0,0 52,0 52,-19.25"/>
<text text-anchor="middle" x="26" y="-5.75" font-family="Helvetica,sans-Serif" font-size="10.00">getFrom</text>
</a>
</g>
</g>
<!-- Node2 -->
<g id="Node000002" class="node">
<title>Node2</title>
<g id="a_Node000002"><a xlink:href="class_laminas_1_1_mail_1_1_message.html#a93b3fb7ceee16d24a4f79bac0e798d45" target="_top" xlink:title=" ">
<polygon fill="white" stroke="#666666" points="223.25,-19.25 88,-19.25 88,0 223.25,0 223.25,-19.25"/>
<text text-anchor="middle" x="155.62" y="-5.75" font-family="Helvetica,sans-Serif" font-size="10.00">getAddressListFromHeader</text>
</a>
</g>
</g>
<!-- Node1&#45;&gt;Node2 -->
<g id="edge1_Node000001_Node000002" class="edge">
<title>Node1&#45;&gt;Node2</title>
<g id="a_edge1_Node000001_Node000002"><a xlink:title=" ">
<path fill="none" stroke="#63b8ff" d="M52.21,-9.62C59.39,-9.62 67.6,-9.62 76.19,-9.62"/>
<polygon fill="#63b8ff" stroke="#63b8ff" points="76.12,-13.13 86.12,-9.63 76.12,-6.13 76.12,-13.13"/>
</a>
</g>
</g>
<!-- Node3 -->
<g id="Node000003" class="node">
<title>Node3</title>
<g id="a_Node000003"><a xlink:href="class_laminas_1_1_mail_1_1_message.html#a84cffc4acd293810c53e520f349c7c2e" target="_top" xlink:title=" ">
<polygon fill="white" stroke="#666666" points="358.5,-19.25 259.25,-19.25 259.25,0 358.5,0 358.5,-19.25"/>
<text text-anchor="middle" x="308.88" y="-5.75" font-family="Helvetica,sans-Serif" font-size="10.00">getHeaderByName</text>
</a>
</g>
</g>
<!-- Node2&#45;&gt;Node3 -->
<g id="edge2_Node000002_Node000003" class="edge">
<title>Node2&#45;&gt;Node3</title>
<g id="a_edge2_Node000002_Node000003"><a xlink:title=" ">
<path fill="none" stroke="#63b8ff" d="M223.41,-9.62C231.49,-9.62 239.71,-9.62 247.68,-9.62"/>
<polygon fill="#63b8ff" stroke="#63b8ff" points="247.65,-13.13 257.65,-9.63 247.65,-6.13 247.65,-13.13"/>
</a>
</g>
</g>
<!-- Node4 -->
<g id="Node000004" class="node">
<title>Node4</title>
<g id="a_Node000004"><a xlink:href="class_laminas_1_1_mail_1_1_message.html#a157e0005d82edaa21cbea07fdc5c62da" target="_top" xlink:title=" ">
<polygon fill="white" stroke="#666666" points="460.75,-19.25 394.5,-19.25 394.5,0 460.75,0 460.75,-19.25"/>
<text text-anchor="middle" x="427.62" y="-5.75" font-family="Helvetica,sans-Serif" font-size="10.00">getHeaders</text>
</a>
</g>
</g>
<!-- Node3&#45;&gt;Node4 -->
<g id="edge3_Node000003_Node000004" class="edge">
<title>Node3&#45;&gt;Node4</title>
<g id="a_edge3_Node000003_Node000004"><a xlink:title=" ">
<path fill="none" stroke="#63b8ff" d="M358.71,-9.62C366.77,-9.62 375.08,-9.62 383,-9.62"/>
<polygon fill="#63b8ff" stroke="#63b8ff" points="382.75,-13.13 392.75,-9.63 382.75,-6.13 382.75,-13.13"/>
</a>
</g>
</g>
<!-- Node5 -->
<g id="Node000005" class="node">
<title>Node5</title>
<g id="a_Node000005"><a xlink:href="class_laminas_1_1_mail_1_1_message.html#acd34cc8039a498e91ffaf03683f02836" target="_top" xlink:title=" ">
<polygon fill="white" stroke="#666666" points="563,-19.25 496.75,-19.25 496.75,0 563,0 563,-19.25"/>
<text text-anchor="middle" x="529.88" y="-5.75" font-family="Helvetica,sans-Serif" font-size="10.00">setHeaders</text>
</a>
</g>
</g>
<!-- Node4&#45;&gt;Node5 -->
<g id="edge4_Node000004_Node000005" class="edge">
<title>Node4&#45;&gt;Node5</title>
<g id="a_edge4_Node000004_Node000005"><a xlink:title=" ">
<path fill="none" stroke="#63b8ff" d="M461.17,-9.62C468.78,-9.62 477,-9.62 485.01,-9.62"/>
<polygon fill="#63b8ff" stroke="#63b8ff" points="484.98,-13.13 494.98,-9.63 484.98,-6.13 484.98,-13.13"/>
</a>
</g>
</g>
<!-- Node6 -->
<g id="Node000006" class="node">
<title>Node6</title>
<g id="a_Node000006"><a xlink:href="class_laminas_1_1_mail_1_1_message.html#a515b2653f040b0c8a4ed093878232943" target="_top" xlink:title=" ">
<polygon fill="white" stroke="#666666" points="669,-19.25 599,-19.25 599,0 669,0 669,-19.25"/>
<text text-anchor="middle" x="634" y="-5.75" font-family="Helvetica,sans-Serif" font-size="10.00">getEncoding</text>
</a>
</g>
</g>
<!-- Node5&#45;&gt;Node6 -->
<g id="edge5_Node000005_Node000006" class="edge">
<title>Node5&#45;&gt;Node6</title>
<g id="a_edge5_Node000005_Node000006"><a xlink:title=" ">
<path fill="none" stroke="#63b8ff" d="M563.47,-9.62C571,-9.62 579.15,-9.62 587.13,-9.62"/>
<polygon fill="#63b8ff" stroke="#63b8ff" points="587.09,-13.13 597.09,-9.63 587.09,-6.13 587.09,-13.13"/>
</a>
</g>
</g>
</g>
</svg>
