<?xml version="1.0" encoding="UTF-8" standalone="no"?>
<!DOCTYPE svg PUBLIC "-//W3C//DTD SVG 1.1//EN"
 "http://www.w3.org/Graphics/SVG/1.1/DTD/svg11.dtd">
<!-- Generated by graphviz version 10.0.1 (20240210.2158)
 -->
<!-- Title: httpMove Pages: 1 -->
<svg width="252pt" height="88pt"
 viewBox="0.00 0.00 252.25 87.50" xmlns="http://www.w3.org/2000/svg" xmlns:xlink="http://www.w3.org/1999/xlink">
<g id="graph0" class="graph" transform="scale(1 1) rotate(0) translate(4 83.5)">
<title>httpMove</title>
<!-- Node1 -->
<g id="Node000001" class="node">
<title>Node1</title>
<g id="a_Node000001"><a xlink:title=" ">
<polygon fill="#999999" stroke="#666666" points="56.5,-48.88 0,-48.88 0,-29.62 56.5,-29.62 56.5,-48.88"/>
<text text-anchor="middle" x="28.25" y="-35.38" font-family="Helvetica,sans-Serif" font-size="10.00">httpMove</text>
</a>
</g>
</g>
<!-- Node2 -->
<g id="Node000002" class="node">
<title>Node2</title>
<g id="a_Node000002"><a xlink:href="interface_sabre_1_1_h_t_t_p_1_1_request_interface.html#a30c5c67b2bf8e2e2ccc7e361faa20afe" target="_top" xlink:title=" ">
<polygon fill="white" stroke="#666666" points="242.75,-79.5 94,-79.5 94,-49 242.75,-49 242.75,-79.5"/>
<text text-anchor="start" x="102" y="-66" font-family="Helvetica,sans-Serif" font-size="10.00">Sabre\HTTP\RequestInterface</text>
<text text-anchor="middle" x="168.38" y="-54.75" font-family="Helvetica,sans-Serif" font-size="10.00">\getPath</text>
</a>
</g>
</g>
<!-- Node1&#45;&gt;Node2 -->
<g id="edge1_Node000001_Node000002" class="edge">
<title>Node1&#45;&gt;Node2</title>
<g id="a_edge1_Node000001_Node000002"><a xlink:title=" ">
<path fill="none" stroke="#63b8ff" d="M56.87,-44.25C64.54,-45.64 73.29,-47.22 82.43,-48.88"/>
<polygon fill="#63b8ff" stroke="#63b8ff" points="81.78,-52.31 92.24,-50.65 83.02,-45.43 81.78,-52.31"/>
</a>
</g>
</g>
<!-- Node3 -->
<g id="Node000003" class="node">
<title>Node3</title>
<g id="a_Node000003"><a xlink:href="interface_sabre_1_1_h_t_t_p_1_1_message_interface.html#a1b393ab5237dc8fbcafa9e35bcdab54a" target="_top" xlink:title=" ">
<polygon fill="white" stroke="#666666" points="244.25,-30.5 92.5,-30.5 92.5,0 244.25,0 244.25,-30.5"/>
<text text-anchor="start" x="100.5" y="-17" font-family="Helvetica,sans-Serif" font-size="10.00">Sabre\HTTP\MessageInterface</text>
<text text-anchor="middle" x="168.38" y="-5.75" font-family="Helvetica,sans-Serif" font-size="10.00">\setHeader</text>
</a>
</g>
</g>
<!-- Node1&#45;&gt;Node3 -->
<g id="edge2_Node000001_Node000003" class="edge">
<title>Node1&#45;&gt;Node3</title>
<g id="a_edge2_Node000001_Node000003"><a xlink:title=" ">
<path fill="none" stroke="#63b8ff" d="M56.87,-34.45C64.12,-33.19 72.34,-31.76 80.94,-30.27"/>
<polygon fill="#63b8ff" stroke="#63b8ff" points="81.26,-33.77 90.51,-28.61 80.06,-26.87 81.26,-33.77"/>
</a>
</g>
</g>
</g>
</svg>
