<?xml version="1.0" encoding="UTF-8" standalone="no"?>
<!DOCTYPE svg PUBLIC "-//W3C//DTD SVG 1.1//EN"
 "http://www.w3.org/Graphics/SVG/1.1/DTD/svg11.dtd">
<!-- Generated by graphviz version 10.0.1 (20240210.2158)
 -->
<!-- Title: RfcParser Pages: 1 -->
<svg width="125pt" height="268pt"
 viewBox="0.00 0.00 125.00 268.25" xmlns="http://www.w3.org/2000/svg" xmlns:xlink="http://www.w3.org/1999/xlink">
<g id="graph0" class="graph" transform="scale(1 1) rotate(0) translate(4 264.25)">
<title>RfcParser</title>
<!-- Node1 -->
<g id="Node000001" class="node">
<title>Node1</title>
<g id="a_Node000001"><a xlink:title=" ">
<polygon fill="#999999" stroke="none" points="117,-164 0,-164 0,0 117,0 117,-164"/>
<text text-anchor="start" x="36.38" y="-150.5" font-family="Helvetica,sans-Serif" font-size="10.00">RfcParser</text>
<text text-anchor="start" x="57" y="-135.5" font-family="Helvetica,sans-Serif" font-size="10.00"> </text>
<text text-anchor="start" x="4" y="-120.5" font-family="Helvetica,sans-Serif" font-size="10.00">+</text>
<text text-anchor="start" x="14" y="-120.5" font-family="Helvetica,sans-Serif" font-size="10.00">static parseLine($line,</text>
<text text-anchor="start" x="14" y="-109.25" font-family="Helvetica,sans-Serif" font-size="10.00"> array $default=array())</text>
<text text-anchor="start" x="4" y="-94.5" font-family="Helvetica,sans-Serif" font-size="10.00">+</text>
<text text-anchor="start" x="14" y="-94.5" font-family="Helvetica,sans-Serif" font-size="10.00">static parseRRule(</text>
<text text-anchor="start" x="14" y="-83.25" font-family="Helvetica,sans-Serif" font-size="10.00">$string, $dtstart=null)</text>
<text text-anchor="start" x="4" y="-68.5" font-family="Helvetica,sans-Serif" font-size="10.00">+</text>
<text text-anchor="start" x="14" y="-68.5" font-family="Helvetica,sans-Serif" font-size="10.00">static parseRDate(</text>
<text text-anchor="start" x="14" y="-57.25" font-family="Helvetica,sans-Serif" font-size="10.00">$line)</text>
<text text-anchor="start" x="4" y="-42.5" font-family="Helvetica,sans-Serif" font-size="10.00">+</text>
<text text-anchor="start" x="14" y="-42.5" font-family="Helvetica,sans-Serif" font-size="10.00">static parseExDate</text>
<text text-anchor="start" x="14" y="-31.25" font-family="Helvetica,sans-Serif" font-size="10.00">($line)</text>
<text text-anchor="start" x="4" y="-16.5" font-family="Helvetica,sans-Serif" font-size="10.00">+</text>
<text text-anchor="start" x="14" y="-16.5" font-family="Helvetica,sans-Serif" font-size="10.00">static parseTimeZone</text>
<text text-anchor="start" x="14" y="-5.25" font-family="Helvetica,sans-Serif" font-size="10.00">($tzid)</text>
<polygon fill="#666666" stroke="#666666" points="0,-147 0,-147 117,-147 117,-147 0,-147"/>
<polygon fill="#666666" stroke="#666666" points="0,-132 0,-132 117,-132 117,-132 0,-132"/>
<polygon fill="none" stroke="#666666" points="0,0 0,-164 117,-164 117,0 0,0"/>
</a>
</g>
</g>
<!-- Node2 -->
<g id="Node000002" class="node">
<title>Node2</title>
<g id="a_Node000002"><a xlink:title=" ">
<polygon fill="white" stroke="none" points="75.5,-260.25 41.5,-260.25 41.5,-211.25 75.5,-211.25 75.5,-260.25"/>
<text text-anchor="start" x="46.5" y="-246.75" font-family="Helvetica,sans-Serif" font-size="10.00">static</text>
<text text-anchor="start" x="57" y="-231.75" font-family="Helvetica,sans-Serif" font-size="10.00"> </text>
<text text-anchor="start" x="57" y="-216.75" font-family="Helvetica,sans-Serif" font-size="10.00"> </text>
<polygon fill="#666666" stroke="#666666" points="41.5,-243.25 41.5,-243.25 75.5,-243.25 75.5,-243.25 41.5,-243.25"/>
<polygon fill="#666666" stroke="#666666" points="41.5,-228.25 41.5,-228.25 75.5,-228.25 75.5,-228.25 41.5,-228.25"/>
<polygon fill="none" stroke="#666666" points="41.5,-211.25 41.5,-260.25 75.5,-260.25 75.5,-211.25 41.5,-211.25"/>
</a>
</g>
</g>
<!-- Node2&#45;&gt;Node1 -->
<g id="edge1_Node000001_Node000002" class="edge">
<title>Node2&#45;&gt;Node1</title>
<g id="a_edge1_Node000001_Node000002"><a xlink:title=" ">
<path fill="none" stroke="#63b8ff" d="M58.5,-211.37C58.5,-201.58 58.5,-189.51 58.5,-176.71"/>
<polygon fill="none" stroke="#63b8ff" points="58.5,-176.64 54.5,-170.64 58.5,-164.64 62.5,-170.64 58.5,-176.64"/>
</a>
</g>
<text text-anchor="middle" x="79.12" y="-183.75" font-family="Helvetica,sans-Serif" font-size="10.00" fill="grey"> +$tzdata</text>
</g>
</g>
</svg>
