<?xml version="1.0" encoding="UTF-8" standalone="no"?>
<!DOCTYPE svg PUBLIC "-//W3C//DTD SVG 1.1//EN"
 "http://www.w3.org/Graphics/SVG/1.1/DTD/svg11.dtd">
<!-- Generated by graphviz version 10.0.1 (20240210.2158)
 -->
<!-- Title: StaticNodeProvider Pages: 1 -->
<svg width="137pt" height="168pt"
 viewBox="0.00 0.00 137.00 168.00" xmlns="http://www.w3.org/2000/svg" xmlns:xlink="http://www.w3.org/1999/xlink">

<svg id="main" version="1.1" xmlns="http://www.w3.org/2000/svg" xmlns:xlink="http://www.w3.org/1999/xlink" xml:space="preserve" onload="init(evt)">
<style type="text/css"><![CDATA[
.node, .edge {opacity: 0.7;}
.node.selected, .edge.selected {opacity: 1;}
.edge:hover path { stroke: red; }
.edge:hover polygon { stroke: red; fill: red; }
]]></style>
<script type="application/ecmascript" xlink:href="svg.min.js"/>
<svg id="graph" class="graph">
<g id="graph0" class="graph" transform="scale(1 1) rotate(0) translate(4 164)">
<title>StaticNodeProvider</title>
<!-- Node1 -->
<g id="Node000001" class="node">
<title>Node1</title>
<g id="a_Node000001"><a xlink:title=" ">
<polygon fill="#999999" stroke="none" points="129,-75 0,-75 0,0 129,0 129,-75"/>
<text text-anchor="start" x="22.12" y="-61.5" font-family="Helvetica,sans-Serif" font-size="10.00">StaticNodeProvider</text>
<text text-anchor="start" x="63" y="-46.5" font-family="Helvetica,sans-Serif" font-size="10.00"> </text>
<text text-anchor="start" x="4" y="-31.5" font-family="Helvetica,sans-Serif" font-size="10.00">+</text>
<text text-anchor="start" x="14" y="-31.5" font-family="Helvetica,sans-Serif" font-size="10.00">__construct(Hexadecimal</text>
<text text-anchor="start" x="14" y="-20.25" font-family="Helvetica,sans-Serif" font-size="10.00"> $node)</text>
<text text-anchor="start" x="4" y="-5.5" font-family="Helvetica,sans-Serif" font-size="10.00">+</text>
<text text-anchor="start" x="14" y="-5.5" font-family="Helvetica,sans-Serif" font-size="10.00">getNode()</text>
<polygon fill="#666666" stroke="#666666" points="0,-58 0,-58 129,-58 129,-58 0,-58"/>
<polygon fill="#666666" stroke="#666666" points="0,-43 0,-43 129,-43 129,-43 0,-43"/>
<polygon fill="none" stroke="#666666" points="0,0 0,-75 129,-75 129,0 0,0"/>
</a>
</g>
</g>
<!-- Node2 -->
<g id="Node000002" class="node">
<title>Node2</title>
<g id="a_Node000002"><a xlink:href="interface_ramsey_1_1_uuid_1_1_provider_1_1_node_provider_interface.html" target="_top" xlink:title=" ">
<polygon fill="white" stroke="none" points="118,-160 11,-160 11,-111 118,-111 118,-160"/>
<text text-anchor="start" x="15.75" y="-146.5" font-family="Helvetica,sans-Serif" font-size="10.00">NodeProviderInterface</text>
<text text-anchor="start" x="63" y="-131.5" font-family="Helvetica,sans-Serif" font-size="10.00"> </text>
<text text-anchor="start" x="26.5" y="-116.5" font-family="Helvetica,sans-Serif" font-size="10.00">+</text>
<text text-anchor="start" x="48" y="-116.5" font-family="Helvetica,sans-Serif" font-size="10.00">getNode()</text>
<polygon fill="#666666" stroke="#666666" points="11,-143 11,-143 118,-143 118,-143 11,-143"/>
<polygon fill="#666666" stroke="#666666" points="11,-128 11,-128 118,-128 118,-128 11,-128"/>
<polygon fill="none" stroke="#666666" points="11,-111 11,-160 118,-160 118,-111 11,-111"/>
</a>
</g>
</g>
<!-- Node2&#45;&gt;Node1 -->
<g id="edge1_Node000001_Node000002" class="edge">
<title>Node2&#45;&gt;Node1</title>
<g id="a_edge1_Node000001_Node000002"><a xlink:title=" ">
<path fill="none" stroke="#63b8ff" d="M64.5,-99.8C64.5,-91.62 64.5,-82.88 64.5,-74.64"/>
<polygon fill="none" stroke="#63b8ff" points="61,-99.75 64.5,-109.75 68,-99.75 61,-99.75"/>
</a>
</g>
</g>
</g>
</svg>
</svg>

<style type='text/css'>
<![CDATA[
[data-mouse-over-selected='false'] { opacity: 0.7; }
[data-mouse-over-selected='true']  { opacity: 1.0; }
]]>
</style>
<script type="application/ecmascript"><![CDATA[
document.addEventListener('DOMContentLoaded', (event) => {
  highlightEdges();
  highlightAdjacentNodes();
});
]]></script>
</svg>
