<?xml version="1.0" encoding="UTF-8" standalone="no"?>
<!DOCTYPE svg PUBLIC "-//W3C//DTD SVG 1.1//EN"
 "http://www.w3.org/Graphics/SVG/1.1/DTD/svg11.dtd">
<!-- Generated by graphviz version 10.0.1 (20240210.2158)
 -->
<!-- Title: getSearchOptionIDByField Pages: 1 -->
<svg width="565pt" height="27pt"
 viewBox="0.00 0.00 564.75 27.25" xmlns="http://www.w3.org/2000/svg" xmlns:xlink="http://www.w3.org/1999/xlink">
<g id="graph0" class="graph" transform="scale(1 1) rotate(0) translate(4 23.25)">
<title>getSearchOptionIDByField</title>
<!-- Node1 -->
<g id="Node000001" class="node">
<title>Node1</title>
<g id="a_Node000001"><a xlink:title=" ">
<polygon fill="#999999" stroke="#666666" points="132.25,-19.25 0,-19.25 0,0 132.25,0 132.25,-19.25"/>
<text text-anchor="middle" x="66.12" y="-5.75" font-family="Helvetica,sans-Serif" font-size="10.00">getSearchOptionIDByField</text>
</a>
</g>
</g>
<!-- Node2 -->
<g id="Node000002" class="node">
<title>Node2</title>
<g id="a_Node000002"><a xlink:href="class_common_d_b_t_m.html#a4f5e1102317e08dfe620fb8f5c749d50" target="_top" xlink:title=" ">
<polygon fill="white" stroke="#666666" points="290,-19.25 168.25,-19.25 168.25,0 290,0 290,-19.25"/>
<text text-anchor="middle" x="229.12" y="-5.75" font-family="Helvetica,sans-Serif" font-size="10.00">getSearchOptionByField</text>
</a>
</g>
</g>
<!-- Node1&#45;&gt;Node2 -->
<g id="edge1_Node000001_Node000002" class="edge">
<title>Node1&#45;&gt;Node2</title>
<g id="a_edge1_Node000001_Node000002"><a xlink:title=" ">
<path fill="none" stroke="#63b8ff" d="M132.61,-9.62C140.45,-9.62 148.48,-9.62 156.4,-9.62"/>
<polygon fill="#63b8ff" stroke="#63b8ff" points="156.37,-13.13 166.37,-9.63 156.37,-6.13 156.37,-13.13"/>
</a>
</g>
</g>
<!-- Node3 -->
<g id="Node000003" class="node">
<title>Node3</title>
<g id="a_Node000003"><a xlink:href="class_common_d_b_t_m.html#a12ee3097fd313ebcac8e2185d5330ae4" target="_top" xlink:title=" ">
<polygon fill="white" stroke="#666666" points="405,-19.25 326,-19.25 326,0 405,0 405,-19.25"/>
<text text-anchor="middle" x="365.5" y="-5.75" font-family="Helvetica,sans-Serif" font-size="10.00">searchOptions</text>
</a>
</g>
</g>
<!-- Node2&#45;&gt;Node3 -->
<g id="edge2_Node000002_Node000003" class="edge">
<title>Node2&#45;&gt;Node3</title>
<g id="a_edge2_Node000002_Node000003"><a xlink:title=" ">
<path fill="none" stroke="#63b8ff" d="M290.24,-9.62C298.31,-9.62 306.53,-9.62 314.4,-9.62"/>
<polygon fill="#63b8ff" stroke="#63b8ff" points="314.14,-13.13 324.14,-9.63 314.14,-6.13 314.14,-13.13"/>
</a>
</g>
</g>
<!-- Node4 -->
<g id="Node000004" class="node">
<title>Node4</title>
<g id="a_Node000004"><a xlink:href="class_common_g_l_p_i.html#a3dadfbfaa3d8e3b5fe01a60e28640ddb" target="_top" xlink:title=" ">
<polygon fill="white" stroke="#666666" points="556.75,-19.25 441,-19.25 441,0 556.75,0 556.75,-19.25"/>
<text text-anchor="middle" x="498.88" y="-5.75" font-family="Helvetica,sans-Serif" font-size="10.00">CommonGLPI\getType</text>
</a>
</g>
</g>
<!-- Node3&#45;&gt;Node4 -->
<g id="edge3_Node000003_Node000004" class="edge">
<title>Node3&#45;&gt;Node4</title>
<g id="a_edge3_Node000003_Node000004"><a xlink:title=" ">
<path fill="none" stroke="#63b8ff" d="M405.21,-9.62C412.91,-9.62 421.21,-9.62 429.56,-9.62"/>
<polygon fill="#63b8ff" stroke="#63b8ff" points="429.43,-13.13 439.43,-9.63 429.43,-6.13 429.43,-13.13"/>
</a>
</g>
</g>
</g>
</svg>
