<?xml version="1.0" encoding="UTF-8" standalone="no"?>
<!DOCTYPE svg PUBLIC "-//W3C//DTD SVG 1.1//EN"
 "http://www.w3.org/Graphics/SVG/1.1/DTD/svg11.dtd">
<!-- Generated by graphviz version 10.0.1 (20240210.2158)
 -->
<!-- Title: doDisplay Pages: 1 -->
<svg width="418pt" height="286pt"
 viewBox="0.00 0.00 417.50 286.25" xmlns="http://www.w3.org/2000/svg" xmlns:xlink="http://www.w3.org/1999/xlink">

<svg id="main" version="1.1" xmlns="http://www.w3.org/2000/svg" xmlns:xlink="http://www.w3.org/1999/xlink" xml:space="preserve" onload="init(evt)">
<style type="text/css"><![CDATA[
.node, .edge {opacity: 0.7;}
.node.selected, .edge.selected {opacity: 1;}
.edge:hover path { stroke: red; }
.edge:hover polygon { stroke: red; fill: red; }
]]></style>
<script type="application/ecmascript" xlink:href="svg.min.js"/>
<svg id="graph" class="graph">
<g id="graph0" class="graph" transform="scale(1 1) rotate(0) translate(4 282.25)">
<title>doDisplay</title>
<!-- Node1 -->
<g id="Node000001" class="node">
<title>Node1</title>
<g id="a_Node000001"><a xlink:title=" ">
<polygon fill="#999999" stroke="#666666" points="59.5,-148.25 0,-148.25 0,-129 59.5,-129 59.5,-148.25"/>
<text text-anchor="middle" x="29.75" y="-134.75" font-family="Helvetica,sans-Serif" font-size="10.00">doDisplay</text>
</a>
</g>
</g>
<!-- Node2 -->
<g id="Node000002" class="node">
<title>Node2</title>
<g id="a_Node000002"><a xlink:href="_core_extension_8php.html#adf5ce5c7b07db84385ba1338e106fc3b" target="_top" xlink:title=" ">
<polygon fill="white" stroke="#666666" points="205.25,-278.25 107.5,-278.25 107.5,-259 205.25,-259 205.25,-278.25"/>
<text text-anchor="middle" x="156.38" y="-264.75" font-family="Helvetica,sans-Serif" font-size="10.00">_twig_default_filter</text>
</a>
</g>
</g>
<!-- Node1&#45;&gt;Node2 -->
<g id="edge1_Node000001_Node000002" class="edge">
<title>Node1&#45;&gt;Node2</title>
<g id="a_edge1_Node000001_Node000002"><a xlink:title=" ">
<path fill="none" stroke="#63b8ff" d="M33.74,-148.69C40.76,-170.6 60.45,-222.89 95.5,-250.62 96.63,-251.52 97.79,-252.36 99,-253.17"/>
<polygon fill="#63b8ff" stroke="#63b8ff" points="97.04,-256.08 107.49,-257.82 100.4,-249.94 97.04,-256.08"/>
</a>
</g>
</g>
<!-- Node4 -->
<g id="Node000004" class="node">
<title>Node4</title>
<g id="a_Node000004"><a xlink:href="_core_extension_8php.html#a62b2aa48653c37ade953be5493461c59" target="_top" xlink:title=" ">
<polygon fill="white" stroke="#666666" points="217.25,-241.25 95.5,-241.25 95.5,-222 217.25,-222 217.25,-241.25"/>
<text text-anchor="middle" x="156.38" y="-227.75" font-family="Helvetica,sans-Serif" font-size="10.00">twig_ensure_traversable</text>
</a>
</g>
</g>
<!-- Node1&#45;&gt;Node4 -->
<g id="edge3_Node000001_Node000004" class="edge">
<title>Node1&#45;&gt;Node4</title>
<g id="a_edge3_Node000001_Node000004"><a xlink:title=" ">
<path fill="none" stroke="#63b8ff" d="M36.77,-148.74C46.87,-164.85 68.8,-196.31 95.5,-213.62 97.31,-214.8 99.2,-215.9 101.15,-216.93"/>
<polygon fill="#63b8ff" stroke="#63b8ff" points="99.31,-219.94 109.86,-220.9 102.21,-213.57 99.31,-219.94"/>
</a>
</g>
</g>
<!-- Node5 -->
<g id="Node000005" class="node">
<title>Node5</title>
<g id="a_Node000005"><a xlink:href="_escaper_extension_8php.html#aabeb5b51fb981707d997d1c588d7c509" target="_top" xlink:title=" ">
<polygon fill="white" stroke="#666666" points="203.75,-167.25 109,-167.25 109,-148 203.75,-148 203.75,-167.25"/>
<text text-anchor="middle" x="156.38" y="-153.75" font-family="Helvetica,sans-Serif" font-size="10.00">twig_escape_filter</text>
</a>
</g>
</g>
<!-- Node1&#45;&gt;Node5 -->
<g id="edge4_Node000001_Node000005" class="edge">
<title>Node1&#45;&gt;Node5</title>
<g id="a_edge4_Node000001_Node000005"><a xlink:title=" ">
<path fill="none" stroke="#63b8ff" d="M59.97,-143.08C71.21,-144.79 84.47,-146.82 97.48,-148.8"/>
<polygon fill="#63b8ff" stroke="#63b8ff" points="96.88,-152.25 107.29,-150.29 97.93,-145.33 96.88,-152.25"/>
</a>
</g>
</g>
<!-- Node9 -->
<g id="Node000009" class="node">
<title>Node9</title>
<g id="a_Node000009"><a xlink:href="_core_extension_8php.html#a4505cf4718aff71887e0160fa1f15493" target="_top" xlink:title=" ">
<polygon fill="white" stroke="#666666" points="191.38,-130.25 121.38,-130.25 121.38,-111 191.38,-111 191.38,-130.25"/>
<text text-anchor="middle" x="156.38" y="-116.75" font-family="Helvetica,sans-Serif" font-size="10.00">twig_include</text>
</a>
</g>
</g>
<!-- Node1&#45;&gt;Node9 -->
<g id="edge8_Node000001_Node000009" class="edge">
<title>Node1&#45;&gt;Node9</title>
<g id="a_edge8_Node000001_Node000009"><a xlink:title=" ">
<path fill="none" stroke="#63b8ff" d="M59.97,-134.4C74.82,-132.26 93.2,-129.61 109.85,-127.2"/>
<polygon fill="#63b8ff" stroke="#63b8ff" points="110.14,-130.7 119.54,-125.8 109.14,-123.77 110.14,-130.7"/>
</a>
</g>
</g>
<!-- Node12 -->
<g id="Node000012" class="node">
<title>Node12</title>
<g id="a_Node000012"><a xlink:href="_core_extension_8php.html#a9406216b24c030f1de8792d9a386eb77" target="_top" xlink:title=" ">
<polygon fill="white" stroke="#666666" points="201.12,-204.25 111.62,-204.25 111.62,-185 201.12,-185 201.12,-204.25"/>
<text text-anchor="middle" x="156.38" y="-190.75" font-family="Helvetica,sans-Serif" font-size="10.00">twig_length_filter</text>
</a>
</g>
</g>
<!-- Node1&#45;&gt;Node12 -->
<g id="edge12_Node000001_Node000012" class="edge">
<title>Node1&#45;&gt;Node12</title>
<g id="a_edge12_Node000001_Node000012"><a xlink:title=" ">
<path fill="none" stroke="#63b8ff" d="M45.39,-148.59C58.17,-156.95 77.46,-168.75 95.5,-176.62 98.88,-178.1 102.42,-179.5 106.02,-180.82"/>
<polygon fill="#63b8ff" stroke="#63b8ff" points="104.85,-184.12 115.44,-184.05 107.11,-177.5 104.85,-184.12"/>
</a>
</g>
</g>
<!-- Node13 -->
<g id="Node000013" class="node">
<title>Node13</title>
<g id="a_Node000013"><a xlink:href="_core_extension_8php.html#ad7b11011c24881206b82608150d3ba36" target="_top" xlink:title=" ">
<polygon fill="white" stroke="#666666" points="203.75,-93.25 109,-93.25 109,-74 203.75,-74 203.75,-93.25"/>
<text text-anchor="middle" x="156.38" y="-79.75" font-family="Helvetica,sans-Serif" font-size="10.00">twig_replace_filter</text>
</a>
</g>
</g>
<!-- Node1&#45;&gt;Node13 -->
<g id="edge14_Node000001_Node000013" class="edge">
<title>Node1&#45;&gt;Node13</title>
<g id="a_edge14_Node000001_Node000013"><a xlink:title=" ">
<path fill="none" stroke="#63b8ff" d="M45.94,-128.63C58.75,-120.52 77.77,-109.24 95.5,-101.62 99.05,-100.1 102.77,-98.65 106.54,-97.29"/>
<polygon fill="#63b8ff" stroke="#63b8ff" points="107.44,-100.68 115.79,-94.16 105.19,-94.05 107.44,-100.68"/>
</a>
</g>
</g>
<!-- Node15 -->
<g id="Node000015" class="node">
<title>Node15</title>
<g id="a_Node000015"><a xlink:href="_core_extension_8php.html#a3871a1576a44a93cfac02da165345918" target="_top" xlink:title=" ">
<polygon fill="white" stroke="#666666" points="188,-56.25 124.75,-56.25 124.75,-37 188,-37 188,-56.25"/>
<text text-anchor="middle" x="156.38" y="-42.75" font-family="Helvetica,sans-Serif" font-size="10.00">twig_round</text>
</a>
</g>
</g>
<!-- Node1&#45;&gt;Node15 -->
<g id="edge16_Node000001_Node000015" class="edge">
<title>Node1&#45;&gt;Node15</title>
<g id="a_edge16_Node000001_Node000015"><a xlink:title=" ">
<path fill="none" stroke="#63b8ff" d="M36.8,-128.65C46.96,-112.75 68.95,-81.72 95.5,-64.62 101.05,-61.05 107.35,-58.16 113.73,-55.82"/>
<polygon fill="#63b8ff" stroke="#63b8ff" points="114.51,-59.25 122.96,-52.87 112.37,-52.58 114.51,-59.25"/>
</a>
</g>
</g>
<!-- Node16 -->
<g id="Node000016" class="node">
<title>Node16</title>
<g id="a_Node000016"><a xlink:href="_core_extension_8php.html#a256f713fc398e53c34a8b510a6b252f8" target="_top" xlink:title=" ">
<polygon fill="white" stroke="#666666" points="189.5,-19.25 123.25,-19.25 123.25,0 189.5,0 189.5,-19.25"/>
<text text-anchor="middle" x="156.38" y="-5.75" font-family="Helvetica,sans-Serif" font-size="10.00">twig_sprintf</text>
</a>
</g>
</g>
<!-- Node1&#45;&gt;Node16 -->
<g id="edge17_Node000001_Node000016" class="edge">
<title>Node1&#45;&gt;Node16</title>
<g id="a_edge17_Node000001_Node000016"><a xlink:title=" ">
<path fill="none" stroke="#63b8ff" d="M33.76,-128.65C40.85,-106.93 60.63,-55.1 95.5,-27.62 100.4,-23.76 106.12,-20.73 112.05,-18.34"/>
<polygon fill="#63b8ff" stroke="#63b8ff" points="113.01,-21.71 121.36,-15.2 110.77,-15.08 113.01,-21.71"/>
</a>
</g>
</g>
<!-- Node3 -->
<g id="Node000003" class="node">
<title>Node3</title>
<g id="a_Node000003"><a xlink:href="_core_extension_8php.html#ac345ab6a3d1194b2ac8ed45b678f9756" target="_top" xlink:title=" ">
<polygon fill="white" stroke="#666666" points="375.38,-278.25 287.38,-278.25 287.38,-259 375.38,-259 375.38,-278.25"/>
<text text-anchor="middle" x="331.38" y="-264.75" font-family="Helvetica,sans-Serif" font-size="10.00">twig_test_empty</text>
</a>
</g>
</g>
<!-- Node2&#45;&gt;Node3 -->
<g id="edge2_Node000002_Node000003" class="edge">
<title>Node2&#45;&gt;Node3</title>
<g id="a_edge2_Node000002_Node000003"><a xlink:title=" ">
<path fill="none" stroke="#63b8ff" d="M205.57,-268.62C227.28,-268.62 253.02,-268.62 275.47,-268.62"/>
<polygon fill="#63b8ff" stroke="#63b8ff" points="275.36,-272.13 285.36,-268.63 275.36,-265.13 275.36,-272.13"/>
</a>
</g>
</g>
<!-- Node6 -->
<g id="Node000006" class="node">
<title>Node6</title>
<g id="a_Node000006"><a xlink:href="class_twig_1_1_environment.html#abca2d528da8311b6fcfe040768cbaa24" target="_top" xlink:title=" ">
<polygon fill="white" stroke="#666666" points="403.88,-223.25 258.88,-223.25 258.88,-204 403.88,-204 403.88,-223.25"/>
<text text-anchor="middle" x="331.38" y="-209.75" font-family="Helvetica,sans-Serif" font-size="10.00">Twig\Environment\getCharset</text>
</a>
</g>
</g>
<!-- Node5&#45;&gt;Node6 -->
<g id="edge5_Node000005_Node000006" class="edge">
<title>Node5&#45;&gt;Node6</title>
<g id="a_edge5_Node000005_Node000006"><a xlink:title=" ">
<path fill="none" stroke="#63b8ff" d="M195.5,-167.74C202.82,-170.06 210.35,-172.71 217.25,-175.62 234.11,-182.75 236.17,-189.04 253.25,-195.62 257.85,-197.4 262.67,-199.03 267.56,-200.52"/>
<polygon fill="#63b8ff" stroke="#63b8ff" points="266.3,-203.8 276.88,-203.16 268.21,-197.06 266.3,-203.8"/>
</a>
</g>
</g>
<!-- Node7 -->
<g id="Node000007" class="node">
<title>Node7</title>
<g id="a_Node000007"><a xlink:href="class_twig_1_1_environment.html#a5023c2a5ed30e298f55126721092f13d" target="_top" xlink:title=" ">
<polygon fill="white" stroke="#666666" points="408.38,-149.25 254.38,-149.25 254.38,-130 408.38,-130 408.38,-149.25"/>
<text text-anchor="middle" x="331.38" y="-135.75" font-family="Helvetica,sans-Serif" font-size="10.00">Twig\Environment\getExtension</text>
</a>
</g>
</g>
<!-- Node5&#45;&gt;Node7 -->
<g id="edge6_Node000005_Node000007" class="edge">
<title>Node5&#45;&gt;Node7</title>
<g id="a_edge6_Node000005_Node000007"><a xlink:title=" ">
<path fill="none" stroke="#63b8ff" d="M204.19,-152.75C216.23,-151.5 229.58,-150.11 242.96,-148.72"/>
<polygon fill="#63b8ff" stroke="#63b8ff" points="243.08,-152.23 252.67,-147.71 242.36,-145.26 243.08,-152.23"/>
</a>
</g>
</g>
<!-- Node8 -->
<g id="Node000008" class="node">
<title>Node8</title>
<g id="a_Node000008"><a xlink:href="_core_extension_8php.html#ae288325a1d8fc4e036d1e828d7fac1f6" target="_top" xlink:title=" ">
<polygon fill="white" stroke="#666666" points="389.25,-186.25 273.5,-186.25 273.5,-167 389.25,-167 389.25,-186.25"/>
<text text-anchor="middle" x="331.38" y="-172.75" font-family="Helvetica,sans-Serif" font-size="10.00">twig_convert_encoding</text>
</a>
</g>
</g>
<!-- Node5&#45;&gt;Node8 -->
<g id="edge7_Node000005_Node000008" class="edge">
<title>Node5&#45;&gt;Node8</title>
<g id="a_edge7_Node000005_Node000008"><a xlink:title=" ">
<path fill="none" stroke="#63b8ff" d="M204.19,-162.77C221.93,-164.71 242.5,-166.97 261.82,-169.1"/>
<polygon fill="#63b8ff" stroke="#63b8ff" points="261.2,-172.55 271.52,-170.16 261.96,-165.59 261.2,-172.55"/>
</a>
</g>
</g>
<!-- Node9&#45;&gt;Node7 -->
<g id="edge9_Node000009_Node000007" class="edge">
<title>Node9&#45;&gt;Node7</title>
<g id="a_edge9_Node000009_Node000007"><a xlink:title=" ">
<path fill="none" stroke="#63b8ff" d="M191.55,-124.38C206.4,-126.01 224.53,-128 242.73,-130"/>
<polygon fill="#63b8ff" stroke="#63b8ff" points="242.22,-133.46 252.54,-131.08 242.98,-126.51 242.22,-133.46"/>
</a>
</g>
</g>
<!-- Node10 -->
<g id="Node000010" class="node">
<title>Node10</title>
<g id="a_Node000010"><a xlink:href="class_twig_1_1_environment.html#ab0312781e1ea827d5c22425f36ec2b40" target="_top" xlink:title=" ">
<polygon fill="white" stroke="#666666" points="409.5,-112.25 253.25,-112.25 253.25,-93 409.5,-93 409.5,-112.25"/>
<text text-anchor="middle" x="331.38" y="-98.75" font-family="Helvetica,sans-Serif" font-size="10.00">Twig\Environment\hasExtension</text>
</a>
</g>
</g>
<!-- Node9&#45;&gt;Node10 -->
<g id="edge10_Node000009_Node000010" class="edge">
<title>Node9&#45;&gt;Node10</title>
<g id="a_edge10_Node000009_Node000010"><a xlink:title=" ">
<path fill="none" stroke="#63b8ff" d="M191.55,-117.07C206.08,-115.56 223.76,-113.72 241.58,-111.86"/>
<polygon fill="#63b8ff" stroke="#63b8ff" points="241.87,-115.35 251.46,-110.84 241.15,-108.39 241.87,-115.35"/>
</a>
</g>
</g>
<!-- Node11 -->
<g id="Node000011" class="node">
<title>Node11</title>
<g id="a_Node000011"><a xlink:href="class_twig_1_1_environment.html#af1cc34fcbd8561be8a6075517d107630" target="_top" xlink:title=" ">
<polygon fill="white" stroke="#666666" points="395.62,-74.88 267.12,-74.88 267.12,-44.38 395.62,-44.38 395.62,-74.88"/>
<text text-anchor="start" x="275.12" y="-61.38" font-family="Helvetica,sans-Serif" font-size="10.00">Twig\Environment\resolve</text>
<text text-anchor="middle" x="331.38" y="-50.12" font-family="Helvetica,sans-Serif" font-size="10.00">Template</text>
</a>
</g>
</g>
<!-- Node9&#45;&gt;Node11 -->
<g id="edge11_Node000009_Node000011" class="edge">
<title>Node9&#45;&gt;Node11</title>
<g id="a_edge11_Node000009_Node000011"><a xlink:title=" ">
<path fill="none" stroke="#63b8ff" d="M191.65,-111.56C200.13,-108.98 209.11,-105.96 217.25,-102.62 233.99,-95.77 236.54,-90.56 253.25,-83.62 257.03,-82.05 260.96,-80.53 264.94,-79.06"/>
<polygon fill="#63b8ff" stroke="#63b8ff" points="265.88,-82.44 274.15,-75.81 263.55,-75.84 265.88,-82.44"/>
</a>
</g>
</g>
<!-- Node12&#45;&gt;Node6 -->
<g id="edge13_Node000012_Node000006" class="edge">
<title>Node12&#45;&gt;Node6</title>
<g id="a_edge13_Node000012_Node000006"><a xlink:title=" ">
<path fill="none" stroke="#63b8ff" d="M201.48,-199.47C215.41,-201 231.3,-202.74 247.05,-204.47"/>
<polygon fill="#63b8ff" stroke="#63b8ff" points="246.63,-207.95 256.95,-205.56 247.4,-200.99 246.63,-207.95"/>
</a>
</g>
</g>
<!-- Node14 -->
<g id="Node000014" class="node">
<title>Node14</title>
<g id="a_Node000014"><a xlink:href="_core_extension_8php.html#add6085b705776ea6e84cec0f1f6c6e8b" target="_top" xlink:title=" ">
<polygon fill="white" stroke="#666666" points="368.62,-26.25 294.12,-26.25 294.12,-7 368.62,-7 368.62,-26.25"/>
<text text-anchor="middle" x="331.38" y="-12.75" font-family="Helvetica,sans-Serif" font-size="10.00">twig_to_array</text>
</a>
</g>
</g>
<!-- Node13&#45;&gt;Node14 -->
<g id="edge15_Node000013_Node000014" class="edge">
<title>Node13&#45;&gt;Node14</title>
<g id="a_edge15_Node000013_Node000014"><a xlink:title=" ">
<path fill="none" stroke="#63b8ff" d="M198.84,-73.55C205.18,-71.34 211.51,-68.71 217.25,-65.62 235.59,-55.76 234.66,-45.02 253.25,-35.62 262.37,-31.01 272.67,-27.48 282.71,-24.79"/>
<polygon fill="#63b8ff" stroke="#63b8ff" points="283.49,-28.2 292.38,-22.45 281.84,-21.4 283.49,-28.2"/>
</a>
</g>
</g>
</g>
</svg>
</svg>

<style type='text/css'>
<![CDATA[
[data-mouse-over-selected='false'] { opacity: 0.7; }
[data-mouse-over-selected='true']  { opacity: 1.0; }
]]>
</style>
<script type="application/ecmascript"><![CDATA[
document.addEventListener('DOMContentLoaded', (event) => {
  highlightEdges();
  highlightAdjacentNodes();
});
]]></script>
</svg>
