<?xml version="1.0" encoding="UTF-8" standalone="no"?>
<!DOCTYPE svg PUBLIC "-//W3C//DTD SVG 1.1//EN"
 "http://www.w3.org/Graphics/SVG/1.1/DTD/svg11.dtd">
<!-- Generated by graphviz version 10.0.1 (20240210.2158)
 -->
<!-- Title: MailHandler Pages: 1 -->
<svg width="509pt" height="766pt"
 viewBox="0.00 0.00 508.50 766.00" xmlns="http://www.w3.org/2000/svg" xmlns:xlink="http://www.w3.org/1999/xlink">
<g id="graph0" class="graph" transform="scale(1 1) rotate(0) translate(4 762)">
<title>MailHandler</title>
<!-- Node1 -->
<g id="Node000001" class="node">
<title>Node1</title>
<g id="a_Node000001"><a xlink:title=" ">
<polygon fill="#999999" stroke="none" points="318.5,-142 198.5,-142 198.5,0 318.5,0 318.5,-142"/>
<text text-anchor="start" x="232.62" y="-128.5" font-family="Helvetica,sans-Serif" font-size="10.00">MailHandler</text>
<text text-anchor="start" x="257" y="-113.5" font-family="Helvetica,sans-Serif" font-size="10.00"> </text>
<text text-anchor="start" x="202.38" y="-98.5" font-family="Helvetica,sans-Serif" font-size="10.00">#</text>
<text text-anchor="start" x="211.5" y="-98.5" font-family="Helvetica,sans-Serif" font-size="10.00">send(string $content,</text>
<text text-anchor="start" x="211.5" y="-87.25" font-family="Helvetica,sans-Serif" font-size="10.00"> array $records)</text>
<text text-anchor="start" x="202.38" y="-72.5" font-family="Helvetica,sans-Serif" font-size="10.00">#</text>
<text text-anchor="start" x="211.5" y="-72.5" font-family="Helvetica,sans-Serif" font-size="10.00">write(array $record)</text>
<text text-anchor="start" x="202.38" y="-57.5" font-family="Helvetica,sans-Serif" font-size="10.00">#</text>
<text text-anchor="start" x="211.5" y="-57.5" font-family="Helvetica,sans-Serif" font-size="10.00">getHighestRecord(array</text>
<text text-anchor="start" x="211.5" y="-46.25" font-family="Helvetica,sans-Serif" font-size="10.00"> $records)</text>
<text text-anchor="start" x="202.38" y="-31.5" font-family="Helvetica,sans-Serif" font-size="10.00">#</text>
<text text-anchor="start" x="211.5" y="-31.5" font-family="Helvetica,sans-Serif" font-size="10.00">isHtmlBody(string</text>
<text text-anchor="start" x="211.5" y="-20.25" font-family="Helvetica,sans-Serif" font-size="10.00"> $body)</text>
<text text-anchor="start" x="202.38" y="-5.5" font-family="Helvetica,sans-Serif" font-size="10.00">#</text>
<text text-anchor="start" x="211.5" y="-5.5" font-family="Helvetica,sans-Serif" font-size="10.00">getDefaultFormatter()</text>
<polygon fill="#666666" stroke="#666666" points="198.5,-125 198.5,-125 318.5,-125 318.5,-125 198.5,-125"/>
<polygon fill="#666666" stroke="#666666" points="198.5,-110 198.5,-110 318.5,-110 318.5,-110 198.5,-110"/>
<polygon fill="none" stroke="#666666" points="198.5,0 198.5,-142 318.5,-142 318.5,0 198.5,0"/>
</a>
</g>
</g>
<!-- Node2 -->
<g id="Node000002" class="node">
<title>Node2</title>
<g id="a_Node000002"><a xlink:href="class_monolog_1_1_handler_1_1_abstract_processing_handler.html" target="_top" xlink:title=" ">
<polygon fill="white" stroke="none" points="323,-242 194,-242 194,-178 323,-178 323,-242"/>
<text text-anchor="start" x="198.88" y="-228.5" font-family="Helvetica,sans-Serif" font-size="10.00">AbstractProcessingHandler</text>
<text text-anchor="start" x="257" y="-213.5" font-family="Helvetica,sans-Serif" font-size="10.00"> </text>
<text text-anchor="start" x="204.5" y="-198.5" font-family="Helvetica,sans-Serif" font-size="10.00">+</text>
<text text-anchor="start" x="221" y="-198.5" font-family="Helvetica,sans-Serif" font-size="10.00">reset()</text>
<text text-anchor="start" x="204.88" y="-183.5" font-family="Helvetica,sans-Serif" font-size="10.00">#</text>
<text text-anchor="start" x="221" y="-183.5" font-family="Helvetica,sans-Serif" font-size="10.00">write(array $record)</text>
<polygon fill="#666666" stroke="#666666" points="194,-225 194,-225 323,-225 323,-225 194,-225"/>
<polygon fill="#666666" stroke="#666666" points="194,-210 194,-210 323,-210 323,-210 194,-210"/>
<polygon fill="none" stroke="#666666" points="194,-178 194,-242 323,-242 323,-178 194,-178"/>
</a>
</g>
</g>
<!-- Node2&#45;&gt;Node1 -->
<g id="edge1_Node000001_Node000002" class="edge">
<title>Node2&#45;&gt;Node1</title>
<g id="a_edge1_Node000001_Node000002"><a xlink:title=" ">
<path fill="none" stroke="#63b8ff" d="M258.5,-167C258.5,-159 258.5,-150.43 258.5,-141.83"/>
<polygon fill="none" stroke="#63b8ff" points="255,-166.74 258.5,-176.74 262,-166.74 255,-166.74"/>
</a>
</g>
</g>
<!-- Node3 -->
<g id="Node000003" class="node">
<title>Node3</title>
<g id="a_Node000003"><a xlink:href="class_monolog_1_1_handler_1_1_abstract_handler.html" target="_top" xlink:title=" ">
<polygon fill="white" stroke="none" points="172.5,-465 50.5,-465 50.5,-278 172.5,-278 172.5,-465"/>
<text text-anchor="start" x="76.25" y="-451.5" font-family="Helvetica,sans-Serif" font-size="10.00">AbstractHandler</text>
<text text-anchor="start" x="54.88" y="-436.5" font-family="Helvetica,sans-Serif" font-size="10.00">#</text>
<text text-anchor="start" x="64.5" y="-436.5" font-family="Helvetica,sans-Serif" font-size="10.00">$level</text>
<text text-anchor="start" x="54.88" y="-421.5" font-family="Helvetica,sans-Serif" font-size="10.00">#</text>
<text text-anchor="start" x="64.5" y="-421.5" font-family="Helvetica,sans-Serif" font-size="10.00">$bubble</text>
<text text-anchor="start" x="54.5" y="-406.5" font-family="Helvetica,sans-Serif" font-size="10.00">+</text>
<text text-anchor="start" x="64.5" y="-406.5" font-family="Helvetica,sans-Serif" font-size="10.00">__construct($level</text>
<text text-anchor="start" x="64.5" y="-395.25" font-family="Helvetica,sans-Serif" font-size="10.00">=Logger::DEBUG, bool</text>
<text text-anchor="start" x="64.5" y="-384" font-family="Helvetica,sans-Serif" font-size="10.00"> $bubble=true)</text>
<text text-anchor="start" x="54.5" y="-369.5" font-family="Helvetica,sans-Serif" font-size="10.00">+</text>
<text text-anchor="start" x="64.5" y="-369.5" font-family="Helvetica,sans-Serif" font-size="10.00">isHandling(array </text>
<text text-anchor="start" x="64.5" y="-358.25" font-family="Helvetica,sans-Serif" font-size="10.00">$record)</text>
<text text-anchor="start" x="54.5" y="-343.5" font-family="Helvetica,sans-Serif" font-size="10.00">+</text>
<text text-anchor="start" x="64.5" y="-343.5" font-family="Helvetica,sans-Serif" font-size="10.00">setLevel($level)</text>
<text text-anchor="start" x="54.5" y="-328.5" font-family="Helvetica,sans-Serif" font-size="10.00">+</text>
<text text-anchor="start" x="64.5" y="-328.5" font-family="Helvetica,sans-Serif" font-size="10.00">getLevel()</text>
<text text-anchor="start" x="54.5" y="-313.5" font-family="Helvetica,sans-Serif" font-size="10.00">+</text>
<text text-anchor="start" x="64.5" y="-313.5" font-family="Helvetica,sans-Serif" font-size="10.00">setBubble(bool $bubble)</text>
<text text-anchor="start" x="54.5" y="-298.5" font-family="Helvetica,sans-Serif" font-size="10.00">+</text>
<text text-anchor="start" x="64.5" y="-298.5" font-family="Helvetica,sans-Serif" font-size="10.00">getBubble()</text>
<text text-anchor="start" x="54.5" y="-283.5" font-family="Helvetica,sans-Serif" font-size="10.00">+</text>
<text text-anchor="start" x="64.5" y="-283.5" font-family="Helvetica,sans-Serif" font-size="10.00">reset()</text>
<polygon fill="#666666" stroke="#666666" points="50.5,-448 50.5,-448 172.5,-448 172.5,-448 50.5,-448"/>
<polygon fill="#666666" stroke="#666666" points="50.5,-418 50.5,-418 62.5,-418 62.5,-418 50.5,-418"/>
<polygon fill="#666666" stroke="#666666" points="62.5,-418 62.5,-418 172.5,-418 172.5,-418 62.5,-418"/>
<polygon fill="none" stroke="#666666" points="50.5,-278 50.5,-465 172.5,-465 172.5,-278 50.5,-278"/>
</a>
</g>
</g>
<!-- Node3&#45;&gt;Node2 -->
<g id="edge2_Node000002_Node000003" class="edge">
<title>Node3&#45;&gt;Node2</title>
<g id="a_edge2_Node000002_Node000003"><a xlink:title=" ">
<path fill="none" stroke="#63b8ff" d="M180.08,-279.53C180.56,-279.01 181.03,-278.51 181.5,-278 193.23,-265.44 207.13,-252.78 219.86,-241.89"/>
<polygon fill="none" stroke="#63b8ff" points="177.53,-277.13 173.47,-286.92 182.74,-281.8 177.53,-277.13"/>
</a>
</g>
</g>
<!-- Node4 -->
<g id="Node000004" class="node">
<title>Node4</title>
<g id="a_Node000004"><a xlink:href="class_monolog_1_1_handler_1_1_handler.html" target="_top" xlink:title=" ">
<polygon fill="white" stroke="none" points="102.5,-606 6.5,-606 6.5,-501 102.5,-501 102.5,-606"/>
<text text-anchor="start" x="37.62" y="-592.5" font-family="Helvetica,sans-Serif" font-size="10.00">Handler</text>
<text text-anchor="start" x="53" y="-577.5" font-family="Helvetica,sans-Serif" font-size="10.00"> </text>
<text text-anchor="start" x="10.5" y="-562.5" font-family="Helvetica,sans-Serif" font-size="10.00">+</text>
<text text-anchor="start" x="20.5" y="-562.5" font-family="Helvetica,sans-Serif" font-size="10.00">handleBatch(array</text>
<text text-anchor="start" x="20.5" y="-551.25" font-family="Helvetica,sans-Serif" font-size="10.00"> $records)</text>
<text text-anchor="start" x="10.5" y="-536.5" font-family="Helvetica,sans-Serif" font-size="10.00">+</text>
<text text-anchor="start" x="20.5" y="-536.5" font-family="Helvetica,sans-Serif" font-size="10.00">close()</text>
<text text-anchor="start" x="10.5" y="-521.5" font-family="Helvetica,sans-Serif" font-size="10.00">+</text>
<text text-anchor="start" x="20.5" y="-521.5" font-family="Helvetica,sans-Serif" font-size="10.00">__destruct()</text>
<text text-anchor="start" x="10.5" y="-506.5" font-family="Helvetica,sans-Serif" font-size="10.00">+</text>
<text text-anchor="start" x="20.5" y="-506.5" font-family="Helvetica,sans-Serif" font-size="10.00">__sleep()</text>
<polygon fill="#666666" stroke="#666666" points="6.5,-589 6.5,-589 102.5,-589 102.5,-589 6.5,-589"/>
<polygon fill="#666666" stroke="#666666" points="6.5,-574 6.5,-574 102.5,-574 102.5,-574 6.5,-574"/>
<polygon fill="none" stroke="#666666" points="6.5,-501 6.5,-606 102.5,-606 102.5,-501 6.5,-501"/>
</a>
</g>
</g>
<!-- Node4&#45;&gt;Node3 -->
<g id="edge3_Node000003_Node000004" class="edge">
<title>Node4&#45;&gt;Node3</title>
<g id="a_edge3_Node000003_Node000004"><a xlink:title=" ">
<path fill="none" stroke="#63b8ff" d="M74.07,-490.69C76.71,-482.36 79.46,-473.68 82.22,-464.96"/>
<polygon fill="none" stroke="#63b8ff" points="70.82,-489.37 71.14,-499.96 77.49,-491.48 70.82,-489.37"/>
</a>
</g>
</g>
<!-- Node5 -->
<g id="Node000005" class="node">
<title>Node5</title>
<g id="a_Node000005"><a xlink:href="interface_monolog_1_1_handler_1_1_handler_interface.html" target="_top" xlink:title=" ">
<polygon fill="white" stroke="none" points="109,-758 0,-758 0,-642 109,-642 109,-758"/>
<text text-anchor="start" x="18.5" y="-744.5" font-family="Helvetica,sans-Serif" font-size="10.00">HandlerInterface</text>
<text text-anchor="start" x="53" y="-729.5" font-family="Helvetica,sans-Serif" font-size="10.00"> </text>
<text text-anchor="start" x="4" y="-714.5" font-family="Helvetica,sans-Serif" font-size="10.00">+</text>
<text text-anchor="start" x="14" y="-714.5" font-family="Helvetica,sans-Serif" font-size="10.00">isHandling(array </text>
<text text-anchor="start" x="14" y="-703.25" font-family="Helvetica,sans-Serif" font-size="10.00">$record)</text>
<text text-anchor="start" x="4" y="-688.5" font-family="Helvetica,sans-Serif" font-size="10.00">+</text>
<text text-anchor="start" x="14" y="-688.5" font-family="Helvetica,sans-Serif" font-size="10.00">handle(array $record)</text>
<text text-anchor="start" x="4" y="-673.5" font-family="Helvetica,sans-Serif" font-size="10.00">+</text>
<text text-anchor="start" x="14" y="-673.5" font-family="Helvetica,sans-Serif" font-size="10.00">handleBatch(array</text>
<text text-anchor="start" x="14" y="-662.25" font-family="Helvetica,sans-Serif" font-size="10.00"> $records)</text>
<text text-anchor="start" x="4" y="-647.5" font-family="Helvetica,sans-Serif" font-size="10.00">+</text>
<text text-anchor="start" x="14" y="-647.5" font-family="Helvetica,sans-Serif" font-size="10.00">close()</text>
<polygon fill="#666666" stroke="#666666" points="0,-741 0,-741 109,-741 109,-741 0,-741"/>
<polygon fill="#666666" stroke="#666666" points="0,-726 0,-726 109,-726 109,-726 0,-726"/>
<polygon fill="none" stroke="#666666" points="0,-642 0,-758 109,-758 109,-642 0,-642"/>
</a>
</g>
</g>
<!-- Node5&#45;&gt;Node4 -->
<g id="edge4_Node000004_Node000005" class="edge">
<title>Node5&#45;&gt;Node4</title>
<g id="a_edge4_Node000004_Node000005"><a xlink:title=" ">
<path fill="none" stroke="#63b8ff" d="M54.5,-630.9C54.5,-622.48 54.5,-613.98 54.5,-605.86"/>
<polygon fill="none" stroke="#63b8ff" points="51,-630.79 54.5,-640.79 58,-630.79 51,-630.79"/>
</a>
</g>
</g>
<!-- Node6 -->
<g id="Node000006" class="node">
<title>Node6</title>
<g id="a_Node000006"><a xlink:href="interface_monolog_1_1_resettable_interface.html" target="_top" xlink:title=" ">
<polygon fill="white" stroke="none" points="216,-578 121,-578 121,-529 216,-529 216,-578"/>
<text text-anchor="start" x="125.75" y="-564.5" font-family="Helvetica,sans-Serif" font-size="10.00">ResettableInterface</text>
<text text-anchor="start" x="167" y="-549.5" font-family="Helvetica,sans-Serif" font-size="10.00"> </text>
<text text-anchor="start" x="137.5" y="-534.5" font-family="Helvetica,sans-Serif" font-size="10.00">+</text>
<text text-anchor="start" x="160" y="-534.5" font-family="Helvetica,sans-Serif" font-size="10.00">reset()</text>
<polygon fill="#666666" stroke="#666666" points="121,-561 121,-561 216,-561 216,-561 121,-561"/>
<polygon fill="#666666" stroke="#666666" points="121,-546 121,-546 216,-546 216,-546 121,-546"/>
<polygon fill="none" stroke="#666666" points="121,-529 121,-578 216,-578 216,-529 121,-529"/>
</a>
</g>
</g>
<!-- Node6&#45;&gt;Node3 -->
<g id="edge5_Node000003_Node000006" class="edge">
<title>Node6&#45;&gt;Node3</title>
<g id="a_edge5_Node000003_Node000006"><a xlink:title=" ">
<path fill="none" stroke="#63b8ff" d="M157.83,-518.79C152.93,-503.34 146.87,-484.19 140.76,-464.89"/>
<polygon fill="none" stroke="#63b8ff" points="154.35,-519.42 160.71,-527.89 161.03,-517.3 154.35,-519.42"/>
</a>
</g>
</g>
<!-- Node7 -->
<g id="Node000007" class="node">
<title>Node7</title>
<g id="a_Node000007"><a xlink:href="interface_monolog_1_1_handler_1_1_processable_handler_interface.html" target="_top" xlink:title=" ">
<polygon fill="white" stroke="none" points="326.5,-409 190.5,-409 190.5,-334 326.5,-334 326.5,-409"/>
<text text-anchor="start" x="195.5" y="-395.5" font-family="Helvetica,sans-Serif" font-size="10.00">ProcessableHandlerInterface</text>
<text text-anchor="start" x="257" y="-380.5" font-family="Helvetica,sans-Serif" font-size="10.00"> </text>
<text text-anchor="start" x="198.5" y="-365.5" font-family="Helvetica,sans-Serif" font-size="10.00">+</text>
<text text-anchor="start" x="212.5" y="-365.5" font-family="Helvetica,sans-Serif" font-size="10.00">pushProcessor(callable</text>
<text text-anchor="start" x="212.5" y="-354.25" font-family="Helvetica,sans-Serif" font-size="10.00"> $callback)</text>
<text text-anchor="start" x="198.5" y="-339.5" font-family="Helvetica,sans-Serif" font-size="10.00">+</text>
<text text-anchor="start" x="212.5" y="-339.5" font-family="Helvetica,sans-Serif" font-size="10.00">popProcessor()</text>
<polygon fill="#666666" stroke="#666666" points="190.5,-392 190.5,-392 326.5,-392 326.5,-392 190.5,-392"/>
<polygon fill="#666666" stroke="#666666" points="190.5,-377 190.5,-377 326.5,-377 326.5,-377 190.5,-377"/>
<polygon fill="none" stroke="#666666" points="190.5,-334 190.5,-409 326.5,-409 326.5,-334 190.5,-334"/>
</a>
</g>
</g>
<!-- Node7&#45;&gt;Node2 -->
<g id="edge6_Node000002_Node000007" class="edge">
<title>Node7&#45;&gt;Node2</title>
<g id="a_edge6_Node000002_Node000007"><a xlink:title=" ">
<path fill="none" stroke="#63b8ff" d="M258.5,-323.07C258.5,-296.84 258.5,-264.98 258.5,-241.94"/>
<polygon fill="none" stroke="#63b8ff" points="255,-322.79 258.5,-332.79 262,-322.79 255,-322.79"/>
</a>
</g>
</g>
<!-- Node8 -->
<g id="Node000008" class="node">
<title>Node8</title>
<g id="a_Node000008"><a xlink:href="interface_monolog_1_1_handler_1_1_formattable_handler_interface.html" target="_top" xlink:title=" ">
<polygon fill="white" stroke="none" points="500.5,-409 344.5,-409 344.5,-334 500.5,-334 500.5,-409"/>
<text text-anchor="start" x="360.62" y="-395.5" font-family="Helvetica,sans-Serif" font-size="10.00">FormattableHandlerInterface</text>
<text text-anchor="start" x="421" y="-380.5" font-family="Helvetica,sans-Serif" font-size="10.00"> </text>
<text text-anchor="start" x="348.5" y="-365.5" font-family="Helvetica,sans-Serif" font-size="10.00">+</text>
<text text-anchor="start" x="358.5" y="-365.5" font-family="Helvetica,sans-Serif" font-size="10.00">setFormatter(FormatterInterface</text>
<text text-anchor="start" x="358.5" y="-354.25" font-family="Helvetica,sans-Serif" font-size="10.00"> $formatter)</text>
<text text-anchor="start" x="348.5" y="-339.5" font-family="Helvetica,sans-Serif" font-size="10.00">+</text>
<text text-anchor="start" x="358.5" y="-339.5" font-family="Helvetica,sans-Serif" font-size="10.00">getFormatter()</text>
<polygon fill="#666666" stroke="#666666" points="344.5,-392 344.5,-392 500.5,-392 500.5,-392 344.5,-392"/>
<polygon fill="#666666" stroke="#666666" points="344.5,-377 344.5,-377 500.5,-377 500.5,-377 344.5,-377"/>
<polygon fill="none" stroke="#666666" points="344.5,-334 344.5,-409 500.5,-409 500.5,-334 344.5,-334"/>
</a>
</g>
</g>
<!-- Node8&#45;&gt;Node2 -->
<g id="edge7_Node000002_Node000008" class="edge">
<title>Node8&#45;&gt;Node2</title>
<g id="a_edge7_Node000002_Node000008"><a xlink:title=" ">
<path fill="none" stroke="#63b8ff" d="M382.09,-325.74C367.71,-310.3 351.18,-293.09 335.5,-278 322.86,-265.84 308.48,-253.06 295.6,-241.97"/>
<polygon fill="none" stroke="#63b8ff" points="379.46,-328.05 388.82,-333.01 384.59,-323.29 379.46,-328.05"/>
</a>
</g>
</g>
</g>
</svg>
