<?xml version="1.0" encoding="UTF-8" standalone="no"?>
<!DOCTYPE svg PUBLIC "-//W3C//DTD SVG 1.1//EN"
 "http://www.w3.org/Graphics/SVG/1.1/DTD/svg11.dtd">
<!-- Generated by graphviz version 10.0.1 (20240210.2158)
 -->
<!-- Title: importDomains Pages: 1 -->
<svg width="674pt" height="377pt"
 viewBox="0.00 0.00 673.50 376.73" xmlns="http://www.w3.org/2000/svg" xmlns:xlink="http://www.w3.org/1999/xlink">
<g id="graph0" class="graph" transform="scale(1 1) rotate(0) translate(4 372.73)">
<title>importDomains</title>
<!-- Node1 -->
<g id="Node000001" class="node">
<title>Node1</title>
<g id="a_Node000001"><a xlink:title=" ">
<polygon fill="#999999" stroke="#666666" points="82,-188.48 0,-188.48 0,-169.23 82,-169.23 82,-188.48"/>
<text text-anchor="middle" x="41" y="-174.98" font-family="Helvetica,sans-Serif" font-size="10.00">importDomains</text>
</a>
</g>
</g>
<!-- Node2 -->
<g id="Node000002" class="node">
<title>Node2</title>
<g id="a_Node000002"><a xlink:href="class_glpi_1_1_console_1_1_migration_1_1_abstract_plugin_to_core_command.html#a23ffd49b40f19901ed1f5a6f886838a8" target="_top" xlink:title=" ">
<polygon fill="white" stroke="#666666" points="277.25,-368.73 118,-368.73 118,-326.98 277.25,-326.98 277.25,-368.73"/>
<text text-anchor="start" x="126" y="-355.23" font-family="Helvetica,sans-Serif" font-size="10.00">Glpi\Console\Migration</text>
<text text-anchor="start" x="126" y="-343.98" font-family="Helvetica,sans-Serif" font-size="10.00">\AbstractPluginToCoreCommand</text>
<text text-anchor="middle" x="197.62" y="-332.73" font-family="Helvetica,sans-Serif" font-size="10.00">\defineTargetItem</text>
</a>
</g>
</g>
<!-- Node1&#45;&gt;Node2 -->
<g id="edge1_Node000001_Node000002" class="edge">
<title>Node1&#45;&gt;Node2</title>
<g id="a_edge1_Node000001_Node000002"><a xlink:title=" ">
<path fill="none" stroke="#63b8ff" d="M44.79,-188.79C52.34,-213.95 75.52,-280.79 118,-317.86 118.94,-318.67 119.9,-319.47 120.88,-320.24"/>
<polygon fill="#63b8ff" stroke="#63b8ff" points="118.76,-323.04 128.99,-325.81 122.73,-317.27 118.76,-323.04"/>
</a>
</g>
</g>
<!-- Node3 -->
<g id="Node000003" class="node">
<title>Node3</title>
<g id="a_Node000003"><a xlink:href="class_glpi_1_1_console_1_1_migration_1_1_abstract_plugin_to_core_command.html#af24cfb1306e2fb006d6311a52368f2b0" target="_top" xlink:title=" ">
<polygon fill="white" stroke="#666666" points="277.25,-308.73 118,-308.73 118,-266.98 277.25,-266.98 277.25,-308.73"/>
<text text-anchor="start" x="126" y="-295.23" font-family="Helvetica,sans-Serif" font-size="10.00">Glpi\Console\Migration</text>
<text text-anchor="start" x="126" y="-283.98" font-family="Helvetica,sans-Serif" font-size="10.00">\AbstractPluginToCoreCommand</text>
<text text-anchor="middle" x="197.62" y="-272.73" font-family="Helvetica,sans-Serif" font-size="10.00">\getMatchingElementId</text>
</a>
</g>
</g>
<!-- Node1&#45;&gt;Node3 -->
<g id="edge2_Node000001_Node000003" class="edge">
<title>Node1&#45;&gt;Node3</title>
<g id="a_edge2_Node000001_Node000003"><a xlink:title=" ">
<path fill="none" stroke="#63b8ff" d="M49.32,-188.96C61.74,-205.47 88.48,-238.32 118,-257.86 119.78,-259.04 121.62,-260.18 123.49,-261.28"/>
<polygon fill="#63b8ff" stroke="#63b8ff" points="121.37,-264.11 131.83,-265.79 124.7,-257.96 121.37,-264.11"/>
</a>
</g>
</g>
<!-- Node5 -->
<g id="Node000005" class="node">
<title>Node5</title>
<g id="a_Node000005"><a xlink:href="class_glpi_1_1_console_1_1_migration_1_1_abstract_plugin_to_core_command.html#ab9287b64b651ac63eae0bad4a9275aad" target="_top" xlink:title=" ">
<polygon fill="white" stroke="#666666" points="277.25,-248.73 118,-248.73 118,-206.98 277.25,-206.98 277.25,-248.73"/>
<text text-anchor="start" x="126" y="-235.23" font-family="Helvetica,sans-Serif" font-size="10.00">Glpi\Console\Migration</text>
<text text-anchor="start" x="126" y="-223.98" font-family="Helvetica,sans-Serif" font-size="10.00">\AbstractPluginToCoreCommand</text>
<text text-anchor="middle" x="197.62" y="-212.73" font-family="Helvetica,sans-Serif" font-size="10.00">\getTargetItem</text>
</a>
</g>
</g>
<!-- Node1&#45;&gt;Node5 -->
<g id="edge4_Node000001_Node000005" class="edge">
<title>Node1&#45;&gt;Node5</title>
<g id="a_edge4_Node000001_Node000005"><a xlink:title=" ">
<path fill="none" stroke="#63b8ff" d="M73.66,-188.89C86.73,-193.03 102.5,-198.03 118.33,-203.05"/>
<polygon fill="#63b8ff" stroke="#63b8ff" points="117.24,-206.37 127.83,-206.05 119.35,-199.7 117.24,-206.37"/>
</a>
</g>
</g>
<!-- Node6 -->
<g id="Node000006" class="node">
<title>Node6</title>
<g id="a_Node000006"><a xlink:href="class_glpi_1_1_console_1_1_migration_1_1_abstract_plugin_to_core_command.html#a30490d1593ab8b8f9f91c65303dea59b" target="_top" xlink:title=" ">
<polygon fill="white" stroke="#666666" points="472.5,-123.73 313.25,-123.73 313.25,-81.98 472.5,-81.98 472.5,-123.73"/>
<text text-anchor="start" x="321.25" y="-110.23" font-family="Helvetica,sans-Serif" font-size="10.00">Glpi\Console\Migration</text>
<text text-anchor="start" x="321.25" y="-98.98" font-family="Helvetica,sans-Serif" font-size="10.00">\AbstractPluginToCoreCommand</text>
<text text-anchor="middle" x="392.88" y="-87.73" font-family="Helvetica,sans-Serif" font-size="10.00">\handleImportError</text>
</a>
</g>
</g>
<!-- Node1&#45;&gt;Node6 -->
<g id="edge5_Node000001_Node000006" class="edge">
<title>Node1&#45;&gt;Node6</title>
<g id="a_edge5_Node000001_Node000006"><a xlink:title=" ">
<path fill="none" stroke="#63b8ff" d="M82.35,-180.19C129.86,-180.72 210.73,-178.34 277.25,-159.86 301.61,-153.09 326.96,-141.07 347.61,-129.82"/>
<polygon fill="#63b8ff" stroke="#63b8ff" points="349.3,-132.88 356.32,-124.95 345.89,-126.77 349.3,-132.88"/>
</a>
</g>
</g>
<!-- Node7 -->
<g id="Node000007" class="node">
<title>Node7</title>
<g id="a_Node000007"><a xlink:href="class_glpi_1_1_console_1_1_abstract_command.html#afa8d698517a0f4be2a1e375967b97beb" target="_top" xlink:title=" ">
<polygon fill="white" stroke="#666666" points="665.5,-90.11 508.5,-90.11 508.5,-59.61 665.5,-59.61 665.5,-90.11"/>
<text text-anchor="start" x="516.5" y="-76.61" font-family="Helvetica,sans-Serif" font-size="10.00">Glpi\Console\AbstractCommand</text>
<text text-anchor="middle" x="587" y="-65.36" font-family="Helvetica,sans-Serif" font-size="10.00">\writelnOutputWithProgressBar</text>
</a>
</g>
</g>
<!-- Node1&#45;&gt;Node7 -->
<g id="edge11_Node000001_Node000007" class="edge">
<title>Node1&#45;&gt;Node7</title>
<g id="a_edge11_Node000001_Node000007"><a xlink:title=" ">
<path fill="none" stroke="#63b8ff" d="M43.82,-169.11C49.38,-142.56 68.79,-69.03 118,-39.86 253.23,40.33 450.47,-20.24 539.43,-54.94"/>
<polygon fill="#63b8ff" stroke="#63b8ff" points="537.99,-58.14 548.58,-58.58 540.58,-51.63 537.99,-58.14"/>
</a>
</g>
</g>
<!-- Node8 -->
<g id="Node000008" class="node">
<title>Node8</title>
<g id="a_Node000008"><a xlink:href="class_glpi_1_1_console_1_1_migration_1_1_abstract_plugin_to_core_command.html#a2bc31b27bac0605619d80f044761e325" target="_top" xlink:title=" ">
<polygon fill="white" stroke="#666666" points="277.25,-150.73 118,-150.73 118,-108.98 277.25,-108.98 277.25,-150.73"/>
<text text-anchor="start" x="126" y="-137.23" font-family="Helvetica,sans-Serif" font-size="10.00">Glpi\Console\Migration</text>
<text text-anchor="start" x="126" y="-125.98" font-family="Helvetica,sans-Serif" font-size="10.00">\AbstractPluginToCoreCommand</text>
<text text-anchor="middle" x="197.62" y="-114.73" font-family="Helvetica,sans-Serif" font-size="10.00">\storeInfocomForItem</text>
</a>
</g>
</g>
<!-- Node1&#45;&gt;Node8 -->
<g id="edge7_Node000001_Node000008" class="edge">
<title>Node1&#45;&gt;Node8</title>
<g id="a_edge7_Node000001_Node000008"><a xlink:title=" ">
<path fill="none" stroke="#63b8ff" d="M73.66,-168.82C86.73,-164.68 102.5,-159.68 118.33,-154.67"/>
<polygon fill="#63b8ff" stroke="#63b8ff" points="119.35,-158.02 127.83,-151.66 117.24,-151.34 119.35,-158.02"/>
</a>
</g>
</g>
<!-- Node9 -->
<g id="Node000009" class="node">
<title>Node9</title>
<g id="a_Node000009"><a xlink:href="class_glpi_1_1_console_1_1_migration_1_1_abstract_plugin_to_core_command.html#a4435627b8d8d4054e6ee8fdcdef7e414" target="_top" xlink:title=" ">
<polygon fill="white" stroke="#666666" points="277.25,-90.73 118,-90.73 118,-48.98 277.25,-48.98 277.25,-90.73"/>
<text text-anchor="start" x="126" y="-77.23" font-family="Helvetica,sans-Serif" font-size="10.00">Glpi\Console\Migration</text>
<text text-anchor="start" x="126" y="-65.98" font-family="Helvetica,sans-Serif" font-size="10.00">\AbstractPluginToCoreCommand</text>
<text text-anchor="middle" x="197.62" y="-54.73" font-family="Helvetica,sans-Serif" font-size="10.00">\storeItem</text>
</a>
</g>
</g>
<!-- Node1&#45;&gt;Node9 -->
<g id="edge9_Node000001_Node000009" class="edge">
<title>Node1&#45;&gt;Node9</title>
<g id="a_edge9_Node000001_Node000009"><a xlink:title=" ">
<path fill="none" stroke="#63b8ff" d="M49.32,-168.75C61.74,-152.24 88.48,-119.39 118,-99.86 119.78,-98.68 121.62,-97.53 123.49,-96.43"/>
<polygon fill="#63b8ff" stroke="#63b8ff" points="124.7,-99.76 131.83,-91.92 121.37,-93.6 124.7,-99.76"/>
</a>
</g>
</g>
<!-- Node4 -->
<g id="Node000004" class="node">
<title>Node4</title>
<g id="a_Node000004"><a xlink:href="db_8function_8php.html#a5bb7668a0ab5705035e0608178fabcba" target="_top" xlink:title=" ">
<polygon fill="white" stroke="#666666" points="443.62,-297.48 342.12,-297.48 342.12,-278.23 443.62,-278.23 443.62,-297.48"/>
<text text-anchor="middle" x="392.88" y="-283.98" font-family="Helvetica,sans-Serif" font-size="10.00">getItemForItemtype</text>
</a>
</g>
</g>
<!-- Node3&#45;&gt;Node4 -->
<g id="edge3_Node000003_Node000004" class="edge">
<title>Node3&#45;&gt;Node4</title>
<g id="a_edge3_Node000003_Node000004"><a xlink:title=" ">
<path fill="none" stroke="#63b8ff" d="M277.51,-287.86C295.14,-287.86 313.6,-287.86 330.41,-287.86"/>
<polygon fill="#63b8ff" stroke="#63b8ff" points="330.24,-291.36 340.24,-287.86 330.24,-284.36 330.24,-291.36"/>
</a>
</g>
</g>
<!-- Node6&#45;&gt;Node7 -->
<g id="edge6_Node000006_Node000007" class="edge">
<title>Node6&#45;&gt;Node7</title>
<g id="a_edge6_Node000006_Node000007"><a xlink:title=" ">
<path fill="none" stroke="#63b8ff" d="M472.85,-91.35C480.8,-90.19 488.91,-89.01 496.96,-87.83"/>
<polygon fill="#63b8ff" stroke="#63b8ff" points="497.37,-91.31 506.76,-86.4 496.36,-84.38 497.37,-91.31"/>
</a>
</g>
</g>
<!-- Node8&#45;&gt;Node6 -->
<g id="edge8_Node000008_Node000006" class="edge">
<title>Node8&#45;&gt;Node6</title>
<g id="a_edge8_Node000008_Node000006"><a xlink:title=" ">
<path fill="none" stroke="#63b8ff" d="M277.51,-118.83C285.45,-117.72 293.56,-116.59 301.61,-115.47"/>
<polygon fill="#63b8ff" stroke="#63b8ff" points="302.01,-118.94 311.43,-114.09 301.05,-112.01 302.01,-118.94"/>
</a>
</g>
</g>
<!-- Node9&#45;&gt;Node6 -->
<g id="edge10_Node000009_Node000006" class="edge">
<title>Node9&#45;&gt;Node6</title>
<g id="a_edge10_Node000009_Node000006"><a xlink:title=" ">
<path fill="none" stroke="#63b8ff" d="M277.51,-83.33C285.45,-84.68 293.56,-86.07 301.61,-87.44"/>
<polygon fill="#63b8ff" stroke="#63b8ff" points="300.99,-90.89 311.44,-89.12 302.17,-83.99 300.99,-90.89"/>
</a>
</g>
</g>
</g>
</svg>
