<?xml version="1.0" encoding="UTF-8" standalone="no"?>
<!DOCTYPE svg PUBLIC "-//W3C//DTD SVG 1.1//EN"
 "http://www.w3.org/Graphics/SVG/1.1/DTD/svg11.dtd">
<!-- Generated by graphviz version 10.0.1 (20240210.2158)
 -->
<!-- Title: calculateUri Pages: 1 -->
<svg width="617pt" height="101pt"
 viewBox="0.00 0.00 617.00 101.25" xmlns="http://www.w3.org/2000/svg" xmlns:xlink="http://www.w3.org/1999/xlink">
<g id="graph0" class="graph" transform="scale(1 1) rotate(0) translate(4 97.25)">
<title>calculateUri</title>
<!-- Node1 -->
<g id="Node000001" class="node">
<title>Node1</title>
<g id="a_Node000001"><a xlink:title=" ">
<polygon fill="#999999" stroke="#666666" points="609,-56.25 541.25,-56.25 541.25,-37 609,-37 609,-56.25"/>
<text text-anchor="middle" x="575.12" y="-42.75" font-family="Helvetica,sans-Serif" font-size="10.00">calculateUri</text>
</a>
</g>
</g>
<!-- Node2 -->
<g id="Node000002" class="node">
<title>Node2</title>
<g id="a_Node000002"><a xlink:href="class_sabre_1_1_d_a_v_1_1_server.html#aff14e9b61cd9e1c90737fab45b7848a3" target="_top" xlink:title=" ">
<polygon fill="white" stroke="#666666" points="505.25,-93.25 394.75,-93.25 394.75,-74 505.25,-74 505.25,-93.25"/>
<text text-anchor="middle" x="450" y="-79.75" font-family="Helvetica,sans-Serif" font-size="10.00">getCopyAndMoveInfo</text>
</a>
</g>
</g>
<!-- Node1&#45;&gt;Node2 -->
<g id="edge1_Node000001_Node000002" class="edge">
<title>Node1&#45;&gt;Node2</title>
<g id="a_edge1_Node000001_Node000002"><a xlink:title=" ">
<path fill="none" stroke="#63b8ff" d="M530.15,-59.84C515.07,-64.37 498.45,-69.37 484.35,-73.6"/>
<polygon fill="#63b8ff" stroke="#63b8ff" points="530.79,-63.3 539.36,-57.07 528.77,-56.6 530.79,-63.3"/>
</a>
</g>
</g>
<!-- Node3 -->
<g id="Node000003" class="node">
<title>Node3</title>
<g id="a_Node000003"><a xlink:href="class_sabre_1_1_d_a_v_1_1_server.html#a211a0f9ca1b4020f08f026cef6e5ded4" target="_top" xlink:title=" ">
<polygon fill="white" stroke="#666666" points="491,-56.25 409,-56.25 409,-37 491,-37 491,-56.25"/>
<text text-anchor="middle" x="450" y="-42.75" font-family="Helvetica,sans-Serif" font-size="10.00">getIfConditions</text>
</a>
</g>
</g>
<!-- Node1&#45;&gt;Node3 -->
<g id="edge2_Node000001_Node000003" class="edge">
<title>Node1&#45;&gt;Node3</title>
<g id="a_edge2_Node000001_Node000003"><a xlink:title=" ">
<path fill="none" stroke="#63b8ff" d="M529.67,-46.62C517.16,-46.62 503.62,-46.62 491.37,-46.62"/>
<polygon fill="#63b8ff" stroke="#63b8ff" points="529.29,-50.13 539.29,-46.63 529.29,-43.13 529.29,-50.13"/>
</a>
</g>
</g>
<!-- Node8 -->
<g id="Node000008" class="node">
<title>Node8</title>
<g id="a_Node000008"><a xlink:href="class_sabre_1_1_d_a_v_1_1_server.html#af9082177972a203cdb3d869a6d8f85da" target="_top" xlink:title=" ">
<polygon fill="white" stroke="#666666" points="489.5,-19.25 410.5,-19.25 410.5,0 489.5,0 489.5,-19.25"/>
<text text-anchor="middle" x="450" y="-5.75" font-family="Helvetica,sans-Serif" font-size="10.00">getRequestUri</text>
</a>
</g>
</g>
<!-- Node1&#45;&gt;Node8 -->
<g id="edge7_Node000001_Node000008" class="edge">
<title>Node1&#45;&gt;Node8</title>
<g id="a_edge7_Node000001_Node000008"><a xlink:title=" ">
<path fill="none" stroke="#63b8ff" d="M530.15,-33.41C515.07,-28.88 498.45,-23.88 484.35,-19.65"/>
<polygon fill="#63b8ff" stroke="#63b8ff" points="528.77,-36.65 539.36,-36.18 530.79,-29.95 528.77,-36.65"/>
</a>
</g>
</g>
<!-- Node4 -->
<g id="Node000004" class="node">
<title>Node4</title>
<g id="a_Node000004"><a xlink:href="class_sabre_1_1_d_a_v_1_1_server.html#a6fe9bae87fa5b97cad8a0e6dbd362a14" target="_top" xlink:title=" ">
<polygon fill="white" stroke="#666666" points="358.75,-56.25 257.25,-56.25 257.25,-37 358.75,-37 358.75,-56.25"/>
<text text-anchor="middle" x="308" y="-42.75" font-family="Helvetica,sans-Serif" font-size="10.00">checkPreconditions</text>
</a>
</g>
</g>
<!-- Node3&#45;&gt;Node4 -->
<g id="edge3_Node000003_Node000004" class="edge">
<title>Node3&#45;&gt;Node4</title>
<g id="a_edge3_Node000003_Node000004"><a xlink:title=" ">
<path fill="none" stroke="#63b8ff" d="M397.33,-46.62C384.84,-46.62 371.52,-46.62 359.11,-46.62"/>
<polygon fill="#63b8ff" stroke="#63b8ff" points="396.99,-50.13 406.99,-46.63 396.99,-43.13 396.99,-50.13"/>
</a>
</g>
</g>
<!-- Node5 -->
<g id="Node000005" class="node">
<title>Node5</title>
<g id="a_Node000005"><a xlink:href="class_sabre_1_1_d_a_v_1_1_server.html#a0012c4d85a4b1ca8d0a59a76035e6d8f" target="_top" xlink:title=" ">
<polygon fill="white" stroke="#666666" points="221.25,-56.25 144.5,-56.25 144.5,-37 221.25,-37 221.25,-56.25"/>
<text text-anchor="middle" x="182.88" y="-42.75" font-family="Helvetica,sans-Serif" font-size="10.00">invokeMethod</text>
</a>
</g>
</g>
<!-- Node4&#45;&gt;Node5 -->
<g id="edge4_Node000004_Node000005" class="edge">
<title>Node4&#45;&gt;Node5</title>
<g id="a_edge4_Node000004_Node000005"><a xlink:title=" ">
<path fill="none" stroke="#63b8ff" d="M245.41,-46.62C237.23,-46.62 229.05,-46.62 221.44,-46.62"/>
<polygon fill="#63b8ff" stroke="#63b8ff" points="245.41,-50.13 255.41,-46.63 245.41,-43.13 245.41,-50.13"/>
</a>
</g>
</g>
<!-- Node6 -->
<g id="Node000006" class="node">
<title>Node6</title>
<g id="a_Node000006"><a xlink:href="class_sabre_1_1_d_a_v_1_1_server.html#af8fa59992209e36dccb3eefb0f75531f" target="_top" xlink:title=" ">
<polygon fill="white" stroke="#666666" points="108.5,-56.25 73,-56.25 73,-37 108.5,-37 108.5,-56.25"/>
<text text-anchor="middle" x="90.75" y="-42.75" font-family="Helvetica,sans-Serif" font-size="10.00">start</text>
</a>
</g>
</g>
<!-- Node5&#45;&gt;Node6 -->
<g id="edge5_Node000005_Node000006" class="edge">
<title>Node5&#45;&gt;Node6</title>
<g id="a_edge5_Node000005_Node000006"><a xlink:title=" ">
<path fill="none" stroke="#63b8ff" d="M132.79,-46.62C124.13,-46.62 115.67,-46.62 108.7,-46.62"/>
<polygon fill="#63b8ff" stroke="#63b8ff" points="132.66,-50.13 142.66,-46.63 132.66,-43.13 132.66,-50.13"/>
</a>
</g>
</g>
<!-- Node7 -->
<g id="Node000007" class="node">
<title>Node7</title>
<g id="a_Node000007"><a xlink:href="class_sabre_1_1_d_a_v_1_1_server.html#ac72ad9f570c48e1d61faf54bb6067ffd" target="_top" xlink:title=" ">
<polygon fill="white" stroke="#666666" points="37,-56.25 0,-56.25 0,-37 37,-37 37,-56.25"/>
<text text-anchor="middle" x="18.5" y="-42.75" font-family="Helvetica,sans-Serif" font-size="10.00">exec</text>
</a>
</g>
</g>
<!-- Node6&#45;&gt;Node7 -->
<g id="edge6_Node000006_Node000007" class="edge">
<title>Node6&#45;&gt;Node7</title>
<g id="a_edge6_Node000006_Node000007"><a xlink:title=" ">
<path fill="none" stroke="#63b8ff" d="M61.4,-46.62C53.27,-46.62 44.64,-46.62 37.33,-46.62"/>
<polygon fill="#63b8ff" stroke="#63b8ff" points="61.23,-50.13 71.23,-46.63 61.23,-43.13 61.23,-50.13"/>
</a>
</g>
</g>
</g>
</svg>
