<?xml version="1.0" encoding="UTF-8" standalone="no"?>
<!DOCTYPE svg PUBLIC "-//W3C//DTD SVG 1.1//EN"
 "http://www.w3.org/Graphics/SVG/1.1/DTD/svg11.dtd">
<!-- Generated by graphviz version 10.0.1 (20240210.2158)
 -->
<!-- Title: NormalizerFormatter Pages: 1 -->
<!--zoomable 551 -->

<svg id="main" version="1.1" xmlns="http://www.w3.org/2000/svg" xmlns:xlink="http://www.w3.org/1999/xlink" xml:space="preserve" onload="init(evt)">
<style type="text/css"><![CDATA[
.node, .edge {opacity: 0.7;}
.node.selected, .edge.selected {opacity: 1;}
.edge:hover path { stroke: red; }
.edge:hover polygon { stroke: red; fill: red; }
]]></style>

<defs>
  <circle id="rim" cx="0" cy="0" r="7"/>
  <circle id="rim2" cx="0" cy="0" r="3.5"/>
  <g id="zoomPlus">
    <use xlink:href="#rim" fill="#404040"><set attributeName="fill" to="#808080" begin="zoomplus.mouseover" end="zoomplus.mouseout"/></use>
    <path d="M-4,0h8M0,-4v8" fill="none" stroke="white" stroke-width="1.5" pointer-events="none"/>
  </g>
  <g id="zoomMin">
    <use xlink:href="#rim" fill="#404040"><set attributeName="fill" to="#808080" begin="zoomminus.mouseover" end="zoomminus.mouseout"/></use>
    <path d="M-4,0h8" fill="none" stroke="white" stroke-width="1.5" pointer-events="none"/>
  </g>
  <g id="arrowUp" transform="translate(30 24)">
    <use xlink:href="#rim"/>
    <path pointer-events="none" fill="none" stroke="white" stroke-width="1.5" d="M0,-3.0v7 M-2.5,-0.5L0,-3.0L2.5,-0.5"/>
  </g>
  <g id="arrowRight" transform="rotate(90) translate(36 -43)">
    <use xlink:href="#rim"/>
    <path pointer-events="none" fill="none" stroke="white" stroke-width="1.5" d="M0,-3.0v7 M-2.5,-0.5L0,-3.0L2.5,-0.5"/>
  </g>
  <g id="arrowDown" transform="rotate(180) translate(-30 -48)">
    <use xlink:href="#rim"/>
    <path pointer-events="none" fill="none" stroke="white" stroke-width="1.5" d="M0,-3.0v7 M-2.5,-0.5L0,-3.0L2.5,-0.5"/>
  </g>
  <g id="arrowLeft" transform="rotate(270) translate(-36 17)">
    <use xlink:href="#rim"/>
    <path pointer-events="none" fill="none" stroke="white" stroke-width="1.5" d="M0,-3.0v7 M-2.5,-0.5L0,-3.0L2.5,-0.5"/>
  </g>
  <g id="resetDef">
    <use xlink:href="#rim2" fill="#404040"><set attributeName="fill" to="#808080" begin="reset.mouseover" end="reset.mouseout"/></use>
  </g>
</defs>
<script type="application/ecmascript">
var viewWidth = 219;
var viewHeight = 551;
var sectionId = 'dynsection-1';
</script>
<script type="application/ecmascript" xlink:href="svg.min.js"/>
<svg id="graph" class="graph">
<g id="viewport">
<title>NormalizerFormatter</title>
<!-- Node1 -->
<g id="Node000001" class="node">
<title>Node1</title>
<g id="a_Node000001"><a xlink:title=" ">
<polygon fill="#999999" stroke="none" points="174.5,-421 21.5,-421 21.5,0 174.5,0 174.5,-421"/>
<text text-anchor="start" x="53.38" y="-407.5" font-family="Helvetica,sans-Serif" font-size="10.00">NormalizerFormatter</text>
<text text-anchor="start" x="25.88" y="-392.5" font-family="Helvetica,sans-Serif" font-size="10.00">#</text>
<text text-anchor="start" x="35.5" y="-392.5" font-family="Helvetica,sans-Serif" font-size="10.00">$dateFormat</text>
<text text-anchor="start" x="25.88" y="-377.5" font-family="Helvetica,sans-Serif" font-size="10.00">#</text>
<text text-anchor="start" x="35.5" y="-377.5" font-family="Helvetica,sans-Serif" font-size="10.00">$maxNormalizeDepth</text>
<text text-anchor="start" x="25.88" y="-362.5" font-family="Helvetica,sans-Serif" font-size="10.00">#</text>
<text text-anchor="start" x="35.5" y="-362.5" font-family="Helvetica,sans-Serif" font-size="10.00">$maxNormalizeItemCount</text>
<text text-anchor="start" x="25.5" y="-347.5" font-family="Helvetica,sans-Serif" font-size="10.00">+</text>
<text text-anchor="start" x="35.5" y="-347.5" font-family="Helvetica,sans-Serif" font-size="10.00">__construct(?string</text>
<text text-anchor="start" x="35.5" y="-336.25" font-family="Helvetica,sans-Serif" font-size="10.00"> $dateFormat=null)</text>
<text text-anchor="start" x="25.5" y="-321.5" font-family="Helvetica,sans-Serif" font-size="10.00">+</text>
<text text-anchor="start" x="35.5" y="-321.5" font-family="Helvetica,sans-Serif" font-size="10.00">format(array $record)</text>
<text text-anchor="start" x="25.5" y="-306.5" font-family="Helvetica,sans-Serif" font-size="10.00">+</text>
<text text-anchor="start" x="35.5" y="-306.5" font-family="Helvetica,sans-Serif" font-size="10.00">formatBatch(array</text>
<text text-anchor="start" x="35.5" y="-295.25" font-family="Helvetica,sans-Serif" font-size="10.00"> $records)</text>
<text text-anchor="start" x="25.5" y="-280.5" font-family="Helvetica,sans-Serif" font-size="10.00">+</text>
<text text-anchor="start" x="35.5" y="-280.5" font-family="Helvetica,sans-Serif" font-size="10.00">getDateFormat()</text>
<text text-anchor="start" x="25.5" y="-265.5" font-family="Helvetica,sans-Serif" font-size="10.00">+</text>
<text text-anchor="start" x="35.5" y="-265.5" font-family="Helvetica,sans-Serif" font-size="10.00">setDateFormat(string</text>
<text text-anchor="start" x="35.5" y="-254.25" font-family="Helvetica,sans-Serif" font-size="10.00"> $dateFormat)</text>
<text text-anchor="start" x="25.5" y="-239.5" font-family="Helvetica,sans-Serif" font-size="10.00">+</text>
<text text-anchor="start" x="35.5" y="-239.5" font-family="Helvetica,sans-Serif" font-size="10.00">getMaxNormalizeDepth()</text>
<text text-anchor="start" x="25.5" y="-224.5" font-family="Helvetica,sans-Serif" font-size="10.00">+</text>
<text text-anchor="start" x="35.5" y="-224.5" font-family="Helvetica,sans-Serif" font-size="10.00">setMaxNormalizeDepth</text>
<text text-anchor="start" x="35.5" y="-213.25" font-family="Helvetica,sans-Serif" font-size="10.00">(int $maxNormalizeDepth)</text>
<text text-anchor="start" x="25.5" y="-198.5" font-family="Helvetica,sans-Serif" font-size="10.00">+</text>
<text text-anchor="start" x="35.5" y="-198.5" font-family="Helvetica,sans-Serif" font-size="10.00">getMaxNormalizeItemCount()</text>
<text text-anchor="start" x="25.5" y="-183.5" font-family="Helvetica,sans-Serif" font-size="10.00">+</text>
<text text-anchor="start" x="35.5" y="-183.5" font-family="Helvetica,sans-Serif" font-size="10.00">setMaxNormalizeItemCount</text>
<text text-anchor="start" x="35.5" y="-172.25" font-family="Helvetica,sans-Serif" font-size="10.00">(int $maxNormalizeItemCount)</text>
<text text-anchor="start" x="25.5" y="-157.5" font-family="Helvetica,sans-Serif" font-size="10.00">+</text>
<text text-anchor="start" x="35.5" y="-157.5" font-family="Helvetica,sans-Serif" font-size="10.00">setJsonPrettyPrint</text>
<text text-anchor="start" x="35.5" y="-146.25" font-family="Helvetica,sans-Serif" font-size="10.00">(bool $enable)</text>
<text text-anchor="start" x="25.5" y="-131.5" font-family="Helvetica,sans-Serif" font-size="10.00">+</text>
<text text-anchor="start" x="35.5" y="-131.5" font-family="Helvetica,sans-Serif" font-size="10.00">addJsonEncodeOption</text>
<text text-anchor="start" x="35.5" y="-120.25" font-family="Helvetica,sans-Serif" font-size="10.00">(int $option)</text>
<text text-anchor="start" x="25.5" y="-105.5" font-family="Helvetica,sans-Serif" font-size="10.00">+</text>
<text text-anchor="start" x="35.5" y="-105.5" font-family="Helvetica,sans-Serif" font-size="10.00">removeJsonEncodeOption</text>
<text text-anchor="start" x="35.5" y="-94.25" font-family="Helvetica,sans-Serif" font-size="10.00">(int $option)</text>
<text text-anchor="start" x="25.88" y="-79.5" font-family="Helvetica,sans-Serif" font-size="10.00">#</text>
<text text-anchor="start" x="35.5" y="-79.5" font-family="Helvetica,sans-Serif" font-size="10.00">normalizeException</text>
<text text-anchor="start" x="35.5" y="-68.25" font-family="Helvetica,sans-Serif" font-size="10.00">(Throwable $e, int </text>
<text text-anchor="start" x="35.5" y="-57" font-family="Helvetica,sans-Serif" font-size="10.00">$depth=0)</text>
<text text-anchor="start" x="25.88" y="-42.5" font-family="Helvetica,sans-Serif" font-size="10.00">#</text>
<text text-anchor="start" x="35.5" y="-42.5" font-family="Helvetica,sans-Serif" font-size="10.00">toJson($data, bool</text>
<text text-anchor="start" x="35.5" y="-31.25" font-family="Helvetica,sans-Serif" font-size="10.00"> $ignoreErrors=false)</text>
<text text-anchor="start" x="25.88" y="-16.5" font-family="Helvetica,sans-Serif" font-size="10.00">#</text>
<text text-anchor="start" x="35.5" y="-16.5" font-family="Helvetica,sans-Serif" font-size="10.00">formatDate(\DateTimeInterface</text>
<text text-anchor="start" x="35.5" y="-5.25" font-family="Helvetica,sans-Serif" font-size="10.00"> $date)</text>
<polygon fill="#666666" stroke="#666666" points="21.5,-404 21.5,-404 174.5,-404 174.5,-404 21.5,-404"/>
<polygon fill="#666666" stroke="#666666" points="21.5,-359 21.5,-359 33.5,-359 33.5,-359 21.5,-359"/>
<polygon fill="#666666" stroke="#666666" points="33.5,-359 33.5,-359 174.5,-359 174.5,-359 33.5,-359"/>
<polygon fill="none" stroke="#666666" points="21.5,0 21.5,-421 174.5,-421 174.5,0 21.5,0"/>
</a>
</g>
</g>
<!-- Node2 -->
<g id="Node000002" class="node">
<title>Node2</title>
<g id="a_Node000002"><a xlink:href="interface_monolog_1_1_formatter_1_1_formatter_interface.html" target="_top" xlink:title=" ">
<polygon fill="white" stroke="none" points="108,-543.25 0,-543.25 0,-468.25 108,-468.25 108,-543.25"/>
<text text-anchor="start" x="13.88" y="-529.75" font-family="Helvetica,sans-Serif" font-size="10.00">FormatterInterface</text>
<text text-anchor="start" x="52.5" y="-514.75" font-family="Helvetica,sans-Serif" font-size="10.00"> </text>
<text text-anchor="start" x="4" y="-499.75" font-family="Helvetica,sans-Serif" font-size="10.00">+</text>
<text text-anchor="start" x="14" y="-499.75" font-family="Helvetica,sans-Serif" font-size="10.00">format(array $record)</text>
<text text-anchor="start" x="4" y="-484.75" font-family="Helvetica,sans-Serif" font-size="10.00">+</text>
<text text-anchor="start" x="14" y="-484.75" font-family="Helvetica,sans-Serif" font-size="10.00">formatBatch(array</text>
<text text-anchor="start" x="14" y="-473.5" font-family="Helvetica,sans-Serif" font-size="10.00"> $records)</text>
<polygon fill="#666666" stroke="#666666" points="0,-526.25 0,-526.25 108,-526.25 108,-526.25 0,-526.25"/>
<polygon fill="#666666" stroke="#666666" points="0,-511.25 0,-511.25 108,-511.25 108,-511.25 0,-511.25"/>
<polygon fill="none" stroke="#666666" points="0,-468.25 0,-543.25 108,-543.25 108,-468.25 0,-468.25"/>
</a>
</g>
</g>
<!-- Node2&#45;&gt;Node1 -->
<g id="edge1_Node000001_Node000002" class="edge">
<title>Node2&#45;&gt;Node1</title>
<g id="a_edge1_Node000001_Node000002"><a xlink:title=" ">
<path fill="none" stroke="#63b8ff" d="M61.13,-457.22C62.77,-446.3 64.61,-434.01 66.58,-420.89"/>
<polygon fill="none" stroke="#63b8ff" points="57.69,-456.59 59.66,-467 64.61,-457.63 57.69,-456.59"/>
</a>
</g>
</g>
<!-- Node3 -->
<g id="Node000003" class="node">
<title>Node3</title>
<g id="a_Node000003"><a xlink:title=" ">
<polygon fill="white" stroke="none" points="160,-530.25 126,-530.25 126,-481.25 160,-481.25 160,-530.25"/>
<text text-anchor="start" x="131" y="-516.75" font-family="Helvetica,sans-Serif" font-size="10.00">const</text>
<text text-anchor="start" x="141.5" y="-501.75" font-family="Helvetica,sans-Serif" font-size="10.00"> </text>
<text text-anchor="start" x="141.5" y="-486.75" font-family="Helvetica,sans-Serif" font-size="10.00"> </text>
<polygon fill="#666666" stroke="#666666" points="126,-513.25 126,-513.25 160,-513.25 160,-513.25 126,-513.25"/>
<polygon fill="#666666" stroke="#666666" points="126,-498.25 126,-498.25 160,-498.25 160,-498.25 126,-498.25"/>
<polygon fill="none" stroke="#666666" points="126,-481.25 126,-530.25 160,-530.25 160,-481.25 126,-481.25"/>
</a>
</g>
</g>
<!-- Node3&#45;&gt;Node1 -->
<g id="edge2_Node000001_Node000003" class="edge">
<title>Node3&#45;&gt;Node1</title>
<g id="a_edge2_Node000001_Node000003"><a xlink:title=" ">
<path fill="none" stroke="#63b8ff" d="M139.47,-481.74C137.57,-469.33 135.01,-452.68 132.1,-433.7"/>
<polygon fill="none" stroke="#63b8ff" points="132.09,-433.66 127.23,-428.34 130.27,-421.8 135.14,-427.13 132.09,-433.66"/>
</a>
</g>
<text text-anchor="middle" x="172.62" y="-440.75" font-family="Helvetica,sans-Serif" font-size="10.00" fill="grey"> +SIMPLE_DATE</text>
</g>
</g>
</svg>

<g id="navigator" transform="translate(0 0)" fill="#404254">
  <rect fill="#f2f5e9" fill-opacity="0.5" stroke="#606060" stroke-width=".5" x="0" y="0" width="60" height="60"/>
  <use id="zoomplus" xlink:href="#zoomPlus" x="17" y="9" onmousedown="handleZoom(evt,'in')"/>
  <use id="zoomminus" xlink:href="#zoomMin" x="42" y="9" onmousedown="handleZoom(evt,'out')"/>
  <use id="reset" xlink:href="#resetDef" x="30" y="36" onmousedown="handleReset()"/>
   <use id="arrowup" xlink:href="#arrowUp" x="0" y="0" onmousedown="handlePan(0,-1)"/>
  <use id="arrowright" xlink:href="#arrowRight" x="0" y="0" onmousedown="handlePan(1,0)"/>
  <use id="arrowdown" xlink:href="#arrowDown" x="0" y="0" onmousedown="handlePan(0,1)"/>
  <use id="arrowleft" xlink:href="#arrowLeft" x="0" y="0" onmousedown="handlePan(-1,0)"/>
</g>
<svg viewBox="0 0 15 15" width="100%" height="30px" preserveAspectRatio="xMaxYMin meet">
 <g id="arrow_out" transform="scale(0.3 0.3)">
  <a xlink:href="class_monolog_1_1_formatter_1_1_normalizer_formatter__coll__graph_org.svg" target="_base">
   <rect id="button" ry="5" rx="5" y="6" x="6" height="38" width="38"
        fill="#f2f5e9" fill-opacity="0.5" stroke="#606060" stroke-width="1.0"/>
   <path id="arrow"
     d="M 11.500037,31.436501 C 11.940474,20.09759 22.043105,11.32322 32.158766,21.979434 L 37.068811,17.246167 C 37.068811,17.246167 37.088388,32 37.088388,32 L 22.160133,31.978069 C 22.160133,31.978069 26.997745,27.140456 26.997745,27.140456 C 18.528582,18.264221 13.291696,25.230495 11.500037,31.436501 z"
     style="fill:#404040;"/>
  </a>
 </g>
</svg>

<style type='text/css'>
<![CDATA[
[data-mouse-over-selected='false'] { opacity: 0.7; }
[data-mouse-over-selected='true']  { opacity: 1.0; }
]]>
</style>
<script type="application/ecmascript"><![CDATA[
document.addEventListener('DOMContentLoaded', (event) => {
  highlightEdges();
  highlightAdjacentNodes();
});
]]></script>
</svg>
