<?xml version="1.0" encoding="UTF-8" standalone="no"?>
<!DOCTYPE svg PUBLIC "-//W3C//DTD SVG 1.1//EN"
 "http://www.w3.org/Graphics/SVG/1.1/DTD/svg11.dtd">
<!-- Generated by graphviz version 10.0.1 (20240210.2158)
 -->
<!-- Title: displayTabContentForItem Pages: 1 -->
<!--zoomable 282 -->

<svg id="main" version="1.1" xmlns="http://www.w3.org/2000/svg" xmlns:xlink="http://www.w3.org/1999/xlink" xml:space="preserve" onload="init(evt)">
<style type="text/css"><![CDATA[
.node, .edge {opacity: 0.7;}
.node.selected, .edge.selected {opacity: 1;}
.edge:hover path { stroke: red; }
.edge:hover polygon { stroke: red; fill: red; }
]]></style>

<defs>
  <circle id="rim" cx="0" cy="0" r="7"/>
  <circle id="rim2" cx="0" cy="0" r="3.5"/>
  <g id="zoomPlus">
    <use xlink:href="#rim" fill="#404040"><set attributeName="fill" to="#808080" begin="zoomplus.mouseover" end="zoomplus.mouseout"/></use>
    <path d="M-4,0h8M0,-4v8" fill="none" stroke="white" stroke-width="1.5" pointer-events="none"/>
  </g>
  <g id="zoomMin">
    <use xlink:href="#rim" fill="#404040"><set attributeName="fill" to="#808080" begin="zoomminus.mouseover" end="zoomminus.mouseout"/></use>
    <path d="M-4,0h8" fill="none" stroke="white" stroke-width="1.5" pointer-events="none"/>
  </g>
  <g id="arrowUp" transform="translate(30 24)">
    <use xlink:href="#rim"/>
    <path pointer-events="none" fill="none" stroke="white" stroke-width="1.5" d="M0,-3.0v7 M-2.5,-0.5L0,-3.0L2.5,-0.5"/>
  </g>
  <g id="arrowRight" transform="rotate(90) translate(36 -43)">
    <use xlink:href="#rim"/>
    <path pointer-events="none" fill="none" stroke="white" stroke-width="1.5" d="M0,-3.0v7 M-2.5,-0.5L0,-3.0L2.5,-0.5"/>
  </g>
  <g id="arrowDown" transform="rotate(180) translate(-30 -48)">
    <use xlink:href="#rim"/>
    <path pointer-events="none" fill="none" stroke="white" stroke-width="1.5" d="M0,-3.0v7 M-2.5,-0.5L0,-3.0L2.5,-0.5"/>
  </g>
  <g id="arrowLeft" transform="rotate(270) translate(-36 17)">
    <use xlink:href="#rim"/>
    <path pointer-events="none" fill="none" stroke="white" stroke-width="1.5" d="M0,-3.0v7 M-2.5,-0.5L0,-3.0L2.5,-0.5"/>
  </g>
  <g id="resetDef">
    <use xlink:href="#rim2" fill="#404040"><set attributeName="fill" to="#808080" begin="reset.mouseover" end="reset.mouseout"/></use>
  </g>
</defs>
<script type="application/ecmascript">
var viewWidth = 534;
var viewHeight = 282;
var sectionId = 'dynsection-2';
</script>
<script type="application/ecmascript" xlink:href="svg.min.js"/>
<svg id="graph" class="graph">
<g id="viewport">
<title>displayTabContentForItem</title>
<!-- Node1 -->
<g id="Node000001" class="node">
<title>Node1</title>
<g id="a_Node000001"><a xlink:title=" ">
<polygon fill="#999999" stroke="#666666" points="130.75,-130.25 0,-130.25 0,-111 130.75,-111 130.75,-130.25"/>
<text text-anchor="middle" x="65.37" y="-116.75" font-family="Helvetica,sans-Serif" font-size="10.00">displayTabContentForItem</text>
</a>
</g>
</g>
<!-- Node2 -->
<g id="Node000002" class="node">
<title>Node2</title>
<g id="a_Node000002"><a xlink:href="class_contract___supplier.html#ae6f37fe6c8d6465b9c378935f91cc20d" target="_top" xlink:title=" ">
<polygon fill="white" stroke="#666666" points="257.75,-93.25 166.75,-93.25 166.75,-74 257.75,-74 257.75,-93.25"/>
<text text-anchor="middle" x="212.25" y="-79.75" font-family="Helvetica,sans-Serif" font-size="10.00">showForContract</text>
</a>
</g>
</g>
<!-- Node1&#45;&gt;Node2 -->
<g id="edge1_Node000001_Node000002" class="edge">
<title>Node1&#45;&gt;Node2</title>
<g id="a_edge1_Node000001_Node000002"><a xlink:title=" ">
<path fill="none" stroke="#63b8ff" d="M105.96,-110.51C122.81,-106.21 142.67,-101.14 160.57,-96.57"/>
<polygon fill="#63b8ff" stroke="#63b8ff" points="161.42,-99.96 170.24,-94.1 159.69,-93.18 161.42,-99.96"/>
</a>
</g>
</g>
<!-- Node8 -->
<g id="Node000008" class="node">
<title>Node8</title>
<g id="a_Node000008"><a xlink:href="class_contract___supplier.html#ace48d19abde049c1a878732da905f0f6" target="_top" xlink:title=" ">
<polygon fill="white" stroke="#666666" points="256.62,-167.25 167.87,-167.25 167.87,-148 256.62,-148 256.62,-167.25"/>
<text text-anchor="middle" x="212.25" y="-153.75" font-family="Helvetica,sans-Serif" font-size="10.00">showForSupplier</text>
</a>
</g>
</g>
<!-- Node1&#45;&gt;Node8 -->
<g id="edge7_Node000001_Node000008" class="edge">
<title>Node1&#45;&gt;Node8</title>
<g id="a_edge7_Node000001_Node000008"><a xlink:title=" ">
<path fill="none" stroke="#63b8ff" d="M105.96,-130.74C122.81,-135.04 142.67,-140.11 160.57,-144.68"/>
<polygon fill="#63b8ff" stroke="#63b8ff" points="159.69,-148.07 170.24,-147.15 161.42,-141.29 159.69,-148.07"/>
</a>
</g>
</g>
<!-- Node3 -->
<g id="Node000003" class="node">
<title>Node3</title>
<g id="a_Node000003"><a xlink:href="autoload_8function_8php.html#affc4787304a41a695a489fc24d60877d" target="_top" xlink:title=" ">
<polygon fill="white" stroke="#666666" points="393.37,-130.25 361.62,-130.25 361.62,-111 393.37,-111 393.37,-130.25"/>
<text text-anchor="middle" x="377.5" y="-116.75" font-family="Helvetica,sans-Serif" font-size="10.00">_sx</text>
</a>
</g>
</g>
<!-- Node2&#45;&gt;Node3 -->
<g id="edge2_Node000002_Node000003" class="edge">
<title>Node2&#45;&gt;Node3</title>
<g id="a_edge2_Node000002_Node000003"><a xlink:title=" ">
<path fill="none" stroke="#63b8ff" d="M255.41,-93.72C267.76,-96.64 281.29,-99.8 293.75,-102.62 312.67,-106.92 334.08,-111.57 350.37,-115.06"/>
<polygon fill="#63b8ff" stroke="#63b8ff" points="349.24,-118.4 359.75,-117.07 350.7,-111.56 349.24,-118.4"/>
</a>
</g>
</g>
<!-- Node5 -->
<g id="Node000005" class="node">
<title>Node5</title>
<g id="a_Node000005"><a xlink:href="class_common_g_l_p_i.html#a3080299ae6729719ef5e8c7e98015069" target="_top" xlink:title=" ">
<polygon fill="white" stroke="#666666" points="461.25,-93.25 293.75,-93.25 293.75,-74 461.25,-74 461.25,-93.25"/>
<text text-anchor="middle" x="377.5" y="-79.75" font-family="Helvetica,sans-Serif" font-size="10.00">CommonGLPI\getFormURLWithID</text>
</a>
</g>
</g>
<!-- Node2&#45;&gt;Node5 -->
<g id="edge4_Node000002_Node000005" class="edge">
<title>Node2&#45;&gt;Node5</title>
<g id="a_edge4_Node000002_Node000005"><a xlink:title=" ">
<path fill="none" stroke="#63b8ff" d="M257.86,-83.62C265.45,-83.62 273.59,-83.62 281.91,-83.62"/>
<polygon fill="#63b8ff" stroke="#63b8ff" points="281.82,-87.13 291.82,-83.63 281.82,-80.13 281.82,-87.13"/>
</a>
</g>
</g>
<!-- Node6 -->
<g id="Node000006" class="node">
<title>Node6</title>
<g id="a_Node000006"><a xlink:href="class_phone.html#ad85cd59496993b8ba622266fe36807ef" target="_top" xlink:title=" ">
<polygon fill="white" stroke="#666666" points="431.25,-56.25 323.75,-56.25 323.75,-37 431.25,-37 431.25,-56.25"/>
<text text-anchor="middle" x="377.5" y="-42.75" font-family="Helvetica,sans-Serif" font-size="10.00">Phone\getTypeName</text>
</a>
</g>
</g>
<!-- Node2&#45;&gt;Node6 -->
<g id="edge5_Node000002_Node000006" class="edge">
<title>Node2&#45;&gt;Node6</title>
<g id="a_edge5_Node000002_Node000006"><a xlink:title=" ">
<path fill="none" stroke="#63b8ff" d="M255.41,-73.53C267.76,-70.61 281.29,-67.45 293.75,-64.62 301.73,-62.81 310.16,-60.94 318.46,-59.11"/>
<polygon fill="#63b8ff" stroke="#63b8ff" points="319.14,-62.55 328.16,-56.99 317.65,-55.71 319.14,-62.55"/>
</a>
</g>
</g>
<!-- Node7 -->
<g id="Node000007" class="node">
<title>Node7</title>
<g id="a_Node000007"><a xlink:href="class_supplier_type.html#ad85cd59496993b8ba622266fe36807ef" target="_top" xlink:title=" ">
<polygon fill="white" stroke="#666666" points="445.5,-19.25 309.5,-19.25 309.5,0 445.5,0 445.5,-19.25"/>
<text text-anchor="middle" x="377.5" y="-5.75" font-family="Helvetica,sans-Serif" font-size="10.00">SupplierType\getTypeName</text>
</a>
</g>
</g>
<!-- Node2&#45;&gt;Node7 -->
<g id="edge6_Node000002_Node000007" class="edge">
<title>Node2&#45;&gt;Node7</title>
<g id="a_edge6_Node000002_Node000007"><a xlink:title=" ">
<path fill="none" stroke="#63b8ff" d="M224.38,-73.71C239.16,-61.08 266.59,-39.46 293.75,-27.62 297.73,-25.89 301.89,-24.32 306.14,-22.89"/>
<polygon fill="#63b8ff" stroke="#63b8ff" points="306.84,-26.34 315.39,-20.08 304.8,-19.64 306.84,-26.34"/>
</a>
</g>
</g>
<!-- Node4 -->
<g id="Node000004" class="node">
<title>Node4</title>
<g id="a_Node000004"><a xlink:href="autoload_8function_8php.html#a2111ba1b23d22b49aee91462961bda8a" target="_top" xlink:title=" ">
<polygon fill="white" stroke="#666666" points="526.05,-204.25 497.25,-204.25 497.25,-185 526.05,-185 526.05,-204.25"/>
<text text-anchor="middle" x="511.65" y="-190.75" font-family="Helvetica,sans-Serif" font-size="10.00">_x</text>
</a>
</g>
</g>
<!-- Node3&#45;&gt;Node4 -->
<g id="edge3_Node000003_Node000004" class="edge">
<title>Node3&#45;&gt;Node4</title>
<g id="a_edge3_Node000003_Node000004"><a xlink:title=" ">
<path fill="none" stroke="#63b8ff" d="M393.87,-121.13C411.31,-122.32 440.08,-126.19 461.25,-138.62 476.45,-147.55 489.43,-162.79 498.27,-175.12"/>
<polygon fill="#63b8ff" stroke="#63b8ff" points="495.33,-177.01 503.83,-183.33 501.13,-173.09 495.33,-177.01"/>
</a>
</g>
</g>
<!-- Node8&#45;&gt;Node3 -->
<g id="edge8_Node000008_Node000003" class="edge">
<title>Node8&#45;&gt;Node3</title>
<g id="a_edge8_Node000008_Node000003"><a xlink:title=" ">
<path fill="none" stroke="#63b8ff" d="M255.41,-147.53C267.76,-144.61 281.29,-141.45 293.75,-138.62 312.67,-134.33 334.08,-129.68 350.37,-126.19"/>
<polygon fill="#63b8ff" stroke="#63b8ff" points="350.7,-129.69 359.75,-124.18 349.24,-122.85 350.7,-129.69"/>
</a>
</g>
</g>
<!-- Node8&#45;&gt;Node4 -->
<g id="edge9_Node000008_Node000004" class="edge">
<title>Node8&#45;&gt;Node4</title>
<g id="a_edge9_Node000008_Node000004"><a xlink:title=" ">
<path fill="none" stroke="#63b8ff" d="M218.17,-167.69C228.72,-187.96 255.68,-233.23 293.75,-250.62 361.46,-281.57 393.4,-281.25 461.25,-250.62 477.85,-243.13 491.1,-227.01 499.69,-213.97"/>
<polygon fill="#63b8ff" stroke="#63b8ff" points="502.52,-216.06 504.75,-205.7 496.55,-212.4 502.52,-216.06"/>
</a>
</g>
</g>
<!-- Node8&#45;&gt;Node5 -->
<g id="edge12_Node000008_Node000005" class="edge">
<title>Node8&#45;&gt;Node5</title>
<g id="a_edge12_Node000008_Node000005"><a xlink:title=" ">
<path fill="none" stroke="#63b8ff" d="M224.38,-147.71C239.16,-135.08 266.59,-113.46 293.75,-101.62 297.73,-99.89 301.89,-98.32 306.14,-96.89"/>
<polygon fill="#63b8ff" stroke="#63b8ff" points="306.84,-100.34 315.39,-94.08 304.8,-93.64 306.84,-100.34"/>
</a>
</g>
</g>
<!-- Node9 -->
<g id="Node000009" class="node">
<title>Node9</title>
<g id="a_Node000009"><a xlink:href="class_common_g_l_p_i.html#a32f309edfbcb4870662d8d9555895593" target="_top" xlink:title=" ">
<polygon fill="white" stroke="#666666" points="436.87,-241.25 318.12,-241.25 318.12,-222 436.87,-222 436.87,-241.25"/>
<text text-anchor="middle" x="377.5" y="-227.75" font-family="Helvetica,sans-Serif" font-size="10.00">CommonGLPI\canView</text>
</a>
</g>
</g>
<!-- Node8&#45;&gt;Node9 -->
<g id="edge10_Node000008_Node000009" class="edge">
<title>Node8&#45;&gt;Node9</title>
<g id="a_edge10_Node000008_Node000009"><a xlink:title=" ">
<path fill="none" stroke="#63b8ff" d="M224.38,-167.54C239.16,-180.17 266.59,-201.79 293.75,-213.62 298,-215.48 302.45,-217.14 307,-218.64"/>
<polygon fill="#63b8ff" stroke="#63b8ff" points="305.68,-221.9 316.27,-221.42 307.69,-215.2 305.68,-221.9"/>
</a>
</g>
</g>
<!-- Node10 -->
<g id="Node000010" class="node">
<title>Node10</title>
<g id="a_Node000010"><a xlink:href="class_common_d_b_t_m.html#a13faad33621666f2ac55d97f67f170fb" target="_top" xlink:title=" ">
<polygon fill="white" stroke="#666666" points="442.12,-204.25 312.87,-204.25 312.87,-185 442.12,-185 442.12,-204.25"/>
<text text-anchor="middle" x="377.5" y="-190.75" font-family="Helvetica,sans-Serif" font-size="10.00">CommonDBTM\dropdown</text>
</a>
</g>
</g>
<!-- Node8&#45;&gt;Node10 -->
<g id="edge11_Node000008_Node000010" class="edge">
<title>Node8&#45;&gt;Node10</title>
<g id="a_edge11_Node000008_Node000010"><a xlink:title=" ">
<path fill="none" stroke="#63b8ff" d="M255.41,-167.72C267.76,-170.64 281.29,-173.8 293.75,-176.62 301.73,-178.44 310.16,-180.31 318.46,-182.14"/>
<polygon fill="#63b8ff" stroke="#63b8ff" points="317.65,-185.54 328.16,-184.26 319.14,-178.7 317.65,-185.54"/>
</a>
</g>
</g>
<!-- Node11 -->
<g id="Node000011" class="node">
<title>Node11</title>
<g id="a_Node000011"><a xlink:href="class_contract_type.html#ad85cd59496993b8ba622266fe36807ef" target="_top" xlink:title=" ">
<polygon fill="white" stroke="#666666" points="446.62,-167.25 308.37,-167.25 308.37,-148 446.62,-148 446.62,-167.25"/>
<text text-anchor="middle" x="377.5" y="-153.75" font-family="Helvetica,sans-Serif" font-size="10.00">ContractType\getTypeName</text>
</a>
</g>
</g>
<!-- Node8&#45;&gt;Node11 -->
<g id="edge13_Node000008_Node000011" class="edge">
<title>Node8&#45;&gt;Node11</title>
<g id="a_edge13_Node000008_Node000011"><a xlink:title=" ">
<path fill="none" stroke="#63b8ff" d="M257,-157.62C269.25,-157.62 282.96,-157.62 296.6,-157.62"/>
<polygon fill="#63b8ff" stroke="#63b8ff" points="296.5,-161.13 306.5,-157.63 296.5,-154.13 296.5,-161.13"/>
</a>
</g>
</g>
</g>
</svg>

<g id="navigator" transform="translate(0 0)" fill="#404254">
  <rect fill="#f2f5e9" fill-opacity="0.5" stroke="#606060" stroke-width=".5" x="0" y="0" width="60" height="60"/>
  <use id="zoomplus" xlink:href="#zoomPlus" x="17" y="9" onmousedown="handleZoom(evt,'in')"/>
  <use id="zoomminus" xlink:href="#zoomMin" x="42" y="9" onmousedown="handleZoom(evt,'out')"/>
  <use id="reset" xlink:href="#resetDef" x="30" y="36" onmousedown="handleReset()"/>
   <use id="arrowup" xlink:href="#arrowUp" x="0" y="0" onmousedown="handlePan(0,-1)"/>
  <use id="arrowright" xlink:href="#arrowRight" x="0" y="0" onmousedown="handlePan(1,0)"/>
  <use id="arrowdown" xlink:href="#arrowDown" x="0" y="0" onmousedown="handlePan(0,1)"/>
  <use id="arrowleft" xlink:href="#arrowLeft" x="0" y="0" onmousedown="handlePan(-1,0)"/>
</g>
<svg viewBox="0 0 15 15" width="100%" height="30px" preserveAspectRatio="xMaxYMin meet">
 <g id="arrow_out" transform="scale(0.3 0.3)">
  <a xlink:href="class_contract___supplier_af466512746a6caca8ee1556ed63fa2f3_cgraph_org.svg" target="_base">
   <rect id="button" ry="5" rx="5" y="6" x="6" height="38" width="38"
        fill="#f2f5e9" fill-opacity="0.5" stroke="#606060" stroke-width="1.0"/>
   <path id="arrow"
     d="M 11.500037,31.436501 C 11.940474,20.09759 22.043105,11.32322 32.158766,21.979434 L 37.068811,17.246167 C 37.068811,17.246167 37.088388,32 37.088388,32 L 22.160133,31.978069 C 22.160133,31.978069 26.997745,27.140456 26.997745,27.140456 C 18.528582,18.264221 13.291696,25.230495 11.500037,31.436501 z"
     style="fill:#404040;"/>
  </a>
 </g>
</svg>

<style type='text/css'>
<![CDATA[
[data-mouse-over-selected='false'] { opacity: 0.7; }
[data-mouse-over-selected='true']  { opacity: 1.0; }
]]>
</style>
<script type="application/ecmascript"><![CDATA[
document.addEventListener('DOMContentLoaded', (event) => {
  highlightEdges();
  highlightAdjacentNodes();
});
]]></script>
</svg>
