<?xml version="1.0" encoding="UTF-8" standalone="no"?>
<!DOCTYPE svg PUBLIC "-//W3C//DTD SVG 1.1//EN"
 "http://www.w3.org/Graphics/SVG/1.1/DTD/svg11.dtd">
<!-- Generated by graphviz version 10.0.1 (20240210.2158)
 -->
<!-- Title: caution Pages: 1 -->
<svg width="219pt" height="64pt"
 viewBox="0.00 0.00 218.75 64.25" xmlns="http://www.w3.org/2000/svg" xmlns:xlink="http://www.w3.org/1999/xlink">
<g id="graph0" class="graph" transform="scale(1 1) rotate(0) translate(4 60.25)">
<title>caution</title>
<!-- Node1 -->
<g id="Node000001" class="node">
<title>Node1</title>
<g id="a_Node000001"><a xlink:title=" ">
<polygon fill="#999999" stroke="#666666" points="47.5,-37.25 0,-37.25 0,-18 47.5,-18 47.5,-37.25"/>
<text text-anchor="middle" x="23.75" y="-23.75" font-family="Helvetica,sans-Serif" font-size="10.00">caution</text>
</a>
</g>
</g>
<!-- Node2 -->
<g id="Node000002" class="node">
<title>Node2</title>
<g id="a_Node000002"><a xlink:href="class_symfony_1_1_component_1_1_console_1_1_style_1_1_symfony_style.html#a88e3e287cf3bc56b53afca668089b266" target="_top" xlink:title=" ">
<polygon fill="white" stroke="#666666" points="122.75,-37.25 83.5,-37.25 83.5,-18 122.75,-18 122.75,-37.25"/>
<text text-anchor="middle" x="103.12" y="-23.75" font-family="Helvetica,sans-Serif" font-size="10.00">block</text>
</a>
</g>
</g>
<!-- Node1&#45;&gt;Node2 -->
<g id="edge1_Node000001_Node000002" class="edge">
<title>Node1&#45;&gt;Node2</title>
<g id="a_edge1_Node000001_Node000002"><a xlink:title=" ">
<path fill="none" stroke="#63b8ff" d="M47.97,-27.62C55.41,-27.62 63.78,-27.62 71.67,-27.62"/>
<polygon fill="#63b8ff" stroke="#63b8ff" points="71.58,-31.13 81.58,-27.63 71.57,-24.13 71.58,-31.13"/>
</a>
</g>
</g>
<!-- Node3 -->
<g id="Node000003" class="node">
<title>Node3</title>
<g id="a_Node000003"><a xlink:href="class_symfony_1_1_component_1_1_console_1_1_style_1_1_symfony_style.html#a462d2b59a3f1635b558ce59c2a88448b" target="_top" xlink:title=" ">
<polygon fill="white" stroke="#666666" points="210.75,-56.25 158.75,-56.25 158.75,-37 210.75,-37 210.75,-56.25"/>
<text text-anchor="middle" x="184.75" y="-42.75" font-family="Helvetica,sans-Serif" font-size="10.00">newLine</text>
</a>
</g>
</g>
<!-- Node2&#45;&gt;Node3 -->
<g id="edge2_Node000002_Node000003" class="edge">
<title>Node2&#45;&gt;Node3</title>
<g id="a_edge2_Node000002_Node000003"><a xlink:title=" ">
<path fill="none" stroke="#63b8ff" d="M123,-32.13C130.27,-33.86 138.84,-35.91 147.22,-37.91"/>
<polygon fill="#63b8ff" stroke="#63b8ff" points="146.38,-41.3 156.91,-40.22 148,-34.5 146.38,-41.3"/>
</a>
</g>
</g>
<!-- Node4 -->
<g id="Node000004" class="node">
<title>Node4</title>
<g id="a_Node000004"><a xlink:href="class_symfony_1_1_component_1_1_console_1_1_style_1_1_symfony_style.html#aa01a5caa036630d979101ea05cde3b80" target="_top" xlink:title=" ">
<polygon fill="white" stroke="#666666" points="207,-19.25 162.5,-19.25 162.5,0 207,0 207,-19.25"/>
<text text-anchor="middle" x="184.75" y="-5.75" font-family="Helvetica,sans-Serif" font-size="10.00">writeln</text>
</a>
</g>
</g>
<!-- Node2&#45;&gt;Node4 -->
<g id="edge3_Node000002_Node000004" class="edge">
<title>Node2&#45;&gt;Node4</title>
<g id="a_edge3_Node000002_Node000004"><a xlink:title=" ">
<path fill="none" stroke="#63b8ff" d="M123,-23.36C131.36,-21.47 141.46,-19.18 151,-17.03"/>
<polygon fill="#63b8ff" stroke="#63b8ff" points="151.74,-20.45 160.73,-14.83 150.2,-13.62 151.74,-20.45"/>
</a>
</g>
</g>
</g>
</svg>
