<?xml version="1.0" encoding="UTF-8" standalone="no"?>
<!DOCTYPE svg PUBLIC "-//W3C//DTD SVG 1.1//EN"
 "http://www.w3.org/Graphics/SVG/1.1/DTD/svg11.dtd">
<!-- Generated by graphviz version 10.0.1 (20240210.2158)
 -->
<!-- Title: RotatingFileHandler Pages: 1 -->
<!--zoomable 1249 -->

<svg id="main" version="1.1" xmlns="http://www.w3.org/2000/svg" xmlns:xlink="http://www.w3.org/1999/xlink" xml:space="preserve" onload="init(evt)">
<style type="text/css"><![CDATA[
.node, .edge {opacity: 0.7;}
.node.selected, .edge.selected {opacity: 1;}
.edge:hover path { stroke: red; }
.edge:hover polygon { stroke: red; fill: red; }
]]></style>

<defs>
  <circle id="rim" cx="0" cy="0" r="7"/>
  <circle id="rim2" cx="0" cy="0" r="3.5"/>
  <g id="zoomPlus">
    <use xlink:href="#rim" fill="#404040"><set attributeName="fill" to="#808080" begin="zoomplus.mouseover" end="zoomplus.mouseout"/></use>
    <path d="M-4,0h8M0,-4v8" fill="none" stroke="white" stroke-width="1.5" pointer-events="none"/>
  </g>
  <g id="zoomMin">
    <use xlink:href="#rim" fill="#404040"><set attributeName="fill" to="#808080" begin="zoomminus.mouseover" end="zoomminus.mouseout"/></use>
    <path d="M-4,0h8" fill="none" stroke="white" stroke-width="1.5" pointer-events="none"/>
  </g>
  <g id="arrowUp" transform="translate(30 24)">
    <use xlink:href="#rim"/>
    <path pointer-events="none" fill="none" stroke="white" stroke-width="1.5" d="M0,-3.0v7 M-2.5,-0.5L0,-3.0L2.5,-0.5"/>
  </g>
  <g id="arrowRight" transform="rotate(90) translate(36 -43)">
    <use xlink:href="#rim"/>
    <path pointer-events="none" fill="none" stroke="white" stroke-width="1.5" d="M0,-3.0v7 M-2.5,-0.5L0,-3.0L2.5,-0.5"/>
  </g>
  <g id="arrowDown" transform="rotate(180) translate(-30 -48)">
    <use xlink:href="#rim"/>
    <path pointer-events="none" fill="none" stroke="white" stroke-width="1.5" d="M0,-3.0v7 M-2.5,-0.5L0,-3.0L2.5,-0.5"/>
  </g>
  <g id="arrowLeft" transform="rotate(270) translate(-36 17)">
    <use xlink:href="#rim"/>
    <path pointer-events="none" fill="none" stroke="white" stroke-width="1.5" d="M0,-3.0v7 M-2.5,-0.5L0,-3.0L2.5,-0.5"/>
  </g>
  <g id="resetDef">
    <use xlink:href="#rim2" fill="#404040"><set attributeName="fill" to="#808080" begin="reset.mouseover" end="reset.mouseout"/></use>
  </g>
</defs>
<script type="application/ecmascript">
var viewWidth = 518;
var viewHeight = 1249;
var sectionId = 'dynsection-1';
</script>
<script type="application/ecmascript" xlink:href="svg.min.js"/>
<svg id="graph" class="graph">
<g id="viewport">
<title>RotatingFileHandler</title>
<!-- Node1 -->
<g id="Node000001" class="node">
<title>Node1</title>
<g id="a_Node000001"><a xlink:title=" ">
<polygon fill="#999999" stroke="none" points="431,-307 290,-307 290,0 431,0 431,-307"/>
<text text-anchor="start" x="317.38" y="-293.5" font-family="Helvetica,sans-Serif" font-size="10.00">RotatingFileHandler</text>
<text text-anchor="start" x="294.38" y="-278.5" font-family="Helvetica,sans-Serif" font-size="10.00">#</text>
<text text-anchor="start" x="304" y="-278.5" font-family="Helvetica,sans-Serif" font-size="10.00">$filename</text>
<text text-anchor="start" x="294.38" y="-263.5" font-family="Helvetica,sans-Serif" font-size="10.00">#</text>
<text text-anchor="start" x="304" y="-263.5" font-family="Helvetica,sans-Serif" font-size="10.00">$maxFiles</text>
<text text-anchor="start" x="294.38" y="-248.5" font-family="Helvetica,sans-Serif" font-size="10.00">#</text>
<text text-anchor="start" x="304" y="-248.5" font-family="Helvetica,sans-Serif" font-size="10.00">$mustRotate</text>
<text text-anchor="start" x="294.38" y="-233.5" font-family="Helvetica,sans-Serif" font-size="10.00">#</text>
<text text-anchor="start" x="304" y="-233.5" font-family="Helvetica,sans-Serif" font-size="10.00">$nextRotation</text>
<text text-anchor="start" x="294.38" y="-218.5" font-family="Helvetica,sans-Serif" font-size="10.00">#</text>
<text text-anchor="start" x="304" y="-218.5" font-family="Helvetica,sans-Serif" font-size="10.00">$filenameFormat</text>
<text text-anchor="start" x="294.38" y="-203.5" font-family="Helvetica,sans-Serif" font-size="10.00">#</text>
<text text-anchor="start" x="304" y="-203.5" font-family="Helvetica,sans-Serif" font-size="10.00">$dateFormat</text>
<text text-anchor="start" x="294" y="-188.5" font-family="Helvetica,sans-Serif" font-size="10.00">+</text>
<text text-anchor="start" x="304" y="-188.5" font-family="Helvetica,sans-Serif" font-size="10.00">__construct(string</text>
<text text-anchor="start" x="304" y="-177.25" font-family="Helvetica,sans-Serif" font-size="10.00"> $filename, int $maxFiles</text>
<text text-anchor="start" x="304" y="-166" font-family="Helvetica,sans-Serif" font-size="10.00">=0, $level=Logger::DEBUG,</text>
<text text-anchor="start" x="304" y="-154.75" font-family="Helvetica,sans-Serif" font-size="10.00"> bool $bubble=true, ?int</text>
<text text-anchor="start" x="304" y="-143.5" font-family="Helvetica,sans-Serif" font-size="10.00"> $filePermission=null, bool</text>
<text text-anchor="start" x="304" y="-132.25" font-family="Helvetica,sans-Serif" font-size="10.00"> $useLocking=false)</text>
<text text-anchor="start" x="294" y="-117.5" font-family="Helvetica,sans-Serif" font-size="10.00">+</text>
<text text-anchor="start" x="304" y="-117.5" font-family="Helvetica,sans-Serif" font-size="10.00">close()</text>
<text text-anchor="start" x="294" y="-102.5" font-family="Helvetica,sans-Serif" font-size="10.00">+</text>
<text text-anchor="start" x="304" y="-102.5" font-family="Helvetica,sans-Serif" font-size="10.00">reset()</text>
<text text-anchor="start" x="294" y="-87.5" font-family="Helvetica,sans-Serif" font-size="10.00">+</text>
<text text-anchor="start" x="304" y="-87.5" font-family="Helvetica,sans-Serif" font-size="10.00">setFilenameFormat</text>
<text text-anchor="start" x="304" y="-76.25" font-family="Helvetica,sans-Serif" font-size="10.00">(string $filenameFormat,</text>
<text text-anchor="start" x="304" y="-65" font-family="Helvetica,sans-Serif" font-size="10.00"> string $dateFormat)</text>
<text text-anchor="start" x="294.38" y="-50.5" font-family="Helvetica,sans-Serif" font-size="10.00">#</text>
<text text-anchor="start" x="304" y="-50.5" font-family="Helvetica,sans-Serif" font-size="10.00">write(array $record)</text>
<text text-anchor="start" x="294.38" y="-35.5" font-family="Helvetica,sans-Serif" font-size="10.00">#</text>
<text text-anchor="start" x="304" y="-35.5" font-family="Helvetica,sans-Serif" font-size="10.00">rotate()</text>
<text text-anchor="start" x="294.38" y="-20.5" font-family="Helvetica,sans-Serif" font-size="10.00">#</text>
<text text-anchor="start" x="304" y="-20.5" font-family="Helvetica,sans-Serif" font-size="10.00">getTimedFilename()</text>
<text text-anchor="start" x="294.38" y="-5.5" font-family="Helvetica,sans-Serif" font-size="10.00">#</text>
<text text-anchor="start" x="304" y="-5.5" font-family="Helvetica,sans-Serif" font-size="10.00">getGlobPattern()</text>
<polygon fill="#666666" stroke="#666666" points="290,-290 290,-290 431,-290 431,-290 290,-290"/>
<polygon fill="#666666" stroke="#666666" points="290,-200 290,-200 302,-200 302,-200 290,-200"/>
<polygon fill="#666666" stroke="#666666" points="302,-200 302,-200 431,-200 431,-200 302,-200"/>
<polygon fill="none" stroke="#666666" points="290,0 290,-307 431,-307 431,0 290,0"/>
</a>
</g>
</g>
<!-- Node2 -->
<g id="Node000002" class="node">
<title>Node2</title>
<g id="a_Node000002"><a xlink:href="class_monolog_1_1_handler_1_1_stream_handler.html" target="_top" xlink:title=" ">
<polygon fill="white" stroke="none" points="357.5,-599 225.5,-599 225.5,-344 357.5,-344 357.5,-599"/>
<text text-anchor="start" x="258.88" y="-585.5" font-family="Helvetica,sans-Serif" font-size="10.00">StreamHandler</text>
<text text-anchor="start" x="229.88" y="-570.5" font-family="Helvetica,sans-Serif" font-size="10.00">#</text>
<text text-anchor="start" x="239.5" y="-570.5" font-family="Helvetica,sans-Serif" font-size="10.00">$streamChunkSize</text>
<text text-anchor="start" x="229.88" y="-555.5" font-family="Helvetica,sans-Serif" font-size="10.00">#</text>
<text text-anchor="start" x="239.5" y="-555.5" font-family="Helvetica,sans-Serif" font-size="10.00">$stream</text>
<text text-anchor="start" x="229.88" y="-540.5" font-family="Helvetica,sans-Serif" font-size="10.00">#</text>
<text text-anchor="start" x="239.5" y="-540.5" font-family="Helvetica,sans-Serif" font-size="10.00">$url</text>
<text text-anchor="start" x="229.88" y="-525.5" font-family="Helvetica,sans-Serif" font-size="10.00">#</text>
<text text-anchor="start" x="239.5" y="-525.5" font-family="Helvetica,sans-Serif" font-size="10.00">$filePermission</text>
<text text-anchor="start" x="229.88" y="-510.5" font-family="Helvetica,sans-Serif" font-size="10.00">#</text>
<text text-anchor="start" x="239.5" y="-510.5" font-family="Helvetica,sans-Serif" font-size="10.00">$useLocking</text>
<text text-anchor="start" x="229.5" y="-495.5" font-family="Helvetica,sans-Serif" font-size="10.00">+</text>
<text text-anchor="start" x="239.5" y="-495.5" font-family="Helvetica,sans-Serif" font-size="10.00">__construct($stream,</text>
<text text-anchor="start" x="239.5" y="-484.25" font-family="Helvetica,sans-Serif" font-size="10.00"> $level=Logger::DEBUG,</text>
<text text-anchor="start" x="239.5" y="-473" font-family="Helvetica,sans-Serif" font-size="10.00"> bool $bubble=true, ?int</text>
<text text-anchor="start" x="239.5" y="-461.75" font-family="Helvetica,sans-Serif" font-size="10.00"> $filePermission=null, bool</text>
<text text-anchor="start" x="239.5" y="-450.5" font-family="Helvetica,sans-Serif" font-size="10.00"> $useLocking=false)</text>
<text text-anchor="start" x="229.5" y="-435.5" font-family="Helvetica,sans-Serif" font-size="10.00">+</text>
<text text-anchor="start" x="239.5" y="-435.5" font-family="Helvetica,sans-Serif" font-size="10.00">close()</text>
<text text-anchor="start" x="229.5" y="-420.5" font-family="Helvetica,sans-Serif" font-size="10.00">+</text>
<text text-anchor="start" x="239.5" y="-420.5" font-family="Helvetica,sans-Serif" font-size="10.00">getStream()</text>
<text text-anchor="start" x="229.5" y="-405.5" font-family="Helvetica,sans-Serif" font-size="10.00">+</text>
<text text-anchor="start" x="239.5" y="-405.5" font-family="Helvetica,sans-Serif" font-size="10.00">getUrl()</text>
<text text-anchor="start" x="229.5" y="-390.5" font-family="Helvetica,sans-Serif" font-size="10.00">+</text>
<text text-anchor="start" x="239.5" y="-390.5" font-family="Helvetica,sans-Serif" font-size="10.00">getStreamChunkSize()</text>
<text text-anchor="start" x="229.88" y="-375.5" font-family="Helvetica,sans-Serif" font-size="10.00">#</text>
<text text-anchor="start" x="239.5" y="-375.5" font-family="Helvetica,sans-Serif" font-size="10.00">write(array $record)</text>
<text text-anchor="start" x="229.88" y="-360.5" font-family="Helvetica,sans-Serif" font-size="10.00">#</text>
<text text-anchor="start" x="239.5" y="-360.5" font-family="Helvetica,sans-Serif" font-size="10.00">streamWrite($stream,</text>
<text text-anchor="start" x="239.5" y="-349.25" font-family="Helvetica,sans-Serif" font-size="10.00"> array $record)</text>
<polygon fill="#666666" stroke="#666666" points="225.5,-582 225.5,-582 357.5,-582 357.5,-582 225.5,-582"/>
<polygon fill="#666666" stroke="#666666" points="225.5,-507 225.5,-507 237.5,-507 237.5,-507 225.5,-507"/>
<polygon fill="#666666" stroke="#666666" points="237.5,-507 237.5,-507 357.5,-507 357.5,-507 237.5,-507"/>
<polygon fill="none" stroke="#666666" points="225.5,-344 225.5,-599 357.5,-599 357.5,-344 225.5,-344"/>
</a>
</g>
</g>
<!-- Node2&#45;&gt;Node1 -->
<g id="edge1_Node000001_Node000002" class="edge">
<title>Node2&#45;&gt;Node1</title>
<g id="a_edge1_Node000001_Node000002"><a xlink:title=" ">
<path fill="none" stroke="#63b8ff" d="M321.47,-333.24C323.38,-324.5 325.31,-315.68 327.23,-306.88"/>
<polygon fill="none" stroke="#63b8ff" points="318.1,-332.25 319.39,-342.77 324.94,-333.74 318.1,-332.25"/>
</a>
</g>
</g>
<!-- Node3 -->
<g id="Node000003" class="node">
<title>Node3</title>
<g id="a_Node000003"><a xlink:href="class_monolog_1_1_handler_1_1_abstract_processing_handler.html" target="_top" xlink:title=" ">
<polygon fill="white" stroke="none" points="323,-721.5 194,-721.5 194,-657.5 323,-657.5 323,-721.5"/>
<text text-anchor="start" x="198.88" y="-708" font-family="Helvetica,sans-Serif" font-size="10.00">AbstractProcessingHandler</text>
<text text-anchor="start" x="257" y="-693" font-family="Helvetica,sans-Serif" font-size="10.00"> </text>
<text text-anchor="start" x="204.5" y="-678" font-family="Helvetica,sans-Serif" font-size="10.00">+</text>
<text text-anchor="start" x="221" y="-678" font-family="Helvetica,sans-Serif" font-size="10.00">reset()</text>
<text text-anchor="start" x="204.88" y="-663" font-family="Helvetica,sans-Serif" font-size="10.00">#</text>
<text text-anchor="start" x="221" y="-663" font-family="Helvetica,sans-Serif" font-size="10.00">write(array $record)</text>
<polygon fill="#666666" stroke="#666666" points="194,-704.5 194,-704.5 323,-704.5 323,-704.5 194,-704.5"/>
<polygon fill="#666666" stroke="#666666" points="194,-689.5 194,-689.5 323,-689.5 323,-689.5 194,-689.5"/>
<polygon fill="none" stroke="#666666" points="194,-657.5 194,-721.5 323,-721.5 323,-657.5 194,-657.5"/>
</a>
</g>
</g>
<!-- Node3&#45;&gt;Node2 -->
<g id="edge2_Node000002_Node000003" class="edge">
<title>Node3&#45;&gt;Node2</title>
<g id="a_edge2_Node000002_Node000003"><a xlink:title=" ">
<path fill="none" stroke="#63b8ff" d="M264.94,-646.34C267.09,-632.28 269.61,-615.8 272.22,-598.7"/>
<polygon fill="none" stroke="#63b8ff" points="261.51,-645.64 263.46,-656.06 268.43,-646.7 261.51,-645.64"/>
</a>
</g>
</g>
<!-- Node4 -->
<g id="Node000004" class="node">
<title>Node4</title>
<g id="a_Node000004"><a xlink:href="class_monolog_1_1_handler_1_1_abstract_handler.html" target="_top" xlink:title=" ">
<polygon fill="white" stroke="none" points="172.5,-945.5 50.5,-945.5 50.5,-758.5 172.5,-758.5 172.5,-945.5"/>
<text text-anchor="start" x="76.25" y="-932" font-family="Helvetica,sans-Serif" font-size="10.00">AbstractHandler</text>
<text text-anchor="start" x="54.88" y="-917" font-family="Helvetica,sans-Serif" font-size="10.00">#</text>
<text text-anchor="start" x="64.5" y="-917" font-family="Helvetica,sans-Serif" font-size="10.00">$level</text>
<text text-anchor="start" x="54.88" y="-902" font-family="Helvetica,sans-Serif" font-size="10.00">#</text>
<text text-anchor="start" x="64.5" y="-902" font-family="Helvetica,sans-Serif" font-size="10.00">$bubble</text>
<text text-anchor="start" x="54.5" y="-887" font-family="Helvetica,sans-Serif" font-size="10.00">+</text>
<text text-anchor="start" x="64.5" y="-887" font-family="Helvetica,sans-Serif" font-size="10.00">__construct($level</text>
<text text-anchor="start" x="64.5" y="-875.75" font-family="Helvetica,sans-Serif" font-size="10.00">=Logger::DEBUG, bool</text>
<text text-anchor="start" x="64.5" y="-864.5" font-family="Helvetica,sans-Serif" font-size="10.00"> $bubble=true)</text>
<text text-anchor="start" x="54.5" y="-850" font-family="Helvetica,sans-Serif" font-size="10.00">+</text>
<text text-anchor="start" x="64.5" y="-850" font-family="Helvetica,sans-Serif" font-size="10.00">isHandling(array </text>
<text text-anchor="start" x="64.5" y="-838.75" font-family="Helvetica,sans-Serif" font-size="10.00">$record)</text>
<text text-anchor="start" x="54.5" y="-824" font-family="Helvetica,sans-Serif" font-size="10.00">+</text>
<text text-anchor="start" x="64.5" y="-824" font-family="Helvetica,sans-Serif" font-size="10.00">setLevel($level)</text>
<text text-anchor="start" x="54.5" y="-809" font-family="Helvetica,sans-Serif" font-size="10.00">+</text>
<text text-anchor="start" x="64.5" y="-809" font-family="Helvetica,sans-Serif" font-size="10.00">getLevel()</text>
<text text-anchor="start" x="54.5" y="-794" font-family="Helvetica,sans-Serif" font-size="10.00">+</text>
<text text-anchor="start" x="64.5" y="-794" font-family="Helvetica,sans-Serif" font-size="10.00">setBubble(bool $bubble)</text>
<text text-anchor="start" x="54.5" y="-779" font-family="Helvetica,sans-Serif" font-size="10.00">+</text>
<text text-anchor="start" x="64.5" y="-779" font-family="Helvetica,sans-Serif" font-size="10.00">getBubble()</text>
<text text-anchor="start" x="54.5" y="-764" font-family="Helvetica,sans-Serif" font-size="10.00">+</text>
<text text-anchor="start" x="64.5" y="-764" font-family="Helvetica,sans-Serif" font-size="10.00">reset()</text>
<polygon fill="#666666" stroke="#666666" points="50.5,-928.5 50.5,-928.5 172.5,-928.5 172.5,-928.5 50.5,-928.5"/>
<polygon fill="#666666" stroke="#666666" points="50.5,-898.5 50.5,-898.5 62.5,-898.5 62.5,-898.5 50.5,-898.5"/>
<polygon fill="#666666" stroke="#666666" points="62.5,-898.5 62.5,-898.5 172.5,-898.5 172.5,-898.5 62.5,-898.5"/>
<polygon fill="none" stroke="#666666" points="50.5,-758.5 50.5,-945.5 172.5,-945.5 172.5,-758.5 50.5,-758.5"/>
</a>
</g>
</g>
<!-- Node4&#45;&gt;Node3 -->
<g id="edge3_Node000003_Node000004" class="edge">
<title>Node4&#45;&gt;Node3</title>
<g id="a_edge3_Node000003_Node000004"><a xlink:title=" ">
<path fill="none" stroke="#63b8ff" d="M180.09,-760.03C180.56,-759.52 181.03,-759.01 181.5,-758.5 193.5,-745.55 207.74,-732.45 220.68,-721.25"/>
<polygon fill="none" stroke="#63b8ff" points="177.53,-757.65 173.49,-767.45 182.76,-762.3 177.53,-757.65"/>
</a>
</g>
</g>
<!-- Node5 -->
<g id="Node000005" class="node">
<title>Node5</title>
<g id="a_Node000005"><a xlink:href="class_monolog_1_1_handler_1_1_handler.html" target="_top" xlink:title=" ">
<polygon fill="white" stroke="none" points="102.5,-1087.5 6.5,-1087.5 6.5,-982.5 102.5,-982.5 102.5,-1087.5"/>
<text text-anchor="start" x="37.62" y="-1074" font-family="Helvetica,sans-Serif" font-size="10.00">Handler</text>
<text text-anchor="start" x="53" y="-1059" font-family="Helvetica,sans-Serif" font-size="10.00"> </text>
<text text-anchor="start" x="10.5" y="-1044" font-family="Helvetica,sans-Serif" font-size="10.00">+</text>
<text text-anchor="start" x="20.5" y="-1044" font-family="Helvetica,sans-Serif" font-size="10.00">handleBatch(array</text>
<text text-anchor="start" x="20.5" y="-1032.75" font-family="Helvetica,sans-Serif" font-size="10.00"> $records)</text>
<text text-anchor="start" x="10.5" y="-1018" font-family="Helvetica,sans-Serif" font-size="10.00">+</text>
<text text-anchor="start" x="20.5" y="-1018" font-family="Helvetica,sans-Serif" font-size="10.00">close()</text>
<text text-anchor="start" x="10.5" y="-1003" font-family="Helvetica,sans-Serif" font-size="10.00">+</text>
<text text-anchor="start" x="20.5" y="-1003" font-family="Helvetica,sans-Serif" font-size="10.00">__destruct()</text>
<text text-anchor="start" x="10.5" y="-988" font-family="Helvetica,sans-Serif" font-size="10.00">+</text>
<text text-anchor="start" x="20.5" y="-988" font-family="Helvetica,sans-Serif" font-size="10.00">__sleep()</text>
<polygon fill="#666666" stroke="#666666" points="6.5,-1070.5 6.5,-1070.5 102.5,-1070.5 102.5,-1070.5 6.5,-1070.5"/>
<polygon fill="#666666" stroke="#666666" points="6.5,-1055.5 6.5,-1055.5 102.5,-1055.5 102.5,-1055.5 6.5,-1055.5"/>
<polygon fill="none" stroke="#666666" points="6.5,-982.5 6.5,-1087.5 102.5,-1087.5 102.5,-982.5 6.5,-982.5"/>
</a>
</g>
</g>
<!-- Node5&#45;&gt;Node4 -->
<g id="edge4_Node000004_Node000005" class="edge">
<title>Node5&#45;&gt;Node4</title>
<g id="a_edge4_Node000004_Node000005"><a xlink:title=" ">
<path fill="none" stroke="#63b8ff" d="M74.14,-971.65C76.82,-963.11 79.63,-954.21 82.44,-945.29"/>
<polygon fill="none" stroke="#63b8ff" points="70.8,-970.58 71.14,-981.17 77.48,-972.69 70.8,-970.58"/>
</a>
</g>
</g>
<!-- Node6 -->
<g id="Node000006" class="node">
<title>Node6</title>
<g id="a_Node000006"><a xlink:href="interface_monolog_1_1_handler_1_1_handler_interface.html" target="_top" xlink:title=" ">
<polygon fill="white" stroke="none" points="109,-1240.5 0,-1240.5 0,-1124.5 109,-1124.5 109,-1240.5"/>
<text text-anchor="start" x="18.5" y="-1227" font-family="Helvetica,sans-Serif" font-size="10.00">HandlerInterface</text>
<text text-anchor="start" x="53" y="-1212" font-family="Helvetica,sans-Serif" font-size="10.00"> </text>
<text text-anchor="start" x="4" y="-1197" font-family="Helvetica,sans-Serif" font-size="10.00">+</text>
<text text-anchor="start" x="14" y="-1197" font-family="Helvetica,sans-Serif" font-size="10.00">isHandling(array </text>
<text text-anchor="start" x="14" y="-1185.75" font-family="Helvetica,sans-Serif" font-size="10.00">$record)</text>
<text text-anchor="start" x="4" y="-1171" font-family="Helvetica,sans-Serif" font-size="10.00">+</text>
<text text-anchor="start" x="14" y="-1171" font-family="Helvetica,sans-Serif" font-size="10.00">handle(array $record)</text>
<text text-anchor="start" x="4" y="-1156" font-family="Helvetica,sans-Serif" font-size="10.00">+</text>
<text text-anchor="start" x="14" y="-1156" font-family="Helvetica,sans-Serif" font-size="10.00">handleBatch(array</text>
<text text-anchor="start" x="14" y="-1144.75" font-family="Helvetica,sans-Serif" font-size="10.00"> $records)</text>
<text text-anchor="start" x="4" y="-1130" font-family="Helvetica,sans-Serif" font-size="10.00">+</text>
<text text-anchor="start" x="14" y="-1130" font-family="Helvetica,sans-Serif" font-size="10.00">close()</text>
<polygon fill="#666666" stroke="#666666" points="0,-1223.5 0,-1223.5 109,-1223.5 109,-1223.5 0,-1223.5"/>
<polygon fill="#666666" stroke="#666666" points="0,-1208.5 0,-1208.5 109,-1208.5 109,-1208.5 0,-1208.5"/>
<polygon fill="none" stroke="#666666" points="0,-1124.5 0,-1240.5 109,-1240.5 109,-1124.5 0,-1124.5"/>
</a>
</g>
</g>
<!-- Node6&#45;&gt;Node5 -->
<g id="edge5_Node000005_Node000006" class="edge">
<title>Node6&#45;&gt;Node5</title>
<g id="a_edge5_Node000005_Node000006"><a xlink:title=" ">
<path fill="none" stroke="#63b8ff" d="M54.5,-1113.61C54.5,-1104.68 54.5,-1095.65 54.5,-1087.06"/>
<polygon fill="none" stroke="#63b8ff" points="51,-1113.32 54.5,-1123.32 58,-1113.32 51,-1113.32"/>
</a>
</g>
</g>
<!-- Node7 -->
<g id="Node000007" class="node">
<title>Node7</title>
<g id="a_Node000007"><a xlink:href="interface_monolog_1_1_resettable_interface.html" target="_top" xlink:title=" ">
<polygon fill="white" stroke="none" points="216,-1059.5 121,-1059.5 121,-1010.5 216,-1010.5 216,-1059.5"/>
<text text-anchor="start" x="125.75" y="-1046" font-family="Helvetica,sans-Serif" font-size="10.00">ResettableInterface</text>
<text text-anchor="start" x="167" y="-1031" font-family="Helvetica,sans-Serif" font-size="10.00"> </text>
<text text-anchor="start" x="137.5" y="-1016" font-family="Helvetica,sans-Serif" font-size="10.00">+</text>
<text text-anchor="start" x="160" y="-1016" font-family="Helvetica,sans-Serif" font-size="10.00">reset()</text>
<polygon fill="#666666" stroke="#666666" points="121,-1042.5 121,-1042.5 216,-1042.5 216,-1042.5 121,-1042.5"/>
<polygon fill="#666666" stroke="#666666" points="121,-1027.5 121,-1027.5 216,-1027.5 216,-1027.5 121,-1027.5"/>
<polygon fill="none" stroke="#666666" points="121,-1010.5 121,-1059.5 216,-1059.5 216,-1010.5 121,-1010.5"/>
</a>
</g>
</g>
<!-- Node7&#45;&gt;Node4 -->
<g id="edge6_Node000004_Node000007" class="edge">
<title>Node7&#45;&gt;Node4</title>
<g id="a_edge6_Node000004_Node000007"><a xlink:title=" ">
<path fill="none" stroke="#63b8ff" d="M157.8,-1000.04C152.88,-984.4 146.77,-965.01 140.63,-945.49"/>
<polygon fill="none" stroke="#63b8ff" points="154.37,-1000.78 160.71,-1009.26 161.04,-998.67 154.37,-1000.78"/>
</a>
</g>
</g>
<!-- Node8 -->
<g id="Node000008" class="node">
<title>Node8</title>
<g id="a_Node000008"><a xlink:href="interface_monolog_1_1_handler_1_1_processable_handler_interface.html" target="_top" xlink:title=" ">
<polygon fill="white" stroke="none" points="326.5,-889.5 190.5,-889.5 190.5,-814.5 326.5,-814.5 326.5,-889.5"/>
<text text-anchor="start" x="195.5" y="-876" font-family="Helvetica,sans-Serif" font-size="10.00">ProcessableHandlerInterface</text>
<text text-anchor="start" x="257" y="-861" font-family="Helvetica,sans-Serif" font-size="10.00"> </text>
<text text-anchor="start" x="198.5" y="-846" font-family="Helvetica,sans-Serif" font-size="10.00">+</text>
<text text-anchor="start" x="212.5" y="-846" font-family="Helvetica,sans-Serif" font-size="10.00">pushProcessor(callable</text>
<text text-anchor="start" x="212.5" y="-834.75" font-family="Helvetica,sans-Serif" font-size="10.00"> $callback)</text>
<text text-anchor="start" x="198.5" y="-820" font-family="Helvetica,sans-Serif" font-size="10.00">+</text>
<text text-anchor="start" x="212.5" y="-820" font-family="Helvetica,sans-Serif" font-size="10.00">popProcessor()</text>
<polygon fill="#666666" stroke="#666666" points="190.5,-872.5 190.5,-872.5 326.5,-872.5 326.5,-872.5 190.5,-872.5"/>
<polygon fill="#666666" stroke="#666666" points="190.5,-857.5 190.5,-857.5 326.5,-857.5 326.5,-857.5 190.5,-857.5"/>
<polygon fill="none" stroke="#666666" points="190.5,-814.5 190.5,-889.5 326.5,-889.5 326.5,-814.5 190.5,-814.5"/>
</a>
</g>
</g>
<!-- Node8&#45;&gt;Node3 -->
<g id="edge7_Node000003_Node000008" class="edge">
<title>Node8&#45;&gt;Node3</title>
<g id="a_edge7_Node000003_Node000008"><a xlink:title=" ">
<path fill="none" stroke="#63b8ff" d="M258.5,-803.24C258.5,-776.74 258.5,-744.56 258.5,-721.37"/>
<polygon fill="none" stroke="#63b8ff" points="255,-803.07 258.5,-813.07 262,-803.07 255,-803.07"/>
</a>
</g>
</g>
<!-- Node9 -->
<g id="Node000009" class="node">
<title>Node9</title>
<g id="a_Node000009"><a xlink:href="interface_monolog_1_1_handler_1_1_formattable_handler_interface.html" target="_top" xlink:title=" ">
<polygon fill="white" stroke="none" points="500.5,-889.5 344.5,-889.5 344.5,-814.5 500.5,-814.5 500.5,-889.5"/>
<text text-anchor="start" x="360.62" y="-876" font-family="Helvetica,sans-Serif" font-size="10.00">FormattableHandlerInterface</text>
<text text-anchor="start" x="421" y="-861" font-family="Helvetica,sans-Serif" font-size="10.00"> </text>
<text text-anchor="start" x="348.5" y="-846" font-family="Helvetica,sans-Serif" font-size="10.00">+</text>
<text text-anchor="start" x="358.5" y="-846" font-family="Helvetica,sans-Serif" font-size="10.00">setFormatter(FormatterInterface</text>
<text text-anchor="start" x="358.5" y="-834.75" font-family="Helvetica,sans-Serif" font-size="10.00"> $formatter)</text>
<text text-anchor="start" x="348.5" y="-820" font-family="Helvetica,sans-Serif" font-size="10.00">+</text>
<text text-anchor="start" x="358.5" y="-820" font-family="Helvetica,sans-Serif" font-size="10.00">getFormatter()</text>
<polygon fill="#666666" stroke="#666666" points="344.5,-872.5 344.5,-872.5 500.5,-872.5 500.5,-872.5 344.5,-872.5"/>
<polygon fill="#666666" stroke="#666666" points="344.5,-857.5 344.5,-857.5 500.5,-857.5 500.5,-857.5 344.5,-857.5"/>
<polygon fill="none" stroke="#666666" points="344.5,-814.5 344.5,-889.5 500.5,-889.5 500.5,-814.5 344.5,-814.5"/>
</a>
</g>
</g>
<!-- Node9&#45;&gt;Node3 -->
<g id="edge8_Node000003_Node000009" class="edge">
<title>Node9&#45;&gt;Node3</title>
<g id="a_edge8_Node000003_Node000009"><a xlink:title=" ">
<path fill="none" stroke="#63b8ff" d="M382.03,-806.31C367.64,-790.87 351.13,-773.65 335.5,-758.5 322.56,-745.96 307.85,-732.74 294.78,-721.31"/>
<polygon fill="none" stroke="#63b8ff" points="379.4,-808.61 388.76,-813.57 384.53,-803.86 379.4,-808.61"/>
</a>
</g>
</g>
<!-- Node10 -->
<g id="Node000010" class="node">
<title>Node10</title>
<g id="a_Node000010"><a xlink:title=" ">
<polygon fill="white" stroke="none" points="411.5,-714 377.5,-714 377.5,-665 411.5,-665 411.5,-714"/>
<text text-anchor="start" x="382.5" y="-700.5" font-family="Helvetica,sans-Serif" font-size="10.00">const</text>
<text text-anchor="start" x="393" y="-685.5" font-family="Helvetica,sans-Serif" font-size="10.00"> </text>
<text text-anchor="start" x="393" y="-670.5" font-family="Helvetica,sans-Serif" font-size="10.00"> </text>
<polygon fill="#666666" stroke="#666666" points="377.5,-697 377.5,-697 411.5,-697 411.5,-697 377.5,-697"/>
<polygon fill="#666666" stroke="#666666" points="377.5,-682 377.5,-682 411.5,-682 411.5,-682 377.5,-682"/>
<polygon fill="none" stroke="#666666" points="377.5,-665 377.5,-714 411.5,-714 411.5,-665 377.5,-665"/>
</a>
</g>
</g>
<!-- Node10&#45;&gt;Node1 -->
<g id="edge10_Node000001_Node000010" class="edge">
<title>Node10&#45;&gt;Node1</title>
<g id="a_edge10_Node000001_Node000010"><a xlink:title=" ">
<path fill="none" stroke="#63b8ff" d="M407.34,-665.26C411.06,-657.33 414.63,-648.25 416.5,-639.5 418.59,-629.72 417.1,-626.98 416.5,-617 410.53,-518.02 397.43,-407.78 385.41,-319.75"/>
<polygon fill="none" stroke="#63b8ff" points="385.4,-319.71 380.62,-314.31 383.77,-307.82 388.55,-313.22 385.4,-319.71"/>
</a>
</g>
<text text-anchor="middle" x="462.12" y="-478.88" font-family="Helvetica,sans-Serif" font-size="10.00" fill="grey"> +FILE_PER_DAY</text>
<text text-anchor="middle" x="462.12" y="-467.62" font-family="Helvetica,sans-Serif" font-size="10.00" fill="grey">+FILE_PER_MONTH</text>
<text text-anchor="middle" x="462.12" y="-456.38" font-family="Helvetica,sans-Serif" font-size="10.00" fill="grey">+FILE_PER_YEAR</text>
</g>
<!-- Node10&#45;&gt;Node2 -->
<g id="edge9_Node000002_Node000010" class="edge">
<title>Node10&#45;&gt;Node2</title>
<g id="a_edge9_Node000002_Node000010"><a xlink:title=" ">
<path fill="none" stroke="#63b8ff" d="M377.7,-680.11C365.04,-673.81 347.23,-665.02 331.5,-657.5 314.37,-649.31 303.02,-655.47 292.75,-639.5 287.12,-630.75 283.04,-621.16 280.19,-611.15"/>
<polygon fill="none" stroke="#63b8ff" points="280.23,-611.33 274.98,-606.39 277.51,-599.64 282.77,-604.58 280.23,-611.33"/>
</a>
</g>
<text text-anchor="middle" x="355.38" y="-630" font-family="Helvetica,sans-Serif" font-size="10.00" fill="grey"> #DEFAULT_CHUNK_SIZE</text>
<text text-anchor="middle" x="355.38" y="-618.75" font-family="Helvetica,sans-Serif" font-size="10.00" fill="grey">#MAX_CHUNK_SIZE</text>
</g>
</g>
</svg>

<g id="navigator" transform="translate(0 0)" fill="#404254">
  <rect fill="#f2f5e9" fill-opacity="0.5" stroke="#606060" stroke-width=".5" x="0" y="0" width="60" height="60"/>
  <use id="zoomplus" xlink:href="#zoomPlus" x="17" y="9" onmousedown="handleZoom(evt,'in')"/>
  <use id="zoomminus" xlink:href="#zoomMin" x="42" y="9" onmousedown="handleZoom(evt,'out')"/>
  <use id="reset" xlink:href="#resetDef" x="30" y="36" onmousedown="handleReset()"/>
   <use id="arrowup" xlink:href="#arrowUp" x="0" y="0" onmousedown="handlePan(0,-1)"/>
  <use id="arrowright" xlink:href="#arrowRight" x="0" y="0" onmousedown="handlePan(1,0)"/>
  <use id="arrowdown" xlink:href="#arrowDown" x="0" y="0" onmousedown="handlePan(0,1)"/>
  <use id="arrowleft" xlink:href="#arrowLeft" x="0" y="0" onmousedown="handlePan(-1,0)"/>
</g>
<svg viewBox="0 0 15 15" width="100%" height="30px" preserveAspectRatio="xMaxYMin meet">
 <g id="arrow_out" transform="scale(0.3 0.3)">
  <a xlink:href="class_monolog_1_1_handler_1_1_rotating_file_handler__coll__graph_org.svg" target="_base">
   <rect id="button" ry="5" rx="5" y="6" x="6" height="38" width="38"
        fill="#f2f5e9" fill-opacity="0.5" stroke="#606060" stroke-width="1.0"/>
   <path id="arrow"
     d="M 11.500037,31.436501 C 11.940474,20.09759 22.043105,11.32322 32.158766,21.979434 L 37.068811,17.246167 C 37.068811,17.246167 37.088388,32 37.088388,32 L 22.160133,31.978069 C 22.160133,31.978069 26.997745,27.140456 26.997745,27.140456 C 18.528582,18.264221 13.291696,25.230495 11.500037,31.436501 z"
     style="fill:#404040;"/>
  </a>
 </g>
</svg>

<style type='text/css'>
<![CDATA[
[data-mouse-over-selected='false'] { opacity: 0.7; }
[data-mouse-over-selected='true']  { opacity: 1.0; }
]]>
</style>
<script type="application/ecmascript"><![CDATA[
document.addEventListener('DOMContentLoaded', (event) => {
  highlightEdges();
  highlightAdjacentNodes();
});
]]></script>
</svg>
