<?xml version="1.0" encoding="UTF-8" standalone="no"?>
<!DOCTYPE svg PUBLIC "-//W3C//DTD SVG 1.1//EN"
 "http://www.w3.org/Graphics/SVG/1.1/DTD/svg11.dtd">
<!-- Generated by graphviz version 10.0.1 (20240210.2158)
 -->
<!-- Title: offsetSet Pages: 1 -->
<svg width="377pt" height="27pt"
 viewBox="0.00 0.00 377.25 27.25" xmlns="http://www.w3.org/2000/svg" xmlns:xlink="http://www.w3.org/1999/xlink">
<g id="graph0" class="graph" transform="scale(1 1) rotate(0) translate(4 23.25)">
<title>offsetSet</title>
<!-- Node1 -->
<g id="Node000001" class="node">
<title>Node1</title>
<g id="a_Node000001"><a xlink:title=" ">
<polygon fill="#999999" stroke="#666666" points="55.75,-19.25 0,-19.25 0,0 55.75,0 55.75,-19.25"/>
<text text-anchor="middle" x="27.88" y="-5.75" font-family="Helvetica,sans-Serif" font-size="10.00">offsetSet</text>
</a>
</g>
</g>
<!-- Node2 -->
<g id="Node000002" class="node">
<title>Node2</title>
<g id="a_Node000002"><a xlink:href="classwapmorgan_1_1_unified_archive_1_1_unified_archive.html#a6a0c57fb71a3ca5e4e30175fd095beb3" target="_top" xlink:title=" ">
<polygon fill="white" stroke="#666666" points="187.25,-19.25 91.75,-19.25 91.75,0 187.25,0 187.25,-19.25"/>
<text text-anchor="middle" x="139.5" y="-5.75" font-family="Helvetica,sans-Serif" font-size="10.00">addFileFromString</text>
</a>
</g>
</g>
<!-- Node1&#45;&gt;Node2 -->
<g id="edge1_Node000001_Node000002" class="edge">
<title>Node1&#45;&gt;Node2</title>
<g id="a_edge1_Node000001_Node000002"><a xlink:title=" ">
<path fill="none" stroke="#63b8ff" d="M55.97,-9.62C63.38,-9.62 71.71,-9.62 80.15,-9.62"/>
<polygon fill="#63b8ff" stroke="#63b8ff" points="80.14,-13.13 90.14,-9.63 80.14,-6.13 80.14,-13.13"/>
</a>
</g>
</g>
<!-- Node3 -->
<g id="Node000003" class="node">
<title>Node3</title>
<g id="a_Node000003"><a xlink:href="classwapmorgan_1_1_unified_archive_1_1_unified_archive.html#a869dbd122cdad08472132025b3a4f3d2" target="_top" xlink:title=" ">
<polygon fill="white" stroke="#666666" points="293.25,-19.25 223.25,-19.25 223.25,0 293.25,0 293.25,-19.25"/>
<text text-anchor="middle" x="258.25" y="-5.75" font-family="Helvetica,sans-Serif" font-size="10.00">scanArchive</text>
</a>
</g>
</g>
<!-- Node2&#45;&gt;Node3 -->
<g id="edge2_Node000002_Node000003" class="edge">
<title>Node2&#45;&gt;Node3</title>
<g id="a_edge2_Node000002_Node000003"><a xlink:title=" ">
<path fill="none" stroke="#63b8ff" d="M187.65,-9.62C195.47,-9.62 203.56,-9.62 211.35,-9.62"/>
<polygon fill="#63b8ff" stroke="#63b8ff" points="211.34,-13.13 221.34,-9.63 211.34,-6.13 211.34,-13.13"/>
</a>
</g>
</g>
<!-- Node4 -->
<g id="Node000004" class="node">
<title>Node4</title>
<g id="a_Node000004"><a xlink:href="classwapmorgan_1_1_unified_archive_1_1_unified_archive.html#ac751e87b3d4c4bf2feb03bee8b092755" target="_top" xlink:title=" ">
<polygon fill="white" stroke="#666666" points="369.25,-19.25 329.25,-19.25 329.25,0 369.25,0 369.25,-19.25"/>
<text text-anchor="middle" x="349.25" y="-5.75" font-family="Helvetica,sans-Serif" font-size="10.00">count</text>
</a>
</g>
</g>
<!-- Node3&#45;&gt;Node4 -->
<g id="edge3_Node000003_Node000004" class="edge">
<title>Node3&#45;&gt;Node4</title>
<g id="a_edge3_Node000003_Node000004"><a xlink:title=" ">
<path fill="none" stroke="#63b8ff" d="M293.66,-9.62C301.49,-9.62 309.77,-9.62 317.44,-9.62"/>
<polygon fill="#63b8ff" stroke="#63b8ff" points="317.33,-13.13 327.33,-9.63 317.33,-6.13 317.33,-13.13"/>
</a>
</g>
</g>
</g>
</svg>
