<?xml version="1.0" encoding="UTF-8" standalone="no"?>
<!DOCTYPE svg PUBLIC "-//W3C//DTD SVG 1.1//EN"
 "http://www.w3.org/Graphics/SVG/1.1/DTD/svg11.dtd">
<!-- Generated by graphviz version 10.0.1 (20240210.2158)
 -->
<!-- Title: getSpecificMassiveActions Pages: 1 -->
<svg width="334pt" height="101pt"
 viewBox="0.00 0.00 334.00 101.25" xmlns="http://www.w3.org/2000/svg" xmlns:xlink="http://www.w3.org/1999/xlink">
<g id="graph0" class="graph" transform="scale(1 1) rotate(0) translate(4 97.25)">
<title>getSpecificMassiveActions</title>
<!-- Node1 -->
<g id="Node000001" class="node">
<title>Node1</title>
<g id="a_Node000001"><a xlink:title=" ">
<polygon fill="#999999" stroke="#666666" points="134.5,-56.25 0,-56.25 0,-37 134.5,-37 134.5,-56.25"/>
<text text-anchor="middle" x="67.25" y="-42.75" font-family="Helvetica,sans-Serif" font-size="10.00">getSpecificMassiveActions</text>
</a>
</g>
</g>
<!-- Node2 -->
<g id="Node000002" class="node">
<title>Node2</title>
<g id="a_Node000002"><a xlink:href="autoload_8function_8php.html#a2111ba1b23d22b49aee91462961bda8a" target="_top" xlink:title=" ">
<polygon fill="white" stroke="#666666" points="262.65,-93.25 233.85,-93.25 233.85,-74 262.65,-74 262.65,-93.25"/>
<text text-anchor="middle" x="248.25" y="-79.75" font-family="Helvetica,sans-Serif" font-size="10.00">_x</text>
</a>
</g>
</g>
<!-- Node1&#45;&gt;Node2 -->
<g id="edge1_Node000001_Node000002" class="edge">
<title>Node1&#45;&gt;Node2</title>
<g id="a_edge1_Node000001_Node000002"><a xlink:title=" ">
<path fill="none" stroke="#63b8ff" d="M117.16,-56.74C151.27,-63.79 195.36,-72.9 222.46,-78.5"/>
<polygon fill="#63b8ff" stroke="#63b8ff" points="221.63,-81.9 232.13,-80.5 223.05,-75.05 221.63,-81.9"/>
</a>
</g>
</g>
<!-- Node3 -->
<g id="Node000003" class="node">
<title>Node3</title>
<g id="a_Node000003"><a xlink:href="class_software_license.html#aba4ebe60768c9021ba124a6daa421f2e" target="_top" xlink:title=" ">
<polygon fill="white" stroke="#666666" points="310.25,-56.25 186.25,-56.25 186.25,-37 310.25,-37 310.25,-56.25"/>
<text text-anchor="middle" x="248.25" y="-42.75" font-family="Helvetica,sans-Serif" font-size="10.00">SoftwareLicense\getIcon</text>
</a>
</g>
</g>
<!-- Node1&#45;&gt;Node3 -->
<g id="edge2_Node000001_Node000003" class="edge">
<title>Node1&#45;&gt;Node3</title>
<g id="a_edge2_Node000001_Node000003"><a xlink:title=" ">
<path fill="none" stroke="#63b8ff" d="M134.9,-46.62C147.82,-46.62 161.41,-46.62 174.51,-46.62"/>
<polygon fill="#63b8ff" stroke="#63b8ff" points="174.35,-50.13 184.35,-46.63 174.35,-43.13 174.35,-50.13"/>
</a>
</g>
</g>
<!-- Node4 -->
<g id="Node000004" class="node">
<title>Node4</title>
<g id="a_Node000004"><a xlink:href="class_operating_system.html#ad85cd59496993b8ba622266fe36807ef" target="_top" xlink:title=" ">
<polygon fill="white" stroke="#666666" points="326,-19.25 170.5,-19.25 170.5,0 326,0 326,-19.25"/>
<text text-anchor="middle" x="248.25" y="-5.75" font-family="Helvetica,sans-Serif" font-size="10.00">OperatingSystem\getTypeName</text>
</a>
</g>
</g>
<!-- Node1&#45;&gt;Node4 -->
<g id="edge3_Node000001_Node000004" class="edge">
<title>Node1&#45;&gt;Node4</title>
<g id="a_edge3_Node000001_Node000004"><a xlink:title=" ">
<path fill="none" stroke="#63b8ff" d="M117.16,-36.51C138.77,-32.05 164.38,-26.75 187.14,-22.05"/>
<polygon fill="#63b8ff" stroke="#63b8ff" points="187.83,-25.48 196.91,-20.03 186.41,-18.63 187.83,-25.48"/>
</a>
</g>
</g>
</g>
</svg>
