<?xml version="1.0" encoding="UTF-8" standalone="no"?>
<!DOCTYPE svg PUBLIC "-//W3C//DTD SVG 1.1//EN"
 "http://www.w3.org/Graphics/SVG/1.1/DTD/svg11.dtd">
<!-- Generated by graphviz version 10.0.1 (20240210.2158)
 -->
<!-- Title: decodeXref Pages: 1 -->
<svg width="929pt" height="529pt"
 viewBox="0.00 0.00 929.25 528.50" xmlns="http://www.w3.org/2000/svg" xmlns:xlink="http://www.w3.org/1999/xlink">
<g id="graph0" class="graph" transform="scale(1 1) rotate(0) translate(4 524.5)">
<title>decodeXref</title>
<!-- Node1 -->
<g id="Node000001" class="node">
<title>Node1</title>
<g id="a_Node000001"><a xlink:title=" ">
<polygon fill="#999999" stroke="#666666" points="65.5,-321.88 0,-321.88 0,-302.62 65.5,-302.62 65.5,-321.88"/>
<text text-anchor="middle" x="32.75" y="-308.38" font-family="Helvetica,sans-Serif" font-size="10.00">decodeXref</text>
</a>
</g>
</g>
<!-- Node2 -->
<g id="Node000002" class="node">
<title>Node2</title>
<g id="a_Node000002"><a xlink:href="class_t_c_p_d_f___p_a_r_s_e_r.html#a5afab85a7aaf19395f9a0e86cae76928" target="_top" xlink:title=" ">
<polygon fill="white" stroke="#666666" points="675,-306.88 638,-306.88 638,-287.62 675,-287.62 675,-306.88"/>
<text text-anchor="middle" x="656.5" y="-293.38" font-family="Helvetica,sans-Serif" font-size="10.00">Error</text>
</a>
</g>
</g>
<!-- Node1&#45;&gt;Node2 -->
<g id="edge1_Node000001_Node000002" class="edge">
<title>Node1&#45;&gt;Node2</title>
<g id="a_edge1_Node000001_Node000002"><a xlink:title=" ">
<path fill="none" stroke="#63b8ff" d="M56.66,-322.31C96.07,-338.67 179.6,-369.25 253.5,-369.25 253.5,-369.25 253.5,-369.25 385.12,-369.25 476.16,-369.25 578.8,-330.67 627.27,-309.99"/>
<polygon fill="#63b8ff" stroke="#63b8ff" points="628.42,-313.31 636.19,-306.11 625.63,-306.89 628.42,-313.31"/>
</a>
</g>
</g>
<!-- Node3 -->
<g id="Node000003" class="node">
<title>Node3</title>
<g id="a_Node000003"><a xlink:href="class_t_c_p_d_f___p_a_r_s_e_r.html#a18f9139dc1d82e413d7ce0d11342af98" target="_top" xlink:title=" ">
<polygon fill="white" stroke="#666666" points="170,-321.88 101.5,-321.88 101.5,-302.62 170,-302.62 170,-321.88"/>
<text text-anchor="middle" x="135.75" y="-308.38" font-family="Helvetica,sans-Serif" font-size="10.00">getXrefData</text>
</a>
</g>
</g>
<!-- Node1&#45;&gt;Node3 -->
<g id="edge2_Node000001_Node000003" class="edge">
<title>Node1&#45;&gt;Node3</title>
<g id="a_edge2_Node000001_Node000003"><a xlink:title=" ">
<path fill="none" stroke="#63b8ff" d="M65.98,-305.91C73.51,-305.56 81.66,-305.43 89.63,-305.53"/>
<polygon fill="#63b8ff" stroke="#63b8ff" points="89.48,-309.03 99.57,-305.8 89.67,-302.03 89.48,-309.03"/>
</a>
</g>
</g>
<!-- Node3&#45;&gt;Node1 -->
<g id="edge3_Node000003_Node000001" class="edge">
<title>Node3&#45;&gt;Node1</title>
<g id="a_edge3_Node000003_Node000001"><a xlink:title=" ">
<path fill="none" stroke="#63b8ff" d="M101.08,-318.66C93.48,-318.98 85.31,-319.07 77.36,-318.94"/>
<polygon fill="#63b8ff" stroke="#63b8ff" points="77.6,-315.45 67.5,-318.64 77.38,-322.45 77.6,-315.45"/>
</a>
</g>
</g>
<!-- Node3&#45;&gt;Node2 -->
<g id="edge29_Node000003_Node000002" class="edge">
<title>Node3&#45;&gt;Node2</title>
<g id="a_edge29_Node000003_Node000002"><a xlink:title=" ">
<path fill="none" stroke="#63b8ff" d="M170.33,-313.2C240.08,-314.9 405.66,-317.57 544.25,-309.25 572.23,-307.57 604.01,-303.97 626.42,-301.15"/>
<polygon fill="#63b8ff" stroke="#63b8ff" points="626.85,-304.63 636.32,-299.88 625.95,-297.68 626.85,-304.63"/>
</a>
</g>
</g>
<!-- Node4 -->
<g id="Node000004" class="node">
<title>Node4</title>
<g id="a_Node000004"><a xlink:href="class_t_c_p_d_f___p_a_r_s_e_r.html#a74a0a9b9b886f14c4494b859c9bfbeb5" target="_top" xlink:title=" ">
<polygon fill="white" stroke="#666666" points="303,-302.88 206,-302.88 206,-283.62 303,-283.62 303,-302.88"/>
<text text-anchor="middle" x="254.5" y="-289.38" font-family="Helvetica,sans-Serif" font-size="10.00">decodeXrefStream</text>
</a>
</g>
</g>
<!-- Node3&#45;&gt;Node4 -->
<g id="edge4_Node000003_Node000004" class="edge">
<title>Node3&#45;&gt;Node4</title>
<g id="a_edge4_Node000003_Node000004"><a xlink:title=" ">
<path fill="none" stroke="#63b8ff" d="M163.24,-302.18C172.53,-300.02 183.37,-297.93 194.25,-296.14"/>
<polygon fill="#63b8ff" stroke="#63b8ff" points="194.7,-299.62 204.05,-294.63 193.63,-292.7 194.7,-299.62"/>
</a>
</g>
</g>
<!-- Node4&#45;&gt;Node2 -->
<g id="edge5_Node000004_Node000002" class="edge">
<title>Node4&#45;&gt;Node2</title>
<g id="a_edge5_Node000004_Node000002"><a xlink:title=" ">
<path fill="none" stroke="#63b8ff" d="M303.35,-293.73C387.27,-294.57 558.54,-296.28 626.64,-296.96"/>
<polygon fill="#63b8ff" stroke="#63b8ff" points="626.2,-300.46 636.24,-297.06 626.27,-293.46 626.2,-300.46"/>
</a>
</g>
</g>
<!-- Node4&#45;&gt;Node3 -->
<g id="edge28_Node000004_Node000003" class="edge">
<title>Node4&#45;&gt;Node3</title>
<g id="a_edge28_Node000004_Node000003"><a xlink:title=" ">
<path fill="none" stroke="#63b8ff" d="M227.08,-303.3C213.66,-306.42 196.98,-309.41 181.62,-311.53"/>
<polygon fill="#63b8ff" stroke="#63b8ff" points="181.19,-308.06 171.71,-312.79 182.07,-315.01 181.19,-308.06"/>
</a>
</g>
</g>
<!-- Node5 -->
<g id="Node000005" class="node">
<title>Node5</title>
<g id="a_Node000005"><a xlink:href="class_t_c_p_d_f___p_a_r_s_e_r.html#a860f751de94edf46cde5de49f1d08c74" target="_top" xlink:title=" ">
<polygon fill="white" stroke="#666666" points="429.25,-226.88 339,-226.88 339,-207.62 429.25,-207.62 429.25,-226.88"/>
<text text-anchor="middle" x="384.12" y="-213.38" font-family="Helvetica,sans-Serif" font-size="10.00">getIndirectObject</text>
</a>
</g>
</g>
<!-- Node4&#45;&gt;Node5 -->
<g id="edge6_Node000004_Node000005" class="edge">
<title>Node4&#45;&gt;Node5</title>
<g id="a_edge6_Node000004_Node000005"><a xlink:title=" ">
<path fill="none" stroke="#63b8ff" d="M272.45,-283.16C294.02,-270.31 331.52,-247.98 356.82,-232.91"/>
<polygon fill="#63b8ff" stroke="#63b8ff" points="358.41,-236.04 365.21,-227.92 354.83,-230.03 358.41,-236.04"/>
</a>
</g>
</g>
<!-- Node21 -->
<g id="Node000021" class="node">
<title>Node21</title>
<g id="a_Node000021"><a xlink:href="class_t_c_p_d_f___p_a_r_s_e_r.html#a06fd3e69525e4ebf84ac5a0d34322389" target="_top" xlink:title=" ">
<polygon fill="white" stroke="#666666" points="543.88,-132.88 465.62,-132.88 465.62,-113.62 543.88,-113.62 543.88,-132.88"/>
<text text-anchor="middle" x="504.75" y="-119.38" font-family="Helvetica,sans-Serif" font-size="10.00">getRawObject</text>
</a>
</g>
</g>
<!-- Node4&#45;&gt;Node21 -->
<g id="edge27_Node000004_Node000021" class="edge">
<title>Node4&#45;&gt;Node21</title>
<g id="a_edge27_Node000004_Node000021"><a xlink:title=" ">
<path fill="none" stroke="#63b8ff" d="M262,-283.41C274.79,-264.68 304.97,-223.51 339,-198.25 376.46,-170.45 425.87,-149.67 460.77,-137.12"/>
<polygon fill="#63b8ff" stroke="#63b8ff" points="461.86,-140.45 470.14,-133.84 459.54,-133.84 461.86,-140.45"/>
</a>
</g>
</g>
<!-- Node5&#45;&gt;Node2 -->
<g id="edge24_Node000005_Node000002" class="edge">
<title>Node5&#45;&gt;Node2</title>
<g id="a_edge24_Node000005_Node000002"><a xlink:title=" ">
<path fill="none" stroke="#63b8ff" d="M414.35,-227.27C452.33,-240.12 520.83,-262.73 580.25,-279.25 595.52,-283.5 612.69,-287.65 626.78,-290.9"/>
<polygon fill="#63b8ff" stroke="#63b8ff" points="625.77,-294.26 636.29,-293.06 627.32,-287.43 625.77,-294.26"/>
</a>
</g>
</g>
<!-- Node6 -->
<g id="Node000006" class="node">
<title>Node6</title>
<g id="a_Node000006"><a xlink:href="class_t_c_p_d_f___p_a_r_s_e_r.html#a2d9d1a14e8f6d57d28aaabc3a238f077" target="_top" xlink:title=" ">
<polygon fill="white" stroke="#666666" points="544.25,-226.88 465.25,-226.88 465.25,-207.62 544.25,-207.62 544.25,-226.88"/>
<text text-anchor="middle" x="504.75" y="-213.38" font-family="Helvetica,sans-Serif" font-size="10.00">decodeStream</text>
</a>
</g>
</g>
<!-- Node5&#45;&gt;Node6 -->
<g id="edge7_Node000005_Node000006" class="edge">
<title>Node5&#45;&gt;Node6</title>
<g id="a_edge7_Node000005_Node000006"><a xlink:title=" ">
<path fill="none" stroke="#63b8ff" d="M429.63,-217.25C437.41,-217.25 445.54,-217.25 453.46,-217.25"/>
<polygon fill="#63b8ff" stroke="#63b8ff" points="453.32,-220.75 463.32,-217.25 453.32,-213.75 453.32,-220.75"/>
</a>
</g>
</g>
<!-- Node5&#45;&gt;Node21 -->
<g id="edge25_Node000005_Node000021" class="edge">
<title>Node5&#45;&gt;Node21</title>
<g id="a_edge25_Node000005_Node000021"><a xlink:title=" ">
<path fill="none" stroke="#63b8ff" d="M397.82,-207.19C417.98,-191.22 457.54,-159.87 482.19,-140.33"/>
<polygon fill="#63b8ff" stroke="#63b8ff" points="484.3,-143.13 489.96,-134.18 479.95,-137.64 484.3,-143.13"/>
</a>
</g>
</g>
<!-- Node6&#45;&gt;Node2 -->
<g id="edge20_Node000006_Node000002" class="edge">
<title>Node6&#45;&gt;Node2</title>
<g id="a_edge20_Node000006_Node000002"><a xlink:title=" ">
<path fill="none" stroke="#63b8ff" d="M524.03,-227.34C530.65,-231.33 538.03,-236.17 544.25,-241.25 562.27,-255.97 560.1,-267.62 580.25,-279.25 594.39,-287.41 612.06,-291.88 626.72,-294.32"/>
<polygon fill="#63b8ff" stroke="#63b8ff" points="625.82,-297.73 636.21,-295.67 626.8,-290.8 625.82,-297.73"/>
</a>
</g>
</g>
<!-- Node7 -->
<g id="Node000007" class="node">
<title>Node7</title>
<g id="a_Node000007"><a xlink:href="class_t_c_p_d_f___f_i_l_t_e_r_s.html#a7e7b32fcc7fcb78f3ad6ed7d1bfad1bc" target="_top" xlink:title=" ">
<polygon fill="white" stroke="#666666" points="732.75,-269.88 580.25,-269.88 580.25,-250.62 732.75,-250.62 732.75,-269.88"/>
<text text-anchor="middle" x="656.5" y="-256.38" font-family="Helvetica,sans-Serif" font-size="10.00">TCPDF_FILTERS\decodeFilter</text>
</a>
</g>
</g>
<!-- Node6&#45;&gt;Node7 -->
<g id="edge8_Node000006_Node000007" class="edge">
<title>Node6&#45;&gt;Node7</title>
<g id="a_edge8_Node000006_Node000007"><a xlink:title=" ">
<path fill="none" stroke="#63b8ff" d="M535.34,-227.27C548.96,-231.75 565.36,-236.98 580.25,-241.25 587.47,-243.32 595.12,-245.39 602.66,-247.37"/>
<polygon fill="#63b8ff" stroke="#63b8ff" points="601.56,-250.7 612.11,-249.8 603.3,-243.92 601.56,-250.7"/>
</a>
</g>
</g>
<!-- Node19 -->
<g id="Node000019" class="node">
<title>Node19</title>
<g id="a_Node000019"><a xlink:href="class_t_c_p_d_f___f_i_l_t_e_r_s.html#a3ddb7c305e2f1e11a2f867db7e42671e" target="_top" xlink:title=" ">
<polygon fill="white" stroke="#666666" points="732.75,-232.5 580.25,-232.5 580.25,-202 732.75,-202 732.75,-232.5"/>
<text text-anchor="start" x="588.25" y="-219" font-family="Helvetica,sans-Serif" font-size="10.00">TCPDF_FILTERS\getAvailable</text>
<text text-anchor="middle" x="656.5" y="-207.75" font-family="Helvetica,sans-Serif" font-size="10.00">Filters</text>
</a>
</g>
</g>
<!-- Node6&#45;&gt;Node19 -->
<g id="edge21_Node000006_Node000019" class="edge">
<title>Node6&#45;&gt;Node19</title>
<g id="a_edge21_Node000006_Node000019"><a xlink:title=" ">
<path fill="none" stroke="#63b8ff" d="M544.7,-217.25C552.15,-217.25 560.22,-217.25 568.49,-217.25"/>
<polygon fill="#63b8ff" stroke="#63b8ff" points="568.34,-220.75 578.34,-217.25 568.34,-213.75 568.34,-220.75"/>
</a>
</g>
</g>
<!-- Node20 -->
<g id="Node000020" class="node">
<title>Node20</title>
<g id="a_Node000020"><a xlink:href="class_t_c_p_d_f___p_a_r_s_e_r.html#ac2c9cc0b7dca1fcc5ed9d94b8f979d58" target="_top" xlink:title=" ">
<polygon fill="white" stroke="#666666" points="692.25,-183.88 620.75,-183.88 620.75,-164.62 692.25,-164.62 692.25,-183.88"/>
<text text-anchor="middle" x="656.5" y="-170.38" font-family="Helvetica,sans-Serif" font-size="10.00">getObjectVal</text>
</a>
</g>
</g>
<!-- Node6&#45;&gt;Node20 -->
<g id="edge22_Node000006_Node000020" class="edge">
<title>Node6&#45;&gt;Node20</title>
<g id="a_edge22_Node000006_Node000020"><a xlink:title=" ">
<path fill="none" stroke="#63b8ff" d="M535.34,-207.23C548.96,-202.75 565.36,-197.52 580.25,-193.25 589.65,-190.55 599.77,-187.86 609.45,-185.38"/>
<polygon fill="#63b8ff" stroke="#63b8ff" points="610.22,-188.79 619.07,-182.95 608.51,-182 610.22,-188.79"/>
</a>
</g>
</g>
<!-- Node8 -->
<g id="Node000008" class="node">
<title>Node8</title>
<g id="a_Node000008"><a xlink:href="class_t_c_p_d_f___f_i_l_t_e_r_s.html#abd5687e1c93431e5d54dce1acfcede87" target="_top" xlink:title=" ">
<polygon fill="white" stroke="#666666" points="921.25,-520.5 768.75,-520.5 768.75,-490 921.25,-490 921.25,-520.5"/>
<text text-anchor="start" x="776.75" y="-507" font-family="Helvetica,sans-Serif" font-size="10.00">TCPDF_FILTERS\decodeFilter</text>
<text text-anchor="middle" x="845" y="-495.75" font-family="Helvetica,sans-Serif" font-size="10.00">ASCII85Decode</text>
</a>
</g>
</g>
<!-- Node7&#45;&gt;Node8 -->
<g id="edge9_Node000007_Node000008" class="edge">
<title>Node7&#45;&gt;Node8</title>
<g id="a_edge9_Node000007_Node000008"><a xlink:title=" ">
<path fill="none" stroke="#63b8ff" d="M722.74,-270.29C726.41,-272.5 729.8,-275.12 732.75,-278.25 795.32,-344.59 709.09,-411.28 768.75,-480.25 769.44,-481.05 770.16,-481.82 770.89,-482.57"/>
<polygon fill="#63b8ff" stroke="#63b8ff" points="768.49,-485.12 778.46,-488.72 772.91,-479.69 768.49,-485.12"/>
</a>
</g>
</g>
<!-- Node9 -->
<g id="Node000009" class="node">
<title>Node9</title>
<g id="a_Node000009"><a xlink:href="class_t_c_p_d_f___f_i_l_t_e_r_s.html#a21a7e761faa72e1e2b9c97ad6f02af19" target="_top" xlink:title=" ">
<polygon fill="white" stroke="#666666" points="921.25,-471.5 768.75,-471.5 768.75,-441 921.25,-441 921.25,-471.5"/>
<text text-anchor="start" x="776.75" y="-458" font-family="Helvetica,sans-Serif" font-size="10.00">TCPDF_FILTERS\decodeFilter</text>
<text text-anchor="middle" x="845" y="-446.75" font-family="Helvetica,sans-Serif" font-size="10.00">ASCIIHexDecode</text>
</a>
</g>
</g>
<!-- Node7&#45;&gt;Node9 -->
<g id="edge10_Node000007_Node000009" class="edge">
<title>Node7&#45;&gt;Node9</title>
<g id="a_edge10_Node000007_Node000009"><a xlink:title=" ">
<path fill="none" stroke="#63b8ff" d="M722.2,-270.28C726.05,-272.48 729.62,-275.11 732.75,-278.25 782.05,-327.74 721.62,-379.69 768.75,-431.25 769.59,-432.16 770.46,-433.05 771.36,-433.89"/>
<polygon fill="#63b8ff" stroke="#63b8ff" points="768.94,-436.45 779,-439.78 773.21,-430.9 768.94,-436.45"/>
</a>
</g>
</g>
<!-- Node10 -->
<g id="Node000010" class="node">
<title>Node10</title>
<g id="a_Node000010"><a xlink:href="class_t_c_p_d_f___f_i_l_t_e_r_s.html#aed391f37c42f980dc72345ef295526ab" target="_top" xlink:title=" ">
<polygon fill="white" stroke="#666666" points="921.25,-422.5 768.75,-422.5 768.75,-392 921.25,-392 921.25,-422.5"/>
<text text-anchor="start" x="776.75" y="-409" font-family="Helvetica,sans-Serif" font-size="10.00">TCPDF_FILTERS\decodeFilter</text>
<text text-anchor="middle" x="845" y="-397.75" font-family="Helvetica,sans-Serif" font-size="10.00">CCITTFaxDecode</text>
</a>
</g>
</g>
<!-- Node7&#45;&gt;Node10 -->
<g id="edge11_Node000007_Node000010" class="edge">
<title>Node7&#45;&gt;Node10</title>
<g id="a_edge11_Node000007_Node000010"><a xlink:title=" ">
<path fill="none" stroke="#63b8ff" d="M721.13,-270.27C725.33,-272.46 729.27,-275.09 732.75,-278.25 769,-311.09 733.95,-347.88 768.75,-382.25 769.77,-383.26 770.83,-384.22 771.93,-385.15"/>
<polygon fill="#63b8ff" stroke="#63b8ff" points="769.54,-387.75 779.73,-390.65 773.57,-382.03 769.54,-387.75"/>
</a>
</g>
</g>
<!-- Node11 -->
<g id="Node000011" class="node">
<title>Node11</title>
<g id="a_Node000011"><a xlink:href="class_t_c_p_d_f___f_i_l_t_e_r_s.html#a51df42092ba860246177e91865a64ae2" target="_top" xlink:title=" ">
<polygon fill="white" stroke="#666666" points="921.25,-373.5 768.75,-373.5 768.75,-343 921.25,-343 921.25,-373.5"/>
<text text-anchor="start" x="776.75" y="-360" font-family="Helvetica,sans-Serif" font-size="10.00">TCPDF_FILTERS\decodeFilter</text>
<text text-anchor="middle" x="845" y="-348.75" font-family="Helvetica,sans-Serif" font-size="10.00">Crypt</text>
</a>
</g>
</g>
<!-- Node7&#45;&gt;Node11 -->
<g id="edge12_Node000007_Node000011" class="edge">
<title>Node7&#45;&gt;Node11</title>
<g id="a_edge12_Node000007_Node000011"><a xlink:title=" ">
<path fill="none" stroke="#63b8ff" d="M718.05,-270.31C723.25,-272.47 728.25,-275.08 732.75,-278.25 756.65,-295.06 745.6,-315.43 768.75,-333.25 770.51,-334.6 772.35,-335.89 774.24,-337.1"/>
<polygon fill="#63b8ff" stroke="#63b8ff" points="772.39,-340.08 782.83,-341.89 775.8,-333.96 772.39,-340.08"/>
</a>
</g>
</g>
<!-- Node12 -->
<g id="Node000012" class="node">
<title>Node12</title>
<g id="a_Node000012"><a xlink:href="class_t_c_p_d_f___f_i_l_t_e_r_s.html#a046b2c3ce43a0378a5f00cc6dfbbfe3a" target="_top" xlink:title=" ">
<polygon fill="white" stroke="#666666" points="921.25,-324.5 768.75,-324.5 768.75,-294 921.25,-294 921.25,-324.5"/>
<text text-anchor="start" x="776.75" y="-311" font-family="Helvetica,sans-Serif" font-size="10.00">TCPDF_FILTERS\decodeFilter</text>
<text text-anchor="middle" x="845" y="-299.75" font-family="Helvetica,sans-Serif" font-size="10.00">DCTDecode</text>
</a>
</g>
</g>
<!-- Node7&#45;&gt;Node12 -->
<g id="edge13_Node000007_Node000012" class="edge">
<title>Node7&#45;&gt;Node12</title>
<g id="a_edge13_Node000007_Node000012"><a xlink:title=" ">
<path fill="none" stroke="#63b8ff" d="M700.94,-270.35C711.38,-272.86 722.48,-275.59 732.75,-278.25 747.59,-282.09 763.49,-286.4 778.48,-290.56"/>
<polygon fill="#63b8ff" stroke="#63b8ff" points="777.19,-293.83 787.76,-293.15 779.07,-287.09 777.19,-293.83"/>
</a>
</g>
</g>
<!-- Node13 -->
<g id="Node000013" class="node">
<title>Node13</title>
<g id="a_Node000013"><a xlink:href="class_t_c_p_d_f___f_i_l_t_e_r_s.html#a035fdb6b6187c0c96de3e6913e5aedbf" target="_top" xlink:title=" ">
<polygon fill="white" stroke="#666666" points="921.25,-275.5 768.75,-275.5 768.75,-245 921.25,-245 921.25,-275.5"/>
<text text-anchor="start" x="776.75" y="-262" font-family="Helvetica,sans-Serif" font-size="10.00">TCPDF_FILTERS\decodeFilter</text>
<text text-anchor="middle" x="845" y="-250.75" font-family="Helvetica,sans-Serif" font-size="10.00">FlateDecode</text>
</a>
</g>
</g>
<!-- Node7&#45;&gt;Node13 -->
<g id="edge14_Node000007_Node000013" class="edge">
<title>Node7&#45;&gt;Node13</title>
<g id="a_edge14_Node000007_Node000013"><a xlink:title=" ">
<path fill="none" stroke="#63b8ff" d="M733.09,-260.25C740.98,-260.25 749.05,-260.25 757.05,-260.25"/>
<polygon fill="#63b8ff" stroke="#63b8ff" points="756.79,-263.75 766.79,-260.25 756.79,-256.75 756.79,-263.75"/>
</a>
</g>
</g>
<!-- Node14 -->
<g id="Node000014" class="node">
<title>Node14</title>
<g id="a_Node000014"><a xlink:href="class_t_c_p_d_f___f_i_l_t_e_r_s.html#a4e7046190a02fb9612c341d795bab053" target="_top" xlink:title=" ">
<polygon fill="white" stroke="#666666" points="921.25,-226.5 768.75,-226.5 768.75,-196 921.25,-196 921.25,-226.5"/>
<text text-anchor="start" x="776.75" y="-213" font-family="Helvetica,sans-Serif" font-size="10.00">TCPDF_FILTERS\decodeFilter</text>
<text text-anchor="middle" x="845" y="-201.75" font-family="Helvetica,sans-Serif" font-size="10.00">JBIG2Decode</text>
</a>
</g>
</g>
<!-- Node7&#45;&gt;Node14 -->
<g id="edge15_Node000007_Node000014" class="edge">
<title>Node7&#45;&gt;Node14</title>
<g id="a_edge15_Node000007_Node000014"><a xlink:title=" ">
<path fill="none" stroke="#63b8ff" d="M697.76,-250.21C709.08,-247.35 721.41,-244.21 732.75,-241.25 746.5,-237.66 761.18,-233.76 775.21,-229.98"/>
<polygon fill="#63b8ff" stroke="#63b8ff" points="776.1,-233.37 784.84,-227.39 774.28,-226.61 776.1,-233.37"/>
</a>
</g>
</g>
<!-- Node15 -->
<g id="Node000015" class="node">
<title>Node15</title>
<g id="a_Node000015"><a xlink:href="class_t_c_p_d_f___f_i_l_t_e_r_s.html#a25fb041645c9112105fb4f6806a04606" target="_top" xlink:title=" ">
<polygon fill="white" stroke="#666666" points="921.25,-177.5 768.75,-177.5 768.75,-147 921.25,-147 921.25,-177.5"/>
<text text-anchor="start" x="776.75" y="-164" font-family="Helvetica,sans-Serif" font-size="10.00">TCPDF_FILTERS\decodeFilter</text>
<text text-anchor="middle" x="845" y="-152.75" font-family="Helvetica,sans-Serif" font-size="10.00">JPXDecode</text>
</a>
</g>
</g>
<!-- Node7&#45;&gt;Node15 -->
<g id="edge16_Node000007_Node000015" class="edge">
<title>Node7&#45;&gt;Node15</title>
<g id="a_edge16_Node000007_Node000015"><a xlink:title=" ">
<path fill="none" stroke="#63b8ff" d="M715.73,-250.24C721.77,-247.86 727.58,-244.9 732.75,-241.25 756.31,-224.61 745.82,-204.75 768.75,-187.25 770.51,-185.9 772.36,-184.63 774.26,-183.42"/>
<polygon fill="#63b8ff" stroke="#63b8ff" points="775.81,-186.56 782.86,-178.65 772.41,-180.44 775.81,-186.56"/>
</a>
</g>
</g>
<!-- Node16 -->
<g id="Node000016" class="node">
<title>Node16</title>
<g id="a_Node000016"><a xlink:href="class_t_c_p_d_f___f_i_l_t_e_r_s.html#a01cbcf53e3c75df57d4393733de15982" target="_top" xlink:title=" ">
<polygon fill="white" stroke="#666666" points="921.25,-128.5 768.75,-128.5 768.75,-98 921.25,-98 921.25,-128.5"/>
<text text-anchor="start" x="776.75" y="-115" font-family="Helvetica,sans-Serif" font-size="10.00">TCPDF_FILTERS\decodeFilter</text>
<text text-anchor="middle" x="845" y="-103.75" font-family="Helvetica,sans-Serif" font-size="10.00">LZWDecode</text>
</a>
</g>
</g>
<!-- Node7&#45;&gt;Node16 -->
<g id="edge17_Node000007_Node000016" class="edge">
<title>Node7&#45;&gt;Node16</title>
<g id="a_edge17_Node000007_Node000016"><a xlink:title=" ">
<path fill="none" stroke="#63b8ff" d="M719.32,-250.27C724.2,-247.85 728.77,-244.89 732.75,-241.25 768.53,-208.52 734.2,-172.27 768.75,-138.25 769.77,-137.24 770.83,-136.28 771.93,-135.35"/>
<polygon fill="#63b8ff" stroke="#63b8ff" points="773.58,-138.48 779.74,-129.86 769.55,-132.75 773.58,-138.48"/>
</a>
</g>
</g>
<!-- Node17 -->
<g id="Node000017" class="node">
<title>Node17</title>
<g id="a_Node000017"><a xlink:href="class_t_c_p_d_f___f_i_l_t_e_r_s.html#af8af96beb059b1c2b9a7c6a9ae2fa7c8" target="_top" xlink:title=" ">
<polygon fill="white" stroke="#666666" points="921.25,-79.5 768.75,-79.5 768.75,-49 921.25,-49 921.25,-79.5"/>
<text text-anchor="start" x="776.75" y="-66" font-family="Helvetica,sans-Serif" font-size="10.00">TCPDF_FILTERS\decodeFilter</text>
<text text-anchor="middle" x="845" y="-54.75" font-family="Helvetica,sans-Serif" font-size="10.00">RunLengthDecode</text>
</a>
</g>
</g>
<!-- Node7&#45;&gt;Node17 -->
<g id="edge18_Node000007_Node000017" class="edge">
<title>Node7&#45;&gt;Node17</title>
<g id="a_edge18_Node000007_Node000017"><a xlink:title=" ">
<path fill="none" stroke="#63b8ff" d="M720.45,-250.32C724.97,-247.88 729.16,-244.9 732.75,-241.25 781.48,-191.8 721.87,-140.46 768.75,-89.25 769.59,-88.34 770.46,-87.46 771.36,-86.61"/>
<polygon fill="#63b8ff" stroke="#63b8ff" points="773.21,-89.6 779.01,-80.73 768.95,-84.05 773.21,-89.6"/>
</a>
</g>
</g>
<!-- Node18 -->
<g id="Node000018" class="node">
<title>Node18</title>
<g id="a_Node000018"><a xlink:href="class_t_c_p_d_f___f_i_l_t_e_r_s.html#a915b7e15970ef51a8433563a0cb3c187" target="_top" xlink:title=" ">
<polygon fill="white" stroke="#666666" points="921.25,-30.5 768.75,-30.5 768.75,0 921.25,0 921.25,-30.5"/>
<text text-anchor="start" x="776.75" y="-17" font-family="Helvetica,sans-Serif" font-size="10.00">TCPDF_FILTERS\decodeFilter</text>
<text text-anchor="middle" x="845" y="-5.75" font-family="Helvetica,sans-Serif" font-size="10.00">Standard</text>
</a>
</g>
</g>
<!-- Node7&#45;&gt;Node18 -->
<g id="edge19_Node000007_Node000018" class="edge">
<title>Node7&#45;&gt;Node18</title>
<g id="a_edge19_Node000007_Node000018"><a xlink:title=" ">
<path fill="none" stroke="#63b8ff" d="M721.38,-250.13C725.58,-247.72 729.44,-244.8 732.75,-241.25 794.64,-174.87 709.34,-108.86 768.75,-40.25 769.44,-39.45 770.16,-38.68 770.9,-37.93"/>
<polygon fill="#63b8ff" stroke="#63b8ff" points="772.91,-40.81 778.46,-31.79 768.49,-35.38 772.91,-40.81"/>
</a>
</g>
</g>
<!-- Node20&#45;&gt;Node5 -->
<g id="edge23_Node000020_Node000005" class="edge">
<title>Node20&#45;&gt;Node5</title>
<g id="a_edge23_Node000020_Node000005"><a xlink:title=" ">
<path fill="none" stroke="#63b8ff" d="M620.26,-177.55C581.94,-181.41 518.97,-188.52 465.25,-198.25 455.44,-200.03 445.02,-202.25 435.07,-204.53"/>
<polygon fill="#63b8ff" stroke="#63b8ff" points="434.47,-201.08 425.55,-206.78 436.08,-207.89 434.47,-201.08"/>
</a>
</g>
</g>
<!-- Node21&#45;&gt;Node21 -->
<g id="edge26_Node000021_Node000021" class="edge">
<title>Node21&#45;&gt;Node21</title>
<g id="a_edge26_Node000021_Node000021"><a xlink:title=" ">
<path fill="none" stroke="#63b8ff" d="M485.87,-133.16C477.25,-141.77 483.55,-150.88 504.75,-150.88 516.35,-150.88 523.48,-148.15 526.16,-144.28"/>
<polygon fill="#63b8ff" stroke="#63b8ff" points="529.6,-143.61 523.97,-134.64 522.77,-145.17 529.6,-143.61"/>
</a>
</g>
</g>
</g>
</svg>
