<?xml version="1.0" encoding="UTF-8" standalone="no"?>
<!DOCTYPE svg PUBLIC "-//W3C//DTD SVG 1.1//EN"
 "http://www.w3.org/Graphics/SVG/1.1/DTD/svg11.dtd">
<!-- Generated by graphviz version 10.0.1 (20240210.2158)
 -->
<!-- Title: File Pages: 1 -->
<svg width="155pt" height="453pt"
 viewBox="0.00 0.00 155.00 453.00" xmlns="http://www.w3.org/2000/svg" xmlns:xlink="http://www.w3.org/1999/xlink">
<g id="graph0" class="graph" transform="scale(1 1) rotate(0) translate(4 449)">
<title>File</title>
<!-- Node1 -->
<g id="Node000001" class="node">
<title>Node1</title>
<g id="a_Node000001"><a xlink:title=" ">
<polygon fill="#999999" stroke="none" points="132.5,-101 14.5,-101 14.5,0 132.5,0 132.5,-101"/>
<text text-anchor="start" x="65.62" y="-87.5" font-family="Helvetica,sans-Serif" font-size="10.00">File</text>
<text text-anchor="start" x="18.88" y="-72.5" font-family="Helvetica,sans-Serif" font-size="10.00">#</text>
<text text-anchor="start" x="28.5" y="-72.5" font-family="Helvetica,sans-Serif" font-size="10.00">$users</text>
<text text-anchor="start" x="18.5" y="-57.5" font-family="Helvetica,sans-Serif" font-size="10.00">+</text>
<text text-anchor="start" x="28.5" y="-57.5" font-family="Helvetica,sans-Serif" font-size="10.00">__construct($filename</text>
<text text-anchor="start" x="28.5" y="-46.25" font-family="Helvetica,sans-Serif" font-size="10.00">=null)</text>
<text text-anchor="start" x="18.5" y="-31.5" font-family="Helvetica,sans-Serif" font-size="10.00">+</text>
<text text-anchor="start" x="28.5" y="-31.5" font-family="Helvetica,sans-Serif" font-size="10.00">loadFile($filename)</text>
<text text-anchor="start" x="18.5" y="-16.5" font-family="Helvetica,sans-Serif" font-size="10.00">+</text>
<text text-anchor="start" x="28.5" y="-16.5" font-family="Helvetica,sans-Serif" font-size="10.00">getDigestHash($realm,</text>
<text text-anchor="start" x="28.5" y="-5.25" font-family="Helvetica,sans-Serif" font-size="10.00"> $username)</text>
<polygon fill="#666666" stroke="#666666" points="14.5,-84 14.5,-84 132.5,-84 132.5,-84 14.5,-84"/>
<polygon fill="#666666" stroke="#666666" points="14.5,-69 14.5,-69 26.5,-69 26.5,-69 14.5,-69"/>
<polygon fill="#666666" stroke="#666666" points="26.5,-69 26.5,-69 132.5,-69 132.5,-69 26.5,-69"/>
<polygon fill="none" stroke="#666666" points="14.5,0 14.5,-101 132.5,-101 132.5,0 14.5,0"/>
</a>
</g>
</g>
<!-- Node2 -->
<g id="Node000002" class="node">
<title>Node2</title>
<g id="a_Node000002"><a xlink:href="class_sabre_1_1_d_a_v_1_1_auth_1_1_backend_1_1_abstract_digest.html" target="_top" xlink:title=" ">
<polygon fill="white" stroke="none" points="147,-301 0,-301 0,-137 147,-137 147,-301"/>
<text text-anchor="start" x="40.88" y="-287.5" font-family="Helvetica,sans-Serif" font-size="10.00">AbstractDigest</text>
<text text-anchor="start" x="4.38" y="-272.5" font-family="Helvetica,sans-Serif" font-size="10.00">#</text>
<text text-anchor="start" x="14" y="-272.5" font-family="Helvetica,sans-Serif" font-size="10.00">$realm</text>
<text text-anchor="start" x="4.38" y="-257.5" font-family="Helvetica,sans-Serif" font-size="10.00">#</text>
<text text-anchor="start" x="14" y="-257.5" font-family="Helvetica,sans-Serif" font-size="10.00">$principalPrefix</text>
<text text-anchor="start" x="4" y="-242.5" font-family="Helvetica,sans-Serif" font-size="10.00">+</text>
<text text-anchor="start" x="14" y="-242.5" font-family="Helvetica,sans-Serif" font-size="10.00">setRealm($realm)</text>
<text text-anchor="start" x="4" y="-227.5" font-family="Helvetica,sans-Serif" font-size="10.00">+</text>
<text text-anchor="start" x="14" y="-227.5" font-family="Helvetica,sans-Serif" font-size="10.00">getDigestHash($realm,</text>
<text text-anchor="start" x="14" y="-216.25" font-family="Helvetica,sans-Serif" font-size="10.00"> $username)</text>
<text text-anchor="start" x="4" y="-201.5" font-family="Helvetica,sans-Serif" font-size="10.00">+</text>
<text text-anchor="start" x="14" y="-201.5" font-family="Helvetica,sans-Serif" font-size="10.00">check(RequestInterface</text>
<text text-anchor="start" x="14" y="-190.25" font-family="Helvetica,sans-Serif" font-size="10.00"> $request, ResponseInterface</text>
<text text-anchor="start" x="14" y="-179" font-family="Helvetica,sans-Serif" font-size="10.00"> $response)</text>
<text text-anchor="start" x="4" y="-164.5" font-family="Helvetica,sans-Serif" font-size="10.00">+</text>
<text text-anchor="start" x="14" y="-164.5" font-family="Helvetica,sans-Serif" font-size="10.00">challenge(RequestInterface</text>
<text text-anchor="start" x="14" y="-153.25" font-family="Helvetica,sans-Serif" font-size="10.00"> $request, ResponseInterface</text>
<text text-anchor="start" x="14" y="-142" font-family="Helvetica,sans-Serif" font-size="10.00"> $response)</text>
<polygon fill="#666666" stroke="#666666" points="0,-284 0,-284 147,-284 147,-284 0,-284"/>
<polygon fill="#666666" stroke="#666666" points="0,-254 0,-254 12,-254 12,-254 0,-254"/>
<polygon fill="#666666" stroke="#666666" points="12,-254 12,-254 147,-254 147,-254 12,-254"/>
<polygon fill="none" stroke="#666666" points="0,-137 0,-301 147,-301 147,-137 0,-137"/>
</a>
</g>
</g>
<!-- Node2&#45;&gt;Node1 -->
<g id="edge1_Node000001_Node000002" class="edge">
<title>Node2&#45;&gt;Node1</title>
<g id="a_edge1_Node000001_Node000002"><a xlink:title=" ">
<path fill="none" stroke="#63b8ff" d="M73.5,-125.84C73.5,-117.24 73.5,-108.77 73.5,-100.8"/>
<polygon fill="none" stroke="#63b8ff" points="70,-125.68 73.5,-135.68 77,-125.68 70,-125.68"/>
</a>
</g>
</g>
<!-- Node3 -->
<g id="Node000003" class="node">
<title>Node3</title>
<g id="a_Node000003"><a xlink:href="interface_sabre_1_1_d_a_v_1_1_auth_1_1_backend_1_1_backend_interface.html" target="_top" xlink:title=" ">
<polygon fill="white" stroke="none" points="147,-445 0,-445 0,-337 147,-337 147,-445"/>
<text text-anchor="start" x="35.25" y="-431.5" font-family="Helvetica,sans-Serif" font-size="10.00">BackendInterface</text>
<text text-anchor="start" x="72" y="-416.5" font-family="Helvetica,sans-Serif" font-size="10.00"> </text>
<text text-anchor="start" x="4" y="-401.5" font-family="Helvetica,sans-Serif" font-size="10.00">+</text>
<text text-anchor="start" x="14" y="-401.5" font-family="Helvetica,sans-Serif" font-size="10.00">check(RequestInterface</text>
<text text-anchor="start" x="14" y="-390.25" font-family="Helvetica,sans-Serif" font-size="10.00"> $request, ResponseInterface</text>
<text text-anchor="start" x="14" y="-379" font-family="Helvetica,sans-Serif" font-size="10.00"> $response)</text>
<text text-anchor="start" x="4" y="-364.5" font-family="Helvetica,sans-Serif" font-size="10.00">+</text>
<text text-anchor="start" x="14" y="-364.5" font-family="Helvetica,sans-Serif" font-size="10.00">challenge(RequestInterface</text>
<text text-anchor="start" x="14" y="-353.25" font-family="Helvetica,sans-Serif" font-size="10.00"> $request, ResponseInterface</text>
<text text-anchor="start" x="14" y="-342" font-family="Helvetica,sans-Serif" font-size="10.00"> $response)</text>
<polygon fill="#666666" stroke="#666666" points="0,-428 0,-428 147,-428 147,-428 0,-428"/>
<polygon fill="#666666" stroke="#666666" points="0,-413 0,-413 147,-413 147,-413 0,-413"/>
<polygon fill="none" stroke="#666666" points="0,-337 0,-445 147,-445 147,-337 0,-337"/>
</a>
</g>
</g>
<!-- Node3&#45;&gt;Node2 -->
<g id="edge2_Node000002_Node000003" class="edge">
<title>Node3&#45;&gt;Node2</title>
<g id="a_edge2_Node000002_Node000003"><a xlink:title=" ">
<path fill="none" stroke="#63b8ff" d="M73.5,-325.84C73.5,-317.7 73.5,-309.28 73.5,-300.91"/>
<polygon fill="none" stroke="#63b8ff" points="70,-325.63 73.5,-335.63 77,-325.63 70,-325.63"/>
</a>
</g>
</g>
</g>
</svg>
