<?xml version="1.0" encoding="UTF-8" standalone="no"?>
<!DOCTYPE svg PUBLIC "-//W3C//DTD SVG 1.1//EN"
 "http://www.w3.org/Graphics/SVG/1.1/DTD/svg11.dtd">
<!-- Generated by graphviz version 10.0.1 (20240210.2158)
 -->
<!-- Title: registerAutoloadMap Pages: 1 -->
<svg width="462pt" height="27pt"
 viewBox="0.00 0.00 462.00 27.25" xmlns="http://www.w3.org/2000/svg" xmlns:xlink="http://www.w3.org/1999/xlink">
<g id="graph0" class="graph" transform="scale(1 1) rotate(0) translate(4 23.25)">
<title>registerAutoloadMap</title>
<!-- Node1 -->
<g id="Node000001" class="node">
<title>Node1</title>
<g id="a_Node000001"><a xlink:title=" ">
<polygon fill="#999999" stroke="#666666" points="454,-19.25 348.75,-19.25 348.75,0 454,0 454,-19.25"/>
<text text-anchor="middle" x="401.38" y="-5.75" font-family="Helvetica,sans-Serif" font-size="10.00">registerAutoloadMap</text>
</a>
</g>
</g>
<!-- Node2 -->
<g id="Node000002" class="node">
<title>Node2</title>
<g id="a_Node000002"><a xlink:href="class_laminas_1_1_loader_1_1_class_map_autoloader.html#a5af2ee1c0daa895e80152d8f9593e8ca" target="_top" xlink:title=" ">
<polygon fill="white" stroke="#666666" points="312.75,-19.25 202.25,-19.25 202.25,0 312.75,0 312.75,-19.25"/>
<text text-anchor="middle" x="257.5" y="-5.75" font-family="Helvetica,sans-Serif" font-size="10.00">registerAutoloadMaps</text>
</a>
</g>
</g>
<!-- Node1&#45;&gt;Node2 -->
<g id="edge1_Node000001_Node000002" class="edge">
<title>Node1&#45;&gt;Node2</title>
<g id="a_edge1_Node000001_Node000002"><a xlink:title=" ">
<path fill="none" stroke="#63b8ff" d="M337.08,-9.62C329.01,-9.62 320.81,-9.62 312.9,-9.62"/>
<polygon fill="#63b8ff" stroke="#63b8ff" points="336.84,-13.13 346.84,-9.63 336.84,-6.13 336.84,-13.13"/>
</a>
</g>
</g>
<!-- Node3 -->
<g id="Node000003" class="node">
<title>Node3</title>
<g id="a_Node000003"><a xlink:href="class_laminas_1_1_loader_1_1_class_map_autoloader.html#a8213e4c39213f7d6250f72ff6f2699f2" target="_top" xlink:title=" ">
<polygon fill="white" stroke="#666666" points="166.25,-19.25 103,-19.25 103,0 166.25,0 166.25,-19.25"/>
<text text-anchor="middle" x="134.62" y="-5.75" font-family="Helvetica,sans-Serif" font-size="10.00">setOptions</text>
</a>
</g>
</g>
<!-- Node2&#45;&gt;Node3 -->
<g id="edge2_Node000002_Node000003" class="edge">
<title>Node2&#45;&gt;Node3</title>
<g id="a_edge2_Node000002_Node000003"><a xlink:title=" ">
<path fill="none" stroke="#63b8ff" d="M190.64,-9.62C182.28,-9.62 174.05,-9.62 166.61,-9.62"/>
<polygon fill="#63b8ff" stroke="#63b8ff" points="190.56,-13.13 200.56,-9.63 190.56,-6.13 190.56,-13.13"/>
</a>
</g>
</g>
<!-- Node4 -->
<g id="Node000004" class="node">
<title>Node4</title>
<g id="a_Node000004"><a xlink:href="class_laminas_1_1_loader_1_1_class_map_autoloader.html#ae8cda3b1eced24bb5ffaab1fcb107cf7" target="_top" xlink:title=" ">
<polygon fill="white" stroke="#666666" points="67,-19.25 0,-19.25 0,0 67,0 67,-19.25"/>
<text text-anchor="middle" x="33.5" y="-5.75" font-family="Helvetica,sans-Serif" font-size="10.00">__construct</text>
</a>
</g>
</g>
<!-- Node3&#45;&gt;Node4 -->
<g id="edge3_Node000003_Node000004" class="edge">
<title>Node3&#45;&gt;Node4</title>
<g id="a_edge3_Node000003_Node000004"><a xlink:title=" ">
<path fill="none" stroke="#63b8ff" d="M91.09,-9.62C83.09,-9.62 74.84,-9.62 67.19,-9.62"/>
<polygon fill="#63b8ff" stroke="#63b8ff" points="91.02,-13.13 101.02,-9.63 91.02,-6.13 91.02,-13.13"/>
</a>
</g>
</g>
</g>
</svg>
