<?xml version="1.0" encoding="UTF-8" standalone="no"?>
<!DOCTYPE svg PUBLIC "-//W3C//DTD SVG 1.1//EN"
 "http://www.w3.org/Graphics/SVG/1.1/DTD/svg11.dtd">
<!-- Generated by graphviz version 10.0.1 (20240210.2158)
 -->
<!-- Title: canViewItem Pages: 1 -->
<svg width="472pt" height="138pt"
 viewBox="0.00 0.00 472.25 138.25" xmlns="http://www.w3.org/2000/svg" xmlns:xlink="http://www.w3.org/1999/xlink">
<g id="graph0" class="graph" transform="scale(1 1) rotate(0) translate(4 134.25)">
<title>canViewItem</title>
<!-- Node1 -->
<g id="Node000001" class="node">
<title>Node1</title>
<g id="a_Node000001"><a xlink:title=" ">
<polygon fill="#999999" stroke="#666666" points="73,-74.25 0,-74.25 0,-55 73,-55 73,-74.25"/>
<text text-anchor="middle" x="36.5" y="-60.75" font-family="Helvetica,sans-Serif" font-size="10.00">canViewItem</text>
</a>
</g>
</g>
<!-- Node2 -->
<g id="Node000002" class="node">
<title>Node2</title>
<g id="a_Node000002"><a xlink:href="class_common_d_b_t_m.html#a1ad0e84aef9bfb7fe28ac6fcafa1b14b" target="_top" xlink:title=" ">
<polygon fill="white" stroke="#666666" points="256.62,-130.25 119.88,-130.25 119.88,-111 256.62,-111 256.62,-130.25"/>
<text text-anchor="middle" x="188.25" y="-116.75" font-family="Helvetica,sans-Serif" font-size="10.00">CommonDBTM\getEntityID</text>
</a>
</g>
</g>
<!-- Node1&#45;&gt;Node2 -->
<g id="edge1_Node000001_Node000002" class="edge">
<title>Node1&#45;&gt;Node2</title>
<g id="a_edge1_Node000001_Node000002"><a xlink:title=" ">
<path fill="none" stroke="#63b8ff" d="M53.4,-74.64C67.53,-83.16 88.98,-95.15 109,-102.62 113.89,-104.45 119.01,-106.12 124.21,-107.65"/>
<polygon fill="#63b8ff" stroke="#63b8ff" points="122.88,-110.92 133.45,-110.2 124.74,-104.17 122.88,-110.92"/>
</a>
</g>
</g>
<!-- Node4 -->
<g id="Node000004" class="node">
<title>Node4</title>
<g id="a_Node000004"><a xlink:href="class_common_i_t_i_l_object.html#affc2fa9672c5d88b0d734721d6987997" target="_top" xlink:title=" ">
<polygon fill="white" stroke="#666666" points="267.5,-93.25 109,-93.25 109,-74 267.5,-74 267.5,-93.25"/>
<text text-anchor="middle" x="188.25" y="-79.75" font-family="Helvetica,sans-Serif" font-size="10.00">CommonITILObject\haveAGroup</text>
</a>
</g>
</g>
<!-- Node1&#45;&gt;Node4 -->
<g id="edge3_Node000001_Node000004" class="edge">
<title>Node1&#45;&gt;Node4</title>
<g id="a_edge3_Node000001_Node000004"><a xlink:title=" ">
<path fill="none" stroke="#63b8ff" d="M73.37,-69.18C80.83,-70.12 89.01,-71.16 97.45,-72.23"/>
<polygon fill="#63b8ff" stroke="#63b8ff" points="96.79,-75.68 107.16,-73.46 97.68,-68.73 96.79,-75.68"/>
</a>
</g>
</g>
<!-- Node5 -->
<g id="Node000005" class="node">
<title>Node5</title>
<g id="a_Node000005"><a xlink:href="class_common_d_b_t_m.html#aaa472e233121aa79f3c5c1298b4bc7cb" target="_top" xlink:title=" ">
<polygon fill="white" stroke="#666666" points="257.75,-56.25 118.75,-56.25 118.75,-37 257.75,-37 257.75,-56.25"/>
<text text-anchor="middle" x="188.25" y="-42.75" font-family="Helvetica,sans-Serif" font-size="10.00">CommonDBTM\isRecursive</text>
</a>
</g>
</g>
<!-- Node1&#45;&gt;Node5 -->
<g id="edge4_Node000001_Node000005" class="edge">
<title>Node1&#45;&gt;Node5</title>
<g id="a_edge4_Node000001_Node000005"><a xlink:title=" ">
<path fill="none" stroke="#63b8ff" d="M73.37,-60.31C83.66,-59.08 95.32,-57.67 107.16,-56.25"/>
<polygon fill="#63b8ff" stroke="#63b8ff" points="107.51,-59.74 117.02,-55.07 106.67,-52.79 107.51,-59.74"/>
</a>
</g>
</g>
<!-- Node7 -->
<g id="Node000007" class="node">
<title>Node7</title>
<g id="a_Node000007"><a xlink:href="class_common_i_t_i_l_object.html#adedff97e09ed8e0ef277f480da3ee7d6" target="_top" xlink:title=" ">
<polygon fill="white" stroke="#666666" points="254.75,-19.25 121.75,-19.25 121.75,0 254.75,0 254.75,-19.25"/>
<text text-anchor="middle" x="188.25" y="-5.75" font-family="Helvetica,sans-Serif" font-size="10.00">CommonITILObject\isUser</text>
</a>
</g>
</g>
<!-- Node1&#45;&gt;Node7 -->
<g id="edge6_Node000001_Node000007" class="edge">
<title>Node1&#45;&gt;Node7</title>
<g id="a_edge6_Node000001_Node000007"><a xlink:title=" ">
<path fill="none" stroke="#63b8ff" d="M54,-54.56C68.15,-46.31 89.32,-34.85 109,-27.62 113.89,-25.83 119.03,-24.17 124.23,-22.65"/>
<polygon fill="#63b8ff" stroke="#63b8ff" points="124.76,-26.14 133.48,-20.13 122.91,-19.39 124.76,-26.14"/>
</a>
</g>
</g>
<!-- Node3 -->
<g id="Node000003" class="node">
<title>Node3</title>
<g id="a_Node000003"><a xlink:href="class_common_d_b_t_m.html#abd1fba5cbce28a1d30906bebf5b88ead" target="_top" xlink:title=" ">
<polygon fill="white" stroke="#666666" points="459,-130.25 308.75,-130.25 308.75,-111 459,-111 459,-130.25"/>
<text text-anchor="middle" x="383.88" y="-116.75" font-family="Helvetica,sans-Serif" font-size="10.00">CommonDBTM\isEntityAssign</text>
</a>
</g>
</g>
<!-- Node2&#45;&gt;Node3 -->
<g id="edge2_Node000002_Node000003" class="edge">
<title>Node2&#45;&gt;Node3</title>
<g id="a_edge2_Node000002_Node000003"><a xlink:title=" ">
<path fill="none" stroke="#63b8ff" d="M256.97,-120.62C269.92,-120.62 283.64,-120.62 297.07,-120.62"/>
<polygon fill="#63b8ff" stroke="#63b8ff" points="296.74,-124.13 306.74,-120.63 296.74,-117.13 296.74,-124.13"/>
</a>
</g>
</g>
<!-- Node6 -->
<g id="Node000006" class="node">
<title>Node6</title>
<g id="a_Node000006"><a xlink:href="class_common_d_b_t_m.html#a74710ea062a0f689b4f3a72acbf91a07" target="_top" xlink:title=" ">
<polygon fill="white" stroke="#666666" points="464.25,-56.25 303.5,-56.25 303.5,-37 464.25,-37 464.25,-56.25"/>
<text text-anchor="middle" x="383.88" y="-42.75" font-family="Helvetica,sans-Serif" font-size="10.00">CommonDBTM\maybeRecursive</text>
</a>
</g>
</g>
<!-- Node5&#45;&gt;Node6 -->
<g id="edge5_Node000005_Node000006" class="edge">
<title>Node5&#45;&gt;Node6</title>
<g id="a_edge5_Node000005_Node000006"><a xlink:title=" ">
<path fill="none" stroke="#63b8ff" d="M258.06,-46.62C268.98,-46.62 280.43,-46.62 291.77,-46.62"/>
<polygon fill="#63b8ff" stroke="#63b8ff" points="291.54,-50.13 301.54,-46.63 291.54,-43.13 291.54,-50.13"/>
</a>
</g>
</g>
</g>
</svg>
