<?xml version="1.0" encoding="UTF-8" standalone="no"?>
<!DOCTYPE svg PUBLIC "-//W3C//DTD SVG 1.1//EN"
 "http://www.w3.org/Graphics/SVG/1.1/DTD/svg11.dtd">
<!-- Generated by graphviz version 10.0.1 (20240210.2158)
 -->
<!-- Title: __construct Pages: 1 -->
<svg width="253pt" height="138pt"
 viewBox="0.00 0.00 253.00 138.25" xmlns="http://www.w3.org/2000/svg" xmlns:xlink="http://www.w3.org/1999/xlink">

<svg id="main" version="1.1" xmlns="http://www.w3.org/2000/svg" xmlns:xlink="http://www.w3.org/1999/xlink" xml:space="preserve" onload="init(evt)">
<style type="text/css"><![CDATA[
.node, .edge {opacity: 0.7;}
.node.selected, .edge.selected {opacity: 1;}
.edge:hover path { stroke: red; }
.edge:hover polygon { stroke: red; fill: red; }
]]></style>
<script type="application/ecmascript" xlink:href="svg.min.js"/>
<svg id="graph" class="graph">
<g id="graph0" class="graph" transform="scale(1 1) rotate(0) translate(4 134.25)">
<title>__construct</title>
<!-- Node1 -->
<g id="Node000001" class="node">
<title>Node1</title>
<g id="a_Node000001"><a xlink:title=" ">
<polygon fill="#999999" stroke="#666666" points="67,-74.25 0,-74.25 0,-55 67,-55 67,-74.25"/>
<text text-anchor="middle" x="33.5" y="-60.75" font-family="Helvetica,sans-Serif" font-size="10.00">__construct</text>
</a>
</g>
</g>
<!-- Node2 -->
<g id="Node000002" class="node">
<title>Node2</title>
<g id="a_Node000002"><a xlink:href="class_twig_1_1_node_1_1_node.html#a68eac2277d384c1a9ff316eb14f52daf" target="_top" xlink:title=" ">
<polygon fill="white" stroke="#666666" points="245,-130.25 103,-130.25 103,-111 245,-111 245,-130.25"/>
<text text-anchor="middle" x="174" y="-116.75" font-family="Helvetica,sans-Serif" font-size="10.00">Twig\Node\Node\getAttribute</text>
</a>
</g>
</g>
<!-- Node1&#45;&gt;Node2 -->
<g id="edge1_Node000001_Node000002" class="edge">
<title>Node1&#45;&gt;Node2</title>
<g id="a_edge1_Node000001_Node000002"><a xlink:title=" ">
<path fill="none" stroke="#63b8ff" d="M49.99,-74.72C63.52,-83.17 83.92,-95.03 103,-102.62 107.14,-104.28 111.49,-105.82 115.89,-107.24"/>
<polygon fill="#63b8ff" stroke="#63b8ff" points="114.87,-110.59 125.45,-110.12 116.89,-103.89 114.87,-110.59"/>
</a>
</g>
</g>
<!-- Node3 -->
<g id="Node000003" class="node">
<title>Node3</title>
<g id="a_Node000003"><a xlink:href="class_twig_1_1_node_1_1_node.html#a76f53ae42dd14ec98eabc351b45273b3" target="_top" xlink:title=" ">
<polygon fill="white" stroke="#666666" points="238.25,-93.25 109.75,-93.25 109.75,-74 238.25,-74 238.25,-93.25"/>
<text text-anchor="middle" x="174" y="-79.75" font-family="Helvetica,sans-Serif" font-size="10.00">Twig\Node\Node\getNode</text>
</a>
</g>
</g>
<!-- Node1&#45;&gt;Node3 -->
<g id="edge2_Node000001_Node000003" class="edge">
<title>Node1&#45;&gt;Node3</title>
<g id="a_edge2_Node000001_Node000003"><a xlink:title=" ">
<path fill="none" stroke="#63b8ff" d="M67.32,-69.13C76.7,-70.41 87.33,-71.87 98.14,-73.36"/>
<polygon fill="#63b8ff" stroke="#63b8ff" points="97.55,-76.81 107.93,-74.7 98.5,-69.87 97.55,-76.81"/>
</a>
</g>
</g>
<!-- Node4 -->
<g id="Node000004" class="node">
<title>Node4</title>
<g id="a_Node000004"><a xlink:href="class_twig_1_1_node_1_1_node.html#ac1cfdf0389c52272bde731a33e288f44" target="_top" xlink:title=" ">
<polygon fill="white" stroke="#666666" points="245,-56.25 103,-56.25 103,-37 245,-37 245,-56.25"/>
<text text-anchor="middle" x="174" y="-42.75" font-family="Helvetica,sans-Serif" font-size="10.00">Twig\Node\Node\setAttribute</text>
</a>
</g>
</g>
<!-- Node1&#45;&gt;Node4 -->
<g id="edge3_Node000001_Node000004" class="edge">
<title>Node1&#45;&gt;Node4</title>
<g id="a_edge3_Node000001_Node000004"><a xlink:title=" ">
<path fill="none" stroke="#63b8ff" d="M67.32,-60.36C74.78,-59.39 83.02,-58.32 91.51,-57.22"/>
<polygon fill="#63b8ff" stroke="#63b8ff" points="91.81,-60.71 101.28,-55.95 90.91,-53.76 91.81,-60.71"/>
</a>
</g>
</g>
<!-- Node5 -->
<g id="Node000005" class="node">
<title>Node5</title>
<g id="a_Node000005"><a xlink:href="class_twig_1_1_node_1_1_node.html#a2527bb3c92cce8c73f8aab1f6d88d436" target="_top" xlink:title=" ">
<polygon fill="white" stroke="#666666" points="238.25,-19.25 109.75,-19.25 109.75,0 238.25,0 238.25,-19.25"/>
<text text-anchor="middle" x="174" y="-5.75" font-family="Helvetica,sans-Serif" font-size="10.00">Twig\Node\Node\setNode</text>
</a>
</g>
</g>
<!-- Node1&#45;&gt;Node5 -->
<g id="edge4_Node000001_Node000005" class="edge">
<title>Node1&#45;&gt;Node5</title>
<g id="a_edge4_Node000001_Node000005"><a xlink:title=" ">
<path fill="none" stroke="#63b8ff" d="M50.3,-54.65C63.85,-46.45 84.12,-35.02 103,-27.62 107.34,-25.93 111.89,-24.34 116.5,-22.87"/>
<polygon fill="#63b8ff" stroke="#63b8ff" points="117.26,-26.3 125.85,-20.09 115.27,-19.59 117.26,-26.3"/>
</a>
</g>
</g>
</g>
</svg>
</svg>

<style type='text/css'>
<![CDATA[
[data-mouse-over-selected='false'] { opacity: 0.7; }
[data-mouse-over-selected='true']  { opacity: 1.0; }
]]>
</style>
<script type="application/ecmascript"><![CDATA[
document.addEventListener('DOMContentLoaded', (event) => {
  highlightEdges();
  highlightAdjacentNodes();
});
]]></script>
</svg>
