<?xml version="1.0" encoding="UTF-8" standalone="no"?>
<!DOCTYPE svg PUBLIC "-//W3C//DTD SVG 1.1//EN"
 "http://www.w3.org/Graphics/SVG/1.1/DTD/svg11.dtd">
<!-- Generated by graphviz version 10.0.1 (20240210.2158)
 -->
<!-- Title: handle Pages: 1 -->
<svg width="467pt" height="156pt"
 viewBox="0.00 0.00 466.50 156.25" xmlns="http://www.w3.org/2000/svg" xmlns:xlink="http://www.w3.org/1999/xlink">

<svg id="main" version="1.1" xmlns="http://www.w3.org/2000/svg" xmlns:xlink="http://www.w3.org/1999/xlink" xml:space="preserve" onload="init(evt)">
<style type="text/css"><![CDATA[
.node, .edge {opacity: 0.7;}
.node.selected, .edge.selected {opacity: 1;}
.edge:hover path { stroke: red; }
.edge:hover polygon { stroke: red; fill: red; }
]]></style>
<script type="application/ecmascript" xlink:href="svg.min.js"/>
<svg id="graph" class="graph">
<g id="graph0" class="graph" transform="scale(1 1) rotate(0) translate(4 152.25)">
<title>handle</title>
<!-- Node1 -->
<g id="Node000001" class="node">
<title>Node1</title>
<g id="a_Node000001"><a xlink:title=" ">
<polygon fill="#999999" stroke="#666666" points="44.5,-92.25 0,-92.25 0,-73 44.5,-73 44.5,-92.25"/>
<text text-anchor="middle" x="22.25" y="-78.75" font-family="Helvetica,sans-Serif" font-size="10.00">handle</text>
</a>
</g>
</g>
<!-- Node2 -->
<g id="Node000002" class="node">
<title>Node2</title>
<g id="a_Node000002"><a xlink:href="class_illuminate_1_1_foundation_1_1_http_1_1_kernel.html#a184947592a1b4fa5fd253c391faec596" target="_top" xlink:title=" ">
<polygon fill="white" stroke="#666666" points="192.88,-148.25 106.38,-148.25 106.38,-129 192.88,-129 192.88,-148.25"/>
<text text-anchor="middle" x="149.62" y="-134.75" font-family="Helvetica,sans-Serif" font-size="10.00">renderException</text>
</a>
</g>
</g>
<!-- Node1&#45;&gt;Node2 -->
<g id="edge1_Node000001_Node000002" class="edge">
<title>Node1&#45;&gt;Node2</title>
<g id="a_edge1_Node000001_Node000002"><a xlink:title=" ">
<path fill="none" stroke="#63b8ff" d="M35.73,-92.67C46.88,-101.19 63.96,-113.2 80.5,-120.62 85.15,-122.71 90.08,-124.6 95.09,-126.29"/>
<polygon fill="#63b8ff" stroke="#63b8ff" points="94.05,-129.63 104.64,-129.24 96.12,-122.94 94.05,-129.63"/>
</a>
</g>
</g>
<!-- Node3 -->
<g id="Node000003" class="node">
<title>Node3</title>
<g id="a_Node000003"><a xlink:href="class_illuminate_1_1_foundation_1_1_http_1_1_kernel.html#a614913a03802bc043225db911181a4ef" target="_top" xlink:title=" ">
<polygon fill="white" stroke="#666666" points="191.75,-111.25 107.5,-111.25 107.5,-92 191.75,-92 191.75,-111.25"/>
<text text-anchor="middle" x="149.62" y="-97.75" font-family="Helvetica,sans-Serif" font-size="10.00">reportException</text>
</a>
</g>
</g>
<!-- Node1&#45;&gt;Node3 -->
<g id="edge2_Node000001_Node000003" class="edge">
<title>Node1&#45;&gt;Node3</title>
<g id="a_edge2_Node000001_Node000003"><a xlink:title=" ">
<path fill="none" stroke="#63b8ff" d="M44.8,-85.89C58.88,-88.03 77.92,-90.91 95.85,-93.63"/>
<polygon fill="#63b8ff" stroke="#63b8ff" points="95.2,-97.07 105.61,-95.11 96.25,-90.15 95.2,-97.07"/>
</a>
</g>
</g>
<!-- Node4 -->
<g id="Node000004" class="node">
<title>Node4</title>
<g id="a_Node000004"><a xlink:href="class_illuminate_1_1_foundation_1_1_http_1_1_kernel.html#a67c83d1b3210de642124824325e867f8" target="_top" xlink:title=" ">
<polygon fill="white" stroke="#666666" points="194.38,-74.25 104.88,-74.25 104.88,-55 194.38,-55 194.38,-74.25"/>
<text text-anchor="middle" x="149.62" y="-60.75" font-family="Helvetica,sans-Serif" font-size="10.00">requestStartedAt</text>
</a>
</g>
</g>
<!-- Node1&#45;&gt;Node4 -->
<g id="edge3_Node000001_Node000004" class="edge">
<title>Node1&#45;&gt;Node4</title>
<g id="a_edge3_Node000001_Node000004"><a xlink:title=" ">
<path fill="none" stroke="#63b8ff" d="M44.8,-79.53C58.24,-77.6 76.2,-75.02 93.39,-72.55"/>
<polygon fill="#63b8ff" stroke="#63b8ff" points="93.63,-76.06 103.03,-71.17 92.63,-69.13 93.63,-76.06"/>
</a>
</g>
</g>
<!-- Node5 -->
<g id="Node000005" class="node">
<title>Node5</title>
<g id="a_Node000005"><a xlink:href="class_illuminate_1_1_foundation_1_1_http_1_1_kernel.html#aab47d27355c31a0e016b34488ea3f958" target="_top" xlink:title=" ">
<polygon fill="white" stroke="#666666" points="218.75,-37.25 80.5,-37.25 80.5,-18 218.75,-18 218.75,-37.25"/>
<text text-anchor="middle" x="149.62" y="-23.75" font-family="Helvetica,sans-Serif" font-size="10.00">sendRequestThroughRouter</text>
</a>
</g>
</g>
<!-- Node1&#45;&gt;Node5 -->
<g id="edge4_Node000001_Node000005" class="edge">
<title>Node1&#45;&gt;Node5</title>
<g id="a_edge4_Node000001_Node000005"><a xlink:title=" ">
<path fill="none" stroke="#63b8ff" d="M36.22,-72.54C47.4,-64.27 64.26,-52.8 80.5,-45.62 84.08,-44.04 87.82,-42.58 91.64,-41.22"/>
<polygon fill="#63b8ff" stroke="#63b8ff" points="92.64,-44.58 101.07,-38.16 90.47,-37.92 92.64,-44.58"/>
</a>
</g>
</g>
<!-- Node6 -->
<g id="Node000006" class="node">
<title>Node6</title>
<g id="a_Node000006"><a xlink:href="class_illuminate_1_1_foundation_1_1_http_1_1_kernel.html#a1220bc28aca374cd4510d925eb05bccc" target="_top" xlink:title=" ">
<polygon fill="white" stroke="#666666" points="329.25,-56.25 272.75,-56.25 272.75,-37 329.25,-37 329.25,-56.25"/>
<text text-anchor="middle" x="301" y="-42.75" font-family="Helvetica,sans-Serif" font-size="10.00">bootstrap</text>
</a>
</g>
</g>
<!-- Node5&#45;&gt;Node6 -->
<g id="edge5_Node000005_Node000006" class="edge">
<title>Node5&#45;&gt;Node6</title>
<g id="a_edge5_Node000005_Node000006"><a xlink:title=" ">
<path fill="none" stroke="#63b8ff" d="M219.19,-36.35C233.64,-38.18 248.39,-40.06 261.27,-41.7"/>
<polygon fill="#63b8ff" stroke="#63b8ff" points="260.64,-45.15 271.01,-42.94 261.53,-38.2 260.64,-45.15"/>
</a>
</g>
</g>
<!-- Node8 -->
<g id="Node000008" class="node">
<title>Node8</title>
<g id="a_Node000008"><a xlink:href="class_illuminate_1_1_foundation_1_1_http_1_1_kernel.html#a5d67240b52095e0f9b03dffa4775d7d5" target="_top" xlink:title=" ">
<polygon fill="white" stroke="#666666" points="347.25,-19.25 254.75,-19.25 254.75,0 347.25,0 347.25,-19.25"/>
<text text-anchor="middle" x="301" y="-5.75" font-family="Helvetica,sans-Serif" font-size="10.00">dispatchToRouter</text>
</a>
</g>
</g>
<!-- Node5&#45;&gt;Node8 -->
<g id="edge7_Node000005_Node000008" class="edge">
<title>Node5&#45;&gt;Node8</title>
<g id="a_edge7_Node000005_Node000008"><a xlink:title=" ">
<path fill="none" stroke="#63b8ff" d="M219.19,-19.36C227.23,-18.39 235.36,-17.41 243.22,-16.47"/>
<polygon fill="#63b8ff" stroke="#63b8ff" points="243.47,-19.96 252.98,-15.29 242.63,-13.01 243.47,-19.96"/>
</a>
</g>
</g>
<!-- Node7 -->
<g id="Node000007" class="node">
<title>Node7</title>
<g id="a_Node000007"><a xlink:href="class_illuminate_1_1_foundation_1_1_http_1_1_kernel.html#a9eb763d7394b0c8eae4f557908d8a8fb" target="_top" xlink:title=" ">
<polygon fill="white" stroke="#666666" points="458.5,-56.25 383.25,-56.25 383.25,-37 458.5,-37 458.5,-56.25"/>
<text text-anchor="middle" x="420.88" y="-42.75" font-family="Helvetica,sans-Serif" font-size="10.00">bootstrappers</text>
</a>
</g>
</g>
<!-- Node6&#45;&gt;Node7 -->
<g id="edge6_Node000006_Node000007" class="edge">
<title>Node6&#45;&gt;Node7</title>
<g id="a_edge6_Node000006_Node000007"><a xlink:title=" ">
<path fill="none" stroke="#63b8ff" d="M329.64,-46.62C342.2,-46.62 357.44,-46.62 371.79,-46.62"/>
<polygon fill="#63b8ff" stroke="#63b8ff" points="371.52,-50.13 381.52,-46.63 371.52,-43.13 371.52,-50.13"/>
</a>
</g>
</g>
</g>
</svg>
</svg>

<style type='text/css'>
<![CDATA[
[data-mouse-over-selected='false'] { opacity: 0.7; }
[data-mouse-over-selected='true']  { opacity: 1.0; }
]]>
</style>
<script type="application/ecmascript"><![CDATA[
document.addEventListener('DOMContentLoaded', (event) => {
  highlightEdges();
  highlightAdjacentNodes();
});
]]></script>
</svg>
