<?xml version="1.0" encoding="UTF-8" standalone="no"?>
<!DOCTYPE svg PUBLIC "-//W3C//DTD SVG 1.1//EN"
 "http://www.w3.org/Graphics/SVG/1.1/DTD/svg11.dtd">
<!-- Generated by graphviz version 10.0.1 (20240210.2158)
 -->
<!-- Title: DefaultTimeGenerator Pages: 1 -->
<svg width="197pt" height="224pt"
 viewBox="0.00 0.00 197.00 224.00" xmlns="http://www.w3.org/2000/svg" xmlns:xlink="http://www.w3.org/1999/xlink">
<g id="graph0" class="graph" transform="scale(1 1) rotate(0) translate(4 220)">
<title>DefaultTimeGenerator</title>
<!-- Node1 -->
<g id="Node000001" class="node">
<title>Node1</title>
<g id="a_Node000001"><a xlink:title=" ">
<polygon fill="#999999" stroke="none" points="189,-120 0,-120 0,0 189,0 189,-120"/>
<text text-anchor="start" x="46.5" y="-106.5" font-family="Helvetica,sans-Serif" font-size="10.00">DefaultTimeGenerator</text>
<text text-anchor="start" x="93" y="-91.5" font-family="Helvetica,sans-Serif" font-size="10.00"> </text>
<text text-anchor="start" x="4" y="-76.5" font-family="Helvetica,sans-Serif" font-size="10.00">+</text>
<text text-anchor="start" x="14" y="-76.5" font-family="Helvetica,sans-Serif" font-size="10.00">__construct(NodeProvider</text>
<text text-anchor="start" x="14" y="-65.25" font-family="Helvetica,sans-Serif" font-size="10.00">Interface $nodeProvider,</text>
<text text-anchor="start" x="14" y="-54" font-family="Helvetica,sans-Serif" font-size="10.00"> TimeConverterInterface</text>
<text text-anchor="start" x="14" y="-42.75" font-family="Helvetica,sans-Serif" font-size="10.00"> $timeConverter, TimeProviderInterface</text>
<text text-anchor="start" x="14" y="-31.5" font-family="Helvetica,sans-Serif" font-size="10.00"> $timeProvider)</text>
<text text-anchor="start" x="4" y="-16.5" font-family="Helvetica,sans-Serif" font-size="10.00">+</text>
<text text-anchor="start" x="14" y="-16.5" font-family="Helvetica,sans-Serif" font-size="10.00">generate($node=null,</text>
<text text-anchor="start" x="14" y="-5.25" font-family="Helvetica,sans-Serif" font-size="10.00"> ?int $clockSeq=null)</text>
<polygon fill="#666666" stroke="#666666" points="0,-103 0,-103 189,-103 189,-103 0,-103"/>
<polygon fill="#666666" stroke="#666666" points="0,-88 0,-88 189,-88 189,-88 0,-88"/>
<polygon fill="none" stroke="#666666" points="0,0 0,-120 189,-120 189,0 0,0"/>
</a>
</g>
</g>
<!-- Node2 -->
<g id="Node000002" class="node">
<title>Node2</title>
<g id="a_Node000002"><a xlink:href="interface_ramsey_1_1_uuid_1_1_generator_1_1_time_generator_interface.html" target="_top" xlink:title=" ">
<polygon fill="white" stroke="none" points="150.5,-216 38.5,-216 38.5,-156 150.5,-156 150.5,-216"/>
<text text-anchor="start" x="43.12" y="-202.5" font-family="Helvetica,sans-Serif" font-size="10.00">TimeGeneratorInterface</text>
<text text-anchor="start" x="93" y="-187.5" font-family="Helvetica,sans-Serif" font-size="10.00"> </text>
<text text-anchor="start" x="43" y="-172.5" font-family="Helvetica,sans-Serif" font-size="10.00">+</text>
<text text-anchor="start" x="53.5" y="-172.5" font-family="Helvetica,sans-Serif" font-size="10.00">generate($node=null,</text>
<text text-anchor="start" x="53.5" y="-161.25" font-family="Helvetica,sans-Serif" font-size="10.00"> ?int $clockSeq=null)</text>
<polygon fill="#666666" stroke="#666666" points="38.5,-199 38.5,-199 150.5,-199 150.5,-199 38.5,-199"/>
<polygon fill="#666666" stroke="#666666" points="38.5,-184 38.5,-184 150.5,-184 150.5,-184 38.5,-184"/>
<polygon fill="none" stroke="#666666" points="38.5,-156 38.5,-216 150.5,-216 150.5,-156 38.5,-156"/>
</a>
</g>
</g>
<!-- Node2&#45;&gt;Node1 -->
<g id="edge1_Node000001_Node000002" class="edge">
<title>Node2&#45;&gt;Node1</title>
<g id="a_edge1_Node000001_Node000002"><a xlink:title=" ">
<path fill="none" stroke="#63b8ff" d="M94.5,-144.98C94.5,-136.98 94.5,-128.41 94.5,-119.91"/>
<polygon fill="none" stroke="#63b8ff" points="91,-144.73 94.5,-154.73 98,-144.73 91,-144.73"/>
</a>
</g>
</g>
</g>
</svg>
