<?xml version="1.0" encoding="UTF-8" standalone="no"?>
<!DOCTYPE svg PUBLIC "-//W3C//DTD SVG 1.1//EN"
 "http://www.w3.org/Graphics/SVG/1.1/DTD/svg11.dtd">
<!-- Generated by graphviz version 10.0.1 (20240210.2158)
 -->
<!-- Title: RRule Pages: 1 -->
<svg width="408pt" height="1477pt"
 viewBox="0.00 0.00 408.00 1477.25" xmlns="http://www.w3.org/2000/svg" xmlns:xlink="http://www.w3.org/1999/xlink">
<g id="graph0" class="graph" transform="scale(1 1) rotate(0) translate(4 1473.25)">
<title>RRule</title>
<!-- Node1 -->
<g id="Node000001" class="node">
<title>Node1</title>
<g id="a_Node000001"><a xlink:title=" ">
<polygon fill="#999999" stroke="none" points="306,-918 116,-918 116,0 306,0 306,-918"/>
<text text-anchor="start" x="197.12" y="-904.5" font-family="Helvetica,sans-Serif" font-size="10.00">RRule</text>
<text text-anchor="start" x="120" y="-889.5" font-family="Helvetica,sans-Serif" font-size="10.00">+</text>
<text text-anchor="start" x="130" y="-889.5" font-family="Helvetica,sans-Serif" font-size="10.00">const SECONDLY</text>
<text text-anchor="start" x="120" y="-874.5" font-family="Helvetica,sans-Serif" font-size="10.00">+</text>
<text text-anchor="start" x="130" y="-874.5" font-family="Helvetica,sans-Serif" font-size="10.00">const WEEKLY</text>
<text text-anchor="start" x="120" y="-859.5" font-family="Helvetica,sans-Serif" font-size="10.00">+</text>
<text text-anchor="start" x="130" y="-859.5" font-family="Helvetica,sans-Serif" font-size="10.00">const YEARLY</text>
<text text-anchor="start" x="120" y="-844.5" font-family="Helvetica,sans-Serif" font-size="10.00">+</text>
<text text-anchor="start" x="130" y="-844.5" font-family="Helvetica,sans-Serif" font-size="10.00">const WEEKDAYS</text>
<text text-anchor="start" x="120" y="-829.5" font-family="Helvetica,sans-Serif" font-size="10.00">+</text>
<text text-anchor="start" x="130" y="-829.5" font-family="Helvetica,sans-Serif" font-size="10.00">const MONTH_MASK</text>
<text text-anchor="start" x="120" y="-814.5" font-family="Helvetica,sans-Serif" font-size="10.00">+</text>
<text text-anchor="start" x="130" y="-814.5" font-family="Helvetica,sans-Serif" font-size="10.00">const MONTH_MASK_366</text>
<text text-anchor="start" x="120" y="-799.5" font-family="Helvetica,sans-Serif" font-size="10.00">+</text>
<text text-anchor="start" x="130" y="-799.5" font-family="Helvetica,sans-Serif" font-size="10.00">const NEGATIVE_MONTHDAY_MASK</text>
<text text-anchor="start" x="120" y="-784.5" font-family="Helvetica,sans-Serif" font-size="10.00">+</text>
<text text-anchor="start" x="130" y="-784.5" font-family="Helvetica,sans-Serif" font-size="10.00">const NEGATIVE_MONTHDAY</text>
<text text-anchor="start" x="130" y="-773.25" font-family="Helvetica,sans-Serif" font-size="10.00">_MASK_366</text>
<text text-anchor="start" x="120" y="-758.5" font-family="Helvetica,sans-Serif" font-size="10.00">+</text>
<text text-anchor="start" x="130" y="-758.5" font-family="Helvetica,sans-Serif" font-size="10.00">const WEEKDAY_MASK</text>
<text text-anchor="start" x="120.38" y="-743.5" font-family="Helvetica,sans-Serif" font-size="10.00">#</text>
<text text-anchor="start" x="130" y="-743.5" font-family="Helvetica,sans-Serif" font-size="10.00">$rule</text>
<text text-anchor="start" x="120.38" y="-728.5" font-family="Helvetica,sans-Serif" font-size="10.00">#</text>
<text text-anchor="start" x="130" y="-728.5" font-family="Helvetica,sans-Serif" font-size="10.00">$dtstart</text>
<text text-anchor="start" x="120.38" y="-713.5" font-family="Helvetica,sans-Serif" font-size="10.00">#</text>
<text text-anchor="start" x="130" y="-713.5" font-family="Helvetica,sans-Serif" font-size="10.00">$freq</text>
<text text-anchor="start" x="120.38" y="-698.5" font-family="Helvetica,sans-Serif" font-size="10.00">#</text>
<text text-anchor="start" x="130" y="-698.5" font-family="Helvetica,sans-Serif" font-size="10.00">$until</text>
<text text-anchor="start" x="120.38" y="-683.5" font-family="Helvetica,sans-Serif" font-size="10.00">#</text>
<text text-anchor="start" x="130" y="-683.5" font-family="Helvetica,sans-Serif" font-size="10.00">$count</text>
<text text-anchor="start" x="120.38" y="-668.5" font-family="Helvetica,sans-Serif" font-size="10.00">#</text>
<text text-anchor="start" x="130" y="-668.5" font-family="Helvetica,sans-Serif" font-size="10.00">$interval</text>
<text text-anchor="start" x="120.38" y="-653.5" font-family="Helvetica,sans-Serif" font-size="10.00">#</text>
<text text-anchor="start" x="130" y="-653.5" font-family="Helvetica,sans-Serif" font-size="10.00">$bysecond</text>
<text text-anchor="start" x="120.38" y="-638.5" font-family="Helvetica,sans-Serif" font-size="10.00">#</text>
<text text-anchor="start" x="130" y="-638.5" font-family="Helvetica,sans-Serif" font-size="10.00">$byminute</text>
<text text-anchor="start" x="120.38" y="-623.5" font-family="Helvetica,sans-Serif" font-size="10.00">#</text>
<text text-anchor="start" x="130" y="-623.5" font-family="Helvetica,sans-Serif" font-size="10.00">$byhour</text>
<text text-anchor="start" x="120.38" y="-608.5" font-family="Helvetica,sans-Serif" font-size="10.00">#</text>
<text text-anchor="start" x="130" y="-608.5" font-family="Helvetica,sans-Serif" font-size="10.00">$byweekday</text>
<text text-anchor="start" x="130" y="-593.5" font-family="Helvetica,sans-Serif" font-size="10.00">et 11 de plus...</text>
<text text-anchor="start" x="120" y="-578.5" font-family="Helvetica,sans-Serif" font-size="10.00">+</text>
<text text-anchor="start" x="130" y="-578.5" font-family="Helvetica,sans-Serif" font-size="10.00">__construct($parts,</text>
<text text-anchor="start" x="130" y="-567.25" font-family="Helvetica,sans-Serif" font-size="10.00"> $dtstart=null)</text>
<text text-anchor="start" x="120" y="-552.5" font-family="Helvetica,sans-Serif" font-size="10.00">+</text>
<text text-anchor="start" x="130" y="-552.5" font-family="Helvetica,sans-Serif" font-size="10.00">getRule()</text>
<text text-anchor="start" x="120" y="-537.5" font-family="Helvetica,sans-Serif" font-size="10.00">+</text>
<text text-anchor="start" x="130" y="-537.5" font-family="Helvetica,sans-Serif" font-size="10.00">__toString()</text>
<text text-anchor="start" x="120" y="-522.5" font-family="Helvetica,sans-Serif" font-size="10.00">+</text>
<text text-anchor="start" x="130" y="-522.5" font-family="Helvetica,sans-Serif" font-size="10.00">rfcString($include</text>
<text text-anchor="start" x="130" y="-511.25" font-family="Helvetica,sans-Serif" font-size="10.00">_timezone=true)</text>
<text text-anchor="start" x="120" y="-496.5" font-family="Helvetica,sans-Serif" font-size="10.00">+</text>
<text text-anchor="start" x="130" y="-496.5" font-family="Helvetica,sans-Serif" font-size="10.00">clearCache()</text>
<text text-anchor="start" x="120" y="-481.5" font-family="Helvetica,sans-Serif" font-size="10.00">+</text>
<text text-anchor="start" x="130" y="-481.5" font-family="Helvetica,sans-Serif" font-size="10.00">isFinite()</text>
<text text-anchor="start" x="120" y="-466.5" font-family="Helvetica,sans-Serif" font-size="10.00">+</text>
<text text-anchor="start" x="130" y="-466.5" font-family="Helvetica,sans-Serif" font-size="10.00">isInfinite()</text>
<text text-anchor="start" x="120" y="-451.5" font-family="Helvetica,sans-Serif" font-size="10.00">+</text>
<text text-anchor="start" x="130" y="-451.5" font-family="Helvetica,sans-Serif" font-size="10.00">occursAt($date)</text>
<text text-anchor="start" x="120" y="-436.5" font-family="Helvetica,sans-Serif" font-size="10.00">+</text>
<text text-anchor="start" x="130" y="-436.5" font-family="Helvetica,sans-Serif" font-size="10.00">offsetExists($offset)</text>
<text text-anchor="start" x="120" y="-421.5" font-family="Helvetica,sans-Serif" font-size="10.00">+</text>
<text text-anchor="start" x="130" y="-421.5" font-family="Helvetica,sans-Serif" font-size="10.00">offsetGet($offset)</text>
<text text-anchor="start" x="120" y="-406.5" font-family="Helvetica,sans-Serif" font-size="10.00">+</text>
<text text-anchor="start" x="130" y="-406.5" font-family="Helvetica,sans-Serif" font-size="10.00">offsetSet($offset,</text>
<text text-anchor="start" x="130" y="-395.25" font-family="Helvetica,sans-Serif" font-size="10.00"> $value)</text>
<text text-anchor="start" x="120" y="-380.5" font-family="Helvetica,sans-Serif" font-size="10.00">+</text>
<text text-anchor="start" x="130" y="-380.5" font-family="Helvetica,sans-Serif" font-size="10.00">offsetUnset($offset)</text>
<text text-anchor="start" x="120" y="-365.5" font-family="Helvetica,sans-Serif" font-size="10.00">+</text>
<text text-anchor="start" x="130" y="-365.5" font-family="Helvetica,sans-Serif" font-size="10.00">count()</text>
<text text-anchor="start" x="120" y="-350.5" font-family="Helvetica,sans-Serif" font-size="10.00">+</text>
<text text-anchor="start" x="130" y="-350.5" font-family="Helvetica,sans-Serif" font-size="10.00">getIterator()</text>
<text text-anchor="start" x="120" y="-335.5" font-family="Helvetica,sans-Serif" font-size="10.00">+</text>
<text text-anchor="start" x="130" y="-335.5" font-family="Helvetica,sans-Serif" font-size="10.00">humanReadable(array</text>
<text text-anchor="start" x="130" y="-324.25" font-family="Helvetica,sans-Serif" font-size="10.00"> $opt=array())</text>
<text text-anchor="start" x="120" y="-309.5" font-family="Helvetica,sans-Serif" font-size="10.00">+</text>
<text text-anchor="start" x="130" y="-309.5" font-family="Helvetica,sans-Serif" font-size="10.00">static parseRfcString</text>
<text text-anchor="start" x="130" y="-298.25" font-family="Helvetica,sans-Serif" font-size="10.00">($string)</text>
<text text-anchor="start" x="120" y="-283.5" font-family="Helvetica,sans-Serif" font-size="10.00">+</text>
<text text-anchor="start" x="130" y="-283.5" font-family="Helvetica,sans-Serif" font-size="10.00">static createFromRfcString</text>
<text text-anchor="start" x="130" y="-272.25" font-family="Helvetica,sans-Serif" font-size="10.00">($string, $force_rset=false)</text>
<text text-anchor="start" x="120.38" y="-257.5" font-family="Helvetica,sans-Serif" font-size="10.00">#</text>
<text text-anchor="start" x="130" y="-257.5" font-family="Helvetica,sans-Serif" font-size="10.00">getDaySet($year, </text>
<text text-anchor="start" x="130" y="-246.25" font-family="Helvetica,sans-Serif" font-size="10.00">$month, $day, array</text>
<text text-anchor="start" x="130" y="-235" font-family="Helvetica,sans-Serif" font-size="10.00"> $masks)</text>
<text text-anchor="start" x="120.38" y="-220.5" font-family="Helvetica,sans-Serif" font-size="10.00">#</text>
<text text-anchor="start" x="130" y="-220.5" font-family="Helvetica,sans-Serif" font-size="10.00">buildNthWeekdayMask</text>
<text text-anchor="start" x="130" y="-209.25" font-family="Helvetica,sans-Serif" font-size="10.00">($year, $month, $day,</text>
<text text-anchor="start" x="130" y="-198" font-family="Helvetica,sans-Serif" font-size="10.00"> array &amp; $masks)</text>
<text text-anchor="start" x="120.38" y="-183.5" font-family="Helvetica,sans-Serif" font-size="10.00">#</text>
<text text-anchor="start" x="130" y="-183.5" font-family="Helvetica,sans-Serif" font-size="10.00">buildWeeknoMask($year,</text>
<text text-anchor="start" x="130" y="-172.25" font-family="Helvetica,sans-Serif" font-size="10.00"> $month, $day, array &amp;</text>
<text text-anchor="start" x="130" y="-161" font-family="Helvetica,sans-Serif" font-size="10.00"> $masks)</text>
<text text-anchor="start" x="120.38" y="-146.5" font-family="Helvetica,sans-Serif" font-size="10.00">#</text>
<text text-anchor="start" x="130" y="-146.5" font-family="Helvetica,sans-Serif" font-size="10.00">getTimeSet($hour,</text>
<text text-anchor="start" x="130" y="-135.25" font-family="Helvetica,sans-Serif" font-size="10.00"> $minute, $second)</text>
<text text-anchor="start" x="120.38" y="-120.5" font-family="Helvetica,sans-Serif" font-size="10.00">#</text>
<text text-anchor="start" x="130" y="-120.5" font-family="Helvetica,sans-Serif" font-size="10.00">static i18nSelect(</text>
<text text-anchor="start" x="130" y="-109.25" font-family="Helvetica,sans-Serif" font-size="10.00">$array, $n)</text>
<text text-anchor="start" x="120.38" y="-94.5" font-family="Helvetica,sans-Serif" font-size="10.00">#</text>
<text text-anchor="start" x="130" y="-94.5" font-family="Helvetica,sans-Serif" font-size="10.00">static i18nList(array</text>
<text text-anchor="start" x="130" y="-83.25" font-family="Helvetica,sans-Serif" font-size="10.00"> $array, $and=&#39;and &#39;)</text>
<text text-anchor="start" x="120.38" y="-68.5" font-family="Helvetica,sans-Serif" font-size="10.00">#</text>
<text text-anchor="start" x="130" y="-68.5" font-family="Helvetica,sans-Serif" font-size="10.00">static intlLoaded()</text>
<text text-anchor="start" x="120.38" y="-53.5" font-family="Helvetica,sans-Serif" font-size="10.00">#</text>
<text text-anchor="start" x="130" y="-53.5" font-family="Helvetica,sans-Serif" font-size="10.00">static i18nFilesToLoad</text>
<text text-anchor="start" x="130" y="-42.25" font-family="Helvetica,sans-Serif" font-size="10.00">($locale, $use_intl=null)</text>
<text text-anchor="start" x="120.38" y="-27.5" font-family="Helvetica,sans-Serif" font-size="10.00">#</text>
<text text-anchor="start" x="130" y="-27.5" font-family="Helvetica,sans-Serif" font-size="10.00">static i18nLoad($locale,</text>
<text text-anchor="start" x="130" y="-16.25" font-family="Helvetica,sans-Serif" font-size="10.00"> $fallback=null, $use</text>
<text text-anchor="start" x="130" y="-5" font-family="Helvetica,sans-Serif" font-size="10.00">_intl=null, $custom_path=null)</text>
<polygon fill="#666666" stroke="#666666" points="116,-901 116,-901 306,-901 306,-901 116,-901"/>
<polygon fill="#666666" stroke="#666666" points="116,-590 116,-590 128,-590 128,-590 116,-590"/>
<polygon fill="#666666" stroke="#666666" points="128,-590 128,-590 306,-590 306,-590 128,-590"/>
<polygon fill="none" stroke="#666666" points="116,0 116,-918 306,-918 306,0 116,0"/>
</a>
</g>
</g>
<!-- Node2 -->
<g id="Node000002" class="node">
<title>Node2</title>
<g id="a_Node000002"><a xlink:href="interface_r_rule_1_1_r_rule_interface.html" target="_top" xlink:title=" ">
<polygon fill="white" stroke="none" points="175.5,-1383.25 46.5,-1383.25 46.5,-1100.25 175.5,-1100.25 175.5,-1383.25"/>
<text text-anchor="start" x="78" y="-1369.75" font-family="Helvetica,sans-Serif" font-size="10.00">RRuleInterface</text>
<text text-anchor="start" x="109.5" y="-1354.75" font-family="Helvetica,sans-Serif" font-size="10.00"> </text>
<text text-anchor="start" x="50.5" y="-1339.75" font-family="Helvetica,sans-Serif" font-size="10.00">+</text>
<text text-anchor="start" x="60.5" y="-1339.75" font-family="Helvetica,sans-Serif" font-size="10.00">getOccurrences($limit</text>
<text text-anchor="start" x="60.5" y="-1328.5" font-family="Helvetica,sans-Serif" font-size="10.00">=null)</text>
<text text-anchor="start" x="50.5" y="-1313.75" font-family="Helvetica,sans-Serif" font-size="10.00">+</text>
<text text-anchor="start" x="60.5" y="-1313.75" font-family="Helvetica,sans-Serif" font-size="10.00">getOccurrencesBetween</text>
<text text-anchor="start" x="60.5" y="-1302.5" font-family="Helvetica,sans-Serif" font-size="10.00">($begin, $end, $limit=null)</text>
<text text-anchor="start" x="50.5" y="-1287.75" font-family="Helvetica,sans-Serif" font-size="10.00">+</text>
<text text-anchor="start" x="60.5" y="-1287.75" font-family="Helvetica,sans-Serif" font-size="10.00">getOccurrencesAfter</text>
<text text-anchor="start" x="60.5" y="-1276.5" font-family="Helvetica,sans-Serif" font-size="10.00">($date, $inclusive=false,</text>
<text text-anchor="start" x="60.5" y="-1265.25" font-family="Helvetica,sans-Serif" font-size="10.00"> $limit=null)</text>
<text text-anchor="start" x="50.5" y="-1250.75" font-family="Helvetica,sans-Serif" font-size="10.00">+</text>
<text text-anchor="start" x="60.5" y="-1250.75" font-family="Helvetica,sans-Serif" font-size="10.00">getNthOccurrenceAfter</text>
<text text-anchor="start" x="60.5" y="-1239.5" font-family="Helvetica,sans-Serif" font-size="10.00">($date, $index)</text>
<text text-anchor="start" x="50.5" y="-1224.75" font-family="Helvetica,sans-Serif" font-size="10.00">+</text>
<text text-anchor="start" x="60.5" y="-1224.75" font-family="Helvetica,sans-Serif" font-size="10.00">getOccurrencesBefore</text>
<text text-anchor="start" x="60.5" y="-1213.5" font-family="Helvetica,sans-Serif" font-size="10.00">($date, $inclusive=false,</text>
<text text-anchor="start" x="60.5" y="-1202.25" font-family="Helvetica,sans-Serif" font-size="10.00"> $limit=null)</text>
<text text-anchor="start" x="50.5" y="-1187.75" font-family="Helvetica,sans-Serif" font-size="10.00">+</text>
<text text-anchor="start" x="60.5" y="-1187.75" font-family="Helvetica,sans-Serif" font-size="10.00">getNthOccurrenceBefore</text>
<text text-anchor="start" x="60.5" y="-1176.5" font-family="Helvetica,sans-Serif" font-size="10.00">($date, $index)</text>
<text text-anchor="start" x="50.5" y="-1161.75" font-family="Helvetica,sans-Serif" font-size="10.00">+</text>
<text text-anchor="start" x="60.5" y="-1161.75" font-family="Helvetica,sans-Serif" font-size="10.00">getNthOccurrenceFrom</text>
<text text-anchor="start" x="60.5" y="-1150.5" font-family="Helvetica,sans-Serif" font-size="10.00">($date, $index)</text>
<text text-anchor="start" x="50.5" y="-1135.75" font-family="Helvetica,sans-Serif" font-size="10.00">+</text>
<text text-anchor="start" x="60.5" y="-1135.75" font-family="Helvetica,sans-Serif" font-size="10.00">occursAt($date)</text>
<text text-anchor="start" x="50.5" y="-1120.75" font-family="Helvetica,sans-Serif" font-size="10.00">+</text>
<text text-anchor="start" x="60.5" y="-1120.75" font-family="Helvetica,sans-Serif" font-size="10.00">isFinite()</text>
<text text-anchor="start" x="50.5" y="-1105.75" font-family="Helvetica,sans-Serif" font-size="10.00">+</text>
<text text-anchor="start" x="60.5" y="-1105.75" font-family="Helvetica,sans-Serif" font-size="10.00">isInfinite()</text>
<polygon fill="#666666" stroke="#666666" points="46.5,-1366.25 46.5,-1366.25 175.5,-1366.25 175.5,-1366.25 46.5,-1366.25"/>
<polygon fill="#666666" stroke="#666666" points="46.5,-1351.25 46.5,-1351.25 175.5,-1351.25 175.5,-1351.25 46.5,-1351.25"/>
<polygon fill="none" stroke="#666666" points="46.5,-1100.25 46.5,-1383.25 175.5,-1383.25 175.5,-1100.25 46.5,-1100.25"/>
</a>
</g>
</g>
<!-- Node2&#45;&gt;Node1 -->
<g id="edge1_Node000001_Node000002" class="edge">
<title>Node2&#45;&gt;Node1</title>
<g id="a_edge1_Node000001_Node000002"><a xlink:title=" ">
<path fill="none" stroke="#63b8ff" d="M130.44,-1088.95C136.91,-1038.42 144.49,-979.25 152.37,-917.77"/>
<polygon fill="none" stroke="#63b8ff" points="126.98,-1088.4 129.19,-1098.76 133.93,-1089.29 126.98,-1088.4"/>
</a>
</g>
</g>
<!-- Node3 -->
<g id="Node000003" class="node">
<title>Node3</title>
<g id="a_Node000003"><a xlink:title=" ">
<polygon fill="white" stroke="none" points="66,-1469.25 0,-1469.25 0,-1420.25 66,-1420.25 66,-1469.25"/>
<text text-anchor="start" x="4.88" y="-1455.75" font-family="Helvetica,sans-Serif" font-size="10.00">ArrayAccess</text>
<text text-anchor="start" x="31.5" y="-1440.75" font-family="Helvetica,sans-Serif" font-size="10.00"> </text>
<text text-anchor="start" x="31.5" y="-1425.75" font-family="Helvetica,sans-Serif" font-size="10.00"> </text>
<polygon fill="#666666" stroke="#666666" points="0,-1452.25 0,-1452.25 66,-1452.25 66,-1452.25 0,-1452.25"/>
<polygon fill="#666666" stroke="#666666" points="0,-1437.25 0,-1437.25 66,-1437.25 66,-1437.25 0,-1437.25"/>
<polygon fill="none" stroke="#666666" points="0,-1420.25 0,-1469.25 66,-1469.25 66,-1420.25 0,-1420.25"/>
</a>
</g>
</g>
<!-- Node3&#45;&gt;Node2 -->
<g id="edge2_Node000002_Node000003" class="edge">
<title>Node3&#45;&gt;Node2</title>
<g id="a_edge2_Node000002_Node000003"><a xlink:title=" ">
<path fill="none" stroke="#63b8ff" d="M46.22,-1409.67C49.34,-1401.64 52.86,-1392.58 56.6,-1382.94"/>
<polygon fill="none" stroke="#63b8ff" points="43,-1408.3 42.65,-1418.89 49.53,-1410.83 43,-1408.3"/>
</a>
</g>
</g>
<!-- Node4 -->
<g id="Node000004" class="node">
<title>Node4</title>
<g id="a_Node000004"><a xlink:title=" ">
<polygon fill="white" stroke="none" points="138,-1469.25 84,-1469.25 84,-1420.25 138,-1420.25 138,-1469.25"/>
<text text-anchor="start" x="88.88" y="-1455.75" font-family="Helvetica,sans-Serif" font-size="10.00">Countable</text>
<text text-anchor="start" x="109.5" y="-1440.75" font-family="Helvetica,sans-Serif" font-size="10.00"> </text>
<text text-anchor="start" x="109.5" y="-1425.75" font-family="Helvetica,sans-Serif" font-size="10.00"> </text>
<polygon fill="#666666" stroke="#666666" points="84,-1452.25 84,-1452.25 138,-1452.25 138,-1452.25 84,-1452.25"/>
<polygon fill="#666666" stroke="#666666" points="84,-1437.25 84,-1437.25 138,-1437.25 138,-1437.25 84,-1437.25"/>
<polygon fill="none" stroke="#666666" points="84,-1420.25 84,-1469.25 138,-1469.25 138,-1420.25 84,-1420.25"/>
</a>
</g>
</g>
<!-- Node4&#45;&gt;Node2 -->
<g id="edge3_Node000002_Node000004" class="edge">
<title>Node4&#45;&gt;Node2</title>
<g id="a_edge3_Node000002_Node000004"><a xlink:title=" ">
<path fill="none" stroke="#63b8ff" d="M111,-1408.84C111,-1401.01 111,-1392.25 111,-1382.94"/>
<polygon fill="none" stroke="#63b8ff" points="107.5,-1408.79 111,-1418.79 114.5,-1408.79 107.5,-1408.79"/>
</a>
</g>
</g>
<!-- Node5 -->
<g id="Node000005" class="node">
<title>Node5</title>
<g id="a_Node000005"><a xlink:title=" ">
<polygon fill="white" stroke="none" points="241.5,-1469.25 156.5,-1469.25 156.5,-1420.25 241.5,-1420.25 241.5,-1469.25"/>
<text text-anchor="start" x="161.5" y="-1455.75" font-family="Helvetica,sans-Serif" font-size="10.00">IteratorAggregate</text>
<text text-anchor="start" x="197.5" y="-1440.75" font-family="Helvetica,sans-Serif" font-size="10.00"> </text>
<text text-anchor="start" x="197.5" y="-1425.75" font-family="Helvetica,sans-Serif" font-size="10.00"> </text>
<polygon fill="#666666" stroke="#666666" points="156.5,-1452.25 156.5,-1452.25 241.5,-1452.25 241.5,-1452.25 156.5,-1452.25"/>
<polygon fill="#666666" stroke="#666666" points="156.5,-1437.25 156.5,-1437.25 241.5,-1437.25 241.5,-1437.25 156.5,-1437.25"/>
<polygon fill="none" stroke="#666666" points="156.5,-1420.25 156.5,-1469.25 241.5,-1469.25 241.5,-1420.25 156.5,-1420.25"/>
</a>
</g>
</g>
<!-- Node5&#45;&gt;Node2 -->
<g id="edge4_Node000002_Node000005" class="edge">
<title>Node5&#45;&gt;Node2</title>
<g id="a_edge4_Node000002_Node000005"><a xlink:title=" ">
<path fill="none" stroke="#63b8ff" d="M184.2,-1409.95C180.65,-1401.85 176.65,-1392.69 172.38,-1382.94"/>
<polygon fill="none" stroke="#63b8ff" points="180.91,-1411.16 188.13,-1418.91 187.32,-1408.35 180.91,-1411.16"/>
</a>
</g>
</g>
<!-- Node6 -->
<g id="Node000006" class="node">
<title>Node6</title>
<g id="a_Node000006"><a xlink:title=" ">
<polygon fill="white" stroke="none" points="228,-1266.25 194,-1266.25 194,-1217.25 228,-1217.25 228,-1266.25"/>
<text text-anchor="start" x="199" y="-1252.75" font-family="Helvetica,sans-Serif" font-size="10.00">const</text>
<text text-anchor="start" x="209.5" y="-1237.75" font-family="Helvetica,sans-Serif" font-size="10.00"> </text>
<text text-anchor="start" x="209.5" y="-1222.75" font-family="Helvetica,sans-Serif" font-size="10.00"> </text>
<polygon fill="#666666" stroke="#666666" points="194,-1249.25 194,-1249.25 228,-1249.25 228,-1249.25 194,-1249.25"/>
<polygon fill="#666666" stroke="#666666" points="194,-1234.25 194,-1234.25 228,-1234.25 228,-1234.25 194,-1234.25"/>
<polygon fill="none" stroke="#666666" points="194,-1217.25 194,-1266.25 228,-1266.25 228,-1217.25 194,-1217.25"/>
</a>
</g>
</g>
<!-- Node6&#45;&gt;Node1 -->
<g id="edge5_Node000001_Node000006" class="edge">
<title>Node6&#45;&gt;Node1</title>
<g id="a_edge5_Node000001_Node000006"><a xlink:title=" ">
<path fill="none" stroke="#63b8ff" d="M211,-1217.38C211,-1169.95 211,-1056.17 211,-930.83"/>
<polygon fill="none" stroke="#63b8ff" points="211,-930.78 207,-924.78 211,-918.78 215,-924.78 211,-930.78"/>
</a>
</g>
<text text-anchor="middle" x="269.12" y="-1072.75" font-family="Helvetica,sans-Serif" font-size="10.00" fill="grey"> +DAILY</text>
<text text-anchor="middle" x="269.12" y="-1061.5" font-family="Helvetica,sans-Serif" font-size="10.00" fill="grey">+FREQUENCIES</text>
<text text-anchor="middle" x="269.12" y="-1050.25" font-family="Helvetica,sans-Serif" font-size="10.00" fill="grey">+HOURLY</text>
<text text-anchor="middle" x="269.12" y="-1039" font-family="Helvetica,sans-Serif" font-size="10.00" fill="grey">+LAST_DAY_OF_MONTH</text>
<text text-anchor="start" x="211" y="-1027.75" font-family="Helvetica,sans-Serif" font-size="10.00" fill="grey">+LAST_DAY_OF_MONTH</text>
<text text-anchor="middle" x="269.12" y="-1016.5" font-family="Helvetica,sans-Serif" font-size="10.00" fill="grey">_366</text>
<text text-anchor="middle" x="269.12" y="-1005.25" font-family="Helvetica,sans-Serif" font-size="10.00" fill="grey">+MAX_CYCLES</text>
<text text-anchor="middle" x="269.12" y="-994" font-family="Helvetica,sans-Serif" font-size="10.00" fill="grey">+MINUTELY</text>
<text text-anchor="middle" x="269.12" y="-982.75" font-family="Helvetica,sans-Serif" font-size="10.00" fill="grey">+MONTHDAY_MASK</text>
<text text-anchor="start" x="211" y="-971.5" font-family="Helvetica,sans-Serif" font-size="10.00" fill="grey">+MONTHDAY_MASK</text>
<text text-anchor="middle" x="269.12" y="-960.25" font-family="Helvetica,sans-Serif" font-size="10.00" fill="grey">_366</text>
<text text-anchor="middle" x="269.12" y="-949" font-family="Helvetica,sans-Serif" font-size="10.00" fill="grey">+MONTHLY</text>
<text text-anchor="middle" x="269.12" y="-937.75" font-family="Helvetica,sans-Serif" font-size="10.00" fill="grey">...</text>
</g>
<!-- Node7 -->
<g id="Node000007" class="node">
<title>Node7</title>
<g id="a_Node000007"><a xlink:title=" ">
<polygon fill="white" stroke="none" points="367,-1266.25 333,-1266.25 333,-1217.25 367,-1217.25 367,-1266.25"/>
<text text-anchor="start" x="338" y="-1252.75" font-family="Helvetica,sans-Serif" font-size="10.00">static</text>
<text text-anchor="start" x="348.5" y="-1237.75" font-family="Helvetica,sans-Serif" font-size="10.00"> </text>
<text text-anchor="start" x="348.5" y="-1222.75" font-family="Helvetica,sans-Serif" font-size="10.00"> </text>
<polygon fill="#666666" stroke="#666666" points="333,-1249.25 333,-1249.25 367,-1249.25 367,-1249.25 333,-1249.25"/>
<polygon fill="#666666" stroke="#666666" points="333,-1234.25 333,-1234.25 367,-1234.25 367,-1234.25 333,-1234.25"/>
<polygon fill="none" stroke="#666666" points="333,-1217.25 333,-1266.25 367,-1266.25 367,-1217.25 333,-1217.25"/>
</a>
</g>
</g>
<!-- Node7&#45;&gt;Node1 -->
<g id="edge6_Node000001_Node000007" class="edge">
<title>Node7&#45;&gt;Node1</title>
<g id="a_edge6_Node000001_Node000007"><a xlink:title=" ">
<path fill="none" stroke="#63b8ff" d="M349.65,-1217.27C348.6,-1165.95 344.42,-1040.01 328,-936 322.6,-901.79 315.96,-866.42 308.61,-831.13"/>
<polygon fill="none" stroke="#63b8ff" points="308.64,-831.28 303.49,-826.24 306.17,-819.54 311.32,-824.59 308.64,-831.28"/>
</a>
</g>
<text text-anchor="middle" x="371.5" y="-1010.88" font-family="Helvetica,sans-Serif" font-size="10.00" fill="grey"> #$i18n</text>
<text text-anchor="middle" x="371.5" y="-999.62" font-family="Helvetica,sans-Serif" font-size="10.00" fill="grey">#$intl_loaded</text>
</g>
</g>
</svg>
