<?xml version="1.0" encoding="UTF-8" standalone="no"?>
<!DOCTYPE svg PUBLIC "-//W3C//DTD SVG 1.1//EN"
 "http://www.w3.org/Graphics/SVG/1.1/DTD/svg11.dtd">
<!-- Generated by graphviz version 10.0.1 (20240210.2158)
 -->
<!-- Title: Mbox Pages: 1 -->
<!--zoomable 777 -->

<svg id="main" version="1.1" xmlns="http://www.w3.org/2000/svg" xmlns:xlink="http://www.w3.org/1999/xlink" xml:space="preserve" onload="init(evt)">
<style type="text/css"><![CDATA[
.node, .edge {opacity: 0.7;}
.node.selected, .edge.selected {opacity: 1;}
.edge:hover path { stroke: red; }
.edge:hover polygon { stroke: red; fill: red; }
]]></style>

<defs>
  <circle id="rim" cx="0" cy="0" r="7"/>
  <circle id="rim2" cx="0" cy="0" r="3.5"/>
  <g id="zoomPlus">
    <use xlink:href="#rim" fill="#404040"><set attributeName="fill" to="#808080" begin="zoomplus.mouseover" end="zoomplus.mouseout"/></use>
    <path d="M-4,0h8M0,-4v8" fill="none" stroke="white" stroke-width="1.5" pointer-events="none"/>
  </g>
  <g id="zoomMin">
    <use xlink:href="#rim" fill="#404040"><set attributeName="fill" to="#808080" begin="zoomminus.mouseover" end="zoomminus.mouseout"/></use>
    <path d="M-4,0h8" fill="none" stroke="white" stroke-width="1.5" pointer-events="none"/>
  </g>
  <g id="arrowUp" transform="translate(30 24)">
    <use xlink:href="#rim"/>
    <path pointer-events="none" fill="none" stroke="white" stroke-width="1.5" d="M0,-3.0v7 M-2.5,-0.5L0,-3.0L2.5,-0.5"/>
  </g>
  <g id="arrowRight" transform="rotate(90) translate(36 -43)">
    <use xlink:href="#rim"/>
    <path pointer-events="none" fill="none" stroke="white" stroke-width="1.5" d="M0,-3.0v7 M-2.5,-0.5L0,-3.0L2.5,-0.5"/>
  </g>
  <g id="arrowDown" transform="rotate(180) translate(-30 -48)">
    <use xlink:href="#rim"/>
    <path pointer-events="none" fill="none" stroke="white" stroke-width="1.5" d="M0,-3.0v7 M-2.5,-0.5L0,-3.0L2.5,-0.5"/>
  </g>
  <g id="arrowLeft" transform="rotate(270) translate(-36 17)">
    <use xlink:href="#rim"/>
    <path pointer-events="none" fill="none" stroke="white" stroke-width="1.5" d="M0,-3.0v7 M-2.5,-0.5L0,-3.0L2.5,-0.5"/>
  </g>
  <g id="resetDef">
    <use xlink:href="#rim2" fill="#404040"><set attributeName="fill" to="#808080" begin="reset.mouseover" end="reset.mouseout"/></use>
  </g>
</defs>
<script type="application/ecmascript">
var viewWidth = 246;
var viewHeight = 777;
var sectionId = 'dynsection-1';
</script>
<script type="application/ecmascript" xlink:href="svg.min.js"/>
<svg id="graph" class="graph">
<g id="viewport">
<title>Mbox</title>
<!-- Node1 -->
<g id="Node000001" class="node">
<title>Node1</title>
<g id="a_Node000001"><a xlink:title=" ">
<polygon fill="#999999" stroke="none" points="178.5,-382 43.5,-382 43.5,0 178.5,0 178.5,-382"/>
<text text-anchor="start" x="99" y="-368.5" font-family="Helvetica,sans-Serif" font-size="10.00">Mbox</text>
<text text-anchor="start" x="47.88" y="-353.5" font-family="Helvetica,sans-Serif" font-size="10.00">#</text>
<text text-anchor="start" x="57.5" y="-353.5" font-family="Helvetica,sans-Serif" font-size="10.00">$fh</text>
<text text-anchor="start" x="47.88" y="-338.5" font-family="Helvetica,sans-Serif" font-size="10.00">#</text>
<text text-anchor="start" x="57.5" y="-338.5" font-family="Helvetica,sans-Serif" font-size="10.00">$filename</text>
<text text-anchor="start" x="47.88" y="-323.5" font-family="Helvetica,sans-Serif" font-size="10.00">#</text>
<text text-anchor="start" x="57.5" y="-323.5" font-family="Helvetica,sans-Serif" font-size="10.00">$filemtime</text>
<text text-anchor="start" x="47.88" y="-308.5" font-family="Helvetica,sans-Serif" font-size="10.00">#</text>
<text text-anchor="start" x="57.5" y="-308.5" font-family="Helvetica,sans-Serif" font-size="10.00">$positions</text>
<text text-anchor="start" x="47.88" y="-293.5" font-family="Helvetica,sans-Serif" font-size="10.00">#</text>
<text text-anchor="start" x="57.5" y="-293.5" font-family="Helvetica,sans-Serif" font-size="10.00">$messageClass</text>
<text text-anchor="start" x="47.88" y="-278.5" font-family="Helvetica,sans-Serif" font-size="10.00">#</text>
<text text-anchor="start" x="57.5" y="-278.5" font-family="Helvetica,sans-Serif" font-size="10.00">$messageEOL</text>
<text text-anchor="start" x="47.5" y="-263.5" font-family="Helvetica,sans-Serif" font-size="10.00">+</text>
<text text-anchor="start" x="57.5" y="-263.5" font-family="Helvetica,sans-Serif" font-size="10.00">countMessages()</text>
<text text-anchor="start" x="47.5" y="-248.5" font-family="Helvetica,sans-Serif" font-size="10.00">+</text>
<text text-anchor="start" x="57.5" y="-248.5" font-family="Helvetica,sans-Serif" font-size="10.00">getSize($id=0)</text>
<text text-anchor="start" x="47.5" y="-233.5" font-family="Helvetica,sans-Serif" font-size="10.00">+</text>
<text text-anchor="start" x="57.5" y="-233.5" font-family="Helvetica,sans-Serif" font-size="10.00">getMessage($id)</text>
<text text-anchor="start" x="47.5" y="-218.5" font-family="Helvetica,sans-Serif" font-size="10.00">+</text>
<text text-anchor="start" x="57.5" y="-218.5" font-family="Helvetica,sans-Serif" font-size="10.00">getRawHeader($id,</text>
<text text-anchor="start" x="57.5" y="-207.25" font-family="Helvetica,sans-Serif" font-size="10.00"> $part=null, $topLines=0)</text>
<text text-anchor="start" x="47.5" y="-192.5" font-family="Helvetica,sans-Serif" font-size="10.00">+</text>
<text text-anchor="start" x="57.5" y="-192.5" font-family="Helvetica,sans-Serif" font-size="10.00">getRawContent($id,</text>
<text text-anchor="start" x="57.5" y="-181.25" font-family="Helvetica,sans-Serif" font-size="10.00"> $part=null)</text>
<text text-anchor="start" x="47.5" y="-166.5" font-family="Helvetica,sans-Serif" font-size="10.00">+</text>
<text text-anchor="start" x="57.5" y="-166.5" font-family="Helvetica,sans-Serif" font-size="10.00">__construct($params)</text>
<text text-anchor="start" x="47.5" y="-151.5" font-family="Helvetica,sans-Serif" font-size="10.00">+</text>
<text text-anchor="start" x="57.5" y="-151.5" font-family="Helvetica,sans-Serif" font-size="10.00">close()</text>
<text text-anchor="start" x="47.5" y="-136.5" font-family="Helvetica,sans-Serif" font-size="10.00">+</text>
<text text-anchor="start" x="57.5" y="-136.5" font-family="Helvetica,sans-Serif" font-size="10.00">noop()</text>
<text text-anchor="start" x="47.5" y="-121.5" font-family="Helvetica,sans-Serif" font-size="10.00">+</text>
<text text-anchor="start" x="57.5" y="-121.5" font-family="Helvetica,sans-Serif" font-size="10.00">removeMessage($id)</text>
<text text-anchor="start" x="47.5" y="-106.5" font-family="Helvetica,sans-Serif" font-size="10.00">+</text>
<text text-anchor="start" x="57.5" y="-106.5" font-family="Helvetica,sans-Serif" font-size="10.00">getUniqueId($id=null)</text>
<text text-anchor="start" x="47.5" y="-91.5" font-family="Helvetica,sans-Serif" font-size="10.00">+</text>
<text text-anchor="start" x="57.5" y="-91.5" font-family="Helvetica,sans-Serif" font-size="10.00">getNumberByUniqueId($id)</text>
<text text-anchor="start" x="47.5" y="-76.5" font-family="Helvetica,sans-Serif" font-size="10.00">+</text>
<text text-anchor="start" x="57.5" y="-76.5" font-family="Helvetica,sans-Serif" font-size="10.00">__sleep()</text>
<text text-anchor="start" x="47.5" y="-61.5" font-family="Helvetica,sans-Serif" font-size="10.00">+</text>
<text text-anchor="start" x="57.5" y="-61.5" font-family="Helvetica,sans-Serif" font-size="10.00">__wakeup()</text>
<text text-anchor="start" x="47.88" y="-46.5" font-family="Helvetica,sans-Serif" font-size="10.00">#</text>
<text text-anchor="start" x="57.5" y="-46.5" font-family="Helvetica,sans-Serif" font-size="10.00">getPos($id)</text>
<text text-anchor="start" x="47.88" y="-31.5" font-family="Helvetica,sans-Serif" font-size="10.00">#</text>
<text text-anchor="start" x="57.5" y="-31.5" font-family="Helvetica,sans-Serif" font-size="10.00">isMboxFile($file,</text>
<text text-anchor="start" x="57.5" y="-20.25" font-family="Helvetica,sans-Serif" font-size="10.00"> $fileIsString=true)</text>
<text text-anchor="start" x="47.88" y="-5.5" font-family="Helvetica,sans-Serif" font-size="10.00">#</text>
<text text-anchor="start" x="57.5" y="-5.5" font-family="Helvetica,sans-Serif" font-size="10.00">openMboxFile($filename)</text>
<polygon fill="#666666" stroke="#666666" points="43.5,-365 43.5,-365 178.5,-365 178.5,-365 43.5,-365"/>
<polygon fill="#666666" stroke="#666666" points="43.5,-275 43.5,-275 55.5,-275 55.5,-275 43.5,-275"/>
<polygon fill="#666666" stroke="#666666" points="55.5,-275 55.5,-275 178.5,-275 178.5,-275 55.5,-275"/>
<polygon fill="none" stroke="#666666" points="43.5,0 43.5,-382 178.5,-382 178.5,0 43.5,0"/>
</a>
</g>
</g>
<!-- Node2 -->
<g id="Node000002" class="node">
<title>Node2</title>
<g id="a_Node000002"><a xlink:href="class_laminas_1_1_mail_1_1_storage_1_1_abstract_storage.html" target="_top" xlink:title=" ">
<polygon fill="white" stroke="none" points="174,-684 48,-684 48,-418 174,-418 174,-684"/>
<text text-anchor="start" x="75.75" y="-670.5" font-family="Helvetica,sans-Serif" font-size="10.00">AbstractStorage</text>
<text text-anchor="start" x="52.38" y="-655.5" font-family="Helvetica,sans-Serif" font-size="10.00">#</text>
<text text-anchor="start" x="62" y="-655.5" font-family="Helvetica,sans-Serif" font-size="10.00">$has</text>
<text text-anchor="start" x="52.38" y="-640.5" font-family="Helvetica,sans-Serif" font-size="10.00">#</text>
<text text-anchor="start" x="62" y="-640.5" font-family="Helvetica,sans-Serif" font-size="10.00">$iterationPos</text>
<text text-anchor="start" x="52.38" y="-625.5" font-family="Helvetica,sans-Serif" font-size="10.00">#</text>
<text text-anchor="start" x="62" y="-625.5" font-family="Helvetica,sans-Serif" font-size="10.00">$iterationMax</text>
<text text-anchor="start" x="52.38" y="-610.5" font-family="Helvetica,sans-Serif" font-size="10.00">#</text>
<text text-anchor="start" x="62" y="-610.5" font-family="Helvetica,sans-Serif" font-size="10.00">$messageClass</text>
<text text-anchor="start" x="52" y="-595.5" font-family="Helvetica,sans-Serif" font-size="10.00">+</text>
<text text-anchor="start" x="62" y="-595.5" font-family="Helvetica,sans-Serif" font-size="10.00">__get($var)</text>
<text text-anchor="start" x="52" y="-580.5" font-family="Helvetica,sans-Serif" font-size="10.00">+</text>
<text text-anchor="start" x="62" y="-580.5" font-family="Helvetica,sans-Serif" font-size="10.00">getCapabilities()</text>
<text text-anchor="start" x="52" y="-565.5" font-family="Helvetica,sans-Serif" font-size="10.00">+</text>
<text text-anchor="start" x="62" y="-565.5" font-family="Helvetica,sans-Serif" font-size="10.00">countMessages()</text>
<text text-anchor="start" x="52" y="-550.5" font-family="Helvetica,sans-Serif" font-size="10.00">+</text>
<text text-anchor="start" x="62" y="-550.5" font-family="Helvetica,sans-Serif" font-size="10.00">getSize($id=0)</text>
<text text-anchor="start" x="52" y="-535.5" font-family="Helvetica,sans-Serif" font-size="10.00">+</text>
<text text-anchor="start" x="62" y="-535.5" font-family="Helvetica,sans-Serif" font-size="10.00">getMessage($id)</text>
<text text-anchor="start" x="52" y="-520.5" font-family="Helvetica,sans-Serif" font-size="10.00">+</text>
<text text-anchor="start" x="62" y="-520.5" font-family="Helvetica,sans-Serif" font-size="10.00">getRawHeader($id,</text>
<text text-anchor="start" x="62" y="-509.25" font-family="Helvetica,sans-Serif" font-size="10.00"> $part=null, $topLines=0)</text>
<text text-anchor="start" x="52" y="-494.5" font-family="Helvetica,sans-Serif" font-size="10.00">+</text>
<text text-anchor="start" x="62" y="-494.5" font-family="Helvetica,sans-Serif" font-size="10.00">getRawContent($id,</text>
<text text-anchor="start" x="62" y="-483.25" font-family="Helvetica,sans-Serif" font-size="10.00"> $part=null)</text>
<text text-anchor="start" x="52" y="-468.5" font-family="Helvetica,sans-Serif" font-size="10.00">+</text>
<text text-anchor="start" x="62" y="-468.5" font-family="Helvetica,sans-Serif" font-size="10.00">__construct($params)</text>
<text text-anchor="start" x="52" y="-453.5" font-family="Helvetica,sans-Serif" font-size="10.00">+</text>
<text text-anchor="start" x="62" y="-453.5" font-family="Helvetica,sans-Serif" font-size="10.00">__destruct()</text>
<text text-anchor="start" x="52" y="-438.5" font-family="Helvetica,sans-Serif" font-size="10.00">+</text>
<text text-anchor="start" x="62" y="-438.5" font-family="Helvetica,sans-Serif" font-size="10.00">close()</text>
<text text-anchor="start" x="62" y="-423.5" font-family="Helvetica,sans-Serif" font-size="10.00">et 15 de plus...</text>
<polygon fill="#666666" stroke="#666666" points="48,-667 48,-667 174,-667 174,-667 48,-667"/>
<polygon fill="#666666" stroke="#666666" points="48,-607 48,-607 60,-607 60,-607 48,-607"/>
<polygon fill="#666666" stroke="#666666" points="60,-607 60,-607 174,-607 174,-607 60,-607"/>
<polygon fill="none" stroke="#666666" points="48,-418 48,-684 174,-684 174,-418 48,-418"/>
</a>
</g>
</g>
<!-- Node2&#45;&gt;Node1 -->
<g id="edge1_Node000001_Node000002" class="edge">
<title>Node2&#45;&gt;Node1</title>
<g id="a_edge1_Node000001_Node000002"><a xlink:title=" ">
<path fill="none" stroke="#63b8ff" d="M111,-406.74C111,-398.56 111,-390.28 111,-381.97"/>
<polygon fill="none" stroke="#63b8ff" points="107.5,-406.71 111,-416.71 114.5,-406.71 107.5,-406.71"/>
</a>
</g>
</g>
<!-- Node3 -->
<g id="Node000003" class="node">
<title>Node3</title>
<g id="a_Node000003"><a xlink:title=" ">
<polygon fill="white" stroke="none" points="66,-769 0,-769 0,-720 66,-720 66,-769"/>
<text text-anchor="start" x="4.88" y="-755.5" font-family="Helvetica,sans-Serif" font-size="10.00">ArrayAccess</text>
<text text-anchor="start" x="31.5" y="-740.5" font-family="Helvetica,sans-Serif" font-size="10.00"> </text>
<text text-anchor="start" x="31.5" y="-725.5" font-family="Helvetica,sans-Serif" font-size="10.00"> </text>
<polygon fill="#666666" stroke="#666666" points="0,-752 0,-752 66,-752 66,-752 0,-752"/>
<polygon fill="#666666" stroke="#666666" points="0,-737 0,-737 66,-737 66,-737 0,-737"/>
<polygon fill="none" stroke="#666666" points="0,-720 0,-769 66,-769 66,-720 0,-720"/>
</a>
</g>
</g>
<!-- Node3&#45;&gt;Node2 -->
<g id="edge2_Node000002_Node000003" class="edge">
<title>Node3&#45;&gt;Node2</title>
<g id="a_edge2_Node000002_Node000003"><a xlink:title=" ">
<path fill="none" stroke="#63b8ff" d="M46.88,-709.42C50.02,-701.71 53.55,-693.06 57.28,-683.89"/>
<polygon fill="none" stroke="#63b8ff" points="43.67,-708.04 43.14,-718.62 50.15,-710.68 43.67,-708.04"/>
</a>
</g>
</g>
<!-- Node4 -->
<g id="Node000004" class="node">
<title>Node4</title>
<g id="a_Node000004"><a xlink:title=" ">
<polygon fill="white" stroke="none" points="138,-769 84,-769 84,-720 138,-720 138,-769"/>
<text text-anchor="start" x="88.88" y="-755.5" font-family="Helvetica,sans-Serif" font-size="10.00">Countable</text>
<text text-anchor="start" x="109.5" y="-740.5" font-family="Helvetica,sans-Serif" font-size="10.00"> </text>
<text text-anchor="start" x="109.5" y="-725.5" font-family="Helvetica,sans-Serif" font-size="10.00"> </text>
<polygon fill="#666666" stroke="#666666" points="84,-752 84,-752 138,-752 138,-752 84,-752"/>
<polygon fill="#666666" stroke="#666666" points="84,-737 84,-737 138,-737 138,-737 84,-737"/>
<polygon fill="none" stroke="#666666" points="84,-720 84,-769 138,-769 138,-720 84,-720"/>
</a>
</g>
</g>
<!-- Node4&#45;&gt;Node2 -->
<g id="edge3_Node000002_Node000004" class="edge">
<title>Node4&#45;&gt;Node2</title>
<g id="a_edge3_Node000002_Node000004"><a xlink:title=" ">
<path fill="none" stroke="#63b8ff" d="M111,-708.61C111,-701.1 111,-692.74 111,-683.89"/>
<polygon fill="none" stroke="#63b8ff" points="107.5,-708.5 111,-718.5 114.5,-708.5 107.5,-708.5"/>
</a>
</g>
</g>
<!-- Node5 -->
<g id="Node000005" class="node">
<title>Node5</title>
<g id="a_Node000005"><a xlink:title=" ">
<polygon fill="white" stroke="none" points="237.5,-769 156.5,-769 156.5,-720 237.5,-720 237.5,-769"/>
<text text-anchor="start" x="161.38" y="-755.5" font-family="Helvetica,sans-Serif" font-size="10.00">SeekableIterator</text>
<text text-anchor="start" x="195.5" y="-740.5" font-family="Helvetica,sans-Serif" font-size="10.00"> </text>
<text text-anchor="start" x="195.5" y="-725.5" font-family="Helvetica,sans-Serif" font-size="10.00"> </text>
<polygon fill="#666666" stroke="#666666" points="156.5,-752 156.5,-752 237.5,-752 237.5,-752 156.5,-752"/>
<polygon fill="#666666" stroke="#666666" points="156.5,-737 156.5,-737 237.5,-737 237.5,-737 156.5,-737"/>
<polygon fill="none" stroke="#666666" points="156.5,-720 156.5,-769 237.5,-769 237.5,-720 156.5,-720"/>
</a>
</g>
</g>
<!-- Node5&#45;&gt;Node2 -->
<g id="edge4_Node000002_Node000005" class="edge">
<title>Node5&#45;&gt;Node2</title>
<g id="a_edge4_Node000002_Node000005"><a xlink:title=" ">
<path fill="none" stroke="#63b8ff" d="M181.82,-709.69C178.32,-701.91 174.4,-693.17 170.23,-683.89"/>
<polygon fill="none" stroke="#63b8ff" points="178.55,-710.95 185.83,-718.64 184.93,-708.08 178.55,-710.95"/>
</a>
</g>
</g>
</g>
</svg>

<g id="navigator" transform="translate(0 0)" fill="#404254">
  <rect fill="#f2f5e9" fill-opacity="0.5" stroke="#606060" stroke-width=".5" x="0" y="0" width="60" height="60"/>
  <use id="zoomplus" xlink:href="#zoomPlus" x="17" y="9" onmousedown="handleZoom(evt,'in')"/>
  <use id="zoomminus" xlink:href="#zoomMin" x="42" y="9" onmousedown="handleZoom(evt,'out')"/>
  <use id="reset" xlink:href="#resetDef" x="30" y="36" onmousedown="handleReset()"/>
   <use id="arrowup" xlink:href="#arrowUp" x="0" y="0" onmousedown="handlePan(0,-1)"/>
  <use id="arrowright" xlink:href="#arrowRight" x="0" y="0" onmousedown="handlePan(1,0)"/>
  <use id="arrowdown" xlink:href="#arrowDown" x="0" y="0" onmousedown="handlePan(0,1)"/>
  <use id="arrowleft" xlink:href="#arrowLeft" x="0" y="0" onmousedown="handlePan(-1,0)"/>
</g>
<svg viewBox="0 0 15 15" width="100%" height="30px" preserveAspectRatio="xMaxYMin meet">
 <g id="arrow_out" transform="scale(0.3 0.3)">
  <a xlink:href="class_laminas_1_1_mail_1_1_storage_1_1_mbox__coll__graph_org.svg" target="_base">
   <rect id="button" ry="5" rx="5" y="6" x="6" height="38" width="38"
        fill="#f2f5e9" fill-opacity="0.5" stroke="#606060" stroke-width="1.0"/>
   <path id="arrow"
     d="M 11.500037,31.436501 C 11.940474,20.09759 22.043105,11.32322 32.158766,21.979434 L 37.068811,17.246167 C 37.068811,17.246167 37.088388,32 37.088388,32 L 22.160133,31.978069 C 22.160133,31.978069 26.997745,27.140456 26.997745,27.140456 C 18.528582,18.264221 13.291696,25.230495 11.500037,31.436501 z"
     style="fill:#404040;"/>
  </a>
 </g>
</svg>

<style type='text/css'>
<![CDATA[
[data-mouse-over-selected='false'] { opacity: 0.7; }
[data-mouse-over-selected='true']  { opacity: 1.0; }
]]>
</style>
<script type="application/ecmascript"><![CDATA[
document.addEventListener('DOMContentLoaded', (event) => {
  highlightEdges();
  highlightAdjacentNodes();
});
]]></script>
</svg>
