<?xml version="1.0" encoding="UTF-8" standalone="no"?>
<!DOCTYPE svg PUBLIC "-//W3C//DTD SVG 1.1//EN"
 "http://www.w3.org/Graphics/SVG/1.1/DTD/svg11.dtd">
<!-- Generated by graphviz version 10.0.1 (20240210.2158)
 -->
<!-- Title: Hydrator Pages: 1 -->
<svg width="145pt" height="310pt"
 viewBox="0.00 0.00 145.00 310.25" xmlns="http://www.w3.org/2000/svg" xmlns:xlink="http://www.w3.org/1999/xlink">

<svg id="main" version="1.1" xmlns="http://www.w3.org/2000/svg" xmlns:xlink="http://www.w3.org/1999/xlink" xml:space="preserve" onload="init(evt)">
<style type="text/css"><![CDATA[
.node, .edge {opacity: 0.7;}
.node.selected, .edge.selected {opacity: 1;}
.edge:hover path { stroke: red; }
.edge:hover polygon { stroke: red; fill: red; }
]]></style>
<script type="application/ecmascript" xlink:href="svg.min.js"/>
<svg id="graph" class="graph">
<g id="graph0" class="graph" transform="scale(1 1) rotate(0) translate(4 306.25)">
<title>Hydrator</title>
<!-- Node1 -->
<g id="Node000001" class="node">
<title>Node1</title>
<g id="a_Node000001"><a xlink:title=" ">
<polygon fill="#999999" stroke="none" points="137,-206 0,-206 0,0 137,0 137,-206"/>
<text text-anchor="start" x="49.75" y="-192.5" font-family="Helvetica,sans-Serif" font-size="10.00">Hydrator</text>
<text text-anchor="start" x="4" y="-177.5" font-family="Helvetica,sans-Serif" font-size="10.00">+</text>
<text text-anchor="start" x="14" y="-177.5" font-family="Helvetica,sans-Serif" font-size="10.00">$registry</text>
<text text-anchor="start" x="4" y="-162.5" font-family="Helvetica,sans-Serif" font-size="10.00">+</text>
<text text-anchor="start" x="14" y="-162.5" font-family="Helvetica,sans-Serif" font-size="10.00">$values</text>
<text text-anchor="start" x="4" y="-147.5" font-family="Helvetica,sans-Serif" font-size="10.00">+</text>
<text text-anchor="start" x="14" y="-147.5" font-family="Helvetica,sans-Serif" font-size="10.00">$properties</text>
<text text-anchor="start" x="4" y="-132.5" font-family="Helvetica,sans-Serif" font-size="10.00">+</text>
<text text-anchor="start" x="14" y="-132.5" font-family="Helvetica,sans-Serif" font-size="10.00">$value</text>
<text text-anchor="start" x="4" y="-117.5" font-family="Helvetica,sans-Serif" font-size="10.00">+</text>
<text text-anchor="start" x="14" y="-117.5" font-family="Helvetica,sans-Serif" font-size="10.00">$wakeups</text>
<text text-anchor="start" x="4" y="-102.5" font-family="Helvetica,sans-Serif" font-size="10.00">+</text>
<text text-anchor="start" x="14" y="-102.5" font-family="Helvetica,sans-Serif" font-size="10.00">__construct(?Registry</text>
<text text-anchor="start" x="14" y="-91.25" font-family="Helvetica,sans-Serif" font-size="10.00"> $registry, ?Values $values,</text>
<text text-anchor="start" x="14" y="-80" font-family="Helvetica,sans-Serif" font-size="10.00"> array $properties, $value,</text>
<text text-anchor="start" x="14" y="-68.75" font-family="Helvetica,sans-Serif" font-size="10.00"> array $wakeups)</text>
<text text-anchor="start" x="4" y="-53.5" font-family="Helvetica,sans-Serif" font-size="10.00">+</text>
<text text-anchor="start" x="14" y="-53.5" font-family="Helvetica,sans-Serif" font-size="10.00">static hydrate($objects,</text>
<text text-anchor="start" x="14" y="-42.25" font-family="Helvetica,sans-Serif" font-size="10.00"> $values, $properties,</text>
<text text-anchor="start" x="14" y="-31" font-family="Helvetica,sans-Serif" font-size="10.00"> $value, $wakeups)</text>
<text text-anchor="start" x="4" y="-16.5" font-family="Helvetica,sans-Serif" font-size="10.00">+</text>
<text text-anchor="start" x="14" y="-16.5" font-family="Helvetica,sans-Serif" font-size="10.00">static getHydrator</text>
<text text-anchor="start" x="14" y="-5.25" font-family="Helvetica,sans-Serif" font-size="10.00">($class)</text>
<polygon fill="#666666" stroke="#666666" points="0,-189 0,-189 137,-189 137,-189 0,-189"/>
<polygon fill="#666666" stroke="#666666" points="0,-114 0,-114 12,-114 12,-114 0,-114"/>
<polygon fill="#666666" stroke="#666666" points="12,-114 12,-114 137,-114 137,-114 12,-114"/>
<polygon fill="none" stroke="#666666" points="0,0 0,-206 137,-206 137,0 0,0"/>
</a>
</g>
</g>
<!-- Node2 -->
<g id="Node000002" class="node">
<title>Node2</title>
<g id="a_Node000002"><a xlink:title=" ">
<polygon fill="white" stroke="none" points="85.5,-302.25 51.5,-302.25 51.5,-253.25 85.5,-253.25 85.5,-302.25"/>
<text text-anchor="start" x="56.5" y="-288.75" font-family="Helvetica,sans-Serif" font-size="10.00">static</text>
<text text-anchor="start" x="67" y="-273.75" font-family="Helvetica,sans-Serif" font-size="10.00"> </text>
<text text-anchor="start" x="67" y="-258.75" font-family="Helvetica,sans-Serif" font-size="10.00"> </text>
<polygon fill="#666666" stroke="#666666" points="51.5,-285.25 51.5,-285.25 85.5,-285.25 85.5,-285.25 51.5,-285.25"/>
<polygon fill="#666666" stroke="#666666" points="51.5,-270.25 51.5,-270.25 85.5,-270.25 85.5,-270.25 51.5,-270.25"/>
<polygon fill="none" stroke="#666666" points="51.5,-253.25 51.5,-302.25 85.5,-302.25 85.5,-253.25 51.5,-253.25"/>
</a>
</g>
</g>
<!-- Node2&#45;&gt;Node1 -->
<g id="edge1_Node000001_Node000002" class="edge">
<title>Node2&#45;&gt;Node1</title>
<g id="a_edge1_Node000001_Node000002"><a xlink:title=" ">
<path fill="none" stroke="#63b8ff" d="M68.5,-253.45C68.5,-243.68 68.5,-231.54 68.5,-218.44"/>
<polygon fill="none" stroke="#63b8ff" points="68.5,-218.52 64.5,-212.52 68.5,-206.52 72.5,-212.52 68.5,-218.52"/>
</a>
</g>
<text text-anchor="middle" x="95.88" y="-225.75" font-family="Helvetica,sans-Serif" font-size="10.00" fill="grey"> +$hydrators</text>
</g>
</g>
</svg>
</svg>

<style type='text/css'>
<![CDATA[
[data-mouse-over-selected='false'] { opacity: 0.7; }
[data-mouse-over-selected='true']  { opacity: 1.0; }
]]>
</style>
<script type="application/ecmascript"><![CDATA[
document.addEventListener('DOMContentLoaded', (event) => {
  highlightEdges();
  highlightAdjacentNodes();
});
]]></script>
</svg>
