<?xml version="1.0" encoding="UTF-8" standalone="no"?>
<!DOCTYPE svg PUBLIC "-//W3C//DTD SVG 1.1//EN"
 "http://www.w3.org/Graphics/SVG/1.1/DTD/svg11.dtd">
<!-- Generated by graphviz version 10.0.1 (20240210.2158)
 -->
<!-- Title: CheckSchemaIntegrityCommand Pages: 1 -->
<!--zoomable 1175 -->

<svg id="main" version="1.1" xmlns="http://www.w3.org/2000/svg" xmlns:xlink="http://www.w3.org/1999/xlink" xml:space="preserve" onload="init(evt)">
<style type="text/css"><![CDATA[
.node, .edge {opacity: 0.7;}
.node.selected, .edge.selected {opacity: 1;}
.edge:hover path { stroke: red; }
.edge:hover polygon { stroke: red; fill: red; }
]]></style>

<defs>
  <circle id="rim" cx="0" cy="0" r="7"/>
  <circle id="rim2" cx="0" cy="0" r="3.5"/>
  <g id="zoomPlus">
    <use xlink:href="#rim" fill="#404040"><set attributeName="fill" to="#808080" begin="zoomplus.mouseover" end="zoomplus.mouseout"/></use>
    <path d="M-4,0h8M0,-4v8" fill="none" stroke="white" stroke-width="1.5" pointer-events="none"/>
  </g>
  <g id="zoomMin">
    <use xlink:href="#rim" fill="#404040"><set attributeName="fill" to="#808080" begin="zoomminus.mouseover" end="zoomminus.mouseout"/></use>
    <path d="M-4,0h8" fill="none" stroke="white" stroke-width="1.5" pointer-events="none"/>
  </g>
  <g id="arrowUp" transform="translate(30 24)">
    <use xlink:href="#rim"/>
    <path pointer-events="none" fill="none" stroke="white" stroke-width="1.5" d="M0,-3.0v7 M-2.5,-0.5L0,-3.0L2.5,-0.5"/>
  </g>
  <g id="arrowRight" transform="rotate(90) translate(36 -43)">
    <use xlink:href="#rim"/>
    <path pointer-events="none" fill="none" stroke="white" stroke-width="1.5" d="M0,-3.0v7 M-2.5,-0.5L0,-3.0L2.5,-0.5"/>
  </g>
  <g id="arrowDown" transform="rotate(180) translate(-30 -48)">
    <use xlink:href="#rim"/>
    <path pointer-events="none" fill="none" stroke="white" stroke-width="1.5" d="M0,-3.0v7 M-2.5,-0.5L0,-3.0L2.5,-0.5"/>
  </g>
  <g id="arrowLeft" transform="rotate(270) translate(-36 17)">
    <use xlink:href="#rim"/>
    <path pointer-events="none" fill="none" stroke="white" stroke-width="1.5" d="M0,-3.0v7 M-2.5,-0.5L0,-3.0L2.5,-0.5"/>
  </g>
  <g id="resetDef">
    <use xlink:href="#rim2" fill="#404040"><set attributeName="fill" to="#808080" begin="reset.mouseover" end="reset.mouseout"/></use>
  </g>
</defs>
<script type="application/ecmascript">
var viewWidth = 416;
var viewHeight = 1175;
var sectionId = 'dynsection-1';
</script>
<script type="application/ecmascript" xlink:href="svg.min.js"/>
<svg id="graph" class="graph">
<g id="viewport">
<title>CheckSchemaIntegrityCommand</title>
<!-- Node1 -->
<g id="Node000001" class="node">
<title>Node1</title>
<g id="a_Node000001"><a xlink:title=" ">
<polygon fill="#999999" stroke="none" points="154,-49 0,-49 0,0 154,0 154,-49"/>
<text text-anchor="start" x="4.62" y="-35.5" font-family="Helvetica,sans-Serif" font-size="10.00">CheckSchemaIntegrityCommand</text>
<text text-anchor="start" x="10.88" y="-20.5" font-family="Helvetica,sans-Serif" font-size="10.00">#</text>
<text text-anchor="start" x="27" y="-20.5" font-family="Helvetica,sans-Serif" font-size="10.00">$requires_db_up_to_date</text>
<text text-anchor="start" x="10.88" y="-5.5" font-family="Helvetica,sans-Serif" font-size="10.00">#</text>
<text text-anchor="start" x="27" y="-5.5" font-family="Helvetica,sans-Serif" font-size="10.00">configure()</text>
<polygon fill="#666666" stroke="#666666" points="0,-32 0,-32 154,-32 154,-32 0,-32"/>
<polygon fill="#666666" stroke="#666666" points="0,-17 0,-17 25,-17 25,-17 0,-17"/>
<polygon fill="#666666" stroke="#666666" points="25,-17 25,-17 154,-17 154,-17 25,-17"/>
<polygon fill="none" stroke="#666666" points="0,0 0,-49 154,-49 154,0 0,0"/>
</a>
</g>
</g>
<!-- Node2 -->
<g id="Node000002" class="node">
<title>Node2</title>
<g id="a_Node000002"><a xlink:href="class_glpi_1_1_console_1_1_abstract_command.html" target="_top" xlink:title=" ">
<polygon fill="white" stroke="none" points="318,-513 112,-513 112,-86 318,-86 318,-513"/>
<text text-anchor="start" x="174.12" y="-499.5" font-family="Helvetica,sans-Serif" font-size="10.00">AbstractCommand</text>
<text text-anchor="start" x="116.38" y="-484.5" font-family="Helvetica,sans-Serif" font-size="10.00">#</text>
<text text-anchor="start" x="126" y="-484.5" font-family="Helvetica,sans-Serif" font-size="10.00">$db</text>
<text text-anchor="start" x="116.38" y="-469.5" font-family="Helvetica,sans-Serif" font-size="10.00">#</text>
<text text-anchor="start" x="126" y="-469.5" font-family="Helvetica,sans-Serif" font-size="10.00">$input</text>
<text text-anchor="start" x="116.38" y="-454.5" font-family="Helvetica,sans-Serif" font-size="10.00">#</text>
<text text-anchor="start" x="126" y="-454.5" font-family="Helvetica,sans-Serif" font-size="10.00">$output</text>
<text text-anchor="start" x="116.38" y="-439.5" font-family="Helvetica,sans-Serif" font-size="10.00">#</text>
<text text-anchor="start" x="126" y="-439.5" font-family="Helvetica,sans-Serif" font-size="10.00">$requires_db</text>
<text text-anchor="start" x="116.38" y="-424.5" font-family="Helvetica,sans-Serif" font-size="10.00">#</text>
<text text-anchor="start" x="126" y="-424.5" font-family="Helvetica,sans-Serif" font-size="10.00">$requires_db_up_to_date</text>
<text text-anchor="start" x="116.38" y="-409.5" font-family="Helvetica,sans-Serif" font-size="10.00">#</text>
<text text-anchor="start" x="126" y="-409.5" font-family="Helvetica,sans-Serif" font-size="10.00">$progress_bar</text>
<text text-anchor="start" x="116" y="-394.5" font-family="Helvetica,sans-Serif" font-size="10.00">+</text>
<text text-anchor="start" x="126" y="-394.5" font-family="Helvetica,sans-Serif" font-size="10.00">mustCheckMandatoryRequirements()</text>
<text text-anchor="start" x="116" y="-379.5" font-family="Helvetica,sans-Serif" font-size="10.00">+</text>
<text text-anchor="start" x="126" y="-379.5" font-family="Helvetica,sans-Serif" font-size="10.00">requiresUpToDateDb()</text>
<text text-anchor="start" x="116.38" y="-364.5" font-family="Helvetica,sans-Serif" font-size="10.00">#</text>
<text text-anchor="start" x="126" y="-364.5" font-family="Helvetica,sans-Serif" font-size="10.00">initialize(InputInterface</text>
<text text-anchor="start" x="126" y="-353.25" font-family="Helvetica,sans-Serif" font-size="10.00"> $input, OutputInterface</text>
<text text-anchor="start" x="126" y="-342" font-family="Helvetica,sans-Serif" font-size="10.00"> $output)</text>
<text text-anchor="start" x="116.38" y="-327.5" font-family="Helvetica,sans-Serif" font-size="10.00">#</text>
<text text-anchor="start" x="126" y="-327.5" font-family="Helvetica,sans-Serif" font-size="10.00">writelnOutputWithProgress</text>
<text text-anchor="start" x="126" y="-316.25" font-family="Helvetica,sans-Serif" font-size="10.00">Bar( $messages, ProgressBar</text>
<text text-anchor="start" x="126" y="-305" font-family="Helvetica,sans-Serif" font-size="10.00"> $progress_bar, $verbosity</text>
<text text-anchor="start" x="126" y="-293.75" font-family="Helvetica,sans-Serif" font-size="10.00">=OutputInterface::VERBOSITY_NORMAL)</text>
<text text-anchor="start" x="116.38" y="-278.5" font-family="Helvetica,sans-Serif" font-size="10.00">#</text>
<text text-anchor="start" x="126" y="-278.5" font-family="Helvetica,sans-Serif" font-size="10.00">outputSessionBufferedMessages</text>
<text text-anchor="start" x="126" y="-267.25" font-family="Helvetica,sans-Serif" font-size="10.00">($levels_to_output=[INFO,</text>
<text text-anchor="start" x="126" y="-256" font-family="Helvetica,sans-Serif" font-size="10.00"> WARNING, ERROR])</text>
<text text-anchor="start" x="116.38" y="-241.5" font-family="Helvetica,sans-Serif" font-size="10.00">#</text>
<text text-anchor="start" x="126" y="-241.5" font-family="Helvetica,sans-Serif" font-size="10.00">outputWarningOnMissingOptionnal</text>
<text text-anchor="start" x="126" y="-230.25" font-family="Helvetica,sans-Serif" font-size="10.00">Requirements()</text>
<text text-anchor="start" x="116.38" y="-215.5" font-family="Helvetica,sans-Serif" font-size="10.00">#</text>
<text text-anchor="start" x="126" y="-215.5" font-family="Helvetica,sans-Serif" font-size="10.00">askForConfirmation</text>
<text text-anchor="start" x="126" y="-204.25" font-family="Helvetica,sans-Serif" font-size="10.00">(bool $default_to_yes=true)</text>
<text text-anchor="start" x="116.38" y="-189.5" font-family="Helvetica,sans-Serif" font-size="10.00">#</text>
<text text-anchor="start" x="126" y="-189.5" font-family="Helvetica,sans-Serif" font-size="10.00">warnAboutExecutionTime()</text>
<text text-anchor="start" x="116.38" y="-174.5" font-family="Helvetica,sans-Serif" font-size="10.00">#</text>
<text text-anchor="start" x="126" y="-174.5" font-family="Helvetica,sans-Serif" font-size="10.00">iterate(iterable </text>
<text text-anchor="start" x="126" y="-163.25" font-family="Helvetica,sans-Serif" font-size="10.00">$iterable, ?callable</text>
<text text-anchor="start" x="126" y="-152" font-family="Helvetica,sans-Serif" font-size="10.00"> $message_callback=null,</text>
<text text-anchor="start" x="126" y="-140.75" font-family="Helvetica,sans-Serif" font-size="10.00"> ?int $count=null)</text>
<text text-anchor="start" x="116.38" y="-125.5" font-family="Helvetica,sans-Serif" font-size="10.00">#</text>
<text text-anchor="start" x="126" y="-125.5" font-family="Helvetica,sans-Serif" font-size="10.00">outputMessage(string</text>
<text text-anchor="start" x="126" y="-114.25" font-family="Helvetica,sans-Serif" font-size="10.00"> $message, int $verbosity</text>
<text text-anchor="start" x="126" y="-103" font-family="Helvetica,sans-Serif" font-size="10.00">=OutputInterface::VERBOSITY</text>
<text text-anchor="start" x="126" y="-91.75" font-family="Helvetica,sans-Serif" font-size="10.00">_NORMAL)</text>
<polygon fill="#666666" stroke="#666666" points="112,-496 112,-496 318,-496 318,-496 112,-496"/>
<polygon fill="#666666" stroke="#666666" points="112,-406 112,-406 124,-406 124,-406 112,-406"/>
<polygon fill="#666666" stroke="#666666" points="124,-406 124,-406 318,-406 318,-406 124,-406"/>
<polygon fill="none" stroke="#666666" points="112,-86 112,-513 318,-513 318,-86 112,-86"/>
</a>
</g>
</g>
<!-- Node2&#45;&gt;Node1 -->
<g id="edge1_Node000001_Node000002" class="edge">
<title>Node2&#45;&gt;Node1</title>
<g id="a_edge1_Node000001_Node000002"><a xlink:title=" ">
<path fill="none" stroke="#63b8ff" d="M107.01,-84.86C99.97,-70.94 93.74,-58.61 88.8,-48.85"/>
<polygon fill="none" stroke="#63b8ff" points="103.68,-86.05 111.32,-93.39 109.93,-82.89 103.68,-86.05"/>
</a>
</g>
</g>
<!-- Node3 -->
<g id="Node000003" class="node">
<title>Node3</title>
<g id="a_Node000003"><a xlink:href="class_symfony_1_1_component_1_1_console_1_1_command_1_1_command.html" target="_top" xlink:title=" ">
<polygon fill="white" stroke="none" points="210,-1048.25 54,-1048.25 54,-605.25 210,-605.25 210,-1048.25"/>
<text text-anchor="start" x="109.5" y="-1034.75" font-family="Helvetica,sans-Serif" font-size="10.00">Command</text>
<text text-anchor="start" x="130.5" y="-1019.75" font-family="Helvetica,sans-Serif" font-size="10.00"> </text>
<text text-anchor="start" x="58" y="-1004.75" font-family="Helvetica,sans-Serif" font-size="10.00">+</text>
<text text-anchor="start" x="68" y="-1004.75" font-family="Helvetica,sans-Serif" font-size="10.00">__construct(string</text>
<text text-anchor="start" x="68" y="-993.5" font-family="Helvetica,sans-Serif" font-size="10.00"> $name=null)</text>
<text text-anchor="start" x="58" y="-978.75" font-family="Helvetica,sans-Serif" font-size="10.00">+</text>
<text text-anchor="start" x="68" y="-978.75" font-family="Helvetica,sans-Serif" font-size="10.00">ignoreValidationErrors()</text>
<text text-anchor="start" x="58" y="-963.75" font-family="Helvetica,sans-Serif" font-size="10.00">+</text>
<text text-anchor="start" x="68" y="-963.75" font-family="Helvetica,sans-Serif" font-size="10.00">setApplication(Application</text>
<text text-anchor="start" x="68" y="-952.5" font-family="Helvetica,sans-Serif" font-size="10.00"> $application=null)</text>
<text text-anchor="start" x="58" y="-937.75" font-family="Helvetica,sans-Serif" font-size="10.00">+</text>
<text text-anchor="start" x="68" y="-937.75" font-family="Helvetica,sans-Serif" font-size="10.00">setHelperSet(HelperSet</text>
<text text-anchor="start" x="68" y="-926.5" font-family="Helvetica,sans-Serif" font-size="10.00"> $helperSet)</text>
<text text-anchor="start" x="58" y="-911.75" font-family="Helvetica,sans-Serif" font-size="10.00">+</text>
<text text-anchor="start" x="68" y="-911.75" font-family="Helvetica,sans-Serif" font-size="10.00">getHelperSet()</text>
<text text-anchor="start" x="58" y="-896.75" font-family="Helvetica,sans-Serif" font-size="10.00">+</text>
<text text-anchor="start" x="68" y="-896.75" font-family="Helvetica,sans-Serif" font-size="10.00">getApplication()</text>
<text text-anchor="start" x="58" y="-881.75" font-family="Helvetica,sans-Serif" font-size="10.00">+</text>
<text text-anchor="start" x="68" y="-881.75" font-family="Helvetica,sans-Serif" font-size="10.00">isEnabled()</text>
<text text-anchor="start" x="58" y="-866.75" font-family="Helvetica,sans-Serif" font-size="10.00">+</text>
<text text-anchor="start" x="68" y="-866.75" font-family="Helvetica,sans-Serif" font-size="10.00">run(InputInterface</text>
<text text-anchor="start" x="68" y="-855.5" font-family="Helvetica,sans-Serif" font-size="10.00"> $input, OutputInterface</text>
<text text-anchor="start" x="68" y="-844.25" font-family="Helvetica,sans-Serif" font-size="10.00"> $output)</text>
<text text-anchor="start" x="58" y="-829.75" font-family="Helvetica,sans-Serif" font-size="10.00">+</text>
<text text-anchor="start" x="68" y="-829.75" font-family="Helvetica,sans-Serif" font-size="10.00">complete(CompletionInput</text>
<text text-anchor="start" x="68" y="-818.5" font-family="Helvetica,sans-Serif" font-size="10.00"> $input, CompletionSuggestions</text>
<text text-anchor="start" x="68" y="-807.25" font-family="Helvetica,sans-Serif" font-size="10.00"> $suggestions)</text>
<text text-anchor="start" x="58" y="-792.75" font-family="Helvetica,sans-Serif" font-size="10.00">+</text>
<text text-anchor="start" x="68" y="-792.75" font-family="Helvetica,sans-Serif" font-size="10.00">setCode(callable </text>
<text text-anchor="start" x="68" y="-781.5" font-family="Helvetica,sans-Serif" font-size="10.00">$code)</text>
<text text-anchor="start" x="68" y="-766.75" font-family="Helvetica,sans-Serif" font-size="10.00">et 22 de plus...</text>
<text text-anchor="start" x="58" y="-751.75" font-family="Helvetica,sans-Serif" font-size="10.00">+</text>
<text text-anchor="start" x="68" y="-751.75" font-family="Helvetica,sans-Serif" font-size="10.00">static getDefaultName()</text>
<text text-anchor="start" x="58" y="-736.75" font-family="Helvetica,sans-Serif" font-size="10.00">+</text>
<text text-anchor="start" x="68" y="-736.75" font-family="Helvetica,sans-Serif" font-size="10.00">static getDefaultDescription()</text>
<text text-anchor="start" x="58.38" y="-721.75" font-family="Helvetica,sans-Serif" font-size="10.00">#</text>
<text text-anchor="start" x="68" y="-721.75" font-family="Helvetica,sans-Serif" font-size="10.00">configure()</text>
<text text-anchor="start" x="58.38" y="-706.75" font-family="Helvetica,sans-Serif" font-size="10.00">#</text>
<text text-anchor="start" x="68" y="-706.75" font-family="Helvetica,sans-Serif" font-size="10.00">execute(InputInterface</text>
<text text-anchor="start" x="68" y="-695.5" font-family="Helvetica,sans-Serif" font-size="10.00"> $input, OutputInterface</text>
<text text-anchor="start" x="68" y="-684.25" font-family="Helvetica,sans-Serif" font-size="10.00"> $output)</text>
<text text-anchor="start" x="58.38" y="-669.75" font-family="Helvetica,sans-Serif" font-size="10.00">#</text>
<text text-anchor="start" x="68" y="-669.75" font-family="Helvetica,sans-Serif" font-size="10.00">interact(InputInterface</text>
<text text-anchor="start" x="68" y="-658.5" font-family="Helvetica,sans-Serif" font-size="10.00"> $input, OutputInterface</text>
<text text-anchor="start" x="68" y="-647.25" font-family="Helvetica,sans-Serif" font-size="10.00"> $output)</text>
<text text-anchor="start" x="58.38" y="-632.75" font-family="Helvetica,sans-Serif" font-size="10.00">#</text>
<text text-anchor="start" x="68" y="-632.75" font-family="Helvetica,sans-Serif" font-size="10.00">initialize(InputInterface</text>
<text text-anchor="start" x="68" y="-621.5" font-family="Helvetica,sans-Serif" font-size="10.00"> $input, OutputInterface</text>
<text text-anchor="start" x="68" y="-610.25" font-family="Helvetica,sans-Serif" font-size="10.00"> $output)</text>
<polygon fill="#666666" stroke="#666666" points="54,-1031.25 54,-1031.25 210,-1031.25 210,-1031.25 54,-1031.25"/>
<polygon fill="#666666" stroke="#666666" points="54,-1016.25 54,-1016.25 210,-1016.25 210,-1016.25 54,-1016.25"/>
<polygon fill="none" stroke="#666666" points="54,-605.25 54,-1048.25 210,-1048.25 210,-605.25 54,-605.25"/>
</a>
</g>
</g>
<!-- Node3&#45;&gt;Node2 -->
<g id="edge2_Node000002_Node000003" class="edge">
<title>Node3&#45;&gt;Node2</title>
<g id="a_edge2_Node000002_Node000003"><a xlink:title=" ">
<path fill="none" stroke="#63b8ff" d="M199.84,-593.97C200.24,-591.72 200.63,-589.48 201,-587.25 205,-563.28 207.98,-538.05 210.19,-512.89"/>
<polygon fill="none" stroke="#63b8ff" points="196.41,-593.31 198.02,-603.78 203.29,-594.59 196.41,-593.31"/>
</a>
</g>
</g>
<!-- Node4 -->
<g id="Node000004" class="node">
<title>Node4</title>
<g id="a_Node000004"><a xlink:title=" ">
<polygon fill="white" stroke="none" points="57,-1167 23,-1167 23,-1118 57,-1118 57,-1167"/>
<text text-anchor="start" x="28" y="-1153.5" font-family="Helvetica,sans-Serif" font-size="10.00">const</text>
<text text-anchor="start" x="38.5" y="-1138.5" font-family="Helvetica,sans-Serif" font-size="10.00"> </text>
<text text-anchor="start" x="38.5" y="-1123.5" font-family="Helvetica,sans-Serif" font-size="10.00"> </text>
<polygon fill="#666666" stroke="#666666" points="23,-1150 23,-1150 57,-1150 57,-1150 23,-1150"/>
<polygon fill="#666666" stroke="#666666" points="23,-1135 23,-1135 57,-1135 57,-1135 23,-1135"/>
<polygon fill="none" stroke="#666666" points="23,-1118 23,-1167 57,-1167 57,-1118 23,-1118"/>
</a>
</g>
</g>
<!-- Node4&#45;&gt;Node1 -->
<g id="edge6_Node000001_Node000004" class="edge">
<title>Node4&#45;&gt;Node1</title>
<g id="a_edge6_Node000001_Node000004"><a xlink:title=" ">
<path fill="none" stroke="#63b8ff" d="M37.75,-1118.19C30.22,-1037.09 7.15,-759.7 20,-531 29.93,-354.31 59.24,-144.52 71.5,-61.7"/>
<polygon fill="none" stroke="#63b8ff" points="71.52,-61.61 68.45,-55.09 73.29,-49.74 76.36,-56.27 71.52,-61.61"/>
</a>
</g>
<text text-anchor="middle" x="108.5" y="-577.75" font-family="Helvetica,sans-Serif" font-size="10.00" fill="grey"> +ERROR_FOUND_DIFFERENCES</text>
<text text-anchor="middle" x="108.5" y="-566.5" font-family="Helvetica,sans-Serif" font-size="10.00" fill="grey">+ERROR_REQUIRE_DB_UPDATE</text>
<text text-anchor="start" x="20" y="-555.25" font-family="Helvetica,sans-Serif" font-size="10.00" fill="grey">+ERROR_UNABLE_TO_READ</text>
<text text-anchor="middle" x="108.5" y="-544" font-family="Helvetica,sans-Serif" font-size="10.00" fill="grey">_EMPTYSQL</text>
<text text-anchor="middle" x="108.5" y="-532.75" font-family="Helvetica,sans-Serif" font-size="10.00" fill="grey">+ERROR_UNSUPPORTED_VERSION</text>
</g>
<!-- Node4&#45;&gt;Node3 -->
<g id="edge3_Node000003_Node000004" class="edge">
<title>Node4&#45;&gt;Node3</title>
<g id="a_edge3_Node000003_Node000004"><a xlink:title=" ">
<path fill="none" stroke="#63b8ff" d="M46.84,-1118.17C51.08,-1103.72 56.99,-1083.54 63.76,-1060.48"/>
<polygon fill="none" stroke="#63b8ff" points="63.73,-1060.56 61.58,-1053.67 67.11,-1049.04 69.26,-1055.92 63.73,-1060.56"/>
</a>
</g>
<text text-anchor="middle" x="87.75" y="-1090.5" font-family="Helvetica,sans-Serif" font-size="10.00" fill="grey"> +FAILURE</text>
<text text-anchor="middle" x="87.75" y="-1079.25" font-family="Helvetica,sans-Serif" font-size="10.00" fill="grey">+INVALID</text>
<text text-anchor="middle" x="87.75" y="-1068" font-family="Helvetica,sans-Serif" font-size="10.00" fill="grey">+SUCCESS</text>
</g>
<!-- Node5 -->
<g id="Node000005" class="node">
<title>Node5</title>
<g id="a_Node000005"><a xlink:title=" ">
<polygon fill="white" stroke="none" points="152,-1167 118,-1167 118,-1118 152,-1118 152,-1167"/>
<text text-anchor="start" x="123" y="-1153.5" font-family="Helvetica,sans-Serif" font-size="10.00">static</text>
<text text-anchor="start" x="133.5" y="-1138.5" font-family="Helvetica,sans-Serif" font-size="10.00"> </text>
<text text-anchor="start" x="133.5" y="-1123.5" font-family="Helvetica,sans-Serif" font-size="10.00"> </text>
<polygon fill="#666666" stroke="#666666" points="118,-1150 118,-1150 152,-1150 152,-1150 118,-1150"/>
<polygon fill="#666666" stroke="#666666" points="118,-1135 118,-1135 152,-1135 152,-1135 118,-1135"/>
<polygon fill="none" stroke="#666666" points="118,-1118 118,-1167 152,-1167 152,-1118 118,-1118"/>
</a>
</g>
</g>
<!-- Node5&#45;&gt;Node3 -->
<g id="edge4_Node000003_Node000005" class="edge">
<title>Node5&#45;&gt;Node3</title>
<g id="a_edge4_Node000003_Node000005"><a xlink:title=" ">
<path fill="none" stroke="#63b8ff" d="M134.78,-1118.17C134.64,-1103.85 134.45,-1083.91 134.23,-1061.12"/>
<polygon fill="none" stroke="#63b8ff" points="134.23,-1061.08 130.17,-1055.12 134.12,-1049.08 138.17,-1055.04 134.23,-1061.08"/>
</a>
</g>
<text text-anchor="middle" x="181.12" y="-1084.88" font-family="Helvetica,sans-Serif" font-size="10.00" fill="grey"> #$defaultDescription</text>
<text text-anchor="middle" x="181.12" y="-1073.62" font-family="Helvetica,sans-Serif" font-size="10.00" fill="grey">#$defaultName</text>
</g>
<!-- Node6 -->
<g id="Node000006" class="node">
<title>Node6</title>
<g id="a_Node000006"><a xlink:href="interface_glpi_1_1_console_1_1_command_1_1_glpi_command_interface.html" target="_top" xlink:title=" ">
<polygon fill="white" stroke="none" points="408,-858.75 228,-858.75 228,-794.75 408,-794.75 408,-858.75"/>
<text text-anchor="start" x="267.75" y="-845.25" font-family="Helvetica,sans-Serif" font-size="10.00">GlpiCommandInterface</text>
<text text-anchor="start" x="316.5" y="-830.25" font-family="Helvetica,sans-Serif" font-size="10.00"> </text>
<text text-anchor="start" x="232" y="-815.25" font-family="Helvetica,sans-Serif" font-size="10.00">+</text>
<text text-anchor="start" x="242" y="-815.25" font-family="Helvetica,sans-Serif" font-size="10.00">mustCheckMandatoryRequirements()</text>
<text text-anchor="start" x="232" y="-800.25" font-family="Helvetica,sans-Serif" font-size="10.00">+</text>
<text text-anchor="start" x="242" y="-800.25" font-family="Helvetica,sans-Serif" font-size="10.00">requiresUpToDateDb()</text>
<polygon fill="#666666" stroke="#666666" points="228,-841.75 228,-841.75 408,-841.75 408,-841.75 228,-841.75"/>
<polygon fill="#666666" stroke="#666666" points="228,-826.75 228,-826.75 408,-826.75 408,-826.75 228,-826.75"/>
<polygon fill="none" stroke="#666666" points="228,-794.75 228,-858.75 408,-858.75 408,-794.75 228,-794.75"/>
</a>
</g>
</g>
<!-- Node6&#45;&gt;Node2 -->
<g id="edge5_Node000002_Node000006" class="edge">
<title>Node6&#45;&gt;Node2</title>
<g id="a_edge5_Node000002_Node000006"><a xlink:title=" ">
<path fill="none" stroke="#63b8ff" d="M309.77,-783.8C298.23,-724.95 276.43,-613.76 256.64,-512.86"/>
<polygon fill="none" stroke="#63b8ff" points="306.29,-784.23 311.65,-793.37 313.16,-782.88 306.29,-784.23"/>
</a>
</g>
</g>
</g>
</svg>

<g id="navigator" transform="translate(0 0)" fill="#404254">
  <rect fill="#f2f5e9" fill-opacity="0.5" stroke="#606060" stroke-width=".5" x="0" y="0" width="60" height="60"/>
  <use id="zoomplus" xlink:href="#zoomPlus" x="17" y="9" onmousedown="handleZoom(evt,'in')"/>
  <use id="zoomminus" xlink:href="#zoomMin" x="42" y="9" onmousedown="handleZoom(evt,'out')"/>
  <use id="reset" xlink:href="#resetDef" x="30" y="36" onmousedown="handleReset()"/>
   <use id="arrowup" xlink:href="#arrowUp" x="0" y="0" onmousedown="handlePan(0,-1)"/>
  <use id="arrowright" xlink:href="#arrowRight" x="0" y="0" onmousedown="handlePan(1,0)"/>
  <use id="arrowdown" xlink:href="#arrowDown" x="0" y="0" onmousedown="handlePan(0,1)"/>
  <use id="arrowleft" xlink:href="#arrowLeft" x="0" y="0" onmousedown="handlePan(-1,0)"/>
</g>
<svg viewBox="0 0 15 15" width="100%" height="30px" preserveAspectRatio="xMaxYMin meet">
 <g id="arrow_out" transform="scale(0.3 0.3)">
  <a xlink:href="class_glpi_1_1_console_1_1_database_1_1_check_schema_integrity_command__coll__graph_org.svg" target="_base">
   <rect id="button" ry="5" rx="5" y="6" x="6" height="38" width="38"
        fill="#f2f5e9" fill-opacity="0.5" stroke="#606060" stroke-width="1.0"/>
   <path id="arrow"
     d="M 11.500037,31.436501 C 11.940474,20.09759 22.043105,11.32322 32.158766,21.979434 L 37.068811,17.246167 C 37.068811,17.246167 37.088388,32 37.088388,32 L 22.160133,31.978069 C 22.160133,31.978069 26.997745,27.140456 26.997745,27.140456 C 18.528582,18.264221 13.291696,25.230495 11.500037,31.436501 z"
     style="fill:#404040;"/>
  </a>
 </g>
</svg>

<style type='text/css'>
<![CDATA[
[data-mouse-over-selected='false'] { opacity: 0.7; }
[data-mouse-over-selected='true']  { opacity: 1.0; }
]]>
</style>
<script type="application/ecmascript"><![CDATA[
document.addEventListener('DOMContentLoaded', (event) => {
  highlightEdges();
  highlightAdjacentNodes();
});
]]></script>
</svg>
