<?xml version="1.0" encoding="UTF-8" standalone="no"?>
<!DOCTYPE svg PUBLIC "-//W3C//DTD SVG 1.1//EN"
 "http://www.w3.org/Graphics/SVG/1.1/DTD/svg11.dtd">
<!-- Generated by graphviz version 10.0.1 (20240210.2158)
 -->
<!-- Title: commit Pages: 1 -->
<svg width="239pt" height="138pt"
 viewBox="0.00 0.00 239.00 138.25" xmlns="http://www.w3.org/2000/svg" xmlns:xlink="http://www.w3.org/1999/xlink">

<svg id="main" version="1.1" xmlns="http://www.w3.org/2000/svg" xmlns:xlink="http://www.w3.org/1999/xlink" xml:space="preserve" onload="init(evt)">
<style type="text/css"><![CDATA[
.node, .edge {opacity: 0.7;}
.node.selected, .edge.selected {opacity: 1;}
.edge:hover path { stroke: red; }
.edge:hover polygon { stroke: red; fill: red; }
]]></style>
<script type="application/ecmascript" xlink:href="svg.min.js"/>
<svg id="graph" class="graph">
<g id="graph0" class="graph" transform="scale(1 1) rotate(0) translate(4 134.25)">
<title>commit</title>
<!-- Node1 -->
<g id="Node000001" class="node">
<title>Node1</title>
<g id="a_Node000001"><a xlink:title=" ">
<polygon fill="#999999" stroke="#666666" points="231,-74.25 182.75,-74.25 182.75,-55 231,-55 231,-74.25"/>
<text text-anchor="middle" x="206.88" y="-60.75" font-family="Helvetica,sans-Serif" font-size="10.00">commit</text>
</a>
</g>
</g>
<!-- Node2 -->
<g id="Node000002" class="node">
<title>Node2</title>
<g id="a_Node000002"><a xlink:href="class_symfony_1_1_component_1_1_cache_1_1_adapter_1_1_tag_aware_adapter.html#a421831a265621325e1fdd19aace0c758" target="_top" xlink:title=" ">
<polygon fill="white" stroke="#666666" points="146.75,-130.25 85,-130.25 85,-111 146.75,-111 146.75,-130.25"/>
<text text-anchor="middle" x="115.88" y="-116.75" font-family="Helvetica,sans-Serif" font-size="10.00">__destruct</text>
</a>
</g>
</g>
<!-- Node1&#45;&gt;Node2 -->
<g id="edge1_Node000001_Node000002" class="edge">
<title>Node1&#45;&gt;Node2</title>
<g id="a_edge1_Node000001_Node000002"><a xlink:title=" ">
<path fill="none" stroke="#63b8ff" d="M180.98,-80.85C170.46,-87.65 158.05,-95.59 146.75,-102.62 142.53,-105.25 137.95,-108.04 133.68,-110.62"/>
<polygon fill="#63b8ff" stroke="#63b8ff" points="182.64,-83.95 189.12,-75.57 178.83,-78.08 182.64,-83.95"/>
</a>
</g>
</g>
<!-- Node3 -->
<g id="Node000003" class="node">
<title>Node3</title>
<g id="a_Node000003"><a xlink:href="class_symfony_1_1_component_1_1_cache_1_1_adapter_1_1_tag_aware_adapter.html#a3db5bc3828085ecc62d0c6eff743dcff" target="_top" xlink:title=" ">
<polygon fill="white" stroke="#666666" points="143,-93.25 88.75,-93.25 88.75,-74 143,-74 143,-93.25"/>
<text text-anchor="middle" x="115.88" y="-79.75" font-family="Helvetica,sans-Serif" font-size="10.00">getItems</text>
</a>
</g>
</g>
<!-- Node1&#45;&gt;Node3 -->
<g id="edge2_Node000001_Node000003" class="edge">
<title>Node1&#45;&gt;Node3</title>
<g id="a_edge2_Node000001_Node000003"><a xlink:title=" ">
<path fill="none" stroke="#63b8ff" d="M171.49,-71.97C162.11,-73.97 152.1,-76.11 143.24,-78"/>
<polygon fill="#63b8ff" stroke="#63b8ff" points="171.96,-75.44 181.01,-69.93 170.5,-68.6 171.96,-75.44"/>
</a>
</g>
</g>
<!-- Node5 -->
<g id="Node000005" class="node">
<title>Node5</title>
<g id="a_Node000005"><a xlink:href="class_symfony_1_1_component_1_1_cache_1_1_adapter_1_1_tag_aware_adapter.html#af52c0b56089f49bf62ff41b59b2b0b19" target="_top" xlink:title=" ">
<polygon fill="white" stroke="#666666" points="141.5,-56.25 90.25,-56.25 90.25,-37 141.5,-37 141.5,-56.25"/>
<text text-anchor="middle" x="115.88" y="-42.75" font-family="Helvetica,sans-Serif" font-size="10.00">hasItem</text>
</a>
</g>
</g>
<!-- Node1&#45;&gt;Node5 -->
<g id="edge4_Node000001_Node000005" class="edge">
<title>Node1&#45;&gt;Node5</title>
<g id="a_edge4_Node000001_Node000005"><a xlink:title=" ">
<path fill="none" stroke="#63b8ff" d="M171.41,-57.66C161.61,-55.67 151.11,-53.55 141.97,-51.7"/>
<polygon fill="#63b8ff" stroke="#63b8ff" points="170.51,-61.04 181.01,-59.6 171.9,-54.18 170.51,-61.04"/>
</a>
</g>
</g>
<!-- Node6 -->
<g id="Node000006" class="node">
<title>Node6</title>
<g id="a_Node000006"><a xlink:href="class_symfony_1_1_component_1_1_cache_1_1_adapter_1_1_tag_aware_adapter.html#a64a3e767e6943bc7f9270f05ff552dd6" target="_top" xlink:title=" ">
<polygon fill="white" stroke="#666666" points="134.38,-19.25 97.38,-19.25 97.38,0 134.38,0 134.38,-19.25"/>
<text text-anchor="middle" x="115.88" y="-5.75" font-family="Helvetica,sans-Serif" font-size="10.00">save</text>
</a>
</g>
</g>
<!-- Node1&#45;&gt;Node6 -->
<g id="edge5_Node000001_Node000006" class="edge">
<title>Node1&#45;&gt;Node6</title>
<g id="a_edge5_Node000001_Node000006"><a xlink:title=" ">
<path fill="none" stroke="#63b8ff" d="M180.18,-48.41C169.82,-41.91 157.74,-34.37 146.75,-27.62 142.52,-25.03 137.93,-22.25 133.65,-19.67"/>
<polygon fill="#63b8ff" stroke="#63b8ff" points="178.25,-51.33 188.58,-53.7 181.98,-45.41 178.25,-51.33"/>
</a>
</g>
</g>
<!-- Node4 -->
<g id="Node000004" class="node">
<title>Node4</title>
<g id="a_Node000004"><a xlink:href="class_symfony_1_1_component_1_1_cache_1_1_adapter_1_1_tag_aware_adapter.html#ac2c9d62db1d0ef7b0886d886c5103332" target="_top" xlink:title=" ">
<polygon fill="white" stroke="#666666" points="49,-93.25 0,-93.25 0,-74 49,-74 49,-93.25"/>
<text text-anchor="middle" x="24.5" y="-79.75" font-family="Helvetica,sans-Serif" font-size="10.00">getItem</text>
</a>
</g>
</g>
<!-- Node3&#45;&gt;Node4 -->
<g id="edge3_Node000003_Node000004" class="edge">
<title>Node3&#45;&gt;Node4</title>
<g id="a_edge3_Node000003_Node000004"><a xlink:title=" ">
<path fill="none" stroke="#63b8ff" d="M77.28,-83.62C67.77,-83.62 57.82,-83.62 49.21,-83.62"/>
<polygon fill="#63b8ff" stroke="#63b8ff" points="77.03,-87.13 87.03,-83.63 77.03,-80.13 77.03,-87.13"/>
</a>
</g>
</g>
</g>
</svg>
</svg>

<style type='text/css'>
<![CDATA[
[data-mouse-over-selected='false'] { opacity: 0.7; }
[data-mouse-over-selected='true']  { opacity: 1.0; }
]]>
</style>
<script type="application/ecmascript"><![CDATA[
document.addEventListener('DOMContentLoaded', (event) => {
  highlightEdges();
  highlightAdjacentNodes();
});
]]></script>
</svg>
