<?xml version="1.0" encoding="UTF-8" standalone="no"?>
<!DOCTYPE svg PUBLIC "-//W3C//DTD SVG 1.1//EN"
 "http://www.w3.org/Graphics/SVG/1.1/DTD/svg11.dtd">
<!-- Generated by graphviz version 10.0.1 (20240210.2158)
 -->
<!-- Title: renameFolder Pages: 1 -->
<svg width="384pt" height="151pt"
 viewBox="0.00 0.00 383.75 150.88" xmlns="http://www.w3.org/2000/svg" xmlns:xlink="http://www.w3.org/1999/xlink">

<svg id="main" version="1.1" xmlns="http://www.w3.org/2000/svg" xmlns:xlink="http://www.w3.org/1999/xlink" xml:space="preserve" onload="init(evt)">
<style type="text/css"><![CDATA[
.node, .edge {opacity: 0.7;}
.node.selected, .edge.selected {opacity: 1;}
.edge:hover path { stroke: red; }
.edge:hover polygon { stroke: red; fill: red; }
]]></style>
<script type="application/ecmascript" xlink:href="svg.min.js"/>
<svg id="graph" class="graph">
<g id="graph0" class="graph" transform="scale(1 1) rotate(0) translate(4 146.88)">
<title>renameFolder</title>
<!-- Node1 -->
<g id="Node000001" class="node">
<title>Node1</title>
<g id="a_Node000001"><a xlink:title=" ">
<polygon fill="#999999" stroke="#666666" points="75.25,-67.88 0,-67.88 0,-48.62 75.25,-48.62 75.25,-67.88"/>
<text text-anchor="middle" x="37.62" y="-54.38" font-family="Helvetica,sans-Serif" font-size="10.00">renameFolder</text>
</a>
</g>
</g>
<!-- Node1&#45;&gt;Node1 -->
<g id="edge9_Node000001_Node000001" class="edge">
<title>Node1&#45;&gt;Node1</title>
<g id="a_edge9_Node000001_Node000001"><a xlink:title=" ">
<path fill="none" stroke="#63b8ff" d="M20.21,-68.16C12.26,-76.77 18.07,-85.88 37.62,-85.88 48.32,-85.88 54.9,-83.15 57.37,-79.28"/>
<polygon fill="#63b8ff" stroke="#63b8ff" points="60.83,-78.71 55.35,-69.64 53.98,-80.15 60.83,-78.71"/>
</a>
</g>
</g>
<!-- Node2 -->
<g id="Node000002" class="node">
<title>Node2</title>
<g id="a_Node000002"><a xlink:href="class_laminas_1_1_mail_1_1_storage_1_1_writable_1_1_maildir.html#a6a7b46e549a41d5b85129b5e26e5d78f" target="_top" xlink:title=" ">
<polygon fill="white" stroke="#666666" points="183.88,-124.88 113.88,-124.88 113.88,-105.62 183.88,-105.62 183.88,-124.88"/>
<text text-anchor="middle" x="148.88" y="-111.38" font-family="Helvetica,sans-Serif" font-size="10.00">createFolder</text>
</a>
</g>
</g>
<!-- Node1&#45;&gt;Node2 -->
<g id="edge1_Node000001_Node000002" class="edge">
<title>Node1&#45;&gt;Node2</title>
<g id="a_edge1_Node000001_Node000002"><a xlink:title=" ">
<path fill="none" stroke="#63b8ff" d="M57.91,-68.31C74.75,-77.1 99.47,-89.99 118.73,-100.04"/>
<polygon fill="#63b8ff" stroke="#63b8ff" points="116.96,-103.07 127.45,-104.59 120.2,-96.86 116.96,-103.07"/>
</a>
</g>
</g>
<!-- Node3 -->
<g id="Node000003" class="node">
<title>Node3</title>
<g id="a_Node000003"><a xlink:href="class_laminas_1_1_mail_1_1_storage_1_1_folder_1_1_maildir.html#a2fff03ee7acae699bffca0b3eecb3089" target="_top" xlink:title=" ">
<polygon fill="white" stroke="#666666" points="362.25,-92.5 236,-92.5 236,-62 362.25,-62 362.25,-92.5"/>
<text text-anchor="start" x="244" y="-79" font-family="Helvetica,sans-Serif" font-size="10.00">Laminas\Mail\Storage</text>
<text text-anchor="middle" x="299.12" y="-67.75" font-family="Helvetica,sans-Serif" font-size="10.00">\Folder\Maildir\getFolders</text>
</a>
</g>
</g>
<!-- Node1&#45;&gt;Node3 -->
<g id="edge5_Node000001_Node000003" class="edge">
<title>Node1&#45;&gt;Node3</title>
<g id="a_edge5_Node000001_Node000003"><a xlink:title=" ">
<path fill="none" stroke="#63b8ff" d="M75.53,-60.95C114.07,-63.77 175.56,-68.28 224.15,-71.83"/>
<polygon fill="#63b8ff" stroke="#63b8ff" points="223.83,-75.32 234.06,-72.56 224.35,-68.34 223.83,-75.32"/>
</a>
</g>
</g>
<!-- Node4 -->
<g id="Node000004" class="node">
<title>Node4</title>
<g id="a_Node000004"><a xlink:href="class_laminas_1_1_mail_1_1_storage_1_1_folder_1_1_maildir.html#a11d856c85bcf54f7f5b4dd4779dcc2d7" target="_top" xlink:title=" ">
<polygon fill="white" stroke="#666666" points="375.75,-30.5 222.5,-30.5 222.5,0 375.75,0 375.75,-30.5"/>
<text text-anchor="start" x="230.5" y="-17" font-family="Helvetica,sans-Serif" font-size="10.00">Laminas\Mail\Storage</text>
<text text-anchor="middle" x="299.12" y="-5.75" font-family="Helvetica,sans-Serif" font-size="10.00">\Folder\Maildir\getCurrentFolder</text>
</a>
</g>
</g>
<!-- Node1&#45;&gt;Node4 -->
<g id="edge4_Node000001_Node000004" class="edge">
<title>Node1&#45;&gt;Node4</title>
<g id="a_edge4_Node000001_Node000004"><a xlink:title=" ">
<path fill="none" stroke="#63b8ff" d="M52.84,-48.3C66.93,-39.06 89.49,-25.91 111.25,-20.25 143,-11.99 178.82,-9.48 210.53,-9.46"/>
<polygon fill="#63b8ff" stroke="#63b8ff" points="210.47,-12.96 220.5,-9.54 210.53,-5.96 210.47,-12.96"/>
</a>
</g>
</g>
<!-- Node5 -->
<g id="Node000005" class="node">
<title>Node5</title>
<g id="a_Node000005"><a xlink:href="class_laminas_1_1_mail_1_1_storage_1_1_writable_1_1_maildir.html#a83ba66d88511e1aaad03c049ae9e8e75" target="_top" xlink:title=" ">
<polygon fill="white" stroke="#666666" points="186.5,-48.88 111.25,-48.88 111.25,-29.62 186.5,-29.62 186.5,-48.88"/>
<text text-anchor="middle" x="148.88" y="-35.38" font-family="Helvetica,sans-Serif" font-size="10.00">removeFolder</text>
</a>
</g>
</g>
<!-- Node1&#45;&gt;Node5 -->
<g id="edge6_Node000001_Node000005" class="edge">
<title>Node1&#45;&gt;Node5</title>
<g id="a_edge6_Node000001_Node000005"><a xlink:title=" ">
<path fill="none" stroke="#63b8ff" d="M75.61,-51.82C83.35,-50.47 91.63,-49.03 99.71,-47.63"/>
<polygon fill="#63b8ff" stroke="#63b8ff" points="100.18,-51.1 109.43,-45.94 98.98,-44.2 100.18,-51.1"/>
</a>
</g>
</g>
<!-- Node2&#45;&gt;Node2 -->
<g id="edge2_Node000002_Node000002" class="edge">
<title>Node2&#45;&gt;Node2</title>
<g id="a_edge2_Node000002_Node000002"><a xlink:title=" ">
<path fill="none" stroke="#63b8ff" d="M131.46,-125.16C123.51,-133.77 129.32,-142.88 148.88,-142.88 159.57,-142.88 166.15,-140.15 168.62,-136.28"/>
<polygon fill="#63b8ff" stroke="#63b8ff" points="172.08,-135.71 166.6,-126.64 165.23,-137.15 172.08,-135.71"/>
</a>
</g>
</g>
<!-- Node2&#45;&gt;Node3 -->
<g id="edge3_Node000002_Node000003" class="edge">
<title>Node2&#45;&gt;Node3</title>
<g id="a_edge3_Node000002_Node000003"><a xlink:title=" ">
<path fill="none" stroke="#63b8ff" d="M184.26,-106.44C196.73,-103.24 211.34,-99.5 225.85,-95.78"/>
<polygon fill="#63b8ff" stroke="#63b8ff" points="226.61,-99.2 235.42,-93.32 224.87,-92.41 226.61,-99.2"/>
</a>
</g>
</g>
<!-- Node5&#45;&gt;Node3 -->
<g id="edge8_Node000005_Node000003" class="edge">
<title>Node5&#45;&gt;Node3</title>
<g id="a_edge8_Node000005_Node000003"><a xlink:title=" ">
<path fill="none" stroke="#63b8ff" d="M186.9,-48.74C198.81,-51.79 212.44,-55.29 225.99,-58.76"/>
<polygon fill="#63b8ff" stroke="#63b8ff" points="224.77,-62.06 235.33,-61.15 226.51,-55.28 224.77,-62.06"/>
</a>
</g>
</g>
<!-- Node5&#45;&gt;Node4 -->
<g id="edge7_Node000005_Node000004" class="edge">
<title>Node5&#45;&gt;Node4</title>
<g id="a_edge7_Node000005_Node000004"><a xlink:title=" ">
<path fill="none" stroke="#63b8ff" d="M186.9,-33.26C194.42,-32.04 202.61,-30.71 211.04,-29.35"/>
<polygon fill="#63b8ff" stroke="#63b8ff" points="211.41,-32.83 220.73,-27.78 210.3,-25.92 211.41,-32.83"/>
</a>
</g>
</g>
</g>
</svg>
</svg>

<style type='text/css'>
<![CDATA[
[data-mouse-over-selected='false'] { opacity: 0.7; }
[data-mouse-over-selected='true']  { opacity: 1.0; }
]]>
</style>
<script type="application/ecmascript"><![CDATA[
document.addEventListener('DOMContentLoaded', (event) => {
  highlightEdges();
  highlightAdjacentNodes();
});
]]></script>
</svg>
