<?xml version="1.0" encoding="UTF-8" standalone="no"?>
<!DOCTYPE svg PUBLIC "-//W3C//DTD SVG 1.1//EN"
 "http://www.w3.org/Graphics/SVG/1.1/DTD/svg11.dtd">
<!-- Generated by graphviz version 10.0.1 (20240210.2158)
 -->
<!-- Title: ListCommand Pages: 1 -->
<!--zoomable 1073 -->

<svg id="main" version="1.1" xmlns="http://www.w3.org/2000/svg" xmlns:xlink="http://www.w3.org/1999/xlink" xml:space="preserve" onload="init(evt)">
<style type="text/css"><![CDATA[
.node, .edge {opacity: 0.7;}
.node.selected, .edge.selected {opacity: 1;}
.edge:hover path { stroke: red; }
.edge:hover polygon { stroke: red; fill: red; }
]]></style>

<defs>
  <circle id="rim" cx="0" cy="0" r="7"/>
  <circle id="rim2" cx="0" cy="0" r="3.5"/>
  <g id="zoomPlus">
    <use xlink:href="#rim" fill="#404040"><set attributeName="fill" to="#808080" begin="zoomplus.mouseover" end="zoomplus.mouseout"/></use>
    <path d="M-4,0h8M0,-4v8" fill="none" stroke="white" stroke-width="1.5" pointer-events="none"/>
  </g>
  <g id="zoomMin">
    <use xlink:href="#rim" fill="#404040"><set attributeName="fill" to="#808080" begin="zoomminus.mouseover" end="zoomminus.mouseout"/></use>
    <path d="M-4,0h8" fill="none" stroke="white" stroke-width="1.5" pointer-events="none"/>
  </g>
  <g id="arrowUp" transform="translate(30 24)">
    <use xlink:href="#rim"/>
    <path pointer-events="none" fill="none" stroke="white" stroke-width="1.5" d="M0,-3.0v7 M-2.5,-0.5L0,-3.0L2.5,-0.5"/>
  </g>
  <g id="arrowRight" transform="rotate(90) translate(36 -43)">
    <use xlink:href="#rim"/>
    <path pointer-events="none" fill="none" stroke="white" stroke-width="1.5" d="M0,-3.0v7 M-2.5,-0.5L0,-3.0L2.5,-0.5"/>
  </g>
  <g id="arrowDown" transform="rotate(180) translate(-30 -48)">
    <use xlink:href="#rim"/>
    <path pointer-events="none" fill="none" stroke="white" stroke-width="1.5" d="M0,-3.0v7 M-2.5,-0.5L0,-3.0L2.5,-0.5"/>
  </g>
  <g id="arrowLeft" transform="rotate(270) translate(-36 17)">
    <use xlink:href="#rim"/>
    <path pointer-events="none" fill="none" stroke="white" stroke-width="1.5" d="M0,-3.0v7 M-2.5,-0.5L0,-3.0L2.5,-0.5"/>
  </g>
  <g id="resetDef">
    <use xlink:href="#rim2" fill="#404040"><set attributeName="fill" to="#808080" begin="reset.mouseover" end="reset.mouseout"/></use>
  </g>
</defs>
<script type="application/ecmascript">
var viewWidth = 354;
var viewHeight = 1073;
var sectionId = 'dynsection-1';
</script>
<script type="application/ecmascript" xlink:href="svg.min.js"/>
<svg id="graph" class="graph">
<g id="viewport">
<title>ListCommand</title>
<!-- Node1 -->
<g id="Node000001" class="node">
<title>Node1</title>
<g id="a_Node000001"><a xlink:title=" ">
<polygon fill="#999999" stroke="none" points="147,-101 0,-101 0,0 147,0 147,-101"/>
<text text-anchor="start" x="43.12" y="-87.5" font-family="Helvetica,sans-Serif" font-size="10.00">ListCommand</text>
<text text-anchor="start" x="72" y="-72.5" font-family="Helvetica,sans-Serif" font-size="10.00"> </text>
<text text-anchor="start" x="4" y="-57.5" font-family="Helvetica,sans-Serif" font-size="10.00">+</text>
<text text-anchor="start" x="14" y="-57.5" font-family="Helvetica,sans-Serif" font-size="10.00">execute(InputInterface</text>
<text text-anchor="start" x="14" y="-46.25" font-family="Helvetica,sans-Serif" font-size="10.00"> $input, OutputInterface</text>
<text text-anchor="start" x="14" y="-35" font-family="Helvetica,sans-Serif" font-size="10.00"> $output)</text>
<text text-anchor="start" x="4.38" y="-20.5" font-family="Helvetica,sans-Serif" font-size="10.00">#</text>
<text text-anchor="start" x="14" y="-20.5" font-family="Helvetica,sans-Serif" font-size="10.00">configure()</text>
<text text-anchor="start" x="4.38" y="-5.5" font-family="Helvetica,sans-Serif" font-size="10.00">#</text>
<text text-anchor="start" x="14" y="-5.5" font-family="Helvetica,sans-Serif" font-size="10.00">formatDateShort($timestamp)</text>
<polygon fill="#666666" stroke="#666666" points="0,-84 0,-84 147,-84 147,-84 0,-84"/>
<polygon fill="#666666" stroke="#666666" points="0,-69 0,-69 147,-69 147,-69 0,-69"/>
<polygon fill="none" stroke="#666666" points="0,0 0,-101 147,-101 147,0 0,0"/>
</a>
</g>
</g>
<!-- Node2 -->
<g id="Node000002" class="node">
<title>Node2</title>
<g id="a_Node000002"><a xlink:href="classwapmorgan_1_1_unified_archive_1_1_commands_1_1_base_archive_command.html" target="_top" xlink:title=" ">
<polygon fill="white" stroke="none" points="219.5,-250 93.5,-250 93.5,-138 219.5,-138 219.5,-250"/>
<text text-anchor="start" x="106.25" y="-236.5" font-family="Helvetica,sans-Serif" font-size="10.00">BaseArchiveCommand</text>
<text text-anchor="start" x="155" y="-221.5" font-family="Helvetica,sans-Serif" font-size="10.00"> </text>
<text text-anchor="start" x="97.38" y="-206.5" font-family="Helvetica,sans-Serif" font-size="10.00">#</text>
<text text-anchor="start" x="106.5" y="-206.5" font-family="Helvetica,sans-Serif" font-size="10.00">configure()</text>
<text text-anchor="start" x="97.38" y="-191.5" font-family="Helvetica,sans-Serif" font-size="10.00">#</text>
<text text-anchor="start" x="106.5" y="-191.5" font-family="Helvetica,sans-Serif" font-size="10.00">getArchive(InputInterface</text>
<text text-anchor="start" x="106.5" y="-180.25" font-family="Helvetica,sans-Serif" font-size="10.00"> $input, OutputInterface</text>
<text text-anchor="start" x="106.5" y="-169" font-family="Helvetica,sans-Serif" font-size="10.00"> $output)</text>
<text text-anchor="start" x="97.38" y="-154.5" font-family="Helvetica,sans-Serif" font-size="10.00">#</text>
<text text-anchor="start" x="106.5" y="-154.5" font-family="Helvetica,sans-Serif" font-size="10.00">getDriverFormatAbilities</text>
<text text-anchor="start" x="106.5" y="-143.25" font-family="Helvetica,sans-Serif" font-size="10.00">($driver, $format)</text>
<polygon fill="#666666" stroke="#666666" points="93.5,-233 93.5,-233 219.5,-233 219.5,-233 93.5,-233"/>
<polygon fill="#666666" stroke="#666666" points="93.5,-218 93.5,-218 219.5,-218 219.5,-218 93.5,-218"/>
<polygon fill="none" stroke="#666666" points="93.5,-138 93.5,-250 219.5,-250 219.5,-138 93.5,-138"/>
</a>
</g>
</g>
<!-- Node2&#45;&gt;Node1 -->
<g id="edge1_Node000001_Node000002" class="edge">
<title>Node2&#45;&gt;Node1</title>
<g id="a_edge1_Node000001_Node000002"><a xlink:title=" ">
<path fill="none" stroke="#63b8ff" d="M118.6,-128.39C113.2,-119.18 107.72,-109.83 102.52,-100.98"/>
<polygon fill="none" stroke="#63b8ff" points="115.57,-130.13 123.64,-136.99 121.6,-126.59 115.57,-130.13"/>
</a>
</g>
</g>
<!-- Node3 -->
<g id="Node000003" class="node">
<title>Node3</title>
<g id="a_Node000003"><a xlink:href="classwapmorgan_1_1_unified_archive_1_1_commands_1_1_base_command.html" target="_top" xlink:title=" ">
<polygon fill="white" stroke="none" points="244.5,-466 124.5,-466 124.5,-287 244.5,-287 244.5,-466"/>
<text text-anchor="start" x="150.75" y="-452.5" font-family="Helvetica,sans-Serif" font-size="10.00">BaseCommand</text>
<text text-anchor="start" x="183" y="-437.5" font-family="Helvetica,sans-Serif" font-size="10.00"> </text>
<text text-anchor="start" x="128.5" y="-422.5" font-family="Helvetica,sans-Serif" font-size="10.00">+</text>
<text text-anchor="start" x="138.5" y="-422.5" font-family="Helvetica,sans-Serif" font-size="10.00">formatDate($unixtime)</text>
<text text-anchor="start" x="128.5" y="-407.5" font-family="Helvetica,sans-Serif" font-size="10.00">+</text>
<text text-anchor="start" x="138.5" y="-407.5" font-family="Helvetica,sans-Serif" font-size="10.00">formatSize($bytes,</text>
<text text-anchor="start" x="138.5" y="-396.25" font-family="Helvetica,sans-Serif" font-size="10.00"> $precision=2)</text>
<text text-anchor="start" x="128.88" y="-381.5" font-family="Helvetica,sans-Serif" font-size="10.00">#</text>
<text text-anchor="start" x="138.5" y="-381.5" font-family="Helvetica,sans-Serif" font-size="10.00">open($file, $password</text>
<text text-anchor="start" x="138.5" y="-370.25" font-family="Helvetica,sans-Serif" font-size="10.00">=null)</text>
<text text-anchor="start" x="128.88" y="-355.5" font-family="Helvetica,sans-Serif" font-size="10.00">#</text>
<text text-anchor="start" x="138.5" y="-355.5" font-family="Helvetica,sans-Serif" font-size="10.00">getMimeTypeByStream</text>
<text text-anchor="start" x="138.5" y="-344.25" font-family="Helvetica,sans-Serif" font-size="10.00">($stream)</text>
<text text-anchor="start" x="128.88" y="-329.5" font-family="Helvetica,sans-Serif" font-size="10.00">#</text>
<text text-anchor="start" x="138.5" y="-329.5" font-family="Helvetica,sans-Serif" font-size="10.00">getDriverBaseName</text>
<text text-anchor="start" x="138.5" y="-318.25" font-family="Helvetica,sans-Serif" font-size="10.00">($driverClass)</text>
<text text-anchor="start" x="128.88" y="-303.5" font-family="Helvetica,sans-Serif" font-size="10.00">#</text>
<text text-anchor="start" x="138.5" y="-303.5" font-family="Helvetica,sans-Serif" font-size="10.00">resolveDriverName</text>
<text text-anchor="start" x="138.5" y="-292.25" font-family="Helvetica,sans-Serif" font-size="10.00">($driver)</text>
<polygon fill="#666666" stroke="#666666" points="124.5,-449 124.5,-449 244.5,-449 244.5,-449 124.5,-449"/>
<polygon fill="#666666" stroke="#666666" points="124.5,-434 124.5,-434 244.5,-434 244.5,-434 124.5,-434"/>
<polygon fill="none" stroke="#666666" points="124.5,-287 124.5,-466 244.5,-466 244.5,-287 124.5,-287"/>
</a>
</g>
</g>
<!-- Node3&#45;&gt;Node2 -->
<g id="edge2_Node000002_Node000003" class="edge">
<title>Node3&#45;&gt;Node2</title>
<g id="a_edge2_Node000002_Node000003"><a xlink:title=" ">
<path fill="none" stroke="#63b8ff" d="M169.04,-275.82C167.66,-266.94 166.3,-258.19 165.02,-249.91"/>
<polygon fill="none" stroke="#63b8ff" points="165.56,-276.26 170.56,-285.61 172.48,-275.19 165.56,-276.26"/>
</a>
</g>
</g>
<!-- Node4 -->
<g id="Node000004" class="node">
<title>Node4</title>
<g id="a_Node000004"><a xlink:href="class_symfony_1_1_component_1_1_console_1_1_command_1_1_command.html" target="_top" xlink:title=" ">
<polygon fill="white" stroke="none" points="345.5,-946 189.5,-946 189.5,-503 345.5,-503 345.5,-946"/>
<text text-anchor="start" x="245" y="-932.5" font-family="Helvetica,sans-Serif" font-size="10.00">Command</text>
<text text-anchor="start" x="266" y="-917.5" font-family="Helvetica,sans-Serif" font-size="10.00"> </text>
<text text-anchor="start" x="193.5" y="-902.5" font-family="Helvetica,sans-Serif" font-size="10.00">+</text>
<text text-anchor="start" x="203.5" y="-902.5" font-family="Helvetica,sans-Serif" font-size="10.00">__construct(string</text>
<text text-anchor="start" x="203.5" y="-891.25" font-family="Helvetica,sans-Serif" font-size="10.00"> $name=null)</text>
<text text-anchor="start" x="193.5" y="-876.5" font-family="Helvetica,sans-Serif" font-size="10.00">+</text>
<text text-anchor="start" x="203.5" y="-876.5" font-family="Helvetica,sans-Serif" font-size="10.00">ignoreValidationErrors()</text>
<text text-anchor="start" x="193.5" y="-861.5" font-family="Helvetica,sans-Serif" font-size="10.00">+</text>
<text text-anchor="start" x="203.5" y="-861.5" font-family="Helvetica,sans-Serif" font-size="10.00">setApplication(Application</text>
<text text-anchor="start" x="203.5" y="-850.25" font-family="Helvetica,sans-Serif" font-size="10.00"> $application=null)</text>
<text text-anchor="start" x="193.5" y="-835.5" font-family="Helvetica,sans-Serif" font-size="10.00">+</text>
<text text-anchor="start" x="203.5" y="-835.5" font-family="Helvetica,sans-Serif" font-size="10.00">setHelperSet(HelperSet</text>
<text text-anchor="start" x="203.5" y="-824.25" font-family="Helvetica,sans-Serif" font-size="10.00"> $helperSet)</text>
<text text-anchor="start" x="193.5" y="-809.5" font-family="Helvetica,sans-Serif" font-size="10.00">+</text>
<text text-anchor="start" x="203.5" y="-809.5" font-family="Helvetica,sans-Serif" font-size="10.00">getHelperSet()</text>
<text text-anchor="start" x="193.5" y="-794.5" font-family="Helvetica,sans-Serif" font-size="10.00">+</text>
<text text-anchor="start" x="203.5" y="-794.5" font-family="Helvetica,sans-Serif" font-size="10.00">getApplication()</text>
<text text-anchor="start" x="193.5" y="-779.5" font-family="Helvetica,sans-Serif" font-size="10.00">+</text>
<text text-anchor="start" x="203.5" y="-779.5" font-family="Helvetica,sans-Serif" font-size="10.00">isEnabled()</text>
<text text-anchor="start" x="193.5" y="-764.5" font-family="Helvetica,sans-Serif" font-size="10.00">+</text>
<text text-anchor="start" x="203.5" y="-764.5" font-family="Helvetica,sans-Serif" font-size="10.00">run(InputInterface</text>
<text text-anchor="start" x="203.5" y="-753.25" font-family="Helvetica,sans-Serif" font-size="10.00"> $input, OutputInterface</text>
<text text-anchor="start" x="203.5" y="-742" font-family="Helvetica,sans-Serif" font-size="10.00"> $output)</text>
<text text-anchor="start" x="193.5" y="-727.5" font-family="Helvetica,sans-Serif" font-size="10.00">+</text>
<text text-anchor="start" x="203.5" y="-727.5" font-family="Helvetica,sans-Serif" font-size="10.00">complete(CompletionInput</text>
<text text-anchor="start" x="203.5" y="-716.25" font-family="Helvetica,sans-Serif" font-size="10.00"> $input, CompletionSuggestions</text>
<text text-anchor="start" x="203.5" y="-705" font-family="Helvetica,sans-Serif" font-size="10.00"> $suggestions)</text>
<text text-anchor="start" x="193.5" y="-690.5" font-family="Helvetica,sans-Serif" font-size="10.00">+</text>
<text text-anchor="start" x="203.5" y="-690.5" font-family="Helvetica,sans-Serif" font-size="10.00">setCode(callable </text>
<text text-anchor="start" x="203.5" y="-679.25" font-family="Helvetica,sans-Serif" font-size="10.00">$code)</text>
<text text-anchor="start" x="203.5" y="-664.5" font-family="Helvetica,sans-Serif" font-size="10.00">et 22 de plus...</text>
<text text-anchor="start" x="193.5" y="-649.5" font-family="Helvetica,sans-Serif" font-size="10.00">+</text>
<text text-anchor="start" x="203.5" y="-649.5" font-family="Helvetica,sans-Serif" font-size="10.00">static getDefaultName()</text>
<text text-anchor="start" x="193.5" y="-634.5" font-family="Helvetica,sans-Serif" font-size="10.00">+</text>
<text text-anchor="start" x="203.5" y="-634.5" font-family="Helvetica,sans-Serif" font-size="10.00">static getDefaultDescription()</text>
<text text-anchor="start" x="193.88" y="-619.5" font-family="Helvetica,sans-Serif" font-size="10.00">#</text>
<text text-anchor="start" x="203.5" y="-619.5" font-family="Helvetica,sans-Serif" font-size="10.00">configure()</text>
<text text-anchor="start" x="193.88" y="-604.5" font-family="Helvetica,sans-Serif" font-size="10.00">#</text>
<text text-anchor="start" x="203.5" y="-604.5" font-family="Helvetica,sans-Serif" font-size="10.00">execute(InputInterface</text>
<text text-anchor="start" x="203.5" y="-593.25" font-family="Helvetica,sans-Serif" font-size="10.00"> $input, OutputInterface</text>
<text text-anchor="start" x="203.5" y="-582" font-family="Helvetica,sans-Serif" font-size="10.00"> $output)</text>
<text text-anchor="start" x="193.88" y="-567.5" font-family="Helvetica,sans-Serif" font-size="10.00">#</text>
<text text-anchor="start" x="203.5" y="-567.5" font-family="Helvetica,sans-Serif" font-size="10.00">interact(InputInterface</text>
<text text-anchor="start" x="203.5" y="-556.25" font-family="Helvetica,sans-Serif" font-size="10.00"> $input, OutputInterface</text>
<text text-anchor="start" x="203.5" y="-545" font-family="Helvetica,sans-Serif" font-size="10.00"> $output)</text>
<text text-anchor="start" x="193.88" y="-530.5" font-family="Helvetica,sans-Serif" font-size="10.00">#</text>
<text text-anchor="start" x="203.5" y="-530.5" font-family="Helvetica,sans-Serif" font-size="10.00">initialize(InputInterface</text>
<text text-anchor="start" x="203.5" y="-519.25" font-family="Helvetica,sans-Serif" font-size="10.00"> $input, OutputInterface</text>
<text text-anchor="start" x="203.5" y="-508" font-family="Helvetica,sans-Serif" font-size="10.00"> $output)</text>
<polygon fill="#666666" stroke="#666666" points="189.5,-929 189.5,-929 345.5,-929 345.5,-929 189.5,-929"/>
<polygon fill="#666666" stroke="#666666" points="189.5,-914 189.5,-914 345.5,-914 345.5,-914 189.5,-914"/>
<polygon fill="none" stroke="#666666" points="189.5,-503 189.5,-946 345.5,-946 345.5,-503 189.5,-503"/>
</a>
</g>
</g>
<!-- Node4&#45;&gt;Node3 -->
<g id="edge3_Node000003_Node000004" class="edge">
<title>Node4&#45;&gt;Node3</title>
<g id="a_edge3_Node000003_Node000004"><a xlink:title=" ">
<path fill="none" stroke="#63b8ff" d="M212.08,-492.47C209.87,-483.26 207.72,-474.3 205.66,-465.7"/>
<polygon fill="none" stroke="#63b8ff" points="208.61,-493.01 214.35,-501.92 215.42,-491.38 208.61,-493.01"/>
</a>
</g>
</g>
<!-- Node5 -->
<g id="Node000005" class="node">
<title>Node5</title>
<g id="a_Node000005"><a xlink:title=" ">
<polygon fill="white" stroke="none" points="284.5,-1064.75 250.5,-1064.75 250.5,-1015.75 284.5,-1015.75 284.5,-1064.75"/>
<text text-anchor="start" x="255.5" y="-1051.25" font-family="Helvetica,sans-Serif" font-size="10.00">const</text>
<text text-anchor="start" x="266" y="-1036.25" font-family="Helvetica,sans-Serif" font-size="10.00"> </text>
<text text-anchor="start" x="266" y="-1021.25" font-family="Helvetica,sans-Serif" font-size="10.00"> </text>
<polygon fill="#666666" stroke="#666666" points="250.5,-1047.75 250.5,-1047.75 284.5,-1047.75 284.5,-1047.75 250.5,-1047.75"/>
<polygon fill="#666666" stroke="#666666" points="250.5,-1032.75 250.5,-1032.75 284.5,-1032.75 284.5,-1032.75 250.5,-1032.75"/>
<polygon fill="none" stroke="#666666" points="250.5,-1015.75 250.5,-1064.75 284.5,-1064.75 284.5,-1015.75 250.5,-1015.75"/>
</a>
</g>
</g>
<!-- Node5&#45;&gt;Node4 -->
<g id="edge4_Node000004_Node000005" class="edge">
<title>Node5&#45;&gt;Node4</title>
<g id="a_edge4_Node000004_Node000005"><a xlink:title=" ">
<path fill="none" stroke="#63b8ff" d="M267.5,-1015.92C267.5,-1001.6 267.5,-981.66 267.5,-958.87"/>
<polygon fill="none" stroke="#63b8ff" points="267.5,-958.83 263.5,-952.83 267.5,-946.83 271.5,-952.83 267.5,-958.83"/>
</a>
</g>
<text text-anchor="middle" x="295.25" y="-988.25" font-family="Helvetica,sans-Serif" font-size="10.00" fill="grey"> +FAILURE</text>
<text text-anchor="middle" x="295.25" y="-977" font-family="Helvetica,sans-Serif" font-size="10.00" fill="grey">+INVALID</text>
<text text-anchor="middle" x="295.25" y="-965.75" font-family="Helvetica,sans-Serif" font-size="10.00" fill="grey">+SUCCESS</text>
</g>
<!-- Node6 -->
<g id="Node000006" class="node">
<title>Node6</title>
<g id="a_Node000006"><a xlink:title=" ">
<polygon fill="white" stroke="none" points="100.5,-1064.75 66.5,-1064.75 66.5,-1015.75 100.5,-1015.75 100.5,-1064.75"/>
<text text-anchor="start" x="71.5" y="-1051.25" font-family="Helvetica,sans-Serif" font-size="10.00">static</text>
<text text-anchor="start" x="82" y="-1036.25" font-family="Helvetica,sans-Serif" font-size="10.00"> </text>
<text text-anchor="start" x="82" y="-1021.25" font-family="Helvetica,sans-Serif" font-size="10.00"> </text>
<polygon fill="#666666" stroke="#666666" points="66.5,-1047.75 66.5,-1047.75 100.5,-1047.75 100.5,-1047.75 66.5,-1047.75"/>
<polygon fill="#666666" stroke="#666666" points="66.5,-1032.75 66.5,-1032.75 100.5,-1032.75 100.5,-1032.75 66.5,-1032.75"/>
<polygon fill="none" stroke="#666666" points="66.5,-1015.75 66.5,-1064.75 100.5,-1064.75 100.5,-1015.75 66.5,-1015.75"/>
</a>
</g>
</g>
<!-- Node6&#45;&gt;Node1 -->
<g id="edge7_Node000001_Node000006" class="edge">
<title>Node6&#45;&gt;Node1</title>
<g id="a_edge7_Node000001_Node000006"><a xlink:title=" ">
<path fill="none" stroke="#63b8ff" d="M73.65,-1015.98C66.31,-997.41 56.84,-970.53 52.5,-946 35.4,-849.27 37.5,-823.73 37.5,-725.5 37.5,-725.5 37.5,-725.5 37.5,-193 37.5,-166.34 43.58,-137.71 50.73,-113.22"/>
<polygon fill="none" stroke="#63b8ff" points="50.76,-113.15 48.7,-106.24 54.29,-101.68 56.34,-108.59 50.76,-113.15"/>
</a>
</g>
<text text-anchor="middle" x="72" y="-372.62" font-family="Helvetica,sans-Serif" font-size="10.00" fill="grey"> #$defaultName</text>
</g>
<!-- Node6&#45;&gt;Node3 -->
<g id="edge6_Node000003_Node000006" class="edge">
<title>Node6&#45;&gt;Node3</title>
<g id="a_edge6_Node000003_Node000006"><a xlink:title=" ">
<path fill="none" stroke="#63b8ff" d="M79.04,-1015.94C65.45,-939.7 29.26,-691.88 92.75,-503 96.03,-493.25 105.48,-478.19 117.14,-461.85"/>
<polygon fill="none" stroke="#63b8ff" points="117.05,-461.96 117.36,-454.76 124.12,-452.26 123.82,-459.47 117.05,-461.96"/>
</a>
</g>
<text text-anchor="middle" x="136.38" y="-726.25" font-family="Helvetica,sans-Serif" font-size="10.00" fill="grey"> #$abilitiesLabels</text>
<text text-anchor="middle" x="136.38" y="-715" font-family="Helvetica,sans-Serif" font-size="10.00" fill="grey">#$abilitiesShortCuts</text>
</g>
<!-- Node6&#45;&gt;Node4 -->
<g id="edge5_Node000004_Node000006" class="edge">
<title>Node6&#45;&gt;Node4</title>
<g id="a_edge5_Node000004_Node000006"><a xlink:title=" ">
<path fill="none" stroke="#63b8ff" d="M100.42,-1025.65C120.54,-1008.75 154.09,-978.19 175.5,-946 178.09,-942.1 180.64,-938.12 183.13,-934.06"/>
<polygon fill="none" stroke="#63b8ff" points="183.01,-934.27 182.64,-927.06 189.15,-923.95 189.52,-931.16 183.01,-934.27"/>
</a>
</g>
<text text-anchor="middle" x="206.62" y="-982.62" font-family="Helvetica,sans-Serif" font-size="10.00" fill="grey"> #$defaultDescription</text>
<text text-anchor="middle" x="206.62" y="-971.38" font-family="Helvetica,sans-Serif" font-size="10.00" fill="grey">#$defaultName</text>
</g>
</g>
</svg>

<g id="navigator" transform="translate(0 0)" fill="#404254">
  <rect fill="#f2f5e9" fill-opacity="0.5" stroke="#606060" stroke-width=".5" x="0" y="0" width="60" height="60"/>
  <use id="zoomplus" xlink:href="#zoomPlus" x="17" y="9" onmousedown="handleZoom(evt,'in')"/>
  <use id="zoomminus" xlink:href="#zoomMin" x="42" y="9" onmousedown="handleZoom(evt,'out')"/>
  <use id="reset" xlink:href="#resetDef" x="30" y="36" onmousedown="handleReset()"/>
   <use id="arrowup" xlink:href="#arrowUp" x="0" y="0" onmousedown="handlePan(0,-1)"/>
  <use id="arrowright" xlink:href="#arrowRight" x="0" y="0" onmousedown="handlePan(1,0)"/>
  <use id="arrowdown" xlink:href="#arrowDown" x="0" y="0" onmousedown="handlePan(0,1)"/>
  <use id="arrowleft" xlink:href="#arrowLeft" x="0" y="0" onmousedown="handlePan(-1,0)"/>
</g>
<svg viewBox="0 0 15 15" width="100%" height="30px" preserveAspectRatio="xMaxYMin meet">
 <g id="arrow_out" transform="scale(0.3 0.3)">
  <a xlink:href="classwapmorgan_1_1_unified_archive_1_1_commands_1_1_list_command__coll__graph_org.svg" target="_base">
   <rect id="button" ry="5" rx="5" y="6" x="6" height="38" width="38"
        fill="#f2f5e9" fill-opacity="0.5" stroke="#606060" stroke-width="1.0"/>
   <path id="arrow"
     d="M 11.500037,31.436501 C 11.940474,20.09759 22.043105,11.32322 32.158766,21.979434 L 37.068811,17.246167 C 37.068811,17.246167 37.088388,32 37.088388,32 L 22.160133,31.978069 C 22.160133,31.978069 26.997745,27.140456 26.997745,27.140456 C 18.528582,18.264221 13.291696,25.230495 11.500037,31.436501 z"
     style="fill:#404040;"/>
  </a>
 </g>
</svg>

<style type='text/css'>
<![CDATA[
[data-mouse-over-selected='false'] { opacity: 0.7; }
[data-mouse-over-selected='true']  { opacity: 1.0; }
]]>
</style>
<script type="application/ecmascript"><![CDATA[
document.addEventListener('DOMContentLoaded', (event) => {
  highlightEdges();
  highlightAdjacentNodes();
});
]]></script>
</svg>
