<?xml version="1.0" encoding="UTF-8" standalone="no"?>
<!DOCTYPE svg PUBLIC "-//W3C//DTD SVG 1.1//EN"
 "http://www.w3.org/Graphics/SVG/1.1/DTD/svg11.dtd">
<!-- Generated by graphviz version 10.0.1 (20240210.2158)
 -->
<!-- Title: UndisclosedPassword Pages: 1 -->
<!--zoomable 920 -->

<svg id="main" version="1.1" xmlns="http://www.w3.org/2000/svg" xmlns:xlink="http://www.w3.org/1999/xlink" xml:space="preserve" onload="init(evt)">
<style type="text/css"><![CDATA[
.node, .edge {opacity: 0.7;}
.node.selected, .edge.selected {opacity: 1;}
.edge:hover path { stroke: red; }
.edge:hover polygon { stroke: red; fill: red; }
]]></style>

<defs>
  <circle id="rim" cx="0" cy="0" r="7"/>
  <circle id="rim2" cx="0" cy="0" r="3.5"/>
  <g id="zoomPlus">
    <use xlink:href="#rim" fill="#404040"><set attributeName="fill" to="#808080" begin="zoomplus.mouseover" end="zoomplus.mouseout"/></use>
    <path d="M-4,0h8M0,-4v8" fill="none" stroke="white" stroke-width="1.5" pointer-events="none"/>
  </g>
  <g id="zoomMin">
    <use xlink:href="#rim" fill="#404040"><set attributeName="fill" to="#808080" begin="zoomminus.mouseover" end="zoomminus.mouseout"/></use>
    <path d="M-4,0h8" fill="none" stroke="white" stroke-width="1.5" pointer-events="none"/>
  </g>
  <g id="arrowUp" transform="translate(30 24)">
    <use xlink:href="#rim"/>
    <path pointer-events="none" fill="none" stroke="white" stroke-width="1.5" d="M0,-3.0v7 M-2.5,-0.5L0,-3.0L2.5,-0.5"/>
  </g>
  <g id="arrowRight" transform="rotate(90) translate(36 -43)">
    <use xlink:href="#rim"/>
    <path pointer-events="none" fill="none" stroke="white" stroke-width="1.5" d="M0,-3.0v7 M-2.5,-0.5L0,-3.0L2.5,-0.5"/>
  </g>
  <g id="arrowDown" transform="rotate(180) translate(-30 -48)">
    <use xlink:href="#rim"/>
    <path pointer-events="none" fill="none" stroke="white" stroke-width="1.5" d="M0,-3.0v7 M-2.5,-0.5L0,-3.0L2.5,-0.5"/>
  </g>
  <g id="arrowLeft" transform="rotate(270) translate(-36 17)">
    <use xlink:href="#rim"/>
    <path pointer-events="none" fill="none" stroke="white" stroke-width="1.5" d="M0,-3.0v7 M-2.5,-0.5L0,-3.0L2.5,-0.5"/>
  </g>
  <g id="resetDef">
    <use xlink:href="#rim2" fill="#404040"><set attributeName="fill" to="#808080" begin="reset.mouseover" end="reset.mouseout"/></use>
  </g>
</defs>
<script type="application/ecmascript">
var viewWidth = 244;
var viewHeight = 920;
var sectionId = 'dynsection-0';
</script>
<script type="application/ecmascript" xlink:href="svg.min.js"/>
<svg id="graph" class="graph">
<g id="viewport">
<title>UndisclosedPassword</title>
<!-- Node1 -->
<g id="Node000001" class="node">
<title>Node1</title>
<g id="a_Node000001"><a xlink:title=" ">
<polygon fill="#999999" stroke="none" points="220.5,-86 38.5,-86 38.5,0 220.5,0 220.5,-86"/>
<text text-anchor="start" x="80.75" y="-72.5" font-family="Helvetica,sans-Serif" font-size="10.00">UndisclosedPassword</text>
<text text-anchor="start" x="42.88" y="-57.5" font-family="Helvetica,sans-Serif" font-size="10.00">#</text>
<text text-anchor="start" x="52.5" y="-57.5" font-family="Helvetica,sans-Serif" font-size="10.00">$messageTemplates</text>
<text text-anchor="start" x="42.5" y="-42.5" font-family="Helvetica,sans-Serif" font-size="10.00">+</text>
<text text-anchor="start" x="52.5" y="-42.5" font-family="Helvetica,sans-Serif" font-size="10.00">__construct(ClientInterface</text>
<text text-anchor="start" x="52.5" y="-31.25" font-family="Helvetica,sans-Serif" font-size="10.00"> $httpClient, RequestFactoryInterface</text>
<text text-anchor="start" x="52.5" y="-20" font-family="Helvetica,sans-Serif" font-size="10.00"> $makeHttpRequest)</text>
<text text-anchor="start" x="42.5" y="-5.5" font-family="Helvetica,sans-Serif" font-size="10.00">+</text>
<text text-anchor="start" x="52.5" y="-5.5" font-family="Helvetica,sans-Serif" font-size="10.00">isValid($value)</text>
<polygon fill="#666666" stroke="#666666" points="38.5,-69 38.5,-69 220.5,-69 220.5,-69 38.5,-69"/>
<polygon fill="#666666" stroke="#666666" points="38.5,-54 38.5,-54 50.5,-54 50.5,-54 38.5,-54"/>
<polygon fill="#666666" stroke="#666666" points="50.5,-54 50.5,-54 220.5,-54 220.5,-54 50.5,-54"/>
<polygon fill="none" stroke="#666666" points="38.5,0 38.5,-86 220.5,-86 220.5,0 38.5,0"/>
</a>
</g>
</g>
<!-- Node2 -->
<g id="Node000002" class="node">
<title>Node2</title>
<g id="a_Node000002"><a xlink:href="class_laminas_1_1_validator_1_1_abstract_validator.html" target="_top" xlink:title=" ">
<polygon fill="white" stroke="none" points="216,-693 43,-693 43,-122 216,-122 216,-693"/>
<text text-anchor="start" x="92.38" y="-679.5" font-family="Helvetica,sans-Serif" font-size="10.00">AbstractValidator</text>
<text text-anchor="start" x="47.38" y="-664.5" font-family="Helvetica,sans-Serif" font-size="10.00">#</text>
<text text-anchor="start" x="57" y="-664.5" font-family="Helvetica,sans-Serif" font-size="10.00">$value</text>
<text text-anchor="start" x="47.38" y="-649.5" font-family="Helvetica,sans-Serif" font-size="10.00">#</text>
<text text-anchor="start" x="57" y="-649.5" font-family="Helvetica,sans-Serif" font-size="10.00">$abstractOptions</text>
<text text-anchor="start" x="47.38" y="-634.5" font-family="Helvetica,sans-Serif" font-size="10.00">#</text>
<text text-anchor="start" x="57" y="-634.5" font-family="Helvetica,sans-Serif" font-size="10.00">static $defaultTranslator</text>
<text text-anchor="start" x="47.38" y="-619.5" font-family="Helvetica,sans-Serif" font-size="10.00">#</text>
<text text-anchor="start" x="57" y="-619.5" font-family="Helvetica,sans-Serif" font-size="10.00">static $defaultTranslator</text>
<text text-anchor="start" x="57" y="-608.25" font-family="Helvetica,sans-Serif" font-size="10.00">TextDomain</text>
<text text-anchor="start" x="47.38" y="-593.5" font-family="Helvetica,sans-Serif" font-size="10.00">#</text>
<text text-anchor="start" x="57" y="-593.5" font-family="Helvetica,sans-Serif" font-size="10.00">static $messageLength</text>
<text text-anchor="start" x="47" y="-578.5" font-family="Helvetica,sans-Serif" font-size="10.00">+</text>
<text text-anchor="start" x="57" y="-578.5" font-family="Helvetica,sans-Serif" font-size="10.00">__construct($options</text>
<text text-anchor="start" x="57" y="-567.25" font-family="Helvetica,sans-Serif" font-size="10.00">=null)</text>
<text text-anchor="start" x="47" y="-552.5" font-family="Helvetica,sans-Serif" font-size="10.00">+</text>
<text text-anchor="start" x="57" y="-552.5" font-family="Helvetica,sans-Serif" font-size="10.00">getOption($option)</text>
<text text-anchor="start" x="47" y="-537.5" font-family="Helvetica,sans-Serif" font-size="10.00">+</text>
<text text-anchor="start" x="57" y="-537.5" font-family="Helvetica,sans-Serif" font-size="10.00">getOptions()</text>
<text text-anchor="start" x="47" y="-522.5" font-family="Helvetica,sans-Serif" font-size="10.00">+</text>
<text text-anchor="start" x="57" y="-522.5" font-family="Helvetica,sans-Serif" font-size="10.00">setOptions($options=[])</text>
<text text-anchor="start" x="47" y="-507.5" font-family="Helvetica,sans-Serif" font-size="10.00">+</text>
<text text-anchor="start" x="57" y="-507.5" font-family="Helvetica,sans-Serif" font-size="10.00">getMessages()</text>
<text text-anchor="start" x="47" y="-492.5" font-family="Helvetica,sans-Serif" font-size="10.00">+</text>
<text text-anchor="start" x="57" y="-492.5" font-family="Helvetica,sans-Serif" font-size="10.00">__invoke($value)</text>
<text text-anchor="start" x="47" y="-477.5" font-family="Helvetica,sans-Serif" font-size="10.00">+</text>
<text text-anchor="start" x="57" y="-477.5" font-family="Helvetica,sans-Serif" font-size="10.00">getMessageVariables()</text>
<text text-anchor="start" x="47" y="-462.5" font-family="Helvetica,sans-Serif" font-size="10.00">+</text>
<text text-anchor="start" x="57" y="-462.5" font-family="Helvetica,sans-Serif" font-size="10.00">getMessageTemplates()</text>
<text text-anchor="start" x="47" y="-447.5" font-family="Helvetica,sans-Serif" font-size="10.00">+</text>
<text text-anchor="start" x="57" y="-447.5" font-family="Helvetica,sans-Serif" font-size="10.00">setMessage($messageString,</text>
<text text-anchor="start" x="57" y="-436.25" font-family="Helvetica,sans-Serif" font-size="10.00"> $messageKey=null)</text>
<text text-anchor="start" x="47" y="-421.5" font-family="Helvetica,sans-Serif" font-size="10.00">+</text>
<text text-anchor="start" x="57" y="-421.5" font-family="Helvetica,sans-Serif" font-size="10.00">setMessages(array</text>
<text text-anchor="start" x="57" y="-410.25" font-family="Helvetica,sans-Serif" font-size="10.00"> $messages)</text>
<text text-anchor="start" x="57" y="-395.5" font-family="Helvetica,sans-Serif" font-size="10.00">et 10 de plus...</text>
<text text-anchor="start" x="47" y="-380.5" font-family="Helvetica,sans-Serif" font-size="10.00">+</text>
<text text-anchor="start" x="57" y="-380.5" font-family="Helvetica,sans-Serif" font-size="10.00">static setDefaultTranslator</text>
<text text-anchor="start" x="57" y="-369.25" font-family="Helvetica,sans-Serif" font-size="10.00">(?Translator\TranslatorInterface</text>
<text text-anchor="start" x="57" y="-358" font-family="Helvetica,sans-Serif" font-size="10.00"> $translator=null, $textDomain=null)</text>
<text text-anchor="start" x="47" y="-343.5" font-family="Helvetica,sans-Serif" font-size="10.00">+</text>
<text text-anchor="start" x="57" y="-343.5" font-family="Helvetica,sans-Serif" font-size="10.00">static getDefaultTranslator()</text>
<text text-anchor="start" x="47" y="-328.5" font-family="Helvetica,sans-Serif" font-size="10.00">+</text>
<text text-anchor="start" x="57" y="-328.5" font-family="Helvetica,sans-Serif" font-size="10.00">static hasDefaultTranslator()</text>
<text text-anchor="start" x="47" y="-313.5" font-family="Helvetica,sans-Serif" font-size="10.00">+</text>
<text text-anchor="start" x="57" y="-313.5" font-family="Helvetica,sans-Serif" font-size="10.00">static setDefaultTranslator</text>
<text text-anchor="start" x="57" y="-302.25" font-family="Helvetica,sans-Serif" font-size="10.00">TextDomain($textDomain=&#39;default&#39;)</text>
<text text-anchor="start" x="47" y="-287.5" font-family="Helvetica,sans-Serif" font-size="10.00">+</text>
<text text-anchor="start" x="57" y="-287.5" font-family="Helvetica,sans-Serif" font-size="10.00">static getDefaultTranslator</text>
<text text-anchor="start" x="57" y="-276.25" font-family="Helvetica,sans-Serif" font-size="10.00">TextDomain()</text>
<text text-anchor="start" x="47" y="-261.5" font-family="Helvetica,sans-Serif" font-size="10.00">+</text>
<text text-anchor="start" x="57" y="-261.5" font-family="Helvetica,sans-Serif" font-size="10.00">static getMessageLength()</text>
<text text-anchor="start" x="47" y="-246.5" font-family="Helvetica,sans-Serif" font-size="10.00">+</text>
<text text-anchor="start" x="57" y="-246.5" font-family="Helvetica,sans-Serif" font-size="10.00">static setMessageLength</text>
<text text-anchor="start" x="57" y="-235.25" font-family="Helvetica,sans-Serif" font-size="10.00">($length=&#45;1)</text>
<text text-anchor="start" x="47.38" y="-220.5" font-family="Helvetica,sans-Serif" font-size="10.00">#</text>
<text text-anchor="start" x="57" y="-220.5" font-family="Helvetica,sans-Serif" font-size="10.00">createMessage($messageKey,</text>
<text text-anchor="start" x="57" y="-209.25" font-family="Helvetica,sans-Serif" font-size="10.00"> $value)</text>
<text text-anchor="start" x="47.38" y="-194.5" font-family="Helvetica,sans-Serif" font-size="10.00">#</text>
<text text-anchor="start" x="57" y="-194.5" font-family="Helvetica,sans-Serif" font-size="10.00">error($messageKey,</text>
<text text-anchor="start" x="57" y="-183.25" font-family="Helvetica,sans-Serif" font-size="10.00"> $value=null)</text>
<text text-anchor="start" x="47.38" y="-168.5" font-family="Helvetica,sans-Serif" font-size="10.00">#</text>
<text text-anchor="start" x="57" y="-168.5" font-family="Helvetica,sans-Serif" font-size="10.00">getValue()</text>
<text text-anchor="start" x="47.38" y="-153.5" font-family="Helvetica,sans-Serif" font-size="10.00">#</text>
<text text-anchor="start" x="57" y="-153.5" font-family="Helvetica,sans-Serif" font-size="10.00">setValue($value)</text>
<text text-anchor="start" x="47.38" y="-138.5" font-family="Helvetica,sans-Serif" font-size="10.00">#</text>
<text text-anchor="start" x="57" y="-138.5" font-family="Helvetica,sans-Serif" font-size="10.00">translateMessage(</text>
<text text-anchor="start" x="57" y="-127.25" font-family="Helvetica,sans-Serif" font-size="10.00">$messageKey, $message)</text>
<polygon fill="#666666" stroke="#666666" points="43,-676 43,-676 216,-676 216,-676 43,-676"/>
<polygon fill="#666666" stroke="#666666" points="43,-590 43,-590 55,-590 55,-590 43,-590"/>
<polygon fill="#666666" stroke="#666666" points="55,-590 55,-590 216,-590 216,-590 55,-590"/>
<polygon fill="none" stroke="#666666" points="43,-122 43,-693 216,-693 216,-122 43,-122"/>
</a>
</g>
</g>
<!-- Node2&#45;&gt;Node1 -->
<g id="edge1_Node000001_Node000002" class="edge">
<title>Node2&#45;&gt;Node1</title>
<g id="a_edge1_Node000001_Node000002"><a xlink:title=" ">
<path fill="none" stroke="#63b8ff" d="M129.5,-110.91C129.5,-101.9 129.5,-93.52 129.5,-85.96"/>
<polygon fill="none" stroke="#63b8ff" points="126,-110.7 129.5,-120.7 133,-110.7 126,-110.7"/>
</a>
</g>
</g>
<!-- Node3 -->
<g id="Node000003" class="node">
<title>Node3</title>
<g id="a_Node000003"><a xlink:href="interface_laminas_1_1_validator_1_1_translator_1_1_translator_aware_interface.html" target="_top" xlink:title=" ">
<polygon fill="white" stroke="none" points="133,-912 0,-912 0,-729 133,-729 133,-912"/>
<text text-anchor="start" x="11.75" y="-898.5" font-family="Helvetica,sans-Serif" font-size="10.00">TranslatorAwareInterface</text>
<text text-anchor="start" x="65" y="-883.5" font-family="Helvetica,sans-Serif" font-size="10.00"> </text>
<text text-anchor="start" x="4" y="-868.5" font-family="Helvetica,sans-Serif" font-size="10.00">+</text>
<text text-anchor="start" x="14" y="-868.5" font-family="Helvetica,sans-Serif" font-size="10.00">setTranslator(?Translator</text>
<text text-anchor="start" x="14" y="-857.25" font-family="Helvetica,sans-Serif" font-size="10.00">Interface $translator=null,</text>
<text text-anchor="start" x="14" y="-846" font-family="Helvetica,sans-Serif" font-size="10.00"> $textDomain=null)</text>
<text text-anchor="start" x="4" y="-831.5" font-family="Helvetica,sans-Serif" font-size="10.00">+</text>
<text text-anchor="start" x="14" y="-831.5" font-family="Helvetica,sans-Serif" font-size="10.00">getTranslator()</text>
<text text-anchor="start" x="4" y="-816.5" font-family="Helvetica,sans-Serif" font-size="10.00">+</text>
<text text-anchor="start" x="14" y="-816.5" font-family="Helvetica,sans-Serif" font-size="10.00">hasTranslator()</text>
<text text-anchor="start" x="4" y="-801.5" font-family="Helvetica,sans-Serif" font-size="10.00">+</text>
<text text-anchor="start" x="14" y="-801.5" font-family="Helvetica,sans-Serif" font-size="10.00">setTranslatorEnabled</text>
<text text-anchor="start" x="14" y="-790.25" font-family="Helvetica,sans-Serif" font-size="10.00">($enabled=true)</text>
<text text-anchor="start" x="4" y="-775.5" font-family="Helvetica,sans-Serif" font-size="10.00">+</text>
<text text-anchor="start" x="14" y="-775.5" font-family="Helvetica,sans-Serif" font-size="10.00">isTranslatorEnabled()</text>
<text text-anchor="start" x="4" y="-760.5" font-family="Helvetica,sans-Serif" font-size="10.00">+</text>
<text text-anchor="start" x="14" y="-760.5" font-family="Helvetica,sans-Serif" font-size="10.00">setTranslatorTextDomain</text>
<text text-anchor="start" x="14" y="-749.25" font-family="Helvetica,sans-Serif" font-size="10.00">($textDomain=&#39;default&#39;)</text>
<text text-anchor="start" x="4" y="-734.5" font-family="Helvetica,sans-Serif" font-size="10.00">+</text>
<text text-anchor="start" x="14" y="-734.5" font-family="Helvetica,sans-Serif" font-size="10.00">getTranslatorTextDomain()</text>
<polygon fill="#666666" stroke="#666666" points="0,-895 0,-895 133,-895 133,-895 0,-895"/>
<polygon fill="#666666" stroke="#666666" points="0,-880 0,-880 133,-880 133,-880 0,-880"/>
<polygon fill="none" stroke="#666666" points="0,-729 0,-912 133,-912 133,-729 0,-729"/>
</a>
</g>
</g>
<!-- Node3&#45;&gt;Node2 -->
<g id="edge2_Node000002_Node000003" class="edge">
<title>Node3&#45;&gt;Node2</title>
<g id="a_edge2_Node000002_Node000003"><a xlink:title=" ">
<path fill="none" stroke="#63b8ff" d="M82.09,-717.83C83.32,-709.74 84.61,-701.37 85.92,-692.78"/>
<polygon fill="none" stroke="#63b8ff" points="78.65,-717.14 80.59,-727.55 85.57,-718.2 78.65,-717.14"/>
</a>
</g>
</g>
<!-- Node4 -->
<g id="Node000004" class="node">
<title>Node4</title>
<g id="a_Node000004"><a xlink:href="interface_laminas_1_1_validator_1_1_validator_interface.html" target="_top" xlink:title=" ">
<polygon fill="white" stroke="none" points="236,-852.5 151,-852.5 151,-788.5 236,-788.5 236,-852.5"/>
<text text-anchor="start" x="155.62" y="-839" font-family="Helvetica,sans-Serif" font-size="10.00">ValidatorInterface</text>
<text text-anchor="start" x="192" y="-824" font-family="Helvetica,sans-Serif" font-size="10.00"> </text>
<text text-anchor="start" x="155.5" y="-809" font-family="Helvetica,sans-Serif" font-size="10.00">+</text>
<text text-anchor="start" x="166" y="-809" font-family="Helvetica,sans-Serif" font-size="10.00">isValid($value)</text>
<text text-anchor="start" x="155.5" y="-794" font-family="Helvetica,sans-Serif" font-size="10.00">+</text>
<text text-anchor="start" x="166" y="-794" font-family="Helvetica,sans-Serif" font-size="10.00">getMessages()</text>
<polygon fill="#666666" stroke="#666666" points="151,-835.5 151,-835.5 236,-835.5 236,-835.5 151,-835.5"/>
<polygon fill="#666666" stroke="#666666" points="151,-820.5 151,-820.5 236,-820.5 236,-820.5 151,-820.5"/>
<polygon fill="none" stroke="#666666" points="151,-788.5 151,-852.5 236,-852.5 236,-788.5 151,-788.5"/>
</a>
</g>
</g>
<!-- Node4&#45;&gt;Node2 -->
<g id="edge3_Node000002_Node000004" class="edge">
<title>Node4&#45;&gt;Node2</title>
<g id="a_edge3_Node000002_Node000004"><a xlink:title=" ">
<path fill="none" stroke="#63b8ff" d="M186.93,-777.28C183.45,-754.93 178.84,-725.35 173.75,-692.64"/>
<polygon fill="none" stroke="#63b8ff" points="183.46,-777.77 188.46,-787.11 190.38,-776.69 183.46,-777.77"/>
</a>
</g>
</g>
</g>
</svg>

<g id="navigator" transform="translate(0 0)" fill="#404254">
  <rect fill="#f2f5e9" fill-opacity="0.5" stroke="#606060" stroke-width=".5" x="0" y="0" width="60" height="60"/>
  <use id="zoomplus" xlink:href="#zoomPlus" x="17" y="9" onmousedown="handleZoom(evt,'in')"/>
  <use id="zoomminus" xlink:href="#zoomMin" x="42" y="9" onmousedown="handleZoom(evt,'out')"/>
  <use id="reset" xlink:href="#resetDef" x="30" y="36" onmousedown="handleReset()"/>
   <use id="arrowup" xlink:href="#arrowUp" x="0" y="0" onmousedown="handlePan(0,-1)"/>
  <use id="arrowright" xlink:href="#arrowRight" x="0" y="0" onmousedown="handlePan(1,0)"/>
  <use id="arrowdown" xlink:href="#arrowDown" x="0" y="0" onmousedown="handlePan(0,1)"/>
  <use id="arrowleft" xlink:href="#arrowLeft" x="0" y="0" onmousedown="handlePan(-1,0)"/>
</g>
<svg viewBox="0 0 15 15" width="100%" height="30px" preserveAspectRatio="xMaxYMin meet">
 <g id="arrow_out" transform="scale(0.3 0.3)">
  <a xlink:href="class_laminas_1_1_validator_1_1_undisclosed_password__inherit__graph_org.svg" target="_base">
   <rect id="button" ry="5" rx="5" y="6" x="6" height="38" width="38"
        fill="#f2f5e9" fill-opacity="0.5" stroke="#606060" stroke-width="1.0"/>
   <path id="arrow"
     d="M 11.500037,31.436501 C 11.940474,20.09759 22.043105,11.32322 32.158766,21.979434 L 37.068811,17.246167 C 37.068811,17.246167 37.088388,32 37.088388,32 L 22.160133,31.978069 C 22.160133,31.978069 26.997745,27.140456 26.997745,27.140456 C 18.528582,18.264221 13.291696,25.230495 11.500037,31.436501 z"
     style="fill:#404040;"/>
  </a>
 </g>
</svg>

<style type='text/css'>
<![CDATA[
[data-mouse-over-selected='false'] { opacity: 0.7; }
[data-mouse-over-selected='true']  { opacity: 1.0; }
]]>
</style>
<script type="application/ecmascript"><![CDATA[
document.addEventListener('DOMContentLoaded', (event) => {
  highlightEdges();
  highlightAdjacentNodes();
});
]]></script>
</svg>
