<?xml version="1.0" encoding="UTF-8" standalone="no"?>
<!DOCTYPE svg PUBLIC "-//W3C//DTD SVG 1.1//EN"
 "http://www.w3.org/Graphics/SVG/1.1/DTD/svg11.dtd">
<!-- Generated by graphviz version 10.0.1 (20240210.2158)
 -->
<!-- Title: displayMessage Pages: 1 -->
<svg width="341pt" height="27pt"
 viewBox="0.00 0.00 341.00 27.25" xmlns="http://www.w3.org/2000/svg" xmlns:xlink="http://www.w3.org/1999/xlink">
<g id="graph0" class="graph" transform="scale(1 1) rotate(0) translate(4 23.25)">
<title>displayMessage</title>
<!-- Node1 -->
<g id="Node000001" class="node">
<title>Node1</title>
<g id="a_Node000001"><a xlink:title=" ">
<polygon fill="#999999" stroke="#666666" points="333,-19.25 246.5,-19.25 246.5,0 333,0 333,-19.25"/>
<text text-anchor="middle" x="289.75" y="-5.75" font-family="Helvetica,sans-Serif" font-size="10.00">displayMessage</text>
</a>
</g>
</g>
<!-- Node2 -->
<g id="Node000002" class="node">
<title>Node2</title>
<g id="a_Node000002"><a xlink:href="class_migration.html#a46fbeca61742adc06dc81fcfdbb7045c" target="_top" xlink:title=" ">
<polygon fill="white" stroke="#666666" points="210.5,-19.25 98.5,-19.25 98.5,0 210.5,0 210.5,-19.25"/>
<text text-anchor="middle" x="154.5" y="-5.75" font-family="Helvetica,sans-Serif" font-size="10.00">addNewMessageArea</text>
</a>
</g>
</g>
<!-- Node1&#45;&gt;Node2 -->
<g id="edge1_Node000001_Node000002" class="edge">
<title>Node1&#45;&gt;Node2</title>
<g id="a_edge1_Node000001_Node000002"><a xlink:title=" ">
<path fill="none" stroke="#63b8ff" d="M234.84,-9.62C226.91,-9.62 218.73,-9.62 210.77,-9.62"/>
<polygon fill="#63b8ff" stroke="#63b8ff" points="234.71,-13.13 244.71,-9.63 234.71,-6.13 234.71,-13.13"/>
</a>
</g>
</g>
<!-- Node3 -->
<g id="Node000003" class="node">
<title>Node3</title>
<g id="a_Node000003"><a xlink:href="class_migration.html#afbc6164e6417754b5283c188ff70c0b0" target="_top" xlink:title=" ">
<polygon fill="white" stroke="#666666" points="62.5,-19.25 0,-19.25 0,0 62.5,0 62.5,-19.25"/>
<text text-anchor="middle" x="31.25" y="-5.75" font-family="Helvetica,sans-Serif" font-size="10.00">setVersion</text>
</a>
</g>
</g>
<!-- Node2&#45;&gt;Node3 -->
<g id="edge2_Node000002_Node000003" class="edge">
<title>Node2&#45;&gt;Node3</title>
<g id="a_edge2_Node000002_Node000003"><a xlink:title=" ">
<path fill="none" stroke="#63b8ff" d="M86.81,-9.62C78.49,-9.62 70.32,-9.62 62.95,-9.62"/>
<polygon fill="#63b8ff" stroke="#63b8ff" points="86.68,-13.13 96.68,-9.63 86.68,-6.13 86.68,-13.13"/>
</a>
</g>
</g>
</g>
</svg>
