<?xml version="1.0" encoding="UTF-8" standalone="no"?>
<!DOCTYPE svg PUBLIC "-//W3C//DTD SVG 1.1//EN"
 "http://www.w3.org/Graphics/SVG/1.1/DTD/svg11.dtd">
<!-- Generated by graphviz version 10.0.1 (20240210.2158)
 -->
<!-- Title: Ellipse Pages: 1 -->
<!--zoomable 323 -->

<svg id="main" version="1.1" xmlns="http://www.w3.org/2000/svg" xmlns:xlink="http://www.w3.org/1999/xlink" xml:space="preserve" onload="init(evt)">
<style type="text/css"><![CDATA[
.node, .edge {opacity: 0.7;}
.node.selected, .edge.selected {opacity: 1;}
.edge:hover path { stroke: red; }
.edge:hover polygon { stroke: red; fill: red; }
]]></style>

<defs>
  <circle id="rim" cx="0" cy="0" r="7"/>
  <circle id="rim2" cx="0" cy="0" r="3.5"/>
  <g id="zoomPlus">
    <use xlink:href="#rim" fill="#404040"><set attributeName="fill" to="#808080" begin="zoomplus.mouseover" end="zoomplus.mouseout"/></use>
    <path d="M-4,0h8M0,-4v8" fill="none" stroke="white" stroke-width="1.5" pointer-events="none"/>
  </g>
  <g id="zoomMin">
    <use xlink:href="#rim" fill="#404040"><set attributeName="fill" to="#808080" begin="zoomminus.mouseover" end="zoomminus.mouseout"/></use>
    <path d="M-4,0h8" fill="none" stroke="white" stroke-width="1.5" pointer-events="none"/>
  </g>
  <g id="arrowUp" transform="translate(30 24)">
    <use xlink:href="#rim"/>
    <path pointer-events="none" fill="none" stroke="white" stroke-width="1.5" d="M0,-3.0v7 M-2.5,-0.5L0,-3.0L2.5,-0.5"/>
  </g>
  <g id="arrowRight" transform="rotate(90) translate(36 -43)">
    <use xlink:href="#rim"/>
    <path pointer-events="none" fill="none" stroke="white" stroke-width="1.5" d="M0,-3.0v7 M-2.5,-0.5L0,-3.0L2.5,-0.5"/>
  </g>
  <g id="arrowDown" transform="rotate(180) translate(-30 -48)">
    <use xlink:href="#rim"/>
    <path pointer-events="none" fill="none" stroke="white" stroke-width="1.5" d="M0,-3.0v7 M-2.5,-0.5L0,-3.0L2.5,-0.5"/>
  </g>
  <g id="arrowLeft" transform="rotate(270) translate(-36 17)">
    <use xlink:href="#rim"/>
    <path pointer-events="none" fill="none" stroke="white" stroke-width="1.5" d="M0,-3.0v7 M-2.5,-0.5L0,-3.0L2.5,-0.5"/>
  </g>
  <g id="resetDef">
    <use xlink:href="#rim2" fill="#404040"><set attributeName="fill" to="#808080" begin="reset.mouseover" end="reset.mouseout"/></use>
  </g>
</defs>
<script type="application/ecmascript">
var viewWidth = 1570;
var viewHeight = 323;
var sectionId = 'dynsection-158';
</script>
<script type="application/ecmascript" xlink:href="svg.min.js"/>
<svg id="graph" class="graph">
<g id="viewport">
<title>Ellipse</title>
<!-- Node1 -->
<g id="Node000001" class="node">
<title>Node1</title>
<g id="a_Node000001"><a xlink:title=" ">
<polygon fill="#999999" stroke="#666666" points="45.25,-153.88 0,-153.88 0,-134.62 45.25,-134.62 45.25,-153.88"/>
<text text-anchor="middle" x="22.62" y="-140.38" font-family="Helvetica,sans-Serif" font-size="10.00">Ellipse</text>
</a>
</g>
</g>
<!-- Node2 -->
<g id="Node000002" class="node">
<title>Node2</title>
<g id="a_Node000002"><a xlink:href="class_t_c_p_d_f.html#a01627a8b7ad5c79ee736572b3d2ef3f5" target="_top" xlink:title=" ">
<polygon fill="white" stroke="#666666" points="842.12,-210.88 807.38,-210.88 807.38,-191.62 842.12,-191.62 842.12,-210.88"/>
<text text-anchor="middle" x="824.75" y="-197.38" font-family="Helvetica,sans-Serif" font-size="10.00">_out</text>
</a>
</g>
</g>
<!-- Node1&#45;&gt;Node2 -->
<g id="edge1_Node000001_Node000002" class="edge">
<title>Node1&#45;&gt;Node2</title>
<g id="a_edge1_Node000001_Node000002"><a xlink:title=" ">
<path fill="none" stroke="#63b8ff" d="M29.93,-154.29C39.47,-168.79 58.87,-195.67 81.25,-212.25 172.31,-279.7 202.05,-313.25 315.38,-313.25 315.38,-313.25 315.38,-313.25 556.75,-313.25 625.49,-313.25 647.06,-321.32 710.25,-294.25 750.2,-277.13 787.32,-241.52 807.63,-219.67"/>
<polygon fill="#63b8ff" stroke="#63b8ff" points="810.13,-222.12 814.25,-212.36 804.94,-217.42 810.13,-222.12"/>
</a>
</g>
</g>
<!-- Node6 -->
<g id="Node000006" class="node">
<title>Node6</title>
<g id="a_Node000006"><a xlink:href="class_t_c_p_d_f.html#a7a4827e6bac10aa0e948aabaf1b18399" target="_top" xlink:title=" ">
<polygon fill="white" stroke="#666666" points="597.5,-228.88 514,-228.88 514,-209.62 597.5,-209.62 597.5,-228.88"/>
<text text-anchor="middle" x="555.75" y="-215.38" font-family="Helvetica,sans-Serif" font-size="10.00">_outellipticalarc</text>
</a>
</g>
</g>
<!-- Node1&#45;&gt;Node6 -->
<g id="edge5_Node000001_Node000006" class="edge">
<title>Node1&#45;&gt;Node6</title>
<g id="a_edge5_Node000001_Node000006"><a xlink:title=" ">
<path fill="none" stroke="#63b8ff" d="M35.04,-154.34C46.04,-163.4 63.57,-176.18 81.25,-182.25 227.36,-232.38 413.2,-228.95 502.37,-223.51"/>
<polygon fill="#63b8ff" stroke="#63b8ff" points="502.52,-227.01 512.27,-222.87 502.07,-220.02 502.52,-227.01"/>
</a>
</g>
</g>
<!-- Node10 -->
<g id="Node000010" class="node">
<title>Node10</title>
<g id="a_Node000010"><a xlink:href="class_t_c_p_d_f___s_t_a_t_i_c.html#a5e311abad71449e634216a5d897a65b6" target="_top" xlink:title=" ">
<polygon fill="white" stroke="#666666" points="216.12,-97.5 95.88,-97.5 95.88,-67 216.12,-67 216.12,-97.5"/>
<text text-anchor="start" x="103.88" y="-84" font-family="Helvetica,sans-Serif" font-size="10.00">TCPDF_STATIC\empty</text>
<text text-anchor="middle" x="156" y="-72.75" font-family="Helvetica,sans-Serif" font-size="10.00">_string</text>
</a>
</g>
</g>
<!-- Node1&#45;&gt;Node10 -->
<g id="edge12_Node000001_Node000010" class="edge">
<title>Node1&#45;&gt;Node10</title>
<g id="a_edge12_Node000001_Node000010"><a xlink:title=" ">
<path fill="none" stroke="#63b8ff" d="M39.43,-134.36C50.83,-127.45 66.7,-118.23 81.25,-111.25 87.83,-108.09 94.86,-105 101.86,-102.07"/>
<polygon fill="#63b8ff" stroke="#63b8ff" points="102.7,-105.51 110.64,-98.5 100.06,-99.03 102.7,-105.51"/>
</a>
</g>
</g>
<!-- Node11 -->
<g id="Node000011" class="node">
<title>Node11</title>
<g id="a_Node000011"><a xlink:href="class_t_c_p_d_f___s_t_a_t_i_c.html#a5ebc9848da9ebbae76c9b19609b3f04c" target="_top" xlink:title=" ">
<polygon fill="white" stroke="#666666" points="230.75,-30.5 81.25,-30.5 81.25,0 230.75,0 230.75,-30.5"/>
<text text-anchor="start" x="89.25" y="-17" font-family="Helvetica,sans-Serif" font-size="10.00">TCPDF_STATIC\getPathPaint</text>
<text text-anchor="middle" x="156" y="-5.75" font-family="Helvetica,sans-Serif" font-size="10.00">Operator</text>
</a>
</g>
</g>
<!-- Node1&#45;&gt;Node11 -->
<g id="edge13_Node000001_Node000011" class="edge">
<title>Node1&#45;&gt;Node11</title>
<g id="a_edge13_Node000001_Node000011"><a xlink:title=" ">
<path fill="none" stroke="#63b8ff" d="M28.45,-134.17C37.09,-116.92 56.62,-81.38 81.25,-58.25 90.01,-50.02 100.62,-42.69 111.03,-36.52"/>
<polygon fill="#63b8ff" stroke="#63b8ff" points="112.57,-39.66 119.56,-31.7 109.13,-33.57 112.57,-39.66"/>
</a>
</g>
</g>
<!-- Node12 -->
<g id="Node000012" class="node">
<title>Node12</title>
<g id="a_Node000012"><a xlink:href="class_t_c_p_d_f.html#aa6dde96cf573babe5f3dc89c781805e2" target="_top" xlink:title=" ">
<polygon fill="white" stroke="#666666" points="360.75,-97.88 272,-97.88 272,-78.62 360.75,-78.62 360.75,-97.88"/>
<text text-anchor="middle" x="316.38" y="-84.38" font-family="Helvetica,sans-Serif" font-size="10.00">setFillColorArray</text>
</a>
</g>
</g>
<!-- Node1&#45;&gt;Node12 -->
<g id="edge15_Node000001_Node000012" class="edge">
<title>Node1&#45;&gt;Node12</title>
<g id="a_edge15_Node000001_Node000012"><a xlink:title=" ">
<path fill="none" stroke="#63b8ff" d="M45.73,-140.4C83.65,-133.76 163.51,-119.57 230.75,-106.25 240.38,-104.34 250.62,-102.23 260.52,-100.15"/>
<polygon fill="#63b8ff" stroke="#63b8ff" points="260.96,-103.64 270.02,-98.14 259.51,-96.79 260.96,-103.64"/>
</a>
</g>
</g>
<!-- Node23 -->
<g id="Node000023" class="node">
<title>Node23</title>
<g id="a_Node000023"><a xlink:href="class_t_c_p_d_f.html#a20cb8b610261902e45c0c13aec203902" target="_top" xlink:title=" ">
<polygon fill="white" stroke="#666666" points="191,-172.88 121,-172.88 121,-153.62 191,-153.62 191,-172.88"/>
<text text-anchor="middle" x="156" y="-159.38" font-family="Helvetica,sans-Serif" font-size="10.00">setLineStyle</text>
</a>
</g>
</g>
<!-- Node1&#45;&gt;Node23 -->
<g id="edge28_Node000001_Node000023" class="edge">
<title>Node1&#45;&gt;Node23</title>
<g id="a_edge28_Node000001_Node000023"><a xlink:title=" ">
<path fill="none" stroke="#63b8ff" d="M45.61,-147.43C62.95,-149.94 87.72,-153.52 109.31,-156.64"/>
<polygon fill="#63b8ff" stroke="#63b8ff" points="108.68,-160.09 119.08,-158.05 109.68,-153.16 108.68,-160.09"/>
</a>
</g>
</g>
<!-- Node3 -->
<g id="Node000003" class="node">
<title>Node3</title>
<g id="a_Node000003"><a xlink:href="class_t_c_p_d_f.html#a2f0c138e82371b95c3899451a330da05" target="_top" xlink:title=" ">
<polygon fill="white" stroke="#666666" points="1017.5,-210.88 939.25,-210.88 939.25,-191.62 1017.5,-191.62 1017.5,-210.88"/>
<text text-anchor="middle" x="978.38" y="-197.38" font-family="Helvetica,sans-Serif" font-size="10.00">getPageBuffer</text>
</a>
</g>
</g>
<!-- Node2&#45;&gt;Node3 -->
<g id="edge2_Node000002_Node000003" class="edge">
<title>Node2&#45;&gt;Node3</title>
<g id="a_edge2_Node000002_Node000003"><a xlink:title=" ">
<path fill="none" stroke="#63b8ff" d="M842.56,-201.25C862.91,-201.25 898.11,-201.25 927.44,-201.25"/>
<polygon fill="#63b8ff" stroke="#63b8ff" points="927.25,-204.75 937.25,-201.25 927.25,-197.75 927.25,-204.75"/>
</a>
</g>
</g>
<!-- Node4 -->
<g id="Node000004" class="node">
<title>Node4</title>
<g id="a_Node000004"><a xlink:href="class_t_c_p_d_f.html#ac43455b74ede7e3f1d7558feb764eb6f" target="_top" xlink:title=" ">
<polygon fill="white" stroke="#666666" points="1006.25,-173.88 950.5,-173.88 950.5,-154.62 1006.25,-154.62 1006.25,-173.88"/>
<text text-anchor="middle" x="978.38" y="-160.38" font-family="Helvetica,sans-Serif" font-size="10.00">setBuffer</text>
</a>
</g>
</g>
<!-- Node2&#45;&gt;Node4 -->
<g id="edge3_Node000002_Node000004" class="edge">
<title>Node2&#45;&gt;Node4</title>
<g id="a_edge3_Node000002_Node000004"><a xlink:title=" ">
<path fill="none" stroke="#63b8ff" d="M842.56,-197.15C865.77,-191.49 908.29,-181.11 939.39,-173.52"/>
<polygon fill="#63b8ff" stroke="#63b8ff" points="939.92,-176.99 948.81,-171.22 938.26,-170.19 939.92,-176.99"/>
</a>
</g>
</g>
<!-- Node5 -->
<g id="Node000005" class="node">
<title>Node5</title>
<g id="a_Node000005"><a xlink:href="class_t_c_p_d_f.html#af4d8e4aed525c0bded587be897297a7f" target="_top" xlink:title=" ">
<polygon fill="white" stroke="#666666" points="1017.5,-247.88 939.25,-247.88 939.25,-228.62 1017.5,-228.62 1017.5,-247.88"/>
<text text-anchor="middle" x="978.38" y="-234.38" font-family="Helvetica,sans-Serif" font-size="10.00">setPageBuffer</text>
</a>
</g>
</g>
<!-- Node2&#45;&gt;Node5 -->
<g id="edge4_Node000002_Node000005" class="edge">
<title>Node2&#45;&gt;Node5</title>
<g id="a_edge4_Node000002_Node000005"><a xlink:title=" ">
<path fill="none" stroke="#63b8ff" d="M842.56,-205.35C863,-210.34 898.42,-218.98 927.83,-226.16"/>
<polygon fill="#63b8ff" stroke="#63b8ff" points="926.74,-229.5 937.29,-228.47 928.4,-222.7 926.74,-229.5"/>
</a>
</g>
</g>
<!-- Node7 -->
<g id="Node000007" class="node">
<title>Node7</title>
<g id="a_Node000007"><a xlink:href="class_t_c_p_d_f.html#a0d30dca877cd48361c5ceca48dfb43ed" target="_top" xlink:title=" ">
<polygon fill="white" stroke="#666666" points="702.38,-210.88 641.38,-210.88 641.38,-191.62 702.38,-191.62 702.38,-210.88"/>
<text text-anchor="middle" x="671.88" y="-197.38" font-family="Helvetica,sans-Serif" font-size="10.00">_outCurve</text>
</a>
</g>
</g>
<!-- Node6&#45;&gt;Node7 -->
<g id="edge6_Node000006_Node000007" class="edge">
<title>Node6&#45;&gt;Node7</title>
<g id="a_edge6_Node000006_Node000007"><a xlink:title=" ">
<path fill="none" stroke="#63b8ff" d="M597.95,-212.75C608.34,-211.11 619.5,-209.35 629.88,-207.72"/>
<polygon fill="#63b8ff" stroke="#63b8ff" points="630.36,-211.18 639.69,-206.17 629.27,-204.27 630.36,-211.18"/>
</a>
</g>
</g>
<!-- Node8 -->
<g id="Node000008" class="node">
<title>Node8</title>
<g id="a_Node000008"><a xlink:href="class_t_c_p_d_f.html#a0a2fb8f5ad902d1e41ec4e509c9b38f7" target="_top" xlink:title=" ">
<polygon fill="white" stroke="#666666" points="698.25,-284.88 645.5,-284.88 645.5,-265.62 698.25,-265.62 698.25,-284.88"/>
<text text-anchor="middle" x="671.88" y="-271.38" font-family="Helvetica,sans-Serif" font-size="10.00">_outLine</text>
</a>
</g>
</g>
<!-- Node6&#45;&gt;Node8 -->
<g id="edge8_Node000006_Node000008" class="edge">
<title>Node6&#45;&gt;Node8</title>
<g id="a_edge8_Node000006_Node000008"><a xlink:title=" ">
<path fill="none" stroke="#63b8ff" d="M576.92,-229.31C592.38,-237.01 614.26,-247.85 633.5,-257.25 635.49,-258.22 637.54,-259.22 639.61,-260.22"/>
<polygon fill="#63b8ff" stroke="#63b8ff" points="638.01,-263.34 648.54,-264.54 641.06,-257.04 638.01,-263.34"/>
</a>
</g>
</g>
<!-- Node9 -->
<g id="Node000009" class="node">
<title>Node9</title>
<g id="a_Node000009"><a xlink:href="class_t_c_p_d_f.html#a27a257ef0251606c00a441c0fc478e2c" target="_top" xlink:title=" ">
<polygon fill="white" stroke="#666666" points="700.5,-247.88 643.25,-247.88 643.25,-228.62 700.5,-228.62 700.5,-247.88"/>
<text text-anchor="middle" x="671.88" y="-234.38" font-family="Helvetica,sans-Serif" font-size="10.00">_outPoint</text>
</a>
</g>
</g>
<!-- Node6&#45;&gt;Node9 -->
<g id="edge10_Node000006_Node000009" class="edge">
<title>Node6&#45;&gt;Node9</title>
<g id="a_edge10_Node000006_Node000009"><a xlink:title=" ">
<path fill="none" stroke="#63b8ff" d="M597.95,-226.11C608.92,-227.94 620.75,-229.9 631.61,-231.71"/>
<polygon fill="#63b8ff" stroke="#63b8ff" points="631.01,-235.16 641.45,-233.35 632.16,-228.26 631.01,-235.16"/>
</a>
</g>
</g>
<!-- Node7&#45;&gt;Node2 -->
<g id="edge7_Node000007_Node000002" class="edge">
<title>Node7&#45;&gt;Node2</title>
<g id="a_edge7_Node000007_Node000002"><a xlink:title=" ">
<path fill="none" stroke="#63b8ff" d="M702.68,-201.25C729.67,-201.25 769.13,-201.25 795.59,-201.25"/>
<polygon fill="#63b8ff" stroke="#63b8ff" points="795.57,-204.75 805.57,-201.25 795.57,-197.75 795.57,-204.75"/>
</a>
</g>
</g>
<!-- Node8&#45;&gt;Node2 -->
<g id="edge9_Node000008_Node000002" class="edge">
<title>Node8&#45;&gt;Node2</title>
<g id="a_edge9_Node000008_Node000002"><a xlink:title=" ">
<path fill="none" stroke="#63b8ff" d="M693.85,-265.19C699.2,-262.61 704.94,-259.84 710.25,-257.25 740.09,-242.7 774.24,-225.82 797.22,-214.43"/>
<polygon fill="#63b8ff" stroke="#63b8ff" points="798.47,-217.71 805.88,-210.13 795.36,-211.44 798.47,-217.71"/>
</a>
</g>
</g>
<!-- Node9&#45;&gt;Node2 -->
<g id="edge11_Node000009_Node000002" class="edge">
<title>Node9&#45;&gt;Node2</title>
<g id="a_edge11_Node000009_Node000002"><a xlink:title=" ">
<path fill="none" stroke="#63b8ff" d="M700.9,-231.38C728.07,-224.71 769.04,-214.67 796.08,-208.03"/>
<polygon fill="#63b8ff" stroke="#63b8ff" points="796.74,-211.48 805.62,-205.7 795.07,-204.68 796.74,-211.48"/>
</a>
</g>
</g>
<!-- Node11&#45;&gt;Node11 -->
<g id="edge14_Node000011_Node000011" class="edge">
<title>Node11&#45;&gt;Node11</title>
<g id="a_edge14_Node000011_Node000011"><a xlink:title=" ">
<path fill="none" stroke="#63b8ff" d="M132.37,-30.99C127.54,-40.06 135.42,-48.5 156,-48.5 167.25,-48.5 174.71,-45.97 178.37,-42.2"/>
<polygon fill="#63b8ff" stroke="#63b8ff" points="181.82,-42.82 179.46,-32.49 174.86,-42.03 181.82,-42.82"/>
</a>
</g>
</g>
<!-- Node13 -->
<g id="Node000013" class="node">
<title>Node13</title>
<g id="a_Node000013"><a xlink:href="class_t_c_p_d_f.html#a5ecacf1e3748198de63fbf25a12b30d9" target="_top" xlink:title=" ">
<polygon fill="white" stroke="#666666" points="478,-97.88 402,-97.88 402,-78.62 478,-78.62 478,-97.88"/>
<text text-anchor="middle" x="440" y="-84.38" font-family="Helvetica,sans-Serif" font-size="10.00">setColorArray</text>
</a>
</g>
</g>
<!-- Node12&#45;&gt;Node13 -->
<g id="edge16_Node000012_Node000013" class="edge">
<title>Node12&#45;&gt;Node13</title>
<g id="a_edge16_Node000012_Node000013"><a xlink:title=" ">
<path fill="none" stroke="#63b8ff" d="M360.94,-88.25C370.54,-88.25 380.77,-88.25 390.55,-88.25"/>
<polygon fill="#63b8ff" stroke="#63b8ff" points="390.25,-91.75 400.25,-88.25 390.25,-84.75 390.25,-91.75"/>
</a>
</g>
</g>
<!-- Node14 -->
<g id="Node000014" class="node">
<title>Node14</title>
<g id="a_Node000014"><a xlink:href="class_t_c_p_d_f.html#a2ea736e8bea04d12a9c0941787cac439" target="_top" xlink:title=" ">
<polygon fill="white" stroke="#666666" points="582.12,-96.88 529.38,-96.88 529.38,-77.62 582.12,-77.62 582.12,-96.88"/>
<text text-anchor="middle" x="555.75" y="-83.38" font-family="Helvetica,sans-Serif" font-size="10.00">setColor</text>
</a>
</g>
</g>
<!-- Node13&#45;&gt;Node14 -->
<g id="edge17_Node000013_Node000014" class="edge">
<title>Node13&#45;&gt;Node14</title>
<g id="a_edge17_Node000013_Node000014"><a xlink:title=" ">
<path fill="none" stroke="#63b8ff" d="M478.25,-87.92C490.95,-87.81 505.13,-87.69 517.81,-87.57"/>
<polygon fill="#63b8ff" stroke="#63b8ff" points="517.46,-91.08 527.42,-87.49 517.39,-84.08 517.46,-91.08"/>
</a>
</g>
</g>
<!-- Node14&#45;&gt;Node2 -->
<g id="edge18_Node000014_Node000002" class="edge">
<title>Node14&#45;&gt;Node2</title>
<g id="a_edge18_Node000014_Node000002"><a xlink:title=" ">
<path fill="none" stroke="#63b8ff" d="M582.43,-97.21C613.03,-109.17 665.64,-130.03 710.25,-149.25 740.02,-162.07 773.73,-177.66 796.63,-188.4"/>
<polygon fill="#63b8ff" stroke="#63b8ff" points="795.03,-191.52 805.57,-192.61 798.01,-185.18 795.03,-191.52"/>
</a>
</g>
</g>
<!-- Node15 -->
<g id="Node000015" class="node">
<title>Node15</title>
<g id="a_Node000015"><a xlink:href="class_t_c_p_d_f.html#a4137e2e5e22a8f5b50fe38d51285ac8f" target="_top" xlink:title=" ">
<polygon fill="white" stroke="#666666" points="710.25,-96.88 633.5,-96.88 633.5,-77.62 710.25,-77.62 710.25,-96.88"/>
<text text-anchor="middle" x="671.88" y="-83.38" font-family="Helvetica,sans-Serif" font-size="10.00">AddSpotColor</text>
</a>
</g>
</g>
<!-- Node14&#45;&gt;Node15 -->
<g id="edge19_Node000014_Node000015" class="edge">
<title>Node14&#45;&gt;Node15</title>
<g id="a_edge19_Node000014_Node000015"><a xlink:title=" ">
<path fill="none" stroke="#63b8ff" d="M582.36,-87.25C594.07,-87.25 608.34,-87.25 621.98,-87.25"/>
<polygon fill="#63b8ff" stroke="#63b8ff" points="621.7,-90.75 631.7,-87.25 621.7,-83.75 621.7,-90.75"/>
</a>
</g>
</g>
<!-- Node16 -->
<g id="Node000016" class="node">
<title>Node16</title>
<g id="a_Node000016"><a xlink:href="class_t_c_p_d_f.html#a301436afa22feb9fe2de781e4018b60a" target="_top" xlink:title=" ">
<polygon fill="white" stroke="#666666" points="708.38,-59.88 635.38,-59.88 635.38,-40.62 708.38,-40.62 708.38,-59.88"/>
<text text-anchor="middle" x="671.88" y="-46.38" font-family="Helvetica,sans-Serif" font-size="10.00">setSpotColor</text>
</a>
</g>
</g>
<!-- Node14&#45;&gt;Node16 -->
<g id="edge20_Node000014_Node000016" class="edge">
<title>Node14&#45;&gt;Node16</title>
<g id="a_edge20_Node000014_Node000016"><a xlink:title=" ">
<path fill="none" stroke="#63b8ff" d="M582.36,-78.95C596.14,-74.48 613.47,-68.86 629.14,-63.78"/>
<polygon fill="#63b8ff" stroke="#63b8ff" points="629.78,-67.25 638.22,-60.84 627.62,-60.59 629.78,-67.25"/>
</a>
</g>
</g>
<!-- Node16&#45;&gt;Node2 -->
<g id="edge21_Node000016_Node000002" class="edge">
<title>Node16&#45;&gt;Node2</title>
<g id="a_edge21_Node000016_Node000002"><a xlink:title=" ">
<path fill="none" stroke="#63b8ff" d="M697.46,-60.28C701.92,-62.59 706.37,-65.26 710.25,-68.25 753.53,-101.6 792.06,-153.81 811.12,-181.86"/>
<polygon fill="#63b8ff" stroke="#63b8ff" points="808.15,-183.71 816.61,-190.09 813.97,-179.82 808.15,-183.71"/>
</a>
</g>
</g>
<!-- Node17 -->
<g id="Node000017" class="node">
<title>Node17</title>
<g id="a_Node000017"><a xlink:href="class_t_c_p_d_f.html#a5afab85a7aaf19395f9a0e86cae76928" target="_top" xlink:title=" ">
<polygon fill="white" stroke="#666666" points="843.25,-41.88 806.25,-41.88 806.25,-22.62 843.25,-22.62 843.25,-41.88"/>
<text text-anchor="middle" x="824.75" y="-28.38" font-family="Helvetica,sans-Serif" font-size="10.00">Error</text>
</a>
</g>
</g>
<!-- Node16&#45;&gt;Node17 -->
<g id="edge22_Node000016_Node000017" class="edge">
<title>Node16&#45;&gt;Node17</title>
<g id="a_edge22_Node000016_Node000017"><a xlink:title=" ">
<path fill="none" stroke="#63b8ff" d="M708.63,-45.98C734.87,-42.85 770.07,-38.65 794.61,-35.73"/>
<polygon fill="#63b8ff" stroke="#63b8ff" points="795.02,-39.2 804.53,-34.54 794.19,-32.25 795.02,-39.2"/>
</a>
</g>
</g>
<!-- Node22 -->
<g id="Node000022" class="node">
<title>Node22</title>
<g id="a_Node000022"><a xlink:href="class_t_c_p_d_f___c_o_l_o_r_s.html#a0acfb17940f35c8a197c3d8ce79a8437" target="_top" xlink:title=" ">
<polygon fill="white" stroke="#666666" points="903.25,-78.88 746.25,-78.88 746.25,-59.62 903.25,-59.62 903.25,-78.88"/>
<text text-anchor="middle" x="824.75" y="-65.38" font-family="Helvetica,sans-Serif" font-size="10.00">TCPDF_COLORS\getSpotColor</text>
</a>
</g>
</g>
<!-- Node16&#45;&gt;Node22 -->
<g id="edge27_Node000016_Node000022" class="edge">
<title>Node16&#45;&gt;Node22</title>
<g id="a_edge27_Node000016_Node000022"><a xlink:title=" ">
<path fill="none" stroke="#63b8ff" d="M708.63,-54.75C716.68,-55.77 725.58,-56.89 734.75,-58.04"/>
<polygon fill="#63b8ff" stroke="#63b8ff" points="734.18,-61.5 744.54,-59.28 735.06,-54.55 734.18,-61.5"/>
</a>
</g>
</g>
<!-- Node18 -->
<g id="Node000018" class="node">
<title>Node18</title>
<g id="a_Node000018"><a xlink:href="class_t_c_p_d_f.html#a3f1223ef6da2a75d708d2cf17129e35a" target="_top" xlink:title=" ">
<polygon fill="white" stroke="#666666" points="1005.12,-41.88 951.62,-41.88 951.62,-22.62 1005.12,-22.62 1005.12,-41.88"/>
<text text-anchor="middle" x="978.38" y="-28.38" font-family="Helvetica,sans-Serif" font-size="10.00">_destroy</text>
</a>
</g>
</g>
<!-- Node17&#45;&gt;Node18 -->
<g id="edge23_Node000017_Node000018" class="edge">
<title>Node17&#45;&gt;Node18</title>
<g id="a_edge23_Node000017_Node000018"><a xlink:title=" ">
<path fill="none" stroke="#63b8ff" d="M843.74,-32.25C867.39,-32.25 909.52,-32.25 940.17,-32.25"/>
<polygon fill="#63b8ff" stroke="#63b8ff" points="939.78,-35.75 949.78,-32.25 939.78,-28.75 939.78,-35.75"/>
</a>
</g>
</g>
<!-- Node19 -->
<g id="Node000019" class="node">
<title>Node19</title>
<g id="a_Node000019"><a xlink:href="class_t_c_p_d_f___s_t_a_t_i_c.html#a9e14c837e0fcb7de0b1b272f5b2384f7" target="_top" xlink:title=" ">
<polygon fill="white" stroke="#666666" points="1191,-41.88 1053.5,-41.88 1053.5,-22.62 1191,-22.62 1191,-41.88"/>
<text text-anchor="middle" x="1122.25" y="-28.38" font-family="Helvetica,sans-Serif" font-size="10.00">TCPDF_STATIC\file_exists</text>
</a>
</g>
</g>
<!-- Node18&#45;&gt;Node19 -->
<g id="edge24_Node000018_Node000019" class="edge">
<title>Node18&#45;&gt;Node19</title>
<g id="a_edge24_Node000018_Node000019"><a xlink:title=" ">
<path fill="none" stroke="#63b8ff" d="M1005.4,-32.25C1015.96,-32.25 1028.78,-32.25 1041.99,-32.25"/>
<polygon fill="#63b8ff" stroke="#63b8ff" points="1041.62,-35.75 1051.62,-32.25 1041.62,-28.75 1041.62,-35.75"/>
</a>
</g>
</g>
<!-- Node20 -->
<g id="Node000020" class="node">
<title>Node20</title>
<g id="a_Node000020"><a xlink:href="class_t_c_p_d_f___s_t_a_t_i_c.html#adeb9b51fef0b87a0befbdbb11e85f39b" target="_top" xlink:title=" ">
<polygon fill="white" stroke="#666666" points="1362.25,-41.88 1227,-41.88 1227,-22.62 1362.25,-22.62 1362.25,-41.88"/>
<text text-anchor="middle" x="1294.62" y="-28.38" font-family="Helvetica,sans-Serif" font-size="10.00">TCPDF_STATIC\url_exists</text>
</a>
</g>
</g>
<!-- Node19&#45;&gt;Node20 -->
<g id="edge25_Node000019_Node000020" class="edge">
<title>Node19&#45;&gt;Node20</title>
<g id="a_edge25_Node000019_Node000020"><a xlink:title=" ">
<path fill="none" stroke="#63b8ff" d="M1191.08,-32.25C1199.02,-32.25 1207.18,-32.25 1215.26,-32.25"/>
<polygon fill="#63b8ff" stroke="#63b8ff" points="1215.07,-35.75 1225.07,-32.25 1215.07,-28.75 1215.07,-35.75"/>
</a>
</g>
</g>
<!-- Node21 -->
<g id="Node000021" class="node">
<title>Node21</title>
<g id="a_Node000021"><a xlink:href="class_t_c_p_d_f___s_t_a_t_i_c.html#a79813ccb2446fdc8ec2b1a1f346a3809" target="_top" xlink:title=" ">
<polygon fill="white" stroke="#666666" points="1562,-41.88 1398.25,-41.88 1398.25,-22.62 1562,-22.62 1562,-41.88"/>
<text text-anchor="middle" x="1480.12" y="-28.38" font-family="Helvetica,sans-Serif" font-size="10.00">TCPDF_STATIC\encodeUrlQuery</text>
</a>
</g>
</g>
<!-- Node20&#45;&gt;Node21 -->
<g id="edge26_Node000020_Node000021" class="edge">
<title>Node20&#45;&gt;Node21</title>
<g id="a_edge26_Node000020_Node000021"><a xlink:title=" ">
<path fill="none" stroke="#63b8ff" d="M1362.65,-32.25C1370.45,-32.25 1378.5,-32.25 1386.56,-32.25"/>
<polygon fill="#63b8ff" stroke="#63b8ff" points="1386.42,-35.75 1396.42,-32.25 1386.42,-28.75 1386.42,-35.75"/>
</a>
</g>
</g>
<!-- Node23&#45;&gt;Node2 -->
<g id="edge29_Node000023_Node000002" class="edge">
<title>Node23&#45;&gt;Node2</title>
<g id="a_edge29_Node000023_Node000002"><a xlink:title=" ">
<path fill="none" stroke="#63b8ff" d="M191.29,-163.25C244.38,-163.25 349.65,-163.25 439,-163.25 439,-163.25 439,-163.25 556.75,-163.25 644.8,-163.25 747.58,-183.76 795.92,-194.64"/>
<polygon fill="#63b8ff" stroke="#63b8ff" points="794.99,-198.02 805.52,-196.84 796.56,-191.2 794.99,-198.02"/>
</a>
</g>
</g>
<!-- Node24 -->
<g id="Node000024" class="node">
<title>Node24</title>
<g id="a_Node000024"><a xlink:href="class_t_c_p_d_f.html#a14af863ae6e075cbfa79ffa18d6a733d" target="_top" xlink:title=" ">
<polygon fill="white" stroke="#666666" points="366,-134.88 266.75,-134.88 266.75,-115.62 366,-115.62 366,-134.88"/>
<text text-anchor="middle" x="316.38" y="-121.38" font-family="Helvetica,sans-Serif" font-size="10.00">setDrawColorArray</text>
</a>
</g>
</g>
<!-- Node23&#45;&gt;Node24 -->
<g id="edge30_Node000023_Node000024" class="edge">
<title>Node23&#45;&gt;Node24</title>
<g id="a_edge30_Node000023_Node000024"><a xlink:title=" ">
<path fill="none" stroke="#63b8ff" d="M191.37,-155C212.01,-150.05 238.7,-143.65 262.04,-138.05"/>
<polygon fill="#63b8ff" stroke="#63b8ff" points="262.8,-141.46 271.71,-135.73 261.17,-134.66 262.8,-141.46"/>
</a>
</g>
</g>
<!-- Node24&#45;&gt;Node13 -->
<g id="edge31_Node000024_Node000013" class="edge">
<title>Node24&#45;&gt;Node13</title>
<g id="a_edge31_Node000024_Node000013"><a xlink:title=" ">
<path fill="none" stroke="#63b8ff" d="M350.61,-115.14C364.29,-110.98 380.32,-106.1 394.95,-101.65"/>
<polygon fill="#63b8ff" stroke="#63b8ff" points="395.81,-105.05 404.36,-98.79 393.77,-98.35 395.81,-105.05"/>
</a>
</g>
</g>
</g>
</svg>

<g id="navigator" transform="translate(0 0)" fill="#404254">
  <rect fill="#f2f5e9" fill-opacity="0.5" stroke="#606060" stroke-width=".5" x="0" y="0" width="60" height="60"/>
  <use id="zoomplus" xlink:href="#zoomPlus" x="17" y="9" onmousedown="handleZoom(evt,'in')"/>
  <use id="zoomminus" xlink:href="#zoomMin" x="42" y="9" onmousedown="handleZoom(evt,'out')"/>
  <use id="reset" xlink:href="#resetDef" x="30" y="36" onmousedown="handleReset()"/>
   <use id="arrowup" xlink:href="#arrowUp" x="0" y="0" onmousedown="handlePan(0,-1)"/>
  <use id="arrowright" xlink:href="#arrowRight" x="0" y="0" onmousedown="handlePan(1,0)"/>
  <use id="arrowdown" xlink:href="#arrowDown" x="0" y="0" onmousedown="handlePan(0,1)"/>
  <use id="arrowleft" xlink:href="#arrowLeft" x="0" y="0" onmousedown="handlePan(-1,0)"/>
</g>
<svg viewBox="0 0 15 15" width="100%" height="30px" preserveAspectRatio="xMaxYMin meet">
 <g id="arrow_out" transform="scale(0.3 0.3)">
  <a xlink:href="class_t_c_p_d_f_aef64473c123bb4caa316e4deb584e3f5_cgraph_org.svg" target="_base">
   <rect id="button" ry="5" rx="5" y="6" x="6" height="38" width="38"
        fill="#f2f5e9" fill-opacity="0.5" stroke="#606060" stroke-width="1.0"/>
   <path id="arrow"
     d="M 11.500037,31.436501 C 11.940474,20.09759 22.043105,11.32322 32.158766,21.979434 L 37.068811,17.246167 C 37.068811,17.246167 37.088388,32 37.088388,32 L 22.160133,31.978069 C 22.160133,31.978069 26.997745,27.140456 26.997745,27.140456 C 18.528582,18.264221 13.291696,25.230495 11.500037,31.436501 z"
     style="fill:#404040;"/>
  </a>
 </g>
</svg>

<style type='text/css'>
<![CDATA[
[data-mouse-over-selected='false'] { opacity: 0.7; }
[data-mouse-over-selected='true']  { opacity: 1.0; }
]]>
</style>
<script type="application/ecmascript"><![CDATA[
document.addEventListener('DOMContentLoaded', (event) => {
  highlightEdges();
  highlightAdjacentNodes();
});
]]></script>
</svg>
