<?xml version="1.0" encoding="UTF-8" standalone="no"?>
<!DOCTYPE svg PUBLIC "-//W3C//DTD SVG 1.1//EN"
 "http://www.w3.org/Graphics/SVG/1.1/DTD/svg11.dtd">
<!-- Generated by graphviz version 10.0.1 (20240210.2158)
 -->
<!-- Title: getSourceContext Pages: 1 -->
<svg width="238pt" height="64pt"
 viewBox="0.00 0.00 238.00 64.25" xmlns="http://www.w3.org/2000/svg" xmlns:xlink="http://www.w3.org/1999/xlink">
<g id="graph0" class="graph" transform="scale(1 1) rotate(0) translate(4 60.25)">
<title>getSourceContext</title>
<!-- Node1 -->
<g id="Node000001" class="node">
<title>Node1</title>
<g id="a_Node000001"><a xlink:title=" ">
<polygon fill="#999999" stroke="#666666" points="230,-37.25 135.25,-37.25 135.25,-18 230,-18 230,-37.25"/>
<text text-anchor="middle" x="182.62" y="-23.75" font-family="Helvetica,sans-Serif" font-size="10.00">getSourceContext</text>
</a>
</g>
</g>
<!-- Node2 -->
<g id="Node000002" class="node">
<title>Node2</title>
<g id="a_Node000002"><a xlink:href="class_____twig_template__b14afc1a3f16c1300ec2fc8259c87ca5.html#a37c6e3dc43e0de50d3a05e80b8cb86eb" target="_top" xlink:title=" ">
<polygon fill="white" stroke="#666666" points="83.12,-56.25 16.12,-56.25 16.12,-37 83.12,-37 83.12,-56.25"/>
<text text-anchor="middle" x="49.62" y="-42.75" font-family="Helvetica,sans-Serif" font-size="10.00">__construct</text>
</a>
</g>
</g>
<!-- Node1&#45;&gt;Node2 -->
<g id="edge1_Node000001_Node000002" class="edge">
<title>Node1&#45;&gt;Node2</title>
<g id="a_edge1_Node000001_Node000002"><a xlink:title=" ">
<path fill="none" stroke="#63b8ff" d="M124.07,-35.97C110.17,-37.99 95.78,-40.08 83.46,-41.86"/>
<polygon fill="#63b8ff" stroke="#63b8ff" points="124.18,-39.49 133.57,-34.59 123.17,-32.57 124.18,-39.49"/>
</a>
</g>
</g>
<!-- Node3 -->
<g id="Node000003" class="node">
<title>Node3</title>
<g id="a_Node000003"><a xlink:href="class_____twig_template__b14afc1a3f16c1300ec2fc8259c87ca5.html#a6a6046b6f2b7ac8e7059a9ec1b5fec1d" target="_top" xlink:title=" ">
<polygon fill="white" stroke="#666666" points="99.25,-19.25 0,-19.25 0,0 99.25,0 99.25,-19.25"/>
<text text-anchor="middle" x="49.62" y="-5.75" font-family="Helvetica,sans-Serif" font-size="10.00">block_config_fields</text>
</a>
</g>
</g>
<!-- Node1&#45;&gt;Node3 -->
<g id="edge2_Node000001_Node000003" class="edge">
<title>Node1&#45;&gt;Node3</title>
<g id="a_edge2_Node000001_Node000003"><a xlink:title=" ">
<path fill="none" stroke="#63b8ff" d="M123.84,-19.68C115.78,-18.58 107.57,-17.45 99.69,-16.37"/>
<polygon fill="#63b8ff" stroke="#63b8ff" points="123.19,-23.13 133.57,-21.02 124.14,-16.19 123.19,-23.13"/>
</a>
</g>
</g>
</g>
</svg>
