<?xml version="1.0" encoding="UTF-8" standalone="no"?>
<!DOCTYPE svg PUBLIC "-//W3C//DTD SVG 1.1//EN"
 "http://www.w3.org/Graphics/SVG/1.1/DTD/svg11.dtd">
<!-- Generated by graphviz version 10.0.1 (20240210.2158)
 -->
<!-- Title: remove_dot_segments Pages: 1 -->
<!--zoomable 121 -->

<svg id="main" version="1.1" xmlns="http://www.w3.org/2000/svg" xmlns:xlink="http://www.w3.org/1999/xlink" xml:space="preserve" onload="init(evt)">
<style type="text/css"><![CDATA[
.node, .edge {opacity: 0.7;}
.node.selected, .edge.selected {opacity: 1;}
.edge:hover path { stroke: red; }
.edge:hover polygon { stroke: red; fill: red; }
]]></style>

<defs>
  <circle id="rim" cx="0" cy="0" r="7"/>
  <circle id="rim2" cx="0" cy="0" r="3.5"/>
  <g id="zoomPlus">
    <use xlink:href="#rim" fill="#404040"><set attributeName="fill" to="#808080" begin="zoomplus.mouseover" end="zoomplus.mouseout"/></use>
    <path d="M-4,0h8M0,-4v8" fill="none" stroke="white" stroke-width="1.5" pointer-events="none"/>
  </g>
  <g id="zoomMin">
    <use xlink:href="#rim" fill="#404040"><set attributeName="fill" to="#808080" begin="zoomminus.mouseover" end="zoomminus.mouseout"/></use>
    <path d="M-4,0h8" fill="none" stroke="white" stroke-width="1.5" pointer-events="none"/>
  </g>
  <g id="arrowUp" transform="translate(30 24)">
    <use xlink:href="#rim"/>
    <path pointer-events="none" fill="none" stroke="white" stroke-width="1.5" d="M0,-3.0v7 M-2.5,-0.5L0,-3.0L2.5,-0.5"/>
  </g>
  <g id="arrowRight" transform="rotate(90) translate(36 -43)">
    <use xlink:href="#rim"/>
    <path pointer-events="none" fill="none" stroke="white" stroke-width="1.5" d="M0,-3.0v7 M-2.5,-0.5L0,-3.0L2.5,-0.5"/>
  </g>
  <g id="arrowDown" transform="rotate(180) translate(-30 -48)">
    <use xlink:href="#rim"/>
    <path pointer-events="none" fill="none" stroke="white" stroke-width="1.5" d="M0,-3.0v7 M-2.5,-0.5L0,-3.0L2.5,-0.5"/>
  </g>
  <g id="arrowLeft" transform="rotate(270) translate(-36 17)">
    <use xlink:href="#rim"/>
    <path pointer-events="none" fill="none" stroke="white" stroke-width="1.5" d="M0,-3.0v7 M-2.5,-0.5L0,-3.0L2.5,-0.5"/>
  </g>
  <g id="resetDef">
    <use xlink:href="#rim2" fill="#404040"><set attributeName="fill" to="#808080" begin="reset.mouseover" end="reset.mouseout"/></use>
  </g>
</defs>
<script type="application/ecmascript">
var viewWidth = 576;
var viewHeight = 121;
var sectionId = 'dynsection-13';
</script>
<script type="application/ecmascript" xlink:href="svg.min.js"/>
<svg id="graph" class="graph">
<g id="viewport">
<title>remove_dot_segments</title>
<!-- Node1 -->
<g id="Node000001" class="node">
<title>Node1</title>
<g id="a_Node000001"><a xlink:title=" ">
<polygon fill="#999999" stroke="#666666" points="568,-75.25 453,-75.25 453,-56 568,-56 568,-75.25"/>
<text text-anchor="middle" x="510.5" y="-61.75" font-family="Helvetica,sans-Serif" font-size="10.00">remove_dot_segments</text>
</a>
</g>
</g>
<!-- Node2 -->
<g id="Node000002" class="node">
<title>Node2</title>
<g id="a_Node000002"><a xlink:href="class_simple_pie___i_r_i.html#a8fa31986193df4d13393423c731a7bb5" target="_top" xlink:title=" ">
<polygon fill="white" stroke="#666666" points="417,-94.25 356.75,-94.25 356.75,-75 417,-75 417,-94.25"/>
<text text-anchor="middle" x="386.88" y="-80.75" font-family="Helvetica,sans-Serif" font-size="10.00">absolutize</text>
</a>
</g>
</g>
<!-- Node1&#45;&gt;Node2 -->
<g id="edge1_Node000001_Node000002" class="edge">
<title>Node1&#45;&gt;Node2</title>
<g id="a_edge1_Node000001_Node000002"><a xlink:title=" ">
<path fill="none" stroke="#63b8ff" d="M441.41,-76.26C432.94,-77.59 424.66,-78.88 417.24,-80.04"/>
<polygon fill="#63b8ff" stroke="#63b8ff" points="441.77,-79.75 451.11,-74.75 440.69,-72.83 441.77,-79.75"/>
</a>
</g>
</g>
<!-- Node5 -->
<g id="Node000005" class="node">
<title>Node5</title>
<g id="a_Node000005"><a xlink:href="class_simple_pie___i_r_i.html#ac6955ee60ff7c459236ce83bac8f99d0" target="_top" xlink:title=" ">
<polygon fill="white" stroke="#666666" points="413.62,-57.25 360.12,-57.25 360.12,-38 413.62,-38 413.62,-57.25"/>
<text text-anchor="middle" x="386.88" y="-43.75" font-family="Helvetica,sans-Serif" font-size="10.00">set_path</text>
</a>
</g>
</g>
<!-- Node1&#45;&gt;Node5 -->
<g id="edge5_Node000001_Node000005" class="edge">
<title>Node1&#45;&gt;Node5</title>
<g id="a_edge5_Node000001_Node000005"><a xlink:title=" ">
<path fill="none" stroke="#63b8ff" d="M441.23,-55.52C431.59,-54.09 422.2,-52.71 414.06,-51.5"/>
<polygon fill="#63b8ff" stroke="#63b8ff" points="440.7,-58.98 451.11,-56.98 441.73,-52.06 440.7,-58.98"/>
</a>
</g>
</g>
<!-- Node3 -->
<g id="Node000003" class="node">
<title>Node3</title>
<g id="a_Node000003"><a xlink:href="class_simple_pie___misc.html#ae6af2e1af12f8b8ceccbe7adc7939b89" target="_top" xlink:title=" ">
<polygon fill="white" stroke="#666666" points="320.75,-95.25 171.25,-95.25 171.25,-76 320.75,-76 320.75,-95.25"/>
<text text-anchor="middle" x="246" y="-81.75" font-family="Helvetica,sans-Serif" font-size="10.00">SimplePie_Misc\absolutize_url</text>
</a>
</g>
</g>
<!-- Node2&#45;&gt;Node3 -->
<g id="edge2_Node000002_Node000003" class="edge">
<title>Node2&#45;&gt;Node3</title>
<g id="a_edge2_Node000002_Node000003"><a xlink:title=" ">
<path fill="none" stroke="#63b8ff" d="M344.99,-84.92C337.39,-84.97 329.23,-85.03 320.99,-85.09"/>
<polygon fill="#63b8ff" stroke="#63b8ff" points="344.94,-88.42 354.91,-84.85 344.88,-81.42 344.94,-88.42"/>
</a>
</g>
</g>
<!-- Node4 -->
<g id="Node000004" class="node">
<title>Node4</title>
<g id="a_Node000004"><a xlink:href="class_simple_pie___file.html#a40a1b523d7e8590fe078850dff9ba393" target="_top" xlink:title=" ">
<polygon fill="white" stroke="#666666" points="135.25,-95.25 0,-95.25 0,-76 135.25,-76 135.25,-95.25"/>
<text text-anchor="middle" x="67.62" y="-81.75" font-family="Helvetica,sans-Serif" font-size="10.00">SimplePie_File\__construct</text>
</a>
</g>
</g>
<!-- Node3&#45;&gt;Node4 -->
<g id="edge3_Node000003_Node000004" class="edge">
<title>Node3&#45;&gt;Node4</title>
<g id="a_edge3_Node000003_Node000004"><a xlink:title=" ">
<path fill="none" stroke="#63b8ff" d="M159.66,-85.62C151.62,-85.62 143.56,-85.62 135.73,-85.62"/>
<polygon fill="#63b8ff" stroke="#63b8ff" points="159.45,-89.13 169.45,-85.63 159.45,-82.13 159.45,-89.13"/>
</a>
</g>
</g>
<!-- Node4&#45;&gt;Node4 -->
<g id="edge4_Node000004_Node000004" class="edge">
<title>Node4&#45;&gt;Node4</title>
<g id="a_edge4_Node000004_Node000004"><a xlink:title=" ">
<path fill="none" stroke="#63b8ff" d="M99.9,-105.98C96.51,-110.21 85.75,-113.25 67.62,-113.25 36.27,-113.25 26.96,-104.15 39.7,-95.54"/>
<polygon fill="#63b8ff" stroke="#63b8ff" points="103.21,-104.82 96.13,-96.94 96.75,-107.51 103.21,-104.82"/>
</a>
</g>
</g>
<!-- Node6 -->
<g id="Node000006" class="node">
<title>Node6</title>
<g id="a_Node000006"><a xlink:href="class_simple_pie___i_r_i.html#a421831a265621325e1fdd19aace0c758" target="_top" xlink:title=" ">
<polygon fill="white" stroke="#666666" points="98.5,-57.25 36.75,-57.25 36.75,-38 98.5,-38 98.5,-57.25"/>
<text text-anchor="middle" x="67.62" y="-43.75" font-family="Helvetica,sans-Serif" font-size="10.00">__destruct</text>
</a>
</g>
</g>
<!-- Node5&#45;&gt;Node6 -->
<g id="edge6_Node000005_Node000006" class="edge">
<title>Node5&#45;&gt;Node6</title>
<g id="a_edge6_Node000005_Node000006"><a xlink:title=" ">
<path fill="none" stroke="#63b8ff" d="M348.15,-47.62C284.39,-47.62 156.61,-47.62 98.55,-47.62"/>
<polygon fill="#63b8ff" stroke="#63b8ff" points="348.13,-51.13 358.13,-47.63 348.13,-44.13 348.13,-51.13"/>
</a>
</g>
</g>
<!-- Node7 -->
<g id="Node000007" class="node">
<title>Node7</title>
<g id="a_Node000007"><a xlink:href="class_simple_pie___i_r_i.html#afbd5f04e239b2479896aec42c49e6c99" target="_top" xlink:title=" ">
<polygon fill="white" stroke="#666666" points="267.12,-19.25 224.88,-19.25 224.88,0 267.12,0 267.12,-19.25"/>
<text text-anchor="middle" x="246" y="-5.75" font-family="Helvetica,sans-Serif" font-size="10.00">set_iri</text>
</a>
</g>
</g>
<!-- Node5&#45;&gt;Node7 -->
<g id="edge7_Node000005_Node000007" class="edge">
<title>Node5&#45;&gt;Node7</title>
<g id="a_edge7_Node000005_Node000007"><a xlink:title=" ">
<path fill="none" stroke="#63b8ff" d="M348.78,-37.47C322.75,-30.35 288.92,-21.1 267.58,-15.26"/>
<polygon fill="#63b8ff" stroke="#63b8ff" points="347.72,-40.81 358.29,-40.08 349.57,-34.06 347.72,-40.81"/>
</a>
</g>
</g>
<!-- Node7&#45;&gt;Node6 -->
<g id="edge9_Node000007_Node000006" class="edge">
<title>Node7&#45;&gt;Node6</title>
<g id="a_edge9_Node000007_Node000006"><a xlink:title=" ">
<path fill="none" stroke="#63b8ff" d="M213.32,-16.45C180.84,-23.45 130.7,-34.25 98.78,-41.13"/>
<polygon fill="#63b8ff" stroke="#63b8ff" points="213.9,-19.9 222.94,-14.38 212.43,-13.06 213.9,-19.9"/>
</a>
</g>
</g>
<!-- Node8 -->
<g id="Node000008" class="node">
<title>Node8</title>
<g id="a_Node000008"><a xlink:href="class_simple_pie___i_r_i.html#a54c81d81a5bfe5d32e5a05637f65e279" target="_top" xlink:title=" ">
<polygon fill="white" stroke="#666666" points="101.12,-19.25 34.12,-19.25 34.12,0 101.12,0 101.12,-19.25"/>
<text text-anchor="middle" x="67.62" y="-5.75" font-family="Helvetica,sans-Serif" font-size="10.00">__construct</text>
</a>
</g>
</g>
<!-- Node7&#45;&gt;Node8 -->
<g id="edge8_Node000007_Node000008" class="edge">
<title>Node7&#45;&gt;Node8</title>
<g id="a_edge8_Node000007_Node000008"><a xlink:title=" ">
<path fill="none" stroke="#63b8ff" d="M213.19,-9.62C181.56,-9.62 133.28,-9.62 101.34,-9.62"/>
<polygon fill="#63b8ff" stroke="#63b8ff" points="212.91,-13.13 222.91,-9.63 212.91,-6.13 212.91,-13.13"/>
</a>
</g>
</g>
</g>
</svg>

<g id="navigator" transform="translate(0 0)" fill="#404254">
  <rect fill="#f2f5e9" fill-opacity="0.5" stroke="#606060" stroke-width=".5" x="0" y="0" width="60" height="60"/>
  <use id="zoomplus" xlink:href="#zoomPlus" x="17" y="9" onmousedown="handleZoom(evt,'in')"/>
  <use id="zoomminus" xlink:href="#zoomMin" x="42" y="9" onmousedown="handleZoom(evt,'out')"/>
  <use id="reset" xlink:href="#resetDef" x="30" y="36" onmousedown="handleReset()"/>
   <use id="arrowup" xlink:href="#arrowUp" x="0" y="0" onmousedown="handlePan(0,-1)"/>
  <use id="arrowright" xlink:href="#arrowRight" x="0" y="0" onmousedown="handlePan(1,0)"/>
  <use id="arrowdown" xlink:href="#arrowDown" x="0" y="0" onmousedown="handlePan(0,1)"/>
  <use id="arrowleft" xlink:href="#arrowLeft" x="0" y="0" onmousedown="handlePan(-1,0)"/>
</g>
<svg viewBox="0 0 15 15" width="100%" height="30px" preserveAspectRatio="xMaxYMin meet">
 <g id="arrow_out" transform="scale(0.3 0.3)">
  <a xlink:href="class_simple_pie___i_r_i_a879ab4e58b44a985a31c3a2e6c6f2173_icgraph_org.svg" target="_base">
   <rect id="button" ry="5" rx="5" y="6" x="6" height="38" width="38"
        fill="#f2f5e9" fill-opacity="0.5" stroke="#606060" stroke-width="1.0"/>
   <path id="arrow"
     d="M 11.500037,31.436501 C 11.940474,20.09759 22.043105,11.32322 32.158766,21.979434 L 37.068811,17.246167 C 37.068811,17.246167 37.088388,32 37.088388,32 L 22.160133,31.978069 C 22.160133,31.978069 26.997745,27.140456 26.997745,27.140456 C 18.528582,18.264221 13.291696,25.230495 11.500037,31.436501 z"
     style="fill:#404040;"/>
  </a>
 </g>
</svg>

<style type='text/css'>
<![CDATA[
[data-mouse-over-selected='false'] { opacity: 0.7; }
[data-mouse-over-selected='true']  { opacity: 1.0; }
]]>
</style>
<script type="application/ecmascript"><![CDATA[
document.addEventListener('DOMContentLoaded', (event) => {
  highlightEdges();
  highlightAdjacentNodes();
});
]]></script>
</svg>
