<?xml version="1.0" encoding="UTF-8" standalone="no"?>
<!DOCTYPE svg PUBLIC "-//W3C//DTD SVG 1.1//EN"
 "http://www.w3.org/Graphics/SVG/1.1/DTD/svg11.dtd">
<!-- Generated by graphviz version 10.0.1 (20240210.2158)
 -->
<!-- Title: get_authors Pages: 1 -->
<!--zoomable 186 -->

<svg id="main" version="1.1" xmlns="http://www.w3.org/2000/svg" xmlns:xlink="http://www.w3.org/1999/xlink" xml:space="preserve" onload="init(evt)">
<style type="text/css"><![CDATA[
.node, .edge {opacity: 0.7;}
.node.selected, .edge.selected {opacity: 1;}
.edge:hover path { stroke: red; }
.edge:hover polygon { stroke: red; fill: red; }
]]></style>

<defs>
  <circle id="rim" cx="0" cy="0" r="7"/>
  <circle id="rim2" cx="0" cy="0" r="3.5"/>
  <g id="zoomPlus">
    <use xlink:href="#rim" fill="#404040"><set attributeName="fill" to="#808080" begin="zoomplus.mouseover" end="zoomplus.mouseout"/></use>
    <path d="M-4,0h8M0,-4v8" fill="none" stroke="white" stroke-width="1.5" pointer-events="none"/>
  </g>
  <g id="zoomMin">
    <use xlink:href="#rim" fill="#404040"><set attributeName="fill" to="#808080" begin="zoomminus.mouseover" end="zoomminus.mouseout"/></use>
    <path d="M-4,0h8" fill="none" stroke="white" stroke-width="1.5" pointer-events="none"/>
  </g>
  <g id="arrowUp" transform="translate(30 24)">
    <use xlink:href="#rim"/>
    <path pointer-events="none" fill="none" stroke="white" stroke-width="1.5" d="M0,-3.0v7 M-2.5,-0.5L0,-3.0L2.5,-0.5"/>
  </g>
  <g id="arrowRight" transform="rotate(90) translate(36 -43)">
    <use xlink:href="#rim"/>
    <path pointer-events="none" fill="none" stroke="white" stroke-width="1.5" d="M0,-3.0v7 M-2.5,-0.5L0,-3.0L2.5,-0.5"/>
  </g>
  <g id="arrowDown" transform="rotate(180) translate(-30 -48)">
    <use xlink:href="#rim"/>
    <path pointer-events="none" fill="none" stroke="white" stroke-width="1.5" d="M0,-3.0v7 M-2.5,-0.5L0,-3.0L2.5,-0.5"/>
  </g>
  <g id="arrowLeft" transform="rotate(270) translate(-36 17)">
    <use xlink:href="#rim"/>
    <path pointer-events="none" fill="none" stroke="white" stroke-width="1.5" d="M0,-3.0v7 M-2.5,-0.5L0,-3.0L2.5,-0.5"/>
  </g>
  <g id="resetDef">
    <use xlink:href="#rim2" fill="#404040"><set attributeName="fill" to="#808080" begin="reset.mouseover" end="reset.mouseout"/></use>
  </g>
</defs>
<script type="application/ecmascript">
var viewWidth = 713;
var viewHeight = 186;
var sectionId = 'dynsection-19';
</script>
<script type="application/ecmascript" xlink:href="svg.min.js"/>
<svg id="graph" class="graph">
<g id="viewport">
<title>get_authors</title>
<!-- Node1 -->
<g id="Node000001" class="node">
<title>Node1</title>
<g id="a_Node000001"><a xlink:title=" ">
<polygon fill="#999999" stroke="#666666" points="67,-130.25 0,-130.25 0,-111 67,-111 67,-130.25"/>
<text text-anchor="middle" x="33.5" y="-116.75" font-family="Helvetica,sans-Serif" font-size="10.00">get_authors</text>
</a>
</g>
</g>
<!-- Node2 -->
<g id="Node000002" class="node">
<title>Node2</title>
<g id="a_Node000002"><a xlink:href="class_simple_pie.html#ad6c8c70d58e8ba62c9638b705f652640" target="_top" xlink:title=" ">
<polygon fill="white" stroke="#666666" points="158.75,-130.25 103,-130.25 103,-111 158.75,-111 158.75,-130.25"/>
<text text-anchor="middle" x="130.88" y="-116.75" font-family="Helvetica,sans-Serif" font-size="10.00">get_base</text>
</a>
</g>
</g>
<!-- Node1&#45;&gt;Node2 -->
<g id="edge1_Node000001_Node000002" class="edge">
<title>Node1&#45;&gt;Node2</title>
<g id="a_edge1_Node000001_Node000002"><a xlink:title=" ">
<path fill="none" stroke="#63b8ff" d="M67.32,-120.62C75.07,-120.62 83.4,-120.62 91.37,-120.62"/>
<polygon fill="#63b8ff" stroke="#63b8ff" points="91.18,-124.13 101.18,-120.63 91.18,-117.13 91.18,-124.13"/>
</a>
</g>
</g>
<!-- Node5 -->
<g id="Node000005" class="node">
<title>Node5</title>
<g id="a_Node000005"><a xlink:href="class_simple_pie.html#ab07598a4b6b7afcf049ea777f629bd3d" target="_top" xlink:title=" ">
<polygon fill="white" stroke="#666666" points="482.75,-138.25 390.25,-138.25 390.25,-119 482.75,-119 482.75,-138.25"/>
<text text-anchor="middle" x="436.5" y="-124.75" font-family="Helvetica,sans-Serif" font-size="10.00">get_channel_tags</text>
</a>
</g>
</g>
<!-- Node1&#45;&gt;Node5 -->
<g id="edge17_Node000001_Node000005" class="edge">
<title>Node1&#45;&gt;Node5</title>
<g id="a_edge17_Node000001_Node000005"><a xlink:title=" ">
<path fill="none" stroke="#63b8ff" d="M64.14,-130.73C76.07,-134.3 90.04,-137.86 103,-139.62 199.16,-152.71 312.34,-143.88 378.76,-136.27"/>
<polygon fill="#63b8ff" stroke="#63b8ff" points="378.78,-139.79 388.3,-135.14 377.96,-132.84 378.78,-139.79"/>
</a>
</g>
</g>
<!-- Node8 -->
<g id="Node000008" class="node">
<title>Node8</title>
<g id="a_Node000008"><a xlink:href="class_simple_pie.html#a5482cabe0e60f30caee78f368cb9bea9" target="_top" xlink:title=" ">
<polygon fill="white" stroke="#666666" points="461.38,-73.25 411.62,-73.25 411.62,-54 461.38,-54 461.38,-73.25"/>
<text text-anchor="middle" x="436.5" y="-59.75" font-family="Helvetica,sans-Serif" font-size="10.00">sanitize</text>
</a>
</g>
</g>
<!-- Node1&#45;&gt;Node8 -->
<g id="edge18_Node000001_Node000008" class="edge">
<title>Node1&#45;&gt;Node8</title>
<g id="a_edge18_Node000001_Node000008"><a xlink:title=" ">
<path fill="none" stroke="#63b8ff" d="M54.77,-110.67C104.89,-87.19 238.9,-31.32 354.25,-44.62 369.58,-46.39 386.22,-49.98 400.43,-53.57"/>
<polygon fill="#63b8ff" stroke="#63b8ff" points="399.2,-56.86 409.76,-56.02 400.98,-50.09 399.2,-56.86"/>
</a>
</g>
</g>
<!-- Node3 -->
<g id="Node000003" class="node">
<title>Node3</title>
<g id="a_Node000003"><a xlink:href="class_simple_pie.html#a8a5a22b07f4af937b8d1518fbd9f92ed" target="_top" xlink:title=" ">
<polygon fill="white" stroke="#666666" points="244.5,-111.25 194.75,-111.25 194.75,-92 244.5,-92 244.5,-111.25"/>
<text text-anchor="middle" x="219.62" y="-97.75" font-family="Helvetica,sans-Serif" font-size="10.00">get_link</text>
</a>
</g>
</g>
<!-- Node2&#45;&gt;Node3 -->
<g id="edge2_Node000002_Node000003" class="edge">
<title>Node2&#45;&gt;Node3</title>
<g id="a_edge2_Node000002_Node000003"><a xlink:title=" ">
<path fill="none" stroke="#63b8ff" d="M158.85,-114.72C166.56,-113.03 175.07,-111.16 183.21,-109.38"/>
<polygon fill="#63b8ff" stroke="#63b8ff" points="183.82,-112.83 192.84,-107.27 182.32,-105.99 183.82,-112.83"/>
</a>
</g>
</g>
<!-- Node7 -->
<g id="Node000007" class="node">
<title>Node7</title>
<g id="a_Node000007"><a xlink:href="class_simple_pie.html#ab5be4c3d74f109176ef57e753ebd4918" target="_top" xlink:title=" ">
<polygon fill="white" stroke="#666666" points="705.25,-149.25 651.75,-149.25 651.75,-130 705.25,-130 705.25,-149.25"/>
<text text-anchor="middle" x="678.5" y="-135.75" font-family="Helvetica,sans-Serif" font-size="10.00">get_type</text>
</a>
</g>
</g>
<!-- Node2&#45;&gt;Node7 -->
<g id="edge14_Node000002_Node000007" class="edge">
<title>Node2&#45;&gt;Node7</title>
<g id="a_edge14_Node000002_Node000007"><a xlink:title=" ">
<path fill="none" stroke="#63b8ff" d="M150.93,-130.68C183.76,-147.05 253.52,-177.62 316.38,-177.62 316.38,-177.62 316.38,-177.62 437.5,-177.62 510.03,-177.62 593.39,-160.49 640.32,-149.23"/>
<polygon fill="#63b8ff" stroke="#63b8ff" points="641.08,-152.64 649.96,-146.87 639.42,-145.84 641.08,-152.64"/>
</a>
</g>
</g>
<!-- Node11 -->
<g id="Node000011" class="node">
<title>Node11</title>
<g id="a_Node000011"><a xlink:href="class_simple_pie.html#a1b050737135acaff5113a6ae879286fb" target="_top" xlink:title=" ">
<polygon fill="white" stroke="#666666" points="354.25,-73.25 280.5,-73.25 280.5,-54 354.25,-54 354.25,-73.25"/>
<text text-anchor="middle" x="317.38" y="-59.75" font-family="Helvetica,sans-Serif" font-size="10.00">subscribe_url</text>
</a>
</g>
</g>
<!-- Node2&#45;&gt;Node11 -->
<g id="edge15_Node000002_Node000011" class="edge">
<title>Node2&#45;&gt;Node11</title>
<g id="a_edge15_Node000002_Node000011"><a xlink:title=" ">
<path fill="none" stroke="#63b8ff" d="M145.08,-110.54C157.29,-101.73 176.29,-89.35 194.75,-82.62 218.37,-74.02 245.96,-69.31 268.89,-66.74"/>
<polygon fill="#63b8ff" stroke="#63b8ff" points="268.97,-70.25 278.56,-65.76 268.26,-63.28 268.97,-70.25"/>
</a>
</g>
</g>
<!-- Node4 -->
<g id="Node000004" class="node">
<title>Node4</title>
<g id="a_Node000004"><a xlink:href="class_simple_pie.html#a6006d8b65a9ba1d164c18ccc1f5b847d" target="_top" xlink:title=" ">
<polygon fill="white" stroke="#666666" points="344.88,-125.25 289.88,-125.25 289.88,-106 344.88,-106 344.88,-125.25"/>
<text text-anchor="middle" x="317.38" y="-111.75" font-family="Helvetica,sans-Serif" font-size="10.00">get_links</text>
</a>
</g>
</g>
<!-- Node3&#45;&gt;Node4 -->
<g id="edge3_Node000003_Node000004" class="edge">
<title>Node3&#45;&gt;Node4</title>
<g id="a_edge3_Node000003_Node000004"><a xlink:title=" ">
<path fill="none" stroke="#63b8ff" d="M244.79,-105.16C254.9,-106.64 266.91,-108.39 278.17,-110.04"/>
<polygon fill="#63b8ff" stroke="#63b8ff" points="277.62,-113.5 288.02,-111.48 278.63,-106.57 277.62,-113.5"/>
</a>
</g>
</g>
<!-- Node4&#45;&gt;Node2 -->
<g id="edge4_Node000004_Node000002" class="edge">
<title>Node4&#45;&gt;Node2</title>
<g id="a_edge4_Node000004_Node000002"><a xlink:title=" ">
<path fill="none" stroke="#63b8ff" d="M289.43,-117.94C275.95,-118.99 259.38,-120.11 244.5,-120.62 219.93,-121.48 192.33,-121.49 170.6,-121.29"/>
<polygon fill="#63b8ff" stroke="#63b8ff" points="170.75,-117.79 160.71,-121.17 170.67,-124.79 170.75,-117.79"/>
</a>
</g>
</g>
<!-- Node4&#45;&gt;Node5 -->
<g id="edge5_Node000004_Node000005" class="edge">
<title>Node4&#45;&gt;Node5</title>
<g id="a_edge5_Node000004_Node000005"><a xlink:title=" ">
<path fill="none" stroke="#63b8ff" d="M345.25,-118.61C355.28,-119.72 367.08,-121.03 378.79,-122.33"/>
<polygon fill="#63b8ff" stroke="#63b8ff" points="378.1,-125.78 388.42,-123.4 378.87,-118.82 378.1,-125.78"/>
</a>
</g>
</g>
<!-- Node4&#45;&gt;Node8 -->
<g id="edge9_Node000004_Node000008" class="edge">
<title>Node4&#45;&gt;Node8</title>
<g id="a_edge9_Node000004_Node000008"><a xlink:title=" ">
<path fill="none" stroke="#63b8ff" d="M340.96,-105.6C358.46,-97.83 382.96,-86.95 402.63,-78.22"/>
<polygon fill="#63b8ff" stroke="#63b8ff" points="403.88,-81.49 411.6,-74.23 401.04,-75.09 403.88,-81.49"/>
</a>
</g>
</g>
<!-- Node6 -->
<g id="Node000006" class="node">
<title>Node6</title>
<g id="a_Node000006"><a xlink:href="class_simple_pie.html#a8089b17806a3d0cff0d5176c79f20c73" target="_top" xlink:title=" ">
<polygon fill="white" stroke="#666666" points="606,-111.25 528.5,-111.25 528.5,-92 606,-92 606,-111.25"/>
<text text-anchor="middle" x="567.25" y="-97.75" font-family="Helvetica,sans-Serif" font-size="10.00">get_feed_tags</text>
</a>
</g>
</g>
<!-- Node5&#45;&gt;Node6 -->
<g id="edge6_Node000005_Node000006" class="edge">
<title>Node5&#45;&gt;Node6</title>
<g id="a_edge6_Node000005_Node000006"><a xlink:title=" ">
<path fill="none" stroke="#63b8ff" d="M482.89,-119.11C493.97,-116.78 505.87,-114.29 517.11,-111.93"/>
<polygon fill="#63b8ff" stroke="#63b8ff" points="517.53,-115.42 526.6,-109.94 516.09,-108.57 517.53,-115.42"/>
</a>
</g>
</g>
<!-- Node5&#45;&gt;Node7 -->
<g id="edge8_Node000005_Node000007" class="edge">
<title>Node5&#45;&gt;Node7</title>
<g id="a_edge8_Node000005_Node000007"><a xlink:title=" ">
<path fill="none" stroke="#63b8ff" d="M483.21,-130.72C528.61,-132.8 597.4,-135.95 639.79,-137.9"/>
<polygon fill="#63b8ff" stroke="#63b8ff" points="639.6,-141.39 649.74,-138.35 639.92,-134.4 639.6,-141.39"/>
</a>
</g>
</g>
<!-- Node6&#45;&gt;Node7 -->
<g id="edge7_Node000006_Node000007" class="edge">
<title>Node6&#45;&gt;Node7</title>
<g id="a_edge7_Node000006_Node000007"><a xlink:title=" ">
<path fill="none" stroke="#63b8ff" d="M597.24,-111.71C610.51,-116.32 626.39,-121.85 640.5,-126.76"/>
<polygon fill="#63b8ff" stroke="#63b8ff" points="639.34,-130.06 649.94,-130.04 641.64,-123.45 639.34,-130.06"/>
</a>
</g>
</g>
<!-- Node8&#45;&gt;Node8 -->
<g id="edge13_Node000008_Node000008" class="edge">
<title>Node8&#45;&gt;Node8</title>
<g id="a_edge13_Node000008_Node000008"><a xlink:title=" ">
<path fill="none" stroke="#63b8ff" d="M417.85,-73.54C409.34,-82.15 415.56,-91.25 436.5,-91.25 447.95,-91.25 455,-88.53 457.64,-84.65"/>
<polygon fill="#63b8ff" stroke="#63b8ff" points="461.09,-84.01 455.48,-75.01 454.26,-85.54 461.09,-84.01"/>
</a>
</g>
</g>
<!-- Node9 -->
<g id="Node000009" class="node">
<title>Node9</title>
<g id="a_Node000009"><a xlink:href="class_simple_pie.html#a40cb575dd22d6e5c29213ffd8254566f" target="_top" xlink:title=" ">
<polygon fill="white" stroke="#666666" points="615.75,-19.25 518.75,-19.25 518.75,0 615.75,0 615.75,-19.25"/>
<text text-anchor="middle" x="567.25" y="-5.75" font-family="Helvetica,sans-Serif" font-size="10.00">enable_exceptions</text>
</a>
</g>
</g>
<!-- Node8&#45;&gt;Node9 -->
<g id="edge10_Node000008_Node000009" class="edge">
<title>Node8&#45;&gt;Node9</title>
<g id="a_edge10_Node000008_Node000009"><a xlink:title=" ">
<path fill="none" stroke="#63b8ff" d="M461.42,-53.59C481.29,-45.26 509.81,-33.3 532.09,-23.95"/>
<polygon fill="#63b8ff" stroke="#63b8ff" points="533.2,-27.28 541.07,-20.19 530.49,-20.83 533.2,-27.28"/>
</a>
</g>
</g>
<!-- Node10 -->
<g id="Node000010" class="node">
<title>Node10</title>
<g id="a_Node000010"><a xlink:href="class_simple_pie.html#a43b8d30b879d4f09ceb059b02af2bc02" target="_top" xlink:title=" ">
<polygon fill="white" stroke="#666666" points="585,-74.25 549.5,-74.25 549.5,-55 585,-55 585,-74.25"/>
<text text-anchor="middle" x="567.25" y="-60.75" font-family="Helvetica,sans-Serif" font-size="10.00">error</text>
</a>
</g>
</g>
<!-- Node8&#45;&gt;Node10 -->
<g id="edge12_Node000008_Node000010" class="edge">
<title>Node8&#45;&gt;Node10</title>
<g id="a_edge12_Node000008_Node000010"><a xlink:title=" ">
<path fill="none" stroke="#63b8ff" d="M461.72,-63.81C483.33,-63.98 514.99,-64.23 537.8,-64.4"/>
<polygon fill="#63b8ff" stroke="#63b8ff" points="537.59,-67.9 547.62,-64.48 537.65,-60.9 537.59,-67.9"/>
</a>
</g>
</g>
<!-- Node9&#45;&gt;Node9 -->
<g id="edge11_Node000009_Node000009" class="edge">
<title>Node9&#45;&gt;Node9</title>
<g id="a_edge11_Node000009_Node000009"><a xlink:title=" ">
<path fill="none" stroke="#63b8ff" d="M549.83,-19.54C541.89,-28.15 547.69,-37.25 567.25,-37.25 577.94,-37.25 584.53,-34.53 587,-30.65"/>
<polygon fill="#63b8ff" stroke="#63b8ff" points="590.45,-30.09 584.98,-21.02 583.6,-31.52 590.45,-30.09"/>
</a>
</g>
</g>
<!-- Node11&#45;&gt;Node8 -->
<g id="edge16_Node000011_Node000008" class="edge">
<title>Node11&#45;&gt;Node8</title>
<g id="a_edge16_Node000011_Node000008"><a xlink:title=" ">
<path fill="none" stroke="#63b8ff" d="M354.47,-63.62C368.86,-63.62 385.38,-63.62 399.74,-63.62"/>
<polygon fill="#63b8ff" stroke="#63b8ff" points="399.68,-67.13 409.68,-63.63 399.68,-60.13 399.68,-67.13"/>
</a>
</g>
</g>
</g>
</svg>

<g id="navigator" transform="translate(0 0)" fill="#404254">
  <rect fill="#f2f5e9" fill-opacity="0.5" stroke="#606060" stroke-width=".5" x="0" y="0" width="60" height="60"/>
  <use id="zoomplus" xlink:href="#zoomPlus" x="17" y="9" onmousedown="handleZoom(evt,'in')"/>
  <use id="zoomminus" xlink:href="#zoomMin" x="42" y="9" onmousedown="handleZoom(evt,'out')"/>
  <use id="reset" xlink:href="#resetDef" x="30" y="36" onmousedown="handleReset()"/>
   <use id="arrowup" xlink:href="#arrowUp" x="0" y="0" onmousedown="handlePan(0,-1)"/>
  <use id="arrowright" xlink:href="#arrowRight" x="0" y="0" onmousedown="handlePan(1,0)"/>
  <use id="arrowdown" xlink:href="#arrowDown" x="0" y="0" onmousedown="handlePan(0,1)"/>
  <use id="arrowleft" xlink:href="#arrowLeft" x="0" y="0" onmousedown="handlePan(-1,0)"/>
</g>
<svg viewBox="0 0 15 15" width="100%" height="30px" preserveAspectRatio="xMaxYMin meet">
 <g id="arrow_out" transform="scale(0.3 0.3)">
  <a xlink:href="class_simple_pie_a1e3e048b0e1e50f210bbf0813ac29069_cgraph_org.svg" target="_base">
   <rect id="button" ry="5" rx="5" y="6" x="6" height="38" width="38"
        fill="#f2f5e9" fill-opacity="0.5" stroke="#606060" stroke-width="1.0"/>
   <path id="arrow"
     d="M 11.500037,31.436501 C 11.940474,20.09759 22.043105,11.32322 32.158766,21.979434 L 37.068811,17.246167 C 37.068811,17.246167 37.088388,32 37.088388,32 L 22.160133,31.978069 C 22.160133,31.978069 26.997745,27.140456 26.997745,27.140456 C 18.528582,18.264221 13.291696,25.230495 11.500037,31.436501 z"
     style="fill:#404040;"/>
  </a>
 </g>
</svg>

<style type='text/css'>
<![CDATA[
[data-mouse-over-selected='false'] { opacity: 0.7; }
[data-mouse-over-selected='true']  { opacity: 1.0; }
]]>
</style>
<script type="application/ecmascript"><![CDATA[
document.addEventListener('DOMContentLoaded', (event) => {
  highlightEdges();
  highlightAdjacentNodes();
});
]]></script>
</svg>
