<?xml version="1.0" encoding="UTF-8" standalone="no"?>
<!DOCTYPE svg PUBLIC "-//W3C//DTD SVG 1.1//EN"
 "http://www.w3.org/Graphics/SVG/1.1/DTD/svg11.dtd">
<!-- Generated by graphviz version 10.0.1 (20240210.2158)
 -->
<!-- Title: DeprecatedTokenParser Pages: 1 -->
<svg width="123pt" height="294pt"
 viewBox="0.00 0.00 123.00 294.00" xmlns="http://www.w3.org/2000/svg" xmlns:xlink="http://www.w3.org/1999/xlink">

<svg id="main" version="1.1" xmlns="http://www.w3.org/2000/svg" xmlns:xlink="http://www.w3.org/1999/xlink" xml:space="preserve" onload="init(evt)">
<style type="text/css"><![CDATA[
.node, .edge {opacity: 0.7;}
.node.selected, .edge.selected {opacity: 1;}
.edge:hover path { stroke: red; }
.edge:hover polygon { stroke: red; fill: red; }
]]></style>
<script type="application/ecmascript" xlink:href="svg.min.js"/>
<svg id="graph" class="graph">
<g id="graph0" class="graph" transform="scale(1 1) rotate(0) translate(4 290)">
<title>DeprecatedTokenParser</title>
<!-- Node1 -->
<g id="Node000001" class="node">
<title>Node1</title>
<g id="a_Node000001"><a xlink:title=" ">
<polygon fill="#999999" stroke="none" points="115,-64 0,-64 0,0 115,0 115,-64"/>
<text text-anchor="start" x="5" y="-50.5" font-family="Helvetica,sans-Serif" font-size="10.00">DeprecatedTokenParser</text>
<text text-anchor="start" x="56" y="-35.5" font-family="Helvetica,sans-Serif" font-size="10.00"> </text>
<text text-anchor="start" x="6" y="-20.5" font-family="Helvetica,sans-Serif" font-size="10.00">+</text>
<text text-anchor="start" x="18" y="-20.5" font-family="Helvetica,sans-Serif" font-size="10.00">parse(Token $token)</text>
<text text-anchor="start" x="6" y="-5.5" font-family="Helvetica,sans-Serif" font-size="10.00">+</text>
<text text-anchor="start" x="18" y="-5.5" font-family="Helvetica,sans-Serif" font-size="10.00">getTag()</text>
<polygon fill="#666666" stroke="#666666" points="0,-47 0,-47 115,-47 115,-47 0,-47"/>
<polygon fill="#666666" stroke="#666666" points="0,-32 0,-32 115,-32 115,-32 0,-32"/>
<polygon fill="none" stroke="#666666" points="0,0 0,-64 115,-64 115,0 0,0"/>
</a>
</g>
</g>
<!-- Node2 -->
<g id="Node000002" class="node">
<title>Node2</title>
<g id="a_Node000002"><a xlink:href="class_twig_1_1_token_parser_1_1_abstract_token_parser.html" target="_top" xlink:title=" ">
<polygon fill="white" stroke="none" points="108,-160 7,-160 7,-100 108,-100 108,-160"/>
<text text-anchor="start" x="11.75" y="-146.5" font-family="Helvetica,sans-Serif" font-size="10.00">AbstractTokenParser</text>
<text text-anchor="start" x="12.88" y="-131.5" font-family="Helvetica,sans-Serif" font-size="10.00">#</text>
<text text-anchor="start" x="24" y="-131.5" font-family="Helvetica,sans-Serif" font-size="10.00">$parser</text>
<text text-anchor="start" x="12.5" y="-116.5" font-family="Helvetica,sans-Serif" font-size="10.00">+</text>
<text text-anchor="start" x="24" y="-116.5" font-family="Helvetica,sans-Serif" font-size="10.00">setParser(Parser </text>
<text text-anchor="start" x="24" y="-105.25" font-family="Helvetica,sans-Serif" font-size="10.00">$parser)</text>
<polygon fill="#666666" stroke="#666666" points="7,-143 7,-143 108,-143 108,-143 7,-143"/>
<polygon fill="#666666" stroke="#666666" points="7,-128 7,-128 22,-128 22,-128 7,-128"/>
<polygon fill="#666666" stroke="#666666" points="22,-128 22,-128 108,-128 108,-128 22,-128"/>
<polygon fill="none" stroke="#666666" points="7,-100 7,-160 108,-160 108,-100 7,-100"/>
</a>
</g>
</g>
<!-- Node2&#45;&gt;Node1 -->
<g id="edge1_Node000001_Node000002" class="edge">
<title>Node2&#45;&gt;Node1</title>
<g id="a_edge1_Node000001_Node000002"><a xlink:title=" ">
<path fill="none" stroke="#63b8ff" d="M57.5,-88.73C57.5,-80.39 57.5,-71.72 57.5,-63.79"/>
<polygon fill="none" stroke="#63b8ff" points="54,-88.68 57.5,-98.68 61,-88.68 54,-88.68"/>
</a>
</g>
</g>
<!-- Node3 -->
<g id="Node000003" class="node">
<title>Node3</title>
<g id="a_Node000003"><a xlink:href="interface_twig_1_1_token_parser_1_1_token_parser_interface.html" target="_top" xlink:title=" ">
<polygon fill="white" stroke="none" points="110.5,-286 4.5,-286 4.5,-196 110.5,-196 110.5,-286"/>
<text text-anchor="start" x="11" y="-272.5" font-family="Helvetica,sans-Serif" font-size="10.00">TokenParserInterface</text>
<text text-anchor="start" x="56" y="-257.5" font-family="Helvetica,sans-Serif" font-size="10.00"> </text>
<text text-anchor="start" x="8.5" y="-242.5" font-family="Helvetica,sans-Serif" font-size="10.00">+</text>
<text text-anchor="start" x="18.5" y="-242.5" font-family="Helvetica,sans-Serif" font-size="10.00">setParser(Parser </text>
<text text-anchor="start" x="18.5" y="-231.25" font-family="Helvetica,sans-Serif" font-size="10.00">$parser)</text>
<text text-anchor="start" x="8.5" y="-216.5" font-family="Helvetica,sans-Serif" font-size="10.00">+</text>
<text text-anchor="start" x="18.5" y="-216.5" font-family="Helvetica,sans-Serif" font-size="10.00">parse(Token $token)</text>
<text text-anchor="start" x="8.5" y="-201.5" font-family="Helvetica,sans-Serif" font-size="10.00">+</text>
<text text-anchor="start" x="18.5" y="-201.5" font-family="Helvetica,sans-Serif" font-size="10.00">getTag()</text>
<polygon fill="#666666" stroke="#666666" points="4.5,-269 4.5,-269 110.5,-269 110.5,-269 4.5,-269"/>
<polygon fill="#666666" stroke="#666666" points="4.5,-254 4.5,-254 110.5,-254 110.5,-254 4.5,-254"/>
<polygon fill="none" stroke="#666666" points="4.5,-196 4.5,-286 110.5,-286 110.5,-196 4.5,-196"/>
</a>
</g>
</g>
<!-- Node3&#45;&gt;Node2 -->
<g id="edge2_Node000002_Node000003" class="edge">
<title>Node3&#45;&gt;Node2</title>
<g id="a_edge2_Node000002_Node000003"><a xlink:title=" ">
<path fill="none" stroke="#63b8ff" d="M57.5,-184.89C57.5,-176.18 57.5,-167.48 57.5,-159.69"/>
<polygon fill="none" stroke="#63b8ff" points="54,-184.78 57.5,-194.78 61,-184.78 54,-184.78"/>
</a>
</g>
</g>
</g>
</svg>
</svg>

<style type='text/css'>
<![CDATA[
[data-mouse-over-selected='false'] { opacity: 0.7; }
[data-mouse-over-selected='true']  { opacity: 1.0; }
]]>
</style>
<script type="application/ecmascript"><![CDATA[
document.addEventListener('DOMContentLoaded', (event) => {
  highlightEdges();
  highlightAdjacentNodes();
});
]]></script>
</svg>
