<?xml version="1.0" encoding="UTF-8" standalone="no"?>
<!DOCTYPE svg PUBLIC "-//W3C//DTD SVG 1.1//EN"
 "http://www.w3.org/Graphics/SVG/1.1/DTD/svg11.dtd">
<!-- Generated by graphviz version 10.0.1 (20240210.2158)
 -->
<!-- Title: get_title Pages: 1 -->
<svg width="697pt" height="186pt"
 viewBox="0.00 0.00 696.75 185.62" xmlns="http://www.w3.org/2000/svg" xmlns:xlink="http://www.w3.org/1999/xlink">
<g id="graph0" class="graph" transform="scale(1 1) rotate(0) translate(4 181.62)">
<title>get_title</title>
<!-- Node1 -->
<g id="Node000001" class="node">
<title>Node1</title>
<g id="a_Node000001"><a xlink:title=" ">
<polygon fill="#999999" stroke="#666666" points="50.5,-130.25 0,-130.25 0,-111 50.5,-111 50.5,-130.25"/>
<text text-anchor="middle" x="25.25" y="-116.75" font-family="Helvetica,sans-Serif" font-size="10.00">get_title</text>
</a>
</g>
</g>
<!-- Node2 -->
<g id="Node000002" class="node">
<title>Node2</title>
<g id="a_Node000002"><a xlink:href="class_simple_pie.html#ad6c8c70d58e8ba62c9638b705f652640" target="_top" xlink:title=" ">
<polygon fill="white" stroke="#666666" points="142.25,-130.25 86.5,-130.25 86.5,-111 142.25,-111 142.25,-130.25"/>
<text text-anchor="middle" x="114.38" y="-116.75" font-family="Helvetica,sans-Serif" font-size="10.00">get_base</text>
</a>
</g>
</g>
<!-- Node1&#45;&gt;Node2 -->
<g id="edge1_Node000001_Node000002" class="edge">
<title>Node1&#45;&gt;Node2</title>
<g id="a_edge1_Node000001_Node000002"><a xlink:title=" ">
<path fill="none" stroke="#63b8ff" d="M50.98,-120.62C58.35,-120.62 66.61,-120.62 74.65,-120.62"/>
<polygon fill="#63b8ff" stroke="#63b8ff" points="74.62,-124.13 84.62,-120.63 74.62,-117.13 74.62,-124.13"/>
</a>
</g>
</g>
<!-- Node5 -->
<g id="Node000005" class="node">
<title>Node5</title>
<g id="a_Node000005"><a xlink:href="class_simple_pie.html#ab07598a4b6b7afcf049ea777f629bd3d" target="_top" xlink:title=" ">
<polygon fill="white" stroke="#666666" points="466.25,-138.25 373.75,-138.25 373.75,-119 466.25,-119 466.25,-138.25"/>
<text text-anchor="middle" x="420" y="-124.75" font-family="Helvetica,sans-Serif" font-size="10.00">get_channel_tags</text>
</a>
</g>
</g>
<!-- Node1&#45;&gt;Node5 -->
<g id="edge17_Node000001_Node000005" class="edge">
<title>Node1&#45;&gt;Node5</title>
<g id="a_edge17_Node000001_Node000005"><a xlink:title=" ">
<path fill="none" stroke="#63b8ff" d="M50.76,-130.22C61.54,-133.95 74.47,-137.77 86.5,-139.62 116.21,-144.2 161.76,-143.37 337.75,-134.62 345.62,-134.23 353.92,-133.73 362.08,-133.18"/>
<polygon fill="#63b8ff" stroke="#63b8ff" points="362.23,-136.68 371.96,-132.48 361.74,-129.69 362.23,-136.68"/>
</a>
</g>
</g>
<!-- Node8 -->
<g id="Node000008" class="node">
<title>Node8</title>
<g id="a_Node000008"><a xlink:href="class_simple_pie.html#a5482cabe0e60f30caee78f368cb9bea9" target="_top" xlink:title=" ">
<polygon fill="white" stroke="#666666" points="444.88,-73.25 395.12,-73.25 395.12,-54 444.88,-54 444.88,-73.25"/>
<text text-anchor="middle" x="420" y="-59.75" font-family="Helvetica,sans-Serif" font-size="10.00">sanitize</text>
</a>
</g>
</g>
<!-- Node1&#45;&gt;Node8 -->
<g id="edge18_Node000001_Node000008" class="edge">
<title>Node1&#45;&gt;Node8</title>
<g id="a_edge18_Node000001_Node000008"><a xlink:title=" ">
<path fill="none" stroke="#63b8ff" d="M48.24,-110.56C89.47,-92.39 181.67,-55.02 264,-44.62 296.52,-40.52 305.19,-40.87 337.75,-44.62 353.08,-46.39 369.72,-49.98 383.93,-53.57"/>
<polygon fill="#63b8ff" stroke="#63b8ff" points="382.7,-56.86 393.26,-56.02 384.48,-50.09 382.7,-56.86"/>
</a>
</g>
</g>
<!-- Node3 -->
<g id="Node000003" class="node">
<title>Node3</title>
<g id="a_Node000003"><a xlink:href="class_simple_pie.html#a8a5a22b07f4af937b8d1518fbd9f92ed" target="_top" xlink:title=" ">
<polygon fill="white" stroke="#666666" points="228,-111.25 178.25,-111.25 178.25,-92 228,-92 228,-111.25"/>
<text text-anchor="middle" x="203.12" y="-97.75" font-family="Helvetica,sans-Serif" font-size="10.00">get_link</text>
</a>
</g>
</g>
<!-- Node2&#45;&gt;Node3 -->
<g id="edge2_Node000002_Node000003" class="edge">
<title>Node2&#45;&gt;Node3</title>
<g id="a_edge2_Node000002_Node000003"><a xlink:title=" ">
<path fill="none" stroke="#63b8ff" d="M142.35,-114.72C150.06,-113.03 158.57,-111.16 166.71,-109.38"/>
<polygon fill="#63b8ff" stroke="#63b8ff" points="167.32,-112.83 176.34,-107.27 165.82,-105.99 167.32,-112.83"/>
</a>
</g>
</g>
<!-- Node7 -->
<g id="Node000007" class="node">
<title>Node7</title>
<g id="a_Node000007"><a xlink:href="class_simple_pie.html#ab5be4c3d74f109176ef57e753ebd4918" target="_top" xlink:title=" ">
<polygon fill="white" stroke="#666666" points="688.75,-149.25 635.25,-149.25 635.25,-130 688.75,-130 688.75,-149.25"/>
<text text-anchor="middle" x="662" y="-135.75" font-family="Helvetica,sans-Serif" font-size="10.00">get_type</text>
</a>
</g>
</g>
<!-- Node2&#45;&gt;Node7 -->
<g id="edge14_Node000002_Node000007" class="edge">
<title>Node2&#45;&gt;Node7</title>
<g id="a_edge14_Node000002_Node000007"><a xlink:title=" ">
<path fill="none" stroke="#63b8ff" d="M134.43,-130.68C167.26,-147.05 237.02,-177.62 299.88,-177.62 299.88,-177.62 299.88,-177.62 421,-177.62 493.53,-177.62 576.89,-160.49 623.82,-149.23"/>
<polygon fill="#63b8ff" stroke="#63b8ff" points="624.58,-152.64 633.46,-146.87 622.92,-145.84 624.58,-152.64"/>
</a>
</g>
</g>
<!-- Node11 -->
<g id="Node000011" class="node">
<title>Node11</title>
<g id="a_Node000011"><a xlink:href="class_simple_pie.html#a1b050737135acaff5113a6ae879286fb" target="_top" xlink:title=" ">
<polygon fill="white" stroke="#666666" points="337.75,-73.25 264,-73.25 264,-54 337.75,-54 337.75,-73.25"/>
<text text-anchor="middle" x="300.88" y="-59.75" font-family="Helvetica,sans-Serif" font-size="10.00">subscribe_url</text>
</a>
</g>
</g>
<!-- Node2&#45;&gt;Node11 -->
<g id="edge15_Node000002_Node000011" class="edge">
<title>Node2&#45;&gt;Node11</title>
<g id="a_edge15_Node000002_Node000011"><a xlink:title=" ">
<path fill="none" stroke="#63b8ff" d="M128.58,-110.54C140.79,-101.73 159.79,-89.35 178.25,-82.62 201.87,-74.02 229.46,-69.31 252.39,-66.74"/>
<polygon fill="#63b8ff" stroke="#63b8ff" points="252.47,-70.25 262.06,-65.76 251.76,-63.28 252.47,-70.25"/>
</a>
</g>
</g>
<!-- Node4 -->
<g id="Node000004" class="node">
<title>Node4</title>
<g id="a_Node000004"><a xlink:href="class_simple_pie.html#a6006d8b65a9ba1d164c18ccc1f5b847d" target="_top" xlink:title=" ">
<polygon fill="white" stroke="#666666" points="328.38,-125.25 273.38,-125.25 273.38,-106 328.38,-106 328.38,-125.25"/>
<text text-anchor="middle" x="300.88" y="-111.75" font-family="Helvetica,sans-Serif" font-size="10.00">get_links</text>
</a>
</g>
</g>
<!-- Node3&#45;&gt;Node4 -->
<g id="edge3_Node000003_Node000004" class="edge">
<title>Node3&#45;&gt;Node4</title>
<g id="a_edge3_Node000003_Node000004"><a xlink:title=" ">
<path fill="none" stroke="#63b8ff" d="M228.29,-105.16C238.4,-106.64 250.41,-108.39 261.67,-110.04"/>
<polygon fill="#63b8ff" stroke="#63b8ff" points="261.12,-113.5 271.52,-111.48 262.13,-106.57 261.12,-113.5"/>
</a>
</g>
</g>
<!-- Node4&#45;&gt;Node2 -->
<g id="edge4_Node000004_Node000002" class="edge">
<title>Node4&#45;&gt;Node2</title>
<g id="a_edge4_Node000004_Node000002"><a xlink:title=" ">
<path fill="none" stroke="#63b8ff" d="M272.93,-117.94C259.45,-118.99 242.88,-120.11 228,-120.62 203.43,-121.48 175.83,-121.49 154.1,-121.29"/>
<polygon fill="#63b8ff" stroke="#63b8ff" points="154.25,-117.79 144.21,-121.17 154.17,-124.79 154.25,-117.79"/>
</a>
</g>
</g>
<!-- Node4&#45;&gt;Node5 -->
<g id="edge5_Node000004_Node000005" class="edge">
<title>Node4&#45;&gt;Node5</title>
<g id="a_edge5_Node000004_Node000005"><a xlink:title=" ">
<path fill="none" stroke="#63b8ff" d="M328.75,-118.61C338.78,-119.72 350.58,-121.03 362.29,-122.33"/>
<polygon fill="#63b8ff" stroke="#63b8ff" points="361.6,-125.78 371.92,-123.4 362.37,-118.82 361.6,-125.78"/>
</a>
</g>
</g>
<!-- Node4&#45;&gt;Node8 -->
<g id="edge9_Node000004_Node000008" class="edge">
<title>Node4&#45;&gt;Node8</title>
<g id="a_edge9_Node000004_Node000008"><a xlink:title=" ">
<path fill="none" stroke="#63b8ff" d="M324.46,-105.6C341.96,-97.83 366.46,-86.95 386.13,-78.22"/>
<polygon fill="#63b8ff" stroke="#63b8ff" points="387.38,-81.49 395.1,-74.23 384.54,-75.09 387.38,-81.49"/>
</a>
</g>
</g>
<!-- Node6 -->
<g id="Node000006" class="node">
<title>Node6</title>
<g id="a_Node000006"><a xlink:href="class_simple_pie.html#a8089b17806a3d0cff0d5176c79f20c73" target="_top" xlink:title=" ">
<polygon fill="white" stroke="#666666" points="589.5,-111.25 512,-111.25 512,-92 589.5,-92 589.5,-111.25"/>
<text text-anchor="middle" x="550.75" y="-97.75" font-family="Helvetica,sans-Serif" font-size="10.00">get_feed_tags</text>
</a>
</g>
</g>
<!-- Node5&#45;&gt;Node6 -->
<g id="edge6_Node000005_Node000006" class="edge">
<title>Node5&#45;&gt;Node6</title>
<g id="a_edge6_Node000005_Node000006"><a xlink:title=" ">
<path fill="none" stroke="#63b8ff" d="M466.39,-119.11C477.47,-116.78 489.37,-114.29 500.61,-111.93"/>
<polygon fill="#63b8ff" stroke="#63b8ff" points="501.03,-115.42 510.1,-109.94 499.59,-108.57 501.03,-115.42"/>
</a>
</g>
</g>
<!-- Node5&#45;&gt;Node7 -->
<g id="edge8_Node000005_Node000007" class="edge">
<title>Node5&#45;&gt;Node7</title>
<g id="a_edge8_Node000005_Node000007"><a xlink:title=" ">
<path fill="none" stroke="#63b8ff" d="M466.71,-130.72C512.11,-132.8 580.9,-135.95 623.29,-137.9"/>
<polygon fill="#63b8ff" stroke="#63b8ff" points="623.1,-141.39 633.24,-138.35 623.42,-134.4 623.1,-141.39"/>
</a>
</g>
</g>
<!-- Node6&#45;&gt;Node7 -->
<g id="edge7_Node000006_Node000007" class="edge">
<title>Node6&#45;&gt;Node7</title>
<g id="a_edge7_Node000006_Node000007"><a xlink:title=" ">
<path fill="none" stroke="#63b8ff" d="M580.74,-111.71C594.01,-116.32 609.89,-121.85 624,-126.76"/>
<polygon fill="#63b8ff" stroke="#63b8ff" points="622.84,-130.06 633.44,-130.04 625.14,-123.45 622.84,-130.06"/>
</a>
</g>
</g>
<!-- Node8&#45;&gt;Node8 -->
<g id="edge13_Node000008_Node000008" class="edge">
<title>Node8&#45;&gt;Node8</title>
<g id="a_edge13_Node000008_Node000008"><a xlink:title=" ">
<path fill="none" stroke="#63b8ff" d="M401.35,-73.54C392.84,-82.15 399.06,-91.25 420,-91.25 431.45,-91.25 438.5,-88.53 441.14,-84.65"/>
<polygon fill="#63b8ff" stroke="#63b8ff" points="444.59,-84.01 438.98,-75.01 437.76,-85.54 444.59,-84.01"/>
</a>
</g>
</g>
<!-- Node9 -->
<g id="Node000009" class="node">
<title>Node9</title>
<g id="a_Node000009"><a xlink:href="class_simple_pie.html#a40cb575dd22d6e5c29213ffd8254566f" target="_top" xlink:title=" ">
<polygon fill="white" stroke="#666666" points="599.25,-19.25 502.25,-19.25 502.25,0 599.25,0 599.25,-19.25"/>
<text text-anchor="middle" x="550.75" y="-5.75" font-family="Helvetica,sans-Serif" font-size="10.00">enable_exceptions</text>
</a>
</g>
</g>
<!-- Node8&#45;&gt;Node9 -->
<g id="edge10_Node000008_Node000009" class="edge">
<title>Node8&#45;&gt;Node9</title>
<g id="a_edge10_Node000008_Node000009"><a xlink:title=" ">
<path fill="none" stroke="#63b8ff" d="M444.92,-53.59C464.79,-45.26 493.31,-33.3 515.59,-23.95"/>
<polygon fill="#63b8ff" stroke="#63b8ff" points="516.7,-27.28 524.57,-20.19 513.99,-20.83 516.7,-27.28"/>
</a>
</g>
</g>
<!-- Node10 -->
<g id="Node000010" class="node">
<title>Node10</title>
<g id="a_Node000010"><a xlink:href="class_simple_pie.html#a43b8d30b879d4f09ceb059b02af2bc02" target="_top" xlink:title=" ">
<polygon fill="white" stroke="#666666" points="568.5,-74.25 533,-74.25 533,-55 568.5,-55 568.5,-74.25"/>
<text text-anchor="middle" x="550.75" y="-60.75" font-family="Helvetica,sans-Serif" font-size="10.00">error</text>
</a>
</g>
</g>
<!-- Node8&#45;&gt;Node10 -->
<g id="edge12_Node000008_Node000010" class="edge">
<title>Node8&#45;&gt;Node10</title>
<g id="a_edge12_Node000008_Node000010"><a xlink:title=" ">
<path fill="none" stroke="#63b8ff" d="M445.22,-63.81C466.83,-63.98 498.49,-64.23 521.3,-64.4"/>
<polygon fill="#63b8ff" stroke="#63b8ff" points="521.09,-67.9 531.12,-64.48 521.15,-60.9 521.09,-67.9"/>
</a>
</g>
</g>
<!-- Node9&#45;&gt;Node9 -->
<g id="edge11_Node000009_Node000009" class="edge">
<title>Node9&#45;&gt;Node9</title>
<g id="a_edge11_Node000009_Node000009"><a xlink:title=" ">
<path fill="none" stroke="#63b8ff" d="M533.33,-19.54C525.39,-28.15 531.19,-37.25 550.75,-37.25 561.44,-37.25 568.03,-34.53 570.5,-30.65"/>
<polygon fill="#63b8ff" stroke="#63b8ff" points="573.95,-30.09 568.48,-21.02 567.1,-31.52 573.95,-30.09"/>
</a>
</g>
</g>
<!-- Node11&#45;&gt;Node8 -->
<g id="edge16_Node000011_Node000008" class="edge">
<title>Node11&#45;&gt;Node8</title>
<g id="a_edge16_Node000011_Node000008"><a xlink:title=" ">
<path fill="none" stroke="#63b8ff" d="M337.97,-63.62C352.36,-63.62 368.88,-63.62 383.24,-63.62"/>
<polygon fill="#63b8ff" stroke="#63b8ff" points="383.18,-67.13 393.18,-63.63 383.18,-60.13 383.18,-67.13"/>
</a>
</g>
</g>
</g>
</svg>
