<?xml version="1.0" encoding="UTF-8" standalone="no"?>
<!DOCTYPE svg PUBLIC "-//W3C//DTD SVG 1.1//EN"
 "http://www.w3.org/Graphics/SVG/1.1/DTD/svg11.dtd">
<!-- Generated by graphviz version 10.0.1 (20240210.2158)
 -->
<!-- Title: ExcludeMimeType Pages: 1 -->
<svg width="427pt" height="1272pt"
 viewBox="0.00 0.00 426.50 1271.50" xmlns="http://www.w3.org/2000/svg" xmlns:xlink="http://www.w3.org/1999/xlink">
<g id="graph0" class="graph" transform="scale(1 1) rotate(0) translate(4 1267.5)">
<title>ExcludeMimeType</title>
<!-- Node1 -->
<g id="Node000001" class="node">
<title>Node1</title>
<g id="a_Node000001"><a xlink:title=" ">
<polygon fill="#999999" stroke="none" points="331.5,-60 223.5,-60 223.5,0 331.5,0 331.5,-60"/>
<text text-anchor="start" x="237.38" y="-46.5" font-family="Helvetica,sans-Serif" font-size="10.00">ExcludeMimeType</text>
<text text-anchor="start" x="227.88" y="-31.5" font-family="Helvetica,sans-Serif" font-size="10.00">#</text>
<text text-anchor="start" x="237.5" y="-31.5" font-family="Helvetica,sans-Serif" font-size="10.00">$messageTemplates</text>
<text text-anchor="start" x="227.5" y="-16.5" font-family="Helvetica,sans-Serif" font-size="10.00">+</text>
<text text-anchor="start" x="237.5" y="-16.5" font-family="Helvetica,sans-Serif" font-size="10.00">isValid($value, $file</text>
<text text-anchor="start" x="237.5" y="-5.25" font-family="Helvetica,sans-Serif" font-size="10.00">=null)</text>
<polygon fill="#666666" stroke="#666666" points="223.5,-43 223.5,-43 331.5,-43 331.5,-43 223.5,-43"/>
<polygon fill="#666666" stroke="#666666" points="223.5,-28 223.5,-28 235.5,-28 235.5,-28 223.5,-28"/>
<polygon fill="#666666" stroke="#666666" points="235.5,-28 235.5,-28 331.5,-28 331.5,-28 235.5,-28"/>
<polygon fill="none" stroke="#666666" points="223.5,0 223.5,-60 331.5,-60 331.5,0 223.5,0"/>
</a>
</g>
</g>
<!-- Node2 -->
<g id="Node000002" class="node">
<title>Node2</title>
<g id="a_Node000002"><a xlink:href="class_laminas_1_1_validator_1_1_file_1_1_mime_type.html" target="_top" xlink:title=" ">
<polygon fill="white" stroke="none" points="292.5,-426 160.5,-426 160.5,-97 292.5,-97 292.5,-426"/>
<text text-anchor="start" x="204" y="-412.5" font-family="Helvetica,sans-Serif" font-size="10.00">MimeType</text>
<text text-anchor="start" x="164.88" y="-397.5" font-family="Helvetica,sans-Serif" font-size="10.00">#</text>
<text text-anchor="start" x="174.5" y="-397.5" font-family="Helvetica,sans-Serif" font-size="10.00">$messageTemplates</text>
<text text-anchor="start" x="164.88" y="-382.5" font-family="Helvetica,sans-Serif" font-size="10.00">#</text>
<text text-anchor="start" x="174.5" y="-382.5" font-family="Helvetica,sans-Serif" font-size="10.00">$messageVariables</text>
<text text-anchor="start" x="164.88" y="-367.5" font-family="Helvetica,sans-Serif" font-size="10.00">#</text>
<text text-anchor="start" x="174.5" y="-367.5" font-family="Helvetica,sans-Serif" font-size="10.00">$type</text>
<text text-anchor="start" x="164.88" y="-352.5" font-family="Helvetica,sans-Serif" font-size="10.00">#</text>
<text text-anchor="start" x="174.5" y="-352.5" font-family="Helvetica,sans-Serif" font-size="10.00">$finfo</text>
<text text-anchor="start" x="164.88" y="-337.5" font-family="Helvetica,sans-Serif" font-size="10.00">#</text>
<text text-anchor="start" x="174.5" y="-337.5" font-family="Helvetica,sans-Serif" font-size="10.00">$magicFiles</text>
<text text-anchor="start" x="164.88" y="-322.5" font-family="Helvetica,sans-Serif" font-size="10.00">#</text>
<text text-anchor="start" x="174.5" y="-322.5" font-family="Helvetica,sans-Serif" font-size="10.00">$options</text>
<text text-anchor="start" x="164.5" y="-307.5" font-family="Helvetica,sans-Serif" font-size="10.00">+</text>
<text text-anchor="start" x="174.5" y="-307.5" font-family="Helvetica,sans-Serif" font-size="10.00">__construct($options</text>
<text text-anchor="start" x="174.5" y="-296.25" font-family="Helvetica,sans-Serif" font-size="10.00">=null)</text>
<text text-anchor="start" x="164.5" y="-281.5" font-family="Helvetica,sans-Serif" font-size="10.00">+</text>
<text text-anchor="start" x="174.5" y="-281.5" font-family="Helvetica,sans-Serif" font-size="10.00">getMagicFile()</text>
<text text-anchor="start" x="164.5" y="-266.5" font-family="Helvetica,sans-Serif" font-size="10.00">+</text>
<text text-anchor="start" x="174.5" y="-266.5" font-family="Helvetica,sans-Serif" font-size="10.00">setMagicFile($file)</text>
<text text-anchor="start" x="164.5" y="-251.5" font-family="Helvetica,sans-Serif" font-size="10.00">+</text>
<text text-anchor="start" x="174.5" y="-251.5" font-family="Helvetica,sans-Serif" font-size="10.00">disableMagicFile(</text>
<text text-anchor="start" x="174.5" y="-240.25" font-family="Helvetica,sans-Serif" font-size="10.00">$disable)</text>
<text text-anchor="start" x="164.5" y="-225.5" font-family="Helvetica,sans-Serif" font-size="10.00">+</text>
<text text-anchor="start" x="174.5" y="-225.5" font-family="Helvetica,sans-Serif" font-size="10.00">isMagicFileDisabled()</text>
<text text-anchor="start" x="164.5" y="-210.5" font-family="Helvetica,sans-Serif" font-size="10.00">+</text>
<text text-anchor="start" x="174.5" y="-210.5" font-family="Helvetica,sans-Serif" font-size="10.00">getHeaderCheck()</text>
<text text-anchor="start" x="164.5" y="-195.5" font-family="Helvetica,sans-Serif" font-size="10.00">+</text>
<text text-anchor="start" x="174.5" y="-195.5" font-family="Helvetica,sans-Serif" font-size="10.00">enableHeaderCheck</text>
<text text-anchor="start" x="174.5" y="-184.25" font-family="Helvetica,sans-Serif" font-size="10.00">($headerCheck=true)</text>
<text text-anchor="start" x="164.5" y="-169.5" font-family="Helvetica,sans-Serif" font-size="10.00">+</text>
<text text-anchor="start" x="174.5" y="-169.5" font-family="Helvetica,sans-Serif" font-size="10.00">getMimeType($asArray</text>
<text text-anchor="start" x="174.5" y="-158.25" font-family="Helvetica,sans-Serif" font-size="10.00">=false)</text>
<text text-anchor="start" x="164.5" y="-143.5" font-family="Helvetica,sans-Serif" font-size="10.00">+</text>
<text text-anchor="start" x="174.5" y="-143.5" font-family="Helvetica,sans-Serif" font-size="10.00">setMimeType($mimetype)</text>
<text text-anchor="start" x="164.5" y="-128.5" font-family="Helvetica,sans-Serif" font-size="10.00">+</text>
<text text-anchor="start" x="174.5" y="-128.5" font-family="Helvetica,sans-Serif" font-size="10.00">addMimeType($mimetype)</text>
<text text-anchor="start" x="164.5" y="-113.5" font-family="Helvetica,sans-Serif" font-size="10.00">+</text>
<text text-anchor="start" x="174.5" y="-113.5" font-family="Helvetica,sans-Serif" font-size="10.00">isValid($value, $file</text>
<text text-anchor="start" x="174.5" y="-102.25" font-family="Helvetica,sans-Serif" font-size="10.00">=null)</text>
<polygon fill="#666666" stroke="#666666" points="160.5,-409 160.5,-409 292.5,-409 292.5,-409 160.5,-409"/>
<polygon fill="#666666" stroke="#666666" points="160.5,-319 160.5,-319 172.5,-319 172.5,-319 160.5,-319"/>
<polygon fill="#666666" stroke="#666666" points="172.5,-319 172.5,-319 292.5,-319 292.5,-319 172.5,-319"/>
<polygon fill="none" stroke="#666666" points="160.5,-97 160.5,-426 292.5,-426 292.5,-97 160.5,-97"/>
</a>
</g>
</g>
<!-- Node2&#45;&gt;Node1 -->
<g id="edge1_Node000001_Node000002" class="edge">
<title>Node2&#45;&gt;Node1</title>
<g id="a_edge1_Node000001_Node000002"><a xlink:title=" ">
<path fill="none" stroke="#63b8ff" d="M265.3,-85.91C267.44,-76.29 269.4,-67.45 271.1,-59.8"/>
<polygon fill="none" stroke="#63b8ff" points="261.9,-85.07 263.15,-95.6 268.73,-86.59 261.9,-85.07"/>
</a>
</g>
</g>
<!-- Node3 -->
<g id="Node000003" class="node">
<title>Node3</title>
<g id="a_Node000003"><a xlink:href="class_laminas_1_1_validator_1_1_abstract_validator.html" target="_top" xlink:title=" ">
<polygon fill="white" stroke="none" points="280,-1010.75 107,-1010.75 107,-495.75 280,-495.75 280,-1010.75"/>
<text text-anchor="start" x="156.38" y="-997.25" font-family="Helvetica,sans-Serif" font-size="10.00">AbstractValidator</text>
<text text-anchor="start" x="111.38" y="-982.25" font-family="Helvetica,sans-Serif" font-size="10.00">#</text>
<text text-anchor="start" x="121" y="-982.25" font-family="Helvetica,sans-Serif" font-size="10.00">$value</text>
<text text-anchor="start" x="111.38" y="-967.25" font-family="Helvetica,sans-Serif" font-size="10.00">#</text>
<text text-anchor="start" x="121" y="-967.25" font-family="Helvetica,sans-Serif" font-size="10.00">$abstractOptions</text>
<text text-anchor="start" x="111" y="-952.25" font-family="Helvetica,sans-Serif" font-size="10.00">+</text>
<text text-anchor="start" x="121" y="-952.25" font-family="Helvetica,sans-Serif" font-size="10.00">__construct($options</text>
<text text-anchor="start" x="121" y="-941" font-family="Helvetica,sans-Serif" font-size="10.00">=null)</text>
<text text-anchor="start" x="111" y="-926.25" font-family="Helvetica,sans-Serif" font-size="10.00">+</text>
<text text-anchor="start" x="121" y="-926.25" font-family="Helvetica,sans-Serif" font-size="10.00">getOption($option)</text>
<text text-anchor="start" x="111" y="-911.25" font-family="Helvetica,sans-Serif" font-size="10.00">+</text>
<text text-anchor="start" x="121" y="-911.25" font-family="Helvetica,sans-Serif" font-size="10.00">getOptions()</text>
<text text-anchor="start" x="111" y="-896.25" font-family="Helvetica,sans-Serif" font-size="10.00">+</text>
<text text-anchor="start" x="121" y="-896.25" font-family="Helvetica,sans-Serif" font-size="10.00">setOptions($options=[])</text>
<text text-anchor="start" x="111" y="-881.25" font-family="Helvetica,sans-Serif" font-size="10.00">+</text>
<text text-anchor="start" x="121" y="-881.25" font-family="Helvetica,sans-Serif" font-size="10.00">getMessages()</text>
<text text-anchor="start" x="111" y="-866.25" font-family="Helvetica,sans-Serif" font-size="10.00">+</text>
<text text-anchor="start" x="121" y="-866.25" font-family="Helvetica,sans-Serif" font-size="10.00">__invoke($value)</text>
<text text-anchor="start" x="111" y="-851.25" font-family="Helvetica,sans-Serif" font-size="10.00">+</text>
<text text-anchor="start" x="121" y="-851.25" font-family="Helvetica,sans-Serif" font-size="10.00">getMessageVariables()</text>
<text text-anchor="start" x="111" y="-836.25" font-family="Helvetica,sans-Serif" font-size="10.00">+</text>
<text text-anchor="start" x="121" y="-836.25" font-family="Helvetica,sans-Serif" font-size="10.00">getMessageTemplates()</text>
<text text-anchor="start" x="111" y="-821.25" font-family="Helvetica,sans-Serif" font-size="10.00">+</text>
<text text-anchor="start" x="121" y="-821.25" font-family="Helvetica,sans-Serif" font-size="10.00">setMessage($messageString,</text>
<text text-anchor="start" x="121" y="-810" font-family="Helvetica,sans-Serif" font-size="10.00"> $messageKey=null)</text>
<text text-anchor="start" x="111" y="-795.25" font-family="Helvetica,sans-Serif" font-size="10.00">+</text>
<text text-anchor="start" x="121" y="-795.25" font-family="Helvetica,sans-Serif" font-size="10.00">setMessages(array</text>
<text text-anchor="start" x="121" y="-784" font-family="Helvetica,sans-Serif" font-size="10.00"> $messages)</text>
<text text-anchor="start" x="121" y="-769.25" font-family="Helvetica,sans-Serif" font-size="10.00">et 10 de plus...</text>
<text text-anchor="start" x="111" y="-754.25" font-family="Helvetica,sans-Serif" font-size="10.00">+</text>
<text text-anchor="start" x="121" y="-754.25" font-family="Helvetica,sans-Serif" font-size="10.00">static setDefaultTranslator</text>
<text text-anchor="start" x="121" y="-743" font-family="Helvetica,sans-Serif" font-size="10.00">(?Translator\TranslatorInterface</text>
<text text-anchor="start" x="121" y="-731.75" font-family="Helvetica,sans-Serif" font-size="10.00"> $translator=null, $textDomain=null)</text>
<text text-anchor="start" x="111" y="-717.25" font-family="Helvetica,sans-Serif" font-size="10.00">+</text>
<text text-anchor="start" x="121" y="-717.25" font-family="Helvetica,sans-Serif" font-size="10.00">static getDefaultTranslator()</text>
<text text-anchor="start" x="111" y="-702.25" font-family="Helvetica,sans-Serif" font-size="10.00">+</text>
<text text-anchor="start" x="121" y="-702.25" font-family="Helvetica,sans-Serif" font-size="10.00">static hasDefaultTranslator()</text>
<text text-anchor="start" x="111" y="-687.25" font-family="Helvetica,sans-Serif" font-size="10.00">+</text>
<text text-anchor="start" x="121" y="-687.25" font-family="Helvetica,sans-Serif" font-size="10.00">static setDefaultTranslator</text>
<text text-anchor="start" x="121" y="-676" font-family="Helvetica,sans-Serif" font-size="10.00">TextDomain($textDomain=&#39;default&#39;)</text>
<text text-anchor="start" x="111" y="-661.25" font-family="Helvetica,sans-Serif" font-size="10.00">+</text>
<text text-anchor="start" x="121" y="-661.25" font-family="Helvetica,sans-Serif" font-size="10.00">static getDefaultTranslator</text>
<text text-anchor="start" x="121" y="-650" font-family="Helvetica,sans-Serif" font-size="10.00">TextDomain()</text>
<text text-anchor="start" x="111" y="-635.25" font-family="Helvetica,sans-Serif" font-size="10.00">+</text>
<text text-anchor="start" x="121" y="-635.25" font-family="Helvetica,sans-Serif" font-size="10.00">static getMessageLength()</text>
<text text-anchor="start" x="111" y="-620.25" font-family="Helvetica,sans-Serif" font-size="10.00">+</text>
<text text-anchor="start" x="121" y="-620.25" font-family="Helvetica,sans-Serif" font-size="10.00">static setMessageLength</text>
<text text-anchor="start" x="121" y="-609" font-family="Helvetica,sans-Serif" font-size="10.00">($length=&#45;1)</text>
<text text-anchor="start" x="111.38" y="-594.25" font-family="Helvetica,sans-Serif" font-size="10.00">#</text>
<text text-anchor="start" x="121" y="-594.25" font-family="Helvetica,sans-Serif" font-size="10.00">createMessage($messageKey,</text>
<text text-anchor="start" x="121" y="-583" font-family="Helvetica,sans-Serif" font-size="10.00"> $value)</text>
<text text-anchor="start" x="111.38" y="-568.25" font-family="Helvetica,sans-Serif" font-size="10.00">#</text>
<text text-anchor="start" x="121" y="-568.25" font-family="Helvetica,sans-Serif" font-size="10.00">error($messageKey,</text>
<text text-anchor="start" x="121" y="-557" font-family="Helvetica,sans-Serif" font-size="10.00"> $value=null)</text>
<text text-anchor="start" x="111.38" y="-542.25" font-family="Helvetica,sans-Serif" font-size="10.00">#</text>
<text text-anchor="start" x="121" y="-542.25" font-family="Helvetica,sans-Serif" font-size="10.00">getValue()</text>
<text text-anchor="start" x="111.38" y="-527.25" font-family="Helvetica,sans-Serif" font-size="10.00">#</text>
<text text-anchor="start" x="121" y="-527.25" font-family="Helvetica,sans-Serif" font-size="10.00">setValue($value)</text>
<text text-anchor="start" x="111.38" y="-512.25" font-family="Helvetica,sans-Serif" font-size="10.00">#</text>
<text text-anchor="start" x="121" y="-512.25" font-family="Helvetica,sans-Serif" font-size="10.00">translateMessage(</text>
<text text-anchor="start" x="121" y="-501" font-family="Helvetica,sans-Serif" font-size="10.00">$messageKey, $message)</text>
<polygon fill="#666666" stroke="#666666" points="107,-993.75 107,-993.75 280,-993.75 280,-993.75 107,-993.75"/>
<polygon fill="#666666" stroke="#666666" points="107,-963.75 107,-963.75 119,-963.75 119,-963.75 107,-963.75"/>
<polygon fill="#666666" stroke="#666666" points="119,-963.75 119,-963.75 280,-963.75 280,-963.75 119,-963.75"/>
<polygon fill="none" stroke="#666666" points="107,-495.75 107,-1010.75 280,-1010.75 280,-495.75 107,-495.75"/>
</a>
</g>
</g>
<!-- Node3&#45;&gt;Node2 -->
<g id="edge2_Node000002_Node000003" class="edge">
<title>Node3&#45;&gt;Node2</title>
<g id="a_edge2_Node000002_Node000003"><a xlink:title=" ">
<path fill="none" stroke="#63b8ff" d="M204.67,-484.95C205.56,-471.1 206.5,-457.38 207.5,-444 207.95,-438 208.44,-431.89 208.96,-425.71"/>
<polygon fill="none" stroke="#63b8ff" points="201.2,-484.38 204.07,-494.58 208.19,-484.82 201.2,-484.38"/>
</a>
</g>
</g>
<!-- Node4 -->
<g id="Node000004" class="node">
<title>Node4</title>
<g id="a_Node000004"><a xlink:href="interface_laminas_1_1_validator_1_1_translator_1_1_translator_aware_interface.html" target="_top" xlink:title=" ">
<polygon fill="white" stroke="none" points="133,-1263.5 0,-1263.5 0,-1080.5 133,-1080.5 133,-1263.5"/>
<text text-anchor="start" x="11.75" y="-1250" font-family="Helvetica,sans-Serif" font-size="10.00">TranslatorAwareInterface</text>
<text text-anchor="start" x="65" y="-1235" font-family="Helvetica,sans-Serif" font-size="10.00"> </text>
<text text-anchor="start" x="4" y="-1220" font-family="Helvetica,sans-Serif" font-size="10.00">+</text>
<text text-anchor="start" x="14" y="-1220" font-family="Helvetica,sans-Serif" font-size="10.00">setTranslator(?Translator</text>
<text text-anchor="start" x="14" y="-1208.75" font-family="Helvetica,sans-Serif" font-size="10.00">Interface $translator=null,</text>
<text text-anchor="start" x="14" y="-1197.5" font-family="Helvetica,sans-Serif" font-size="10.00"> $textDomain=null)</text>
<text text-anchor="start" x="4" y="-1183" font-family="Helvetica,sans-Serif" font-size="10.00">+</text>
<text text-anchor="start" x="14" y="-1183" font-family="Helvetica,sans-Serif" font-size="10.00">getTranslator()</text>
<text text-anchor="start" x="4" y="-1168" font-family="Helvetica,sans-Serif" font-size="10.00">+</text>
<text text-anchor="start" x="14" y="-1168" font-family="Helvetica,sans-Serif" font-size="10.00">hasTranslator()</text>
<text text-anchor="start" x="4" y="-1153" font-family="Helvetica,sans-Serif" font-size="10.00">+</text>
<text text-anchor="start" x="14" y="-1153" font-family="Helvetica,sans-Serif" font-size="10.00">setTranslatorEnabled</text>
<text text-anchor="start" x="14" y="-1141.75" font-family="Helvetica,sans-Serif" font-size="10.00">($enabled=true)</text>
<text text-anchor="start" x="4" y="-1127" font-family="Helvetica,sans-Serif" font-size="10.00">+</text>
<text text-anchor="start" x="14" y="-1127" font-family="Helvetica,sans-Serif" font-size="10.00">isTranslatorEnabled()</text>
<text text-anchor="start" x="4" y="-1112" font-family="Helvetica,sans-Serif" font-size="10.00">+</text>
<text text-anchor="start" x="14" y="-1112" font-family="Helvetica,sans-Serif" font-size="10.00">setTranslatorTextDomain</text>
<text text-anchor="start" x="14" y="-1100.75" font-family="Helvetica,sans-Serif" font-size="10.00">($textDomain=&#39;default&#39;)</text>
<text text-anchor="start" x="4" y="-1086" font-family="Helvetica,sans-Serif" font-size="10.00">+</text>
<text text-anchor="start" x="14" y="-1086" font-family="Helvetica,sans-Serif" font-size="10.00">getTranslatorTextDomain()</text>
<polygon fill="#666666" stroke="#666666" points="0,-1246.5 0,-1246.5 133,-1246.5 133,-1246.5 0,-1246.5"/>
<polygon fill="#666666" stroke="#666666" points="0,-1231.5 0,-1231.5 133,-1231.5 133,-1231.5 0,-1231.5"/>
<polygon fill="none" stroke="#666666" points="0,-1080.5 0,-1263.5 133,-1263.5 133,-1080.5 0,-1080.5"/>
</a>
</g>
</g>
<!-- Node4&#45;&gt;Node3 -->
<g id="edge3_Node000003_Node000004" class="edge">
<title>Node4&#45;&gt;Node3</title>
<g id="a_edge3_Node000003_Node000004"><a xlink:title=" ">
<path fill="none" stroke="#63b8ff" d="M97.41,-1069.57C103.04,-1051.09 109.14,-1031.06 115.45,-1010.37"/>
<polygon fill="none" stroke="#63b8ff" points="94.07,-1068.54 94.5,-1079.12 100.76,-1070.58 94.07,-1068.54"/>
</a>
</g>
</g>
<!-- Node5 -->
<g id="Node000005" class="node">
<title>Node5</title>
<g id="a_Node000005"><a xlink:href="interface_laminas_1_1_validator_1_1_validator_interface.html" target="_top" xlink:title=" ">
<polygon fill="white" stroke="none" points="236,-1204 151,-1204 151,-1140 236,-1140 236,-1204"/>
<text text-anchor="start" x="155.62" y="-1190.5" font-family="Helvetica,sans-Serif" font-size="10.00">ValidatorInterface</text>
<text text-anchor="start" x="192" y="-1175.5" font-family="Helvetica,sans-Serif" font-size="10.00"> </text>
<text text-anchor="start" x="155.5" y="-1160.5" font-family="Helvetica,sans-Serif" font-size="10.00">+</text>
<text text-anchor="start" x="166" y="-1160.5" font-family="Helvetica,sans-Serif" font-size="10.00">isValid($value)</text>
<text text-anchor="start" x="155.5" y="-1145.5" font-family="Helvetica,sans-Serif" font-size="10.00">+</text>
<text text-anchor="start" x="166" y="-1145.5" font-family="Helvetica,sans-Serif" font-size="10.00">getMessages()</text>
<polygon fill="#666666" stroke="#666666" points="151,-1187 151,-1187 236,-1187 236,-1187 151,-1187"/>
<polygon fill="#666666" stroke="#666666" points="151,-1172 151,-1172 236,-1172 236,-1172 151,-1172"/>
<polygon fill="none" stroke="#666666" points="151,-1140 151,-1204 236,-1204 236,-1140 151,-1140"/>
</a>
</g>
</g>
<!-- Node5&#45;&gt;Node3 -->
<g id="edge4_Node000003_Node000005" class="edge">
<title>Node5&#45;&gt;Node3</title>
<g id="a_edge4_Node000003_Node000005"><a xlink:title=" ">
<path fill="none" stroke="#63b8ff" d="M193.5,-1128.88C193.5,-1099.16 193.5,-1056.59 193.5,-1010.73"/>
<polygon fill="none" stroke="#63b8ff" points="190,-1128.5 193.5,-1138.5 197,-1128.5 190,-1128.5"/>
</a>
</g>
</g>
<!-- Node6 -->
<g id="Node000006" class="node">
<title>Node6</title>
<g id="a_Node000006"><a xlink:title=" ">
<polygon fill="white" stroke="none" points="288.5,-1196.5 254.5,-1196.5 254.5,-1147.5 288.5,-1147.5 288.5,-1196.5"/>
<text text-anchor="start" x="259.5" y="-1183" font-family="Helvetica,sans-Serif" font-size="10.00">static</text>
<text text-anchor="start" x="270" y="-1168" font-family="Helvetica,sans-Serif" font-size="10.00"> </text>
<text text-anchor="start" x="270" y="-1153" font-family="Helvetica,sans-Serif" font-size="10.00"> </text>
<polygon fill="#666666" stroke="#666666" points="254.5,-1179.5 254.5,-1179.5 288.5,-1179.5 288.5,-1179.5 254.5,-1179.5"/>
<polygon fill="#666666" stroke="#666666" points="254.5,-1164.5 254.5,-1164.5 288.5,-1164.5 288.5,-1164.5 254.5,-1164.5"/>
<polygon fill="none" stroke="#666666" points="254.5,-1147.5 254.5,-1196.5 288.5,-1196.5 288.5,-1147.5 254.5,-1147.5"/>
</a>
</g>
</g>
<!-- Node6&#45;&gt;Node3 -->
<g id="edge5_Node000003_Node000006" class="edge">
<title>Node6&#45;&gt;Node3</title>
<g id="a_edge5_Node000003_Node000006"><a xlink:title=" ">
<path fill="none" stroke="#63b8ff" d="M267.14,-1147.7C262.19,-1121.24 253.53,-1074.97 243.84,-1023.23"/>
<polygon fill="none" stroke="#63b8ff" points="243.87,-1023.37 238.83,-1018.21 241.66,-1011.58 246.7,-1016.74 243.87,-1023.37"/>
</a>
</g>
<text text-anchor="middle" x="319.38" y="-1053" font-family="Helvetica,sans-Serif" font-size="10.00" fill="grey"> #$defaultTranslator</text>
<text text-anchor="middle" x="319.38" y="-1041.75" font-family="Helvetica,sans-Serif" font-size="10.00" fill="grey">#$defaultTranslatorTextDomain</text>
<text text-anchor="middle" x="319.38" y="-1030.5" font-family="Helvetica,sans-Serif" font-size="10.00" fill="grey">#$messageLength</text>
</g>
<!-- Node7 -->
<g id="Node000007" class="node">
<title>Node7</title>
<g id="a_Node000007"><a xlink:title=" ">
<polygon fill="white" stroke="none" points="338.5,-777.75 304.5,-777.75 304.5,-728.75 338.5,-728.75 338.5,-777.75"/>
<text text-anchor="start" x="309.5" y="-764.25" font-family="Helvetica,sans-Serif" font-size="10.00">const</text>
<text text-anchor="start" x="320" y="-749.25" font-family="Helvetica,sans-Serif" font-size="10.00"> </text>
<text text-anchor="start" x="320" y="-734.25" font-family="Helvetica,sans-Serif" font-size="10.00"> </text>
<polygon fill="#666666" stroke="#666666" points="304.5,-760.75 304.5,-760.75 338.5,-760.75 338.5,-760.75 304.5,-760.75"/>
<polygon fill="#666666" stroke="#666666" points="304.5,-745.75 304.5,-745.75 338.5,-745.75 338.5,-745.75 304.5,-745.75"/>
<polygon fill="none" stroke="#666666" points="304.5,-728.75 304.5,-777.75 338.5,-777.75 338.5,-728.75 304.5,-728.75"/>
</a>
</g>
</g>
<!-- Node7&#45;&gt;Node1 -->
<g id="edge7_Node000001_Node000007" class="edge">
<title>Node7&#45;&gt;Node1</title>
<g id="a_edge7_Node000001_Node000007"><a xlink:title=" ">
<path fill="none" stroke="#63b8ff" d="M323.48,-729.03C330.18,-643.75 349.06,-340.22 301.5,-97 299.87,-88.66 297.35,-79.96 294.54,-71.73"/>
<polygon fill="none" stroke="#63b8ff" points="294.56,-71.8 288.75,-67.54 290.44,-60.53 296.26,-64.79 294.56,-71.8"/>
</a>
</g>
<text text-anchor="middle" x="375" y="-268.88" font-family="Helvetica,sans-Serif" font-size="10.00" fill="grey"> +FALSE_TYPE</text>
<text text-anchor="middle" x="375" y="-257.62" font-family="Helvetica,sans-Serif" font-size="10.00" fill="grey">+NOT_DETECTED</text>
<text text-anchor="middle" x="375" y="-246.38" font-family="Helvetica,sans-Serif" font-size="10.00" fill="grey">+NOT_READABLE</text>
</g>
<!-- Node7&#45;&gt;Node2 -->
<g id="edge6_Node000002_Node000007" class="edge">
<title>Node7&#45;&gt;Node2</title>
<g id="a_edge6_Node000002_Node000007"><a xlink:title=" ">
<path fill="none" stroke="#63b8ff" d="M326.13,-728.76C334.43,-679.26 346.02,-563.23 288.5,-495.75 270.16,-474.24 244.48,-500.35 227.5,-477.75 218.6,-465.91 212.44,-452.57 208.37,-438.49"/>
<polygon fill="none" stroke="#63b8ff" points="208.37,-438.47 203.06,-433.59 205.53,-426.81 210.84,-431.7 208.37,-438.47"/>
</a>
</g>
<text text-anchor="middle" x="271" y="-468.25" font-family="Helvetica,sans-Serif" font-size="10.00" fill="grey"> +FALSE_TYPE</text>
<text text-anchor="middle" x="271" y="-457" font-family="Helvetica,sans-Serif" font-size="10.00" fill="grey">+NOT_DETECTED</text>
<text text-anchor="middle" x="271" y="-445.75" font-family="Helvetica,sans-Serif" font-size="10.00" fill="grey">+NOT_READABLE</text>
</g>
</g>
</svg>
