<?xml version="1.0" encoding="UTF-8" standalone="no"?>
<!DOCTYPE svg PUBLIC "-//W3C//DTD SVG 1.1//EN"
 "http://www.w3.org/Graphics/SVG/1.1/DTD/svg11.dtd">
<!-- Generated by graphviz version 10.0.1 (20240210.2158)
 -->
<!-- Title: getParts Pages: 1 -->
<svg width="1099pt" height="902pt"
 viewBox="0.00 0.00 1099.25 901.50" xmlns="http://www.w3.org/2000/svg" xmlns:xlink="http://www.w3.org/1999/xlink">
<g id="graph0" class="graph" transform="scale(1 1) rotate(0) translate(4 897.5)">
<title>getParts</title>
<!-- Node1 -->
<g id="Node000001" class="node">
<title>Node1</title>
<g id="a_Node000001"><a xlink:title=" ">
<polygon fill="#999999" stroke="#666666" points="1091.25,-442.88 1038.5,-442.88 1038.5,-423.62 1091.25,-423.62 1091.25,-442.88"/>
<text text-anchor="middle" x="1064.88" y="-429.38" font-family="Helvetica,sans-Serif" font-size="10.00">getParts</text>
</a>
</g>
</g>
<!-- Node2 -->
<g id="Node000002" class="node">
<title>Node2</title>
<g id="a_Node000002"><a xlink:href="class_sabre_1_1_v_object_1_1_property_1_1_i_calendar_1_1_duration.html#aa9449256663ef7ec3a76a73516a6fdd9" target="_top" xlink:title=" ">
<polygon fill="white" stroke="#666666" points="997.25,-844.5 826.75,-844.5 826.75,-814 997.25,-814 997.25,-844.5"/>
<text text-anchor="start" x="834.75" y="-831" font-family="Helvetica,sans-Serif" font-size="10.00">Sabre\VObject\Property</text>
<text text-anchor="middle" x="912" y="-819.75" font-family="Helvetica,sans-Serif" font-size="10.00">\ICalendar\Duration\getDateInterval</text>
</a>
</g>
</g>
<!-- Node1&#45;&gt;Node2 -->
<g id="edge1_Node000001_Node000002" class="edge">
<title>Node1&#45;&gt;Node2</title>
<g id="a_edge1_Node000001_Node000002"><a xlink:title=" ">
<path fill="none" stroke="#63b8ff" d="M1063.27,-454.62C1060.81,-525.6 1049.39,-751.98 1002.5,-804.25 999.27,-807.85 995.56,-810.95 991.54,-813.62"/>
<polygon fill="#63b8ff" stroke="#63b8ff" points="1066.76,-454.87 1063.58,-444.76 1059.76,-454.65 1066.76,-454.87"/>
</a>
</g>
</g>
<!-- Node3 -->
<g id="Node000003" class="node">
<title>Node3</title>
<g id="a_Node000003"><a xlink:href="class_sabre_1_1_v_object_1_1_property_1_1_i_calendar_1_1_date_time.html#a27fa088ebb66063280269bcd3264c62d" target="_top" xlink:title=" ">
<polygon fill="white" stroke="#666666" points="997.62,-795.5 826.38,-795.5 826.38,-765 997.62,-765 997.62,-795.5"/>
<text text-anchor="start" x="834.38" y="-782" font-family="Helvetica,sans-Serif" font-size="10.00">Sabre\VObject\Property</text>
<text text-anchor="middle" x="912" y="-770.75" font-family="Helvetica,sans-Serif" font-size="10.00">\ICalendar\DateTime\getDateTimes</text>
</a>
</g>
</g>
<!-- Node1&#45;&gt;Node3 -->
<g id="edge2_Node000001_Node000003" class="edge">
<title>Node1&#45;&gt;Node3</title>
<g id="a_edge2_Node000001_Node000003"><a xlink:title=" ">
<path fill="none" stroke="#63b8ff" d="M1062.73,-454.35C1058.79,-518.87 1043.73,-711.84 1002.5,-756.25 999.54,-759.43 996.22,-762.21 992.63,-764.64"/>
<polygon fill="#63b8ff" stroke="#63b8ff" points="1066.2,-454.94 1063.28,-444.75 1059.21,-454.53 1066.2,-454.94"/>
</a>
</g>
</g>
<!-- Node13 -->
<g id="Node000013" class="node">
<title>Node13</title>
<g id="a_Node000013"><a xlink:href="class_sabre_1_1_v_object_1_1_property.html#aef6e1e462c5b9bd8b77aa58bd3514597" target="_top" xlink:title=" ">
<polygon fill="white" stroke="#666666" points="949.25,-746.88 874.75,-746.88 874.75,-727.62 949.25,-727.62 949.25,-746.88"/>
<text text-anchor="middle" x="912" y="-733.38" font-family="Helvetica,sans-Serif" font-size="10.00">getJsonValue</text>
</a>
</g>
</g>
<!-- Node1&#45;&gt;Node13 -->
<g id="edge13_Node000001_Node000013" class="edge">
<title>Node1&#45;&gt;Node13</title>
<g id="a_edge13_Node000001_Node000013"><a xlink:title=" ">
<path fill="none" stroke="#63b8ff" d="M1062.23,-454.63C1057.19,-514.34 1039.98,-680.88 1002.5,-718.25 988.78,-731.93 967.81,-736.89 949.61,-738.33"/>
<polygon fill="#63b8ff" stroke="#63b8ff" points="1065.7,-455.07 1063.02,-444.82 1058.73,-454.5 1065.7,-455.07"/>
</a>
</g>
</g>
<!-- Node17 -->
<g id="Node000017" class="node">
<title>Node17</title>
<g id="a_Node000017"><a xlink:href="class_sabre_1_1_v_object_1_1_property_1_1_float_value.html#aef6e1e462c5b9bd8b77aa58bd3514597" target="_top" xlink:title=" ">
<polygon fill="white" stroke="#666666" points="975.12,-709.5 848.88,-709.5 848.88,-679 975.12,-679 975.12,-709.5"/>
<text text-anchor="start" x="856.88" y="-696" font-family="Helvetica,sans-Serif" font-size="10.00">Sabre\VObject\Property</text>
<text text-anchor="middle" x="912" y="-684.75" font-family="Helvetica,sans-Serif" font-size="10.00">\FloatValue\getJsonValue</text>
</a>
</g>
</g>
<!-- Node1&#45;&gt;Node17 -->
<g id="edge17_Node000001_Node000017" class="edge">
<title>Node1&#45;&gt;Node17</title>
<g id="a_edge17_Node000001_Node000017"><a xlink:title=" ">
<path fill="none" stroke="#63b8ff" d="M1061.12,-454.21C1053.9,-506.06 1032.85,-638.35 1002.5,-669.25 995.04,-676.85 985.48,-682.19 975.39,-685.93"/>
<polygon fill="#63b8ff" stroke="#63b8ff" points="1064.54,-455.01 1062.42,-444.63 1057.61,-454.07 1064.54,-455.01"/>
</a>
</g>
</g>
<!-- Node18 -->
<g id="Node000018" class="node">
<title>Node18</title>
<g id="a_Node000018"><a xlink:href="class_sabre_1_1_v_object_1_1_property_1_1_i_calendar_1_1_period.html#aef6e1e462c5b9bd8b77aa58bd3514597" target="_top" xlink:title=" ">
<polygon fill="white" stroke="#666666" points="988.62,-660.5 835.38,-660.5 835.38,-630 988.62,-630 988.62,-660.5"/>
<text text-anchor="start" x="843.38" y="-647" font-family="Helvetica,sans-Serif" font-size="10.00">Sabre\VObject\Property</text>
<text text-anchor="middle" x="912" y="-635.75" font-family="Helvetica,sans-Serif" font-size="10.00">\ICalendar\Period\getJsonValue</text>
</a>
</g>
</g>
<!-- Node1&#45;&gt;Node18 -->
<g id="edge18_Node000001_Node000018" class="edge">
<title>Node1&#45;&gt;Node18</title>
<g id="a_edge18_Node000001_Node000018"><a xlink:title=" ">
<path fill="none" stroke="#63b8ff" d="M1063.15,-454.35C1060.66,-492.94 1049.76,-575.06 1002.5,-620.25 998.42,-624.15 993.78,-627.46 988.81,-630.25"/>
<polygon fill="#63b8ff" stroke="#63b8ff" points="1066.64,-454.72 1063.64,-444.56 1059.65,-454.37 1066.64,-454.72"/>
</a>
</g>
</g>
<!-- Node20 -->
<g id="Node000020" class="node">
<title>Node20</title>
<g id="a_Node000020"><a xlink:href="class_sabre_1_1_v_object_1_1_property_1_1_text.html#aef6e1e462c5b9bd8b77aa58bd3514597" target="_top" xlink:title=" ">
<polygon fill="white" stroke="#666666" points="971.75,-611.5 852.25,-611.5 852.25,-581 971.75,-581 971.75,-611.5"/>
<text text-anchor="start" x="860.25" y="-598" font-family="Helvetica,sans-Serif" font-size="10.00">Sabre\VObject\Property</text>
<text text-anchor="middle" x="912" y="-586.75" font-family="Helvetica,sans-Serif" font-size="10.00">\Text\getJsonValue</text>
</a>
</g>
</g>
<!-- Node1&#45;&gt;Node20 -->
<g id="edge20_Node000001_Node000020" class="edge">
<title>Node1&#45;&gt;Node20</title>
<g id="a_edge20_Node000001_Node000020"><a xlink:title=" ">
<path fill="none" stroke="#63b8ff" d="M1060.32,-454.27C1054.08,-484.6 1038.26,-540.37 1002.5,-571.25 993.83,-578.74 983.09,-583.99 972.08,-587.68"/>
<polygon fill="#63b8ff" stroke="#63b8ff" points="1063.69,-455.28 1062.1,-444.8 1056.81,-453.98 1063.69,-455.28"/>
</a>
</g>
</g>
<!-- Node21 -->
<g id="Node000021" class="node">
<title>Node21</title>
<g id="a_Node000021"><a xlink:href="class_sabre_1_1_v_object_1_1_property_1_1_float_value.html#a0ef96c4cf288c28e523fc70a51af00d9" target="_top" xlink:title=" ">
<polygon fill="white" stroke="#666666" points="993.12,-562.5 830.88,-562.5 830.88,-532 993.12,-532 993.12,-562.5"/>
<text text-anchor="start" x="838.88" y="-549" font-family="Helvetica,sans-Serif" font-size="10.00">Sabre\VObject\Property</text>
<text text-anchor="middle" x="912" y="-537.75" font-family="Helvetica,sans-Serif" font-size="10.00">\FloatValue\getRawMimeDirValue</text>
</a>
</g>
</g>
<!-- Node1&#45;&gt;Node21 -->
<g id="edge21_Node000001_Node000021" class="edge">
<title>Node1&#45;&gt;Node21</title>
<g id="a_edge21_Node000001_Node000021"><a xlink:title=" ">
<path fill="none" stroke="#63b8ff" d="M1055.1,-453.86C1045.26,-474.48 1027.37,-505.6 1002.5,-523.25 998.04,-526.42 993.18,-529.16 988.12,-531.55"/>
<polygon fill="#63b8ff" stroke="#63b8ff" points="1058.28,-455.31 1059.21,-444.75 1051.9,-452.42 1058.28,-455.31"/>
</a>
</g>
</g>
<!-- Node22 -->
<g id="Node000022" class="node">
<title>Node22</title>
<g id="a_Node000022"><a xlink:href="class_sabre_1_1_v_object_1_1_property_1_1_i_calendar_1_1_date_time.html#a0ef96c4cf288c28e523fc70a51af00d9" target="_top" xlink:title=" ">
<polygon fill="white" stroke="#666666" points="995.75,-514.12 828.25,-514.12 828.25,-472.38 995.75,-472.38 995.75,-514.12"/>
<text text-anchor="start" x="836.25" y="-500.62" font-family="Helvetica,sans-Serif" font-size="10.00">Sabre\VObject\Property</text>
<text text-anchor="start" x="836.25" y="-489.38" font-family="Helvetica,sans-Serif" font-size="10.00">\ICalendar\DateTime\getRawMime</text>
<text text-anchor="middle" x="912" y="-478.12" font-family="Helvetica,sans-Serif" font-size="10.00">DirValue</text>
</a>
</g>
</g>
<!-- Node1&#45;&gt;Node22 -->
<g id="edge22_Node000001_Node000022" class="edge">
<title>Node1&#45;&gt;Node22</title>
<g id="a_edge22_Node000001_Node000022"><a xlink:title=" ">
<path fill="none" stroke="#63b8ff" d="M1034.56,-448.55C1024.52,-453.53 1013.14,-458.89 1002.5,-463.25 995.22,-466.23 987.53,-469.15 979.83,-471.93"/>
<polygon fill="#63b8ff" stroke="#63b8ff" points="1036.12,-451.68 1043.47,-444.05 1032.97,-445.43 1036.12,-451.68"/>
</a>
</g>
</g>
<!-- Node23 -->
<g id="Node000023" class="node">
<title>Node23</title>
<g id="a_Node000023"><a xlink:href="class_sabre_1_1_v_object_1_1_property_1_1_i_calendar_1_1_duration.html#a0ef96c4cf288c28e523fc70a51af00d9" target="_top" xlink:title=" ">
<polygon fill="white" stroke="#666666" points="992.75,-454.12 831.25,-454.12 831.25,-412.38 992.75,-412.38 992.75,-454.12"/>
<text text-anchor="start" x="839.25" y="-440.62" font-family="Helvetica,sans-Serif" font-size="10.00">Sabre\VObject\Property</text>
<text text-anchor="start" x="839.25" y="-429.38" font-family="Helvetica,sans-Serif" font-size="10.00">\ICalendar\Duration\getRawMime</text>
<text text-anchor="middle" x="912" y="-418.12" font-family="Helvetica,sans-Serif" font-size="10.00">DirValue</text>
</a>
</g>
</g>
<!-- Node1&#45;&gt;Node23 -->
<g id="edge23_Node000001_Node000023" class="edge">
<title>Node1&#45;&gt;Node23</title>
<g id="a_edge23_Node000001_Node000023"><a xlink:title=" ">
<path fill="none" stroke="#63b8ff" d="M1026.83,-433.25C1016.5,-433.25 1004.87,-433.25 993.08,-433.25"/>
<polygon fill="#63b8ff" stroke="#63b8ff" points="1026.77,-436.75 1036.77,-433.25 1026.77,-429.75 1026.77,-436.75"/>
</a>
</g>
</g>
<!-- Node24 -->
<g id="Node000024" class="node">
<title>Node24</title>
<g id="a_Node000024"><a xlink:href="class_sabre_1_1_v_object_1_1_property_1_1_i_calendar_1_1_period.html#a0ef96c4cf288c28e523fc70a51af00d9" target="_top" xlink:title=" ">
<polygon fill="white" stroke="#666666" points="988.25,-394.12 835.75,-394.12 835.75,-352.38 988.25,-352.38 988.25,-394.12"/>
<text text-anchor="start" x="843.75" y="-380.62" font-family="Helvetica,sans-Serif" font-size="10.00">Sabre\VObject\Property</text>
<text text-anchor="start" x="843.75" y="-369.38" font-family="Helvetica,sans-Serif" font-size="10.00">\ICalendar\Period\getRawMime</text>
<text text-anchor="middle" x="912" y="-358.12" font-family="Helvetica,sans-Serif" font-size="10.00">DirValue</text>
</a>
</g>
</g>
<!-- Node1&#45;&gt;Node24 -->
<g id="edge24_Node000001_Node000024" class="edge">
<title>Node1&#45;&gt;Node24</title>
<g id="a_edge24_Node000001_Node000024"><a xlink:title=" ">
<path fill="none" stroke="#63b8ff" d="M1034.56,-417.95C1024.52,-412.97 1013.14,-407.61 1002.5,-403.25 995.22,-400.27 987.53,-397.35 979.83,-394.57"/>
<polygon fill="#63b8ff" stroke="#63b8ff" points="1032.97,-421.07 1043.47,-422.45 1036.12,-414.82 1032.97,-421.07"/>
</a>
</g>
</g>
<!-- Node25 -->
<g id="Node000025" class="node">
<title>Node25</title>
<g id="a_Node000025"><a xlink:href="class_sabre_1_1_v_object_1_1_property_1_1_text.html#a0ef96c4cf288c28e523fc70a51af00d9" target="_top" xlink:title=" ">
<polygon fill="white" stroke="#666666" points="979.62,-334.5 844.38,-334.5 844.38,-304 979.62,-304 979.62,-334.5"/>
<text text-anchor="start" x="852.38" y="-321" font-family="Helvetica,sans-Serif" font-size="10.00">Sabre\VObject\Property</text>
<text text-anchor="middle" x="912" y="-309.75" font-family="Helvetica,sans-Serif" font-size="10.00">\Text\getRawMimeDirValue</text>
</a>
</g>
</g>
<!-- Node1&#45;&gt;Node25 -->
<g id="edge25_Node000001_Node000025" class="edge">
<title>Node1&#45;&gt;Node25</title>
<g id="a_edge25_Node000001_Node000025"><a xlink:title=" ">
<path fill="none" stroke="#63b8ff" d="M1055.1,-412.64C1045.26,-392.02 1027.37,-360.9 1002.5,-343.25 995.68,-338.41 987.93,-334.54 979.93,-331.46"/>
<polygon fill="#63b8ff" stroke="#63b8ff" points="1051.9,-414.08 1059.21,-421.75 1058.28,-411.19 1051.9,-414.08"/>
</a>
</g>
</g>
<!-- Node27 -->
<g id="Node000027" class="node">
<title>Node27</title>
<g id="a_Node000027"><a xlink:href="class_sabre_1_1_v_object_1_1_property_1_1_v_card_1_1_date_and_or_time.html#a0ef96c4cf288c28e523fc70a51af00d9" target="_top" xlink:title=" ">
<polygon fill="white" stroke="#666666" points="1002.5,-286.12 821.5,-286.12 821.5,-244.38 1002.5,-244.38 1002.5,-286.12"/>
<text text-anchor="start" x="829.5" y="-272.62" font-family="Helvetica,sans-Serif" font-size="10.00">Sabre\VObject\Property</text>
<text text-anchor="start" x="829.5" y="-261.38" font-family="Helvetica,sans-Serif" font-size="10.00">\VCard\DateAndOrTime\getRawMime</text>
<text text-anchor="middle" x="912" y="-250.12" font-family="Helvetica,sans-Serif" font-size="10.00">DirValue</text>
</a>
</g>
</g>
<!-- Node1&#45;&gt;Node27 -->
<g id="edge27_Node000001_Node000027" class="edge">
<title>Node1&#45;&gt;Node27</title>
<g id="a_edge27_Node000001_Node000027"><a xlink:title=" ">
<path fill="none" stroke="#63b8ff" d="M1060.02,-412.06C1053.47,-381.94 1037.3,-326.89 1002.5,-295.25 998.86,-291.94 994.85,-289 990.6,-286.38"/>
<polygon fill="#63b8ff" stroke="#63b8ff" points="1056.58,-412.7 1061.98,-421.82 1063.45,-411.33 1056.58,-412.7"/>
</a>
</g>
</g>
<!-- Node28 -->
<g id="Node000028" class="node">
<title>Node28</title>
<g id="a_Node000028"><a xlink:href="class_sabre_1_1_v_object_1_1_property_1_1_text.html#a4d9813fea8525b19a1d370eeb8fe41d6" target="_top" xlink:title=" ">
<polygon fill="white" stroke="#666666" points="971.75,-226.5 852.25,-226.5 852.25,-196 971.75,-196 971.75,-226.5"/>
<text text-anchor="start" x="860.25" y="-213" font-family="Helvetica,sans-Serif" font-size="10.00">Sabre\VObject\Property</text>
<text text-anchor="middle" x="912" y="-201.75" font-family="Helvetica,sans-Serif" font-size="10.00">\Text\serialize</text>
</a>
</g>
</g>
<!-- Node1&#45;&gt;Node28 -->
<g id="edge28_Node000001_Node000028" class="edge">
<title>Node1&#45;&gt;Node28</title>
<g id="a_edge28_Node000001_Node000028"><a xlink:title=" ">
<path fill="none" stroke="#63b8ff" d="M1063.65,-411.99C1062.03,-371.58 1052.58,-283.43 1002.5,-235.25 994.04,-227.11 983.12,-221.66 971.84,-218.03"/>
<polygon fill="#63b8ff" stroke="#63b8ff" points="1060.15,-411.9 1063.9,-421.81 1067.14,-411.72 1060.15,-411.9"/>
</a>
</g>
</g>
<!-- Node29 -->
<g id="Node000029" class="node">
<title>Node29</title>
<g id="a_Node000029"><a xlink:href="class_sabre_1_1_v_object_1_1_property_1_1_i_calendar_1_1_date_time.html#ac6f9e95467db0c731e7ab654acb7daf4" target="_top" xlink:title=" ">
<polygon fill="white" stroke="#666666" points="983.75,-177.5 840.25,-177.5 840.25,-147 983.75,-147 983.75,-177.5"/>
<text text-anchor="start" x="848.25" y="-164" font-family="Helvetica,sans-Serif" font-size="10.00">Sabre\VObject\Property</text>
<text text-anchor="middle" x="912" y="-152.75" font-family="Helvetica,sans-Serif" font-size="10.00">\ICalendar\DateTime\validate</text>
</a>
</g>
</g>
<!-- Node1&#45;&gt;Node29 -->
<g id="edge29_Node000001_Node000029" class="edge">
<title>Node1&#45;&gt;Node29</title>
<g id="a_edge29_Node000001_Node000029"><a xlink:title=" ">
<path fill="none" stroke="#63b8ff" d="M1061.34,-412.11C1054.49,-358.59 1034.04,-219.68 1002.5,-187.25 997.21,-181.81 990.85,-177.53 983.99,-174.16"/>
<polygon fill="#63b8ff" stroke="#63b8ff" points="1057.83,-412.24 1062.53,-421.74 1064.77,-411.38 1057.83,-412.24"/>
</a>
</g>
</g>
<!-- Node30 -->
<g id="Node000030" class="node">
<title>Node30</title>
<g id="a_Node000030"><a xlink:href="class_sabre_1_1_v_object_1_1_property_1_1_text.html#ac6f9e95467db0c731e7ab654acb7daf4" target="_top" xlink:title=" ">
<polygon fill="white" stroke="#666666" points="971.75,-128.5 852.25,-128.5 852.25,-98 971.75,-98 971.75,-128.5"/>
<text text-anchor="start" x="860.25" y="-115" font-family="Helvetica,sans-Serif" font-size="10.00">Sabre\VObject\Property</text>
<text text-anchor="middle" x="912" y="-103.75" font-family="Helvetica,sans-Serif" font-size="10.00">\Text\validate</text>
</a>
</g>
</g>
<!-- Node1&#45;&gt;Node30 -->
<g id="edge30_Node000001_Node000030" class="edge">
<title>Node1&#45;&gt;Node30</title>
<g id="a_edge30_Node000001_Node000030"><a xlink:title=" ">
<path fill="none" stroke="#63b8ff" d="M1062.28,-412.04C1057.29,-351.28 1040.02,-178.38 1002.5,-138.25 994.35,-129.53 983.43,-123.76 972.03,-119.97"/>
<polygon fill="#63b8ff" stroke="#63b8ff" points="1058.77,-412.01 1063.04,-421.7 1065.75,-411.46 1058.77,-412.01"/>
</a>
</g>
</g>
<!-- Node31 -->
<g id="Node000031" class="node">
<title>Node31</title>
<g id="a_Node000031"><a xlink:href="class_sabre_1_1_v_object_1_1_property_1_1_float_value.html#a2900e3d0a5ffaf3a18dcf23ab474d59e" target="_top" xlink:title=" ">
<polygon fill="white" stroke="#666666" points="984.5,-79.5 839.5,-79.5 839.5,-49 984.5,-49 984.5,-79.5"/>
<text text-anchor="start" x="847.5" y="-66" font-family="Helvetica,sans-Serif" font-size="10.00">Sabre\VObject\Property</text>
<text text-anchor="middle" x="912" y="-54.75" font-family="Helvetica,sans-Serif" font-size="10.00">\FloatValue\xmlSerializeValue</text>
</a>
</g>
</g>
<!-- Node1&#45;&gt;Node31 -->
<g id="edge31_Node000001_Node000031" class="edge">
<title>Node1&#45;&gt;Node31</title>
<g id="a_edge31_Node000001_Node000031"><a xlink:title=" ">
<path fill="none" stroke="#63b8ff" d="M1062.97,-412.13C1059.68,-344.87 1046.09,-137.23 1002.5,-89.25 997.51,-83.76 991.42,-79.43 984.8,-76.03"/>
<polygon fill="#63b8ff" stroke="#63b8ff" points="1059.46,-411.97 1063.42,-421.8 1066.45,-411.65 1059.46,-411.97"/>
</a>
</g>
</g>
<!-- Node32 -->
<g id="Node000032" class="node">
<title>Node32</title>
<g id="a_Node000032"><a xlink:href="class_sabre_1_1_v_object_1_1_property_1_1_text.html#a2900e3d0a5ffaf3a18dcf23ab474d59e" target="_top" xlink:title=" ">
<polygon fill="white" stroke="#666666" points="971.75,-30.5 852.25,-30.5 852.25,0 971.75,0 971.75,-30.5"/>
<text text-anchor="start" x="860.25" y="-17" font-family="Helvetica,sans-Serif" font-size="10.00">Sabre\VObject\Property</text>
<text text-anchor="middle" x="912" y="-5.75" font-family="Helvetica,sans-Serif" font-size="10.00">\Text\xmlSerializeValue</text>
</a>
</g>
</g>
<!-- Node1&#45;&gt;Node32 -->
<g id="edge32_Node000001_Node000032" class="edge">
<title>Node1&#45;&gt;Node32</title>
<g id="a_edge32_Node000001_Node000032"><a xlink:title=" ">
<path fill="none" stroke="#63b8ff" d="M1063.49,-412.06C1061.72,-338.57 1052.16,-96.12 1002.5,-40.25 994.46,-31.21 983.45,-25.32 971.9,-21.51"/>
<polygon fill="#63b8ff" stroke="#63b8ff" points="1059.99,-411.96 1063.7,-421.88 1066.98,-411.81 1059.99,-411.96"/>
</a>
</g>
</g>
<!-- Node4 -->
<g id="Node000004" class="node">
<title>Node4</title>
<g id="a_Node000004"><a xlink:href="class_sabre_1_1_v_object_1_1_property_1_1_i_calendar_1_1_date_time.html#a979f7f5bb87071883d116b9d6962709c" target="_top" xlink:title=" ">
<polygon fill="white" stroke="#666666" points="782.5,-893.5 616.5,-893.5 616.5,-863 782.5,-863 782.5,-893.5"/>
<text text-anchor="start" x="624.5" y="-880" font-family="Helvetica,sans-Serif" font-size="10.00">Sabre\VObject\Property</text>
<text text-anchor="middle" x="699.5" y="-868.75" font-family="Helvetica,sans-Serif" font-size="10.00">\ICalendar\DateTime\getDateTime</text>
</a>
</g>
</g>
<!-- Node3&#45;&gt;Node4 -->
<g id="edge3_Node000003_Node000004" class="edge">
<title>Node3&#45;&gt;Node4</title>
<g id="a_edge3_Node000003_Node000004"><a xlink:title=" ">
<path fill="none" stroke="#63b8ff" d="M828.5,-800.92C826.09,-802.27 823.75,-803.71 821.5,-805.25 799.49,-820.3 807.41,-838.05 785.5,-853.25 780.32,-856.85 774.62,-859.93 768.69,-862.58"/>
<polygon fill="#63b8ff" stroke="#63b8ff" points="829.99,-804.08 837.39,-796.5 826.88,-797.81 829.99,-804.08"/>
</a>
</g>
</g>
<!-- Node5 -->
<g id="Node000005" class="node">
<title>Node5</title>
<g id="a_Node000005"><a xlink:href="class_sabre_1_1_v_object_1_1_property_1_1_i_calendar_1_1_date_time.html#aef6e1e462c5b9bd8b77aa58bd3514597" target="_top" xlink:title=" ">
<polygon fill="white" stroke="#666666" points="783.62,-844.5 615.38,-844.5 615.38,-814 783.62,-814 783.62,-844.5"/>
<text text-anchor="start" x="623.38" y="-831" font-family="Helvetica,sans-Serif" font-size="10.00">Sabre\VObject\Property</text>
<text text-anchor="middle" x="699.5" y="-819.75" font-family="Helvetica,sans-Serif" font-size="10.00">\ICalendar\DateTime\getJsonValue</text>
</a>
</g>
</g>
<!-- Node3&#45;&gt;Node5 -->
<g id="edge4_Node000003_Node000005" class="edge">
<title>Node3&#45;&gt;Node5</title>
<g id="a_edge4_Node000003_Node000005"><a xlink:title=" ">
<path fill="none" stroke="#63b8ff" d="M832.58,-798.5C811.34,-803.45 788.53,-808.76 767.95,-813.55"/>
<polygon fill="#63b8ff" stroke="#63b8ff" points="833.11,-801.98 842.05,-796.3 831.52,-795.16 833.11,-801.98"/>
</a>
</g>
</g>
<!-- Node6 -->
<g id="Node000006" class="node">
<title>Node6</title>
<g id="a_Node000006"><a xlink:href="class_sabre_1_1_v_object_1_1_property_1_1_i_calendar_1_1_date_time.html#ae2295f0c920d0d2352749e2acb735fbb" target="_top" xlink:title=" ">
<polygon fill="white" stroke="#666666" points="774.25,-795.5 624.75,-795.5 624.75,-765 774.25,-765 774.25,-795.5"/>
<text text-anchor="start" x="632.75" y="-782" font-family="Helvetica,sans-Serif" font-size="10.00">Sabre\VObject\Property</text>
<text text-anchor="middle" x="699.5" y="-770.75" font-family="Helvetica,sans-Serif" font-size="10.00">\ICalendar\DateTime\offsetSet</text>
</a>
</g>
</g>
<!-- Node3&#45;&gt;Node6 -->
<g id="edge5_Node000003_Node000006" class="edge">
<title>Node3&#45;&gt;Node6</title>
<g id="a_edge5_Node000003_Node000006"><a xlink:title=" ">
<path fill="none" stroke="#63b8ff" d="M814.75,-780.25C801.28,-780.25 787.62,-780.25 774.65,-780.25"/>
<polygon fill="#63b8ff" stroke="#63b8ff" points="814.47,-783.75 824.47,-780.25 814.47,-776.75 814.47,-783.75"/>
</a>
</g>
</g>
<!-- Node7 -->
<g id="Node000007" class="node">
<title>Node7</title>
<g id="a_Node000007"><a xlink:href="class_sabre_1_1_v_object_1_1_property_1_1_i_calendar_1_1_date_time.html#a2d0cb011b3c1abcd3059b3e1913b4297" target="_top" xlink:title=" ">
<polygon fill="white" stroke="#666666" points="577.5,-795.5 406.25,-795.5 406.25,-765 577.5,-765 577.5,-795.5"/>
<text text-anchor="start" x="414.25" y="-782" font-family="Helvetica,sans-Serif" font-size="10.00">Sabre\VObject\Property</text>
<text text-anchor="middle" x="491.88" y="-770.75" font-family="Helvetica,sans-Serif" font-size="10.00">\ICalendar\DateTime\setDateTimes</text>
</a>
</g>
</g>
<!-- Node6&#45;&gt;Node7 -->
<g id="edge6_Node000006_Node000007" class="edge">
<title>Node6&#45;&gt;Node7</title>
<g id="a_edge6_Node000006_Node000007"><a xlink:title=" ">
<path fill="none" stroke="#63b8ff" d="M612.82,-773.58C601.25,-773.47 589.38,-773.47 577.83,-773.59"/>
<polygon fill="#63b8ff" stroke="#63b8ff" points="612.71,-777.08 622.75,-773.72 612.8,-770.08 612.71,-777.08"/>
</a>
</g>
</g>
<!-- Node7&#45;&gt;Node6 -->
<g id="edge7_Node000007_Node000006" class="edge">
<title>Node7&#45;&gt;Node6</title>
<g id="a_edge7_Node000007_Node000006"><a xlink:title=" ">
<path fill="none" stroke="#63b8ff" d="M589.1,-786.99C600.91,-787.03 612.84,-786.96 624.26,-786.76"/>
<polygon fill="#63b8ff" stroke="#63b8ff" points="589.37,-783.49 579.34,-786.92 589.32,-790.49 589.37,-783.49"/>
</a>
</g>
</g>
<!-- Node8 -->
<g id="Node000008" class="node">
<title>Node8</title>
<g id="a_Node000008"><a xlink:href="class_sabre_1_1_v_object_1_1_property_1_1_i_calendar_1_1_date_time.html#afe2503e0fb533191d5473b693c99f190" target="_top" xlink:title=" ">
<polygon fill="white" stroke="#666666" points="370.25,-844.5 204.25,-844.5 204.25,-814 370.25,-814 370.25,-844.5"/>
<text text-anchor="start" x="212.25" y="-831" font-family="Helvetica,sans-Serif" font-size="10.00">Sabre\VObject\Property</text>
<text text-anchor="middle" x="287.25" y="-819.75" font-family="Helvetica,sans-Serif" font-size="10.00">\ICalendar\DateTime\setDateTime</text>
</a>
</g>
</g>
<!-- Node7&#45;&gt;Node8 -->
<g id="edge8_Node000007_Node000008" class="edge">
<title>Node7&#45;&gt;Node8</title>
<g id="a_edge8_Node000007_Node000008"><a xlink:title=" ">
<path fill="none" stroke="#63b8ff" d="M414.83,-798.64C394.54,-803.55 372.81,-808.8 353.18,-813.55"/>
<polygon fill="#63b8ff" stroke="#63b8ff" points="415.56,-802.06 424.46,-796.31 413.91,-795.26 415.56,-802.06"/>
</a>
</g>
</g>
<!-- Node9 -->
<g id="Node000009" class="node">
<title>Node9</title>
<g id="a_Node000009"><a xlink:href="class_sabre_1_1_v_object_1_1_property_1_1_i_calendar_1_1_date_time.html#a7083f294b061a7621a25011666fdeb7f" target="_top" xlink:title=" ">
<polygon fill="white" stroke="#666666" points="360.5,-795.5 214,-795.5 214,-765 360.5,-765 360.5,-795.5"/>
<text text-anchor="start" x="222" y="-782" font-family="Helvetica,sans-Serif" font-size="10.00">Sabre\VObject\Property</text>
<text text-anchor="middle" x="287.25" y="-770.75" font-family="Helvetica,sans-Serif" font-size="10.00">\ICalendar\DateTime\setParts</text>
</a>
</g>
</g>
<!-- Node7&#45;&gt;Node9 -->
<g id="edge9_Node000007_Node000009" class="edge">
<title>Node7&#45;&gt;Node9</title>
<g id="a_edge9_Node000007_Node000009"><a xlink:title=" ">
<path fill="none" stroke="#63b8ff" d="M394.55,-780.25C383.22,-780.25 371.81,-780.25 360.88,-780.25"/>
<polygon fill="#63b8ff" stroke="#63b8ff" points="394.31,-783.75 404.31,-780.25 394.31,-776.75 394.31,-783.75"/>
</a>
</g>
</g>
<!-- Node10 -->
<g id="Node000010" class="node">
<title>Node10</title>
<g id="a_Node000010"><a xlink:href="class_sabre_1_1_v_object_1_1_property_1_1_i_calendar_1_1_date_time.html#a7494441b6ed08a391704971873f31432" target="_top" xlink:title=" ">
<polygon fill="white" stroke="#666666" points="360.88,-746.5 213.62,-746.5 213.62,-716 360.88,-716 360.88,-746.5"/>
<text text-anchor="start" x="221.62" y="-733" font-family="Helvetica,sans-Serif" font-size="10.00">Sabre\VObject\Property</text>
<text text-anchor="middle" x="287.25" y="-721.75" font-family="Helvetica,sans-Serif" font-size="10.00">\ICalendar\DateTime\setValue</text>
</a>
</g>
</g>
<!-- Node7&#45;&gt;Node10 -->
<g id="edge10_Node000007_Node000010" class="edge">
<title>Node7&#45;&gt;Node10</title>
<g id="a_edge10_Node000007_Node000010"><a xlink:title=" ">
<path fill="none" stroke="#63b8ff" d="M414.83,-761.86C394.54,-756.95 372.81,-751.7 353.18,-746.95"/>
<polygon fill="#63b8ff" stroke="#63b8ff" points="413.91,-765.24 424.46,-764.19 415.56,-758.44 413.91,-765.24"/>
</a>
</g>
</g>
<!-- Node11 -->
<g id="Node000011" class="node">
<title>Node11</title>
<g id="a_Node000011"><a xlink:href="class_sabre_1_1_v_object_1_1_property_1_1_i_calendar_1_1_date_time.html#a520df052cae2295fb5182ec0e6744b43" target="_top" xlink:title=" ">
<polygon fill="white" stroke="#666666" points="168.25,-773.5 0,-773.5 0,-743 168.25,-743 168.25,-773.5"/>
<text text-anchor="start" x="8" y="-760" font-family="Helvetica,sans-Serif" font-size="10.00">Sabre\VObject\Property</text>
<text text-anchor="middle" x="84.12" y="-748.75" font-family="Helvetica,sans-Serif" font-size="10.00">\ICalendar\DateTime\setJsonValue</text>
</a>
</g>
</g>
<!-- Node10&#45;&gt;Node11 -->
<g id="edge11_Node000010_Node000011" class="edge">
<title>Node10&#45;&gt;Node11</title>
<g id="a_edge11_Node000010_Node000011"><a xlink:title=" ">
<path fill="none" stroke="#63b8ff" d="M202,-742.56C190.98,-744.04 179.7,-745.55 168.69,-747.03"/>
<polygon fill="#63b8ff" stroke="#63b8ff" points="202.41,-746.04 211.85,-741.24 201.48,-739.1 202.41,-746.04"/>
</a>
</g>
</g>
<!-- Node12 -->
<g id="Node000012" class="node">
<title>Node12</title>
<g id="a_Node000012"><a xlink:href="class_sabre_1_1_v_object_1_1_property_1_1_i_calendar_1_1_date_time.html#a8b7e2a51d1d21b5de91d94107993d76a" target="_top" xlink:title=" ">
<polygon fill="white" stroke="#666666" points="167.88,-725.12 0.38,-725.12 0.38,-683.38 167.88,-683.38 167.88,-725.12"/>
<text text-anchor="start" x="8.38" y="-711.62" font-family="Helvetica,sans-Serif" font-size="10.00">Sabre\VObject\Property</text>
<text text-anchor="start" x="8.38" y="-700.38" font-family="Helvetica,sans-Serif" font-size="10.00">\ICalendar\DateTime\setRawMime</text>
<text text-anchor="middle" x="84.12" y="-689.12" font-family="Helvetica,sans-Serif" font-size="10.00">DirValue</text>
</a>
</g>
</g>
<!-- Node10&#45;&gt;Node12 -->
<g id="edge12_Node000010_Node000012" class="edge">
<title>Node10&#45;&gt;Node12</title>
<g id="a_edge12_Node000010_Node000012"><a xlink:title=" ">
<path fill="none" stroke="#63b8ff" d="M202.26,-719.97C191.04,-718.47 179.55,-716.93 168.35,-715.42"/>
<polygon fill="#63b8ff" stroke="#63b8ff" points="201.48,-723.4 211.85,-721.26 202.41,-716.46 201.48,-723.4"/>
</a>
</g>
</g>
<!-- Node14 -->
<g id="Node000014" class="node">
<title>Node14</title>
<g id="a_Node000014"><a xlink:href="class_sabre_1_1_v_object_1_1_property.html#ad402d8679325bc514874370f02b5c2ac" target="_top" xlink:title=" ">
<polygon fill="white" stroke="#666666" points="735.25,-746.88 663.75,-746.88 663.75,-727.62 735.25,-727.62 735.25,-746.88"/>
<text text-anchor="middle" x="699.5" y="-733.38" font-family="Helvetica,sans-Serif" font-size="10.00">jsonSerialize</text>
</a>
</g>
</g>
<!-- Node13&#45;&gt;Node14 -->
<g id="edge14_Node000013_Node000014" class="edge">
<title>Node13&#45;&gt;Node14</title>
<g id="a_edge14_Node000013_Node000014"><a xlink:title=" ">
<path fill="none" stroke="#63b8ff" d="M863.32,-737.25C824.53,-737.25 770.66,-737.25 735.7,-737.25"/>
<polygon fill="#63b8ff" stroke="#63b8ff" points="862.82,-740.75 872.82,-737.25 862.82,-733.75 862.82,-740.75"/>
</a>
</g>
</g>
<!-- Node15 -->
<g id="Node000015" class="node">
<title>Node15</title>
<g id="a_Node000015"><a xlink:href="class_sabre_1_1_v_object_1_1_property.html#a2900e3d0a5ffaf3a18dcf23ab474d59e" target="_top" xlink:title=" ">
<polygon fill="white" stroke="#666666" points="746.12,-709.88 652.88,-709.88 652.88,-690.62 746.12,-690.62 746.12,-709.88"/>
<text text-anchor="middle" x="699.5" y="-696.38" font-family="Helvetica,sans-Serif" font-size="10.00">xmlSerializeValue</text>
</a>
</g>
</g>
<!-- Node13&#45;&gt;Node15 -->
<g id="edge15_Node000013_Node000015" class="edge">
<title>Node13&#45;&gt;Node15</title>
<g id="a_edge15_Node000013_Node000015"><a xlink:title=" ">
<path fill="none" stroke="#63b8ff" d="M863.41,-728.89C828.35,-722.72 780.92,-714.39 746.29,-708.3"/>
<polygon fill="#63b8ff" stroke="#63b8ff" points="862.39,-732.26 872.84,-730.54 863.6,-725.36 862.39,-732.26"/>
</a>
</g>
</g>
<!-- Node16 -->
<g id="Node000016" class="node">
<title>Node16</title>
<g id="a_Node000016"><a xlink:href="class_sabre_1_1_v_object_1_1_property.html#abf9f098f801fc19f9d780e98466a935e" target="_top" xlink:title=" ">
<polygon fill="white" stroke="#666666" points="526.5,-709.88 457.25,-709.88 457.25,-690.62 526.5,-690.62 526.5,-709.88"/>
<text text-anchor="middle" x="491.88" y="-696.38" font-family="Helvetica,sans-Serif" font-size="10.00">xmlSerialize</text>
</a>
</g>
</g>
<!-- Node15&#45;&gt;Node16 -->
<g id="edge16_Node000015_Node000016" class="edge">
<title>Node15&#45;&gt;Node16</title>
<g id="a_edge16_Node000015_Node000016"><a xlink:title=" ">
<path fill="none" stroke="#63b8ff" d="M641.52,-700.25C604.66,-700.25 557.92,-700.25 526.79,-700.25"/>
<polygon fill="#63b8ff" stroke="#63b8ff" points="641.1,-703.75 651.1,-700.25 641.1,-696.75 641.1,-703.75"/>
</a>
</g>
</g>
<!-- Node19 -->
<g id="Node000019" class="node">
<title>Node19</title>
<g id="a_Node000019"><a xlink:href="class_sabre_1_1_v_object_1_1_property_1_1_i_calendar_1_1_period.html#a2900e3d0a5ffaf3a18dcf23ab474d59e" target="_top" xlink:title=" ">
<polygon fill="white" stroke="#666666" points="785.5,-660.5 613.5,-660.5 613.5,-630 785.5,-630 785.5,-660.5"/>
<text text-anchor="start" x="621.5" y="-647" font-family="Helvetica,sans-Serif" font-size="10.00">Sabre\VObject\Property</text>
<text text-anchor="middle" x="699.5" y="-635.75" font-family="Helvetica,sans-Serif" font-size="10.00">\ICalendar\Period\xmlSerializeValue</text>
</a>
</g>
</g>
<!-- Node18&#45;&gt;Node19 -->
<g id="edge19_Node000018_Node000019" class="edge">
<title>Node18&#45;&gt;Node19</title>
<g id="a_edge19_Node000018_Node000019"><a xlink:title=" ">
<path fill="none" stroke="#63b8ff" d="M823.6,-645.25C811.06,-645.25 798.16,-645.25 785.66,-645.25"/>
<polygon fill="#63b8ff" stroke="#63b8ff" points="823.49,-648.75 833.49,-645.25 823.49,-641.75 823.49,-648.75"/>
</a>
</g>
</g>
<!-- Node26 -->
<g id="Node000026" class="node">
<title>Node26</title>
<g id="a_Node000026"><a xlink:href="class_sabre_1_1_v_object_1_1_property_1_1_unknown.html#aef6e1e462c5b9bd8b77aa58bd3514597" target="_top" xlink:title=" ">
<polygon fill="white" stroke="#666666" points="760.38,-334.5 638.62,-334.5 638.62,-304 760.38,-304 760.38,-334.5"/>
<text text-anchor="start" x="646.62" y="-321" font-family="Helvetica,sans-Serif" font-size="10.00">Sabre\VObject\Property</text>
<text text-anchor="middle" x="699.5" y="-309.75" font-family="Helvetica,sans-Serif" font-size="10.00">\Unknown\getJsonValue</text>
</a>
</g>
</g>
<!-- Node25&#45;&gt;Node26 -->
<g id="edge26_Node000025_Node000026" class="edge">
<title>Node25&#45;&gt;Node26</title>
<g id="a_edge26_Node000025_Node000026"><a xlink:title=" ">
<path fill="none" stroke="#63b8ff" d="M832.63,-319.25C808.88,-319.25 783.17,-319.25 760.8,-319.25"/>
<polygon fill="#63b8ff" stroke="#63b8ff" points="832.59,-322.75 842.59,-319.25 832.59,-315.75 832.59,-322.75"/>
</a>
</g>
</g>
</g>
</svg>
