<?xml version="1.0" encoding="UTF-8" standalone="no"?>
<!DOCTYPE svg PUBLIC "-//W3C//DTD SVG 1.1//EN"
 "http://www.w3.org/Graphics/SVG/1.1/DTD/svg11.dtd">
<!-- Generated by graphviz version 10.0.1 (20240210.2158)
 -->
<!-- Title: TimeEfficientLongestCommonSubsequenceCalculator Pages: 1 -->
<svg width="151pt" height="186pt"
 viewBox="0.00 0.00 151.00 186.00" xmlns="http://www.w3.org/2000/svg" xmlns:xlink="http://www.w3.org/1999/xlink">
<g id="graph0" class="graph" transform="scale(1 1) rotate(0) translate(4 182)">
<title>TimeEfficientLongestCommonSubsequenceCalculator</title>
<!-- Node1 -->
<g id="Node000001" class="node">
<title>Node1</title>
<g id="a_Node000001"><a xlink:title=" ">
<polygon fill="#999999" stroke="none" points="142.5,-71 0.5,-71 0.5,0 142.5,0 142.5,-71"/>
<text text-anchor="start" x="5.5" y="-57.5" font-family="Helvetica,sans-Serif" font-size="10.00">TimeEfficientLongestCommon</text>
<text text-anchor="start" x="19.75" y="-46.25" font-family="Helvetica,sans-Serif" font-size="10.00">SubsequenceCalculator</text>
<text text-anchor="start" x="70" y="-31.5" font-family="Helvetica,sans-Serif" font-size="10.00"> </text>
<text text-anchor="start" x="12" y="-16.5" font-family="Helvetica,sans-Serif" font-size="10.00">+</text>
<text text-anchor="start" x="29.5" y="-16.5" font-family="Helvetica,sans-Serif" font-size="10.00">calculate(array $from,</text>
<text text-anchor="start" x="29.5" y="-5.25" font-family="Helvetica,sans-Serif" font-size="10.00"> array $to)</text>
<polygon fill="#666666" stroke="#666666" points="0.5,-43 0.5,-43 142.5,-43 142.5,-43 0.5,-43"/>
<polygon fill="#666666" stroke="#666666" points="0.5,-28 0.5,-28 142.5,-28 142.5,-28 0.5,-28"/>
<polygon fill="none" stroke="#666666" points="0.5,0 0.5,-71 142.5,-71 142.5,0 0.5,0"/>
</a>
</g>
</g>
<!-- Node2 -->
<g id="Node000002" class="node">
<title>Node2</title>
<g id="a_Node000002"><a xlink:href="interface_sebastian_bergmann_1_1_diff_1_1_longest_common_subsequence_calculator.html" target="_top" xlink:title=" ">
<polygon fill="white" stroke="none" points="143,-178 0,-178 0,-107 143,-107 143,-178"/>
<text text-anchor="start" x="4.75" y="-164.5" font-family="Helvetica,sans-Serif" font-size="10.00">LongestCommonSubsequence</text>
<text text-anchor="start" x="49.38" y="-153.25" font-family="Helvetica,sans-Serif" font-size="10.00">Calculator</text>
<text text-anchor="start" x="70" y="-138.5" font-family="Helvetica,sans-Serif" font-size="10.00"> </text>
<text text-anchor="start" x="11.5" y="-123.5" font-family="Helvetica,sans-Serif" font-size="10.00">+</text>
<text text-anchor="start" x="29" y="-123.5" font-family="Helvetica,sans-Serif" font-size="10.00">calculate(array $from,</text>
<text text-anchor="start" x="29" y="-112.25" font-family="Helvetica,sans-Serif" font-size="10.00"> array $to)</text>
<polygon fill="#666666" stroke="#666666" points="0,-150 0,-150 143,-150 143,-150 0,-150"/>
<polygon fill="#666666" stroke="#666666" points="0,-135 0,-135 143,-135 143,-135 0,-135"/>
<polygon fill="none" stroke="#666666" points="0,-107 0,-178 143,-178 143,-107 0,-107"/>
</a>
</g>
</g>
<!-- Node2&#45;&gt;Node1 -->
<g id="edge1_Node000001_Node000002" class="edge">
<title>Node2&#45;&gt;Node1</title>
<g id="a_edge1_Node000001_Node000002"><a xlink:title=" ">
<path fill="none" stroke="#63b8ff" d="M71.5,-95.64C71.5,-87.36 71.5,-78.85 71.5,-70.96"/>
<polygon fill="none" stroke="#63b8ff" points="68,-95.61 71.5,-105.61 75,-95.61 68,-95.61"/>
</a>
</g>
</g>
</g>
</svg>
