<?xml version="1.0" encoding="UTF-8" standalone="no"?>
<!DOCTYPE svg PUBLIC "-//W3C//DTD SVG 1.1//EN"
 "http://www.w3.org/Graphics/SVG/1.1/DTD/svg11.dtd">
<!-- Generated by graphviz version 10.0.1 (20240210.2158)
 -->
<!-- Title: VFreeBusy Pages: 1 -->
<!--zoomable 835 -->

<svg id="main" version="1.1" xmlns="http://www.w3.org/2000/svg" xmlns:xlink="http://www.w3.org/1999/xlink" xml:space="preserve" onload="init(evt)">
<style type="text/css"><![CDATA[
.node, .edge {opacity: 0.7;}
.node.selected, .edge.selected {opacity: 1;}
.edge:hover path { stroke: red; }
.edge:hover polygon { stroke: red; fill: red; }
]]></style>

<defs>
  <circle id="rim" cx="0" cy="0" r="7"/>
  <circle id="rim2" cx="0" cy="0" r="3.5"/>
  <g id="zoomPlus">
    <use xlink:href="#rim" fill="#404040"><set attributeName="fill" to="#808080" begin="zoomplus.mouseover" end="zoomplus.mouseout"/></use>
    <path d="M-4,0h8M0,-4v8" fill="none" stroke="white" stroke-width="1.5" pointer-events="none"/>
  </g>
  <g id="zoomMin">
    <use xlink:href="#rim" fill="#404040"><set attributeName="fill" to="#808080" begin="zoomminus.mouseover" end="zoomminus.mouseout"/></use>
    <path d="M-4,0h8" fill="none" stroke="white" stroke-width="1.5" pointer-events="none"/>
  </g>
  <g id="arrowUp" transform="translate(30 24)">
    <use xlink:href="#rim"/>
    <path pointer-events="none" fill="none" stroke="white" stroke-width="1.5" d="M0,-3.0v7 M-2.5,-0.5L0,-3.0L2.5,-0.5"/>
  </g>
  <g id="arrowRight" transform="rotate(90) translate(36 -43)">
    <use xlink:href="#rim"/>
    <path pointer-events="none" fill="none" stroke="white" stroke-width="1.5" d="M0,-3.0v7 M-2.5,-0.5L0,-3.0L2.5,-0.5"/>
  </g>
  <g id="arrowDown" transform="rotate(180) translate(-30 -48)">
    <use xlink:href="#rim"/>
    <path pointer-events="none" fill="none" stroke="white" stroke-width="1.5" d="M0,-3.0v7 M-2.5,-0.5L0,-3.0L2.5,-0.5"/>
  </g>
  <g id="arrowLeft" transform="rotate(270) translate(-36 17)">
    <use xlink:href="#rim"/>
    <path pointer-events="none" fill="none" stroke="white" stroke-width="1.5" d="M0,-3.0v7 M-2.5,-0.5L0,-3.0L2.5,-0.5"/>
  </g>
  <g id="resetDef">
    <use xlink:href="#rim2" fill="#404040"><set attributeName="fill" to="#808080" begin="reset.mouseover" end="reset.mouseout"/></use>
  </g>
</defs>
<script type="application/ecmascript">
var viewWidth = 466;
var viewHeight = 835;
var sectionId = 'dynsection-0';
</script>
<script type="application/ecmascript" xlink:href="svg.min.js"/>
<svg id="graph" class="graph">
<g id="viewport">
<title>VFreeBusy</title>
<!-- Node1 -->
<g id="Node000001" class="node">
<title>Node1</title>
<g id="a_Node000001"><a xlink:title=" ">
<polygon fill="#999999" stroke="none" points="292.5,-75 136.5,-75 136.5,0 292.5,0 292.5,-75"/>
<text text-anchor="start" x="190.12" y="-61.5" font-family="Helvetica,sans-Serif" font-size="10.00">VFreeBusy</text>
<text text-anchor="start" x="213" y="-46.5" font-family="Helvetica,sans-Serif" font-size="10.00"> </text>
<text text-anchor="start" x="140.5" y="-31.5" font-family="Helvetica,sans-Serif" font-size="10.00">+</text>
<text text-anchor="start" x="150.5" y="-31.5" font-family="Helvetica,sans-Serif" font-size="10.00">isFree(DateTimeInterface</text>
<text text-anchor="start" x="150.5" y="-20.25" font-family="Helvetica,sans-Serif" font-size="10.00"> $start, DatetimeInterface $end)</text>
<text text-anchor="start" x="140.5" y="-5.5" font-family="Helvetica,sans-Serif" font-size="10.00">+</text>
<text text-anchor="start" x="150.5" y="-5.5" font-family="Helvetica,sans-Serif" font-size="10.00">getValidationRules()</text>
<polygon fill="#666666" stroke="#666666" points="136.5,-58 136.5,-58 292.5,-58 292.5,-58 136.5,-58"/>
<polygon fill="#666666" stroke="#666666" points="136.5,-43 136.5,-43 292.5,-43 292.5,-43 136.5,-43"/>
<polygon fill="none" stroke="#666666" points="136.5,0 136.5,-75 292.5,-75 292.5,0 136.5,0"/>
</a>
</g>
</g>
<!-- Node2 -->
<g id="Node000002" class="node">
<title>Node2</title>
<g id="a_Node000002"><a xlink:href="class_sabre_1_1_v_object_1_1_component.html" target="_top" xlink:title=" ">
<polygon fill="white" stroke="none" points="286,-373 143,-373 143,-111 286,-111 286,-373"/>
<text text-anchor="start" x="189.38" y="-359.5" font-family="Helvetica,sans-Serif" font-size="10.00">Component</text>
<text text-anchor="start" x="147" y="-344.5" font-family="Helvetica,sans-Serif" font-size="10.00">+</text>
<text text-anchor="start" x="157" y="-344.5" font-family="Helvetica,sans-Serif" font-size="10.00">$name</text>
<text text-anchor="start" x="147.38" y="-329.5" font-family="Helvetica,sans-Serif" font-size="10.00">#</text>
<text text-anchor="start" x="157" y="-329.5" font-family="Helvetica,sans-Serif" font-size="10.00">$children</text>
<text text-anchor="start" x="147" y="-314.5" font-family="Helvetica,sans-Serif" font-size="10.00">+</text>
<text text-anchor="start" x="157" y="-314.5" font-family="Helvetica,sans-Serif" font-size="10.00">__construct(Document</text>
<text text-anchor="start" x="157" y="-303.25" font-family="Helvetica,sans-Serif" font-size="10.00"> $root, $name, array</text>
<text text-anchor="start" x="157" y="-292" font-family="Helvetica,sans-Serif" font-size="10.00"> $children=[], $defaults=true)</text>
<text text-anchor="start" x="147" y="-277.5" font-family="Helvetica,sans-Serif" font-size="10.00">+</text>
<text text-anchor="start" x="157" y="-277.5" font-family="Helvetica,sans-Serif" font-size="10.00">add()</text>
<text text-anchor="start" x="147" y="-262.5" font-family="Helvetica,sans-Serif" font-size="10.00">+</text>
<text text-anchor="start" x="157" y="-262.5" font-family="Helvetica,sans-Serif" font-size="10.00">remove($item)</text>
<text text-anchor="start" x="147" y="-247.5" font-family="Helvetica,sans-Serif" font-size="10.00">+</text>
<text text-anchor="start" x="157" y="-247.5" font-family="Helvetica,sans-Serif" font-size="10.00">children()</text>
<text text-anchor="start" x="147" y="-232.5" font-family="Helvetica,sans-Serif" font-size="10.00">+</text>
<text text-anchor="start" x="157" y="-232.5" font-family="Helvetica,sans-Serif" font-size="10.00">getComponents()</text>
<text text-anchor="start" x="147" y="-217.5" font-family="Helvetica,sans-Serif" font-size="10.00">+</text>
<text text-anchor="start" x="157" y="-217.5" font-family="Helvetica,sans-Serif" font-size="10.00">select($name)</text>
<text text-anchor="start" x="147" y="-202.5" font-family="Helvetica,sans-Serif" font-size="10.00">+</text>
<text text-anchor="start" x="157" y="-202.5" font-family="Helvetica,sans-Serif" font-size="10.00">serialize()</text>
<text text-anchor="start" x="147" y="-187.5" font-family="Helvetica,sans-Serif" font-size="10.00">+</text>
<text text-anchor="start" x="157" y="-187.5" font-family="Helvetica,sans-Serif" font-size="10.00">jsonSerialize()</text>
<text text-anchor="start" x="147" y="-172.5" font-family="Helvetica,sans-Serif" font-size="10.00">+</text>
<text text-anchor="start" x="157" y="-172.5" font-family="Helvetica,sans-Serif" font-size="10.00">xmlSerialize(Xml\Writer</text>
<text text-anchor="start" x="157" y="-161.25" font-family="Helvetica,sans-Serif" font-size="10.00"> $writer)</text>
<text text-anchor="start" x="147" y="-146.5" font-family="Helvetica,sans-Serif" font-size="10.00">+</text>
<text text-anchor="start" x="157" y="-146.5" font-family="Helvetica,sans-Serif" font-size="10.00">__get($name)</text>
<text text-anchor="start" x="157" y="-131.5" font-family="Helvetica,sans-Serif" font-size="10.00">et 7 de plus...</text>
<text text-anchor="start" x="147.38" y="-116.5" font-family="Helvetica,sans-Serif" font-size="10.00">#</text>
<text text-anchor="start" x="157" y="-116.5" font-family="Helvetica,sans-Serif" font-size="10.00">getDefaults()</text>
<polygon fill="#666666" stroke="#666666" points="143,-356 143,-356 286,-356 286,-356 143,-356"/>
<polygon fill="#666666" stroke="#666666" points="143,-326 143,-326 155,-326 155,-326 143,-326"/>
<polygon fill="#666666" stroke="#666666" points="155,-326 155,-326 286,-326 286,-326 155,-326"/>
<polygon fill="none" stroke="#666666" points="143,-111 143,-373 286,-373 286,-111 143,-111"/>
</a>
</g>
</g>
<!-- Node2&#45;&gt;Node1 -->
<g id="edge1_Node000001_Node000002" class="edge">
<title>Node2&#45;&gt;Node1</title>
<g id="a_edge1_Node000001_Node000002"><a xlink:title=" ">
<path fill="none" stroke="#63b8ff" d="M214.5,-99.58C214.5,-90.73 214.5,-82.36 214.5,-74.83"/>
<polygon fill="none" stroke="#63b8ff" points="211,-99.52 214.5,-109.52 218,-99.52 211,-99.52"/>
</a>
</g>
</g>
<!-- Node3 -->
<g id="Node000003" class="node">
<title>Node3</title>
<g id="a_Node000003"><a xlink:href="class_sabre_1_1_v_object_1_1_node.html" target="_top" xlink:title=" ">
<polygon fill="white" stroke="none" points="285,-731 144,-731 144,-409 285,-409 285,-731"/>
<text text-anchor="start" x="202.88" y="-717.5" font-family="Helvetica,sans-Serif" font-size="10.00">Node</text>
<text text-anchor="start" x="148" y="-702.5" font-family="Helvetica,sans-Serif" font-size="10.00">+</text>
<text text-anchor="start" x="158" y="-702.5" font-family="Helvetica,sans-Serif" font-size="10.00">const REPAIR</text>
<text text-anchor="start" x="148" y="-687.5" font-family="Helvetica,sans-Serif" font-size="10.00">+</text>
<text text-anchor="start" x="158" y="-687.5" font-family="Helvetica,sans-Serif" font-size="10.00">const PROFILE_CARDDAV</text>
<text text-anchor="start" x="148" y="-672.5" font-family="Helvetica,sans-Serif" font-size="10.00">+</text>
<text text-anchor="start" x="158" y="-672.5" font-family="Helvetica,sans-Serif" font-size="10.00">const PROFILE_CALDAV</text>
<text text-anchor="start" x="148" y="-657.5" font-family="Helvetica,sans-Serif" font-size="10.00">+</text>
<text text-anchor="start" x="158" y="-657.5" font-family="Helvetica,sans-Serif" font-size="10.00">$parent</text>
<text text-anchor="start" x="148.38" y="-642.5" font-family="Helvetica,sans-Serif" font-size="10.00">#</text>
<text text-anchor="start" x="158" y="-642.5" font-family="Helvetica,sans-Serif" font-size="10.00">$iterator</text>
<text text-anchor="start" x="148.38" y="-627.5" font-family="Helvetica,sans-Serif" font-size="10.00">#</text>
<text text-anchor="start" x="158" y="-627.5" font-family="Helvetica,sans-Serif" font-size="10.00">$root</text>
<text text-anchor="start" x="148" y="-612.5" font-family="Helvetica,sans-Serif" font-size="10.00">+</text>
<text text-anchor="start" x="158" y="-612.5" font-family="Helvetica,sans-Serif" font-size="10.00">serialize()</text>
<text text-anchor="start" x="148" y="-597.5" font-family="Helvetica,sans-Serif" font-size="10.00">+</text>
<text text-anchor="start" x="158" y="-597.5" font-family="Helvetica,sans-Serif" font-size="10.00">jsonSerialize()</text>
<text text-anchor="start" x="148" y="-582.5" font-family="Helvetica,sans-Serif" font-size="10.00">+</text>
<text text-anchor="start" x="158" y="-582.5" font-family="Helvetica,sans-Serif" font-size="10.00">xmlSerialize(Xml\Writer</text>
<text text-anchor="start" x="158" y="-571.25" font-family="Helvetica,sans-Serif" font-size="10.00"> $writer)</text>
<text text-anchor="start" x="148" y="-556.5" font-family="Helvetica,sans-Serif" font-size="10.00">+</text>
<text text-anchor="start" x="158" y="-556.5" font-family="Helvetica,sans-Serif" font-size="10.00">destroy()</text>
<text text-anchor="start" x="148" y="-541.5" font-family="Helvetica,sans-Serif" font-size="10.00">+</text>
<text text-anchor="start" x="158" y="-541.5" font-family="Helvetica,sans-Serif" font-size="10.00">getIterator()</text>
<text text-anchor="start" x="148" y="-526.5" font-family="Helvetica,sans-Serif" font-size="10.00">+</text>
<text text-anchor="start" x="158" y="-526.5" font-family="Helvetica,sans-Serif" font-size="10.00">setIterator(ElementList</text>
<text text-anchor="start" x="158" y="-515.25" font-family="Helvetica,sans-Serif" font-size="10.00"> $iterator)</text>
<text text-anchor="start" x="148" y="-500.5" font-family="Helvetica,sans-Serif" font-size="10.00">+</text>
<text text-anchor="start" x="158" y="-500.5" font-family="Helvetica,sans-Serif" font-size="10.00">validate($options=0)</text>
<text text-anchor="start" x="148" y="-485.5" font-family="Helvetica,sans-Serif" font-size="10.00">+</text>
<text text-anchor="start" x="158" y="-485.5" font-family="Helvetica,sans-Serif" font-size="10.00">count()</text>
<text text-anchor="start" x="148" y="-470.5" font-family="Helvetica,sans-Serif" font-size="10.00">+</text>
<text text-anchor="start" x="158" y="-470.5" font-family="Helvetica,sans-Serif" font-size="10.00">offsetExists($offset)</text>
<text text-anchor="start" x="148" y="-455.5" font-family="Helvetica,sans-Serif" font-size="10.00">+</text>
<text text-anchor="start" x="158" y="-455.5" font-family="Helvetica,sans-Serif" font-size="10.00">offsetGet($offset)</text>
<text text-anchor="start" x="148" y="-440.5" font-family="Helvetica,sans-Serif" font-size="10.00">+</text>
<text text-anchor="start" x="158" y="-440.5" font-family="Helvetica,sans-Serif" font-size="10.00">offsetSet($offset,</text>
<text text-anchor="start" x="158" y="-429.25" font-family="Helvetica,sans-Serif" font-size="10.00"> $value)</text>
<text text-anchor="start" x="148" y="-414.5" font-family="Helvetica,sans-Serif" font-size="10.00">+</text>
<text text-anchor="start" x="158" y="-414.5" font-family="Helvetica,sans-Serif" font-size="10.00">offsetUnset($offset)</text>
<polygon fill="#666666" stroke="#666666" points="144,-714 144,-714 285,-714 285,-714 144,-714"/>
<polygon fill="#666666" stroke="#666666" points="144,-624 144,-624 156,-624 156,-624 144,-624"/>
<polygon fill="#666666" stroke="#666666" points="156,-624 156,-624 285,-624 285,-624 156,-624"/>
<polygon fill="none" stroke="#666666" points="144,-409 144,-731 285,-731 285,-409 144,-409"/>
</a>
</g>
</g>
<!-- Node3&#45;&gt;Node2 -->
<g id="edge2_Node000002_Node000003" class="edge">
<title>Node3&#45;&gt;Node2</title>
<g id="a_edge2_Node000002_Node000003"><a xlink:title=" ">
<path fill="none" stroke="#63b8ff" d="M214.5,-397.85C214.5,-389.43 214.5,-381.04 214.5,-372.76"/>
<polygon fill="none" stroke="#63b8ff" points="211,-397.83 214.5,-407.83 218,-397.83 211,-397.83"/>
</a>
</g>
</g>
<!-- Node4 -->
<g id="Node000004" class="node">
<title>Node4</title>
<g id="a_Node000004"><a xlink:title=" ">
<polygon fill="white" stroke="none" points="85,-821.5 0,-821.5 0,-772.5 85,-772.5 85,-821.5"/>
<text text-anchor="start" x="5" y="-808" font-family="Helvetica,sans-Serif" font-size="10.00">IteratorAggregate</text>
<text text-anchor="start" x="41" y="-793" font-family="Helvetica,sans-Serif" font-size="10.00"> </text>
<text text-anchor="start" x="41" y="-778" font-family="Helvetica,sans-Serif" font-size="10.00"> </text>
<polygon fill="#666666" stroke="#666666" points="0,-804.5 0,-804.5 85,-804.5 85,-804.5 0,-804.5"/>
<polygon fill="#666666" stroke="#666666" points="0,-789.5 0,-789.5 85,-789.5 85,-789.5 0,-789.5"/>
<polygon fill="none" stroke="#666666" points="0,-772.5 0,-821.5 85,-821.5 85,-772.5 0,-772.5"/>
</a>
</g>
</g>
<!-- Node4&#45;&gt;Node3 -->
<g id="edge3_Node000003_Node000004" class="edge">
<title>Node4&#45;&gt;Node3</title>
<g id="a_edge3_Node000003_Node000004"><a xlink:title=" ">
<path fill="none" stroke="#63b8ff" d="M67.23,-763.65C87.35,-737.34 116.77,-698.85 144.04,-663.18"/>
<polygon fill="none" stroke="#63b8ff" points="64.47,-761.5 61.18,-771.57 70.03,-765.75 64.47,-761.5"/>
</a>
</g>
</g>
<!-- Node5 -->
<g id="Node000005" class="node">
<title>Node5</title>
<g id="a_Node000005"><a xlink:title=" ">
<polygon fill="white" stroke="none" points="169.5,-821.5 103.5,-821.5 103.5,-772.5 169.5,-772.5 169.5,-821.5"/>
<text text-anchor="start" x="108.38" y="-808" font-family="Helvetica,sans-Serif" font-size="10.00">ArrayAccess</text>
<text text-anchor="start" x="135" y="-793" font-family="Helvetica,sans-Serif" font-size="10.00"> </text>
<text text-anchor="start" x="135" y="-778" font-family="Helvetica,sans-Serif" font-size="10.00"> </text>
<polygon fill="#666666" stroke="#666666" points="103.5,-804.5 103.5,-804.5 169.5,-804.5 169.5,-804.5 103.5,-804.5"/>
<polygon fill="#666666" stroke="#666666" points="103.5,-789.5 103.5,-789.5 169.5,-789.5 169.5,-789.5 103.5,-789.5"/>
<polygon fill="none" stroke="#666666" points="103.5,-772.5 103.5,-821.5 169.5,-821.5 169.5,-772.5 103.5,-772.5"/>
</a>
</g>
</g>
<!-- Node5&#45;&gt;Node3 -->
<g id="edge4_Node000003_Node000005" class="edge">
<title>Node5&#45;&gt;Node3</title>
<g id="a_edge4_Node000003_Node000005"><a xlink:title=" ">
<path fill="none" stroke="#63b8ff" d="M148.31,-761.94C151.49,-752.77 155.15,-742.21 159.08,-730.87"/>
<polygon fill="none" stroke="#63b8ff" points="145.02,-760.74 145.05,-771.34 151.63,-763.04 145.02,-760.74"/>
</a>
</g>
</g>
<!-- Node6 -->
<g id="Node000006" class="node">
<title>Node6</title>
<g id="a_Node000006"><a xlink:title=" ">
<polygon fill="white" stroke="none" points="241.5,-821.5 187.5,-821.5 187.5,-772.5 241.5,-772.5 241.5,-821.5"/>
<text text-anchor="start" x="192.38" y="-808" font-family="Helvetica,sans-Serif" font-size="10.00">Countable</text>
<text text-anchor="start" x="213" y="-793" font-family="Helvetica,sans-Serif" font-size="10.00"> </text>
<text text-anchor="start" x="213" y="-778" font-family="Helvetica,sans-Serif" font-size="10.00"> </text>
<polygon fill="#666666" stroke="#666666" points="187.5,-804.5 187.5,-804.5 241.5,-804.5 241.5,-804.5 187.5,-804.5"/>
<polygon fill="#666666" stroke="#666666" points="187.5,-789.5 187.5,-789.5 241.5,-789.5 241.5,-789.5 187.5,-789.5"/>
<polygon fill="none" stroke="#666666" points="187.5,-772.5 187.5,-821.5 241.5,-821.5 241.5,-772.5 187.5,-772.5"/>
</a>
</g>
</g>
<!-- Node6&#45;&gt;Node3 -->
<g id="edge5_Node000003_Node000006" class="edge">
<title>Node6&#45;&gt;Node3</title>
<g id="a_edge5_Node000003_Node000006"><a xlink:title=" ">
<path fill="none" stroke="#63b8ff" d="M214.5,-761.32C214.5,-752.3 214.5,-741.96 214.5,-730.87"/>
<polygon fill="none" stroke="#63b8ff" points="211,-761.25 214.5,-771.25 218,-761.25 211,-761.25"/>
</a>
</g>
</g>
<!-- Node7 -->
<g id="Node000007" class="node">
<title>Node7</title>
<g id="a_Node000007"><a xlink:title=" ">
<polygon fill="white" stroke="none" points="341,-821.5 260,-821.5 260,-772.5 341,-772.5 341,-821.5"/>
<text text-anchor="start" x="264.88" y="-808" font-family="Helvetica,sans-Serif" font-size="10.00">JsonSerializable</text>
<text text-anchor="start" x="299" y="-793" font-family="Helvetica,sans-Serif" font-size="10.00"> </text>
<text text-anchor="start" x="299" y="-778" font-family="Helvetica,sans-Serif" font-size="10.00"> </text>
<polygon fill="#666666" stroke="#666666" points="260,-804.5 260,-804.5 341,-804.5 341,-804.5 260,-804.5"/>
<polygon fill="#666666" stroke="#666666" points="260,-789.5 260,-789.5 341,-789.5 341,-789.5 260,-789.5"/>
<polygon fill="none" stroke="#666666" points="260,-772.5 260,-821.5 341,-821.5 341,-772.5 260,-772.5"/>
</a>
</g>
</g>
<!-- Node7&#45;&gt;Node3 -->
<g id="edge6_Node000003_Node000007" class="edge">
<title>Node7&#45;&gt;Node3</title>
<g id="a_edge6_Node000003_Node000007"><a xlink:title=" ">
<path fill="none" stroke="#63b8ff" d="M287.6,-762.24C284.07,-753 279.99,-742.34 275.61,-730.87"/>
<polygon fill="none" stroke="#63b8ff" points="284.24,-763.26 291.08,-771.35 290.78,-760.76 284.24,-763.26"/>
</a>
</g>
</g>
<!-- Node8 -->
<g id="Node000008" class="node">
<title>Node8</title>
<g id="a_Node000008"><a xlink:href="interface_sabre_1_1_xml_1_1_xml_serializable.html" target="_top" xlink:title=" ">
<polygon fill="white" stroke="none" points="458,-827 359,-827 359,-767 458,-767 458,-827"/>
<text text-anchor="start" x="374.75" y="-813.5" font-family="Helvetica,sans-Serif" font-size="10.00">XmlSerializable</text>
<text text-anchor="start" x="407" y="-798.5" font-family="Helvetica,sans-Serif" font-size="10.00"> </text>
<text text-anchor="start" x="363" y="-783.5" font-family="Helvetica,sans-Serif" font-size="10.00">+</text>
<text text-anchor="start" x="373" y="-783.5" font-family="Helvetica,sans-Serif" font-size="10.00">xmlSerialize(Writer</text>
<text text-anchor="start" x="373" y="-772.25" font-family="Helvetica,sans-Serif" font-size="10.00"> $writer)</text>
<polygon fill="#666666" stroke="#666666" points="359,-810 359,-810 458,-810 458,-810 359,-810"/>
<polygon fill="#666666" stroke="#666666" points="359,-795 359,-795 458,-795 458,-795 359,-795"/>
<polygon fill="none" stroke="#666666" points="359,-767 359,-827 458,-827 458,-767 359,-767"/>
</a>
</g>
</g>
<!-- Node8&#45;&gt;Node3 -->
<g id="edge7_Node000003_Node000008" class="edge">
<title>Node8&#45;&gt;Node3</title>
<g id="a_edge7_Node000003_Node000008"><a xlink:title=" ">
<path fill="none" stroke="#63b8ff" d="M376.18,-758.51C351.33,-729.7 316.1,-688.83 284.86,-652.6"/>
<polygon fill="none" stroke="#63b8ff" points="373.37,-760.61 382.55,-765.9 378.67,-756.04 373.37,-760.61"/>
</a>
</g>
</g>
</g>
</svg>

<g id="navigator" transform="translate(0 0)" fill="#404254">
  <rect fill="#f2f5e9" fill-opacity="0.5" stroke="#606060" stroke-width=".5" x="0" y="0" width="60" height="60"/>
  <use id="zoomplus" xlink:href="#zoomPlus" x="17" y="9" onmousedown="handleZoom(evt,'in')"/>
  <use id="zoomminus" xlink:href="#zoomMin" x="42" y="9" onmousedown="handleZoom(evt,'out')"/>
  <use id="reset" xlink:href="#resetDef" x="30" y="36" onmousedown="handleReset()"/>
   <use id="arrowup" xlink:href="#arrowUp" x="0" y="0" onmousedown="handlePan(0,-1)"/>
  <use id="arrowright" xlink:href="#arrowRight" x="0" y="0" onmousedown="handlePan(1,0)"/>
  <use id="arrowdown" xlink:href="#arrowDown" x="0" y="0" onmousedown="handlePan(0,1)"/>
  <use id="arrowleft" xlink:href="#arrowLeft" x="0" y="0" onmousedown="handlePan(-1,0)"/>
</g>
<svg viewBox="0 0 15 15" width="100%" height="30px" preserveAspectRatio="xMaxYMin meet">
 <g id="arrow_out" transform="scale(0.3 0.3)">
  <a xlink:href="class_sabre_1_1_v_object_1_1_component_1_1_v_free_busy__inherit__graph_org.svg" target="_base">
   <rect id="button" ry="5" rx="5" y="6" x="6" height="38" width="38"
        fill="#f2f5e9" fill-opacity="0.5" stroke="#606060" stroke-width="1.0"/>
   <path id="arrow"
     d="M 11.500037,31.436501 C 11.940474,20.09759 22.043105,11.32322 32.158766,21.979434 L 37.068811,17.246167 C 37.068811,17.246167 37.088388,32 37.088388,32 L 22.160133,31.978069 C 22.160133,31.978069 26.997745,27.140456 26.997745,27.140456 C 18.528582,18.264221 13.291696,25.230495 11.500037,31.436501 z"
     style="fill:#404040;"/>
  </a>
 </g>
</svg>

<style type='text/css'>
<![CDATA[
[data-mouse-over-selected='false'] { opacity: 0.7; }
[data-mouse-over-selected='true']  { opacity: 1.0; }
]]>
</style>
<script type="application/ecmascript"><![CDATA[
document.addEventListener('DOMContentLoaded', (event) => {
  highlightEdges();
  highlightAdjacentNodes();
});
]]></script>
</svg>
