<?xml version="1.0" encoding="UTF-8" standalone="no"?>
<!DOCTYPE svg PUBLIC "-//W3C//DTD SVG 1.1//EN"
 "http://www.w3.org/Graphics/SVG/1.1/DTD/svg11.dtd">
<!-- Generated by graphviz version 10.0.1 (20240210.2158)
 -->
<!-- Title: and Pages: 1 -->
<svg width="329pt" height="82pt"
 viewBox="0.00 0.00 328.52 81.50" xmlns="http://www.w3.org/2000/svg" xmlns:xlink="http://www.w3.org/1999/xlink">

<svg id="main" version="1.1" xmlns="http://www.w3.org/2000/svg" xmlns:xlink="http://www.w3.org/1999/xlink" xml:space="preserve" onload="init(evt)">
<style type="text/css"><![CDATA[
.node, .edge {opacity: 0.7;}
.node.selected, .edge.selected {opacity: 1;}
.edge:hover path { stroke: red; }
.edge:hover polygon { stroke: red; fill: red; }
]]></style>
<script type="application/ecmascript" xlink:href="svg.min.js"/>
<svg id="graph" class="graph">
<g id="graph0" class="graph" transform="scale(1 1) rotate(0) translate(4 77.5)">
<title>and</title>
<!-- Node1 -->
<g id="Node000001" class="node">
<title>Node1</title>
<g id="a_Node000001"><a xlink:title=" ">
<polygon fill="#999999" stroke="#666666" points="35.02,-45.88 3.27,-45.88 3.27,-26.62 35.02,-26.62 35.02,-45.88"/>
<text text-anchor="middle" x="19.15" y="-32.38" font-family="Helvetica,sans-Serif" font-size="10.00">and</text>
</a>
</g>
</g>
<!-- Node1&#45;&gt;Node1 -->
<g id="edge1_Node000001_Node000001" class="edge">
<title>Node1&#45;&gt;Node1</title>
<g id="a_edge1_Node000001_Node000001"><a xlink:title=" ">
<path fill="none" stroke="#63b8ff" d="M3.32,-46.16C-3.91,-54.77 1.37,-63.88 19.15,-63.88 28.87,-63.88 34.85,-61.15 37.1,-57.28"/>
<polygon fill="#63b8ff" stroke="#63b8ff" points="40.57,-56.82 35.26,-47.65 33.7,-58.13 40.57,-56.82"/>
</a>
</g>
</g>
<!-- Node2 -->
<g id="Node000002" class="node">
<title>Node2</title>
<g id="a_Node000002"><a xlink:href="class_brick_1_1_math_1_1_internal_1_1_calculator.html#a5ba61361bf0695a285bbaefefc427191" target="_top" xlink:title=" ">
<polygon fill="white" stroke="#666666" points="169.52,-73.5 71.02,-73.5 71.02,-43 169.52,-43 169.52,-73.5"/>
<text text-anchor="start" x="79.02" y="-60" font-family="Helvetica,sans-Serif" font-size="10.00">Brick\Math\Internal</text>
<text text-anchor="middle" x="120.27" y="-48.75" font-family="Helvetica,sans-Serif" font-size="10.00">\Calculator\get</text>
</a>
</g>
</g>
<!-- Node1&#45;&gt;Node2 -->
<g id="edge2_Node000001_Node000002" class="edge">
<title>Node1&#45;&gt;Node2</title>
<g id="a_edge2_Node000001_Node000002"><a xlink:title=" ">
<path fill="none" stroke="#63b8ff" d="M35.2,-39.59C42.06,-41.11 50.66,-43.02 59.72,-45.03"/>
<polygon fill="#63b8ff" stroke="#63b8ff" points="58.93,-48.44 69.45,-47.19 60.45,-41.61 58.93,-48.44"/>
</a>
</g>
</g>
<!-- Node3 -->
<g id="Node000003" class="node">
<title>Node3</title>
<g id="a_Node000003"><a xlink:href="class_brick_1_1_math_1_1_big_integer.html#ad9bf5a7e7e57cde931b481360774a408" target="_top" xlink:title=" ">
<polygon fill="white" stroke="#666666" points="134.67,-24.88 105.87,-24.88 105.87,-5.63 134.67,-5.63 134.67,-24.88"/>
<text text-anchor="middle" x="120.27" y="-11.38" font-family="Helvetica,sans-Serif" font-size="10.00">of</text>
</a>
</g>
</g>
<!-- Node1&#45;&gt;Node3 -->
<g id="edge3_Node000001_Node000003" class="edge">
<title>Node1&#45;&gt;Node3</title>
<g id="a_edge3_Node000001_Node000003"><a xlink:title=" ">
<path fill="none" stroke="#63b8ff" d="M35.2,-33.06C50.93,-29.73 75.86,-24.45 94.5,-20.5"/>
<polygon fill="#63b8ff" stroke="#63b8ff" points="95.13,-23.94 104.19,-18.44 93.68,-17.09 95.13,-23.94"/>
</a>
</g>
</g>
<!-- Node4 -->
<g id="Node000004" class="node">
<title>Node4</title>
<g id="a_Node000004"><a xlink:href="class_brick_1_1_math_1_1_big_number.html#a7b4bac2966b6e735a4aaa27d8b6fe37d" target="_top" xlink:title=" ">
<polygon fill="white" stroke="#666666" points="320.52,-30.5 205.52,-30.5 205.52,0 320.52,0 320.52,-30.5"/>
<text text-anchor="start" x="213.52" y="-17" font-family="Helvetica,sans-Serif" font-size="10.00">Brick\Math\BigNumber</text>
<text text-anchor="middle" x="263.02" y="-5.75" font-family="Helvetica,sans-Serif" font-size="10.00">\toBigInteger</text>
</a>
</g>
</g>
<!-- Node3&#45;&gt;Node4 -->
<g id="edge4_Node000003_Node000004" class="edge">
<title>Node3&#45;&gt;Node4</title>
<g id="a_edge4_Node000003_Node000004"><a xlink:title=" ">
<path fill="none" stroke="#63b8ff" d="M135.02,-15.25C148.99,-15.25 171.69,-15.25 194.06,-15.25"/>
<polygon fill="#63b8ff" stroke="#63b8ff" points="193.81,-18.75 203.81,-15.25 193.81,-11.75 193.81,-18.75"/>
</a>
</g>
</g>
</g>
</svg>
</svg>

<style type='text/css'>
<![CDATA[
[data-mouse-over-selected='false'] { opacity: 0.7; }
[data-mouse-over-selected='true']  { opacity: 1.0; }
]]>
</style>
<script type="application/ecmascript"><![CDATA[
document.addEventListener('DOMContentLoaded', (event) => {
  highlightEdges();
  highlightAdjacentNodes();
});
]]></script>
</svg>
