<?xml version="1.0" encoding="UTF-8" standalone="no"?>
<!DOCTYPE svg PUBLIC "-//W3C//DTD SVG 1.1//EN"
 "http://www.w3.org/Graphics/SVG/1.1/DTD/svg11.dtd">
<!-- Generated by graphviz version 10.0.1 (20240210.2158)
 -->
<!-- Title: doDisplay Pages: 1 -->
<svg width="433pt" height="224pt"
 viewBox="0.00 0.00 433.25 223.88" xmlns="http://www.w3.org/2000/svg" xmlns:xlink="http://www.w3.org/1999/xlink">

<svg id="main" version="1.1" xmlns="http://www.w3.org/2000/svg" xmlns:xlink="http://www.w3.org/1999/xlink" xml:space="preserve" onload="init(evt)">
<style type="text/css"><![CDATA[
.node, .edge {opacity: 0.7;}
.node.selected, .edge.selected {opacity: 1;}
.edge:hover path { stroke: red; }
.edge:hover polygon { stroke: red; fill: red; }
]]></style>
<script type="application/ecmascript" xlink:href="svg.min.js"/>
<svg id="graph" class="graph">
<g id="graph0" class="graph" transform="scale(1 1) rotate(0) translate(4 219.88)">
<title>doDisplay</title>
<!-- Node1 -->
<g id="Node000001" class="node">
<title>Node1</title>
<g id="a_Node000001"><a xlink:title=" ">
<polygon fill="#999999" stroke="#666666" points="59.5,-141.88 0,-141.88 0,-122.62 59.5,-122.62 59.5,-141.88"/>
<text text-anchor="middle" x="29.75" y="-128.38" font-family="Helvetica,sans-Serif" font-size="10.00">doDisplay</text>
</a>
</g>
</g>
<!-- Node2 -->
<g id="Node000002" class="node">
<title>Node2</title>
<g id="a_Node000002"><a xlink:href="class_____twig_template__bb52ab9dc560c16f1ddd02a5eea506c2.html#a38152512ea69c5f598112d1e1064e4b5" target="_top" xlink:title=" ">
<polygon fill="white" stroke="#666666" points="212.75,-215.88 118,-215.88 118,-196.62 212.75,-196.62 212.75,-215.88"/>
<text text-anchor="middle" x="165.38" y="-202.38" font-family="Helvetica,sans-Serif" font-size="10.00">getSourceContext</text>
</a>
</g>
</g>
<!-- Node1&#45;&gt;Node2 -->
<g id="edge1_Node000001_Node000002" class="edge">
<title>Node1&#45;&gt;Node2</title>
<g id="a_edge1_Node000001_Node000002"><a xlink:title=" ">
<path fill="none" stroke="#63b8ff" d="M39.38,-142.1C50.93,-154.67 72.61,-176.21 95.5,-188.25 99.16,-190.18 103.04,-191.91 107.02,-193.46"/>
<polygon fill="#63b8ff" stroke="#63b8ff" points="105.69,-196.7 116.28,-196.67 107.98,-190.09 105.69,-196.7"/>
</a>
</g>
</g>
<!-- Node3 -->
<g id="Node000003" class="node">
<title>Node3</title>
<g id="a_Node000003"><a xlink:href="class_twig_1_1_template.html#a838c5ee902977925f3ed5872570053b9" target="_top" xlink:title=" ">
<polygon fill="white" stroke="#666666" points="235.25,-178.88 95.5,-178.88 95.5,-159.62 235.25,-159.62 235.25,-178.88"/>
<text text-anchor="middle" x="165.38" y="-165.38" font-family="Helvetica,sans-Serif" font-size="10.00">Twig\Template\loadTemplate</text>
</a>
</g>
</g>
<!-- Node1&#45;&gt;Node3 -->
<g id="edge2_Node000001_Node000003" class="edge">
<title>Node1&#45;&gt;Node3</title>
<g id="a_edge2_Node000001_Node000003"><a xlink:title=" ">
<path fill="none" stroke="#63b8ff" d="M59.71,-140.95C70.87,-144.25 83.76,-147.99 95.5,-151.25 101.45,-152.9 107.71,-154.59 113.92,-156.25"/>
<polygon fill="#63b8ff" stroke="#63b8ff" points="112.96,-159.61 123.52,-158.78 114.75,-152.85 112.96,-159.61"/>
</a>
</g>
</g>
<!-- Node4 -->
<g id="Node000004" class="node">
<title>Node4</title>
<g id="a_Node000004"><a xlink:href="_core_extension_8php.html#a01c03508433819ad3d9b5afd9ba53193" target="_top" xlink:title=" ">
<polygon fill="white" stroke="#666666" points="208.62,-141.88 122.12,-141.88 122.12,-122.62 208.62,-122.62 208.62,-141.88"/>
<text text-anchor="middle" x="165.38" y="-128.38" font-family="Helvetica,sans-Serif" font-size="10.00">twig_call_macro</text>
</a>
</g>
</g>
<!-- Node1&#45;&gt;Node4 -->
<g id="edge3_Node000001_Node000004" class="edge">
<title>Node1&#45;&gt;Node4</title>
<g id="a_edge3_Node000001_Node000004"><a xlink:title=" ">
<path fill="none" stroke="#63b8ff" d="M59.74,-132.25C74.6,-132.25 93.19,-132.25 110.55,-132.25"/>
<polygon fill="#63b8ff" stroke="#63b8ff" points="110.22,-135.75 120.22,-132.25 110.22,-128.75 110.22,-135.75"/>
</a>
</g>
</g>
<!-- Node5 -->
<g id="Node000005" class="node">
<title>Node5</title>
<g id="a_Node000005"><a xlink:href="_escaper_extension_8php.html#aabeb5b51fb981707d997d1c588d7c509" target="_top" xlink:title=" ">
<polygon fill="white" stroke="#666666" points="212.75,-104.88 118,-104.88 118,-85.62 212.75,-85.62 212.75,-104.88"/>
<text text-anchor="middle" x="165.38" y="-91.38" font-family="Helvetica,sans-Serif" font-size="10.00">twig_escape_filter</text>
</a>
</g>
</g>
<!-- Node1&#45;&gt;Node5 -->
<g id="edge4_Node000001_Node000005" class="edge">
<title>Node1&#45;&gt;Node5</title>
<g id="a_edge4_Node000001_Node000005"><a xlink:title=" ">
<path fill="none" stroke="#63b8ff" d="M59.71,-123.55C70.87,-120.25 83.76,-116.51 95.5,-113.25 101.45,-111.6 107.71,-109.91 113.92,-108.25"/>
<polygon fill="#63b8ff" stroke="#63b8ff" points="114.75,-111.65 123.52,-105.72 112.96,-104.89 114.75,-111.65"/>
</a>
</g>
</g>
<!-- Node9 -->
<g id="Node000009" class="node">
<title>Node9</title>
<g id="a_Node000009"><a xlink:href="_core_extension_8php.html#aeb74e277ae38926f0b4c91f83c580705" target="_top" xlink:title=" ">
<polygon fill="white" stroke="#666666" points="212,-67.88 118.75,-67.88 118.75,-48.62 212,-48.62 212,-67.88"/>
<text text-anchor="middle" x="165.38" y="-54.38" font-family="Helvetica,sans-Serif" font-size="10.00">twig_get_attribute</text>
</a>
</g>
</g>
<!-- Node1&#45;&gt;Node9 -->
<g id="edge8_Node000001_Node000009" class="edge">
<title>Node1&#45;&gt;Node9</title>
<g id="a_edge8_Node000001_Node000009"><a xlink:title=" ">
<path fill="none" stroke="#63b8ff" d="M39.38,-122.4C50.93,-109.83 72.61,-88.29 95.5,-76.25 99.39,-74.2 103.52,-72.38 107.76,-70.75"/>
<polygon fill="#63b8ff" stroke="#63b8ff" points="108.67,-74.14 117.01,-67.6 106.41,-67.52 108.67,-74.14"/>
</a>
</g>
</g>
<!-- Node6 -->
<g id="Node000006" class="node">
<title>Node6</title>
<g id="a_Node000006"><a xlink:href="class_twig_1_1_environment.html#abca2d528da8311b6fcfe040768cbaa24" target="_top" xlink:title=" ">
<polygon fill="white" stroke="#666666" points="420.75,-141.88 275.75,-141.88 275.75,-122.62 420.75,-122.62 420.75,-141.88"/>
<text text-anchor="middle" x="348.25" y="-128.38" font-family="Helvetica,sans-Serif" font-size="10.00">Twig\Environment\getCharset</text>
</a>
</g>
</g>
<!-- Node5&#45;&gt;Node6 -->
<g id="edge5_Node000005_Node000006" class="edge">
<title>Node5&#45;&gt;Node6</title>
<g id="a_edge5_Node000005_Node000006"><a xlink:title=" ">
<path fill="none" stroke="#63b8ff" d="M212.95,-104.78C235.45,-109.38 262.73,-114.96 286.81,-119.89"/>
<polygon fill="#63b8ff" stroke="#63b8ff" points="286,-123.29 296.5,-121.87 287.4,-116.43 286,-123.29"/>
</a>
</g>
</g>
<!-- Node7 -->
<g id="Node000007" class="node">
<title>Node7</title>
<g id="a_Node000007"><a xlink:href="class_twig_1_1_environment.html#a5023c2a5ed30e298f55126721092f13d" target="_top" xlink:title=" ">
<polygon fill="white" stroke="#666666" points="425.25,-67.88 271.25,-67.88 271.25,-48.62 425.25,-48.62 425.25,-67.88"/>
<text text-anchor="middle" x="348.25" y="-54.38" font-family="Helvetica,sans-Serif" font-size="10.00">Twig\Environment\getExtension</text>
</a>
</g>
</g>
<!-- Node5&#45;&gt;Node7 -->
<g id="edge6_Node000005_Node000007" class="edge">
<title>Node5&#45;&gt;Node7</title>
<g id="a_edge6_Node000005_Node000007"><a xlink:title=" ">
<path fill="none" stroke="#63b8ff" d="M212.95,-85.72C235.45,-81.12 262.73,-75.54 286.81,-70.61"/>
<polygon fill="#63b8ff" stroke="#63b8ff" points="287.4,-74.07 296.5,-68.63 286,-67.21 287.4,-74.07"/>
</a>
</g>
</g>
<!-- Node8 -->
<g id="Node000008" class="node">
<title>Node8</title>
<g id="a_Node000008"><a xlink:href="_core_extension_8php.html#ae288325a1d8fc4e036d1e828d7fac1f6" target="_top" xlink:title=" ">
<polygon fill="white" stroke="#666666" points="406.12,-104.88 290.38,-104.88 290.38,-85.62 406.12,-85.62 406.12,-104.88"/>
<text text-anchor="middle" x="348.25" y="-91.38" font-family="Helvetica,sans-Serif" font-size="10.00">twig_convert_encoding</text>
</a>
</g>
</g>
<!-- Node5&#45;&gt;Node8 -->
<g id="edge7_Node000005_Node000008" class="edge">
<title>Node5&#45;&gt;Node8</title>
<g id="a_edge7_Node000005_Node000008"><a xlink:title=" ">
<path fill="none" stroke="#63b8ff" d="M212.95,-95.25C233.01,-95.25 256.86,-95.25 278.86,-95.25"/>
<polygon fill="#63b8ff" stroke="#63b8ff" points="278.65,-98.75 288.65,-95.25 278.65,-91.75 278.65,-98.75"/>
</a>
</g>
</g>
<!-- Node9&#45;&gt;Node7 -->
<g id="edge9_Node000009_Node000007" class="edge">
<title>Node9&#45;&gt;Node7</title>
<g id="a_edge9_Node000009_Node000007"><a xlink:title=" ">
<path fill="none" stroke="#63b8ff" d="M212.49,-58.25C226.94,-58.25 243.41,-58.25 259.74,-58.25"/>
<polygon fill="#63b8ff" stroke="#63b8ff" points="259.49,-61.75 269.49,-58.25 259.49,-54.75 259.49,-61.75"/>
</a>
</g>
</g>
<!-- Node10 -->
<g id="Node000010" class="node">
<title>Node10</title>
<g id="a_Node000010"><a xlink:href="class_twig_1_1_environment.html#ab39d5897ee5022ecc92032d769b9c60c" target="_top" xlink:title=" ">
<polygon fill="white" stroke="#666666" points="412.12,-30.5 284.38,-30.5 284.38,0 412.12,0 412.12,-30.5"/>
<text text-anchor="start" x="292.38" y="-17" font-family="Helvetica,sans-Serif" font-size="10.00">Twig\Environment\isStrict</text>
<text text-anchor="middle" x="348.25" y="-5.75" font-family="Helvetica,sans-Serif" font-size="10.00">Variables</text>
</a>
</g>
</g>
<!-- Node9&#45;&gt;Node10 -->
<g id="edge10_Node000009_Node000010" class="edge">
<title>Node9&#45;&gt;Node10</title>
<g id="a_edge10_Node000009_Node000010"><a xlink:title=" ">
<path fill="none" stroke="#63b8ff" d="M208.78,-48.17C227.99,-43.6 251.26,-38.07 273.21,-32.85"/>
<polygon fill="#63b8ff" stroke="#63b8ff" points="273.8,-36.31 282.72,-30.59 272.18,-29.5 273.8,-36.31"/>
</a>
</g>
</g>
</g>
</svg>
</svg>

<style type='text/css'>
<![CDATA[
[data-mouse-over-selected='false'] { opacity: 0.7; }
[data-mouse-over-selected='true']  { opacity: 1.0; }
]]>
</style>
<script type="application/ecmascript"><![CDATA[
document.addEventListener('DOMContentLoaded', (event) => {
  highlightEdges();
  highlightAdjacentNodes();
});
]]></script>
</svg>
