<?xml version="1.0" encoding="UTF-8" standalone="no"?>
<!DOCTYPE svg PUBLIC "-//W3C//DTD SVG 1.1//EN"
 "http://www.w3.org/Graphics/SVG/1.1/DTD/svg11.dtd">
<!-- Generated by graphviz version 10.0.1 (20240210.2158)
 -->
<!-- Title: Mbox Pages: 1 -->
<svg width="246pt" height="1015pt"
 viewBox="0.00 0.00 245.50 1015.00" xmlns="http://www.w3.org/2000/svg" xmlns:xlink="http://www.w3.org/1999/xlink">
<g id="graph0" class="graph" transform="scale(1 1) rotate(0) translate(4 1011)">
<title>Mbox</title>
<!-- Node1 -->
<g id="Node000001" class="node">
<title>Node1</title>
<g id="a_Node000001"><a xlink:title=" ">
<polygon fill="#999999" stroke="none" points="178.5,-620 43.5,-620 43.5,-238 178.5,-238 178.5,-620"/>
<text text-anchor="start" x="99" y="-606.5" font-family="Helvetica,sans-Serif" font-size="10.00">Mbox</text>
<text text-anchor="start" x="47.88" y="-591.5" font-family="Helvetica,sans-Serif" font-size="10.00">#</text>
<text text-anchor="start" x="57.5" y="-591.5" font-family="Helvetica,sans-Serif" font-size="10.00">$fh</text>
<text text-anchor="start" x="47.88" y="-576.5" font-family="Helvetica,sans-Serif" font-size="10.00">#</text>
<text text-anchor="start" x="57.5" y="-576.5" font-family="Helvetica,sans-Serif" font-size="10.00">$filename</text>
<text text-anchor="start" x="47.88" y="-561.5" font-family="Helvetica,sans-Serif" font-size="10.00">#</text>
<text text-anchor="start" x="57.5" y="-561.5" font-family="Helvetica,sans-Serif" font-size="10.00">$filemtime</text>
<text text-anchor="start" x="47.88" y="-546.5" font-family="Helvetica,sans-Serif" font-size="10.00">#</text>
<text text-anchor="start" x="57.5" y="-546.5" font-family="Helvetica,sans-Serif" font-size="10.00">$positions</text>
<text text-anchor="start" x="47.88" y="-531.5" font-family="Helvetica,sans-Serif" font-size="10.00">#</text>
<text text-anchor="start" x="57.5" y="-531.5" font-family="Helvetica,sans-Serif" font-size="10.00">$messageClass</text>
<text text-anchor="start" x="47.88" y="-516.5" font-family="Helvetica,sans-Serif" font-size="10.00">#</text>
<text text-anchor="start" x="57.5" y="-516.5" font-family="Helvetica,sans-Serif" font-size="10.00">$messageEOL</text>
<text text-anchor="start" x="47.5" y="-501.5" font-family="Helvetica,sans-Serif" font-size="10.00">+</text>
<text text-anchor="start" x="57.5" y="-501.5" font-family="Helvetica,sans-Serif" font-size="10.00">countMessages()</text>
<text text-anchor="start" x="47.5" y="-486.5" font-family="Helvetica,sans-Serif" font-size="10.00">+</text>
<text text-anchor="start" x="57.5" y="-486.5" font-family="Helvetica,sans-Serif" font-size="10.00">getSize($id=0)</text>
<text text-anchor="start" x="47.5" y="-471.5" font-family="Helvetica,sans-Serif" font-size="10.00">+</text>
<text text-anchor="start" x="57.5" y="-471.5" font-family="Helvetica,sans-Serif" font-size="10.00">getMessage($id)</text>
<text text-anchor="start" x="47.5" y="-456.5" font-family="Helvetica,sans-Serif" font-size="10.00">+</text>
<text text-anchor="start" x="57.5" y="-456.5" font-family="Helvetica,sans-Serif" font-size="10.00">getRawHeader($id,</text>
<text text-anchor="start" x="57.5" y="-445.25" font-family="Helvetica,sans-Serif" font-size="10.00"> $part=null, $topLines=0)</text>
<text text-anchor="start" x="47.5" y="-430.5" font-family="Helvetica,sans-Serif" font-size="10.00">+</text>
<text text-anchor="start" x="57.5" y="-430.5" font-family="Helvetica,sans-Serif" font-size="10.00">getRawContent($id,</text>
<text text-anchor="start" x="57.5" y="-419.25" font-family="Helvetica,sans-Serif" font-size="10.00"> $part=null)</text>
<text text-anchor="start" x="47.5" y="-404.5" font-family="Helvetica,sans-Serif" font-size="10.00">+</text>
<text text-anchor="start" x="57.5" y="-404.5" font-family="Helvetica,sans-Serif" font-size="10.00">__construct($params)</text>
<text text-anchor="start" x="47.5" y="-389.5" font-family="Helvetica,sans-Serif" font-size="10.00">+</text>
<text text-anchor="start" x="57.5" y="-389.5" font-family="Helvetica,sans-Serif" font-size="10.00">close()</text>
<text text-anchor="start" x="47.5" y="-374.5" font-family="Helvetica,sans-Serif" font-size="10.00">+</text>
<text text-anchor="start" x="57.5" y="-374.5" font-family="Helvetica,sans-Serif" font-size="10.00">noop()</text>
<text text-anchor="start" x="47.5" y="-359.5" font-family="Helvetica,sans-Serif" font-size="10.00">+</text>
<text text-anchor="start" x="57.5" y="-359.5" font-family="Helvetica,sans-Serif" font-size="10.00">removeMessage($id)</text>
<text text-anchor="start" x="47.5" y="-344.5" font-family="Helvetica,sans-Serif" font-size="10.00">+</text>
<text text-anchor="start" x="57.5" y="-344.5" font-family="Helvetica,sans-Serif" font-size="10.00">getUniqueId($id=null)</text>
<text text-anchor="start" x="47.5" y="-329.5" font-family="Helvetica,sans-Serif" font-size="10.00">+</text>
<text text-anchor="start" x="57.5" y="-329.5" font-family="Helvetica,sans-Serif" font-size="10.00">getNumberByUniqueId($id)</text>
<text text-anchor="start" x="47.5" y="-314.5" font-family="Helvetica,sans-Serif" font-size="10.00">+</text>
<text text-anchor="start" x="57.5" y="-314.5" font-family="Helvetica,sans-Serif" font-size="10.00">__sleep()</text>
<text text-anchor="start" x="47.5" y="-299.5" font-family="Helvetica,sans-Serif" font-size="10.00">+</text>
<text text-anchor="start" x="57.5" y="-299.5" font-family="Helvetica,sans-Serif" font-size="10.00">__wakeup()</text>
<text text-anchor="start" x="47.88" y="-284.5" font-family="Helvetica,sans-Serif" font-size="10.00">#</text>
<text text-anchor="start" x="57.5" y="-284.5" font-family="Helvetica,sans-Serif" font-size="10.00">getPos($id)</text>
<text text-anchor="start" x="47.88" y="-269.5" font-family="Helvetica,sans-Serif" font-size="10.00">#</text>
<text text-anchor="start" x="57.5" y="-269.5" font-family="Helvetica,sans-Serif" font-size="10.00">isMboxFile($file,</text>
<text text-anchor="start" x="57.5" y="-258.25" font-family="Helvetica,sans-Serif" font-size="10.00"> $fileIsString=true)</text>
<text text-anchor="start" x="47.88" y="-243.5" font-family="Helvetica,sans-Serif" font-size="10.00">#</text>
<text text-anchor="start" x="57.5" y="-243.5" font-family="Helvetica,sans-Serif" font-size="10.00">openMboxFile($filename)</text>
<polygon fill="#666666" stroke="#666666" points="43.5,-603 43.5,-603 178.5,-603 178.5,-603 43.5,-603"/>
<polygon fill="#666666" stroke="#666666" points="43.5,-513 43.5,-513 55.5,-513 55.5,-513 43.5,-513"/>
<polygon fill="#666666" stroke="#666666" points="55.5,-513 55.5,-513 178.5,-513 178.5,-513 55.5,-513"/>
<polygon fill="none" stroke="#666666" points="43.5,-238 43.5,-620 178.5,-620 178.5,-238 43.5,-238"/>
</a>
</g>
</g>
<!-- Node6 -->
<g id="Node000006" class="node">
<title>Node6</title>
<g id="a_Node000006"><a xlink:href="class_laminas_1_1_mail_1_1_storage_1_1_folder_1_1_mbox.html" target="_top" xlink:title=" ">
<polygon fill="white" stroke="none" points="178,-202 44,-202 44,0 178,0 178,-202"/>
<text text-anchor="start" x="99" y="-188.5" font-family="Helvetica,sans-Serif" font-size="10.00">Mbox</text>
<text text-anchor="start" x="48.38" y="-173.5" font-family="Helvetica,sans-Serif" font-size="10.00">#</text>
<text text-anchor="start" x="58" y="-173.5" font-family="Helvetica,sans-Serif" font-size="10.00">$rootFolder</text>
<text text-anchor="start" x="48.38" y="-158.5" font-family="Helvetica,sans-Serif" font-size="10.00">#</text>
<text text-anchor="start" x="58" y="-158.5" font-family="Helvetica,sans-Serif" font-size="10.00">$rootdir</text>
<text text-anchor="start" x="48.38" y="-143.5" font-family="Helvetica,sans-Serif" font-size="10.00">#</text>
<text text-anchor="start" x="58" y="-143.5" font-family="Helvetica,sans-Serif" font-size="10.00">$currentFolder</text>
<text text-anchor="start" x="48" y="-128.5" font-family="Helvetica,sans-Serif" font-size="10.00">+</text>
<text text-anchor="start" x="58" y="-128.5" font-family="Helvetica,sans-Serif" font-size="10.00">__construct($params)</text>
<text text-anchor="start" x="48" y="-113.5" font-family="Helvetica,sans-Serif" font-size="10.00">+</text>
<text text-anchor="start" x="58" y="-113.5" font-family="Helvetica,sans-Serif" font-size="10.00">getFolders($rootFolder</text>
<text text-anchor="start" x="58" y="-102.25" font-family="Helvetica,sans-Serif" font-size="10.00">=null)</text>
<text text-anchor="start" x="48" y="-87.5" font-family="Helvetica,sans-Serif" font-size="10.00">+</text>
<text text-anchor="start" x="58" y="-87.5" font-family="Helvetica,sans-Serif" font-size="10.00">selectFolder($globalName)</text>
<text text-anchor="start" x="48" y="-72.5" font-family="Helvetica,sans-Serif" font-size="10.00">+</text>
<text text-anchor="start" x="58" y="-72.5" font-family="Helvetica,sans-Serif" font-size="10.00">getCurrentFolder()</text>
<text text-anchor="start" x="48" y="-57.5" font-family="Helvetica,sans-Serif" font-size="10.00">+</text>
<text text-anchor="start" x="58" y="-57.5" font-family="Helvetica,sans-Serif" font-size="10.00">__sleep()</text>
<text text-anchor="start" x="48" y="-42.5" font-family="Helvetica,sans-Serif" font-size="10.00">+</text>
<text text-anchor="start" x="58" y="-42.5" font-family="Helvetica,sans-Serif" font-size="10.00">__wakeup()</text>
<text text-anchor="start" x="48.38" y="-27.5" font-family="Helvetica,sans-Serif" font-size="10.00">#</text>
<text text-anchor="start" x="58" y="-27.5" font-family="Helvetica,sans-Serif" font-size="10.00">buildFolderTree($current</text>
<text text-anchor="start" x="58" y="-16.25" font-family="Helvetica,sans-Serif" font-size="10.00">Dir, $parentFolder=null,</text>
<text text-anchor="start" x="58" y="-5" font-family="Helvetica,sans-Serif" font-size="10.00"> $parentGlobalName=&#39;&#39;)</text>
<polygon fill="#666666" stroke="#666666" points="44,-185 44,-185 178,-185 178,-185 44,-185"/>
<polygon fill="#666666" stroke="#666666" points="44,-140 44,-140 56,-140 56,-140 44,-140"/>
<polygon fill="#666666" stroke="#666666" points="56,-140 56,-140 178,-140 178,-140 56,-140"/>
<polygon fill="none" stroke="#666666" points="44,0 44,-202 178,-202 178,0 44,0"/>
</a>
</g>
</g>
<!-- Node1&#45;&gt;Node6 -->
<g id="edge5_Node000001_Node000006" class="edge">
<title>Node1&#45;&gt;Node6</title>
<g id="a_edge5_Node000001_Node000006"><a xlink:title=" ">
<path fill="none" stroke="#63b8ff" d="M111,-227.04C111,-218.48 111,-210.07 111,-201.91"/>
<polygon fill="none" stroke="#63b8ff" points="107.5,-226.85 111,-236.85 114.5,-226.85 107.5,-226.85"/>
</a>
</g>
</g>
<!-- Node2 -->
<g id="Node000002" class="node">
<title>Node2</title>
<g id="a_Node000002"><a xlink:href="class_laminas_1_1_mail_1_1_storage_1_1_abstract_storage.html" target="_top" xlink:title=" ">
<polygon fill="white" stroke="none" points="174,-922 48,-922 48,-656 174,-656 174,-922"/>
<text text-anchor="start" x="75.75" y="-908.5" font-family="Helvetica,sans-Serif" font-size="10.00">AbstractStorage</text>
<text text-anchor="start" x="52.38" y="-893.5" font-family="Helvetica,sans-Serif" font-size="10.00">#</text>
<text text-anchor="start" x="62" y="-893.5" font-family="Helvetica,sans-Serif" font-size="10.00">$has</text>
<text text-anchor="start" x="52.38" y="-878.5" font-family="Helvetica,sans-Serif" font-size="10.00">#</text>
<text text-anchor="start" x="62" y="-878.5" font-family="Helvetica,sans-Serif" font-size="10.00">$iterationPos</text>
<text text-anchor="start" x="52.38" y="-863.5" font-family="Helvetica,sans-Serif" font-size="10.00">#</text>
<text text-anchor="start" x="62" y="-863.5" font-family="Helvetica,sans-Serif" font-size="10.00">$iterationMax</text>
<text text-anchor="start" x="52.38" y="-848.5" font-family="Helvetica,sans-Serif" font-size="10.00">#</text>
<text text-anchor="start" x="62" y="-848.5" font-family="Helvetica,sans-Serif" font-size="10.00">$messageClass</text>
<text text-anchor="start" x="52" y="-833.5" font-family="Helvetica,sans-Serif" font-size="10.00">+</text>
<text text-anchor="start" x="62" y="-833.5" font-family="Helvetica,sans-Serif" font-size="10.00">__get($var)</text>
<text text-anchor="start" x="52" y="-818.5" font-family="Helvetica,sans-Serif" font-size="10.00">+</text>
<text text-anchor="start" x="62" y="-818.5" font-family="Helvetica,sans-Serif" font-size="10.00">getCapabilities()</text>
<text text-anchor="start" x="52" y="-803.5" font-family="Helvetica,sans-Serif" font-size="10.00">+</text>
<text text-anchor="start" x="62" y="-803.5" font-family="Helvetica,sans-Serif" font-size="10.00">countMessages()</text>
<text text-anchor="start" x="52" y="-788.5" font-family="Helvetica,sans-Serif" font-size="10.00">+</text>
<text text-anchor="start" x="62" y="-788.5" font-family="Helvetica,sans-Serif" font-size="10.00">getSize($id=0)</text>
<text text-anchor="start" x="52" y="-773.5" font-family="Helvetica,sans-Serif" font-size="10.00">+</text>
<text text-anchor="start" x="62" y="-773.5" font-family="Helvetica,sans-Serif" font-size="10.00">getMessage($id)</text>
<text text-anchor="start" x="52" y="-758.5" font-family="Helvetica,sans-Serif" font-size="10.00">+</text>
<text text-anchor="start" x="62" y="-758.5" font-family="Helvetica,sans-Serif" font-size="10.00">getRawHeader($id,</text>
<text text-anchor="start" x="62" y="-747.25" font-family="Helvetica,sans-Serif" font-size="10.00"> $part=null, $topLines=0)</text>
<text text-anchor="start" x="52" y="-732.5" font-family="Helvetica,sans-Serif" font-size="10.00">+</text>
<text text-anchor="start" x="62" y="-732.5" font-family="Helvetica,sans-Serif" font-size="10.00">getRawContent($id,</text>
<text text-anchor="start" x="62" y="-721.25" font-family="Helvetica,sans-Serif" font-size="10.00"> $part=null)</text>
<text text-anchor="start" x="52" y="-706.5" font-family="Helvetica,sans-Serif" font-size="10.00">+</text>
<text text-anchor="start" x="62" y="-706.5" font-family="Helvetica,sans-Serif" font-size="10.00">__construct($params)</text>
<text text-anchor="start" x="52" y="-691.5" font-family="Helvetica,sans-Serif" font-size="10.00">+</text>
<text text-anchor="start" x="62" y="-691.5" font-family="Helvetica,sans-Serif" font-size="10.00">__destruct()</text>
<text text-anchor="start" x="52" y="-676.5" font-family="Helvetica,sans-Serif" font-size="10.00">+</text>
<text text-anchor="start" x="62" y="-676.5" font-family="Helvetica,sans-Serif" font-size="10.00">close()</text>
<text text-anchor="start" x="62" y="-661.5" font-family="Helvetica,sans-Serif" font-size="10.00">et 15 de plus...</text>
<polygon fill="#666666" stroke="#666666" points="48,-905 48,-905 174,-905 174,-905 48,-905"/>
<polygon fill="#666666" stroke="#666666" points="48,-845 48,-845 60,-845 60,-845 48,-845"/>
<polygon fill="#666666" stroke="#666666" points="60,-845 60,-845 174,-845 174,-845 60,-845"/>
<polygon fill="none" stroke="#666666" points="48,-656 48,-922 174,-922 174,-656 48,-656"/>
</a>
</g>
</g>
<!-- Node2&#45;&gt;Node1 -->
<g id="edge1_Node000001_Node000002" class="edge">
<title>Node2&#45;&gt;Node1</title>
<g id="a_edge1_Node000001_Node000002"><a xlink:title=" ">
<path fill="none" stroke="#63b8ff" d="M111,-644.74C111,-636.56 111,-628.28 111,-619.97"/>
<polygon fill="none" stroke="#63b8ff" points="107.5,-644.71 111,-654.71 114.5,-644.71 107.5,-644.71"/>
</a>
</g>
</g>
<!-- Node3 -->
<g id="Node000003" class="node">
<title>Node3</title>
<g id="a_Node000003"><a xlink:title=" ">
<polygon fill="white" stroke="none" points="66,-1007 0,-1007 0,-958 66,-958 66,-1007"/>
<text text-anchor="start" x="4.88" y="-993.5" font-family="Helvetica,sans-Serif" font-size="10.00">ArrayAccess</text>
<text text-anchor="start" x="31.5" y="-978.5" font-family="Helvetica,sans-Serif" font-size="10.00"> </text>
<text text-anchor="start" x="31.5" y="-963.5" font-family="Helvetica,sans-Serif" font-size="10.00"> </text>
<polygon fill="#666666" stroke="#666666" points="0,-990 0,-990 66,-990 66,-990 0,-990"/>
<polygon fill="#666666" stroke="#666666" points="0,-975 0,-975 66,-975 66,-975 0,-975"/>
<polygon fill="none" stroke="#666666" points="0,-958 0,-1007 66,-1007 66,-958 0,-958"/>
</a>
</g>
</g>
<!-- Node3&#45;&gt;Node2 -->
<g id="edge2_Node000002_Node000003" class="edge">
<title>Node3&#45;&gt;Node2</title>
<g id="a_edge2_Node000002_Node000003"><a xlink:title=" ">
<path fill="none" stroke="#63b8ff" d="M46.88,-947.42C50.02,-939.71 53.55,-931.06 57.28,-921.89"/>
<polygon fill="none" stroke="#63b8ff" points="43.67,-946.04 43.14,-956.62 50.15,-948.68 43.67,-946.04"/>
</a>
</g>
</g>
<!-- Node4 -->
<g id="Node000004" class="node">
<title>Node4</title>
<g id="a_Node000004"><a xlink:title=" ">
<polygon fill="white" stroke="none" points="138,-1007 84,-1007 84,-958 138,-958 138,-1007"/>
<text text-anchor="start" x="88.88" y="-993.5" font-family="Helvetica,sans-Serif" font-size="10.00">Countable</text>
<text text-anchor="start" x="109.5" y="-978.5" font-family="Helvetica,sans-Serif" font-size="10.00"> </text>
<text text-anchor="start" x="109.5" y="-963.5" font-family="Helvetica,sans-Serif" font-size="10.00"> </text>
<polygon fill="#666666" stroke="#666666" points="84,-990 84,-990 138,-990 138,-990 84,-990"/>
<polygon fill="#666666" stroke="#666666" points="84,-975 84,-975 138,-975 138,-975 84,-975"/>
<polygon fill="none" stroke="#666666" points="84,-958 84,-1007 138,-1007 138,-958 84,-958"/>
</a>
</g>
</g>
<!-- Node4&#45;&gt;Node2 -->
<g id="edge3_Node000002_Node000004" class="edge">
<title>Node4&#45;&gt;Node2</title>
<g id="a_edge3_Node000002_Node000004"><a xlink:title=" ">
<path fill="none" stroke="#63b8ff" d="M111,-946.61C111,-939.1 111,-930.74 111,-921.89"/>
<polygon fill="none" stroke="#63b8ff" points="107.5,-946.5 111,-956.5 114.5,-946.5 107.5,-946.5"/>
</a>
</g>
</g>
<!-- Node5 -->
<g id="Node000005" class="node">
<title>Node5</title>
<g id="a_Node000005"><a xlink:title=" ">
<polygon fill="white" stroke="none" points="237.5,-1007 156.5,-1007 156.5,-958 237.5,-958 237.5,-1007"/>
<text text-anchor="start" x="161.38" y="-993.5" font-family="Helvetica,sans-Serif" font-size="10.00">SeekableIterator</text>
<text text-anchor="start" x="195.5" y="-978.5" font-family="Helvetica,sans-Serif" font-size="10.00"> </text>
<text text-anchor="start" x="195.5" y="-963.5" font-family="Helvetica,sans-Serif" font-size="10.00"> </text>
<polygon fill="#666666" stroke="#666666" points="156.5,-990 156.5,-990 237.5,-990 237.5,-990 156.5,-990"/>
<polygon fill="#666666" stroke="#666666" points="156.5,-975 156.5,-975 237.5,-975 237.5,-975 156.5,-975"/>
<polygon fill="none" stroke="#666666" points="156.5,-958 156.5,-1007 237.5,-1007 237.5,-958 156.5,-958"/>
</a>
</g>
</g>
<!-- Node5&#45;&gt;Node2 -->
<g id="edge4_Node000002_Node000005" class="edge">
<title>Node5&#45;&gt;Node2</title>
<g id="a_edge4_Node000002_Node000005"><a xlink:title=" ">
<path fill="none" stroke="#63b8ff" d="M181.82,-947.69C178.32,-939.91 174.4,-931.17 170.23,-921.89"/>
<polygon fill="none" stroke="#63b8ff" points="178.55,-948.95 185.83,-956.64 184.93,-946.08 178.55,-948.95"/>
</a>
</g>
</g>
</g>
</svg>
