<?xml version="1.0" encoding="UTF-8" standalone="no"?>
<!DOCTYPE svg PUBLIC "-//W3C//DTD SVG 1.1//EN"
 "http://www.w3.org/Graphics/SVG/1.1/DTD/svg11.dtd">
<!-- Generated by graphviz version 10.0.1 (20240210.2158)
 -->
<!-- Title: is_valid_point Pages: 1 -->
<!--zoomable 315 -->

<svg id="main" version="1.1" xmlns="http://www.w3.org/2000/svg" xmlns:xlink="http://www.w3.org/1999/xlink" xml:space="preserve" onload="init(evt)">
<style type="text/css"><![CDATA[
.node, .edge {opacity: 0.7;}
.node.selected, .edge.selected {opacity: 1;}
.edge:hover path { stroke: red; }
.edge:hover polygon { stroke: red; fill: red; }
]]></style>

<defs>
  <circle id="rim" cx="0" cy="0" r="7"/>
  <circle id="rim2" cx="0" cy="0" r="3.5"/>
  <g id="zoomPlus">
    <use xlink:href="#rim" fill="#404040"><set attributeName="fill" to="#808080" begin="zoomplus.mouseover" end="zoomplus.mouseout"/></use>
    <path d="M-4,0h8M0,-4v8" fill="none" stroke="white" stroke-width="1.5" pointer-events="none"/>
  </g>
  <g id="zoomMin">
    <use xlink:href="#rim" fill="#404040"><set attributeName="fill" to="#808080" begin="zoomminus.mouseover" end="zoomminus.mouseout"/></use>
    <path d="M-4,0h8" fill="none" stroke="white" stroke-width="1.5" pointer-events="none"/>
  </g>
  <g id="arrowUp" transform="translate(30 24)">
    <use xlink:href="#rim"/>
    <path pointer-events="none" fill="none" stroke="white" stroke-width="1.5" d="M0,-3.0v7 M-2.5,-0.5L0,-3.0L2.5,-0.5"/>
  </g>
  <g id="arrowRight" transform="rotate(90) translate(36 -43)">
    <use xlink:href="#rim"/>
    <path pointer-events="none" fill="none" stroke="white" stroke-width="1.5" d="M0,-3.0v7 M-2.5,-0.5L0,-3.0L2.5,-0.5"/>
  </g>
  <g id="arrowDown" transform="rotate(180) translate(-30 -48)">
    <use xlink:href="#rim"/>
    <path pointer-events="none" fill="none" stroke="white" stroke-width="1.5" d="M0,-3.0v7 M-2.5,-0.5L0,-3.0L2.5,-0.5"/>
  </g>
  <g id="arrowLeft" transform="rotate(270) translate(-36 17)">
    <use xlink:href="#rim"/>
    <path pointer-events="none" fill="none" stroke="white" stroke-width="1.5" d="M0,-3.0v7 M-2.5,-0.5L0,-3.0L2.5,-0.5"/>
  </g>
  <g id="resetDef">
    <use xlink:href="#rim2" fill="#404040"><set attributeName="fill" to="#808080" begin="reset.mouseover" end="reset.mouseout"/></use>
  </g>
</defs>
<script type="application/ecmascript">
var viewWidth = 1220;
var viewHeight = 315;
var sectionId = 'dynsection-12';
</script>
<script type="application/ecmascript" xlink:href="svg.min.js"/>
<svg id="graph" class="graph">
<g id="viewport">
<title>is_valid_point</title>
<!-- Node1 -->
<g id="Node000001" class="node">
<title>Node1</title>
<g id="a_Node000001"><a xlink:title=" ">
<polygon fill="#999999" stroke="#666666" points="75.25,-162.88 0,-162.88 0,-143.62 75.25,-143.62 75.25,-162.88"/>
<text text-anchor="middle" x="37.62" y="-149.38" font-family="Helvetica,sans-Serif" font-size="10.00">is_valid_point</text>
</a>
</g>
</g>
<!-- Node2 -->
<g id="Node000002" class="node">
<title>Node2</title>
<g id="a_Node000002"><a xlink:href="class_paragon_i_e___sodium___core___ristretto255.html#aa7bb6548261c9912b833f16d9e0784ca" target="_top" xlink:title=" ">
<polygon fill="white" stroke="#666666" points="224.75,-162.88 111.25,-162.88 111.25,-143.62 224.75,-143.62 224.75,-162.88"/>
<text text-anchor="middle" x="168" y="-149.38" font-family="Helvetica,sans-Serif" font-size="10.00">ristretto255_frombytes</text>
</a>
</g>
</g>
<!-- Node1&#45;&gt;Node2 -->
<g id="edge1_Node000001_Node000002" class="edge">
<title>Node1&#45;&gt;Node2</title>
<g id="a_edge1_Node000001_Node000002"><a xlink:title=" ">
<path fill="none" stroke="#63b8ff" d="M75.41,-153.25C83.05,-153.25 91.33,-153.25 99.68,-153.25"/>
<polygon fill="#63b8ff" stroke="#63b8ff" points="99.54,-156.75 109.54,-153.25 99.54,-149.75 99.54,-156.75"/>
</a>
</g>
</g>
<!-- Node3 -->
<g id="Node000003" class="node">
<title>Node3</title>
<g id="a_Node000003"><a xlink:href="class_paragon_i_e___sodium___core___curve25519.html#a182693398bc40853b69a13d89f7c259b" target="_top" xlink:title=" ">
<polygon fill="white" stroke="#666666" points="390.75,-306.5 264.5,-306.5 264.5,-276 390.75,-276 390.75,-306.5"/>
<text text-anchor="start" x="272.5" y="-293" font-family="Helvetica,sans-Serif" font-size="10.00">ParagonIE_Sodium_Core</text>
<text text-anchor="middle" x="327.62" y="-281.75" font-family="Helvetica,sans-Serif" font-size="10.00">_Curve25519\fe_1</text>
</a>
</g>
</g>
<!-- Node2&#45;&gt;Node3 -->
<g id="edge2_Node000002_Node000003" class="edge">
<title>Node2&#45;&gt;Node3</title>
<g id="a_edge2_Node000002_Node000003"><a xlink:title=" ">
<path fill="none" stroke="#63b8ff" d="M175.16,-163.3C188.44,-184.24 221.75,-233.04 260.75,-262.25 264.58,-265.12 268.73,-267.77 273.03,-270.22"/>
<polygon fill="#63b8ff" stroke="#63b8ff" points="271.4,-273.32 281.89,-274.84 274.64,-267.11 271.4,-273.32"/>
</a>
</g>
</g>
<!-- Node4 -->
<g id="Node000004" class="node">
<title>Node4</title>
<g id="a_Node000004"><a xlink:href="class_paragon_i_e___sodium___core___ristretto255.html#a0eb235a6349515622eaf8df07820986a" target="_top" xlink:title=" ">
<polygon fill="white" stroke="#666666" points="516.25,-214.88 471,-214.88 471,-195.62 516.25,-195.62 516.25,-214.88"/>
<text text-anchor="middle" x="493.62" y="-201.38" font-family="Helvetica,sans-Serif" font-size="10.00">fe_abs</text>
</a>
</g>
</g>
<!-- Node2&#45;&gt;Node4 -->
<g id="edge3_Node000002_Node000004" class="edge">
<title>Node2&#45;&gt;Node4</title>
<g id="a_edge3_Node000002_Node000004"><a xlink:title=" ">
<path fill="none" stroke="#63b8ff" d="M188.06,-163.35C206.2,-172.42 234.54,-185.21 260.75,-191.25 330.02,-207.21 413.81,-207.83 459.3,-206.67"/>
<polygon fill="#63b8ff" stroke="#63b8ff" points="459.14,-210.17 469.03,-206.37 458.93,-203.18 459.14,-210.17"/>
</a>
</g>
</g>
<!-- Node6 -->
<g id="Node000006" class="node">
<title>Node6</title>
<g id="a_Node000006"><a xlink:href="class_paragon_i_e___sodium___core___curve25519.html#a7a62200990869547d2aeca55fed70222" target="_top" xlink:title=" ">
<polygon fill="white" stroke="#666666" points="881.25,-220.5 755,-220.5 755,-190 881.25,-190 881.25,-220.5"/>
<text text-anchor="start" x="763" y="-207" font-family="Helvetica,sans-Serif" font-size="10.00">ParagonIE_Sodium_Core</text>
<text text-anchor="middle" x="818.12" y="-195.75" font-family="Helvetica,sans-Serif" font-size="10.00">_Curve25519\fe_neg</text>
</a>
</g>
</g>
<!-- Node2&#45;&gt;Node6 -->
<g id="edge11_Node000002_Node000006" class="edge">
<title>Node2&#45;&gt;Node6</title>
<g id="a_edge11_Node000002_Node000006"><a xlink:title=" ">
<path fill="none" stroke="#63b8ff" d="M180.14,-163.34C196.45,-177.43 228.43,-202.47 260.75,-213.25 426.04,-268.38 634.6,-241.85 743.41,-221.37"/>
<polygon fill="#63b8ff" stroke="#63b8ff" points="743.94,-224.83 753.1,-219.51 742.62,-217.96 743.94,-224.83"/>
</a>
</g>
</g>
<!-- Node9 -->
<g id="Node000009" class="node">
<title>Node9</title>
<g id="a_Node000009"><a xlink:href="class_paragon_i_e___sodium___core___curve25519.html#a055f1960dce7517e824085d85e1da538" target="_top" xlink:title=" ">
<polygon fill="white" stroke="#666666" points="394.5,-30.5 260.75,-30.5 260.75,0 394.5,0 394.5,-30.5"/>
<text text-anchor="start" x="268.75" y="-17" font-family="Helvetica,sans-Serif" font-size="10.00">ParagonIE_Sodium_Core</text>
<text text-anchor="middle" x="327.62" y="-5.75" font-family="Helvetica,sans-Serif" font-size="10.00">_Curve25519\fe_frombytes</text>
</a>
</g>
</g>
<!-- Node2&#45;&gt;Node9 -->
<g id="edge8_Node000002_Node000009" class="edge">
<title>Node2&#45;&gt;Node9</title>
<g id="a_edge8_Node000002_Node000009"><a xlink:title=" ">
<path fill="none" stroke="#63b8ff" d="M175.16,-143.2C188.44,-122.26 221.75,-73.46 260.75,-44.25 264.58,-41.38 268.73,-38.73 273.03,-36.28"/>
<polygon fill="#63b8ff" stroke="#63b8ff" points="274.64,-39.39 281.89,-31.66 271.4,-33.18 274.64,-39.39"/>
</a>
</g>
</g>
<!-- Node10 -->
<g id="Node000010" class="node">
<title>Node10</title>
<g id="a_Node000010"><a xlink:href="class_paragon_i_e___sodium___core___curve25519.html#a64516f7aacad228d305e021632044d36" target="_top" xlink:title=" ">
<polygon fill="white" stroke="#666666" points="556.75,-173.5 430.5,-173.5 430.5,-143 556.75,-143 556.75,-173.5"/>
<text text-anchor="start" x="438.5" y="-160" font-family="Helvetica,sans-Serif" font-size="10.00">ParagonIE_Sodium_Core</text>
<text text-anchor="middle" x="493.62" y="-148.75" font-family="Helvetica,sans-Serif" font-size="10.00">_Curve25519\fe_mul</text>
</a>
</g>
</g>
<!-- Node2&#45;&gt;Node10 -->
<g id="edge9_Node000002_Node000010" class="edge">
<title>Node2&#45;&gt;Node10</title>
<g id="a_edge9_Node000002_Node000010"><a xlink:title=" ">
<path fill="none" stroke="#63b8ff" d="M225.08,-152.46C270.71,-152 336.77,-151.78 394.5,-153.25 402.32,-153.45 410.49,-153.74 418.64,-154.08"/>
<polygon fill="#63b8ff" stroke="#63b8ff" points="418.43,-157.57 428.58,-154.52 418.74,-150.58 418.43,-157.57"/>
</a>
</g>
</g>
<!-- Node11 -->
<g id="Node000011" class="node">
<title>Node11</title>
<g id="a_Node000011"><a xlink:href="class_paragon_i_e___sodium___core___curve25519.html#a59f7bf4bc4e4cedd40177472cdc31cb8" target="_top" xlink:title=" ">
<polygon fill="white" stroke="#666666" points="719,-81.5 592.75,-81.5 592.75,-51 719,-51 719,-81.5"/>
<text text-anchor="start" x="600.75" y="-68" font-family="Helvetica,sans-Serif" font-size="10.00">ParagonIE_Sodium_Core</text>
<text text-anchor="middle" x="655.88" y="-56.75" font-family="Helvetica,sans-Serif" font-size="10.00">_Curve25519\fe_sq</text>
</a>
</g>
</g>
<!-- Node2&#45;&gt;Node11 -->
<g id="edge12_Node000002_Node000011" class="edge">
<title>Node2&#45;&gt;Node11</title>
<g id="a_edge12_Node000002_Node000011"><a xlink:title=" ">
<path fill="none" stroke="#63b8ff" d="M194,-143.17C212.27,-136.07 237.77,-126.72 260.75,-120.25 334.9,-99.38 354.26,-96.3 430.5,-85.25 480.4,-78.02 536.97,-73.25 580.83,-70.3"/>
<polygon fill="#63b8ff" stroke="#63b8ff" points="581,-73.8 590.75,-69.65 580.55,-66.81 581,-73.8"/>
</a>
</g>
</g>
<!-- Node12 -->
<g id="Node000012" class="node">
<title>Node12</title>
<g id="a_Node000012"><a xlink:href="class_paragon_i_e___sodium___core___curve25519.html#a1e43e8c9928ebeed3060bc1e962a8530" target="_top" xlink:title=" ">
<polygon fill="white" stroke="#666666" points="556.75,-124.5 430.5,-124.5 430.5,-94 556.75,-94 556.75,-124.5"/>
<text text-anchor="start" x="438.5" y="-111" font-family="Helvetica,sans-Serif" font-size="10.00">ParagonIE_Sodium_Core</text>
<text text-anchor="middle" x="493.62" y="-99.75" font-family="Helvetica,sans-Serif" font-size="10.00">_Curve25519\fe_sub</text>
</a>
</g>
</g>
<!-- Node2&#45;&gt;Node12 -->
<g id="edge14_Node000002_Node000012" class="edge">
<title>Node2&#45;&gt;Node12</title>
<g id="a_edge14_Node000002_Node000012"><a xlink:title=" ">
<path fill="none" stroke="#63b8ff" d="M225,-145.64C278.71,-138.33 360.11,-127.27 419.03,-119.26"/>
<polygon fill="#63b8ff" stroke="#63b8ff" points="419.19,-122.77 428.63,-117.95 418.25,-115.83 419.19,-122.77"/>
</a>
</g>
</g>
<!-- Node13 -->
<g id="Node000013" class="node">
<title>Node13</title>
<g id="a_Node000013"><a xlink:href="class_paragon_i_e___sodium___core___ristretto255.html#a3ab97af3c8c8ad2d57e1e5058d9f7e6f" target="_top" xlink:title=" ">
<polygon fill="white" stroke="#666666" points="392.25,-181.88 263,-181.88 263,-162.62 392.25,-162.62 392.25,-181.88"/>
<text text-anchor="middle" x="327.62" y="-168.38" font-family="Helvetica,sans-Serif" font-size="10.00">ristretto255_sqrt_ratio_m1</text>
</a>
</g>
</g>
<!-- Node2&#45;&gt;Node13 -->
<g id="edge16_Node000002_Node000013" class="edge">
<title>Node2&#45;&gt;Node13</title>
<g id="a_edge16_Node000002_Node000013"><a xlink:title=" ">
<path fill="none" stroke="#63b8ff" d="M225.02,-160C233.6,-161.04 242.58,-162.12 251.5,-163.19"/>
<polygon fill="#63b8ff" stroke="#63b8ff" points="250.88,-166.64 261.23,-164.37 251.72,-159.7 250.88,-166.64"/>
</a>
</g>
</g>
<!-- Node5 -->
<g id="Node000005" class="node">
<title>Node5</title>
<g id="a_Node000005"><a xlink:href="class_paragon_i_e___sodium___core___ristretto255.html#ae3766f3900549653469481590de10a60" target="_top" xlink:title=" ">
<polygon fill="white" stroke="#666666" points="681.12,-214.88 630.62,-214.88 630.62,-195.62 681.12,-195.62 681.12,-214.88"/>
<text text-anchor="middle" x="655.88" y="-201.38" font-family="Helvetica,sans-Serif" font-size="10.00">fe_cneg</text>
</a>
</g>
</g>
<!-- Node4&#45;&gt;Node5 -->
<g id="edge4_Node000004_Node000005" class="edge">
<title>Node4&#45;&gt;Node5</title>
<g id="a_edge4_Node000004_Node000005"><a xlink:title=" ">
<path fill="none" stroke="#63b8ff" d="M516.57,-205.25C542.95,-205.25 587.57,-205.25 618.98,-205.25"/>
<polygon fill="#63b8ff" stroke="#63b8ff" points="618.8,-208.75 628.8,-205.25 618.8,-201.75 618.8,-208.75"/>
</a>
</g>
</g>
<!-- Node5&#45;&gt;Node6 -->
<g id="edge5_Node000005_Node000006" class="edge">
<title>Node5&#45;&gt;Node6</title>
<g id="a_edge5_Node000005_Node000006"><a xlink:title=" ">
<path fill="none" stroke="#63b8ff" d="M681.56,-205.25C698.16,-205.25 720.98,-205.25 743.17,-205.25"/>
<polygon fill="#63b8ff" stroke="#63b8ff" points="743.17,-208.75 753.17,-205.25 743.17,-201.75 743.17,-208.75"/>
</a>
</g>
</g>
<!-- Node7 -->
<g id="Node000007" class="node">
<title>Node7</title>
<g id="a_Node000007"><a xlink:href="class_paragon_i_e___sodium___core___curve25519.html#ae05bd0648b1253432e7c969447d1b77e" target="_top" xlink:title=" ">
<polygon fill="white" stroke="#666666" points="1049.5,-146.5 917.25,-146.5 917.25,-116 1049.5,-116 1049.5,-146.5"/>
<text text-anchor="start" x="925.25" y="-133" font-family="Helvetica,sans-Serif" font-size="10.00">ParagonIE_Sodium_Core</text>
<text text-anchor="middle" x="983.38" y="-121.75" font-family="Helvetica,sans-Serif" font-size="10.00">_Curve25519\fe_normalize</text>
</a>
</g>
</g>
<!-- Node6&#45;&gt;Node7 -->
<g id="edge6_Node000006_Node000007" class="edge">
<title>Node6&#45;&gt;Node7</title>
<g id="a_edge6_Node000006_Node000007"><a xlink:title=" ">
<path fill="none" stroke="#63b8ff" d="M853.75,-189.56C878.2,-178.47 911.2,-163.51 937.65,-151.52"/>
<polygon fill="#63b8ff" stroke="#63b8ff" points="938.76,-154.86 946.43,-147.55 935.87,-148.49 938.76,-154.86"/>
</a>
</g>
</g>
<!-- Node8 -->
<g id="Node000008" class="node">
<title>Node8</title>
<g id="a_Node000008"><a xlink:href="class_paragon_i_e___sodium___core___curve25519.html#a93bcc24a23d277ecec10386f3f2e38d5" target="_top" xlink:title=" ">
<polygon fill="white" stroke="#666666" points="1211.75,-146.5 1085.5,-146.5 1085.5,-116 1211.75,-116 1211.75,-146.5"/>
<text text-anchor="start" x="1093.5" y="-133" font-family="Helvetica,sans-Serif" font-size="10.00">ParagonIE_Sodium_Core</text>
<text text-anchor="middle" x="1148.62" y="-121.75" font-family="Helvetica,sans-Serif" font-size="10.00">_Curve25519\fe_copy</text>
</a>
</g>
</g>
<!-- Node7&#45;&gt;Node8 -->
<g id="edge7_Node000007_Node000008" class="edge">
<title>Node7&#45;&gt;Node8</title>
<g id="a_edge7_Node000007_Node000008"><a xlink:title=" ">
<path fill="none" stroke="#63b8ff" d="M1049.83,-131.25C1057.64,-131.25 1065.65,-131.25 1073.57,-131.25"/>
<polygon fill="#63b8ff" stroke="#63b8ff" points="1073.55,-134.75 1083.55,-131.25 1073.55,-127.75 1073.55,-134.75"/>
</a>
</g>
</g>
<!-- Node10&#45;&gt;Node7 -->
<g id="edge10_Node000010_Node000007" class="edge">
<title>Node10&#45;&gt;Node7</title>
<g id="a_edge10_Node000010_Node000007"><a xlink:title=" ">
<path fill="none" stroke="#63b8ff" d="M556.92,-155.36C633.34,-151.74 766.86,-145.17 881.25,-138.25 889.07,-137.78 897.23,-137.26 905.37,-136.72"/>
<polygon fill="#63b8ff" stroke="#63b8ff" points="905.58,-140.21 915.33,-136.05 905.12,-133.23 905.58,-140.21"/>
</a>
</g>
</g>
<!-- Node11&#45;&gt;Node7 -->
<g id="edge13_Node000011_Node000007" class="edge">
<title>Node11&#45;&gt;Node7</title>
<g id="a_edge13_Node000011_Node000007"><a xlink:title=" ">
<path fill="none" stroke="#63b8ff" d="M719.32,-72.21C764.63,-77.25 827.21,-85.68 881.25,-98.25 897.03,-101.92 913.86,-106.95 929.18,-111.97"/>
<polygon fill="#63b8ff" stroke="#63b8ff" points="928,-115.27 938.6,-115.13 930.23,-108.63 928,-115.27"/>
</a>
</g>
</g>
<!-- Node12&#45;&gt;Node7 -->
<g id="edge15_Node000012_Node000007" class="edge">
<title>Node12&#45;&gt;Node7</title>
<g id="a_edge15_Node000012_Node000007"><a xlink:title=" ">
<path fill="none" stroke="#63b8ff" d="M556.89,-112.06C645.86,-116.07 809.22,-123.44 905.57,-127.79"/>
<polygon fill="#63b8ff" stroke="#63b8ff" points="905.32,-131.28 915.47,-128.23 905.64,-124.29 905.32,-131.28"/>
</a>
</g>
</g>
<!-- Node13&#45;&gt;Node4 -->
<g id="edge17_Node000013_Node000004" class="edge">
<title>Node13&#45;&gt;Node4</title>
<g id="a_edge17_Node000013_Node000004"><a xlink:title=" ">
<path fill="none" stroke="#63b8ff" d="M378.72,-182.33C404.99,-187.62 436.44,-193.94 459.63,-198.61"/>
<polygon fill="#63b8ff" stroke="#63b8ff" points="458.63,-201.98 469.12,-200.52 460.01,-195.12 458.63,-201.98"/>
</a>
</g>
</g>
<!-- Node13&#45;&gt;Node10 -->
<g id="edge18_Node000013_Node000010" class="edge">
<title>Node13&#45;&gt;Node10</title>
<g id="a_edge18_Node000013_Node000010"><a xlink:title=" ">
<path fill="none" stroke="#63b8ff" d="M392.5,-166.8C401.07,-166.07 409.91,-165.31 418.64,-164.57"/>
<polygon fill="#63b8ff" stroke="#63b8ff" points="418.83,-168.06 428.49,-163.72 418.23,-161.09 418.83,-168.06"/>
</a>
</g>
</g>
<!-- Node13&#45;&gt;Node12 -->
<g id="edge19_Node000013_Node000012" class="edge">
<title>Node13&#45;&gt;Node12</title>
<g id="a_edge19_Node000013_Node000012"><a xlink:title=" ">
<path fill="none" stroke="#63b8ff" d="M354.97,-162.13C378.18,-153.21 412.64,-139.98 441.27,-128.98"/>
<polygon fill="#63b8ff" stroke="#63b8ff" points="442.43,-132.28 450.51,-125.43 439.92,-125.75 442.43,-132.28"/>
</a>
</g>
</g>
</g>
</svg>

<g id="navigator" transform="translate(0 0)" fill="#404254">
  <rect fill="#f2f5e9" fill-opacity="0.5" stroke="#606060" stroke-width=".5" x="0" y="0" width="60" height="60"/>
  <use id="zoomplus" xlink:href="#zoomPlus" x="17" y="9" onmousedown="handleZoom(evt,'in')"/>
  <use id="zoomminus" xlink:href="#zoomMin" x="42" y="9" onmousedown="handleZoom(evt,'out')"/>
  <use id="reset" xlink:href="#resetDef" x="30" y="36" onmousedown="handleReset()"/>
   <use id="arrowup" xlink:href="#arrowUp" x="0" y="0" onmousedown="handlePan(0,-1)"/>
  <use id="arrowright" xlink:href="#arrowRight" x="0" y="0" onmousedown="handlePan(1,0)"/>
  <use id="arrowdown" xlink:href="#arrowDown" x="0" y="0" onmousedown="handlePan(0,1)"/>
  <use id="arrowleft" xlink:href="#arrowLeft" x="0" y="0" onmousedown="handlePan(-1,0)"/>
</g>
<svg viewBox="0 0 15 15" width="100%" height="30px" preserveAspectRatio="xMaxYMin meet">
 <g id="arrow_out" transform="scale(0.3 0.3)">
  <a xlink:href="class_paragon_i_e___sodium___core___ristretto255_acd8c4b27eb520680aa898abc8a6afab8_cgraph_org.svg" target="_base">
   <rect id="button" ry="5" rx="5" y="6" x="6" height="38" width="38"
        fill="#f2f5e9" fill-opacity="0.5" stroke="#606060" stroke-width="1.0"/>
   <path id="arrow"
     d="M 11.500037,31.436501 C 11.940474,20.09759 22.043105,11.32322 32.158766,21.979434 L 37.068811,17.246167 C 37.068811,17.246167 37.088388,32 37.088388,32 L 22.160133,31.978069 C 22.160133,31.978069 26.997745,27.140456 26.997745,27.140456 C 18.528582,18.264221 13.291696,25.230495 11.500037,31.436501 z"
     style="fill:#404040;"/>
  </a>
 </g>
</svg>

<style type='text/css'>
<![CDATA[
[data-mouse-over-selected='false'] { opacity: 0.7; }
[data-mouse-over-selected='true']  { opacity: 1.0; }
]]>
</style>
<script type="application/ecmascript"><![CDATA[
document.addEventListener('DOMContentLoaded', (event) => {
  highlightEdges();
  highlightAdjacentNodes();
});
]]></script>
</svg>
