<?xml version="1.0" encoding="UTF-8" standalone="no"?>
<!DOCTYPE svg PUBLIC "-//W3C//DTD SVG 1.1//EN"
 "http://www.w3.org/Graphics/SVG/1.1/DTD/svg11.dtd">
<!-- Generated by graphviz version 10.0.1 (20240210.2158)
 -->
<!-- Title: File Pages: 1 -->
<svg width="266pt" height="589pt"
 viewBox="0.00 0.00 265.50 589.00" xmlns="http://www.w3.org/2000/svg" xmlns:xlink="http://www.w3.org/1999/xlink">
<g id="graph0" class="graph" transform="scale(1 1) rotate(0) translate(4 585)">
<title>File</title>
<!-- Node1 -->
<g id="Node000001" class="node">
<title>Node1</title>
<g id="a_Node000001"><a xlink:title=" ">
<polygon fill="#999999" stroke="none" points="188.5,-150 60.5,-150 60.5,0 188.5,0 188.5,-150"/>
<text text-anchor="start" x="116.62" y="-136.5" font-family="Helvetica,sans-Serif" font-size="10.00">File</text>
<text text-anchor="start" x="123" y="-121.5" font-family="Helvetica,sans-Serif" font-size="10.00"> </text>
<text text-anchor="start" x="64.5" y="-106.5" font-family="Helvetica,sans-Serif" font-size="10.00">+</text>
<text text-anchor="start" x="74.5" y="-106.5" font-family="Helvetica,sans-Serif" font-size="10.00">put($data)</text>
<text text-anchor="start" x="64.5" y="-91.5" font-family="Helvetica,sans-Serif" font-size="10.00">+</text>
<text text-anchor="start" x="74.5" y="-91.5" font-family="Helvetica,sans-Serif" font-size="10.00">patch($data, $rangeType,</text>
<text text-anchor="start" x="74.5" y="-80.25" font-family="Helvetica,sans-Serif" font-size="10.00"> $offset=null)</text>
<text text-anchor="start" x="64.5" y="-65.5" font-family="Helvetica,sans-Serif" font-size="10.00">+</text>
<text text-anchor="start" x="74.5" y="-65.5" font-family="Helvetica,sans-Serif" font-size="10.00">get()</text>
<text text-anchor="start" x="64.5" y="-50.5" font-family="Helvetica,sans-Serif" font-size="10.00">+</text>
<text text-anchor="start" x="74.5" y="-50.5" font-family="Helvetica,sans-Serif" font-size="10.00">delete()</text>
<text text-anchor="start" x="64.5" y="-35.5" font-family="Helvetica,sans-Serif" font-size="10.00">+</text>
<text text-anchor="start" x="74.5" y="-35.5" font-family="Helvetica,sans-Serif" font-size="10.00">getETag()</text>
<text text-anchor="start" x="64.5" y="-20.5" font-family="Helvetica,sans-Serif" font-size="10.00">+</text>
<text text-anchor="start" x="74.5" y="-20.5" font-family="Helvetica,sans-Serif" font-size="10.00">getContentType()</text>
<text text-anchor="start" x="64.5" y="-5.5" font-family="Helvetica,sans-Serif" font-size="10.00">+</text>
<text text-anchor="start" x="74.5" y="-5.5" font-family="Helvetica,sans-Serif" font-size="10.00">getSize()</text>
<polygon fill="#666666" stroke="#666666" points="60.5,-133 60.5,-133 188.5,-133 188.5,-133 60.5,-133"/>
<polygon fill="#666666" stroke="#666666" points="60.5,-118 60.5,-118 188.5,-118 188.5,-118 60.5,-118"/>
<polygon fill="none" stroke="#666666" points="60.5,0 60.5,-150 188.5,-150 188.5,0 60.5,0"/>
</a>
</g>
</g>
<!-- Node2 -->
<g id="Node000002" class="node">
<title>Node2</title>
<g id="a_Node000002"><a xlink:href="class_sabre_1_1_d_a_v_1_1_f_s_1_1_node.html" target="_top" xlink:title=" ">
<polygon fill="white" stroke="none" points="111,-306 0,-306 0,-186 111,-186 111,-306"/>
<text text-anchor="start" x="43.88" y="-292.5" font-family="Helvetica,sans-Serif" font-size="10.00">Node</text>
<text text-anchor="start" x="4.38" y="-277.5" font-family="Helvetica,sans-Serif" font-size="10.00">#</text>
<text text-anchor="start" x="14" y="-277.5" font-family="Helvetica,sans-Serif" font-size="10.00">$path</text>
<text text-anchor="start" x="4.38" y="-262.5" font-family="Helvetica,sans-Serif" font-size="10.00">#</text>
<text text-anchor="start" x="14" y="-262.5" font-family="Helvetica,sans-Serif" font-size="10.00">$overrideName</text>
<text text-anchor="start" x="4" y="-247.5" font-family="Helvetica,sans-Serif" font-size="10.00">+</text>
<text text-anchor="start" x="14" y="-247.5" font-family="Helvetica,sans-Serif" font-size="10.00">__construct($path,</text>
<text text-anchor="start" x="14" y="-236.25" font-family="Helvetica,sans-Serif" font-size="10.00"> $overrideName=null)</text>
<text text-anchor="start" x="4" y="-221.5" font-family="Helvetica,sans-Serif" font-size="10.00">+</text>
<text text-anchor="start" x="14" y="-221.5" font-family="Helvetica,sans-Serif" font-size="10.00">getName()</text>
<text text-anchor="start" x="4" y="-206.5" font-family="Helvetica,sans-Serif" font-size="10.00">+</text>
<text text-anchor="start" x="14" y="-206.5" font-family="Helvetica,sans-Serif" font-size="10.00">setName($name)</text>
<text text-anchor="start" x="4" y="-191.5" font-family="Helvetica,sans-Serif" font-size="10.00">+</text>
<text text-anchor="start" x="14" y="-191.5" font-family="Helvetica,sans-Serif" font-size="10.00">getLastModified()</text>
<polygon fill="#666666" stroke="#666666" points="0,-289 0,-289 111,-289 111,-289 0,-289"/>
<polygon fill="#666666" stroke="#666666" points="0,-259 0,-259 12,-259 12,-259 0,-259"/>
<polygon fill="#666666" stroke="#666666" points="12,-259 12,-259 111,-259 111,-259 12,-259"/>
<polygon fill="none" stroke="#666666" points="0,-186 0,-306 111,-306 111,-186 0,-186"/>
</a>
</g>
</g>
<!-- Node2&#45;&gt;Node1 -->
<g id="edge1_Node000001_Node000002" class="edge">
<title>Node2&#45;&gt;Node1</title>
<g id="a_edge1_Node000001_Node000002"><a xlink:title=" ">
<path fill="none" stroke="#63b8ff" d="M83.69,-175.95C87.22,-167.3 90.84,-158.43 94.4,-149.71"/>
<polygon fill="none" stroke="#63b8ff" points="80.55,-174.38 80.01,-184.97 87.03,-177.03 80.55,-174.38"/>
</a>
</g>
</g>
<!-- Node3 -->
<g id="Node000003" class="node">
<title>Node3</title>
<g id="a_Node000003"><a xlink:href="interface_sabre_1_1_d_a_v_1_1_i_node.html" target="_top" xlink:title=" ">
<polygon fill="white" stroke="none" points="170,-581 77,-581 77,-487 170,-487 170,-581"/>
<text text-anchor="start" x="110.38" y="-567.5" font-family="Helvetica,sans-Serif" font-size="10.00">INode</text>
<text text-anchor="start" x="122" y="-552.5" font-family="Helvetica,sans-Serif" font-size="10.00"> </text>
<text text-anchor="start" x="81" y="-537.5" font-family="Helvetica,sans-Serif" font-size="10.00">+</text>
<text text-anchor="start" x="91" y="-537.5" font-family="Helvetica,sans-Serif" font-size="10.00">delete()</text>
<text text-anchor="start" x="81" y="-522.5" font-family="Helvetica,sans-Serif" font-size="10.00">+</text>
<text text-anchor="start" x="91" y="-522.5" font-family="Helvetica,sans-Serif" font-size="10.00">getName()</text>
<text text-anchor="start" x="81" y="-507.5" font-family="Helvetica,sans-Serif" font-size="10.00">+</text>
<text text-anchor="start" x="91" y="-507.5" font-family="Helvetica,sans-Serif" font-size="10.00">setName($name)</text>
<text text-anchor="start" x="81" y="-492.5" font-family="Helvetica,sans-Serif" font-size="10.00">+</text>
<text text-anchor="start" x="91" y="-492.5" font-family="Helvetica,sans-Serif" font-size="10.00">getLastModified()</text>
<polygon fill="#666666" stroke="#666666" points="77,-564 77,-564 170,-564 170,-564 77,-564"/>
<polygon fill="#666666" stroke="#666666" points="77,-549 77,-549 170,-549 170,-549 77,-549"/>
<polygon fill="none" stroke="#666666" points="77,-487 77,-581 170,-581 170,-487 77,-487"/>
</a>
</g>
</g>
<!-- Node3&#45;&gt;Node2 -->
<g id="edge2_Node000002_Node000003" class="edge">
<title>Node3&#45;&gt;Node2</title>
<g id="a_edge2_Node000002_Node000003"><a xlink:title=" ">
<path fill="none" stroke="#63b8ff" d="M109.94,-475.95C98.22,-426.69 81.37,-355.79 69.52,-305.98"/>
<polygon fill="none" stroke="#63b8ff" points="106.51,-476.66 112.22,-485.58 113.32,-475.04 106.51,-476.66"/>
</a>
</g>
</g>
<!-- Node5 -->
<g id="Node000005" class="node">
<title>Node5</title>
<g id="a_Node000005"><a xlink:href="interface_sabre_1_1_d_a_v_1_1_i_file.html" target="_top" xlink:title=" ">
<polygon fill="white" stroke="none" points="224,-451 131,-451 131,-342 224,-342 224,-451"/>
<text text-anchor="start" x="168.12" y="-437.5" font-family="Helvetica,sans-Serif" font-size="10.00">IFile</text>
<text text-anchor="start" x="176" y="-422.5" font-family="Helvetica,sans-Serif" font-size="10.00"> </text>
<text text-anchor="start" x="135" y="-407.5" font-family="Helvetica,sans-Serif" font-size="10.00">+</text>
<text text-anchor="start" x="145" y="-407.5" font-family="Helvetica,sans-Serif" font-size="10.00">put($data)</text>
<text text-anchor="start" x="135" y="-392.5" font-family="Helvetica,sans-Serif" font-size="10.00">+</text>
<text text-anchor="start" x="145" y="-392.5" font-family="Helvetica,sans-Serif" font-size="10.00">get()</text>
<text text-anchor="start" x="135" y="-377.5" font-family="Helvetica,sans-Serif" font-size="10.00">+</text>
<text text-anchor="start" x="145" y="-377.5" font-family="Helvetica,sans-Serif" font-size="10.00">getContentType()</text>
<text text-anchor="start" x="135" y="-362.5" font-family="Helvetica,sans-Serif" font-size="10.00">+</text>
<text text-anchor="start" x="145" y="-362.5" font-family="Helvetica,sans-Serif" font-size="10.00">getETag()</text>
<text text-anchor="start" x="135" y="-347.5" font-family="Helvetica,sans-Serif" font-size="10.00">+</text>
<text text-anchor="start" x="145" y="-347.5" font-family="Helvetica,sans-Serif" font-size="10.00">getSize()</text>
<polygon fill="#666666" stroke="#666666" points="131,-434 131,-434 224,-434 224,-434 131,-434"/>
<polygon fill="#666666" stroke="#666666" points="131,-419 131,-419 224,-419 224,-419 131,-419"/>
<polygon fill="none" stroke="#666666" points="131,-342 131,-451 224,-451 224,-342 131,-342"/>
</a>
</g>
</g>
<!-- Node3&#45;&gt;Node5 -->
<g id="edge5_Node000005_Node000003" class="edge">
<title>Node3&#45;&gt;Node5</title>
<g id="a_edge5_Node000005_Node000003"><a xlink:title=" ">
<path fill="none" stroke="#63b8ff" d="M146.01,-476.52C149.4,-468.01 152.89,-459.25 156.25,-450.81"/>
<polygon fill="none" stroke="#63b8ff" points="142.79,-475.13 142.34,-485.72 149.3,-477.73 142.79,-475.13"/>
</a>
</g>
</g>
<!-- Node4 -->
<g id="Node000004" class="node">
<title>Node4</title>
<g id="a_Node000004"><a xlink:href="interface_sabre_1_1_d_a_v_1_1_partial_update_1_1_i_patch_support.html" target="_top" xlink:title=" ">
<polygon fill="white" stroke="none" points="257.5,-276 129.5,-276 129.5,-216 257.5,-216 257.5,-276"/>
<text text-anchor="start" x="162.38" y="-262.5" font-family="Helvetica,sans-Serif" font-size="10.00">IPatchSupport</text>
<text text-anchor="start" x="192" y="-247.5" font-family="Helvetica,sans-Serif" font-size="10.00"> </text>
<text text-anchor="start" x="133.5" y="-232.5" font-family="Helvetica,sans-Serif" font-size="10.00">+</text>
<text text-anchor="start" x="143.5" y="-232.5" font-family="Helvetica,sans-Serif" font-size="10.00">patch($data, $rangeType,</text>
<text text-anchor="start" x="143.5" y="-221.25" font-family="Helvetica,sans-Serif" font-size="10.00"> $offset=null)</text>
<polygon fill="#666666" stroke="#666666" points="129.5,-259 129.5,-259 257.5,-259 257.5,-259 129.5,-259"/>
<polygon fill="#666666" stroke="#666666" points="129.5,-244 129.5,-244 257.5,-244 257.5,-244 129.5,-244"/>
<polygon fill="none" stroke="#666666" points="129.5,-216 129.5,-276 257.5,-276 257.5,-216 129.5,-216"/>
</a>
</g>
</g>
<!-- Node4&#45;&gt;Node1 -->
<g id="edge3_Node000001_Node000004" class="edge">
<title>Node4&#45;&gt;Node1</title>
<g id="a_edge3_Node000001_Node000004"><a xlink:title=" ">
<path fill="none" stroke="#63b8ff" d="M177.52,-205.86C170.68,-189.12 162.47,-169 154.57,-149.65"/>
<polygon fill="none" stroke="#63b8ff" points="174.2,-207 181.22,-214.93 180.68,-204.35 174.2,-207"/>
</a>
</g>
</g>
<!-- Node5&#45;&gt;Node4 -->
<g id="edge4_Node000004_Node000005" class="edge">
<title>Node5&#45;&gt;Node4</title>
<g id="a_edge4_Node000004_Node000005"><a xlink:title=" ">
<path fill="none" stroke="#63b8ff" d="M184.44,-331.06C186.53,-311.72 188.71,-291.47 190.41,-275.69"/>
<polygon fill="none" stroke="#63b8ff" points="180.98,-330.49 183.39,-340.8 187.94,-331.24 180.98,-330.49"/>
</a>
</g>
</g>
</g>
</svg>
