<?xml version="1.0" encoding="UTF-8" standalone="no"?>
<!DOCTYPE svg PUBLIC "-//W3C//DTD SVG 1.1//EN"
 "http://www.w3.org/Graphics/SVG/1.1/DTD/svg11.dtd">
<!-- Generated by graphviz version 10.0.1 (20240210.2158)
 -->
<!-- Title: selector Pages: 1 -->
<svg width="364pt" height="119pt"
 viewBox="0.00 0.00 363.75 119.25" xmlns="http://www.w3.org/2000/svg" xmlns:xlink="http://www.w3.org/1999/xlink">

<svg id="main" version="1.1" xmlns="http://www.w3.org/2000/svg" xmlns:xlink="http://www.w3.org/1999/xlink" xml:space="preserve" onload="init(evt)">
<style type="text/css"><![CDATA[
.node, .edge {opacity: 0.7;}
.node.selected, .edge.selected {opacity: 1;}
.edge:hover path { stroke: red; }
.edge:hover polygon { stroke: red; fill: red; }
]]></style>
<script type="application/ecmascript" xlink:href="svg.min.js"/>
<svg id="graph" class="graph">
<g id="graph0" class="graph" transform="scale(1 1) rotate(0) translate(4 115.25)">
<title>selector</title>
<!-- Node1 -->
<g id="Node000001" class="node">
<title>Node1</title>
<g id="a_Node000001"><a xlink:title=" ">
<polygon fill="#999999" stroke="#666666" points="355.75,-56.25 305.25,-56.25 305.25,-37 355.75,-37 355.75,-56.25"/>
<text text-anchor="middle" x="330.5" y="-42.75" font-family="Helvetica,sans-Serif" font-size="10.00">selector</text>
</a>
</g>
</g>
<!-- Node2 -->
<g id="Node000002" class="node">
<title>Node2</title>
<g id="a_Node000002"><a xlink:href="class_scss_php_1_1_scss_php_1_1_parser.html#aad2da2f34b326c87c7ae779d5793dff9" target="_top" xlink:title=" ">
<polygon fill="white" stroke="#666666" points="257.25,-56.25 201.5,-56.25 201.5,-37 257.25,-37 257.25,-56.25"/>
<text text-anchor="middle" x="229.38" y="-42.75" font-family="Helvetica,sans-Serif" font-size="10.00">selectors</text>
</a>
</g>
</g>
<!-- Node1&#45;&gt;Node2 -->
<g id="edge1_Node000001_Node000002" class="edge">
<title>Node1&#45;&gt;Node2</title>
<g id="a_edge1_Node000001_Node000002"><a xlink:title=" ">
<path fill="none" stroke="#63b8ff" d="M293.65,-46.62C281.81,-46.62 268.84,-46.62 257.74,-46.62"/>
<polygon fill="#63b8ff" stroke="#63b8ff" points="293.48,-50.13 303.48,-46.63 293.48,-43.13 293.48,-50.13"/>
</a>
</g>
</g>
<!-- Node7 -->
<g id="Node000007" class="node">
<title>Node7</title>
<g id="a_Node000007"><a xlink:href="class_scss_php_1_1_scss_php_1_1_parser.html#a070a67b9830efd084ec483207e7f8c95" target="_top" xlink:title=" ">
<polygon fill="white" stroke="#666666" points="269.25,-93.25 189.5,-93.25 189.5,-74 269.25,-74 269.25,-93.25"/>
<text text-anchor="middle" x="229.38" y="-79.75" font-family="Helvetica,sans-Serif" font-size="10.00">supportsQuery</text>
</a>
</g>
</g>
<!-- Node1&#45;&gt;Node7 -->
<g id="edge7_Node000001_Node000007" class="edge">
<title>Node1&#45;&gt;Node7</title>
<g id="a_edge7_Node000001_Node000007"><a xlink:title=" ">
<path fill="none" stroke="#63b8ff" d="M294.3,-59.76C282.16,-64.3 268.76,-69.3 257.38,-73.54"/>
<polygon fill="#63b8ff" stroke="#63b8ff" points="295.43,-63.08 303.58,-56.3 292.99,-56.52 295.43,-63.08"/>
</a>
</g>
</g>
<!-- Node3 -->
<g id="Node000003" class="node">
<title>Node3</title>
<g id="a_Node000003"><a xlink:href="class_scss_php_1_1_scss_php_1_1_parser.html#aad08aa6a0ec11e63f98abc5a2999c71a" target="_top" xlink:title=" ">
<polygon fill="white" stroke="#666666" points="149,-93.25 80.5,-93.25 80.5,-74 149,-74 149,-93.25"/>
<text text-anchor="middle" x="114.75" y="-79.75" font-family="Helvetica,sans-Serif" font-size="10.00">parseChunk</text>
</a>
</g>
</g>
<!-- Node2&#45;&gt;Node3 -->
<g id="edge2_Node000002_Node000003" class="edge">
<title>Node2&#45;&gt;Node3</title>
<g id="a_edge2_Node000002_Node000003"><a xlink:title=" ">
<path fill="none" stroke="#63b8ff" d="M190.54,-59.06C176.16,-63.78 159.96,-69.1 146.33,-73.58"/>
<polygon fill="#63b8ff" stroke="#63b8ff" points="191.27,-62.5 199.67,-56.05 189.08,-55.85 191.27,-62.5"/>
</a>
</g>
</g>
<!-- Node5 -->
<g id="Node000005" class="node">
<title>Node5</title>
<g id="a_Node000005"><a xlink:href="class_scss_php_1_1_scss_php_1_1_parser.html#a3a6749c4e069e254508f43c7f59c9689" target="_top" xlink:title=" ">
<polygon fill="white" stroke="#666666" points="152.75,-56.25 76.75,-56.25 76.75,-37 152.75,-37 152.75,-56.25"/>
<text text-anchor="middle" x="114.75" y="-42.75" font-family="Helvetica,sans-Serif" font-size="10.00">parseSelector</text>
</a>
</g>
</g>
<!-- Node2&#45;&gt;Node5 -->
<g id="edge4_Node000002_Node000005" class="edge">
<title>Node2&#45;&gt;Node5</title>
<g id="a_edge4_Node000002_Node000005"><a xlink:title=" ">
<path fill="none" stroke="#63b8ff" d="M189.7,-46.62C177.82,-46.62 164.76,-46.62 152.97,-46.62"/>
<polygon fill="#63b8ff" stroke="#63b8ff" points="189.6,-50.13 199.6,-46.63 189.6,-43.13 189.6,-50.13"/>
</a>
</g>
</g>
<!-- Node6 -->
<g id="Node000006" class="node">
<title>Node6</title>
<g id="a_Node000006"><a xlink:href="class_scss_php_1_1_scss_php_1_1_parser.html#ad9187fc8c1a68081a290297b2c17faf4" target="_top" xlink:title=" ">
<polygon fill="white" stroke="#666666" points="153.5,-19.25 76,-19.25 76,0 153.5,0 153.5,-19.25"/>
<text text-anchor="middle" x="114.75" y="-5.75" font-family="Helvetica,sans-Serif" font-size="10.00">selectorSingle</text>
</a>
</g>
</g>
<!-- Node2&#45;&gt;Node6 -->
<g id="edge5_Node000002_Node000006" class="edge">
<title>Node2&#45;&gt;Node6</title>
<g id="a_edge5_Node000002_Node000006"><a xlink:title=" ">
<path fill="none" stroke="#63b8ff" d="M190.54,-34.19C176.16,-29.47 159.96,-24.15 146.33,-19.67"/>
<polygon fill="#63b8ff" stroke="#63b8ff" points="189.08,-37.4 199.67,-37.2 191.27,-30.75 189.08,-37.4"/>
</a>
</g>
</g>
<!-- Node4 -->
<g id="Node000004" class="node">
<title>Node4</title>
<g id="a_Node000004"><a xlink:href="class_scss_php_1_1_scss_php_1_1_parser.html#aa8a8d9dfb6c2868176488a9acfb4a0d8" target="_top" xlink:title=" ">
<polygon fill="white" stroke="#666666" points="40,-93.25 0,-93.25 0,-74 40,-74 40,-93.25"/>
<text text-anchor="middle" x="20" y="-79.75" font-family="Helvetica,sans-Serif" font-size="10.00">parse</text>
</a>
</g>
</g>
<!-- Node3&#45;&gt;Node4 -->
<g id="edge3_Node000003_Node000004" class="edge">
<title>Node3&#45;&gt;Node4</title>
<g id="a_edge3_Node000003_Node000004"><a xlink:title=" ">
<path fill="none" stroke="#63b8ff" d="M68.8,-83.62C58.76,-83.62 48.62,-83.62 40.29,-83.62"/>
<polygon fill="#63b8ff" stroke="#63b8ff" points="68.49,-87.13 78.49,-83.63 68.49,-80.13 68.49,-87.13"/>
</a>
</g>
</g>
<!-- Node6&#45;&gt;Node1 -->
<g id="edge6_Node000006_Node000001" class="edge">
<title>Node6&#45;&gt;Node1</title>
<g id="a_edge6_Node000006_Node000001"><a xlink:title=" ">
<path fill="none" stroke="#63b8ff" d="M165.06,-13.03C195.35,-15.7 234.82,-20.25 269.25,-27.62 281.15,-30.18 294.06,-34.09 304.87,-37.7"/>
<polygon fill="#63b8ff" stroke="#63b8ff" points="165.69,-9.57 155.43,-12.22 165.11,-16.54 165.69,-9.57"/>
</a>
</g>
</g>
<!-- Node7&#45;&gt;Node3 -->
<g id="edge8_Node000007_Node000003" class="edge">
<title>Node7&#45;&gt;Node3</title>
<g id="a_edge8_Node000007_Node000003"><a xlink:title=" ">
<path fill="none" stroke="#63b8ff" d="M178,-83.62C168.22,-83.62 158.2,-83.62 149.14,-83.62"/>
<polygon fill="#63b8ff" stroke="#63b8ff" points="177.79,-87.13 187.79,-83.63 177.79,-80.13 177.79,-87.13"/>
</a>
</g>
</g>
<!-- Node7&#45;&gt;Node7 -->
<g id="edge9_Node000007_Node000007" class="edge">
<title>Node7&#45;&gt;Node7</title>
<g id="a_edge9_Node000007_Node000007"><a xlink:title=" ">
<path fill="none" stroke="#63b8ff" d="M247.32,-104.65C245.08,-108.53 239.1,-111.25 229.38,-111.25 211.6,-111.25 206.32,-102.15 213.54,-93.54"/>
<polygon fill="#63b8ff" stroke="#63b8ff" points="250.8,-104.19 245.49,-95.02 243.92,-105.5 250.8,-104.19"/>
</a>
</g>
</g>
</g>
</svg>
</svg>

<style type='text/css'>
<![CDATA[
[data-mouse-over-selected='false'] { opacity: 0.7; }
[data-mouse-over-selected='true']  { opacity: 1.0; }
]]>
</style>
<script type="application/ecmascript"><![CDATA[
document.addEventListener('DOMContentLoaded', (event) => {
  highlightEdges();
  highlightAdjacentNodes();
});
]]></script>
</svg>
