<?xml version="1.0" encoding="UTF-8" standalone="no"?>
<!DOCTYPE svg PUBLIC "-//W3C//DTD SVG 1.1//EN"
 "http://www.w3.org/Graphics/SVG/1.1/DTD/svg11.dtd">
<!-- Generated by graphviz version 10.0.1 (20240210.2158)
 -->
<!-- Title: translateNthOfType Pages: 1 -->
<svg width="639pt" height="160pt"
 viewBox="0.00 0.00 639.00 159.73" xmlns="http://www.w3.org/2000/svg" xmlns:xlink="http://www.w3.org/1999/xlink">
<g id="graph0" class="graph" transform="scale(1 1) rotate(0) translate(4 155.73)">
<title>translateNthOfType</title>
<!-- Node1 -->
<g id="Node000001" class="node">
<title>Node1</title>
<g id="a_Node000001"><a xlink:title=" ">
<polygon fill="#999999" stroke="#666666" points="100.75,-97.88 0,-97.88 0,-78.62 100.75,-78.62 100.75,-97.88"/>
<text text-anchor="middle" x="50.38" y="-84.38" font-family="Helvetica,sans-Serif" font-size="10.00">translateNthOfType</text>
</a>
</g>
</g>
<!-- Node2 -->
<g id="Node000002" class="node">
<title>Node2</title>
<g id="a_Node000002"><a xlink:href="class_symfony_1_1_component_1_1_css_selector_1_1_x_path_1_1_extension_1_1_function_extension.html#aa7101ecc67b4f9e4ccf3f21d826deecf" target="_top" xlink:title=" ">
<polygon fill="white" stroke="#666666" points="228.5,-97.88 136.75,-97.88 136.75,-78.62 228.5,-78.62 228.5,-97.88"/>
<text text-anchor="middle" x="182.62" y="-84.38" font-family="Helvetica,sans-Serif" font-size="10.00">translateNthChild</text>
</a>
</g>
</g>
<!-- Node1&#45;&gt;Node2 -->
<g id="edge1_Node000001_Node000002" class="edge">
<title>Node1&#45;&gt;Node2</title>
<g id="a_edge1_Node000001_Node000002"><a xlink:title=" ">
<path fill="none" stroke="#63b8ff" d="M100.99,-88.25C108.81,-88.25 116.96,-88.25 124.93,-88.25"/>
<polygon fill="#63b8ff" stroke="#63b8ff" points="124.91,-91.75 134.91,-88.25 124.91,-84.75 124.91,-91.75"/>
</a>
</g>
</g>
<!-- Node3 -->
<g id="Node000003" class="node">
<title>Node3</title>
<g id="a_Node000003"><a xlink:href="class_symfony_1_1_component_1_1_css_selector_1_1_x_path_1_1_x_path_expr.html#ab7af4a256e5e76e7a748de4905b4c180" target="_top" xlink:title=" ">
<polygon fill="white" stroke="#666666" points="631,-149.5 465.75,-149.5 465.75,-119 631,-119 631,-149.5"/>
<text text-anchor="start" x="473.75" y="-136" font-family="Helvetica,sans-Serif" font-size="10.00">Symfony\Component\CssSelector</text>
<text text-anchor="middle" x="548.38" y="-124.75" font-family="Helvetica,sans-Serif" font-size="10.00">\XPath\XPathExpr\addCondition</text>
</a>
</g>
</g>
<!-- Node2&#45;&gt;Node3 -->
<g id="edge2_Node000002_Node000003" class="edge">
<title>Node2&#45;&gt;Node3</title>
<g id="a_edge2_Node000002_Node000003"><a xlink:title=" ">
<path fill="none" stroke="#63b8ff" d="M195.51,-98.37C210.46,-110.37 237.46,-129.7 264.5,-137.25 326.01,-154.43 398.02,-153.38 454,-148.19"/>
<polygon fill="#63b8ff" stroke="#63b8ff" points="454.22,-151.69 463.82,-147.21 453.52,-144.72 454.22,-151.69"/>
</a>
</g>
</g>
<!-- Node4 -->
<g id="Node000004" class="node">
<title>Node4</title>
<g id="a_Node000004"><a xlink:href="class_symfony_1_1_component_1_1_css_selector_1_1_x_path_1_1_x_path_expr.html#a24b5ee876cacc2f470ee2f6480c9160a" target="_top" xlink:title=" ">
<polygon fill="white" stroke="#666666" points="429.75,-128.5 264.5,-128.5 264.5,-98 429.75,-98 429.75,-128.5"/>
<text text-anchor="start" x="272.5" y="-115" font-family="Helvetica,sans-Serif" font-size="10.00">Symfony\Component\CssSelector</text>
<text text-anchor="middle" x="347.12" y="-103.75" font-family="Helvetica,sans-Serif" font-size="10.00">\XPath\XPathExpr\addNameTest</text>
</a>
</g>
</g>
<!-- Node2&#45;&gt;Node4 -->
<g id="edge3_Node000002_Node000004" class="edge">
<title>Node2&#45;&gt;Node4</title>
<g id="a_edge3_Node000002_Node000004"><a xlink:title=" ">
<path fill="none" stroke="#63b8ff" d="M228.89,-95.21C236.44,-96.38 244.52,-97.62 252.76,-98.89"/>
<polygon fill="#63b8ff" stroke="#63b8ff" points="252.17,-102.34 262.58,-100.4 253.23,-95.42 252.17,-102.34"/>
</a>
</g>
</g>
<!-- Node5 -->
<g id="Node000005" class="node">
<title>Node5</title>
<g id="a_Node000005"><a xlink:href="class_symfony_1_1_component_1_1_css_selector_1_1_x_path_1_1_x_path_expr.html#ae98bbb2bef0fbaa9bfc4419b3f8d8127" target="_top" xlink:title=" ">
<polygon fill="white" stroke="#666666" points="429.75,-79.5 264.5,-79.5 264.5,-49 429.75,-49 429.75,-79.5"/>
<text text-anchor="start" x="272.5" y="-66" font-family="Helvetica,sans-Serif" font-size="10.00">Symfony\Component\CssSelector</text>
<text text-anchor="middle" x="347.12" y="-54.75" font-family="Helvetica,sans-Serif" font-size="10.00">\XPath\XPathExpr\addStarPrefix</text>
</a>
</g>
</g>
<!-- Node2&#45;&gt;Node5 -->
<g id="edge5_Node000002_Node000005" class="edge">
<title>Node2&#45;&gt;Node5</title>
<g id="a_edge5_Node000002_Node000005"><a xlink:title=" ">
<path fill="none" stroke="#63b8ff" d="M228.89,-81.56C236.44,-80.45 244.52,-79.26 252.76,-78.04"/>
<polygon fill="#63b8ff" stroke="#63b8ff" points="253.2,-81.51 262.58,-76.59 252.18,-74.59 253.2,-81.51"/>
</a>
</g>
</g>
<!-- Node6 -->
<g id="Node000006" class="node">
<title>Node6</title>
<g id="a_Node000006"><a xlink:href="class_symfony_1_1_component_1_1_css_selector_1_1_parser_1_1_parser.html#a14ef59415cb022e6e6ec883cb99514fb" target="_top" xlink:title=" ">
<polygon fill="white" stroke="#666666" points="429.75,-30.5 264.5,-30.5 264.5,0 429.75,0 429.75,-30.5"/>
<text text-anchor="start" x="272.5" y="-17" font-family="Helvetica,sans-Serif" font-size="10.00">Symfony\Component\CssSelector</text>
<text text-anchor="middle" x="347.12" y="-5.75" font-family="Helvetica,sans-Serif" font-size="10.00">\Parser\Parser\parseSeries</text>
</a>
</g>
</g>
<!-- Node2&#45;&gt;Node6 -->
<g id="edge6_Node000002_Node000006" class="edge">
<title>Node2&#45;&gt;Node6</title>
<g id="a_edge6_Node000002_Node000006"><a xlink:title=" ">
<path fill="none" stroke="#63b8ff" d="M197.96,-78.3C213.71,-67.73 240.01,-51.08 264.5,-40.25 268.97,-38.27 273.64,-36.39 278.38,-34.62"/>
<polygon fill="#63b8ff" stroke="#63b8ff" points="279.17,-38.05 287.42,-31.4 276.82,-31.45 279.17,-38.05"/>
</a>
</g>
</g>
<!-- Node4&#45;&gt;Node3 -->
<g id="edge4_Node000004_Node000003" class="edge">
<title>Node4&#45;&gt;Node3</title>
<g id="a_edge4_Node000004_Node000003"><a xlink:title=" ">
<path fill="none" stroke="#63b8ff" d="M430.03,-121.88C437.98,-122.72 446.09,-123.58 454.14,-124.42"/>
<polygon fill="#63b8ff" stroke="#63b8ff" points="453.65,-127.89 463.96,-125.46 454.38,-120.93 453.65,-127.89"/>
</a>
</g>
</g>
</g>
</svg>
