<?xml version="1.0" encoding="UTF-8" standalone="no"?>
<!DOCTYPE svg PUBLIC "-//W3C//DTD SVG 1.1//EN"
 "http://www.w3.org/Graphics/SVG/1.1/DTD/svg11.dtd">
<!-- Generated by graphviz version 10.0.1 (20240210.2158)
 -->
<!-- Title: FormatsCommand Pages: 1 -->
<!--zoomable 882 -->

<svg id="main" version="1.1" xmlns="http://www.w3.org/2000/svg" xmlns:xlink="http://www.w3.org/1999/xlink" xml:space="preserve" onload="init(evt)">
<style type="text/css"><![CDATA[
.node, .edge {opacity: 0.7;}
.node.selected, .edge.selected {opacity: 1;}
.edge:hover path { stroke: red; }
.edge:hover polygon { stroke: red; fill: red; }
]]></style>

<defs>
  <circle id="rim" cx="0" cy="0" r="7"/>
  <circle id="rim2" cx="0" cy="0" r="3.5"/>
  <g id="zoomPlus">
    <use xlink:href="#rim" fill="#404040"><set attributeName="fill" to="#808080" begin="zoomplus.mouseover" end="zoomplus.mouseout"/></use>
    <path d="M-4,0h8M0,-4v8" fill="none" stroke="white" stroke-width="1.5" pointer-events="none"/>
  </g>
  <g id="zoomMin">
    <use xlink:href="#rim" fill="#404040"><set attributeName="fill" to="#808080" begin="zoomminus.mouseover" end="zoomminus.mouseout"/></use>
    <path d="M-4,0h8" fill="none" stroke="white" stroke-width="1.5" pointer-events="none"/>
  </g>
  <g id="arrowUp" transform="translate(30 24)">
    <use xlink:href="#rim"/>
    <path pointer-events="none" fill="none" stroke="white" stroke-width="1.5" d="M0,-3.0v7 M-2.5,-0.5L0,-3.0L2.5,-0.5"/>
  </g>
  <g id="arrowRight" transform="rotate(90) translate(36 -43)">
    <use xlink:href="#rim"/>
    <path pointer-events="none" fill="none" stroke="white" stroke-width="1.5" d="M0,-3.0v7 M-2.5,-0.5L0,-3.0L2.5,-0.5"/>
  </g>
  <g id="arrowDown" transform="rotate(180) translate(-30 -48)">
    <use xlink:href="#rim"/>
    <path pointer-events="none" fill="none" stroke="white" stroke-width="1.5" d="M0,-3.0v7 M-2.5,-0.5L0,-3.0L2.5,-0.5"/>
  </g>
  <g id="arrowLeft" transform="rotate(270) translate(-36 17)">
    <use xlink:href="#rim"/>
    <path pointer-events="none" fill="none" stroke="white" stroke-width="1.5" d="M0,-3.0v7 M-2.5,-0.5L0,-3.0L2.5,-0.5"/>
  </g>
  <g id="resetDef">
    <use xlink:href="#rim2" fill="#404040"><set attributeName="fill" to="#808080" begin="reset.mouseover" end="reset.mouseout"/></use>
  </g>
</defs>
<script type="application/ecmascript">
var viewWidth = 372;
var viewHeight = 882;
var sectionId = 'dynsection-1';
</script>
<script type="application/ecmascript" xlink:href="svg.min.js"/>
<svg id="graph" class="graph">
<g id="viewport">
<title>FormatsCommand</title>
<!-- Node1 -->
<g id="Node000001" class="node">
<title>Node1</title>
<g id="a_Node000001"><a xlink:title=" ">
<polygon fill="#999999" stroke="none" points="91,-49 0,-49 0,0 91,0 91,-49"/>
<text text-anchor="start" x="5" y="-35.5" font-family="Helvetica,sans-Serif" font-size="10.00">FormatsCommand</text>
<text text-anchor="start" x="44" y="-20.5" font-family="Helvetica,sans-Serif" font-size="10.00"> </text>
<text text-anchor="start" x="10.88" y="-5.5" font-family="Helvetica,sans-Serif" font-size="10.00">#</text>
<text text-anchor="start" x="27" y="-5.5" font-family="Helvetica,sans-Serif" font-size="10.00">configure()</text>
<polygon fill="#666666" stroke="#666666" points="0,-32 0,-32 91,-32 91,-32 0,-32"/>
<polygon fill="#666666" stroke="#666666" points="0,-17 0,-17 91,-17 91,-17 0,-17"/>
<polygon fill="none" stroke="#666666" points="0,0 0,-49 91,-49 91,0 0,0"/>
</a>
</g>
</g>
<!-- Node2 -->
<g id="Node000002" class="node">
<title>Node2</title>
<g id="a_Node000002"><a xlink:href="classwapmorgan_1_1_unified_archive_1_1_commands_1_1_base_command.html" target="_top" xlink:title=" ">
<polygon fill="white" stroke="none" points="165.5,-265 45.5,-265 45.5,-86 165.5,-86 165.5,-265"/>
<text text-anchor="start" x="71.75" y="-251.5" font-family="Helvetica,sans-Serif" font-size="10.00">BaseCommand</text>
<text text-anchor="start" x="104" y="-236.5" font-family="Helvetica,sans-Serif" font-size="10.00"> </text>
<text text-anchor="start" x="49.5" y="-221.5" font-family="Helvetica,sans-Serif" font-size="10.00">+</text>
<text text-anchor="start" x="59.5" y="-221.5" font-family="Helvetica,sans-Serif" font-size="10.00">formatDate($unixtime)</text>
<text text-anchor="start" x="49.5" y="-206.5" font-family="Helvetica,sans-Serif" font-size="10.00">+</text>
<text text-anchor="start" x="59.5" y="-206.5" font-family="Helvetica,sans-Serif" font-size="10.00">formatSize($bytes,</text>
<text text-anchor="start" x="59.5" y="-195.25" font-family="Helvetica,sans-Serif" font-size="10.00"> $precision=2)</text>
<text text-anchor="start" x="49.88" y="-180.5" font-family="Helvetica,sans-Serif" font-size="10.00">#</text>
<text text-anchor="start" x="59.5" y="-180.5" font-family="Helvetica,sans-Serif" font-size="10.00">open($file, $password</text>
<text text-anchor="start" x="59.5" y="-169.25" font-family="Helvetica,sans-Serif" font-size="10.00">=null)</text>
<text text-anchor="start" x="49.88" y="-154.5" font-family="Helvetica,sans-Serif" font-size="10.00">#</text>
<text text-anchor="start" x="59.5" y="-154.5" font-family="Helvetica,sans-Serif" font-size="10.00">getMimeTypeByStream</text>
<text text-anchor="start" x="59.5" y="-143.25" font-family="Helvetica,sans-Serif" font-size="10.00">($stream)</text>
<text text-anchor="start" x="49.88" y="-128.5" font-family="Helvetica,sans-Serif" font-size="10.00">#</text>
<text text-anchor="start" x="59.5" y="-128.5" font-family="Helvetica,sans-Serif" font-size="10.00">getDriverBaseName</text>
<text text-anchor="start" x="59.5" y="-117.25" font-family="Helvetica,sans-Serif" font-size="10.00">($driverClass)</text>
<text text-anchor="start" x="49.88" y="-102.5" font-family="Helvetica,sans-Serif" font-size="10.00">#</text>
<text text-anchor="start" x="59.5" y="-102.5" font-family="Helvetica,sans-Serif" font-size="10.00">resolveDriverName</text>
<text text-anchor="start" x="59.5" y="-91.25" font-family="Helvetica,sans-Serif" font-size="10.00">($driver)</text>
<polygon fill="#666666" stroke="#666666" points="45.5,-248 45.5,-248 165.5,-248 165.5,-248 45.5,-248"/>
<polygon fill="#666666" stroke="#666666" points="45.5,-233 45.5,-233 165.5,-233 165.5,-233 45.5,-233"/>
<polygon fill="none" stroke="#666666" points="45.5,-86 45.5,-265 165.5,-265 165.5,-86 45.5,-86"/>
</a>
</g>
</g>
<!-- Node2&#45;&gt;Node1 -->
<g id="edge1_Node000001_Node000002" class="edge">
<title>Node2&#45;&gt;Node1</title>
<g id="a_edge1_Node000001_Node000002"><a xlink:title=" ">
<path fill="none" stroke="#63b8ff" d="M65.71,-75.7C61.77,-65.9 58.08,-56.74 54.96,-48.99"/>
<polygon fill="none" stroke="#63b8ff" points="62.36,-76.73 69.34,-84.7 68.85,-74.12 62.36,-76.73"/>
</a>
</g>
</g>
<!-- Node3 -->
<g id="Node000003" class="node">
<title>Node3</title>
<g id="a_Node000003"><a xlink:href="class_symfony_1_1_component_1_1_console_1_1_command_1_1_command.html" target="_top" xlink:title=" ">
<polygon fill="white" stroke="none" points="363.5,-755.25 207.5,-755.25 207.5,-312.25 363.5,-312.25 363.5,-755.25"/>
<text text-anchor="start" x="263" y="-741.75" font-family="Helvetica,sans-Serif" font-size="10.00">Command</text>
<text text-anchor="start" x="284" y="-726.75" font-family="Helvetica,sans-Serif" font-size="10.00"> </text>
<text text-anchor="start" x="211.5" y="-711.75" font-family="Helvetica,sans-Serif" font-size="10.00">+</text>
<text text-anchor="start" x="221.5" y="-711.75" font-family="Helvetica,sans-Serif" font-size="10.00">__construct(string</text>
<text text-anchor="start" x="221.5" y="-700.5" font-family="Helvetica,sans-Serif" font-size="10.00"> $name=null)</text>
<text text-anchor="start" x="211.5" y="-685.75" font-family="Helvetica,sans-Serif" font-size="10.00">+</text>
<text text-anchor="start" x="221.5" y="-685.75" font-family="Helvetica,sans-Serif" font-size="10.00">ignoreValidationErrors()</text>
<text text-anchor="start" x="211.5" y="-670.75" font-family="Helvetica,sans-Serif" font-size="10.00">+</text>
<text text-anchor="start" x="221.5" y="-670.75" font-family="Helvetica,sans-Serif" font-size="10.00">setApplication(Application</text>
<text text-anchor="start" x="221.5" y="-659.5" font-family="Helvetica,sans-Serif" font-size="10.00"> $application=null)</text>
<text text-anchor="start" x="211.5" y="-644.75" font-family="Helvetica,sans-Serif" font-size="10.00">+</text>
<text text-anchor="start" x="221.5" y="-644.75" font-family="Helvetica,sans-Serif" font-size="10.00">setHelperSet(HelperSet</text>
<text text-anchor="start" x="221.5" y="-633.5" font-family="Helvetica,sans-Serif" font-size="10.00"> $helperSet)</text>
<text text-anchor="start" x="211.5" y="-618.75" font-family="Helvetica,sans-Serif" font-size="10.00">+</text>
<text text-anchor="start" x="221.5" y="-618.75" font-family="Helvetica,sans-Serif" font-size="10.00">getHelperSet()</text>
<text text-anchor="start" x="211.5" y="-603.75" font-family="Helvetica,sans-Serif" font-size="10.00">+</text>
<text text-anchor="start" x="221.5" y="-603.75" font-family="Helvetica,sans-Serif" font-size="10.00">getApplication()</text>
<text text-anchor="start" x="211.5" y="-588.75" font-family="Helvetica,sans-Serif" font-size="10.00">+</text>
<text text-anchor="start" x="221.5" y="-588.75" font-family="Helvetica,sans-Serif" font-size="10.00">isEnabled()</text>
<text text-anchor="start" x="211.5" y="-573.75" font-family="Helvetica,sans-Serif" font-size="10.00">+</text>
<text text-anchor="start" x="221.5" y="-573.75" font-family="Helvetica,sans-Serif" font-size="10.00">run(InputInterface</text>
<text text-anchor="start" x="221.5" y="-562.5" font-family="Helvetica,sans-Serif" font-size="10.00"> $input, OutputInterface</text>
<text text-anchor="start" x="221.5" y="-551.25" font-family="Helvetica,sans-Serif" font-size="10.00"> $output)</text>
<text text-anchor="start" x="211.5" y="-536.75" font-family="Helvetica,sans-Serif" font-size="10.00">+</text>
<text text-anchor="start" x="221.5" y="-536.75" font-family="Helvetica,sans-Serif" font-size="10.00">complete(CompletionInput</text>
<text text-anchor="start" x="221.5" y="-525.5" font-family="Helvetica,sans-Serif" font-size="10.00"> $input, CompletionSuggestions</text>
<text text-anchor="start" x="221.5" y="-514.25" font-family="Helvetica,sans-Serif" font-size="10.00"> $suggestions)</text>
<text text-anchor="start" x="211.5" y="-499.75" font-family="Helvetica,sans-Serif" font-size="10.00">+</text>
<text text-anchor="start" x="221.5" y="-499.75" font-family="Helvetica,sans-Serif" font-size="10.00">setCode(callable </text>
<text text-anchor="start" x="221.5" y="-488.5" font-family="Helvetica,sans-Serif" font-size="10.00">$code)</text>
<text text-anchor="start" x="221.5" y="-473.75" font-family="Helvetica,sans-Serif" font-size="10.00">et 22 de plus...</text>
<text text-anchor="start" x="211.5" y="-458.75" font-family="Helvetica,sans-Serif" font-size="10.00">+</text>
<text text-anchor="start" x="221.5" y="-458.75" font-family="Helvetica,sans-Serif" font-size="10.00">static getDefaultName()</text>
<text text-anchor="start" x="211.5" y="-443.75" font-family="Helvetica,sans-Serif" font-size="10.00">+</text>
<text text-anchor="start" x="221.5" y="-443.75" font-family="Helvetica,sans-Serif" font-size="10.00">static getDefaultDescription()</text>
<text text-anchor="start" x="211.88" y="-428.75" font-family="Helvetica,sans-Serif" font-size="10.00">#</text>
<text text-anchor="start" x="221.5" y="-428.75" font-family="Helvetica,sans-Serif" font-size="10.00">configure()</text>
<text text-anchor="start" x="211.88" y="-413.75" font-family="Helvetica,sans-Serif" font-size="10.00">#</text>
<text text-anchor="start" x="221.5" y="-413.75" font-family="Helvetica,sans-Serif" font-size="10.00">execute(InputInterface</text>
<text text-anchor="start" x="221.5" y="-402.5" font-family="Helvetica,sans-Serif" font-size="10.00"> $input, OutputInterface</text>
<text text-anchor="start" x="221.5" y="-391.25" font-family="Helvetica,sans-Serif" font-size="10.00"> $output)</text>
<text text-anchor="start" x="211.88" y="-376.75" font-family="Helvetica,sans-Serif" font-size="10.00">#</text>
<text text-anchor="start" x="221.5" y="-376.75" font-family="Helvetica,sans-Serif" font-size="10.00">interact(InputInterface</text>
<text text-anchor="start" x="221.5" y="-365.5" font-family="Helvetica,sans-Serif" font-size="10.00"> $input, OutputInterface</text>
<text text-anchor="start" x="221.5" y="-354.25" font-family="Helvetica,sans-Serif" font-size="10.00"> $output)</text>
<text text-anchor="start" x="211.88" y="-339.75" font-family="Helvetica,sans-Serif" font-size="10.00">#</text>
<text text-anchor="start" x="221.5" y="-339.75" font-family="Helvetica,sans-Serif" font-size="10.00">initialize(InputInterface</text>
<text text-anchor="start" x="221.5" y="-328.5" font-family="Helvetica,sans-Serif" font-size="10.00"> $input, OutputInterface</text>
<text text-anchor="start" x="221.5" y="-317.25" font-family="Helvetica,sans-Serif" font-size="10.00"> $output)</text>
<polygon fill="#666666" stroke="#666666" points="207.5,-738.25 207.5,-738.25 363.5,-738.25 363.5,-738.25 207.5,-738.25"/>
<polygon fill="#666666" stroke="#666666" points="207.5,-723.25 207.5,-723.25 363.5,-723.25 363.5,-723.25 207.5,-723.25"/>
<polygon fill="none" stroke="#666666" points="207.5,-312.25 207.5,-755.25 363.5,-755.25 363.5,-312.25 207.5,-312.25"/>
</a>
</g>
</g>
<!-- Node3&#45;&gt;Node2 -->
<g id="edge2_Node000002_Node000003" class="edge">
<title>Node3&#45;&gt;Node2</title>
<g id="a_edge2_Node000002_Node000003"><a xlink:title=" ">
<path fill="none" stroke="#63b8ff" d="M202.61,-330.04C199.61,-324.01 196.57,-318.07 193.5,-312.25 185.05,-296.23 175.27,-279.66 165.37,-263.84"/>
<polygon fill="none" stroke="#63b8ff" points="199.42,-331.47 206.97,-338.91 205.7,-328.39 199.42,-331.47"/>
</a>
</g>
</g>
<!-- Node4 -->
<g id="Node000004" class="node">
<title>Node4</title>
<g id="a_Node000004"><a xlink:title=" ">
<polygon fill="white" stroke="none" points="302.5,-874 268.5,-874 268.5,-825 302.5,-825 302.5,-874"/>
<text text-anchor="start" x="273.5" y="-860.5" font-family="Helvetica,sans-Serif" font-size="10.00">const</text>
<text text-anchor="start" x="284" y="-845.5" font-family="Helvetica,sans-Serif" font-size="10.00"> </text>
<text text-anchor="start" x="284" y="-830.5" font-family="Helvetica,sans-Serif" font-size="10.00"> </text>
<polygon fill="#666666" stroke="#666666" points="268.5,-857 268.5,-857 302.5,-857 302.5,-857 268.5,-857"/>
<polygon fill="#666666" stroke="#666666" points="268.5,-842 268.5,-842 302.5,-842 302.5,-842 268.5,-842"/>
<polygon fill="none" stroke="#666666" points="268.5,-825 268.5,-874 302.5,-874 302.5,-825 268.5,-825"/>
</a>
</g>
</g>
<!-- Node4&#45;&gt;Node3 -->
<g id="edge3_Node000003_Node000004" class="edge">
<title>Node4&#45;&gt;Node3</title>
<g id="a_edge3_Node000003_Node000004"><a xlink:title=" ">
<path fill="none" stroke="#63b8ff" d="M285.5,-825.17C285.5,-810.85 285.5,-790.91 285.5,-768.12"/>
<polygon fill="none" stroke="#63b8ff" points="285.5,-768.08 281.5,-762.08 285.5,-756.08 289.5,-762.08 285.5,-768.08"/>
</a>
</g>
<text text-anchor="middle" x="313.25" y="-797.5" font-family="Helvetica,sans-Serif" font-size="10.00" fill="grey"> +FAILURE</text>
<text text-anchor="middle" x="313.25" y="-786.25" font-family="Helvetica,sans-Serif" font-size="10.00" fill="grey">+INVALID</text>
<text text-anchor="middle" x="313.25" y="-775" font-family="Helvetica,sans-Serif" font-size="10.00" fill="grey">+SUCCESS</text>
</g>
<!-- Node5 -->
<g id="Node000005" class="node">
<title>Node5</title>
<g id="a_Node000005"><a xlink:title=" ">
<polygon fill="white" stroke="none" points="118.5,-874 84.5,-874 84.5,-825 118.5,-825 118.5,-874"/>
<text text-anchor="start" x="89.5" y="-860.5" font-family="Helvetica,sans-Serif" font-size="10.00">static</text>
<text text-anchor="start" x="100" y="-845.5" font-family="Helvetica,sans-Serif" font-size="10.00"> </text>
<text text-anchor="start" x="100" y="-830.5" font-family="Helvetica,sans-Serif" font-size="10.00"> </text>
<polygon fill="#666666" stroke="#666666" points="84.5,-857 84.5,-857 118.5,-857 118.5,-857 84.5,-857"/>
<polygon fill="#666666" stroke="#666666" points="84.5,-842 84.5,-842 118.5,-842 118.5,-842 84.5,-842"/>
<polygon fill="none" stroke="#666666" points="84.5,-825 84.5,-874 118.5,-874 118.5,-825 84.5,-825"/>
</a>
</g>
</g>
<!-- Node5&#45;&gt;Node1 -->
<g id="edge6_Node000001_Node000005" class="edge">
<title>Node5&#45;&gt;Node1</title>
<g id="a_edge6_Node000001_Node000005"><a xlink:title=" ">
<path fill="none" stroke="#63b8ff" d="M96.31,-825.19C79.65,-748.22 28.81,-494.93 31.5,-283 32.61,-195.42 28.93,-173.26 36.5,-86 37.18,-78.14 38.23,-69.74 39.37,-61.79"/>
<polygon fill="none" stroke="#63b8ff" points="39.37,-61.73 36.33,-55.2 41.19,-49.87 44.23,-56.41 39.37,-61.73"/>
</a>
</g>
<text text-anchor="middle" x="66" y="-284.75" font-family="Helvetica,sans-Serif" font-size="10.00" fill="grey"> #$defaultName</text>
</g>
<!-- Node5&#45;&gt;Node2 -->
<g id="edge5_Node000002_Node000005" class="edge">
<title>Node5&#45;&gt;Node2</title>
<g id="a_edge5_Node000002_Node000005"><a xlink:title=" ">
<path fill="none" stroke="#63b8ff" d="M101.64,-825.37C102.15,-739.76 103.95,-437.59 104.9,-277.6"/>
<polygon fill="none" stroke="#63b8ff" points="104.9,-277.83 100.93,-271.8 104.97,-265.83 108.93,-271.85 104.9,-277.83"/>
</a>
</g>
<text text-anchor="middle" x="148.38" y="-535.5" font-family="Helvetica,sans-Serif" font-size="10.00" fill="grey"> #$abilitiesLabels</text>
<text text-anchor="middle" x="148.38" y="-524.25" font-family="Helvetica,sans-Serif" font-size="10.00" fill="grey">#$abilitiesShortCuts</text>
</g>
<!-- Node5&#45;&gt;Node3 -->
<g id="edge4_Node000003_Node000005" class="edge">
<title>Node5&#45;&gt;Node3</title>
<g id="a_edge4_Node000003_Node000005"><a xlink:title=" ">
<path fill="none" stroke="#63b8ff" d="M118.42,-834.9C138.54,-818 172.09,-787.44 193.5,-755.25 196.09,-751.35 198.64,-747.37 201.13,-743.31"/>
<polygon fill="none" stroke="#63b8ff" points="201.01,-743.52 200.64,-736.31 207.15,-733.2 207.52,-740.41 201.01,-743.52"/>
</a>
</g>
<text text-anchor="middle" x="224.62" y="-791.88" font-family="Helvetica,sans-Serif" font-size="10.00" fill="grey"> #$defaultDescription</text>
<text text-anchor="middle" x="224.62" y="-780.62" font-family="Helvetica,sans-Serif" font-size="10.00" fill="grey">#$defaultName</text>
</g>
</g>
</svg>

<g id="navigator" transform="translate(0 0)" fill="#404254">
  <rect fill="#f2f5e9" fill-opacity="0.5" stroke="#606060" stroke-width=".5" x="0" y="0" width="60" height="60"/>
  <use id="zoomplus" xlink:href="#zoomPlus" x="17" y="9" onmousedown="handleZoom(evt,'in')"/>
  <use id="zoomminus" xlink:href="#zoomMin" x="42" y="9" onmousedown="handleZoom(evt,'out')"/>
  <use id="reset" xlink:href="#resetDef" x="30" y="36" onmousedown="handleReset()"/>
   <use id="arrowup" xlink:href="#arrowUp" x="0" y="0" onmousedown="handlePan(0,-1)"/>
  <use id="arrowright" xlink:href="#arrowRight" x="0" y="0" onmousedown="handlePan(1,0)"/>
  <use id="arrowdown" xlink:href="#arrowDown" x="0" y="0" onmousedown="handlePan(0,1)"/>
  <use id="arrowleft" xlink:href="#arrowLeft" x="0" y="0" onmousedown="handlePan(-1,0)"/>
</g>
<svg viewBox="0 0 15 15" width="100%" height="30px" preserveAspectRatio="xMaxYMin meet">
 <g id="arrow_out" transform="scale(0.3 0.3)">
  <a xlink:href="classwapmorgan_1_1_unified_archive_1_1_commands_1_1_formats_command__coll__graph_org.svg" target="_base">
   <rect id="button" ry="5" rx="5" y="6" x="6" height="38" width="38"
        fill="#f2f5e9" fill-opacity="0.5" stroke="#606060" stroke-width="1.0"/>
   <path id="arrow"
     d="M 11.500037,31.436501 C 11.940474,20.09759 22.043105,11.32322 32.158766,21.979434 L 37.068811,17.246167 C 37.068811,17.246167 37.088388,32 37.088388,32 L 22.160133,31.978069 C 22.160133,31.978069 26.997745,27.140456 26.997745,27.140456 C 18.528582,18.264221 13.291696,25.230495 11.500037,31.436501 z"
     style="fill:#404040;"/>
  </a>
 </g>
</svg>

<style type='text/css'>
<![CDATA[
[data-mouse-over-selected='false'] { opacity: 0.7; }
[data-mouse-over-selected='true']  { opacity: 1.0; }
]]>
</style>
<script type="application/ecmascript"><![CDATA[
document.addEventListener('DOMContentLoaded', (event) => {
  highlightEdges();
  highlightAdjacentNodes();
});
]]></script>
</svg>
