<?xml version="1.0" encoding="UTF-8" standalone="no"?>
<!DOCTYPE svg PUBLIC "-//W3C//DTD SVG 1.1//EN"
 "http://www.w3.org/Graphics/SVG/1.1/DTD/svg11.dtd">
<!-- Generated by graphviz version 10.0.1 (20240210.2158)
 -->
<!-- Title: DoctrineAdapter Pages: 1 -->
<svg width="625pt" height="884pt"
 viewBox="0.00 0.00 625.25 884.25" xmlns="http://www.w3.org/2000/svg" xmlns:xlink="http://www.w3.org/1999/xlink">
<g id="graph0" class="graph" transform="scale(1 1) rotate(0) translate(4 880.25)">
<title>DoctrineAdapter</title>
<!-- Node1 -->
<g id="Node000001" class="node">
<title>Node1</title>
<g id="a_Node000001"><a xlink:title=" ">
<polygon fill="#999999" stroke="none" points="431.5,-172 283.5,-172 283.5,0 431.5,0 431.5,-172"/>
<text text-anchor="start" x="322.25" y="-158.5" font-family="Helvetica,sans-Serif" font-size="10.00">DoctrineAdapter</text>
<text text-anchor="start" x="356" y="-143.5" font-family="Helvetica,sans-Serif" font-size="10.00"> </text>
<text text-anchor="start" x="287.5" y="-128.5" font-family="Helvetica,sans-Serif" font-size="10.00">+</text>
<text text-anchor="start" x="297.5" y="-128.5" font-family="Helvetica,sans-Serif" font-size="10.00">__construct(CacheProvider</text>
<text text-anchor="start" x="297.5" y="-117.25" font-family="Helvetica,sans-Serif" font-size="10.00"> $provider, string $namespace</text>
<text text-anchor="start" x="297.5" y="-106" font-family="Helvetica,sans-Serif" font-size="10.00">=&#39;&#39;, int $defaultLifetime=0)</text>
<text text-anchor="start" x="287.5" y="-91.5" font-family="Helvetica,sans-Serif" font-size="10.00">+</text>
<text text-anchor="start" x="297.5" y="-91.5" font-family="Helvetica,sans-Serif" font-size="10.00">reset()</text>
<text text-anchor="start" x="287.88" y="-76.5" font-family="Helvetica,sans-Serif" font-size="10.00">#</text>
<text text-anchor="start" x="297.5" y="-76.5" font-family="Helvetica,sans-Serif" font-size="10.00">doFetch(array $ids)</text>
<text text-anchor="start" x="287.88" y="-61.5" font-family="Helvetica,sans-Serif" font-size="10.00">#</text>
<text text-anchor="start" x="297.5" y="-61.5" font-family="Helvetica,sans-Serif" font-size="10.00">doHave(string $id)</text>
<text text-anchor="start" x="287.88" y="-46.5" font-family="Helvetica,sans-Serif" font-size="10.00">#</text>
<text text-anchor="start" x="297.5" y="-46.5" font-family="Helvetica,sans-Serif" font-size="10.00">doClear(string $namespace)</text>
<text text-anchor="start" x="287.88" y="-31.5" font-family="Helvetica,sans-Serif" font-size="10.00">#</text>
<text text-anchor="start" x="297.5" y="-31.5" font-family="Helvetica,sans-Serif" font-size="10.00">doDelete(array $ids)</text>
<text text-anchor="start" x="287.88" y="-16.5" font-family="Helvetica,sans-Serif" font-size="10.00">#</text>
<text text-anchor="start" x="297.5" y="-16.5" font-family="Helvetica,sans-Serif" font-size="10.00">doSave(array $values,</text>
<text text-anchor="start" x="297.5" y="-5.25" font-family="Helvetica,sans-Serif" font-size="10.00"> int $lifetime)</text>
<polygon fill="#666666" stroke="#666666" points="283.5,-155 283.5,-155 431.5,-155 431.5,-155 283.5,-155"/>
<polygon fill="#666666" stroke="#666666" points="283.5,-140 283.5,-140 431.5,-140 431.5,-140 283.5,-140"/>
<polygon fill="none" stroke="#666666" points="283.5,0 283.5,-172 431.5,-172 431.5,0 283.5,0"/>
</a>
</g>
</g>
<!-- Node2 -->
<g id="Node000002" class="node">
<title>Node2</title>
<g id="a_Node000002"><a xlink:href="class_symfony_1_1_component_1_1_cache_1_1_adapter_1_1_abstract_adapter.html" target="_top" xlink:title=" ">
<polygon fill="white" stroke="none" points="433,-381 282,-381 282,-209 433,-209 433,-381"/>
<text text-anchor="start" x="322.25" y="-367.5" font-family="Helvetica,sans-Serif" font-size="10.00">AbstractAdapter</text>
<text text-anchor="start" x="356" y="-352.5" font-family="Helvetica,sans-Serif" font-size="10.00"> </text>
<text text-anchor="start" x="286" y="-337.5" font-family="Helvetica,sans-Serif" font-size="10.00">+</text>
<text text-anchor="start" x="296" y="-337.5" font-family="Helvetica,sans-Serif" font-size="10.00">commit()</text>
<text text-anchor="start" x="286" y="-322.5" font-family="Helvetica,sans-Serif" font-size="10.00">+</text>
<text text-anchor="start" x="296" y="-322.5" font-family="Helvetica,sans-Serif" font-size="10.00">static createSystemCache</text>
<text text-anchor="start" x="296" y="-311.25" font-family="Helvetica,sans-Serif" font-size="10.00">(string $namespace, int</text>
<text text-anchor="start" x="296" y="-300" font-family="Helvetica,sans-Serif" font-size="10.00"> $defaultLifetime, string</text>
<text text-anchor="start" x="296" y="-288.75" font-family="Helvetica,sans-Serif" font-size="10.00"> $version, string $directory,</text>
<text text-anchor="start" x="296" y="-277.5" font-family="Helvetica,sans-Serif" font-size="10.00"> LoggerInterface $logger=null)</text>
<text text-anchor="start" x="286" y="-262.5" font-family="Helvetica,sans-Serif" font-size="10.00">+</text>
<text text-anchor="start" x="296" y="-262.5" font-family="Helvetica,sans-Serif" font-size="10.00">static createConnection</text>
<text text-anchor="start" x="296" y="-251.25" font-family="Helvetica,sans-Serif" font-size="10.00">(string $dsn, array $options=[])</text>
<text text-anchor="start" x="286.38" y="-236.5" font-family="Helvetica,sans-Serif" font-size="10.00">#</text>
<text text-anchor="start" x="296" y="-236.5" font-family="Helvetica,sans-Serif" font-size="10.00">__construct(string</text>
<text text-anchor="start" x="296" y="-225.25" font-family="Helvetica,sans-Serif" font-size="10.00"> $namespace=&#39;&#39;, int</text>
<text text-anchor="start" x="296" y="-214" font-family="Helvetica,sans-Serif" font-size="10.00"> $defaultLifetime=0)</text>
<polygon fill="#666666" stroke="#666666" points="282,-364 282,-364 433,-364 433,-364 282,-364"/>
<polygon fill="#666666" stroke="#666666" points="282,-349 282,-349 433,-349 433,-349 282,-349"/>
<polygon fill="none" stroke="#666666" points="282,-209 282,-381 433,-381 433,-209 282,-209"/>
</a>
</g>
</g>
<!-- Node2&#45;&gt;Node1 -->
<g id="edge1_Node000001_Node000002" class="edge">
<title>Node2&#45;&gt;Node1</title>
<g id="a_edge1_Node000001_Node000002"><a xlink:title=" ">
<path fill="none" stroke="#63b8ff" d="M357.5,-197.9C357.5,-189.25 357.5,-180.54 357.5,-172"/>
<polygon fill="none" stroke="#63b8ff" points="354,-197.69 357.5,-207.69 361,-197.69 354,-197.69"/>
</a>
</g>
</g>
<!-- Node3 -->
<g id="Node000003" class="node">
<title>Node3</title>
<g id="a_Node000003"><a xlink:href="interface_symfony_1_1_component_1_1_cache_1_1_adapter_1_1_adapter_interface.html" target="_top" xlink:title=" ">
<polygon fill="white" stroke="none" points="145,-566.75 20,-566.75 20,-487.75 145,-487.75 145,-566.75"/>
<text text-anchor="start" x="46.5" y="-553.25" font-family="Helvetica,sans-Serif" font-size="10.00">AdapterInterface</text>
<text text-anchor="start" x="81" y="-538.25" font-family="Helvetica,sans-Serif" font-size="10.00"> </text>
<text text-anchor="start" x="24" y="-523.25" font-family="Helvetica,sans-Serif" font-size="10.00">+</text>
<text text-anchor="start" x="34" y="-523.25" font-family="Helvetica,sans-Serif" font-size="10.00">getItem($key)</text>
<text text-anchor="start" x="24" y="-508.25" font-family="Helvetica,sans-Serif" font-size="10.00">+</text>
<text text-anchor="start" x="34" y="-508.25" font-family="Helvetica,sans-Serif" font-size="10.00">getItems(array $keys=[])</text>
<text text-anchor="start" x="24" y="-493.25" font-family="Helvetica,sans-Serif" font-size="10.00">+</text>
<text text-anchor="start" x="34" y="-493.25" font-family="Helvetica,sans-Serif" font-size="10.00">clear(string $prefix=&#39;&#39;)</text>
<polygon fill="#666666" stroke="#666666" points="20,-549.75 20,-549.75 145,-549.75 145,-549.75 20,-549.75"/>
<polygon fill="#666666" stroke="#666666" points="20,-534.75 20,-534.75 145,-534.75 145,-534.75 20,-534.75"/>
<polygon fill="none" stroke="#666666" points="20,-487.75 20,-566.75 145,-566.75 145,-487.75 20,-487.75"/>
</a>
</g>
</g>
<!-- Node3&#45;&gt;Node2 -->
<g id="edge2_Node000002_Node000003" class="edge">
<title>Node3&#45;&gt;Node2</title>
<g id="a_edge2_Node000002_Node000003"><a xlink:title=" ">
<path fill="none" stroke="#63b8ff" d="M112.3,-478.63C124.22,-461.64 138.84,-443.06 154.5,-428.25 192.71,-392.13 242,-359.75 282.45,-336.08"/>
<polygon fill="none" stroke="#63b8ff" points="109.58,-476.4 106.82,-486.63 115.36,-480.36 109.58,-476.4"/>
</a>
</g>
</g>
<!-- Node4 -->
<g id="Node000004" class="node">
<title>Node4</title>
<g id="a_Node000004"><a xlink:href="interface_psr_1_1_cache_1_1_cache_item_pool_interface.html" target="_top" xlink:title=" ">
<polygon fill="white" stroke="none" points="165,-876.25 0,-876.25 0,-663.25 165,-663.25 165,-876.25"/>
<text text-anchor="start" x="29.62" y="-862.75" font-family="Helvetica,sans-Serif" font-size="10.00">CacheItemPoolInterface</text>
<text text-anchor="start" x="81" y="-847.75" font-family="Helvetica,sans-Serif" font-size="10.00"> </text>
<text text-anchor="start" x="4" y="-832.75" font-family="Helvetica,sans-Serif" font-size="10.00">+</text>
<text text-anchor="start" x="14" y="-832.75" font-family="Helvetica,sans-Serif" font-size="10.00">getItem($key)</text>
<text text-anchor="start" x="4" y="-817.75" font-family="Helvetica,sans-Serif" font-size="10.00">+</text>
<text text-anchor="start" x="14" y="-817.75" font-family="Helvetica,sans-Serif" font-size="10.00">getItems(array $keys</text>
<text text-anchor="start" x="14" y="-806.5" font-family="Helvetica,sans-Serif" font-size="10.00">=array())</text>
<text text-anchor="start" x="4" y="-791.75" font-family="Helvetica,sans-Serif" font-size="10.00">+</text>
<text text-anchor="start" x="14" y="-791.75" font-family="Helvetica,sans-Serif" font-size="10.00">hasItem($key)</text>
<text text-anchor="start" x="4" y="-776.75" font-family="Helvetica,sans-Serif" font-size="10.00">+</text>
<text text-anchor="start" x="14" y="-776.75" font-family="Helvetica,sans-Serif" font-size="10.00">clear()</text>
<text text-anchor="start" x="4" y="-761.75" font-family="Helvetica,sans-Serif" font-size="10.00">+</text>
<text text-anchor="start" x="14" y="-761.75" font-family="Helvetica,sans-Serif" font-size="10.00">deleteItem($key)</text>
<text text-anchor="start" x="4" y="-746.75" font-family="Helvetica,sans-Serif" font-size="10.00">+</text>
<text text-anchor="start" x="14" y="-746.75" font-family="Helvetica,sans-Serif" font-size="10.00">deleteItems(array</text>
<text text-anchor="start" x="14" y="-735.5" font-family="Helvetica,sans-Serif" font-size="10.00"> $keys)</text>
<text text-anchor="start" x="4" y="-720.75" font-family="Helvetica,sans-Serif" font-size="10.00">+</text>
<text text-anchor="start" x="14" y="-720.75" font-family="Helvetica,sans-Serif" font-size="10.00">save(CacheItemInterface</text>
<text text-anchor="start" x="14" y="-709.5" font-family="Helvetica,sans-Serif" font-size="10.00"> $item)</text>
<text text-anchor="start" x="4" y="-694.75" font-family="Helvetica,sans-Serif" font-size="10.00">+</text>
<text text-anchor="start" x="14" y="-694.75" font-family="Helvetica,sans-Serif" font-size="10.00">saveDeferred(CacheItemInterface</text>
<text text-anchor="start" x="14" y="-683.5" font-family="Helvetica,sans-Serif" font-size="10.00"> $item)</text>
<text text-anchor="start" x="4" y="-668.75" font-family="Helvetica,sans-Serif" font-size="10.00">+</text>
<text text-anchor="start" x="14" y="-668.75" font-family="Helvetica,sans-Serif" font-size="10.00">commit()</text>
<polygon fill="#666666" stroke="#666666" points="0,-859.25 0,-859.25 165,-859.25 165,-859.25 0,-859.25"/>
<polygon fill="#666666" stroke="#666666" points="0,-844.25 0,-844.25 165,-844.25 165,-844.25 0,-844.25"/>
<polygon fill="none" stroke="#666666" points="0,-663.25 0,-876.25 165,-876.25 165,-663.25 0,-663.25"/>
</a>
</g>
</g>
<!-- Node4&#45;&gt;Node3 -->
<g id="edge3_Node000003_Node000004" class="edge">
<title>Node4&#45;&gt;Node3</title>
<g id="a_edge3_Node000003_Node000004"><a xlink:title=" ">
<path fill="none" stroke="#63b8ff" d="M82.5,-651.91C82.5,-621.03 82.5,-589.85 82.5,-566.52"/>
<polygon fill="none" stroke="#63b8ff" points="79,-651.75 82.5,-661.75 86,-651.75 79,-651.75"/>
</a>
</g>
</g>
<!-- Node5 -->
<g id="Node000005" class="node">
<title>Node5</title>
<g id="a_Node000005"><a xlink:href="interface_psr_1_1_simple_cache_1_1_cache_interface.html" target="_top" xlink:title=" ">
<polygon fill="white" stroke="none" points="273.5,-626.25 163.5,-626.25 163.5,-428.25 273.5,-428.25 273.5,-626.25"/>
<text text-anchor="start" x="185.12" y="-612.75" font-family="Helvetica,sans-Serif" font-size="10.00">CacheInterface</text>
<text text-anchor="start" x="217" y="-597.75" font-family="Helvetica,sans-Serif" font-size="10.00"> </text>
<text text-anchor="start" x="167.5" y="-582.75" font-family="Helvetica,sans-Serif" font-size="10.00">+</text>
<text text-anchor="start" x="177.5" y="-582.75" font-family="Helvetica,sans-Serif" font-size="10.00">get($key, $default</text>
<text text-anchor="start" x="177.5" y="-571.5" font-family="Helvetica,sans-Serif" font-size="10.00">=null)</text>
<text text-anchor="start" x="167.5" y="-556.75" font-family="Helvetica,sans-Serif" font-size="10.00">+</text>
<text text-anchor="start" x="177.5" y="-556.75" font-family="Helvetica,sans-Serif" font-size="10.00">set($key, $value,</text>
<text text-anchor="start" x="177.5" y="-545.5" font-family="Helvetica,sans-Serif" font-size="10.00"> $ttl=null)</text>
<text text-anchor="start" x="167.5" y="-530.75" font-family="Helvetica,sans-Serif" font-size="10.00">+</text>
<text text-anchor="start" x="177.5" y="-530.75" font-family="Helvetica,sans-Serif" font-size="10.00">delete($key)</text>
<text text-anchor="start" x="167.5" y="-515.75" font-family="Helvetica,sans-Serif" font-size="10.00">+</text>
<text text-anchor="start" x="177.5" y="-515.75" font-family="Helvetica,sans-Serif" font-size="10.00">clear()</text>
<text text-anchor="start" x="167.5" y="-500.75" font-family="Helvetica,sans-Serif" font-size="10.00">+</text>
<text text-anchor="start" x="177.5" y="-500.75" font-family="Helvetica,sans-Serif" font-size="10.00">getMultiple($keys,</text>
<text text-anchor="start" x="177.5" y="-489.5" font-family="Helvetica,sans-Serif" font-size="10.00"> $default=null)</text>
<text text-anchor="start" x="167.5" y="-474.75" font-family="Helvetica,sans-Serif" font-size="10.00">+</text>
<text text-anchor="start" x="177.5" y="-474.75" font-family="Helvetica,sans-Serif" font-size="10.00">setMultiple($values,</text>
<text text-anchor="start" x="177.5" y="-463.5" font-family="Helvetica,sans-Serif" font-size="10.00"> $ttl=null)</text>
<text text-anchor="start" x="167.5" y="-448.75" font-family="Helvetica,sans-Serif" font-size="10.00">+</text>
<text text-anchor="start" x="177.5" y="-448.75" font-family="Helvetica,sans-Serif" font-size="10.00">deleteMultiple($keys)</text>
<text text-anchor="start" x="167.5" y="-433.75" font-family="Helvetica,sans-Serif" font-size="10.00">+</text>
<text text-anchor="start" x="177.5" y="-433.75" font-family="Helvetica,sans-Serif" font-size="10.00">has($key)</text>
<polygon fill="#666666" stroke="#666666" points="163.5,-609.25 163.5,-609.25 273.5,-609.25 273.5,-609.25 163.5,-609.25"/>
<polygon fill="#666666" stroke="#666666" points="163.5,-594.25 163.5,-594.25 273.5,-594.25 273.5,-594.25 163.5,-594.25"/>
<polygon fill="none" stroke="#666666" points="163.5,-428.25 163.5,-626.25 273.5,-626.25 273.5,-428.25 163.5,-428.25"/>
</a>
</g>
</g>
<!-- Node5&#45;&gt;Node2 -->
<g id="edge4_Node000002_Node000005" class="edge">
<title>Node5&#45;&gt;Node2</title>
<g id="a_edge4_Node000002_Node000005"><a xlink:title=" ">
<path fill="none" stroke="#63b8ff" d="M279.33,-425.49C288.35,-410.55 297.56,-395.29 306.36,-380.72"/>
<polygon fill="none" stroke="#63b8ff" points="276.39,-423.58 274.22,-433.95 282.38,-427.2 276.39,-423.58"/>
</a>
</g>
</g>
<!-- Node6 -->
<g id="Node000006" class="node">
<title>Node6</title>
<g id="a_Node000006"><a xlink:href="interface_psr_1_1_log_1_1_logger_aware_interface.html" target="_top" xlink:title=" ">
<polygon fill="white" stroke="none" points="423,-557.25 292,-557.25 292,-497.25 423,-497.25 423,-557.25"/>
<text text-anchor="start" x="309.88" y="-543.75" font-family="Helvetica,sans-Serif" font-size="10.00">LoggerAwareInterface</text>
<text text-anchor="start" x="356" y="-528.75" font-family="Helvetica,sans-Serif" font-size="10.00"> </text>
<text text-anchor="start" x="296" y="-513.75" font-family="Helvetica,sans-Serif" font-size="10.00">+</text>
<text text-anchor="start" x="306" y="-513.75" font-family="Helvetica,sans-Serif" font-size="10.00">setLogger(LoggerInterface</text>
<text text-anchor="start" x="306" y="-502.5" font-family="Helvetica,sans-Serif" font-size="10.00"> $logger)</text>
<polygon fill="#666666" stroke="#666666" points="292,-540.25 292,-540.25 423,-540.25 423,-540.25 292,-540.25"/>
<polygon fill="#666666" stroke="#666666" points="292,-525.25 292,-525.25 423,-525.25 423,-525.25 292,-525.25"/>
<polygon fill="none" stroke="#666666" points="292,-497.25 292,-557.25 423,-557.25 423,-497.25 292,-497.25"/>
</a>
</g>
</g>
<!-- Node6&#45;&gt;Node2 -->
<g id="edge5_Node000002_Node000006" class="edge">
<title>Node6&#45;&gt;Node2</title>
<g id="a_edge5_Node000002_Node000006"><a xlink:title=" ">
<path fill="none" stroke="#63b8ff" d="M357.5,-486.25C357.5,-457.26 357.5,-416.99 357.5,-380.95"/>
<polygon fill="none" stroke="#63b8ff" points="354,-486.04 357.5,-496.04 361,-486.04 354,-486.04"/>
</a>
</g>
</g>
<!-- Node7 -->
<g id="Node000007" class="node">
<title>Node7</title>
<g id="a_Node000007"><a xlink:href="interface_symfony_1_1_component_1_1_cache_1_1_resettable_interface.html" target="_top" xlink:title=" ">
<polygon fill="white" stroke="none" points="536,-551.75 441,-551.75 441,-502.75 536,-502.75 536,-551.75"/>
<text text-anchor="start" x="445.75" y="-538.25" font-family="Helvetica,sans-Serif" font-size="10.00">ResettableInterface</text>
<text text-anchor="start" x="487" y="-523.25" font-family="Helvetica,sans-Serif" font-size="10.00"> </text>
<text text-anchor="start" x="487" y="-508.25" font-family="Helvetica,sans-Serif" font-size="10.00"> </text>
<polygon fill="#666666" stroke="#666666" points="441,-534.75 441,-534.75 536,-534.75 536,-534.75 441,-534.75"/>
<polygon fill="#666666" stroke="#666666" points="441,-519.75 441,-519.75 536,-519.75 536,-519.75 441,-519.75"/>
<polygon fill="none" stroke="#666666" points="441,-502.75 441,-551.75 536,-551.75 536,-502.75 441,-502.75"/>
</a>
</g>
</g>
<!-- Node7&#45;&gt;Node2 -->
<g id="edge6_Node000002_Node000007" class="edge">
<title>Node7&#45;&gt;Node2</title>
<g id="a_edge6_Node000002_Node000007"><a xlink:title=" ">
<path fill="none" stroke="#63b8ff" d="M469.7,-493.2C453.04,-463.93 428.01,-419.92 405.8,-380.9"/>
<polygon fill="none" stroke="#63b8ff" points="466.48,-494.63 474.47,-501.59 472.57,-491.17 466.48,-494.63"/>
</a>
</g>
</g>
<!-- Node8 -->
<g id="Node000008" class="node">
<title>Node8</title>
<g id="a_Node000008"><a xlink:href="interface_symfony_1_1_contracts_1_1_service_1_1_reset_interface.html" target="_top" xlink:title=" ">
<polygon fill="white" stroke="none" points="525.5,-794.25 451.5,-794.25 451.5,-745.25 525.5,-745.25 525.5,-794.25"/>
<text text-anchor="start" x="456.25" y="-780.75" font-family="Helvetica,sans-Serif" font-size="10.00">ResetInterface</text>
<text text-anchor="start" x="487" y="-765.75" font-family="Helvetica,sans-Serif" font-size="10.00"> </text>
<text text-anchor="start" x="462.5" y="-750.75" font-family="Helvetica,sans-Serif" font-size="10.00">+</text>
<text text-anchor="start" x="479.5" y="-750.75" font-family="Helvetica,sans-Serif" font-size="10.00">reset()</text>
<polygon fill="#666666" stroke="#666666" points="451.5,-777.25 451.5,-777.25 525.5,-777.25 525.5,-777.25 451.5,-777.25"/>
<polygon fill="#666666" stroke="#666666" points="451.5,-762.25 451.5,-762.25 525.5,-762.25 525.5,-762.25 451.5,-762.25"/>
<polygon fill="none" stroke="#666666" points="451.5,-745.25 451.5,-794.25 525.5,-794.25 525.5,-745.25 451.5,-745.25"/>
</a>
</g>
</g>
<!-- Node8&#45;&gt;Node7 -->
<g id="edge7_Node000007_Node000008" class="edge">
<title>Node8&#45;&gt;Node7</title>
<g id="a_edge7_Node000007_Node000008"><a xlink:title=" ">
<path fill="none" stroke="#63b8ff" d="M488.5,-733.8C488.5,-683.97 488.5,-593.88 488.5,-551.49"/>
<polygon fill="none" stroke="#63b8ff" points="485,-733.74 488.5,-743.74 492,-733.74 485,-733.74"/>
</a>
</g>
</g>
<!-- Node9 -->
<g id="Node000009" class="node">
<title>Node9</title>
<g id="a_Node000009"><a xlink:title=" ">
<polygon fill="white" stroke="none" points="588.5,-551.75 554.5,-551.75 554.5,-502.75 588.5,-502.75 588.5,-551.75"/>
<text text-anchor="start" x="559.5" y="-538.25" font-family="Helvetica,sans-Serif" font-size="10.00">const</text>
<text text-anchor="start" x="570" y="-523.25" font-family="Helvetica,sans-Serif" font-size="10.00"> </text>
<text text-anchor="start" x="570" y="-508.25" font-family="Helvetica,sans-Serif" font-size="10.00"> </text>
<polygon fill="#666666" stroke="#666666" points="554.5,-534.75 554.5,-534.75 588.5,-534.75 588.5,-534.75 554.5,-534.75"/>
<polygon fill="#666666" stroke="#666666" points="554.5,-519.75 554.5,-519.75 588.5,-519.75 588.5,-519.75 554.5,-519.75"/>
<polygon fill="none" stroke="#666666" points="554.5,-502.75 554.5,-551.75 588.5,-551.75 588.5,-502.75 554.5,-502.75"/>
</a>
</g>
</g>
<!-- Node9&#45;&gt;Node2 -->
<g id="edge8_Node000002_Node000009" class="edge">
<title>Node9&#45;&gt;Node2</title>
<g id="a_edge8_Node000002_Node000009"><a xlink:title=" ">
<path fill="none" stroke="#63b8ff" d="M569.84,-502.98C567.34,-481.84 561.1,-450.64 545.5,-428.25 519.76,-391.31 480.19,-361.24 443.98,-339.16"/>
<polygon fill="none" stroke="#63b8ff" points="443.97,-339.15 436.77,-339.53 433.65,-333.03 440.85,-332.65 443.97,-339.15"/>
</a>
</g>
<text text-anchor="middle" x="573.38" y="-400.75" font-family="Helvetica,sans-Serif" font-size="10.00" fill="grey"> #NS_SEPARATOR</text>
</g>
</g>
</svg>
