<?xml version="1.0" encoding="UTF-8" standalone="no"?>
<!DOCTYPE svg PUBLIC "-//W3C//DTD SVG 1.1//EN"
 "http://www.w3.org/Graphics/SVG/1.1/DTD/svg11.dtd">
<!-- Generated by graphviz version 10.0.1 (20240210.2158)
 -->
<!-- Title: LzwStreamWrapper Pages: 1 -->
<svg width="200pt" height="419pt"
 viewBox="0.00 0.00 200.00 418.75" xmlns="http://www.w3.org/2000/svg" xmlns:xlink="http://www.w3.org/1999/xlink">
<g id="graph0" class="graph" transform="scale(1 1) rotate(0) translate(4 414.75)">
<title>LzwStreamWrapper</title>
<!-- Node1 -->
<g id="Node000001" class="node">
<title>Node1</title>
<g id="a_Node000001"><a xlink:title=" ">
<polygon fill="#999999" stroke="none" points="126,-292 0,-292 0,0 126,0 126,-292"/>
<text text-anchor="start" x="20.25" y="-278.5" font-family="Helvetica,sans-Serif" font-size="10.00">LzwStreamWrapper</text>
<text text-anchor="start" x="61.5" y="-263.5" font-family="Helvetica,sans-Serif" font-size="10.00"> </text>
<text text-anchor="start" x="4" y="-248.5" font-family="Helvetica,sans-Serif" font-size="10.00">+</text>
<text text-anchor="start" x="14" y="-248.5" font-family="Helvetica,sans-Serif" font-size="10.00">stream_open($path,</text>
<text text-anchor="start" x="14" y="-237.25" font-family="Helvetica,sans-Serif" font-size="10.00"> $mode, $options)</text>
<text text-anchor="start" x="4" y="-222.5" font-family="Helvetica,sans-Serif" font-size="10.00">+</text>
<text text-anchor="start" x="14" y="-222.5" font-family="Helvetica,sans-Serif" font-size="10.00">getAvailableMemory()</text>
<text text-anchor="start" x="4" y="-207.5" font-family="Helvetica,sans-Serif" font-size="10.00">+</text>
<text text-anchor="start" x="14" y="-207.5" font-family="Helvetica,sans-Serif" font-size="10.00">getSystemMemory()</text>
<text text-anchor="start" x="4" y="-192.5" font-family="Helvetica,sans-Serif" font-size="10.00">+</text>
<text text-anchor="start" x="14" y="-192.5" font-family="Helvetica,sans-Serif" font-size="10.00">stream_stat()</text>
<text text-anchor="start" x="4" y="-177.5" font-family="Helvetica,sans-Serif" font-size="10.00">+</text>
<text text-anchor="start" x="14" y="-177.5" font-family="Helvetica,sans-Serif" font-size="10.00">stream_close()</text>
<text text-anchor="start" x="4" y="-162.5" font-family="Helvetica,sans-Serif" font-size="10.00">+</text>
<text text-anchor="start" x="14" y="-162.5" font-family="Helvetica,sans-Serif" font-size="10.00">stream_read($count)</text>
<text text-anchor="start" x="4" y="-147.5" font-family="Helvetica,sans-Serif" font-size="10.00">+</text>
<text text-anchor="start" x="14" y="-147.5" font-family="Helvetica,sans-Serif" font-size="10.00">stream_eof()</text>
<text text-anchor="start" x="4" y="-132.5" font-family="Helvetica,sans-Serif" font-size="10.00">+</text>
<text text-anchor="start" x="14" y="-132.5" font-family="Helvetica,sans-Serif" font-size="10.00">stream_tell()</text>
<text text-anchor="start" x="4" y="-117.5" font-family="Helvetica,sans-Serif" font-size="10.00">+</text>
<text text-anchor="start" x="14" y="-117.5" font-family="Helvetica,sans-Serif" font-size="10.00">stream_write($data)</text>
<text text-anchor="start" x="4" y="-102.5" font-family="Helvetica,sans-Serif" font-size="10.00">+</text>
<text text-anchor="start" x="14" y="-102.5" font-family="Helvetica,sans-Serif" font-size="10.00">stream_seek($offset,</text>
<text text-anchor="start" x="14" y="-91.25" font-family="Helvetica,sans-Serif" font-size="10.00"> $whence=SEEK_SET)</text>
<text text-anchor="start" x="4" y="-76.5" font-family="Helvetica,sans-Serif" font-size="10.00">+</text>
<text text-anchor="start" x="14" y="-76.5" font-family="Helvetica,sans-Serif" font-size="10.00">stream_lock($operation)</text>
<text text-anchor="start" x="4" y="-61.5" font-family="Helvetica,sans-Serif" font-size="10.00">+</text>
<text text-anchor="start" x="14" y="-61.5" font-family="Helvetica,sans-Serif" font-size="10.00">stream_truncate($new</text>
<text text-anchor="start" x="14" y="-50.25" font-family="Helvetica,sans-Serif" font-size="10.00">_size)</text>
<text text-anchor="start" x="4" y="-35.5" font-family="Helvetica,sans-Serif" font-size="10.00">+</text>
<text text-anchor="start" x="14" y="-35.5" font-family="Helvetica,sans-Serif" font-size="10.00">static registerWrapper()</text>
<text text-anchor="start" x="4" y="-20.5" font-family="Helvetica,sans-Serif" font-size="10.00">+</text>
<text text-anchor="start" x="14" y="-20.5" font-family="Helvetica,sans-Serif" font-size="10.00">static isBinaryAvailable()</text>
<text text-anchor="start" x="4.38" y="-5.5" font-family="Helvetica,sans-Serif" font-size="10.00">#</text>
<text text-anchor="start" x="14" y="-5.5" font-family="Helvetica,sans-Serif" font-size="10.00">static checkBinary()</text>
<polygon fill="#666666" stroke="#666666" points="0,-275 0,-275 126,-275 126,-275 0,-275"/>
<polygon fill="#666666" stroke="#666666" points="0,-260 0,-260 126,-260 126,-260 0,-260"/>
<polygon fill="none" stroke="#666666" points="0,0 0,-292 126,-292 126,0 0,0"/>
</a>
</g>
</g>
<!-- Node2 -->
<g id="Node000002" class="node">
<title>Node2</title>
<g id="a_Node000002"><a xlink:title=" ">
<polygon fill="white" stroke="none" points="80,-410.75 46,-410.75 46,-361.75 80,-361.75 80,-410.75"/>
<text text-anchor="start" x="51" y="-397.25" font-family="Helvetica,sans-Serif" font-size="10.00">static</text>
<text text-anchor="start" x="61.5" y="-382.25" font-family="Helvetica,sans-Serif" font-size="10.00"> </text>
<text text-anchor="start" x="61.5" y="-367.25" font-family="Helvetica,sans-Serif" font-size="10.00"> </text>
<polygon fill="#666666" stroke="#666666" points="46,-393.75 46,-393.75 80,-393.75 80,-393.75 46,-393.75"/>
<polygon fill="#666666" stroke="#666666" points="46,-378.75 46,-378.75 80,-378.75 80,-378.75 46,-378.75"/>
<polygon fill="none" stroke="#666666" points="46,-361.75 46,-410.75 80,-410.75 80,-361.75 46,-361.75"/>
</a>
</g>
</g>
<!-- Node2&#45;&gt;Node1 -->
<g id="edge1_Node000001_Node000002" class="edge">
<title>Node2&#45;&gt;Node1</title>
<g id="a_edge1_Node000001_Node000002"><a xlink:title=" ">
<path fill="none" stroke="#63b8ff" d="M63,-361.97C63,-347.37 63,-327.12 63,-304.85"/>
<polygon fill="none" stroke="#63b8ff" points="63,-304.82 59,-298.82 63,-292.82 67,-298.82 63,-304.82"/>
</a>
</g>
<text text-anchor="middle" x="127.5" y="-334.25" font-family="Helvetica,sans-Serif" font-size="10.00" fill="grey"> +$TMP_FILE_THRESHOLD</text>
<text text-anchor="middle" x="127.5" y="-323" font-family="Helvetica,sans-Serif" font-size="10.00" fill="grey">+$forceTmpFile</text>
<text text-anchor="middle" x="127.5" y="-311.75" font-family="Helvetica,sans-Serif" font-size="10.00" fill="grey">+$highLimit</text>
</g>
</g>
</svg>
