<?xml version="1.0" encoding="UTF-8" standalone="no"?>
<!DOCTYPE svg PUBLIC "-//W3C//DTD SVG 1.1//EN"
 "http://www.w3.org/Graphics/SVG/1.1/DTD/svg11.dtd">
<!-- Generated by graphviz version 10.0.1 (20240210.2158)
 -->
<!-- Title: BashCompletionOutput Pages: 1 -->
<svg width="160pt" height="186pt"
 viewBox="0.00 0.00 160.00 186.00" xmlns="http://www.w3.org/2000/svg" xmlns:xlink="http://www.w3.org/1999/xlink">

<svg id="main" version="1.1" xmlns="http://www.w3.org/2000/svg" xmlns:xlink="http://www.w3.org/1999/xlink" xml:space="preserve" onload="init(evt)">
<style type="text/css"><![CDATA[
.node, .edge {opacity: 0.7;}
.node.selected, .edge.selected {opacity: 1;}
.edge:hover path { stroke: red; }
.edge:hover polygon { stroke: red; fill: red; }
]]></style>
<script type="application/ecmascript" xlink:href="svg.min.js"/>
<svg id="graph" class="graph">
<g id="graph0" class="graph" transform="scale(1 1) rotate(0) translate(4 182)">
<title>BashCompletionOutput</title>
<!-- Node1 -->
<g id="Node000001" class="node">
<title>Node1</title>
<g id="a_Node000001"><a xlink:title=" ">
<polygon fill="#999999" stroke="none" points="152,-71 0,-71 0,0 152,0 152,-71"/>
<text text-anchor="start" x="25.38" y="-57.5" font-family="Helvetica,sans-Serif" font-size="10.00">BashCompletionOutput</text>
<text text-anchor="start" x="74.5" y="-42.5" font-family="Helvetica,sans-Serif" font-size="10.00"> </text>
<text text-anchor="start" x="4" y="-27.5" font-family="Helvetica,sans-Serif" font-size="10.00">+</text>
<text text-anchor="start" x="14" y="-27.5" font-family="Helvetica,sans-Serif" font-size="10.00">write(CompletionSuggestions</text>
<text text-anchor="start" x="14" y="-16.25" font-family="Helvetica,sans-Serif" font-size="10.00"> $suggestions, OutputInterface</text>
<text text-anchor="start" x="14" y="-5" font-family="Helvetica,sans-Serif" font-size="10.00"> $output)</text>
<polygon fill="#666666" stroke="#666666" points="0,-54 0,-54 152,-54 152,-54 0,-54"/>
<polygon fill="#666666" stroke="#666666" points="0,-39 0,-39 152,-39 152,-39 0,-39"/>
<polygon fill="none" stroke="#666666" points="0,0 0,-71 152,-71 152,0 0,0"/>
</a>
</g>
</g>
<!-- Node2 -->
<g id="Node000002" class="node">
<title>Node2</title>
<g id="a_Node000002"><a xlink:href="interface_symfony_1_1_component_1_1_console_1_1_completion_1_1_output_1_1_completion_output_interface.html" target="_top" xlink:title=" ">
<polygon fill="white" stroke="none" points="152,-178 0,-178 0,-107 152,-107 152,-178"/>
<text text-anchor="start" x="17.5" y="-164.5" font-family="Helvetica,sans-Serif" font-size="10.00">CompletionOutputInterface</text>
<text text-anchor="start" x="74.5" y="-149.5" font-family="Helvetica,sans-Serif" font-size="10.00"> </text>
<text text-anchor="start" x="4" y="-134.5" font-family="Helvetica,sans-Serif" font-size="10.00">+</text>
<text text-anchor="start" x="14" y="-134.5" font-family="Helvetica,sans-Serif" font-size="10.00">write(CompletionSuggestions</text>
<text text-anchor="start" x="14" y="-123.25" font-family="Helvetica,sans-Serif" font-size="10.00"> $suggestions, OutputInterface</text>
<text text-anchor="start" x="14" y="-112" font-family="Helvetica,sans-Serif" font-size="10.00"> $output)</text>
<polygon fill="#666666" stroke="#666666" points="0,-161 0,-161 152,-161 152,-161 0,-161"/>
<polygon fill="#666666" stroke="#666666" points="0,-146 0,-146 152,-146 152,-146 0,-146"/>
<polygon fill="none" stroke="#666666" points="0,-107 0,-178 152,-178 152,-107 0,-107"/>
</a>
</g>
</g>
<!-- Node2&#45;&gt;Node1 -->
<g id="edge1_Node000001_Node000002" class="edge">
<title>Node2&#45;&gt;Node1</title>
<g id="a_edge1_Node000001_Node000002"><a xlink:title=" ">
<path fill="none" stroke="#63b8ff" d="M76,-95.64C76,-87.36 76,-78.85 76,-70.96"/>
<polygon fill="none" stroke="#63b8ff" points="72.5,-95.61 76,-105.61 79.5,-95.61 72.5,-95.61"/>
</a>
</g>
</g>
</g>
</svg>
</svg>

<style type='text/css'>
<![CDATA[
[data-mouse-over-selected='false'] { opacity: 0.7; }
[data-mouse-over-selected='true']  { opacity: 1.0; }
]]>
</style>
<script type="application/ecmascript"><![CDATA[
document.addEventListener('DOMContentLoaded', (event) => {
  highlightEdges();
  highlightAdjacentNodes();
});
]]></script>
</svg>
