<?xml version="1.0" encoding="UTF-8" standalone="no"?>
<!DOCTYPE svg PUBLIC "-//W3C//DTD SVG 1.1//EN"
 "http://www.w3.org/Graphics/SVG/1.1/DTD/svg11.dtd">
<!-- Generated by graphviz version 10.0.1 (20240210.2158)
 -->
<!-- Title: Image Pages: 1 -->
<svg width="165pt" height="358pt"
 viewBox="0.00 0.00 165.00 358.00" xmlns="http://www.w3.org/2000/svg" xmlns:xlink="http://www.w3.org/1999/xlink">
<g id="graph0" class="graph" transform="scale(1 1) rotate(0) translate(4 354)">
<title>Image</title>
<!-- Node1 -->
<g id="Node000001" class="node">
<title>Node1</title>
<g id="a_Node000001"><a xlink:title=" ">
<polygon fill="#999999" stroke="none" points="157,-101 0,-101 0,0 157,0 157,-101"/>
<text text-anchor="start" x="65" y="-87.5" font-family="Helvetica,sans-Serif" font-size="10.00">Image</text>
<text text-anchor="start" x="77" y="-72.5" font-family="Helvetica,sans-Serif" font-size="10.00"> </text>
<text text-anchor="start" x="4" y="-57.5" font-family="Helvetica,sans-Serif" font-size="10.00">+</text>
<text text-anchor="start" x="14" y="-57.5" font-family="Helvetica,sans-Serif" font-size="10.00">__construct(\DOMElement</text>
<text text-anchor="start" x="14" y="-46.25" font-family="Helvetica,sans-Serif" font-size="10.00"> $node, ?string $currentUri=null)</text>
<text text-anchor="start" x="4.38" y="-31.5" font-family="Helvetica,sans-Serif" font-size="10.00">#</text>
<text text-anchor="start" x="14" y="-31.5" font-family="Helvetica,sans-Serif" font-size="10.00">getRawUri()</text>
<text text-anchor="start" x="4.38" y="-16.5" font-family="Helvetica,sans-Serif" font-size="10.00">#</text>
<text text-anchor="start" x="14" y="-16.5" font-family="Helvetica,sans-Serif" font-size="10.00">setNode(\DOMElement</text>
<text text-anchor="start" x="14" y="-5.25" font-family="Helvetica,sans-Serif" font-size="10.00"> $node)</text>
<polygon fill="#666666" stroke="#666666" points="0,-84 0,-84 157,-84 157,-84 0,-84"/>
<polygon fill="#666666" stroke="#666666" points="0,-69 0,-69 157,-69 157,-69 0,-69"/>
<polygon fill="none" stroke="#666666" points="0,0 0,-101 157,-101 157,0 0,0"/>
</a>
</g>
</g>
<!-- Node2 -->
<g id="Node000002" class="node">
<title>Node2</title>
<g id="a_Node000002"><a xlink:href="class_symfony_1_1_component_1_1_dom_crawler_1_1_abstract_uri_element.html" target="_top" xlink:title=" ">
<polygon fill="white" stroke="none" points="152.5,-350 4.5,-350 4.5,-137 152.5,-137 152.5,-350"/>
<text text-anchor="start" x="35.75" y="-336.5" font-family="Helvetica,sans-Serif" font-size="10.00">AbstractUriElement</text>
<text text-anchor="start" x="8.88" y="-321.5" font-family="Helvetica,sans-Serif" font-size="10.00">#</text>
<text text-anchor="start" x="18.5" y="-321.5" font-family="Helvetica,sans-Serif" font-size="10.00">$node</text>
<text text-anchor="start" x="8.88" y="-306.5" font-family="Helvetica,sans-Serif" font-size="10.00">#</text>
<text text-anchor="start" x="18.5" y="-306.5" font-family="Helvetica,sans-Serif" font-size="10.00">$method</text>
<text text-anchor="start" x="8.88" y="-291.5" font-family="Helvetica,sans-Serif" font-size="10.00">#</text>
<text text-anchor="start" x="18.5" y="-291.5" font-family="Helvetica,sans-Serif" font-size="10.00">$currentUri</text>
<text text-anchor="start" x="8.5" y="-276.5" font-family="Helvetica,sans-Serif" font-size="10.00">+</text>
<text text-anchor="start" x="18.5" y="-276.5" font-family="Helvetica,sans-Serif" font-size="10.00">__construct(\DOMElement</text>
<text text-anchor="start" x="18.5" y="-265.25" font-family="Helvetica,sans-Serif" font-size="10.00"> $node, ?string $currentUri</text>
<text text-anchor="start" x="18.5" y="-254" font-family="Helvetica,sans-Serif" font-size="10.00">=null, ?string $method=&#39;GET&#39;)</text>
<text text-anchor="start" x="8.5" y="-239.5" font-family="Helvetica,sans-Serif" font-size="10.00">+</text>
<text text-anchor="start" x="18.5" y="-239.5" font-family="Helvetica,sans-Serif" font-size="10.00">getNode()</text>
<text text-anchor="start" x="8.5" y="-224.5" font-family="Helvetica,sans-Serif" font-size="10.00">+</text>
<text text-anchor="start" x="18.5" y="-224.5" font-family="Helvetica,sans-Serif" font-size="10.00">getMethod()</text>
<text text-anchor="start" x="8.5" y="-209.5" font-family="Helvetica,sans-Serif" font-size="10.00">+</text>
<text text-anchor="start" x="18.5" y="-209.5" font-family="Helvetica,sans-Serif" font-size="10.00">getUri()</text>
<text text-anchor="start" x="8.88" y="-194.5" font-family="Helvetica,sans-Serif" font-size="10.00">#</text>
<text text-anchor="start" x="18.5" y="-194.5" font-family="Helvetica,sans-Serif" font-size="10.00">getRawUri()</text>
<text text-anchor="start" x="8.88" y="-179.5" font-family="Helvetica,sans-Serif" font-size="10.00">#</text>
<text text-anchor="start" x="18.5" y="-179.5" font-family="Helvetica,sans-Serif" font-size="10.00">canonicalizePath(string</text>
<text text-anchor="start" x="18.5" y="-168.25" font-family="Helvetica,sans-Serif" font-size="10.00"> $path)</text>
<text text-anchor="start" x="8.88" y="-153.5" font-family="Helvetica,sans-Serif" font-size="10.00">#</text>
<text text-anchor="start" x="18.5" y="-153.5" font-family="Helvetica,sans-Serif" font-size="10.00">setNode(\DOMElement</text>
<text text-anchor="start" x="18.5" y="-142.25" font-family="Helvetica,sans-Serif" font-size="10.00"> $node)</text>
<polygon fill="#666666" stroke="#666666" points="4.5,-333 4.5,-333 152.5,-333 152.5,-333 4.5,-333"/>
<polygon fill="#666666" stroke="#666666" points="4.5,-288 4.5,-288 16.5,-288 16.5,-288 4.5,-288"/>
<polygon fill="#666666" stroke="#666666" points="16.5,-288 16.5,-288 152.5,-288 152.5,-288 16.5,-288"/>
<polygon fill="none" stroke="#666666" points="4.5,-137 4.5,-350 152.5,-350 152.5,-137 4.5,-137"/>
</a>
</g>
</g>
<!-- Node2&#45;&gt;Node1 -->
<g id="edge1_Node000001_Node000002" class="edge">
<title>Node2&#45;&gt;Node1</title>
<g id="a_edge1_Node000001_Node000002"><a xlink:title=" ">
<path fill="none" stroke="#63b8ff" d="M78.5,-125.77C78.5,-117.15 78.5,-108.77 78.5,-100.93"/>
<polygon fill="none" stroke="#63b8ff" points="75,-125.71 78.5,-135.71 82,-125.71 75,-125.71"/>
</a>
</g>
</g>
</g>
</svg>
