<?xml version="1.0" encoding="UTF-8" standalone="no"?>
<!DOCTYPE svg PUBLIC "-//W3C//DTD SVG 1.1//EN"
 "http://www.w3.org/Graphics/SVG/1.1/DTD/svg11.dtd">
<!-- Generated by graphviz version 10.0.1 (20240210.2158)
 -->
<!-- Title: Colors Pages: 1 -->
<svg width="140pt" height="190pt"
 viewBox="0.00 0.00 140.00 190.25" xmlns="http://www.w3.org/2000/svg" xmlns:xlink="http://www.w3.org/1999/xlink">

<svg id="main" version="1.1" xmlns="http://www.w3.org/2000/svg" xmlns:xlink="http://www.w3.org/1999/xlink" xml:space="preserve" onload="init(evt)">
<style type="text/css"><![CDATA[
.node, .edge {opacity: 0.7;}
.node.selected, .edge.selected {opacity: 1;}
.edge:hover path { stroke: red; }
.edge:hover polygon { stroke: red; fill: red; }
]]></style>
<script type="application/ecmascript" xlink:href="svg.min.js"/>
<svg id="graph" class="graph">
<g id="graph0" class="graph" transform="scale(1 1) rotate(0) translate(4 186.25)">
<title>Colors</title>
<!-- Node1 -->
<g id="Node000001" class="node">
<title>Node1</title>
<g id="a_Node000001"><a xlink:title=" ">
<polygon fill="#999999" stroke="none" points="132,-86 0,-86 0,0 132,0 132,-86"/>
<text text-anchor="start" x="51.75" y="-72.5" font-family="Helvetica,sans-Serif" font-size="10.00">Colors</text>
<text text-anchor="start" x="64.5" y="-57.5" font-family="Helvetica,sans-Serif" font-size="10.00"> </text>
<text text-anchor="start" x="4" y="-42.5" font-family="Helvetica,sans-Serif" font-size="10.00">+</text>
<text text-anchor="start" x="14" y="-42.5" font-family="Helvetica,sans-Serif" font-size="10.00">static colorNameToRGBa</text>
<text text-anchor="start" x="14" y="-31.25" font-family="Helvetica,sans-Serif" font-size="10.00">($colorName)</text>
<text text-anchor="start" x="4" y="-16.5" font-family="Helvetica,sans-Serif" font-size="10.00">+</text>
<text text-anchor="start" x="14" y="-16.5" font-family="Helvetica,sans-Serif" font-size="10.00">static RGBaToColorName</text>
<text text-anchor="start" x="14" y="-5.25" font-family="Helvetica,sans-Serif" font-size="10.00">($r, $g, $b, $a=1)</text>
<polygon fill="#666666" stroke="#666666" points="0,-69 0,-69 132,-69 132,-69 0,-69"/>
<polygon fill="#666666" stroke="#666666" points="0,-54 0,-54 132,-54 132,-54 0,-54"/>
<polygon fill="none" stroke="#666666" points="0,0 0,-86 132,-86 132,0 0,0"/>
</a>
</g>
</g>
<!-- Node2 -->
<g id="Node000002" class="node">
<title>Node2</title>
<g id="a_Node000002"><a xlink:title=" ">
<polygon fill="white" stroke="none" points="83,-182.25 49,-182.25 49,-133.25 83,-133.25 83,-182.25"/>
<text text-anchor="start" x="54" y="-168.75" font-family="Helvetica,sans-Serif" font-size="10.00">static</text>
<text text-anchor="start" x="64.5" y="-153.75" font-family="Helvetica,sans-Serif" font-size="10.00"> </text>
<text text-anchor="start" x="64.5" y="-138.75" font-family="Helvetica,sans-Serif" font-size="10.00"> </text>
<polygon fill="#666666" stroke="#666666" points="49,-165.25 49,-165.25 83,-165.25 83,-165.25 49,-165.25"/>
<polygon fill="#666666" stroke="#666666" points="49,-150.25 49,-150.25 83,-150.25 83,-150.25 49,-150.25"/>
<polygon fill="none" stroke="#666666" points="49,-133.25 49,-182.25 83,-182.25 83,-133.25 49,-133.25"/>
</a>
</g>
</g>
<!-- Node2&#45;&gt;Node1 -->
<g id="edge1_Node000001_Node000002" class="edge">
<title>Node2&#45;&gt;Node1</title>
<g id="a_edge1_Node000001_Node000002"><a xlink:title=" ">
<path fill="none" stroke="#63b8ff" d="M66,-133.39C66,-123.14 66,-110.65 66,-98.3"/>
<polygon fill="none" stroke="#63b8ff" points="66,-98.47 62,-92.47 66,-86.47 70,-92.47 66,-98.47"/>
</a>
</g>
<text text-anchor="middle" x="94.88" y="-105.75" font-family="Helvetica,sans-Serif" font-size="10.00" fill="grey"> #$cssColors</text>
</g>
</g>
</svg>
</svg>

<style type='text/css'>
<![CDATA[
[data-mouse-over-selected='false'] { opacity: 0.7; }
[data-mouse-over-selected='true']  { opacity: 1.0; }
]]>
</style>
<script type="application/ecmascript"><![CDATA[
document.addEventListener('DOMContentLoaded', (event) => {
  highlightEdges();
  highlightAdjacentNodes();
});
]]></script>
</svg>
