<?xml version="1.0" encoding="UTF-8" standalone="no"?>
<!DOCTYPE svg PUBLIC "-//W3C//DTD SVG 1.1//EN"
 "http://www.w3.org/Graphics/SVG/1.1/DTD/svg11.dtd">
<!-- Generated by graphviz version 10.0.1 (20240210.2158)
 -->
<!-- Title: PushoverHandler Pages: 1 -->
<!--zoomable 1479 -->

<svg id="main" version="1.1" xmlns="http://www.w3.org/2000/svg" xmlns:xlink="http://www.w3.org/1999/xlink" xml:space="preserve" onload="init(evt)">
<style type="text/css"><![CDATA[
.node, .edge {opacity: 0.7;}
.node.selected, .edge.selected {opacity: 1;}
.edge:hover path { stroke: red; }
.edge:hover polygon { stroke: red; fill: red; }
]]></style>

<defs>
  <circle id="rim" cx="0" cy="0" r="7"/>
  <circle id="rim2" cx="0" cy="0" r="3.5"/>
  <g id="zoomPlus">
    <use xlink:href="#rim" fill="#404040"><set attributeName="fill" to="#808080" begin="zoomplus.mouseover" end="zoomplus.mouseout"/></use>
    <path d="M-4,0h8M0,-4v8" fill="none" stroke="white" stroke-width="1.5" pointer-events="none"/>
  </g>
  <g id="zoomMin">
    <use xlink:href="#rim" fill="#404040"><set attributeName="fill" to="#808080" begin="zoomminus.mouseover" end="zoomminus.mouseout"/></use>
    <path d="M-4,0h8" fill="none" stroke="white" stroke-width="1.5" pointer-events="none"/>
  </g>
  <g id="arrowUp" transform="translate(30 24)">
    <use xlink:href="#rim"/>
    <path pointer-events="none" fill="none" stroke="white" stroke-width="1.5" d="M0,-3.0v7 M-2.5,-0.5L0,-3.0L2.5,-0.5"/>
  </g>
  <g id="arrowRight" transform="rotate(90) translate(36 -43)">
    <use xlink:href="#rim"/>
    <path pointer-events="none" fill="none" stroke="white" stroke-width="1.5" d="M0,-3.0v7 M-2.5,-0.5L0,-3.0L2.5,-0.5"/>
  </g>
  <g id="arrowDown" transform="rotate(180) translate(-30 -48)">
    <use xlink:href="#rim"/>
    <path pointer-events="none" fill="none" stroke="white" stroke-width="1.5" d="M0,-3.0v7 M-2.5,-0.5L0,-3.0L2.5,-0.5"/>
  </g>
  <g id="arrowLeft" transform="rotate(270) translate(-36 17)">
    <use xlink:href="#rim"/>
    <path pointer-events="none" fill="none" stroke="white" stroke-width="1.5" d="M0,-3.0v7 M-2.5,-0.5L0,-3.0L2.5,-0.5"/>
  </g>
  <g id="resetDef">
    <use xlink:href="#rim2" fill="#404040"><set attributeName="fill" to="#808080" begin="reset.mouseover" end="reset.mouseout"/></use>
  </g>
</defs>
<script type="application/ecmascript">
var viewWidth = 509;
var viewHeight = 1479;
var sectionId = 'dynsection-1';
</script>
<script type="application/ecmascript" xlink:href="svg.min.js"/>
<svg id="graph" class="graph">
<g id="viewport">
<title>PushoverHandler</title>
<!-- Node1 -->
<g id="Node000001" class="node">
<title>Node1</title>
<g id="a_Node000001"><a xlink:title=" ">
<polygon fill="#999999" stroke="none" points="361.5,-280 155.5,-280 155.5,0 361.5,0 361.5,-280"/>
<text text-anchor="start" x="221" y="-266.5" font-family="Helvetica,sans-Serif" font-size="10.00">PushoverHandler</text>
<text text-anchor="start" x="257" y="-251.5" font-family="Helvetica,sans-Serif" font-size="10.00"> </text>
<text text-anchor="start" x="159.5" y="-236.5" font-family="Helvetica,sans-Serif" font-size="10.00">+</text>
<text text-anchor="start" x="169.5" y="-236.5" font-family="Helvetica,sans-Serif" font-size="10.00">__construct(string</text>
<text text-anchor="start" x="169.5" y="-225.25" font-family="Helvetica,sans-Serif" font-size="10.00"> $token, $users, ?string</text>
<text text-anchor="start" x="169.5" y="-214" font-family="Helvetica,sans-Serif" font-size="10.00"> $title=null, $level=Logger</text>
<text text-anchor="start" x="169.5" y="-202.75" font-family="Helvetica,sans-Serif" font-size="10.00">::CRITICAL, bool $bubble=true,</text>
<text text-anchor="start" x="169.5" y="-191.5" font-family="Helvetica,sans-Serif" font-size="10.00"> bool $useSSL=true, $highPriorityLevel</text>
<text text-anchor="start" x="169.5" y="-180.25" font-family="Helvetica,sans-Serif" font-size="10.00">=Logger::CRITICAL, $emergencyLevel</text>
<text text-anchor="start" x="169.5" y="-169" font-family="Helvetica,sans-Serif" font-size="10.00">=Logger::EMERGENCY, int $retry=30, int</text>
<text text-anchor="start" x="169.5" y="-157.75" font-family="Helvetica,sans-Serif" font-size="10.00"> $expire=25200, bool $persistent=false,</text>
<text text-anchor="start" x="169.5" y="-146.5" font-family="Helvetica,sans-Serif" font-size="10.00"> float $timeout=0.0, float $writingTimeout</text>
<text text-anchor="start" x="169.5" y="-135.25" font-family="Helvetica,sans-Serif" font-size="10.00">=10.0, ?float $connectionTimeout=null, ?int</text>
<text text-anchor="start" x="169.5" y="-124" font-family="Helvetica,sans-Serif" font-size="10.00"> $chunkSize=null)</text>
<text text-anchor="start" x="159.5" y="-109.5" font-family="Helvetica,sans-Serif" font-size="10.00">+</text>
<text text-anchor="start" x="169.5" y="-109.5" font-family="Helvetica,sans-Serif" font-size="10.00">setHighPriorityLevel</text>
<text text-anchor="start" x="169.5" y="-98.25" font-family="Helvetica,sans-Serif" font-size="10.00">($value)</text>
<text text-anchor="start" x="159.5" y="-83.5" font-family="Helvetica,sans-Serif" font-size="10.00">+</text>
<text text-anchor="start" x="169.5" y="-83.5" font-family="Helvetica,sans-Serif" font-size="10.00">setEmergencyLevel</text>
<text text-anchor="start" x="169.5" y="-72.25" font-family="Helvetica,sans-Serif" font-size="10.00">($value)</text>
<text text-anchor="start" x="159.5" y="-57.5" font-family="Helvetica,sans-Serif" font-size="10.00">+</text>
<text text-anchor="start" x="169.5" y="-57.5" font-family="Helvetica,sans-Serif" font-size="10.00">useFormattedMessage</text>
<text text-anchor="start" x="169.5" y="-46.25" font-family="Helvetica,sans-Serif" font-size="10.00">(bool $value)</text>
<text text-anchor="start" x="159.88" y="-31.5" font-family="Helvetica,sans-Serif" font-size="10.00">#</text>
<text text-anchor="start" x="169.5" y="-31.5" font-family="Helvetica,sans-Serif" font-size="10.00">generateDataStream</text>
<text text-anchor="start" x="169.5" y="-20.25" font-family="Helvetica,sans-Serif" font-size="10.00">(array $record)</text>
<text text-anchor="start" x="159.88" y="-5.5" font-family="Helvetica,sans-Serif" font-size="10.00">#</text>
<text text-anchor="start" x="169.5" y="-5.5" font-family="Helvetica,sans-Serif" font-size="10.00">write(array $record)</text>
<polygon fill="#666666" stroke="#666666" points="155.5,-263 155.5,-263 361.5,-263 361.5,-263 155.5,-263"/>
<polygon fill="#666666" stroke="#666666" points="155.5,-248 155.5,-248 361.5,-248 361.5,-248 155.5,-248"/>
<polygon fill="none" stroke="#666666" points="155.5,0 155.5,-280 361.5,-280 361.5,0 155.5,0"/>
</a>
</g>
</g>
<!-- Node2 -->
<g id="Node000002" class="node">
<title>Node2</title>
<g id="a_Node000002"><a xlink:href="class_monolog_1_1_handler_1_1_socket_handler.html" target="_top" xlink:title=" ">
<polygon fill="white" stroke="none" points="345.5,-855 171.5,-855 171.5,-316 345.5,-316 345.5,-855"/>
<text text-anchor="start" x="226.25" y="-841.5" font-family="Helvetica,sans-Serif" font-size="10.00">SocketHandler</text>
<text text-anchor="start" x="257" y="-826.5" font-family="Helvetica,sans-Serif" font-size="10.00"> </text>
<text text-anchor="start" x="175.5" y="-811.5" font-family="Helvetica,sans-Serif" font-size="10.00">+</text>
<text text-anchor="start" x="185.5" y="-811.5" font-family="Helvetica,sans-Serif" font-size="10.00">__construct(string</text>
<text text-anchor="start" x="185.5" y="-800.25" font-family="Helvetica,sans-Serif" font-size="10.00"> $connectionString,</text>
<text text-anchor="start" x="185.5" y="-789" font-family="Helvetica,sans-Serif" font-size="10.00"> $level=Logger::DEBUG,</text>
<text text-anchor="start" x="185.5" y="-777.75" font-family="Helvetica,sans-Serif" font-size="10.00"> bool $bubble=true, bool</text>
<text text-anchor="start" x="185.5" y="-766.5" font-family="Helvetica,sans-Serif" font-size="10.00"> $persistent=false, float</text>
<text text-anchor="start" x="185.5" y="-755.25" font-family="Helvetica,sans-Serif" font-size="10.00"> $timeout=0.0, float $writingTimeout</text>
<text text-anchor="start" x="185.5" y="-744" font-family="Helvetica,sans-Serif" font-size="10.00">=10.0, ?float $connectionTimeout</text>
<text text-anchor="start" x="185.5" y="-732.75" font-family="Helvetica,sans-Serif" font-size="10.00">=null, ?int $chunkSize=null)</text>
<text text-anchor="start" x="175.5" y="-717.5" font-family="Helvetica,sans-Serif" font-size="10.00">+</text>
<text text-anchor="start" x="185.5" y="-717.5" font-family="Helvetica,sans-Serif" font-size="10.00">close()</text>
<text text-anchor="start" x="175.5" y="-702.5" font-family="Helvetica,sans-Serif" font-size="10.00">+</text>
<text text-anchor="start" x="185.5" y="-702.5" font-family="Helvetica,sans-Serif" font-size="10.00">closeSocket()</text>
<text text-anchor="start" x="175.5" y="-687.5" font-family="Helvetica,sans-Serif" font-size="10.00">+</text>
<text text-anchor="start" x="185.5" y="-687.5" font-family="Helvetica,sans-Serif" font-size="10.00">setPersistent(bool</text>
<text text-anchor="start" x="185.5" y="-676.25" font-family="Helvetica,sans-Serif" font-size="10.00"> $persistent)</text>
<text text-anchor="start" x="175.5" y="-661.5" font-family="Helvetica,sans-Serif" font-size="10.00">+</text>
<text text-anchor="start" x="185.5" y="-661.5" font-family="Helvetica,sans-Serif" font-size="10.00">setConnectionTimeout</text>
<text text-anchor="start" x="185.5" y="-650.25" font-family="Helvetica,sans-Serif" font-size="10.00">(float $seconds)</text>
<text text-anchor="start" x="175.5" y="-635.5" font-family="Helvetica,sans-Serif" font-size="10.00">+</text>
<text text-anchor="start" x="185.5" y="-635.5" font-family="Helvetica,sans-Serif" font-size="10.00">setTimeout(float </text>
<text text-anchor="start" x="185.5" y="-624.25" font-family="Helvetica,sans-Serif" font-size="10.00">$seconds)</text>
<text text-anchor="start" x="175.5" y="-609.5" font-family="Helvetica,sans-Serif" font-size="10.00">+</text>
<text text-anchor="start" x="185.5" y="-609.5" font-family="Helvetica,sans-Serif" font-size="10.00">setWritingTimeout</text>
<text text-anchor="start" x="185.5" y="-598.25" font-family="Helvetica,sans-Serif" font-size="10.00">(float $seconds)</text>
<text text-anchor="start" x="175.5" y="-583.5" font-family="Helvetica,sans-Serif" font-size="10.00">+</text>
<text text-anchor="start" x="185.5" y="-583.5" font-family="Helvetica,sans-Serif" font-size="10.00">setChunkSize(int </text>
<text text-anchor="start" x="185.5" y="-572.25" font-family="Helvetica,sans-Serif" font-size="10.00">$bytes)</text>
<text text-anchor="start" x="175.5" y="-557.5" font-family="Helvetica,sans-Serif" font-size="10.00">+</text>
<text text-anchor="start" x="185.5" y="-557.5" font-family="Helvetica,sans-Serif" font-size="10.00">getConnectionString()</text>
<text text-anchor="start" x="175.5" y="-542.5" font-family="Helvetica,sans-Serif" font-size="10.00">+</text>
<text text-anchor="start" x="185.5" y="-542.5" font-family="Helvetica,sans-Serif" font-size="10.00">isPersistent()</text>
<text text-anchor="start" x="175.5" y="-527.5" font-family="Helvetica,sans-Serif" font-size="10.00">+</text>
<text text-anchor="start" x="185.5" y="-527.5" font-family="Helvetica,sans-Serif" font-size="10.00">getConnectionTimeout()</text>
<text text-anchor="start" x="175.5" y="-512.5" font-family="Helvetica,sans-Serif" font-size="10.00">+</text>
<text text-anchor="start" x="185.5" y="-512.5" font-family="Helvetica,sans-Serif" font-size="10.00">getTimeout()</text>
<text text-anchor="start" x="175.5" y="-497.5" font-family="Helvetica,sans-Serif" font-size="10.00">+</text>
<text text-anchor="start" x="185.5" y="-497.5" font-family="Helvetica,sans-Serif" font-size="10.00">getWritingTimeout()</text>
<text text-anchor="start" x="175.5" y="-482.5" font-family="Helvetica,sans-Serif" font-size="10.00">+</text>
<text text-anchor="start" x="185.5" y="-482.5" font-family="Helvetica,sans-Serif" font-size="10.00">getChunkSize()</text>
<text text-anchor="start" x="175.5" y="-467.5" font-family="Helvetica,sans-Serif" font-size="10.00">+</text>
<text text-anchor="start" x="185.5" y="-467.5" font-family="Helvetica,sans-Serif" font-size="10.00">isConnected()</text>
<text text-anchor="start" x="175.88" y="-452.5" font-family="Helvetica,sans-Serif" font-size="10.00">#</text>
<text text-anchor="start" x="185.5" y="-452.5" font-family="Helvetica,sans-Serif" font-size="10.00">write(array $record)</text>
<text text-anchor="start" x="175.88" y="-437.5" font-family="Helvetica,sans-Serif" font-size="10.00">#</text>
<text text-anchor="start" x="185.5" y="-437.5" font-family="Helvetica,sans-Serif" font-size="10.00">pfsockopen()</text>
<text text-anchor="start" x="175.88" y="-422.5" font-family="Helvetica,sans-Serif" font-size="10.00">#</text>
<text text-anchor="start" x="185.5" y="-422.5" font-family="Helvetica,sans-Serif" font-size="10.00">fsockopen()</text>
<text text-anchor="start" x="175.88" y="-407.5" font-family="Helvetica,sans-Serif" font-size="10.00">#</text>
<text text-anchor="start" x="185.5" y="-407.5" font-family="Helvetica,sans-Serif" font-size="10.00">streamSetTimeout()</text>
<text text-anchor="start" x="175.88" y="-392.5" font-family="Helvetica,sans-Serif" font-size="10.00">#</text>
<text text-anchor="start" x="185.5" y="-392.5" font-family="Helvetica,sans-Serif" font-size="10.00">streamSetChunkSize()</text>
<text text-anchor="start" x="175.88" y="-377.5" font-family="Helvetica,sans-Serif" font-size="10.00">#</text>
<text text-anchor="start" x="185.5" y="-377.5" font-family="Helvetica,sans-Serif" font-size="10.00">fwrite(string $data)</text>
<text text-anchor="start" x="175.88" y="-362.5" font-family="Helvetica,sans-Serif" font-size="10.00">#</text>
<text text-anchor="start" x="185.5" y="-362.5" font-family="Helvetica,sans-Serif" font-size="10.00">streamGetMetadata()</text>
<text text-anchor="start" x="175.88" y="-347.5" font-family="Helvetica,sans-Serif" font-size="10.00">#</text>
<text text-anchor="start" x="185.5" y="-347.5" font-family="Helvetica,sans-Serif" font-size="10.00">generateDataStream</text>
<text text-anchor="start" x="185.5" y="-336.25" font-family="Helvetica,sans-Serif" font-size="10.00">(array $record)</text>
<text text-anchor="start" x="175.88" y="-321.5" font-family="Helvetica,sans-Serif" font-size="10.00">#</text>
<text text-anchor="start" x="185.5" y="-321.5" font-family="Helvetica,sans-Serif" font-size="10.00">getResource()</text>
<polygon fill="#666666" stroke="#666666" points="171.5,-838 171.5,-838 345.5,-838 345.5,-838 171.5,-838"/>
<polygon fill="#666666" stroke="#666666" points="171.5,-823 171.5,-823 345.5,-823 345.5,-823 171.5,-823"/>
<polygon fill="none" stroke="#666666" points="171.5,-316 171.5,-855 345.5,-855 345.5,-316 171.5,-316"/>
</a>
</g>
</g>
<!-- Node2&#45;&gt;Node1 -->
<g id="edge1_Node000001_Node000002" class="edge">
<title>Node2&#45;&gt;Node1</title>
<g id="a_edge1_Node000001_Node000002"><a xlink:title=" ">
<path fill="none" stroke="#63b8ff" d="M258.5,-305.01C258.5,-296.48 258.5,-288.07 258.5,-279.84"/>
<polygon fill="none" stroke="#63b8ff" points="255,-304.77 258.5,-314.77 262,-304.77 255,-304.77"/>
</a>
</g>
</g>
<!-- Node3 -->
<g id="Node000003" class="node">
<title>Node3</title>
<g id="a_Node000003"><a xlink:href="class_monolog_1_1_handler_1_1_abstract_processing_handler.html" target="_top" xlink:title=" ">
<polygon fill="white" stroke="none" points="323,-955 194,-955 194,-891 323,-891 323,-955"/>
<text text-anchor="start" x="198.88" y="-941.5" font-family="Helvetica,sans-Serif" font-size="10.00">AbstractProcessingHandler</text>
<text text-anchor="start" x="257" y="-926.5" font-family="Helvetica,sans-Serif" font-size="10.00"> </text>
<text text-anchor="start" x="204.5" y="-911.5" font-family="Helvetica,sans-Serif" font-size="10.00">+</text>
<text text-anchor="start" x="221" y="-911.5" font-family="Helvetica,sans-Serif" font-size="10.00">reset()</text>
<text text-anchor="start" x="204.88" y="-896.5" font-family="Helvetica,sans-Serif" font-size="10.00">#</text>
<text text-anchor="start" x="221" y="-896.5" font-family="Helvetica,sans-Serif" font-size="10.00">write(array $record)</text>
<polygon fill="#666666" stroke="#666666" points="194,-938 194,-938 323,-938 323,-938 194,-938"/>
<polygon fill="#666666" stroke="#666666" points="194,-923 194,-923 323,-923 323,-923 194,-923"/>
<polygon fill="none" stroke="#666666" points="194,-891 194,-955 323,-955 323,-891 194,-891"/>
</a>
</g>
</g>
<!-- Node3&#45;&gt;Node2 -->
<g id="edge2_Node000002_Node000003" class="edge">
<title>Node3&#45;&gt;Node2</title>
<g id="a_edge2_Node000002_Node000003"><a xlink:title=" ">
<path fill="none" stroke="#63b8ff" d="M258.5,-879.78C258.5,-872.18 258.5,-863.78 258.5,-854.76"/>
<polygon fill="none" stroke="#63b8ff" points="255,-879.52 258.5,-889.52 262,-879.52 255,-879.52"/>
</a>
</g>
</g>
<!-- Node4 -->
<g id="Node000004" class="node">
<title>Node4</title>
<g id="a_Node000004"><a xlink:href="class_monolog_1_1_handler_1_1_abstract_handler.html" target="_top" xlink:title=" ">
<polygon fill="white" stroke="none" points="172.5,-1178 50.5,-1178 50.5,-991 172.5,-991 172.5,-1178"/>
<text text-anchor="start" x="76.25" y="-1164.5" font-family="Helvetica,sans-Serif" font-size="10.00">AbstractHandler</text>
<text text-anchor="start" x="54.88" y="-1149.5" font-family="Helvetica,sans-Serif" font-size="10.00">#</text>
<text text-anchor="start" x="64.5" y="-1149.5" font-family="Helvetica,sans-Serif" font-size="10.00">$level</text>
<text text-anchor="start" x="54.88" y="-1134.5" font-family="Helvetica,sans-Serif" font-size="10.00">#</text>
<text text-anchor="start" x="64.5" y="-1134.5" font-family="Helvetica,sans-Serif" font-size="10.00">$bubble</text>
<text text-anchor="start" x="54.5" y="-1119.5" font-family="Helvetica,sans-Serif" font-size="10.00">+</text>
<text text-anchor="start" x="64.5" y="-1119.5" font-family="Helvetica,sans-Serif" font-size="10.00">__construct($level</text>
<text text-anchor="start" x="64.5" y="-1108.25" font-family="Helvetica,sans-Serif" font-size="10.00">=Logger::DEBUG, bool</text>
<text text-anchor="start" x="64.5" y="-1097" font-family="Helvetica,sans-Serif" font-size="10.00"> $bubble=true)</text>
<text text-anchor="start" x="54.5" y="-1082.5" font-family="Helvetica,sans-Serif" font-size="10.00">+</text>
<text text-anchor="start" x="64.5" y="-1082.5" font-family="Helvetica,sans-Serif" font-size="10.00">isHandling(array </text>
<text text-anchor="start" x="64.5" y="-1071.25" font-family="Helvetica,sans-Serif" font-size="10.00">$record)</text>
<text text-anchor="start" x="54.5" y="-1056.5" font-family="Helvetica,sans-Serif" font-size="10.00">+</text>
<text text-anchor="start" x="64.5" y="-1056.5" font-family="Helvetica,sans-Serif" font-size="10.00">setLevel($level)</text>
<text text-anchor="start" x="54.5" y="-1041.5" font-family="Helvetica,sans-Serif" font-size="10.00">+</text>
<text text-anchor="start" x="64.5" y="-1041.5" font-family="Helvetica,sans-Serif" font-size="10.00">getLevel()</text>
<text text-anchor="start" x="54.5" y="-1026.5" font-family="Helvetica,sans-Serif" font-size="10.00">+</text>
<text text-anchor="start" x="64.5" y="-1026.5" font-family="Helvetica,sans-Serif" font-size="10.00">setBubble(bool $bubble)</text>
<text text-anchor="start" x="54.5" y="-1011.5" font-family="Helvetica,sans-Serif" font-size="10.00">+</text>
<text text-anchor="start" x="64.5" y="-1011.5" font-family="Helvetica,sans-Serif" font-size="10.00">getBubble()</text>
<text text-anchor="start" x="54.5" y="-996.5" font-family="Helvetica,sans-Serif" font-size="10.00">+</text>
<text text-anchor="start" x="64.5" y="-996.5" font-family="Helvetica,sans-Serif" font-size="10.00">reset()</text>
<polygon fill="#666666" stroke="#666666" points="50.5,-1161 50.5,-1161 172.5,-1161 172.5,-1161 50.5,-1161"/>
<polygon fill="#666666" stroke="#666666" points="50.5,-1131 50.5,-1131 62.5,-1131 62.5,-1131 50.5,-1131"/>
<polygon fill="#666666" stroke="#666666" points="62.5,-1131 62.5,-1131 172.5,-1131 172.5,-1131 62.5,-1131"/>
<polygon fill="none" stroke="#666666" points="50.5,-991 50.5,-1178 172.5,-1178 172.5,-991 50.5,-991"/>
</a>
</g>
</g>
<!-- Node4&#45;&gt;Node3 -->
<g id="edge3_Node000003_Node000004" class="edge">
<title>Node4&#45;&gt;Node3</title>
<g id="a_edge3_Node000003_Node000004"><a xlink:title=" ">
<path fill="none" stroke="#63b8ff" d="M180.08,-992.53C180.56,-992.01 181.03,-991.51 181.5,-991 193.23,-978.44 207.13,-965.78 219.86,-954.89"/>
<polygon fill="none" stroke="#63b8ff" points="177.53,-990.13 173.47,-999.92 182.74,-994.8 177.53,-990.13"/>
</a>
</g>
</g>
<!-- Node5 -->
<g id="Node000005" class="node">
<title>Node5</title>
<g id="a_Node000005"><a xlink:href="class_monolog_1_1_handler_1_1_handler.html" target="_top" xlink:title=" ">
<polygon fill="white" stroke="none" points="102.5,-1319 6.5,-1319 6.5,-1214 102.5,-1214 102.5,-1319"/>
<text text-anchor="start" x="37.62" y="-1305.5" font-family="Helvetica,sans-Serif" font-size="10.00">Handler</text>
<text text-anchor="start" x="53" y="-1290.5" font-family="Helvetica,sans-Serif" font-size="10.00"> </text>
<text text-anchor="start" x="10.5" y="-1275.5" font-family="Helvetica,sans-Serif" font-size="10.00">+</text>
<text text-anchor="start" x="20.5" y="-1275.5" font-family="Helvetica,sans-Serif" font-size="10.00">handleBatch(array</text>
<text text-anchor="start" x="20.5" y="-1264.25" font-family="Helvetica,sans-Serif" font-size="10.00"> $records)</text>
<text text-anchor="start" x="10.5" y="-1249.5" font-family="Helvetica,sans-Serif" font-size="10.00">+</text>
<text text-anchor="start" x="20.5" y="-1249.5" font-family="Helvetica,sans-Serif" font-size="10.00">close()</text>
<text text-anchor="start" x="10.5" y="-1234.5" font-family="Helvetica,sans-Serif" font-size="10.00">+</text>
<text text-anchor="start" x="20.5" y="-1234.5" font-family="Helvetica,sans-Serif" font-size="10.00">__destruct()</text>
<text text-anchor="start" x="10.5" y="-1219.5" font-family="Helvetica,sans-Serif" font-size="10.00">+</text>
<text text-anchor="start" x="20.5" y="-1219.5" font-family="Helvetica,sans-Serif" font-size="10.00">__sleep()</text>
<polygon fill="#666666" stroke="#666666" points="6.5,-1302 6.5,-1302 102.5,-1302 102.5,-1302 6.5,-1302"/>
<polygon fill="#666666" stroke="#666666" points="6.5,-1287 6.5,-1287 102.5,-1287 102.5,-1287 6.5,-1287"/>
<polygon fill="none" stroke="#666666" points="6.5,-1214 6.5,-1319 102.5,-1319 102.5,-1214 6.5,-1214"/>
</a>
</g>
</g>
<!-- Node5&#45;&gt;Node4 -->
<g id="edge4_Node000004_Node000005" class="edge">
<title>Node5&#45;&gt;Node4</title>
<g id="a_edge4_Node000004_Node000005"><a xlink:title=" ">
<path fill="none" stroke="#63b8ff" d="M74.07,-1203.69C76.71,-1195.36 79.46,-1186.68 82.22,-1177.96"/>
<polygon fill="none" stroke="#63b8ff" points="70.82,-1202.37 71.14,-1212.96 77.49,-1204.48 70.82,-1202.37"/>
</a>
</g>
</g>
<!-- Node6 -->
<g id="Node000006" class="node">
<title>Node6</title>
<g id="a_Node000006"><a xlink:href="interface_monolog_1_1_handler_1_1_handler_interface.html" target="_top" xlink:title=" ">
<polygon fill="white" stroke="none" points="109,-1471 0,-1471 0,-1355 109,-1355 109,-1471"/>
<text text-anchor="start" x="18.5" y="-1457.5" font-family="Helvetica,sans-Serif" font-size="10.00">HandlerInterface</text>
<text text-anchor="start" x="53" y="-1442.5" font-family="Helvetica,sans-Serif" font-size="10.00"> </text>
<text text-anchor="start" x="4" y="-1427.5" font-family="Helvetica,sans-Serif" font-size="10.00">+</text>
<text text-anchor="start" x="14" y="-1427.5" font-family="Helvetica,sans-Serif" font-size="10.00">isHandling(array </text>
<text text-anchor="start" x="14" y="-1416.25" font-family="Helvetica,sans-Serif" font-size="10.00">$record)</text>
<text text-anchor="start" x="4" y="-1401.5" font-family="Helvetica,sans-Serif" font-size="10.00">+</text>
<text text-anchor="start" x="14" y="-1401.5" font-family="Helvetica,sans-Serif" font-size="10.00">handle(array $record)</text>
<text text-anchor="start" x="4" y="-1386.5" font-family="Helvetica,sans-Serif" font-size="10.00">+</text>
<text text-anchor="start" x="14" y="-1386.5" font-family="Helvetica,sans-Serif" font-size="10.00">handleBatch(array</text>
<text text-anchor="start" x="14" y="-1375.25" font-family="Helvetica,sans-Serif" font-size="10.00"> $records)</text>
<text text-anchor="start" x="4" y="-1360.5" font-family="Helvetica,sans-Serif" font-size="10.00">+</text>
<text text-anchor="start" x="14" y="-1360.5" font-family="Helvetica,sans-Serif" font-size="10.00">close()</text>
<polygon fill="#666666" stroke="#666666" points="0,-1454 0,-1454 109,-1454 109,-1454 0,-1454"/>
<polygon fill="#666666" stroke="#666666" points="0,-1439 0,-1439 109,-1439 109,-1439 0,-1439"/>
<polygon fill="none" stroke="#666666" points="0,-1355 0,-1471 109,-1471 109,-1355 0,-1355"/>
</a>
</g>
</g>
<!-- Node6&#45;&gt;Node5 -->
<g id="edge5_Node000005_Node000006" class="edge">
<title>Node6&#45;&gt;Node5</title>
<g id="a_edge5_Node000005_Node000006"><a xlink:title=" ">
<path fill="none" stroke="#63b8ff" d="M54.5,-1343.9C54.5,-1335.48 54.5,-1326.98 54.5,-1318.86"/>
<polygon fill="none" stroke="#63b8ff" points="51,-1343.79 54.5,-1353.79 58,-1343.79 51,-1343.79"/>
</a>
</g>
</g>
<!-- Node7 -->
<g id="Node000007" class="node">
<title>Node7</title>
<g id="a_Node000007"><a xlink:href="interface_monolog_1_1_resettable_interface.html" target="_top" xlink:title=" ">
<polygon fill="white" stroke="none" points="216,-1291 121,-1291 121,-1242 216,-1242 216,-1291"/>
<text text-anchor="start" x="125.75" y="-1277.5" font-family="Helvetica,sans-Serif" font-size="10.00">ResettableInterface</text>
<text text-anchor="start" x="167" y="-1262.5" font-family="Helvetica,sans-Serif" font-size="10.00"> </text>
<text text-anchor="start" x="137.5" y="-1247.5" font-family="Helvetica,sans-Serif" font-size="10.00">+</text>
<text text-anchor="start" x="160" y="-1247.5" font-family="Helvetica,sans-Serif" font-size="10.00">reset()</text>
<polygon fill="#666666" stroke="#666666" points="121,-1274 121,-1274 216,-1274 216,-1274 121,-1274"/>
<polygon fill="#666666" stroke="#666666" points="121,-1259 121,-1259 216,-1259 216,-1259 121,-1259"/>
<polygon fill="none" stroke="#666666" points="121,-1242 121,-1291 216,-1291 216,-1242 121,-1242"/>
</a>
</g>
</g>
<!-- Node7&#45;&gt;Node4 -->
<g id="edge6_Node000004_Node000007" class="edge">
<title>Node7&#45;&gt;Node4</title>
<g id="a_edge6_Node000004_Node000007"><a xlink:title=" ">
<path fill="none" stroke="#63b8ff" d="M157.83,-1231.79C152.93,-1216.34 146.87,-1197.19 140.76,-1177.89"/>
<polygon fill="none" stroke="#63b8ff" points="154.35,-1232.42 160.71,-1240.89 161.03,-1230.3 154.35,-1232.42"/>
</a>
</g>
</g>
<!-- Node8 -->
<g id="Node000008" class="node">
<title>Node8</title>
<g id="a_Node000008"><a xlink:href="interface_monolog_1_1_handler_1_1_processable_handler_interface.html" target="_top" xlink:title=" ">
<polygon fill="white" stroke="none" points="326.5,-1122 190.5,-1122 190.5,-1047 326.5,-1047 326.5,-1122"/>
<text text-anchor="start" x="195.5" y="-1108.5" font-family="Helvetica,sans-Serif" font-size="10.00">ProcessableHandlerInterface</text>
<text text-anchor="start" x="257" y="-1093.5" font-family="Helvetica,sans-Serif" font-size="10.00"> </text>
<text text-anchor="start" x="198.5" y="-1078.5" font-family="Helvetica,sans-Serif" font-size="10.00">+</text>
<text text-anchor="start" x="212.5" y="-1078.5" font-family="Helvetica,sans-Serif" font-size="10.00">pushProcessor(callable</text>
<text text-anchor="start" x="212.5" y="-1067.25" font-family="Helvetica,sans-Serif" font-size="10.00"> $callback)</text>
<text text-anchor="start" x="198.5" y="-1052.5" font-family="Helvetica,sans-Serif" font-size="10.00">+</text>
<text text-anchor="start" x="212.5" y="-1052.5" font-family="Helvetica,sans-Serif" font-size="10.00">popProcessor()</text>
<polygon fill="#666666" stroke="#666666" points="190.5,-1105 190.5,-1105 326.5,-1105 326.5,-1105 190.5,-1105"/>
<polygon fill="#666666" stroke="#666666" points="190.5,-1090 190.5,-1090 326.5,-1090 326.5,-1090 190.5,-1090"/>
<polygon fill="none" stroke="#666666" points="190.5,-1047 190.5,-1122 326.5,-1122 326.5,-1047 190.5,-1047"/>
</a>
</g>
</g>
<!-- Node8&#45;&gt;Node3 -->
<g id="edge7_Node000003_Node000008" class="edge">
<title>Node8&#45;&gt;Node3</title>
<g id="a_edge7_Node000003_Node000008"><a xlink:title=" ">
<path fill="none" stroke="#63b8ff" d="M258.5,-1036.07C258.5,-1009.84 258.5,-977.98 258.5,-954.94"/>
<polygon fill="none" stroke="#63b8ff" points="255,-1035.79 258.5,-1045.79 262,-1035.79 255,-1035.79"/>
</a>
</g>
</g>
<!-- Node9 -->
<g id="Node000009" class="node">
<title>Node9</title>
<g id="a_Node000009"><a xlink:href="interface_monolog_1_1_handler_1_1_formattable_handler_interface.html" target="_top" xlink:title=" ">
<polygon fill="white" stroke="none" points="500.5,-1122 344.5,-1122 344.5,-1047 500.5,-1047 500.5,-1122"/>
<text text-anchor="start" x="360.62" y="-1108.5" font-family="Helvetica,sans-Serif" font-size="10.00">FormattableHandlerInterface</text>
<text text-anchor="start" x="421" y="-1093.5" font-family="Helvetica,sans-Serif" font-size="10.00"> </text>
<text text-anchor="start" x="348.5" y="-1078.5" font-family="Helvetica,sans-Serif" font-size="10.00">+</text>
<text text-anchor="start" x="358.5" y="-1078.5" font-family="Helvetica,sans-Serif" font-size="10.00">setFormatter(FormatterInterface</text>
<text text-anchor="start" x="358.5" y="-1067.25" font-family="Helvetica,sans-Serif" font-size="10.00"> $formatter)</text>
<text text-anchor="start" x="348.5" y="-1052.5" font-family="Helvetica,sans-Serif" font-size="10.00">+</text>
<text text-anchor="start" x="358.5" y="-1052.5" font-family="Helvetica,sans-Serif" font-size="10.00">getFormatter()</text>
<polygon fill="#666666" stroke="#666666" points="344.5,-1105 344.5,-1105 500.5,-1105 500.5,-1105 344.5,-1105"/>
<polygon fill="#666666" stroke="#666666" points="344.5,-1090 344.5,-1090 500.5,-1090 500.5,-1090 344.5,-1090"/>
<polygon fill="none" stroke="#666666" points="344.5,-1047 344.5,-1122 500.5,-1122 500.5,-1047 344.5,-1047"/>
</a>
</g>
</g>
<!-- Node9&#45;&gt;Node3 -->
<g id="edge8_Node000003_Node000009" class="edge">
<title>Node9&#45;&gt;Node3</title>
<g id="a_edge8_Node000003_Node000009"><a xlink:title=" ">
<path fill="none" stroke="#63b8ff" d="M382.09,-1038.74C367.71,-1023.3 351.18,-1006.09 335.5,-991 322.86,-978.84 308.48,-966.06 295.6,-954.97"/>
<polygon fill="none" stroke="#63b8ff" points="379.46,-1041.05 388.82,-1046.01 384.59,-1036.29 379.46,-1041.05"/>
</a>
</g>
</g>
</g>
</svg>

<g id="navigator" transform="translate(0 0)" fill="#404254">
  <rect fill="#f2f5e9" fill-opacity="0.5" stroke="#606060" stroke-width=".5" x="0" y="0" width="60" height="60"/>
  <use id="zoomplus" xlink:href="#zoomPlus" x="17" y="9" onmousedown="handleZoom(evt,'in')"/>
  <use id="zoomminus" xlink:href="#zoomMin" x="42" y="9" onmousedown="handleZoom(evt,'out')"/>
  <use id="reset" xlink:href="#resetDef" x="30" y="36" onmousedown="handleReset()"/>
   <use id="arrowup" xlink:href="#arrowUp" x="0" y="0" onmousedown="handlePan(0,-1)"/>
  <use id="arrowright" xlink:href="#arrowRight" x="0" y="0" onmousedown="handlePan(1,0)"/>
  <use id="arrowdown" xlink:href="#arrowDown" x="0" y="0" onmousedown="handlePan(0,1)"/>
  <use id="arrowleft" xlink:href="#arrowLeft" x="0" y="0" onmousedown="handlePan(-1,0)"/>
</g>
<svg viewBox="0 0 15 15" width="100%" height="30px" preserveAspectRatio="xMaxYMin meet">
 <g id="arrow_out" transform="scale(0.3 0.3)">
  <a xlink:href="class_monolog_1_1_handler_1_1_pushover_handler__coll__graph_org.svg" target="_base">
   <rect id="button" ry="5" rx="5" y="6" x="6" height="38" width="38"
        fill="#f2f5e9" fill-opacity="0.5" stroke="#606060" stroke-width="1.0"/>
   <path id="arrow"
     d="M 11.500037,31.436501 C 11.940474,20.09759 22.043105,11.32322 32.158766,21.979434 L 37.068811,17.246167 C 37.068811,17.246167 37.088388,32 37.088388,32 L 22.160133,31.978069 C 22.160133,31.978069 26.997745,27.140456 26.997745,27.140456 C 18.528582,18.264221 13.291696,25.230495 11.500037,31.436501 z"
     style="fill:#404040;"/>
  </a>
 </g>
</svg>

<style type='text/css'>
<![CDATA[
[data-mouse-over-selected='false'] { opacity: 0.7; }
[data-mouse-over-selected='true']  { opacity: 1.0; }
]]>
</style>
<script type="application/ecmascript"><![CDATA[
document.addEventListener('DOMContentLoaded', (event) => {
  highlightEdges();
  highlightAdjacentNodes();
});
]]></script>
</svg>
