<?xml version="1.0" encoding="UTF-8" standalone="no"?>
<!DOCTYPE svg PUBLIC "-//W3C//DTD SVG 1.1//EN"
 "http://www.w3.org/Graphics/SVG/1.1/DTD/svg11.dtd">
<!-- Generated by graphviz version 10.0.1 (20240210.2158)
 -->
<!-- Title: AbstractStringWrapper Pages: 1 -->
<svg width="181pt" height="573pt"
 viewBox="0.00 0.00 181.00 573.00" xmlns="http://www.w3.org/2000/svg" xmlns:xlink="http://www.w3.org/1999/xlink">
<g id="graph0" class="graph" transform="scale(1 1) rotate(0) translate(4 569)">
<title>AbstractStringWrapper</title>
<!-- Node1 -->
<g id="Node000001" class="node">
<title>Node1</title>
<g id="a_Node000001"><a xlink:title=" ">
<polygon fill="#999999" stroke="none" points="173,-231 0,-231 0,0 173,0 173,-231"/>
<text text-anchor="start" x="37.38" y="-217.5" font-family="Helvetica,sans-Serif" font-size="10.00">AbstractStringWrapper</text>
<text text-anchor="start" x="4.38" y="-202.5" font-family="Helvetica,sans-Serif" font-size="10.00">#</text>
<text text-anchor="start" x="14" y="-202.5" font-family="Helvetica,sans-Serif" font-size="10.00">$encoding</text>
<text text-anchor="start" x="4.38" y="-187.5" font-family="Helvetica,sans-Serif" font-size="10.00">#</text>
<text text-anchor="start" x="14" y="-187.5" font-family="Helvetica,sans-Serif" font-size="10.00">$convertEncoding</text>
<text text-anchor="start" x="4" y="-172.5" font-family="Helvetica,sans-Serif" font-size="10.00">+</text>
<text text-anchor="start" x="14" y="-172.5" font-family="Helvetica,sans-Serif" font-size="10.00">setEncoding($encoding,</text>
<text text-anchor="start" x="14" y="-161.25" font-family="Helvetica,sans-Serif" font-size="10.00"> $convertEncoding=null)</text>
<text text-anchor="start" x="4" y="-146.5" font-family="Helvetica,sans-Serif" font-size="10.00">+</text>
<text text-anchor="start" x="14" y="-146.5" font-family="Helvetica,sans-Serif" font-size="10.00">getEncoding()</text>
<text text-anchor="start" x="4" y="-131.5" font-family="Helvetica,sans-Serif" font-size="10.00">+</text>
<text text-anchor="start" x="14" y="-131.5" font-family="Helvetica,sans-Serif" font-size="10.00">getConvertEncoding()</text>
<text text-anchor="start" x="4" y="-116.5" font-family="Helvetica,sans-Serif" font-size="10.00">+</text>
<text text-anchor="start" x="14" y="-116.5" font-family="Helvetica,sans-Serif" font-size="10.00">convert($str, $reverse</text>
<text text-anchor="start" x="14" y="-105.25" font-family="Helvetica,sans-Serif" font-size="10.00">=false)</text>
<text text-anchor="start" x="4" y="-90.5" font-family="Helvetica,sans-Serif" font-size="10.00">+</text>
<text text-anchor="start" x="14" y="-90.5" font-family="Helvetica,sans-Serif" font-size="10.00">wordWrap($string,</text>
<text text-anchor="start" x="14" y="-79.25" font-family="Helvetica,sans-Serif" font-size="10.00"> $width=75, $break=&quot;</text>
<text text-anchor="start" x="14" y="-68" font-family="Helvetica,sans-Serif" font-size="10.00">\n&quot;, $cut=false)</text>
<text text-anchor="start" x="4" y="-53.5" font-family="Helvetica,sans-Serif" font-size="10.00">+</text>
<text text-anchor="start" x="14" y="-53.5" font-family="Helvetica,sans-Serif" font-size="10.00">strPad($input, $padLength,</text>
<text text-anchor="start" x="14" y="-42.25" font-family="Helvetica,sans-Serif" font-size="10.00"> $padString=&#39; &#39;, $padType</text>
<text text-anchor="start" x="14" y="-31" font-family="Helvetica,sans-Serif" font-size="10.00">=STR_PAD_RIGHT)</text>
<text text-anchor="start" x="4" y="-16.5" font-family="Helvetica,sans-Serif" font-size="10.00">+</text>
<text text-anchor="start" x="14" y="-16.5" font-family="Helvetica,sans-Serif" font-size="10.00">static isSupported</text>
<text text-anchor="start" x="14" y="-5.25" font-family="Helvetica,sans-Serif" font-size="10.00">($encoding, $convertEncoding=null)</text>
<polygon fill="#666666" stroke="#666666" points="0,-214 0,-214 173,-214 173,-214 0,-214"/>
<polygon fill="#666666" stroke="#666666" points="0,-184 0,-184 12,-184 12,-184 0,-184"/>
<polygon fill="#666666" stroke="#666666" points="12,-184 12,-184 173,-184 173,-184 12,-184"/>
<polygon fill="none" stroke="#666666" points="0,0 0,-231 173,-231 173,0 0,0"/>
</a>
</g>
</g>
<!-- Node2 -->
<g id="Node000002" class="node">
<title>Node2</title>
<g id="a_Node000002"><a xlink:href="interface_laminas_1_1_stdlib_1_1_string_wrapper_1_1_string_wrapper_interface.html" target="_top" xlink:title=" ">
<polygon fill="white" stroke="none" points="173,-565 0,-565 0,-267 173,-267 173,-565"/>
<text text-anchor="start" x="36.62" y="-551.5" font-family="Helvetica,sans-Serif" font-size="10.00">StringWrapperInterface</text>
<text text-anchor="start" x="85" y="-536.5" font-family="Helvetica,sans-Serif" font-size="10.00"> </text>
<text text-anchor="start" x="4" y="-521.5" font-family="Helvetica,sans-Serif" font-size="10.00">+</text>
<text text-anchor="start" x="14" y="-521.5" font-family="Helvetica,sans-Serif" font-size="10.00">setEncoding($encoding,</text>
<text text-anchor="start" x="14" y="-510.25" font-family="Helvetica,sans-Serif" font-size="10.00"> $convertEncoding=null)</text>
<text text-anchor="start" x="4" y="-495.5" font-family="Helvetica,sans-Serif" font-size="10.00">+</text>
<text text-anchor="start" x="14" y="-495.5" font-family="Helvetica,sans-Serif" font-size="10.00">getEncoding()</text>
<text text-anchor="start" x="4" y="-480.5" font-family="Helvetica,sans-Serif" font-size="10.00">+</text>
<text text-anchor="start" x="14" y="-480.5" font-family="Helvetica,sans-Serif" font-size="10.00">getConvertEncoding()</text>
<text text-anchor="start" x="4" y="-465.5" font-family="Helvetica,sans-Serif" font-size="10.00">+</text>
<text text-anchor="start" x="14" y="-465.5" font-family="Helvetica,sans-Serif" font-size="10.00">strlen($str)</text>
<text text-anchor="start" x="4" y="-450.5" font-family="Helvetica,sans-Serif" font-size="10.00">+</text>
<text text-anchor="start" x="14" y="-450.5" font-family="Helvetica,sans-Serif" font-size="10.00">substr($str, $offset</text>
<text text-anchor="start" x="14" y="-439.25" font-family="Helvetica,sans-Serif" font-size="10.00">=0, $length=null)</text>
<text text-anchor="start" x="4" y="-424.5" font-family="Helvetica,sans-Serif" font-size="10.00">+</text>
<text text-anchor="start" x="14" y="-424.5" font-family="Helvetica,sans-Serif" font-size="10.00">strpos($haystack,</text>
<text text-anchor="start" x="14" y="-413.25" font-family="Helvetica,sans-Serif" font-size="10.00"> $needle, $offset=0)</text>
<text text-anchor="start" x="4" y="-398.5" font-family="Helvetica,sans-Serif" font-size="10.00">+</text>
<text text-anchor="start" x="14" y="-398.5" font-family="Helvetica,sans-Serif" font-size="10.00">convert($str, $reverse</text>
<text text-anchor="start" x="14" y="-387.25" font-family="Helvetica,sans-Serif" font-size="10.00">=false)</text>
<text text-anchor="start" x="4" y="-372.5" font-family="Helvetica,sans-Serif" font-size="10.00">+</text>
<text text-anchor="start" x="14" y="-372.5" font-family="Helvetica,sans-Serif" font-size="10.00">wordWrap($str, $width</text>
<text text-anchor="start" x="14" y="-361.25" font-family="Helvetica,sans-Serif" font-size="10.00">=75, $break=&quot;\n&quot;, $cut</text>
<text text-anchor="start" x="14" y="-350" font-family="Helvetica,sans-Serif" font-size="10.00">=false)</text>
<text text-anchor="start" x="4" y="-335.5" font-family="Helvetica,sans-Serif" font-size="10.00">+</text>
<text text-anchor="start" x="14" y="-335.5" font-family="Helvetica,sans-Serif" font-size="10.00">strPad($input, $padLength,</text>
<text text-anchor="start" x="14" y="-324.25" font-family="Helvetica,sans-Serif" font-size="10.00"> $padString=&#39; &#39;, $padType</text>
<text text-anchor="start" x="14" y="-313" font-family="Helvetica,sans-Serif" font-size="10.00">=STR_PAD_RIGHT)</text>
<text text-anchor="start" x="4" y="-298.5" font-family="Helvetica,sans-Serif" font-size="10.00">+</text>
<text text-anchor="start" x="14" y="-298.5" font-family="Helvetica,sans-Serif" font-size="10.00">static isSupported</text>
<text text-anchor="start" x="14" y="-287.25" font-family="Helvetica,sans-Serif" font-size="10.00">($encoding, $convertEncoding=null)</text>
<text text-anchor="start" x="4" y="-272.5" font-family="Helvetica,sans-Serif" font-size="10.00">+</text>
<text text-anchor="start" x="14" y="-272.5" font-family="Helvetica,sans-Serif" font-size="10.00">static getSupportedEncodings()</text>
<polygon fill="#666666" stroke="#666666" points="0,-548 0,-548 173,-548 173,-548 0,-548"/>
<polygon fill="#666666" stroke="#666666" points="0,-533 0,-533 173,-533 173,-533 0,-533"/>
<polygon fill="none" stroke="#666666" points="0,-267 0,-565 173,-565 173,-267 0,-267"/>
</a>
</g>
</g>
<!-- Node2&#45;&gt;Node1 -->
<g id="edge1_Node000001_Node000002" class="edge">
<title>Node2&#45;&gt;Node1</title>
<g id="a_edge1_Node000001_Node000002"><a xlink:title=" ">
<path fill="none" stroke="#63b8ff" d="M86.5,-255.66C86.5,-247.31 86.5,-239.01 86.5,-230.85"/>
<polygon fill="none" stroke="#63b8ff" points="83,-255.55 86.5,-265.55 90,-255.55 83,-255.55"/>
</a>
</g>
</g>
</g>
</svg>
