<?xml version="1.0" encoding="UTF-8" standalone="no"?>
<!DOCTYPE svg PUBLIC "-//W3C//DTD SVG 1.1//EN"
 "http://www.w3.org/Graphics/SVG/1.1/DTD/svg11.dtd">
<!-- Generated by graphviz version 10.0.1 (20240210.2158)
 -->
<!-- Title: interpolation Pages: 1 -->
<!--zoomable 195 -->

<svg id="main" version="1.1" xmlns="http://www.w3.org/2000/svg" xmlns:xlink="http://www.w3.org/1999/xlink" xml:space="preserve" onload="init(evt)">
<style type="text/css"><![CDATA[
.node, .edge {opacity: 0.7;}
.node.selected, .edge.selected {opacity: 1;}
.edge:hover path { stroke: red; }
.edge:hover polygon { stroke: red; fill: red; }
]]></style>

<defs>
  <circle id="rim" cx="0" cy="0" r="7"/>
  <circle id="rim2" cx="0" cy="0" r="3.5"/>
  <g id="zoomPlus">
    <use xlink:href="#rim" fill="#404040"><set attributeName="fill" to="#808080" begin="zoomplus.mouseover" end="zoomplus.mouseout"/></use>
    <path d="M-4,0h8M0,-4v8" fill="none" stroke="white" stroke-width="1.5" pointer-events="none"/>
  </g>
  <g id="zoomMin">
    <use xlink:href="#rim" fill="#404040"><set attributeName="fill" to="#808080" begin="zoomminus.mouseover" end="zoomminus.mouseout"/></use>
    <path d="M-4,0h8" fill="none" stroke="white" stroke-width="1.5" pointer-events="none"/>
  </g>
  <g id="arrowUp" transform="translate(30 24)">
    <use xlink:href="#rim"/>
    <path pointer-events="none" fill="none" stroke="white" stroke-width="1.5" d="M0,-3.0v7 M-2.5,-0.5L0,-3.0L2.5,-0.5"/>
  </g>
  <g id="arrowRight" transform="rotate(90) translate(36 -43)">
    <use xlink:href="#rim"/>
    <path pointer-events="none" fill="none" stroke="white" stroke-width="1.5" d="M0,-3.0v7 M-2.5,-0.5L0,-3.0L2.5,-0.5"/>
  </g>
  <g id="arrowDown" transform="rotate(180) translate(-30 -48)">
    <use xlink:href="#rim"/>
    <path pointer-events="none" fill="none" stroke="white" stroke-width="1.5" d="M0,-3.0v7 M-2.5,-0.5L0,-3.0L2.5,-0.5"/>
  </g>
  <g id="arrowLeft" transform="rotate(270) translate(-36 17)">
    <use xlink:href="#rim"/>
    <path pointer-events="none" fill="none" stroke="white" stroke-width="1.5" d="M0,-3.0v7 M-2.5,-0.5L0,-3.0L2.5,-0.5"/>
  </g>
  <g id="resetDef">
    <use xlink:href="#rim2" fill="#404040"><set attributeName="fill" to="#808080" begin="reset.mouseover" end="reset.mouseout"/></use>
  </g>
</defs>
<script type="application/ecmascript">
var viewWidth = 647;
var viewHeight = 195;
var sectionId = 'dynsection-31';
</script>
<script type="application/ecmascript" xlink:href="svg.min.js"/>
<svg id="graph" class="graph">
<g id="viewport">
<title>interpolation</title>
<!-- Node1 -->
<g id="Node000001" class="node">
<title>Node1</title>
<g id="a_Node000001"><a xlink:title=" ">
<polygon fill="#999999" stroke="#666666" points="68.5,-116.25 0,-116.25 0,-97 68.5,-97 68.5,-116.25"/>
<text text-anchor="middle" x="34.25" y="-102.75" font-family="Helvetica,sans-Serif" font-size="10.00">interpolation</text>
</a>
</g>
</g>
<!-- Node2 -->
<g id="Node000002" class="node">
<title>Node2</title>
<g id="a_Node000002"><a xlink:href="class_scss_php_1_1_scss_php_1_1_parser.html#a7548704846076882815845b28b95c19f" target="_top" xlink:title=" ">
<polygon fill="white" stroke="#666666" points="156.12,-187.25 116.88,-187.25 116.88,-168 156.12,-168 156.12,-187.25"/>
<text text-anchor="middle" x="136.5" y="-173.75" font-family="Helvetica,sans-Serif" font-size="10.00">literal</text>
</a>
</g>
</g>
<!-- Node1&#45;&gt;Node2 -->
<g id="edge1_Node000001_Node000002" class="edge">
<title>Node1&#45;&gt;Node2</title>
<g id="a_edge1_Node000001_Node000002"><a xlink:title=" ">
<path fill="none" stroke="#63b8ff" d="M49.19,-116.5C65.48,-128.04 92.7,-147.31 112.21,-161.13"/>
<polygon fill="#63b8ff" stroke="#63b8ff" points="109.94,-163.81 120.12,-166.73 113.98,-158.1 109.94,-163.81"/>
</a>
</g>
</g>
<!-- Node3 -->
<g id="Node000003" class="node">
<title>Node3</title>
<g id="a_Node000003"><a xlink:href="class_scss_php_1_1_scss_php_1_1_parser.html#a20c53f113ff646c98fc4046e932f2be8" target="_top" xlink:title=" ">
<polygon fill="white" stroke="#666666" points="270,-140.25 204.5,-140.25 204.5,-121 270,-121 270,-140.25"/>
<text text-anchor="middle" x="237.25" y="-126.75" font-family="Helvetica,sans-Serif" font-size="10.00">whitespace</text>
</a>
</g>
</g>
<!-- Node1&#45;&gt;Node3 -->
<g id="edge14_Node000001_Node000003" class="edge">
<title>Node1&#45;&gt;Node3</title>
<g id="a_edge14_Node000001_Node000003"><a xlink:title=" ">
<path fill="none" stroke="#63b8ff" d="M68.89,-105.45C103.02,-107.62 155.98,-113.79 193.17,-119.82"/>
<polygon fill="#63b8ff" stroke="#63b8ff" points="192.22,-123.21 202.67,-121.44 193.39,-116.31 192.22,-123.21"/>
</a>
</g>
</g>
<!-- Node9 -->
<g id="Node000009" class="node">
<title>Node9</title>
<g id="a_Node000009"><a xlink:href="class_scss_php_1_1_scss_php_1_1_parser.html#a5515137d066859ea31187cba42be4525" target="_top" xlink:title=" ">
<polygon fill="white" stroke="#666666" points="168.5,-93.25 104.5,-93.25 104.5,-74 168.5,-74 168.5,-93.25"/>
<text text-anchor="middle" x="136.5" y="-79.75" font-family="Helvetica,sans-Serif" font-size="10.00">matchChar</text>
</a>
</g>
</g>
<!-- Node1&#45;&gt;Node9 -->
<g id="edge10_Node000001_Node000009" class="edge">
<title>Node1&#45;&gt;Node9</title>
<g id="a_edge10_Node000001_Node000009"><a xlink:title=" ">
<path fill="none" stroke="#63b8ff" d="M68.91,-98.9C76.64,-97.13 84.96,-95.22 93.01,-93.37"/>
<polygon fill="#63b8ff" stroke="#63b8ff" points="93.69,-96.81 102.65,-91.16 92.12,-89.99 93.69,-96.81"/>
</a>
</g>
</g>
<!-- Node10 -->
<g id="Node000010" class="node">
<title>Node10</title>
<g id="a_Node000010"><a xlink:href="class_scss_php_1_1_scss_php_1_1_parser.html#a89c39f90ddcfdfb013eebc9a0921423f" target="_top" xlink:title=" ">
<polygon fill="white" stroke="#666666" points="155,-56.25 118,-56.25 118,-37 155,-37 155,-56.25"/>
<text text-anchor="middle" x="136.5" y="-42.75" font-family="Helvetica,sans-Serif" font-size="10.00">seek</text>
</a>
</g>
</g>
<!-- Node1&#45;&gt;Node10 -->
<g id="edge12_Node000001_Node000010" class="edge">
<title>Node1&#45;&gt;Node10</title>
<g id="a_edge12_Node000001_Node000010"><a xlink:title=" ">
<path fill="none" stroke="#63b8ff" d="M51.71,-96.52C65.7,-87.96 86.36,-75.39 104.5,-64.62 105.73,-63.89 107,-63.15 108.28,-62.39"/>
<polygon fill="#63b8ff" stroke="#63b8ff" points="109.91,-65.49 116.78,-57.42 106.38,-59.45 109.91,-65.49"/>
</a>
</g>
</g>
<!-- Node11 -->
<g id="Node000011" class="node">
<title>Node11</title>
<g id="a_Node000011"><a xlink:href="class_scss_php_1_1_scss_php_1_1_parser.html#a07d34cbbe25fe4d6db7aa89e5bbdba5f" target="_top" xlink:title=" ">
<polygon fill="white" stroke="#666666" points="164,-19.25 109,-19.25 109,0 164,0 164,-19.25"/>
<text text-anchor="middle" x="136.5" y="-5.75" font-family="Helvetica,sans-Serif" font-size="10.00">valueList</text>
</a>
</g>
</g>
<!-- Node1&#45;&gt;Node11 -->
<g id="edge13_Node000001_Node000011" class="edge">
<title>Node1&#45;&gt;Node11</title>
<g id="a_edge13_Node000001_Node000011"><a xlink:title=" ">
<path fill="none" stroke="#63b8ff" d="M42.26,-96.71C53.88,-80.77 78.45,-49.07 104.5,-27.62 105.15,-27.09 105.82,-26.56 106.5,-26.04"/>
<polygon fill="#63b8ff" stroke="#63b8ff" points="108.25,-29.08 114.58,-20.59 104.34,-23.28 108.25,-29.08"/>
</a>
</g>
</g>
<!-- Node2&#45;&gt;Node3 -->
<g id="edge2_Node000002_Node000003" class="edge">
<title>Node2&#45;&gt;Node3</title>
<g id="a_edge2_Node000002_Node000003"><a xlink:title=" ">
<path fill="none" stroke="#63b8ff" d="M156.54,-168.56C170.33,-162 189.28,-152.98 205.24,-145.38"/>
<polygon fill="#63b8ff" stroke="#63b8ff" points="206.33,-148.74 213.85,-141.29 203.32,-142.42 206.33,-148.74"/>
</a>
</g>
</g>
<!-- Node3&#45;&gt;Node1 -->
<g id="edge9_Node000003_Node000001" class="edge">
<title>Node3&#45;&gt;Node1</title>
<g id="a_edge9_Node000003_Node000001"><a xlink:title=" ">
<path fill="none" stroke="#63b8ff" d="M204.16,-131.9C170.61,-129.85 117.71,-123.75 80.05,-117.7"/>
<polygon fill="#63b8ff" stroke="#63b8ff" points="80.83,-114.28 70.39,-116.08 79.67,-121.19 80.83,-114.28"/>
</a>
</g>
</g>
<!-- Node4 -->
<g id="Node000004" class="node">
<title>Node4</title>
<g id="a_Node000004"><a xlink:href="class_scss_php_1_1_scss_php_1_1_parser.html#a8ae3372dfb0bc032ac5017aa211ab4b7" target="_top" xlink:title=" ">
<polygon fill="white" stroke="#666666" points="403,-159.25 312.75,-159.25 312.75,-140 403,-140 403,-159.25"/>
<text text-anchor="middle" x="357.88" y="-145.75" font-family="Helvetica,sans-Serif" font-size="10.00">appendComment</text>
</a>
</g>
</g>
<!-- Node3&#45;&gt;Node4 -->
<g id="edge3_Node000003_Node000004" class="edge">
<title>Node3&#45;&gt;Node4</title>
<g id="a_edge3_Node000003_Node000004"><a xlink:title=" ">
<path fill="none" stroke="#63b8ff" d="M270.35,-135.77C279.82,-137.28 290.48,-138.99 300.99,-140.67"/>
<polygon fill="#63b8ff" stroke="#63b8ff" points="300.36,-144.12 310.78,-142.24 301.46,-137.21 300.36,-144.12"/>
</a>
</g>
</g>
<!-- Node5 -->
<g id="Node000005" class="node">
<title>Node5</title>
<g id="a_Node000005"><a xlink:href="class_scss_php_1_1_scss_php_1_1_parser.html#a392fcd7f5b8c20ea6c2104bb580d12c7" target="_top" xlink:title=" ">
<polygon fill="white" stroke="#666666" points="409.75,-122.25 306,-122.25 306,-103 409.75,-103 409.75,-122.25"/>
<text text-anchor="middle" x="357.88" y="-108.75" font-family="Helvetica,sans-Serif" font-size="10.00">assertPlainCssValid</text>
</a>
</g>
</g>
<!-- Node3&#45;&gt;Node5 -->
<g id="edge4_Node000003_Node000005" class="edge">
<title>Node3&#45;&gt;Node5</title>
<g id="a_edge4_Node000003_Node000005"><a xlink:title=" ">
<path fill="none" stroke="#63b8ff" d="M270.35,-125.75C277.81,-124.62 285.99,-123.38 294.26,-122.13"/>
<polygon fill="#63b8ff" stroke="#63b8ff" points="294.67,-125.6 304.04,-120.64 293.62,-118.68 294.67,-125.6"/>
</a>
</g>
</g>
<!-- Node6 -->
<g id="Node000006" class="node">
<title>Node6</title>
<g id="a_Node000006"><a xlink:href="class_scss_php_1_1_scss_php_1_1_parser.html#a1ad7cfcc2046e0b90c7606a671e8bfaa" target="_top" xlink:title=" ">
<polygon fill="white" stroke="#666666" points="566,-141.25 445.75,-141.25 445.75,-122 566,-122 566,-141.25"/>
<text text-anchor="middle" x="505.88" y="-127.75" font-family="Helvetica,sans-Serif" font-size="10.00">isPlainCssValidElement</text>
</a>
</g>
</g>
<!-- Node5&#45;&gt;Node6 -->
<g id="edge5_Node000005_Node000006" class="edge">
<title>Node5&#45;&gt;Node6</title>
<g id="a_edge5_Node000005_Node000006"><a xlink:title=" ">
<path fill="none" stroke="#63b8ff" d="M409.94,-119.27C417.71,-120.28 425.84,-121.34 433.94,-122.39"/>
<polygon fill="#63b8ff" stroke="#63b8ff" points="433.46,-125.86 443.83,-123.68 434.36,-118.92 433.46,-125.86"/>
</a>
</g>
</g>
<!-- Node7 -->
<g id="Node000007" class="node">
<title>Node7</title>
<g id="a_Node000007"><a xlink:href="class_scss_php_1_1_scss_php_1_1_parser.html#a718d44b09142aa117d40c30b2145d5f0" target="_top" xlink:title=" ">
<polygon fill="white" stroke="#666666" points="536.38,-104.25 475.38,-104.25 475.38,-85 536.38,-85 536.38,-104.25"/>
<text text-anchor="middle" x="505.88" y="-90.75" font-family="Helvetica,sans-Serif" font-size="10.00">parseError</text>
</a>
</g>
</g>
<!-- Node5&#45;&gt;Node7 -->
<g id="edge7_Node000005_Node000007" class="edge">
<title>Node5&#45;&gt;Node7</title>
<g id="a_edge7_Node000005_Node000007"><a xlink:title=" ">
<path fill="none" stroke="#63b8ff" d="M409.94,-106.33C427.58,-104.15 447.1,-101.75 463.83,-99.69"/>
<polygon fill="#63b8ff" stroke="#63b8ff" points="463.91,-103.2 473.41,-98.5 463.06,-96.25 463.91,-103.2"/>
</a>
</g>
</g>
<!-- Node6&#45;&gt;Node6 -->
<g id="edge6_Node000006_Node000006" class="edge">
<title>Node6&#45;&gt;Node6</title>
<g id="a_edge6_Node000006_Node000006"><a xlink:title=" ">
<path fill="none" stroke="#63b8ff" d="M487.93,-141.54C479.74,-150.15 485.73,-159.25 505.88,-159.25 516.89,-159.25 523.68,-156.53 526.22,-152.65"/>
<polygon fill="#63b8ff" stroke="#63b8ff" points="529.67,-152.05 524.14,-143.02 522.83,-153.53 529.67,-152.05"/>
</a>
</g>
</g>
<!-- Node8 -->
<g id="Node000008" class="node">
<title>Node8</title>
<g id="a_Node000008"><a xlink:href="class_scss_php_1_1_scss_php_1_1_parser.html#add3e69e5298cfe700994604c7269610f" target="_top" xlink:title=" ">
<polygon fill="white" stroke="#666666" points="639,-104.25 602,-104.25 602,-85 639,-85 639,-104.25"/>
<text text-anchor="middle" x="620.5" y="-90.75" font-family="Helvetica,sans-Serif" font-size="10.00">peek</text>
</a>
</g>
</g>
<!-- Node7&#45;&gt;Node8 -->
<g id="edge8_Node000007_Node000008" class="edge">
<title>Node7&#45;&gt;Node8</title>
<g id="a_edge8_Node000007_Node000008"><a xlink:title=" ">
<path fill="none" stroke="#63b8ff" d="M536.76,-94.62C553.44,-94.62 574.11,-94.62 590.62,-94.62"/>
<polygon fill="#63b8ff" stroke="#63b8ff" points="590.28,-98.13 600.28,-94.63 590.28,-91.13 590.28,-98.13"/>
</a>
</g>
</g>
<!-- Node9&#45;&gt;Node3 -->
<g id="edge11_Node000009_Node000003" class="edge">
<title>Node9&#45;&gt;Node3</title>
<g id="a_edge11_Node000009_Node000003"><a xlink:title=" ">
<path fill="none" stroke="#63b8ff" d="M158.44,-93.59C171.97,-100.03 189.81,-108.52 204.99,-115.75"/>
<polygon fill="#63b8ff" stroke="#63b8ff" points="203.1,-118.72 213.63,-119.86 206.11,-112.4 203.1,-118.72"/>
</a>
</g>
</g>
</g>
</svg>

<g id="navigator" transform="translate(0 0)" fill="#404254">
  <rect fill="#f2f5e9" fill-opacity="0.5" stroke="#606060" stroke-width=".5" x="0" y="0" width="60" height="60"/>
  <use id="zoomplus" xlink:href="#zoomPlus" x="17" y="9" onmousedown="handleZoom(evt,'in')"/>
  <use id="zoomminus" xlink:href="#zoomMin" x="42" y="9" onmousedown="handleZoom(evt,'out')"/>
  <use id="reset" xlink:href="#resetDef" x="30" y="36" onmousedown="handleReset()"/>
   <use id="arrowup" xlink:href="#arrowUp" x="0" y="0" onmousedown="handlePan(0,-1)"/>
  <use id="arrowright" xlink:href="#arrowRight" x="0" y="0" onmousedown="handlePan(1,0)"/>
  <use id="arrowdown" xlink:href="#arrowDown" x="0" y="0" onmousedown="handlePan(0,1)"/>
  <use id="arrowleft" xlink:href="#arrowLeft" x="0" y="0" onmousedown="handlePan(-1,0)"/>
</g>
<svg viewBox="0 0 15 15" width="100%" height="30px" preserveAspectRatio="xMaxYMin meet">
 <g id="arrow_out" transform="scale(0.3 0.3)">
  <a xlink:href="class_scss_php_1_1_scss_php_1_1_parser_a87605379ec2e6b1e1dd7a7b6071b3bd5_cgraph_org.svg" target="_base">
   <rect id="button" ry="5" rx="5" y="6" x="6" height="38" width="38"
        fill="#f2f5e9" fill-opacity="0.5" stroke="#606060" stroke-width="1.0"/>
   <path id="arrow"
     d="M 11.500037,31.436501 C 11.940474,20.09759 22.043105,11.32322 32.158766,21.979434 L 37.068811,17.246167 C 37.068811,17.246167 37.088388,32 37.088388,32 L 22.160133,31.978069 C 22.160133,31.978069 26.997745,27.140456 26.997745,27.140456 C 18.528582,18.264221 13.291696,25.230495 11.500037,31.436501 z"
     style="fill:#404040;"/>
  </a>
 </g>
</svg>

<style type='text/css'>
<![CDATA[
[data-mouse-over-selected='false'] { opacity: 0.7; }
[data-mouse-over-selected='true']  { opacity: 1.0; }
]]>
</style>
<script type="application/ecmascript"><![CDATA[
document.addEventListener('DOMContentLoaded', (event) => {
  highlightEdges();
  highlightAdjacentNodes();
});
]]></script>
</svg>
