<?xml version="1.0" encoding="UTF-8" standalone="no"?>
<!DOCTYPE svg PUBLIC "-//W3C//DTD SVG 1.1//EN"
 "http://www.w3.org/Graphics/SVG/1.1/DTD/svg11.dtd">
<!-- Generated by graphviz version 10.0.1 (20240210.2158)
 -->
<!-- Title: __construct Pages: 1 -->
<svg width="827pt" height="145pt"
 viewBox="0.00 0.00 827.25 145.37" xmlns="http://www.w3.org/2000/svg" xmlns:xlink="http://www.w3.org/1999/xlink">
<g id="graph0" class="graph" transform="scale(1 1) rotate(0) translate(4 141.37)">
<title>__construct</title>
<!-- Node1 -->
<g id="Node000001" class="node">
<title>Node1</title>
<g id="a_Node000001"><a xlink:title=" ">
<polygon fill="#999999" stroke="#666666" points="67,-66.88 0,-66.88 0,-47.62 67,-47.62 67,-66.88"/>
<text text-anchor="middle" x="33.5" y="-53.38" font-family="Helvetica,sans-Serif" font-size="10.00">__construct</text>
</a>
</g>
</g>
<!-- Node2 -->
<g id="Node000002" class="node">
<title>Node2</title>
<g id="a_Node000002"><a xlink:href="class_laminas_1_1_mail_1_1_protocol_1_1_imap.html#ab10ea11736fd728de44d4a1e4284f947" target="_top" xlink:title=" ">
<polygon fill="white" stroke="#666666" points="184.62,-88.88 134.12,-88.88 134.12,-69.62 184.62,-69.62 184.62,-88.88"/>
<text text-anchor="middle" x="159.38" y="-75.38" font-family="Helvetica,sans-Serif" font-size="10.00">connect</text>
</a>
</g>
</g>
<!-- Node1&#45;&gt;Node2 -->
<g id="edge1_Node000001_Node000002" class="edge">
<title>Node1&#45;&gt;Node2</title>
<g id="a_edge1_Node000001_Node000002"><a xlink:title=" ">
<path fill="none" stroke="#63b8ff" d="M67.37,-63.09C84.54,-66.14 105.56,-69.87 123.07,-72.98"/>
<polygon fill="#63b8ff" stroke="#63b8ff" points="122.05,-76.35 132.51,-74.66 123.28,-69.46 122.05,-76.35"/>
</a>
</g>
</g>
<!-- Node13 -->
<g id="Node000013" class="node">
<title>Node13</title>
<g id="a_Node000013"><a xlink:href="namespace_laminas_1_1_mail_1_1_protocol.html#a801d1842a28565ff02993b526ba0c693" target="_top" xlink:title=" ">
<polygon fill="white" stroke="#666666" points="215.75,-51.5 103,-51.5 103,-21 215.75,-21 215.75,-51.5"/>
<text text-anchor="start" x="111" y="-38" font-family="Helvetica,sans-Serif" font-size="10.00">Laminas\Mail\Protocol</text>
<text text-anchor="middle" x="159.38" y="-26.75" font-family="Helvetica,sans-Serif" font-size="10.00">\setNoValidateCert</text>
</a>
</g>
</g>
<!-- Node1&#45;&gt;Node13 -->
<g id="edge15_Node000001_Node000013" class="edge">
<title>Node1&#45;&gt;Node13</title>
<g id="a_edge15_Node000001_Node000013"><a xlink:title=" ">
<path fill="none" stroke="#63b8ff" d="M67.37,-51.68C74.95,-50.39 83.27,-48.98 91.72,-47.55"/>
<polygon fill="#63b8ff" stroke="#63b8ff" points="92.06,-51.04 101.34,-45.92 90.89,-44.14 92.06,-51.04"/>
</a>
</g>
</g>
<!-- Node3 -->
<g id="Node000003" class="node">
<title>Node3</title>
<g id="a_Node000003"><a xlink:href="class_laminas_1_1_mail_1_1_protocol_1_1_imap.html#ad4d8ede6cfaa32bd3e172b2b9a5a4402" target="_top" xlink:title=" ">
<polygon fill="white" stroke="#666666" points="610.25,-123.88 515.5,-123.88 515.5,-104.62 610.25,-104.62 610.25,-123.88"/>
<text text-anchor="middle" x="562.88" y="-110.38" font-family="Helvetica,sans-Serif" font-size="10.00">assumedNextLine</text>
</a>
</g>
</g>
<!-- Node2&#45;&gt;Node3 -->
<g id="edge2_Node000002_Node000003" class="edge">
<title>Node2&#45;&gt;Node3</title>
<g id="a_edge2_Node000002_Node000003"><a xlink:title=" ">
<path fill="none" stroke="#63b8ff" d="M174.74,-89.17C192.08,-100.49 222.55,-118.31 251.75,-125.25 337.73,-145.67 440.86,-135.41 503.86,-125.39"/>
<polygon fill="#63b8ff" stroke="#63b8ff" points="504.35,-128.86 513.65,-123.78 503.21,-121.95 504.35,-128.86"/>
</a>
</g>
</g>
<!-- Node5 -->
<g id="Node000005" class="node">
<title>Node5</title>
<g id="a_Node000005"><a xlink:href="namespace_laminas_1_1_mail_1_1_protocol.html#a7bade7fa4d6545a25b3b338c2b440869" target="_top" xlink:title=" ">
<polygon fill="white" stroke="#666666" points="364.5,-116.5 251.75,-116.5 251.75,-86 364.5,-86 364.5,-116.5"/>
<text text-anchor="start" x="259.75" y="-103" font-family="Helvetica,sans-Serif" font-size="10.00">Laminas\Mail\Protocol</text>
<text text-anchor="middle" x="308.12" y="-91.75" font-family="Helvetica,sans-Serif" font-size="10.00">\getCryptoMethod</text>
</a>
</g>
</g>
<!-- Node2&#45;&gt;Node5 -->
<g id="edge4_Node000002_Node000005" class="edge">
<title>Node2&#45;&gt;Node5</title>
<g id="a_edge4_Node000002_Node000005"><a xlink:title=" ">
<path fill="none" stroke="#63b8ff" d="M184.94,-82.93C200.15,-85.21 220.49,-88.26 240.2,-91.22"/>
<polygon fill="#63b8ff" stroke="#63b8ff" points="239.46,-94.65 249.87,-92.67 240.5,-87.72 239.46,-94.65"/>
</a>
</g>
</g>
<!-- Node6 -->
<g id="Node000006" class="node">
<title>Node6</title>
<g id="a_Node000006"><a xlink:href="class_laminas_1_1_mail_1_1_protocol_1_1_imap.html#a2034a041286b07b7aae958bc564dc138" target="_top" xlink:title=" ">
<polygon fill="white" stroke="#666666" points="363,-67.88 253.25,-67.88 253.25,-48.62 363,-48.62 363,-67.88"/>
<text text-anchor="middle" x="308.12" y="-54.38" font-family="Helvetica,sans-Serif" font-size="10.00">requestAndResponse</text>
</a>
</g>
</g>
<!-- Node2&#45;&gt;Node6 -->
<g id="edge5_Node000002_Node000006" class="edge">
<title>Node2&#45;&gt;Node6</title>
<g id="a_edge5_Node000002_Node000006"><a xlink:title=" ">
<path fill="none" stroke="#63b8ff" d="M184.94,-75.74C200.49,-73.51 221.41,-70.52 241.53,-67.64"/>
<polygon fill="#63b8ff" stroke="#63b8ff" points="242.01,-71.1 251.41,-66.22 241.02,-64.17 242.01,-71.1"/>
</a>
</g>
</g>
<!-- Node12 -->
<g id="Node000012" class="node">
<title>Node12</title>
<g id="a_Node000012"><a xlink:href="namespace_laminas_1_1_mail_1_1_protocol.html#ab91f5bb7f4b7a1237a3ced8e43286fba" target="_top" xlink:title=" ">
<polygon fill="white" stroke="#666666" points="364.5,-30.5 251.75,-30.5 251.75,0 364.5,0 364.5,-30.5"/>
<text text-anchor="start" x="259.75" y="-17" font-family="Helvetica,sans-Serif" font-size="10.00">Laminas\Mail\Protocol</text>
<text text-anchor="middle" x="308.12" y="-5.75" font-family="Helvetica,sans-Serif" font-size="10.00">\setupSocket</text>
</a>
</g>
</g>
<!-- Node2&#45;&gt;Node12 -->
<g id="edge14_Node000002_Node000012" class="edge">
<title>Node2&#45;&gt;Node12</title>
<g id="a_edge14_Node000002_Node000012"><a xlink:title=" ">
<path fill="none" stroke="#63b8ff" d="M185.04,-71.94C194.78,-68.76 205.95,-64.73 215.75,-60.25 232.59,-52.54 235.22,-47.61 251.75,-39.25 254.12,-38.05 256.56,-36.86 259.03,-35.67"/>
<polygon fill="#63b8ff" stroke="#63b8ff" points="260.33,-38.93 267.94,-31.56 257.39,-32.58 260.33,-38.93"/>
</a>
</g>
</g>
<!-- Node4 -->
<g id="Node000004" class="node">
<title>Node4</title>
<g id="a_Node000004"><a xlink:href="class_laminas_1_1_mail_1_1_protocol_1_1_imap.html#a6d666e2d048380c0c1f55933bf83aa01" target="_top" xlink:title=" ">
<polygon fill="white" stroke="#666666" points="819.25,-85.88 766.5,-85.88 766.5,-66.62 819.25,-66.62 819.25,-85.88"/>
<text text-anchor="middle" x="792.88" y="-72.38" font-family="Helvetica,sans-Serif" font-size="10.00">nextLine</text>
</a>
</g>
</g>
<!-- Node3&#45;&gt;Node4 -->
<g id="edge3_Node000003_Node000004" class="edge">
<title>Node3&#45;&gt;Node4</title>
<g id="a_edge3_Node000003_Node000004"><a xlink:title=" ">
<path fill="none" stroke="#63b8ff" d="M610.57,-111.27C644.19,-108.55 690.47,-103.65 730.5,-95.25 738.59,-93.55 747.13,-91.25 755.2,-88.83"/>
<polygon fill="#63b8ff" stroke="#63b8ff" points="756.24,-92.17 764.73,-85.83 754.14,-85.49 756.24,-92.17"/>
</a>
</g>
</g>
<!-- Node7 -->
<g id="Node000007" class="node">
<title>Node7</title>
<g id="a_Node000007"><a xlink:href="class_laminas_1_1_mail_1_1_protocol_1_1_imap.html#a241622d41706670b9aa972596f532297" target="_top" xlink:title=" ">
<polygon fill="white" stroke="#666666" points="479.5,-67.88 400.5,-67.88 400.5,-48.62 479.5,-48.62 479.5,-67.88"/>
<text text-anchor="middle" x="440" y="-54.38" font-family="Helvetica,sans-Serif" font-size="10.00">readResponse</text>
</a>
</g>
</g>
<!-- Node6&#45;&gt;Node7 -->
<g id="edge6_Node000006_Node000007" class="edge">
<title>Node6&#45;&gt;Node7</title>
<g id="a_edge6_Node000006_Node000007"><a xlink:title=" ">
<path fill="none" stroke="#63b8ff" d="M363.45,-58.25C371.86,-58.25 380.51,-58.25 388.83,-58.25"/>
<polygon fill="#63b8ff" stroke="#63b8ff" points="388.78,-61.75 398.78,-58.25 388.78,-54.75 388.78,-61.75"/>
</a>
</g>
</g>
<!-- Node11 -->
<g id="Node000011" class="node">
<title>Node11</title>
<g id="a_Node000011"><a xlink:href="class_laminas_1_1_mail_1_1_protocol_1_1_imap.html#a316e24e6eb7c30e6c1d116c0cebf1327" target="_top" xlink:title=" ">
<polygon fill="white" stroke="#666666" points="476.88,-110.88 403.12,-110.88 403.12,-91.62 476.88,-91.62 476.88,-110.88"/>
<text text-anchor="middle" x="440" y="-97.38" font-family="Helvetica,sans-Serif" font-size="10.00">sendRequest</text>
</a>
</g>
</g>
<!-- Node6&#45;&gt;Node11 -->
<g id="edge12_Node000006_Node000011" class="edge">
<title>Node6&#45;&gt;Node11</title>
<g id="a_edge12_Node000006_Node000011"><a xlink:title=" ">
<path fill="none" stroke="#63b8ff" d="M339.57,-68.33C357,-74.1 379.09,-81.41 398.02,-87.68"/>
<polygon fill="#63b8ff" stroke="#63b8ff" points="396.71,-90.94 407.3,-90.76 398.91,-84.29 396.71,-90.94"/>
</a>
</g>
</g>
<!-- Node8 -->
<g id="Node000008" class="node">
<title>Node8</title>
<g id="a_Node000008"><a xlink:href="class_laminas_1_1_mail_1_1_protocol_1_1_imap.html#a207d3553d58b65ddb528e13736700138" target="_top" xlink:title=" ">
<polygon fill="white" stroke="#666666" points="589.25,-67.88 536.5,-67.88 536.5,-48.62 589.25,-48.62 589.25,-67.88"/>
<text text-anchor="middle" x="562.88" y="-54.38" font-family="Helvetica,sans-Serif" font-size="10.00">readLine</text>
</a>
</g>
</g>
<!-- Node7&#45;&gt;Node8 -->
<g id="edge7_Node000007_Node000008" class="edge">
<title>Node7&#45;&gt;Node8</title>
<g id="a_edge7_Node000007_Node000008"><a xlink:title=" ">
<path fill="none" stroke="#63b8ff" d="M479.91,-58.25C494.25,-58.25 510.46,-58.25 524.65,-58.25"/>
<polygon fill="#63b8ff" stroke="#63b8ff" points="524.49,-61.75 534.49,-58.25 524.49,-54.75 524.49,-61.75"/>
</a>
</g>
</g>
<!-- Node9 -->
<g id="Node000009" class="node">
<title>Node9</title>
<g id="a_Node000009"><a xlink:href="class_laminas_1_1_mail_1_1_protocol_1_1_imap.html#a84839fa405b3425ef711b10a0bb786da" target="_top" xlink:title=" ">
<polygon fill="white" stroke="#666666" points="721.12,-85.88 655.62,-85.88 655.62,-66.62 721.12,-66.62 721.12,-85.88"/>
<text text-anchor="middle" x="688.38" y="-72.38" font-family="Helvetica,sans-Serif" font-size="10.00">decodeLine</text>
</a>
</g>
</g>
<!-- Node8&#45;&gt;Node9 -->
<g id="edge8_Node000008_Node000009" class="edge">
<title>Node8&#45;&gt;Node9</title>
<g id="a_edge8_Node000008_Node000009"><a xlink:title=" ">
<path fill="none" stroke="#63b8ff" d="M589.46,-61.98C605.19,-64.27 625.74,-67.27 643.95,-69.92"/>
<polygon fill="#63b8ff" stroke="#63b8ff" points="643.32,-73.37 653.72,-71.34 644.33,-66.44 643.32,-73.37"/>
</a>
</g>
</g>
<!-- Node10 -->
<g id="Node000010" class="node">
<title>Node10</title>
<g id="a_Node000010"><a xlink:href="class_laminas_1_1_mail_1_1_protocol_1_1_imap.html#a1ce3109772526dcae2e801284abef0f5" target="_top" xlink:title=" ">
<polygon fill="white" stroke="#666666" points="730.5,-48.88 646.25,-48.88 646.25,-29.62 730.5,-29.62 730.5,-48.88"/>
<text text-anchor="middle" x="688.38" y="-35.38" font-family="Helvetica,sans-Serif" font-size="10.00">nextTaggedLine</text>
</a>
</g>
</g>
<!-- Node8&#45;&gt;Node10 -->
<g id="edge10_Node000008_Node000010" class="edge">
<title>Node8&#45;&gt;Node10</title>
<g id="a_edge10_Node000008_Node000010"><a xlink:title=" ">
<path fill="none" stroke="#63b8ff" d="M589.46,-54.31C602.54,-52.3 618.96,-49.78 634.59,-47.37"/>
<polygon fill="#63b8ff" stroke="#63b8ff" points="634.93,-50.86 644.28,-45.88 633.86,-43.94 634.93,-50.86"/>
</a>
</g>
</g>
<!-- Node9&#45;&gt;Node4 -->
<g id="edge9_Node000009_Node000004" class="edge">
<title>Node9&#45;&gt;Node4</title>
<g id="a_edge9_Node000009_Node000004"><a xlink:title=" ">
<path fill="none" stroke="#63b8ff" d="M721.53,-76.25C732.05,-76.25 743.82,-76.25 754.68,-76.25"/>
<polygon fill="#63b8ff" stroke="#63b8ff" points="754.49,-79.75 764.49,-76.25 754.49,-72.75 754.49,-79.75"/>
</a>
</g>
</g>
<!-- Node10&#45;&gt;Node4 -->
<g id="edge11_Node000010_Node000004" class="edge">
<title>Node10&#45;&gt;Node4</title>
<g id="a_edge11_Node000010_Node000004"><a xlink:title=" ">
<path fill="none" stroke="#63b8ff" d="M717.38,-49.36C729.12,-53.6 742.92,-58.58 755.43,-63.09"/>
<polygon fill="#63b8ff" stroke="#63b8ff" points="753.99,-66.3 764.59,-66.4 756.37,-59.71 753.99,-66.3"/>
</a>
</g>
</g>
<!-- Node11&#45;&gt;Node3 -->
<g id="edge13_Node000011_Node000003" class="edge">
<title>Node11&#45;&gt;Node3</title>
<g id="a_edge13_Node000011_Node000003"><a xlink:title=" ">
<path fill="none" stroke="#63b8ff" d="M477.27,-105.15C485.68,-106.05 494.83,-107.04 503.92,-108.02"/>
<polygon fill="#63b8ff" stroke="#63b8ff" points="503.5,-111.49 513.82,-109.08 504.25,-104.53 503.5,-111.49"/>
</a>
</g>
</g>
</g>
</svg>
