<?xml version="1.0" encoding="UTF-8" standalone="no"?>
<!DOCTYPE svg PUBLIC "-//W3C//DTD SVG 1.1//EN"
 "http://www.w3.org/Graphics/SVG/1.1/DTD/svg11.dtd">
<!-- Generated by graphviz version 10.0.1 (20240210.2158)
 -->
<!-- Title: Query Pages: 1 -->
<svg width="144pt" height="105pt"
 viewBox="0.00 0.00 144.00 105.00" xmlns="http://www.w3.org/2000/svg" xmlns:xlink="http://www.w3.org/1999/xlink">
<g id="graph0" class="graph" transform="scale(1 1) rotate(0) translate(4 101)">
<title>Query</title>
<!-- Node1 -->
<g id="Node000001" class="node">
<title>Node1</title>
<g id="a_Node000001"><a xlink:title=" ">
<polygon fill="#999999" stroke="none" points="136,-97 0,-97 0,0 136,0 136,-97"/>
<text text-anchor="start" x="54.88" y="-83.5" font-family="Helvetica,sans-Serif" font-size="10.00">Query</text>
<text text-anchor="start" x="66.5" y="-68.5" font-family="Helvetica,sans-Serif" font-size="10.00"> </text>
<text text-anchor="start" x="4" y="-53.5" font-family="Helvetica,sans-Serif" font-size="10.00">+</text>
<text text-anchor="start" x="14" y="-53.5" font-family="Helvetica,sans-Serif" font-size="10.00">static parse(string</text>
<text text-anchor="start" x="14" y="-42.25" font-family="Helvetica,sans-Serif" font-size="10.00"> $str, $urlEncoding=true)</text>
<text text-anchor="start" x="4" y="-27.5" font-family="Helvetica,sans-Serif" font-size="10.00">+</text>
<text text-anchor="start" x="14" y="-27.5" font-family="Helvetica,sans-Serif" font-size="10.00">static build(array</text>
<text text-anchor="start" x="14" y="-16.25" font-family="Helvetica,sans-Serif" font-size="10.00"> $params, $encoding</text>
<text text-anchor="start" x="14" y="-5" font-family="Helvetica,sans-Serif" font-size="10.00">=PHP_QUERY_RFC3986)</text>
<polygon fill="#666666" stroke="#666666" points="0,-80 0,-80 136,-80 136,-80 0,-80"/>
<polygon fill="#666666" stroke="#666666" points="0,-65 0,-65 136,-65 136,-65 0,-65"/>
<polygon fill="none" stroke="#666666" points="0,0 0,-97 136,-97 136,0 0,0"/>
</a>
</g>
</g>
</g>
</svg>
