<?xml version="1.0" encoding="UTF-8" standalone="no"?>
<!DOCTYPE svg PUBLIC "-//W3C//DTD SVG 1.1//EN"
 "http://www.w3.org/Graphics/SVG/1.1/DTD/svg11.dtd">
<!-- Generated by graphviz version 10.0.1 (20240210.2158)
 -->
<!-- Title: send Pages: 1 -->
<svg width="1125pt" height="498pt"
 viewBox="0.00 0.00 1124.50 497.88" xmlns="http://www.w3.org/2000/svg" xmlns:xlink="http://www.w3.org/1999/xlink">
<g id="graph0" class="graph" transform="scale(1 1) rotate(0) translate(4 493.88)">
<title>send</title>
<!-- Node1 -->
<g id="Node000001" class="node">
<title>Node1</title>
<g id="a_Node000001"><a xlink:title=" ">
<polygon fill="#999999" stroke="#666666" points="37,-272.88 0,-272.88 0,-253.62 37,-253.62 37,-272.88"/>
<text text-anchor="middle" x="18.5" y="-259.38" font-family="Helvetica,sans-Serif" font-size="10.00">send</text>
</a>
</g>
</g>
<!-- Node2 -->
<g id="Node000002" class="node">
<title>Node2</title>
<g id="a_Node000002"><a xlink:href="class_laminas_1_1_mail_1_1_transport_1_1_smtp.html#a78572828d11dcdf2a498497d9001d557" target="_top" xlink:title=" ">
<polygon fill="white" stroke="#666666" points="151.62,-394.88 101.12,-394.88 101.12,-375.62 151.62,-375.62 151.62,-394.88"/>
<text text-anchor="middle" x="126.38" y="-381.38" font-family="Helvetica,sans-Serif" font-size="10.00">connect</text>
</a>
</g>
</g>
<!-- Node1&#45;&gt;Node2 -->
<g id="edge1_Node000001_Node000002" class="edge">
<title>Node1&#45;&gt;Node2</title>
<g id="a_edge1_Node000001_Node000002"><a xlink:title=" ">
<path fill="none" stroke="#63b8ff" d="M24.94,-273.14C33.81,-288.77 52.46,-319.73 73,-342.25 81.68,-351.77 92.52,-361.01 102.08,-368.47"/>
<polygon fill="#63b8ff" stroke="#63b8ff" points="99.79,-371.13 109.88,-374.37 104.01,-365.55 99.79,-371.13"/>
</a>
</g>
</g>
<!-- Node9 -->
<g id="Node000009" class="node">
<title>Node9</title>
<g id="a_Node000009"><a xlink:href="class_laminas_1_1_mail_1_1_transport_1_1_smtp.html#ab7a0a080d0e721c656eef11cd641638b" target="_top" xlink:title=" ">
<polygon fill="white" stroke="#666666" points="476.88,-337.88 397.88,-337.88 397.88,-318.62 476.88,-318.62 476.88,-337.88"/>
<text text-anchor="middle" x="437.38" y="-324.38" font-family="Helvetica,sans-Serif" font-size="10.00">getConnection</text>
</a>
</g>
</g>
<!-- Node1&#45;&gt;Node9 -->
<g id="edge11_Node000001_Node000009" class="edge">
<title>Node1&#45;&gt;Node9</title>
<g id="a_edge11_Node000001_Node000009"><a xlink:title=" ">
<path fill="none" stroke="#63b8ff" d="M29.52,-273.28C39.56,-282.62 55.94,-296.01 73,-302.25 179.2,-341.1 314.31,-338.36 386.14,-333.18"/>
<polygon fill="#63b8ff" stroke="#63b8ff" points="386.32,-336.68 396.02,-332.42 385.78,-329.7 386.32,-336.68"/>
</a>
</g>
</g>
<!-- Node10 -->
<g id="Node000010" class="node">
<title>Node10</title>
<g id="a_Node000010"><a xlink:href="class_laminas_1_1_mail_1_1_transport_1_1_smtp.html#ab1fafd50617819b568e5c9ef58c68fec" target="_top" xlink:title=" ">
<polygon fill="white" stroke="#666666" points="161.75,-292.88 91,-292.88 91,-273.62 161.75,-273.62 161.75,-292.88"/>
<text text-anchor="middle" x="126.38" y="-279.38" font-family="Helvetica,sans-Serif" font-size="10.00">prepareBody</text>
</a>
</g>
</g>
<!-- Node1&#45;&gt;Node10 -->
<g id="edge13_Node000001_Node000010" class="edge">
<title>Node1&#45;&gt;Node10</title>
<g id="a_edge13_Node000001_Node000010"><a xlink:title=" ">
<path fill="none" stroke="#63b8ff" d="M37.46,-266.64C49.03,-268.83 64.62,-271.77 79.47,-274.58"/>
<polygon fill="#63b8ff" stroke="#63b8ff" points="78.63,-277.98 89.11,-276.4 79.93,-271.1 78.63,-277.98"/>
</a>
</g>
</g>
<!-- Node12 -->
<g id="Node000012" class="node">
<title>Node12</title>
<g id="a_Node000012"><a xlink:href="class_laminas_1_1_mail_1_1_transport_1_1_smtp.html#abcad29aaa730c716c88360fec1ce8950" target="_top" xlink:title=" ">
<polygon fill="white" stroke="#666666" points="179.75,-208.88 73,-208.88 73,-189.62 179.75,-189.62 179.75,-208.88"/>
<text text-anchor="middle" x="126.38" y="-195.38" font-family="Helvetica,sans-Serif" font-size="10.00">prepareFromAddress</text>
</a>
</g>
</g>
<!-- Node1&#45;&gt;Node12 -->
<g id="edge15_Node000001_Node000012" class="edge">
<title>Node1&#45;&gt;Node12</title>
<g id="a_edge15_Node000001_Node000012"><a xlink:title=" ">
<path fill="none" stroke="#63b8ff" d="M34.3,-253.15C44.94,-245.99 59.69,-236.27 73,-228.25 80.59,-223.68 88.93,-218.93 96.68,-214.64"/>
<polygon fill="#63b8ff" stroke="#63b8ff" points="98.34,-217.72 105.44,-209.85 94.98,-211.58 98.34,-217.72"/>
</a>
</g>
</g>
<!-- Node20 -->
<g id="Node000020" class="node">
<title>Node20</title>
<g id="a_Node000020"><a xlink:href="class_laminas_1_1_mail_1_1_transport_1_1_smtp.html#a1d1d1792db61834d6db29772174d18d6" target="_top" xlink:title=" ">
<polygon fill="white" stroke="#666666" points="643.25,-230.88 558.25,-230.88 558.25,-211.62 643.25,-211.62 643.25,-230.88"/>
<text text-anchor="middle" x="600.75" y="-217.38" font-family="Helvetica,sans-Serif" font-size="10.00">prepareHeaders</text>
</a>
</g>
</g>
<!-- Node1&#45;&gt;Node20 -->
<g id="edge23_Node000001_Node000020" class="edge">
<title>Node1&#45;&gt;Node20</title>
<g id="a_edge23_Node000001_Node000020"><a xlink:title=" ">
<path fill="none" stroke="#63b8ff" d="M37.18,-261.97C114.17,-256.4 421.86,-234.13 546.71,-225.09"/>
<polygon fill="#63b8ff" stroke="#63b8ff" points="546.62,-228.6 556.34,-224.39 546.12,-221.62 546.62,-228.6"/>
</a>
</g>
</g>
<!-- Node21 -->
<g id="Node000021" class="node">
<title>Node21</title>
<g id="a_Node000021"><a xlink:href="class_laminas_1_1_mail_1_1_transport_1_1_smtp.html#ab0e9c2afbc009983be306114e27f379a" target="_top" xlink:title=" ">
<polygon fill="white" stroke="#666666" points="173.75,-122.88 79,-122.88 79,-103.62 173.75,-103.62 173.75,-122.88"/>
<text text-anchor="middle" x="126.38" y="-109.38" font-family="Helvetica,sans-Serif" font-size="10.00">prepareRecipients</text>
</a>
</g>
</g>
<!-- Node1&#45;&gt;Node21 -->
<g id="edge25_Node000001_Node000021" class="edge">
<title>Node1&#45;&gt;Node21</title>
<g id="a_edge25_Node000001_Node000021"><a xlink:title=" ">
<path fill="none" stroke="#63b8ff" d="M25.48,-253.35C35.08,-237.59 54.72,-205.96 73,-180.25 84.98,-163.4 99.52,-144.94 110.24,-131.67"/>
<polygon fill="#63b8ff" stroke="#63b8ff" points="112.72,-134.16 116.32,-124.2 107.3,-129.74 112.72,-134.16"/>
</a>
</g>
</g>
<!-- Node3 -->
<g id="Node000003" class="node">
<title>Node3</title>
<g id="a_Node000003"><a xlink:href="class_laminas_1_1_mail_1_1_transport_1_1_smtp.html#a1a49b8dded6e91a52e2fd07195d334da" target="_top" xlink:title=" ">
<polygon fill="white" stroke="#666666" points="632.38,-394.88 569.12,-394.88 569.12,-375.62 632.38,-375.62 632.38,-394.88"/>
<text text-anchor="middle" x="600.75" y="-381.38" font-family="Helvetica,sans-Serif" font-size="10.00">getOptions</text>
</a>
</g>
</g>
<!-- Node2&#45;&gt;Node3 -->
<g id="edge2_Node000002_Node000003" class="edge">
<title>Node2&#45;&gt;Node3</title>
<g id="a_edge2_Node000002_Node000003"><a xlink:title=" ">
<path fill="none" stroke="#63b8ff" d="M152.11,-385.25C228.46,-385.25 461.11,-385.25 557.37,-385.25"/>
<polygon fill="#63b8ff" stroke="#63b8ff" points="557.17,-388.75 567.17,-385.25 557.17,-381.75 557.17,-388.75"/>
</a>
</g>
</g>
<!-- Node4 -->
<g id="Node000004" class="node">
<title>Node4</title>
<g id="a_Node000004"><a xlink:href="class_laminas_1_1_mail_1_1_transport_1_1_smtp.html#ad09f36552f87be42e295ee6ab3bbf465" target="_top" xlink:title=" ">
<polygon fill="white" stroke="#666666" points="326.25,-413.88 221.75,-413.88 221.75,-394.62 326.25,-394.62 326.25,-413.88"/>
<text text-anchor="middle" x="274" y="-400.38" font-family="Helvetica,sans-Serif" font-size="10.00">lazyLoadConnection</text>
</a>
</g>
</g>
<!-- Node2&#45;&gt;Node4 -->
<g id="edge3_Node000002_Node000004" class="edge">
<title>Node2&#45;&gt;Node4</title>
<g id="a_edge3_Node000002_Node000004"><a xlink:title=" ">
<path fill="none" stroke="#63b8ff" d="M152.08,-383.26C172.98,-384.39 203.45,-388.01 228.58,-392.18"/>
<polygon fill="#63b8ff" stroke="#63b8ff" points="227.74,-395.59 238.2,-393.87 228.95,-388.69 227.74,-395.59"/>
</a>
</g>
</g>
<!-- Node4&#45;&gt;Node2 -->
<g id="edge4_Node000004_Node000002" class="edge">
<title>Node4&#45;&gt;Node2</title>
<g id="a_edge4_Node000004_Node000002"><a xlink:title=" ">
<path fill="none" stroke="#63b8ff" d="M221.26,-403.99C201.95,-401.96 180.49,-398.96 162.97,-395.79"/>
<polygon fill="#63b8ff" stroke="#63b8ff" points="164.05,-392.43 153.56,-393.98 162.72,-399.31 164.05,-392.43"/>
</a>
</g>
</g>
<!-- Node4&#45;&gt;Node3 -->
<g id="edge5_Node000004_Node000003" class="edge">
<title>Node4&#45;&gt;Node3</title>
<g id="a_edge5_Node000004_Node000003"><a xlink:title=" ">
<path fill="none" stroke="#63b8ff" d="M315.94,-414.33C362.5,-424.24 440.61,-436.16 506.5,-423.25 529.05,-418.83 553.03,-408.93 571.03,-400.34"/>
<polygon fill="#63b8ff" stroke="#63b8ff" points="572.36,-403.59 579.78,-396.03 569.26,-397.31 572.36,-403.59"/>
</a>
</g>
</g>
<!-- Node5 -->
<g id="Node000005" class="node">
<title>Node5</title>
<g id="a_Node000005"><a xlink:href="class_laminas_1_1_mail_1_1_transport_1_1_smtp.html#a0d368866df73e3a6d356739d4be06e81" target="_top" xlink:title=" ">
<polygon fill="white" stroke="#666666" points="458.12,-489.88 416.62,-489.88 416.62,-470.62 458.12,-470.62 458.12,-489.88"/>
<text text-anchor="middle" x="437.38" y="-476.38" font-family="Helvetica,sans-Serif" font-size="10.00">plugin</text>
</a>
</g>
</g>
<!-- Node4&#45;&gt;Node5 -->
<g id="edge6_Node000004_Node000005" class="edge">
<title>Node4&#45;&gt;Node5</title>
<g id="a_edge6_Node000004_Node000005"><a xlink:title=" ">
<path fill="none" stroke="#63b8ff" d="M291.07,-414.32C309.32,-425.49 340.2,-443.6 368.25,-456.25 380.2,-461.64 393.76,-466.63 405.61,-470.65"/>
<polygon fill="#63b8ff" stroke="#63b8ff" points="404.32,-473.91 414.91,-473.71 406.51,-467.26 404.32,-473.91"/>
</a>
</g>
</g>
<!-- Node8 -->
<g id="Node000008" class="node">
<title>Node8</title>
<g id="a_Node000008"><a xlink:href="class_laminas_1_1_mail_1_1_transport_1_1_smtp.html#a9541d74124800081f602e28ccb99ba08" target="_top" xlink:title=" ">
<polygon fill="white" stroke="#666666" points="476.88,-413.88 397.88,-413.88 397.88,-394.62 476.88,-394.62 476.88,-413.88"/>
<text text-anchor="middle" x="437.38" y="-400.38" font-family="Helvetica,sans-Serif" font-size="10.00">setConnection</text>
</a>
</g>
</g>
<!-- Node4&#45;&gt;Node8 -->
<g id="edge9_Node000004_Node000008" class="edge">
<title>Node4&#45;&gt;Node8</title>
<g id="a_edge9_Node000004_Node000008"><a xlink:title=" ">
<path fill="none" stroke="#63b8ff" d="M326.5,-404.25C345.6,-404.25 367.22,-404.25 386.2,-404.25"/>
<polygon fill="#63b8ff" stroke="#63b8ff" points="386.11,-407.75 396.11,-404.25 386.11,-400.75 386.11,-407.75"/>
</a>
</g>
</g>
<!-- Node6 -->
<g id="Node000006" class="node">
<title>Node6</title>
<g id="a_Node000006"><a xlink:href="class_laminas_1_1_mail_1_1_transport_1_1_smtp.html#a366df7292a3860c3fca7efa5fe451473" target="_top" xlink:title=" ">
<polygon fill="white" stroke="#666666" points="647.75,-489.88 553.75,-489.88 553.75,-470.62 647.75,-470.62 647.75,-489.88"/>
<text text-anchor="middle" x="600.75" y="-476.38" font-family="Helvetica,sans-Serif" font-size="10.00">getPluginManager</text>
</a>
</g>
</g>
<!-- Node5&#45;&gt;Node6 -->
<g id="edge7_Node000005_Node000006" class="edge">
<title>Node5&#45;&gt;Node6</title>
<g id="a_edge7_Node000005_Node000006"><a xlink:title=" ">
<path fill="none" stroke="#63b8ff" d="M458.49,-480.25C479.3,-480.25 512.78,-480.25 541.92,-480.25"/>
<polygon fill="#63b8ff" stroke="#63b8ff" points="541.74,-483.75 551.74,-480.25 541.74,-476.75 541.74,-483.75"/>
</a>
</g>
</g>
<!-- Node7 -->
<g id="Node000007" class="node">
<title>Node7</title>
<g id="a_Node000007"><a xlink:href="class_laminas_1_1_mail_1_1_transport_1_1_smtp.html#afd2212f3bc931e9ddfcc7be10384d300" target="_top" xlink:title=" ">
<polygon fill="white" stroke="#666666" points="800.25,-489.88 706.25,-489.88 706.25,-470.62 800.25,-470.62 800.25,-489.88"/>
<text text-anchor="middle" x="753.25" y="-476.38" font-family="Helvetica,sans-Serif" font-size="10.00">setPluginManager</text>
</a>
</g>
</g>
<!-- Node6&#45;&gt;Node7 -->
<g id="edge8_Node000006_Node000007" class="edge">
<title>Node6&#45;&gt;Node7</title>
<g id="a_edge8_Node000006_Node000007"><a xlink:title=" ">
<path fill="none" stroke="#63b8ff" d="M648.13,-480.25C662.72,-480.25 679.02,-480.25 694.31,-480.25"/>
<polygon fill="#63b8ff" stroke="#63b8ff" points="694.25,-483.75 704.25,-480.25 694.25,-476.75 694.25,-483.75"/>
</a>
</g>
</g>
<!-- Node8&#45;&gt;Node3 -->
<g id="edge10_Node000008_Node000003" class="edge">
<title>Node8&#45;&gt;Node3</title>
<g id="a_edge10_Node000008_Node000003"><a xlink:title=" ">
<path fill="none" stroke="#63b8ff" d="M477.03,-399.7C501.26,-396.85 532.5,-393.17 557.4,-390.24"/>
<polygon fill="#63b8ff" stroke="#63b8ff" points="557.68,-393.73 567.2,-389.08 556.86,-386.78 557.68,-393.73"/>
</a>
</g>
</g>
<!-- Node9&#45;&gt;Node3 -->
<g id="edge12_Node000009_Node000003" class="edge">
<title>Node9&#45;&gt;Node3</title>
<g id="a_edge12_Node000009_Node000003"><a xlink:title=" ">
<path fill="none" stroke="#63b8ff" d="M466.88,-338.28C479.09,-342.58 493.49,-347.66 506.5,-352.25 524.3,-358.53 544.01,-365.51 560.7,-371.42"/>
<polygon fill="#63b8ff" stroke="#63b8ff" points="559.16,-374.59 569.76,-374.62 561.5,-367.99 559.16,-374.59"/>
</a>
</g>
</g>
<!-- Node11 -->
<g id="Node000011" class="node">
<title>Node11</title>
<g id="a_Node000011"><a xlink:href="class_laminas_1_1_mail_1_1_message.html#a2d4ad6749c848d04beef4594d78f9f59" target="_top" xlink:title=" ">
<polygon fill="white" stroke="#666666" points="332.25,-300.5 215.75,-300.5 215.75,-270 332.25,-270 332.25,-300.5"/>
<text text-anchor="start" x="223.75" y="-287" font-family="Helvetica,sans-Serif" font-size="10.00">Laminas\Mail\Message</text>
<text text-anchor="middle" x="274" y="-275.75" font-family="Helvetica,sans-Serif" font-size="10.00">\getBodyText</text>
</a>
</g>
</g>
<!-- Node10&#45;&gt;Node11 -->
<g id="edge14_Node000010_Node000011" class="edge">
<title>Node10&#45;&gt;Node11</title>
<g id="a_edge14_Node000010_Node000011"><a xlink:title=" ">
<path fill="none" stroke="#63b8ff" d="M161.89,-283.72C174.62,-283.9 189.54,-284.1 204.24,-284.31"/>
<polygon fill="#63b8ff" stroke="#63b8ff" points="203.84,-287.8 213.88,-284.44 203.93,-280.8 203.84,-287.8"/>
</a>
</g>
</g>
<!-- Node13 -->
<g id="Node000013" class="node">
<title>Node13</title>
<g id="a_Node000013"><a xlink:href="class_laminas_1_1_mail_1_1_transport_1_1_smtp.html#a16d85a51fe5b156ff2ddfd3b2c2dfc8f" target="_top" xlink:title=" ">
<polygon fill="white" stroke="#666666" points="309,-165.88 239,-165.88 239,-146.62 309,-146.62 309,-165.88"/>
<text text-anchor="middle" x="274" y="-152.38" font-family="Helvetica,sans-Serif" font-size="10.00">getEnvelope</text>
</a>
</g>
</g>
<!-- Node12&#45;&gt;Node13 -->
<g id="edge16_Node000012_Node000013" class="edge">
<title>Node12&#45;&gt;Node13</title>
<g id="a_edge16_Node000012_Node000013"><a xlink:title=" ">
<path fill="none" stroke="#63b8ff" d="M161.52,-189.17C181.35,-183.31 206.57,-175.87 228,-169.54"/>
<polygon fill="#63b8ff" stroke="#63b8ff" points="228.77,-172.96 237.37,-166.77 226.79,-166.25 228.77,-172.96"/>
</a>
</g>
</g>
<!-- Node14 -->
<g id="Node000014" class="node">
<title>Node14</title>
<g id="a_Node000014"><a xlink:href="class_laminas_1_1_mail_1_1_message.html#a28bd887dc9236a9c87f1d5cbe9c5875d" target="_top" xlink:title=" ">
<polygon fill="white" stroke="#666666" points="332.25,-214.5 215.75,-214.5 215.75,-184 332.25,-184 332.25,-214.5"/>
<text text-anchor="start" x="223.75" y="-201" font-family="Helvetica,sans-Serif" font-size="10.00">Laminas\Mail\Message</text>
<text text-anchor="middle" x="274" y="-189.75" font-family="Helvetica,sans-Serif" font-size="10.00">\getFrom</text>
</a>
</g>
</g>
<!-- Node12&#45;&gt;Node14 -->
<g id="edge17_Node000012_Node000014" class="edge">
<title>Node12&#45;&gt;Node14</title>
<g id="a_edge17_Node000012_Node000014"><a xlink:title=" ">
<path fill="none" stroke="#63b8ff" d="M179.95,-199.25C187.81,-199.25 196.02,-199.25 204.16,-199.25"/>
<polygon fill="#63b8ff" stroke="#63b8ff" points="204.06,-202.75 214.06,-199.25 204.06,-195.75 204.06,-202.75"/>
</a>
</g>
</g>
<!-- Node15 -->
<g id="Node000015" class="node">
<title>Node15</title>
<g id="a_Node000015"><a xlink:href="class_laminas_1_1_mail_1_1_message.html#a93b3fb7ceee16d24a4f79bac0e798d45" target="_top" xlink:title=" ">
<polygon fill="white" stroke="#666666" points="506.5,-128.5 368.25,-128.5 368.25,-98 506.5,-98 506.5,-128.5"/>
<text text-anchor="start" x="376.25" y="-115" font-family="Helvetica,sans-Serif" font-size="10.00">Laminas\Mail\Message</text>
<text text-anchor="middle" x="437.38" y="-103.75" font-family="Helvetica,sans-Serif" font-size="10.00">\getAddressListFromHeader</text>
</a>
</g>
</g>
<!-- Node14&#45;&gt;Node15 -->
<g id="edge18_Node000014_Node000015" class="edge">
<title>Node14&#45;&gt;Node15</title>
<g id="a_edge18_Node000014_Node000015"><a xlink:title=" ">
<path fill="none" stroke="#63b8ff" d="M314.44,-183.57C320.47,-180.93 326.57,-178.11 332.25,-175.25 356.52,-163.01 382.81,-147.34 402.9,-134.81"/>
<polygon fill="#63b8ff" stroke="#63b8ff" points="404.63,-137.86 411.23,-129.57 400.9,-131.93 404.63,-137.86"/>
</a>
</g>
</g>
<!-- Node16 -->
<g id="Node000016" class="node">
<title>Node16</title>
<g id="a_Node000016"><a xlink:href="class_laminas_1_1_mail_1_1_message.html#a84cffc4acd293810c53e520f349c7c2e" target="_top" xlink:title=" ">
<polygon fill="white" stroke="#666666" points="659,-150.5 542.5,-150.5 542.5,-120 659,-120 659,-150.5"/>
<text text-anchor="start" x="550.5" y="-137" font-family="Helvetica,sans-Serif" font-size="10.00">Laminas\Mail\Message</text>
<text text-anchor="middle" x="600.75" y="-125.75" font-family="Helvetica,sans-Serif" font-size="10.00">\getHeaderByName</text>
</a>
</g>
</g>
<!-- Node15&#45;&gt;Node16 -->
<g id="edge19_Node000015_Node000016" class="edge">
<title>Node15&#45;&gt;Node16</title>
<g id="a_edge19_Node000015_Node000016"><a xlink:title=" ">
<path fill="none" stroke="#63b8ff" d="M506.81,-122.58C514.81,-123.67 522.98,-124.78 530.98,-125.87"/>
<polygon fill="#63b8ff" stroke="#63b8ff" points="530.27,-129.31 540.65,-127.19 531.22,-122.37 530.27,-129.31"/>
</a>
</g>
</g>
<!-- Node17 -->
<g id="Node000017" class="node">
<title>Node17</title>
<g id="a_Node000017"><a xlink:href="class_laminas_1_1_mail_1_1_message.html#a157e0005d82edaa21cbea07fdc5c62da" target="_top" xlink:title=" ">
<polygon fill="white" stroke="#666666" points="811.5,-215.5 695,-215.5 695,-185 811.5,-185 811.5,-215.5"/>
<text text-anchor="start" x="703" y="-202" font-family="Helvetica,sans-Serif" font-size="10.00">Laminas\Mail\Message</text>
<text text-anchor="middle" x="753.25" y="-190.75" font-family="Helvetica,sans-Serif" font-size="10.00">\getHeaders</text>
</a>
</g>
</g>
<!-- Node16&#45;&gt;Node17 -->
<g id="edge20_Node000016_Node000017" class="edge">
<title>Node16&#45;&gt;Node17</title>
<g id="a_edge20_Node000016_Node000017"><a xlink:title=" ">
<path fill="none" stroke="#63b8ff" d="M638.18,-150.98C658.44,-159.73 683.87,-170.72 705.58,-180.09"/>
<polygon fill="#63b8ff" stroke="#63b8ff" points="703.94,-183.2 714.5,-183.95 706.71,-176.77 703.94,-183.2"/>
</a>
</g>
</g>
<!-- Node18 -->
<g id="Node000018" class="node">
<title>Node18</title>
<g id="a_Node000018"><a xlink:href="class_laminas_1_1_mail_1_1_message.html#acd34cc8039a498e91ffaf03683f02836" target="_top" xlink:title=" ">
<polygon fill="white" stroke="#666666" points="964,-215.5 847.5,-215.5 847.5,-185 964,-185 964,-215.5"/>
<text text-anchor="start" x="855.5" y="-202" font-family="Helvetica,sans-Serif" font-size="10.00">Laminas\Mail\Message</text>
<text text-anchor="middle" x="905.75" y="-190.75" font-family="Helvetica,sans-Serif" font-size="10.00">\setHeaders</text>
</a>
</g>
</g>
<!-- Node17&#45;&gt;Node18 -->
<g id="edge21_Node000017_Node000018" class="edge">
<title>Node17&#45;&gt;Node18</title>
<g id="a_edge21_Node000017_Node000018"><a xlink:title=" ">
<path fill="none" stroke="#63b8ff" d="M811.58,-200.25C819.48,-200.25 827.67,-200.25 835.75,-200.25"/>
<polygon fill="#63b8ff" stroke="#63b8ff" points="835.57,-203.75 845.57,-200.25 835.57,-196.75 835.57,-203.75"/>
</a>
</g>
</g>
<!-- Node19 -->
<g id="Node000019" class="node">
<title>Node19</title>
<g id="a_Node000019"><a xlink:href="class_laminas_1_1_mail_1_1_message.html#a515b2653f040b0c8a4ed093878232943" target="_top" xlink:title=" ">
<polygon fill="white" stroke="#666666" points="1116.5,-215.5 1000,-215.5 1000,-185 1116.5,-185 1116.5,-215.5"/>
<text text-anchor="start" x="1008" y="-202" font-family="Helvetica,sans-Serif" font-size="10.00">Laminas\Mail\Message</text>
<text text-anchor="middle" x="1058.25" y="-190.75" font-family="Helvetica,sans-Serif" font-size="10.00">\getEncoding</text>
</a>
</g>
</g>
<!-- Node18&#45;&gt;Node19 -->
<g id="edge22_Node000018_Node000019" class="edge">
<title>Node18&#45;&gt;Node19</title>
<g id="a_edge22_Node000018_Node000019"><a xlink:title=" ">
<path fill="none" stroke="#63b8ff" d="M964.08,-200.25C971.98,-200.25 980.17,-200.25 988.25,-200.25"/>
<polygon fill="#63b8ff" stroke="#63b8ff" points="988.07,-203.75 998.07,-200.25 988.07,-196.75 988.07,-203.75"/>
</a>
</g>
</g>
<!-- Node20&#45;&gt;Node17 -->
<g id="edge24_Node000020_Node000017" class="edge">
<title>Node20&#45;&gt;Node17</title>
<g id="a_edge24_Node000020_Node000017"><a xlink:title=" ">
<path fill="none" stroke="#63b8ff" d="M643.67,-215.4C655.97,-213.68 669.76,-211.76 683.27,-209.87"/>
<polygon fill="#63b8ff" stroke="#63b8ff" points="683.61,-213.36 693.03,-208.51 682.64,-206.43 683.61,-213.36"/>
</a>
</g>
</g>
<!-- Node21&#45;&gt;Node13 -->
<g id="edge30_Node000021_Node000013" class="edge">
<title>Node21&#45;&gt;Node13</title>
<g id="a_edge30_Node000021_Node000013"><a xlink:title=" ">
<path fill="none" stroke="#63b8ff" d="M161.52,-123.33C181.35,-129.19 206.57,-136.63 228,-142.96"/>
<polygon fill="#63b8ff" stroke="#63b8ff" points="226.79,-146.25 237.37,-145.73 228.77,-139.54 226.79,-146.25"/>
</a>
</g>
</g>
<!-- Node22 -->
<g id="Node000022" class="node">
<title>Node22</title>
<g id="a_Node000022"><a xlink:href="class_laminas_1_1_mail_1_1_message.html#a27f79c37e4c79ed8f56b15f0dc91a7bb" target="_top" xlink:title=" ">
<polygon fill="white" stroke="#666666" points="332.25,-128.5 215.75,-128.5 215.75,-98 332.25,-98 332.25,-128.5"/>
<text text-anchor="start" x="223.75" y="-115" font-family="Helvetica,sans-Serif" font-size="10.00">Laminas\Mail\Message</text>
<text text-anchor="middle" x="274" y="-103.75" font-family="Helvetica,sans-Serif" font-size="10.00">\getBcc</text>
</a>
</g>
</g>
<!-- Node21&#45;&gt;Node22 -->
<g id="edge26_Node000021_Node000022" class="edge">
<title>Node21&#45;&gt;Node22</title>
<g id="a_edge26_Node000021_Node000022"><a xlink:title=" ">
<path fill="none" stroke="#63b8ff" d="M173.85,-113.25C183.47,-113.25 193.79,-113.25 204.02,-113.25"/>
<polygon fill="#63b8ff" stroke="#63b8ff" points="203.96,-116.75 213.96,-113.25 203.96,-109.75 203.96,-116.75"/>
</a>
</g>
</g>
<!-- Node23 -->
<g id="Node000023" class="node">
<title>Node23</title>
<g id="a_Node000023"><a xlink:href="class_laminas_1_1_mail_1_1_message.html#a51107037d3d1587180d3521b2d2cbafe" target="_top" xlink:title=" ">
<polygon fill="white" stroke="#666666" points="332.25,-79.5 215.75,-79.5 215.75,-49 332.25,-49 332.25,-79.5"/>
<text text-anchor="start" x="223.75" y="-66" font-family="Helvetica,sans-Serif" font-size="10.00">Laminas\Mail\Message</text>
<text text-anchor="middle" x="274" y="-54.75" font-family="Helvetica,sans-Serif" font-size="10.00">\getCc</text>
</a>
</g>
</g>
<!-- Node21&#45;&gt;Node23 -->
<g id="edge28_Node000021_Node000023" class="edge">
<title>Node21&#45;&gt;Node23</title>
<g id="a_edge28_Node000021_Node000023"><a xlink:title=" ">
<path fill="none" stroke="#63b8ff" d="M157.2,-103.22C173.98,-97.57 195.5,-90.33 215.43,-83.62"/>
<polygon fill="#63b8ff" stroke="#63b8ff" points="216.51,-86.95 224.87,-80.45 214.27,-80.32 216.51,-86.95"/>
</a>
</g>
</g>
<!-- Node24 -->
<g id="Node000024" class="node">
<title>Node24</title>
<g id="a_Node000024"><a xlink:href="class_laminas_1_1_mail_1_1_message.html#addfa0ac916b451938b5ad7aceeb03820" target="_top" xlink:title=" ">
<polygon fill="white" stroke="#666666" points="332.25,-30.5 215.75,-30.5 215.75,0 332.25,0 332.25,-30.5"/>
<text text-anchor="start" x="223.75" y="-17" font-family="Helvetica,sans-Serif" font-size="10.00">Laminas\Mail\Message</text>
<text text-anchor="middle" x="274" y="-5.75" font-family="Helvetica,sans-Serif" font-size="10.00">\getTo</text>
</a>
</g>
</g>
<!-- Node21&#45;&gt;Node24 -->
<g id="edge31_Node000021_Node000024" class="edge">
<title>Node21&#45;&gt;Node24</title>
<g id="a_edge31_Node000021_Node000024"><a xlink:title=" ">
<path fill="none" stroke="#63b8ff" d="M137.52,-103.23C153.24,-88.11 184.89,-59.21 215.75,-40.25 218.05,-38.84 220.44,-37.46 222.89,-36.13"/>
<polygon fill="#63b8ff" stroke="#63b8ff" points="224.47,-39.25 231.81,-31.61 221.3,-33.01 224.47,-39.25"/>
</a>
</g>
</g>
<!-- Node22&#45;&gt;Node15 -->
<g id="edge27_Node000022_Node000015" class="edge">
<title>Node22&#45;&gt;Node15</title>
<g id="a_edge27_Node000022_Node000015"><a xlink:title=" ">
<path fill="none" stroke="#63b8ff" d="M332.35,-113.25C340.17,-113.25 348.31,-113.25 356.44,-113.25"/>
<polygon fill="#63b8ff" stroke="#63b8ff" points="356.38,-116.75 366.38,-113.25 356.38,-109.75 356.38,-116.75"/>
</a>
</g>
</g>
<!-- Node23&#45;&gt;Node15 -->
<g id="edge29_Node000023_Node000015" class="edge">
<title>Node23&#45;&gt;Node15</title>
<g id="a_edge29_Node000023_Node000015"><a xlink:title=" ">
<path fill="none" stroke="#63b8ff" d="M326.5,-79.89C341.57,-84.46 358.2,-89.51 373.87,-94.27"/>
<polygon fill="#63b8ff" stroke="#63b8ff" points="372.5,-97.51 383.08,-97.07 374.53,-90.81 372.5,-97.51"/>
</a>
</g>
</g>
<!-- Node24&#45;&gt;Node15 -->
<g id="edge32_Node000024_Node000015" class="edge">
<title>Node24&#45;&gt;Node15</title>
<g id="a_edge32_Node000024_Node000015"><a xlink:title=" ">
<path fill="none" stroke="#63b8ff" d="M313.7,-30.89C320.01,-33.79 326.39,-36.96 332.25,-40.25 359.01,-55.27 387.4,-75.5 407.77,-90.85"/>
<polygon fill="#63b8ff" stroke="#63b8ff" points="405.53,-93.54 415.6,-96.82 409.77,-87.98 405.53,-93.54"/>
</a>
</g>
</g>
</g>
</svg>
