<?xml version="1.0" encoding="UTF-8" standalone="no"?>
<!DOCTYPE svg PUBLIC "-//W3C//DTD SVG 1.1//EN"
 "http://www.w3.org/Graphics/SVG/1.1/DTD/svg11.dtd">
<!-- Generated by graphviz version 10.0.1 (20240210.2158)
 -->
<!-- Title: getUnicityErrorMessage Pages: 1 -->
<!--zoomable 162 -->

<svg id="main" version="1.1" xmlns="http://www.w3.org/2000/svg" xmlns:xlink="http://www.w3.org/1999/xlink" xml:space="preserve" onload="init(evt)">
<style type="text/css"><![CDATA[
.node, .edge {opacity: 0.7;}
.node.selected, .edge.selected {opacity: 1;}
.edge:hover path { stroke: red; }
.edge:hover polygon { stroke: red; fill: red; }
]]></style>

<defs>
  <circle id="rim" cx="0" cy="0" r="7"/>
  <circle id="rim2" cx="0" cy="0" r="3.5"/>
  <g id="zoomPlus">
    <use xlink:href="#rim" fill="#404040"><set attributeName="fill" to="#808080" begin="zoomplus.mouseover" end="zoomplus.mouseout"/></use>
    <path d="M-4,0h8M0,-4v8" fill="none" stroke="white" stroke-width="1.5" pointer-events="none"/>
  </g>
  <g id="zoomMin">
    <use xlink:href="#rim" fill="#404040"><set attributeName="fill" to="#808080" begin="zoomminus.mouseover" end="zoomminus.mouseout"/></use>
    <path d="M-4,0h8" fill="none" stroke="white" stroke-width="1.5" pointer-events="none"/>
  </g>
  <g id="arrowUp" transform="translate(30 24)">
    <use xlink:href="#rim"/>
    <path pointer-events="none" fill="none" stroke="white" stroke-width="1.5" d="M0,-3.0v7 M-2.5,-0.5L0,-3.0L2.5,-0.5"/>
  </g>
  <g id="arrowRight" transform="rotate(90) translate(36 -43)">
    <use xlink:href="#rim"/>
    <path pointer-events="none" fill="none" stroke="white" stroke-width="1.5" d="M0,-3.0v7 M-2.5,-0.5L0,-3.0L2.5,-0.5"/>
  </g>
  <g id="arrowDown" transform="rotate(180) translate(-30 -48)">
    <use xlink:href="#rim"/>
    <path pointer-events="none" fill="none" stroke="white" stroke-width="1.5" d="M0,-3.0v7 M-2.5,-0.5L0,-3.0L2.5,-0.5"/>
  </g>
  <g id="arrowLeft" transform="rotate(270) translate(-36 17)">
    <use xlink:href="#rim"/>
    <path pointer-events="none" fill="none" stroke="white" stroke-width="1.5" d="M0,-3.0v7 M-2.5,-0.5L0,-3.0L2.5,-0.5"/>
  </g>
  <g id="resetDef">
    <use xlink:href="#rim2" fill="#404040"><set attributeName="fill" to="#808080" begin="reset.mouseover" end="reset.mouseout"/></use>
  </g>
</defs>
<script type="application/ecmascript">
var viewWidth = 575;
var viewHeight = 162;
var sectionId = 'dynsection-86';
</script>
<script type="application/ecmascript" xlink:href="svg.min.js"/>
<svg id="graph" class="graph">
<g id="viewport">
<title>getUnicityErrorMessage</title>
<!-- Node1 -->
<g id="Node000001" class="node">
<title>Node1</title>
<g id="a_Node000001"><a xlink:title=" ">
<polygon fill="#999999" stroke="#666666" points="121,-94.88 0,-94.88 0,-75.62 121,-75.62 121,-94.88"/>
<text text-anchor="middle" x="60.5" y="-81.38" font-family="Helvetica,sans-Serif" font-size="10.00">getUnicityErrorMessage</text>
</a>
</g>
</g>
<!-- Node2 -->
<g id="Node000002" class="node">
<title>Node2</title>
<g id="a_Node000002"><a xlink:href="class_common_d_b_t_m.html#ab51a31d365e0a095368688951e663e0d" target="_top" xlink:title=" ">
<polygon fill="white" stroke="#666666" points="253.62,-153.88 203.12,-153.88 203.12,-134.62 253.62,-134.62 253.62,-153.88"/>
<text text-anchor="middle" x="228.38" y="-140.38" font-family="Helvetica,sans-Serif" font-size="10.00">getField</text>
</a>
</g>
</g>
<!-- Node1&#45;&gt;Node2 -->
<g id="edge1_Node000001_Node000002" class="edge">
<title>Node1&#45;&gt;Node2</title>
<g id="a_edge1_Node000001_Node000002"><a xlink:title=" ">
<path fill="none" stroke="#63b8ff" d="M82.37,-95.33C101.48,-104.28 130.69,-117.3 157,-126.25 168.08,-130.02 180.37,-133.42 191.54,-136.22"/>
<polygon fill="#63b8ff" stroke="#63b8ff" points="190.66,-139.61 201.2,-138.57 192.31,-132.81 190.66,-139.61"/>
</a>
</g>
</g>
<!-- Node3 -->
<g id="Node000003" class="node">
<title>Node3</title>
<g id="a_Node000003"><a xlink:href="class_common_d_b_t_m.html#a4f5e1102317e08dfe620fb8f5c749d50" target="_top" xlink:title=" ">
<polygon fill="white" stroke="#666666" points="289.25,-116.88 167.5,-116.88 167.5,-97.62 289.25,-97.62 289.25,-116.88"/>
<text text-anchor="middle" x="228.38" y="-103.38" font-family="Helvetica,sans-Serif" font-size="10.00">getSearchOptionByField</text>
</a>
</g>
</g>
<!-- Node1&#45;&gt;Node3 -->
<g id="edge2_Node000001_Node000003" class="edge">
<title>Node1&#45;&gt;Node3</title>
<g id="a_edge2_Node000001_Node000003"><a xlink:title=" ">
<path fill="none" stroke="#63b8ff" d="M121.38,-93.19C132.52,-94.67 144.26,-96.23 155.71,-97.74"/>
<polygon fill="#63b8ff" stroke="#63b8ff" points="155.15,-101.2 165.52,-99.05 156.07,-94.26 155.15,-101.2"/>
</a>
</g>
</g>
<!-- Node6 -->
<g id="Node000006" class="node">
<title>Node6</title>
<g id="a_Node000006"><a xlink:href="db_8function_8php.html#abe1c2ad355ced4ad097f7ea9ebe46ef9" target="_top" xlink:title=" ">
<polygon fill="white" stroke="#666666" points="299.75,-79.5 157,-79.5 157,-49 299.75,-49 299.75,-79.5"/>
<text text-anchor="start" x="165" y="-66" font-family="Helvetica,sans-Serif" font-size="10.00">getTableNameForForeignKey</text>
<text text-anchor="middle" x="228.38" y="-54.75" font-family="Helvetica,sans-Serif" font-size="10.00">Field</text>
</a>
</g>
</g>
<!-- Node1&#45;&gt;Node6 -->
<g id="edge5_Node000001_Node000006" class="edge">
<title>Node1&#45;&gt;Node6</title>
<g id="a_edge5_Node000001_Node000006"><a xlink:title=" ">
<path fill="none" stroke="#63b8ff" d="M121.38,-77.67C129.14,-76.69 137.19,-75.67 145.23,-74.65"/>
<polygon fill="#63b8ff" stroke="#63b8ff" points="145.58,-78.13 155.06,-73.41 144.7,-71.19 145.58,-78.13"/>
</a>
</g>
</g>
<!-- Node7 -->
<g id="Node000007" class="node">
<title>Node7</title>
<g id="a_Node000007"><a xlink:href="class_common_d_b_t_m.html#af918f2c3ebc55a8451f320f28ec0ea71" target="_top" xlink:title=" ">
<polygon fill="white" stroke="#666666" points="293.38,-30.5 163.38,-30.5 163.38,0 293.38,0 293.38,-30.5"/>
<text text-anchor="start" x="171.38" y="-17" font-family="Helvetica,sans-Serif" font-size="10.00">getUnicityFieldsToDisplay</text>
<text text-anchor="middle" x="228.38" y="-5.75" font-family="Helvetica,sans-Serif" font-size="10.00">InErrorMessage</text>
</a>
</g>
</g>
<!-- Node1&#45;&gt;Node7 -->
<g id="edge6_Node000001_Node000007" class="edge">
<title>Node1&#45;&gt;Node7</title>
<g id="a_edge6_Node000001_Node000007"><a xlink:title=" ">
<path fill="none" stroke="#63b8ff" d="M81.36,-75.18C100.5,-65.65 130.39,-51.21 157,-40.25 161.38,-38.44 165.95,-36.64 170.56,-34.88"/>
<polygon fill="#63b8ff" stroke="#63b8ff" points="171.76,-38.17 179.9,-31.4 169.31,-31.62 171.76,-38.17"/>
</a>
</g>
</g>
<!-- Node4 -->
<g id="Node000004" class="node">
<title>Node4</title>
<g id="a_Node000004"><a xlink:href="class_common_d_b_t_m.html#a12ee3097fd313ebcac8e2185d5330ae4" target="_top" xlink:title=" ">
<polygon fill="white" stroke="#666666" points="414.75,-116.88 335.75,-116.88 335.75,-97.62 414.75,-97.62 414.75,-116.88"/>
<text text-anchor="middle" x="375.25" y="-103.38" font-family="Helvetica,sans-Serif" font-size="10.00">searchOptions</text>
</a>
</g>
</g>
<!-- Node3&#45;&gt;Node4 -->
<g id="edge3_Node000003_Node000004" class="edge">
<title>Node3&#45;&gt;Node4</title>
<g id="a_edge3_Node000003_Node000004"><a xlink:title=" ">
<path fill="none" stroke="#63b8ff" d="M289.56,-107.25C301.1,-107.25 313.06,-107.25 324.24,-107.25"/>
<polygon fill="#63b8ff" stroke="#63b8ff" points="324.04,-110.75 334.04,-107.25 324.04,-103.75 324.04,-110.75"/>
</a>
</g>
</g>
<!-- Node5 -->
<g id="Node000005" class="node">
<title>Node5</title>
<g id="a_Node000005"><a xlink:href="class_common_g_l_p_i.html#a3dadfbfaa3d8e3b5fe01a60e28640ddb" target="_top" xlink:title=" ">
<polygon fill="white" stroke="#666666" points="566.5,-116.88 450.75,-116.88 450.75,-97.62 566.5,-97.62 566.5,-116.88"/>
<text text-anchor="middle" x="508.62" y="-103.38" font-family="Helvetica,sans-Serif" font-size="10.00">CommonGLPI\getType</text>
</a>
</g>
</g>
<!-- Node4&#45;&gt;Node5 -->
<g id="edge4_Node000004_Node000005" class="edge">
<title>Node4&#45;&gt;Node5</title>
<g id="a_edge4_Node000004_Node000005"><a xlink:title=" ">
<path fill="none" stroke="#63b8ff" d="M414.96,-107.25C422.66,-107.25 430.96,-107.25 439.31,-107.25"/>
<polygon fill="#63b8ff" stroke="#63b8ff" points="439.18,-110.75 449.18,-107.25 439.18,-103.75 439.18,-110.75"/>
</a>
</g>
</g>
</g>
</svg>

<g id="navigator" transform="translate(0 0)" fill="#404254">
  <rect fill="#f2f5e9" fill-opacity="0.5" stroke="#606060" stroke-width=".5" x="0" y="0" width="60" height="60"/>
  <use id="zoomplus" xlink:href="#zoomPlus" x="17" y="9" onmousedown="handleZoom(evt,'in')"/>
  <use id="zoomminus" xlink:href="#zoomMin" x="42" y="9" onmousedown="handleZoom(evt,'out')"/>
  <use id="reset" xlink:href="#resetDef" x="30" y="36" onmousedown="handleReset()"/>
   <use id="arrowup" xlink:href="#arrowUp" x="0" y="0" onmousedown="handlePan(0,-1)"/>
  <use id="arrowright" xlink:href="#arrowRight" x="0" y="0" onmousedown="handlePan(1,0)"/>
  <use id="arrowdown" xlink:href="#arrowDown" x="0" y="0" onmousedown="handlePan(0,1)"/>
  <use id="arrowleft" xlink:href="#arrowLeft" x="0" y="0" onmousedown="handlePan(-1,0)"/>
</g>
<svg viewBox="0 0 15 15" width="100%" height="30px" preserveAspectRatio="xMaxYMin meet">
 <g id="arrow_out" transform="scale(0.3 0.3)">
  <a xlink:href="class_common_d_b_t_m_a69bac7de3589513775762e654183eb91_cgraph_org.svg" target="_base">
   <rect id="button" ry="5" rx="5" y="6" x="6" height="38" width="38"
        fill="#f2f5e9" fill-opacity="0.5" stroke="#606060" stroke-width="1.0"/>
   <path id="arrow"
     d="M 11.500037,31.436501 C 11.940474,20.09759 22.043105,11.32322 32.158766,21.979434 L 37.068811,17.246167 C 37.068811,17.246167 37.088388,32 37.088388,32 L 22.160133,31.978069 C 22.160133,31.978069 26.997745,27.140456 26.997745,27.140456 C 18.528582,18.264221 13.291696,25.230495 11.500037,31.436501 z"
     style="fill:#404040;"/>
  </a>
 </g>
</svg>

<style type='text/css'>
<![CDATA[
[data-mouse-over-selected='false'] { opacity: 0.7; }
[data-mouse-over-selected='true']  { opacity: 1.0; }
]]>
</style>
<script type="application/ecmascript"><![CDATA[
document.addEventListener('DOMContentLoaded', (event) => {
  highlightEdges();
  highlightAdjacentNodes();
});
]]></script>
</svg>
