<?xml version="1.0" encoding="UTF-8" standalone="no"?>
<!DOCTYPE svg PUBLIC "-//W3C//DTD SVG 1.1//EN"
 "http://www.w3.org/Graphics/SVG/1.1/DTD/svg11.dtd">
<!-- Generated by graphviz version 10.0.1 (20240210.2158)
 -->
<!-- Title: AbstractSet Pages: 1 -->
<!--zoomable 885 -->

<svg id="main" version="1.1" xmlns="http://www.w3.org/2000/svg" xmlns:xlink="http://www.w3.org/1999/xlink" xml:space="preserve" onload="init(evt)">
<style type="text/css"><![CDATA[
.node, .edge {opacity: 0.7;}
.node.selected, .edge.selected {opacity: 1;}
.edge:hover path { stroke: red; }
.edge:hover polygon { stroke: red; fill: red; }
]]></style>

<defs>
  <circle id="rim" cx="0" cy="0" r="7"/>
  <circle id="rim2" cx="0" cy="0" r="3.5"/>
  <g id="zoomPlus">
    <use xlink:href="#rim" fill="#404040"><set attributeName="fill" to="#808080" begin="zoomplus.mouseover" end="zoomplus.mouseout"/></use>
    <path d="M-4,0h8M0,-4v8" fill="none" stroke="white" stroke-width="1.5" pointer-events="none"/>
  </g>
  <g id="zoomMin">
    <use xlink:href="#rim" fill="#404040"><set attributeName="fill" to="#808080" begin="zoomminus.mouseover" end="zoomminus.mouseout"/></use>
    <path d="M-4,0h8" fill="none" stroke="white" stroke-width="1.5" pointer-events="none"/>
  </g>
  <g id="arrowUp" transform="translate(30 24)">
    <use xlink:href="#rim"/>
    <path pointer-events="none" fill="none" stroke="white" stroke-width="1.5" d="M0,-3.0v7 M-2.5,-0.5L0,-3.0L2.5,-0.5"/>
  </g>
  <g id="arrowRight" transform="rotate(90) translate(36 -43)">
    <use xlink:href="#rim"/>
    <path pointer-events="none" fill="none" stroke="white" stroke-width="1.5" d="M0,-3.0v7 M-2.5,-0.5L0,-3.0L2.5,-0.5"/>
  </g>
  <g id="arrowDown" transform="rotate(180) translate(-30 -48)">
    <use xlink:href="#rim"/>
    <path pointer-events="none" fill="none" stroke="white" stroke-width="1.5" d="M0,-3.0v7 M-2.5,-0.5L0,-3.0L2.5,-0.5"/>
  </g>
  <g id="arrowLeft" transform="rotate(270) translate(-36 17)">
    <use xlink:href="#rim"/>
    <path pointer-events="none" fill="none" stroke="white" stroke-width="1.5" d="M0,-3.0v7 M-2.5,-0.5L0,-3.0L2.5,-0.5"/>
  </g>
  <g id="resetDef">
    <use xlink:href="#rim2" fill="#404040"><set attributeName="fill" to="#808080" begin="reset.mouseover" end="reset.mouseout"/></use>
  </g>
</defs>
<script type="application/ecmascript">
var viewWidth = 388;
var viewHeight = 885;
var sectionId = 'dynsection-1';
</script>
<script type="application/ecmascript" xlink:href="svg.min.js"/>
<svg id="graph" class="graph">
<g id="viewport">
<title>AbstractSet</title>
<!-- Node1 -->
<g id="Node000001" class="node">
<title>Node1</title>
<g id="a_Node000001"><a xlink:title=" ">
<polygon fill="#999999" stroke="none" points="186.5,-75 93.5,-75 93.5,0 186.5,0 186.5,-75"/>
<text text-anchor="start" x="114.12" y="-61.5" font-family="Helvetica,sans-Serif" font-size="10.00">AbstractSet</text>
<text text-anchor="start" x="138.5" y="-46.5" font-family="Helvetica,sans-Serif" font-size="10.00"> </text>
<text text-anchor="start" x="97.5" y="-31.5" font-family="Helvetica,sans-Serif" font-size="10.00">+</text>
<text text-anchor="start" x="107.5" y="-31.5" font-family="Helvetica,sans-Serif" font-size="10.00">add($element)</text>
<text text-anchor="start" x="97.5" y="-16.5" font-family="Helvetica,sans-Serif" font-size="10.00">+</text>
<text text-anchor="start" x="107.5" y="-16.5" font-family="Helvetica,sans-Serif" font-size="10.00">offsetSet($offset,</text>
<text text-anchor="start" x="107.5" y="-5.25" font-family="Helvetica,sans-Serif" font-size="10.00"> $value)</text>
<polygon fill="#666666" stroke="#666666" points="93.5,-58 93.5,-58 186.5,-58 186.5,-58 93.5,-58"/>
<polygon fill="#666666" stroke="#666666" points="93.5,-43 93.5,-43 186.5,-43 186.5,-43 93.5,-43"/>
<polygon fill="none" stroke="#666666" points="93.5,0 93.5,-75 186.5,-75 186.5,0 93.5,0"/>
</a>
</g>
</g>
<!-- Node2 -->
<g id="Node000002" class="node">
<title>Node2</title>
<g id="a_Node000002"><a xlink:href="class_ramsey_1_1_collection_1_1_abstract_collection.html" target="_top" xlink:title=" ">
<polygon fill="white" stroke="none" points="204.5,-284 75.5,-284 75.5,-112 204.5,-112 204.5,-284"/>
<text text-anchor="start" x="99.88" y="-270.5" font-family="Helvetica,sans-Serif" font-size="10.00">AbstractCollection</text>
<text text-anchor="start" x="138.5" y="-255.5" font-family="Helvetica,sans-Serif" font-size="10.00"> </text>
<text text-anchor="start" x="79.5" y="-240.5" font-family="Helvetica,sans-Serif" font-size="10.00">+</text>
<text text-anchor="start" x="89.5" y="-240.5" font-family="Helvetica,sans-Serif" font-size="10.00">add($element)</text>
<text text-anchor="start" x="79.5" y="-225.5" font-family="Helvetica,sans-Serif" font-size="10.00">+</text>
<text text-anchor="start" x="89.5" y="-225.5" font-family="Helvetica,sans-Serif" font-size="10.00">contains($element,</text>
<text text-anchor="start" x="89.5" y="-214.25" font-family="Helvetica,sans-Serif" font-size="10.00"> bool $strict=true)</text>
<text text-anchor="start" x="79.5" y="-199.5" font-family="Helvetica,sans-Serif" font-size="10.00">+</text>
<text text-anchor="start" x="89.5" y="-199.5" font-family="Helvetica,sans-Serif" font-size="10.00">offsetSet($offset,</text>
<text text-anchor="start" x="89.5" y="-188.25" font-family="Helvetica,sans-Serif" font-size="10.00"> $value)</text>
<text text-anchor="start" x="79.5" y="-173.5" font-family="Helvetica,sans-Serif" font-size="10.00">+</text>
<text text-anchor="start" x="89.5" y="-173.5" font-family="Helvetica,sans-Serif" font-size="10.00">remove($element)</text>
<text text-anchor="start" x="79.5" y="-158.5" font-family="Helvetica,sans-Serif" font-size="10.00">+</text>
<text text-anchor="start" x="89.5" y="-158.5" font-family="Helvetica,sans-Serif" font-size="10.00">filter(callable $callback)</text>
<text text-anchor="start" x="79.5" y="-143.5" font-family="Helvetica,sans-Serif" font-size="10.00">+</text>
<text text-anchor="start" x="89.5" y="-143.5" font-family="Helvetica,sans-Serif" font-size="10.00">map(callable $callback)</text>
<text text-anchor="start" x="79.5" y="-128.5" font-family="Helvetica,sans-Serif" font-size="10.00">+</text>
<text text-anchor="start" x="89.5" y="-128.5" font-family="Helvetica,sans-Serif" font-size="10.00">merge(CollectionInterface</text>
<text text-anchor="start" x="89.5" y="-117.25" font-family="Helvetica,sans-Serif" font-size="10.00"> ... $collections)</text>
<polygon fill="#666666" stroke="#666666" points="75.5,-267 75.5,-267 204.5,-267 204.5,-267 75.5,-267"/>
<polygon fill="#666666" stroke="#666666" points="75.5,-252 75.5,-252 204.5,-252 204.5,-252 75.5,-252"/>
<polygon fill="none" stroke="#666666" points="75.5,-112 75.5,-284 204.5,-284 204.5,-112 75.5,-112"/>
</a>
</g>
</g>
<!-- Node2&#45;&gt;Node1 -->
<g id="edge1_Node000001_Node000002" class="edge">
<title>Node2&#45;&gt;Node1</title>
<g id="a_edge1_Node000001_Node000002"><a xlink:title=" ">
<path fill="none" stroke="#63b8ff" d="M133.39,-100.91C133.54,-91.76 133.81,-82.93 134.22,-74.93"/>
<polygon fill="none" stroke="#63b8ff" points="129.89,-100.63 133.28,-110.67 136.89,-100.71 129.89,-100.63"/>
</a>
</g>
</g>
<!-- Node2&#45;&gt;Node1 -->
<g id="edge17_Node000001_Node000002" class="edge">
<title>Node2&#45;&gt;Node1</title>
<g id="a_edge17_Node000001_Node000002"><a xlink:title=" ">
<path fill="none" stroke="#63b8ff" d="M146.61,-100.91C146.46,-91.76 146.19,-82.93 145.78,-74.93"/>
<polygon fill="none" stroke="#63b8ff" points="143.11,-100.71 146.72,-110.67 150.11,-100.63 143.11,-100.71"/>
</a>
</g>
</g>
<!-- Node3 -->
<g id="Node000003" class="node">
<title>Node3</title>
<g id="a_Node000003"><a xlink:href="class_ramsey_1_1_collection_1_1_abstract_array.html" target="_top" xlink:title=" ">
<polygon fill="white" stroke="none" points="264,-618 158,-618 158,-356 264,-356 264,-618"/>
<text text-anchor="start" x="181" y="-604.5" font-family="Helvetica,sans-Serif" font-size="10.00">AbstractArray</text>
<text text-anchor="start" x="162.38" y="-589.5" font-family="Helvetica,sans-Serif" font-size="10.00">#</text>
<text text-anchor="start" x="172" y="-589.5" font-family="Helvetica,sans-Serif" font-size="10.00">$data</text>
<text text-anchor="start" x="162" y="-574.5" font-family="Helvetica,sans-Serif" font-size="10.00">+</text>
<text text-anchor="start" x="172" y="-574.5" font-family="Helvetica,sans-Serif" font-size="10.00">__construct(array</text>
<text text-anchor="start" x="172" y="-563.25" font-family="Helvetica,sans-Serif" font-size="10.00"> $data=[])</text>
<text text-anchor="start" x="162" y="-548.5" font-family="Helvetica,sans-Serif" font-size="10.00">+</text>
<text text-anchor="start" x="172" y="-548.5" font-family="Helvetica,sans-Serif" font-size="10.00">getIterator()</text>
<text text-anchor="start" x="162" y="-533.5" font-family="Helvetica,sans-Serif" font-size="10.00">+</text>
<text text-anchor="start" x="172" y="-533.5" font-family="Helvetica,sans-Serif" font-size="10.00">offsetExists($offset)</text>
<text text-anchor="start" x="162" y="-518.5" font-family="Helvetica,sans-Serif" font-size="10.00">+</text>
<text text-anchor="start" x="172" y="-518.5" font-family="Helvetica,sans-Serif" font-size="10.00">offsetGet($offset)</text>
<text text-anchor="start" x="162" y="-503.5" font-family="Helvetica,sans-Serif" font-size="10.00">+</text>
<text text-anchor="start" x="172" y="-503.5" font-family="Helvetica,sans-Serif" font-size="10.00">offsetSet($offset,</text>
<text text-anchor="start" x="172" y="-492.25" font-family="Helvetica,sans-Serif" font-size="10.00"> $value)</text>
<text text-anchor="start" x="162" y="-477.5" font-family="Helvetica,sans-Serif" font-size="10.00">+</text>
<text text-anchor="start" x="172" y="-477.5" font-family="Helvetica,sans-Serif" font-size="10.00">offsetUnset($offset)</text>
<text text-anchor="start" x="162" y="-462.5" font-family="Helvetica,sans-Serif" font-size="10.00">+</text>
<text text-anchor="start" x="172" y="-462.5" font-family="Helvetica,sans-Serif" font-size="10.00">serialize()</text>
<text text-anchor="start" x="162" y="-447.5" font-family="Helvetica,sans-Serif" font-size="10.00">+</text>
<text text-anchor="start" x="172" y="-447.5" font-family="Helvetica,sans-Serif" font-size="10.00">__serialize()</text>
<text text-anchor="start" x="162" y="-432.5" font-family="Helvetica,sans-Serif" font-size="10.00">+</text>
<text text-anchor="start" x="172" y="-432.5" font-family="Helvetica,sans-Serif" font-size="10.00">__unserialize(array</text>
<text text-anchor="start" x="172" y="-421.25" font-family="Helvetica,sans-Serif" font-size="10.00"> $data)</text>
<text text-anchor="start" x="162" y="-406.5" font-family="Helvetica,sans-Serif" font-size="10.00">+</text>
<text text-anchor="start" x="172" y="-406.5" font-family="Helvetica,sans-Serif" font-size="10.00">count()</text>
<text text-anchor="start" x="162" y="-391.5" font-family="Helvetica,sans-Serif" font-size="10.00">+</text>
<text text-anchor="start" x="172" y="-391.5" font-family="Helvetica,sans-Serif" font-size="10.00">clear()</text>
<text text-anchor="start" x="162" y="-376.5" font-family="Helvetica,sans-Serif" font-size="10.00">+</text>
<text text-anchor="start" x="172" y="-376.5" font-family="Helvetica,sans-Serif" font-size="10.00">toArray()</text>
<text text-anchor="start" x="162" y="-361.5" font-family="Helvetica,sans-Serif" font-size="10.00">+</text>
<text text-anchor="start" x="172" y="-361.5" font-family="Helvetica,sans-Serif" font-size="10.00">isEmpty()</text>
<polygon fill="#666666" stroke="#666666" points="158,-601 158,-601 264,-601 264,-601 158,-601"/>
<polygon fill="#666666" stroke="#666666" points="158,-586 158,-586 170,-586 170,-586 158,-586"/>
<polygon fill="#666666" stroke="#666666" points="170,-586 170,-586 264,-586 264,-586 170,-586"/>
<polygon fill="none" stroke="#666666" points="158,-356 158,-618 264,-618 264,-356 158,-356"/>
</a>
</g>
</g>
<!-- Node3&#45;&gt;Node2 -->
<g id="edge2_Node000002_Node000003" class="edge">
<title>Node3&#45;&gt;Node2</title>
<g id="a_edge2_Node000002_Node000003"><a xlink:title=" ">
<path fill="none" stroke="#63b8ff" d="M169.46,-345.35C164.22,-324.26 159.16,-303.1 154.73,-283.67"/>
<polygon fill="none" stroke="#63b8ff" points="166.02,-346.03 171.84,-354.89 172.81,-344.34 166.02,-346.03"/>
</a>
</g>
</g>
<!-- Node3&#45;&gt;Node2 -->
<g id="edge15_Node000002_Node000003" class="edge">
<title>Node3&#45;&gt;Node2</title>
<g id="a_edge15_Node000002_Node000003"><a xlink:title=" ">
<path fill="none" stroke="#63b8ff" d="M182.95,-345.35C177.75,-324.26 172.34,-303.1 167.17,-283.67"/>
<polygon fill="none" stroke="#63b8ff" points="179.51,-346 185.29,-354.88 186.31,-344.34 179.51,-346"/>
</a>
</g>
</g>
<!-- Node4 -->
<g id="Node000004" class="node">
<title>Node4</title>
<g id="a_Node000004"><a xlink:href="interface_ramsey_1_1_collection_1_1_array_interface.html" target="_top" xlink:title=" ">
<polygon fill="white" stroke="none" points="222.5,-790.5 151.5,-790.5 151.5,-711.5 222.5,-711.5 222.5,-790.5"/>
<text text-anchor="start" x="156.25" y="-777" font-family="Helvetica,sans-Serif" font-size="10.00">ArrayInterface</text>
<text text-anchor="start" x="185.5" y="-762" font-family="Helvetica,sans-Serif" font-size="10.00"> </text>
<text text-anchor="start" x="158" y="-747" font-family="Helvetica,sans-Serif" font-size="10.00">+</text>
<text text-anchor="start" x="170.5" y="-747" font-family="Helvetica,sans-Serif" font-size="10.00">clear()</text>
<text text-anchor="start" x="158" y="-732" font-family="Helvetica,sans-Serif" font-size="10.00">+</text>
<text text-anchor="start" x="170.5" y="-732" font-family="Helvetica,sans-Serif" font-size="10.00">toArray()</text>
<text text-anchor="start" x="158" y="-717" font-family="Helvetica,sans-Serif" font-size="10.00">+</text>
<text text-anchor="start" x="170.5" y="-717" font-family="Helvetica,sans-Serif" font-size="10.00">isEmpty()</text>
<polygon fill="#666666" stroke="#666666" points="151.5,-773.5 151.5,-773.5 222.5,-773.5 222.5,-773.5 151.5,-773.5"/>
<polygon fill="#666666" stroke="#666666" points="151.5,-758.5 151.5,-758.5 222.5,-758.5 222.5,-758.5 151.5,-758.5"/>
<polygon fill="none" stroke="#666666" points="151.5,-711.5 151.5,-790.5 222.5,-790.5 222.5,-711.5 151.5,-711.5"/>
</a>
</g>
</g>
<!-- Node4&#45;&gt;Node3 -->
<g id="edge3_Node000003_Node000004" class="edge">
<title>Node4&#45;&gt;Node3</title>
<g id="a_edge3_Node000003_Node000004"><a xlink:title=" ">
<path fill="none" stroke="#63b8ff" d="M186.13,-700.19C187.4,-676.6 189.65,-647.22 192.35,-617.91"/>
<polygon fill="none" stroke="#63b8ff" points="182.64,-699.95 185.65,-710.11 189.63,-700.29 182.64,-699.95"/>
</a>
</g>
</g>
<!-- Node4&#45;&gt;Node3 -->
<g id="edge10_Node000003_Node000004" class="edge">
<title>Node4&#45;&gt;Node3</title>
<g id="a_edge10_Node000003_Node000004"><a xlink:title=" ">
<path fill="none" stroke="#63b8ff" d="M196.95,-700.51C200.02,-676.87 203.16,-647.35 205.85,-617.91"/>
<polygon fill="none" stroke="#63b8ff" points="193.52,-699.74 195.66,-710.12 200.46,-700.68 193.52,-699.74"/>
</a>
</g>
</g>
<!-- Node9 -->
<g id="Node000009" class="node">
<title>Node9</title>
<g id="a_Node000009"><a xlink:href="interface_ramsey_1_1_collection_1_1_collection_interface.html" target="_top" xlink:title=" ">
<polygon fill="white" stroke="none" points="140,-653 0,-653 0,-321 140,-321 140,-653"/>
<text text-anchor="start" x="29.12" y="-639.5" font-family="Helvetica,sans-Serif" font-size="10.00">CollectionInterface</text>
<text text-anchor="start" x="68.5" y="-624.5" font-family="Helvetica,sans-Serif" font-size="10.00"> </text>
<text text-anchor="start" x="4" y="-609.5" font-family="Helvetica,sans-Serif" font-size="10.00">+</text>
<text text-anchor="start" x="14" y="-609.5" font-family="Helvetica,sans-Serif" font-size="10.00">add($element)</text>
<text text-anchor="start" x="4" y="-594.5" font-family="Helvetica,sans-Serif" font-size="10.00">+</text>
<text text-anchor="start" x="14" y="-594.5" font-family="Helvetica,sans-Serif" font-size="10.00">contains($element,</text>
<text text-anchor="start" x="14" y="-583.25" font-family="Helvetica,sans-Serif" font-size="10.00"> bool $strict=true)</text>
<text text-anchor="start" x="4" y="-568.5" font-family="Helvetica,sans-Serif" font-size="10.00">+</text>
<text text-anchor="start" x="14" y="-568.5" font-family="Helvetica,sans-Serif" font-size="10.00">getType()</text>
<text text-anchor="start" x="4" y="-553.5" font-family="Helvetica,sans-Serif" font-size="10.00">+</text>
<text text-anchor="start" x="14" y="-553.5" font-family="Helvetica,sans-Serif" font-size="10.00">remove($element)</text>
<text text-anchor="start" x="4" y="-538.5" font-family="Helvetica,sans-Serif" font-size="10.00">+</text>
<text text-anchor="start" x="14" y="-538.5" font-family="Helvetica,sans-Serif" font-size="10.00">column(string $property</text>
<text text-anchor="start" x="14" y="-527.25" font-family="Helvetica,sans-Serif" font-size="10.00">OrMethod)</text>
<text text-anchor="start" x="4" y="-512.5" font-family="Helvetica,sans-Serif" font-size="10.00">+</text>
<text text-anchor="start" x="14" y="-512.5" font-family="Helvetica,sans-Serif" font-size="10.00">first()</text>
<text text-anchor="start" x="4" y="-497.5" font-family="Helvetica,sans-Serif" font-size="10.00">+</text>
<text text-anchor="start" x="14" y="-497.5" font-family="Helvetica,sans-Serif" font-size="10.00">last()</text>
<text text-anchor="start" x="4" y="-482.5" font-family="Helvetica,sans-Serif" font-size="10.00">+</text>
<text text-anchor="start" x="14" y="-482.5" font-family="Helvetica,sans-Serif" font-size="10.00">sort(string $propertyOr</text>
<text text-anchor="start" x="14" y="-471.25" font-family="Helvetica,sans-Serif" font-size="10.00">Method, string $order</text>
<text text-anchor="start" x="14" y="-460" font-family="Helvetica,sans-Serif" font-size="10.00">=self::SORT_ASC)</text>
<text text-anchor="start" x="4" y="-445.5" font-family="Helvetica,sans-Serif" font-size="10.00">+</text>
<text text-anchor="start" x="14" y="-445.5" font-family="Helvetica,sans-Serif" font-size="10.00">filter(callable $callback)</text>
<text text-anchor="start" x="4" y="-430.5" font-family="Helvetica,sans-Serif" font-size="10.00">+</text>
<text text-anchor="start" x="14" y="-430.5" font-family="Helvetica,sans-Serif" font-size="10.00">where(string $propertyOr</text>
<text text-anchor="start" x="14" y="-419.25" font-family="Helvetica,sans-Serif" font-size="10.00">Method, $value)</text>
<text text-anchor="start" x="4" y="-404.5" font-family="Helvetica,sans-Serif" font-size="10.00">+</text>
<text text-anchor="start" x="14" y="-404.5" font-family="Helvetica,sans-Serif" font-size="10.00">map(callable $callback)</text>
<text text-anchor="start" x="4" y="-389.5" font-family="Helvetica,sans-Serif" font-size="10.00">+</text>
<text text-anchor="start" x="14" y="-389.5" font-family="Helvetica,sans-Serif" font-size="10.00">diff(CollectionInterface</text>
<text text-anchor="start" x="14" y="-378.25" font-family="Helvetica,sans-Serif" font-size="10.00"> $other)</text>
<text text-anchor="start" x="4" y="-363.5" font-family="Helvetica,sans-Serif" font-size="10.00">+</text>
<text text-anchor="start" x="14" y="-363.5" font-family="Helvetica,sans-Serif" font-size="10.00">intersect(CollectionInterface</text>
<text text-anchor="start" x="14" y="-352.25" font-family="Helvetica,sans-Serif" font-size="10.00"> $other)</text>
<text text-anchor="start" x="4" y="-337.5" font-family="Helvetica,sans-Serif" font-size="10.00">+</text>
<text text-anchor="start" x="14" y="-337.5" font-family="Helvetica,sans-Serif" font-size="10.00">merge(CollectionInterface</text>
<text text-anchor="start" x="14" y="-326.25" font-family="Helvetica,sans-Serif" font-size="10.00"> ... $collections)</text>
<polygon fill="#666666" stroke="#666666" points="0,-636 0,-636 140,-636 140,-636 0,-636"/>
<polygon fill="#666666" stroke="#666666" points="0,-621 0,-621 140,-621 140,-621 0,-621"/>
<polygon fill="none" stroke="#666666" points="0,-321 0,-653 140,-653 140,-321 0,-321"/>
</a>
</g>
</g>
<!-- Node4&#45;&gt;Node9 -->
<g id="edge12_Node000009_Node000004" class="edge">
<title>Node4&#45;&gt;Node9</title>
<g id="a_edge12_Node000009_Node000004"><a xlink:title=" ">
<path fill="none" stroke="#63b8ff" d="M159.97,-701.52C152.96,-687.08 145.11,-670.37 137.05,-652.8"/>
<polygon fill="none" stroke="#63b8ff" points="156.71,-702.82 164.25,-710.26 163,-699.74 156.71,-702.82"/>
</a>
</g>
</g>
<!-- Node4&#45;&gt;Node9 -->
<g id="edge13_Node000009_Node000004" class="edge">
<title>Node4&#45;&gt;Node9</title>
<g id="a_edge13_Node000009_Node000004"><a xlink:title=" ">
<path fill="none" stroke="#63b8ff" d="M170.51,-700.97C162.09,-680.36 151.31,-655.22 139.94,-629.54"/>
<polygon fill="none" stroke="#63b8ff" points="167.25,-702.25 174.24,-710.22 173.74,-699.64 167.25,-702.25"/>
</a>
</g>
</g>
<!-- Node5 -->
<g id="Node000005" class="node">
<title>Node5</title>
<g id="a_Node000005"><a xlink:title=" ">
<polygon fill="white" stroke="none" points="126,-876.5 60,-876.5 60,-827.5 126,-827.5 126,-876.5"/>
<text text-anchor="start" x="64.88" y="-863" font-family="Helvetica,sans-Serif" font-size="10.00">ArrayAccess</text>
<text text-anchor="start" x="91.5" y="-848" font-family="Helvetica,sans-Serif" font-size="10.00"> </text>
<text text-anchor="start" x="91.5" y="-833" font-family="Helvetica,sans-Serif" font-size="10.00"> </text>
<polygon fill="#666666" stroke="#666666" points="60,-859.5 60,-859.5 126,-859.5 126,-859.5 60,-859.5"/>
<polygon fill="#666666" stroke="#666666" points="60,-844.5 60,-844.5 126,-844.5 126,-844.5 60,-844.5"/>
<polygon fill="none" stroke="#666666" points="60,-827.5 60,-876.5 126,-876.5 126,-827.5 60,-827.5"/>
</a>
</g>
</g>
<!-- Node5&#45;&gt;Node4 -->
<g id="edge4_Node000004_Node000005" class="edge">
<title>Node5&#45;&gt;Node4</title>
<g id="a_edge4_Node000004_Node000005"><a xlink:title=" ">
<path fill="none" stroke="#63b8ff" d="M116.78,-819.26C127.43,-807.46 140.14,-794.11 151.83,-782.42"/>
<polygon fill="none" stroke="#63b8ff" points="114.47,-816.61 110.44,-826.41 119.7,-821.25 114.47,-816.61"/>
</a>
</g>
</g>
<!-- Node5&#45;&gt;Node4 -->
<g id="edge6_Node000004_Node000005" class="edge">
<title>Node5&#45;&gt;Node4</title>
<g id="a_edge6_Node000004_Node000005"><a xlink:title=" ">
<path fill="none" stroke="#63b8ff" d="M129.08,-819.66C138.36,-810.37 148.22,-800.08 157.15,-790.38"/>
<polygon fill="none" stroke="#63b8ff" points="126.84,-816.95 122.19,-826.47 131.77,-821.93 126.84,-816.95"/>
</a>
</g>
</g>
<!-- Node6 -->
<g id="Node000006" class="node">
<title>Node6</title>
<g id="a_Node000006"><a xlink:title=" ">
<polygon fill="white" stroke="none" points="229.5,-876.5 144.5,-876.5 144.5,-827.5 229.5,-827.5 229.5,-876.5"/>
<text text-anchor="start" x="149.5" y="-863" font-family="Helvetica,sans-Serif" font-size="10.00">IteratorAggregate</text>
<text text-anchor="start" x="185.5" y="-848" font-family="Helvetica,sans-Serif" font-size="10.00"> </text>
<text text-anchor="start" x="185.5" y="-833" font-family="Helvetica,sans-Serif" font-size="10.00"> </text>
<polygon fill="#666666" stroke="#666666" points="144.5,-859.5 144.5,-859.5 229.5,-859.5 229.5,-859.5 144.5,-859.5"/>
<polygon fill="#666666" stroke="#666666" points="144.5,-844.5 144.5,-844.5 229.5,-844.5 229.5,-844.5 144.5,-844.5"/>
<polygon fill="none" stroke="#666666" points="144.5,-827.5 144.5,-876.5 229.5,-876.5 229.5,-827.5 144.5,-827.5"/>
</a>
</g>
</g>
<!-- Node6&#45;&gt;Node4 -->
<g id="edge5_Node000004_Node000006" class="edge">
<title>Node6&#45;&gt;Node4</title>
<g id="a_edge5_Node000004_Node000006"><a xlink:title=" ">
<path fill="none" stroke="#63b8ff" d="M180.52,-816.24C180.2,-807.88 180.16,-798.9 180.4,-790.38"/>
<polygon fill="none" stroke="#63b8ff" points="177.02,-816.24 181.07,-826.03 184.01,-815.85 177.02,-816.24"/>
</a>
</g>
</g>
<!-- Node6&#45;&gt;Node4 -->
<g id="edge8_Node000004_Node000006" class="edge">
<title>Node6&#45;&gt;Node4</title>
<g id="a_edge8_Node000004_Node000006"><a xlink:title=" ">
<path fill="none" stroke="#63b8ff" d="M193.48,-816.24C193.8,-807.88 193.84,-798.9 193.6,-790.38"/>
<polygon fill="none" stroke="#63b8ff" points="189.99,-815.85 192.93,-826.03 196.98,-816.24 189.99,-815.85"/>
</a>
</g>
</g>
<!-- Node7 -->
<g id="Node000007" class="node">
<title>Node7</title>
<g id="a_Node000007"><a xlink:title=" ">
<polygon fill="white" stroke="none" points="302,-876.5 248,-876.5 248,-827.5 302,-827.5 302,-876.5"/>
<text text-anchor="start" x="252.88" y="-863" font-family="Helvetica,sans-Serif" font-size="10.00">Countable</text>
<text text-anchor="start" x="273.5" y="-848" font-family="Helvetica,sans-Serif" font-size="10.00"> </text>
<text text-anchor="start" x="273.5" y="-833" font-family="Helvetica,sans-Serif" font-size="10.00"> </text>
<polygon fill="#666666" stroke="#666666" points="248,-859.5 248,-859.5 302,-859.5 302,-859.5 248,-859.5"/>
<polygon fill="#666666" stroke="#666666" points="248,-844.5 248,-844.5 302,-844.5 302,-844.5 248,-844.5"/>
<polygon fill="none" stroke="#666666" points="248,-827.5 248,-876.5 302,-876.5 302,-827.5 248,-827.5"/>
</a>
</g>
</g>
<!-- Node7&#45;&gt;Node4 -->
<g id="edge7_Node000004_Node000007" class="edge">
<title>Node7&#45;&gt;Node4</title>
<g id="a_edge7_Node000004_Node000007"><a xlink:title=" ">
<path fill="none" stroke="#63b8ff" d="M246.64,-819.1C238.51,-809.95 229.56,-799.88 221.12,-790.38"/>
<polygon fill="none" stroke="#63b8ff" points="243.88,-821.26 253.14,-826.41 249.11,-816.61 243.88,-821.26"/>
</a>
</g>
</g>
<!-- Node8 -->
<g id="Node000008" class="node">
<title>Node8</title>
<g id="a_Node000008"><a xlink:title=" ">
<polygon fill="white" stroke="none" points="380,-876.5 320,-876.5 320,-827.5 380,-827.5 380,-876.5"/>
<text text-anchor="start" x="324.88" y="-863" font-family="Helvetica,sans-Serif" font-size="10.00">Serializable</text>
<text text-anchor="start" x="348.5" y="-848" font-family="Helvetica,sans-Serif" font-size="10.00"> </text>
<text text-anchor="start" x="348.5" y="-833" font-family="Helvetica,sans-Serif" font-size="10.00"> </text>
<polygon fill="#666666" stroke="#666666" points="320,-859.5 320,-859.5 380,-859.5 380,-859.5 320,-859.5"/>
<polygon fill="#666666" stroke="#666666" points="320,-844.5 320,-844.5 380,-844.5 380,-844.5 320,-844.5"/>
<polygon fill="none" stroke="#666666" points="320,-827.5 320,-876.5 380,-876.5 380,-827.5 320,-827.5"/>
</a>
</g>
</g>
<!-- Node8&#45;&gt;Node4 -->
<g id="edge9_Node000004_Node000008" class="edge">
<title>Node8&#45;&gt;Node4</title>
<g id="a_edge9_Node000004_Node000008"><a xlink:title=" ">
<path fill="none" stroke="#63b8ff" d="M310.61,-827.08C283.71,-810.74 248.38,-789.28 222.38,-773.49"/>
<polygon fill="none" stroke="#63b8ff" points="308.45,-829.86 318.81,-832.06 312.08,-823.87 308.45,-829.86"/>
</a>
</g>
</g>
<!-- Node9&#45;&gt;Node2 -->
<g id="edge11_Node000002_Node000009" class="edge">
<title>Node9&#45;&gt;Node2</title>
<g id="a_edge11_Node000002_Node000009"><a xlink:title=" ">
<path fill="none" stroke="#63b8ff" d="M106.32,-310.04C108.61,-301.01 110.9,-292.17 113.13,-283.66"/>
<polygon fill="none" stroke="#63b8ff" points="102.95,-309.11 103.9,-319.66 109.74,-310.82 102.95,-309.11"/>
</a>
</g>
</g>
<!-- Node9&#45;&gt;Node2 -->
<g id="edge16_Node000002_Node000009" class="edge">
<title>Node9&#45;&gt;Node2</title>
<g id="a_edge16_Node000002_Node000009"><a xlink:title=" ">
<path fill="none" stroke="#63b8ff" d="M119.51,-310.04C121.62,-301.01 123.66,-292.17 125.57,-283.66"/>
<polygon fill="none" stroke="#63b8ff" points="116.13,-309.12 117.24,-319.66 122.95,-310.73 116.13,-309.12"/>
</a>
</g>
</g>
<!-- Node10 -->
<g id="Node000010" class="node">
<title>Node10</title>
<g id="a_Node000010"><a xlink:title=" ">
<polygon fill="white" stroke="none" points="87,-775.5 53,-775.5 53,-726.5 87,-726.5 87,-775.5"/>
<text text-anchor="start" x="58" y="-762" font-family="Helvetica,sans-Serif" font-size="10.00">const</text>
<text text-anchor="start" x="68.5" y="-747" font-family="Helvetica,sans-Serif" font-size="10.00"> </text>
<text text-anchor="start" x="68.5" y="-732" font-family="Helvetica,sans-Serif" font-size="10.00"> </text>
<polygon fill="#666666" stroke="#666666" points="53,-758.5 53,-758.5 87,-758.5 87,-758.5 53,-758.5"/>
<polygon fill="#666666" stroke="#666666" points="53,-743.5 53,-743.5 87,-743.5 87,-743.5 53,-743.5"/>
<polygon fill="none" stroke="#666666" points="53,-726.5 53,-775.5 87,-775.5 87,-726.5 53,-726.5"/>
</a>
</g>
</g>
<!-- Node10&#45;&gt;Node9 -->
<g id="edge14_Node000009_Node000010" class="edge">
<title>Node10&#45;&gt;Node9</title>
<g id="a_edge14_Node000009_Node000010"><a xlink:title=" ">
<path fill="none" stroke="#63b8ff" d="M70,-726.75C70,-711.39 70,-689.7 70,-665.58"/>
<polygon fill="none" stroke="#63b8ff" points="70,-665.67 66,-659.67 70,-653.67 74,-659.67 70,-665.67"/>
</a>
</g>
<text text-anchor="middle" x="103.75" y="-684" font-family="Helvetica,sans-Serif" font-size="10.00" fill="grey"> +SORT_ASC</text>
<text text-anchor="middle" x="103.75" y="-672.75" font-family="Helvetica,sans-Serif" font-size="10.00" fill="grey">+SORT_DESC</text>
</g>
</g>
</svg>

<g id="navigator" transform="translate(0 0)" fill="#404254">
  <rect fill="#f2f5e9" fill-opacity="0.5" stroke="#606060" stroke-width=".5" x="0" y="0" width="60" height="60"/>
  <use id="zoomplus" xlink:href="#zoomPlus" x="17" y="9" onmousedown="handleZoom(evt,'in')"/>
  <use id="zoomminus" xlink:href="#zoomMin" x="42" y="9" onmousedown="handleZoom(evt,'out')"/>
  <use id="reset" xlink:href="#resetDef" x="30" y="36" onmousedown="handleReset()"/>
   <use id="arrowup" xlink:href="#arrowUp" x="0" y="0" onmousedown="handlePan(0,-1)"/>
  <use id="arrowright" xlink:href="#arrowRight" x="0" y="0" onmousedown="handlePan(1,0)"/>
  <use id="arrowdown" xlink:href="#arrowDown" x="0" y="0" onmousedown="handlePan(0,1)"/>
  <use id="arrowleft" xlink:href="#arrowLeft" x="0" y="0" onmousedown="handlePan(-1,0)"/>
</g>
<svg viewBox="0 0 15 15" width="100%" height="30px" preserveAspectRatio="xMaxYMin meet">
 <g id="arrow_out" transform="scale(0.3 0.3)">
  <a xlink:href="class_ramsey_1_1_collection_1_1_abstract_set__coll__graph_org.svg" target="_base">
   <rect id="button" ry="5" rx="5" y="6" x="6" height="38" width="38"
        fill="#f2f5e9" fill-opacity="0.5" stroke="#606060" stroke-width="1.0"/>
   <path id="arrow"
     d="M 11.500037,31.436501 C 11.940474,20.09759 22.043105,11.32322 32.158766,21.979434 L 37.068811,17.246167 C 37.068811,17.246167 37.088388,32 37.088388,32 L 22.160133,31.978069 C 22.160133,31.978069 26.997745,27.140456 26.997745,27.140456 C 18.528582,18.264221 13.291696,25.230495 11.500037,31.436501 z"
     style="fill:#404040;"/>
  </a>
 </g>
</svg>

<style type='text/css'>
<![CDATA[
[data-mouse-over-selected='false'] { opacity: 0.7; }
[data-mouse-over-selected='true']  { opacity: 1.0; }
]]>
</style>
<script type="application/ecmascript"><![CDATA[
document.addEventListener('DOMContentLoaded', (event) => {
  highlightEdges();
  highlightAdjacentNodes();
});
]]></script>
</svg>
