<?xml version="1.0" encoding="UTF-8" standalone="no"?>
<!DOCTYPE svg PUBLIC "-//W3C//DTD SVG 1.1//EN"
 "http://www.w3.org/Graphics/SVG/1.1/DTD/svg11.dtd">
<!-- Generated by graphviz version 10.0.1 (20240210.2158)
 -->
<!-- Title: showFormAdvancedConfig Pages: 1 -->
<svg width="300pt" height="64pt"
 viewBox="0.00 0.00 299.50 64.25" xmlns="http://www.w3.org/2000/svg" xmlns:xlink="http://www.w3.org/1999/xlink">
<g id="graph0" class="graph" transform="scale(1 1) rotate(0) translate(4 60.25)">
<title>showFormAdvancedConfig</title>
<!-- Node1 -->
<g id="Node000001" class="node">
<title>Node1</title>
<g id="a_Node000001"><a xlink:title=" ">
<polygon fill="#999999" stroke="#666666" points="133.75,-37.25 0,-37.25 0,-18 133.75,-18 133.75,-37.25"/>
<text text-anchor="middle" x="66.88" y="-23.75" font-family="Helvetica,sans-Serif" font-size="10.00">showFormAdvancedConfig</text>
</a>
</g>
</g>
<!-- Node2 -->
<g id="Node000002" class="node">
<title>Node2</title>
<g id="a_Node000002"><a xlink:href="autoload_8function_8php.html#a00370b448958fc4d545e649de32d26fa" target="_top" xlink:title=" ">
<polygon fill="white" stroke="#666666" points="246.5,-56.25 214.75,-56.25 214.75,-37 246.5,-37 246.5,-56.25"/>
<text text-anchor="middle" x="230.62" y="-42.75" font-family="Helvetica,sans-Serif" font-size="10.00">__s</text>
</a>
</g>
</g>
<!-- Node1&#45;&gt;Node2 -->
<g id="edge1_Node000001_Node000002" class="edge">
<title>Node1&#45;&gt;Node2</title>
<g id="a_edge1_Node000001_Node000002"><a xlink:title=" ">
<path fill="none" stroke="#63b8ff" d="M134.13,-35.41C158.32,-38.25 184.32,-41.3 203.07,-43.51"/>
<polygon fill="#63b8ff" stroke="#63b8ff" points="202.41,-46.95 212.75,-44.64 203.23,-40 202.41,-46.95"/>
</a>
</g>
</g>
<!-- Node3 -->
<g id="Node000003" class="node">
<title>Node3</title>
<g id="a_Node000003"><a xlink:href="class_common_d_b_t_m.html#ab51a31d365e0a095368688951e663e0d" target="_top" xlink:title=" ">
<polygon fill="white" stroke="#666666" points="291.5,-19.25 169.75,-19.25 169.75,0 291.5,0 291.5,-19.25"/>
<text text-anchor="middle" x="230.62" y="-5.75" font-family="Helvetica,sans-Serif" font-size="10.00">CommonDBTM\getField</text>
</a>
</g>
</g>
<!-- Node1&#45;&gt;Node3 -->
<g id="edge2_Node000001_Node000003" class="edge">
<title>Node1&#45;&gt;Node3</title>
<g id="a_edge2_Node000001_Node000003"><a xlink:title=" ">
<path fill="none" stroke="#63b8ff" d="M134.13,-20.25C142.08,-19.37 150.22,-18.46 158.23,-17.57"/>
<polygon fill="#63b8ff" stroke="#63b8ff" points="158.39,-21.07 167.94,-16.49 157.62,-14.12 158.39,-21.07"/>
</a>
</g>
</g>
</g>
</svg>
