<?xml version="1.0" encoding="UTF-8" standalone="no"?>
<!DOCTYPE svg PUBLIC "-//W3C//DTD SVG 1.1//EN"
 "http://www.w3.org/Graphics/SVG/1.1/DTD/svg11.dtd">
<!-- Generated by graphviz version 10.0.1 (20240210.2158)
 -->
<!-- Title: advance Pages: 1 -->
<svg width="272pt" height="27pt"
 viewBox="0.00 0.00 272.00 27.25" xmlns="http://www.w3.org/2000/svg" xmlns:xlink="http://www.w3.org/1999/xlink">
<g id="graph0" class="graph" transform="scale(1 1) rotate(0) translate(4 23.25)">
<title>advance</title>
<!-- Node1 -->
<g id="Node000001" class="node">
<title>Node1</title>
<g id="a_Node000001"><a xlink:title=" ">
<polygon fill="#999999" stroke="#666666" points="52.75,-19.25 0,-19.25 0,0 52.75,0 52.75,-19.25"/>
<text text-anchor="middle" x="26.38" y="-5.75" font-family="Helvetica,sans-Serif" font-size="10.00">advance</text>
</a>
</g>
</g>
<!-- Node2 -->
<g id="Node000002" class="node">
<title>Node2</title>
<g id="a_Node000002"><a xlink:href="class_laminas_1_1_i18n_1_1_translator_1_1_plural_1_1_parser.html#a7619eef85cb7cdac49cc330a05cb5b62" target="_top" xlink:title=" ">
<polygon fill="white" stroke="#666666" points="165.5,-19.25 88.75,-19.25 88.75,0 165.5,0 165.5,-19.25"/>
<text text-anchor="middle" x="127.12" y="-5.75" font-family="Helvetica,sans-Serif" font-size="10.00">getNextToken</text>
</a>
</g>
</g>
<!-- Node1&#45;&gt;Node2 -->
<g id="edge1_Node000001_Node000002" class="edge">
<title>Node1&#45;&gt;Node2</title>
<g id="a_edge1_Node000001_Node000002"><a xlink:title=" ">
<path fill="none" stroke="#63b8ff" d="M53.06,-9.62C60.36,-9.62 68.57,-9.62 76.78,-9.62"/>
<polygon fill="#63b8ff" stroke="#63b8ff" points="76.77,-13.13 86.77,-9.63 76.77,-6.13 76.77,-13.13"/>
</a>
</g>
</g>
<!-- Node3 -->
<g id="Node000003" class="node">
<title>Node3</title>
<g id="a_Node000003"><a xlink:href="class_laminas_1_1_i18n_1_1_translator_1_1_plural_1_1_parser.html#a5bb81e4b5a83ae975016914ced9daaba" target="_top" xlink:title=" ">
<polygon fill="white" stroke="#666666" points="264,-19.25 201.5,-19.25 201.5,0 264,0 264,-19.25"/>
<text text-anchor="middle" x="232.75" y="-5.75" font-family="Helvetica,sans-Serif" font-size="10.00">getSymbol</text>
</a>
</g>
</g>
<!-- Node2&#45;&gt;Node3 -->
<g id="edge2_Node000002_Node000003" class="edge">
<title>Node2&#45;&gt;Node3</title>
<g id="a_edge2_Node000002_Node000003"><a xlink:title=" ">
<path fill="none" stroke="#63b8ff" d="M165.83,-9.62C173.61,-9.62 181.84,-9.62 189.76,-9.62"/>
<polygon fill="#63b8ff" stroke="#63b8ff" points="189.53,-13.13 199.53,-9.63 189.53,-6.13 189.53,-13.13"/>
</a>
</g>
</g>
</g>
</svg>
