<?xml version="1.0" encoding="UTF-8" standalone="no"?>
<!DOCTYPE svg PUBLIC "-//W3C//DTD SVG 1.1//EN"
 "http://www.w3.org/Graphics/SVG/1.1/DTD/svg11.dtd">
<!-- Generated by graphviz version 10.0.1 (20240210.2158)
 -->
<!-- Title: pharFileToModuleName Pages: 1 -->
<svg width="360pt" height="27pt"
 viewBox="0.00 0.00 359.75 27.25" xmlns="http://www.w3.org/2000/svg" xmlns:xlink="http://www.w3.org/1999/xlink">
<g id="graph0" class="graph" transform="scale(1 1) rotate(0) translate(4 23.25)">
<title>pharFileToModuleName</title>
<!-- Node1 -->
<g id="Node000001" class="node">
<title>Node1</title>
<g id="a_Node000001"><a xlink:title=" ">
<polygon fill="#999999" stroke="#666666" points="351.75,-19.25 233,-19.25 233,0 351.75,0 351.75,-19.25"/>
<text text-anchor="middle" x="292.38" y="-5.75" font-family="Helvetica,sans-Serif" font-size="10.00">pharFileToModuleName</text>
</a>
</g>
</g>
<!-- Node2 -->
<g id="Node000002" class="node">
<title>Node2</title>
<g id="a_Node000002"><a xlink:href="class_laminas_1_1_loader_1_1_module_autoloader.html#a19eb2bbacf67710ade9d37cdabe476a7" target="_top" xlink:title=" ">
<polygon fill="white" stroke="#666666" points="197,-19.25 88.75,-19.25 88.75,0 197,0 197,-19.25"/>
<text text-anchor="middle" x="142.88" y="-5.75" font-family="Helvetica,sans-Serif" font-size="10.00">loadModuleFromPhar</text>
</a>
</g>
</g>
<!-- Node1&#45;&gt;Node2 -->
<g id="edge1_Node000001_Node000002" class="edge">
<title>Node1&#45;&gt;Node2</title>
<g id="a_edge1_Node000001_Node000002"><a xlink:title=" ">
<path fill="none" stroke="#63b8ff" d="M221.26,-9.62C213.15,-9.62 204.97,-9.62 197.13,-9.62"/>
<polygon fill="#63b8ff" stroke="#63b8ff" points="221.14,-13.13 231.14,-9.63 221.14,-6.13 221.14,-13.13"/>
</a>
</g>
</g>
<!-- Node3 -->
<g id="Node000003" class="node">
<title>Node3</title>
<g id="a_Node000003"><a xlink:href="class_laminas_1_1_loader_1_1_module_autoloader.html#aad6cfb5484c7eda55731134910c7a280" target="_top" xlink:title=" ">
<polygon fill="white" stroke="#666666" points="52.75,-19.25 0,-19.25 0,0 52.75,0 52.75,-19.25"/>
<text text-anchor="middle" x="26.38" y="-5.75" font-family="Helvetica,sans-Serif" font-size="10.00">autoload</text>
</a>
</g>
</g>
<!-- Node2&#45;&gt;Node3 -->
<g id="edge2_Node000002_Node000003" class="edge">
<title>Node2&#45;&gt;Node3</title>
<g id="a_edge2_Node000002_Node000003"><a xlink:title=" ">
<path fill="none" stroke="#63b8ff" d="M76.86,-9.62C68.51,-9.62 60.38,-9.62 53.21,-9.62"/>
<polygon fill="#63b8ff" stroke="#63b8ff" points="76.8,-13.13 86.8,-9.63 76.8,-6.13 76.8,-13.13"/>
</a>
</g>
</g>
</g>
</svg>
