<?xml version="1.0" encoding="UTF-8" standalone="no"?>
<!DOCTYPE svg PUBLIC "-//W3C//DTD SVG 1.1//EN"
 "http://www.w3.org/Graphics/SVG/1.1/DTD/svg11.dtd">
<!-- Generated by graphviz version 10.0.1 (20240210.2158)
 -->
<!-- Title: JsonFormatter Pages: 1 -->
<svg width="470pt" height="1139pt"
 viewBox="0.00 0.00 470.00 1139.00" xmlns="http://www.w3.org/2000/svg" xmlns:xlink="http://www.w3.org/1999/xlink">
<g id="graph0" class="graph" transform="scale(1 1) rotate(0) translate(4 1135)">
<title>JsonFormatter</title>
<!-- Node1 -->
<g id="Node000001" class="node">
<title>Node1</title>
<g id="a_Node000001"><a xlink:title=" ">
<polygon fill="#999999" stroke="none" points="343,-548 153,-548 153,-167 343,-167 343,-548"/>
<text text-anchor="start" x="216.5" y="-534.5" font-family="Helvetica,sans-Serif" font-size="10.00">JsonFormatter</text>
<text text-anchor="start" x="157" y="-519.5" font-family="Helvetica,sans-Serif" font-size="10.00">+</text>
<text text-anchor="start" x="167" y="-519.5" font-family="Helvetica,sans-Serif" font-size="10.00">const BATCH_MODE_JSON</text>
<text text-anchor="start" x="157" y="-504.5" font-family="Helvetica,sans-Serif" font-size="10.00">+</text>
<text text-anchor="start" x="167" y="-504.5" font-family="Helvetica,sans-Serif" font-size="10.00">const BATCH_MODE_NEWLINES</text>
<text text-anchor="start" x="157.38" y="-489.5" font-family="Helvetica,sans-Serif" font-size="10.00">#</text>
<text text-anchor="start" x="167" y="-489.5" font-family="Helvetica,sans-Serif" font-size="10.00">$batchMode</text>
<text text-anchor="start" x="157.38" y="-474.5" font-family="Helvetica,sans-Serif" font-size="10.00">#</text>
<text text-anchor="start" x="167" y="-474.5" font-family="Helvetica,sans-Serif" font-size="10.00">$appendNewline</text>
<text text-anchor="start" x="157.38" y="-459.5" font-family="Helvetica,sans-Serif" font-size="10.00">#</text>
<text text-anchor="start" x="167" y="-459.5" font-family="Helvetica,sans-Serif" font-size="10.00">$ignoreEmptyContextAndExtra</text>
<text text-anchor="start" x="157.38" y="-444.5" font-family="Helvetica,sans-Serif" font-size="10.00">#</text>
<text text-anchor="start" x="167" y="-444.5" font-family="Helvetica,sans-Serif" font-size="10.00">$includeStacktraces</text>
<text text-anchor="start" x="157" y="-429.5" font-family="Helvetica,sans-Serif" font-size="10.00">+</text>
<text text-anchor="start" x="167" y="-429.5" font-family="Helvetica,sans-Serif" font-size="10.00">__construct(int $batchMode</text>
<text text-anchor="start" x="167" y="-418.25" font-family="Helvetica,sans-Serif" font-size="10.00">=self::BATCH_MODE_JSON,</text>
<text text-anchor="start" x="167" y="-407" font-family="Helvetica,sans-Serif" font-size="10.00"> bool $appendNewline=true,</text>
<text text-anchor="start" x="167" y="-395.75" font-family="Helvetica,sans-Serif" font-size="10.00"> bool $ignoreEmptyContextAndExtra</text>
<text text-anchor="start" x="167" y="-384.5" font-family="Helvetica,sans-Serif" font-size="10.00">=false, bool $includeStacktraces=false)</text>
<text text-anchor="start" x="157" y="-369.5" font-family="Helvetica,sans-Serif" font-size="10.00">+</text>
<text text-anchor="start" x="167" y="-369.5" font-family="Helvetica,sans-Serif" font-size="10.00">getBatchMode()</text>
<text text-anchor="start" x="157" y="-354.5" font-family="Helvetica,sans-Serif" font-size="10.00">+</text>
<text text-anchor="start" x="167" y="-354.5" font-family="Helvetica,sans-Serif" font-size="10.00">isAppendingNewlines()</text>
<text text-anchor="start" x="157" y="-339.5" font-family="Helvetica,sans-Serif" font-size="10.00">+</text>
<text text-anchor="start" x="167" y="-339.5" font-family="Helvetica,sans-Serif" font-size="10.00">format(array $record)</text>
<text text-anchor="start" x="157" y="-324.5" font-family="Helvetica,sans-Serif" font-size="10.00">+</text>
<text text-anchor="start" x="167" y="-324.5" font-family="Helvetica,sans-Serif" font-size="10.00">formatBatch(array</text>
<text text-anchor="start" x="167" y="-313.25" font-family="Helvetica,sans-Serif" font-size="10.00"> $records)</text>
<text text-anchor="start" x="157" y="-298.5" font-family="Helvetica,sans-Serif" font-size="10.00">+</text>
<text text-anchor="start" x="167" y="-298.5" font-family="Helvetica,sans-Serif" font-size="10.00">includeStacktraces</text>
<text text-anchor="start" x="167" y="-287.25" font-family="Helvetica,sans-Serif" font-size="10.00">(bool $include=true)</text>
<text text-anchor="start" x="157.38" y="-272.5" font-family="Helvetica,sans-Serif" font-size="10.00">#</text>
<text text-anchor="start" x="167" y="-272.5" font-family="Helvetica,sans-Serif" font-size="10.00">formatBatchJson(array</text>
<text text-anchor="start" x="167" y="-261.25" font-family="Helvetica,sans-Serif" font-size="10.00"> $records)</text>
<text text-anchor="start" x="157.38" y="-246.5" font-family="Helvetica,sans-Serif" font-size="10.00">#</text>
<text text-anchor="start" x="167" y="-246.5" font-family="Helvetica,sans-Serif" font-size="10.00">formatBatchNewlines</text>
<text text-anchor="start" x="167" y="-235.25" font-family="Helvetica,sans-Serif" font-size="10.00">(array $records)</text>
<text text-anchor="start" x="157.38" y="-220.5" font-family="Helvetica,sans-Serif" font-size="10.00">#</text>
<text text-anchor="start" x="167" y="-220.5" font-family="Helvetica,sans-Serif" font-size="10.00">normalize($data, int</text>
<text text-anchor="start" x="167" y="-209.25" font-family="Helvetica,sans-Serif" font-size="10.00"> $depth=0)</text>
<text text-anchor="start" x="157.38" y="-194.5" font-family="Helvetica,sans-Serif" font-size="10.00">#</text>
<text text-anchor="start" x="167" y="-194.5" font-family="Helvetica,sans-Serif" font-size="10.00">normalizeException</text>
<text text-anchor="start" x="167" y="-183.25" font-family="Helvetica,sans-Serif" font-size="10.00">(Throwable $e, int </text>
<text text-anchor="start" x="167" y="-172" font-family="Helvetica,sans-Serif" font-size="10.00">$depth=0)</text>
<polygon fill="#666666" stroke="#666666" points="153,-531 153,-531 343,-531 343,-531 153,-531"/>
<polygon fill="#666666" stroke="#666666" points="153,-441 153,-441 165,-441 165,-441 153,-441"/>
<polygon fill="#666666" stroke="#666666" points="165,-441 165,-441 343,-441 343,-441 165,-441"/>
<polygon fill="none" stroke="#666666" points="153,-167 153,-548 343,-548 343,-167 153,-167"/>
</a>
</g>
</g>
<!-- Node4 -->
<g id="Node000004" class="node">
<title>Node4</title>
<g id="a_Node000004"><a xlink:href="class_monolog_1_1_formatter_1_1_google_cloud_logging_formatter.html" target="_top" xlink:title=" ">
<polygon fill="white" stroke="none" points="142,-90 0,-90 0,-41 142,-41 142,-90"/>
<text text-anchor="start" x="5" y="-76.5" font-family="Helvetica,sans-Serif" font-size="10.00">GoogleCloudLoggingFormatter</text>
<text text-anchor="start" x="69.5" y="-61.5" font-family="Helvetica,sans-Serif" font-size="10.00"> </text>
<text text-anchor="start" x="12.5" y="-46.5" font-family="Helvetica,sans-Serif" font-size="10.00">+</text>
<text text-anchor="start" x="31" y="-46.5" font-family="Helvetica,sans-Serif" font-size="10.00">format(array $record)</text>
<polygon fill="#666666" stroke="#666666" points="0,-73 0,-73 142,-73 142,-73 0,-73"/>
<polygon fill="#666666" stroke="#666666" points="0,-58 0,-58 142,-58 142,-58 0,-58"/>
<polygon fill="none" stroke="#666666" points="0,-41 0,-90 142,-90 142,-41 0,-41"/>
</a>
</g>
</g>
<!-- Node1&#45;&gt;Node4 -->
<g id="edge3_Node000001_Node000004" class="edge">
<title>Node1&#45;&gt;Node4</title>
<g id="a_edge3_Node000001_Node000004"><a xlink:title=" ">
<path fill="none" stroke="#63b8ff" d="M147.12,-191.22C122.68,-151.18 99.52,-113.23 85.31,-89.94"/>
<polygon fill="none" stroke="#63b8ff" points="144.04,-192.88 152.23,-199.6 150.01,-189.24 144.04,-192.88"/>
</a>
</g>
</g>
<!-- Node5 -->
<g id="Node000005" class="node">
<title>Node5</title>
<g id="a_Node000005"><a xlink:href="class_monolog_1_1_formatter_1_1_loggly_formatter.html" target="_top" xlink:title=" ">
<polygon fill="white" stroke="none" points="336,-108.5 160,-108.5 160,-22.5 336,-22.5 336,-108.5"/>
<text text-anchor="start" x="212.75" y="-95" font-family="Helvetica,sans-Serif" font-size="10.00">LogglyFormatter</text>
<text text-anchor="start" x="246.5" y="-80" font-family="Helvetica,sans-Serif" font-size="10.00"> </text>
<text text-anchor="start" x="164" y="-65" font-family="Helvetica,sans-Serif" font-size="10.00">+</text>
<text text-anchor="start" x="174" y="-65" font-family="Helvetica,sans-Serif" font-size="10.00">__construct(int $batchMode</text>
<text text-anchor="start" x="174" y="-53.75" font-family="Helvetica,sans-Serif" font-size="10.00">=self::BATCH_MODE_NEWLINES,</text>
<text text-anchor="start" x="174" y="-42.5" font-family="Helvetica,sans-Serif" font-size="10.00"> bool $appendNewline=false)</text>
<text text-anchor="start" x="164" y="-28" font-family="Helvetica,sans-Serif" font-size="10.00">+</text>
<text text-anchor="start" x="174" y="-28" font-family="Helvetica,sans-Serif" font-size="10.00">format(array $record)</text>
<polygon fill="#666666" stroke="#666666" points="160,-91.5 160,-91.5 336,-91.5 336,-91.5 160,-91.5"/>
<polygon fill="#666666" stroke="#666666" points="160,-76.5 160,-76.5 336,-76.5 336,-76.5 160,-76.5"/>
<polygon fill="none" stroke="#666666" points="160,-22.5 160,-108.5 336,-108.5 336,-22.5 160,-22.5"/>
</a>
</g>
</g>
<!-- Node1&#45;&gt;Node5 -->
<g id="edge4_Node000001_Node000005" class="edge">
<title>Node1&#45;&gt;Node5</title>
<g id="a_edge4_Node000001_Node000005"><a xlink:title=" ">
<path fill="none" stroke="#63b8ff" d="M248,-155.95C248,-138.28 248,-121.9 248,-108.12"/>
<polygon fill="none" stroke="#63b8ff" points="244.5,-155.6 248,-165.6 251.5,-155.6 244.5,-155.6"/>
</a>
</g>
</g>
<!-- Node6 -->
<g id="Node000006" class="node">
<title>Node6</title>
<g id="a_Node000006"><a xlink:href="class_monolog_1_1_formatter_1_1_logmatic_formatter.html" target="_top" xlink:title=" ">
<polygon fill="white" stroke="none" points="462,-131 354,-131 354,0 462,0 462,-131"/>
<text text-anchor="start" x="367.12" y="-117.5" font-family="Helvetica,sans-Serif" font-size="10.00">LogmaticFormatter</text>
<text text-anchor="start" x="358.38" y="-102.5" font-family="Helvetica,sans-Serif" font-size="10.00">#</text>
<text text-anchor="start" x="368" y="-102.5" font-family="Helvetica,sans-Serif" font-size="10.00">const MARKERS</text>
<text text-anchor="start" x="358.38" y="-87.5" font-family="Helvetica,sans-Serif" font-size="10.00">#</text>
<text text-anchor="start" x="368" y="-87.5" font-family="Helvetica,sans-Serif" font-size="10.00">$hostname</text>
<text text-anchor="start" x="358.38" y="-72.5" font-family="Helvetica,sans-Serif" font-size="10.00">#</text>
<text text-anchor="start" x="368" y="-72.5" font-family="Helvetica,sans-Serif" font-size="10.00">$appname</text>
<text text-anchor="start" x="358" y="-57.5" font-family="Helvetica,sans-Serif" font-size="10.00">+</text>
<text text-anchor="start" x="368" y="-57.5" font-family="Helvetica,sans-Serif" font-size="10.00">setHostname(string</text>
<text text-anchor="start" x="368" y="-46.25" font-family="Helvetica,sans-Serif" font-size="10.00"> $hostname)</text>
<text text-anchor="start" x="358" y="-31.5" font-family="Helvetica,sans-Serif" font-size="10.00">+</text>
<text text-anchor="start" x="368" y="-31.5" font-family="Helvetica,sans-Serif" font-size="10.00">setAppname(string</text>
<text text-anchor="start" x="368" y="-20.25" font-family="Helvetica,sans-Serif" font-size="10.00"> $appname)</text>
<text text-anchor="start" x="358" y="-5.5" font-family="Helvetica,sans-Serif" font-size="10.00">+</text>
<text text-anchor="start" x="368" y="-5.5" font-family="Helvetica,sans-Serif" font-size="10.00">format(array $record)</text>
<polygon fill="#666666" stroke="#666666" points="354,-114 354,-114 462,-114 462,-114 354,-114"/>
<polygon fill="#666666" stroke="#666666" points="354,-69 354,-69 366,-69 366,-69 354,-69"/>
<polygon fill="#666666" stroke="#666666" points="366,-69 366,-69 462,-69 462,-69 366,-69"/>
<polygon fill="none" stroke="#666666" points="354,0 354,-131 462,-131 462,0 354,0"/>
</a>
</g>
</g>
<!-- Node1&#45;&gt;Node6 -->
<g id="edge5_Node000001_Node000006" class="edge">
<title>Node1&#45;&gt;Node6</title>
<g id="a_edge5_Node000001_Node000006"><a xlink:title=" ">
<path fill="none" stroke="#63b8ff" d="M348.27,-174.77C356.78,-159.33 364.98,-144.48 372.42,-131"/>
<polygon fill="none" stroke="#63b8ff" points="345.42,-172.68 343.65,-183.13 351.55,-176.06 345.42,-172.68"/>
</a>
</g>
</g>
<!-- Node2 -->
<g id="Node000002" class="node">
<title>Node2</title>
<g id="a_Node000002"><a xlink:href="class_monolog_1_1_formatter_1_1_normalizer_formatter.html" target="_top" xlink:title=" ">
<polygon fill="white" stroke="none" points="324.5,-1020 171.5,-1020 171.5,-584 324.5,-584 324.5,-1020"/>
<text text-anchor="start" x="203.38" y="-1006.5" font-family="Helvetica,sans-Serif" font-size="10.00">NormalizerFormatter</text>
<text text-anchor="start" x="175.5" y="-991.5" font-family="Helvetica,sans-Serif" font-size="10.00">+</text>
<text text-anchor="start" x="185.5" y="-991.5" font-family="Helvetica,sans-Serif" font-size="10.00">const SIMPLE_DATE</text>
<text text-anchor="start" x="175.88" y="-976.5" font-family="Helvetica,sans-Serif" font-size="10.00">#</text>
<text text-anchor="start" x="185.5" y="-976.5" font-family="Helvetica,sans-Serif" font-size="10.00">$dateFormat</text>
<text text-anchor="start" x="175.88" y="-961.5" font-family="Helvetica,sans-Serif" font-size="10.00">#</text>
<text text-anchor="start" x="185.5" y="-961.5" font-family="Helvetica,sans-Serif" font-size="10.00">$maxNormalizeDepth</text>
<text text-anchor="start" x="175.88" y="-946.5" font-family="Helvetica,sans-Serif" font-size="10.00">#</text>
<text text-anchor="start" x="185.5" y="-946.5" font-family="Helvetica,sans-Serif" font-size="10.00">$maxNormalizeItemCount</text>
<text text-anchor="start" x="175.5" y="-931.5" font-family="Helvetica,sans-Serif" font-size="10.00">+</text>
<text text-anchor="start" x="185.5" y="-931.5" font-family="Helvetica,sans-Serif" font-size="10.00">__construct(?string</text>
<text text-anchor="start" x="185.5" y="-920.25" font-family="Helvetica,sans-Serif" font-size="10.00"> $dateFormat=null)</text>
<text text-anchor="start" x="175.5" y="-905.5" font-family="Helvetica,sans-Serif" font-size="10.00">+</text>
<text text-anchor="start" x="185.5" y="-905.5" font-family="Helvetica,sans-Serif" font-size="10.00">format(array $record)</text>
<text text-anchor="start" x="175.5" y="-890.5" font-family="Helvetica,sans-Serif" font-size="10.00">+</text>
<text text-anchor="start" x="185.5" y="-890.5" font-family="Helvetica,sans-Serif" font-size="10.00">formatBatch(array</text>
<text text-anchor="start" x="185.5" y="-879.25" font-family="Helvetica,sans-Serif" font-size="10.00"> $records)</text>
<text text-anchor="start" x="175.5" y="-864.5" font-family="Helvetica,sans-Serif" font-size="10.00">+</text>
<text text-anchor="start" x="185.5" y="-864.5" font-family="Helvetica,sans-Serif" font-size="10.00">getDateFormat()</text>
<text text-anchor="start" x="175.5" y="-849.5" font-family="Helvetica,sans-Serif" font-size="10.00">+</text>
<text text-anchor="start" x="185.5" y="-849.5" font-family="Helvetica,sans-Serif" font-size="10.00">setDateFormat(string</text>
<text text-anchor="start" x="185.5" y="-838.25" font-family="Helvetica,sans-Serif" font-size="10.00"> $dateFormat)</text>
<text text-anchor="start" x="175.5" y="-823.5" font-family="Helvetica,sans-Serif" font-size="10.00">+</text>
<text text-anchor="start" x="185.5" y="-823.5" font-family="Helvetica,sans-Serif" font-size="10.00">getMaxNormalizeDepth()</text>
<text text-anchor="start" x="175.5" y="-808.5" font-family="Helvetica,sans-Serif" font-size="10.00">+</text>
<text text-anchor="start" x="185.5" y="-808.5" font-family="Helvetica,sans-Serif" font-size="10.00">setMaxNormalizeDepth</text>
<text text-anchor="start" x="185.5" y="-797.25" font-family="Helvetica,sans-Serif" font-size="10.00">(int $maxNormalizeDepth)</text>
<text text-anchor="start" x="175.5" y="-782.5" font-family="Helvetica,sans-Serif" font-size="10.00">+</text>
<text text-anchor="start" x="185.5" y="-782.5" font-family="Helvetica,sans-Serif" font-size="10.00">getMaxNormalizeItemCount()</text>
<text text-anchor="start" x="175.5" y="-767.5" font-family="Helvetica,sans-Serif" font-size="10.00">+</text>
<text text-anchor="start" x="185.5" y="-767.5" font-family="Helvetica,sans-Serif" font-size="10.00">setMaxNormalizeItemCount</text>
<text text-anchor="start" x="185.5" y="-756.25" font-family="Helvetica,sans-Serif" font-size="10.00">(int $maxNormalizeItemCount)</text>
<text text-anchor="start" x="175.5" y="-741.5" font-family="Helvetica,sans-Serif" font-size="10.00">+</text>
<text text-anchor="start" x="185.5" y="-741.5" font-family="Helvetica,sans-Serif" font-size="10.00">setJsonPrettyPrint</text>
<text text-anchor="start" x="185.5" y="-730.25" font-family="Helvetica,sans-Serif" font-size="10.00">(bool $enable)</text>
<text text-anchor="start" x="175.5" y="-715.5" font-family="Helvetica,sans-Serif" font-size="10.00">+</text>
<text text-anchor="start" x="185.5" y="-715.5" font-family="Helvetica,sans-Serif" font-size="10.00">addJsonEncodeOption</text>
<text text-anchor="start" x="185.5" y="-704.25" font-family="Helvetica,sans-Serif" font-size="10.00">(int $option)</text>
<text text-anchor="start" x="175.5" y="-689.5" font-family="Helvetica,sans-Serif" font-size="10.00">+</text>
<text text-anchor="start" x="185.5" y="-689.5" font-family="Helvetica,sans-Serif" font-size="10.00">removeJsonEncodeOption</text>
<text text-anchor="start" x="185.5" y="-678.25" font-family="Helvetica,sans-Serif" font-size="10.00">(int $option)</text>
<text text-anchor="start" x="175.88" y="-663.5" font-family="Helvetica,sans-Serif" font-size="10.00">#</text>
<text text-anchor="start" x="185.5" y="-663.5" font-family="Helvetica,sans-Serif" font-size="10.00">normalizeException</text>
<text text-anchor="start" x="185.5" y="-652.25" font-family="Helvetica,sans-Serif" font-size="10.00">(Throwable $e, int </text>
<text text-anchor="start" x="185.5" y="-641" font-family="Helvetica,sans-Serif" font-size="10.00">$depth=0)</text>
<text text-anchor="start" x="175.88" y="-626.5" font-family="Helvetica,sans-Serif" font-size="10.00">#</text>
<text text-anchor="start" x="185.5" y="-626.5" font-family="Helvetica,sans-Serif" font-size="10.00">toJson($data, bool</text>
<text text-anchor="start" x="185.5" y="-615.25" font-family="Helvetica,sans-Serif" font-size="10.00"> $ignoreErrors=false)</text>
<text text-anchor="start" x="175.88" y="-600.5" font-family="Helvetica,sans-Serif" font-size="10.00">#</text>
<text text-anchor="start" x="185.5" y="-600.5" font-family="Helvetica,sans-Serif" font-size="10.00">formatDate(\DateTimeInterface</text>
<text text-anchor="start" x="185.5" y="-589.25" font-family="Helvetica,sans-Serif" font-size="10.00"> $date)</text>
<polygon fill="#666666" stroke="#666666" points="171.5,-1003 171.5,-1003 324.5,-1003 324.5,-1003 171.5,-1003"/>
<polygon fill="#666666" stroke="#666666" points="171.5,-943 171.5,-943 183.5,-943 183.5,-943 171.5,-943"/>
<polygon fill="#666666" stroke="#666666" points="183.5,-943 183.5,-943 324.5,-943 324.5,-943 183.5,-943"/>
<polygon fill="none" stroke="#666666" points="171.5,-584 171.5,-1020 324.5,-1020 324.5,-584 171.5,-584"/>
</a>
</g>
</g>
<!-- Node2&#45;&gt;Node1 -->
<g id="edge1_Node000001_Node000002" class="edge">
<title>Node2&#45;&gt;Node1</title>
<g id="a_edge1_Node000001_Node000002"><a xlink:title=" ">
<path fill="none" stroke="#63b8ff" d="M248,-572.89C248,-564.54 248,-556.2 248,-547.92"/>
<polygon fill="none" stroke="#63b8ff" points="244.5,-572.77 248,-582.77 251.5,-572.77 244.5,-572.77"/>
</a>
</g>
</g>
<!-- Node3 -->
<g id="Node000003" class="node">
<title>Node3</title>
<g id="a_Node000003"><a xlink:href="interface_monolog_1_1_formatter_1_1_formatter_interface.html" target="_top" xlink:title=" ">
<polygon fill="white" stroke="none" points="302,-1131 194,-1131 194,-1056 302,-1056 302,-1131"/>
<text text-anchor="start" x="207.88" y="-1117.5" font-family="Helvetica,sans-Serif" font-size="10.00">FormatterInterface</text>
<text text-anchor="start" x="246.5" y="-1102.5" font-family="Helvetica,sans-Serif" font-size="10.00"> </text>
<text text-anchor="start" x="198" y="-1087.5" font-family="Helvetica,sans-Serif" font-size="10.00">+</text>
<text text-anchor="start" x="208" y="-1087.5" font-family="Helvetica,sans-Serif" font-size="10.00">format(array $record)</text>
<text text-anchor="start" x="198" y="-1072.5" font-family="Helvetica,sans-Serif" font-size="10.00">+</text>
<text text-anchor="start" x="208" y="-1072.5" font-family="Helvetica,sans-Serif" font-size="10.00">formatBatch(array</text>
<text text-anchor="start" x="208" y="-1061.25" font-family="Helvetica,sans-Serif" font-size="10.00"> $records)</text>
<polygon fill="#666666" stroke="#666666" points="194,-1114 194,-1114 302,-1114 302,-1114 194,-1114"/>
<polygon fill="#666666" stroke="#666666" points="194,-1099 194,-1099 302,-1099 302,-1099 194,-1099"/>
<polygon fill="none" stroke="#666666" points="194,-1056 194,-1131 302,-1131 302,-1056 194,-1056"/>
</a>
</g>
</g>
<!-- Node3&#45;&gt;Node2 -->
<g id="edge2_Node000002_Node000003" class="edge">
<title>Node3&#45;&gt;Node2</title>
<g id="a_edge2_Node000002_Node000003"><a xlink:title=" ">
<path fill="none" stroke="#63b8ff" d="M248,-1044.63C248,-1036.95 248,-1028.59 248,-1019.75"/>
<polygon fill="none" stroke="#63b8ff" points="244.5,-1044.61 248,-1054.61 251.5,-1044.61 244.5,-1044.61"/>
</a>
</g>
</g>
</g>
</svg>
