<?xml version="1.0" encoding="UTF-8" standalone="no"?>
<!DOCTYPE svg PUBLIC "-//W3C//DTD SVG 1.1//EN"
 "http://www.w3.org/Graphics/SVG/1.1/DTD/svg11.dtd">
<!-- Generated by graphviz version 10.0.1 (20240210.2158)
 -->
<!-- Title: ArrayInput Pages: 1 -->
<svg width="184pt" height="1101pt"
 viewBox="0.00 0.00 183.50 1101.00" xmlns="http://www.w3.org/2000/svg" xmlns:xlink="http://www.w3.org/1999/xlink">
<g id="graph0" class="graph" transform="scale(1 1) rotate(0) translate(4 1097)">
<title>ArrayInput</title>
<!-- Node1 -->
<g id="Node000001" class="node">
<title>Node1</title>
<g id="a_Node000001"><a xlink:title=" ">
<polygon fill="#999999" stroke="none" points="144,-190 0,-190 0,0 144,0 144,-190"/>
<text text-anchor="start" x="49.5" y="-176.5" font-family="Helvetica,sans-Serif" font-size="10.00">ArrayInput</text>
<text text-anchor="start" x="70.5" y="-161.5" font-family="Helvetica,sans-Serif" font-size="10.00"> </text>
<text text-anchor="start" x="4" y="-146.5" font-family="Helvetica,sans-Serif" font-size="10.00">+</text>
<text text-anchor="start" x="14" y="-146.5" font-family="Helvetica,sans-Serif" font-size="10.00">__construct(array</text>
<text text-anchor="start" x="14" y="-135.25" font-family="Helvetica,sans-Serif" font-size="10.00"> $parameters, InputDefinition</text>
<text text-anchor="start" x="14" y="-124" font-family="Helvetica,sans-Serif" font-size="10.00"> $definition=null)</text>
<text text-anchor="start" x="4" y="-109.5" font-family="Helvetica,sans-Serif" font-size="10.00">+</text>
<text text-anchor="start" x="14" y="-109.5" font-family="Helvetica,sans-Serif" font-size="10.00">getFirstArgument()</text>
<text text-anchor="start" x="4" y="-94.5" font-family="Helvetica,sans-Serif" font-size="10.00">+</text>
<text text-anchor="start" x="14" y="-94.5" font-family="Helvetica,sans-Serif" font-size="10.00">hasParameterOption</text>
<text text-anchor="start" x="14" y="-83.25" font-family="Helvetica,sans-Serif" font-size="10.00">($values, bool $onlyParams</text>
<text text-anchor="start" x="14" y="-72" font-family="Helvetica,sans-Serif" font-size="10.00">=false)</text>
<text text-anchor="start" x="4" y="-57.5" font-family="Helvetica,sans-Serif" font-size="10.00">+</text>
<text text-anchor="start" x="14" y="-57.5" font-family="Helvetica,sans-Serif" font-size="10.00">getParameterOption</text>
<text text-anchor="start" x="14" y="-46.25" font-family="Helvetica,sans-Serif" font-size="10.00">($values, $default=false,</text>
<text text-anchor="start" x="14" y="-35" font-family="Helvetica,sans-Serif" font-size="10.00"> bool $onlyParams=false)</text>
<text text-anchor="start" x="4" y="-20.5" font-family="Helvetica,sans-Serif" font-size="10.00">+</text>
<text text-anchor="start" x="14" y="-20.5" font-family="Helvetica,sans-Serif" font-size="10.00">__toString()</text>
<text text-anchor="start" x="4.38" y="-5.5" font-family="Helvetica,sans-Serif" font-size="10.00">#</text>
<text text-anchor="start" x="14" y="-5.5" font-family="Helvetica,sans-Serif" font-size="10.00">parse()</text>
<polygon fill="#666666" stroke="#666666" points="0,-173 0,-173 144,-173 144,-173 0,-173"/>
<polygon fill="#666666" stroke="#666666" points="0,-158 0,-158 144,-158 144,-158 0,-158"/>
<polygon fill="none" stroke="#666666" points="0,0 0,-190 144,-190 144,0 0,0"/>
</a>
</g>
</g>
<!-- Node2 -->
<g id="Node000002" class="node">
<title>Node2</title>
<g id="a_Node000002"><a xlink:href="class_symfony_1_1_component_1_1_console_1_1_input_1_1_input.html" target="_top" xlink:title=" ">
<polygon fill="white" stroke="none" points="139.5,-566 4.5,-566 4.5,-226 139.5,-226 139.5,-566"/>
<text text-anchor="start" x="61.12" y="-552.5" font-family="Helvetica,sans-Serif" font-size="10.00">Input</text>
<text text-anchor="start" x="8.88" y="-537.5" font-family="Helvetica,sans-Serif" font-size="10.00">#</text>
<text text-anchor="start" x="18.5" y="-537.5" font-family="Helvetica,sans-Serif" font-size="10.00">$definition</text>
<text text-anchor="start" x="8.88" y="-522.5" font-family="Helvetica,sans-Serif" font-size="10.00">#</text>
<text text-anchor="start" x="18.5" y="-522.5" font-family="Helvetica,sans-Serif" font-size="10.00">$stream</text>
<text text-anchor="start" x="8.88" y="-507.5" font-family="Helvetica,sans-Serif" font-size="10.00">#</text>
<text text-anchor="start" x="18.5" y="-507.5" font-family="Helvetica,sans-Serif" font-size="10.00">$options</text>
<text text-anchor="start" x="8.88" y="-492.5" font-family="Helvetica,sans-Serif" font-size="10.00">#</text>
<text text-anchor="start" x="18.5" y="-492.5" font-family="Helvetica,sans-Serif" font-size="10.00">$arguments</text>
<text text-anchor="start" x="8.88" y="-477.5" font-family="Helvetica,sans-Serif" font-size="10.00">#</text>
<text text-anchor="start" x="18.5" y="-477.5" font-family="Helvetica,sans-Serif" font-size="10.00">$interactive</text>
<text text-anchor="start" x="8.5" y="-462.5" font-family="Helvetica,sans-Serif" font-size="10.00">+</text>
<text text-anchor="start" x="18.5" y="-462.5" font-family="Helvetica,sans-Serif" font-size="10.00">__construct(InputDefinition</text>
<text text-anchor="start" x="18.5" y="-451.25" font-family="Helvetica,sans-Serif" font-size="10.00"> $definition=null)</text>
<text text-anchor="start" x="8.5" y="-436.5" font-family="Helvetica,sans-Serif" font-size="10.00">+</text>
<text text-anchor="start" x="18.5" y="-436.5" font-family="Helvetica,sans-Serif" font-size="10.00">bind(InputDefinition</text>
<text text-anchor="start" x="18.5" y="-425.25" font-family="Helvetica,sans-Serif" font-size="10.00"> $definition)</text>
<text text-anchor="start" x="8.5" y="-410.5" font-family="Helvetica,sans-Serif" font-size="10.00">+</text>
<text text-anchor="start" x="18.5" y="-410.5" font-family="Helvetica,sans-Serif" font-size="10.00">validate()</text>
<text text-anchor="start" x="8.5" y="-395.5" font-family="Helvetica,sans-Serif" font-size="10.00">+</text>
<text text-anchor="start" x="18.5" y="-395.5" font-family="Helvetica,sans-Serif" font-size="10.00">isInteractive()</text>
<text text-anchor="start" x="8.5" y="-380.5" font-family="Helvetica,sans-Serif" font-size="10.00">+</text>
<text text-anchor="start" x="18.5" y="-380.5" font-family="Helvetica,sans-Serif" font-size="10.00">setInteractive(bool</text>
<text text-anchor="start" x="18.5" y="-369.25" font-family="Helvetica,sans-Serif" font-size="10.00"> $interactive)</text>
<text text-anchor="start" x="8.5" y="-354.5" font-family="Helvetica,sans-Serif" font-size="10.00">+</text>
<text text-anchor="start" x="18.5" y="-354.5" font-family="Helvetica,sans-Serif" font-size="10.00">getArguments()</text>
<text text-anchor="start" x="8.5" y="-339.5" font-family="Helvetica,sans-Serif" font-size="10.00">+</text>
<text text-anchor="start" x="18.5" y="-339.5" font-family="Helvetica,sans-Serif" font-size="10.00">getArgument(string</text>
<text text-anchor="start" x="18.5" y="-328.25" font-family="Helvetica,sans-Serif" font-size="10.00"> $name)</text>
<text text-anchor="start" x="8.5" y="-313.5" font-family="Helvetica,sans-Serif" font-size="10.00">+</text>
<text text-anchor="start" x="18.5" y="-313.5" font-family="Helvetica,sans-Serif" font-size="10.00">setArgument(string</text>
<text text-anchor="start" x="18.5" y="-302.25" font-family="Helvetica,sans-Serif" font-size="10.00"> $name, $value)</text>
<text text-anchor="start" x="8.5" y="-287.5" font-family="Helvetica,sans-Serif" font-size="10.00">+</text>
<text text-anchor="start" x="18.5" y="-287.5" font-family="Helvetica,sans-Serif" font-size="10.00">hasArgument(string</text>
<text text-anchor="start" x="18.5" y="-276.25" font-family="Helvetica,sans-Serif" font-size="10.00"> $name)</text>
<text text-anchor="start" x="8.5" y="-261.5" font-family="Helvetica,sans-Serif" font-size="10.00">+</text>
<text text-anchor="start" x="18.5" y="-261.5" font-family="Helvetica,sans-Serif" font-size="10.00">getOptions()</text>
<text text-anchor="start" x="18.5" y="-246.5" font-family="Helvetica,sans-Serif" font-size="10.00">et 6 de plus...</text>
<text text-anchor="start" x="8.88" y="-231.5" font-family="Helvetica,sans-Serif" font-size="10.00">#</text>
<text text-anchor="start" x="18.5" y="-231.5" font-family="Helvetica,sans-Serif" font-size="10.00">parse()</text>
<polygon fill="#666666" stroke="#666666" points="4.5,-549 4.5,-549 139.5,-549 139.5,-549 4.5,-549"/>
<polygon fill="#666666" stroke="#666666" points="4.5,-474 4.5,-474 16.5,-474 16.5,-474 4.5,-474"/>
<polygon fill="#666666" stroke="#666666" points="16.5,-474 16.5,-474 139.5,-474 139.5,-474 16.5,-474"/>
<polygon fill="none" stroke="#666666" points="4.5,-226 4.5,-566 139.5,-566 139.5,-226 4.5,-226"/>
</a>
</g>
</g>
<!-- Node2&#45;&gt;Node1 -->
<g id="edge1_Node000001_Node000002" class="edge">
<title>Node2&#45;&gt;Node1</title>
<g id="a_edge1_Node000001_Node000002"><a xlink:title=" ">
<path fill="none" stroke="#63b8ff" d="M72,-214.95C72,-206.4 72,-197.98 72,-189.82"/>
<polygon fill="none" stroke="#63b8ff" points="68.5,-214.76 72,-224.76 75.5,-214.76 68.5,-214.76"/>
</a>
</g>
</g>
<!-- Node3 -->
<g id="Node000003" class="node">
<title>Node3</title>
<g id="a_Node000003"><a xlink:href="interface_symfony_1_1_component_1_1_console_1_1_input_1_1_input_interface.html" target="_top" xlink:title=" ">
<polygon fill="white" stroke="none" points="141,-1093 3,-1093 3,-702 141,-702 141,-1093"/>
<text text-anchor="start" x="42" y="-1079.5" font-family="Helvetica,sans-Serif" font-size="10.00">InputInterface</text>
<text text-anchor="start" x="70.5" y="-1064.5" font-family="Helvetica,sans-Serif" font-size="10.00"> </text>
<text text-anchor="start" x="7" y="-1049.5" font-family="Helvetica,sans-Serif" font-size="10.00">+</text>
<text text-anchor="start" x="17" y="-1049.5" font-family="Helvetica,sans-Serif" font-size="10.00">getFirstArgument()</text>
<text text-anchor="start" x="7" y="-1034.5" font-family="Helvetica,sans-Serif" font-size="10.00">+</text>
<text text-anchor="start" x="17" y="-1034.5" font-family="Helvetica,sans-Serif" font-size="10.00">hasParameterOption</text>
<text text-anchor="start" x="17" y="-1023.25" font-family="Helvetica,sans-Serif" font-size="10.00">($values, bool $onlyParams</text>
<text text-anchor="start" x="17" y="-1012" font-family="Helvetica,sans-Serif" font-size="10.00">=false)</text>
<text text-anchor="start" x="7" y="-997.5" font-family="Helvetica,sans-Serif" font-size="10.00">+</text>
<text text-anchor="start" x="17" y="-997.5" font-family="Helvetica,sans-Serif" font-size="10.00">getParameterOption</text>
<text text-anchor="start" x="17" y="-986.25" font-family="Helvetica,sans-Serif" font-size="10.00">($values, $default=false,</text>
<text text-anchor="start" x="17" y="-975" font-family="Helvetica,sans-Serif" font-size="10.00"> bool $onlyParams=false)</text>
<text text-anchor="start" x="7" y="-960.5" font-family="Helvetica,sans-Serif" font-size="10.00">+</text>
<text text-anchor="start" x="17" y="-960.5" font-family="Helvetica,sans-Serif" font-size="10.00">bind(InputDefinition</text>
<text text-anchor="start" x="17" y="-949.25" font-family="Helvetica,sans-Serif" font-size="10.00"> $definition)</text>
<text text-anchor="start" x="7" y="-934.5" font-family="Helvetica,sans-Serif" font-size="10.00">+</text>
<text text-anchor="start" x="17" y="-934.5" font-family="Helvetica,sans-Serif" font-size="10.00">validate()</text>
<text text-anchor="start" x="7" y="-919.5" font-family="Helvetica,sans-Serif" font-size="10.00">+</text>
<text text-anchor="start" x="17" y="-919.5" font-family="Helvetica,sans-Serif" font-size="10.00">getArguments()</text>
<text text-anchor="start" x="7" y="-904.5" font-family="Helvetica,sans-Serif" font-size="10.00">+</text>
<text text-anchor="start" x="17" y="-904.5" font-family="Helvetica,sans-Serif" font-size="10.00">getArgument(string</text>
<text text-anchor="start" x="17" y="-893.25" font-family="Helvetica,sans-Serif" font-size="10.00"> $name)</text>
<text text-anchor="start" x="7" y="-878.5" font-family="Helvetica,sans-Serif" font-size="10.00">+</text>
<text text-anchor="start" x="17" y="-878.5" font-family="Helvetica,sans-Serif" font-size="10.00">setArgument(string</text>
<text text-anchor="start" x="17" y="-867.25" font-family="Helvetica,sans-Serif" font-size="10.00"> $name, $value)</text>
<text text-anchor="start" x="7" y="-852.5" font-family="Helvetica,sans-Serif" font-size="10.00">+</text>
<text text-anchor="start" x="17" y="-852.5" font-family="Helvetica,sans-Serif" font-size="10.00">hasArgument(string</text>
<text text-anchor="start" x="17" y="-841.25" font-family="Helvetica,sans-Serif" font-size="10.00"> $name)</text>
<text text-anchor="start" x="7" y="-826.5" font-family="Helvetica,sans-Serif" font-size="10.00">+</text>
<text text-anchor="start" x="17" y="-826.5" font-family="Helvetica,sans-Serif" font-size="10.00">getOptions()</text>
<text text-anchor="start" x="7" y="-811.5" font-family="Helvetica,sans-Serif" font-size="10.00">+</text>
<text text-anchor="start" x="17" y="-811.5" font-family="Helvetica,sans-Serif" font-size="10.00">getOption(string </text>
<text text-anchor="start" x="17" y="-800.25" font-family="Helvetica,sans-Serif" font-size="10.00">$name)</text>
<text text-anchor="start" x="7" y="-785.5" font-family="Helvetica,sans-Serif" font-size="10.00">+</text>
<text text-anchor="start" x="17" y="-785.5" font-family="Helvetica,sans-Serif" font-size="10.00">setOption(string </text>
<text text-anchor="start" x="17" y="-774.25" font-family="Helvetica,sans-Serif" font-size="10.00">$name, $value)</text>
<text text-anchor="start" x="7" y="-759.5" font-family="Helvetica,sans-Serif" font-size="10.00">+</text>
<text text-anchor="start" x="17" y="-759.5" font-family="Helvetica,sans-Serif" font-size="10.00">hasOption(string </text>
<text text-anchor="start" x="17" y="-748.25" font-family="Helvetica,sans-Serif" font-size="10.00">$name)</text>
<text text-anchor="start" x="7" y="-733.5" font-family="Helvetica,sans-Serif" font-size="10.00">+</text>
<text text-anchor="start" x="17" y="-733.5" font-family="Helvetica,sans-Serif" font-size="10.00">isInteractive()</text>
<text text-anchor="start" x="7" y="-718.5" font-family="Helvetica,sans-Serif" font-size="10.00">+</text>
<text text-anchor="start" x="17" y="-718.5" font-family="Helvetica,sans-Serif" font-size="10.00">setInteractive(bool</text>
<text text-anchor="start" x="17" y="-707.25" font-family="Helvetica,sans-Serif" font-size="10.00"> $interactive)</text>
<polygon fill="#666666" stroke="#666666" points="3,-1076 3,-1076 141,-1076 141,-1076 3,-1076"/>
<polygon fill="#666666" stroke="#666666" points="3,-1061 3,-1061 141,-1061 141,-1061 3,-1061"/>
<polygon fill="none" stroke="#666666" points="3,-702 3,-1093 141,-1093 141,-702 3,-702"/>
</a>
</g>
</g>
<!-- Node3&#45;&gt;Node2 -->
<g id="edge2_Node000002_Node000003" class="edge">
<title>Node3&#45;&gt;Node2</title>
<g id="a_edge2_Node000002_Node000003"><a xlink:title=" ">
<path fill="none" stroke="#63b8ff" d="M46.88,-690.77C45.47,-661 45.25,-630.73 47,-602 47.72,-590.19 48.67,-578.02 49.77,-565.77"/>
<polygon fill="none" stroke="#63b8ff" points="43.38,-690.83 47.4,-700.63 50.37,-690.46 43.38,-690.83"/>
</a>
</g>
</g>
<!-- Node4 -->
<g id="Node000004" class="node">
<title>Node4</title>
<g id="a_Node000004"><a xlink:href="interface_symfony_1_1_component_1_1_console_1_1_input_1_1_streamable_input_interface.html" target="_top" xlink:title=" ">
<polygon fill="white" stroke="none" points="175.5,-666 56.5,-666 56.5,-602 175.5,-602 175.5,-666"/>
<text text-anchor="start" x="61.25" y="-652.5" font-family="Helvetica,sans-Serif" font-size="10.00">StreamableInputInterface</text>
<text text-anchor="start" x="114.5" y="-637.5" font-family="Helvetica,sans-Serif" font-size="10.00"> </text>
<text text-anchor="start" x="64" y="-622.5" font-family="Helvetica,sans-Serif" font-size="10.00">+</text>
<text text-anchor="start" x="77.5" y="-622.5" font-family="Helvetica,sans-Serif" font-size="10.00">setStream($stream)</text>
<text text-anchor="start" x="64" y="-607.5" font-family="Helvetica,sans-Serif" font-size="10.00">+</text>
<text text-anchor="start" x="77.5" y="-607.5" font-family="Helvetica,sans-Serif" font-size="10.00">getStream()</text>
<polygon fill="#666666" stroke="#666666" points="56.5,-649 56.5,-649 175.5,-649 175.5,-649 56.5,-649"/>
<polygon fill="#666666" stroke="#666666" points="56.5,-634 56.5,-634 175.5,-634 175.5,-634 56.5,-634"/>
<polygon fill="none" stroke="#666666" points="56.5,-602 56.5,-666 175.5,-666 175.5,-602 56.5,-602"/>
</a>
</g>
</g>
<!-- Node3&#45;&gt;Node4 -->
<g id="edge4_Node000004_Node000003" class="edge">
<title>Node3&#45;&gt;Node4</title>
<g id="a_edge4_Node000004_Node000003"><a xlink:title=" ">
<path fill="none" stroke="#63b8ff" d="M106.59,-690.93C108.13,-681.77 109.55,-673.35 110.79,-665.98"/>
<polygon fill="none" stroke="#63b8ff" points="103.19,-690.07 104.98,-700.51 110.09,-691.23 103.19,-690.07"/>
</a>
</g>
</g>
<!-- Node4&#45;&gt;Node2 -->
<g id="edge3_Node000002_Node000004" class="edge">
<title>Node4&#45;&gt;Node2</title>
<g id="a_edge3_Node000002_Node000004"><a xlink:title=" ">
<path fill="none" stroke="#63b8ff" d="M108.18,-591.04C106.74,-583.32 105.16,-574.84 103.49,-565.88"/>
<polygon fill="none" stroke="#63b8ff" points="104.7,-591.47 109.97,-600.66 111.58,-590.19 104.7,-591.47"/>
</a>
</g>
</g>
</g>
</svg>
