<?xml version="1.0" encoding="UTF-8" standalone="no"?>
<!DOCTYPE svg PUBLIC "-//W3C//DTD SVG 1.1//EN"
 "http://www.w3.org/Graphics/SVG/1.1/DTD/svg11.dtd">
<!-- Generated by graphviz version 10.0.1 (20240210.2158)
 -->
<!-- Title: setPluginManager Pages: 1 -->
<svg width="540pt" height="64pt"
 viewBox="0.00 0.00 540.25 64.25" xmlns="http://www.w3.org/2000/svg" xmlns:xlink="http://www.w3.org/1999/xlink">
<g id="graph0" class="graph" transform="scale(1 1) rotate(0) translate(4 60.25)">
<title>setPluginManager</title>
<!-- Node1 -->
<g id="Node000001" class="node">
<title>Node1</title>
<g id="a_Node000001"><a xlink:title=" ">
<polygon fill="#999999" stroke="#666666" points="532.25,-37.25 438.25,-37.25 438.25,-18 532.25,-18 532.25,-37.25"/>
<text text-anchor="middle" x="485.25" y="-23.75" font-family="Helvetica,sans-Serif" font-size="10.00">setPluginManager</text>
</a>
</g>
</g>
<!-- Node2 -->
<g id="Node000002" class="node">
<title>Node2</title>
<g id="a_Node000002"><a xlink:href="class_laminas_1_1_validator_1_1_validator_chain.html#a366df7292a3860c3fca7efa5fe451473" target="_top" xlink:title=" ">
<polygon fill="white" stroke="#666666" points="402.25,-37.25 308.25,-37.25 308.25,-18 402.25,-18 402.25,-37.25"/>
<text text-anchor="middle" x="355.25" y="-23.75" font-family="Helvetica,sans-Serif" font-size="10.00">getPluginManager</text>
</a>
</g>
</g>
<!-- Node1&#45;&gt;Node2 -->
<g id="edge1_Node000001_Node000002" class="edge">
<title>Node1&#45;&gt;Node2</title>
<g id="a_edge1_Node000001_Node000002"><a xlink:title=" ">
<path fill="none" stroke="#63b8ff" d="M426.69,-27.62C418.55,-27.62 410.28,-27.62 402.39,-27.62"/>
<polygon fill="#63b8ff" stroke="#63b8ff" points="426.53,-31.13 436.53,-27.63 426.53,-24.13 426.53,-31.13"/>
</a>
</g>
</g>
<!-- Node3 -->
<g id="Node000003" class="node">
<title>Node3</title>
<g id="a_Node000003"><a xlink:href="class_laminas_1_1_validator_1_1_validator_chain.html#a0f5ae92f3e31a26342ede4b20985c6bb" target="_top" xlink:title=" ">
<polygon fill="white" stroke="#666666" points="272.25,-37.25 230.75,-37.25 230.75,-18 272.25,-18 272.25,-37.25"/>
<text text-anchor="middle" x="251.5" y="-23.75" font-family="Helvetica,sans-Serif" font-size="10.00">plugin</text>
</a>
</g>
</g>
<!-- Node2&#45;&gt;Node3 -->
<g id="edge2_Node000002_Node000003" class="edge">
<title>Node2&#45;&gt;Node3</title>
<g id="a_edge2_Node000002_Node000003"><a xlink:title=" ">
<path fill="none" stroke="#63b8ff" d="M296.52,-27.62C287.96,-27.62 279.66,-27.62 272.62,-27.62"/>
<polygon fill="#63b8ff" stroke="#63b8ff" points="296.33,-31.13 306.33,-27.63 296.33,-24.13 296.33,-31.13"/>
</a>
</g>
</g>
<!-- Node4 -->
<g id="Node000004" class="node">
<title>Node4</title>
<g id="a_Node000004"><a xlink:href="class_laminas_1_1_validator_1_1_validator_chain.html#ac0bfcd8e41543ec4e34301760cc1e215" target="_top" xlink:title=" ">
<polygon fill="white" stroke="#666666" points="191,-56.25 109.75,-56.25 109.75,-37 191,-37 191,-56.25"/>
<text text-anchor="middle" x="150.38" y="-42.75" font-family="Helvetica,sans-Serif" font-size="10.00">attachByName</text>
</a>
</g>
</g>
<!-- Node3&#45;&gt;Node4 -->
<g id="edge3_Node000003_Node000004" class="edge">
<title>Node3&#45;&gt;Node4</title>
<g id="a_edge3_Node000003_Node000004"><a xlink:title=" ">
<path fill="none" stroke="#63b8ff" d="M219.14,-33.64C210.36,-35.32 200.69,-37.17 191.47,-38.94"/>
<polygon fill="#63b8ff" stroke="#63b8ff" points="219.79,-37.07 228.95,-31.75 218.47,-30.2 219.79,-37.07"/>
</a>
</g>
</g>
<!-- Node6 -->
<g id="Node000006" class="node">
<title>Node6</title>
<g id="a_Node000006"><a xlink:href="class_laminas_1_1_validator_1_1_validator_chain.html#a01a48d345d39b97b4b6d3b3acedd70a5" target="_top" xlink:title=" ">
<polygon fill="white" stroke="#666666" points="194.75,-19.25 106,-19.25 106,0 194.75,0 194.75,-19.25"/>
<text text-anchor="middle" x="150.38" y="-5.75" font-family="Helvetica,sans-Serif" font-size="10.00">prependByName</text>
</a>
</g>
</g>
<!-- Node3&#45;&gt;Node6 -->
<g id="edge5_Node000003_Node000006" class="edge">
<title>Node3&#45;&gt;Node6</title>
<g id="a_edge5_Node000003_Node000006"><a xlink:title=" ">
<path fill="none" stroke="#63b8ff" d="M219.14,-21.93C211.52,-20.55 203.23,-19.04 195.15,-17.57"/>
<polygon fill="#63b8ff" stroke="#63b8ff" points="218.49,-25.37 228.95,-23.71 219.74,-18.48 218.49,-25.37"/>
</a>
</g>
</g>
<!-- Node5 -->
<g id="Node000005" class="node">
<title>Node5</title>
<g id="a_Node000005"><a xlink:href="class_laminas_1_1_validator_1_1_validator_chain.html#a64ffb5c7cf37cb5d8b9e176a4fd0277f" target="_top" xlink:title=" ">
<polygon fill="white" stroke="#666666" points="70,-56.25 0,-56.25 0,-37 70,-37 70,-56.25"/>
<text text-anchor="middle" x="35" y="-42.75" font-family="Helvetica,sans-Serif" font-size="10.00">addByName</text>
</a>
</g>
</g>
<!-- Node4&#45;&gt;Node5 -->
<g id="edge4_Node000004_Node000005" class="edge">
<title>Node4&#45;&gt;Node5</title>
<g id="a_edge4_Node000004_Node000005"><a xlink:title=" ">
<path fill="none" stroke="#63b8ff" d="M98.11,-46.62C88.7,-46.62 79.1,-46.62 70.35,-46.62"/>
<polygon fill="#63b8ff" stroke="#63b8ff" points="97.89,-50.13 107.89,-46.63 97.89,-43.13 97.89,-50.13"/>
</a>
</g>
</g>
</g>
</svg>
