<?xml version="1.0" encoding="UTF-8" standalone="no"?>
<!DOCTYPE svg PUBLIC "-//W3C//DTD SVG 1.1//EN"
 "http://www.w3.org/Graphics/SVG/1.1/DTD/svg11.dtd">
<!-- Generated by graphviz version 10.0.1 (20240210.2158)
 -->
<!-- Title: JsonSchema Pages: 1 -->
<!--zoomable 1017 -->

<svg id="main" version="1.1" xmlns="http://www.w3.org/2000/svg" xmlns:xlink="http://www.w3.org/1999/xlink" xml:space="preserve" onload="init(evt)">
<style type="text/css"><![CDATA[
.node, .edge {opacity: 0.7;}
.node.selected, .edge.selected {opacity: 1;}
.edge:hover path { stroke: red; }
.edge:hover polygon { stroke: red; fill: red; }
]]></style>

<defs>
  <circle id="rim" cx="0" cy="0" r="7"/>
  <circle id="rim2" cx="0" cy="0" r="3.5"/>
  <g id="zoomPlus">
    <use xlink:href="#rim" fill="#404040"><set attributeName="fill" to="#808080" begin="zoomplus.mouseover" end="zoomplus.mouseout"/></use>
    <path d="M-4,0h8M0,-4v8" fill="none" stroke="white" stroke-width="1.5" pointer-events="none"/>
  </g>
  <g id="zoomMin">
    <use xlink:href="#rim" fill="#404040"><set attributeName="fill" to="#808080" begin="zoomminus.mouseover" end="zoomminus.mouseout"/></use>
    <path d="M-4,0h8" fill="none" stroke="white" stroke-width="1.5" pointer-events="none"/>
  </g>
  <g id="arrowUp" transform="translate(30 24)">
    <use xlink:href="#rim"/>
    <path pointer-events="none" fill="none" stroke="white" stroke-width="1.5" d="M0,-3.0v7 M-2.5,-0.5L0,-3.0L2.5,-0.5"/>
  </g>
  <g id="arrowRight" transform="rotate(90) translate(36 -43)">
    <use xlink:href="#rim"/>
    <path pointer-events="none" fill="none" stroke="white" stroke-width="1.5" d="M0,-3.0v7 M-2.5,-0.5L0,-3.0L2.5,-0.5"/>
  </g>
  <g id="arrowDown" transform="rotate(180) translate(-30 -48)">
    <use xlink:href="#rim"/>
    <path pointer-events="none" fill="none" stroke="white" stroke-width="1.5" d="M0,-3.0v7 M-2.5,-0.5L0,-3.0L2.5,-0.5"/>
  </g>
  <g id="arrowLeft" transform="rotate(270) translate(-36 17)">
    <use xlink:href="#rim"/>
    <path pointer-events="none" fill="none" stroke="white" stroke-width="1.5" d="M0,-3.0v7 M-2.5,-0.5L0,-3.0L2.5,-0.5"/>
  </g>
  <g id="resetDef">
    <use xlink:href="#rim2" fill="#404040"><set attributeName="fill" to="#808080" begin="reset.mouseover" end="reset.mouseout"/></use>
  </g>
</defs>
<script type="application/ecmascript">
var viewWidth = 322;
var viewHeight = 1017;
var sectionId = 'dynsection-1';
</script>
<script type="application/ecmascript" xlink:href="svg.min.js"/>
<svg id="graph" class="graph">
<g id="viewport">
<title>JsonSchema</title>
<!-- Node1 -->
<g id="Node000001" class="node">
<title>Node1</title>
<g id="a_Node000001"><a xlink:title=" ">
<polygon fill="#999999" stroke="none" points="303,-408 147,-408 147,0 303,0 303,-408"/>
<text text-anchor="start" x="196.5" y="-394.5" font-family="Helvetica,sans-Serif" font-size="10.00">JsonSchema</text>
<text text-anchor="start" x="151" y="-379.5" font-family="Helvetica,sans-Serif" font-size="10.00">+</text>
<text text-anchor="start" x="161" y="-379.5" font-family="Helvetica,sans-Serif" font-size="10.00">$id</text>
<text text-anchor="start" x="151" y="-364.5" font-family="Helvetica,sans-Serif" font-size="10.00">+</text>
<text text-anchor="start" x="161" y="-364.5" font-family="Helvetica,sans-Serif" font-size="10.00">$schema</text>
<text text-anchor="start" x="151" y="-349.5" font-family="Helvetica,sans-Serif" font-size="10.00">+</text>
<text text-anchor="start" x="161" y="-349.5" font-family="Helvetica,sans-Serif" font-size="10.00">$title</text>
<text text-anchor="start" x="151" y="-334.5" font-family="Helvetica,sans-Serif" font-size="10.00">+</text>
<text text-anchor="start" x="161" y="-334.5" font-family="Helvetica,sans-Serif" font-size="10.00">$description</text>
<text text-anchor="start" x="151" y="-319.5" font-family="Helvetica,sans-Serif" font-size="10.00">+</text>
<text text-anchor="start" x="161" y="-319.5" font-family="Helvetica,sans-Serif" font-size="10.00">$multipleOf</text>
<text text-anchor="start" x="151" y="-304.5" font-family="Helvetica,sans-Serif" font-size="10.00">+</text>
<text text-anchor="start" x="161" y="-304.5" font-family="Helvetica,sans-Serif" font-size="10.00">$maximum</text>
<text text-anchor="start" x="151" y="-289.5" font-family="Helvetica,sans-Serif" font-size="10.00">+</text>
<text text-anchor="start" x="161" y="-289.5" font-family="Helvetica,sans-Serif" font-size="10.00">$exclusiveMaximum</text>
<text text-anchor="start" x="151" y="-274.5" font-family="Helvetica,sans-Serif" font-size="10.00">+</text>
<text text-anchor="start" x="161" y="-274.5" font-family="Helvetica,sans-Serif" font-size="10.00">$minimum</text>
<text text-anchor="start" x="151" y="-259.5" font-family="Helvetica,sans-Serif" font-size="10.00">+</text>
<text text-anchor="start" x="161" y="-259.5" font-family="Helvetica,sans-Serif" font-size="10.00">$exclusiveMinimum</text>
<text text-anchor="start" x="151" y="-244.5" font-family="Helvetica,sans-Serif" font-size="10.00">+</text>
<text text-anchor="start" x="161" y="-244.5" font-family="Helvetica,sans-Serif" font-size="10.00">$maxLength</text>
<text text-anchor="start" x="161" y="-229.5" font-family="Helvetica,sans-Serif" font-size="10.00">et 30 de plus...</text>
<text text-anchor="start" x="151" y="-214.5" font-family="Helvetica,sans-Serif" font-size="10.00">+</text>
<text text-anchor="start" x="161" y="-214.5" font-family="Helvetica,sans-Serif" font-size="10.00">setId($id)</text>
<text text-anchor="start" x="151" y="-199.5" font-family="Helvetica,sans-Serif" font-size="10.00">+</text>
<text text-anchor="start" x="161" y="-199.5" font-family="Helvetica,sans-Serif" font-size="10.00">setSchema($schema)</text>
<text text-anchor="start" x="151" y="-184.5" font-family="Helvetica,sans-Serif" font-size="10.00">+</text>
<text text-anchor="start" x="161" y="-184.5" font-family="Helvetica,sans-Serif" font-size="10.00">setTitle($title)</text>
<text text-anchor="start" x="151" y="-169.5" font-family="Helvetica,sans-Serif" font-size="10.00">+</text>
<text text-anchor="start" x="161" y="-169.5" font-family="Helvetica,sans-Serif" font-size="10.00">setDescription($description)</text>
<text text-anchor="start" x="151" y="-154.5" font-family="Helvetica,sans-Serif" font-size="10.00">+</text>
<text text-anchor="start" x="161" y="-154.5" font-family="Helvetica,sans-Serif" font-size="10.00">setDefault($default)</text>
<text text-anchor="start" x="151" y="-139.5" font-family="Helvetica,sans-Serif" font-size="10.00">+</text>
<text text-anchor="start" x="161" y="-139.5" font-family="Helvetica,sans-Serif" font-size="10.00">setMultipleOf($multipleOf)</text>
<text text-anchor="start" x="151" y="-124.5" font-family="Helvetica,sans-Serif" font-size="10.00">+</text>
<text text-anchor="start" x="161" y="-124.5" font-family="Helvetica,sans-Serif" font-size="10.00">setMaximum($maximum)</text>
<text text-anchor="start" x="151" y="-109.5" font-family="Helvetica,sans-Serif" font-size="10.00">+</text>
<text text-anchor="start" x="161" y="-109.5" font-family="Helvetica,sans-Serif" font-size="10.00">setExclusiveMaximum</text>
<text text-anchor="start" x="161" y="-98.25" font-family="Helvetica,sans-Serif" font-size="10.00">($exclusiveMaximum)</text>
<text text-anchor="start" x="151" y="-83.5" font-family="Helvetica,sans-Serif" font-size="10.00">+</text>
<text text-anchor="start" x="161" y="-83.5" font-family="Helvetica,sans-Serif" font-size="10.00">setMinimum($minimum)</text>
<text text-anchor="start" x="151" y="-68.5" font-family="Helvetica,sans-Serif" font-size="10.00">+</text>
<text text-anchor="start" x="161" y="-68.5" font-family="Helvetica,sans-Serif" font-size="10.00">setExclusiveMinimum</text>
<text text-anchor="start" x="161" y="-57.25" font-family="Helvetica,sans-Serif" font-size="10.00">($exclusiveMinimum)</text>
<text text-anchor="start" x="161" y="-42.5" font-family="Helvetica,sans-Serif" font-size="10.00">et 24 de plus...</text>
<text text-anchor="start" x="151" y="-27.5" font-family="Helvetica,sans-Serif" font-size="10.00">+</text>
<text text-anchor="start" x="161" y="-27.5" font-family="Helvetica,sans-Serif" font-size="10.00">static setUpProperties</text>
<text text-anchor="start" x="161" y="-16.25" font-family="Helvetica,sans-Serif" font-size="10.00">($properties, JsonBasicSchema</text>
<text text-anchor="start" x="161" y="-5" font-family="Helvetica,sans-Serif" font-size="10.00"> $ownerSchema)</text>
<polygon fill="#666666" stroke="#666666" points="147,-391 147,-391 303,-391 303,-391 147,-391"/>
<polygon fill="#666666" stroke="#666666" points="147,-226 147,-226 159,-226 159,-226 147,-226"/>
<polygon fill="#666666" stroke="#666666" points="159,-226 159,-226 303,-226 303,-226 159,-226"/>
<polygon fill="none" stroke="#666666" points="147,0 147,-408 303,-408 303,0 147,0"/>
</a>
</g>
</g>
<!-- Node2 -->
<g id="Node000002" class="node">
<title>Node2</title>
<g id="a_Node000002"><a xlink:href="class_swaggest_1_1_json_schema_1_1_structure_1_1_class_structure.html" target="_top" xlink:title=" ">
<polygon fill="white" stroke="none" points="226.5,-571.75 151.5,-571.75 151.5,-522.75 226.5,-522.75 226.5,-571.75"/>
<text text-anchor="start" x="156.38" y="-558.25" font-family="Helvetica,sans-Serif" font-size="10.00">ClassStructure</text>
<text text-anchor="start" x="187.5" y="-543.25" font-family="Helvetica,sans-Serif" font-size="10.00"> </text>
<text text-anchor="start" x="187.5" y="-528.25" font-family="Helvetica,sans-Serif" font-size="10.00"> </text>
<polygon fill="#666666" stroke="#666666" points="151.5,-554.75 151.5,-554.75 226.5,-554.75 226.5,-554.75 151.5,-554.75"/>
<polygon fill="#666666" stroke="#666666" points="151.5,-539.75 151.5,-539.75 226.5,-539.75 226.5,-539.75 151.5,-539.75"/>
<polygon fill="none" stroke="#666666" points="151.5,-522.75 151.5,-571.75 226.5,-571.75 226.5,-522.75 151.5,-522.75"/>
</a>
</g>
</g>
<!-- Node2&#45;&gt;Node1 -->
<g id="edge1_Node000001_Node000002" class="edge">
<title>Node2&#45;&gt;Node1</title>
<g id="a_edge1_Node000001_Node000002"><a xlink:title=" ">
<path fill="none" stroke="#63b8ff" d="M192.67,-511.43C195.4,-485.58 199.37,-447.99 203.59,-407.93"/>
<polygon fill="none" stroke="#63b8ff" points="189.2,-510.98 191.63,-521.29 196.16,-511.71 189.2,-510.98"/>
</a>
</g>
</g>
<!-- Node3 -->
<g id="Node000003" class="node">
<title>Node3</title>
<g id="a_Node000003"><a xlink:href="interface_swaggest_1_1_json_schema_1_1_structure_1_1_class_structure_contract.html" target="_top" xlink:title=" ">
<polygon fill="white" stroke="none" points="182.5,-689.25 67.5,-689.25 67.5,-618.25 182.5,-618.25 182.5,-689.25"/>
<text text-anchor="start" x="73.62" y="-675.75" font-family="Helvetica,sans-Serif" font-size="10.00">ClassStructureContract</text>
<text text-anchor="start" x="123.5" y="-660.75" font-family="Helvetica,sans-Serif" font-size="10.00"> </text>
<text text-anchor="start" x="71.5" y="-645.75" font-family="Helvetica,sans-Serif" font-size="10.00">+</text>
<text text-anchor="start" x="81.5" y="-645.75" font-family="Helvetica,sans-Serif" font-size="10.00">static setUpProperties</text>
<text text-anchor="start" x="81.5" y="-634.5" font-family="Helvetica,sans-Serif" font-size="10.00">($properties, Schema </text>
<text text-anchor="start" x="81.5" y="-623.25" font-family="Helvetica,sans-Serif" font-size="10.00">$ownerSchema)</text>
<polygon fill="#666666" stroke="#666666" points="67.5,-672.25 67.5,-672.25 182.5,-672.25 182.5,-672.25 67.5,-672.25"/>
<polygon fill="#666666" stroke="#666666" points="67.5,-657.25 67.5,-657.25 182.5,-657.25 182.5,-657.25 67.5,-657.25"/>
<polygon fill="none" stroke="#666666" points="67.5,-618.25 67.5,-689.25 182.5,-689.25 182.5,-618.25 67.5,-618.25"/>
</a>
</g>
</g>
<!-- Node3&#45;&gt;Node2 -->
<g id="edge2_Node000002_Node000003" class="edge">
<title>Node3&#45;&gt;Node2</title>
<g id="a_edge2_Node000002_Node000003"><a xlink:title=" ">
<path fill="none" stroke="#63b8ff" d="M151.83,-608.93C159.67,-596.14 167.94,-582.64 174.67,-571.64"/>
<polygon fill="none" stroke="#63b8ff" points="148.98,-606.89 146.75,-617.24 154.95,-610.54 148.98,-606.89"/>
</a>
</g>
</g>
<!-- Node4 -->
<g id="Node000004" class="node">
<title>Node4</title>
<g id="a_Node000004"><a xlink:href="interface_swaggest_1_1_json_schema_1_1_structure_1_1_object_item_contract.html" target="_top" xlink:title=" ">
<polygon fill="white" stroke="none" points="201,-922.75 49,-922.75 49,-735.75 201,-735.75 201,-922.75"/>
<text text-anchor="start" x="82.25" y="-909.25" font-family="Helvetica,sans-Serif" font-size="10.00">ObjectItemContract</text>
<text text-anchor="start" x="123.5" y="-894.25" font-family="Helvetica,sans-Serif" font-size="10.00"> </text>
<text text-anchor="start" x="53" y="-879.25" font-family="Helvetica,sans-Serif" font-size="10.00">+</text>
<text text-anchor="start" x="63" y="-879.25" font-family="Helvetica,sans-Serif" font-size="10.00">getNestedObject($className)</text>
<text text-anchor="start" x="53" y="-864.25" font-family="Helvetica,sans-Serif" font-size="10.00">+</text>
<text text-anchor="start" x="63" y="-864.25" font-family="Helvetica,sans-Serif" font-size="10.00">setNestedProperty</text>
<text text-anchor="start" x="63" y="-853" font-family="Helvetica,sans-Serif" font-size="10.00">($propertyName, $value,</text>
<text text-anchor="start" x="63" y="-841.75" font-family="Helvetica,sans-Serif" font-size="10.00"> Egg $nestedEgg)</text>
<text text-anchor="start" x="53" y="-827.25" font-family="Helvetica,sans-Serif" font-size="10.00">+</text>
<text text-anchor="start" x="63" y="-827.25" font-family="Helvetica,sans-Serif" font-size="10.00">addAdditionalPropertyName</text>
<text text-anchor="start" x="63" y="-816" font-family="Helvetica,sans-Serif" font-size="10.00">($name)</text>
<text text-anchor="start" x="53" y="-801.25" font-family="Helvetica,sans-Serif" font-size="10.00">+</text>
<text text-anchor="start" x="63" y="-801.25" font-family="Helvetica,sans-Serif" font-size="10.00">setDocumentPath($path)</text>
<text text-anchor="start" x="53" y="-786.25" font-family="Helvetica,sans-Serif" font-size="10.00">+</text>
<text text-anchor="start" x="63" y="-786.25" font-family="Helvetica,sans-Serif" font-size="10.00">setFromRef($ref)</text>
<text text-anchor="start" x="53" y="-771.25" font-family="Helvetica,sans-Serif" font-size="10.00">+</text>
<text text-anchor="start" x="63" y="-771.25" font-family="Helvetica,sans-Serif" font-size="10.00">toArray()</text>
<text text-anchor="start" x="53" y="-756.25" font-family="Helvetica,sans-Serif" font-size="10.00">+</text>
<text text-anchor="start" x="63" y="-756.25" font-family="Helvetica,sans-Serif" font-size="10.00">getFromRef()</text>
<text text-anchor="start" x="53" y="-741.25" font-family="Helvetica,sans-Serif" font-size="10.00">+</text>
<text text-anchor="start" x="63" y="-741.25" font-family="Helvetica,sans-Serif" font-size="10.00">getFromRefs()</text>
<polygon fill="#666666" stroke="#666666" points="49,-905.75 49,-905.75 201,-905.75 201,-905.75 49,-905.75"/>
<polygon fill="#666666" stroke="#666666" points="49,-890.75 49,-890.75 201,-890.75 201,-890.75 49,-890.75"/>
<polygon fill="none" stroke="#666666" points="49,-735.75 49,-922.75 201,-922.75 201,-735.75 49,-735.75"/>
</a>
</g>
</g>
<!-- Node4&#45;&gt;Node3 -->
<g id="edge3_Node000003_Node000004" class="edge">
<title>Node4&#45;&gt;Node3</title>
<g id="a_edge3_Node000003_Node000004"><a xlink:title=" ">
<path fill="none" stroke="#63b8ff" d="M125,-724.65C125,-711.95 125,-699.76 125,-689.2"/>
<polygon fill="none" stroke="#63b8ff" points="121.5,-724.4 125,-734.4 128.5,-724.4 121.5,-724.4"/>
</a>
</g>
</g>
<!-- Node5 -->
<g id="Node000005" class="node">
<title>Node5</title>
<g id="a_Node000005"><a xlink:title=" ">
<polygon fill="white" stroke="none" points="66,-1008.75 0,-1008.75 0,-959.75 66,-959.75 66,-1008.75"/>
<text text-anchor="start" x="4.88" y="-995.25" font-family="Helvetica,sans-Serif" font-size="10.00">ArrayAccess</text>
<text text-anchor="start" x="31.5" y="-980.25" font-family="Helvetica,sans-Serif" font-size="10.00"> </text>
<text text-anchor="start" x="31.5" y="-965.25" font-family="Helvetica,sans-Serif" font-size="10.00"> </text>
<polygon fill="#666666" stroke="#666666" points="0,-991.75 0,-991.75 66,-991.75 66,-991.75 0,-991.75"/>
<polygon fill="#666666" stroke="#666666" points="0,-976.75 0,-976.75 66,-976.75 66,-976.75 0,-976.75"/>
<polygon fill="none" stroke="#666666" points="0,-959.75 0,-1008.75 66,-1008.75 66,-959.75 0,-959.75"/>
</a>
</g>
</g>
<!-- Node5&#45;&gt;Node4 -->
<g id="edge4_Node000004_Node000005" class="edge">
<title>Node5&#45;&gt;Node4</title>
<g id="a_edge4_Node000004_Node000005"><a xlink:title=" ">
<path fill="none" stroke="#63b8ff" d="M52.79,-950.34C57.84,-941.94 63.52,-932.49 69.42,-922.68"/>
<polygon fill="none" stroke="#63b8ff" points="49.91,-948.34 47.75,-958.72 55.91,-951.95 49.91,-948.34"/>
</a>
</g>
</g>
<!-- Node6 -->
<g id="Node000006" class="node">
<title>Node6</title>
<g id="a_Node000006"><a xlink:title=" ">
<polygon fill="white" stroke="none" points="165.5,-1008.75 84.5,-1008.75 84.5,-959.75 165.5,-959.75 165.5,-1008.75"/>
<text text-anchor="start" x="89.38" y="-995.25" font-family="Helvetica,sans-Serif" font-size="10.00">JsonSerializable</text>
<text text-anchor="start" x="123.5" y="-980.25" font-family="Helvetica,sans-Serif" font-size="10.00"> </text>
<text text-anchor="start" x="123.5" y="-965.25" font-family="Helvetica,sans-Serif" font-size="10.00"> </text>
<polygon fill="#666666" stroke="#666666" points="84.5,-991.75 84.5,-991.75 165.5,-991.75 165.5,-991.75 84.5,-991.75"/>
<polygon fill="#666666" stroke="#666666" points="84.5,-976.75 84.5,-976.75 165.5,-976.75 165.5,-976.75 84.5,-976.75"/>
<polygon fill="none" stroke="#666666" points="84.5,-959.75 84.5,-1008.75 165.5,-1008.75 165.5,-959.75 84.5,-959.75"/>
</a>
</g>
</g>
<!-- Node6&#45;&gt;Node4 -->
<g id="edge5_Node000004_Node000006" class="edge">
<title>Node6&#45;&gt;Node4</title>
<g id="a_edge5_Node000004_Node000006"><a xlink:title=" ">
<path fill="none" stroke="#63b8ff" d="M125,-948.66C125,-940.69 125,-931.84 125,-922.68"/>
<polygon fill="none" stroke="#63b8ff" points="121.5,-948.5 125,-958.5 128.5,-948.5 121.5,-948.5"/>
</a>
</g>
</g>
<!-- Node7 -->
<g id="Node000007" class="node">
<title>Node7</title>
<g id="a_Node000007"><a xlink:title=" ">
<polygon fill="white" stroke="none" points="224,-1008.75 184,-1008.75 184,-959.75 224,-959.75 224,-1008.75"/>
<text text-anchor="start" x="188.62" y="-995.25" font-family="Helvetica,sans-Serif" font-size="10.00">Iterator</text>
<text text-anchor="start" x="202.5" y="-980.25" font-family="Helvetica,sans-Serif" font-size="10.00"> </text>
<text text-anchor="start" x="202.5" y="-965.25" font-family="Helvetica,sans-Serif" font-size="10.00"> </text>
<polygon fill="#666666" stroke="#666666" points="184,-991.75 184,-991.75 224,-991.75 224,-991.75 184,-991.75"/>
<polygon fill="#666666" stroke="#666666" points="184,-976.75 184,-976.75 224,-976.75 224,-976.75 184,-976.75"/>
<polygon fill="none" stroke="#666666" points="184,-959.75 184,-1008.75 224,-1008.75 224,-959.75 184,-959.75"/>
</a>
</g>
</g>
<!-- Node7&#45;&gt;Node4 -->
<g id="edge6_Node000004_Node000007" class="edge">
<title>Node7&#45;&gt;Node4</title>
<g id="a_edge6_Node000004_Node000007"><a xlink:title=" ">
<path fill="none" stroke="#63b8ff" d="M186.86,-950.06C182.56,-941.73 177.74,-932.38 172.72,-922.68"/>
<polygon fill="none" stroke="#63b8ff" points="183.61,-951.39 191.31,-958.67 189.83,-948.18 183.61,-951.39"/>
</a>
</g>
</g>
<!-- Node8 -->
<g id="Node000008" class="node">
<title>Node8</title>
<g id="a_Node000008"><a xlink:href="interface_swaggest_1_1_json_schema_1_1_structure_1_1_with_resolved_value.html" target="_top" xlink:title=" ">
<polygon fill="white" stroke="none" points="305.5,-698.75 200.5,-698.75 200.5,-608.75 305.5,-608.75 305.5,-698.75"/>
<text text-anchor="start" x="210.25" y="-685.25" font-family="Helvetica,sans-Serif" font-size="10.00">WithResolvedValue</text>
<text text-anchor="start" x="251.5" y="-670.25" font-family="Helvetica,sans-Serif" font-size="10.00"> </text>
<text text-anchor="start" x="204.5" y="-655.25" font-family="Helvetica,sans-Serif" font-size="10.00">+</text>
<text text-anchor="start" x="214.5" y="-655.25" font-family="Helvetica,sans-Serif" font-size="10.00">setResolvedValue(</text>
<text text-anchor="start" x="214.5" y="-644" font-family="Helvetica,sans-Serif" font-size="10.00">$value)</text>
<text text-anchor="start" x="204.5" y="-629.25" font-family="Helvetica,sans-Serif" font-size="10.00">+</text>
<text text-anchor="start" x="214.5" y="-629.25" font-family="Helvetica,sans-Serif" font-size="10.00">getResolvedValue()</text>
<text text-anchor="start" x="204.5" y="-614.25" font-family="Helvetica,sans-Serif" font-size="10.00">+</text>
<text text-anchor="start" x="214.5" y="-614.25" font-family="Helvetica,sans-Serif" font-size="10.00">hasResolvedValue()</text>
<polygon fill="#666666" stroke="#666666" points="200.5,-681.75 200.5,-681.75 305.5,-681.75 305.5,-681.75 200.5,-681.75"/>
<polygon fill="#666666" stroke="#666666" points="200.5,-666.75 200.5,-666.75 305.5,-666.75 305.5,-666.75 200.5,-666.75"/>
<polygon fill="none" stroke="#666666" points="200.5,-608.75 200.5,-698.75 305.5,-698.75 305.5,-608.75 200.5,-608.75"/>
</a>
</g>
</g>
<!-- Node8&#45;&gt;Node2 -->
<g id="edge7_Node000002_Node000008" class="edge">
<title>Node8&#45;&gt;Node2</title>
<g id="a_edge7_Node000002_Node000008"><a xlink:title=" ">
<path fill="none" stroke="#63b8ff" d="M220.27,-599.31C214.29,-589.55 208.35,-579.84 203.27,-571.55"/>
<polygon fill="none" stroke="#63b8ff" points="217.23,-601.05 225.44,-607.75 223.2,-597.39 217.23,-601.05"/>
</a>
</g>
</g>
<!-- Node9 -->
<g id="Node000009" class="node">
<title>Node9</title>
<g id="a_Node000009"><a xlink:title=" ">
<polygon fill="white" stroke="none" points="279,-571.75 245,-571.75 245,-522.75 279,-522.75 279,-571.75"/>
<text text-anchor="start" x="250" y="-558.25" font-family="Helvetica,sans-Serif" font-size="10.00">const</text>
<text text-anchor="start" x="260.5" y="-543.25" font-family="Helvetica,sans-Serif" font-size="10.00"> </text>
<text text-anchor="start" x="260.5" y="-528.25" font-family="Helvetica,sans-Serif" font-size="10.00"> </text>
<polygon fill="#666666" stroke="#666666" points="245,-554.75 245,-554.75 279,-554.75 279,-554.75 245,-554.75"/>
<polygon fill="#666666" stroke="#666666" points="245,-539.75 245,-539.75 279,-539.75 279,-539.75 245,-539.75"/>
<polygon fill="none" stroke="#666666" points="245,-522.75 245,-571.75 279,-571.75 279,-522.75 245,-522.75"/>
</a>
</g>
</g>
<!-- Node9&#45;&gt;Node1 -->
<g id="edge8_Node000001_Node000009" class="edge">
<title>Node9&#45;&gt;Node1</title>
<g id="a_edge8_Node000001_Node000009"><a xlink:title=" ">
<path fill="none" stroke="#63b8ff" d="M259.46,-522.79C256.96,-499.8 252.89,-462.25 248.41,-420.88"/>
<polygon fill="none" stroke="#63b8ff" points="248.39,-420.76 243.77,-415.22 247.1,-408.83 251.72,-414.36 248.39,-420.76"/>
</a>
</g>
<text text-anchor="middle" x="285.5" y="-495.25" font-family="Helvetica,sans-Serif" font-size="10.00" fill="grey"> +BOOLEAN</text>
<text text-anchor="middle" x="285.5" y="-484" font-family="Helvetica,sans-Serif" font-size="10.00" fill="grey">+INTEGER</text>
<text text-anchor="middle" x="285.5" y="-472.75" font-family="Helvetica,sans-Serif" font-size="10.00" fill="grey">+NULL</text>
<text text-anchor="middle" x="285.5" y="-461.5" font-family="Helvetica,sans-Serif" font-size="10.00" fill="grey">+NUMBER</text>
<text text-anchor="middle" x="285.5" y="-450.25" font-family="Helvetica,sans-Serif" font-size="10.00" fill="grey">+OBJECT</text>
<text text-anchor="middle" x="285.5" y="-439" font-family="Helvetica,sans-Serif" font-size="10.00" fill="grey">+STRING</text>
<text text-anchor="middle" x="285.5" y="-427.75" font-family="Helvetica,sans-Serif" font-size="10.00" fill="grey">+_ARRAY</text>
</g>
</g>
</svg>

<g id="navigator" transform="translate(0 0)" fill="#404254">
  <rect fill="#f2f5e9" fill-opacity="0.5" stroke="#606060" stroke-width=".5" x="0" y="0" width="60" height="60"/>
  <use id="zoomplus" xlink:href="#zoomPlus" x="17" y="9" onmousedown="handleZoom(evt,'in')"/>
  <use id="zoomminus" xlink:href="#zoomMin" x="42" y="9" onmousedown="handleZoom(evt,'out')"/>
  <use id="reset" xlink:href="#resetDef" x="30" y="36" onmousedown="handleReset()"/>
   <use id="arrowup" xlink:href="#arrowUp" x="0" y="0" onmousedown="handlePan(0,-1)"/>
  <use id="arrowright" xlink:href="#arrowRight" x="0" y="0" onmousedown="handlePan(1,0)"/>
  <use id="arrowdown" xlink:href="#arrowDown" x="0" y="0" onmousedown="handlePan(0,1)"/>
  <use id="arrowleft" xlink:href="#arrowLeft" x="0" y="0" onmousedown="handlePan(-1,0)"/>
</g>
<svg viewBox="0 0 15 15" width="100%" height="30px" preserveAspectRatio="xMaxYMin meet">
 <g id="arrow_out" transform="scale(0.3 0.3)">
  <a xlink:href="class_swaggest_1_1_json_schema_1_1_json_schema__coll__graph_org.svg" target="_base">
   <rect id="button" ry="5" rx="5" y="6" x="6" height="38" width="38"
        fill="#f2f5e9" fill-opacity="0.5" stroke="#606060" stroke-width="1.0"/>
   <path id="arrow"
     d="M 11.500037,31.436501 C 11.940474,20.09759 22.043105,11.32322 32.158766,21.979434 L 37.068811,17.246167 C 37.068811,17.246167 37.088388,32 37.088388,32 L 22.160133,31.978069 C 22.160133,31.978069 26.997745,27.140456 26.997745,27.140456 C 18.528582,18.264221 13.291696,25.230495 11.500037,31.436501 z"
     style="fill:#404040;"/>
  </a>
 </g>
</svg>

<style type='text/css'>
<![CDATA[
[data-mouse-over-selected='false'] { opacity: 0.7; }
[data-mouse-over-selected='true']  { opacity: 1.0; }
]]>
</style>
<script type="application/ecmascript"><![CDATA[
document.addEventListener('DOMContentLoaded', (event) => {
  highlightEdges();
  highlightAdjacentNodes();
});
]]></script>
</svg>
