<?xml version="1.0" encoding="UTF-8" standalone="no"?>
<!DOCTYPE svg PUBLIC "-//W3C//DTD SVG 1.1//EN"
 "http://www.w3.org/Graphics/SVG/1.1/DTD/svg11.dtd">
<!-- Generated by graphviz version 10.0.1 (20240210.2158)
 -->
<!-- Title: getMassiveActionsForItem Pages: 1 -->
<svg width="408pt" height="140pt"
 viewBox="0.00 0.00 407.75 140.25" xmlns="http://www.w3.org/2000/svg" xmlns:xlink="http://www.w3.org/1999/xlink">

<svg id="main" version="1.1" xmlns="http://www.w3.org/2000/svg" xmlns:xlink="http://www.w3.org/1999/xlink" xml:space="preserve" onload="init(evt)">
<style type="text/css"><![CDATA[
.node, .edge {opacity: 0.7;}
.node.selected, .edge.selected {opacity: 1;}
.edge:hover path { stroke: red; }
.edge:hover polygon { stroke: red; fill: red; }
]]></style>
<script type="application/ecmascript" xlink:href="svg.min.js"/>
<svg id="graph" class="graph">
<g id="graph0" class="graph" transform="scale(1 1) rotate(0) translate(4 136.25)">
<title>getMassiveActionsForItem</title>
<!-- Node1 -->
<g id="Node000001" class="node">
<title>Node1</title>
<g id="a_Node000001"><a xlink:title=" ">
<polygon fill="#999999" stroke="#666666" points="133,-75.25 0,-75.25 0,-56 133,-56 133,-75.25"/>
<text text-anchor="middle" x="66.5" y="-61.75" font-family="Helvetica,sans-Serif" font-size="10.00">getMassiveActionsForItem</text>
</a>
</g>
</g>
<!-- Node2 -->
<g id="Node000002" class="node">
<title>Node2</title>
<g id="a_Node000002"><a xlink:href="class_common_d_b_t_m.html#a1ad0e84aef9bfb7fe28ac6fcafa1b14b" target="_top" xlink:title=" ">
<polygon fill="white" stroke="#666666" points="259.62,-132.25 194.12,-132.25 194.12,-113 259.62,-113 259.62,-132.25"/>
<text text-anchor="middle" x="226.88" y="-118.75" font-family="Helvetica,sans-Serif" font-size="10.00">getEntityID</text>
</a>
</g>
</g>
<!-- Node1&#45;&gt;Node2 -->
<g id="edge1_Node000001_Node000002" class="edge">
<title>Node1&#45;&gt;Node2</title>
<g id="a_edge1_Node000001_Node000002"><a xlink:title=" ">
<path fill="none" stroke="#63b8ff" d="M95.45,-75.68C120.93,-84.85 158.81,-98.49 187.19,-108.7"/>
<polygon fill="#63b8ff" stroke="#63b8ff" points="185.92,-111.96 196.51,-112.06 188.29,-105.38 185.92,-111.96"/>
</a>
</g>
</g>
<!-- Node3 -->
<g id="Node000003" class="node">
<title>Node3</title>
<g id="a_Node000003"><a xlink:href="class_common_d_b_t_m.html#abd1fba5cbce28a1d30906bebf5b88ead" target="_top" xlink:title=" ">
<polygon fill="white" stroke="#666666" points="399.75,-113.25 320.75,-113.25 320.75,-94 399.75,-94 399.75,-113.25"/>
<text text-anchor="middle" x="360.25" y="-99.75" font-family="Helvetica,sans-Serif" font-size="10.00">isEntityAssign</text>
</a>
</g>
</g>
<!-- Node1&#45;&gt;Node3 -->
<g id="edge5_Node000001_Node000003" class="edge">
<title>Node1&#45;&gt;Node3</title>
<g id="a_edge5_Node000001_Node000003"><a xlink:title=" ">
<path fill="none" stroke="#63b8ff" d="M133.34,-74.2C186.71,-81.15 260.77,-90.8 309.34,-97.12"/>
<polygon fill="#63b8ff" stroke="#63b8ff" points="308.63,-100.56 319,-98.38 309.54,-93.62 308.63,-100.56"/>
</a>
</g>
</g>
<!-- Node4 -->
<g id="Node000004" class="node">
<title>Node4</title>
<g id="a_Node000004"><a xlink:href="class_common_d_b_t_m.html#a30dd7fff4fec7a39f9be9d27d4b22a59" target="_top" xlink:title=" ">
<polygon fill="white" stroke="#666666" points="246.88,-56.25 206.88,-56.25 206.88,-37 246.88,-37 246.88,-56.25"/>
<text text-anchor="middle" x="226.88" y="-42.75" font-family="Helvetica,sans-Serif" font-size="10.00">getID</text>
</a>
</g>
</g>
<!-- Node1&#45;&gt;Node4 -->
<g id="edge3_Node000001_Node000004" class="edge">
<title>Node1&#45;&gt;Node4</title>
<g id="a_edge3_Node000001_Node000004"><a xlink:title=" ">
<path fill="none" stroke="#63b8ff" d="M133.29,-57.73C154.83,-55.15 177.74,-52.4 195.38,-50.28"/>
<polygon fill="#63b8ff" stroke="#63b8ff" points="195.65,-53.78 205.16,-49.11 194.82,-46.83 195.65,-53.78"/>
</a>
</g>
</g>
<!-- Node5 -->
<g id="Node000005" class="node">
<title>Node5</title>
<g id="a_Node000005"><a xlink:href="class_common_g_l_p_i.html#a3dadfbfaa3d8e3b5fe01a60e28640ddb" target="_top" xlink:title=" ">
<polygon fill="white" stroke="#666666" points="284.75,-19.25 169,-19.25 169,0 284.75,0 284.75,-19.25"/>
<text text-anchor="middle" x="226.88" y="-5.75" font-family="Helvetica,sans-Serif" font-size="10.00">CommonGLPI\getType</text>
</a>
</g>
</g>
<!-- Node1&#45;&gt;Node5 -->
<g id="edge4_Node000001_Node000005" class="edge">
<title>Node1&#45;&gt;Node5</title>
<g id="a_edge4_Node000001_Node000005"><a xlink:title=" ">
<path fill="none" stroke="#63b8ff" d="M93.23,-55.57C113.67,-47.69 143.03,-36.59 169,-27.62 173.23,-26.17 177.65,-24.69 182.08,-23.23"/>
<polygon fill="#63b8ff" stroke="#63b8ff" points="183.11,-26.58 191.56,-20.18 180.97,-19.92 183.11,-26.58"/>
</a>
</g>
</g>
<!-- Node2&#45;&gt;Node3 -->
<g id="edge2_Node000002_Node000003" class="edge">
<title>Node2&#45;&gt;Node3</title>
<g id="a_edge2_Node000002_Node000003"><a xlink:title=" ">
<path fill="none" stroke="#63b8ff" d="M260.01,-117.98C274.83,-115.83 292.75,-113.24 309.27,-110.85"/>
<polygon fill="#63b8ff" stroke="#63b8ff" points="309.53,-114.35 318.92,-109.46 308.53,-107.42 309.53,-114.35"/>
</a>
</g>
</g>
</g>
</svg>
</svg>

<style type='text/css'>
<![CDATA[
[data-mouse-over-selected='false'] { opacity: 0.7; }
[data-mouse-over-selected='true']  { opacity: 1.0; }
]]>
</style>
<script type="application/ecmascript"><![CDATA[
document.addEventListener('DOMContentLoaded', (event) => {
  highlightEdges();
  highlightAdjacentNodes();
});
]]></script>
</svg>
