<?xml version="1.0" encoding="UTF-8" standalone="no"?>
<!DOCTYPE svg PUBLIC "-//W3C//DTD SVG 1.1//EN"
 "http://www.w3.org/Graphics/SVG/1.1/DTD/svg11.dtd">
<!-- Generated by graphviz version 10.0.1 (20240210.2158)
 -->
<!-- Title: RequestException Pages: 1 -->
<!--zoomable 599 -->

<svg id="main" version="1.1" xmlns="http://www.w3.org/2000/svg" xmlns:xlink="http://www.w3.org/1999/xlink" xml:space="preserve" onload="init(evt)">
<style type="text/css"><![CDATA[
.node, .edge {opacity: 0.7;}
.node.selected, .edge.selected {opacity: 1;}
.edge:hover path { stroke: red; }
.edge:hover polygon { stroke: red; fill: red; }
]]></style>

<defs>
  <circle id="rim" cx="0" cy="0" r="7"/>
  <circle id="rim2" cx="0" cy="0" r="3.5"/>
  <g id="zoomPlus">
    <use xlink:href="#rim" fill="#404040"><set attributeName="fill" to="#808080" begin="zoomplus.mouseover" end="zoomplus.mouseout"/></use>
    <path d="M-4,0h8M0,-4v8" fill="none" stroke="white" stroke-width="1.5" pointer-events="none"/>
  </g>
  <g id="zoomMin">
    <use xlink:href="#rim" fill="#404040"><set attributeName="fill" to="#808080" begin="zoomminus.mouseover" end="zoomminus.mouseout"/></use>
    <path d="M-4,0h8" fill="none" stroke="white" stroke-width="1.5" pointer-events="none"/>
  </g>
  <g id="arrowUp" transform="translate(30 24)">
    <use xlink:href="#rim"/>
    <path pointer-events="none" fill="none" stroke="white" stroke-width="1.5" d="M0,-3.0v7 M-2.5,-0.5L0,-3.0L2.5,-0.5"/>
  </g>
  <g id="arrowRight" transform="rotate(90) translate(36 -43)">
    <use xlink:href="#rim"/>
    <path pointer-events="none" fill="none" stroke="white" stroke-width="1.5" d="M0,-3.0v7 M-2.5,-0.5L0,-3.0L2.5,-0.5"/>
  </g>
  <g id="arrowDown" transform="rotate(180) translate(-30 -48)">
    <use xlink:href="#rim"/>
    <path pointer-events="none" fill="none" stroke="white" stroke-width="1.5" d="M0,-3.0v7 M-2.5,-0.5L0,-3.0L2.5,-0.5"/>
  </g>
  <g id="arrowLeft" transform="rotate(270) translate(-36 17)">
    <use xlink:href="#rim"/>
    <path pointer-events="none" fill="none" stroke="white" stroke-width="1.5" d="M0,-3.0v7 M-2.5,-0.5L0,-3.0L2.5,-0.5"/>
  </g>
  <g id="resetDef">
    <use xlink:href="#rim2" fill="#404040"><set attributeName="fill" to="#808080" begin="reset.mouseover" end="reset.mouseout"/></use>
  </g>
</defs>
<script type="application/ecmascript">
var viewWidth = 292;
var viewHeight = 599;
var sectionId = 'dynsection-1';
</script>
<script type="application/ecmascript" xlink:href="svg.min.js"/>
<svg id="graph" class="graph">
<g id="viewport">
<title>RequestException</title>
<!-- Node1 -->
<g id="Node000001" class="node">
<title>Node1</title>
<g id="a_Node000001"><a xlink:title=" ">
<polygon fill="#999999" stroke="none" points="283.5,-251 28.5,-251 28.5,0 283.5,0 283.5,-251"/>
<text text-anchor="start" x="115.88" y="-237.5" font-family="Helvetica,sans-Serif" font-size="10.00">RequestException</text>
<text text-anchor="start" x="154.5" y="-222.5" font-family="Helvetica,sans-Serif" font-size="10.00"> </text>
<text text-anchor="start" x="32.5" y="-207.5" font-family="Helvetica,sans-Serif" font-size="10.00">+</text>
<text text-anchor="start" x="42.5" y="-207.5" font-family="Helvetica,sans-Serif" font-size="10.00">__construct(string</text>
<text text-anchor="start" x="42.5" y="-196.25" font-family="Helvetica,sans-Serif" font-size="10.00"> $message, RequestInterface</text>
<text text-anchor="start" x="42.5" y="-185" font-family="Helvetica,sans-Serif" font-size="10.00"> $request, ResponseInterface</text>
<text text-anchor="start" x="42.5" y="-173.75" font-family="Helvetica,sans-Serif" font-size="10.00"> $response=null, \Throwable</text>
<text text-anchor="start" x="42.5" y="-162.5" font-family="Helvetica,sans-Serif" font-size="10.00"> $previous=null, array $handlerContext=[])</text>
<text text-anchor="start" x="32.5" y="-147.5" font-family="Helvetica,sans-Serif" font-size="10.00">+</text>
<text text-anchor="start" x="42.5" y="-147.5" font-family="Helvetica,sans-Serif" font-size="10.00">getRequest()</text>
<text text-anchor="start" x="32.5" y="-132.5" font-family="Helvetica,sans-Serif" font-size="10.00">+</text>
<text text-anchor="start" x="42.5" y="-132.5" font-family="Helvetica,sans-Serif" font-size="10.00">getResponse()</text>
<text text-anchor="start" x="32.5" y="-117.5" font-family="Helvetica,sans-Serif" font-size="10.00">+</text>
<text text-anchor="start" x="42.5" y="-117.5" font-family="Helvetica,sans-Serif" font-size="10.00">hasResponse()</text>
<text text-anchor="start" x="32.5" y="-102.5" font-family="Helvetica,sans-Serif" font-size="10.00">+</text>
<text text-anchor="start" x="42.5" y="-102.5" font-family="Helvetica,sans-Serif" font-size="10.00">getHandlerContext()</text>
<text text-anchor="start" x="32.5" y="-87.5" font-family="Helvetica,sans-Serif" font-size="10.00">+</text>
<text text-anchor="start" x="42.5" y="-87.5" font-family="Helvetica,sans-Serif" font-size="10.00">static wrapException</text>
<text text-anchor="start" x="42.5" y="-76.25" font-family="Helvetica,sans-Serif" font-size="10.00">(RequestInterface $request,</text>
<text text-anchor="start" x="42.5" y="-65" font-family="Helvetica,sans-Serif" font-size="10.00"> \Throwable $e)</text>
<text text-anchor="start" x="32.5" y="-50.5" font-family="Helvetica,sans-Serif" font-size="10.00">+</text>
<text text-anchor="start" x="42.5" y="-50.5" font-family="Helvetica,sans-Serif" font-size="10.00">static create(RequestInterface</text>
<text text-anchor="start" x="42.5" y="-39.25" font-family="Helvetica,sans-Serif" font-size="10.00"> $request, ResponseInterface</text>
<text text-anchor="start" x="42.5" y="-28" font-family="Helvetica,sans-Serif" font-size="10.00"> $response=null, \Throwable</text>
<text text-anchor="start" x="42.5" y="-16.75" font-family="Helvetica,sans-Serif" font-size="10.00"> $previous=null, array $handlerContext</text>
<text text-anchor="start" x="42.5" y="-5.5" font-family="Helvetica,sans-Serif" font-size="10.00">=[], BodySummarizerInterface $bodySummarizer=null)</text>
<polygon fill="#666666" stroke="#666666" points="28.5,-234 28.5,-234 283.5,-234 283.5,-234 28.5,-234"/>
<polygon fill="#666666" stroke="#666666" points="28.5,-219 28.5,-219 283.5,-219 283.5,-219 28.5,-219"/>
<polygon fill="none" stroke="#666666" points="28.5,0 28.5,-251 283.5,-251 283.5,0 28.5,0"/>
</a>
</g>
</g>
<!-- Node2 -->
<g id="Node000002" class="node">
<title>Node2</title>
<g id="a_Node000002"><a xlink:href="class_guzzle_http_1_1_exception_1_1_transfer_exception.html" target="_top" xlink:title=" ">
<polygon fill="white" stroke="none" points="137.5,-336 48.5,-336 48.5,-287 137.5,-287 137.5,-336"/>
<text text-anchor="start" x="53.25" y="-322.5" font-family="Helvetica,sans-Serif" font-size="10.00">TransferException</text>
<text text-anchor="start" x="91.5" y="-307.5" font-family="Helvetica,sans-Serif" font-size="10.00"> </text>
<text text-anchor="start" x="91.5" y="-292.5" font-family="Helvetica,sans-Serif" font-size="10.00"> </text>
<polygon fill="#666666" stroke="#666666" points="48.5,-319 48.5,-319 137.5,-319 137.5,-319 48.5,-319"/>
<polygon fill="#666666" stroke="#666666" points="48.5,-304 48.5,-304 137.5,-304 137.5,-304 48.5,-304"/>
<polygon fill="none" stroke="#666666" points="48.5,-287 48.5,-336 137.5,-336 137.5,-287 48.5,-287"/>
</a>
</g>
</g>
<!-- Node2&#45;&gt;Node1 -->
<g id="edge1_Node000001_Node000002" class="edge">
<title>Node2&#45;&gt;Node1</title>
<g id="a_edge1_Node000001_Node000002"><a xlink:title=" ">
<path fill="none" stroke="#63b8ff" d="M104.63,-276.53C107.29,-268.75 110.28,-260.04 113.43,-250.84"/>
<polygon fill="none" stroke="#63b8ff" points="101.4,-275.17 101.47,-285.76 108.02,-277.44 101.4,-275.17"/>
</a>
</g>
</g>
<!-- Node3 -->
<g id="Node000003" class="node">
<title>Node3</title>
<g id="a_Node000003"><a xlink:title=" ">
<polygon fill="white" stroke="none" points="90,-421 0,-421 0,-372 90,-372 90,-421"/>
<text text-anchor="start" x="4.88" y="-407.5" font-family="Helvetica,sans-Serif" font-size="10.00">RuntimeException</text>
<text text-anchor="start" x="43.5" y="-392.5" font-family="Helvetica,sans-Serif" font-size="10.00"> </text>
<text text-anchor="start" x="43.5" y="-377.5" font-family="Helvetica,sans-Serif" font-size="10.00"> </text>
<polygon fill="#666666" stroke="#666666" points="0,-404 0,-404 90,-404 90,-404 0,-404"/>
<polygon fill="#666666" stroke="#666666" points="0,-389 0,-389 90,-389 90,-389 0,-389"/>
<polygon fill="none" stroke="#666666" points="0,-372 0,-421 90,-421 90,-372 0,-372"/>
</a>
</g>
</g>
<!-- Node3&#45;&gt;Node2 -->
<g id="edge2_Node000002_Node000003" class="edge">
<title>Node3&#45;&gt;Node2</title>
<g id="a_edge2_Node000002_Node000003"><a xlink:title=" ">
<path fill="none" stroke="#63b8ff" d="M64.03,-362.59C69.22,-353.62 74.73,-344.09 79.53,-335.78"/>
<polygon fill="none" stroke="#63b8ff" points="61.1,-360.66 59.13,-371.07 67.16,-364.17 61.1,-360.66"/>
</a>
</g>
</g>
<!-- Node4 -->
<g id="Node000004" class="node">
<title>Node4</title>
<g id="a_Node000004"><a xlink:href="interface_guzzle_http_1_1_exception_1_1_guzzle_exception.html" target="_top" xlink:title=" ">
<polygon fill="white" stroke="none" points="192,-421 108,-421 108,-372 192,-372 192,-421"/>
<text text-anchor="start" x="112.88" y="-407.5" font-family="Helvetica,sans-Serif" font-size="10.00">GuzzleException</text>
<text text-anchor="start" x="148.5" y="-392.5" font-family="Helvetica,sans-Serif" font-size="10.00"> </text>
<text text-anchor="start" x="148.5" y="-377.5" font-family="Helvetica,sans-Serif" font-size="10.00"> </text>
<polygon fill="#666666" stroke="#666666" points="108,-404 108,-404 192,-404 192,-404 108,-404"/>
<polygon fill="#666666" stroke="#666666" points="108,-389 108,-389 192,-389 192,-389 108,-389"/>
<polygon fill="none" stroke="#666666" points="108,-372 108,-421 192,-421 192,-372 108,-372"/>
</a>
</g>
</g>
<!-- Node4&#45;&gt;Node2 -->
<g id="edge3_Node000002_Node000004" class="edge">
<title>Node4&#45;&gt;Node2</title>
<g id="a_edge3_Node000002_Node000004"><a xlink:title=" ">
<path fill="none" stroke="#63b8ff" d="M127.79,-363.17C121.52,-354.03 114.82,-344.27 108.99,-335.78"/>
<polygon fill="none" stroke="#63b8ff" points="124.72,-364.87 133.27,-371.13 130.49,-360.91 124.72,-364.87"/>
</a>
</g>
</g>
<!-- Node5 -->
<g id="Node000005" class="node">
<title>Node5</title>
<g id="a_Node000005"><a xlink:href="interface_psr_1_1_http_1_1_client_1_1_client_exception_interface.html" target="_top" xlink:title=" ">
<polygon fill="white" stroke="none" points="243.5,-506 126.5,-506 126.5,-457 243.5,-457 243.5,-506"/>
<text text-anchor="start" x="131.38" y="-492.5" font-family="Helvetica,sans-Serif" font-size="10.00">ClientExceptionInterface</text>
<text text-anchor="start" x="183.5" y="-477.5" font-family="Helvetica,sans-Serif" font-size="10.00"> </text>
<text text-anchor="start" x="183.5" y="-462.5" font-family="Helvetica,sans-Serif" font-size="10.00"> </text>
<polygon fill="#666666" stroke="#666666" points="126.5,-489 126.5,-489 243.5,-489 243.5,-489 126.5,-489"/>
<polygon fill="#666666" stroke="#666666" points="126.5,-474 126.5,-474 243.5,-474 243.5,-474 126.5,-474"/>
<polygon fill="none" stroke="#666666" points="126.5,-457 126.5,-506 243.5,-506 243.5,-457 126.5,-457"/>
</a>
</g>
</g>
<!-- Node5&#45;&gt;Node4 -->
<g id="edge4_Node000004_Node000005" class="edge">
<title>Node5&#45;&gt;Node4</title>
<g id="a_edge4_Node000004_Node000005"><a xlink:title=" ">
<path fill="none" stroke="#63b8ff" d="M170.88,-447.01C167.17,-438.21 163.25,-428.92 159.82,-420.78"/>
<polygon fill="none" stroke="#63b8ff" points="167.55,-448.13 174.66,-455.99 174,-445.41 167.55,-448.13"/>
</a>
</g>
</g>
<!-- Node7 -->
<g id="Node000007" class="node">
<title>Node7</title>
<g id="a_Node000007"><a xlink:href="interface_psr_1_1_http_1_1_client_1_1_request_exception_interface.html" target="_top" xlink:title=" ">
<polygon fill="white" stroke="none" points="284,-336 156,-336 156,-287 284,-287 284,-336"/>
<text text-anchor="start" x="160.75" y="-322.5" font-family="Helvetica,sans-Serif" font-size="10.00">RequestExceptionInterface</text>
<text text-anchor="start" x="218.5" y="-307.5" font-family="Helvetica,sans-Serif" font-size="10.00"> </text>
<text text-anchor="start" x="173.5" y="-292.5" font-family="Helvetica,sans-Serif" font-size="10.00">+</text>
<text text-anchor="start" x="197" y="-292.5" font-family="Helvetica,sans-Serif" font-size="10.00">getRequest()</text>
<polygon fill="#666666" stroke="#666666" points="156,-319 156,-319 284,-319 284,-319 156,-319"/>
<polygon fill="#666666" stroke="#666666" points="156,-304 156,-304 284,-304 284,-304 156,-304"/>
<polygon fill="none" stroke="#666666" points="156,-287 156,-336 284,-336 284,-287 156,-287"/>
</a>
</g>
</g>
<!-- Node5&#45;&gt;Node7 -->
<g id="edge7_Node000007_Node000005" class="edge">
<title>Node5&#45;&gt;Node7</title>
<g id="a_edge7_Node000007_Node000005"><a xlink:title=" ">
<path fill="none" stroke="#63b8ff" d="M194.82,-446.07C197,-437.89 199.19,-429.16 201,-421 207.45,-391.87 213.1,-357.95 216.52,-335.9"/>
<polygon fill="none" stroke="#63b8ff" points="191.45,-445.13 192.19,-455.7 198.2,-446.98 191.45,-445.13"/>
</a>
</g>
</g>
<!-- Node6 -->
<g id="Node000006" class="node">
<title>Node6</title>
<g id="a_Node000006"><a xlink:title=" ">
<polygon fill="white" stroke="none" points="212.5,-591 157.5,-591 157.5,-542 212.5,-542 212.5,-591"/>
<text text-anchor="start" x="162.5" y="-577.5" font-family="Helvetica,sans-Serif" font-size="10.00">Throwable</text>
<text text-anchor="start" x="183.5" y="-562.5" font-family="Helvetica,sans-Serif" font-size="10.00"> </text>
<text text-anchor="start" x="183.5" y="-547.5" font-family="Helvetica,sans-Serif" font-size="10.00"> </text>
<polygon fill="#666666" stroke="#666666" points="157.5,-574 157.5,-574 212.5,-574 212.5,-574 157.5,-574"/>
<polygon fill="#666666" stroke="#666666" points="157.5,-559 157.5,-559 212.5,-559 212.5,-559 157.5,-559"/>
<polygon fill="none" stroke="#666666" points="157.5,-542 157.5,-591 212.5,-591 212.5,-542 157.5,-542"/>
</a>
</g>
</g>
<!-- Node6&#45;&gt;Node5 -->
<g id="edge5_Node000005_Node000006" class="edge">
<title>Node6&#45;&gt;Node5</title>
<g id="a_edge5_Node000005_Node000006"><a xlink:title=" ">
<path fill="none" stroke="#63b8ff" d="M185,-531.14C185,-522.6 185,-513.65 185,-505.78"/>
<polygon fill="none" stroke="#63b8ff" points="181.5,-530.87 185,-540.87 188.5,-530.87 181.5,-530.87"/>
</a>
</g>
</g>
<!-- Node7&#45;&gt;Node1 -->
<g id="edge6_Node000001_Node000007" class="edge">
<title>Node7&#45;&gt;Node1</title>
<g id="a_edge6_Node000001_Node000007"><a xlink:title=" ">
<path fill="none" stroke="#63b8ff" d="M208.18,-276.53C205.48,-268.75 202.45,-260.04 199.25,-250.84"/>
<polygon fill="none" stroke="#63b8ff" points="204.81,-277.47 211.4,-285.77 211.42,-275.17 204.81,-277.47"/>
</a>
</g>
</g>
</g>
</svg>

<g id="navigator" transform="translate(0 0)" fill="#404254">
  <rect fill="#f2f5e9" fill-opacity="0.5" stroke="#606060" stroke-width=".5" x="0" y="0" width="60" height="60"/>
  <use id="zoomplus" xlink:href="#zoomPlus" x="17" y="9" onmousedown="handleZoom(evt,'in')"/>
  <use id="zoomminus" xlink:href="#zoomMin" x="42" y="9" onmousedown="handleZoom(evt,'out')"/>
  <use id="reset" xlink:href="#resetDef" x="30" y="36" onmousedown="handleReset()"/>
   <use id="arrowup" xlink:href="#arrowUp" x="0" y="0" onmousedown="handlePan(0,-1)"/>
  <use id="arrowright" xlink:href="#arrowRight" x="0" y="0" onmousedown="handlePan(1,0)"/>
  <use id="arrowdown" xlink:href="#arrowDown" x="0" y="0" onmousedown="handlePan(0,1)"/>
  <use id="arrowleft" xlink:href="#arrowLeft" x="0" y="0" onmousedown="handlePan(-1,0)"/>
</g>
<svg viewBox="0 0 15 15" width="100%" height="30px" preserveAspectRatio="xMaxYMin meet">
 <g id="arrow_out" transform="scale(0.3 0.3)">
  <a xlink:href="class_guzzle_http_1_1_exception_1_1_request_exception__coll__graph_org.svg" target="_base">
   <rect id="button" ry="5" rx="5" y="6" x="6" height="38" width="38"
        fill="#f2f5e9" fill-opacity="0.5" stroke="#606060" stroke-width="1.0"/>
   <path id="arrow"
     d="M 11.500037,31.436501 C 11.940474,20.09759 22.043105,11.32322 32.158766,21.979434 L 37.068811,17.246167 C 37.068811,17.246167 37.088388,32 37.088388,32 L 22.160133,31.978069 C 22.160133,31.978069 26.997745,27.140456 26.997745,27.140456 C 18.528582,18.264221 13.291696,25.230495 11.500037,31.436501 z"
     style="fill:#404040;"/>
  </a>
 </g>
</svg>

<style type='text/css'>
<![CDATA[
[data-mouse-over-selected='false'] { opacity: 0.7; }
[data-mouse-over-selected='true']  { opacity: 1.0; }
]]>
</style>
<script type="application/ecmascript"><![CDATA[
document.addEventListener('DOMContentLoaded', (event) => {
  highlightEdges();
  highlightAdjacentNodes();
});
]]></script>
</svg>
