<?xml version="1.0" encoding="UTF-8" standalone="no"?>
<!DOCTYPE svg PUBLIC "-//W3C//DTD SVG 1.1//EN"
 "http://www.w3.org/Graphics/SVG/1.1/DTD/svg11.dtd">
<!-- Generated by graphviz version 10.0.1 (20240210.2158)
 -->
<!-- Title: OutputBlock Pages: 1 -->
<svg width="94pt" height="177pt"
 viewBox="0.00 0.00 94.00 177.00" xmlns="http://www.w3.org/2000/svg" xmlns:xlink="http://www.w3.org/1999/xlink">
<g id="graph0" class="graph" transform="scale(1 1) rotate(0) translate(4 173)">
<title>OutputBlock</title>
<!-- Node1 -->
<g id="Node000001" class="node">
<title>Node1</title>
<g id="a_Node000001"><a xlink:title=" ">
<polygon fill="#999999" stroke="none" points="86,-169 0,-169 0,0 86,0 86,-169"/>
<text text-anchor="start" x="16" y="-155.5" font-family="Helvetica,sans-Serif" font-size="10.00">OutputBlock</text>
<text text-anchor="start" x="4" y="-140.5" font-family="Helvetica,sans-Serif" font-size="10.00">+</text>
<text text-anchor="start" x="14" y="-140.5" font-family="Helvetica,sans-Serif" font-size="10.00">$type</text>
<text text-anchor="start" x="4" y="-125.5" font-family="Helvetica,sans-Serif" font-size="10.00">+</text>
<text text-anchor="start" x="14" y="-125.5" font-family="Helvetica,sans-Serif" font-size="10.00">$depth</text>
<text text-anchor="start" x="4" y="-110.5" font-family="Helvetica,sans-Serif" font-size="10.00">+</text>
<text text-anchor="start" x="14" y="-110.5" font-family="Helvetica,sans-Serif" font-size="10.00">$selectors</text>
<text text-anchor="start" x="4" y="-95.5" font-family="Helvetica,sans-Serif" font-size="10.00">+</text>
<text text-anchor="start" x="14" y="-95.5" font-family="Helvetica,sans-Serif" font-size="10.00">$lines</text>
<text text-anchor="start" x="4" y="-80.5" font-family="Helvetica,sans-Serif" font-size="10.00">+</text>
<text text-anchor="start" x="14" y="-80.5" font-family="Helvetica,sans-Serif" font-size="10.00">$children</text>
<text text-anchor="start" x="4" y="-65.5" font-family="Helvetica,sans-Serif" font-size="10.00">+</text>
<text text-anchor="start" x="14" y="-65.5" font-family="Helvetica,sans-Serif" font-size="10.00">$parent</text>
<text text-anchor="start" x="4" y="-50.5" font-family="Helvetica,sans-Serif" font-size="10.00">+</text>
<text text-anchor="start" x="14" y="-50.5" font-family="Helvetica,sans-Serif" font-size="10.00">$sourceName</text>
<text text-anchor="start" x="4" y="-35.5" font-family="Helvetica,sans-Serif" font-size="10.00">+</text>
<text text-anchor="start" x="14" y="-35.5" font-family="Helvetica,sans-Serif" font-size="10.00">$sourceLine</text>
<text text-anchor="start" x="4" y="-20.5" font-family="Helvetica,sans-Serif" font-size="10.00">+</text>
<text text-anchor="start" x="14" y="-20.5" font-family="Helvetica,sans-Serif" font-size="10.00">$sourceColumn</text>
<text text-anchor="start" x="41.5" y="-5.5" font-family="Helvetica,sans-Serif" font-size="10.00"> </text>
<polygon fill="#666666" stroke="#666666" points="0,-152 0,-152 86,-152 86,-152 0,-152"/>
<polygon fill="#666666" stroke="#666666" points="0,-17 0,-17 12,-17 12,-17 0,-17"/>
<polygon fill="#666666" stroke="#666666" points="12,-17 12,-17 86,-17 86,-17 12,-17"/>
<polygon fill="none" stroke="#666666" points="0,0 0,-169 86,-169 86,0 0,0"/>
</a>
</g>
</g>
</g>
</svg>
