<?xml version="1.0" encoding="UTF-8" standalone="no"?>
<!DOCTYPE svg PUBLIC "-//W3C//DTD SVG 1.1//EN"
 "http://www.w3.org/Graphics/SVG/1.1/DTD/svg11.dtd">
<!-- Generated by graphviz version 10.0.1 (20240210.2158)
 -->
<!-- Title: registerSymbol Pages: 1 -->
<svg width="497pt" height="117pt"
 viewBox="0.00 0.00 496.50 117.46" xmlns="http://www.w3.org/2000/svg" xmlns:xlink="http://www.w3.org/1999/xlink">
<g id="graph0" class="graph" transform="scale(1 1) rotate(0) translate(4 113.46)">
<title>registerSymbol</title>
<!-- Node1 -->
<g id="Node000001" class="node">
<title>Node1</title>
<g id="a_Node000001"><a xlink:title=" ">
<polygon fill="#999999" stroke="#666666" points="488.5,-74.25 407.25,-74.25 407.25,-55 488.5,-55 488.5,-74.25"/>
<text text-anchor="middle" x="447.88" y="-60.75" font-family="Helvetica,sans-Serif" font-size="10.00">registerSymbol</text>
</a>
</g>
</g>
<!-- Node2 -->
<g id="Node000002" class="node">
<title>Node2</title>
<g id="a_Node000002"><a xlink:href="class_laminas_1_1_i18n_1_1_translator_1_1_plural_1_1_parser.html#a94e772f731b1a69b4264a71c85bc5594" target="_top" xlink:title=" ">
<polygon fill="white" stroke="#666666" points="212,-93.25 103,-93.25 103,-74 212,-74 212,-93.25"/>
<text text-anchor="middle" x="157.5" y="-79.75" font-family="Helvetica,sans-Serif" font-size="10.00">populateSymbolTable</text>
</a>
</g>
</g>
<!-- Node1&#45;&gt;Node2 -->
<g id="edge1_Node000001_Node000002" class="edge">
<title>Node1&#45;&gt;Node2</title>
<g id="a_edge1_Node000001_Node000002"><a xlink:title=" ">
<path fill="none" stroke="#63b8ff" d="M422.5,-80.54C408.2,-88.91 389.43,-98.31 371.25,-102.62 310.27,-117.08 237.09,-104.17 194.38,-93.73"/>
<polygon fill="#63b8ff" stroke="#63b8ff" points="424.04,-83.7 430.75,-75.5 420.39,-77.72 424.04,-83.7"/>
</a>
</g>
</g>
<!-- Node4 -->
<g id="Node000004" class="node">
<title>Node4</title>
<g id="a_Node000004"><a xlink:href="class_laminas_1_1_i18n_1_1_translator_1_1_plural_1_1_parser.html#acc69dc879645e6911c3b32a7f8fc68a1" target="_top" xlink:title=" ">
<polygon fill="white" stroke="#666666" points="367.88,-93.25 251.38,-93.25 251.38,-74 367.88,-74 367.88,-93.25"/>
<text text-anchor="middle" x="309.62" y="-79.75" font-family="Helvetica,sans-Serif" font-size="10.00">registerLeftInfixSymbol</text>
</a>
</g>
</g>
<!-- Node1&#45;&gt;Node4 -->
<g id="edge3_Node000001_Node000004" class="edge">
<title>Node1&#45;&gt;Node4</title>
<g id="a_edge3_Node000001_Node000004"><a xlink:title=" ">
<path fill="none" stroke="#63b8ff" d="M395.92,-71.73C386.87,-72.99 377.39,-74.31 368.17,-75.6"/>
<polygon fill="#63b8ff" stroke="#63b8ff" points="396.18,-75.23 405.6,-70.38 395.21,-68.3 396.18,-75.23"/>
</a>
</g>
</g>
<!-- Node5 -->
<g id="Node000005" class="node">
<title>Node5</title>
<g id="a_Node000005"><a xlink:href="class_laminas_1_1_i18n_1_1_translator_1_1_plural_1_1_parser.html#a906326dbee9abaef3ed746aaad03fc56" target="_top" xlink:title=" ">
<polygon fill="white" stroke="#666666" points="363,-56.25 256.25,-56.25 256.25,-37 363,-37 363,-56.25"/>
<text text-anchor="middle" x="309.62" y="-42.75" font-family="Helvetica,sans-Serif" font-size="10.00">registerPrefixSymbol</text>
</a>
</g>
</g>
<!-- Node1&#45;&gt;Node5 -->
<g id="edge5_Node000001_Node000005" class="edge">
<title>Node1&#45;&gt;Node5</title>
<g id="a_edge5_Node000001_Node000005"><a xlink:title=" ">
<path fill="none" stroke="#63b8ff" d="M395.87,-57.89C385.26,-56.48 374.05,-55 363.38,-53.59"/>
<polygon fill="#63b8ff" stroke="#63b8ff" points="395.23,-61.33 405.6,-59.17 396.14,-54.39 395.23,-61.33"/>
</a>
</g>
</g>
<!-- Node6 -->
<g id="Node000006" class="node">
<title>Node6</title>
<g id="a_Node000006"><a xlink:href="class_laminas_1_1_i18n_1_1_translator_1_1_plural_1_1_parser.html#a1c55bd1b53fbf4036d25c0da1926db99" target="_top" xlink:title=" ">
<polygon fill="white" stroke="#666666" points="371.25,-19.25 248,-19.25 248,0 371.25,0 371.25,-19.25"/>
<text text-anchor="middle" x="309.62" y="-5.75" font-family="Helvetica,sans-Serif" font-size="10.00">registerRightInfixSymbol</text>
</a>
</g>
</g>
<!-- Node1&#45;&gt;Node6 -->
<g id="edge7_Node000001_Node000006" class="edge">
<title>Node1&#45;&gt;Node6</title>
<g id="a_edge7_Node000001_Node000006"><a xlink:title=" ">
<path fill="none" stroke="#63b8ff" d="M418.63,-49.41C404.62,-42.23 387.31,-33.89 371.25,-27.62 363.89,-24.75 355.87,-22.07 348.15,-19.7"/>
<polygon fill="#63b8ff" stroke="#63b8ff" points="416.79,-52.4 427.27,-53.92 420.02,-46.19 416.79,-52.4"/>
</a>
</g>
</g>
<!-- Node3 -->
<g id="Node000003" class="node">
<title>Node3</title>
<g id="a_Node000003"><a xlink:href="class_laminas_1_1_i18n_1_1_translator_1_1_plural_1_1_parser.html#a095c5d389db211932136b53f25f39685" target="_top" xlink:title=" ">
<polygon fill="white" stroke="#666666" points="67,-93.25 0,-93.25 0,-74 67,-74 67,-93.25"/>
<text text-anchor="middle" x="33.5" y="-79.75" font-family="Helvetica,sans-Serif" font-size="10.00">__construct</text>
</a>
</g>
</g>
<!-- Node2&#45;&gt;Node3 -->
<g id="edge2_Node000002_Node000003" class="edge">
<title>Node2&#45;&gt;Node3</title>
<g id="a_edge2_Node000002_Node000003"><a xlink:title=" ">
<path fill="none" stroke="#63b8ff" d="M91.33,-83.62C83.05,-83.62 74.87,-83.62 67.4,-83.62"/>
<polygon fill="#63b8ff" stroke="#63b8ff" points="91.12,-87.13 101.12,-83.63 91.12,-80.13 91.12,-87.13"/>
</a>
</g>
</g>
<!-- Node4&#45;&gt;Node2 -->
<g id="edge4_Node000004_Node000002" class="edge">
<title>Node4&#45;&gt;Node2</title>
<g id="a_edge4_Node000004_Node000002"><a xlink:title=" ">
<path fill="none" stroke="#63b8ff" d="M239.52,-83.62C230.37,-83.62 221.1,-83.62 212.26,-83.62"/>
<polygon fill="#63b8ff" stroke="#63b8ff" points="239.5,-87.13 249.5,-83.63 239.5,-80.13 239.5,-87.13"/>
</a>
</g>
</g>
<!-- Node5&#45;&gt;Node2 -->
<g id="edge6_Node000005_Node000002" class="edge">
<title>Node5&#45;&gt;Node2</title>
<g id="a_edge6_Node000005_Node000002"><a xlink:title=" ">
<path fill="none" stroke="#63b8ff" d="M256.58,-59.45C237.89,-64.06 217.09,-69.18 199.47,-73.53"/>
<polygon fill="#63b8ff" stroke="#63b8ff" points="257.26,-62.89 266.13,-57.1 255.59,-56.09 257.26,-62.89"/>
</a>
</g>
</g>
</g>
</svg>
