<?xml version="1.0" encoding="UTF-8" standalone="no"?>
<!DOCTYPE svg PUBLIC "-//W3C//DTD SVG 1.1//EN"
 "http://www.w3.org/Graphics/SVG/1.1/DTD/svg11.dtd">
<!-- Generated by graphviz version 10.0.1 (20240210.2158)
 -->
<!-- Title: EnableMaintenanceModeCommand Pages: 1 -->
<!--zoomable 1120 -->

<svg id="main" version="1.1" xmlns="http://www.w3.org/2000/svg" xmlns:xlink="http://www.w3.org/1999/xlink" xml:space="preserve" onload="init(evt)">
<style type="text/css"><![CDATA[
.node, .edge {opacity: 0.7;}
.node.selected, .edge.selected {opacity: 1;}
.edge:hover path { stroke: red; }
.edge:hover polygon { stroke: red; fill: red; }
]]></style>

<defs>
  <circle id="rim" cx="0" cy="0" r="7"/>
  <circle id="rim2" cx="0" cy="0" r="3.5"/>
  <g id="zoomPlus">
    <use xlink:href="#rim" fill="#404040"><set attributeName="fill" to="#808080" begin="zoomplus.mouseover" end="zoomplus.mouseout"/></use>
    <path d="M-4,0h8M0,-4v8" fill="none" stroke="white" stroke-width="1.5" pointer-events="none"/>
  </g>
  <g id="zoomMin">
    <use xlink:href="#rim" fill="#404040"><set attributeName="fill" to="#808080" begin="zoomminus.mouseover" end="zoomminus.mouseout"/></use>
    <path d="M-4,0h8" fill="none" stroke="white" stroke-width="1.5" pointer-events="none"/>
  </g>
  <g id="arrowUp" transform="translate(30 24)">
    <use xlink:href="#rim"/>
    <path pointer-events="none" fill="none" stroke="white" stroke-width="1.5" d="M0,-3.0v7 M-2.5,-0.5L0,-3.0L2.5,-0.5"/>
  </g>
  <g id="arrowRight" transform="rotate(90) translate(36 -43)">
    <use xlink:href="#rim"/>
    <path pointer-events="none" fill="none" stroke="white" stroke-width="1.5" d="M0,-3.0v7 M-2.5,-0.5L0,-3.0L2.5,-0.5"/>
  </g>
  <g id="arrowDown" transform="rotate(180) translate(-30 -48)">
    <use xlink:href="#rim"/>
    <path pointer-events="none" fill="none" stroke="white" stroke-width="1.5" d="M0,-3.0v7 M-2.5,-0.5L0,-3.0L2.5,-0.5"/>
  </g>
  <g id="arrowLeft" transform="rotate(270) translate(-36 17)">
    <use xlink:href="#rim"/>
    <path pointer-events="none" fill="none" stroke="white" stroke-width="1.5" d="M0,-3.0v7 M-2.5,-0.5L0,-3.0L2.5,-0.5"/>
  </g>
  <g id="resetDef">
    <use xlink:href="#rim2" fill="#404040"><set attributeName="fill" to="#808080" begin="reset.mouseover" end="reset.mouseout"/></use>
  </g>
</defs>
<script type="application/ecmascript">
var viewWidth = 362;
var viewHeight = 1120;
var sectionId = 'dynsection-1';
</script>
<script type="application/ecmascript" xlink:href="svg.min.js"/>
<svg id="graph" class="graph">
<g id="viewport">
<title>EnableMaintenanceModeCommand</title>
<!-- Node1 -->
<g id="Node000001" class="node">
<title>Node1</title>
<g id="a_Node000001"><a xlink:title=" ">
<polygon fill="#999999" stroke="none" points="253,-49 89,-49 89,0 253,0 253,-49"/>
<text text-anchor="start" x="93.75" y="-35.5" font-family="Helvetica,sans-Serif" font-size="10.00">EnableMaintenanceModeCommand</text>
<text text-anchor="start" x="102.38" y="-20.5" font-family="Helvetica,sans-Serif" font-size="10.00">#</text>
<text text-anchor="start" x="121" y="-20.5" font-family="Helvetica,sans-Serif" font-size="10.00">$requires_db_up_to_date</text>
<text text-anchor="start" x="102.38" y="-5.5" font-family="Helvetica,sans-Serif" font-size="10.00">#</text>
<text text-anchor="start" x="121" y="-5.5" font-family="Helvetica,sans-Serif" font-size="10.00">configure()</text>
<polygon fill="#666666" stroke="#666666" points="89,-32 89,-32 253,-32 253,-32 89,-32"/>
<polygon fill="#666666" stroke="#666666" points="89,-17 89,-17 119,-17 119,-17 89,-17"/>
<polygon fill="#666666" stroke="#666666" points="119,-17 119,-17 253,-17 253,-17 119,-17"/>
<polygon fill="none" stroke="#666666" points="89,0 89,-49 253,-49 253,0 89,0"/>
</a>
</g>
</g>
<!-- Node2 -->
<g id="Node000002" class="node">
<title>Node2</title>
<g id="a_Node000002"><a xlink:href="class_glpi_1_1_console_1_1_abstract_command.html" target="_top" xlink:title=" ">
<polygon fill="white" stroke="none" points="274,-513 68,-513 68,-86 274,-86 274,-513"/>
<text text-anchor="start" x="130.12" y="-499.5" font-family="Helvetica,sans-Serif" font-size="10.00">AbstractCommand</text>
<text text-anchor="start" x="72.38" y="-484.5" font-family="Helvetica,sans-Serif" font-size="10.00">#</text>
<text text-anchor="start" x="82" y="-484.5" font-family="Helvetica,sans-Serif" font-size="10.00">$db</text>
<text text-anchor="start" x="72.38" y="-469.5" font-family="Helvetica,sans-Serif" font-size="10.00">#</text>
<text text-anchor="start" x="82" y="-469.5" font-family="Helvetica,sans-Serif" font-size="10.00">$input</text>
<text text-anchor="start" x="72.38" y="-454.5" font-family="Helvetica,sans-Serif" font-size="10.00">#</text>
<text text-anchor="start" x="82" y="-454.5" font-family="Helvetica,sans-Serif" font-size="10.00">$output</text>
<text text-anchor="start" x="72.38" y="-439.5" font-family="Helvetica,sans-Serif" font-size="10.00">#</text>
<text text-anchor="start" x="82" y="-439.5" font-family="Helvetica,sans-Serif" font-size="10.00">$requires_db</text>
<text text-anchor="start" x="72.38" y="-424.5" font-family="Helvetica,sans-Serif" font-size="10.00">#</text>
<text text-anchor="start" x="82" y="-424.5" font-family="Helvetica,sans-Serif" font-size="10.00">$requires_db_up_to_date</text>
<text text-anchor="start" x="72.38" y="-409.5" font-family="Helvetica,sans-Serif" font-size="10.00">#</text>
<text text-anchor="start" x="82" y="-409.5" font-family="Helvetica,sans-Serif" font-size="10.00">$progress_bar</text>
<text text-anchor="start" x="72" y="-394.5" font-family="Helvetica,sans-Serif" font-size="10.00">+</text>
<text text-anchor="start" x="82" y="-394.5" font-family="Helvetica,sans-Serif" font-size="10.00">mustCheckMandatoryRequirements()</text>
<text text-anchor="start" x="72" y="-379.5" font-family="Helvetica,sans-Serif" font-size="10.00">+</text>
<text text-anchor="start" x="82" y="-379.5" font-family="Helvetica,sans-Serif" font-size="10.00">requiresUpToDateDb()</text>
<text text-anchor="start" x="72.38" y="-364.5" font-family="Helvetica,sans-Serif" font-size="10.00">#</text>
<text text-anchor="start" x="82" y="-364.5" font-family="Helvetica,sans-Serif" font-size="10.00">initialize(InputInterface</text>
<text text-anchor="start" x="82" y="-353.25" font-family="Helvetica,sans-Serif" font-size="10.00"> $input, OutputInterface</text>
<text text-anchor="start" x="82" y="-342" font-family="Helvetica,sans-Serif" font-size="10.00"> $output)</text>
<text text-anchor="start" x="72.38" y="-327.5" font-family="Helvetica,sans-Serif" font-size="10.00">#</text>
<text text-anchor="start" x="82" y="-327.5" font-family="Helvetica,sans-Serif" font-size="10.00">writelnOutputWithProgress</text>
<text text-anchor="start" x="82" y="-316.25" font-family="Helvetica,sans-Serif" font-size="10.00">Bar( $messages, ProgressBar</text>
<text text-anchor="start" x="82" y="-305" font-family="Helvetica,sans-Serif" font-size="10.00"> $progress_bar, $verbosity</text>
<text text-anchor="start" x="82" y="-293.75" font-family="Helvetica,sans-Serif" font-size="10.00">=OutputInterface::VERBOSITY_NORMAL)</text>
<text text-anchor="start" x="72.38" y="-278.5" font-family="Helvetica,sans-Serif" font-size="10.00">#</text>
<text text-anchor="start" x="82" y="-278.5" font-family="Helvetica,sans-Serif" font-size="10.00">outputSessionBufferedMessages</text>
<text text-anchor="start" x="82" y="-267.25" font-family="Helvetica,sans-Serif" font-size="10.00">($levels_to_output=[INFO,</text>
<text text-anchor="start" x="82" y="-256" font-family="Helvetica,sans-Serif" font-size="10.00"> WARNING, ERROR])</text>
<text text-anchor="start" x="72.38" y="-241.5" font-family="Helvetica,sans-Serif" font-size="10.00">#</text>
<text text-anchor="start" x="82" y="-241.5" font-family="Helvetica,sans-Serif" font-size="10.00">outputWarningOnMissingOptionnal</text>
<text text-anchor="start" x="82" y="-230.25" font-family="Helvetica,sans-Serif" font-size="10.00">Requirements()</text>
<text text-anchor="start" x="72.38" y="-215.5" font-family="Helvetica,sans-Serif" font-size="10.00">#</text>
<text text-anchor="start" x="82" y="-215.5" font-family="Helvetica,sans-Serif" font-size="10.00">askForConfirmation</text>
<text text-anchor="start" x="82" y="-204.25" font-family="Helvetica,sans-Serif" font-size="10.00">(bool $default_to_yes=true)</text>
<text text-anchor="start" x="72.38" y="-189.5" font-family="Helvetica,sans-Serif" font-size="10.00">#</text>
<text text-anchor="start" x="82" y="-189.5" font-family="Helvetica,sans-Serif" font-size="10.00">warnAboutExecutionTime()</text>
<text text-anchor="start" x="72.38" y="-174.5" font-family="Helvetica,sans-Serif" font-size="10.00">#</text>
<text text-anchor="start" x="82" y="-174.5" font-family="Helvetica,sans-Serif" font-size="10.00">iterate(iterable </text>
<text text-anchor="start" x="82" y="-163.25" font-family="Helvetica,sans-Serif" font-size="10.00">$iterable, ?callable</text>
<text text-anchor="start" x="82" y="-152" font-family="Helvetica,sans-Serif" font-size="10.00"> $message_callback=null,</text>
<text text-anchor="start" x="82" y="-140.75" font-family="Helvetica,sans-Serif" font-size="10.00"> ?int $count=null)</text>
<text text-anchor="start" x="72.38" y="-125.5" font-family="Helvetica,sans-Serif" font-size="10.00">#</text>
<text text-anchor="start" x="82" y="-125.5" font-family="Helvetica,sans-Serif" font-size="10.00">outputMessage(string</text>
<text text-anchor="start" x="82" y="-114.25" font-family="Helvetica,sans-Serif" font-size="10.00"> $message, int $verbosity</text>
<text text-anchor="start" x="82" y="-103" font-family="Helvetica,sans-Serif" font-size="10.00">=OutputInterface::VERBOSITY</text>
<text text-anchor="start" x="82" y="-91.75" font-family="Helvetica,sans-Serif" font-size="10.00">_NORMAL)</text>
<polygon fill="#666666" stroke="#666666" points="68,-496 68,-496 274,-496 274,-496 68,-496"/>
<polygon fill="#666666" stroke="#666666" points="68,-406 68,-406 80,-406 80,-406 68,-406"/>
<polygon fill="#666666" stroke="#666666" points="80,-406 80,-406 274,-406 274,-406 80,-406"/>
<polygon fill="none" stroke="#666666" points="68,-86 68,-513 274,-513 274,-86 68,-86"/>
</a>
</g>
</g>
<!-- Node2&#45;&gt;Node1 -->
<g id="edge1_Node000001_Node000002" class="edge">
<title>Node2&#45;&gt;Node1</title>
<g id="a_edge1_Node000001_Node000002"><a xlink:title=" ">
<path fill="none" stroke="#63b8ff" d="M171,-74.62C171,-64.84 171,-56.09 171,-48.78"/>
<polygon fill="none" stroke="#63b8ff" points="167.5,-74.57 171,-84.57 174.5,-74.57 167.5,-74.57"/>
</a>
</g>
</g>
<!-- Node3 -->
<g id="Node000003" class="node">
<title>Node3</title>
<g id="a_Node000003"><a xlink:href="class_symfony_1_1_component_1_1_console_1_1_command_1_1_command.html" target="_top" xlink:title=" ">
<polygon fill="white" stroke="none" points="156,-993 0,-993 0,-550 156,-550 156,-993"/>
<text text-anchor="start" x="55.5" y="-979.5" font-family="Helvetica,sans-Serif" font-size="10.00">Command</text>
<text text-anchor="start" x="76.5" y="-964.5" font-family="Helvetica,sans-Serif" font-size="10.00"> </text>
<text text-anchor="start" x="4" y="-949.5" font-family="Helvetica,sans-Serif" font-size="10.00">+</text>
<text text-anchor="start" x="14" y="-949.5" font-family="Helvetica,sans-Serif" font-size="10.00">__construct(string</text>
<text text-anchor="start" x="14" y="-938.25" font-family="Helvetica,sans-Serif" font-size="10.00"> $name=null)</text>
<text text-anchor="start" x="4" y="-923.5" font-family="Helvetica,sans-Serif" font-size="10.00">+</text>
<text text-anchor="start" x="14" y="-923.5" font-family="Helvetica,sans-Serif" font-size="10.00">ignoreValidationErrors()</text>
<text text-anchor="start" x="4" y="-908.5" font-family="Helvetica,sans-Serif" font-size="10.00">+</text>
<text text-anchor="start" x="14" y="-908.5" font-family="Helvetica,sans-Serif" font-size="10.00">setApplication(Application</text>
<text text-anchor="start" x="14" y="-897.25" font-family="Helvetica,sans-Serif" font-size="10.00"> $application=null)</text>
<text text-anchor="start" x="4" y="-882.5" font-family="Helvetica,sans-Serif" font-size="10.00">+</text>
<text text-anchor="start" x="14" y="-882.5" font-family="Helvetica,sans-Serif" font-size="10.00">setHelperSet(HelperSet</text>
<text text-anchor="start" x="14" y="-871.25" font-family="Helvetica,sans-Serif" font-size="10.00"> $helperSet)</text>
<text text-anchor="start" x="4" y="-856.5" font-family="Helvetica,sans-Serif" font-size="10.00">+</text>
<text text-anchor="start" x="14" y="-856.5" font-family="Helvetica,sans-Serif" font-size="10.00">getHelperSet()</text>
<text text-anchor="start" x="4" y="-841.5" font-family="Helvetica,sans-Serif" font-size="10.00">+</text>
<text text-anchor="start" x="14" y="-841.5" font-family="Helvetica,sans-Serif" font-size="10.00">getApplication()</text>
<text text-anchor="start" x="4" y="-826.5" font-family="Helvetica,sans-Serif" font-size="10.00">+</text>
<text text-anchor="start" x="14" y="-826.5" font-family="Helvetica,sans-Serif" font-size="10.00">isEnabled()</text>
<text text-anchor="start" x="4" y="-811.5" font-family="Helvetica,sans-Serif" font-size="10.00">+</text>
<text text-anchor="start" x="14" y="-811.5" font-family="Helvetica,sans-Serif" font-size="10.00">run(InputInterface</text>
<text text-anchor="start" x="14" y="-800.25" font-family="Helvetica,sans-Serif" font-size="10.00"> $input, OutputInterface</text>
<text text-anchor="start" x="14" y="-789" font-family="Helvetica,sans-Serif" font-size="10.00"> $output)</text>
<text text-anchor="start" x="4" y="-774.5" font-family="Helvetica,sans-Serif" font-size="10.00">+</text>
<text text-anchor="start" x="14" y="-774.5" font-family="Helvetica,sans-Serif" font-size="10.00">complete(CompletionInput</text>
<text text-anchor="start" x="14" y="-763.25" font-family="Helvetica,sans-Serif" font-size="10.00"> $input, CompletionSuggestions</text>
<text text-anchor="start" x="14" y="-752" font-family="Helvetica,sans-Serif" font-size="10.00"> $suggestions)</text>
<text text-anchor="start" x="4" y="-737.5" font-family="Helvetica,sans-Serif" font-size="10.00">+</text>
<text text-anchor="start" x="14" y="-737.5" font-family="Helvetica,sans-Serif" font-size="10.00">setCode(callable </text>
<text text-anchor="start" x="14" y="-726.25" font-family="Helvetica,sans-Serif" font-size="10.00">$code)</text>
<text text-anchor="start" x="14" y="-711.5" font-family="Helvetica,sans-Serif" font-size="10.00">et 22 de plus...</text>
<text text-anchor="start" x="4" y="-696.5" font-family="Helvetica,sans-Serif" font-size="10.00">+</text>
<text text-anchor="start" x="14" y="-696.5" font-family="Helvetica,sans-Serif" font-size="10.00">static getDefaultName()</text>
<text text-anchor="start" x="4" y="-681.5" font-family="Helvetica,sans-Serif" font-size="10.00">+</text>
<text text-anchor="start" x="14" y="-681.5" font-family="Helvetica,sans-Serif" font-size="10.00">static getDefaultDescription()</text>
<text text-anchor="start" x="4.38" y="-666.5" font-family="Helvetica,sans-Serif" font-size="10.00">#</text>
<text text-anchor="start" x="14" y="-666.5" font-family="Helvetica,sans-Serif" font-size="10.00">configure()</text>
<text text-anchor="start" x="4.38" y="-651.5" font-family="Helvetica,sans-Serif" font-size="10.00">#</text>
<text text-anchor="start" x="14" y="-651.5" font-family="Helvetica,sans-Serif" font-size="10.00">execute(InputInterface</text>
<text text-anchor="start" x="14" y="-640.25" font-family="Helvetica,sans-Serif" font-size="10.00"> $input, OutputInterface</text>
<text text-anchor="start" x="14" y="-629" font-family="Helvetica,sans-Serif" font-size="10.00"> $output)</text>
<text text-anchor="start" x="4.38" y="-614.5" font-family="Helvetica,sans-Serif" font-size="10.00">#</text>
<text text-anchor="start" x="14" y="-614.5" font-family="Helvetica,sans-Serif" font-size="10.00">interact(InputInterface</text>
<text text-anchor="start" x="14" y="-603.25" font-family="Helvetica,sans-Serif" font-size="10.00"> $input, OutputInterface</text>
<text text-anchor="start" x="14" y="-592" font-family="Helvetica,sans-Serif" font-size="10.00"> $output)</text>
<text text-anchor="start" x="4.38" y="-577.5" font-family="Helvetica,sans-Serif" font-size="10.00">#</text>
<text text-anchor="start" x="14" y="-577.5" font-family="Helvetica,sans-Serif" font-size="10.00">initialize(InputInterface</text>
<text text-anchor="start" x="14" y="-566.25" font-family="Helvetica,sans-Serif" font-size="10.00"> $input, OutputInterface</text>
<text text-anchor="start" x="14" y="-555" font-family="Helvetica,sans-Serif" font-size="10.00"> $output)</text>
<polygon fill="#666666" stroke="#666666" points="0,-976 0,-976 156,-976 156,-976 0,-976"/>
<polygon fill="#666666" stroke="#666666" points="0,-961 0,-961 156,-961 156,-961 0,-961"/>
<polygon fill="none" stroke="#666666" points="0,-550 0,-993 156,-993 156,-550 0,-550"/>
</a>
</g>
</g>
<!-- Node3&#45;&gt;Node2 -->
<g id="edge2_Node000002_Node000003" class="edge">
<title>Node3&#45;&gt;Node2</title>
<g id="a_edge2_Node000002_Node000003"><a xlink:title=" ">
<path fill="none" stroke="#63b8ff" d="M123.78,-539.12C125.53,-530.29 127.28,-521.46 129.02,-512.67"/>
<polygon fill="none" stroke="#63b8ff" points="120.37,-538.32 121.87,-548.81 127.24,-539.68 120.37,-538.32"/>
</a>
</g>
</g>
<!-- Node4 -->
<g id="Node000004" class="node">
<title>Node4</title>
<g id="a_Node000004"><a xlink:title=" ">
<polygon fill="white" stroke="none" points="56,-1111.75 22,-1111.75 22,-1062.75 56,-1062.75 56,-1111.75"/>
<text text-anchor="start" x="27" y="-1098.25" font-family="Helvetica,sans-Serif" font-size="10.00">const</text>
<text text-anchor="start" x="37.5" y="-1083.25" font-family="Helvetica,sans-Serif" font-size="10.00"> </text>
<text text-anchor="start" x="37.5" y="-1068.25" font-family="Helvetica,sans-Serif" font-size="10.00"> </text>
<polygon fill="#666666" stroke="#666666" points="22,-1094.75 22,-1094.75 56,-1094.75 56,-1094.75 22,-1094.75"/>
<polygon fill="#666666" stroke="#666666" points="22,-1079.75 22,-1079.75 56,-1079.75 56,-1079.75 22,-1079.75"/>
<polygon fill="none" stroke="#666666" points="22,-1062.75 22,-1111.75 56,-1111.75 56,-1062.75 22,-1062.75"/>
</a>
</g>
</g>
<!-- Node4&#45;&gt;Node3 -->
<g id="edge3_Node000003_Node000004" class="edge">
<title>Node4&#45;&gt;Node3</title>
<g id="a_edge3_Node000003_Node000004"><a xlink:title=" ">
<path fill="none" stroke="#63b8ff" d="M38.65,-1062.82C38.63,-1047.95 38.97,-1028.31 40.5,-1011 40.66,-1009.23 40.82,-1007.46 40.98,-1005.68"/>
<polygon fill="none" stroke="#63b8ff" points="40.97,-1005.79 37.58,-999.42 42.15,-993.84 45.54,-1000.21 40.97,-1005.79"/>
</a>
</g>
<text text-anchor="middle" x="68.75" y="-1035.25" font-family="Helvetica,sans-Serif" font-size="10.00" fill="grey"> +FAILURE</text>
<text text-anchor="middle" x="68.75" y="-1024" font-family="Helvetica,sans-Serif" font-size="10.00" fill="grey">+INVALID</text>
<text text-anchor="middle" x="68.75" y="-1012.75" font-family="Helvetica,sans-Serif" font-size="10.00" fill="grey">+SUCCESS</text>
</g>
<!-- Node5 -->
<g id="Node000005" class="node">
<title>Node5</title>
<g id="a_Node000005"><a xlink:title=" ">
<polygon fill="white" stroke="none" points="135,-1111.75 101,-1111.75 101,-1062.75 135,-1062.75 135,-1111.75"/>
<text text-anchor="start" x="106" y="-1098.25" font-family="Helvetica,sans-Serif" font-size="10.00">static</text>
<text text-anchor="start" x="116.5" y="-1083.25" font-family="Helvetica,sans-Serif" font-size="10.00"> </text>
<text text-anchor="start" x="116.5" y="-1068.25" font-family="Helvetica,sans-Serif" font-size="10.00"> </text>
<polygon fill="#666666" stroke="#666666" points="101,-1094.75 101,-1094.75 135,-1094.75 135,-1094.75 101,-1094.75"/>
<polygon fill="#666666" stroke="#666666" points="101,-1079.75 101,-1079.75 135,-1079.75 135,-1079.75 101,-1079.75"/>
<polygon fill="none" stroke="#666666" points="101,-1062.75 101,-1111.75 135,-1111.75 135,-1062.75 101,-1062.75"/>
</a>
</g>
</g>
<!-- Node5&#45;&gt;Node3 -->
<g id="edge4_Node000003_Node000005" class="edge">
<title>Node5&#45;&gt;Node3</title>
<g id="a_edge4_Node000003_Node000005"><a xlink:title=" ">
<path fill="none" stroke="#63b8ff" d="M115.03,-1062.92C113.2,-1048.6 110.66,-1028.66 107.75,-1005.87"/>
<polygon fill="none" stroke="#63b8ff" points="107.73,-1005.72 103.01,-1000.28 106.22,-993.82 110.94,-999.27 107.73,-1005.72"/>
</a>
</g>
<text text-anchor="middle" x="159.12" y="-1029.62" font-family="Helvetica,sans-Serif" font-size="10.00" fill="grey"> #$defaultDescription</text>
<text text-anchor="middle" x="159.12" y="-1018.38" font-family="Helvetica,sans-Serif" font-size="10.00" fill="grey">#$defaultName</text>
</g>
<!-- Node6 -->
<g id="Node000006" class="node">
<title>Node6</title>
<g id="a_Node000006"><a xlink:href="interface_glpi_1_1_console_1_1_command_1_1_glpi_command_interface.html" target="_top" xlink:title=" ">
<polygon fill="white" stroke="none" points="354,-803.5 174,-803.5 174,-739.5 354,-739.5 354,-803.5"/>
<text text-anchor="start" x="213.75" y="-790" font-family="Helvetica,sans-Serif" font-size="10.00">GlpiCommandInterface</text>
<text text-anchor="start" x="262.5" y="-775" font-family="Helvetica,sans-Serif" font-size="10.00"> </text>
<text text-anchor="start" x="178" y="-760" font-family="Helvetica,sans-Serif" font-size="10.00">+</text>
<text text-anchor="start" x="188" y="-760" font-family="Helvetica,sans-Serif" font-size="10.00">mustCheckMandatoryRequirements()</text>
<text text-anchor="start" x="178" y="-745" font-family="Helvetica,sans-Serif" font-size="10.00">+</text>
<text text-anchor="start" x="188" y="-745" font-family="Helvetica,sans-Serif" font-size="10.00">requiresUpToDateDb()</text>
<polygon fill="#666666" stroke="#666666" points="174,-786.5 174,-786.5 354,-786.5 354,-786.5 174,-786.5"/>
<polygon fill="#666666" stroke="#666666" points="174,-771.5 174,-771.5 354,-771.5 354,-771.5 174,-771.5"/>
<polygon fill="none" stroke="#666666" points="174,-739.5 174,-803.5 354,-803.5 354,-739.5 174,-739.5"/>
</a>
</g>
</g>
<!-- Node6&#45;&gt;Node2 -->
<g id="edge5_Node000002_Node000006" class="edge">
<title>Node6&#45;&gt;Node2</title>
<g id="a_edge5_Node000002_Node000006"><a xlink:title=" ">
<path fill="none" stroke="#63b8ff" d="M255.7,-728.56C245.98,-679.44 229.15,-594.39 213.04,-512.98"/>
<polygon fill="none" stroke="#63b8ff" points="252.23,-729.05 257.6,-738.18 259.1,-727.69 252.23,-729.05"/>
</a>
</g>
</g>
</g>
</svg>

<g id="navigator" transform="translate(0 0)" fill="#404254">
  <rect fill="#f2f5e9" fill-opacity="0.5" stroke="#606060" stroke-width=".5" x="0" y="0" width="60" height="60"/>
  <use id="zoomplus" xlink:href="#zoomPlus" x="17" y="9" onmousedown="handleZoom(evt,'in')"/>
  <use id="zoomminus" xlink:href="#zoomMin" x="42" y="9" onmousedown="handleZoom(evt,'out')"/>
  <use id="reset" xlink:href="#resetDef" x="30" y="36" onmousedown="handleReset()"/>
   <use id="arrowup" xlink:href="#arrowUp" x="0" y="0" onmousedown="handlePan(0,-1)"/>
  <use id="arrowright" xlink:href="#arrowRight" x="0" y="0" onmousedown="handlePan(1,0)"/>
  <use id="arrowdown" xlink:href="#arrowDown" x="0" y="0" onmousedown="handlePan(0,1)"/>
  <use id="arrowleft" xlink:href="#arrowLeft" x="0" y="0" onmousedown="handlePan(-1,0)"/>
</g>
<svg viewBox="0 0 15 15" width="100%" height="30px" preserveAspectRatio="xMaxYMin meet">
 <g id="arrow_out" transform="scale(0.3 0.3)">
  <a xlink:href="class_glpi_1_1_console_1_1_maintenance_1_1_enable_maintenance_mode_command__coll__graph_org.svg" target="_base">
   <rect id="button" ry="5" rx="5" y="6" x="6" height="38" width="38"
        fill="#f2f5e9" fill-opacity="0.5" stroke="#606060" stroke-width="1.0"/>
   <path id="arrow"
     d="M 11.500037,31.436501 C 11.940474,20.09759 22.043105,11.32322 32.158766,21.979434 L 37.068811,17.246167 C 37.068811,17.246167 37.088388,32 37.088388,32 L 22.160133,31.978069 C 22.160133,31.978069 26.997745,27.140456 26.997745,27.140456 C 18.528582,18.264221 13.291696,25.230495 11.500037,31.436501 z"
     style="fill:#404040;"/>
  </a>
 </g>
</svg>

<style type='text/css'>
<![CDATA[
[data-mouse-over-selected='false'] { opacity: 0.7; }
[data-mouse-over-selected='true']  { opacity: 1.0; }
]]>
</style>
<script type="application/ecmascript"><![CDATA[
document.addEventListener('DOMContentLoaded', (event) => {
  highlightEdges();
  highlightAdjacentNodes();
});
]]></script>
</svg>
