<?xml version="1.0" encoding="UTF-8" standalone="no"?>
<!DOCTYPE svg PUBLIC "-//W3C//DTD SVG 1.1//EN"
 "http://www.w3.org/Graphics/SVG/1.1/DTD/svg11.dtd">
<!-- Generated by graphviz version 10.0.1 (20240210.2158)
 -->
<!-- Title: __construct Pages: 1 -->
<svg width="257pt" height="64pt"
 viewBox="0.00 0.00 256.75 64.25" xmlns="http://www.w3.org/2000/svg" xmlns:xlink="http://www.w3.org/1999/xlink">
<g id="graph0" class="graph" transform="scale(1 1) rotate(0) translate(4 60.25)">
<title>__construct</title>
<!-- Node1 -->
<g id="Node000001" class="node">
<title>Node1</title>
<g id="a_Node000001"><a xlink:title=" ">
<polygon fill="#999999" stroke="#666666" points="67,-37.25 0,-37.25 0,-18 67,-18 67,-37.25"/>
<text text-anchor="middle" x="33.5" y="-23.75" font-family="Helvetica,sans-Serif" font-size="10.00">__construct</text>
</a>
</g>
</g>
<!-- Node2 -->
<g id="Node000002" class="node">
<title>Node2</title>
<g id="a_Node000002"><a xlink:href="namespace_r_rule.html#ae53f88d10e43bcc0534b32df2035750a" target="_top" xlink:title=" ">
<polygon fill="white" stroke="#666666" points="222.12,-56.25 129.62,-56.25 129.62,-37 222.12,-37 222.12,-56.25"/>
<text text-anchor="middle" x="175.88" y="-42.75" font-family="Helvetica,sans-Serif" font-size="10.00">RRule\not_empty</text>
</a>
</g>
</g>
<!-- Node1&#45;&gt;Node2 -->
<g id="edge1_Node000001_Node000002" class="edge">
<title>Node1&#45;&gt;Node2</title>
<g id="a_edge1_Node000001_Node000002"><a xlink:title=" ">
<path fill="none" stroke="#63b8ff" d="M67.41,-32.08C82.5,-34.12 100.83,-36.6 118.04,-38.93"/>
<polygon fill="#63b8ff" stroke="#63b8ff" points="117.27,-42.36 127.65,-40.23 118.21,-35.42 117.27,-42.36"/>
</a>
</g>
</g>
<!-- Node3 -->
<g id="Node000003" class="node">
<title>Node3</title>
<g id="a_Node000003"><a xlink:href="class_r_rule_1_1_rfc_parser.html#ad879cefe2756b8329ff647ebd6c3f666" target="_top" xlink:title=" ">
<polygon fill="white" stroke="#666666" points="248.75,-19.25 103,-19.25 103,0 248.75,0 248.75,-19.25"/>
<text text-anchor="middle" x="175.88" y="-5.75" font-family="Helvetica,sans-Serif" font-size="10.00">RRule\RfcParser\parseRRule</text>
</a>
</g>
</g>
<!-- Node1&#45;&gt;Node3 -->
<g id="edge2_Node000001_Node000003" class="edge">
<title>Node1&#45;&gt;Node3</title>
<g id="a_edge2_Node000001_Node000003"><a xlink:title=" ">
<path fill="none" stroke="#63b8ff" d="M67.41,-23.4C74.79,-22.46 82.95,-21.41 91.37,-20.33"/>
<polygon fill="#63b8ff" stroke="#63b8ff" points="91.58,-23.83 101.05,-19.09 90.69,-16.89 91.58,-23.83"/>
</a>
</g>
</g>
</g>
</svg>
