<?xml version="1.0" encoding="UTF-8" standalone="no"?>
<!DOCTYPE svg PUBLIC "-//W3C//DTD SVG 1.1//EN"
 "http://www.w3.org/Graphics/SVG/1.1/DTD/svg11.dtd">
<!-- Generated by graphviz version 10.0.1 (20240210.2158)
 -->
<!-- Title: reset Pages: 1 -->
<svg width="424pt" height="208pt"
 viewBox="0.00 0.00 423.50 207.88" xmlns="http://www.w3.org/2000/svg" xmlns:xlink="http://www.w3.org/1999/xlink">
<g id="graph0" class="graph" transform="scale(1 1) rotate(0) translate(4 203.88)">
<title>reset</title>
<!-- Node1 -->
<g id="Node000001" class="node">
<title>Node1</title>
<g id="a_Node000001"><a xlink:title=" ">
<polygon fill="#999999" stroke="#666666" points="415.5,-125.88 377.75,-125.88 377.75,-106.62 415.5,-106.62 415.5,-125.88"/>
<text text-anchor="middle" x="396.62" y="-112.38" font-family="Helvetica,sans-Serif" font-size="10.00">reset</text>
</a>
</g>
</g>
<!-- Node2 -->
<g id="Node000002" class="node">
<title>Node2</title>
<g id="a_Node000002"><a xlink:href="class_rule_asset.html#a8e46529987d10c10d03cf69b606842dd" target="_top" xlink:title=" ">
<polygon fill="white" stroke="#666666" points="333.12,-199.88 200.88,-199.88 200.88,-180.62 333.12,-180.62 333.12,-199.88"/>
<text text-anchor="middle" x="267" y="-186.38" font-family="Helvetica,sans-Serif" font-size="10.00">RuleAsset\executeActions</text>
</a>
</g>
</g>
<!-- Node1&#45;&gt;Node2 -->
<g id="edge1_Node000001_Node000002" class="edge">
<title>Node1&#45;&gt;Node2</title>
<g id="a_edge1_Node000001_Node000002"><a xlink:title=" ">
<path fill="none" stroke="#63b8ff" d="M381.97,-135.25C372.14,-147.58 357.81,-163.01 341.75,-172.25 336.27,-175.4 330.25,-178.01 324.08,-180.16"/>
<polygon fill="#63b8ff" stroke="#63b8ff" points="384.67,-137.49 387.93,-127.41 379.09,-133.25 384.67,-137.49"/>
</a>
</g>
</g>
<!-- Node3 -->
<g id="Node000003" class="node">
<title>Node3</title>
<g id="a_Node000003"><a xlink:href="class_project.html#a4b071ecb163c20012b15a81e1f421d9a" target="_top" xlink:title=" ">
<polygon fill="white" stroke="#666666" points="334.62,-162.88 199.38,-162.88 199.38,-143.62 334.62,-143.62 334.62,-162.88"/>
<text text-anchor="middle" x="267" y="-149.38" font-family="Helvetica,sans-Serif" font-size="10.00">Project\getKanbanColumns</text>
</a>
</g>
</g>
<!-- Node1&#45;&gt;Node3 -->
<g id="edge2_Node000001_Node000003" class="edge">
<title>Node1&#45;&gt;Node3</title>
<g id="a_edge2_Node000001_Node000003"><a xlink:title=" ">
<path fill="none" stroke="#63b8ff" d="M366.62,-127.08C358.61,-129.9 349.89,-132.83 341.75,-135.25 332.28,-138.07 322.02,-140.78 312.26,-143.21"/>
<polygon fill="#63b8ff" stroke="#63b8ff" points="367.68,-130.41 375.9,-123.73 365.3,-123.83 367.68,-130.41"/>
</a>
</g>
</g>
<!-- Node4 -->
<g id="Node000004" class="node">
<title>Node4</title>
<g id="a_Node000004"><a xlink:href="class_cartridge.html#ae03b1a7770dde04429eb011796379a5e" target="_top" xlink:title=" ">
<polygon fill="white" stroke="#666666" points="326,-125.88 208,-125.88 208,-106.62 326,-106.62 326,-125.88"/>
<text text-anchor="middle" x="267" y="-112.38" font-family="Helvetica,sans-Serif" font-size="10.00">Cartridge\post_addItem</text>
</a>
</g>
</g>
<!-- Node1&#45;&gt;Node4 -->
<g id="edge3_Node000001_Node000004" class="edge">
<title>Node1&#45;&gt;Node4</title>
<g id="a_edge3_Node000001_Node000004"><a xlink:title=" ">
<path fill="none" stroke="#63b8ff" d="M365.93,-116.25C354.11,-116.25 340.08,-116.25 326.38,-116.25"/>
<polygon fill="#63b8ff" stroke="#63b8ff" points="365.83,-119.75 375.83,-116.25 365.83,-112.75 365.83,-119.75"/>
</a>
</g>
</g>
<!-- Node5 -->
<g id="Node000005" class="node">
<title>Node5</title>
<g id="a_Node000005"><a xlink:href="class_consumable.html#ae03b1a7770dde04429eb011796379a5e" target="_top" xlink:title=" ">
<polygon fill="white" stroke="#666666" points="333.5,-88.88 200.5,-88.88 200.5,-69.62 333.5,-69.62 333.5,-88.88"/>
<text text-anchor="middle" x="267" y="-75.38" font-family="Helvetica,sans-Serif" font-size="10.00">Consumable\post_addItem</text>
</a>
</g>
</g>
<!-- Node1&#45;&gt;Node5 -->
<g id="edge4_Node000001_Node000005" class="edge">
<title>Node1&#45;&gt;Node5</title>
<g id="a_edge4_Node000001_Node000005"><a xlink:title=" ">
<path fill="none" stroke="#63b8ff" d="M366.62,-105.42C358.61,-102.6 349.89,-99.67 341.75,-97.25 332.28,-94.43 322.02,-91.72 312.26,-89.29"/>
<polygon fill="#63b8ff" stroke="#63b8ff" points="365.3,-108.67 375.9,-108.77 367.68,-102.09 365.3,-108.67"/>
</a>
</g>
</g>
<!-- Node6 -->
<g id="Node000006" class="node">
<title>Node6</title>
<g id="a_Node000006"><a xlink:href="class_f_q_d_n_label.html#a6a8fc27f40e671f93d4d5da503b69205" target="_top" xlink:title=" ">
<polygon fill="white" stroke="#666666" points="341.75,-51.5 192.25,-51.5 192.25,-21 341.75,-21 341.75,-51.5"/>
<text text-anchor="start" x="200.25" y="-38" font-family="Helvetica,sans-Serif" font-size="10.00">FQDNLabel\prepareIPNetwork</text>
<text text-anchor="middle" x="267" y="-26.75" font-family="Helvetica,sans-Serif" font-size="10.00">FromInput</text>
</a>
</g>
</g>
<!-- Node1&#45;&gt;Node6 -->
<g id="edge5_Node000001_Node000006" class="edge">
<title>Node1&#45;&gt;Node6</title>
<g id="a_edge5_Node000001_Node000006"><a xlink:title=" ">
<path fill="none" stroke="#63b8ff" d="M381.74,-97.64C371.8,-85.48 357.45,-70.08 341.75,-60.25 336.73,-57.1 331.26,-54.33 325.63,-51.9"/>
<polygon fill="#63b8ff" stroke="#63b8ff" points="378.85,-99.62 387.77,-105.34 384.36,-95.31 378.85,-99.62"/>
</a>
</g>
</g>
<!-- Node7 -->
<g id="Node000007" class="node">
<title>Node7</title>
<g id="a_Node000007"><a xlink:href="class_f_q_d_n_label.html#a672138cc1985bc9cc1b3621d322df3c5" target="_top" xlink:title=" ">
<polygon fill="white" stroke="#666666" points="156.25,-67.88 0,-67.88 0,-48.62 156.25,-48.62 156.25,-67.88"/>
<text text-anchor="middle" x="78.12" y="-54.38" font-family="Helvetica,sans-Serif" font-size="10.00">FQDNLabel\prepareInputForAdd</text>
</a>
</g>
</g>
<!-- Node6&#45;&gt;Node7 -->
<g id="edge6_Node000006_Node000007" class="edge">
<title>Node6&#45;&gt;Node7</title>
<g id="a_edge6_Node000006_Node000007"><a xlink:title=" ">
<path fill="none" stroke="#63b8ff" d="M180.61,-46.3C172.58,-47.25 164.48,-48.2 156.53,-49.14"/>
<polygon fill="#63b8ff" stroke="#63b8ff" points="180.85,-49.8 190.37,-45.15 180.03,-42.85 180.85,-49.8"/>
</a>
</g>
</g>
<!-- Node8 -->
<g id="Node000008" class="node">
<title>Node8</title>
<g id="a_Node000008"><a xlink:href="class_f_q_d_n_label.html#a8514339160707e9b58a5b00109ac1421" target="_top" xlink:title=" ">
<polygon fill="white" stroke="#666666" points="147.62,-30.5 8.62,-30.5 8.62,0 147.62,0 147.62,-30.5"/>
<text text-anchor="start" x="16.62" y="-17" font-family="Helvetica,sans-Serif" font-size="10.00">FQDNLabel\prepareInputFor</text>
<text text-anchor="middle" x="78.12" y="-5.75" font-family="Helvetica,sans-Serif" font-size="10.00">Update</text>
</a>
</g>
</g>
<!-- Node6&#45;&gt;Node8 -->
<g id="edge7_Node000006_Node000008" class="edge">
<title>Node6&#45;&gt;Node8</title>
<g id="a_edge7_Node000006_Node000008"><a xlink:title=" ">
<path fill="none" stroke="#63b8ff" d="M180.58,-26.65C169.66,-25.42 158.6,-24.18 148,-22.99"/>
<polygon fill="#63b8ff" stroke="#63b8ff" points="180.04,-30.11 190.37,-27.75 180.82,-23.16 180.04,-30.11"/>
</a>
</g>
</g>
</g>
</svg>
