<?xml version="1.0" encoding="UTF-8" standalone="no"?>
<!DOCTYPE svg PUBLIC "-//W3C//DTD SVG 1.1//EN"
 "http://www.w3.org/Graphics/SVG/1.1/DTD/svg11.dtd">
<!-- Generated by graphviz version 10.0.1 (20240210.2158)
 -->
<!-- Title: TicketParameters Pages: 1 -->
<svg width="153pt" height="465pt"
 viewBox="0.00 0.00 153.00 465.00" xmlns="http://www.w3.org/2000/svg" xmlns:xlink="http://www.w3.org/1999/xlink">
<g id="graph0" class="graph" transform="scale(1 1) rotate(0) translate(4 461)">
<title>TicketParameters</title>
<!-- Node1 -->
<g id="Node000001" class="node">
<title>Node1</title>
<g id="a_Node000001"><a xlink:title=" ">
<polygon fill="#999999" stroke="none" points="145,-94 0,-94 0,0 145,0 145,-94"/>
<text text-anchor="start" x="33.88" y="-80.5" font-family="Helvetica,sans-Serif" font-size="10.00">TicketParameters</text>
<text text-anchor="start" x="71" y="-65.5" font-family="Helvetica,sans-Serif" font-size="10.00"> </text>
<text text-anchor="start" x="4" y="-50.5" font-family="Helvetica,sans-Serif" font-size="10.00">+</text>
<text text-anchor="start" x="14" y="-50.5" font-family="Helvetica,sans-Serif" font-size="10.00">getAvailableParameters()</text>
<text text-anchor="start" x="4" y="-35.5" font-family="Helvetica,sans-Serif" font-size="10.00">+</text>
<text text-anchor="start" x="14" y="-35.5" font-family="Helvetica,sans-Serif" font-size="10.00">static getDefaultNodeName()</text>
<text text-anchor="start" x="4" y="-20.5" font-family="Helvetica,sans-Serif" font-size="10.00">+</text>
<text text-anchor="start" x="14" y="-20.5" font-family="Helvetica,sans-Serif" font-size="10.00">static getObjectLabel()</text>
<text text-anchor="start" x="4.38" y="-5.5" font-family="Helvetica,sans-Serif" font-size="10.00">#</text>
<text text-anchor="start" x="14" y="-5.5" font-family="Helvetica,sans-Serif" font-size="10.00">getTargetClasses()</text>
<polygon fill="#666666" stroke="#666666" points="0,-77 0,-77 145,-77 145,-77 0,-77"/>
<polygon fill="#666666" stroke="#666666" points="0,-62 0,-62 145,-62 145,-62 0,-62"/>
<polygon fill="none" stroke="#666666" points="0,0 0,-94 145,-94 145,0 0,0"/>
</a>
</g>
</g>
<!-- Node2 -->
<g id="Node000002" class="node">
<title>Node2</title>
<g id="a_Node000002"><a xlink:href="class_glpi_1_1_content_templates_1_1_parameters_1_1_common_i_t_i_l_object_parameters.html" target="_top" xlink:title=" ">
<polygon fill="white" stroke="none" points="145,-179 0,-179 0,-130 145,-130 145,-179"/>
<text text-anchor="start" x="4.62" y="-165.5" font-family="Helvetica,sans-Serif" font-size="10.00">CommonITILObjectParameters</text>
<text text-anchor="start" x="71" y="-150.5" font-family="Helvetica,sans-Serif" font-size="10.00"> </text>
<text text-anchor="start" x="8.5" y="-135.5" font-family="Helvetica,sans-Serif" font-size="10.00">+</text>
<text text-anchor="start" x="23" y="-135.5" font-family="Helvetica,sans-Serif" font-size="10.00">getAvailableParameters()</text>
<polygon fill="#666666" stroke="#666666" points="0,-162 0,-162 145,-162 145,-162 0,-162"/>
<polygon fill="#666666" stroke="#666666" points="0,-147 0,-147 145,-147 145,-147 0,-147"/>
<polygon fill="none" stroke="#666666" points="0,-130 0,-179 145,-179 145,-130 0,-130"/>
</a>
</g>
</g>
<!-- Node2&#45;&gt;Node1 -->
<g id="edge1_Node000001_Node000002" class="edge">
<title>Node2&#45;&gt;Node1</title>
<g id="a_edge1_Node000001_Node000002"><a xlink:title=" ">
<path fill="none" stroke="#63b8ff" d="M72.5,-118.63C72.5,-110.7 72.5,-102.16 72.5,-93.85"/>
<polygon fill="none" stroke="#63b8ff" points="69,-118.57 72.5,-128.57 76,-118.57 69,-118.57"/>
</a>
</g>
</g>
<!-- Node3 -->
<g id="Node000003" class="node">
<title>Node3</title>
<g id="a_Node000003"><a xlink:href="class_glpi_1_1_content_templates_1_1_parameters_1_1_abstract_parameters.html" target="_top" xlink:title=" ">
<polygon fill="white" stroke="none" points="144.5,-316 0.5,-316 0.5,-215 144.5,-215 144.5,-316"/>
<text text-anchor="start" x="29" y="-302.5" font-family="Helvetica,sans-Serif" font-size="10.00">AbstractParameters</text>
<text text-anchor="start" x="71" y="-287.5" font-family="Helvetica,sans-Serif" font-size="10.00"> </text>
<text text-anchor="start" x="4.5" y="-272.5" font-family="Helvetica,sans-Serif" font-size="10.00">+</text>
<text text-anchor="start" x="14.5" y="-272.5" font-family="Helvetica,sans-Serif" font-size="10.00">getValues(CommonDBTM</text>
<text text-anchor="start" x="14.5" y="-261.25" font-family="Helvetica,sans-Serif" font-size="10.00"> $item)</text>
<text text-anchor="start" x="4.88" y="-246.5" font-family="Helvetica,sans-Serif" font-size="10.00">#</text>
<text text-anchor="start" x="14.5" y="-246.5" font-family="Helvetica,sans-Serif" font-size="10.00">defineValues(CommonDBTM</text>
<text text-anchor="start" x="14.5" y="-235.25" font-family="Helvetica,sans-Serif" font-size="10.00"> $item)</text>
<text text-anchor="start" x="4.88" y="-220.5" font-family="Helvetica,sans-Serif" font-size="10.00">#</text>
<text text-anchor="start" x="14.5" y="-220.5" font-family="Helvetica,sans-Serif" font-size="10.00">getTargetClasses()</text>
<polygon fill="#666666" stroke="#666666" points="0.5,-299 0.5,-299 144.5,-299 144.5,-299 0.5,-299"/>
<polygon fill="#666666" stroke="#666666" points="0.5,-284 0.5,-284 144.5,-284 144.5,-284 0.5,-284"/>
<polygon fill="none" stroke="#666666" points="0.5,-215 0.5,-316 144.5,-316 144.5,-215 0.5,-215"/>
</a>
</g>
</g>
<!-- Node3&#45;&gt;Node2 -->
<g id="edge2_Node000002_Node000003" class="edge">
<title>Node3&#45;&gt;Node2</title>
<g id="a_edge2_Node000002_Node000003"><a xlink:title=" ">
<path fill="none" stroke="#63b8ff" d="M72.5,-203.84C72.5,-194.98 72.5,-186.35 72.5,-178.88"/>
<polygon fill="none" stroke="#63b8ff" points="69,-203.59 72.5,-213.59 76,-203.59 69,-203.59"/>
</a>
</g>
</g>
<!-- Node4 -->
<g id="Node000004" class="node">
<title>Node4</title>
<g id="a_Node000004"><a xlink:href="interface_glpi_1_1_content_templates_1_1_parameters_1_1_templates_parameters_interface.html" target="_top" xlink:title=" ">
<polygon fill="white" stroke="none" points="145,-457 0,-457 0,-352 145,-352 145,-457"/>
<text text-anchor="start" x="5.75" y="-443.5" font-family="Helvetica,sans-Serif" font-size="10.00">TemplatesParametersInterface</text>
<text text-anchor="start" x="71" y="-428.5" font-family="Helvetica,sans-Serif" font-size="10.00"> </text>
<text text-anchor="start" x="4" y="-413.5" font-family="Helvetica,sans-Serif" font-size="10.00">+</text>
<text text-anchor="start" x="14" y="-413.5" font-family="Helvetica,sans-Serif" font-size="10.00">getValues(CommonDBTM</text>
<text text-anchor="start" x="14" y="-402.25" font-family="Helvetica,sans-Serif" font-size="10.00"> $item)</text>
<text text-anchor="start" x="4" y="-387.5" font-family="Helvetica,sans-Serif" font-size="10.00">+</text>
<text text-anchor="start" x="14" y="-387.5" font-family="Helvetica,sans-Serif" font-size="10.00">getAvailableParameters()</text>
<text text-anchor="start" x="4" y="-372.5" font-family="Helvetica,sans-Serif" font-size="10.00">+</text>
<text text-anchor="start" x="14" y="-372.5" font-family="Helvetica,sans-Serif" font-size="10.00">static getDefaultNodeName()</text>
<text text-anchor="start" x="4" y="-357.5" font-family="Helvetica,sans-Serif" font-size="10.00">+</text>
<text text-anchor="start" x="14" y="-357.5" font-family="Helvetica,sans-Serif" font-size="10.00">static getObjectLabel()</text>
<polygon fill="#666666" stroke="#666666" points="0,-440 0,-440 145,-440 145,-440 0,-440"/>
<polygon fill="#666666" stroke="#666666" points="0,-425 0,-425 145,-425 145,-425 0,-425"/>
<polygon fill="none" stroke="#666666" points="0,-352 0,-457 145,-457 145,-352 0,-352"/>
</a>
</g>
</g>
<!-- Node4&#45;&gt;Node3 -->
<g id="edge3_Node000003_Node000004" class="edge">
<title>Node4&#45;&gt;Node3</title>
<g id="a_edge3_Node000003_Node000004"><a xlink:title=" ">
<path fill="none" stroke="#63b8ff" d="M72.5,-340.83C72.5,-332.47 72.5,-324 72.5,-315.92"/>
<polygon fill="none" stroke="#63b8ff" points="69,-340.58 72.5,-350.58 76,-340.58 69,-340.58"/>
</a>
</g>
</g>
</g>
</svg>
