<?xml version="1.0" encoding="UTF-8" standalone="no"?>
<!DOCTYPE svg PUBLIC "-//W3C//DTD SVG 1.1//EN"
 "http://www.w3.org/Graphics/SVG/1.1/DTD/svg11.dtd">
<!-- Generated by graphviz version 10.0.1 (20240210.2158)
 -->
<!-- Title: Date Pages: 1 -->
<svg width="555pt" height="1137pt"
 viewBox="0.00 0.00 555.25 1136.75" xmlns="http://www.w3.org/2000/svg" xmlns:xlink="http://www.w3.org/1999/xlink">
<g id="graph0" class="graph" transform="scale(1 1) rotate(0) translate(4 1132.75)">
<title>Date</title>
<!-- Node1 -->
<g id="Node000001" class="node">
<title>Node1</title>
<g id="a_Node000001"><a xlink:title=" ">
<polygon fill="#999999" stroke="none" points="347.5,-64 167.5,-64 167.5,0 347.5,0 347.5,-64"/>
<text text-anchor="start" x="247" y="-50.5" font-family="Helvetica,sans-Serif" font-size="10.00">Date</text>
<text text-anchor="start" x="256" y="-35.5" font-family="Helvetica,sans-Serif" font-size="10.00"> </text>
<text text-anchor="start" x="171.5" y="-20.5" font-family="Helvetica,sans-Serif" font-size="10.00">+</text>
<text text-anchor="start" x="181.5" y="-20.5" font-family="Helvetica,sans-Serif" font-size="10.00">getValueType()</text>
<text text-anchor="start" x="171.5" y="-5.5" font-family="Helvetica,sans-Serif" font-size="10.00">+</text>
<text text-anchor="start" x="181.5" y="-5.5" font-family="Helvetica,sans-Serif" font-size="10.00">setDateTime(\DateTimeInterface $dt)</text>
<polygon fill="#666666" stroke="#666666" points="167.5,-47 167.5,-47 347.5,-47 347.5,-47 167.5,-47"/>
<polygon fill="#666666" stroke="#666666" points="167.5,-32 167.5,-32 347.5,-32 347.5,-32 167.5,-32"/>
<polygon fill="none" stroke="#666666" points="167.5,0 167.5,-64 347.5,-64 347.5,0 167.5,0"/>
</a>
</g>
</g>
<!-- Node2 -->
<g id="Node000002" class="node">
<title>Node2</title>
<g id="a_Node000002"><a xlink:href="class_sabre_1_1_v_object_1_1_property_1_1_v_card_1_1_date_and_or_time.html" target="_top" xlink:title=" ">
<polygon fill="white" stroke="none" points="346,-307 169,-307 169,-101 346,-101 346,-307"/>
<text text-anchor="start" x="222.25" y="-293.5" font-family="Helvetica,sans-Serif" font-size="10.00">DateAndOrTime</text>
<text text-anchor="start" x="173" y="-278.5" font-family="Helvetica,sans-Serif" font-size="10.00">+</text>
<text text-anchor="start" x="183" y="-278.5" font-family="Helvetica,sans-Serif" font-size="10.00">$delimiter</text>
<text text-anchor="start" x="173" y="-263.5" font-family="Helvetica,sans-Serif" font-size="10.00">+</text>
<text text-anchor="start" x="183" y="-263.5" font-family="Helvetica,sans-Serif" font-size="10.00">getValueType()</text>
<text text-anchor="start" x="173" y="-248.5" font-family="Helvetica,sans-Serif" font-size="10.00">+</text>
<text text-anchor="start" x="183" y="-248.5" font-family="Helvetica,sans-Serif" font-size="10.00">setParts(array $parts)</text>
<text text-anchor="start" x="173" y="-233.5" font-family="Helvetica,sans-Serif" font-size="10.00">+</text>
<text text-anchor="start" x="183" y="-233.5" font-family="Helvetica,sans-Serif" font-size="10.00">setValue($value)</text>
<text text-anchor="start" x="173" y="-218.5" font-family="Helvetica,sans-Serif" font-size="10.00">+</text>
<text text-anchor="start" x="183" y="-218.5" font-family="Helvetica,sans-Serif" font-size="10.00">setDateTime(DateTimeInterface $dt)</text>
<text text-anchor="start" x="173" y="-203.5" font-family="Helvetica,sans-Serif" font-size="10.00">+</text>
<text text-anchor="start" x="183" y="-203.5" font-family="Helvetica,sans-Serif" font-size="10.00">getDateTime()</text>
<text text-anchor="start" x="173" y="-188.5" font-family="Helvetica,sans-Serif" font-size="10.00">+</text>
<text text-anchor="start" x="183" y="-188.5" font-family="Helvetica,sans-Serif" font-size="10.00">getJsonValue()</text>
<text text-anchor="start" x="173" y="-173.5" font-family="Helvetica,sans-Serif" font-size="10.00">+</text>
<text text-anchor="start" x="183" y="-173.5" font-family="Helvetica,sans-Serif" font-size="10.00">setRawMimeDirValue</text>
<text text-anchor="start" x="183" y="-162.25" font-family="Helvetica,sans-Serif" font-size="10.00">($val)</text>
<text text-anchor="start" x="173" y="-147.5" font-family="Helvetica,sans-Serif" font-size="10.00">+</text>
<text text-anchor="start" x="183" y="-147.5" font-family="Helvetica,sans-Serif" font-size="10.00">getRawMimeDirValue()</text>
<text text-anchor="start" x="173" y="-132.5" font-family="Helvetica,sans-Serif" font-size="10.00">+</text>
<text text-anchor="start" x="183" y="-132.5" font-family="Helvetica,sans-Serif" font-size="10.00">validate($options=0)</text>
<text text-anchor="start" x="173.38" y="-117.5" font-family="Helvetica,sans-Serif" font-size="10.00">#</text>
<text text-anchor="start" x="183" y="-117.5" font-family="Helvetica,sans-Serif" font-size="10.00">xmlSerializeValue</text>
<text text-anchor="start" x="183" y="-106.25" font-family="Helvetica,sans-Serif" font-size="10.00">(Xml\Writer $writer)</text>
<polygon fill="#666666" stroke="#666666" points="169,-290 169,-290 346,-290 346,-290 169,-290"/>
<polygon fill="#666666" stroke="#666666" points="169,-275 169,-275 181,-275 181,-275 169,-275"/>
<polygon fill="#666666" stroke="#666666" points="181,-275 181,-275 346,-275 346,-275 181,-275"/>
<polygon fill="none" stroke="#666666" points="169,-101 169,-307 346,-307 346,-101 169,-101"/>
</a>
</g>
</g>
<!-- Node2&#45;&gt;Node1 -->
<g id="edge1_Node000001_Node000002" class="edge">
<title>Node2&#45;&gt;Node1</title>
<g id="a_edge1_Node000001_Node000002"><a xlink:title=" ">
<path fill="none" stroke="#63b8ff" d="M257.5,-89.88C257.5,-80.45 257.5,-71.54 257.5,-63.69"/>
<polygon fill="none" stroke="#63b8ff" points="254,-89.65 257.5,-99.65 261,-89.65 254,-89.65"/>
</a>
</g>
</g>
<!-- Node3 -->
<g id="Node000003" class="node">
<title>Node3</title>
<g id="a_Node000003"><a xlink:href="class_sabre_1_1_v_object_1_1_property.html" target="_top" xlink:title=" ">
<polygon fill="white" stroke="none" points="319,-685 196,-685 196,-344 319,-344 319,-685"/>
<text text-anchor="start" x="239.12" y="-671.5" font-family="Helvetica,sans-Serif" font-size="10.00">Property</text>
<text text-anchor="start" x="200" y="-656.5" font-family="Helvetica,sans-Serif" font-size="10.00">+</text>
<text text-anchor="start" x="210" y="-656.5" font-family="Helvetica,sans-Serif" font-size="10.00">$name</text>
<text text-anchor="start" x="200" y="-641.5" font-family="Helvetica,sans-Serif" font-size="10.00">+</text>
<text text-anchor="start" x="210" y="-641.5" font-family="Helvetica,sans-Serif" font-size="10.00">$group</text>
<text text-anchor="start" x="200" y="-626.5" font-family="Helvetica,sans-Serif" font-size="10.00">+</text>
<text text-anchor="start" x="210" y="-626.5" font-family="Helvetica,sans-Serif" font-size="10.00">$parameters</text>
<text text-anchor="start" x="200" y="-611.5" font-family="Helvetica,sans-Serif" font-size="10.00">+</text>
<text text-anchor="start" x="210" y="-611.5" font-family="Helvetica,sans-Serif" font-size="10.00">$delimiter</text>
<text text-anchor="start" x="200.38" y="-596.5" font-family="Helvetica,sans-Serif" font-size="10.00">#</text>
<text text-anchor="start" x="210" y="-596.5" font-family="Helvetica,sans-Serif" font-size="10.00">$value</text>
<text text-anchor="start" x="200" y="-581.5" font-family="Helvetica,sans-Serif" font-size="10.00">+</text>
<text text-anchor="start" x="210" y="-581.5" font-family="Helvetica,sans-Serif" font-size="10.00">__construct(Component</text>
<text text-anchor="start" x="210" y="-570.25" font-family="Helvetica,sans-Serif" font-size="10.00"> $root, $name, $value</text>
<text text-anchor="start" x="210" y="-559" font-family="Helvetica,sans-Serif" font-size="10.00">=null, array $parameters</text>
<text text-anchor="start" x="210" y="-547.75" font-family="Helvetica,sans-Serif" font-size="10.00">=[], $group=null)</text>
<text text-anchor="start" x="200" y="-532.5" font-family="Helvetica,sans-Serif" font-size="10.00">+</text>
<text text-anchor="start" x="210" y="-532.5" font-family="Helvetica,sans-Serif" font-size="10.00">setValue($value)</text>
<text text-anchor="start" x="200" y="-517.5" font-family="Helvetica,sans-Serif" font-size="10.00">+</text>
<text text-anchor="start" x="210" y="-517.5" font-family="Helvetica,sans-Serif" font-size="10.00">getValue()</text>
<text text-anchor="start" x="200" y="-502.5" font-family="Helvetica,sans-Serif" font-size="10.00">+</text>
<text text-anchor="start" x="210" y="-502.5" font-family="Helvetica,sans-Serif" font-size="10.00">setParts(array $parts)</text>
<text text-anchor="start" x="200" y="-487.5" font-family="Helvetica,sans-Serif" font-size="10.00">+</text>
<text text-anchor="start" x="210" y="-487.5" font-family="Helvetica,sans-Serif" font-size="10.00">getParts()</text>
<text text-anchor="start" x="200" y="-472.5" font-family="Helvetica,sans-Serif" font-size="10.00">+</text>
<text text-anchor="start" x="210" y="-472.5" font-family="Helvetica,sans-Serif" font-size="10.00">add($name, $value</text>
<text text-anchor="start" x="210" y="-461.25" font-family="Helvetica,sans-Serif" font-size="10.00">=null)</text>
<text text-anchor="start" x="200" y="-446.5" font-family="Helvetica,sans-Serif" font-size="10.00">+</text>
<text text-anchor="start" x="210" y="-446.5" font-family="Helvetica,sans-Serif" font-size="10.00">parameters()</text>
<text text-anchor="start" x="200" y="-431.5" font-family="Helvetica,sans-Serif" font-size="10.00">+</text>
<text text-anchor="start" x="210" y="-431.5" font-family="Helvetica,sans-Serif" font-size="10.00">getValueType()</text>
<text text-anchor="start" x="200" y="-416.5" font-family="Helvetica,sans-Serif" font-size="10.00">+</text>
<text text-anchor="start" x="210" y="-416.5" font-family="Helvetica,sans-Serif" font-size="10.00">setRawMimeDirValue</text>
<text text-anchor="start" x="210" y="-405.25" font-family="Helvetica,sans-Serif" font-size="10.00">($val)</text>
<text text-anchor="start" x="200" y="-390.5" font-family="Helvetica,sans-Serif" font-size="10.00">+</text>
<text text-anchor="start" x="210" y="-390.5" font-family="Helvetica,sans-Serif" font-size="10.00">getRawMimeDirValue()</text>
<text text-anchor="start" x="210" y="-375.5" font-family="Helvetica,sans-Serif" font-size="10.00">et 14 de plus...</text>
<text text-anchor="start" x="200.38" y="-360.5" font-family="Helvetica,sans-Serif" font-size="10.00">#</text>
<text text-anchor="start" x="210" y="-360.5" font-family="Helvetica,sans-Serif" font-size="10.00">xmlSerializeValue</text>
<text text-anchor="start" x="210" y="-349.25" font-family="Helvetica,sans-Serif" font-size="10.00">(Xml\Writer $writer)</text>
<polygon fill="#666666" stroke="#666666" points="196,-668 196,-668 319,-668 319,-668 196,-668"/>
<polygon fill="#666666" stroke="#666666" points="196,-593 196,-593 208,-593 208,-593 196,-593"/>
<polygon fill="#666666" stroke="#666666" points="208,-593 208,-593 319,-593 319,-593 208,-593"/>
<polygon fill="none" stroke="#666666" points="196,-344 196,-685 319,-685 319,-344 196,-344"/>
</a>
</g>
</g>
<!-- Node3&#45;&gt;Node2 -->
<g id="edge2_Node000002_Node000003" class="edge">
<title>Node3&#45;&gt;Node2</title>
<g id="a_edge2_Node000002_Node000003"><a xlink:title=" ">
<path fill="none" stroke="#63b8ff" d="M257.5,-333.03C257.5,-324.13 257.5,-315.35 257.5,-306.81"/>
<polygon fill="none" stroke="#63b8ff" points="254,-332.84 257.5,-342.84 261,-332.84 254,-332.84"/>
</a>
</g>
</g>
<!-- Node4 -->
<g id="Node000004" class="node">
<title>Node4</title>
<g id="a_Node000004"><a xlink:href="class_sabre_1_1_v_object_1_1_node.html" target="_top" xlink:title=" ">
<polygon fill="white" stroke="none" points="317.5,-999 197.5,-999 197.5,-722 317.5,-722 317.5,-999"/>
<text text-anchor="start" x="245.88" y="-985.5" font-family="Helvetica,sans-Serif" font-size="10.00">Node</text>
<text text-anchor="start" x="201.5" y="-970.5" font-family="Helvetica,sans-Serif" font-size="10.00">+</text>
<text text-anchor="start" x="211.5" y="-970.5" font-family="Helvetica,sans-Serif" font-size="10.00">$parent</text>
<text text-anchor="start" x="201.88" y="-955.5" font-family="Helvetica,sans-Serif" font-size="10.00">#</text>
<text text-anchor="start" x="211.5" y="-955.5" font-family="Helvetica,sans-Serif" font-size="10.00">$iterator</text>
<text text-anchor="start" x="201.88" y="-940.5" font-family="Helvetica,sans-Serif" font-size="10.00">#</text>
<text text-anchor="start" x="211.5" y="-940.5" font-family="Helvetica,sans-Serif" font-size="10.00">$root</text>
<text text-anchor="start" x="201.5" y="-925.5" font-family="Helvetica,sans-Serif" font-size="10.00">+</text>
<text text-anchor="start" x="211.5" y="-925.5" font-family="Helvetica,sans-Serif" font-size="10.00">serialize()</text>
<text text-anchor="start" x="201.5" y="-910.5" font-family="Helvetica,sans-Serif" font-size="10.00">+</text>
<text text-anchor="start" x="211.5" y="-910.5" font-family="Helvetica,sans-Serif" font-size="10.00">jsonSerialize()</text>
<text text-anchor="start" x="201.5" y="-895.5" font-family="Helvetica,sans-Serif" font-size="10.00">+</text>
<text text-anchor="start" x="211.5" y="-895.5" font-family="Helvetica,sans-Serif" font-size="10.00">xmlSerialize(Xml\Writer</text>
<text text-anchor="start" x="211.5" y="-884.25" font-family="Helvetica,sans-Serif" font-size="10.00"> $writer)</text>
<text text-anchor="start" x="201.5" y="-869.5" font-family="Helvetica,sans-Serif" font-size="10.00">+</text>
<text text-anchor="start" x="211.5" y="-869.5" font-family="Helvetica,sans-Serif" font-size="10.00">destroy()</text>
<text text-anchor="start" x="201.5" y="-854.5" font-family="Helvetica,sans-Serif" font-size="10.00">+</text>
<text text-anchor="start" x="211.5" y="-854.5" font-family="Helvetica,sans-Serif" font-size="10.00">getIterator()</text>
<text text-anchor="start" x="201.5" y="-839.5" font-family="Helvetica,sans-Serif" font-size="10.00">+</text>
<text text-anchor="start" x="211.5" y="-839.5" font-family="Helvetica,sans-Serif" font-size="10.00">setIterator(ElementList</text>
<text text-anchor="start" x="211.5" y="-828.25" font-family="Helvetica,sans-Serif" font-size="10.00"> $iterator)</text>
<text text-anchor="start" x="201.5" y="-813.5" font-family="Helvetica,sans-Serif" font-size="10.00">+</text>
<text text-anchor="start" x="211.5" y="-813.5" font-family="Helvetica,sans-Serif" font-size="10.00">validate($options=0)</text>
<text text-anchor="start" x="201.5" y="-798.5" font-family="Helvetica,sans-Serif" font-size="10.00">+</text>
<text text-anchor="start" x="211.5" y="-798.5" font-family="Helvetica,sans-Serif" font-size="10.00">count()</text>
<text text-anchor="start" x="201.5" y="-783.5" font-family="Helvetica,sans-Serif" font-size="10.00">+</text>
<text text-anchor="start" x="211.5" y="-783.5" font-family="Helvetica,sans-Serif" font-size="10.00">offsetExists($offset)</text>
<text text-anchor="start" x="201.5" y="-768.5" font-family="Helvetica,sans-Serif" font-size="10.00">+</text>
<text text-anchor="start" x="211.5" y="-768.5" font-family="Helvetica,sans-Serif" font-size="10.00">offsetGet($offset)</text>
<text text-anchor="start" x="201.5" y="-753.5" font-family="Helvetica,sans-Serif" font-size="10.00">+</text>
<text text-anchor="start" x="211.5" y="-753.5" font-family="Helvetica,sans-Serif" font-size="10.00">offsetSet($offset,</text>
<text text-anchor="start" x="211.5" y="-742.25" font-family="Helvetica,sans-Serif" font-size="10.00"> $value)</text>
<text text-anchor="start" x="201.5" y="-727.5" font-family="Helvetica,sans-Serif" font-size="10.00">+</text>
<text text-anchor="start" x="211.5" y="-727.5" font-family="Helvetica,sans-Serif" font-size="10.00">offsetUnset($offset)</text>
<polygon fill="#666666" stroke="#666666" points="197.5,-982 197.5,-982 317.5,-982 317.5,-982 197.5,-982"/>
<polygon fill="#666666" stroke="#666666" points="197.5,-937 197.5,-937 209.5,-937 209.5,-937 197.5,-937"/>
<polygon fill="#666666" stroke="#666666" points="209.5,-937 209.5,-937 317.5,-937 317.5,-937 209.5,-937"/>
<polygon fill="none" stroke="#666666" points="197.5,-722 197.5,-999 317.5,-999 317.5,-722 197.5,-722"/>
</a>
</g>
</g>
<!-- Node4&#45;&gt;Node3 -->
<g id="edge3_Node000003_Node000004" class="edge">
<title>Node4&#45;&gt;Node3</title>
<g id="a_edge3_Node000003_Node000004"><a xlink:title=" ">
<path fill="none" stroke="#63b8ff" d="M257.5,-710.79C257.5,-702.18 257.5,-693.5 257.5,-684.82"/>
<polygon fill="none" stroke="#63b8ff" points="254,-710.55 257.5,-720.55 261,-710.55 254,-710.55"/>
</a>
</g>
</g>
<!-- Node5 -->
<g id="Node000005" class="node">
<title>Node5</title>
<g id="a_Node000005"><a xlink:title=" ">
<polygon fill="white" stroke="none" points="85,-1123.25 0,-1123.25 0,-1074.25 85,-1074.25 85,-1123.25"/>
<text text-anchor="start" x="5" y="-1109.75" font-family="Helvetica,sans-Serif" font-size="10.00">IteratorAggregate</text>
<text text-anchor="start" x="41" y="-1094.75" font-family="Helvetica,sans-Serif" font-size="10.00"> </text>
<text text-anchor="start" x="41" y="-1079.75" font-family="Helvetica,sans-Serif" font-size="10.00"> </text>
<polygon fill="#666666" stroke="#666666" points="0,-1106.25 0,-1106.25 85,-1106.25 85,-1106.25 0,-1106.25"/>
<polygon fill="#666666" stroke="#666666" points="0,-1091.25 0,-1091.25 85,-1091.25 85,-1091.25 0,-1091.25"/>
<polygon fill="none" stroke="#666666" points="0,-1074.25 0,-1123.25 85,-1123.25 85,-1074.25 0,-1074.25"/>
</a>
</g>
</g>
<!-- Node5&#45;&gt;Node4 -->
<g id="edge4_Node000004_Node000005" class="edge">
<title>Node5&#45;&gt;Node4</title>
<g id="a_edge4_Node000004_Node000005"><a xlink:title=" ">
<path fill="none" stroke="#63b8ff" d="M71.21,-1066.2C103.38,-1030.85 156.42,-972.58 197.69,-927.22"/>
<polygon fill="none" stroke="#63b8ff" points="68.67,-1063.8 64.53,-1073.55 73.84,-1068.51 68.67,-1063.8"/>
</a>
</g>
</g>
<!-- Node6 -->
<g id="Node000006" class="node">
<title>Node6</title>
<g id="a_Node000006"><a xlink:title=" ">
<polygon fill="white" stroke="none" points="169.5,-1123.25 103.5,-1123.25 103.5,-1074.25 169.5,-1074.25 169.5,-1123.25"/>
<text text-anchor="start" x="108.38" y="-1109.75" font-family="Helvetica,sans-Serif" font-size="10.00">ArrayAccess</text>
<text text-anchor="start" x="135" y="-1094.75" font-family="Helvetica,sans-Serif" font-size="10.00"> </text>
<text text-anchor="start" x="135" y="-1079.75" font-family="Helvetica,sans-Serif" font-size="10.00"> </text>
<polygon fill="#666666" stroke="#666666" points="103.5,-1106.25 103.5,-1106.25 169.5,-1106.25 169.5,-1106.25 103.5,-1106.25"/>
<polygon fill="#666666" stroke="#666666" points="103.5,-1091.25 103.5,-1091.25 169.5,-1091.25 169.5,-1091.25 103.5,-1091.25"/>
<polygon fill="none" stroke="#666666" points="103.5,-1074.25 103.5,-1123.25 169.5,-1123.25 169.5,-1074.25 103.5,-1074.25"/>
</a>
</g>
</g>
<!-- Node6&#45;&gt;Node4 -->
<g id="edge5_Node000004_Node000006" class="edge">
<title>Node6&#45;&gt;Node4</title>
<g id="a_edge5_Node000004_Node000006"><a xlink:title=" ">
<path fill="none" stroke="#63b8ff" d="M153.5,-1064.57C165.15,-1041.82 181.37,-1010.15 197.53,-978.58"/>
<polygon fill="none" stroke="#63b8ff" points="150.46,-1062.82 149.01,-1073.32 156.69,-1066.02 150.46,-1062.82"/>
</a>
</g>
</g>
<!-- Node7 -->
<g id="Node000007" class="node">
<title>Node7</title>
<g id="a_Node000007"><a xlink:title=" ">
<polygon fill="white" stroke="none" points="241.5,-1123.25 187.5,-1123.25 187.5,-1074.25 241.5,-1074.25 241.5,-1123.25"/>
<text text-anchor="start" x="192.38" y="-1109.75" font-family="Helvetica,sans-Serif" font-size="10.00">Countable</text>
<text text-anchor="start" x="213" y="-1094.75" font-family="Helvetica,sans-Serif" font-size="10.00"> </text>
<text text-anchor="start" x="213" y="-1079.75" font-family="Helvetica,sans-Serif" font-size="10.00"> </text>
<polygon fill="#666666" stroke="#666666" points="187.5,-1106.25 187.5,-1106.25 241.5,-1106.25 241.5,-1106.25 187.5,-1106.25"/>
<polygon fill="#666666" stroke="#666666" points="187.5,-1091.25 187.5,-1091.25 241.5,-1091.25 241.5,-1091.25 187.5,-1091.25"/>
<polygon fill="none" stroke="#666666" points="187.5,-1074.25 187.5,-1123.25 241.5,-1123.25 241.5,-1074.25 187.5,-1074.25"/>
</a>
</g>
</g>
<!-- Node7&#45;&gt;Node4 -->
<g id="edge6_Node000004_Node000007" class="edge">
<title>Node7&#45;&gt;Node4</title>
<g id="a_edge6_Node000004_Node000007"><a xlink:title=" ">
<path fill="none" stroke="#63b8ff" d="M220.72,-1063.55C223.95,-1045.83 228.12,-1022.9 232.49,-998.88"/>
<polygon fill="none" stroke="#63b8ff" points="217.32,-1062.71 218.97,-1073.18 224.21,-1063.97 217.32,-1062.71"/>
</a>
</g>
</g>
<!-- Node8 -->
<g id="Node000008" class="node">
<title>Node8</title>
<g id="a_Node000008"><a xlink:title=" ">
<polygon fill="white" stroke="none" points="341,-1123.25 260,-1123.25 260,-1074.25 341,-1074.25 341,-1123.25"/>
<text text-anchor="start" x="264.88" y="-1109.75" font-family="Helvetica,sans-Serif" font-size="10.00">JsonSerializable</text>
<text text-anchor="start" x="299" y="-1094.75" font-family="Helvetica,sans-Serif" font-size="10.00"> </text>
<text text-anchor="start" x="299" y="-1079.75" font-family="Helvetica,sans-Serif" font-size="10.00"> </text>
<polygon fill="#666666" stroke="#666666" points="260,-1106.25 260,-1106.25 341,-1106.25 341,-1106.25 260,-1106.25"/>
<polygon fill="#666666" stroke="#666666" points="260,-1091.25 260,-1091.25 341,-1091.25 341,-1091.25 260,-1091.25"/>
<polygon fill="none" stroke="#666666" points="260,-1074.25 260,-1123.25 341,-1123.25 341,-1074.25 260,-1074.25"/>
</a>
</g>
</g>
<!-- Node8&#45;&gt;Node4 -->
<g id="edge7_Node000004_Node000008" class="edge">
<title>Node8&#45;&gt;Node4</title>
<g id="a_edge7_Node000004_Node000008"><a xlink:title=" ">
<path fill="none" stroke="#63b8ff" d="M294.28,-1063.55C291.05,-1045.83 286.88,-1022.9 282.51,-998.88"/>
<polygon fill="none" stroke="#63b8ff" points="290.79,-1063.97 296.03,-1073.18 297.68,-1062.71 290.79,-1063.97"/>
</a>
</g>
</g>
<!-- Node9 -->
<g id="Node000009" class="node">
<title>Node9</title>
<g id="a_Node000009"><a xlink:href="interface_sabre_1_1_xml_1_1_xml_serializable.html" target="_top" xlink:title=" ">
<polygon fill="white" stroke="none" points="458,-1128.75 359,-1128.75 359,-1068.75 458,-1068.75 458,-1128.75"/>
<text text-anchor="start" x="374.75" y="-1115.25" font-family="Helvetica,sans-Serif" font-size="10.00">XmlSerializable</text>
<text text-anchor="start" x="407" y="-1100.25" font-family="Helvetica,sans-Serif" font-size="10.00"> </text>
<text text-anchor="start" x="363" y="-1085.25" font-family="Helvetica,sans-Serif" font-size="10.00">+</text>
<text text-anchor="start" x="373" y="-1085.25" font-family="Helvetica,sans-Serif" font-size="10.00">xmlSerialize(Writer</text>
<text text-anchor="start" x="373" y="-1074" font-family="Helvetica,sans-Serif" font-size="10.00"> $writer)</text>
<polygon fill="#666666" stroke="#666666" points="359,-1111.75 359,-1111.75 458,-1111.75 458,-1111.75 359,-1111.75"/>
<polygon fill="#666666" stroke="#666666" points="359,-1096.75 359,-1096.75 458,-1096.75 458,-1096.75 359,-1096.75"/>
<polygon fill="none" stroke="#666666" points="359,-1068.75 359,-1128.75 458,-1128.75 458,-1068.75 359,-1068.75"/>
</a>
</g>
</g>
<!-- Node9&#45;&gt;Node4 -->
<g id="edge8_Node000004_Node000009" class="edge">
<title>Node9&#45;&gt;Node4</title>
<g id="a_edge8_Node000004_Node000009"><a xlink:title=" ">
<path fill="none" stroke="#63b8ff" d="M383.93,-1059.31C365.93,-1031.15 340.69,-991.65 317.48,-955.35"/>
<polygon fill="none" stroke="#63b8ff" points="380.83,-1060.96 389.17,-1067.51 386.73,-1057.19 380.83,-1060.96"/>
</a>
</g>
</g>
<!-- Node10 -->
<g id="Node000010" class="node">
<title>Node10</title>
<g id="a_Node000010"><a xlink:title=" ">
<polygon fill="white" stroke="none" points="510.5,-1123.25 476.5,-1123.25 476.5,-1074.25 510.5,-1074.25 510.5,-1123.25"/>
<text text-anchor="start" x="481.5" y="-1109.75" font-family="Helvetica,sans-Serif" font-size="10.00">const</text>
<text text-anchor="start" x="492" y="-1094.75" font-family="Helvetica,sans-Serif" font-size="10.00"> </text>
<text text-anchor="start" x="492" y="-1079.75" font-family="Helvetica,sans-Serif" font-size="10.00"> </text>
<polygon fill="#666666" stroke="#666666" points="476.5,-1106.25 476.5,-1106.25 510.5,-1106.25 510.5,-1106.25 476.5,-1106.25"/>
<polygon fill="#666666" stroke="#666666" points="476.5,-1091.25 476.5,-1091.25 510.5,-1091.25 510.5,-1091.25 476.5,-1091.25"/>
<polygon fill="none" stroke="#666666" points="476.5,-1074.25 476.5,-1123.25 510.5,-1123.25 510.5,-1074.25 476.5,-1074.25"/>
</a>
</g>
</g>
<!-- Node10&#45;&gt;Node4 -->
<g id="edge9_Node000004_Node000010" class="edge">
<title>Node10&#45;&gt;Node4</title>
<g id="a_edge9_Node000004_Node000010"><a xlink:title=" ">
<path fill="none" stroke="#63b8ff" d="M476.6,-1078.57C473.6,-1075.26 470.49,-1071.88 467.5,-1068.75 421.5,-1020.49 367.99,-967.73 326.5,-927.52"/>
<polygon fill="none" stroke="#63b8ff" points="326.57,-927.59 319.48,-926.3 317.95,-919.25 325.04,-920.55 326.57,-927.59"/>
</a>
</g>
<text text-anchor="middle" x="495.88" y="-1041.25" font-family="Helvetica,sans-Serif" font-size="10.00" fill="grey"> +PROFILE_CALDAV</text>
<text text-anchor="middle" x="495.88" y="-1030" font-family="Helvetica,sans-Serif" font-size="10.00" fill="grey">+PROFILE_CARDDAV</text>
<text text-anchor="middle" x="495.88" y="-1018.75" font-family="Helvetica,sans-Serif" font-size="10.00" fill="grey">+REPAIR</text>
</g>
</g>
</svg>
