<?xml version="1.0" encoding="UTF-8" standalone="no"?>
<!DOCTYPE svg PUBLIC "-//W3C//DTD SVG 1.1//EN"
 "http://www.w3.org/Graphics/SVG/1.1/DTD/svg11.dtd">
<!-- Generated by graphviz version 10.0.1 (20240210.2158)
 -->
<!-- Title: Collection Pages: 1 -->
<svg width="491pt" height="892pt"
 viewBox="0.00 0.00 490.50 892.00" xmlns="http://www.w3.org/2000/svg" xmlns:xlink="http://www.w3.org/1999/xlink">
<g id="graph0" class="graph" transform="scale(1 1) rotate(0) translate(4 888)">
<title>Collection</title>
<!-- Node1 -->
<g id="Node000001" class="node">
<title>Node1</title>
<g id="a_Node000001"><a xlink:title=" ">
<polygon fill="#999999" stroke="none" points="318.5,-60 212.5,-60 212.5,0 318.5,0 318.5,-60"/>
<text text-anchor="start" x="243.75" y="-46.5" font-family="Helvetica,sans-Serif" font-size="10.00">Collection</text>
<text text-anchor="start" x="264" y="-31.5" font-family="Helvetica,sans-Serif" font-size="10.00"> </text>
<text text-anchor="start" x="216.5" y="-16.5" font-family="Helvetica,sans-Serif" font-size="10.00">+</text>
<text text-anchor="start" x="226.5" y="-16.5" font-family="Helvetica,sans-Serif" font-size="10.00">getChildForPrincipal</text>
<text text-anchor="start" x="226.5" y="-5.25" font-family="Helvetica,sans-Serif" font-size="10.00">(array $principalInfo)</text>
<polygon fill="#666666" stroke="#666666" points="212.5,-43 212.5,-43 318.5,-43 318.5,-43 212.5,-43"/>
<polygon fill="#666666" stroke="#666666" points="212.5,-28 212.5,-28 318.5,-28 318.5,-28 212.5,-28"/>
<polygon fill="none" stroke="#666666" points="212.5,0 212.5,-60 318.5,-60 318.5,0 212.5,0"/>
</a>
</g>
</g>
<!-- Node2 -->
<g id="Node000002" class="node">
<title>Node2</title>
<g id="a_Node000002"><a xlink:href="class_sabre_1_1_d_a_v_a_c_l_1_1_principal_collection.html" target="_top" xlink:title=" ">
<polygon fill="white" stroke="none" points="330,-197 201,-197 201,-96 330,-96 330,-197"/>
<text text-anchor="start" x="225" y="-183.5" font-family="Helvetica,sans-Serif" font-size="10.00">PrincipalCollection</text>
<text text-anchor="start" x="264" y="-168.5" font-family="Helvetica,sans-Serif" font-size="10.00"> </text>
<text text-anchor="start" x="205" y="-153.5" font-family="Helvetica,sans-Serif" font-size="10.00">+</text>
<text text-anchor="start" x="215" y="-153.5" font-family="Helvetica,sans-Serif" font-size="10.00">getChildForPrincipal</text>
<text text-anchor="start" x="215" y="-142.25" font-family="Helvetica,sans-Serif" font-size="10.00">(array $principal)</text>
<text text-anchor="start" x="205" y="-127.5" font-family="Helvetica,sans-Serif" font-size="10.00">+</text>
<text text-anchor="start" x="215" y="-127.5" font-family="Helvetica,sans-Serif" font-size="10.00">createExtendedCollection</text>
<text text-anchor="start" x="215" y="-116.25" font-family="Helvetica,sans-Serif" font-size="10.00">($name, MkCol $mkCol)</text>
<text text-anchor="start" x="205" y="-101.5" font-family="Helvetica,sans-Serif" font-size="10.00">+</text>
<text text-anchor="start" x="215" y="-101.5" font-family="Helvetica,sans-Serif" font-size="10.00">getACL()</text>
<polygon fill="#666666" stroke="#666666" points="201,-180 201,-180 330,-180 330,-180 201,-180"/>
<polygon fill="#666666" stroke="#666666" points="201,-165 201,-165 330,-165 330,-165 201,-165"/>
<polygon fill="none" stroke="#666666" points="201,-96 201,-197 330,-197 330,-96 201,-96"/>
</a>
</g>
</g>
<!-- Node2&#45;&gt;Node1 -->
<g id="edge1_Node000001_Node000002" class="edge">
<title>Node2&#45;&gt;Node1</title>
<g id="a_edge1_Node000001_Node000002"><a xlink:title=" ">
<path fill="none" stroke="#63b8ff" d="M265.5,-84.79C265.5,-76.04 265.5,-67.41 265.5,-59.7"/>
<polygon fill="none" stroke="#63b8ff" points="262,-84.76 265.5,-94.76 269,-84.76 262,-84.76"/>
</a>
</g>
</g>
<!-- Node3 -->
<g id="Node000003" class="node">
<title>Node3</title>
<g id="a_Node000003"><a xlink:href="class_sabre_1_1_d_a_v_a_c_l_1_1_abstract_principal_collection.html" target="_top" xlink:title=" ">
<polygon fill="white" stroke="none" points="183,-457 0,-457 0,-233 183,-233 183,-457"/>
<text text-anchor="start" x="32.62" y="-443.5" font-family="Helvetica,sans-Serif" font-size="10.00">AbstractPrincipalCollection</text>
<text text-anchor="start" x="4" y="-428.5" font-family="Helvetica,sans-Serif" font-size="10.00">+</text>
<text text-anchor="start" x="14" y="-428.5" font-family="Helvetica,sans-Serif" font-size="10.00">$disableListing</text>
<text text-anchor="start" x="4.38" y="-413.5" font-family="Helvetica,sans-Serif" font-size="10.00">#</text>
<text text-anchor="start" x="14" y="-413.5" font-family="Helvetica,sans-Serif" font-size="10.00">$principalBackend</text>
<text text-anchor="start" x="4.38" y="-398.5" font-family="Helvetica,sans-Serif" font-size="10.00">#</text>
<text text-anchor="start" x="14" y="-398.5" font-family="Helvetica,sans-Serif" font-size="10.00">$principalPrefix</text>
<text text-anchor="start" x="4" y="-383.5" font-family="Helvetica,sans-Serif" font-size="10.00">+</text>
<text text-anchor="start" x="14" y="-383.5" font-family="Helvetica,sans-Serif" font-size="10.00">__construct(PrincipalBackend</text>
<text text-anchor="start" x="14" y="-372.25" font-family="Helvetica,sans-Serif" font-size="10.00">\BackendInterface $principalBackend,</text>
<text text-anchor="start" x="14" y="-361" font-family="Helvetica,sans-Serif" font-size="10.00"> $principalPrefix=&#39;principals&#39;)</text>
<text text-anchor="start" x="4" y="-346.5" font-family="Helvetica,sans-Serif" font-size="10.00">+</text>
<text text-anchor="start" x="14" y="-346.5" font-family="Helvetica,sans-Serif" font-size="10.00">getChildForPrincipal</text>
<text text-anchor="start" x="14" y="-335.25" font-family="Helvetica,sans-Serif" font-size="10.00">(array $principalInfo)</text>
<text text-anchor="start" x="4" y="-320.5" font-family="Helvetica,sans-Serif" font-size="10.00">+</text>
<text text-anchor="start" x="14" y="-320.5" font-family="Helvetica,sans-Serif" font-size="10.00">getName()</text>
<text text-anchor="start" x="4" y="-305.5" font-family="Helvetica,sans-Serif" font-size="10.00">+</text>
<text text-anchor="start" x="14" y="-305.5" font-family="Helvetica,sans-Serif" font-size="10.00">getChildren()</text>
<text text-anchor="start" x="4" y="-290.5" font-family="Helvetica,sans-Serif" font-size="10.00">+</text>
<text text-anchor="start" x="14" y="-290.5" font-family="Helvetica,sans-Serif" font-size="10.00">getChild($name)</text>
<text text-anchor="start" x="4" y="-275.5" font-family="Helvetica,sans-Serif" font-size="10.00">+</text>
<text text-anchor="start" x="14" y="-275.5" font-family="Helvetica,sans-Serif" font-size="10.00">searchPrincipals(array</text>
<text text-anchor="start" x="14" y="-264.25" font-family="Helvetica,sans-Serif" font-size="10.00"> $searchProperties, $test</text>
<text text-anchor="start" x="14" y="-253" font-family="Helvetica,sans-Serif" font-size="10.00">=&#39;allof&#39;)</text>
<text text-anchor="start" x="4" y="-238.5" font-family="Helvetica,sans-Serif" font-size="10.00">+</text>
<text text-anchor="start" x="14" y="-238.5" font-family="Helvetica,sans-Serif" font-size="10.00">findByUri($uri)</text>
<polygon fill="#666666" stroke="#666666" points="0,-440 0,-440 183,-440 183,-440 0,-440"/>
<polygon fill="#666666" stroke="#666666" points="0,-395 0,-395 12,-395 12,-395 0,-395"/>
<polygon fill="#666666" stroke="#666666" points="12,-395 12,-395 183,-395 183,-395 12,-395"/>
<polygon fill="none" stroke="#666666" points="0,-233 0,-457 183,-457 183,-233 0,-233"/>
</a>
</g>
</g>
<!-- Node3&#45;&gt;Node2 -->
<g id="edge2_Node000002_Node000003" class="edge">
<title>Node3&#45;&gt;Node2</title>
<g id="a_edge2_Node000002_Node000003"><a xlink:title=" ">
<path fill="none" stroke="#63b8ff" d="M190.15,-232.59C201.25,-220.06 212.09,-207.82 221.93,-196.71"/>
<polygon fill="none" stroke="#63b8ff" points="187.84,-229.92 183.83,-239.73 193.08,-234.56 187.84,-229.92"/>
</a>
</g>
</g>
<!-- Node4 -->
<g id="Node000004" class="node">
<title>Node4</title>
<g id="a_Node000004"><a xlink:href="class_sabre_1_1_d_a_v_1_1_collection.html" target="_top" xlink:title=" ">
<polygon fill="white" stroke="none" points="121.5,-598 1.5,-598 1.5,-493 121.5,-493 121.5,-598"/>
<text text-anchor="start" x="39.75" y="-584.5" font-family="Helvetica,sans-Serif" font-size="10.00">Collection</text>
<text text-anchor="start" x="60" y="-569.5" font-family="Helvetica,sans-Serif" font-size="10.00"> </text>
<text text-anchor="start" x="5.5" y="-554.5" font-family="Helvetica,sans-Serif" font-size="10.00">+</text>
<text text-anchor="start" x="15.5" y="-554.5" font-family="Helvetica,sans-Serif" font-size="10.00">getChild($name)</text>
<text text-anchor="start" x="5.5" y="-539.5" font-family="Helvetica,sans-Serif" font-size="10.00">+</text>
<text text-anchor="start" x="15.5" y="-539.5" font-family="Helvetica,sans-Serif" font-size="10.00">childExists($name)</text>
<text text-anchor="start" x="5.5" y="-524.5" font-family="Helvetica,sans-Serif" font-size="10.00">+</text>
<text text-anchor="start" x="15.5" y="-524.5" font-family="Helvetica,sans-Serif" font-size="10.00">createFile($name,</text>
<text text-anchor="start" x="15.5" y="-513.25" font-family="Helvetica,sans-Serif" font-size="10.00"> $data=null)</text>
<text text-anchor="start" x="5.5" y="-498.5" font-family="Helvetica,sans-Serif" font-size="10.00">+</text>
<text text-anchor="start" x="15.5" y="-498.5" font-family="Helvetica,sans-Serif" font-size="10.00">createDirectory($name)</text>
<polygon fill="#666666" stroke="#666666" points="1.5,-581 1.5,-581 121.5,-581 121.5,-581 1.5,-581"/>
<polygon fill="#666666" stroke="#666666" points="1.5,-566 1.5,-566 121.5,-566 121.5,-566 1.5,-566"/>
<polygon fill="none" stroke="#666666" points="1.5,-493 1.5,-598 121.5,-598 121.5,-493 1.5,-493"/>
</a>
</g>
</g>
<!-- Node4&#45;&gt;Node3 -->
<g id="edge3_Node000003_Node000004" class="edge">
<title>Node4&#45;&gt;Node3</title>
<g id="a_edge3_Node000003_Node000004"><a xlink:title=" ">
<path fill="none" stroke="#63b8ff" d="M70.95,-482C72.16,-473.94 73.44,-465.49 74.73,-456.94"/>
<polygon fill="none" stroke="#63b8ff" points="67.52,-481.22 69.49,-491.63 74.45,-482.26 67.52,-481.22"/>
</a>
</g>
</g>
<!-- Node5 -->
<g id="Node000005" class="node">
<title>Node5</title>
<g id="a_Node000005"><a xlink:href="class_sabre_1_1_d_a_v_1_1_node.html" target="_top" xlink:title=" ">
<polygon fill="white" stroke="none" points="117,-733.5 24,-733.5 24,-654.5 117,-654.5 117,-733.5"/>
<text text-anchor="start" x="58.88" y="-720" font-family="Helvetica,sans-Serif" font-size="10.00">Node</text>
<text text-anchor="start" x="69" y="-705" font-family="Helvetica,sans-Serif" font-size="10.00"> </text>
<text text-anchor="start" x="28" y="-690" font-family="Helvetica,sans-Serif" font-size="10.00">+</text>
<text text-anchor="start" x="38" y="-690" font-family="Helvetica,sans-Serif" font-size="10.00">getLastModified()</text>
<text text-anchor="start" x="28" y="-675" font-family="Helvetica,sans-Serif" font-size="10.00">+</text>
<text text-anchor="start" x="38" y="-675" font-family="Helvetica,sans-Serif" font-size="10.00">delete()</text>
<text text-anchor="start" x="28" y="-660" font-family="Helvetica,sans-Serif" font-size="10.00">+</text>
<text text-anchor="start" x="38" y="-660" font-family="Helvetica,sans-Serif" font-size="10.00">setName($name)</text>
<polygon fill="#666666" stroke="#666666" points="24,-716.5 24,-716.5 117,-716.5 117,-716.5 24,-716.5"/>
<polygon fill="#666666" stroke="#666666" points="24,-701.5 24,-701.5 117,-701.5 117,-701.5 24,-701.5"/>
<polygon fill="none" stroke="#666666" points="24,-654.5 24,-733.5 117,-733.5 117,-654.5 24,-654.5"/>
</a>
</g>
</g>
<!-- Node5&#45;&gt;Node4 -->
<g id="edge4_Node000004_Node000005" class="edge">
<title>Node5&#45;&gt;Node4</title>
<g id="a_edge4_Node000004_Node000005"><a xlink:title=" ">
<path fill="none" stroke="#63b8ff" d="M67.44,-643.17C66.54,-628.59 65.56,-612.63 64.66,-597.96"/>
<polygon fill="none" stroke="#63b8ff" points="63.94,-643.23 68.04,-653 70.92,-642.8 63.94,-643.23"/>
</a>
</g>
</g>
<!-- Node6 -->
<g id="Node000006" class="node">
<title>Node6</title>
<g id="a_Node000006"><a xlink:href="interface_sabre_1_1_d_a_v_1_1_i_node.html" target="_top" xlink:title=" ">
<polygon fill="white" stroke="none" points="250,-884 157,-884 157,-790 250,-790 250,-884"/>
<text text-anchor="start" x="190.38" y="-870.5" font-family="Helvetica,sans-Serif" font-size="10.00">INode</text>
<text text-anchor="start" x="202" y="-855.5" font-family="Helvetica,sans-Serif" font-size="10.00"> </text>
<text text-anchor="start" x="161" y="-840.5" font-family="Helvetica,sans-Serif" font-size="10.00">+</text>
<text text-anchor="start" x="171" y="-840.5" font-family="Helvetica,sans-Serif" font-size="10.00">delete()</text>
<text text-anchor="start" x="161" y="-825.5" font-family="Helvetica,sans-Serif" font-size="10.00">+</text>
<text text-anchor="start" x="171" y="-825.5" font-family="Helvetica,sans-Serif" font-size="10.00">getName()</text>
<text text-anchor="start" x="161" y="-810.5" font-family="Helvetica,sans-Serif" font-size="10.00">+</text>
<text text-anchor="start" x="171" y="-810.5" font-family="Helvetica,sans-Serif" font-size="10.00">setName($name)</text>
<text text-anchor="start" x="161" y="-795.5" font-family="Helvetica,sans-Serif" font-size="10.00">+</text>
<text text-anchor="start" x="171" y="-795.5" font-family="Helvetica,sans-Serif" font-size="10.00">getLastModified()</text>
<polygon fill="#666666" stroke="#666666" points="157,-867 157,-867 250,-867 250,-867 157,-867"/>
<polygon fill="#666666" stroke="#666666" points="157,-852 157,-852 250,-852 250,-852 157,-852"/>
<polygon fill="none" stroke="#666666" points="157,-790 157,-884 250,-884 250,-790 157,-790"/>
</a>
</g>
</g>
<!-- Node6&#45;&gt;Node5 -->
<g id="edge5_Node000005_Node000006" class="edge">
<title>Node6&#45;&gt;Node5</title>
<g id="a_edge5_Node000005_Node000006"><a xlink:title=" ">
<path fill="none" stroke="#63b8ff" d="M152.48,-781.91C137.25,-765.76 120.87,-748.4 106.79,-733.47"/>
<polygon fill="none" stroke="#63b8ff" points="149.87,-784.25 159.28,-789.12 154.96,-779.44 149.87,-784.25"/>
</a>
</g>
</g>
<!-- Node7 -->
<g id="Node000007" class="node">
<title>Node7</title>
<g id="a_Node000007"><a xlink:href="interface_sabre_1_1_d_a_v_1_1_i_collection.html" target="_top" xlink:title=" ">
<polygon fill="white" stroke="none" points="263.5,-754 143.5,-754 143.5,-634 263.5,-634 263.5,-754"/>
<text text-anchor="start" x="180.25" y="-740.5" font-family="Helvetica,sans-Serif" font-size="10.00">ICollection</text>
<text text-anchor="start" x="202" y="-725.5" font-family="Helvetica,sans-Serif" font-size="10.00"> </text>
<text text-anchor="start" x="147.5" y="-710.5" font-family="Helvetica,sans-Serif" font-size="10.00">+</text>
<text text-anchor="start" x="157.5" y="-710.5" font-family="Helvetica,sans-Serif" font-size="10.00">createFile($name,</text>
<text text-anchor="start" x="157.5" y="-699.25" font-family="Helvetica,sans-Serif" font-size="10.00"> $data=null)</text>
<text text-anchor="start" x="147.5" y="-684.5" font-family="Helvetica,sans-Serif" font-size="10.00">+</text>
<text text-anchor="start" x="157.5" y="-684.5" font-family="Helvetica,sans-Serif" font-size="10.00">createDirectory($name)</text>
<text text-anchor="start" x="147.5" y="-669.5" font-family="Helvetica,sans-Serif" font-size="10.00">+</text>
<text text-anchor="start" x="157.5" y="-669.5" font-family="Helvetica,sans-Serif" font-size="10.00">getChild($name)</text>
<text text-anchor="start" x="147.5" y="-654.5" font-family="Helvetica,sans-Serif" font-size="10.00">+</text>
<text text-anchor="start" x="157.5" y="-654.5" font-family="Helvetica,sans-Serif" font-size="10.00">getChildren()</text>
<text text-anchor="start" x="147.5" y="-639.5" font-family="Helvetica,sans-Serif" font-size="10.00">+</text>
<text text-anchor="start" x="157.5" y="-639.5" font-family="Helvetica,sans-Serif" font-size="10.00">childExists($name)</text>
<polygon fill="#666666" stroke="#666666" points="143.5,-737 143.5,-737 263.5,-737 263.5,-737 143.5,-737"/>
<polygon fill="#666666" stroke="#666666" points="143.5,-722 143.5,-722 263.5,-722 263.5,-722 143.5,-722"/>
<polygon fill="none" stroke="#666666" points="143.5,-634 143.5,-754 263.5,-754 263.5,-634 143.5,-634"/>
</a>
</g>
</g>
<!-- Node6&#45;&gt;Node7 -->
<g id="edge7_Node000007_Node000006" class="edge">
<title>Node6&#45;&gt;Node7</title>
<g id="a_edge7_Node000007_Node000006"><a xlink:title=" ">
<path fill="none" stroke="#63b8ff" d="M203.5,-778.83C203.5,-770.62 203.5,-762.16 203.5,-753.92"/>
<polygon fill="none" stroke="#63b8ff" points="200,-778.71 203.5,-788.71 207,-778.71 200,-778.71"/>
</a>
</g>
</g>
<!-- Node10 -->
<g id="Node000010" class="node">
<title>Node10</title>
<g id="a_Node000010"><a xlink:href="interface_sabre_1_1_d_a_v_a_c_l_1_1_i_a_c_l.html" target="_top" xlink:title=" ">
<polygon fill="white" stroke="none" points="482.5,-399.5 348.5,-399.5 348.5,-290.5 482.5,-290.5 482.5,-399.5"/>
<text text-anchor="start" x="404.25" y="-386" font-family="Helvetica,sans-Serif" font-size="10.00">IACL</text>
<text text-anchor="start" x="414" y="-371" font-family="Helvetica,sans-Serif" font-size="10.00"> </text>
<text text-anchor="start" x="352.5" y="-356" font-family="Helvetica,sans-Serif" font-size="10.00">+</text>
<text text-anchor="start" x="362.5" y="-356" font-family="Helvetica,sans-Serif" font-size="10.00">getOwner()</text>
<text text-anchor="start" x="352.5" y="-341" font-family="Helvetica,sans-Serif" font-size="10.00">+</text>
<text text-anchor="start" x="362.5" y="-341" font-family="Helvetica,sans-Serif" font-size="10.00">getGroup()</text>
<text text-anchor="start" x="352.5" y="-326" font-family="Helvetica,sans-Serif" font-size="10.00">+</text>
<text text-anchor="start" x="362.5" y="-326" font-family="Helvetica,sans-Serif" font-size="10.00">getACL()</text>
<text text-anchor="start" x="352.5" y="-311" font-family="Helvetica,sans-Serif" font-size="10.00">+</text>
<text text-anchor="start" x="362.5" y="-311" font-family="Helvetica,sans-Serif" font-size="10.00">setACL(array $acl)</text>
<text text-anchor="start" x="352.5" y="-296" font-family="Helvetica,sans-Serif" font-size="10.00">+</text>
<text text-anchor="start" x="362.5" y="-296" font-family="Helvetica,sans-Serif" font-size="10.00">getSupportedPrivilegeSet()</text>
<polygon fill="#666666" stroke="#666666" points="348.5,-382.5 348.5,-382.5 482.5,-382.5 482.5,-382.5 348.5,-382.5"/>
<polygon fill="#666666" stroke="#666666" points="348.5,-367.5 348.5,-367.5 482.5,-367.5 482.5,-367.5 348.5,-367.5"/>
<polygon fill="none" stroke="#666666" points="348.5,-290.5 348.5,-399.5 482.5,-399.5 482.5,-290.5 348.5,-290.5"/>
</a>
</g>
</g>
<!-- Node6&#45;&gt;Node10 -->
<g id="edge13_Node000010_Node000006" class="edge">
<title>Node6&#45;&gt;Node10</title>
<g id="a_edge13_Node000010_Node000006"><a xlink:title=" ">
<path fill="none" stroke="#63b8ff" d="M254.18,-781.15C260.88,-772.44 267.23,-763.24 272.5,-754 339.99,-635.66 383.66,-480.04 403.36,-399.48"/>
<polygon fill="none" stroke="#63b8ff" points="251.54,-778.85 248.06,-788.86 257.02,-783.21 251.54,-778.85"/>
</a>
</g>
</g>
<!-- Node7&#45;&gt;Node4 -->
<g id="edge6_Node000004_Node000007" class="edge">
<title>Node7&#45;&gt;Node4</title>
<g id="a_edge6_Node000004_Node000007"><a xlink:title=" ">
<path fill="none" stroke="#63b8ff" d="M138.8,-626.25C129.51,-616.66 120.07,-606.92 111.13,-597.7"/>
<polygon fill="none" stroke="#63b8ff" points="136.03,-628.43 145.51,-633.17 141.06,-623.55 136.03,-628.43"/>
</a>
</g>
</g>
<!-- Node8 -->
<g id="Node000008" class="node">
<title>Node8</title>
<g id="a_Node000008"><a xlink:href="interface_sabre_1_1_d_a_v_a_c_l_1_1_i_principal_collection.html" target="_top" xlink:title=" ">
<polygon fill="white" stroke="none" points="267,-588.5 140,-588.5 140,-502.5 267,-502.5 267,-588.5"/>
<text text-anchor="start" x="161.5" y="-575" font-family="Helvetica,sans-Serif" font-size="10.00">IPrincipalCollection</text>
<text text-anchor="start" x="202" y="-560" font-family="Helvetica,sans-Serif" font-size="10.00"> </text>
<text text-anchor="start" x="144" y="-545" font-family="Helvetica,sans-Serif" font-size="10.00">+</text>
<text text-anchor="start" x="154" y="-545" font-family="Helvetica,sans-Serif" font-size="10.00">searchPrincipals(array</text>
<text text-anchor="start" x="154" y="-533.75" font-family="Helvetica,sans-Serif" font-size="10.00"> $searchProperties, $test</text>
<text text-anchor="start" x="154" y="-522.5" font-family="Helvetica,sans-Serif" font-size="10.00">=&#39;allof&#39;)</text>
<text text-anchor="start" x="144" y="-508" font-family="Helvetica,sans-Serif" font-size="10.00">+</text>
<text text-anchor="start" x="154" y="-508" font-family="Helvetica,sans-Serif" font-size="10.00">findByUri($uri)</text>
<polygon fill="#666666" stroke="#666666" points="140,-571.5 140,-571.5 267,-571.5 267,-571.5 140,-571.5"/>
<polygon fill="#666666" stroke="#666666" points="140,-556.5 140,-556.5 267,-556.5 267,-556.5 140,-556.5"/>
<polygon fill="none" stroke="#666666" points="140,-502.5 140,-588.5 267,-588.5 267,-502.5 140,-502.5"/>
</a>
</g>
</g>
<!-- Node7&#45;&gt;Node8 -->
<g id="edge9_Node000008_Node000007" class="edge">
<title>Node7&#45;&gt;Node8</title>
<g id="a_edge9_Node000008_Node000007"><a xlink:title=" ">
<path fill="none" stroke="#63b8ff" d="M203.5,-622.92C203.5,-611.02 203.5,-599 203.5,-588.14"/>
<polygon fill="none" stroke="#63b8ff" points="200,-622.74 203.5,-632.74 207,-622.74 200,-622.74"/>
</a>
</g>
</g>
<!-- Node9 -->
<g id="Node000009" class="node">
<title>Node9</title>
<g id="a_Node000009"><a xlink:href="interface_sabre_1_1_d_a_v_1_1_i_extended_collection.html" target="_top" xlink:title=" ">
<polygon fill="white" stroke="none" points="330,-375 201,-375 201,-315 330,-315 330,-375"/>
<text text-anchor="start" x="221.62" y="-361.5" font-family="Helvetica,sans-Serif" font-size="10.00">IExtendedCollection</text>
<text text-anchor="start" x="264" y="-346.5" font-family="Helvetica,sans-Serif" font-size="10.00"> </text>
<text text-anchor="start" x="205" y="-331.5" font-family="Helvetica,sans-Serif" font-size="10.00">+</text>
<text text-anchor="start" x="215" y="-331.5" font-family="Helvetica,sans-Serif" font-size="10.00">createExtendedCollection</text>
<text text-anchor="start" x="215" y="-320.25" font-family="Helvetica,sans-Serif" font-size="10.00">($name, MkCol $mkCol)</text>
<polygon fill="#666666" stroke="#666666" points="201,-358 201,-358 330,-358 330,-358 201,-358"/>
<polygon fill="#666666" stroke="#666666" points="201,-343 201,-343 330,-343 330,-343 201,-343"/>
<polygon fill="none" stroke="#666666" points="201,-315 201,-375 330,-375 330,-315 201,-315"/>
</a>
</g>
</g>
<!-- Node7&#45;&gt;Node9 -->
<g id="edge11_Node000009_Node000007" class="edge">
<title>Node7&#45;&gt;Node9</title>
<g id="a_edge11_Node000009_Node000007"><a xlink:title=" ">
<path fill="none" stroke="#63b8ff" d="M263.24,-624.32C268.2,-615.87 272.47,-607.02 275.5,-598 301.45,-520.81 284.41,-422.76 273.15,-374.91"/>
<polygon fill="none" stroke="#63b8ff" points="260.3,-622.42 257.93,-632.75 266.22,-626.15 260.3,-622.42"/>
</a>
</g>
</g>
<!-- Node8&#45;&gt;Node3 -->
<g id="edge8_Node000003_Node000008" class="edge">
<title>Node8&#45;&gt;Node3</title>
<g id="a_edge8_Node000003_Node000008"><a xlink:title=" ">
<path fill="none" stroke="#63b8ff" d="M174.37,-492.87C168.01,-481.6 161.05,-469.26 153.95,-456.68"/>
<polygon fill="none" stroke="#63b8ff" points="171.31,-494.58 179.28,-501.57 177.41,-491.14 171.31,-494.58"/>
</a>
</g>
</g>
<!-- Node9&#45;&gt;Node2 -->
<g id="edge10_Node000002_Node000009" class="edge">
<title>Node9&#45;&gt;Node2</title>
<g id="a_edge10_Node000002_Node000009"><a xlink:title=" ">
<path fill="none" stroke="#63b8ff" d="M265.5,-303.77C265.5,-272.8 265.5,-229.86 265.5,-196.82"/>
<polygon fill="none" stroke="#63b8ff" points="262,-303.49 265.5,-313.49 269,-303.49 262,-303.49"/>
</a>
</g>
</g>
<!-- Node10&#45;&gt;Node2 -->
<g id="edge12_Node000002_Node000010" class="edge">
<title>Node10&#45;&gt;Node2</title>
<g id="a_edge12_Node000002_Node000010"><a xlink:title=" ">
<path fill="none" stroke="#63b8ff" d="M373.72,-281.42C362.58,-265.41 350.35,-248.37 338.5,-233 329.33,-221.1 319.07,-208.62 309.2,-196.99"/>
<polygon fill="none" stroke="#63b8ff" points="370.71,-283.23 379.27,-289.47 376.47,-279.25 370.71,-283.23"/>
</a>
</g>
</g>
</g>
</svg>
