<?xml version="1.0" encoding="UTF-8" standalone="no"?>
<!DOCTYPE svg PUBLIC "-//W3C//DTD SVG 1.1//EN"
 "http://www.w3.org/Graphics/SVG/1.1/DTD/svg11.dtd">
<!-- Generated by graphviz version 10.0.1 (20240210.2158)
 -->
<!-- Title: Debug Pages: 1 -->
<!--zoomable 679 -->

<svg id="main" version="1.1" xmlns="http://www.w3.org/2000/svg" xmlns:xlink="http://www.w3.org/1999/xlink" xml:space="preserve" onload="init(evt)">
<style type="text/css"><![CDATA[
.node, .edge {opacity: 0.7;}
.node.selected, .edge.selected {opacity: 1;}
.edge:hover path { stroke: red; }
.edge:hover polygon { stroke: red; fill: red; }
]]></style>

<defs>
  <circle id="rim" cx="0" cy="0" r="7"/>
  <circle id="rim2" cx="0" cy="0" r="3.5"/>
  <g id="zoomPlus">
    <use xlink:href="#rim" fill="#404040"><set attributeName="fill" to="#808080" begin="zoomplus.mouseover" end="zoomplus.mouseout"/></use>
    <path d="M-4,0h8M0,-4v8" fill="none" stroke="white" stroke-width="1.5" pointer-events="none"/>
  </g>
  <g id="zoomMin">
    <use xlink:href="#rim" fill="#404040"><set attributeName="fill" to="#808080" begin="zoomminus.mouseover" end="zoomminus.mouseout"/></use>
    <path d="M-4,0h8" fill="none" stroke="white" stroke-width="1.5" pointer-events="none"/>
  </g>
  <g id="arrowUp" transform="translate(30 24)">
    <use xlink:href="#rim"/>
    <path pointer-events="none" fill="none" stroke="white" stroke-width="1.5" d="M0,-3.0v7 M-2.5,-0.5L0,-3.0L2.5,-0.5"/>
  </g>
  <g id="arrowRight" transform="rotate(90) translate(36 -43)">
    <use xlink:href="#rim"/>
    <path pointer-events="none" fill="none" stroke="white" stroke-width="1.5" d="M0,-3.0v7 M-2.5,-0.5L0,-3.0L2.5,-0.5"/>
  </g>
  <g id="arrowDown" transform="rotate(180) translate(-30 -48)">
    <use xlink:href="#rim"/>
    <path pointer-events="none" fill="none" stroke="white" stroke-width="1.5" d="M0,-3.0v7 M-2.5,-0.5L0,-3.0L2.5,-0.5"/>
  </g>
  <g id="arrowLeft" transform="rotate(270) translate(-36 17)">
    <use xlink:href="#rim"/>
    <path pointer-events="none" fill="none" stroke="white" stroke-width="1.5" d="M0,-3.0v7 M-2.5,-0.5L0,-3.0L2.5,-0.5"/>
  </g>
  <g id="resetDef">
    <use xlink:href="#rim2" fill="#404040"><set attributeName="fill" to="#808080" begin="reset.mouseover" end="reset.mouseout"/></use>
  </g>
</defs>
<script type="application/ecmascript">
var viewWidth = 155;
var viewHeight = 679;
var sectionId = 'dynsection-1';
</script>
<script type="application/ecmascript" xlink:href="svg.min.js"/>
<svg id="graph" class="graph">
<g id="viewport">
<title>Debug</title>
<!-- Node1 -->
<g id="Node000001" class="node">
<title>Node1</title>
<g id="a_Node000001"><a xlink:title=" ">
<polygon fill="#999999" stroke="none" points="143,-168 4,-168 4,0 143,0 143,-168"/>
<text text-anchor="start" x="59.25" y="-154.5" font-family="Helvetica,sans-Serif" font-size="10.00">Debug</text>
<text text-anchor="start" x="72" y="-139.5" font-family="Helvetica,sans-Serif" font-size="10.00"> </text>
<text text-anchor="start" x="8" y="-124.5" font-family="Helvetica,sans-Serif" font-size="10.00">+</text>
<text text-anchor="start" x="18" y="-124.5" font-family="Helvetica,sans-Serif" font-size="10.00">__construct()</text>
<text text-anchor="start" x="8.38" y="-109.5" font-family="Helvetica,sans-Serif" font-size="10.00">#</text>
<text text-anchor="start" x="18" y="-109.5" font-family="Helvetica,sans-Serif" font-size="10.00">indentStr()</text>
<text text-anchor="start" x="8.38" y="-94.5" font-family="Helvetica,sans-Serif" font-size="10.00">#</text>
<text text-anchor="start" x="18" y="-94.5" font-family="Helvetica,sans-Serif" font-size="10.00">blockLines(OutputBlock</text>
<text text-anchor="start" x="18" y="-83.25" font-family="Helvetica,sans-Serif" font-size="10.00"> $block)</text>
<text text-anchor="start" x="8.38" y="-68.5" font-family="Helvetica,sans-Serif" font-size="10.00">#</text>
<text text-anchor="start" x="18" y="-68.5" font-family="Helvetica,sans-Serif" font-size="10.00">blockSelectors(OutputBlock</text>
<text text-anchor="start" x="18" y="-57.25" font-family="Helvetica,sans-Serif" font-size="10.00"> $block)</text>
<text text-anchor="start" x="8.38" y="-42.5" font-family="Helvetica,sans-Serif" font-size="10.00">#</text>
<text text-anchor="start" x="18" y="-42.5" font-family="Helvetica,sans-Serif" font-size="10.00">blockChildren(OutputBlock</text>
<text text-anchor="start" x="18" y="-31.25" font-family="Helvetica,sans-Serif" font-size="10.00"> $block)</text>
<text text-anchor="start" x="8.38" y="-16.5" font-family="Helvetica,sans-Serif" font-size="10.00">#</text>
<text text-anchor="start" x="18" y="-16.5" font-family="Helvetica,sans-Serif" font-size="10.00">block(OutputBlock</text>
<text text-anchor="start" x="18" y="-5.25" font-family="Helvetica,sans-Serif" font-size="10.00"> $block)</text>
<polygon fill="#666666" stroke="#666666" points="4,-151 4,-151 143,-151 143,-151 4,-151"/>
<polygon fill="#666666" stroke="#666666" points="4,-136 4,-136 143,-136 143,-136 4,-136"/>
<polygon fill="none" stroke="#666666" points="4,0 4,-168 143,-168 143,0 4,0"/>
</a>
</g>
</g>
<!-- Node2 -->
<g id="Node000002" class="node">
<title>Node2</title>
<g id="a_Node000002"><a xlink:href="class_scss_php_1_1_scss_php_1_1_formatter.html" target="_top" xlink:title=" ">
<polygon fill="white" stroke="none" points="147,-671 0,-671 0,-204 147,-204 147,-671"/>
<text text-anchor="start" x="52.5" y="-657.5" font-family="Helvetica,sans-Serif" font-size="10.00">Formatter</text>
<text text-anchor="start" x="4" y="-642.5" font-family="Helvetica,sans-Serif" font-size="10.00">+</text>
<text text-anchor="start" x="14" y="-642.5" font-family="Helvetica,sans-Serif" font-size="10.00">$indentLevel</text>
<text text-anchor="start" x="4" y="-627.5" font-family="Helvetica,sans-Serif" font-size="10.00">+</text>
<text text-anchor="start" x="14" y="-627.5" font-family="Helvetica,sans-Serif" font-size="10.00">$indentChar</text>
<text text-anchor="start" x="4" y="-612.5" font-family="Helvetica,sans-Serif" font-size="10.00">+</text>
<text text-anchor="start" x="14" y="-612.5" font-family="Helvetica,sans-Serif" font-size="10.00">$break</text>
<text text-anchor="start" x="4" y="-597.5" font-family="Helvetica,sans-Serif" font-size="10.00">+</text>
<text text-anchor="start" x="14" y="-597.5" font-family="Helvetica,sans-Serif" font-size="10.00">$open</text>
<text text-anchor="start" x="4" y="-582.5" font-family="Helvetica,sans-Serif" font-size="10.00">+</text>
<text text-anchor="start" x="14" y="-582.5" font-family="Helvetica,sans-Serif" font-size="10.00">$close</text>
<text text-anchor="start" x="4" y="-567.5" font-family="Helvetica,sans-Serif" font-size="10.00">+</text>
<text text-anchor="start" x="14" y="-567.5" font-family="Helvetica,sans-Serif" font-size="10.00">$tagSeparator</text>
<text text-anchor="start" x="4" y="-552.5" font-family="Helvetica,sans-Serif" font-size="10.00">+</text>
<text text-anchor="start" x="14" y="-552.5" font-family="Helvetica,sans-Serif" font-size="10.00">$assignSeparator</text>
<text text-anchor="start" x="4" y="-537.5" font-family="Helvetica,sans-Serif" font-size="10.00">+</text>
<text text-anchor="start" x="14" y="-537.5" font-family="Helvetica,sans-Serif" font-size="10.00">$keepSemicolons</text>
<text text-anchor="start" x="4.38" y="-522.5" font-family="Helvetica,sans-Serif" font-size="10.00">#</text>
<text text-anchor="start" x="14" y="-522.5" font-family="Helvetica,sans-Serif" font-size="10.00">$currentBlock</text>
<text text-anchor="start" x="4.38" y="-507.5" font-family="Helvetica,sans-Serif" font-size="10.00">#</text>
<text text-anchor="start" x="14" y="-507.5" font-family="Helvetica,sans-Serif" font-size="10.00">$currentLine</text>
<text text-anchor="start" x="4.38" y="-492.5" font-family="Helvetica,sans-Serif" font-size="10.00">#</text>
<text text-anchor="start" x="14" y="-492.5" font-family="Helvetica,sans-Serif" font-size="10.00">$currentColumn</text>
<text text-anchor="start" x="4.38" y="-477.5" font-family="Helvetica,sans-Serif" font-size="10.00">#</text>
<text text-anchor="start" x="14" y="-477.5" font-family="Helvetica,sans-Serif" font-size="10.00">$sourceMapGenerator</text>
<text text-anchor="start" x="4.38" y="-462.5" font-family="Helvetica,sans-Serif" font-size="10.00">#</text>
<text text-anchor="start" x="14" y="-462.5" font-family="Helvetica,sans-Serif" font-size="10.00">$strippedSemicolon</text>
<text text-anchor="start" x="4" y="-447.5" font-family="Helvetica,sans-Serif" font-size="10.00">+</text>
<text text-anchor="start" x="14" y="-447.5" font-family="Helvetica,sans-Serif" font-size="10.00">__construct()</text>
<text text-anchor="start" x="4" y="-432.5" font-family="Helvetica,sans-Serif" font-size="10.00">+</text>
<text text-anchor="start" x="14" y="-432.5" font-family="Helvetica,sans-Serif" font-size="10.00">property($name, $value)</text>
<text text-anchor="start" x="4" y="-417.5" font-family="Helvetica,sans-Serif" font-size="10.00">+</text>
<text text-anchor="start" x="14" y="-417.5" font-family="Helvetica,sans-Serif" font-size="10.00">customProperty($name,</text>
<text text-anchor="start" x="14" y="-406.25" font-family="Helvetica,sans-Serif" font-size="10.00"> $value)</text>
<text text-anchor="start" x="4" y="-391.5" font-family="Helvetica,sans-Serif" font-size="10.00">+</text>
<text text-anchor="start" x="14" y="-391.5" font-family="Helvetica,sans-Serif" font-size="10.00">format(OutputBlock</text>
<text text-anchor="start" x="14" y="-380.25" font-family="Helvetica,sans-Serif" font-size="10.00"> $block, SourceMapGenerator</text>
<text text-anchor="start" x="14" y="-369" font-family="Helvetica,sans-Serif" font-size="10.00"> $sourceMapGenerator=null)</text>
<text text-anchor="start" x="4.38" y="-354.5" font-family="Helvetica,sans-Serif" font-size="10.00">#</text>
<text text-anchor="start" x="14" y="-354.5" font-family="Helvetica,sans-Serif" font-size="10.00">indentStr()</text>
<text text-anchor="start" x="4.38" y="-339.5" font-family="Helvetica,sans-Serif" font-size="10.00">#</text>
<text text-anchor="start" x="14" y="-339.5" font-family="Helvetica,sans-Serif" font-size="10.00">blockLines(OutputBlock</text>
<text text-anchor="start" x="14" y="-328.25" font-family="Helvetica,sans-Serif" font-size="10.00"> $block)</text>
<text text-anchor="start" x="4.38" y="-313.5" font-family="Helvetica,sans-Serif" font-size="10.00">#</text>
<text text-anchor="start" x="14" y="-313.5" font-family="Helvetica,sans-Serif" font-size="10.00">blockSelectors(OutputBlock</text>
<text text-anchor="start" x="14" y="-302.25" font-family="Helvetica,sans-Serif" font-size="10.00"> $block)</text>
<text text-anchor="start" x="4.38" y="-287.5" font-family="Helvetica,sans-Serif" font-size="10.00">#</text>
<text text-anchor="start" x="14" y="-287.5" font-family="Helvetica,sans-Serif" font-size="10.00">blockChildren(OutputBlock</text>
<text text-anchor="start" x="14" y="-276.25" font-family="Helvetica,sans-Serif" font-size="10.00"> $block)</text>
<text text-anchor="start" x="4.38" y="-261.5" font-family="Helvetica,sans-Serif" font-size="10.00">#</text>
<text text-anchor="start" x="14" y="-261.5" font-family="Helvetica,sans-Serif" font-size="10.00">block(OutputBlock</text>
<text text-anchor="start" x="14" y="-250.25" font-family="Helvetica,sans-Serif" font-size="10.00"> $block)</text>
<text text-anchor="start" x="4.38" y="-235.5" font-family="Helvetica,sans-Serif" font-size="10.00">#</text>
<text text-anchor="start" x="14" y="-235.5" font-family="Helvetica,sans-Serif" font-size="10.00">testEmptyChildren</text>
<text text-anchor="start" x="14" y="-224.25" font-family="Helvetica,sans-Serif" font-size="10.00">($block)</text>
<text text-anchor="start" x="4.38" y="-209.5" font-family="Helvetica,sans-Serif" font-size="10.00">#</text>
<text text-anchor="start" x="14" y="-209.5" font-family="Helvetica,sans-Serif" font-size="10.00">write($str)</text>
<polygon fill="#666666" stroke="#666666" points="0,-654 0,-654 147,-654 147,-654 0,-654"/>
<polygon fill="#666666" stroke="#666666" points="0,-459 0,-459 12,-459 12,-459 0,-459"/>
<polygon fill="#666666" stroke="#666666" points="12,-459 12,-459 147,-459 147,-459 12,-459"/>
<polygon fill="none" stroke="#666666" points="0,-204 0,-671 147,-671 147,-204 0,-204"/>
</a>
</g>
</g>
<!-- Node2&#45;&gt;Node1 -->
<g id="edge1_Node000001_Node000002" class="edge">
<title>Node2&#45;&gt;Node1</title>
<g id="a_edge1_Node000001_Node000002"><a xlink:title=" ">
<path fill="none" stroke="#63b8ff" d="M73.5,-192.58C73.5,-184 73.5,-175.67 73.5,-167.7"/>
<polygon fill="none" stroke="#63b8ff" points="70,-192.49 73.5,-202.49 77,-192.49 70,-192.49"/>
</a>
</g>
</g>
</g>
</svg>

<g id="navigator" transform="translate(0 0)" fill="#404254">
  <rect fill="#f2f5e9" fill-opacity="0.5" stroke="#606060" stroke-width=".5" x="0" y="0" width="60" height="60"/>
  <use id="zoomplus" xlink:href="#zoomPlus" x="17" y="9" onmousedown="handleZoom(evt,'in')"/>
  <use id="zoomminus" xlink:href="#zoomMin" x="42" y="9" onmousedown="handleZoom(evt,'out')"/>
  <use id="reset" xlink:href="#resetDef" x="30" y="36" onmousedown="handleReset()"/>
   <use id="arrowup" xlink:href="#arrowUp" x="0" y="0" onmousedown="handlePan(0,-1)"/>
  <use id="arrowright" xlink:href="#arrowRight" x="0" y="0" onmousedown="handlePan(1,0)"/>
  <use id="arrowdown" xlink:href="#arrowDown" x="0" y="0" onmousedown="handlePan(0,1)"/>
  <use id="arrowleft" xlink:href="#arrowLeft" x="0" y="0" onmousedown="handlePan(-1,0)"/>
</g>
<svg viewBox="0 0 15 15" width="100%" height="30px" preserveAspectRatio="xMaxYMin meet">
 <g id="arrow_out" transform="scale(0.3 0.3)">
  <a xlink:href="class_scss_php_1_1_scss_php_1_1_formatter_1_1_debug__coll__graph_org.svg" target="_base">
   <rect id="button" ry="5" rx="5" y="6" x="6" height="38" width="38"
        fill="#f2f5e9" fill-opacity="0.5" stroke="#606060" stroke-width="1.0"/>
   <path id="arrow"
     d="M 11.500037,31.436501 C 11.940474,20.09759 22.043105,11.32322 32.158766,21.979434 L 37.068811,17.246167 C 37.068811,17.246167 37.088388,32 37.088388,32 L 22.160133,31.978069 C 22.160133,31.978069 26.997745,27.140456 26.997745,27.140456 C 18.528582,18.264221 13.291696,25.230495 11.500037,31.436501 z"
     style="fill:#404040;"/>
  </a>
 </g>
</svg>

<style type='text/css'>
<![CDATA[
[data-mouse-over-selected='false'] { opacity: 0.7; }
[data-mouse-over-selected='true']  { opacity: 1.0; }
]]>
</style>
<script type="application/ecmascript"><![CDATA[
document.addEventListener('DOMContentLoaded', (event) => {
  highlightEdges();
  highlightAdjacentNodes();
});
]]></script>
</svg>
