<?xml version="1.0" encoding="UTF-8" standalone="no"?>
<!DOCTYPE svg PUBLIC "-//W3C//DTD SVG 1.1//EN"
 "http://www.w3.org/Graphics/SVG/1.1/DTD/svg11.dtd">
<!-- Generated by graphviz version 10.0.1 (20240210.2158)
 -->
<!-- Title: write Pages: 1 -->
<svg width="397pt" height="212pt"
 viewBox="0.00 0.00 396.50 212.25" xmlns="http://www.w3.org/2000/svg" xmlns:xlink="http://www.w3.org/1999/xlink">

<svg id="main" version="1.1" xmlns="http://www.w3.org/2000/svg" xmlns:xlink="http://www.w3.org/1999/xlink" xml:space="preserve" onload="init(evt)">
<style type="text/css"><![CDATA[
.node, .edge {opacity: 0.7;}
.node.selected, .edge.selected {opacity: 1;}
.edge:hover path { stroke: red; }
.edge:hover polygon { stroke: red; fill: red; }
]]></style>
<script type="application/ecmascript" xlink:href="svg.min.js"/>
<svg id="graph" class="graph">
<g id="graph0" class="graph" transform="scale(1 1) rotate(0) translate(4 208.25)">
<title>write</title>
<!-- Node1 -->
<g id="Node000001" class="node">
<title>Node1</title>
<g id="a_Node000001"><a xlink:title=" ">
<polygon fill="#999999" stroke="#666666" points="37,-111.25 0,-111.25 0,-92 37,-92 37,-111.25"/>
<text text-anchor="middle" x="18.5" y="-97.75" font-family="Helvetica,sans-Serif" font-size="10.00">write</text>
</a>
</g>
</g>
<!-- Node2 -->
<g id="Node000002" class="node">
<title>Node2</title>
<g id="a_Node000002"><a xlink:href="class_monolog_1_1_handler_1_1_new_relic_handler.html#a366c601caba45460bb68d5b950836788" target="_top" xlink:title=" ">
<polygon fill="white" stroke="#666666" points="184.25,-204.25 111.25,-204.25 111.25,-185 184.25,-185 184.25,-204.25"/>
<text text-anchor="middle" x="147.75" y="-190.75" font-family="Helvetica,sans-Serif" font-size="10.00">getAppName</text>
</a>
</g>
</g>
<!-- Node1&#45;&gt;Node2 -->
<g id="edge1_Node000001_Node000002" class="edge">
<title>Node1&#45;&gt;Node2</title>
<g id="a_edge1_Node000001_Node000002"><a xlink:title=" ">
<path fill="none" stroke="#63b8ff" d="M23.79,-111.64C31.29,-127.91 48.37,-159.94 73,-176.62 81,-182.04 90.47,-185.83 99.9,-188.49"/>
<polygon fill="#63b8ff" stroke="#63b8ff" points="98.87,-191.84 109.41,-190.75 100.49,-185.03 98.87,-191.84"/>
</a>
</g>
</g>
<!-- Node3 -->
<g id="Node000003" class="node">
<title>Node3</title>
<g id="a_Node000003"><a xlink:href="class_monolog_1_1_handler_1_1_new_relic_handler.html#a20b255b70ef9638708d73d78c407a1ec" target="_top" xlink:title=" ">
<polygon fill="white" stroke="#666666" points="201.12,-167.25 94.38,-167.25 94.38,-148 201.12,-148 201.12,-167.25"/>
<text text-anchor="middle" x="147.75" y="-153.75" font-family="Helvetica,sans-Serif" font-size="10.00">getTransactionName</text>
</a>
</g>
</g>
<!-- Node1&#45;&gt;Node3 -->
<g id="edge2_Node000001_Node000003" class="edge">
<title>Node1&#45;&gt;Node3</title>
<g id="a_edge2_Node000001_Node000003"><a xlink:title=" ">
<path fill="none" stroke="#63b8ff" d="M30.61,-111.44C40.92,-120.06 57.04,-132.34 73,-139.62 76.52,-141.23 80.21,-142.71 83.98,-144.07"/>
<polygon fill="#63b8ff" stroke="#63b8ff" points="82.7,-147.33 93.29,-147.09 84.86,-140.67 82.7,-147.33"/>
</a>
</g>
</g>
<!-- Node4 -->
<g id="Node000004" class="node">
<title>Node4</title>
<g id="a_Node000004"><a xlink:href="class_monolog_1_1_handler_1_1_new_relic_handler.html#a2af2e5ddfe34ac014f2b170db7e57cf7" target="_top" xlink:title=" ">
<polygon fill="white" stroke="#666666" points="198.5,-130.25 97,-130.25 97,-111 198.5,-111 198.5,-130.25"/>
<text text-anchor="middle" x="147.75" y="-116.75" font-family="Helvetica,sans-Serif" font-size="10.00">isNewRelicEnabled</text>
</a>
</g>
</g>
<!-- Node1&#45;&gt;Node4 -->
<g id="edge3_Node000001_Node000004" class="edge">
<title>Node1&#45;&gt;Node4</title>
<g id="a_edge3_Node000001_Node000004"><a xlink:title=" ">
<path fill="none" stroke="#63b8ff" d="M37.46,-104.31C50.17,-106.2 68.01,-108.87 85.59,-111.49"/>
<polygon fill="#63b8ff" stroke="#63b8ff" points="84.86,-114.92 95.26,-112.94 85.89,-108 84.86,-114.92"/>
</a>
</g>
</g>
<!-- Node5 -->
<g id="Node000005" class="node">
<title>Node5</title>
<g id="a_Node000005"><a xlink:href="class_monolog_1_1_handler_1_1_new_relic_handler.html#adc2a9ab31399a584eda9790c4811a98c" target="_top" xlink:title=" ">
<polygon fill="white" stroke="#666666" points="205.62,-93.25 89.88,-93.25 89.88,-74 205.62,-74 205.62,-93.25"/>
<text text-anchor="middle" x="147.75" y="-79.75" font-family="Helvetica,sans-Serif" font-size="10.00">setNewRelicAppName</text>
</a>
</g>
</g>
<!-- Node1&#45;&gt;Node5 -->
<g id="edge4_Node000001_Node000005" class="edge">
<title>Node1&#45;&gt;Node5</title>
<g id="a_edge4_Node000001_Node000005"><a xlink:title=" ">
<path fill="none" stroke="#63b8ff" d="M37.46,-99.08C48.43,-97.53 63.23,-95.44 78.39,-93.29"/>
<polygon fill="#63b8ff" stroke="#63b8ff" points="78.53,-96.81 87.94,-91.94 77.55,-89.88 78.53,-96.81"/>
</a>
</g>
</g>
<!-- Node6 -->
<g id="Node000006" class="node">
<title>Node6</title>
<g id="a_Node000006"><a xlink:href="class_monolog_1_1_handler_1_1_new_relic_handler.html#ad6d8d767c4fd09457d43eaf9cf3abf60" target="_top" xlink:title=" ">
<polygon fill="white" stroke="#666666" points="206.38,-56.25 89.12,-56.25 89.12,-37 206.38,-37 206.38,-56.25"/>
<text text-anchor="middle" x="147.75" y="-42.75" font-family="Helvetica,sans-Serif" font-size="10.00">setNewRelicParameter</text>
</a>
</g>
</g>
<!-- Node1&#45;&gt;Node6 -->
<g id="edge5_Node000001_Node000006" class="edge">
<title>Node1&#45;&gt;Node6</title>
<g id="a_edge5_Node000001_Node000006"><a xlink:title=" ">
<path fill="none" stroke="#63b8ff" d="M31.06,-91.75C41.42,-83.38 57.34,-71.66 73,-64.62 76.6,-63.01 80.36,-61.53 84.2,-60.17"/>
<polygon fill="#63b8ff" stroke="#63b8ff" points="85.26,-63.5 93.71,-57.11 83.12,-56.84 85.26,-63.5"/>
</a>
</g>
</g>
<!-- Node8 -->
<g id="Node000008" class="node">
<title>Node8</title>
<g id="a_Node000008"><a xlink:href="class_monolog_1_1_handler_1_1_new_relic_handler.html#a91cc9172344829fe35ffcac05db0f566" target="_top" xlink:title=" ">
<polygon fill="white" stroke="#666666" points="222.5,-19.25 73,-19.25 73,0 222.5,0 222.5,-19.25"/>
<text text-anchor="middle" x="147.75" y="-5.75" font-family="Helvetica,sans-Serif" font-size="10.00">setNewRelicTransactionName</text>
</a>
</g>
</g>
<!-- Node1&#45;&gt;Node8 -->
<g id="edge7_Node000001_Node000008" class="edge">
<title>Node1&#45;&gt;Node8</title>
<g id="a_edge7_Node000001_Node000008"><a xlink:title=" ">
<path fill="none" stroke="#63b8ff" d="M23.82,-91.74C31.38,-75.69 48.53,-44.08 73,-27.62 74.62,-26.54 76.29,-25.52 78.01,-24.56"/>
<polygon fill="#63b8ff" stroke="#63b8ff" points="79.39,-27.78 86.94,-20.35 76.4,-21.45 79.39,-27.78"/>
</a>
</g>
</g>
<!-- Node7 -->
<g id="Node000007" class="node">
<title>Node7</title>
<g id="a_Node000007"><a xlink:href="class_monolog_1_1_utils.html#ad10eeb69895cb168d8f9ef89d9b2edbc" target="_top" xlink:title=" ">
<polygon fill="white" stroke="#666666" points="388.5,-56.25 258.5,-56.25 258.5,-37 388.5,-37 388.5,-56.25"/>
<text text-anchor="middle" x="323.5" y="-42.75" font-family="Helvetica,sans-Serif" font-size="10.00">Monolog\Utils\jsonEncode</text>
</a>
</g>
</g>
<!-- Node6&#45;&gt;Node7 -->
<g id="edge6_Node000006_Node000007" class="edge">
<title>Node6&#45;&gt;Node7</title>
<g id="a_edge6_Node000006_Node000007"><a xlink:title=" ">
<path fill="none" stroke="#63b8ff" d="M206.61,-46.62C219.49,-46.62 233.33,-46.62 246.8,-46.62"/>
<polygon fill="#63b8ff" stroke="#63b8ff" points="246.49,-50.13 256.49,-46.63 246.49,-43.13 246.49,-50.13"/>
</a>
</g>
</g>
</g>
</svg>
</svg>

<style type='text/css'>
<![CDATA[
[data-mouse-over-selected='false'] { opacity: 0.7; }
[data-mouse-over-selected='true']  { opacity: 1.0; }
]]>
</style>
<script type="application/ecmascript"><![CDATA[
document.addEventListener('DOMContentLoaded', (event) => {
  highlightEdges();
  highlightAdjacentNodes();
});
]]></script>
</svg>
