<?xml version="1.0" encoding="UTF-8" standalone="no"?>
<!DOCTYPE svg PUBLIC "-//W3C//DTD SVG 1.1//EN"
 "http://www.w3.org/Graphics/SVG/1.1/DTD/svg11.dtd">
<!-- Generated by graphviz version 10.0.1 (20240210.2158)
 -->
<!-- Title: PrincipalMatchReport Pages: 1 -->
<svg width="166pt" height="224pt"
 viewBox="0.00 0.00 166.00 224.00" xmlns="http://www.w3.org/2000/svg" xmlns:xlink="http://www.w3.org/1999/xlink">
<g id="graph0" class="graph" transform="scale(1 1) rotate(0) translate(4 220)">
<title>PrincipalMatchReport</title>
<!-- Node1 -->
<g id="Node000001" class="node">
<title>Node1</title>
<g id="a_Node000001"><a xlink:title=" ">
<polygon fill="#999999" stroke="none" points="158,-120 0,-120 0,0 158,0 158,-120"/>
<text text-anchor="start" x="32.12" y="-106.5" font-family="Helvetica,sans-Serif" font-size="10.00">PrincipalMatchReport</text>
<text text-anchor="start" x="4" y="-91.5" font-family="Helvetica,sans-Serif" font-size="10.00">+</text>
<text text-anchor="start" x="14" y="-91.5" font-family="Helvetica,sans-Serif" font-size="10.00">const SELF</text>
<text text-anchor="start" x="4" y="-76.5" font-family="Helvetica,sans-Serif" font-size="10.00">+</text>
<text text-anchor="start" x="14" y="-76.5" font-family="Helvetica,sans-Serif" font-size="10.00">const PRINCIPAL_PROPERTY</text>
<text text-anchor="start" x="4" y="-61.5" font-family="Helvetica,sans-Serif" font-size="10.00">+</text>
<text text-anchor="start" x="14" y="-61.5" font-family="Helvetica,sans-Serif" font-size="10.00">$type</text>
<text text-anchor="start" x="4" y="-46.5" font-family="Helvetica,sans-Serif" font-size="10.00">+</text>
<text text-anchor="start" x="14" y="-46.5" font-family="Helvetica,sans-Serif" font-size="10.00">$properties</text>
<text text-anchor="start" x="4" y="-31.5" font-family="Helvetica,sans-Serif" font-size="10.00">+</text>
<text text-anchor="start" x="14" y="-31.5" font-family="Helvetica,sans-Serif" font-size="10.00">$principalProperty</text>
<text text-anchor="start" x="4" y="-16.5" font-family="Helvetica,sans-Serif" font-size="10.00">+</text>
<text text-anchor="start" x="14" y="-16.5" font-family="Helvetica,sans-Serif" font-size="10.00">static xmlDeserialize</text>
<text text-anchor="start" x="14" y="-5.25" font-family="Helvetica,sans-Serif" font-size="10.00">(Reader $reader)</text>
<polygon fill="#666666" stroke="#666666" points="0,-103 0,-103 158,-103 158,-103 0,-103"/>
<polygon fill="#666666" stroke="#666666" points="0,-28 0,-28 12,-28 12,-28 0,-28"/>
<polygon fill="#666666" stroke="#666666" points="12,-28 12,-28 158,-28 158,-28 12,-28"/>
<polygon fill="none" stroke="#666666" points="0,0 0,-120 158,-120 158,0 0,0"/>
</a>
</g>
</g>
<!-- Node2 -->
<g id="Node000002" class="node">
<title>Node2</title>
<g id="a_Node000002"><a xlink:href="interface_sabre_1_1_xml_1_1_xml_deserializable.html" target="_top" xlink:title=" ">
<polygon fill="white" stroke="none" points="133.5,-216 24.5,-216 24.5,-156 133.5,-156 133.5,-216"/>
<text text-anchor="start" x="39.62" y="-202.5" font-family="Helvetica,sans-Serif" font-size="10.00">XmlDeserializable</text>
<text text-anchor="start" x="77.5" y="-187.5" font-family="Helvetica,sans-Serif" font-size="10.00"> </text>
<text text-anchor="start" x="28.5" y="-172.5" font-family="Helvetica,sans-Serif" font-size="10.00">+</text>
<text text-anchor="start" x="38.5" y="-172.5" font-family="Helvetica,sans-Serif" font-size="10.00">static xmlDeserialize</text>
<text text-anchor="start" x="38.5" y="-161.25" font-family="Helvetica,sans-Serif" font-size="10.00">(Reader $reader)</text>
<polygon fill="#666666" stroke="#666666" points="24.5,-199 24.5,-199 133.5,-199 133.5,-199 24.5,-199"/>
<polygon fill="#666666" stroke="#666666" points="24.5,-184 24.5,-184 133.5,-184 133.5,-184 24.5,-184"/>
<polygon fill="none" stroke="#666666" points="24.5,-156 24.5,-216 133.5,-216 133.5,-156 24.5,-156"/>
</a>
</g>
</g>
<!-- Node2&#45;&gt;Node1 -->
<g id="edge1_Node000001_Node000002" class="edge">
<title>Node2&#45;&gt;Node1</title>
<g id="a_edge1_Node000001_Node000002"><a xlink:title=" ">
<path fill="none" stroke="#63b8ff" d="M79,-144.98C79,-136.98 79,-128.41 79,-119.91"/>
<polygon fill="none" stroke="#63b8ff" points="75.5,-144.73 79,-154.73 82.5,-144.73 75.5,-144.73"/>
</a>
</g>
</g>
</g>
</svg>
