<?xml version="1.0" encoding="UTF-8" standalone="no"?>
<!DOCTYPE svg PUBLIC "-//W3C//DTD SVG 1.1//EN"
 "http://www.w3.org/Graphics/SVG/1.1/DTD/svg11.dtd">
<!-- Generated by graphviz version 10.0.1 (20240210.2158)
 -->
<!-- Title: Date Pages: 1 -->
<!--zoomable 1495 -->

<svg id="main" version="1.1" xmlns="http://www.w3.org/2000/svg" xmlns:xlink="http://www.w3.org/1999/xlink" xml:space="preserve" onload="init(evt)">
<style type="text/css"><![CDATA[
.node, .edge {opacity: 0.7;}
.node.selected, .edge.selected {opacity: 1;}
.edge:hover path { stroke: red; }
.edge:hover polygon { stroke: red; fill: red; }
]]></style>

<defs>
  <circle id="rim" cx="0" cy="0" r="7"/>
  <circle id="rim2" cx="0" cy="0" r="3.5"/>
  <g id="zoomPlus">
    <use xlink:href="#rim" fill="#404040"><set attributeName="fill" to="#808080" begin="zoomplus.mouseover" end="zoomplus.mouseout"/></use>
    <path d="M-4,0h8M0,-4v8" fill="none" stroke="white" stroke-width="1.5" pointer-events="none"/>
  </g>
  <g id="zoomMin">
    <use xlink:href="#rim" fill="#404040"><set attributeName="fill" to="#808080" begin="zoomminus.mouseover" end="zoomminus.mouseout"/></use>
    <path d="M-4,0h8" fill="none" stroke="white" stroke-width="1.5" pointer-events="none"/>
  </g>
  <g id="arrowUp" transform="translate(30 24)">
    <use xlink:href="#rim"/>
    <path pointer-events="none" fill="none" stroke="white" stroke-width="1.5" d="M0,-3.0v7 M-2.5,-0.5L0,-3.0L2.5,-0.5"/>
  </g>
  <g id="arrowRight" transform="rotate(90) translate(36 -43)">
    <use xlink:href="#rim"/>
    <path pointer-events="none" fill="none" stroke="white" stroke-width="1.5" d="M0,-3.0v7 M-2.5,-0.5L0,-3.0L2.5,-0.5"/>
  </g>
  <g id="arrowDown" transform="rotate(180) translate(-30 -48)">
    <use xlink:href="#rim"/>
    <path pointer-events="none" fill="none" stroke="white" stroke-width="1.5" d="M0,-3.0v7 M-2.5,-0.5L0,-3.0L2.5,-0.5"/>
  </g>
  <g id="arrowLeft" transform="rotate(270) translate(-36 17)">
    <use xlink:href="#rim"/>
    <path pointer-events="none" fill="none" stroke="white" stroke-width="1.5" d="M0,-3.0v7 M-2.5,-0.5L0,-3.0L2.5,-0.5"/>
  </g>
  <g id="resetDef">
    <use xlink:href="#rim2" fill="#404040"><set attributeName="fill" to="#808080" begin="reset.mouseover" end="reset.mouseout"/></use>
  </g>
</defs>
<script type="application/ecmascript">
var viewWidth = 244;
var viewHeight = 1495;
var sectionId = 'dynsection-0';
</script>
<script type="application/ecmascript" xlink:href="svg.min.js"/>
<svg id="graph" class="graph">
<g id="viewport">
<title>Date</title>
<!-- Node1 -->
<g id="Node000001" class="node">
<title>Node1</title>
<g id="a_Node000001"><a xlink:title=" ">
<polygon fill="#999999" stroke="none" points="200,-661 59,-661 59,-313 200,-313 200,-661"/>
<text text-anchor="start" x="119" y="-647.5" font-family="Helvetica,sans-Serif" font-size="10.00">Date</text>
<text text-anchor="start" x="63" y="-632.5" font-family="Helvetica,sans-Serif" font-size="10.00">+</text>
<text text-anchor="start" x="73" y="-632.5" font-family="Helvetica,sans-Serif" font-size="10.00">const INVALID</text>
<text text-anchor="start" x="63" y="-617.5" font-family="Helvetica,sans-Serif" font-size="10.00">+</text>
<text text-anchor="start" x="73" y="-617.5" font-family="Helvetica,sans-Serif" font-size="10.00">const INVALID_DATE</text>
<text text-anchor="start" x="63" y="-602.5" font-family="Helvetica,sans-Serif" font-size="10.00">+</text>
<text text-anchor="start" x="73" y="-602.5" font-family="Helvetica,sans-Serif" font-size="10.00">const FALSEFORMAT</text>
<text text-anchor="start" x="63" y="-587.5" font-family="Helvetica,sans-Serif" font-size="10.00">+</text>
<text text-anchor="start" x="73" y="-587.5" font-family="Helvetica,sans-Serif" font-size="10.00">const FORMAT_DEFAULT</text>
<text text-anchor="start" x="63.38" y="-572.5" font-family="Helvetica,sans-Serif" font-size="10.00">#</text>
<text text-anchor="start" x="73" y="-572.5" font-family="Helvetica,sans-Serif" font-size="10.00">$messageTemplates</text>
<text text-anchor="start" x="63.38" y="-557.5" font-family="Helvetica,sans-Serif" font-size="10.00">#</text>
<text text-anchor="start" x="73" y="-557.5" font-family="Helvetica,sans-Serif" font-size="10.00">$messageVariables</text>
<text text-anchor="start" x="63.38" y="-542.5" font-family="Helvetica,sans-Serif" font-size="10.00">#</text>
<text text-anchor="start" x="73" y="-542.5" font-family="Helvetica,sans-Serif" font-size="10.00">$format</text>
<text text-anchor="start" x="63.38" y="-527.5" font-family="Helvetica,sans-Serif" font-size="10.00">#</text>
<text text-anchor="start" x="73" y="-527.5" font-family="Helvetica,sans-Serif" font-size="10.00">$strict</text>
<text text-anchor="start" x="63" y="-512.5" font-family="Helvetica,sans-Serif" font-size="10.00">+</text>
<text text-anchor="start" x="73" y="-512.5" font-family="Helvetica,sans-Serif" font-size="10.00">__construct($options=[])</text>
<text text-anchor="start" x="63" y="-497.5" font-family="Helvetica,sans-Serif" font-size="10.00">+</text>
<text text-anchor="start" x="73" y="-497.5" font-family="Helvetica,sans-Serif" font-size="10.00">getFormat()</text>
<text text-anchor="start" x="63" y="-482.5" font-family="Helvetica,sans-Serif" font-size="10.00">+</text>
<text text-anchor="start" x="73" y="-482.5" font-family="Helvetica,sans-Serif" font-size="10.00">setFormat($format</text>
<text text-anchor="start" x="73" y="-471.25" font-family="Helvetica,sans-Serif" font-size="10.00">=self::FORMAT_DEFAULT)</text>
<text text-anchor="start" x="63" y="-456.5" font-family="Helvetica,sans-Serif" font-size="10.00">+</text>
<text text-anchor="start" x="73" y="-456.5" font-family="Helvetica,sans-Serif" font-size="10.00">setStrict(bool $strict)</text>
<text text-anchor="start" x="63" y="-441.5" font-family="Helvetica,sans-Serif" font-size="10.00">+</text>
<text text-anchor="start" x="73" y="-441.5" font-family="Helvetica,sans-Serif" font-size="10.00">isStrict()</text>
<text text-anchor="start" x="63" y="-426.5" font-family="Helvetica,sans-Serif" font-size="10.00">+</text>
<text text-anchor="start" x="73" y="-426.5" font-family="Helvetica,sans-Serif" font-size="10.00">isValid($value)</text>
<text text-anchor="start" x="63.38" y="-411.5" font-family="Helvetica,sans-Serif" font-size="10.00">#</text>
<text text-anchor="start" x="73" y="-411.5" font-family="Helvetica,sans-Serif" font-size="10.00">convertToDateTime</text>
<text text-anchor="start" x="73" y="-400.25" font-family="Helvetica,sans-Serif" font-size="10.00">($param, $addErrors=true)</text>
<text text-anchor="start" x="63.38" y="-385.5" font-family="Helvetica,sans-Serif" font-size="10.00">#</text>
<text text-anchor="start" x="73" y="-385.5" font-family="Helvetica,sans-Serif" font-size="10.00">convertInteger($value)</text>
<text text-anchor="start" x="63.38" y="-370.5" font-family="Helvetica,sans-Serif" font-size="10.00">#</text>
<text text-anchor="start" x="73" y="-370.5" font-family="Helvetica,sans-Serif" font-size="10.00">convertDouble($value)</text>
<text text-anchor="start" x="63.38" y="-355.5" font-family="Helvetica,sans-Serif" font-size="10.00">#</text>
<text text-anchor="start" x="73" y="-355.5" font-family="Helvetica,sans-Serif" font-size="10.00">convertString($value,</text>
<text text-anchor="start" x="73" y="-344.25" font-family="Helvetica,sans-Serif" font-size="10.00"> $addErrors=true)</text>
<text text-anchor="start" x="63.38" y="-329.5" font-family="Helvetica,sans-Serif" font-size="10.00">#</text>
<text text-anchor="start" x="73" y="-329.5" font-family="Helvetica,sans-Serif" font-size="10.00">convertArray(array</text>
<text text-anchor="start" x="73" y="-318.25" font-family="Helvetica,sans-Serif" font-size="10.00"> $value, $addErrors=true)</text>
<polygon fill="#666666" stroke="#666666" points="59,-644 59,-644 200,-644 200,-644 59,-644"/>
<polygon fill="#666666" stroke="#666666" points="59,-524 59,-524 71,-524 71,-524 59,-524"/>
<polygon fill="#666666" stroke="#666666" points="71,-524 71,-524 200,-524 200,-524 71,-524"/>
<polygon fill="none" stroke="#666666" points="59,-313 59,-661 200,-661 200,-313 59,-313"/>
</a>
</g>
</g>
<!-- Node5 -->
<g id="Node000005" class="node">
<title>Node5</title>
<g id="a_Node000005"><a xlink:href="class_laminas_1_1_validator_1_1_date_step.html" target="_top" xlink:title=" ">
<polygon fill="white" stroke="none" points="200,-277 59,-277 59,0 200,0 200,-277"/>
<text text-anchor="start" x="108.88" y="-263.5" font-family="Helvetica,sans-Serif" font-size="10.00">DateStep</text>
<text text-anchor="start" x="63" y="-248.5" font-family="Helvetica,sans-Serif" font-size="10.00">+</text>
<text text-anchor="start" x="73" y="-248.5" font-family="Helvetica,sans-Serif" font-size="10.00">const NOT_STEP</text>
<text text-anchor="start" x="63" y="-233.5" font-family="Helvetica,sans-Serif" font-size="10.00">+</text>
<text text-anchor="start" x="73" y="-233.5" font-family="Helvetica,sans-Serif" font-size="10.00">const FORMAT_DEFAULT</text>
<text text-anchor="start" x="63.38" y="-218.5" font-family="Helvetica,sans-Serif" font-size="10.00">#</text>
<text text-anchor="start" x="73" y="-218.5" font-family="Helvetica,sans-Serif" font-size="10.00">$messageTemplates</text>
<text text-anchor="start" x="63.38" y="-203.5" font-family="Helvetica,sans-Serif" font-size="10.00">#</text>
<text text-anchor="start" x="73" y="-203.5" font-family="Helvetica,sans-Serif" font-size="10.00">$baseValue</text>
<text text-anchor="start" x="63.38" y="-188.5" font-family="Helvetica,sans-Serif" font-size="10.00">#</text>
<text text-anchor="start" x="73" y="-188.5" font-family="Helvetica,sans-Serif" font-size="10.00">$step</text>
<text text-anchor="start" x="63.38" y="-173.5" font-family="Helvetica,sans-Serif" font-size="10.00">#</text>
<text text-anchor="start" x="73" y="-173.5" font-family="Helvetica,sans-Serif" font-size="10.00">$timezone</text>
<text text-anchor="start" x="63" y="-158.5" font-family="Helvetica,sans-Serif" font-size="10.00">+</text>
<text text-anchor="start" x="73" y="-158.5" font-family="Helvetica,sans-Serif" font-size="10.00">__construct($options=[])</text>
<text text-anchor="start" x="63" y="-143.5" font-family="Helvetica,sans-Serif" font-size="10.00">+</text>
<text text-anchor="start" x="73" y="-143.5" font-family="Helvetica,sans-Serif" font-size="10.00">setBaseValue($baseValue)</text>
<text text-anchor="start" x="63" y="-128.5" font-family="Helvetica,sans-Serif" font-size="10.00">+</text>
<text text-anchor="start" x="73" y="-128.5" font-family="Helvetica,sans-Serif" font-size="10.00">getBaseValue()</text>
<text text-anchor="start" x="63" y="-113.5" font-family="Helvetica,sans-Serif" font-size="10.00">+</text>
<text text-anchor="start" x="73" y="-113.5" font-family="Helvetica,sans-Serif" font-size="10.00">setStep(DateInterval</text>
<text text-anchor="start" x="73" y="-102.25" font-family="Helvetica,sans-Serif" font-size="10.00"> $step)</text>
<text text-anchor="start" x="63" y="-87.5" font-family="Helvetica,sans-Serif" font-size="10.00">+</text>
<text text-anchor="start" x="73" y="-87.5" font-family="Helvetica,sans-Serif" font-size="10.00">getStep()</text>
<text text-anchor="start" x="63" y="-72.5" font-family="Helvetica,sans-Serif" font-size="10.00">+</text>
<text text-anchor="start" x="73" y="-72.5" font-family="Helvetica,sans-Serif" font-size="10.00">getTimezone()</text>
<text text-anchor="start" x="63" y="-57.5" font-family="Helvetica,sans-Serif" font-size="10.00">+</text>
<text text-anchor="start" x="73" y="-57.5" font-family="Helvetica,sans-Serif" font-size="10.00">setTimezone(DateTimeZone</text>
<text text-anchor="start" x="73" y="-46.25" font-family="Helvetica,sans-Serif" font-size="10.00"> $timezone)</text>
<text text-anchor="start" x="63" y="-31.5" font-family="Helvetica,sans-Serif" font-size="10.00">+</text>
<text text-anchor="start" x="73" y="-31.5" font-family="Helvetica,sans-Serif" font-size="10.00">isValid($value)</text>
<text text-anchor="start" x="63.38" y="-16.5" font-family="Helvetica,sans-Serif" font-size="10.00">#</text>
<text text-anchor="start" x="73" y="-16.5" font-family="Helvetica,sans-Serif" font-size="10.00">convertString($value,</text>
<text text-anchor="start" x="73" y="-5.25" font-family="Helvetica,sans-Serif" font-size="10.00"> $addErrors=true)</text>
<polygon fill="#666666" stroke="#666666" points="59,-260 59,-260 200,-260 200,-260 59,-260"/>
<polygon fill="#666666" stroke="#666666" points="59,-170 59,-170 71,-170 71,-170 59,-170"/>
<polygon fill="#666666" stroke="#666666" points="71,-170 71,-170 200,-170 200,-170 71,-170"/>
<polygon fill="none" stroke="#666666" points="59,0 59,-277 200,-277 200,0 59,0"/>
</a>
</g>
</g>
<!-- Node1&#45;&gt;Node5 -->
<g id="edge4_Node000001_Node000005" class="edge">
<title>Node1&#45;&gt;Node5</title>
<g id="a_edge4_Node000001_Node000005"><a xlink:title=" ">
<path fill="none" stroke="#63b8ff" d="M129.5,-301.58C129.5,-293.21 129.5,-284.88 129.5,-276.66"/>
<polygon fill="none" stroke="#63b8ff" points="126,-301.49 129.5,-311.49 133,-301.49 126,-301.49"/>
</a>
</g>
</g>
<!-- Node2 -->
<g id="Node000002" class="node">
<title>Node2</title>
<g id="a_Node000002"><a xlink:href="class_laminas_1_1_validator_1_1_abstract_validator.html" target="_top" xlink:title=" ">
<polygon fill="white" stroke="none" points="216,-1268 43,-1268 43,-697 216,-697 216,-1268"/>
<text text-anchor="start" x="92.38" y="-1254.5" font-family="Helvetica,sans-Serif" font-size="10.00">AbstractValidator</text>
<text text-anchor="start" x="47.38" y="-1239.5" font-family="Helvetica,sans-Serif" font-size="10.00">#</text>
<text text-anchor="start" x="57" y="-1239.5" font-family="Helvetica,sans-Serif" font-size="10.00">$value</text>
<text text-anchor="start" x="47.38" y="-1224.5" font-family="Helvetica,sans-Serif" font-size="10.00">#</text>
<text text-anchor="start" x="57" y="-1224.5" font-family="Helvetica,sans-Serif" font-size="10.00">$abstractOptions</text>
<text text-anchor="start" x="47.38" y="-1209.5" font-family="Helvetica,sans-Serif" font-size="10.00">#</text>
<text text-anchor="start" x="57" y="-1209.5" font-family="Helvetica,sans-Serif" font-size="10.00">static $defaultTranslator</text>
<text text-anchor="start" x="47.38" y="-1194.5" font-family="Helvetica,sans-Serif" font-size="10.00">#</text>
<text text-anchor="start" x="57" y="-1194.5" font-family="Helvetica,sans-Serif" font-size="10.00">static $defaultTranslator</text>
<text text-anchor="start" x="57" y="-1183.25" font-family="Helvetica,sans-Serif" font-size="10.00">TextDomain</text>
<text text-anchor="start" x="47.38" y="-1168.5" font-family="Helvetica,sans-Serif" font-size="10.00">#</text>
<text text-anchor="start" x="57" y="-1168.5" font-family="Helvetica,sans-Serif" font-size="10.00">static $messageLength</text>
<text text-anchor="start" x="47" y="-1153.5" font-family="Helvetica,sans-Serif" font-size="10.00">+</text>
<text text-anchor="start" x="57" y="-1153.5" font-family="Helvetica,sans-Serif" font-size="10.00">__construct($options</text>
<text text-anchor="start" x="57" y="-1142.25" font-family="Helvetica,sans-Serif" font-size="10.00">=null)</text>
<text text-anchor="start" x="47" y="-1127.5" font-family="Helvetica,sans-Serif" font-size="10.00">+</text>
<text text-anchor="start" x="57" y="-1127.5" font-family="Helvetica,sans-Serif" font-size="10.00">getOption($option)</text>
<text text-anchor="start" x="47" y="-1112.5" font-family="Helvetica,sans-Serif" font-size="10.00">+</text>
<text text-anchor="start" x="57" y="-1112.5" font-family="Helvetica,sans-Serif" font-size="10.00">getOptions()</text>
<text text-anchor="start" x="47" y="-1097.5" font-family="Helvetica,sans-Serif" font-size="10.00">+</text>
<text text-anchor="start" x="57" y="-1097.5" font-family="Helvetica,sans-Serif" font-size="10.00">setOptions($options=[])</text>
<text text-anchor="start" x="47" y="-1082.5" font-family="Helvetica,sans-Serif" font-size="10.00">+</text>
<text text-anchor="start" x="57" y="-1082.5" font-family="Helvetica,sans-Serif" font-size="10.00">getMessages()</text>
<text text-anchor="start" x="47" y="-1067.5" font-family="Helvetica,sans-Serif" font-size="10.00">+</text>
<text text-anchor="start" x="57" y="-1067.5" font-family="Helvetica,sans-Serif" font-size="10.00">__invoke($value)</text>
<text text-anchor="start" x="47" y="-1052.5" font-family="Helvetica,sans-Serif" font-size="10.00">+</text>
<text text-anchor="start" x="57" y="-1052.5" font-family="Helvetica,sans-Serif" font-size="10.00">getMessageVariables()</text>
<text text-anchor="start" x="47" y="-1037.5" font-family="Helvetica,sans-Serif" font-size="10.00">+</text>
<text text-anchor="start" x="57" y="-1037.5" font-family="Helvetica,sans-Serif" font-size="10.00">getMessageTemplates()</text>
<text text-anchor="start" x="47" y="-1022.5" font-family="Helvetica,sans-Serif" font-size="10.00">+</text>
<text text-anchor="start" x="57" y="-1022.5" font-family="Helvetica,sans-Serif" font-size="10.00">setMessage($messageString,</text>
<text text-anchor="start" x="57" y="-1011.25" font-family="Helvetica,sans-Serif" font-size="10.00"> $messageKey=null)</text>
<text text-anchor="start" x="47" y="-996.5" font-family="Helvetica,sans-Serif" font-size="10.00">+</text>
<text text-anchor="start" x="57" y="-996.5" font-family="Helvetica,sans-Serif" font-size="10.00">setMessages(array</text>
<text text-anchor="start" x="57" y="-985.25" font-family="Helvetica,sans-Serif" font-size="10.00"> $messages)</text>
<text text-anchor="start" x="57" y="-970.5" font-family="Helvetica,sans-Serif" font-size="10.00">et 10 de plus...</text>
<text text-anchor="start" x="47" y="-955.5" font-family="Helvetica,sans-Serif" font-size="10.00">+</text>
<text text-anchor="start" x="57" y="-955.5" font-family="Helvetica,sans-Serif" font-size="10.00">static setDefaultTranslator</text>
<text text-anchor="start" x="57" y="-944.25" font-family="Helvetica,sans-Serif" font-size="10.00">(?Translator\TranslatorInterface</text>
<text text-anchor="start" x="57" y="-933" font-family="Helvetica,sans-Serif" font-size="10.00"> $translator=null, $textDomain=null)</text>
<text text-anchor="start" x="47" y="-918.5" font-family="Helvetica,sans-Serif" font-size="10.00">+</text>
<text text-anchor="start" x="57" y="-918.5" font-family="Helvetica,sans-Serif" font-size="10.00">static getDefaultTranslator()</text>
<text text-anchor="start" x="47" y="-903.5" font-family="Helvetica,sans-Serif" font-size="10.00">+</text>
<text text-anchor="start" x="57" y="-903.5" font-family="Helvetica,sans-Serif" font-size="10.00">static hasDefaultTranslator()</text>
<text text-anchor="start" x="47" y="-888.5" font-family="Helvetica,sans-Serif" font-size="10.00">+</text>
<text text-anchor="start" x="57" y="-888.5" font-family="Helvetica,sans-Serif" font-size="10.00">static setDefaultTranslator</text>
<text text-anchor="start" x="57" y="-877.25" font-family="Helvetica,sans-Serif" font-size="10.00">TextDomain($textDomain=&#39;default&#39;)</text>
<text text-anchor="start" x="47" y="-862.5" font-family="Helvetica,sans-Serif" font-size="10.00">+</text>
<text text-anchor="start" x="57" y="-862.5" font-family="Helvetica,sans-Serif" font-size="10.00">static getDefaultTranslator</text>
<text text-anchor="start" x="57" y="-851.25" font-family="Helvetica,sans-Serif" font-size="10.00">TextDomain()</text>
<text text-anchor="start" x="47" y="-836.5" font-family="Helvetica,sans-Serif" font-size="10.00">+</text>
<text text-anchor="start" x="57" y="-836.5" font-family="Helvetica,sans-Serif" font-size="10.00">static getMessageLength()</text>
<text text-anchor="start" x="47" y="-821.5" font-family="Helvetica,sans-Serif" font-size="10.00">+</text>
<text text-anchor="start" x="57" y="-821.5" font-family="Helvetica,sans-Serif" font-size="10.00">static setMessageLength</text>
<text text-anchor="start" x="57" y="-810.25" font-family="Helvetica,sans-Serif" font-size="10.00">($length=&#45;1)</text>
<text text-anchor="start" x="47.38" y="-795.5" font-family="Helvetica,sans-Serif" font-size="10.00">#</text>
<text text-anchor="start" x="57" y="-795.5" font-family="Helvetica,sans-Serif" font-size="10.00">createMessage($messageKey,</text>
<text text-anchor="start" x="57" y="-784.25" font-family="Helvetica,sans-Serif" font-size="10.00"> $value)</text>
<text text-anchor="start" x="47.38" y="-769.5" font-family="Helvetica,sans-Serif" font-size="10.00">#</text>
<text text-anchor="start" x="57" y="-769.5" font-family="Helvetica,sans-Serif" font-size="10.00">error($messageKey,</text>
<text text-anchor="start" x="57" y="-758.25" font-family="Helvetica,sans-Serif" font-size="10.00"> $value=null)</text>
<text text-anchor="start" x="47.38" y="-743.5" font-family="Helvetica,sans-Serif" font-size="10.00">#</text>
<text text-anchor="start" x="57" y="-743.5" font-family="Helvetica,sans-Serif" font-size="10.00">getValue()</text>
<text text-anchor="start" x="47.38" y="-728.5" font-family="Helvetica,sans-Serif" font-size="10.00">#</text>
<text text-anchor="start" x="57" y="-728.5" font-family="Helvetica,sans-Serif" font-size="10.00">setValue($value)</text>
<text text-anchor="start" x="47.38" y="-713.5" font-family="Helvetica,sans-Serif" font-size="10.00">#</text>
<text text-anchor="start" x="57" y="-713.5" font-family="Helvetica,sans-Serif" font-size="10.00">translateMessage(</text>
<text text-anchor="start" x="57" y="-702.25" font-family="Helvetica,sans-Serif" font-size="10.00">$messageKey, $message)</text>
<polygon fill="#666666" stroke="#666666" points="43,-1251 43,-1251 216,-1251 216,-1251 43,-1251"/>
<polygon fill="#666666" stroke="#666666" points="43,-1165 43,-1165 55,-1165 55,-1165 43,-1165"/>
<polygon fill="#666666" stroke="#666666" points="55,-1165 55,-1165 216,-1165 216,-1165 55,-1165"/>
<polygon fill="none" stroke="#666666" points="43,-697 43,-1268 216,-1268 216,-697 43,-697"/>
</a>
</g>
</g>
<!-- Node2&#45;&gt;Node1 -->
<g id="edge1_Node000001_Node000002" class="edge">
<title>Node2&#45;&gt;Node1</title>
<g id="a_edge1_Node000001_Node000002"><a xlink:title=" ">
<path fill="none" stroke="#63b8ff" d="M129.5,-685.78C129.5,-677.37 129.5,-669.05 129.5,-660.84"/>
<polygon fill="none" stroke="#63b8ff" points="126,-685.77 129.5,-695.77 133,-685.77 126,-685.77"/>
</a>
</g>
</g>
<!-- Node3 -->
<g id="Node000003" class="node">
<title>Node3</title>
<g id="a_Node000003"><a xlink:href="interface_laminas_1_1_validator_1_1_translator_1_1_translator_aware_interface.html" target="_top" xlink:title=" ">
<polygon fill="white" stroke="none" points="133,-1487 0,-1487 0,-1304 133,-1304 133,-1487"/>
<text text-anchor="start" x="11.75" y="-1473.5" font-family="Helvetica,sans-Serif" font-size="10.00">TranslatorAwareInterface</text>
<text text-anchor="start" x="65" y="-1458.5" font-family="Helvetica,sans-Serif" font-size="10.00"> </text>
<text text-anchor="start" x="4" y="-1443.5" font-family="Helvetica,sans-Serif" font-size="10.00">+</text>
<text text-anchor="start" x="14" y="-1443.5" font-family="Helvetica,sans-Serif" font-size="10.00">setTranslator(?Translator</text>
<text text-anchor="start" x="14" y="-1432.25" font-family="Helvetica,sans-Serif" font-size="10.00">Interface $translator=null,</text>
<text text-anchor="start" x="14" y="-1421" font-family="Helvetica,sans-Serif" font-size="10.00"> $textDomain=null)</text>
<text text-anchor="start" x="4" y="-1406.5" font-family="Helvetica,sans-Serif" font-size="10.00">+</text>
<text text-anchor="start" x="14" y="-1406.5" font-family="Helvetica,sans-Serif" font-size="10.00">getTranslator()</text>
<text text-anchor="start" x="4" y="-1391.5" font-family="Helvetica,sans-Serif" font-size="10.00">+</text>
<text text-anchor="start" x="14" y="-1391.5" font-family="Helvetica,sans-Serif" font-size="10.00">hasTranslator()</text>
<text text-anchor="start" x="4" y="-1376.5" font-family="Helvetica,sans-Serif" font-size="10.00">+</text>
<text text-anchor="start" x="14" y="-1376.5" font-family="Helvetica,sans-Serif" font-size="10.00">setTranslatorEnabled</text>
<text text-anchor="start" x="14" y="-1365.25" font-family="Helvetica,sans-Serif" font-size="10.00">($enabled=true)</text>
<text text-anchor="start" x="4" y="-1350.5" font-family="Helvetica,sans-Serif" font-size="10.00">+</text>
<text text-anchor="start" x="14" y="-1350.5" font-family="Helvetica,sans-Serif" font-size="10.00">isTranslatorEnabled()</text>
<text text-anchor="start" x="4" y="-1335.5" font-family="Helvetica,sans-Serif" font-size="10.00">+</text>
<text text-anchor="start" x="14" y="-1335.5" font-family="Helvetica,sans-Serif" font-size="10.00">setTranslatorTextDomain</text>
<text text-anchor="start" x="14" y="-1324.25" font-family="Helvetica,sans-Serif" font-size="10.00">($textDomain=&#39;default&#39;)</text>
<text text-anchor="start" x="4" y="-1309.5" font-family="Helvetica,sans-Serif" font-size="10.00">+</text>
<text text-anchor="start" x="14" y="-1309.5" font-family="Helvetica,sans-Serif" font-size="10.00">getTranslatorTextDomain()</text>
<polygon fill="#666666" stroke="#666666" points="0,-1470 0,-1470 133,-1470 133,-1470 0,-1470"/>
<polygon fill="#666666" stroke="#666666" points="0,-1455 0,-1455 133,-1455 133,-1455 0,-1455"/>
<polygon fill="none" stroke="#666666" points="0,-1304 0,-1487 133,-1487 133,-1304 0,-1304"/>
</a>
</g>
</g>
<!-- Node3&#45;&gt;Node2 -->
<g id="edge2_Node000002_Node000003" class="edge">
<title>Node3&#45;&gt;Node2</title>
<g id="a_edge2_Node000002_Node000003"><a xlink:title=" ">
<path fill="none" stroke="#63b8ff" d="M82.09,-1292.83C83.32,-1284.74 84.61,-1276.37 85.92,-1267.78"/>
<polygon fill="none" stroke="#63b8ff" points="78.65,-1292.14 80.59,-1302.55 85.57,-1293.2 78.65,-1292.14"/>
</a>
</g>
</g>
<!-- Node4 -->
<g id="Node000004" class="node">
<title>Node4</title>
<g id="a_Node000004"><a xlink:href="interface_laminas_1_1_validator_1_1_validator_interface.html" target="_top" xlink:title=" ">
<polygon fill="white" stroke="none" points="236,-1427.5 151,-1427.5 151,-1363.5 236,-1363.5 236,-1427.5"/>
<text text-anchor="start" x="155.62" y="-1414" font-family="Helvetica,sans-Serif" font-size="10.00">ValidatorInterface</text>
<text text-anchor="start" x="192" y="-1399" font-family="Helvetica,sans-Serif" font-size="10.00"> </text>
<text text-anchor="start" x="155.5" y="-1384" font-family="Helvetica,sans-Serif" font-size="10.00">+</text>
<text text-anchor="start" x="166" y="-1384" font-family="Helvetica,sans-Serif" font-size="10.00">isValid($value)</text>
<text text-anchor="start" x="155.5" y="-1369" font-family="Helvetica,sans-Serif" font-size="10.00">+</text>
<text text-anchor="start" x="166" y="-1369" font-family="Helvetica,sans-Serif" font-size="10.00">getMessages()</text>
<polygon fill="#666666" stroke="#666666" points="151,-1410.5 151,-1410.5 236,-1410.5 236,-1410.5 151,-1410.5"/>
<polygon fill="#666666" stroke="#666666" points="151,-1395.5 151,-1395.5 236,-1395.5 236,-1395.5 151,-1395.5"/>
<polygon fill="none" stroke="#666666" points="151,-1363.5 151,-1427.5 236,-1427.5 236,-1363.5 151,-1363.5"/>
</a>
</g>
</g>
<!-- Node4&#45;&gt;Node2 -->
<g id="edge3_Node000002_Node000004" class="edge">
<title>Node4&#45;&gt;Node2</title>
<g id="a_edge3_Node000002_Node000004"><a xlink:title=" ">
<path fill="none" stroke="#63b8ff" d="M186.93,-1352.28C183.45,-1329.93 178.84,-1300.35 173.75,-1267.64"/>
<polygon fill="none" stroke="#63b8ff" points="183.46,-1352.77 188.46,-1362.11 190.38,-1351.69 183.46,-1352.77"/>
</a>
</g>
</g>
</g>
</svg>

<g id="navigator" transform="translate(0 0)" fill="#404254">
  <rect fill="#f2f5e9" fill-opacity="0.5" stroke="#606060" stroke-width=".5" x="0" y="0" width="60" height="60"/>
  <use id="zoomplus" xlink:href="#zoomPlus" x="17" y="9" onmousedown="handleZoom(evt,'in')"/>
  <use id="zoomminus" xlink:href="#zoomMin" x="42" y="9" onmousedown="handleZoom(evt,'out')"/>
  <use id="reset" xlink:href="#resetDef" x="30" y="36" onmousedown="handleReset()"/>
   <use id="arrowup" xlink:href="#arrowUp" x="0" y="0" onmousedown="handlePan(0,-1)"/>
  <use id="arrowright" xlink:href="#arrowRight" x="0" y="0" onmousedown="handlePan(1,0)"/>
  <use id="arrowdown" xlink:href="#arrowDown" x="0" y="0" onmousedown="handlePan(0,1)"/>
  <use id="arrowleft" xlink:href="#arrowLeft" x="0" y="0" onmousedown="handlePan(-1,0)"/>
</g>
<svg viewBox="0 0 15 15" width="100%" height="30px" preserveAspectRatio="xMaxYMin meet">
 <g id="arrow_out" transform="scale(0.3 0.3)">
  <a xlink:href="class_laminas_1_1_validator_1_1_date__inherit__graph_org.svg" target="_base">
   <rect id="button" ry="5" rx="5" y="6" x="6" height="38" width="38"
        fill="#f2f5e9" fill-opacity="0.5" stroke="#606060" stroke-width="1.0"/>
   <path id="arrow"
     d="M 11.500037,31.436501 C 11.940474,20.09759 22.043105,11.32322 32.158766,21.979434 L 37.068811,17.246167 C 37.068811,17.246167 37.088388,32 37.088388,32 L 22.160133,31.978069 C 22.160133,31.978069 26.997745,27.140456 26.997745,27.140456 C 18.528582,18.264221 13.291696,25.230495 11.500037,31.436501 z"
     style="fill:#404040;"/>
  </a>
 </g>
</svg>

<style type='text/css'>
<![CDATA[
[data-mouse-over-selected='false'] { opacity: 0.7; }
[data-mouse-over-selected='true']  { opacity: 1.0; }
]]>
</style>
<script type="application/ecmascript"><![CDATA[
document.addEventListener('DOMContentLoaded', (event) => {
  highlightEdges();
  highlightAdjacentNodes();
});
]]></script>
</svg>
