<?xml version="1.0" encoding="UTF-8" standalone="no"?>
<!DOCTYPE svg PUBLIC "-//W3C//DTD SVG 1.1//EN"
 "http://www.w3.org/Graphics/SVG/1.1/DTD/svg11.dtd">
<!-- Generated by graphviz version 10.0.1 (20240210.2158)
 -->
<!-- Title: modPow Pages: 1 -->
<svg width="364pt" height="135pt"
 viewBox="0.00 0.00 364.25 134.50" xmlns="http://www.w3.org/2000/svg" xmlns:xlink="http://www.w3.org/1999/xlink">
<g id="graph0" class="graph" transform="scale(1 1) rotate(0) translate(4 130.5)">
<title>modPow</title>
<!-- Node1 -->
<g id="Node000001" class="node">
<title>Node1</title>
<g id="a_Node000001"><a xlink:title=" ">
<polygon fill="#999999" stroke="#666666" points="54.25,-71.88 0,-71.88 0,-52.62 54.25,-52.62 54.25,-71.88"/>
<text text-anchor="middle" x="27.12" y="-58.38" font-family="Helvetica,sans-Serif" font-size="10.00">modPow</text>
</a>
</g>
</g>
<!-- Node2 -->
<g id="Node000002" class="node">
<title>Node2</title>
<g id="a_Node000002"><a xlink:href="class_brick_1_1_math_1_1_internal_1_1_calculator.html#a5ba61361bf0695a285bbaefefc427191" target="_top" xlink:title=" ">
<polygon fill="white" stroke="#666666" points="197,-126.5 98.5,-126.5 98.5,-96 197,-96 197,-126.5"/>
<text text-anchor="start" x="106.5" y="-113" font-family="Helvetica,sans-Serif" font-size="10.00">Brick\Math\Internal</text>
<text text-anchor="middle" x="147.75" y="-101.75" font-family="Helvetica,sans-Serif" font-size="10.00">\Calculator\get</text>
</a>
</g>
</g>
<!-- Node1&#45;&gt;Node2 -->
<g id="edge1_Node000001_Node000002" class="edge">
<title>Node1&#45;&gt;Node2</title>
<g id="a_edge1_Node000001_Node000002"><a xlink:title=" ">
<path fill="none" stroke="#63b8ff" d="M52.42,-72.28C65.76,-77.8 82.79,-84.83 98.7,-91.4"/>
<polygon fill="#63b8ff" stroke="#63b8ff" points="96.96,-94.47 107.54,-95.05 99.64,-88 96.96,-94.47"/>
</a>
</g>
</g>
<!-- Node3 -->
<g id="Node000003" class="node">
<title>Node3</title>
<g id="a_Node000003"><a xlink:href="class_brick_1_1_math_1_1_big_number.html#aaeeed6085a91098a429c53b3bc097587" target="_top" xlink:title=" ">
<polygon fill="white" stroke="#666666" points="205.25,-77.5 90.25,-77.5 90.25,-47 205.25,-47 205.25,-77.5"/>
<text text-anchor="start" x="98.25" y="-64" font-family="Helvetica,sans-Serif" font-size="10.00">Brick\Math\BigNumber</text>
<text text-anchor="middle" x="147.75" y="-52.75" font-family="Helvetica,sans-Serif" font-size="10.00">\isNegative</text>
</a>
</g>
</g>
<!-- Node1&#45;&gt;Node3 -->
<g id="edge2_Node000001_Node000003" class="edge">
<title>Node1&#45;&gt;Node3</title>
<g id="a_edge2_Node000001_Node000003"><a xlink:title=" ">
<path fill="none" stroke="#63b8ff" d="M54.75,-62.25C62.06,-62.25 70.34,-62.25 78.86,-62.25"/>
<polygon fill="#63b8ff" stroke="#63b8ff" points="78.63,-65.75 88.63,-62.25 78.63,-58.75 78.63,-65.75"/>
</a>
</g>
</g>
<!-- Node5 -->
<g id="Node000005" class="node">
<title>Node5</title>
<g id="a_Node000005"><a xlink:href="class_brick_1_1_math_1_1_big_integer.html#ad9bf5a7e7e57cde931b481360774a408" target="_top" xlink:title=" ">
<polygon fill="white" stroke="#666666" points="162.15,-27.88 133.35,-27.88 133.35,-8.62 162.15,-8.62 162.15,-27.88"/>
<text text-anchor="middle" x="147.75" y="-14.38" font-family="Helvetica,sans-Serif" font-size="10.00">of</text>
</a>
</g>
</g>
<!-- Node1&#45;&gt;Node5 -->
<g id="edge4_Node000001_Node000005" class="edge">
<title>Node1&#45;&gt;Node5</title>
<g id="a_edge4_Node000001_Node000005"><a xlink:title=" ">
<path fill="none" stroke="#63b8ff" d="M53.75,-52.16C64.94,-47.81 78.21,-42.7 90.25,-38.25 100.77,-34.36 112.45,-30.2 122.45,-26.68"/>
<polygon fill="#63b8ff" stroke="#63b8ff" points="123.53,-30.01 131.81,-23.41 121.22,-23.41 123.53,-30.01"/>
</a>
</g>
</g>
<!-- Node4 -->
<g id="Node000004" class="node">
<title>Node4</title>
<g id="a_Node000004"><a xlink:href="class_brick_1_1_math_1_1_big_number.html#a282c839169dc16e5d8bc47e8ac0f202b" target="_top" xlink:title=" ">
<polygon fill="white" stroke="#666666" points="356.25,-79.5 241.25,-79.5 241.25,-49 356.25,-49 356.25,-79.5"/>
<text text-anchor="start" x="249.25" y="-66" font-family="Helvetica,sans-Serif" font-size="10.00">Brick\Math\BigNumber</text>
<text text-anchor="middle" x="298.75" y="-54.75" font-family="Helvetica,sans-Serif" font-size="10.00">\getSign</text>
</a>
</g>
</g>
<!-- Node3&#45;&gt;Node4 -->
<g id="edge3_Node000003_Node000004" class="edge">
<title>Node3&#45;&gt;Node4</title>
<g id="a_edge3_Node000003_Node000004"><a xlink:title=" ">
<path fill="none" stroke="#63b8ff" d="M205.51,-63.01C213.44,-63.12 221.67,-63.23 229.78,-63.34"/>
<polygon fill="#63b8ff" stroke="#63b8ff" points="229.59,-66.84 239.64,-63.47 229.69,-59.84 229.59,-66.84"/>
</a>
</g>
</g>
<!-- Node6 -->
<g id="Node000006" class="node">
<title>Node6</title>
<g id="a_Node000006"><a xlink:href="class_brick_1_1_math_1_1_big_number.html#a7b4bac2966b6e735a4aaa27d8b6fe37d" target="_top" xlink:title=" ">
<polygon fill="white" stroke="#666666" points="356.25,-30.5 241.25,-30.5 241.25,0 356.25,0 356.25,-30.5"/>
<text text-anchor="start" x="249.25" y="-17" font-family="Helvetica,sans-Serif" font-size="10.00">Brick\Math\BigNumber</text>
<text text-anchor="middle" x="298.75" y="-5.75" font-family="Helvetica,sans-Serif" font-size="10.00">\toBigInteger</text>
</a>
</g>
</g>
<!-- Node5&#45;&gt;Node6 -->
<g id="edge5_Node000005_Node000006" class="edge">
<title>Node5&#45;&gt;Node6</title>
<g id="a_edge5_Node000005_Node000006"><a xlink:title=" ">
<path fill="none" stroke="#63b8ff" d="M162.5,-17.97C177.93,-17.66 204.12,-17.14 229.37,-16.63"/>
<polygon fill="#63b8ff" stroke="#63b8ff" points="229.42,-20.13 239.35,-16.43 229.28,-13.13 229.42,-20.13"/>
</a>
</g>
</g>
</g>
</svg>
