<?xml version="1.0" encoding="UTF-8" standalone="no"?>
<!DOCTYPE svg PUBLIC "-//W3C//DTD SVG 1.1//EN"
 "http://www.w3.org/Graphics/SVG/1.1/DTD/svg11.dtd">
<!-- Generated by graphviz version 10.0.1 (20240210.2158)
 -->
<!-- Title: RefusedEquipment Pages: 1 -->
<!--zoomable 1725 -->

<svg id="main" version="1.1" xmlns="http://www.w3.org/2000/svg" xmlns:xlink="http://www.w3.org/1999/xlink" xml:space="preserve" onload="init(evt)">
<style type="text/css"><![CDATA[
.node, .edge {opacity: 0.7;}
.node.selected, .edge.selected {opacity: 1;}
.edge:hover path { stroke: red; }
.edge:hover polygon { stroke: red; fill: red; }
]]></style>

<defs>
  <circle id="rim" cx="0" cy="0" r="7"/>
  <circle id="rim2" cx="0" cy="0" r="3.5"/>
  <g id="zoomPlus">
    <use xlink:href="#rim" fill="#404040"><set attributeName="fill" to="#808080" begin="zoomplus.mouseover" end="zoomplus.mouseout"/></use>
    <path d="M-4,0h8M0,-4v8" fill="none" stroke="white" stroke-width="1.5" pointer-events="none"/>
  </g>
  <g id="zoomMin">
    <use xlink:href="#rim" fill="#404040"><set attributeName="fill" to="#808080" begin="zoomminus.mouseover" end="zoomminus.mouseout"/></use>
    <path d="M-4,0h8" fill="none" stroke="white" stroke-width="1.5" pointer-events="none"/>
  </g>
  <g id="arrowUp" transform="translate(30 24)">
    <use xlink:href="#rim"/>
    <path pointer-events="none" fill="none" stroke="white" stroke-width="1.5" d="M0,-3.0v7 M-2.5,-0.5L0,-3.0L2.5,-0.5"/>
  </g>
  <g id="arrowRight" transform="rotate(90) translate(36 -43)">
    <use xlink:href="#rim"/>
    <path pointer-events="none" fill="none" stroke="white" stroke-width="1.5" d="M0,-3.0v7 M-2.5,-0.5L0,-3.0L2.5,-0.5"/>
  </g>
  <g id="arrowDown" transform="rotate(180) translate(-30 -48)">
    <use xlink:href="#rim"/>
    <path pointer-events="none" fill="none" stroke="white" stroke-width="1.5" d="M0,-3.0v7 M-2.5,-0.5L0,-3.0L2.5,-0.5"/>
  </g>
  <g id="arrowLeft" transform="rotate(270) translate(-36 17)">
    <use xlink:href="#rim"/>
    <path pointer-events="none" fill="none" stroke="white" stroke-width="1.5" d="M0,-3.0v7 M-2.5,-0.5L0,-3.0L2.5,-0.5"/>
  </g>
  <g id="resetDef">
    <use xlink:href="#rim2" fill="#404040"><set attributeName="fill" to="#808080" begin="reset.mouseover" end="reset.mouseout"/></use>
  </g>
</defs>
<script type="application/ecmascript">
var viewWidth = 391;
var viewHeight = 1725;
var sectionId = 'dynsection-1';
</script>
<script type="application/ecmascript" xlink:href="svg.min.js"/>
<svg id="graph" class="graph">
<g id="viewport">
<title>RefusedEquipment</title>
<!-- Node1 -->
<g id="Node000001" class="node">
<title>Node1</title>
<g id="a_Node000001"><a xlink:title=" ">
<polygon fill="#999999" stroke="none" points="163,-161 0,-161 0,0 163,0 163,-161"/>
<text text-anchor="start" x="39.88" y="-147.5" font-family="Helvetica,sans-Serif" font-size="10.00">RefusedEquipment</text>
<text text-anchor="start" x="4" y="-132.5" font-family="Helvetica,sans-Serif" font-size="10.00">+</text>
<text text-anchor="start" x="14" y="-132.5" font-family="Helvetica,sans-Serif" font-size="10.00">$dohistory</text>
<text text-anchor="start" x="4" y="-117.5" font-family="Helvetica,sans-Serif" font-size="10.00">+</text>
<text text-anchor="start" x="14" y="-117.5" font-family="Helvetica,sans-Serif" font-size="10.00">rawSearchOptions()</text>
<text text-anchor="start" x="4" y="-102.5" font-family="Helvetica,sans-Serif" font-size="10.00">+</text>
<text text-anchor="start" x="14" y="-102.5" font-family="Helvetica,sans-Serif" font-size="10.00">isDynamic()</text>
<text text-anchor="start" x="4" y="-87.5" font-family="Helvetica,sans-Serif" font-size="10.00">+</text>
<text text-anchor="start" x="14" y="-87.5" font-family="Helvetica,sans-Serif" font-size="10.00">handleInventoryRequest</text>
<text text-anchor="start" x="14" y="-76.25" font-family="Helvetica,sans-Serif" font-size="10.00">(Request $request)</text>
<text text-anchor="start" x="4" y="-61.5" font-family="Helvetica,sans-Serif" font-size="10.00">+</text>
<text text-anchor="start" x="14" y="-61.5" font-family="Helvetica,sans-Serif" font-size="10.00">static getTypeName</text>
<text text-anchor="start" x="14" y="-50.25" font-family="Helvetica,sans-Serif" font-size="10.00">($nb=0)</text>
<text text-anchor="start" x="4" y="-35.5" font-family="Helvetica,sans-Serif" font-size="10.00">+</text>
<text text-anchor="start" x="14" y="-35.5" font-family="Helvetica,sans-Serif" font-size="10.00">static getDefaultSearchRequest()</text>
<text text-anchor="start" x="4" y="-20.5" font-family="Helvetica,sans-Serif" font-size="10.00">+</text>
<text text-anchor="start" x="14" y="-20.5" font-family="Helvetica,sans-Serif" font-size="10.00">static getIcon()</text>
<text text-anchor="start" x="4" y="-5.5" font-family="Helvetica,sans-Serif" font-size="10.00">+</text>
<text text-anchor="start" x="14" y="-5.5" font-family="Helvetica,sans-Serif" font-size="10.00">static canPurge()</text>
<polygon fill="#666666" stroke="#666666" points="0,-144 0,-144 163,-144 163,-144 0,-144"/>
<polygon fill="#666666" stroke="#666666" points="0,-129 0,-129 12,-129 12,-129 0,-129"/>
<polygon fill="#666666" stroke="#666666" points="12,-129 12,-129 163,-129 163,-129 12,-129"/>
<polygon fill="none" stroke="#666666" points="0,0 0,-161 163,-161 163,0 0,0"/>
</a>
</g>
</g>
<!-- Node2 -->
<g id="Node000002" class="node">
<title>Node2</title>
<g id="a_Node000002"><a xlink:href="class_common_d_b_t_m.html" target="_top" xlink:title=" ">
<polygon fill="white" stroke="none" points="231,-1002 78,-1002 78,-198 231,-198 231,-1002"/>
<text text-anchor="start" x="120.38" y="-988.5" font-family="Helvetica,sans-Serif" font-size="10.00">CommonDBTM</text>
<text text-anchor="start" x="82" y="-973.5" font-family="Helvetica,sans-Serif" font-size="10.00">+</text>
<text text-anchor="start" x="92" y="-973.5" font-family="Helvetica,sans-Serif" font-size="10.00">$fields</text>
<text text-anchor="start" x="82" y="-958.5" font-family="Helvetica,sans-Serif" font-size="10.00">+</text>
<text text-anchor="start" x="92" y="-958.5" font-family="Helvetica,sans-Serif" font-size="10.00">$input</text>
<text text-anchor="start" x="82" y="-943.5" font-family="Helvetica,sans-Serif" font-size="10.00">+</text>
<text text-anchor="start" x="92" y="-943.5" font-family="Helvetica,sans-Serif" font-size="10.00">$updates</text>
<text text-anchor="start" x="82" y="-928.5" font-family="Helvetica,sans-Serif" font-size="10.00">+</text>
<text text-anchor="start" x="92" y="-928.5" font-family="Helvetica,sans-Serif" font-size="10.00">$oldvalues</text>
<text text-anchor="start" x="82" y="-913.5" font-family="Helvetica,sans-Serif" font-size="10.00">+</text>
<text text-anchor="start" x="92" y="-913.5" font-family="Helvetica,sans-Serif" font-size="10.00">$dohistory</text>
<text text-anchor="start" x="82" y="-898.5" font-family="Helvetica,sans-Serif" font-size="10.00">+</text>
<text text-anchor="start" x="92" y="-898.5" font-family="Helvetica,sans-Serif" font-size="10.00">$history_blacklist</text>
<text text-anchor="start" x="82" y="-883.5" font-family="Helvetica,sans-Serif" font-size="10.00">+</text>
<text text-anchor="start" x="92" y="-883.5" font-family="Helvetica,sans-Serif" font-size="10.00">$auto_message_on_action</text>
<text text-anchor="start" x="82" y="-868.5" font-family="Helvetica,sans-Serif" font-size="10.00">+</text>
<text text-anchor="start" x="92" y="-868.5" font-family="Helvetica,sans-Serif" font-size="10.00">$no_form_page</text>
<text text-anchor="start" x="82" y="-853.5" font-family="Helvetica,sans-Serif" font-size="10.00">+</text>
<text text-anchor="start" x="92" y="-853.5" font-family="Helvetica,sans-Serif" font-size="10.00">$additional_fields</text>
<text text-anchor="start" x="92" y="-842.25" font-family="Helvetica,sans-Serif" font-size="10.00">_for_dictionnary</text>
<text text-anchor="start" x="82" y="-827.5" font-family="Helvetica,sans-Serif" font-size="10.00">+</text>
<text text-anchor="start" x="92" y="-827.5" font-family="Helvetica,sans-Serif" font-size="10.00">$taborientation</text>
<text text-anchor="start" x="82" y="-812.5" font-family="Helvetica,sans-Serif" font-size="10.00">+</text>
<text text-anchor="start" x="92" y="-812.5" font-family="Helvetica,sans-Serif" font-size="10.00">$get_item_to_display_tab</text>
<text text-anchor="start" x="82" y="-797.5" font-family="Helvetica,sans-Serif" font-size="10.00">+</text>
<text text-anchor="start" x="92" y="-797.5" font-family="Helvetica,sans-Serif" font-size="10.00">$deduplicate_queued</text>
<text text-anchor="start" x="92" y="-786.25" font-family="Helvetica,sans-Serif" font-size="10.00">_notifications</text>
<text text-anchor="start" x="82" y="-771.5" font-family="Helvetica,sans-Serif" font-size="10.00">+</text>
<text text-anchor="start" x="92" y="-771.5" font-family="Helvetica,sans-Serif" font-size="10.00">$right</text>
<text text-anchor="start" x="82.38" y="-756.5" font-family="Helvetica,sans-Serif" font-size="10.00">#</text>
<text text-anchor="start" x="92" y="-756.5" font-family="Helvetica,sans-Serif" font-size="10.00">$fkfield</text>
<text text-anchor="start" x="82.38" y="-741.5" font-family="Helvetica,sans-Serif" font-size="10.00">#</text>
<text text-anchor="start" x="92" y="-741.5" font-family="Helvetica,sans-Serif" font-size="10.00">$searchopt</text>
<text text-anchor="start" x="82.38" y="-726.5" font-family="Helvetica,sans-Serif" font-size="10.00">#</text>
<text text-anchor="start" x="92" y="-726.5" font-family="Helvetica,sans-Serif" font-size="10.00">$usenotepad</text>
<text text-anchor="start" x="82" y="-711.5" font-family="Helvetica,sans-Serif" font-size="10.00">+</text>
<text text-anchor="start" x="92" y="-711.5" font-family="Helvetica,sans-Serif" font-size="10.00">getFromResultSet($rs)</text>
<text text-anchor="start" x="82" y="-696.5" font-family="Helvetica,sans-Serif" font-size="10.00">+</text>
<text text-anchor="start" x="92" y="-696.5" font-family="Helvetica,sans-Serif" font-size="10.00">getID()</text>
<text text-anchor="start" x="82" y="-681.5" font-family="Helvetica,sans-Serif" font-size="10.00">+</text>
<text text-anchor="start" x="92" y="-681.5" font-family="Helvetica,sans-Serif" font-size="10.00">post_getFromDB()</text>
<text text-anchor="start" x="82" y="-666.5" font-family="Helvetica,sans-Serif" font-size="10.00">+</text>
<text text-anchor="start" x="92" y="-666.5" font-family="Helvetica,sans-Serif" font-size="10.00">showForm($ID, array</text>
<text text-anchor="start" x="92" y="-655.25" font-family="Helvetica,sans-Serif" font-size="10.00"> $options=[])</text>
<text text-anchor="start" x="82" y="-640.5" font-family="Helvetica,sans-Serif" font-size="10.00">+</text>
<text text-anchor="start" x="92" y="-640.5" font-family="Helvetica,sans-Serif" font-size="10.00">getSNMPCredential()</text>
<text text-anchor="start" x="82" y="-625.5" font-family="Helvetica,sans-Serif" font-size="10.00">+</text>
<text text-anchor="start" x="92" y="-625.5" font-family="Helvetica,sans-Serif" font-size="10.00">getLockedFields()</text>
<text text-anchor="start" x="82" y="-610.5" font-family="Helvetica,sans-Serif" font-size="10.00">+</text>
<text text-anchor="start" x="92" y="-610.5" font-family="Helvetica,sans-Serif" font-size="10.00">post_getEmpty()</text>
<text text-anchor="start" x="82" y="-595.5" font-family="Helvetica,sans-Serif" font-size="10.00">+</text>
<text text-anchor="start" x="92" y="-595.5" font-family="Helvetica,sans-Serif" font-size="10.00">getLogTypeID()</text>
<text text-anchor="start" x="82" y="-580.5" font-family="Helvetica,sans-Serif" font-size="10.00">+</text>
<text text-anchor="start" x="92" y="-580.5" font-family="Helvetica,sans-Serif" font-size="10.00">post_deleteFromDB()</text>
<text text-anchor="start" x="82" y="-565.5" font-family="Helvetica,sans-Serif" font-size="10.00">+</text>
<text text-anchor="start" x="92" y="-565.5" font-family="Helvetica,sans-Serif" font-size="10.00">cleanDBonPurge()</text>
<text text-anchor="start" x="92" y="-550.5" font-family="Helvetica,sans-Serif" font-size="10.00">et 87 de plus...</text>
<text text-anchor="start" x="82" y="-535.5" font-family="Helvetica,sans-Serif" font-size="10.00">+</text>
<text text-anchor="start" x="92" y="-535.5" font-family="Helvetica,sans-Serif" font-size="10.00">static getTable($classname</text>
<text text-anchor="start" x="92" y="-524.25" font-family="Helvetica,sans-Serif" font-size="10.00">=null)</text>
<text text-anchor="start" x="82" y="-509.5" font-family="Helvetica,sans-Serif" font-size="10.00">+</text>
<text text-anchor="start" x="92" y="-509.5" font-family="Helvetica,sans-Serif" font-size="10.00">static forceTable(</text>
<text text-anchor="start" x="92" y="-498.25" font-family="Helvetica,sans-Serif" font-size="10.00">$table)</text>
<text text-anchor="start" x="82" y="-483.5" font-family="Helvetica,sans-Serif" font-size="10.00">+</text>
<text text-anchor="start" x="92" y="-483.5" font-family="Helvetica,sans-Serif" font-size="10.00">static getForeignKeyField()</text>
<text text-anchor="start" x="82" y="-468.5" font-family="Helvetica,sans-Serif" font-size="10.00">+</text>
<text text-anchor="start" x="92" y="-468.5" font-family="Helvetica,sans-Serif" font-size="10.00">static getTableField</text>
<text text-anchor="start" x="92" y="-457.25" font-family="Helvetica,sans-Serif" font-size="10.00">($field, $classname=null)</text>
<text text-anchor="start" x="82" y="-442.5" font-family="Helvetica,sans-Serif" font-size="10.00">+</text>
<text text-anchor="start" x="92" y="-442.5" font-family="Helvetica,sans-Serif" font-size="10.00">static getFromIter</text>
<text text-anchor="start" x="92" y="-431.25" font-family="Helvetica,sans-Serif" font-size="10.00">(DBmysqlIterator $iter)</text>
<text text-anchor="start" x="82" y="-416.5" font-family="Helvetica,sans-Serif" font-size="10.00">+</text>
<text text-anchor="start" x="92" y="-416.5" font-family="Helvetica,sans-Serif" font-size="10.00">static unsetUndisclosedFields</text>
<text text-anchor="start" x="92" y="-405.25" font-family="Helvetica,sans-Serif" font-size="10.00">(&amp;$fields)</text>
<text text-anchor="start" x="82" y="-390.5" font-family="Helvetica,sans-Serif" font-size="10.00">+</text>
<text text-anchor="start" x="92" y="-390.5" font-family="Helvetica,sans-Serif" font-size="10.00">static getIndexName()</text>
<text text-anchor="start" x="82" y="-375.5" font-family="Helvetica,sans-Serif" font-size="10.00">+</text>
<text text-anchor="start" x="92" y="-375.5" font-family="Helvetica,sans-Serif" font-size="10.00">static isNewID($ID)</text>
<text text-anchor="start" x="82" y="-360.5" font-family="Helvetica,sans-Serif" font-size="10.00">+</text>
<text text-anchor="start" x="92" y="-360.5" font-family="Helvetica,sans-Serif" font-size="10.00">static getNameField()</text>
<text text-anchor="start" x="82" y="-345.5" font-family="Helvetica,sans-Serif" font-size="10.00">+</text>
<text text-anchor="start" x="92" y="-345.5" font-family="Helvetica,sans-Serif" font-size="10.00">static getCompleteNameField()</text>
<text text-anchor="start" x="92" y="-330.5" font-family="Helvetica,sans-Serif" font-size="10.00">et 26 de plus...</text>
<text text-anchor="start" x="82.38" y="-315.5" font-family="Helvetica,sans-Serif" font-size="10.00">#</text>
<text text-anchor="start" x="92" y="-315.5" font-family="Helvetica,sans-Serif" font-size="10.00">saveInput()</text>
<text text-anchor="start" x="82.38" y="-300.5" font-family="Helvetica,sans-Serif" font-size="10.00">#</text>
<text text-anchor="start" x="92" y="-300.5" font-family="Helvetica,sans-Serif" font-size="10.00">clearSavedInput()</text>
<text text-anchor="start" x="82.38" y="-285.5" font-family="Helvetica,sans-Serif" font-size="10.00">#</text>
<text text-anchor="start" x="92" y="-285.5" font-family="Helvetica,sans-Serif" font-size="10.00">restoreInput(array</text>
<text text-anchor="start" x="92" y="-274.25" font-family="Helvetica,sans-Serif" font-size="10.00"> $default=[])</text>
<text text-anchor="start" x="82.38" y="-259.5" font-family="Helvetica,sans-Serif" font-size="10.00">#</text>
<text text-anchor="start" x="92" y="-259.5" font-family="Helvetica,sans-Serif" font-size="10.00">restoreSavedValues</text>
<text text-anchor="start" x="92" y="-248.25" font-family="Helvetica,sans-Serif" font-size="10.00">(array $saved=[])</text>
<text text-anchor="start" x="82.38" y="-233.5" font-family="Helvetica,sans-Serif" font-size="10.00">#</text>
<text text-anchor="start" x="92" y="-233.5" font-family="Helvetica,sans-Serif" font-size="10.00">cleanLockedsOnAdd()</text>
<text text-anchor="start" x="82.38" y="-218.5" font-family="Helvetica,sans-Serif" font-size="10.00">#</text>
<text text-anchor="start" x="92" y="-218.5" font-family="Helvetica,sans-Serif" font-size="10.00">cleanLockeds()</text>
<text text-anchor="start" x="82.38" y="-203.5" font-family="Helvetica,sans-Serif" font-size="10.00">#</text>
<text text-anchor="start" x="92" y="-203.5" font-family="Helvetica,sans-Serif" font-size="10.00">computeFriendlyName()</text>
<polygon fill="#666666" stroke="#666666" points="78,-985 78,-985 231,-985 231,-985 78,-985"/>
<polygon fill="#666666" stroke="#666666" points="78,-723 78,-723 90,-723 90,-723 78,-723"/>
<polygon fill="#666666" stroke="#666666" points="90,-723 90,-723 231,-723 231,-723 90,-723"/>
<polygon fill="none" stroke="#666666" points="78,-198 78,-1002 231,-1002 231,-198 78,-198"/>
</a>
</g>
</g>
<!-- Node2&#45;&gt;Node1 -->
<g id="edge1_Node000001_Node000002" class="edge">
<title>Node2&#45;&gt;Node1</title>
<g id="a_edge1_Node000001_Node000002"><a xlink:title=" ">
<path fill="none" stroke="#63b8ff" d="M96.38,-186.98C95.09,-177.88 93.87,-169.16 92.7,-160.93"/>
<polygon fill="none" stroke="#63b8ff" points="92.9,-187.37 97.76,-196.78 99.83,-186.39 92.9,-187.37"/>
</a>
</g>
</g>
<!-- Node3 -->
<g id="Node000003" class="node">
<title>Node3</title>
<g id="a_Node000003"><a xlink:href="class_common_g_l_p_i.html" target="_top" xlink:title=" ">
<polygon fill="white" stroke="none" points="383,-1587.25 232,-1587.25 232,-1049.25 383,-1049.25 383,-1587.25"/>
<text text-anchor="start" x="276.38" y="-1573.75" font-family="Helvetica,sans-Serif" font-size="10.00">CommonGLPI</text>
<text text-anchor="start" x="236" y="-1558.75" font-family="Helvetica,sans-Serif" font-size="10.00">+</text>
<text text-anchor="start" x="246" y="-1558.75" font-family="Helvetica,sans-Serif" font-size="10.00">$showdebug</text>
<text text-anchor="start" x="236" y="-1543.75" font-family="Helvetica,sans-Serif" font-size="10.00">+</text>
<text text-anchor="start" x="246" y="-1543.75" font-family="Helvetica,sans-Serif" font-size="10.00">$taborientation</text>
<text text-anchor="start" x="236" y="-1528.75" font-family="Helvetica,sans-Serif" font-size="10.00">+</text>
<text text-anchor="start" x="246" y="-1528.75" font-family="Helvetica,sans-Serif" font-size="10.00">$get_item_to_display_tab</text>
<text text-anchor="start" x="236.38" y="-1513.75" font-family="Helvetica,sans-Serif" font-size="10.00">#</text>
<text text-anchor="start" x="246" y="-1513.75" font-family="Helvetica,sans-Serif" font-size="10.00">$type</text>
<text text-anchor="start" x="236.38" y="-1498.75" font-family="Helvetica,sans-Serif" font-size="10.00">#</text>
<text text-anchor="start" x="246" y="-1498.75" font-family="Helvetica,sans-Serif" font-size="10.00">$displaylist</text>
<text text-anchor="start" x="236" y="-1483.75" font-family="Helvetica,sans-Serif" font-size="10.00">+</text>
<text text-anchor="start" x="246" y="-1483.75" font-family="Helvetica,sans-Serif" font-size="10.00">__construct()</text>
<text text-anchor="start" x="236" y="-1468.75" font-family="Helvetica,sans-Serif" font-size="10.00">+</text>
<text text-anchor="start" x="246" y="-1468.75" font-family="Helvetica,sans-Serif" font-size="10.00">can($ID, $right, array</text>
<text text-anchor="start" x="246" y="-1457.5" font-family="Helvetica,sans-Serif" font-size="10.00"> &amp;$input=null)</text>
<text text-anchor="start" x="236" y="-1442.75" font-family="Helvetica,sans-Serif" font-size="10.00">+</text>
<text text-anchor="start" x="246" y="-1442.75" font-family="Helvetica,sans-Serif" font-size="10.00">defineTabs($options=[])</text>
<text text-anchor="start" x="236" y="-1427.75" font-family="Helvetica,sans-Serif" font-size="10.00">+</text>
<text text-anchor="start" x="246" y="-1427.75" font-family="Helvetica,sans-Serif" font-size="10.00">addStandardTab($itemtype,</text>
<text text-anchor="start" x="246" y="-1416.5" font-family="Helvetica,sans-Serif" font-size="10.00"> array &amp;$ong, array $options)</text>
<text text-anchor="start" x="236" y="-1401.75" font-family="Helvetica,sans-Serif" font-size="10.00">+</text>
<text text-anchor="start" x="246" y="-1401.75" font-family="Helvetica,sans-Serif" font-size="10.00">addDefaultFormTab</text>
<text text-anchor="start" x="246" y="-1390.5" font-family="Helvetica,sans-Serif" font-size="10.00">(array &amp;$ong)</text>
<text text-anchor="start" x="236" y="-1375.75" font-family="Helvetica,sans-Serif" font-size="10.00">+</text>
<text text-anchor="start" x="246" y="-1375.75" font-family="Helvetica,sans-Serif" font-size="10.00">getTabNameForItem</text>
<text text-anchor="start" x="246" y="-1364.5" font-family="Helvetica,sans-Serif" font-size="10.00">(CommonGLPI $item, </text>
<text text-anchor="start" x="246" y="-1353.25" font-family="Helvetica,sans-Serif" font-size="10.00">$withtemplate=0)</text>
<text text-anchor="start" x="236" y="-1338.75" font-family="Helvetica,sans-Serif" font-size="10.00">+</text>
<text text-anchor="start" x="246" y="-1338.75" font-family="Helvetica,sans-Serif" font-size="10.00">isNewItem()</text>
<text text-anchor="start" x="236" y="-1323.75" font-family="Helvetica,sans-Serif" font-size="10.00">+</text>
<text text-anchor="start" x="246" y="-1323.75" font-family="Helvetica,sans-Serif" font-size="10.00">showTabsContent($options=[])</text>
<text text-anchor="start" x="236" y="-1308.75" font-family="Helvetica,sans-Serif" font-size="10.00">+</text>
<text text-anchor="start" x="246" y="-1308.75" font-family="Helvetica,sans-Serif" font-size="10.00">getHeaderName()</text>
<text text-anchor="start" x="236" y="-1293.75" font-family="Helvetica,sans-Serif" font-size="10.00">+</text>
<text text-anchor="start" x="246" y="-1293.75" font-family="Helvetica,sans-Serif" font-size="10.00">display($options=[])</text>
<text text-anchor="start" x="236" y="-1278.75" font-family="Helvetica,sans-Serif" font-size="10.00">+</text>
<text text-anchor="start" x="246" y="-1278.75" font-family="Helvetica,sans-Serif" font-size="10.00">getErrorMessage($error,</text>
<text text-anchor="start" x="246" y="-1267.5" font-family="Helvetica,sans-Serif" font-size="10.00"> $object=&#39;&#39;)</text>
<text text-anchor="start" x="236" y="-1252.75" font-family="Helvetica,sans-Serif" font-size="10.00">+</text>
<text text-anchor="start" x="246" y="-1252.75" font-family="Helvetica,sans-Serif" font-size="10.00">static getTypeName</text>
<text text-anchor="start" x="246" y="-1241.5" font-family="Helvetica,sans-Serif" font-size="10.00">($nb=0)</text>
<text text-anchor="start" x="236" y="-1226.75" font-family="Helvetica,sans-Serif" font-size="10.00">+</text>
<text text-anchor="start" x="246" y="-1226.75" font-family="Helvetica,sans-Serif" font-size="10.00">static getFieldLabel()</text>
<text text-anchor="start" x="236" y="-1211.75" font-family="Helvetica,sans-Serif" font-size="10.00">+</text>
<text text-anchor="start" x="246" y="-1211.75" font-family="Helvetica,sans-Serif" font-size="10.00">static getType()</text>
<text text-anchor="start" x="236" y="-1196.75" font-family="Helvetica,sans-Serif" font-size="10.00">+</text>
<text text-anchor="start" x="246" y="-1196.75" font-family="Helvetica,sans-Serif" font-size="10.00">static canCreate()</text>
<text text-anchor="start" x="236" y="-1181.75" font-family="Helvetica,sans-Serif" font-size="10.00">+</text>
<text text-anchor="start" x="246" y="-1181.75" font-family="Helvetica,sans-Serif" font-size="10.00">static canView()</text>
<text text-anchor="start" x="236" y="-1166.75" font-family="Helvetica,sans-Serif" font-size="10.00">+</text>
<text text-anchor="start" x="246" y="-1166.75" font-family="Helvetica,sans-Serif" font-size="10.00">static canUpdate()</text>
<text text-anchor="start" x="236" y="-1151.75" font-family="Helvetica,sans-Serif" font-size="10.00">+</text>
<text text-anchor="start" x="246" y="-1151.75" font-family="Helvetica,sans-Serif" font-size="10.00">static canDelete()</text>
<text text-anchor="start" x="236" y="-1136.75" font-family="Helvetica,sans-Serif" font-size="10.00">+</text>
<text text-anchor="start" x="246" y="-1136.75" font-family="Helvetica,sans-Serif" font-size="10.00">static canPurge()</text>
<text text-anchor="start" x="236" y="-1121.75" font-family="Helvetica,sans-Serif" font-size="10.00">+</text>
<text text-anchor="start" x="246" y="-1121.75" font-family="Helvetica,sans-Serif" font-size="10.00">static registerStandardTab</text>
<text text-anchor="start" x="246" y="-1110.5" font-family="Helvetica,sans-Serif" font-size="10.00">($typeform, $typetab)</text>
<text text-anchor="start" x="236" y="-1095.75" font-family="Helvetica,sans-Serif" font-size="10.00">+</text>
<text text-anchor="start" x="246" y="-1095.75" font-family="Helvetica,sans-Serif" font-size="10.00">static getOtherTabs</text>
<text text-anchor="start" x="246" y="-1084.5" font-family="Helvetica,sans-Serif" font-size="10.00">($typeform)</text>
<text text-anchor="start" x="246" y="-1069.75" font-family="Helvetica,sans-Serif" font-size="10.00">et 17 de plus...</text>
<text text-anchor="start" x="236.38" y="-1054.75" font-family="Helvetica,sans-Serif" font-size="10.00">#</text>
<text text-anchor="start" x="246" y="-1054.75" font-family="Helvetica,sans-Serif" font-size="10.00">getFormHeaderToolbar()</text>
<polygon fill="#666666" stroke="#666666" points="232,-1570.25 232,-1570.25 383,-1570.25 383,-1570.25 232,-1570.25"/>
<polygon fill="#666666" stroke="#666666" points="232,-1495.25 232,-1495.25 244,-1495.25 244,-1495.25 232,-1495.25"/>
<polygon fill="#666666" stroke="#666666" points="244,-1495.25 244,-1495.25 383,-1495.25 383,-1495.25 244,-1495.25"/>
<polygon fill="none" stroke="#666666" points="232,-1049.25 232,-1587.25 383,-1587.25 383,-1049.25 232,-1049.25"/>
</a>
</g>
</g>
<!-- Node3&#45;&gt;Node2 -->
<g id="edge2_Node000002_Node000003" class="edge">
<title>Node3&#45;&gt;Node2</title>
<g id="a_edge2_Node000002_Node000003"><a xlink:title=" ">
<path fill="none" stroke="#63b8ff" d="M247.89,-1038.17C242.33,-1012.18 236.66,-985.61 230.98,-959.04"/>
<polygon fill="none" stroke="#63b8ff" points="244.43,-1038.74 249.94,-1047.79 251.27,-1037.28 244.43,-1038.74"/>
</a>
</g>
</g>
<!-- Node4 -->
<g id="Node000004" class="node">
<title>Node4</title>
<g id="a_Node000004"><a xlink:href="interface_common_g_l_p_i_interface.html" target="_top" xlink:title=" ">
<polygon fill="white" stroke="none" points="362.5,-1717.25 252.5,-1717.25 252.5,-1668.25 362.5,-1668.25 362.5,-1717.25"/>
<text text-anchor="start" x="257.25" y="-1703.75" font-family="Helvetica,sans-Serif" font-size="10.00">CommonGLPIInterface</text>
<text text-anchor="start" x="306" y="-1688.75" font-family="Helvetica,sans-Serif" font-size="10.00"> </text>
<text text-anchor="start" x="265" y="-1673.75" font-family="Helvetica,sans-Serif" font-size="10.00">+</text>
<text text-anchor="start" x="283.5" y="-1673.75" font-family="Helvetica,sans-Serif" font-size="10.00">__construct()</text>
<polygon fill="#666666" stroke="#666666" points="252.5,-1700.25 252.5,-1700.25 362.5,-1700.25 362.5,-1700.25 252.5,-1700.25"/>
<polygon fill="#666666" stroke="#666666" points="252.5,-1685.25 252.5,-1685.25 362.5,-1685.25 362.5,-1685.25 252.5,-1685.25"/>
<polygon fill="none" stroke="#666666" points="252.5,-1668.25 252.5,-1717.25 362.5,-1717.25 362.5,-1668.25 252.5,-1668.25"/>
</a>
</g>
</g>
<!-- Node4&#45;&gt;Node3 -->
<g id="edge3_Node000003_Node000004" class="edge">
<title>Node4&#45;&gt;Node3</title>
<g id="a_edge3_Node000003_Node000004"><a xlink:title=" ">
<path fill="none" stroke="#63b8ff" d="M307.5,-1657.03C307.5,-1638.7 307.5,-1614.36 307.5,-1587.12"/>
<polygon fill="none" stroke="#63b8ff" points="304,-1656.93 307.5,-1666.93 311,-1656.93 304,-1656.93"/>
</a>
</g>
</g>
<!-- Node5 -->
<g id="Node000005" class="node">
<title>Node5</title>
<g id="a_Node000005"><a xlink:title=" ">
<polygon fill="white" stroke="none" points="138.5,-1717.25 104.5,-1717.25 104.5,-1668.25 138.5,-1668.25 138.5,-1717.25"/>
<text text-anchor="start" x="109.5" y="-1703.75" font-family="Helvetica,sans-Serif" font-size="10.00">static</text>
<text text-anchor="start" x="120" y="-1688.75" font-family="Helvetica,sans-Serif" font-size="10.00"> </text>
<text text-anchor="start" x="120" y="-1673.75" font-family="Helvetica,sans-Serif" font-size="10.00"> </text>
<polygon fill="#666666" stroke="#666666" points="104.5,-1700.25 104.5,-1700.25 138.5,-1700.25 138.5,-1700.25 104.5,-1700.25"/>
<polygon fill="#666666" stroke="#666666" points="104.5,-1685.25 104.5,-1685.25 138.5,-1685.25 138.5,-1685.25 104.5,-1685.25"/>
<polygon fill="none" stroke="#666666" points="104.5,-1668.25 104.5,-1717.25 138.5,-1717.25 138.5,-1668.25 104.5,-1668.25"/>
</a>
</g>
</g>
<!-- Node5&#45;&gt;Node1 -->
<g id="edge6_Node000001_Node000005" class="edge">
<title>Node5&#45;&gt;Node1</title>
<g id="a_edge6_Node000001_Node000005"><a xlink:title=" ">
<path fill="none" stroke="#63b8ff" d="M119.17,-1668.49C118.6,-1662.55 118.01,-1656.16 117.5,-1650.25 93.82,-1375.37 90.36,-1306.44 70.5,-1031.25 43.85,-661.88 47.93,-567.76 68.5,-198 68.94,-190.13 69.54,-181.98 70.25,-173.81"/>
<polygon fill="none" stroke="#63b8ff" points="70.25,-173.84 66.82,-167.49 71.35,-161.89 74.78,-168.23 70.25,-173.84"/>
</a>
</g>
<text text-anchor="middle" x="99" y="-1021.75" font-family="Helvetica,sans-Serif" font-size="10.00" fill="grey"> +$rightname</text>
</g>
<!-- Node5&#45;&gt;Node2 -->
<g id="edge5_Node000002_Node000005" class="edge">
<title>Node5&#45;&gt;Node2</title>
<g id="a_edge5_Node000002_Node000005"><a xlink:title=" ">
<path fill="none" stroke="#63b8ff" d="M121.55,-1668.4C121.77,-1584.62 123.14,-1291.2 131.25,-1049.25 131.63,-1037.81 132.05,-1026.21 132.49,-1014.5"/>
<polygon fill="none" stroke="#63b8ff" points="132.49,-1014.65 128.72,-1008.5 132.95,-1002.66 136.72,-1008.81 132.49,-1014.65"/>
</a>
</g>
<text text-anchor="start" x="130.5" y="-1359.38" font-family="Helvetica,sans-Serif" font-size="10.00" fill="grey"> #$foreign_key_fields</text>
<text text-anchor="middle" x="176.62" y="-1348.12" font-family="Helvetica,sans-Serif" font-size="10.00" fill="grey">_of</text>
<text text-anchor="start" x="130.5" y="-1336.88" font-family="Helvetica,sans-Serif" font-size="10.00" fill="grey">#$forward_entity</text>
<text text-anchor="middle" x="176.62" y="-1325.62" font-family="Helvetica,sans-Serif" font-size="10.00" fill="grey">_to</text>
<text text-anchor="middle" x="176.62" y="-1314.38" font-family="Helvetica,sans-Serif" font-size="10.00" fill="grey">#$notable</text>
<text text-anchor="start" x="130.5" y="-1303.12" font-family="Helvetica,sans-Serif" font-size="10.00" fill="grey">#$plugins_forward</text>
<text text-anchor="middle" x="176.62" y="-1291.88" font-family="Helvetica,sans-Serif" font-size="10.00" fill="grey">_entity</text>
<text text-anchor="middle" x="176.62" y="-1280.62" font-family="Helvetica,sans-Serif" font-size="10.00" fill="grey">#$tables_of</text>
<text text-anchor="middle" x="176.62" y="-1269.38" font-family="Helvetica,sans-Serif" font-size="10.00" fill="grey">+$undisclosedFields</text>
</g>
<!-- Node5&#45;&gt;Node3 -->
<g id="edge4_Node000003_Node000005" class="edge">
<title>Node5&#45;&gt;Node3</title>
<g id="a_edge4_Node000003_Node000005"><a xlink:title=" ">
<path fill="none" stroke="#63b8ff" d="M138.45,-1670.31C153.07,-1652.29 175.09,-1626.2 196.25,-1605.25 205.05,-1596.54 210.55,-1597.49 217.5,-1587.25 220.21,-1583.26 222.84,-1579.18 225.4,-1575.02"/>
<polygon fill="none" stroke="#63b8ff" points="225.44,-1574.96 225.05,-1567.76 231.54,-1564.63 231.93,-1571.83 225.44,-1574.96"/>
</a>
</g>
<text text-anchor="middle" x="249.12" y="-1640.75" font-family="Helvetica,sans-Serif" font-size="10.00" fill="grey"> #$othertabs</text>
<text text-anchor="start" x="195.5" y="-1629.5" font-family="Helvetica,sans-Serif" font-size="10.00" fill="grey">#$showTitleInNavigation</text>
<text text-anchor="middle" x="249.12" y="-1618.25" font-family="Helvetica,sans-Serif" font-size="10.00" fill="grey">Header</text>
<text text-anchor="middle" x="249.12" y="-1607" font-family="Helvetica,sans-Serif" font-size="10.00" fill="grey">+$rightname</text>
</g>
</g>
</svg>

<g id="navigator" transform="translate(0 0)" fill="#404254">
  <rect fill="#f2f5e9" fill-opacity="0.5" stroke="#606060" stroke-width=".5" x="0" y="0" width="60" height="60"/>
  <use id="zoomplus" xlink:href="#zoomPlus" x="17" y="9" onmousedown="handleZoom(evt,'in')"/>
  <use id="zoomminus" xlink:href="#zoomMin" x="42" y="9" onmousedown="handleZoom(evt,'out')"/>
  <use id="reset" xlink:href="#resetDef" x="30" y="36" onmousedown="handleReset()"/>
   <use id="arrowup" xlink:href="#arrowUp" x="0" y="0" onmousedown="handlePan(0,-1)"/>
  <use id="arrowright" xlink:href="#arrowRight" x="0" y="0" onmousedown="handlePan(1,0)"/>
  <use id="arrowdown" xlink:href="#arrowDown" x="0" y="0" onmousedown="handlePan(0,1)"/>
  <use id="arrowleft" xlink:href="#arrowLeft" x="0" y="0" onmousedown="handlePan(-1,0)"/>
</g>
<svg viewBox="0 0 15 15" width="100%" height="30px" preserveAspectRatio="xMaxYMin meet">
 <g id="arrow_out" transform="scale(0.3 0.3)">
  <a xlink:href="class_refused_equipment__coll__graph_org.svg" target="_base">
   <rect id="button" ry="5" rx="5" y="6" x="6" height="38" width="38"
        fill="#f2f5e9" fill-opacity="0.5" stroke="#606060" stroke-width="1.0"/>
   <path id="arrow"
     d="M 11.500037,31.436501 C 11.940474,20.09759 22.043105,11.32322 32.158766,21.979434 L 37.068811,17.246167 C 37.068811,17.246167 37.088388,32 37.088388,32 L 22.160133,31.978069 C 22.160133,31.978069 26.997745,27.140456 26.997745,27.140456 C 18.528582,18.264221 13.291696,25.230495 11.500037,31.436501 z"
     style="fill:#404040;"/>
  </a>
 </g>
</svg>

<style type='text/css'>
<![CDATA[
[data-mouse-over-selected='false'] { opacity: 0.7; }
[data-mouse-over-selected='true']  { opacity: 1.0; }
]]>
</style>
<script type="application/ecmascript"><![CDATA[
document.addEventListener('DOMContentLoaded', (event) => {
  highlightEdges();
  highlightAdjacentNodes();
});
]]></script>
</svg>
