<?xml version="1.0" encoding="UTF-8" standalone="no"?>
<!DOCTYPE svg PUBLIC "-//W3C//DTD SVG 1.1//EN"
 "http://www.w3.org/Graphics/SVG/1.1/DTD/svg11.dtd">
<!-- Generated by graphviz version 10.0.1 (20240210.2158)
 -->
<!-- Title: isValid Pages: 1 -->
<svg width="949pt" height="169pt"
 viewBox="0.00 0.00 948.50 169.12" xmlns="http://www.w3.org/2000/svg" xmlns:xlink="http://www.w3.org/1999/xlink">
<g id="graph0" class="graph" transform="scale(1 1) rotate(0) translate(4 165.12)">
<title>isValid</title>
<!-- Node1 -->
<g id="Node000001" class="node">
<title>Node1</title>
<g id="a_Node000001"><a xlink:title=" ">
<polygon fill="#999999" stroke="#666666" points="44.5,-84.5 0,-84.5 0,-65.25 44.5,-65.25 44.5,-84.5"/>
<text text-anchor="middle" x="22.25" y="-71" font-family="Helvetica,sans-Serif" font-size="10.00">isValid</text>
</a>
</g>
</g>
<!-- Node2 -->
<g id="Node000002" class="node">
<title>Node2</title>
<g id="a_Node000002"><a xlink:href="class_laminas_1_1_validator_1_1_abstract_validator.html#ad00772060dfcfc74d2fa6d81965d76ac" target="_top" xlink:title=" ">
<polygon fill="white" stroke="#666666" points="213.5,-112.12 80.5,-112.12 80.5,-81.62 213.5,-81.62 213.5,-112.12"/>
<text text-anchor="start" x="88.5" y="-98.62" font-family="Helvetica,sans-Serif" font-size="10.00">Laminas\Validator\Abstract</text>
<text text-anchor="middle" x="147" y="-87.38" font-family="Helvetica,sans-Serif" font-size="10.00">Validator\error</text>
</a>
</g>
</g>
<!-- Node1&#45;&gt;Node2 -->
<g id="edge1_Node000001_Node000002" class="edge">
<title>Node1&#45;&gt;Node2</title>
<g id="a_edge1_Node000001_Node000002"><a xlink:title=" ">
<path fill="none" stroke="#63b8ff" d="M44.91,-78.76C51.93,-80.02 60.16,-81.49 68.84,-83.05"/>
<polygon fill="#63b8ff" stroke="#63b8ff" points="68.08,-86.46 78.54,-84.78 69.31,-79.57 68.08,-86.46"/>
</a>
</g>
</g>
<!-- Node12 -->
<g id="Node000012" class="node">
<title>Node12</title>
<g id="a_Node000012"><a xlink:href="class_laminas_1_1_validator_1_1_uri.html#ae03e3ef2687aa3403ab64b0e70c37222" target="_top" xlink:title=" ">
<polygon fill="white" stroke="#666666" points="185,-63.5 109,-63.5 109,-44.25 185,-44.25 185,-63.5"/>
<text text-anchor="middle" x="147" y="-50" font-family="Helvetica,sans-Serif" font-size="10.00">getUriHandler</text>
</a>
</g>
</g>
<!-- Node1&#45;&gt;Node12 -->
<g id="edge11_Node000001_Node000012" class="edge">
<title>Node1&#45;&gt;Node12</title>
<g id="a_edge11_Node000001_Node000012"><a xlink:title=" ">
<path fill="none" stroke="#63b8ff" d="M44.91,-71.17C59.44,-68.68 79.16,-65.31 97.32,-62.2"/>
<polygon fill="#63b8ff" stroke="#63b8ff" points="97.91,-65.65 107.18,-60.52 96.73,-58.75 97.91,-65.65"/>
</a>
</g>
</g>
<!-- Node3 -->
<g id="Node000003" class="node">
<title>Node3</title>
<g id="a_Node000003"><a xlink:href="class_laminas_1_1_validator_1_1_abstract_validator.html#ac3779bea6cd8e92145136dc69a93e97c" target="_top" xlink:title=" ">
<polygon fill="white" stroke="#666666" points="382.5,-112.12 249.5,-112.12 249.5,-81.62 382.5,-81.62 382.5,-112.12"/>
<text text-anchor="start" x="257.5" y="-98.62" font-family="Helvetica,sans-Serif" font-size="10.00">Laminas\Validator\Abstract</text>
<text text-anchor="middle" x="316" y="-87.38" font-family="Helvetica,sans-Serif" font-size="10.00">Validator\createMessage</text>
</a>
</g>
</g>
<!-- Node2&#45;&gt;Node3 -->
<g id="edge2_Node000002_Node000003" class="edge">
<title>Node2&#45;&gt;Node3</title>
<g id="a_edge2_Node000002_Node000003"><a xlink:title=" ">
<path fill="none" stroke="#63b8ff" d="M213.52,-96.88C221.47,-96.88 229.65,-96.88 237.75,-96.88"/>
<polygon fill="#63b8ff" stroke="#63b8ff" points="237.6,-100.38 247.6,-96.88 237.6,-93.38 237.6,-100.38"/>
</a>
</g>
</g>
<!-- Node4 -->
<g id="Node000004" class="node">
<title>Node4</title>
<g id="a_Node000004"><a xlink:href="class_laminas_1_1_validator_1_1_abstract_validator.html#ae890088710eeb6bf7ece2062e08a77a2" target="_top" xlink:title=" ">
<polygon fill="white" stroke="#666666" points="557.5,-161.12 418.5,-161.12 418.5,-130.62 557.5,-130.62 557.5,-161.12"/>
<text text-anchor="start" x="426.5" y="-147.62" font-family="Helvetica,sans-Serif" font-size="10.00">Laminas\Validator\Abstract</text>
<text text-anchor="middle" x="488" y="-136.38" font-family="Helvetica,sans-Serif" font-size="10.00">Validator\getMessageLength</text>
</a>
</g>
</g>
<!-- Node3&#45;&gt;Node4 -->
<g id="edge3_Node000003_Node000004" class="edge">
<title>Node3&#45;&gt;Node4</title>
<g id="a_edge3_Node000003_Node000004"><a xlink:title=" ">
<path fill="none" stroke="#63b8ff" d="M371.26,-112.51C387.28,-117.13 404.98,-122.24 421.63,-127.03"/>
<polygon fill="#63b8ff" stroke="#63b8ff" points="420.35,-130.31 430.93,-129.71 422.29,-123.58 420.35,-130.31"/>
</a>
</g>
</g>
<!-- Node5 -->
<g id="Node000005" class="node">
<title>Node5</title>
<g id="a_Node000005"><a xlink:href="class_laminas_1_1_validator_1_1_abstract_validator.html#a3c11b3b78aaa455ec30080fc5cbd0d87" target="_top" xlink:title=" ">
<polygon fill="white" stroke="#666666" points="554.5,-112.12 421.5,-112.12 421.5,-81.62 554.5,-81.62 554.5,-112.12"/>
<text text-anchor="start" x="429.5" y="-98.62" font-family="Helvetica,sans-Serif" font-size="10.00">Laminas\Validator\Abstract</text>
<text text-anchor="middle" x="488" y="-87.38" font-family="Helvetica,sans-Serif" font-size="10.00">Validator\isValueObscured</text>
</a>
</g>
</g>
<!-- Node3&#45;&gt;Node5 -->
<g id="edge4_Node000003_Node000005" class="edge">
<title>Node3&#45;&gt;Node5</title>
<g id="a_edge4_Node000003_Node000005"><a xlink:title=" ">
<path fill="none" stroke="#63b8ff" d="M382.73,-96.88C391.6,-96.88 400.76,-96.88 409.81,-96.88"/>
<polygon fill="#63b8ff" stroke="#63b8ff" points="409.65,-100.38 419.65,-96.88 409.65,-93.38 409.65,-100.38"/>
</a>
</g>
</g>
<!-- Node6 -->
<g id="Node000006" class="node">
<title>Node6</title>
<g id="a_Node000006"><a xlink:href="class_laminas_1_1_validator_1_1_abstract_validator.html#a983ffd6d01e2a94f58fb42d7d9adc996" target="_top" xlink:title=" ">
<polygon fill="white" stroke="#666666" points="554.88,-63.12 421.12,-63.12 421.12,-32.62 554.88,-32.62 554.88,-63.12"/>
<text text-anchor="start" x="429.12" y="-49.62" font-family="Helvetica,sans-Serif" font-size="10.00">Laminas\Validator\Abstract</text>
<text text-anchor="middle" x="488" y="-38.38" font-family="Helvetica,sans-Serif" font-size="10.00">Validator\translateMessage</text>
</a>
</g>
</g>
<!-- Node3&#45;&gt;Node6 -->
<g id="edge5_Node000003_Node000006" class="edge">
<title>Node3&#45;&gt;Node6</title>
<g id="a_edge5_Node000003_Node000006"><a xlink:title=" ">
<path fill="none" stroke="#63b8ff" d="M371.26,-81.24C387.28,-76.62 404.98,-71.51 421.63,-66.72"/>
<polygon fill="#63b8ff" stroke="#63b8ff" points="422.29,-70.17 430.93,-64.04 420.35,-63.44 422.29,-70.17"/>
</a>
</g>
</g>
<!-- Node7 -->
<g id="Node000007" class="node">
<title>Node7</title>
<g id="a_Node000007"><a xlink:href="class_laminas_1_1_validator_1_1_abstract_validator.html#a4b5bf5bf92166dc1c551fe8cfabfb5ae" target="_top" xlink:title=" ">
<polygon fill="white" stroke="#666666" points="743,-90.12 610,-90.12 610,-59.62 743,-59.62 743,-90.12"/>
<text text-anchor="start" x="618" y="-76.62" font-family="Helvetica,sans-Serif" font-size="10.00">Laminas\Validator\Abstract</text>
<text text-anchor="middle" x="676.5" y="-65.38" font-family="Helvetica,sans-Serif" font-size="10.00">Validator\getTranslator</text>
</a>
</g>
</g>
<!-- Node6&#45;&gt;Node7 -->
<g id="edge6_Node000006_Node000007" class="edge">
<title>Node6&#45;&gt;Node7</title>
<g id="a_edge6_Node000006_Node000007"><a xlink:title=" ">
<path fill="none" stroke="#63b8ff" d="M555.28,-57.47C569.24,-59.49 584.08,-61.64 598.4,-63.71"/>
<polygon fill="#63b8ff" stroke="#63b8ff" points="597.85,-67.17 608.25,-65.14 598.86,-60.24 597.85,-67.17"/>
</a>
</g>
</g>
<!-- Node10 -->
<g id="Node000010" class="node">
<title>Node10</title>
<g id="a_Node000010"><a xlink:href="class_laminas_1_1_validator_1_1_abstract_validator.html#a47d24591d2313bc0d4345c8011212520" target="_top" xlink:title=" ">
<polygon fill="white" stroke="#666666" points="759.5,-39.12 593.5,-39.12 593.5,-8.62 759.5,-8.62 759.5,-39.12"/>
<text text-anchor="start" x="601.5" y="-25.62" font-family="Helvetica,sans-Serif" font-size="10.00">Laminas\Validator\Abstract</text>
<text text-anchor="middle" x="676.5" y="-14.38" font-family="Helvetica,sans-Serif" font-size="10.00">Validator\getTranslatorTextDomain</text>
</a>
</g>
</g>
<!-- Node6&#45;&gt;Node10 -->
<g id="edge9_Node000006_Node000010" class="edge">
<title>Node6&#45;&gt;Node10</title>
<g id="a_edge9_Node000006_Node000010"><a xlink:title=" ">
<path fill="none" stroke="#63b8ff" d="M555.28,-39.35C563.89,-38.24 572.84,-37.09 581.79,-35.93"/>
<polygon fill="#63b8ff" stroke="#63b8ff" points="582.14,-39.42 591.61,-34.67 581.25,-32.48 582.14,-39.42"/>
</a>
</g>
</g>
<!-- Node8 -->
<g id="Node000008" class="node">
<title>Node8</title>
<g id="a_Node000008"><a xlink:href="class_laminas_1_1_validator_1_1_abstract_validator.html#ad9e19a52e9744e0d32b8c786b2f51a45" target="_top" xlink:title=" ">
<polygon fill="white" stroke="#666666" points="940.5,-139.12 795.5,-139.12 795.5,-108.62 940.5,-108.62 940.5,-139.12"/>
<text text-anchor="start" x="803.5" y="-125.62" font-family="Helvetica,sans-Serif" font-size="10.00">Laminas\Validator\Abstract</text>
<text text-anchor="middle" x="868" y="-114.38" font-family="Helvetica,sans-Serif" font-size="10.00">Validator\getDefaultTranslator</text>
</a>
</g>
</g>
<!-- Node7&#45;&gt;Node8 -->
<g id="edge7_Node000007_Node000008" class="edge">
<title>Node7&#45;&gt;Node8</title>
<g id="a_edge7_Node000007_Node000008"><a xlink:title=" ">
<path fill="none" stroke="#63b8ff" d="M738.24,-90.58C756.43,-95.28 776.55,-100.49 795.37,-105.35"/>
<polygon fill="#63b8ff" stroke="#63b8ff" points="794.25,-108.68 804.81,-107.79 796.01,-101.9 794.25,-108.68"/>
</a>
</g>
</g>
<!-- Node9 -->
<g id="Node000009" class="node">
<title>Node9</title>
<g id="a_Node000009"><a xlink:href="class_laminas_1_1_validator_1_1_abstract_validator.html#a90d8b01a6a86b5679b0575fc765e1e28" target="_top" xlink:title=" ">
<polygon fill="white" stroke="#666666" points="939.38,-90.12 796.62,-90.12 796.62,-59.62 939.38,-59.62 939.38,-90.12"/>
<text text-anchor="start" x="804.62" y="-76.62" font-family="Helvetica,sans-Serif" font-size="10.00">Laminas\Validator\Abstract</text>
<text text-anchor="middle" x="868" y="-65.38" font-family="Helvetica,sans-Serif" font-size="10.00">Validator\isTranslatorEnabled</text>
</a>
</g>
</g>
<!-- Node7&#45;&gt;Node9 -->
<g id="edge8_Node000007_Node000009" class="edge">
<title>Node7&#45;&gt;Node9</title>
<g id="a_edge8_Node000007_Node000009"><a xlink:title=" ">
<path fill="none" stroke="#63b8ff" d="M743.25,-74.88C756.74,-74.88 771.11,-74.88 785.09,-74.88"/>
<polygon fill="#63b8ff" stroke="#63b8ff" points="784.69,-78.38 794.69,-74.88 784.69,-71.38 784.69,-78.38"/>
</a>
</g>
</g>
<!-- Node11 -->
<g id="Node000011" class="node">
<title>Node11</title>
<g id="a_Node000011"><a xlink:href="class_laminas_1_1_validator_1_1_abstract_validator.html#a9bccf73b25f0d40f3e6becfa7264189a" target="_top" xlink:title=" ">
<polygon fill="white" stroke="#666666" points="940.5,-41.75 795.5,-41.75 795.5,0 940.5,0 940.5,-41.75"/>
<text text-anchor="start" x="803.5" y="-28.25" font-family="Helvetica,sans-Serif" font-size="10.00">Laminas\Validator\Abstract</text>
<text text-anchor="start" x="803.5" y="-17" font-family="Helvetica,sans-Serif" font-size="10.00">Validator\getDefaultTranslator</text>
<text text-anchor="middle" x="868" y="-5.75" font-family="Helvetica,sans-Serif" font-size="10.00">TextDomain</text>
</a>
</g>
</g>
<!-- Node10&#45;&gt;Node11 -->
<g id="edge10_Node000010_Node000011" class="edge">
<title>Node10&#45;&gt;Node11</title>
<g id="a_edge10_Node000010_Node000011"><a xlink:title=" ">
<path fill="none" stroke="#63b8ff" d="M759.79,-22.57C767.8,-22.45 775.93,-22.32 783.95,-22.19"/>
<polygon fill="#63b8ff" stroke="#63b8ff" points="783.73,-25.69 793.67,-22.04 783.62,-18.69 783.73,-25.69"/>
</a>
</g>
</g>
</g>
</svg>
