<?xml version="1.0" encoding="UTF-8" standalone="no"?>
<!DOCTYPE svg PUBLIC "-//W3C//DTD SVG 1.1//EN"
 "http://www.w3.org/Graphics/SVG/1.1/DTD/svg11.dtd">
<!-- Generated by graphviz version 10.0.1 (20240210.2158)
 -->
<!-- Title: Csrf Pages: 1 -->
<!--zoomable 1335 -->

<svg id="main" version="1.1" xmlns="http://www.w3.org/2000/svg" xmlns:xlink="http://www.w3.org/1999/xlink" xml:space="preserve" onload="init(evt)">
<style type="text/css"><![CDATA[
.node, .edge {opacity: 0.7;}
.node.selected, .edge.selected {opacity: 1;}
.edge:hover path { stroke: red; }
.edge:hover polygon { stroke: red; fill: red; }
]]></style>

<defs>
  <circle id="rim" cx="0" cy="0" r="7"/>
  <circle id="rim2" cx="0" cy="0" r="3.5"/>
  <g id="zoomPlus">
    <use xlink:href="#rim" fill="#404040"><set attributeName="fill" to="#808080" begin="zoomplus.mouseover" end="zoomplus.mouseout"/></use>
    <path d="M-4,0h8M0,-4v8" fill="none" stroke="white" stroke-width="1.5" pointer-events="none"/>
  </g>
  <g id="zoomMin">
    <use xlink:href="#rim" fill="#404040"><set attributeName="fill" to="#808080" begin="zoomminus.mouseover" end="zoomminus.mouseout"/></use>
    <path d="M-4,0h8" fill="none" stroke="white" stroke-width="1.5" pointer-events="none"/>
  </g>
  <g id="arrowUp" transform="translate(30 24)">
    <use xlink:href="#rim"/>
    <path pointer-events="none" fill="none" stroke="white" stroke-width="1.5" d="M0,-3.0v7 M-2.5,-0.5L0,-3.0L2.5,-0.5"/>
  </g>
  <g id="arrowRight" transform="rotate(90) translate(36 -43)">
    <use xlink:href="#rim"/>
    <path pointer-events="none" fill="none" stroke="white" stroke-width="1.5" d="M0,-3.0v7 M-2.5,-0.5L0,-3.0L2.5,-0.5"/>
  </g>
  <g id="arrowDown" transform="rotate(180) translate(-30 -48)">
    <use xlink:href="#rim"/>
    <path pointer-events="none" fill="none" stroke="white" stroke-width="1.5" d="M0,-3.0v7 M-2.5,-0.5L0,-3.0L2.5,-0.5"/>
  </g>
  <g id="arrowLeft" transform="rotate(270) translate(-36 17)">
    <use xlink:href="#rim"/>
    <path pointer-events="none" fill="none" stroke="white" stroke-width="1.5" d="M0,-3.0v7 M-2.5,-0.5L0,-3.0L2.5,-0.5"/>
  </g>
  <g id="resetDef">
    <use xlink:href="#rim2" fill="#404040"><set attributeName="fill" to="#808080" begin="reset.mouseover" end="reset.mouseout"/></use>
  </g>
</defs>
<script type="application/ecmascript">
var viewWidth = 244;
var viewHeight = 1335;
var sectionId = 'dynsection-0';
</script>
<script type="application/ecmascript" xlink:href="svg.min.js"/>
<svg id="graph" class="graph">
<g id="viewport">
<title>Csrf</title>
<!-- Node1 -->
<g id="Node000001" class="node">
<title>Node1</title>
<g id="a_Node000001"><a xlink:title=" ">
<polygon fill="#999999" stroke="none" points="203,-501 56,-501 56,0 203,0 203,-501"/>
<text text-anchor="start" x="120.12" y="-487.5" font-family="Helvetica,sans-Serif" font-size="10.00">Csrf</text>
<text text-anchor="start" x="60" y="-472.5" font-family="Helvetica,sans-Serif" font-size="10.00">+</text>
<text text-anchor="start" x="70" y="-472.5" font-family="Helvetica,sans-Serif" font-size="10.00">const NOT_SAME</text>
<text text-anchor="start" x="60.38" y="-457.5" font-family="Helvetica,sans-Serif" font-size="10.00">#</text>
<text text-anchor="start" x="70" y="-457.5" font-family="Helvetica,sans-Serif" font-size="10.00">$messageTemplates</text>
<text text-anchor="start" x="60.38" y="-442.5" font-family="Helvetica,sans-Serif" font-size="10.00">#</text>
<text text-anchor="start" x="70" y="-442.5" font-family="Helvetica,sans-Serif" font-size="10.00">$hash</text>
<text text-anchor="start" x="60.38" y="-427.5" font-family="Helvetica,sans-Serif" font-size="10.00">#</text>
<text text-anchor="start" x="70" y="-427.5" font-family="Helvetica,sans-Serif" font-size="10.00">$name</text>
<text text-anchor="start" x="60.38" y="-412.5" font-family="Helvetica,sans-Serif" font-size="10.00">#</text>
<text text-anchor="start" x="70" y="-412.5" font-family="Helvetica,sans-Serif" font-size="10.00">$salt</text>
<text text-anchor="start" x="60.38" y="-397.5" font-family="Helvetica,sans-Serif" font-size="10.00">#</text>
<text text-anchor="start" x="70" y="-397.5" font-family="Helvetica,sans-Serif" font-size="10.00">$session</text>
<text text-anchor="start" x="60.38" y="-382.5" font-family="Helvetica,sans-Serif" font-size="10.00">#</text>
<text text-anchor="start" x="70" y="-382.5" font-family="Helvetica,sans-Serif" font-size="10.00">$timeout</text>
<text text-anchor="start" x="60.38" y="-367.5" font-family="Helvetica,sans-Serif" font-size="10.00">#</text>
<text text-anchor="start" x="70" y="-367.5" font-family="Helvetica,sans-Serif" font-size="10.00">static $hashCache</text>
<text text-anchor="start" x="60" y="-352.5" font-family="Helvetica,sans-Serif" font-size="10.00">+</text>
<text text-anchor="start" x="70" y="-352.5" font-family="Helvetica,sans-Serif" font-size="10.00">__construct($options=[])</text>
<text text-anchor="start" x="60" y="-337.5" font-family="Helvetica,sans-Serif" font-size="10.00">+</text>
<text text-anchor="start" x="70" y="-337.5" font-family="Helvetica,sans-Serif" font-size="10.00">isValid($value, $context</text>
<text text-anchor="start" x="70" y="-326.25" font-family="Helvetica,sans-Serif" font-size="10.00">=null)</text>
<text text-anchor="start" x="60" y="-311.5" font-family="Helvetica,sans-Serif" font-size="10.00">+</text>
<text text-anchor="start" x="70" y="-311.5" font-family="Helvetica,sans-Serif" font-size="10.00">setName($name)</text>
<text text-anchor="start" x="60" y="-296.5" font-family="Helvetica,sans-Serif" font-size="10.00">+</text>
<text text-anchor="start" x="70" y="-296.5" font-family="Helvetica,sans-Serif" font-size="10.00">getName()</text>
<text text-anchor="start" x="60" y="-281.5" font-family="Helvetica,sans-Serif" font-size="10.00">+</text>
<text text-anchor="start" x="70" y="-281.5" font-family="Helvetica,sans-Serif" font-size="10.00">setSession(SessionContainer</text>
<text text-anchor="start" x="70" y="-270.25" font-family="Helvetica,sans-Serif" font-size="10.00"> $session)</text>
<text text-anchor="start" x="60" y="-255.5" font-family="Helvetica,sans-Serif" font-size="10.00">+</text>
<text text-anchor="start" x="70" y="-255.5" font-family="Helvetica,sans-Serif" font-size="10.00">getSession()</text>
<text text-anchor="start" x="60" y="-240.5" font-family="Helvetica,sans-Serif" font-size="10.00">+</text>
<text text-anchor="start" x="70" y="-240.5" font-family="Helvetica,sans-Serif" font-size="10.00">setSalt($salt)</text>
<text text-anchor="start" x="60" y="-225.5" font-family="Helvetica,sans-Serif" font-size="10.00">+</text>
<text text-anchor="start" x="70" y="-225.5" font-family="Helvetica,sans-Serif" font-size="10.00">getSalt()</text>
<text text-anchor="start" x="60" y="-210.5" font-family="Helvetica,sans-Serif" font-size="10.00">+</text>
<text text-anchor="start" x="70" y="-210.5" font-family="Helvetica,sans-Serif" font-size="10.00">getHash($regenerate</text>
<text text-anchor="start" x="70" y="-199.25" font-family="Helvetica,sans-Serif" font-size="10.00">=false)</text>
<text text-anchor="start" x="60" y="-184.5" font-family="Helvetica,sans-Serif" font-size="10.00">+</text>
<text text-anchor="start" x="70" y="-184.5" font-family="Helvetica,sans-Serif" font-size="10.00">getSessionName()</text>
<text text-anchor="start" x="60" y="-169.5" font-family="Helvetica,sans-Serif" font-size="10.00">+</text>
<text text-anchor="start" x="70" y="-169.5" font-family="Helvetica,sans-Serif" font-size="10.00">setTimeout($ttl)</text>
<text text-anchor="start" x="60" y="-154.5" font-family="Helvetica,sans-Serif" font-size="10.00">+</text>
<text text-anchor="start" x="70" y="-154.5" font-family="Helvetica,sans-Serif" font-size="10.00">getTimeout()</text>
<text text-anchor="start" x="60.38" y="-139.5" font-family="Helvetica,sans-Serif" font-size="10.00">#</text>
<text text-anchor="start" x="70" y="-139.5" font-family="Helvetica,sans-Serif" font-size="10.00">initCsrfToken()</text>
<text text-anchor="start" x="60.38" y="-124.5" font-family="Helvetica,sans-Serif" font-size="10.00">#</text>
<text text-anchor="start" x="70" y="-124.5" font-family="Helvetica,sans-Serif" font-size="10.00">generateHash()</text>
<text text-anchor="start" x="60.38" y="-109.5" font-family="Helvetica,sans-Serif" font-size="10.00">#</text>
<text text-anchor="start" x="70" y="-109.5" font-family="Helvetica,sans-Serif" font-size="10.00">generateTokenId()</text>
<text text-anchor="start" x="60.38" y="-94.5" font-family="Helvetica,sans-Serif" font-size="10.00">#</text>
<text text-anchor="start" x="70" y="-94.5" font-family="Helvetica,sans-Serif" font-size="10.00">getValidationToken</text>
<text text-anchor="start" x="70" y="-83.25" font-family="Helvetica,sans-Serif" font-size="10.00">($tokenId=null)</text>
<text text-anchor="start" x="60.38" y="-68.5" font-family="Helvetica,sans-Serif" font-size="10.00">#</text>
<text text-anchor="start" x="70" y="-68.5" font-family="Helvetica,sans-Serif" font-size="10.00">formatHash(string</text>
<text text-anchor="start" x="70" y="-57.25" font-family="Helvetica,sans-Serif" font-size="10.00"> $token, string $tokenId)</text>
<text text-anchor="start" x="60.38" y="-42.5" font-family="Helvetica,sans-Serif" font-size="10.00">#</text>
<text text-anchor="start" x="70" y="-42.5" font-family="Helvetica,sans-Serif" font-size="10.00">getTokenFromHash(</text>
<text text-anchor="start" x="70" y="-31.25" font-family="Helvetica,sans-Serif" font-size="10.00">?string $hash)</text>
<text text-anchor="start" x="60.38" y="-16.5" font-family="Helvetica,sans-Serif" font-size="10.00">#</text>
<text text-anchor="start" x="70" y="-16.5" font-family="Helvetica,sans-Serif" font-size="10.00">getTokenIdFromHash</text>
<text text-anchor="start" x="70" y="-5.25" font-family="Helvetica,sans-Serif" font-size="10.00">(string $hash)</text>
<polygon fill="#666666" stroke="#666666" points="56,-484 56,-484 203,-484 203,-484 56,-484"/>
<polygon fill="#666666" stroke="#666666" points="56,-364 56,-364 68,-364 68,-364 56,-364"/>
<polygon fill="#666666" stroke="#666666" points="68,-364 68,-364 203,-364 203,-364 68,-364"/>
<polygon fill="none" stroke="#666666" points="56,0 56,-501 203,-501 203,0 56,0"/>
</a>
</g>
</g>
<!-- Node2 -->
<g id="Node000002" class="node">
<title>Node2</title>
<g id="a_Node000002"><a xlink:href="class_laminas_1_1_validator_1_1_abstract_validator.html" target="_top" xlink:title=" ">
<polygon fill="white" stroke="none" points="216,-1108 43,-1108 43,-537 216,-537 216,-1108"/>
<text text-anchor="start" x="92.38" y="-1094.5" font-family="Helvetica,sans-Serif" font-size="10.00">AbstractValidator</text>
<text text-anchor="start" x="47.38" y="-1079.5" font-family="Helvetica,sans-Serif" font-size="10.00">#</text>
<text text-anchor="start" x="57" y="-1079.5" font-family="Helvetica,sans-Serif" font-size="10.00">$value</text>
<text text-anchor="start" x="47.38" y="-1064.5" font-family="Helvetica,sans-Serif" font-size="10.00">#</text>
<text text-anchor="start" x="57" y="-1064.5" font-family="Helvetica,sans-Serif" font-size="10.00">$abstractOptions</text>
<text text-anchor="start" x="47.38" y="-1049.5" font-family="Helvetica,sans-Serif" font-size="10.00">#</text>
<text text-anchor="start" x="57" y="-1049.5" font-family="Helvetica,sans-Serif" font-size="10.00">static $defaultTranslator</text>
<text text-anchor="start" x="47.38" y="-1034.5" font-family="Helvetica,sans-Serif" font-size="10.00">#</text>
<text text-anchor="start" x="57" y="-1034.5" font-family="Helvetica,sans-Serif" font-size="10.00">static $defaultTranslator</text>
<text text-anchor="start" x="57" y="-1023.25" font-family="Helvetica,sans-Serif" font-size="10.00">TextDomain</text>
<text text-anchor="start" x="47.38" y="-1008.5" font-family="Helvetica,sans-Serif" font-size="10.00">#</text>
<text text-anchor="start" x="57" y="-1008.5" font-family="Helvetica,sans-Serif" font-size="10.00">static $messageLength</text>
<text text-anchor="start" x="47" y="-993.5" font-family="Helvetica,sans-Serif" font-size="10.00">+</text>
<text text-anchor="start" x="57" y="-993.5" font-family="Helvetica,sans-Serif" font-size="10.00">__construct($options</text>
<text text-anchor="start" x="57" y="-982.25" font-family="Helvetica,sans-Serif" font-size="10.00">=null)</text>
<text text-anchor="start" x="47" y="-967.5" font-family="Helvetica,sans-Serif" font-size="10.00">+</text>
<text text-anchor="start" x="57" y="-967.5" font-family="Helvetica,sans-Serif" font-size="10.00">getOption($option)</text>
<text text-anchor="start" x="47" y="-952.5" font-family="Helvetica,sans-Serif" font-size="10.00">+</text>
<text text-anchor="start" x="57" y="-952.5" font-family="Helvetica,sans-Serif" font-size="10.00">getOptions()</text>
<text text-anchor="start" x="47" y="-937.5" font-family="Helvetica,sans-Serif" font-size="10.00">+</text>
<text text-anchor="start" x="57" y="-937.5" font-family="Helvetica,sans-Serif" font-size="10.00">setOptions($options=[])</text>
<text text-anchor="start" x="47" y="-922.5" font-family="Helvetica,sans-Serif" font-size="10.00">+</text>
<text text-anchor="start" x="57" y="-922.5" font-family="Helvetica,sans-Serif" font-size="10.00">getMessages()</text>
<text text-anchor="start" x="47" y="-907.5" font-family="Helvetica,sans-Serif" font-size="10.00">+</text>
<text text-anchor="start" x="57" y="-907.5" font-family="Helvetica,sans-Serif" font-size="10.00">__invoke($value)</text>
<text text-anchor="start" x="47" y="-892.5" font-family="Helvetica,sans-Serif" font-size="10.00">+</text>
<text text-anchor="start" x="57" y="-892.5" font-family="Helvetica,sans-Serif" font-size="10.00">getMessageVariables()</text>
<text text-anchor="start" x="47" y="-877.5" font-family="Helvetica,sans-Serif" font-size="10.00">+</text>
<text text-anchor="start" x="57" y="-877.5" font-family="Helvetica,sans-Serif" font-size="10.00">getMessageTemplates()</text>
<text text-anchor="start" x="47" y="-862.5" font-family="Helvetica,sans-Serif" font-size="10.00">+</text>
<text text-anchor="start" x="57" y="-862.5" font-family="Helvetica,sans-Serif" font-size="10.00">setMessage($messageString,</text>
<text text-anchor="start" x="57" y="-851.25" font-family="Helvetica,sans-Serif" font-size="10.00"> $messageKey=null)</text>
<text text-anchor="start" x="47" y="-836.5" font-family="Helvetica,sans-Serif" font-size="10.00">+</text>
<text text-anchor="start" x="57" y="-836.5" font-family="Helvetica,sans-Serif" font-size="10.00">setMessages(array</text>
<text text-anchor="start" x="57" y="-825.25" font-family="Helvetica,sans-Serif" font-size="10.00"> $messages)</text>
<text text-anchor="start" x="57" y="-810.5" font-family="Helvetica,sans-Serif" font-size="10.00">et 10 de plus...</text>
<text text-anchor="start" x="47" y="-795.5" font-family="Helvetica,sans-Serif" font-size="10.00">+</text>
<text text-anchor="start" x="57" y="-795.5" font-family="Helvetica,sans-Serif" font-size="10.00">static setDefaultTranslator</text>
<text text-anchor="start" x="57" y="-784.25" font-family="Helvetica,sans-Serif" font-size="10.00">(?Translator\TranslatorInterface</text>
<text text-anchor="start" x="57" y="-773" font-family="Helvetica,sans-Serif" font-size="10.00"> $translator=null, $textDomain=null)</text>
<text text-anchor="start" x="47" y="-758.5" font-family="Helvetica,sans-Serif" font-size="10.00">+</text>
<text text-anchor="start" x="57" y="-758.5" font-family="Helvetica,sans-Serif" font-size="10.00">static getDefaultTranslator()</text>
<text text-anchor="start" x="47" y="-743.5" font-family="Helvetica,sans-Serif" font-size="10.00">+</text>
<text text-anchor="start" x="57" y="-743.5" font-family="Helvetica,sans-Serif" font-size="10.00">static hasDefaultTranslator()</text>
<text text-anchor="start" x="47" y="-728.5" font-family="Helvetica,sans-Serif" font-size="10.00">+</text>
<text text-anchor="start" x="57" y="-728.5" font-family="Helvetica,sans-Serif" font-size="10.00">static setDefaultTranslator</text>
<text text-anchor="start" x="57" y="-717.25" font-family="Helvetica,sans-Serif" font-size="10.00">TextDomain($textDomain=&#39;default&#39;)</text>
<text text-anchor="start" x="47" y="-702.5" font-family="Helvetica,sans-Serif" font-size="10.00">+</text>
<text text-anchor="start" x="57" y="-702.5" font-family="Helvetica,sans-Serif" font-size="10.00">static getDefaultTranslator</text>
<text text-anchor="start" x="57" y="-691.25" font-family="Helvetica,sans-Serif" font-size="10.00">TextDomain()</text>
<text text-anchor="start" x="47" y="-676.5" font-family="Helvetica,sans-Serif" font-size="10.00">+</text>
<text text-anchor="start" x="57" y="-676.5" font-family="Helvetica,sans-Serif" font-size="10.00">static getMessageLength()</text>
<text text-anchor="start" x="47" y="-661.5" font-family="Helvetica,sans-Serif" font-size="10.00">+</text>
<text text-anchor="start" x="57" y="-661.5" font-family="Helvetica,sans-Serif" font-size="10.00">static setMessageLength</text>
<text text-anchor="start" x="57" y="-650.25" font-family="Helvetica,sans-Serif" font-size="10.00">($length=&#45;1)</text>
<text text-anchor="start" x="47.38" y="-635.5" font-family="Helvetica,sans-Serif" font-size="10.00">#</text>
<text text-anchor="start" x="57" y="-635.5" font-family="Helvetica,sans-Serif" font-size="10.00">createMessage($messageKey,</text>
<text text-anchor="start" x="57" y="-624.25" font-family="Helvetica,sans-Serif" font-size="10.00"> $value)</text>
<text text-anchor="start" x="47.38" y="-609.5" font-family="Helvetica,sans-Serif" font-size="10.00">#</text>
<text text-anchor="start" x="57" y="-609.5" font-family="Helvetica,sans-Serif" font-size="10.00">error($messageKey,</text>
<text text-anchor="start" x="57" y="-598.25" font-family="Helvetica,sans-Serif" font-size="10.00"> $value=null)</text>
<text text-anchor="start" x="47.38" y="-583.5" font-family="Helvetica,sans-Serif" font-size="10.00">#</text>
<text text-anchor="start" x="57" y="-583.5" font-family="Helvetica,sans-Serif" font-size="10.00">getValue()</text>
<text text-anchor="start" x="47.38" y="-568.5" font-family="Helvetica,sans-Serif" font-size="10.00">#</text>
<text text-anchor="start" x="57" y="-568.5" font-family="Helvetica,sans-Serif" font-size="10.00">setValue($value)</text>
<text text-anchor="start" x="47.38" y="-553.5" font-family="Helvetica,sans-Serif" font-size="10.00">#</text>
<text text-anchor="start" x="57" y="-553.5" font-family="Helvetica,sans-Serif" font-size="10.00">translateMessage(</text>
<text text-anchor="start" x="57" y="-542.25" font-family="Helvetica,sans-Serif" font-size="10.00">$messageKey, $message)</text>
<polygon fill="#666666" stroke="#666666" points="43,-1091 43,-1091 216,-1091 216,-1091 43,-1091"/>
<polygon fill="#666666" stroke="#666666" points="43,-1005 43,-1005 55,-1005 55,-1005 43,-1005"/>
<polygon fill="#666666" stroke="#666666" points="55,-1005 55,-1005 216,-1005 216,-1005 55,-1005"/>
<polygon fill="none" stroke="#666666" points="43,-537 43,-1108 216,-1108 216,-537 43,-537"/>
</a>
</g>
</g>
<!-- Node2&#45;&gt;Node1 -->
<g id="edge1_Node000001_Node000002" class="edge">
<title>Node2&#45;&gt;Node1</title>
<g id="a_edge1_Node000001_Node000002"><a xlink:title=" ">
<path fill="none" stroke="#63b8ff" d="M129.5,-525.83C129.5,-517.4 129.5,-508.99 129.5,-500.61"/>
<polygon fill="none" stroke="#63b8ff" points="126,-525.82 129.5,-535.82 133,-525.82 126,-525.82"/>
</a>
</g>
</g>
<!-- Node3 -->
<g id="Node000003" class="node">
<title>Node3</title>
<g id="a_Node000003"><a xlink:href="interface_laminas_1_1_validator_1_1_translator_1_1_translator_aware_interface.html" target="_top" xlink:title=" ">
<polygon fill="white" stroke="none" points="133,-1327 0,-1327 0,-1144 133,-1144 133,-1327"/>
<text text-anchor="start" x="11.75" y="-1313.5" font-family="Helvetica,sans-Serif" font-size="10.00">TranslatorAwareInterface</text>
<text text-anchor="start" x="65" y="-1298.5" font-family="Helvetica,sans-Serif" font-size="10.00"> </text>
<text text-anchor="start" x="4" y="-1283.5" font-family="Helvetica,sans-Serif" font-size="10.00">+</text>
<text text-anchor="start" x="14" y="-1283.5" font-family="Helvetica,sans-Serif" font-size="10.00">setTranslator(?Translator</text>
<text text-anchor="start" x="14" y="-1272.25" font-family="Helvetica,sans-Serif" font-size="10.00">Interface $translator=null,</text>
<text text-anchor="start" x="14" y="-1261" font-family="Helvetica,sans-Serif" font-size="10.00"> $textDomain=null)</text>
<text text-anchor="start" x="4" y="-1246.5" font-family="Helvetica,sans-Serif" font-size="10.00">+</text>
<text text-anchor="start" x="14" y="-1246.5" font-family="Helvetica,sans-Serif" font-size="10.00">getTranslator()</text>
<text text-anchor="start" x="4" y="-1231.5" font-family="Helvetica,sans-Serif" font-size="10.00">+</text>
<text text-anchor="start" x="14" y="-1231.5" font-family="Helvetica,sans-Serif" font-size="10.00">hasTranslator()</text>
<text text-anchor="start" x="4" y="-1216.5" font-family="Helvetica,sans-Serif" font-size="10.00">+</text>
<text text-anchor="start" x="14" y="-1216.5" font-family="Helvetica,sans-Serif" font-size="10.00">setTranslatorEnabled</text>
<text text-anchor="start" x="14" y="-1205.25" font-family="Helvetica,sans-Serif" font-size="10.00">($enabled=true)</text>
<text text-anchor="start" x="4" y="-1190.5" font-family="Helvetica,sans-Serif" font-size="10.00">+</text>
<text text-anchor="start" x="14" y="-1190.5" font-family="Helvetica,sans-Serif" font-size="10.00">isTranslatorEnabled()</text>
<text text-anchor="start" x="4" y="-1175.5" font-family="Helvetica,sans-Serif" font-size="10.00">+</text>
<text text-anchor="start" x="14" y="-1175.5" font-family="Helvetica,sans-Serif" font-size="10.00">setTranslatorTextDomain</text>
<text text-anchor="start" x="14" y="-1164.25" font-family="Helvetica,sans-Serif" font-size="10.00">($textDomain=&#39;default&#39;)</text>
<text text-anchor="start" x="4" y="-1149.5" font-family="Helvetica,sans-Serif" font-size="10.00">+</text>
<text text-anchor="start" x="14" y="-1149.5" font-family="Helvetica,sans-Serif" font-size="10.00">getTranslatorTextDomain()</text>
<polygon fill="#666666" stroke="#666666" points="0,-1310 0,-1310 133,-1310 133,-1310 0,-1310"/>
<polygon fill="#666666" stroke="#666666" points="0,-1295 0,-1295 133,-1295 133,-1295 0,-1295"/>
<polygon fill="none" stroke="#666666" points="0,-1144 0,-1327 133,-1327 133,-1144 0,-1144"/>
</a>
</g>
</g>
<!-- Node3&#45;&gt;Node2 -->
<g id="edge2_Node000002_Node000003" class="edge">
<title>Node3&#45;&gt;Node2</title>
<g id="a_edge2_Node000002_Node000003"><a xlink:title=" ">
<path fill="none" stroke="#63b8ff" d="M82.09,-1132.83C83.32,-1124.74 84.61,-1116.37 85.92,-1107.78"/>
<polygon fill="none" stroke="#63b8ff" points="78.65,-1132.14 80.59,-1142.55 85.57,-1133.2 78.65,-1132.14"/>
</a>
</g>
</g>
<!-- Node4 -->
<g id="Node000004" class="node">
<title>Node4</title>
<g id="a_Node000004"><a xlink:href="interface_laminas_1_1_validator_1_1_validator_interface.html" target="_top" xlink:title=" ">
<polygon fill="white" stroke="none" points="236,-1267.5 151,-1267.5 151,-1203.5 236,-1203.5 236,-1267.5"/>
<text text-anchor="start" x="155.62" y="-1254" font-family="Helvetica,sans-Serif" font-size="10.00">ValidatorInterface</text>
<text text-anchor="start" x="192" y="-1239" font-family="Helvetica,sans-Serif" font-size="10.00"> </text>
<text text-anchor="start" x="155.5" y="-1224" font-family="Helvetica,sans-Serif" font-size="10.00">+</text>
<text text-anchor="start" x="166" y="-1224" font-family="Helvetica,sans-Serif" font-size="10.00">isValid($value)</text>
<text text-anchor="start" x="155.5" y="-1209" font-family="Helvetica,sans-Serif" font-size="10.00">+</text>
<text text-anchor="start" x="166" y="-1209" font-family="Helvetica,sans-Serif" font-size="10.00">getMessages()</text>
<polygon fill="#666666" stroke="#666666" points="151,-1250.5 151,-1250.5 236,-1250.5 236,-1250.5 151,-1250.5"/>
<polygon fill="#666666" stroke="#666666" points="151,-1235.5 151,-1235.5 236,-1235.5 236,-1235.5 151,-1235.5"/>
<polygon fill="none" stroke="#666666" points="151,-1203.5 151,-1267.5 236,-1267.5 236,-1203.5 151,-1203.5"/>
</a>
</g>
</g>
<!-- Node4&#45;&gt;Node2 -->
<g id="edge3_Node000002_Node000004" class="edge">
<title>Node4&#45;&gt;Node2</title>
<g id="a_edge3_Node000002_Node000004"><a xlink:title=" ">
<path fill="none" stroke="#63b8ff" d="M186.93,-1192.28C183.45,-1169.93 178.84,-1140.35 173.75,-1107.64"/>
<polygon fill="none" stroke="#63b8ff" points="183.46,-1192.77 188.46,-1202.11 190.38,-1191.69 183.46,-1192.77"/>
</a>
</g>
</g>
</g>
</svg>

<g id="navigator" transform="translate(0 0)" fill="#404254">
  <rect fill="#f2f5e9" fill-opacity="0.5" stroke="#606060" stroke-width=".5" x="0" y="0" width="60" height="60"/>
  <use id="zoomplus" xlink:href="#zoomPlus" x="17" y="9" onmousedown="handleZoom(evt,'in')"/>
  <use id="zoomminus" xlink:href="#zoomMin" x="42" y="9" onmousedown="handleZoom(evt,'out')"/>
  <use id="reset" xlink:href="#resetDef" x="30" y="36" onmousedown="handleReset()"/>
   <use id="arrowup" xlink:href="#arrowUp" x="0" y="0" onmousedown="handlePan(0,-1)"/>
  <use id="arrowright" xlink:href="#arrowRight" x="0" y="0" onmousedown="handlePan(1,0)"/>
  <use id="arrowdown" xlink:href="#arrowDown" x="0" y="0" onmousedown="handlePan(0,1)"/>
  <use id="arrowleft" xlink:href="#arrowLeft" x="0" y="0" onmousedown="handlePan(-1,0)"/>
</g>
<svg viewBox="0 0 15 15" width="100%" height="30px" preserveAspectRatio="xMaxYMin meet">
 <g id="arrow_out" transform="scale(0.3 0.3)">
  <a xlink:href="class_laminas_1_1_validator_1_1_csrf__inherit__graph_org.svg" target="_base">
   <rect id="button" ry="5" rx="5" y="6" x="6" height="38" width="38"
        fill="#f2f5e9" fill-opacity="0.5" stroke="#606060" stroke-width="1.0"/>
   <path id="arrow"
     d="M 11.500037,31.436501 C 11.940474,20.09759 22.043105,11.32322 32.158766,21.979434 L 37.068811,17.246167 C 37.068811,17.246167 37.088388,32 37.088388,32 L 22.160133,31.978069 C 22.160133,31.978069 26.997745,27.140456 26.997745,27.140456 C 18.528582,18.264221 13.291696,25.230495 11.500037,31.436501 z"
     style="fill:#404040;"/>
  </a>
 </g>
</svg>

<style type='text/css'>
<![CDATA[
[data-mouse-over-selected='false'] { opacity: 0.7; }
[data-mouse-over-selected='true']  { opacity: 1.0; }
]]>
</style>
<script type="application/ecmascript"><![CDATA[
document.addEventListener('DOMContentLoaded', (event) => {
  highlightEdges();
  highlightAdjacentNodes();
});
]]></script>
</svg>
