<?xml version="1.0" encoding="UTF-8" standalone="no"?>
<!DOCTYPE svg PUBLIC "-//W3C//DTD SVG 1.1//EN"
 "http://www.w3.org/Graphics/SVG/1.1/DTD/svg11.dtd">
<!-- Generated by graphviz version 10.0.1 (20240210.2158)
 -->
<!-- Title: returnResponse Pages: 1 -->
<!--zoomable 518 -->

<svg id="main" version="1.1" xmlns="http://www.w3.org/2000/svg" xmlns:xlink="http://www.w3.org/1999/xlink" xml:space="preserve" onload="init(evt)">
<style type="text/css"><![CDATA[
.node, .edge {opacity: 0.7;}
.node.selected, .edge.selected {opacity: 1;}
.edge:hover path { stroke: red; }
.edge:hover polygon { stroke: red; fill: red; }
]]></style>

<defs>
  <circle id="rim" cx="0" cy="0" r="7"/>
  <circle id="rim2" cx="0" cy="0" r="3.5"/>
  <g id="zoomPlus">
    <use xlink:href="#rim" fill="#404040"><set attributeName="fill" to="#808080" begin="zoomplus.mouseover" end="zoomplus.mouseout"/></use>
    <path d="M-4,0h8M0,-4v8" fill="none" stroke="white" stroke-width="1.5" pointer-events="none"/>
  </g>
  <g id="zoomMin">
    <use xlink:href="#rim" fill="#404040"><set attributeName="fill" to="#808080" begin="zoomminus.mouseover" end="zoomminus.mouseout"/></use>
    <path d="M-4,0h8" fill="none" stroke="white" stroke-width="1.5" pointer-events="none"/>
  </g>
  <g id="arrowUp" transform="translate(30 24)">
    <use xlink:href="#rim"/>
    <path pointer-events="none" fill="none" stroke="white" stroke-width="1.5" d="M0,-3.0v7 M-2.5,-0.5L0,-3.0L2.5,-0.5"/>
  </g>
  <g id="arrowRight" transform="rotate(90) translate(36 -43)">
    <use xlink:href="#rim"/>
    <path pointer-events="none" fill="none" stroke="white" stroke-width="1.5" d="M0,-3.0v7 M-2.5,-0.5L0,-3.0L2.5,-0.5"/>
  </g>
  <g id="arrowDown" transform="rotate(180) translate(-30 -48)">
    <use xlink:href="#rim"/>
    <path pointer-events="none" fill="none" stroke="white" stroke-width="1.5" d="M0,-3.0v7 M-2.5,-0.5L0,-3.0L2.5,-0.5"/>
  </g>
  <g id="arrowLeft" transform="rotate(270) translate(-36 17)">
    <use xlink:href="#rim"/>
    <path pointer-events="none" fill="none" stroke="white" stroke-width="1.5" d="M0,-3.0v7 M-2.5,-0.5L0,-3.0L2.5,-0.5"/>
  </g>
  <g id="resetDef">
    <use xlink:href="#rim2" fill="#404040"><set attributeName="fill" to="#808080" begin="reset.mouseover" end="reset.mouseout"/></use>
  </g>
</defs>
<script type="application/ecmascript">
var viewWidth = 830;
var viewHeight = 518;
var sectionId = 'dynsection-61';
</script>
<script type="application/ecmascript" xlink:href="svg.min.js"/>
<svg id="graph" class="graph">
<g id="viewport">
<title>returnResponse</title>
<!-- Node1 -->
<g id="Node000001" class="node">
<title>Node1</title>
<g id="a_Node000001"><a xlink:title=" ">
<polygon fill="#999999" stroke="#666666" points="822,-246.25 737,-246.25 737,-227 822,-227 822,-246.25"/>
<text text-anchor="middle" x="779.5" y="-232.75" font-family="Helvetica,sans-Serif" font-size="10.00">returnResponse</text>
</a>
</g>
</g>
<!-- Node2 -->
<g id="Node000002" class="node">
<title>Node2</title>
<g id="a_Node000002"><a xlink:href="class_glpi_1_1_api_1_1_a_p_i.html#af8fc0014311c0740d4e186cbd124a293" target="_top" xlink:title=" ">
<polygon fill="white" stroke="#666666" points="701,-246.25 639.25,-246.25 639.25,-227 701,-227 701,-246.25"/>
<text text-anchor="middle" x="670.12" y="-232.75" font-family="Helvetica,sans-Serif" font-size="10.00">returnError</text>
</a>
</g>
</g>
<!-- Node1&#45;&gt;Node2 -->
<g id="edge1_Node000001_Node000002" class="edge">
<title>Node1&#45;&gt;Node2</title>
<g id="a_edge1_Node000001_Node000002"><a xlink:title=" ">
<path fill="none" stroke="#63b8ff" d="M725.19,-236.62C717.01,-236.62 708.81,-236.62 701.37,-236.62"/>
<polygon fill="#63b8ff" stroke="#63b8ff" points="725.17,-240.13 735.17,-236.63 725.16,-233.13 725.17,-240.13"/>
</a>
</g>
</g>
<!-- Node3 -->
<g id="Node000003" class="node">
<title>Node3</title>
<g id="a_Node000003"><a xlink:href="class_glpi_1_1_api_1_1_a_p_i_rest.html#af15bc7e2f143b1c567b0cab96d8c57b2" target="_top" xlink:title=" ">
<polygon fill="white" stroke="#666666" points="113.88,-340.25 4.88,-340.25 4.88,-321 113.88,-321 113.88,-340.25"/>
<text text-anchor="middle" x="59.38" y="-326.75" font-family="Helvetica,sans-Serif" font-size="10.00">Glpi\Api\APIRest\call</text>
</a>
</g>
</g>
<!-- Node2&#45;&gt;Node3 -->
<g id="edge2_Node000002_Node000003" class="edge">
<title>Node2&#45;&gt;Node3</title>
<g id="a_edge2_Node000002_Node000003"><a xlink:title=" ">
<path fill="none" stroke="#63b8ff" d="M668.82,-257.91C667.02,-299.56 656.82,-391.99 603.25,-440.62 540.25,-497.82 500.84,-472.46 416.25,-481.62 300.7,-494.14 256.4,-537.97 154.75,-481.62 97.97,-450.15 70.84,-368.71 62.92,-340.45"/>
<polygon fill="#63b8ff" stroke="#63b8ff" points="672.32,-258.12 669.11,-248.02 665.32,-257.91 672.32,-258.12"/>
</a>
</g>
</g>
<!-- Node4 -->
<g id="Node000004" class="node">
<title>Node4</title>
<g id="a_Node000004"><a xlink:href="class_glpi_1_1_api_1_1_a_p_i_xmlrpc.html#af15bc7e2f143b1c567b0cab96d8c57b2" target="_top" xlink:title=" ">
<polygon fill="white" stroke="#666666" points="118.75,-226.25 0,-226.25 0,-207 118.75,-207 118.75,-226.25"/>
<text text-anchor="middle" x="59.38" y="-212.75" font-family="Helvetica,sans-Serif" font-size="10.00">Glpi\Api\APIXmlrpc\call</text>
</a>
</g>
</g>
<!-- Node2&#45;&gt;Node4 -->
<g id="edge3_Node000002_Node000004" class="edge">
<title>Node2&#45;&gt;Node4</title>
<g id="a_edge3_Node000002_Node000004"><a xlink:title=" ">
<path fill="none" stroke="#63b8ff" d="M668.16,-215.61C665.18,-178.17 652.99,-100.69 603.25,-66.62 548.25,-28.95 241.22,-35.78 154.75,-83.62 103.72,-111.86 73.71,-180.78 63.93,-206.62"/>
<polygon fill="#63b8ff" stroke="#63b8ff" points="664.64,-215.38 668.77,-225.14 671.63,-214.93 664.64,-215.38"/>
</a>
</g>
</g>
<!-- Node5 -->
<g id="Node000005" class="node">
<title>Node5</title>
<g id="a_Node000005"><a xlink:href="class_glpi_1_1_api_1_1_a_p_i.html#a62cf4214029b0e1e2494a2e6c1254b5b" target="_top" xlink:title=" ">
<polygon fill="white" stroke="#666666" points="263,-207.25 154.75,-207.25 154.75,-188 263,-188 263,-207.25"/>
<text text-anchor="middle" x="208.88" y="-193.75" font-family="Helvetica,sans-Serif" font-size="10.00">changeActiveEntities</text>
</a>
</g>
</g>
<!-- Node2&#45;&gt;Node5 -->
<g id="edge4_Node000002_Node000005" class="edge">
<title>Node2&#45;&gt;Node5</title>
<g id="a_edge4_Node000002_Node000005"><a xlink:title=" ">
<path fill="none" stroke="#63b8ff" d="M627.7,-233.11C544.22,-226.02 355.9,-210.03 263.31,-202.16"/>
<polygon fill="#63b8ff" stroke="#63b8ff" points="627.22,-236.58 637.48,-233.94 627.82,-229.6 627.22,-236.58"/>
</a>
</g>
</g>
<!-- Node6 -->
<g id="Node000006" class="node">
<title>Node6</title>
<g id="a_Node000006"><a xlink:href="class_glpi_1_1_api_1_1_a_p_i.html#a5503cb8b89585242ab564dea8b82a812" target="_top" xlink:title=" ">
<polygon fill="white" stroke="#666666" points="409.12,-303.25 306.12,-303.25 306.12,-284 409.12,-284 409.12,-303.25"/>
<text text-anchor="middle" x="357.62" y="-289.75" font-family="Helvetica,sans-Serif" font-size="10.00">changeActiveProfile</text>
</a>
</g>
</g>
<!-- Node2&#45;&gt;Node6 -->
<g id="edge7_Node000002_Node000006" class="edge">
<title>Node2&#45;&gt;Node6</title>
<g id="a_edge7_Node000002_Node000006"><a xlink:title=" ">
<path fill="none" stroke="#63b8ff" d="M627.82,-245.64C619.69,-247.35 611.21,-249.08 603.25,-250.62 536.37,-263.61 458.86,-276.94 409.32,-285.25"/>
<polygon fill="#63b8ff" stroke="#63b8ff" points="628.47,-249.08 637.52,-243.58 627.01,-242.23 628.47,-249.08"/>
</a>
</g>
</g>
<!-- Node7 -->
<g id="Node000007" class="node">
<title>Node7</title>
<g id="a_Node000007"><a xlink:href="class_glpi_1_1_api_1_1_a_p_i.html#a9e3ccd1e04ccf9501f4ebf14aed9d116" target="_top" xlink:title=" ">
<polygon fill="white" stroke="#666666" points="242.75,-283.25 175,-283.25 175,-264 242.75,-264 242.75,-283.25"/>
<text text-anchor="middle" x="208.88" y="-269.75" font-family="Helvetica,sans-Serif" font-size="10.00">createItems</text>
</a>
</g>
</g>
<!-- Node2&#45;&gt;Node7 -->
<g id="edge10_Node000002_Node000007" class="edge">
<title>Node2&#45;&gt;Node7</title>
<g id="a_edge10_Node000002_Node000007"><a xlink:title=" ">
<path fill="none" stroke="#63b8ff" d="M627.63,-238.93C583.96,-241.45 513.23,-245.76 452.25,-250.62 377.46,-256.59 289.86,-265.34 243.17,-270.14"/>
<polygon fill="#63b8ff" stroke="#63b8ff" points="627.64,-242.44 637.42,-238.37 627.24,-235.45 627.64,-242.44"/>
</a>
</g>
</g>
<!-- Node8 -->
<g id="Node000008" class="node">
<title>Node8</title>
<g id="a_Node000008"><a xlink:href="class_glpi_1_1_api_1_1_a_p_i.html#af231962d70d71e92e21d69e2ccba8d4e" target="_top" xlink:title=" ">
<polygon fill="white" stroke="#666666" points="242.38,-472.25 175.38,-472.25 175.38,-453 242.38,-453 242.38,-472.25"/>
<text text-anchor="middle" x="208.88" y="-458.75" font-family="Helvetica,sans-Serif" font-size="10.00">deleteItems</text>
</a>
</g>
</g>
<!-- Node2&#45;&gt;Node8 -->
<g id="edge13_Node000002_Node000008" class="edge">
<title>Node2&#45;&gt;Node8</title>
<g id="a_edge13_Node000002_Node000008"><a xlink:title=" ">
<path fill="none" stroke="#63b8ff" d="M666.87,-257.44C661.95,-291.98 646.94,-360.77 603.25,-395.62 495.07,-481.92 316.21,-474.34 242.84,-466.84"/>
<polygon fill="#63b8ff" stroke="#63b8ff" points="670.3,-258.25 668.07,-247.89 663.35,-257.38 670.3,-258.25"/>
</a>
</g>
</g>
<!-- Node9 -->
<g id="Node000009" class="node">
<title>Node9</title>
<g id="a_Node000009"><a xlink:href="class_glpi_1_1_api_1_1_a_p_i.html#ab380995768ec8d806bbc6ad8dbd58f21" target="_top" xlink:title=" ">
<polygon fill="white" stroke="#666666" points="416.25,-398.25 299,-398.25 299,-379 416.25,-379 416.25,-398.25"/>
<text text-anchor="middle" x="357.62" y="-384.75" font-family="Helvetica,sans-Serif" font-size="10.00">messageBadArrayError</text>
</a>
</g>
</g>
<!-- Node2&#45;&gt;Node9 -->
<g id="edge16_Node000002_Node000009" class="edge">
<title>Node2&#45;&gt;Node9</title>
<g id="a_edge16_Node000002_Node000009"><a xlink:title=" ">
<path fill="none" stroke="#63b8ff" d="M664.92,-257.39C657.79,-286.7 640.33,-339.44 603.25,-364.62 548.36,-401.91 469.89,-402.75 416.75,-397.67"/>
<polygon fill="#63b8ff" stroke="#63b8ff" points="668.28,-258.41 667.04,-247.89 661.45,-256.89 668.28,-258.41"/>
</a>
</g>
</g>
<!-- Node11 -->
<g id="Node000011" class="node">
<title>Node11</title>
<g id="a_Node000011"><a xlink:href="class_glpi_1_1_api_1_1_a_p_i.html#a38245b297f4f2c25288619ceac8fb679" target="_top" xlink:title=" ">
<polygon fill="white" stroke="#666666" points="243.88,-359.25 173.88,-359.25 173.88,-340 243.88,-340 243.88,-359.25"/>
<text text-anchor="middle" x="208.88" y="-345.75" font-family="Helvetica,sans-Serif" font-size="10.00">updateItems</text>
</a>
</g>
</g>
<!-- Node2&#45;&gt;Node11 -->
<g id="edge40_Node000002_Node000011" class="edge">
<title>Node2&#45;&gt;Node11</title>
<g id="a_edge40_Node000002_Node000011"><a xlink:title=" ">
<path fill="none" stroke="#63b8ff" d="M661.39,-257.25C651.66,-279.96 632.57,-315.41 603.25,-331.62 542.15,-365.41 328.14,-356.74 244.11,-351.86"/>
<polygon fill="#63b8ff" stroke="#63b8ff" points="664.59,-258.69 665.07,-248.1 658.09,-256.07 664.59,-258.69"/>
</a>
</g>
</g>
<!-- Node12 -->
<g id="Node000012" class="node">
<title>Node12</title>
<g id="a_Node000012"><a xlink:href="class_glpi_1_1_api_1_1_a_p_i.html#a377b8e5c1ed1233241de4307611b7a51" target="_top" xlink:title=" ">
<polygon fill="white" stroke="#666666" points="256.62,-170.25 161.12,-170.25 161.12,-151 256.62,-151 256.62,-170.25"/>
<text text-anchor="middle" x="208.88" y="-156.75" font-family="Helvetica,sans-Serif" font-size="10.00">messageLostError</text>
</a>
</g>
</g>
<!-- Node2&#45;&gt;Node12 -->
<g id="edge26_Node000002_Node000012" class="edge">
<title>Node2&#45;&gt;Node12</title>
<g id="a_edge26_Node000002_Node000012"><a xlink:title=" ">
<path fill="none" stroke="#63b8ff" d="M631.96,-222.88C622.68,-219.81 612.68,-216.83 603.25,-214.62 480.07,-185.86 331.36,-170.59 257.02,-164.24"/>
<polygon fill="#63b8ff" stroke="#63b8ff" points="630.82,-226.18 641.41,-226.11 633.08,-219.56 630.82,-226.18"/>
</a>
</g>
</g>
<!-- Node13 -->
<g id="Node000013" class="node">
<title>Node13</title>
<g id="a_Node000013"><a xlink:href="class_glpi_1_1_api_1_1_a_p_i.html#a62096a8624214a1417394b3d09bac1b0" target="_top" xlink:title=" ">
<polygon fill="white" stroke="#666666" points="586,-322.25 469.5,-322.25 469.5,-303 586,-303 586,-322.25"/>
<text text-anchor="middle" x="527.75" y="-308.75" font-family="Helvetica,sans-Serif" font-size="10.00">messageNotfoundError</text>
</a>
</g>
</g>
<!-- Node2&#45;&gt;Node13 -->
<g id="edge29_Node000002_Node000013" class="edge">
<title>Node2&#45;&gt;Node13</title>
<g id="a_edge29_Node000002_Node000013"><a xlink:title=" ">
<path fill="none" stroke="#63b8ff" d="M651.02,-253.85C638.44,-265.04 620.84,-279.25 603.25,-288.62 592.58,-294.32 580.32,-298.95 568.87,-302.58"/>
<polygon fill="#63b8ff" stroke="#63b8ff" points="653.09,-256.7 658.1,-247.36 648.36,-251.53 653.09,-256.7"/>
</a>
</g>
</g>
<!-- Node14 -->
<g id="Node000014" class="node">
<title>Node14</title>
<g id="a_Node000014"><a xlink:href="class_glpi_1_1_api_1_1_a_p_i.html#ab1fa6cb98728d3b51fa0e243016e4ec3" target="_top" xlink:title=" ">
<polygon fill="white" stroke="#666666" points="577.75,-19.25 477.75,-19.25 477.75,0 577.75,0 577.75,-19.25"/>
<text text-anchor="middle" x="527.75" y="-5.75" font-family="Helvetica,sans-Serif" font-size="10.00">messageRightError</text>
</a>
</g>
</g>
<!-- Node2&#45;&gt;Node14 -->
<g id="edge31_Node000002_Node000014" class="edge">
<title>Node2&#45;&gt;Node14</title>
<g id="a_edge31_Node000002_Node000014"><a xlink:title=" ">
<path fill="none" stroke="#63b8ff" d="M668.34,-215.3C665.67,-174.35 654.01,-84.27 603.25,-33.62 596.32,-26.71 587.4,-21.79 578.15,-18.29"/>
<polygon fill="#63b8ff" stroke="#63b8ff" points="664.83,-215.23 668.84,-225.04 671.82,-214.87 664.83,-215.23"/>
</a>
</g>
</g>
<!-- Node15 -->
<g id="Node000015" class="node">
<title>Node15</title>
<g id="a_Node000015"><a xlink:href="class_glpi_1_1_api_1_1_a_p_i.html#aa5255cf7fd4adbf47028d9473dc040d8" target="_top" xlink:title=" ">
<polygon fill="white" stroke="#666666" points="583.75,-95.25 471.75,-95.25 471.75,-76 583.75,-76 583.75,-95.25"/>
<text text-anchor="middle" x="527.75" y="-81.75" font-family="Helvetica,sans-Serif" font-size="10.00">messageSessionError</text>
</a>
</g>
</g>
<!-- Node2&#45;&gt;Node15 -->
<g id="edge32_Node000002_Node000015" class="edge">
<title>Node2&#45;&gt;Node15</title>
<g id="a_edge32_Node000002_Node000015"><a xlink:title=" ">
<path fill="none" stroke="#63b8ff" d="M664.66,-215.76C657.21,-186.19 639.36,-132.47 603.25,-103.62 597.64,-99.14 591.08,-95.75 584.22,-93.18"/>
<polygon fill="#63b8ff" stroke="#63b8ff" points="661.21,-216.4 666.89,-225.34 668.03,-214.81 661.21,-216.4"/>
</a>
</g>
</g>
<!-- Node18 -->
<g id="Node000018" class="node">
<title>Node18</title>
<g id="a_Node000018"><a xlink:href="class_glpi_1_1_api_1_1_a_p_i.html#a859cab50ec4b9f6953f500e84619d521" target="_top" xlink:title=" ">
<polygon fill="white" stroke="#666666" points="603.25,-132.25 452.25,-132.25 452.25,-113 603.25,-113 603.25,-132.25"/>
<text text-anchor="middle" x="527.75" y="-118.75" font-family="Helvetica,sans-Serif" font-size="10.00">messageSessionTokenMissing</text>
</a>
</g>
</g>
<!-- Node2&#45;&gt;Node18 -->
<g id="edge38_Node000002_Node000018" class="edge">
<title>Node2&#45;&gt;Node18</title>
<g id="a_edge38_Node000002_Node000018"><a xlink:title=" ">
<path fill="none" stroke="#63b8ff" d="M659.29,-216.56C648.31,-196.15 628.68,-164.99 603.25,-146.62 594.99,-140.66 585.17,-136.13 575.42,-132.71"/>
<polygon fill="#63b8ff" stroke="#63b8ff" points="656.1,-218.01 663.79,-225.3 662.32,-214.8 656.1,-218.01"/>
</a>
</g>
</g>
<!-- Node5&#45;&gt;Node3 -->
<g id="edge5_Node000005_Node000003" class="edge">
<title>Node5&#45;&gt;Node3</title>
<g id="a_edge5_Node000005_Node000003"><a xlink:title=" ">
<path fill="none" stroke="#63b8ff" d="M188.44,-215.15C157.15,-243.36 96.59,-297.97 71.59,-320.51"/>
<polygon fill="#63b8ff" stroke="#63b8ff" points="190.58,-217.93 195.66,-208.64 185.89,-212.73 190.58,-217.93"/>
</a>
</g>
</g>
<!-- Node5&#45;&gt;Node4 -->
<g id="edge6_Node000005_Node000004" class="edge">
<title>Node5&#45;&gt;Node4</title>
<g id="a_edge6_Node000005_Node000004"><a xlink:title=" ">
<path fill="none" stroke="#63b8ff" d="M143.34,-205.94C135.26,-206.98 127.03,-208.04 119.04,-209.07"/>
<polygon fill="#63b8ff" stroke="#63b8ff" points="143.65,-209.43 153.12,-204.68 142.76,-202.48 143.65,-209.43"/>
</a>
</g>
</g>
<!-- Node6&#45;&gt;Node3 -->
<g id="edge8_Node000006_Node000003" class="edge">
<title>Node6&#45;&gt;Node3</title>
<g id="a_edge8_Node000006_Node000003"><a xlink:title=" ">
<path fill="none" stroke="#63b8ff" d="M294.33,-301.4C240.96,-308.07 164.89,-317.57 114.14,-323.91"/>
<polygon fill="#63b8ff" stroke="#63b8ff" points="294.71,-304.89 304.2,-300.17 293.84,-297.94 294.71,-304.89"/>
</a>
</g>
</g>
<!-- Node6&#45;&gt;Node4 -->
<g id="edge9_Node000006_Node000004" class="edge">
<title>Node6&#45;&gt;Node4</title>
<g id="a_edge9_Node000006_Node000004"><a xlink:title=" ">
<path fill="none" stroke="#63b8ff" d="M325.46,-278.71C307.53,-270.62 284.38,-261.01 263,-254.62 215.5,-240.45 160.09,-230.49 119.23,-224.33"/>
<polygon fill="#63b8ff" stroke="#63b8ff" points="323.97,-281.88 334.51,-282.87 326.89,-275.52 323.97,-281.88"/>
</a>
</g>
</g>
<!-- Node7&#45;&gt;Node3 -->
<g id="edge11_Node000007_Node000003" class="edge">
<title>Node7&#45;&gt;Node3</title>
<g id="a_edge11_Node000007_Node000003"><a xlink:title=" ">
<path fill="none" stroke="#63b8ff" d="M171.45,-287.7C144.96,-297.94 109.76,-311.54 86.15,-320.67"/>
<polygon fill="#63b8ff" stroke="#63b8ff" points="172.37,-291.1 180.43,-284.23 169.84,-284.57 172.37,-291.1"/>
</a>
</g>
</g>
<!-- Node7&#45;&gt;Node4 -->
<g id="edge12_Node000007_Node000004" class="edge">
<title>Node7&#45;&gt;Node4</title>
<g id="a_edge12_Node000007_Node000004"><a xlink:title=" ">
<path fill="none" stroke="#63b8ff" d="M171.45,-259.55C144.96,-249.31 109.76,-235.71 86.15,-226.58"/>
<polygon fill="#63b8ff" stroke="#63b8ff" points="169.84,-262.68 180.43,-263.02 172.37,-256.15 169.84,-262.68"/>
</a>
</g>
</g>
<!-- Node8&#45;&gt;Node3 -->
<g id="edge14_Node000008_Node000003" class="edge">
<title>Node8&#45;&gt;Node3</title>
<g id="a_edge14_Node000008_Node000003"><a xlink:title=" ">
<path fill="none" stroke="#63b8ff" d="M169.61,-447.76C164.41,-445.06 159.31,-442.01 154.75,-438.62 115.36,-409.39 80.71,-361.19 66.83,-340.53"/>
<polygon fill="#63b8ff" stroke="#63b8ff" points="167.71,-450.73 178.24,-451.88 170.72,-444.41 167.71,-450.73"/>
</a>
</g>
</g>
<!-- Node8&#45;&gt;Node4 -->
<g id="edge15_Node000008_Node000004" class="edge">
<title>Node8&#45;&gt;Node4</title>
<g id="a_edge15_Node000008_Node000004"><a xlink:title=" ">
<path fill="none" stroke="#63b8ff" d="M188.14,-445.1C177.16,-434.53 163.91,-420.29 154.75,-405.62 131.06,-367.67 138.55,-351.74 118.75,-311.62 102.73,-279.16 78.97,-243.44 67.32,-226.53"/>
<polygon fill="#63b8ff" stroke="#63b8ff" points="185.53,-447.45 195.23,-451.7 190.3,-442.32 185.53,-447.45"/>
</a>
</g>
</g>
<!-- Node9&#45;&gt;Node3 -->
<g id="edge17_Node000009_Node000003" class="edge">
<title>Node9&#45;&gt;Node3</title>
<g id="a_edge17_Node000009_Node000003"><a xlink:title=" ">
<path fill="none" stroke="#63b8ff" d="M315.4,-401.76C273.71,-412.85 207.98,-424.2 154.75,-405.62 117.4,-392.59 83.76,-357.92 68.71,-340.67"/>
<polygon fill="#63b8ff" stroke="#63b8ff" points="316.09,-405.21 324.78,-399.15 314.21,-398.46 316.09,-405.21"/>
</a>
</g>
</g>
<!-- Node9&#45;&gt;Node7 -->
<g id="edge18_Node000009_Node000007" class="edge">
<title>Node9&#45;&gt;Node7</title>
<g id="a_edge18_Node000009_Node000007"><a xlink:title=" ">
<path fill="none" stroke="#63b8ff" d="M335.12,-371.77C304.14,-347.5 247.93,-303.45 222.72,-283.69"/>
<polygon fill="#63b8ff" stroke="#63b8ff" points="332.64,-374.27 342.67,-377.69 336.96,-368.76 332.64,-374.27"/>
</a>
</g>
</g>
<!-- Node9&#45;&gt;Node8 -->
<g id="edge19_Node000009_Node000008" class="edge">
<title>Node9&#45;&gt;Node8</title>
<g id="a_edge19_Node000009_Node000008"><a xlink:title=" ">
<path fill="none" stroke="#63b8ff" d="M318.52,-403.03C311.88,-405.95 305.14,-409.19 299,-412.62 281.78,-422.26 280.08,-428.73 263,-438.62 254.15,-443.75 244.02,-448.56 234.99,-452.52"/>
<polygon fill="#63b8ff" stroke="#63b8ff" points="319.5,-406.41 327.36,-399.31 316.78,-399.96 319.5,-406.41"/>
</a>
</g>
</g>
<!-- Node10 -->
<g id="Node000010" class="node">
<title>Node10</title>
<g id="a_Node000010"><a xlink:href="class_glpi_1_1_api_1_1_a_p_i.html#ab06ea831a23316c948b2544e27b6301b" target="_top" xlink:title=" ">
<polygon fill="white" stroke="#666666" points="252.88,-396.25 164.88,-396.25 164.88,-377 252.88,-377 252.88,-396.25"/>
<text text-anchor="middle" x="208.88" y="-382.75" font-family="Helvetica,sans-Serif" font-size="10.00">getMultipleItems</text>
</a>
</g>
</g>
<!-- Node9&#45;&gt;Node10 -->
<g id="edge20_Node000009_Node000010" class="edge">
<title>Node9&#45;&gt;Node10</title>
<g id="a_edge20_Node000009_Node000010"><a xlink:title=" ">
<path fill="none" stroke="#63b8ff" d="M287.44,-387.68C275.69,-387.52 263.8,-387.36 252.97,-387.21"/>
<polygon fill="#63b8ff" stroke="#63b8ff" points="287.07,-391.18 297.11,-387.81 287.16,-384.18 287.07,-391.18"/>
</a>
</g>
</g>
<!-- Node9&#45;&gt;Node11 -->
<g id="edge23_Node000009_Node000011" class="edge">
<title>Node9&#45;&gt;Node11</title>
<g id="a_edge23_Node000009_Node000011"><a xlink:title=" ">
<path fill="none" stroke="#63b8ff" d="M307.89,-375.67C286.96,-370.11 263.01,-363.75 244.03,-358.7"/>
<polygon fill="#63b8ff" stroke="#63b8ff" points="306.81,-379.01 317.37,-378.19 308.6,-372.24 306.81,-379.01"/>
</a>
</g>
</g>
<!-- Node10&#45;&gt;Node3 -->
<g id="edge21_Node000010_Node000003" class="edge">
<title>Node10&#45;&gt;Node3</title>
<g id="a_edge21_Node000010_Node000003"><a xlink:title=" ">
<path fill="none" stroke="#63b8ff" d="M166.6,-372.89C162.59,-371.48 158.58,-370.04 154.75,-368.62 130.57,-359.67 103.27,-348.57 84.28,-340.68"/>
<polygon fill="#63b8ff" stroke="#63b8ff" points="165.13,-376.09 175.72,-376.05 167.41,-369.47 165.13,-376.09"/>
</a>
</g>
</g>
<!-- Node10&#45;&gt;Node4 -->
<g id="edge22_Node000010_Node000004" class="edge">
<title>Node10&#45;&gt;Node4</title>
<g id="a_edge22_Node000010_Node000004"><a xlink:title=" ">
<path fill="none" stroke="#63b8ff" d="M158.23,-371.16C157.03,-370.35 155.87,-369.51 154.75,-368.62 153.11,-367.32 87.05,-260.01 66.45,-226.5"/>
<polygon fill="#63b8ff" stroke="#63b8ff" points="156.22,-374.05 166.67,-375.82 159.6,-367.92 156.22,-374.05"/>
</a>
</g>
</g>
<!-- Node11&#45;&gt;Node3 -->
<g id="edge24_Node000011_Node000003" class="edge">
<title>Node11&#45;&gt;Node3</title>
<g id="a_edge24_Node000011_Node000003"><a xlink:title=" ">
<path fill="none" stroke="#63b8ff" d="M162.45,-343.77C147.24,-341.81 130.13,-339.61 114.33,-337.58"/>
<polygon fill="#63b8ff" stroke="#63b8ff" points="161.8,-347.22 172.16,-345.02 162.69,-340.28 161.8,-347.22"/>
</a>
</g>
</g>
<!-- Node11&#45;&gt;Node4 -->
<g id="edge25_Node000011_Node000004" class="edge">
<title>Node11&#45;&gt;Node4</title>
<g id="a_edge25_Node000011_Node000004"><a xlink:title=" ">
<path fill="none" stroke="#63b8ff" d="M188.44,-332.1C157.15,-303.89 96.59,-249.28 71.59,-226.74"/>
<polygon fill="#63b8ff" stroke="#63b8ff" points="185.89,-334.52 195.66,-338.61 190.58,-329.32 185.89,-334.52"/>
</a>
</g>
</g>
<!-- Node12&#45;&gt;Node3 -->
<g id="edge27_Node000012_Node000003" class="edge">
<title>Node12&#45;&gt;Node3</title>
<g id="a_edge27_Node000012_Node000003"><a xlink:title=" ">
<path fill="none" stroke="#63b8ff" d="M158.23,-176.09C157.03,-176.9 155.87,-177.74 154.75,-178.62 153.11,-179.93 87.05,-287.24 66.45,-320.75"/>
<polygon fill="#63b8ff" stroke="#63b8ff" points="159.6,-179.33 166.67,-171.43 156.22,-173.2 159.6,-179.33"/>
</a>
</g>
</g>
<!-- Node12&#45;&gt;Node4 -->
<g id="edge28_Node000012_Node000004" class="edge">
<title>Node12&#45;&gt;Node4</title>
<g id="a_edge28_Node000012_Node000004"><a xlink:title=" ">
<path fill="none" stroke="#63b8ff" d="M166.6,-174.36C162.59,-175.77 158.58,-177.21 154.75,-178.62 130.57,-187.58 103.27,-198.68 84.28,-206.57"/>
<polygon fill="#63b8ff" stroke="#63b8ff" points="167.41,-177.78 175.72,-171.2 165.13,-171.16 167.41,-177.78"/>
</a>
</g>
</g>
<!-- Node13&#45;&gt;Node6 -->
<g id="edge30_Node000013_Node000006" class="edge">
<title>Node13&#45;&gt;Node6</title>
<g id="a_edge30_Node000013_Node000006"><a xlink:title=" ">
<path fill="none" stroke="#63b8ff" d="M458.25,-304.88C441.98,-303.04 424.9,-301.11 409.56,-299.38"/>
<polygon fill="#63b8ff" stroke="#63b8ff" points="457.53,-308.32 467.86,-305.97 458.31,-301.37 457.53,-308.32"/>
</a>
</g>
</g>
<!-- Node16 -->
<g id="Node000016" class="node">
<title>Node16</title>
<g id="a_Node000016"><a xlink:href="class_glpi_1_1_api_1_1_a_p_i.html#a4256b8ce86f3f18fb6d65fdc31078c68" target="_top" xlink:title=" ">
<polygon fill="white" stroke="#666666" points="409.5,-113.25 305.75,-113.25 305.75,-94 409.5,-94 409.5,-113.25"/>
<text text-anchor="middle" x="357.62" y="-99.75" font-family="Helvetica,sans-Serif" font-size="10.00">checkSessionToken</text>
</a>
</g>
</g>
<!-- Node15&#45;&gt;Node16 -->
<g id="edge33_Node000015_Node000016" class="edge">
<title>Node15&#45;&gt;Node16</title>
<g id="a_edge33_Node000015_Node000016"><a xlink:title=" ">
<path fill="none" stroke="#63b8ff" d="M460.27,-92.74C443.48,-94.54 425.71,-96.44 409.81,-98.14"/>
<polygon fill="#63b8ff" stroke="#63b8ff" points="460.62,-96.22 470.19,-91.68 459.88,-89.26 460.62,-96.22"/>
</a>
</g>
</g>
<!-- Node16&#45;&gt;Node4 -->
<g id="edge34_Node000016_Node000004" class="edge">
<title>Node16&#45;&gt;Node4</title>
<g id="a_edge34_Node000016_Node000004"><a xlink:title=" ">
<path fill="none" stroke="#63b8ff" d="M301,-91.78C258.84,-85.6 200.55,-83.19 154.75,-104.62 108.23,-126.4 76.36,-183.54 64.99,-206.68"/>
<polygon fill="#63b8ff" stroke="#63b8ff" points="300.25,-95.21 310.67,-93.32 301.35,-88.29 300.25,-95.21"/>
</a>
</g>
</g>
<!-- Node17 -->
<g id="Node000017" class="node">
<title>Node17</title>
<g id="a_Node000017"><a xlink:href="class_glpi_1_1_api_1_1_a_p_i.html#a639b7ead0eed183f2610c7a3f194c931" target="_top" xlink:title=" ">
<polygon fill="white" stroke="#666666" points="242.38,-133.25 175.38,-133.25 175.38,-114 242.38,-114 242.38,-133.25"/>
<text text-anchor="middle" x="208.88" y="-119.75" font-family="Helvetica,sans-Serif" font-size="10.00">initEndpoint</text>
</a>
</g>
</g>
<!-- Node16&#45;&gt;Node17 -->
<g id="edge35_Node000016_Node000017" class="edge">
<title>Node16&#45;&gt;Node17</title>
<g id="a_edge35_Node000016_Node000017"><a xlink:title=" ">
<path fill="none" stroke="#63b8ff" d="M294.11,-112.14C276.38,-114.56 257.79,-117.1 242.59,-119.17"/>
<polygon fill="#63b8ff" stroke="#63b8ff" points="294.36,-115.64 303.8,-110.82 293.42,-108.71 294.36,-115.64"/>
</a>
</g>
</g>
<!-- Node17&#45;&gt;Node3 -->
<g id="edge36_Node000017_Node000003" class="edge">
<title>Node17&#45;&gt;Node3</title>
<g id="a_edge36_Node000017_Node000003"><a xlink:title=" ">
<path fill="none" stroke="#63b8ff" d="M164.56,-134.5C160.99,-136.49 157.65,-138.84 154.75,-141.62 122.5,-172.63 138.55,-195.51 118.75,-235.62 102.73,-268.09 78.97,-303.81 67.32,-320.72"/>
<polygon fill="#63b8ff" stroke="#63b8ff" points="165.96,-137.7 173.65,-130.41 163.1,-131.31 165.96,-137.7"/>
</a>
</g>
</g>
<!-- Node17&#45;&gt;Node4 -->
<g id="edge37_Node000017_Node000004" class="edge">
<title>Node17&#45;&gt;Node4</title>
<g id="a_edge37_Node000017_Node000004"><a xlink:title=" ">
<path fill="none" stroke="#63b8ff" d="M164.38,-136.96C161.06,-138.4 157.81,-139.95 154.75,-141.62 120.94,-160.06 86.98,-190.74 70.55,-206.54"/>
<polygon fill="#63b8ff" stroke="#63b8ff" points="165.66,-140.22 173.69,-133.31 163.1,-133.7 165.66,-140.22"/>
</a>
</g>
</g>
<!-- Node18&#45;&gt;Node16 -->
<g id="edge39_Node000018_Node000016" class="edge">
<title>Node18&#45;&gt;Node16</title>
<g id="a_edge39_Node000018_Node000016"><a xlink:title=" ">
<path fill="none" stroke="#63b8ff" d="M440.66,-112.9C430.17,-111.71 419.73,-110.53 409.98,-109.43"/>
<polygon fill="#63b8ff" stroke="#63b8ff" points="440.2,-116.37 450.52,-114.01 440.98,-109.41 440.2,-116.37"/>
</a>
</g>
</g>
</g>
</svg>

<g id="navigator" transform="translate(0 0)" fill="#404254">
  <rect fill="#f2f5e9" fill-opacity="0.5" stroke="#606060" stroke-width=".5" x="0" y="0" width="60" height="60"/>
  <use id="zoomplus" xlink:href="#zoomPlus" x="17" y="9" onmousedown="handleZoom(evt,'in')"/>
  <use id="zoomminus" xlink:href="#zoomMin" x="42" y="9" onmousedown="handleZoom(evt,'out')"/>
  <use id="reset" xlink:href="#resetDef" x="30" y="36" onmousedown="handleReset()"/>
   <use id="arrowup" xlink:href="#arrowUp" x="0" y="0" onmousedown="handlePan(0,-1)"/>
  <use id="arrowright" xlink:href="#arrowRight" x="0" y="0" onmousedown="handlePan(1,0)"/>
  <use id="arrowdown" xlink:href="#arrowDown" x="0" y="0" onmousedown="handlePan(0,1)"/>
  <use id="arrowleft" xlink:href="#arrowLeft" x="0" y="0" onmousedown="handlePan(-1,0)"/>
</g>
<svg viewBox="0 0 15 15" width="100%" height="30px" preserveAspectRatio="xMaxYMin meet">
 <g id="arrow_out" transform="scale(0.3 0.3)">
  <a xlink:href="class_glpi_1_1_api_1_1_a_p_i_adf00380047c368069aa580e7aa332eec_icgraph_org.svg" target="_base">
   <rect id="button" ry="5" rx="5" y="6" x="6" height="38" width="38"
        fill="#f2f5e9" fill-opacity="0.5" stroke="#606060" stroke-width="1.0"/>
   <path id="arrow"
     d="M 11.500037,31.436501 C 11.940474,20.09759 22.043105,11.32322 32.158766,21.979434 L 37.068811,17.246167 C 37.068811,17.246167 37.088388,32 37.088388,32 L 22.160133,31.978069 C 22.160133,31.978069 26.997745,27.140456 26.997745,27.140456 C 18.528582,18.264221 13.291696,25.230495 11.500037,31.436501 z"
     style="fill:#404040;"/>
  </a>
 </g>
</svg>

<style type='text/css'>
<![CDATA[
[data-mouse-over-selected='false'] { opacity: 0.7; }
[data-mouse-over-selected='true']  { opacity: 1.0; }
]]>
</style>
<script type="application/ecmascript"><![CDATA[
document.addEventListener('DOMContentLoaded', (event) => {
  highlightEdges();
  highlightAdjacentNodes();
});
]]></script>
</svg>
