<?xml version="1.0" encoding="UTF-8" standalone="no"?>
<!DOCTYPE svg PUBLIC "-//W3C//DTD SVG 1.1//EN"
 "http://www.w3.org/Graphics/SVG/1.1/DTD/svg11.dtd">
<!-- Generated by graphviz version 10.0.1 (20240210.2158)
 -->
<!-- Title: PluginLoaderException Pages: 1 -->
<svg width="204pt" height="227pt"
 viewBox="0.00 0.00 204.00 227.00" xmlns="http://www.w3.org/2000/svg" xmlns:xlink="http://www.w3.org/1999/xlink">
<g id="graph0" class="graph" transform="scale(1 1) rotate(0) translate(4 223)">
<title>PluginLoaderException</title>
<!-- Node1 -->
<g id="Node000001" class="node">
<title>Node1</title>
<g id="a_Node000001"><a xlink:title=" ">
<polygon fill="#999999" stroke="none" points="151,-49 42,-49 42,0 151,0 151,-49"/>
<text text-anchor="start" x="46.62" y="-35.5" font-family="Helvetica,sans-Serif" font-size="10.00">PluginLoaderException</text>
<text text-anchor="start" x="95" y="-20.5" font-family="Helvetica,sans-Serif" font-size="10.00"> </text>
<text text-anchor="start" x="95" y="-5.5" font-family="Helvetica,sans-Serif" font-size="10.00"> </text>
<polygon fill="#666666" stroke="#666666" points="42,-32 42,-32 151,-32 151,-32 42,-32"/>
<polygon fill="#666666" stroke="#666666" points="42,-17 42,-17 151,-17 151,-17 42,-17"/>
<polygon fill="none" stroke="#666666" points="42,0 42,-49 151,-49 151,0 42,0"/>
</a>
</g>
</g>
<!-- Node2 -->
<g id="Node000002" class="node">
<title>Node2</title>
<g id="a_Node000002"><a xlink:href="class_laminas_1_1_loader_1_1_exception_1_1_domain_exception.html" target="_top" xlink:title=" ">
<polygon fill="white" stroke="none" points="140,-134 53,-134 53,-85 140,-85 140,-134"/>
<text text-anchor="start" x="57.88" y="-120.5" font-family="Helvetica,sans-Serif" font-size="10.00">DomainException</text>
<text text-anchor="start" x="95" y="-105.5" font-family="Helvetica,sans-Serif" font-size="10.00"> </text>
<text text-anchor="start" x="95" y="-90.5" font-family="Helvetica,sans-Serif" font-size="10.00"> </text>
<polygon fill="#666666" stroke="#666666" points="53,-117 53,-117 140,-117 140,-117 53,-117"/>
<polygon fill="#666666" stroke="#666666" points="53,-102 53,-102 140,-102 140,-102 53,-102"/>
<polygon fill="none" stroke="#666666" points="53,-85 53,-134 140,-134 140,-85 53,-85"/>
</a>
</g>
</g>
<!-- Node2&#45;&gt;Node1 -->
<g id="edge1_Node000001_Node000002" class="edge">
<title>Node2&#45;&gt;Node1</title>
<g id="a_edge1_Node000001_Node000002"><a xlink:title=" ">
<path fill="none" stroke="#63b8ff" d="M96.5,-74.14C96.5,-65.6 96.5,-56.65 96.5,-48.78"/>
<polygon fill="none" stroke="#63b8ff" points="93,-73.87 96.5,-83.87 100,-73.87 93,-73.87"/>
</a>
</g>
</g>
<!-- Node3 -->
<g id="Node000003" class="node">
<title>Node3</title>
<g id="a_Node000003"><a xlink:title=" ">
<polygon fill="white" stroke="none" points="87,-219 0,-219 0,-170 87,-170 87,-219"/>
<text text-anchor="start" x="4.88" y="-205.5" font-family="Helvetica,sans-Serif" font-size="10.00">DomainException</text>
<text text-anchor="start" x="42" y="-190.5" font-family="Helvetica,sans-Serif" font-size="10.00"> </text>
<text text-anchor="start" x="42" y="-175.5" font-family="Helvetica,sans-Serif" font-size="10.00"> </text>
<polygon fill="#666666" stroke="#666666" points="0,-202 0,-202 87,-202 87,-202 0,-202"/>
<polygon fill="#666666" stroke="#666666" points="0,-187 0,-187 87,-187 87,-187 0,-187"/>
<polygon fill="none" stroke="#666666" points="0,-170 0,-219 87,-219 87,-170 0,-170"/>
</a>
</g>
</g>
<!-- Node3&#45;&gt;Node2 -->
<g id="edge2_Node000002_Node000003" class="edge">
<title>Node3&#45;&gt;Node2</title>
<g id="a_edge2_Node000002_Node000003"><a xlink:title=" ">
<path fill="none" stroke="#63b8ff" d="M64.33,-160.88C70.11,-151.83 76.27,-142.18 81.63,-133.78"/>
<polygon fill="none" stroke="#63b8ff" points="61.51,-158.79 59.08,-169.1 67.41,-162.56 61.51,-158.79"/>
</a>
</g>
</g>
<!-- Node4 -->
<g id="Node000004" class="node">
<title>Node4</title>
<g id="a_Node000004"><a xlink:href="interface_laminas_1_1_loader_1_1_exception_1_1_exception_interface.html" target="_top" xlink:title=" ">
<polygon fill="white" stroke="none" points="196,-219 105,-219 105,-170 196,-170 196,-219"/>
<text text-anchor="start" x="109.62" y="-205.5" font-family="Helvetica,sans-Serif" font-size="10.00">ExceptionInterface</text>
<text text-anchor="start" x="149" y="-190.5" font-family="Helvetica,sans-Serif" font-size="10.00"> </text>
<text text-anchor="start" x="149" y="-175.5" font-family="Helvetica,sans-Serif" font-size="10.00"> </text>
<polygon fill="#666666" stroke="#666666" points="105,-202 105,-202 196,-202 196,-202 105,-202"/>
<polygon fill="#666666" stroke="#666666" points="105,-187 105,-187 196,-187 196,-187 105,-187"/>
<polygon fill="none" stroke="#666666" points="105,-170 105,-219 196,-219 196,-170 105,-170"/>
</a>
</g>
</g>
<!-- Node4&#45;&gt;Node2 -->
<g id="edge3_Node000002_Node000004" class="edge">
<title>Node4&#45;&gt;Node2</title>
<g id="a_edge3_Node000002_Node000004"><a xlink:title=" ">
<path fill="none" stroke="#63b8ff" d="M129.28,-160.88C123.39,-151.83 117.11,-142.18 111.65,-133.78"/>
<polygon fill="none" stroke="#63b8ff" points="126.25,-162.64 134.63,-169.11 132.11,-158.82 126.25,-162.64"/>
</a>
</g>
</g>
</g>
</svg>
