<?xml version="1.0" encoding="UTF-8" standalone="no"?>
<!DOCTYPE svg PUBLIC "-//W3C//DTD SVG 1.1//EN"
 "http://www.w3.org/Graphics/SVG/1.1/DTD/svg11.dtd">
<!-- Generated by graphviz version 10.0.1 (20240210.2158)
 -->
<!-- Title: HTMLTableUnknownHeader Pages: 1 -->
<svg width="141pt" height="142pt"
 viewBox="0.00 0.00 141.00 142.00" xmlns="http://www.w3.org/2000/svg" xmlns:xlink="http://www.w3.org/1999/xlink">
<g id="graph0" class="graph" transform="scale(1 1) rotate(0) translate(4 138)">
<title>HTMLTableUnknownHeader</title>
<!-- Node1 -->
<g id="Node000001" class="node">
<title>Node1</title>
<g id="a_Node000001"><a xlink:title=" ">
<polygon fill="#999999" stroke="none" points="133,-49 0,-49 0,0 133,0 133,-49"/>
<text text-anchor="start" x="5" y="-35.5" font-family="Helvetica,sans-Serif" font-size="10.00">HTMLTableUnknownHeader</text>
<text text-anchor="start" x="65" y="-20.5" font-family="Helvetica,sans-Serif" font-size="10.00"> </text>
<text text-anchor="start" x="65" y="-5.5" font-family="Helvetica,sans-Serif" font-size="10.00"> </text>
<polygon fill="#666666" stroke="#666666" points="0,-32 0,-32 133,-32 133,-32 0,-32"/>
<polygon fill="#666666" stroke="#666666" points="0,-17 0,-17 133,-17 133,-17 0,-17"/>
<polygon fill="none" stroke="#666666" points="0,0 0,-49 133,-49 133,0 0,0"/>
</a>
</g>
</g>
<!-- Node2 -->
<g id="Node000002" class="node">
<title>Node2</title>
<g id="a_Node000002"><a xlink:title=" ">
<polygon fill="white" stroke="none" points="93,-134 40,-134 40,-85 93,-85 93,-134"/>
<text text-anchor="start" x="44.75" y="-120.5" font-family="Helvetica,sans-Serif" font-size="10.00">Exception</text>
<text text-anchor="start" x="65" y="-105.5" font-family="Helvetica,sans-Serif" font-size="10.00"> </text>
<text text-anchor="start" x="65" y="-90.5" font-family="Helvetica,sans-Serif" font-size="10.00"> </text>
<polygon fill="#666666" stroke="#666666" points="40,-117 40,-117 93,-117 93,-117 40,-117"/>
<polygon fill="#666666" stroke="#666666" points="40,-102 40,-102 93,-102 93,-102 40,-102"/>
<polygon fill="none" stroke="#666666" points="40,-85 40,-134 93,-134 93,-85 40,-85"/>
</a>
</g>
</g>
<!-- Node2&#45;&gt;Node1 -->
<g id="edge1_Node000001_Node000002" class="edge">
<title>Node2&#45;&gt;Node1</title>
<g id="a_edge1_Node000001_Node000002"><a xlink:title=" ">
<path fill="none" stroke="#63b8ff" d="M66.5,-74.14C66.5,-65.6 66.5,-56.65 66.5,-48.78"/>
<polygon fill="none" stroke="#63b8ff" points="63,-73.87 66.5,-83.87 70,-73.87 63,-73.87"/>
</a>
</g>
</g>
</g>
</svg>
