<?xml version="1.0" encoding="UTF-8" standalone="no"?>
<!DOCTYPE svg PUBLIC "-//W3C//DTD SVG 1.1//EN"
 "http://www.w3.org/Graphics/SVG/1.1/DTD/svg11.dtd">
<!-- Generated by graphviz version 10.0.1 (20240210.2158)
 -->
<!-- Title: _UEvalue Pages: 1 -->
<svg width="332pt" height="27pt"
 viewBox="0.00 0.00 332.00 27.25" xmlns="http://www.w3.org/2000/svg" xmlns:xlink="http://www.w3.org/1999/xlink">
<g id="graph0" class="graph" transform="scale(1 1) rotate(0) translate(4 23.25)">
<title>_UEvalue</title>
<!-- Node1 -->
<g id="Node000001" class="node">
<title>Node1</title>
<g id="a_Node000001"><a xlink:title=" ">
<polygon fill="#999999" stroke="#666666" points="324,-19.25 265.25,-19.25 265.25,0 324,0 324,-19.25"/>
<text text-anchor="middle" x="294.62" y="-5.75" font-family="Helvetica,sans-Serif" font-size="10.00">_UEvalue</text>
</a>
</g>
</g>
<!-- Node2 -->
<g id="Node000002" class="node">
<title>Node2</title>
<g id="a_Node000002"><a xlink:href="class_t_c_p_d_f.html#a98abfbdcc3f700d6601497e98b183cd5" target="_top" xlink:title=" ">
<polygon fill="white" stroke="#666666" points="229.25,-19.25 109.75,-19.25 109.75,0 229.25,0 229.25,-19.25"/>
<text text-anchor="middle" x="169.5" y="-5.75" font-family="Helvetica,sans-Serif" font-size="10.00">_generateencryptionkey</text>
</a>
</g>
</g>
<!-- Node1&#45;&gt;Node2 -->
<g id="edge1_Node000001_Node000002" class="edge">
<title>Node1&#45;&gt;Node2</title>
<g id="a_edge1_Node000001_Node000002"><a xlink:title=" ">
<path fill="none" stroke="#63b8ff" d="M253.35,-9.62C245.79,-9.62 237.73,-9.62 229.73,-9.62"/>
<polygon fill="#63b8ff" stroke="#63b8ff" points="253.24,-13.13 263.24,-9.63 253.24,-6.13 253.24,-13.13"/>
</a>
</g>
</g>
<!-- Node3 -->
<g id="Node000003" class="node">
<title>Node3</title>
<g id="a_Node000003"><a xlink:href="class_t_c_p_d_f.html#ae80b24dd5c38e2db9473cc404ad822c6" target="_top" xlink:title=" ">
<polygon fill="white" stroke="#666666" points="73.75,-19.25 0,-19.25 0,0 73.75,0 73.75,-19.25"/>
<text text-anchor="middle" x="36.88" y="-5.75" font-family="Helvetica,sans-Serif" font-size="10.00">setProtection</text>
</a>
</g>
</g>
<!-- Node2&#45;&gt;Node3 -->
<g id="edge2_Node000002_Node000003" class="edge">
<title>Node2&#45;&gt;Node3</title>
<g id="a_edge2_Node000002_Node000003"><a xlink:title=" ">
<path fill="none" stroke="#63b8ff" d="M98.01,-9.62C89.74,-9.62 81.58,-9.62 74.07,-9.62"/>
<polygon fill="#63b8ff" stroke="#63b8ff" points="97.79,-13.13 107.79,-9.63 97.79,-6.13 97.79,-13.13"/>
</a>
</g>
</g>
</g>
</svg>
