<?xml version="1.0" encoding="UTF-8" standalone="no"?>
<!DOCTYPE svg PUBLIC "-//W3C//DTD SVG 1.1//EN"
 "http://www.w3.org/Graphics/SVG/1.1/DTD/svg11.dtd">
<!-- Generated by graphviz version 10.0.1 (20240210.2158)
 -->
<!-- Title: httpPost Pages: 1 -->
<!--zoomable 183 -->

<svg id="main" version="1.1" xmlns="http://www.w3.org/2000/svg" xmlns:xlink="http://www.w3.org/1999/xlink" xml:space="preserve" onload="init(evt)">
<style type="text/css"><![CDATA[
.node, .edge {opacity: 0.7;}
.node.selected, .edge.selected {opacity: 1;}
.edge:hover path { stroke: red; }
.edge:hover polygon { stroke: red; fill: red; }
]]></style>

<defs>
  <circle id="rim" cx="0" cy="0" r="7"/>
  <circle id="rim2" cx="0" cy="0" r="3.5"/>
  <g id="zoomPlus">
    <use xlink:href="#rim" fill="#404040"><set attributeName="fill" to="#808080" begin="zoomplus.mouseover" end="zoomplus.mouseout"/></use>
    <path d="M-4,0h8M0,-4v8" fill="none" stroke="white" stroke-width="1.5" pointer-events="none"/>
  </g>
  <g id="zoomMin">
    <use xlink:href="#rim" fill="#404040"><set attributeName="fill" to="#808080" begin="zoomminus.mouseover" end="zoomminus.mouseout"/></use>
    <path d="M-4,0h8" fill="none" stroke="white" stroke-width="1.5" pointer-events="none"/>
  </g>
  <g id="arrowUp" transform="translate(30 24)">
    <use xlink:href="#rim"/>
    <path pointer-events="none" fill="none" stroke="white" stroke-width="1.5" d="M0,-3.0v7 M-2.5,-0.5L0,-3.0L2.5,-0.5"/>
  </g>
  <g id="arrowRight" transform="rotate(90) translate(36 -43)">
    <use xlink:href="#rim"/>
    <path pointer-events="none" fill="none" stroke="white" stroke-width="1.5" d="M0,-3.0v7 M-2.5,-0.5L0,-3.0L2.5,-0.5"/>
  </g>
  <g id="arrowDown" transform="rotate(180) translate(-30 -48)">
    <use xlink:href="#rim"/>
    <path pointer-events="none" fill="none" stroke="white" stroke-width="1.5" d="M0,-3.0v7 M-2.5,-0.5L0,-3.0L2.5,-0.5"/>
  </g>
  <g id="arrowLeft" transform="rotate(270) translate(-36 17)">
    <use xlink:href="#rim"/>
    <path pointer-events="none" fill="none" stroke="white" stroke-width="1.5" d="M0,-3.0v7 M-2.5,-0.5L0,-3.0L2.5,-0.5"/>
  </g>
  <g id="resetDef">
    <use xlink:href="#rim2" fill="#404040"><set attributeName="fill" to="#808080" begin="reset.mouseover" end="reset.mouseout"/></use>
  </g>
</defs>
<script type="application/ecmascript">
var viewWidth = 798;
var viewHeight = 183;
var sectionId = 'dynsection-11';
</script>
<script type="application/ecmascript" xlink:href="svg.min.js"/>
<svg id="graph" class="graph">
<g id="viewport">
<title>httpPost</title>
<!-- Node1 -->
<g id="Node000001" class="node">
<title>Node1</title>
<g id="a_Node000001"><a xlink:title=" ">
<polygon fill="#999999" stroke="#666666" points="52.75,-126.25 0,-126.25 0,-107 52.75,-107 52.75,-126.25"/>
<text text-anchor="middle" x="26.38" y="-112.75" font-family="Helvetica,sans-Serif" font-size="10.00">httpPost</text>
</a>
</g>
</g>
<!-- Node2 -->
<g id="Node000002" class="node">
<title>Node2</title>
<g id="a_Node000002"><a xlink:href="interface_sabre_1_1_h_t_t_p_1_1_message_interface.html#acb98664b303c189cc4bca69025ab598c" target="_top" xlink:title=" ">
<polygon fill="white" stroke="#666666" points="240.5,-174.88 88.75,-174.88 88.75,-144.38 240.5,-144.38 240.5,-174.88"/>
<text text-anchor="start" x="96.75" y="-161.38" font-family="Helvetica,sans-Serif" font-size="10.00">Sabre\HTTP\MessageInterface</text>
<text text-anchor="middle" x="164.62" y="-150.12" font-family="Helvetica,sans-Serif" font-size="10.00">\getHeader</text>
</a>
</g>
</g>
<!-- Node1&#45;&gt;Node2 -->
<g id="edge1_Node000001_Node000002" class="edge">
<title>Node1&#45;&gt;Node2</title>
<g id="a_edge1_Node000001_Node000002"><a xlink:title=" ">
<path fill="none" stroke="#63b8ff" d="M53,-124.71C67.17,-129.19 85.43,-134.95 103.01,-140.5"/>
<polygon fill="#63b8ff" stroke="#63b8ff" points="101.8,-143.78 112.39,-143.45 103.9,-137.11 101.8,-143.78"/>
</a>
</g>
</g>
<!-- Node3 -->
<g id="Node000003" class="node">
<title>Node3</title>
<g id="a_Node000003"><a xlink:href="interface_sabre_1_1_h_t_t_p_1_1_request_interface.html#a30c5c67b2bf8e2e2ccc7e361faa20afe" target="_top" xlink:title=" ">
<polygon fill="white" stroke="#666666" points="426.75,-134.88 278,-134.88 278,-104.38 426.75,-104.38 426.75,-134.88"/>
<text text-anchor="start" x="286" y="-121.38" font-family="Helvetica,sans-Serif" font-size="10.00">Sabre\HTTP\RequestInterface</text>
<text text-anchor="middle" x="352.38" y="-110.12" font-family="Helvetica,sans-Serif" font-size="10.00">\getPath</text>
</a>
</g>
</g>
<!-- Node1&#45;&gt;Node3 -->
<g id="edge2_Node000001_Node000003" class="edge">
<title>Node1&#45;&gt;Node3</title>
<g id="a_edge2_Node000001_Node000003"><a xlink:title=" ">
<path fill="none" stroke="#63b8ff" d="M53.07,-116.86C98.6,-117.28 195.35,-118.18 266.37,-118.84"/>
<polygon fill="#63b8ff" stroke="#63b8ff" points="265.99,-122.33 276.02,-118.93 266.05,-115.33 265.99,-122.33"/>
</a>
</g>
</g>
<!-- Node4 -->
<g id="Node000004" class="node">
<title>Node4</title>
<g id="a_Node000004"><a xlink:href="class_sabre_1_1_cal_d_a_v_1_1_schedule_1_1_plugin.html#af202c74553fec981d084bad621194cc2" target="_top" xlink:title=" ">
<polygon fill="white" stroke="#666666" points="205.62,-85.25 123.62,-85.25 123.62,-66 205.62,-66 205.62,-85.25"/>
<text text-anchor="middle" x="164.62" y="-71.75" font-family="Helvetica,sans-Serif" font-size="10.00">outboxRequest</text>
</a>
</g>
</g>
<!-- Node1&#45;&gt;Node4 -->
<g id="edge3_Node000001_Node000004" class="edge">
<title>Node1&#45;&gt;Node4</title>
<g id="a_edge3_Node000001_Node000004"><a xlink:title=" ">
<path fill="none" stroke="#63b8ff" d="M53,-108.91C71.67,-103.3 97.41,-95.55 119.37,-88.94"/>
<polygon fill="#63b8ff" stroke="#63b8ff" points="120.11,-92.38 128.67,-86.14 118.09,-85.67 120.11,-92.38"/>
</a>
</g>
</g>
<!-- Node4&#45;&gt;Node3 -->
<g id="edge5_Node000004_Node000003" class="edge">
<title>Node4&#45;&gt;Node3</title>
<g id="a_edge5_Node000004_Node000003"><a xlink:title=" ">
<path fill="none" stroke="#63b8ff" d="M205.93,-85.17C225.92,-89.91 250.75,-95.79 274.21,-101.35"/>
<polygon fill="#63b8ff" stroke="#63b8ff" points="273.21,-104.71 283.75,-103.61 274.83,-97.9 273.21,-104.71"/>
</a>
</g>
</g>
<!-- Node5 -->
<g id="Node000005" class="node">
<title>Node5</title>
<g id="a_Node000005"><a xlink:href="interface_sabre_1_1_h_t_t_p_1_1_message_interface.html#ad7bab1db052fb9fcc8bd0b4f3eac29ac" target="_top" xlink:title=" ">
<polygon fill="white" stroke="#666666" points="428.25,-85.88 276.5,-85.88 276.5,-55.38 428.25,-55.38 428.25,-85.88"/>
<text text-anchor="start" x="284.5" y="-72.38" font-family="Helvetica,sans-Serif" font-size="10.00">Sabre\HTTP\MessageInterface</text>
<text text-anchor="middle" x="352.38" y="-61.12" font-family="Helvetica,sans-Serif" font-size="10.00">\getBody</text>
</a>
</g>
</g>
<!-- Node4&#45;&gt;Node5 -->
<g id="edge4_Node000004_Node000005" class="edge">
<title>Node4&#45;&gt;Node5</title>
<g id="a_edge4_Node000004_Node000005"><a xlink:title=" ">
<path fill="none" stroke="#63b8ff" d="M205.93,-74.54C223.31,-74.07 244.34,-73.51 264.95,-72.95"/>
<polygon fill="#63b8ff" stroke="#63b8ff" points="264.92,-76.45 274.82,-72.69 264.73,-69.46 264.92,-76.45"/>
</a>
</g>
</g>
<!-- Node6 -->
<g id="Node000006" class="node">
<title>Node6</title>
<g id="a_Node000006"><a xlink:href="class_sabre_1_1_cal_d_a_v_1_1_schedule_1_1_plugin.html#acd2344c4ea2ce8d4418471613d4829ed" target="_top" xlink:title=" ">
<polygon fill="white" stroke="#666666" points="414,-37.25 290.75,-37.25 290.75,-18 414,-18 414,-37.25"/>
<text text-anchor="middle" x="352.38" y="-23.75" font-family="Helvetica,sans-Serif" font-size="10.00">handleFreeBusyRequest</text>
</a>
</g>
</g>
<!-- Node4&#45;&gt;Node6 -->
<g id="edge6_Node000004_Node000006" class="edge">
<title>Node4&#45;&gt;Node6</title>
<g id="a_edge6_Node000004_Node000006"><a xlink:title=" ">
<path fill="none" stroke="#63b8ff" d="M203.84,-65.56C225.2,-59.95 252.32,-52.86 276.5,-46.62 284.18,-44.65 292.31,-42.57 300.26,-40.54"/>
<polygon fill="#63b8ff" stroke="#63b8ff" points="301.04,-43.96 309.87,-38.1 299.32,-37.17 301.04,-43.96"/>
</a>
</g>
</g>
<!-- Node7 -->
<g id="Node000007" class="node">
<title>Node7</title>
<g id="a_Node000007"><a xlink:href="class_sabre_1_1_cal_d_a_v_1_1_schedule_1_1_plugin.html#af04b8595891a93f87cd00e7c403eeb06" target="_top" xlink:title=" ">
<polygon fill="white" stroke="#666666" points="596.12,-56.25 485.62,-56.25 485.62,-37 596.12,-37 596.12,-56.25"/>
<text text-anchor="middle" x="540.88" y="-42.75" font-family="Helvetica,sans-Serif" font-size="10.00">getFreeBusyForEmail</text>
</a>
</g>
</g>
<!-- Node6&#45;&gt;Node7 -->
<g id="edge7_Node000006_Node000007" class="edge">
<title>Node6&#45;&gt;Node7</title>
<g id="a_edge7_Node000006_Node000007"><a xlink:title=" ">
<path fill="none" stroke="#63b8ff" d="M414.44,-33.85C433.53,-35.79 454.68,-37.95 474.08,-39.92"/>
<polygon fill="#63b8ff" stroke="#63b8ff" points="473.47,-43.38 483.77,-40.91 474.18,-36.41 473.47,-43.38"/>
</a>
</g>
</g>
<!-- Node9 -->
<g id="Node000009" class="node">
<title>Node9</title>
<g id="a_Node000009"><a xlink:href="interface_sabre_1_1_d_a_v_a_c_l_1_1_i_a_c_l.html#adf7c472f5ffc30ad0aa95c63cd2b8f6c" target="_top" xlink:title=" ">
<polygon fill="white" stroke="#666666" points="617.5,-19.25 464.25,-19.25 464.25,0 617.5,0 617.5,-19.25"/>
<text text-anchor="middle" x="540.88" y="-5.75" font-family="Helvetica,sans-Serif" font-size="10.00">Sabre\DAVACL\IACL\getOwner</text>
</a>
</g>
</g>
<!-- Node6&#45;&gt;Node9 -->
<g id="edge9_Node000006_Node000009" class="edge">
<title>Node6&#45;&gt;Node9</title>
<g id="a_edge9_Node000006_Node000009"><a xlink:title=" ">
<path fill="none" stroke="#63b8ff" d="M414.44,-21.73C426.68,-20.55 439.77,-19.29 452.7,-18.04"/>
<polygon fill="#63b8ff" stroke="#63b8ff" points="452.87,-21.54 462.49,-17.09 452.2,-14.57 452.87,-21.54"/>
</a>
</g>
</g>
<!-- Node8 -->
<g id="Node000008" class="node">
<title>Node8</title>
<g id="a_Node000008"><a xlink:href="class_sabre_1_1_v_object_1_1_reader.html#a9f000f03f29caaed1fa635d67ad0cd1b" target="_top" xlink:title=" ">
<polygon fill="white" stroke="#666666" points="789.5,-56.25 653.5,-56.25 653.5,-37 789.5,-37 789.5,-56.25"/>
<text text-anchor="middle" x="721.5" y="-42.75" font-family="Helvetica,sans-Serif" font-size="10.00">Sabre\VObject\Reader\read</text>
</a>
</g>
</g>
<!-- Node7&#45;&gt;Node8 -->
<g id="edge8_Node000007_Node000008" class="edge">
<title>Node7&#45;&gt;Node8</title>
<g id="a_edge8_Node000007_Node000008"><a xlink:title=" ">
<path fill="none" stroke="#63b8ff" d="M596.44,-46.62C610.8,-46.62 626.59,-46.62 641.95,-46.62"/>
<polygon fill="#63b8ff" stroke="#63b8ff" points="641.51,-50.13 651.51,-46.63 641.51,-43.13 641.51,-50.13"/>
</a>
</g>
</g>
</g>
</svg>

<g id="navigator" transform="translate(0 0)" fill="#404254">
  <rect fill="#f2f5e9" fill-opacity="0.5" stroke="#606060" stroke-width=".5" x="0" y="0" width="60" height="60"/>
  <use id="zoomplus" xlink:href="#zoomPlus" x="17" y="9" onmousedown="handleZoom(evt,'in')"/>
  <use id="zoomminus" xlink:href="#zoomMin" x="42" y="9" onmousedown="handleZoom(evt,'out')"/>
  <use id="reset" xlink:href="#resetDef" x="30" y="36" onmousedown="handleReset()"/>
   <use id="arrowup" xlink:href="#arrowUp" x="0" y="0" onmousedown="handlePan(0,-1)"/>
  <use id="arrowright" xlink:href="#arrowRight" x="0" y="0" onmousedown="handlePan(1,0)"/>
  <use id="arrowdown" xlink:href="#arrowDown" x="0" y="0" onmousedown="handlePan(0,1)"/>
  <use id="arrowleft" xlink:href="#arrowLeft" x="0" y="0" onmousedown="handlePan(-1,0)"/>
</g>
<svg viewBox="0 0 15 15" width="100%" height="30px" preserveAspectRatio="xMaxYMin meet">
 <g id="arrow_out" transform="scale(0.3 0.3)">
  <a xlink:href="class_sabre_1_1_cal_d_a_v_1_1_schedule_1_1_plugin_a841a35fdc900f9d847362fcd6a362507_cgraph_org.svg" target="_base">
   <rect id="button" ry="5" rx="5" y="6" x="6" height="38" width="38"
        fill="#f2f5e9" fill-opacity="0.5" stroke="#606060" stroke-width="1.0"/>
   <path id="arrow"
     d="M 11.500037,31.436501 C 11.940474,20.09759 22.043105,11.32322 32.158766,21.979434 L 37.068811,17.246167 C 37.068811,17.246167 37.088388,32 37.088388,32 L 22.160133,31.978069 C 22.160133,31.978069 26.997745,27.140456 26.997745,27.140456 C 18.528582,18.264221 13.291696,25.230495 11.500037,31.436501 z"
     style="fill:#404040;"/>
  </a>
 </g>
</svg>

<style type='text/css'>
<![CDATA[
[data-mouse-over-selected='false'] { opacity: 0.7; }
[data-mouse-over-selected='true']  { opacity: 1.0; }
]]>
</style>
<script type="application/ecmascript"><![CDATA[
document.addEventListener('DOMContentLoaded', (event) => {
  highlightEdges();
  highlightAdjacentNodes();
});
]]></script>
</svg>
