<?xml version="1.0" encoding="UTF-8" standalone="no"?>
<!DOCTYPE svg PUBLIC "-//W3C//DTD SVG 1.1//EN"
 "http://www.w3.org/Graphics/SVG/1.1/DTD/svg11.dtd">
<!-- Generated by graphviz version 10.0.1 (20240210.2158)
 -->
<!-- Title: GelfMessageFormatter Pages: 1 -->
<svg width="171pt" height="745pt"
 viewBox="0.00 0.00 171.00 745.00" xmlns="http://www.w3.org/2000/svg" xmlns:xlink="http://www.w3.org/1999/xlink">
<g id="graph0" class="graph" transform="scale(1 1) rotate(0) translate(4 741)">
<title>GelfMessageFormatter</title>
<!-- Node1 -->
<g id="Node000001" class="node">
<title>Node1</title>
<g id="a_Node000001"><a xlink:title=" ">
<polygon fill="#999999" stroke="none" points="163,-154 0,-154 0,0 163,0 163,-154"/>
<text text-anchor="start" x="31.62" y="-140.5" font-family="Helvetica,sans-Serif" font-size="10.00">GelfMessageFormatter</text>
<text text-anchor="start" x="4.38" y="-125.5" font-family="Helvetica,sans-Serif" font-size="10.00">#</text>
<text text-anchor="start" x="14" y="-125.5" font-family="Helvetica,sans-Serif" font-size="10.00">const DEFAULT_MAX_LENGTH</text>
<text text-anchor="start" x="4.38" y="-110.5" font-family="Helvetica,sans-Serif" font-size="10.00">#</text>
<text text-anchor="start" x="14" y="-110.5" font-family="Helvetica,sans-Serif" font-size="10.00">$systemName</text>
<text text-anchor="start" x="4.38" y="-95.5" font-family="Helvetica,sans-Serif" font-size="10.00">#</text>
<text text-anchor="start" x="14" y="-95.5" font-family="Helvetica,sans-Serif" font-size="10.00">$extraPrefix</text>
<text text-anchor="start" x="4.38" y="-80.5" font-family="Helvetica,sans-Serif" font-size="10.00">#</text>
<text text-anchor="start" x="14" y="-80.5" font-family="Helvetica,sans-Serif" font-size="10.00">$contextPrefix</text>
<text text-anchor="start" x="4.38" y="-65.5" font-family="Helvetica,sans-Serif" font-size="10.00">#</text>
<text text-anchor="start" x="14" y="-65.5" font-family="Helvetica,sans-Serif" font-size="10.00">$maxLength</text>
<text text-anchor="start" x="4" y="-50.5" font-family="Helvetica,sans-Serif" font-size="10.00">+</text>
<text text-anchor="start" x="14" y="-50.5" font-family="Helvetica,sans-Serif" font-size="10.00">__construct(?string</text>
<text text-anchor="start" x="14" y="-39.25" font-family="Helvetica,sans-Serif" font-size="10.00"> $systemName=null, ?string</text>
<text text-anchor="start" x="14" y="-28" font-family="Helvetica,sans-Serif" font-size="10.00"> $extraPrefix=null, string</text>
<text text-anchor="start" x="14" y="-16.75" font-family="Helvetica,sans-Serif" font-size="10.00"> $contextPrefix=&#39;ctxt_&#39;, ?int</text>
<text text-anchor="start" x="14" y="-5.5" font-family="Helvetica,sans-Serif" font-size="10.00"> $maxLength=null)</text>
<polygon fill="#666666" stroke="#666666" points="0,-137 0,-137 163,-137 163,-137 0,-137"/>
<polygon fill="#666666" stroke="#666666" points="0,-62 0,-62 12,-62 12,-62 0,-62"/>
<polygon fill="#666666" stroke="#666666" points="12,-62 12,-62 163,-62 163,-62 12,-62"/>
<polygon fill="none" stroke="#666666" points="0,0 0,-154 163,-154 163,0 0,0"/>
</a>
</g>
</g>
<!-- Node2 -->
<g id="Node000002" class="node">
<title>Node2</title>
<g id="a_Node000002"><a xlink:href="class_monolog_1_1_formatter_1_1_normalizer_formatter.html" target="_top" xlink:title=" ">
<polygon fill="white" stroke="none" points="158,-626 5,-626 5,-190 158,-190 158,-626"/>
<text text-anchor="start" x="36.88" y="-612.5" font-family="Helvetica,sans-Serif" font-size="10.00">NormalizerFormatter</text>
<text text-anchor="start" x="9" y="-597.5" font-family="Helvetica,sans-Serif" font-size="10.00">+</text>
<text text-anchor="start" x="19" y="-597.5" font-family="Helvetica,sans-Serif" font-size="10.00">const SIMPLE_DATE</text>
<text text-anchor="start" x="9.38" y="-582.5" font-family="Helvetica,sans-Serif" font-size="10.00">#</text>
<text text-anchor="start" x="19" y="-582.5" font-family="Helvetica,sans-Serif" font-size="10.00">$dateFormat</text>
<text text-anchor="start" x="9.38" y="-567.5" font-family="Helvetica,sans-Serif" font-size="10.00">#</text>
<text text-anchor="start" x="19" y="-567.5" font-family="Helvetica,sans-Serif" font-size="10.00">$maxNormalizeDepth</text>
<text text-anchor="start" x="9.38" y="-552.5" font-family="Helvetica,sans-Serif" font-size="10.00">#</text>
<text text-anchor="start" x="19" y="-552.5" font-family="Helvetica,sans-Serif" font-size="10.00">$maxNormalizeItemCount</text>
<text text-anchor="start" x="9" y="-537.5" font-family="Helvetica,sans-Serif" font-size="10.00">+</text>
<text text-anchor="start" x="19" y="-537.5" font-family="Helvetica,sans-Serif" font-size="10.00">__construct(?string</text>
<text text-anchor="start" x="19" y="-526.25" font-family="Helvetica,sans-Serif" font-size="10.00"> $dateFormat=null)</text>
<text text-anchor="start" x="9" y="-511.5" font-family="Helvetica,sans-Serif" font-size="10.00">+</text>
<text text-anchor="start" x="19" y="-511.5" font-family="Helvetica,sans-Serif" font-size="10.00">format(array $record)</text>
<text text-anchor="start" x="9" y="-496.5" font-family="Helvetica,sans-Serif" font-size="10.00">+</text>
<text text-anchor="start" x="19" y="-496.5" font-family="Helvetica,sans-Serif" font-size="10.00">formatBatch(array</text>
<text text-anchor="start" x="19" y="-485.25" font-family="Helvetica,sans-Serif" font-size="10.00"> $records)</text>
<text text-anchor="start" x="9" y="-470.5" font-family="Helvetica,sans-Serif" font-size="10.00">+</text>
<text text-anchor="start" x="19" y="-470.5" font-family="Helvetica,sans-Serif" font-size="10.00">getDateFormat()</text>
<text text-anchor="start" x="9" y="-455.5" font-family="Helvetica,sans-Serif" font-size="10.00">+</text>
<text text-anchor="start" x="19" y="-455.5" font-family="Helvetica,sans-Serif" font-size="10.00">setDateFormat(string</text>
<text text-anchor="start" x="19" y="-444.25" font-family="Helvetica,sans-Serif" font-size="10.00"> $dateFormat)</text>
<text text-anchor="start" x="9" y="-429.5" font-family="Helvetica,sans-Serif" font-size="10.00">+</text>
<text text-anchor="start" x="19" y="-429.5" font-family="Helvetica,sans-Serif" font-size="10.00">getMaxNormalizeDepth()</text>
<text text-anchor="start" x="9" y="-414.5" font-family="Helvetica,sans-Serif" font-size="10.00">+</text>
<text text-anchor="start" x="19" y="-414.5" font-family="Helvetica,sans-Serif" font-size="10.00">setMaxNormalizeDepth</text>
<text text-anchor="start" x="19" y="-403.25" font-family="Helvetica,sans-Serif" font-size="10.00">(int $maxNormalizeDepth)</text>
<text text-anchor="start" x="9" y="-388.5" font-family="Helvetica,sans-Serif" font-size="10.00">+</text>
<text text-anchor="start" x="19" y="-388.5" font-family="Helvetica,sans-Serif" font-size="10.00">getMaxNormalizeItemCount()</text>
<text text-anchor="start" x="9" y="-373.5" font-family="Helvetica,sans-Serif" font-size="10.00">+</text>
<text text-anchor="start" x="19" y="-373.5" font-family="Helvetica,sans-Serif" font-size="10.00">setMaxNormalizeItemCount</text>
<text text-anchor="start" x="19" y="-362.25" font-family="Helvetica,sans-Serif" font-size="10.00">(int $maxNormalizeItemCount)</text>
<text text-anchor="start" x="9" y="-347.5" font-family="Helvetica,sans-Serif" font-size="10.00">+</text>
<text text-anchor="start" x="19" y="-347.5" font-family="Helvetica,sans-Serif" font-size="10.00">setJsonPrettyPrint</text>
<text text-anchor="start" x="19" y="-336.25" font-family="Helvetica,sans-Serif" font-size="10.00">(bool $enable)</text>
<text text-anchor="start" x="9" y="-321.5" font-family="Helvetica,sans-Serif" font-size="10.00">+</text>
<text text-anchor="start" x="19" y="-321.5" font-family="Helvetica,sans-Serif" font-size="10.00">addJsonEncodeOption</text>
<text text-anchor="start" x="19" y="-310.25" font-family="Helvetica,sans-Serif" font-size="10.00">(int $option)</text>
<text text-anchor="start" x="9" y="-295.5" font-family="Helvetica,sans-Serif" font-size="10.00">+</text>
<text text-anchor="start" x="19" y="-295.5" font-family="Helvetica,sans-Serif" font-size="10.00">removeJsonEncodeOption</text>
<text text-anchor="start" x="19" y="-284.25" font-family="Helvetica,sans-Serif" font-size="10.00">(int $option)</text>
<text text-anchor="start" x="9.38" y="-269.5" font-family="Helvetica,sans-Serif" font-size="10.00">#</text>
<text text-anchor="start" x="19" y="-269.5" font-family="Helvetica,sans-Serif" font-size="10.00">normalizeException</text>
<text text-anchor="start" x="19" y="-258.25" font-family="Helvetica,sans-Serif" font-size="10.00">(Throwable $e, int </text>
<text text-anchor="start" x="19" y="-247" font-family="Helvetica,sans-Serif" font-size="10.00">$depth=0)</text>
<text text-anchor="start" x="9.38" y="-232.5" font-family="Helvetica,sans-Serif" font-size="10.00">#</text>
<text text-anchor="start" x="19" y="-232.5" font-family="Helvetica,sans-Serif" font-size="10.00">toJson($data, bool</text>
<text text-anchor="start" x="19" y="-221.25" font-family="Helvetica,sans-Serif" font-size="10.00"> $ignoreErrors=false)</text>
<text text-anchor="start" x="9.38" y="-206.5" font-family="Helvetica,sans-Serif" font-size="10.00">#</text>
<text text-anchor="start" x="19" y="-206.5" font-family="Helvetica,sans-Serif" font-size="10.00">formatDate(\DateTimeInterface</text>
<text text-anchor="start" x="19" y="-195.25" font-family="Helvetica,sans-Serif" font-size="10.00"> $date)</text>
<polygon fill="#666666" stroke="#666666" points="5,-609 5,-609 158,-609 158,-609 5,-609"/>
<polygon fill="#666666" stroke="#666666" points="5,-549 5,-549 17,-549 17,-549 5,-549"/>
<polygon fill="#666666" stroke="#666666" points="17,-549 17,-549 158,-549 158,-549 17,-549"/>
<polygon fill="none" stroke="#666666" points="5,-190 5,-626 158,-626 158,-190 5,-190"/>
</a>
</g>
</g>
<!-- Node2&#45;&gt;Node1 -->
<g id="edge1_Node000001_Node000002" class="edge">
<title>Node2&#45;&gt;Node1</title>
<g id="a_edge1_Node000001_Node000002"><a xlink:title=" ">
<path fill="none" stroke="#63b8ff" d="M81.5,-179.08C81.5,-170.33 81.5,-161.86 81.5,-153.8"/>
<polygon fill="none" stroke="#63b8ff" points="78,-178.79 81.5,-188.79 85,-178.79 78,-178.79"/>
</a>
</g>
</g>
<!-- Node3 -->
<g id="Node000003" class="node">
<title>Node3</title>
<g id="a_Node000003"><a xlink:href="interface_monolog_1_1_formatter_1_1_formatter_interface.html" target="_top" xlink:title=" ">
<polygon fill="white" stroke="none" points="135.5,-737 27.5,-737 27.5,-662 135.5,-662 135.5,-737"/>
<text text-anchor="start" x="41.38" y="-723.5" font-family="Helvetica,sans-Serif" font-size="10.00">FormatterInterface</text>
<text text-anchor="start" x="80" y="-708.5" font-family="Helvetica,sans-Serif" font-size="10.00"> </text>
<text text-anchor="start" x="31.5" y="-693.5" font-family="Helvetica,sans-Serif" font-size="10.00">+</text>
<text text-anchor="start" x="41.5" y="-693.5" font-family="Helvetica,sans-Serif" font-size="10.00">format(array $record)</text>
<text text-anchor="start" x="31.5" y="-678.5" font-family="Helvetica,sans-Serif" font-size="10.00">+</text>
<text text-anchor="start" x="41.5" y="-678.5" font-family="Helvetica,sans-Serif" font-size="10.00">formatBatch(array</text>
<text text-anchor="start" x="41.5" y="-667.25" font-family="Helvetica,sans-Serif" font-size="10.00"> $records)</text>
<polygon fill="#666666" stroke="#666666" points="27.5,-720 27.5,-720 135.5,-720 135.5,-720 27.5,-720"/>
<polygon fill="#666666" stroke="#666666" points="27.5,-705 27.5,-705 135.5,-705 135.5,-705 27.5,-705"/>
<polygon fill="none" stroke="#666666" points="27.5,-662 27.5,-737 135.5,-737 135.5,-662 27.5,-662"/>
</a>
</g>
</g>
<!-- Node3&#45;&gt;Node2 -->
<g id="edge2_Node000002_Node000003" class="edge">
<title>Node3&#45;&gt;Node2</title>
<g id="a_edge2_Node000002_Node000003"><a xlink:title=" ">
<path fill="none" stroke="#63b8ff" d="M81.5,-650.63C81.5,-642.95 81.5,-634.59 81.5,-625.75"/>
<polygon fill="none" stroke="#63b8ff" points="78,-650.61 81.5,-660.61 85,-650.61 78,-650.61"/>
</a>
</g>
</g>
</g>
</svg>
