<?xml version="1.0" encoding="UTF-8" standalone="no"?>
<!DOCTYPE svg PUBLIC "-//W3C//DTD SVG 1.1//EN"
 "http://www.w3.org/Graphics/SVG/1.1/DTD/svg11.dtd">
<!-- Generated by graphviz version 10.0.1 (20240210.2158)
 -->
<!-- Title: doDisplay Pages: 1 -->
<svg width="436pt" height="384pt"
 viewBox="0.00 0.00 435.50 383.88" xmlns="http://www.w3.org/2000/svg" xmlns:xlink="http://www.w3.org/1999/xlink">
<g id="graph0" class="graph" transform="scale(1 1) rotate(0) translate(4 379.88)">
<title>doDisplay</title>
<!-- Node1 -->
<g id="Node000001" class="node">
<title>Node1</title>
<g id="a_Node000001"><a xlink:title=" ">
<polygon fill="#999999" stroke="#666666" points="59.5,-245.88 0,-245.88 0,-226.62 59.5,-226.62 59.5,-245.88"/>
<text text-anchor="middle" x="29.75" y="-232.38" font-family="Helvetica,sans-Serif" font-size="10.00">doDisplay</text>
</a>
</g>
</g>
<!-- Node2 -->
<g id="Node000002" class="node">
<title>Node2</title>
<g id="a_Node000002"><a xlink:href="_core_extension_8php.html#adf5ce5c7b07db84385ba1338e106fc3b" target="_top" xlink:title=" ">
<polygon fill="white" stroke="#666666" points="214.25,-375.88 116.5,-375.88 116.5,-356.62 214.25,-356.62 214.25,-375.88"/>
<text text-anchor="middle" x="165.38" y="-362.38" font-family="Helvetica,sans-Serif" font-size="10.00">_twig_default_filter</text>
</a>
</g>
</g>
<!-- Node1&#45;&gt;Node2 -->
<g id="edge1_Node000001_Node000002" class="edge">
<title>Node1&#45;&gt;Node2</title>
<g id="a_edge1_Node000001_Node000002"><a xlink:title=" ">
<path fill="none" stroke="#63b8ff" d="M33.56,-246.08C40.35,-267.98 59.77,-321.02 95.5,-348.25 98.64,-350.64 102.07,-352.72 105.67,-354.52"/>
<polygon fill="#63b8ff" stroke="#63b8ff" points="104.19,-357.7 114.77,-358.32 106.89,-351.24 104.19,-357.7"/>
</a>
</g>
</g>
<!-- Node4 -->
<g id="Node000004" class="node">
<title>Node4</title>
<g id="a_Node000004"><a xlink:href="class_____twig_template__3f4bcb301d7f290179ecf197ab1b0efc.html#a38152512ea69c5f598112d1e1064e4b5" target="_top" xlink:title=" ">
<polygon fill="white" stroke="#666666" points="212.75,-338.88 118,-338.88 118,-319.62 212.75,-319.62 212.75,-338.88"/>
<text text-anchor="middle" x="165.38" y="-325.38" font-family="Helvetica,sans-Serif" font-size="10.00">getSourceContext</text>
</a>
</g>
</g>
<!-- Node1&#45;&gt;Node4 -->
<g id="edge3_Node000001_Node000004" class="edge">
<title>Node1&#45;&gt;Node4</title>
<g id="a_edge3_Node000001_Node000004"><a xlink:title=" ">
<path fill="none" stroke="#63b8ff" d="M36.53,-246.21C46.47,-262.41 68.34,-294.33 95.5,-311.25 99.07,-313.47 102.9,-315.42 106.87,-317.13"/>
<polygon fill="#63b8ff" stroke="#63b8ff" points="105.58,-320.39 116.17,-320.59 108.02,-313.82 105.58,-320.39"/>
</a>
</g>
</g>
<!-- Node5 -->
<g id="Node000005" class="node">
<title>Node5</title>
<g id="a_Node000005"><a xlink:href="class_twig_1_1_template.html#a838c5ee902977925f3ed5872570053b9" target="_top" xlink:title=" ">
<polygon fill="white" stroke="#666666" points="235.25,-301.88 95.5,-301.88 95.5,-282.62 235.25,-282.62 235.25,-301.88"/>
<text text-anchor="middle" x="165.38" y="-288.38" font-family="Helvetica,sans-Serif" font-size="10.00">Twig\Template\loadTemplate</text>
</a>
</g>
</g>
<!-- Node1&#45;&gt;Node5 -->
<g id="edge4_Node000001_Node000005" class="edge">
<title>Node1&#45;&gt;Node5</title>
<g id="a_edge4_Node000001_Node000005"><a xlink:title=" ">
<path fill="none" stroke="#63b8ff" d="M45.07,-246.21C57.8,-254.69 77.2,-266.66 95.5,-274.25 99.5,-275.91 103.69,-277.45 107.94,-278.87"/>
<polygon fill="#63b8ff" stroke="#63b8ff" points="106.56,-282.11 117.15,-281.73 108.63,-275.42 106.56,-282.11"/>
</a>
</g>
</g>
<!-- Node6 -->
<g id="Node000006" class="node">
<title>Node6</title>
<g id="a_Node000006"><a xlink:href="_core_extension_8php.html#a2d50d273b88123237405a3388a6012a5" target="_top" xlink:title=" ">
<polygon fill="white" stroke="#666666" points="212,-264.88 118.75,-264.88 118.75,-245.62 212,-245.62 212,-264.88"/>
<text text-anchor="middle" x="165.38" y="-251.38" font-family="Helvetica,sans-Serif" font-size="10.00">twig_array_merge</text>
</a>
</g>
</g>
<!-- Node1&#45;&gt;Node6 -->
<g id="edge5_Node000001_Node000006" class="edge">
<title>Node1&#45;&gt;Node6</title>
<g id="a_edge5_Node000001_Node000006"><a xlink:title=" ">
<path fill="none" stroke="#63b8ff" d="M59.74,-240.37C73.65,-242.35 90.82,-244.79 107.2,-247.12"/>
<polygon fill="#63b8ff" stroke="#63b8ff" points="106.47,-250.55 116.86,-248.49 107.45,-243.62 106.47,-250.55"/>
</a>
</g>
</g>
<!-- Node8 -->
<g id="Node000008" class="node">
<title>Node8</title>
<g id="a_Node000008"><a xlink:href="_core_extension_8php.html#a01c03508433819ad3d9b5afd9ba53193" target="_top" xlink:title=" ">
<polygon fill="white" stroke="#666666" points="208.62,-227.88 122.12,-227.88 122.12,-208.62 208.62,-208.62 208.62,-227.88"/>
<text text-anchor="middle" x="165.38" y="-214.38" font-family="Helvetica,sans-Serif" font-size="10.00">twig_call_macro</text>
</a>
</g>
</g>
<!-- Node1&#45;&gt;Node8 -->
<g id="edge7_Node000001_Node000008" class="edge">
<title>Node1&#45;&gt;Node8</title>
<g id="a_edge7_Node000001_Node000008"><a xlink:title=" ">
<path fill="none" stroke="#63b8ff" d="M59.74,-232.34C74.6,-230.34 93.19,-227.84 110.55,-225.5"/>
<polygon fill="#63b8ff" stroke="#63b8ff" points="110.79,-229 120.23,-224.2 109.86,-222.06 110.79,-229"/>
</a>
</g>
</g>
<!-- Node9 -->
<g id="Node000009" class="node">
<title>Node9</title>
<g id="a_Node000009"><a xlink:href="_escaper_extension_8php.html#aabeb5b51fb981707d997d1c588d7c509" target="_top" xlink:title=" ">
<polygon fill="white" stroke="#666666" points="212.75,-190.88 118,-190.88 118,-171.62 212.75,-171.62 212.75,-190.88"/>
<text text-anchor="middle" x="165.38" y="-177.38" font-family="Helvetica,sans-Serif" font-size="10.00">twig_escape_filter</text>
</a>
</g>
</g>
<!-- Node1&#45;&gt;Node9 -->
<g id="edge8_Node000001_Node000009" class="edge">
<title>Node1&#45;&gt;Node9</title>
<g id="a_edge8_Node000001_Node000009"><a xlink:title=" ">
<path fill="none" stroke="#63b8ff" d="M45.61,-226.25C58.38,-218.03 77.52,-206.59 95.5,-199.25 99.57,-197.59 103.83,-196.04 108.16,-194.61"/>
<polygon fill="#63b8ff" stroke="#63b8ff" points="109.01,-198.02 117.54,-191.73 106.95,-191.32 109.01,-198.02"/>
</a>
</g>
</g>
<!-- Node13 -->
<g id="Node000013" class="node">
<title>Node13</title>
<g id="a_Node000013"><a xlink:href="_core_extension_8php.html#aeb74e277ae38926f0b4c91f83c580705" target="_top" xlink:title=" ">
<polygon fill="white" stroke="#666666" points="212,-153.88 118.75,-153.88 118.75,-134.62 212,-134.62 212,-153.88"/>
<text text-anchor="middle" x="165.38" y="-140.38" font-family="Helvetica,sans-Serif" font-size="10.00">twig_get_attribute</text>
</a>
</g>
</g>
<!-- Node1&#45;&gt;Node13 -->
<g id="edge12_Node000001_Node000013" class="edge">
<title>Node1&#45;&gt;Node13</title>
<g id="a_edge12_Node000001_Node000013"><a xlink:title=" ">
<path fill="none" stroke="#63b8ff" d="M36.73,-226.16C46.79,-210.11 68.64,-178.86 95.5,-162.25 99.29,-159.9 103.39,-157.86 107.62,-156.08"/>
<polygon fill="#63b8ff" stroke="#63b8ff" points="108.71,-159.41 116.92,-152.71 106.32,-152.83 108.71,-159.41"/>
</a>
</g>
</g>
<!-- Node15 -->
<g id="Node000015" class="node">
<title>Node15</title>
<g id="a_Node000015"><a xlink:href="_core_extension_8php.html#a4505cf4718aff71887e0160fa1f15493" target="_top" xlink:title=" ">
<polygon fill="white" stroke="#666666" points="200.38,-92.88 130.38,-92.88 130.38,-73.62 200.38,-73.62 200.38,-92.88"/>
<text text-anchor="middle" x="165.38" y="-79.38" font-family="Helvetica,sans-Serif" font-size="10.00">twig_include</text>
</a>
</g>
</g>
<!-- Node1&#45;&gt;Node15 -->
<g id="edge15_Node000001_Node000015" class="edge">
<title>Node1&#45;&gt;Node15</title>
<g id="a_edge15_Node000001_Node000015"><a xlink:title=" ">
<path fill="none" stroke="#63b8ff" d="M34.58,-226.28C42.97,-205.45 64.73,-156.63 95.5,-125.25 105.92,-114.63 119.55,-105.59 131.94,-98.64"/>
<polygon fill="#63b8ff" stroke="#63b8ff" points="133.43,-101.82 140.62,-94.03 130.14,-95.64 133.43,-101.82"/>
</a>
</g>
</g>
<!-- Node3 -->
<g id="Node000003" class="node">
<title>Node3</title>
<g id="a_Node000003"><a xlink:href="_core_extension_8php.html#ac345ab6a3d1194b2ac8ed45b678f9756" target="_top" xlink:title=" ">
<polygon fill="white" stroke="#666666" points="393.38,-375.88 305.38,-375.88 305.38,-356.62 393.38,-356.62 393.38,-375.88"/>
<text text-anchor="middle" x="349.38" y="-362.38" font-family="Helvetica,sans-Serif" font-size="10.00">twig_test_empty</text>
</a>
</g>
</g>
<!-- Node2&#45;&gt;Node3 -->
<g id="edge2_Node000002_Node000003" class="edge">
<title>Node2&#45;&gt;Node3</title>
<g id="a_edge2_Node000002_Node000003"><a xlink:title=" ">
<path fill="none" stroke="#63b8ff" d="M214.67,-366.25C239.05,-366.25 268.73,-366.25 293.92,-366.25"/>
<polygon fill="#63b8ff" stroke="#63b8ff" points="293.63,-369.75 303.63,-366.25 293.63,-362.75 293.63,-369.75"/>
</a>
</g>
</g>
<!-- Node7 -->
<g id="Node000007" class="node">
<title>Node7</title>
<g id="a_Node000007"><a xlink:href="_core_extension_8php.html#add6085b705776ea6e84cec0f1f6c6e8b" target="_top" xlink:title=" ">
<polygon fill="white" stroke="#666666" points="386.62,-264.88 312.12,-264.88 312.12,-245.62 386.62,-245.62 386.62,-264.88"/>
<text text-anchor="middle" x="349.38" y="-251.38" font-family="Helvetica,sans-Serif" font-size="10.00">twig_to_array</text>
</a>
</g>
</g>
<!-- Node6&#45;&gt;Node7 -->
<g id="edge6_Node000006_Node000007" class="edge">
<title>Node6&#45;&gt;Node7</title>
<g id="a_edge6_Node000006_Node000007"><a xlink:title=" ">
<path fill="none" stroke="#63b8ff" d="M212.3,-255.25C239.21,-255.25 273.14,-255.25 300.4,-255.25"/>
<polygon fill="#63b8ff" stroke="#63b8ff" points="300.11,-258.75 310.11,-255.25 300.11,-251.75 300.11,-258.75"/>
</a>
</g>
</g>
<!-- Node10 -->
<g id="Node000010" class="node">
<title>Node10</title>
<g id="a_Node000010"><a xlink:href="class_twig_1_1_environment.html#abca2d528da8311b6fcfe040768cbaa24" target="_top" xlink:title=" ">
<polygon fill="white" stroke="#666666" points="421.88,-227.88 276.88,-227.88 276.88,-208.62 421.88,-208.62 421.88,-227.88"/>
<text text-anchor="middle" x="349.38" y="-214.38" font-family="Helvetica,sans-Serif" font-size="10.00">Twig\Environment\getCharset</text>
</a>
</g>
</g>
<!-- Node9&#45;&gt;Node10 -->
<g id="edge9_Node000009_Node000010" class="edge">
<title>Node9&#45;&gt;Node10</title>
<g id="a_edge9_Node000009_Node000010"><a xlink:title=" ">
<path fill="none" stroke="#63b8ff" d="M213.24,-190.78C235.88,-195.38 263.33,-200.96 287.56,-205.89"/>
<polygon fill="#63b8ff" stroke="#63b8ff" points="286.82,-209.31 297.32,-207.87 288.21,-202.45 286.82,-209.31"/>
</a>
</g>
</g>
<!-- Node11 -->
<g id="Node000011" class="node">
<title>Node11</title>
<g id="a_Node000011"><a xlink:href="class_twig_1_1_environment.html#a5023c2a5ed30e298f55126721092f13d" target="_top" xlink:title=" ">
<polygon fill="white" stroke="#666666" points="426.38,-153.88 272.38,-153.88 272.38,-134.62 426.38,-134.62 426.38,-153.88"/>
<text text-anchor="middle" x="349.38" y="-140.38" font-family="Helvetica,sans-Serif" font-size="10.00">Twig\Environment\getExtension</text>
</a>
</g>
</g>
<!-- Node9&#45;&gt;Node11 -->
<g id="edge10_Node000009_Node000011" class="edge">
<title>Node9&#45;&gt;Node11</title>
<g id="a_edge10_Node000009_Node000011"><a xlink:title=" ">
<path fill="none" stroke="#63b8ff" d="M213.24,-171.72C235.88,-167.12 263.33,-161.54 287.56,-156.61"/>
<polygon fill="#63b8ff" stroke="#63b8ff" points="288.21,-160.05 297.32,-154.63 286.82,-153.19 288.21,-160.05"/>
</a>
</g>
</g>
<!-- Node12 -->
<g id="Node000012" class="node">
<title>Node12</title>
<g id="a_Node000012"><a xlink:href="_core_extension_8php.html#ae288325a1d8fc4e036d1e828d7fac1f6" target="_top" xlink:title=" ">
<polygon fill="white" stroke="#666666" points="407.25,-190.88 291.5,-190.88 291.5,-171.62 407.25,-171.62 407.25,-190.88"/>
<text text-anchor="middle" x="349.38" y="-177.38" font-family="Helvetica,sans-Serif" font-size="10.00">twig_convert_encoding</text>
</a>
</g>
</g>
<!-- Node9&#45;&gt;Node12 -->
<g id="edge11_Node000009_Node000012" class="edge">
<title>Node9&#45;&gt;Node12</title>
<g id="a_edge11_Node000009_Node000012"><a xlink:title=" ">
<path fill="none" stroke="#63b8ff" d="M213.24,-181.25C233.51,-181.25 257.64,-181.25 279.86,-181.25"/>
<polygon fill="#63b8ff" stroke="#63b8ff" points="279.76,-184.75 289.76,-181.25 279.76,-177.75 279.76,-184.75"/>
</a>
</g>
</g>
<!-- Node13&#45;&gt;Node11 -->
<g id="edge13_Node000013_Node000011" class="edge">
<title>Node13&#45;&gt;Node11</title>
<g id="a_edge13_Node000013_Node000011"><a xlink:title=" ">
<path fill="none" stroke="#63b8ff" d="M212.3,-144.25C227.02,-144.25 243.84,-144.25 260.52,-144.25"/>
<polygon fill="#63b8ff" stroke="#63b8ff" points="260.5,-147.75 270.5,-144.25 260.5,-140.75 260.5,-147.75"/>
</a>
</g>
</g>
<!-- Node14 -->
<g id="Node000014" class="node">
<title>Node14</title>
<g id="a_Node000014"><a xlink:href="class_twig_1_1_environment.html#ab39d5897ee5022ecc92032d769b9c60c" target="_top" xlink:title=" ">
<polygon fill="white" stroke="#666666" points="413.25,-116.5 285.5,-116.5 285.5,-86 413.25,-86 413.25,-116.5"/>
<text text-anchor="start" x="293.5" y="-103" font-family="Helvetica,sans-Serif" font-size="10.00">Twig\Environment\isStrict</text>
<text text-anchor="middle" x="349.38" y="-91.75" font-family="Helvetica,sans-Serif" font-size="10.00">Variables</text>
</a>
</g>
</g>
<!-- Node13&#45;&gt;Node14 -->
<g id="edge14_Node000013_Node000014" class="edge">
<title>Node13&#45;&gt;Node14</title>
<g id="a_edge14_Node000013_Node000014"><a xlink:title=" ">
<path fill="none" stroke="#63b8ff" d="M209.05,-134.17C228.46,-129.58 252.01,-124.02 274.18,-118.78"/>
<polygon fill="#63b8ff" stroke="#63b8ff" points="274.87,-122.21 283.8,-116.51 273.26,-115.4 274.87,-122.21"/>
</a>
</g>
</g>
<!-- Node15&#45;&gt;Node11 -->
<g id="edge16_Node000015_Node000011" class="edge">
<title>Node15&#45;&gt;Node11</title>
<g id="a_edge16_Node000015_Node000011"><a xlink:title=" ">
<path fill="none" stroke="#63b8ff" d="M188.95,-93.36C209.97,-102.51 242.31,-115.94 271.25,-125.25 277.88,-127.38 284.9,-129.42 291.9,-131.3"/>
<polygon fill="#63b8ff" stroke="#63b8ff" points="290.79,-134.63 301.35,-133.76 292.55,-127.86 290.79,-134.63"/>
</a>
</g>
</g>
<!-- Node16 -->
<g id="Node000016" class="node">
<title>Node16</title>
<g id="a_Node000016"><a xlink:href="class_twig_1_1_environment.html#ab0312781e1ea827d5c22425f36ec2b40" target="_top" xlink:title=" ">
<polygon fill="white" stroke="#666666" points="427.5,-67.88 271.25,-67.88 271.25,-48.62 427.5,-48.62 427.5,-67.88"/>
<text text-anchor="middle" x="349.38" y="-54.38" font-family="Helvetica,sans-Serif" font-size="10.00">Twig\Environment\hasExtension</text>
</a>
</g>
</g>
<!-- Node15&#45;&gt;Node16 -->
<g id="edge17_Node000015_Node000016" class="edge">
<title>Node15&#45;&gt;Node16</title>
<g id="a_edge17_Node000015_Node000016"><a xlink:title=" ">
<path fill="none" stroke="#63b8ff" d="M200.61,-78.55C218.49,-76.09 241.24,-72.97 263.5,-69.91"/>
<polygon fill="#63b8ff" stroke="#63b8ff" points="263.79,-73.4 273.22,-68.57 262.83,-66.47 263.79,-73.4"/>
</a>
</g>
</g>
<!-- Node17 -->
<g id="Node000017" class="node">
<title>Node17</title>
<g id="a_Node000017"><a xlink:href="class_twig_1_1_environment.html#af1cc34fcbd8561be8a6075517d107630" target="_top" xlink:title=" ">
<polygon fill="white" stroke="#666666" points="413.62,-30.5 285.12,-30.5 285.12,0 413.62,0 413.62,-30.5"/>
<text text-anchor="start" x="293.12" y="-17" font-family="Helvetica,sans-Serif" font-size="10.00">Twig\Environment\resolve</text>
<text text-anchor="middle" x="349.38" y="-5.75" font-family="Helvetica,sans-Serif" font-size="10.00">Template</text>
</a>
</g>
</g>
<!-- Node15&#45;&gt;Node17 -->
<g id="edge18_Node000015_Node000017" class="edge">
<title>Node15&#45;&gt;Node17</title>
<g id="a_edge18_Node000015_Node000017"><a xlink:title=" ">
<path fill="none" stroke="#63b8ff" d="M188.63,-73.18C209.7,-63.83 242.31,-49.8 271.25,-39.25 275.62,-37.66 280.16,-36.07 284.74,-34.52"/>
<polygon fill="#63b8ff" stroke="#63b8ff" points="285.63,-37.92 294.02,-31.46 283.43,-31.27 285.63,-37.92"/>
</a>
</g>
</g>
</g>
</svg>
