<?xml version="1.0" encoding="UTF-8" standalone="no"?>
<!DOCTYPE svg PUBLIC "-//W3C//DTD SVG 1.1//EN"
 "http://www.w3.org/Graphics/SVG/1.1/DTD/svg11.dtd">
<!-- Generated by graphviz version 10.0.1 (20240210.2158)
 -->
<!-- Title: stripslashes_deep Pages: 1 -->
<svg width="480pt" height="395pt"
 viewBox="0.00 0.00 479.75 394.88" xmlns="http://www.w3.org/2000/svg" xmlns:xlink="http://www.w3.org/1999/xlink">

<svg id="main" version="1.1" xmlns="http://www.w3.org/2000/svg" xmlns:xlink="http://www.w3.org/1999/xlink" xml:space="preserve" onload="init(evt)">
<style type="text/css"><![CDATA[
.node, .edge {opacity: 0.7;}
.node.selected, .edge.selected {opacity: 1;}
.edge:hover path { stroke: red; }
.edge:hover polygon { stroke: red; fill: red; }
]]></style>
<script type="application/ecmascript" xlink:href="svg.min.js"/>
<svg id="graph" class="graph">
<g id="graph0" class="graph" transform="scale(1 1) rotate(0) translate(4 390.88)">
<title>stripslashes_deep</title>
<!-- Node1 -->
<g id="Node000001" class="node">
<title>Node1</title>
<g id="a_Node000001"><a xlink:title=" ">
<polygon fill="#999999" stroke="#666666" points="471.75,-241.88 377,-241.88 377,-222.62 471.75,-222.62 471.75,-241.88"/>
<text text-anchor="middle" x="424.38" y="-228.38" font-family="Helvetica,sans-Serif" font-size="10.00">stripslashes_deep</text>
</a>
</g>
</g>
<!-- Node2 -->
<g id="Node000002" class="node">
<title>Node2</title>
<g id="a_Node000002"><a xlink:href="class_software.html#afff70cb36559f74a3ce1dc6c90ee3a84" target="_top" xlink:title=" ">
<polygon fill="white" stroke="#666666" points="341,-373.88 189.25,-373.88 189.25,-354.62 341,-354.62 341,-373.88"/>
<text text-anchor="middle" x="265.12" y="-360.38" font-family="Helvetica,sans-Serif" font-size="10.00">Software\handleCategoryRules</text>
</a>
</g>
</g>
<!-- Node1&#45;&gt;Node2 -->
<g id="edge1_Node000001_Node000002" class="edge">
<title>Node1&#45;&gt;Node2</title>
<g id="a_edge1_Node000001_Node000002"><a xlink:title=" ">
<path fill="none" stroke="#63b8ff" d="M407.53,-250.67C391.68,-268.53 366.1,-295.84 341,-316.25 322.79,-331.06 299.81,-345.2 284.14,-354.25"/>
<polygon fill="#63b8ff" stroke="#63b8ff" points="409.92,-253.25 413.88,-243.42 404.66,-248.64 409.92,-253.25"/>
</a>
</g>
</g>
<!-- Node4 -->
<g id="Node000004" class="node">
<title>Node4</title>
<g id="a_Node000004"><a xlink:href="class_notification_mailing.html#a95ae2f18e2df991f5b18b7f4ca5e6b00" target="_top" xlink:title=" ">
<polygon fill="white" stroke="#666666" points="317.38,-226.5 212.88,-226.5 212.88,-196 317.38,-196 317.38,-226.5"/>
<text text-anchor="start" x="220.88" y="-213" font-family="Helvetica,sans-Serif" font-size="10.00">NotificationMailing</text>
<text text-anchor="middle" x="265.12" y="-201.75" font-family="Helvetica,sans-Serif" font-size="10.00">\isUserAddressValid</text>
</a>
</g>
</g>
<!-- Node1&#45;&gt;Node4 -->
<g id="edge3_Node000001_Node000004" class="edge">
<title>Node1&#45;&gt;Node4</title>
<g id="a_edge3_Node000001_Node000004"><a xlink:title=" ">
<path fill="none" stroke="#63b8ff" d="M365.46,-224.52C349.79,-222.42 332.94,-220.17 317.65,-218.13"/>
<polygon fill="#63b8ff" stroke="#63b8ff" points="364.75,-227.95 375.12,-225.81 365.67,-221.01 364.75,-227.95"/>
</a>
</g>
</g>
<!-- Node8 -->
<g id="Node000008" class="node">
<title>Node8</title>
<g id="a_Node000008"><a xlink:href="class_ticket.html#a672138cc1985bc9cc1b3621d322df3c5" target="_top" xlink:title=" ">
<polygon fill="white" stroke="#666666" points="142.38,-349.88 10.88,-349.88 10.88,-330.62 142.38,-330.62 142.38,-349.88"/>
<text text-anchor="middle" x="76.62" y="-336.38" font-family="Helvetica,sans-Serif" font-size="10.00">Ticket\prepareInputForAdd</text>
</a>
</g>
</g>
<!-- Node1&#45;&gt;Node8 -->
<g id="edge12_Node000001_Node000008" class="edge">
<title>Node1&#45;&gt;Node8</title>
<g id="a_edge12_Node000001_Node000008"><a xlink:title=" ">
<path fill="none" stroke="#63b8ff" d="M384.42,-246.07C332.16,-264.38 236.31,-297.17 153.25,-321.25 142.59,-324.34 131,-327.4 120.17,-330.13"/>
<polygon fill="#63b8ff" stroke="#63b8ff" points="385.49,-249.4 393.77,-242.78 383.17,-242.8 385.49,-249.4"/>
</a>
</g>
</g>
<!-- Node13 -->
<g id="Node000013" class="node">
<title>Node13</title>
<g id="a_Node000013"><a xlink:href="class_notification_mailing.html#a134fb46724a7bc23089eb3ba02df1de9" target="_top" xlink:title=" ">
<polygon fill="white" stroke="#666666" points="313.25,-177.5 217,-177.5 217,-147 313.25,-147 313.25,-177.5"/>
<text text-anchor="start" x="225" y="-164" font-family="Helvetica,sans-Serif" font-size="10.00">NotificationMailing</text>
<text text-anchor="middle" x="265.12" y="-152.75" font-family="Helvetica,sans-Serif" font-size="10.00">\sendNotification</text>
</a>
</g>
</g>
<!-- Node1&#45;&gt;Node13 -->
<g id="edge13_Node000001_Node000013" class="edge">
<title>Node1&#45;&gt;Node13</title>
<g id="a_edge13_Node000001_Node000013"><a xlink:title=" ">
<path fill="none" stroke="#63b8ff" d="M397.42,-216.52C381.5,-207.26 360.48,-195.74 341,-187.25 332.33,-183.47 322.9,-179.91 313.74,-176.73"/>
<polygon fill="#63b8ff" stroke="#63b8ff" points="395.39,-219.39 405.78,-221.45 398.95,-213.36 395.39,-219.39"/>
</a>
</g>
</g>
<!-- Node3 -->
<g id="Node000003" class="node">
<title>Node3</title>
<g id="a_Node000003"><a xlink:href="class_software.html#a672138cc1985bc9cc1b3621d322df3c5" target="_top" xlink:title=" ">
<polygon fill="white" stroke="#666666" points="148.38,-386.88 4.88,-386.88 4.88,-367.62 148.38,-367.62 148.38,-386.88"/>
<text text-anchor="middle" x="76.62" y="-373.38" font-family="Helvetica,sans-Serif" font-size="10.00">Software\prepareInputForAdd</text>
</a>
</g>
</g>
<!-- Node2&#45;&gt;Node3 -->
<g id="edge2_Node000002_Node000003" class="edge">
<title>Node2&#45;&gt;Node3</title>
<g id="a_edge2_Node000002_Node000003"><a xlink:title=" ">
<path fill="none" stroke="#63b8ff" d="M177.54,-370.29C167.88,-370.96 158.13,-371.64 148.69,-372.3"/>
<polygon fill="#63b8ff" stroke="#63b8ff" points="177.56,-373.79 187.3,-369.61 177.08,-366.81 177.56,-373.79"/>
</a>
</g>
</g>
<!-- Node5 -->
<g id="Node000005" class="node">
<title>Node5</title>
<g id="a_Node000005"><a xlink:href="class_notification_mailing.html#a4fecb6650bfbec7cfc5a4ce997756fed" target="_top" xlink:title=" ">
<polygon fill="white" stroke="#666666" points="124.75,-312.5 28.5,-312.5 28.5,-282 124.75,-282 124.75,-312.5"/>
<text text-anchor="start" x="36.5" y="-299" font-family="Helvetica,sans-Serif" font-size="10.00">NotificationMailing</text>
<text text-anchor="middle" x="76.62" y="-287.75" font-family="Helvetica,sans-Serif" font-size="10.00">\check</text>
</a>
</g>
</g>
<!-- Node4&#45;&gt;Node5 -->
<g id="edge4_Node000004_Node000005" class="edge">
<title>Node4&#45;&gt;Node5</title>
<g id="a_edge4_Node000004_Node000005"><a xlink:title=" ">
<path fill="none" stroke="#63b8ff" d="M229.19,-232.64C207.77,-245.2 179.5,-260.8 153.25,-272.25 144.25,-276.17 134.43,-279.84 124.93,-283.1"/>
<polygon fill="#63b8ff" stroke="#63b8ff" points="230.7,-235.81 237.51,-227.7 227.13,-229.79 230.7,-235.81"/>
</a>
</g>
</g>
<!-- Node6 -->
<g id="Node000006" class="node">
<title>Node6</title>
<g id="a_Node000006"><a xlink:href="class_notification_event_mailing.html#a981c411312425309ccb86cba278fb9db" target="_top" xlink:title=" ">
<polygon fill="white" stroke="#666666" points="137.5,-263.5 15.75,-263.5 15.75,-233 137.5,-233 137.5,-263.5"/>
<text text-anchor="start" x="23.75" y="-250" font-family="Helvetica,sans-Serif" font-size="10.00">NotificationEventMailing</text>
<text text-anchor="middle" x="76.62" y="-238.75" font-family="Helvetica,sans-Serif" font-size="10.00">\getTargetField</text>
</a>
</g>
</g>
<!-- Node4&#45;&gt;Node6 -->
<g id="edge5_Node000004_Node000006" class="edge">
<title>Node4&#45;&gt;Node6</title>
<g id="a_edge5_Node000004_Node000006"><a xlink:title=" ">
<path fill="none" stroke="#63b8ff" d="M201.51,-223.67C180.97,-227.75 158.19,-232.27 137.83,-236.31"/>
<polygon fill="#63b8ff" stroke="#63b8ff" points="202.06,-227.13 211.18,-221.75 200.69,-220.27 202.06,-227.13"/>
</a>
</g>
</g>
<!-- Node7 -->
<g id="Node000007" class="node">
<title>Node7</title>
<g id="a_Node000007"><a xlink:href="class_common_i_t_i_l_actor.html#a672138cc1985bc9cc1b3621d322df3c5" target="_top" xlink:title=" ">
<polygon fill="white" stroke="#666666" points="153.25,-214.5 0,-214.5 0,-184 153.25,-184 153.25,-214.5"/>
<text text-anchor="start" x="8" y="-201" font-family="Helvetica,sans-Serif" font-size="10.00">CommonITILActor\prepareInput</text>
<text text-anchor="middle" x="76.62" y="-189.75" font-family="Helvetica,sans-Serif" font-size="10.00">ForAdd</text>
</a>
</g>
</g>
<!-- Node4&#45;&gt;Node7 -->
<g id="edge6_Node000004_Node000007" class="edge">
<title>Node4&#45;&gt;Node7</title>
<g id="a_edge6_Node000004_Node000007"><a xlink:title=" ">
<path fill="none" stroke="#63b8ff" d="M201.26,-207.21C186,-206.22 169.51,-205.16 153.71,-204.15"/>
<polygon fill="#63b8ff" stroke="#63b8ff" points="200.95,-210.69 211.16,-207.84 201.4,-203.71 200.95,-210.69"/>
</a>
</g>
</g>
<!-- Node4&#45;&gt;Node8 -->
<g id="edge7_Node000004_Node000008" class="edge">
<title>Node4&#45;&gt;Node8</title>
<g id="a_edge7_Node000004_Node000008"><a xlink:title=" ">
<path fill="none" stroke="#63b8ff" d="M241.03,-234.79C210.11,-266.21 158.51,-318.28 153.25,-321.25 146.88,-324.84 139.84,-327.77 132.68,-330.14"/>
<polygon fill="#63b8ff" stroke="#63b8ff" points="243.2,-237.58 247.71,-227.99 238.2,-232.67 243.2,-237.58"/>
</a>
</g>
</g>
<!-- Node9 -->
<g id="Node000009" class="node">
<title>Node9</title>
<g id="a_Node000009"><a xlink:href="class_common_i_t_i_l_actor.html#a8514339160707e9b58a5b00109ac1421" target="_top" xlink:title=" ">
<polygon fill="white" stroke="#666666" points="153.25,-165.5 0,-165.5 0,-135 153.25,-135 153.25,-165.5"/>
<text text-anchor="start" x="8" y="-152" font-family="Helvetica,sans-Serif" font-size="10.00">CommonITILActor\prepareInput</text>
<text text-anchor="middle" x="76.62" y="-140.75" font-family="Helvetica,sans-Serif" font-size="10.00">ForUpdate</text>
</a>
</g>
</g>
<!-- Node4&#45;&gt;Node9 -->
<g id="edge8_Node000004_Node000009" class="edge">
<title>Node4&#45;&gt;Node9</title>
<g id="a_edge8_Node000004_Node000009"><a xlink:title=" ">
<path fill="none" stroke="#63b8ff" d="M205.35,-192.03C179.63,-183.61 149.83,-173.87 125.49,-165.91"/>
<polygon fill="#63b8ff" stroke="#63b8ff" points="204.07,-195.29 214.66,-195.07 206.24,-188.64 204.07,-195.29"/>
</a>
</g>
</g>
<!-- Node10 -->
<g id="Node000010" class="node">
<title>Node10</title>
<g id="a_Node000010"><a xlink:href="class_common_i_t_i_l_object.html#a8514339160707e9b58a5b00109ac1421" target="_top" xlink:title=" ">
<polygon fill="white" stroke="#666666" points="145,-116.5 8.25,-116.5 8.25,-86 145,-86 145,-116.5"/>
<text text-anchor="start" x="16.25" y="-103" font-family="Helvetica,sans-Serif" font-size="10.00">CommonITILObject\prepare</text>
<text text-anchor="middle" x="76.62" y="-91.75" font-family="Helvetica,sans-Serif" font-size="10.00">InputForUpdate</text>
</a>
</g>
</g>
<!-- Node4&#45;&gt;Node10 -->
<g id="edge9_Node000004_Node000010" class="edge">
<title>Node4&#45;&gt;Node10</title>
<g id="a_edge9_Node000004_Node000010"><a xlink:title=" ">
<path fill="none" stroke="#63b8ff" d="M202.17,-194.63C197.58,-192.2 193.2,-189.42 189.25,-186.25 165,-166.78 177.53,-145.68 153.25,-126.25 148.72,-122.62 143.63,-119.51 138.3,-116.85"/>
<polygon fill="#63b8ff" stroke="#63b8ff" points="200.57,-197.75 211.12,-198.78 203.52,-191.4 200.57,-197.75"/>
</a>
</g>
</g>
<!-- Node11 -->
<g id="Node000011" class="node">
<title>Node11</title>
<g id="a_Node000011"><a xlink:href="class_entity.html#ab0d7d60dfda78d1941fae6c0eaa54199" target="_top" xlink:title=" ">
<polygon fill="white" stroke="#666666" points="152.12,-67.88 1.12,-67.88 1.12,-48.62 152.12,-48.62 152.12,-67.88"/>
<text text-anchor="middle" x="76.62" y="-54.38" font-family="Helvetica,sans-Serif" font-size="10.00">Entity\showNotificationOptions</text>
</a>
</g>
</g>
<!-- Node4&#45;&gt;Node11 -->
<g id="edge10_Node000004_Node000011" class="edge">
<title>Node4&#45;&gt;Node11</title>
<g id="a_edge10_Node000004_Node000011"><a xlink:title=" ">
<path fill="none" stroke="#63b8ff" d="M202.35,-196.14C197.56,-193.38 193.1,-190.11 189.25,-186.25 153.23,-150.12 190.62,-111.99 153.25,-77.25 149.38,-73.66 144.94,-70.71 140.18,-68.31"/>
<polygon fill="#63b8ff" stroke="#63b8ff" points="200.67,-199.21 211.19,-200.46 203.74,-192.92 200.67,-199.21"/>
</a>
</g>
</g>
<!-- Node12 -->
<g id="Node000012" class="node">
<title>Node12</title>
<g id="a_Node000012"><a xlink:href="class_common_i_t_i_l_actor.html#a4e5784788ebdb8ae3943c84366c2a941" target="_top" xlink:title=" ">
<polygon fill="white" stroke="#666666" points="148.38,-30.5 4.88,-30.5 4.88,0 148.38,0 148.38,-30.5"/>
<text text-anchor="start" x="12.88" y="-17" font-family="Helvetica,sans-Serif" font-size="10.00">CommonITILActor\showUser</text>
<text text-anchor="middle" x="76.62" y="-5.75" font-family="Helvetica,sans-Serif" font-size="10.00">NotificationForm</text>
</a>
</g>
</g>
<!-- Node4&#45;&gt;Node12 -->
<g id="edge11_Node000004_Node000012" class="edge">
<title>Node4&#45;&gt;Node12</title>
<g id="a_edge11_Node000004_Node000012"><a xlink:title=" ">
<path fill="none" stroke="#63b8ff" d="M202.23,-196.58C197.43,-193.73 193,-190.32 189.25,-186.25 143.68,-136.78 199.19,-88.38 153.25,-39.25 150.24,-36.03 146.8,-33.24 143.09,-30.82"/>
<polygon fill="#63b8ff" stroke="#63b8ff" points="200.64,-199.7 211.15,-201.02 203.76,-193.43 200.64,-199.7"/>
</a>
</g>
</g>
</g>
</svg>
</svg>

<style type='text/css'>
<![CDATA[
[data-mouse-over-selected='false'] { opacity: 0.7; }
[data-mouse-over-selected='true']  { opacity: 1.0; }
]]>
</style>
<script type="application/ecmascript"><![CDATA[
document.addEventListener('DOMContentLoaded', (event) => {
  highlightEdges();
  highlightAdjacentNodes();
});
]]></script>
</svg>
