<?xml version="1.0" encoding="UTF-8" standalone="no"?>
<!DOCTYPE svg PUBLIC "-//W3C//DTD SVG 1.1//EN"
 "http://www.w3.org/Graphics/SVG/1.1/DTD/svg11.dtd">
<!-- Generated by graphviz version 10.0.1 (20240210.2158)
 -->
<!-- Title: getCommand Pages: 1 -->
<!--zoomable 711 -->

<svg id="main" version="1.1" xmlns="http://www.w3.org/2000/svg" xmlns:xlink="http://www.w3.org/1999/xlink" xml:space="preserve" onload="init(evt)">
<style type="text/css"><![CDATA[
.node, .edge {opacity: 0.7;}
.node.selected, .edge.selected {opacity: 1;}
.edge:hover path { stroke: red; }
.edge:hover polygon { stroke: red; fill: red; }
]]></style>

<defs>
  <circle id="rim" cx="0" cy="0" r="7"/>
  <circle id="rim2" cx="0" cy="0" r="3.5"/>
  <g id="zoomPlus">
    <use xlink:href="#rim" fill="#404040"><set attributeName="fill" to="#808080" begin="zoomplus.mouseover" end="zoomplus.mouseout"/></use>
    <path d="M-4,0h8M0,-4v8" fill="none" stroke="white" stroke-width="1.5" pointer-events="none"/>
  </g>
  <g id="zoomMin">
    <use xlink:href="#rim" fill="#404040"><set attributeName="fill" to="#808080" begin="zoomminus.mouseover" end="zoomminus.mouseout"/></use>
    <path d="M-4,0h8" fill="none" stroke="white" stroke-width="1.5" pointer-events="none"/>
  </g>
  <g id="arrowUp" transform="translate(30 24)">
    <use xlink:href="#rim"/>
    <path pointer-events="none" fill="none" stroke="white" stroke-width="1.5" d="M0,-3.0v7 M-2.5,-0.5L0,-3.0L2.5,-0.5"/>
  </g>
  <g id="arrowRight" transform="rotate(90) translate(36 -43)">
    <use xlink:href="#rim"/>
    <path pointer-events="none" fill="none" stroke="white" stroke-width="1.5" d="M0,-3.0v7 M-2.5,-0.5L0,-3.0L2.5,-0.5"/>
  </g>
  <g id="arrowDown" transform="rotate(180) translate(-30 -48)">
    <use xlink:href="#rim"/>
    <path pointer-events="none" fill="none" stroke="white" stroke-width="1.5" d="M0,-3.0v7 M-2.5,-0.5L0,-3.0L2.5,-0.5"/>
  </g>
  <g id="arrowLeft" transform="rotate(270) translate(-36 17)">
    <use xlink:href="#rim"/>
    <path pointer-events="none" fill="none" stroke="white" stroke-width="1.5" d="M0,-3.0v7 M-2.5,-0.5L0,-3.0L2.5,-0.5"/>
  </g>
  <g id="resetDef">
    <use xlink:href="#rim2" fill="#404040"><set attributeName="fill" to="#808080" begin="reset.mouseover" end="reset.mouseout"/></use>
  </g>
</defs>
<script type="application/ecmascript">
var viewWidth = 354;
var viewHeight = 711;
var sectionId = 'dynsection-8';
</script>
<script type="application/ecmascript" xlink:href="svg.min.js"/>
<svg id="graph" class="graph">
<g id="viewport">
<title>getCommand</title>
<!-- Node1 -->
<g id="Node000001" class="node">
<title>Node1</title>
<g id="a_Node000001"><a xlink:title=" ">
<polygon fill="#999999" stroke="#666666" points="345.75,-370.25 271.25,-370.25 271.25,-351 345.75,-351 345.75,-370.25"/>
<text text-anchor="middle" x="308.5" y="-356.75" font-family="Helvetica,sans-Serif" font-size="10.00">getCommand</text>
</a>
</g>
</g>
<!-- Node2 -->
<g id="Node000002" class="node">
<title>Node2</title>
<g id="a_Node000002"><a xlink:href="class_symfony_1_1_component_1_1_console_1_1_command_1_1_lazy_command.html#a469f43093facf254ded14653dff71d88" target="_top" xlink:title=" ">
<polygon fill="white" stroke="#666666" points="206,-703.25 132.25,-703.25 132.25,-684 206,-684 206,-703.25"/>
<text text-anchor="middle" x="169.12" y="-689.75" font-family="Helvetica,sans-Serif" font-size="10.00">addArgument</text>
</a>
</g>
</g>
<!-- Node1&#45;&gt;Node2 -->
<g id="edge1_Node000001_Node000002" class="edge">
<title>Node1&#45;&gt;Node2</title>
<g id="a_edge1_Node000001_Node000002"><a xlink:title=" ">
<path fill="none" stroke="#63b8ff" d="M305.42,-382.04C298.81,-445.83 276.26,-632.77 235.25,-675.62 227.63,-683.59 216.82,-688.14 206.2,-690.69"/>
<polygon fill="#63b8ff" stroke="#63b8ff" points="308.89,-382.51 306.41,-372.21 301.93,-381.81 308.89,-382.51"/>
</a>
</g>
</g>
<!-- Node3 -->
<g id="Node000003" class="node">
<title>Node3</title>
<g id="a_Node000003"><a xlink:href="class_symfony_1_1_component_1_1_console_1_1_command_1_1_lazy_command.html#aa5a4410787451beefea97d5c23e828cf" target="_top" xlink:title=" ">
<polygon fill="white" stroke="#666666" points="199.25,-666.25 139,-666.25 139,-647 199.25,-647 199.25,-666.25"/>
<text text-anchor="middle" x="169.12" y="-652.75" font-family="Helvetica,sans-Serif" font-size="10.00">addOption</text>
</a>
</g>
</g>
<!-- Node1&#45;&gt;Node3 -->
<g id="edge2_Node000001_Node000003" class="edge">
<title>Node1&#45;&gt;Node3</title>
<g id="a_edge2_Node000001_Node000003"><a xlink:title=" ">
<path fill="none" stroke="#63b8ff" d="M304.75,-381.8C296.76,-440.18 271.76,-601.55 235.25,-638.62 225.95,-648.07 212.17,-652.68 199.68,-654.89"/>
<polygon fill="#63b8ff" stroke="#63b8ff" points="308.18,-382.58 306.03,-372.21 301.24,-381.65 308.18,-382.58"/>
</a>
</g>
</g>
<!-- Node4 -->
<g id="Node000004" class="node">
<title>Node4</title>
<g id="a_Node000004"><a xlink:href="class_symfony_1_1_component_1_1_console_1_1_command_1_1_lazy_command.html#a4d42e390f955f76fd14e90b6654a6185" target="_top" xlink:title=" ">
<polygon fill="white" stroke="#666666" points="199.25,-629.25 139,-629.25 139,-610 199.25,-610 199.25,-629.25"/>
<text text-anchor="middle" x="169.12" y="-615.75" font-family="Helvetica,sans-Serif" font-size="10.00">addUsage</text>
</a>
</g>
</g>
<!-- Node1&#45;&gt;Node4 -->
<g id="edge3_Node000001_Node000004" class="edge">
<title>Node1&#45;&gt;Node4</title>
<g id="a_edge3_Node000001_Node000004"><a xlink:title=" ">
<path fill="none" stroke="#63b8ff" d="M307.59,-381.92C306.6,-428.63 297.46,-540.75 235.25,-601.62 225.78,-610.9 211.98,-615.49 199.52,-617.73"/>
<polygon fill="#63b8ff" stroke="#63b8ff" points="311.09,-382.12 307.68,-372.09 304.09,-382.06 311.09,-382.12"/>
</a>
</g>
</g>
<!-- Node5 -->
<g id="Node000005" class="node">
<title>Node5</title>
<g id="a_Node000005"><a xlink:href="class_symfony_1_1_component_1_1_console_1_1_command_1_1_lazy_command.html#a75661471e033afd63caccdb6bd352601" target="_top" xlink:title=" ">
<polygon fill="white" stroke="#666666" points="197,-592.25 141.25,-592.25 141.25,-573 197,-573 197,-592.25"/>
<text text-anchor="middle" x="169.12" y="-578.75" font-family="Helvetica,sans-Serif" font-size="10.00">complete</text>
</a>
</g>
</g>
<!-- Node1&#45;&gt;Node5 -->
<g id="edge4_Node000001_Node000005" class="edge">
<title>Node1&#45;&gt;Node5</title>
<g id="a_edge4_Node000001_Node000005"><a xlink:title=" ">
<path fill="none" stroke="#63b8ff" d="M306.25,-381.71C302.63,-423 288.7,-514.83 235.25,-564.62 225.04,-574.14 210.25,-578.7 197.34,-580.85"/>
<polygon fill="#63b8ff" stroke="#63b8ff" points="309.72,-382.15 306.97,-371.92 302.74,-381.63 309.72,-382.15"/>
</a>
</g>
</g>
<!-- Node6 -->
<g id="Node000006" class="node">
<title>Node6</title>
<g id="a_Node000006"><a xlink:href="class_symfony_1_1_component_1_1_console_1_1_command_1_1_lazy_command.html#ada012e6c80eda0d807425b598b1dc611" target="_top" xlink:title=" ">
<polygon fill="white" stroke="#666666" points="204.5,-555.25 133.75,-555.25 133.75,-536 204.5,-536 204.5,-555.25"/>
<text text-anchor="middle" x="169.12" y="-541.75" font-family="Helvetica,sans-Serif" font-size="10.00">getDefinition</text>
</a>
</g>
</g>
<!-- Node1&#45;&gt;Node6 -->
<g id="edge5_Node000001_Node000006" class="edge">
<title>Node1&#45;&gt;Node6</title>
<g id="a_edge5_Node000001_Node000006"><a xlink:title=" ">
<path fill="none" stroke="#63b8ff" d="M304.38,-381.55C297.99,-416.96 280.02,-488.67 235.25,-527.62 226.75,-535.02 215.47,-539.4 204.69,-541.98"/>
<polygon fill="#63b8ff" stroke="#63b8ff" points="307.76,-382.58 305.94,-372.14 300.85,-381.43 307.76,-382.58"/>
</a>
</g>
</g>
<!-- Node7 -->
<g id="Node000007" class="node">
<title>Node7</title>
<g id="a_Node000007"><a xlink:href="class_symfony_1_1_component_1_1_console_1_1_command_1_1_lazy_command.html#a4cc928ef4def3a84c181608d31bf7608" target="_top" xlink:title=" ">
<polygon fill="white" stroke="#666666" points="194,-518.25 144.25,-518.25 144.25,-499 194,-499 194,-518.25"/>
<text text-anchor="middle" x="169.12" y="-504.75" font-family="Helvetica,sans-Serif" font-size="10.00">getHelp</text>
</a>
</g>
</g>
<!-- Node1&#45;&gt;Node7 -->
<g id="edge6_Node000001_Node000007" class="edge">
<title>Node1&#45;&gt;Node7</title>
<g id="a_edge6_Node000001_Node000007"><a xlink:title=" ">
<path fill="none" stroke="#63b8ff" d="M301.6,-381.32C292.31,-410.17 271.47,-462.13 235.25,-490.62 223.63,-499.76 207.68,-504.27 194.46,-506.48"/>
<polygon fill="#63b8ff" stroke="#63b8ff" points="304.89,-382.54 304.45,-371.95 298.19,-380.5 304.89,-382.54"/>
</a>
</g>
</g>
<!-- Node8 -->
<g id="Node000008" class="node">
<title>Node8</title>
<g id="a_Node000008"><a xlink:href="class_symfony_1_1_component_1_1_console_1_1_command_1_1_lazy_command.html#a2eb2ff70cfd80155bbdf090813bcd51a" target="_top" xlink:title=" ">
<polygon fill="white" stroke="#666666" points="198.12,-481.25 140.12,-481.25 140.12,-462 198.12,-462 198.12,-481.25"/>
<text text-anchor="middle" x="169.12" y="-467.75" font-family="Helvetica,sans-Serif" font-size="10.00">getHelper</text>
</a>
</g>
</g>
<!-- Node1&#45;&gt;Node8 -->
<g id="edge7_Node000001_Node000008" class="edge">
<title>Node1&#45;&gt;Node8</title>
<g id="a_edge7_Node000001_Node000008"><a xlink:title=" ">
<path fill="none" stroke="#63b8ff" d="M297.27,-380.33C285.25,-401.57 263.32,-434.83 235.25,-453.62 224.33,-460.93 210.5,-465.29 198.4,-467.88"/>
<polygon fill="#63b8ff" stroke="#63b8ff" points="300.21,-382.25 301.92,-371.79 294.06,-378.91 300.21,-382.25"/>
</a>
</g>
</g>
<!-- Node9 -->
<g id="Node000009" class="node">
<title>Node9</title>
<g id="a_Node000009"><a xlink:href="class_symfony_1_1_component_1_1_console_1_1_command_1_1_lazy_command.html#a17ec119cfcc5daca5b53683485c1eb06" target="_top" xlink:title=" ">
<polygon fill="white" stroke="#666666" points="218.75,-444.25 119.5,-444.25 119.5,-425 218.75,-425 218.75,-444.25"/>
<text text-anchor="middle" x="169.12" y="-430.75" font-family="Helvetica,sans-Serif" font-size="10.00">getNativeDefinition</text>
</a>
</g>
</g>
<!-- Node1&#45;&gt;Node9 -->
<g id="edge8_Node000001_Node000009" class="edge">
<title>Node1&#45;&gt;Node9</title>
<g id="a_edge8_Node000001_Node000009"><a xlink:title=" ">
<path fill="none" stroke="#63b8ff" d="M289.48,-377.85C275.63,-390.24 255.5,-406.48 235.25,-416.62 229.06,-419.73 222.27,-422.35 215.47,-424.56"/>
<polygon fill="#63b8ff" stroke="#63b8ff" points="291.5,-380.74 296.5,-371.4 286.77,-375.59 291.5,-380.74"/>
</a>
</g>
</g>
<!-- Node10 -->
<g id="Node000010" class="node">
<title>Node10</title>
<g id="a_Node000010"><a xlink:href="class_symfony_1_1_component_1_1_console_1_1_command_1_1_lazy_command.html#a8cf8b0c92ba14df21ddb53284656e754" target="_top" xlink:title=" ">
<polygon fill="white" stroke="#666666" points="217.25,-407.25 121,-407.25 121,-388 217.25,-388 217.25,-407.25"/>
<text text-anchor="middle" x="169.12" y="-393.75" font-family="Helvetica,sans-Serif" font-size="10.00">getProcessedHelp</text>
</a>
</g>
</g>
<!-- Node1&#45;&gt;Node10 -->
<g id="edge9_Node000001_Node000010" class="edge">
<title>Node1&#45;&gt;Node10</title>
<g id="a_edge9_Node000001_Node000010"><a xlink:title=" ">
<path fill="none" stroke="#63b8ff" d="M260.12,-373.39C242.99,-378 223.89,-383.15 207.71,-387.5"/>
<polygon fill="#63b8ff" stroke="#63b8ff" points="260.84,-376.82 269.59,-370.84 259.02,-370.06 260.84,-376.82"/>
</a>
</g>
</g>
<!-- Node11 -->
<g id="Node000011" class="node">
<title>Node11</title>
<g id="a_Node000011"><a xlink:href="class_symfony_1_1_component_1_1_console_1_1_command_1_1_lazy_command.html#aa12668298851861da569ceeef7e2089a" target="_top" xlink:title=" ">
<polygon fill="white" stroke="#666666" points="204.12,-370.25 134.12,-370.25 134.12,-351 204.12,-351 204.12,-370.25"/>
<text text-anchor="middle" x="169.12" y="-356.75" font-family="Helvetica,sans-Serif" font-size="10.00">getSynopsis</text>
</a>
</g>
</g>
<!-- Node1&#45;&gt;Node11 -->
<g id="edge10_Node000001_Node000011" class="edge">
<title>Node1&#45;&gt;Node11</title>
<g id="a_edge10_Node000001_Node000011"><a xlink:title=" ">
<path fill="none" stroke="#63b8ff" d="M259.74,-360.62C241.51,-360.62 221.11,-360.62 204.38,-360.62"/>
<polygon fill="#63b8ff" stroke="#63b8ff" points="259.53,-364.13 269.53,-360.63 259.53,-357.13 259.53,-364.13"/>
</a>
</g>
</g>
<!-- Node12 -->
<g id="Node000012" class="node">
<title>Node12</title>
<g id="a_Node000012"><a xlink:href="class_symfony_1_1_component_1_1_console_1_1_command_1_1_lazy_command.html#a3b16f96f0d396bae4a8782f71e9aa063" target="_top" xlink:title=" ">
<polygon fill="white" stroke="#666666" points="200.75,-333.25 137.5,-333.25 137.5,-314 200.75,-314 200.75,-333.25"/>
<text text-anchor="middle" x="169.12" y="-319.75" font-family="Helvetica,sans-Serif" font-size="10.00">getUsages</text>
</a>
</g>
</g>
<!-- Node1&#45;&gt;Node12 -->
<g id="edge11_Node000001_Node000012" class="edge">
<title>Node1&#45;&gt;Node12</title>
<g id="a_edge11_Node000001_Node000012"><a xlink:title=" ">
<path fill="none" stroke="#63b8ff" d="M259.93,-347.81C240.46,-342.57 218.49,-336.65 201.15,-331.98"/>
<polygon fill="#63b8ff" stroke="#63b8ff" points="259.02,-351.19 269.59,-350.41 260.84,-344.43 259.02,-351.19"/>
</a>
</g>
</g>
<!-- Node13 -->
<g id="Node000013" class="node">
<title>Node13</title>
<g id="a_Node000013"><a xlink:href="class_symfony_1_1_component_1_1_console_1_1_command_1_1_lazy_command.html#af51d2e3ccef76ff3fd454a47722f4c9f" target="_top" xlink:title=" ">
<polygon fill="white" stroke="#666666" points="224.38,-296.25 113.88,-296.25 113.88,-277 224.38,-277 224.38,-296.25"/>
<text text-anchor="middle" x="169.12" y="-282.75" font-family="Helvetica,sans-Serif" font-size="10.00">ignoreValidationErrors</text>
</a>
</g>
</g>
<!-- Node1&#45;&gt;Node13 -->
<g id="edge12_Node000001_Node000013" class="edge">
<title>Node1&#45;&gt;Node13</title>
<g id="a_edge12_Node000001_Node000013"><a xlink:title=" ">
<path fill="none" stroke="#63b8ff" d="M289.48,-343.4C275.63,-331.01 255.5,-314.77 235.25,-304.62 229.06,-301.52 222.27,-298.9 215.47,-296.69"/>
<polygon fill="#63b8ff" stroke="#63b8ff" points="286.77,-345.66 296.5,-349.85 291.5,-340.51 286.77,-345.66"/>
</a>
</g>
</g>
<!-- Node14 -->
<g id="Node000014" class="node">
<title>Node14</title>
<g id="a_Node000014"><a xlink:href="class_symfony_1_1_component_1_1_console_1_1_command_1_1_lazy_command.html#ad734dc60b64a242fe183e0c23b192790" target="_top" xlink:title=" ">
<polygon fill="white" stroke="#666666" points="198.5,-241.25 139.75,-241.25 139.75,-222 198.5,-222 198.5,-241.25"/>
<text text-anchor="middle" x="169.12" y="-227.75" font-family="Helvetica,sans-Serif" font-size="10.00">isEnabled</text>
</a>
</g>
</g>
<!-- Node1&#45;&gt;Node14 -->
<g id="edge13_Node000001_Node000014" class="edge">
<title>Node1&#45;&gt;Node14</title>
<g id="a_edge13_Node000001_Node000014"><a xlink:title=" ">
<path fill="none" stroke="#63b8ff" d="M295.59,-340.89C282.64,-320.64 260.4,-289.14 235.25,-267.62 222.78,-256.96 206.66,-248.02 193.57,-241.71"/>
<polygon fill="#63b8ff" stroke="#63b8ff" points="292.57,-342.67 300.83,-349.31 298.51,-338.97 292.57,-342.67"/>
</a>
</g>
</g>
<!-- Node16 -->
<g id="Node000016" class="node">
<title>Node16</title>
<g id="a_Node000016"><a xlink:href="class_symfony_1_1_component_1_1_console_1_1_command_1_1_lazy_command.html#ad38738a306fb1358cc8bf5d6bf40ae9a" target="_top" xlink:title=" ">
<polygon fill="white" stroke="#666666" points="235.25,-204.25 103,-204.25 103,-185 235.25,-185 235.25,-204.25"/>
<text text-anchor="middle" x="169.12" y="-190.75" font-family="Helvetica,sans-Serif" font-size="10.00">mergeApplicationDefinition</text>
</a>
</g>
</g>
<!-- Node1&#45;&gt;Node16 -->
<g id="edge16_Node000001_Node000016" class="edge">
<title>Node1&#45;&gt;Node16</title>
<g id="a_edge16_Node000001_Node000016"><a xlink:title=" ">
<path fill="none" stroke="#63b8ff" d="M303.01,-339.4C295.07,-307.15 275.44,-246.01 235.25,-212.62 231.46,-209.48 227.16,-206.88 222.62,-204.73"/>
<polygon fill="#63b8ff" stroke="#63b8ff" points="299.59,-340.15 305.24,-349.12 306.41,-338.59 299.59,-340.15"/>
</a>
</g>
</g>
<!-- Node17 -->
<g id="Node000017" class="node">
<title>Node17</title>
<g id="a_Node000017"><a xlink:href="class_symfony_1_1_component_1_1_console_1_1_command_1_1_lazy_command.html#acc17fc4b2880856deb16661a443fe08e" target="_top" xlink:title=" ">
<polygon fill="white" stroke="#666666" points="183.88,-167.25 154.38,-167.25 154.38,-148 183.88,-148 183.88,-167.25"/>
<text text-anchor="middle" x="169.12" y="-153.75" font-family="Helvetica,sans-Serif" font-size="10.00">run</text>
</a>
</g>
</g>
<!-- Node1&#45;&gt;Node17 -->
<g id="edge17_Node000001_Node000017" class="edge">
<title>Node1&#45;&gt;Node17</title>
<g id="a_edge17_Node000001_Node000017"><a xlink:title=" ">
<path fill="none" stroke="#63b8ff" d="M305.38,-339.66C300.36,-301.32 284.24,-219.83 235.25,-175.62 221.14,-162.89 198.81,-159.07 184.31,-157.97"/>
<polygon fill="#63b8ff" stroke="#63b8ff" points="301.88,-339.85 306.51,-349.38 308.83,-339.04 301.88,-339.85"/>
</a>
</g>
</g>
<!-- Node18 -->
<g id="Node000018" class="node">
<title>Node18</title>
<g id="a_Node000018"><a xlink:href="class_symfony_1_1_component_1_1_console_1_1_command_1_1_lazy_command.html#a4181163392cba2c6e81d8e3532a093a7" target="_top" xlink:title=" ">
<polygon fill="white" stroke="#666666" points="195.5,-130.25 142.75,-130.25 142.75,-111 195.5,-111 195.5,-130.25"/>
<text text-anchor="middle" x="169.12" y="-116.75" font-family="Helvetica,sans-Serif" font-size="10.00">setCode</text>
</a>
</g>
</g>
<!-- Node1&#45;&gt;Node18 -->
<g id="edge18_Node000001_Node000018" class="edge">
<title>Node1&#45;&gt;Node18</title>
<g id="a_edge18_Node000001_Node000018"><a xlink:title=" ">
<path fill="none" stroke="#63b8ff" d="M306.96,-339.53C304.65,-295.6 292.99,-193.82 235.25,-138.62 224.74,-128.57 209.13,-124.04 195.83,-122.03"/>
<polygon fill="#63b8ff" stroke="#63b8ff" points="303.46,-339.6 307.35,-349.46 310.45,-339.33 303.46,-339.6"/>
</a>
</g>
</g>
<!-- Node19 -->
<g id="Node000019" class="node">
<title>Node19</title>
<g id="a_Node000019"><a xlink:href="class_symfony_1_1_component_1_1_console_1_1_command_1_1_lazy_command.html#a633d4b963ba13775519a92a3c34780ec" target="_top" xlink:title=" ">
<polygon fill="white" stroke="#666666" points="204.5,-93.25 133.75,-93.25 133.75,-74 204.5,-74 204.5,-93.25"/>
<text text-anchor="middle" x="169.12" y="-79.75" font-family="Helvetica,sans-Serif" font-size="10.00">setDefinition</text>
</a>
</g>
</g>
<!-- Node1&#45;&gt;Node19 -->
<g id="edge19_Node000001_Node000019" class="edge">
<title>Node1&#45;&gt;Node19</title>
<g id="a_edge19_Node000001_Node000019"><a xlink:title=" ">
<path fill="none" stroke="#63b8ff" d="M308.13,-339.44C308.37,-290.37 301.84,-168.06 235.25,-101.62 227.19,-93.59 215.89,-89.06 204.96,-86.53"/>
<polygon fill="#63b8ff" stroke="#63b8ff" points="304.63,-339.17 307.96,-349.23 311.63,-339.29 304.63,-339.17"/>
</a>
</g>
</g>
<!-- Node20 -->
<g id="Node000020" class="node">
<title>Node20</title>
<g id="a_Node000020"><a xlink:href="class_symfony_1_1_component_1_1_console_1_1_command_1_1_lazy_command.html#a67525d4e9069c37129f815ba89a03cc5" target="_top" xlink:title=" ">
<polygon fill="white" stroke="#666666" points="194,-56.25 144.25,-56.25 144.25,-37 194,-37 194,-56.25"/>
<text text-anchor="middle" x="169.12" y="-42.75" font-family="Helvetica,sans-Serif" font-size="10.00">setHelp</text>
</a>
</g>
</g>
<!-- Node1&#45;&gt;Node20 -->
<g id="edge20_Node000001_Node000020" class="edge">
<title>Node1&#45;&gt;Node20</title>
<g id="a_edge20_Node000001_Node000020"><a xlink:title=" ">
<path fill="none" stroke="#63b8ff" d="M305.09,-339.3C297.78,-278.23 273.94,-104.5 235.25,-64.62 224.63,-53.68 208,-49.21 194.21,-47.46"/>
<polygon fill="#63b8ff" stroke="#63b8ff" points="301.59,-339.5 306.23,-349.03 308.55,-338.69 301.59,-339.5"/>
</a>
</g>
</g>
<!-- Node21 -->
<g id="Node000021" class="node">
<title>Node21</title>
<g id="a_Node000021"><a xlink:href="class_symfony_1_1_component_1_1_console_1_1_command_1_1_lazy_command.html#ac54a7304284ba2c34a80aaf4f799f753" target="_top" xlink:title=" ">
<polygon fill="white" stroke="#666666" points="211.25,-19.25 127,-19.25 127,0 211.25,0 211.25,-19.25"/>
<text text-anchor="middle" x="169.12" y="-5.75" font-family="Helvetica,sans-Serif" font-size="10.00">setProcessTitle</text>
</a>
</g>
</g>
<!-- Node1&#45;&gt;Node21 -->
<g id="edge21_Node000001_Node000021" class="edge">
<title>Node1&#45;&gt;Node21</title>
<g id="a_edge21_Node000001_Node000021"><a xlink:title=" ">
<path fill="none" stroke="#63b8ff" d="M305.72,-339.3C299.77,-273.18 278.5,-73.36 235.25,-27.62 228.96,-20.98 220.46,-16.71 211.68,-13.99"/>
<polygon fill="#63b8ff" stroke="#63b8ff" points="302.22,-339.48 306.57,-349.14 309.19,-338.88 302.22,-339.48"/>
</a>
</g>
</g>
<!-- Node14&#45;&gt;Node14 -->
<g id="edge15_Node000014_Node000014" class="edge">
<title>Node14&#45;&gt;Node14</title>
<g id="a_edge15_Node000014_Node000014"><a xlink:title=" ">
<path fill="none" stroke="#63b8ff" d="M193.2,-252.65C190.19,-256.53 182.16,-259.25 169.12,-259.25 145.28,-259.25 138.21,-250.15 147.89,-241.54"/>
<polygon fill="#63b8ff" stroke="#63b8ff" points="196.6,-251.83 190.73,-243 189.82,-253.56 196.6,-251.83"/>
</a>
</g>
</g>
<!-- Node15 -->
<g id="Node000015" class="node">
<title>Node15</title>
<g id="a_Node000015"><a xlink:href="class_symfony_1_1_component_1_1_console_1_1_command_1_1_lazy_command.html#a44591ef233202f11e59afb0112a9cc8a" target="_top" xlink:title=" ">
<polygon fill="white" stroke="#666666" points="67,-241.25 0,-241.25 0,-222 67,-222 67,-241.25"/>
<text text-anchor="middle" x="33.5" y="-227.75" font-family="Helvetica,sans-Serif" font-size="10.00">__construct</text>
</a>
</g>
</g>
<!-- Node14&#45;&gt;Node15 -->
<g id="edge14_Node000014_Node000015" class="edge">
<title>Node14&#45;&gt;Node15</title>
<g id="a_edge14_Node000014_Node000015"><a xlink:title=" ">
<path fill="none" stroke="#63b8ff" d="M128.21,-231.62C108.79,-231.62 85.74,-231.62 67.35,-231.62"/>
<polygon fill="#63b8ff" stroke="#63b8ff" points="127.95,-235.13 137.95,-231.63 127.95,-228.13 127.95,-235.13"/>
</a>
</g>
</g>
</g>
</svg>

<g id="navigator" transform="translate(0 0)" fill="#404254">
  <rect fill="#f2f5e9" fill-opacity="0.5" stroke="#606060" stroke-width=".5" x="0" y="0" width="60" height="60"/>
  <use id="zoomplus" xlink:href="#zoomPlus" x="17" y="9" onmousedown="handleZoom(evt,'in')"/>
  <use id="zoomminus" xlink:href="#zoomMin" x="42" y="9" onmousedown="handleZoom(evt,'out')"/>
  <use id="reset" xlink:href="#resetDef" x="30" y="36" onmousedown="handleReset()"/>
   <use id="arrowup" xlink:href="#arrowUp" x="0" y="0" onmousedown="handlePan(0,-1)"/>
  <use id="arrowright" xlink:href="#arrowRight" x="0" y="0" onmousedown="handlePan(1,0)"/>
  <use id="arrowdown" xlink:href="#arrowDown" x="0" y="0" onmousedown="handlePan(0,1)"/>
  <use id="arrowleft" xlink:href="#arrowLeft" x="0" y="0" onmousedown="handlePan(-1,0)"/>
</g>
<svg viewBox="0 0 15 15" width="100%" height="30px" preserveAspectRatio="xMaxYMin meet">
 <g id="arrow_out" transform="scale(0.3 0.3)">
  <a xlink:href="class_symfony_1_1_component_1_1_console_1_1_command_1_1_lazy_command_a154e8997a5c7e497d5d54dcf340a80b1_icgraph_org.svg" target="_base">
   <rect id="button" ry="5" rx="5" y="6" x="6" height="38" width="38"
        fill="#f2f5e9" fill-opacity="0.5" stroke="#606060" stroke-width="1.0"/>
   <path id="arrow"
     d="M 11.500037,31.436501 C 11.940474,20.09759 22.043105,11.32322 32.158766,21.979434 L 37.068811,17.246167 C 37.068811,17.246167 37.088388,32 37.088388,32 L 22.160133,31.978069 C 22.160133,31.978069 26.997745,27.140456 26.997745,27.140456 C 18.528582,18.264221 13.291696,25.230495 11.500037,31.436501 z"
     style="fill:#404040;"/>
  </a>
 </g>
</svg>

<style type='text/css'>
<![CDATA[
[data-mouse-over-selected='false'] { opacity: 0.7; }
[data-mouse-over-selected='true']  { opacity: 1.0; }
]]>
</style>
<script type="application/ecmascript"><![CDATA[
document.addEventListener('DOMContentLoaded', (event) => {
  highlightEdges();
  highlightAdjacentNodes();
});
]]></script>
</svg>
