<?xml version="1.0" encoding="UTF-8" standalone="no"?>
<!DOCTYPE svg PUBLIC "-//W3C//DTD SVG 1.1//EN"
 "http://www.w3.org/Graphics/SVG/1.1/DTD/svg11.dtd">
<!-- Generated by graphviz version 10.0.1 (20240210.2158)
 -->
<!-- Title: SameOrganizerForAllComponentsException Pages: 1 -->
<svg width="166pt" height="238pt"
 viewBox="0.00 0.00 166.00 238.00" xmlns="http://www.w3.org/2000/svg" xmlns:xlink="http://www.w3.org/1999/xlink">

<svg id="main" version="1.1" xmlns="http://www.w3.org/2000/svg" xmlns:xlink="http://www.w3.org/1999/xlink" xml:space="preserve" onload="init(evt)">
<style type="text/css"><![CDATA[
.node, .edge {opacity: 0.7;}
.node.selected, .edge.selected {opacity: 1;}
.edge:hover path { stroke: red; }
.edge:hover polygon { stroke: red; fill: red; }
]]></style>
<script type="application/ecmascript" xlink:href="svg.min.js"/>
<svg id="graph" class="graph">
<g id="graph0" class="graph" transform="scale(1 1) rotate(0) translate(4 234)">
<title>SameOrganizerForAllComponentsException</title>
<!-- Node1 -->
<g id="Node000001" class="node">
<title>Node1</title>
<g id="a_Node000001"><a xlink:title=" ">
<polygon fill="#999999" stroke="none" points="158,-60 0,-60 0,0 158,0 158,-60"/>
<text text-anchor="start" x="4.75" y="-46.5" font-family="Helvetica,sans-Serif" font-size="10.00">SameOrganizerForAllComponents</text>
<text text-anchor="start" x="57.25" y="-35.25" font-family="Helvetica,sans-Serif" font-size="10.00">Exception</text>
<text text-anchor="start" x="77.5" y="-20.5" font-family="Helvetica,sans-Serif" font-size="10.00"> </text>
<text text-anchor="start" x="77.5" y="-5.5" font-family="Helvetica,sans-Serif" font-size="10.00"> </text>
<polygon fill="#666666" stroke="#666666" points="0,-32 0,-32 158,-32 158,-32 0,-32"/>
<polygon fill="#666666" stroke="#666666" points="0,-17 0,-17 158,-17 158,-17 0,-17"/>
<polygon fill="none" stroke="#666666" points="0,0 0,-60 158,-60 158,0 0,0"/>
</a>
</g>
</g>
<!-- Node2 -->
<g id="Node000002" class="node">
<title>Node2</title>
<g id="a_Node000002"><a xlink:href="class_sabre_1_1_v_object_1_1_i_tip_1_1_i_tip_exception.html" target="_top" xlink:title=" ">
<polygon fill="white" stroke="none" points="114,-145 44,-145 44,-96 114,-96 114,-145"/>
<text text-anchor="start" x="49" y="-131.5" font-family="Helvetica,sans-Serif" font-size="10.00">ITipException</text>
<text text-anchor="start" x="77.5" y="-116.5" font-family="Helvetica,sans-Serif" font-size="10.00"> </text>
<text text-anchor="start" x="77.5" y="-101.5" font-family="Helvetica,sans-Serif" font-size="10.00"> </text>
<polygon fill="#666666" stroke="#666666" points="44,-128 44,-128 114,-128 114,-128 44,-128"/>
<polygon fill="#666666" stroke="#666666" points="44,-113 44,-113 114,-113 114,-113 44,-113"/>
<polygon fill="none" stroke="#666666" points="44,-96 44,-145 114,-145 114,-96 44,-96"/>
</a>
</g>
</g>
<!-- Node2&#45;&gt;Node1 -->
<g id="edge1_Node000001_Node000002" class="edge">
<title>Node2&#45;&gt;Node1</title>
<g id="a_edge1_Node000001_Node000002"><a xlink:title=" ">
<path fill="none" stroke="#63b8ff" d="M79,-84.94C79,-76.62 79,-67.82 79,-59.79"/>
<polygon fill="none" stroke="#63b8ff" points="75.5,-84.73 79,-94.73 82.5,-84.73 75.5,-84.73"/>
</a>
</g>
</g>
<!-- Node3 -->
<g id="Node000003" class="node">
<title>Node3</title>
<g id="a_Node000003"><a xlink:title=" ">
<polygon fill="white" stroke="none" points="105.5,-230 52.5,-230 52.5,-181 105.5,-181 105.5,-230"/>
<text text-anchor="start" x="57.25" y="-216.5" font-family="Helvetica,sans-Serif" font-size="10.00">Exception</text>
<text text-anchor="start" x="77.5" y="-201.5" font-family="Helvetica,sans-Serif" font-size="10.00"> </text>
<text text-anchor="start" x="77.5" y="-186.5" font-family="Helvetica,sans-Serif" font-size="10.00"> </text>
<polygon fill="#666666" stroke="#666666" points="52.5,-213 52.5,-213 105.5,-213 105.5,-213 52.5,-213"/>
<polygon fill="#666666" stroke="#666666" points="52.5,-198 52.5,-198 105.5,-198 105.5,-198 52.5,-198"/>
<polygon fill="none" stroke="#666666" points="52.5,-181 52.5,-230 105.5,-230 105.5,-181 52.5,-181"/>
</a>
</g>
</g>
<!-- Node3&#45;&gt;Node2 -->
<g id="edge2_Node000002_Node000003" class="edge">
<title>Node3&#45;&gt;Node2</title>
<g id="a_edge2_Node000002_Node000003"><a xlink:title=" ">
<path fill="none" stroke="#63b8ff" d="M79,-170.14C79,-161.6 79,-152.65 79,-144.78"/>
<polygon fill="none" stroke="#63b8ff" points="75.5,-169.87 79,-179.87 82.5,-169.87 75.5,-169.87"/>
</a>
</g>
</g>
</g>
</svg>
</svg>

<style type='text/css'>
<![CDATA[
[data-mouse-over-selected='false'] { opacity: 0.7; }
[data-mouse-over-selected='true']  { opacity: 1.0; }
]]>
</style>
<script type="application/ecmascript"><![CDATA[
document.addEventListener('DOMContentLoaded', (event) => {
  highlightEdges();
  highlightAdjacentNodes();
});
]]></script>
</svg>
