<?xml version="1.0" encoding="UTF-8" standalone="no"?>
<!DOCTYPE svg PUBLIC "-//W3C//DTD SVG 1.1//EN"
 "http://www.w3.org/Graphics/SVG/1.1/DTD/svg11.dtd">
<!-- Generated by graphviz version 10.0.1 (20240210.2158)
 -->
<!-- Title: showLDAPForm Pages: 1 -->
<!--zoomable 138 -->

<svg id="main" version="1.1" xmlns="http://www.w3.org/2000/svg" xmlns:xlink="http://www.w3.org/1999/xlink" xml:space="preserve" onload="init(evt)">
<style type="text/css"><![CDATA[
.node, .edge {opacity: 0.7;}
.node.selected, .edge.selected {opacity: 1;}
.edge:hover path { stroke: red; }
.edge:hover polygon { stroke: red; fill: red; }
]]></style>

<defs>
  <circle id="rim" cx="0" cy="0" r="7"/>
  <circle id="rim2" cx="0" cy="0" r="3.5"/>
  <g id="zoomPlus">
    <use xlink:href="#rim" fill="#404040"><set attributeName="fill" to="#808080" begin="zoomplus.mouseover" end="zoomplus.mouseout"/></use>
    <path d="M-4,0h8M0,-4v8" fill="none" stroke="white" stroke-width="1.5" pointer-events="none"/>
  </g>
  <g id="zoomMin">
    <use xlink:href="#rim" fill="#404040"><set attributeName="fill" to="#808080" begin="zoomminus.mouseover" end="zoomminus.mouseout"/></use>
    <path d="M-4,0h8" fill="none" stroke="white" stroke-width="1.5" pointer-events="none"/>
  </g>
  <g id="arrowUp" transform="translate(30 24)">
    <use xlink:href="#rim"/>
    <path pointer-events="none" fill="none" stroke="white" stroke-width="1.5" d="M0,-3.0v7 M-2.5,-0.5L0,-3.0L2.5,-0.5"/>
  </g>
  <g id="arrowRight" transform="rotate(90) translate(36 -43)">
    <use xlink:href="#rim"/>
    <path pointer-events="none" fill="none" stroke="white" stroke-width="1.5" d="M0,-3.0v7 M-2.5,-0.5L0,-3.0L2.5,-0.5"/>
  </g>
  <g id="arrowDown" transform="rotate(180) translate(-30 -48)">
    <use xlink:href="#rim"/>
    <path pointer-events="none" fill="none" stroke="white" stroke-width="1.5" d="M0,-3.0v7 M-2.5,-0.5L0,-3.0L2.5,-0.5"/>
  </g>
  <g id="arrowLeft" transform="rotate(270) translate(-36 17)">
    <use xlink:href="#rim"/>
    <path pointer-events="none" fill="none" stroke="white" stroke-width="1.5" d="M0,-3.0v7 M-2.5,-0.5L0,-3.0L2.5,-0.5"/>
  </g>
  <g id="resetDef">
    <use xlink:href="#rim2" fill="#404040"><set attributeName="fill" to="#808080" begin="reset.mouseover" end="reset.mouseout"/></use>
  </g>
</defs>
<script type="application/ecmascript">
var viewWidth = 831;
var viewHeight = 138;
var sectionId = 'dynsection-11';
</script>
<script type="application/ecmascript" xlink:href="svg.min.js"/>
<svg id="graph" class="graph">
<g id="viewport">
<title>showLDAPForm</title>
<!-- Node1 -->
<g id="Node000001" class="node">
<title>Node1</title>
<g id="a_Node000001"><a xlink:title=" ">
<polygon fill="#999999" stroke="#666666" points="88,-74.25 0,-74.25 0,-55 88,-55 88,-74.25"/>
<text text-anchor="middle" x="44" y="-60.75" font-family="Helvetica,sans-Serif" font-size="10.00">showLDAPForm</text>
</a>
</g>
</g>
<!-- Node2 -->
<g id="Node000002" class="node">
<title>Node2</title>
<g id="a_Node000002"><a xlink:href="class_common_g_l_p_i.html#a39eb4a1ba141460eeb8cae957c28c94a" target="_top" xlink:title=" ">
<polygon fill="white" stroke="#666666" points="271.62,-130.25 143.12,-130.25 143.12,-111 271.62,-111 271.62,-130.25"/>
<text text-anchor="middle" x="207.38" y="-116.75" font-family="Helvetica,sans-Serif" font-size="10.00">CommonGLPI\canUpdate</text>
</a>
</g>
</g>
<!-- Node1&#45;&gt;Node2 -->
<g id="edge1_Node000001_Node000002" class="edge">
<title>Node1&#45;&gt;Node2</title>
<g id="a_edge1_Node000001_Node000002"><a xlink:title=" ">
<path fill="none" stroke="#63b8ff" d="M62.69,-74.61C78.38,-83.11 102.13,-95.09 124,-102.62 129.4,-104.48 135.06,-106.19 140.79,-107.76"/>
<polygon fill="#63b8ff" stroke="#63b8ff" points="139.8,-111.12 150.35,-110.21 141.54,-104.34 139.8,-111.12"/>
</a>
</g>
</g>
<!-- Node3 -->
<g id="Node000003" class="node">
<title>Node3</title>
<g id="a_Node000003"><a xlink:href="class_common_g_l_p_i.html#af6dc8cb908bd14b99d0e90e9fcbeab0d" target="_top" xlink:title=" ">
<polygon fill="white" stroke="#666666" points="276.12,-93.25 138.62,-93.25 138.62,-74 276.12,-74 276.12,-93.25"/>
<text text-anchor="middle" x="207.38" y="-79.75" font-family="Helvetica,sans-Serif" font-size="10.00">CommonGLPI\getFormURL</text>
</a>
</g>
</g>
<!-- Node1&#45;&gt;Node3 -->
<g id="edge2_Node000001_Node000003" class="edge">
<title>Node1&#45;&gt;Node3</title>
<g id="a_edge2_Node000001_Node000003"><a xlink:title=" ">
<path fill="none" stroke="#63b8ff" d="M88.25,-69.72C100.28,-71.13 113.74,-72.72 127.15,-74.3"/>
<polygon fill="#63b8ff" stroke="#63b8ff" points="126.53,-77.75 136.87,-75.44 127.35,-70.8 126.53,-77.75"/>
</a>
</g>
</g>
<!-- Node4 -->
<g id="Node000004" class="node">
<title>Node4</title>
<g id="a_Node000004"><a xlink:href="class_common_d_b_t_m.html#a8a41b3d6f005f26b8a3ce19894c655c2" target="_top" xlink:title=" ">
<polygon fill="white" stroke="#666666" points="268.62,-56.25 146.12,-56.25 146.12,-37 268.62,-37 268.62,-56.25"/>
<text text-anchor="middle" x="207.38" y="-42.75" font-family="Helvetica,sans-Serif" font-size="10.00">CommonDBTM\initForm</text>
</a>
</g>
</g>
<!-- Node1&#45;&gt;Node4 -->
<g id="edge3_Node000001_Node000004" class="edge">
<title>Node1&#45;&gt;Node4</title>
<g id="a_edge3_Node000001_Node000004"><a xlink:title=" ">
<path fill="none" stroke="#63b8ff" d="M88.25,-59.8C102.44,-58.22 118.63,-56.41 134.37,-54.66"/>
<polygon fill="#63b8ff" stroke="#63b8ff" points="134.67,-58.15 144.22,-53.56 133.89,-51.19 134.67,-58.15"/>
</a>
</g>
</g>
<!-- Node10 -->
<g id="Node000010" class="node">
<title>Node10</title>
<g id="a_Node000010"><a xlink:href="class_common_d_b_t_m.html#ab6357cf7f0a68c214ec3e850a1eefa29" target="_top" xlink:title=" ">
<polygon fill="white" stroke="#666666" points="290.75,-19.25 124,-19.25 124,0 290.75,0 290.75,-19.25"/>
<text text-anchor="middle" x="207.38" y="-5.75" font-family="Helvetica,sans-Serif" font-size="10.00">CommonDBTM\showFormButtons</text>
</a>
</g>
</g>
<!-- Node1&#45;&gt;Node10 -->
<g id="edge10_Node000001_Node000010" class="edge">
<title>Node1&#45;&gt;Node10</title>
<g id="a_edge10_Node000001_Node000010"><a xlink:title=" ">
<path fill="none" stroke="#63b8ff" d="M63.35,-54.6C79.06,-46.36 102.48,-34.91 124,-27.62 129.41,-25.79 135.08,-24.1 140.81,-22.55"/>
<polygon fill="#63b8ff" stroke="#63b8ff" points="141.55,-25.97 150.38,-20.11 139.82,-19.19 141.55,-25.97"/>
</a>
</g>
</g>
<!-- Node5 -->
<g id="Node000005" class="node">
<title>Node5</title>
<g id="a_Node000005"><a xlink:href="class_common_d_b_t_m.html#abd1fba5cbce28a1d30906bebf5b88ead" target="_top" xlink:title=" ">
<polygon fill="white" stroke="#666666" points="477,-93.25 326.75,-93.25 326.75,-74 477,-74 477,-93.25"/>
<text text-anchor="middle" x="401.88" y="-79.75" font-family="Helvetica,sans-Serif" font-size="10.00">CommonDBTM\isEntityAssign</text>
</a>
</g>
</g>
<!-- Node4&#45;&gt;Node5 -->
<g id="edge4_Node000004_Node000005" class="edge">
<title>Node4&#45;&gt;Node5</title>
<g id="a_edge4_Node000004_Node000005"><a xlink:title=" ">
<path fill="none" stroke="#63b8ff" d="M260.98,-56.74C284.53,-61.26 312.51,-66.64 337.23,-71.39"/>
<polygon fill="#63b8ff" stroke="#63b8ff" points="336.37,-74.79 346.85,-73.24 337.69,-67.92 336.37,-74.79"/>
</a>
</g>
</g>
<!-- Node6 -->
<g id="Node000006" class="node">
<title>Node6</title>
<g id="a_Node000006"><a xlink:href="class_common_d_b_t_m.html#a7cb79784c4f52138c643c5e3d276e3aa" target="_top" xlink:title=" ">
<polygon fill="white" stroke="#666666" points="464.62,-56.25 339.12,-56.25 339.12,-37 464.62,-37 464.62,-56.25"/>
<text text-anchor="middle" x="401.88" y="-42.75" font-family="Helvetica,sans-Serif" font-size="10.00">CommonDBTM\isNewID</text>
</a>
</g>
</g>
<!-- Node4&#45;&gt;Node6 -->
<g id="edge5_Node000004_Node000006" class="edge">
<title>Node4&#45;&gt;Node6</title>
<g id="a_edge5_Node000004_Node000006"><a xlink:title=" ">
<path fill="none" stroke="#63b8ff" d="M269.02,-46.62C287.54,-46.62 308.11,-46.62 327.39,-46.62"/>
<polygon fill="#63b8ff" stroke="#63b8ff" points="327.37,-50.13 337.37,-46.63 327.37,-43.13 327.37,-50.13"/>
</a>
</g>
</g>
<!-- Node7 -->
<g id="Node000007" class="node">
<title>Node7</title>
<g id="a_Node000007"><a xlink:href="class_common_d_b_t_m.html#a56f45881f9c2d6e972c40a18cf71be86" target="_top" xlink:title=" ">
<polygon fill="white" stroke="#666666" points="471.38,-19.25 332.38,-19.25 332.38,0 471.38,0 471.38,-19.25"/>
<text text-anchor="middle" x="401.88" y="-5.75" font-family="Helvetica,sans-Serif" font-size="10.00">CommonDBTM\restoreInput</text>
</a>
</g>
</g>
<!-- Node4&#45;&gt;Node7 -->
<g id="edge6_Node000004_Node000007" class="edge">
<title>Node4&#45;&gt;Node7</title>
<g id="a_edge6_Node000004_Node000007"><a xlink:title=" ">
<path fill="none" stroke="#63b8ff" d="M260.98,-36.51C284.53,-31.99 312.51,-26.61 337.23,-21.86"/>
<polygon fill="#63b8ff" stroke="#63b8ff" points="337.69,-25.33 346.85,-20.01 336.37,-18.46 337.69,-25.33"/>
</a>
</g>
</g>
<!-- Node8 -->
<g id="Node000008" class="node">
<title>Node8</title>
<g id="a_Node000008"><a xlink:href="class_common_d_b_t_m.html#a9676fff012745218481e021cfbd93c6a" target="_top" xlink:title=" ">
<polygon fill="white" stroke="#666666" points="670.75,-38.25 513,-38.25 513,-19 670.75,-19 670.75,-38.25"/>
<text text-anchor="middle" x="591.88" y="-24.75" font-family="Helvetica,sans-Serif" font-size="10.00">CommonDBTM\clearSavedInput</text>
</a>
</g>
</g>
<!-- Node7&#45;&gt;Node8 -->
<g id="edge7_Node000007_Node000008" class="edge">
<title>Node7&#45;&gt;Node8</title>
<g id="a_edge7_Node000007_Node000008"><a xlink:title=" ">
<path fill="none" stroke="#63b8ff" d="M471.81,-16.59C481.48,-17.57 491.53,-18.59 501.51,-19.59"/>
<polygon fill="#63b8ff" stroke="#63b8ff" points="500.92,-23.05 511.22,-20.58 501.63,-16.09 500.92,-23.05"/>
</a>
</g>
</g>
<!-- Node9 -->
<g id="Node000009" class="node">
<title>Node9</title>
<g id="a_Node000009"><a xlink:href="class_common_g_l_p_i.html#a3dadfbfaa3d8e3b5fe01a60e28640ddb" target="_top" xlink:title=" ">
<polygon fill="white" stroke="#666666" points="822.5,-19.25 706.75,-19.25 706.75,0 822.5,0 822.5,-19.25"/>
<text text-anchor="middle" x="764.62" y="-5.75" font-family="Helvetica,sans-Serif" font-size="10.00">CommonGLPI\getType</text>
</a>
</g>
</g>
<!-- Node7&#45;&gt;Node9 -->
<g id="edge9_Node000007_Node000009" class="edge">
<title>Node7&#45;&gt;Node9</title>
<g id="a_edge9_Node000007_Node000009"><a xlink:title=" ">
<path fill="none" stroke="#63b8ff" d="M471.58,-9.62C535.8,-9.62 631.15,-9.62 695.26,-9.62"/>
<polygon fill="#63b8ff" stroke="#63b8ff" points="694.94,-13.13 704.94,-9.63 694.94,-6.13 694.94,-13.13"/>
</a>
</g>
</g>
<!-- Node8&#45;&gt;Node9 -->
<g id="edge8_Node000008_Node000009" class="edge">
<title>Node8&#45;&gt;Node9</title>
<g id="a_edge8_Node000008_Node000009"><a xlink:title=" ">
<path fill="none" stroke="#63b8ff" d="M670.75,-19.96C678.79,-19.06 686.92,-18.16 694.85,-17.28"/>
<polygon fill="#63b8ff" stroke="#63b8ff" points="695.23,-20.76 704.78,-16.17 694.46,-13.8 695.23,-20.76"/>
</a>
</g>
</g>
</g>
</svg>

<g id="navigator" transform="translate(0 0)" fill="#404254">
  <rect fill="#f2f5e9" fill-opacity="0.5" stroke="#606060" stroke-width=".5" x="0" y="0" width="60" height="60"/>
  <use id="zoomplus" xlink:href="#zoomPlus" x="17" y="9" onmousedown="handleZoom(evt,'in')"/>
  <use id="zoomminus" xlink:href="#zoomMin" x="42" y="9" onmousedown="handleZoom(evt,'out')"/>
  <use id="reset" xlink:href="#resetDef" x="30" y="36" onmousedown="handleReset()"/>
   <use id="arrowup" xlink:href="#arrowUp" x="0" y="0" onmousedown="handlePan(0,-1)"/>
  <use id="arrowright" xlink:href="#arrowRight" x="0" y="0" onmousedown="handlePan(1,0)"/>
  <use id="arrowdown" xlink:href="#arrowDown" x="0" y="0" onmousedown="handlePan(0,1)"/>
  <use id="arrowleft" xlink:href="#arrowLeft" x="0" y="0" onmousedown="handlePan(-1,0)"/>
</g>
<svg viewBox="0 0 15 15" width="100%" height="30px" preserveAspectRatio="xMaxYMin meet">
 <g id="arrow_out" transform="scale(0.3 0.3)">
  <a xlink:href="class_group_aa2cca3f8cb95b001b21290f09fb1bb23_cgraph_org.svg" target="_base">
   <rect id="button" ry="5" rx="5" y="6" x="6" height="38" width="38"
        fill="#f2f5e9" fill-opacity="0.5" stroke="#606060" stroke-width="1.0"/>
   <path id="arrow"
     d="M 11.500037,31.436501 C 11.940474,20.09759 22.043105,11.32322 32.158766,21.979434 L 37.068811,17.246167 C 37.068811,17.246167 37.088388,32 37.088388,32 L 22.160133,31.978069 C 22.160133,31.978069 26.997745,27.140456 26.997745,27.140456 C 18.528582,18.264221 13.291696,25.230495 11.500037,31.436501 z"
     style="fill:#404040;"/>
  </a>
 </g>
</svg>

<style type='text/css'>
<![CDATA[
[data-mouse-over-selected='false'] { opacity: 0.7; }
[data-mouse-over-selected='true']  { opacity: 1.0; }
]]>
</style>
<script type="application/ecmascript"><![CDATA[
document.addEventListener('DOMContentLoaded', (event) => {
  highlightEdges();
  highlightAdjacentNodes();
});
]]></script>
</svg>
