<?xml version="1.0" encoding="UTF-8" standalone="no"?>
<!DOCTYPE svg PUBLIC "-//W3C//DTD SVG 1.1//EN"
 "http://www.w3.org/Graphics/SVG/1.1/DTD/svg11.dtd">
<!-- Generated by graphviz version 10.0.1 (20240210.2158)
 -->
<!-- Title: NetworkCard Pages: 1 -->
<svg width="148pt" height="761pt"
 viewBox="0.00 0.00 148.00 761.00" xmlns="http://www.w3.org/2000/svg" xmlns:xlink="http://www.w3.org/1999/xlink">
<g id="graph0" class="graph" transform="scale(1 1) rotate(0) translate(4 757)">
<title>NetworkCard</title>
<!-- Node1 -->
<g id="Node000001" class="node">
<title>Node1</title>
<g id="a_Node000001"><a xlink:title=" ">
<polygon fill="#999999" stroke="none" points="129.5,-120 10.5,-120 10.5,0 129.5,0 129.5,-120"/>
<text text-anchor="start" x="41.12" y="-106.5" font-family="Helvetica,sans-Serif" font-size="10.00">NetworkCard</text>
<text text-anchor="start" x="14.88" y="-91.5" font-family="Helvetica,sans-Serif" font-size="10.00">#</text>
<text text-anchor="start" x="24.5" y="-91.5" font-family="Helvetica,sans-Serif" font-size="10.00">$extra_data</text>
<text text-anchor="start" x="14.88" y="-76.5" font-family="Helvetica,sans-Serif" font-size="10.00">#</text>
<text text-anchor="start" x="24.5" y="-76.5" font-family="Helvetica,sans-Serif" font-size="10.00">$ignored</text>
<text text-anchor="start" x="14.5" y="-61.5" font-family="Helvetica,sans-Serif" font-size="10.00">+</text>
<text text-anchor="start" x="24.5" y="-61.5" font-family="Helvetica,sans-Serif" font-size="10.00">prepare()</text>
<text text-anchor="start" x="14.5" y="-46.5" font-family="Helvetica,sans-Serif" font-size="10.00">+</text>
<text text-anchor="start" x="24.5" y="-46.5" font-family="Helvetica,sans-Serif" font-size="10.00">checkConf(Conf $conf)</text>
<text text-anchor="start" x="14.5" y="-31.5" font-family="Helvetica,sans-Serif" font-size="10.00">+</text>
<text text-anchor="start" x="24.5" y="-31.5" font-family="Helvetica,sans-Serif" font-size="10.00">handlePorts($itemtype</text>
<text text-anchor="start" x="24.5" y="-20.25" font-family="Helvetica,sans-Serif" font-size="10.00">=null, $items_id=null)</text>
<text text-anchor="start" x="14.5" y="-5.5" font-family="Helvetica,sans-Serif" font-size="10.00">+</text>
<text text-anchor="start" x="24.5" y="-5.5" font-family="Helvetica,sans-Serif" font-size="10.00">getItemtype()</text>
<polygon fill="#666666" stroke="#666666" points="10.5,-103 10.5,-103 129.5,-103 129.5,-103 10.5,-103"/>
<polygon fill="#666666" stroke="#666666" points="10.5,-73 10.5,-73 22.5,-73 22.5,-73 10.5,-73"/>
<polygon fill="#666666" stroke="#666666" points="22.5,-73 22.5,-73 129.5,-73 129.5,-73 22.5,-73"/>
<polygon fill="none" stroke="#666666" points="10.5,0 10.5,-120 129.5,-120 129.5,0 10.5,0"/>
</a>
</g>
</g>
<!-- Node2 -->
<g id="Node000002" class="node">
<title>Node2</title>
<g id="a_Node000002"><a xlink:href="class_glpi_1_1_inventory_1_1_asset_1_1_device.html" target="_top" xlink:title=" ">
<polygon fill="white" stroke="none" points="128,-227 12,-227 12,-156 128,-156 128,-227"/>
<text text-anchor="start" x="54.62" y="-213.5" font-family="Helvetica,sans-Serif" font-size="10.00">Device</text>
<text text-anchor="start" x="68.5" y="-198.5" font-family="Helvetica,sans-Serif" font-size="10.00"> </text>
<text text-anchor="start" x="15.88" y="-183.5" font-family="Helvetica,sans-Serif" font-size="10.00">#</text>
<text text-anchor="start" x="25" y="-183.5" font-family="Helvetica,sans-Serif" font-size="10.00">itemdeviceAdded(Item</text>
<text text-anchor="start" x="25" y="-172.25" font-family="Helvetica,sans-Serif" font-size="10.00">_Devices $itemdevice,</text>
<text text-anchor="start" x="25" y="-161" font-family="Helvetica,sans-Serif" font-size="10.00"> $val)</text>
<polygon fill="#666666" stroke="#666666" points="12,-210 12,-210 128,-210 128,-210 12,-210"/>
<polygon fill="#666666" stroke="#666666" points="12,-195 12,-195 128,-195 128,-195 12,-195"/>
<polygon fill="none" stroke="#666666" points="12,-156 12,-227 128,-227 128,-156 12,-156"/>
</a>
</g>
</g>
<!-- Node2&#45;&gt;Node1 -->
<g id="edge1_Node000001_Node000002" class="edge">
<title>Node2&#45;&gt;Node1</title>
<g id="a_edge1_Node000001_Node000002"><a xlink:title=" ">
<path fill="none" stroke="#63b8ff" d="M70,-144.71C70,-136.65 70,-128.17 70,-119.82"/>
<polygon fill="none" stroke="#63b8ff" points="66.5,-144.62 70,-154.62 73.5,-144.62 66.5,-144.62"/>
</a>
</g>
</g>
<!-- Node3 -->
<g id="Node000003" class="node">
<title>Node3</title>
<g id="a_Node000003"><a xlink:href="class_glpi_1_1_inventory_1_1_asset_1_1_inventory_asset.html" target="_top" xlink:title=" ">
<polygon fill="white" stroke="none" points="140,-753 0,-753 0,-263 140,-263 140,-753"/>
<text text-anchor="start" x="37" y="-739.5" font-family="Helvetica,sans-Serif" font-size="10.00">InventoryAsset</text>
<text text-anchor="start" x="4.38" y="-724.5" font-family="Helvetica,sans-Serif" font-size="10.00">#</text>
<text text-anchor="start" x="14" y="-724.5" font-family="Helvetica,sans-Serif" font-size="10.00">$data</text>
<text text-anchor="start" x="4.38" y="-709.5" font-family="Helvetica,sans-Serif" font-size="10.00">#</text>
<text text-anchor="start" x="14" y="-709.5" font-family="Helvetica,sans-Serif" font-size="10.00">$item</text>
<text text-anchor="start" x="4.38" y="-694.5" font-family="Helvetica,sans-Serif" font-size="10.00">#</text>
<text text-anchor="start" x="14" y="-694.5" font-family="Helvetica,sans-Serif" font-size="10.00">$itemtype</text>
<text text-anchor="start" x="4.38" y="-679.5" font-family="Helvetica,sans-Serif" font-size="10.00">#</text>
<text text-anchor="start" x="14" y="-679.5" font-family="Helvetica,sans-Serif" font-size="10.00">$extra_data</text>
<text text-anchor="start" x="4.38" y="-664.5" font-family="Helvetica,sans-Serif" font-size="10.00">#</text>
<text text-anchor="start" x="14" y="-664.5" font-family="Helvetica,sans-Serif" font-size="10.00">$agent</text>
<text text-anchor="start" x="4.38" y="-649.5" font-family="Helvetica,sans-Serif" font-size="10.00">#</text>
<text text-anchor="start" x="14" y="-649.5" font-family="Helvetica,sans-Serif" font-size="10.00">$entities_id</text>
<text text-anchor="start" x="4.38" y="-634.5" font-family="Helvetica,sans-Serif" font-size="10.00">#</text>
<text text-anchor="start" x="14" y="-634.5" font-family="Helvetica,sans-Serif" font-size="10.00">$is_recursive</text>
<text text-anchor="start" x="4.38" y="-619.5" font-family="Helvetica,sans-Serif" font-size="10.00">#</text>
<text text-anchor="start" x="14" y="-619.5" font-family="Helvetica,sans-Serif" font-size="10.00">$ruleentity_data</text>
<text text-anchor="start" x="4.38" y="-604.5" font-family="Helvetica,sans-Serif" font-size="10.00">#</text>
<text text-anchor="start" x="14" y="-604.5" font-family="Helvetica,sans-Serif" font-size="10.00">$rulelocation_data</text>
<text text-anchor="start" x="4.38" y="-589.5" font-family="Helvetica,sans-Serif" font-size="10.00">#</text>
<text text-anchor="start" x="14" y="-589.5" font-family="Helvetica,sans-Serif" font-size="10.00">$links_handled</text>
<text text-anchor="start" x="14" y="-574.5" font-family="Helvetica,sans-Serif" font-size="10.00">et 6 de plus...</text>
<text text-anchor="start" x="4" y="-559.5" font-family="Helvetica,sans-Serif" font-size="10.00">+</text>
<text text-anchor="start" x="14" y="-559.5" font-family="Helvetica,sans-Serif" font-size="10.00">__construct(CommonDBTM</text>
<text text-anchor="start" x="14" y="-548.25" font-family="Helvetica,sans-Serif" font-size="10.00"> $item, array $data=null)</text>
<text text-anchor="start" x="4" y="-533.5" font-family="Helvetica,sans-Serif" font-size="10.00">+</text>
<text text-anchor="start" x="14" y="-533.5" font-family="Helvetica,sans-Serif" font-size="10.00">setData(array $data)</text>
<text text-anchor="start" x="4" y="-518.5" font-family="Helvetica,sans-Serif" font-size="10.00">+</text>
<text text-anchor="start" x="14" y="-518.5" font-family="Helvetica,sans-Serif" font-size="10.00">getData()</text>
<text text-anchor="start" x="4" y="-503.5" font-family="Helvetica,sans-Serif" font-size="10.00">+</text>
<text text-anchor="start" x="14" y="-503.5" font-family="Helvetica,sans-Serif" font-size="10.00">prepare()</text>
<text text-anchor="start" x="4" y="-488.5" font-family="Helvetica,sans-Serif" font-size="10.00">+</text>
<text text-anchor="start" x="14" y="-488.5" font-family="Helvetica,sans-Serif" font-size="10.00">handle()</text>
<text text-anchor="start" x="4" y="-473.5" font-family="Helvetica,sans-Serif" font-size="10.00">+</text>
<text text-anchor="start" x="14" y="-473.5" font-family="Helvetica,sans-Serif" font-size="10.00">setExtraData($data)</text>
<text text-anchor="start" x="4" y="-458.5" font-family="Helvetica,sans-Serif" font-size="10.00">+</text>
<text text-anchor="start" x="14" y="-458.5" font-family="Helvetica,sans-Serif" font-size="10.00">getIgnored($type)</text>
<text text-anchor="start" x="4" y="-443.5" font-family="Helvetica,sans-Serif" font-size="10.00">+</text>
<text text-anchor="start" x="14" y="-443.5" font-family="Helvetica,sans-Serif" font-size="10.00">checkConf(Conf $conf)</text>
<text text-anchor="start" x="4" y="-428.5" font-family="Helvetica,sans-Serif" font-size="10.00">+</text>
<text text-anchor="start" x="14" y="-428.5" font-family="Helvetica,sans-Serif" font-size="10.00">handleLinks()</text>
<text text-anchor="start" x="4" y="-413.5" font-family="Helvetica,sans-Serif" font-size="10.00">+</text>
<text text-anchor="start" x="14" y="-413.5" font-family="Helvetica,sans-Serif" font-size="10.00">setAgent(Agent $agent)</text>
<text text-anchor="start" x="14" y="-398.5" font-family="Helvetica,sans-Serif" font-size="10.00">et 8 de plus...</text>
<text text-anchor="start" x="4.38" y="-383.5" font-family="Helvetica,sans-Serif" font-size="10.00">#</text>
<text text-anchor="start" x="14" y="-383.5" font-family="Helvetica,sans-Serif" font-size="10.00">setItem(CommonDBTM</text>
<text text-anchor="start" x="14" y="-372.25" font-family="Helvetica,sans-Serif" font-size="10.00"> $item)</text>
<text text-anchor="start" x="4.38" y="-357.5" font-family="Helvetica,sans-Serif" font-size="10.00">#</text>
<text text-anchor="start" x="14" y="-357.5" font-family="Helvetica,sans-Serif" font-size="10.00">addOrMoveItem(array</text>
<text text-anchor="start" x="14" y="-346.25" font-family="Helvetica,sans-Serif" font-size="10.00"> $input)</text>
<text text-anchor="start" x="4.38" y="-331.5" font-family="Helvetica,sans-Serif" font-size="10.00">#</text>
<text text-anchor="start" x="14" y="-331.5" font-family="Helvetica,sans-Serif" font-size="10.00">setNew()</text>
<text text-anchor="start" x="4.38" y="-316.5" font-family="Helvetica,sans-Serif" font-size="10.00">#</text>
<text text-anchor="start" x="14" y="-316.5" font-family="Helvetica,sans-Serif" font-size="10.00">handleInput(\stdClass</text>
<text text-anchor="start" x="14" y="-305.25" font-family="Helvetica,sans-Serif" font-size="10.00"> $value, ?CommonDBTM </text>
<text text-anchor="start" x="14" y="-294" font-family="Helvetica,sans-Serif" font-size="10.00">$item=null)</text>
<text text-anchor="start" x="4.38" y="-279.5" font-family="Helvetica,sans-Serif" font-size="10.00">#</text>
<text text-anchor="start" x="14" y="-279.5" font-family="Helvetica,sans-Serif" font-size="10.00">cleanName(string </text>
<text text-anchor="start" x="14" y="-268.25" font-family="Helvetica,sans-Serif" font-size="10.00">$string)</text>
<polygon fill="#666666" stroke="#666666" points="0,-736 0,-736 140,-736 140,-736 0,-736"/>
<polygon fill="#666666" stroke="#666666" points="0,-571 0,-571 12,-571 12,-571 0,-571"/>
<polygon fill="#666666" stroke="#666666" points="12,-571 12,-571 140,-571 140,-571 12,-571"/>
<polygon fill="none" stroke="#666666" points="0,-263 0,-753 140,-753 140,-263 0,-263"/>
</a>
</g>
</g>
<!-- Node3&#45;&gt;Node2 -->
<g id="edge2_Node000002_Node000003" class="edge">
<title>Node3&#45;&gt;Node2</title>
<g id="a_edge2_Node000002_Node000003"><a xlink:title=" ">
<path fill="none" stroke="#63b8ff" d="M70,-251.6C70,-242.48 70,-234.09 70,-226.68"/>
<polygon fill="none" stroke="#63b8ff" points="66.5,-251.57 70,-261.57 73.5,-251.57 66.5,-251.57"/>
</a>
</g>
</g>
</g>
</svg>
