<?xml version="1.0" encoding="UTF-8" standalone="no"?>
<!DOCTYPE svg PUBLIC "-//W3C//DTD SVG 1.1//EN"
 "http://www.w3.org/Graphics/SVG/1.1/DTD/svg11.dtd">
<!-- Generated by graphviz version 10.0.1 (20240210.2158)
 -->
<!-- Title: queryOrDie Pages: 1 -->
<svg width="333pt" height="82pt"
 viewBox="0.00 0.00 332.75 82.25" xmlns="http://www.w3.org/2000/svg" xmlns:xlink="http://www.w3.org/1999/xlink">
<g id="graph0" class="graph" transform="scale(1 1) rotate(0) translate(4 78.25)">
<title>queryOrDie</title>
<!-- Node1 -->
<g id="Node000001" class="node">
<title>Node1</title>
<g id="a_Node000001"><a xlink:title=" ">
<polygon fill="#999999" stroke="#666666" points="65.5,-55.25 0,-55.25 0,-36 65.5,-36 65.5,-55.25"/>
<text text-anchor="middle" x="32.75" y="-41.75" font-family="Helvetica,sans-Serif" font-size="10.00">queryOrDie</text>
</a>
</g>
</g>
<!-- Node2 -->
<g id="Node000002" class="node">
<title>Node2</title>
<g id="a_Node000002"><a xlink:href="class_toolbox.html#a2d970c2444920f6cb87bbc716732bab1" target="_top" xlink:title=" ">
<polygon fill="white" stroke="#666666" points="202.25,-74.25 101.5,-74.25 101.5,-55 202.25,-55 202.25,-74.25"/>
<text text-anchor="middle" x="151.88" y="-60.75" font-family="Helvetica,sans-Serif" font-size="10.00">Toolbox\deprecated</text>
</a>
</g>
</g>
<!-- Node1&#45;&gt;Node2 -->
<g id="edge1_Node000001_Node000002" class="edge">
<title>Node1&#45;&gt;Node2</title>
<g id="a_edge1_Node000001_Node000002"><a xlink:title=" ">
<path fill="none" stroke="#63b8ff" d="M65.75,-50.82C73.38,-52.05 81.78,-53.42 90.23,-54.79"/>
<polygon fill="#63b8ff" stroke="#63b8ff" points="89.38,-58.2 99.82,-56.34 90.51,-51.29 89.38,-58.2"/>
</a>
</g>
</g>
<!-- Node3 -->
<g id="Node000003" class="node">
<title>Node3</title>
<g id="a_Node000003"><a xlink:href="class_d_bmysql.html#a0af75a63b37f16b9e33c522400e0801a" target="_top" xlink:title=" ">
<polygon fill="white" stroke="#666666" points="191,-37.25 112.75,-37.25 112.75,-18 191,-18 191,-37.25"/>
<text text-anchor="middle" x="151.88" y="-23.75" font-family="Helvetica,sans-Serif" font-size="10.00">doQueryOrDie</text>
</a>
</g>
</g>
<!-- Node1&#45;&gt;Node3 -->
<g id="edge2_Node000001_Node000003" class="edge">
<title>Node1&#45;&gt;Node3</title>
<g id="a_edge2_Node000001_Node000003"><a xlink:title=" ">
<path fill="none" stroke="#63b8ff" d="M65.75,-40.71C76.74,-39.02 89.3,-37.09 101.35,-35.24"/>
<polygon fill="#63b8ff" stroke="#63b8ff" points="101.82,-38.71 111.17,-33.73 100.75,-31.79 101.82,-38.71"/>
</a>
</g>
</g>
<!-- Node4 -->
<g id="Node000004" class="node">
<title>Node4</title>
<g id="a_Node000004"><a xlink:href="class_d_bmysql.html#a43b8d30b879d4f09ceb059b02af2bc02" target="_top" xlink:title=" ">
<polygon fill="white" stroke="#666666" points="299.25,-56.25 263.75,-56.25 263.75,-37 299.25,-37 299.25,-56.25"/>
<text text-anchor="middle" x="281.5" y="-42.75" font-family="Helvetica,sans-Serif" font-size="10.00">error</text>
</a>
</g>
</g>
<!-- Node3&#45;&gt;Node4 -->
<g id="edge3_Node000003_Node000004" class="edge">
<title>Node3&#45;&gt;Node4</title>
<g id="a_edge3_Node000003_Node000004"><a xlink:title=" ">
<path fill="none" stroke="#63b8ff" d="M191.17,-33.33C210.83,-36.25 234.36,-39.76 252.33,-42.43"/>
<polygon fill="#63b8ff" stroke="#63b8ff" points="251.61,-45.86 262.01,-43.87 252.64,-38.94 251.61,-45.86"/>
</a>
</g>
</g>
<!-- Node5 -->
<g id="Node000005" class="node">
<title>Node5</title>
<g id="a_Node000005"><a xlink:href="autoload_8function_8php.html#ab4e318ad07e38b1cd122362832786aca" target="_top" xlink:title=" ">
<polygon fill="white" stroke="#666666" points="324.75,-19.25 238.25,-19.25 238.25,0 324.75,0 324.75,-19.25"/>
<text text-anchor="middle" x="281.5" y="-5.75" font-family="Helvetica,sans-Serif" font-size="10.00">isCommandLine</text>
</a>
</g>
</g>
<!-- Node3&#45;&gt;Node5 -->
<g id="edge4_Node000003_Node000005" class="edge">
<title>Node3&#45;&gt;Node5</title>
<g id="a_edge4_Node000003_Node000005"><a xlink:title=" ">
<path fill="none" stroke="#63b8ff" d="M191.17,-22.22C202.29,-20.65 214.66,-18.91 226.56,-17.23"/>
<polygon fill="#63b8ff" stroke="#63b8ff" points="226.86,-20.73 236.27,-15.86 225.88,-13.79 226.86,-20.73"/>
</a>
</g>
</g>
</g>
</svg>
