<?xml version="1.0" encoding="UTF-8" standalone="no"?>
<!DOCTYPE svg PUBLIC "-//W3C//DTD SVG 1.1//EN"
 "http://www.w3.org/Graphics/SVG/1.1/DTD/svg11.dtd">
<!-- Generated by graphviz version 10.0.1 (20240210.2158)
 -->
<!-- Title: LineFormatter Pages: 1 -->
<!--zoomable 994 -->

<svg id="main" version="1.1" xmlns="http://www.w3.org/2000/svg" xmlns:xlink="http://www.w3.org/1999/xlink" xml:space="preserve" onload="init(evt)">
<style type="text/css"><![CDATA[
.node, .edge {opacity: 0.7;}
.node.selected, .edge.selected {opacity: 1;}
.edge:hover path { stroke: red; }
.edge:hover polygon { stroke: red; fill: red; }
]]></style>

<defs>
  <circle id="rim" cx="0" cy="0" r="7"/>
  <circle id="rim2" cx="0" cy="0" r="3.5"/>
  <g id="zoomPlus">
    <use xlink:href="#rim" fill="#404040"><set attributeName="fill" to="#808080" begin="zoomplus.mouseover" end="zoomplus.mouseout"/></use>
    <path d="M-4,0h8M0,-4v8" fill="none" stroke="white" stroke-width="1.5" pointer-events="none"/>
  </g>
  <g id="zoomMin">
    <use xlink:href="#rim" fill="#404040"><set attributeName="fill" to="#808080" begin="zoomminus.mouseover" end="zoomminus.mouseout"/></use>
    <path d="M-4,0h8" fill="none" stroke="white" stroke-width="1.5" pointer-events="none"/>
  </g>
  <g id="arrowUp" transform="translate(30 24)">
    <use xlink:href="#rim"/>
    <path pointer-events="none" fill="none" stroke="white" stroke-width="1.5" d="M0,-3.0v7 M-2.5,-0.5L0,-3.0L2.5,-0.5"/>
  </g>
  <g id="arrowRight" transform="rotate(90) translate(36 -43)">
    <use xlink:href="#rim"/>
    <path pointer-events="none" fill="none" stroke="white" stroke-width="1.5" d="M0,-3.0v7 M-2.5,-0.5L0,-3.0L2.5,-0.5"/>
  </g>
  <g id="arrowDown" transform="rotate(180) translate(-30 -48)">
    <use xlink:href="#rim"/>
    <path pointer-events="none" fill="none" stroke="white" stroke-width="1.5" d="M0,-3.0v7 M-2.5,-0.5L0,-3.0L2.5,-0.5"/>
  </g>
  <g id="arrowLeft" transform="rotate(270) translate(-36 17)">
    <use xlink:href="#rim"/>
    <path pointer-events="none" fill="none" stroke="white" stroke-width="1.5" d="M0,-3.0v7 M-2.5,-0.5L0,-3.0L2.5,-0.5"/>
  </g>
  <g id="resetDef">
    <use xlink:href="#rim2" fill="#404040"><set attributeName="fill" to="#808080" begin="reset.mouseover" end="reset.mouseout"/></use>
  </g>
</defs>
<script type="application/ecmascript">
var viewWidth = 239;
var viewHeight = 994;
var sectionId = 'dynsection-0';
</script>
<script type="application/ecmascript" xlink:href="svg.min.js"/>
<svg id="graph" class="graph">
<g id="viewport">
<title>LineFormatter</title>
<!-- Node1 -->
<g id="Node000001" class="node">
<title>Node1</title>
<g id="a_Node000001"><a xlink:title=" ">
<polygon fill="#999999" stroke="none" points="231,-403 0,-403 0,0 231,0 231,-403"/>
<text text-anchor="start" x="85.5" y="-389.5" font-family="Helvetica,sans-Serif" font-size="10.00">LineFormatter</text>
<text text-anchor="start" x="4" y="-374.5" font-family="Helvetica,sans-Serif" font-size="10.00">+</text>
<text text-anchor="start" x="14" y="-374.5" font-family="Helvetica,sans-Serif" font-size="10.00">const SIMPLE_FORMAT</text>
<text text-anchor="start" x="4.38" y="-359.5" font-family="Helvetica,sans-Serif" font-size="10.00">#</text>
<text text-anchor="start" x="14" y="-359.5" font-family="Helvetica,sans-Serif" font-size="10.00">$format</text>
<text text-anchor="start" x="4.38" y="-344.5" font-family="Helvetica,sans-Serif" font-size="10.00">#</text>
<text text-anchor="start" x="14" y="-344.5" font-family="Helvetica,sans-Serif" font-size="10.00">$allowInlineLineBreaks</text>
<text text-anchor="start" x="4.38" y="-329.5" font-family="Helvetica,sans-Serif" font-size="10.00">#</text>
<text text-anchor="start" x="14" y="-329.5" font-family="Helvetica,sans-Serif" font-size="10.00">$ignoreEmptyContextAndExtra</text>
<text text-anchor="start" x="4.38" y="-314.5" font-family="Helvetica,sans-Serif" font-size="10.00">#</text>
<text text-anchor="start" x="14" y="-314.5" font-family="Helvetica,sans-Serif" font-size="10.00">$includeStacktraces</text>
<text text-anchor="start" x="4.38" y="-299.5" font-family="Helvetica,sans-Serif" font-size="10.00">#</text>
<text text-anchor="start" x="14" y="-299.5" font-family="Helvetica,sans-Serif" font-size="10.00">$stacktracesParser</text>
<text text-anchor="start" x="4" y="-284.5" font-family="Helvetica,sans-Serif" font-size="10.00">+</text>
<text text-anchor="start" x="14" y="-284.5" font-family="Helvetica,sans-Serif" font-size="10.00">__construct(?string</text>
<text text-anchor="start" x="14" y="-273.25" font-family="Helvetica,sans-Serif" font-size="10.00"> $format=null, ?string</text>
<text text-anchor="start" x="14" y="-262" font-family="Helvetica,sans-Serif" font-size="10.00"> $dateFormat=null, bool</text>
<text text-anchor="start" x="14" y="-250.75" font-family="Helvetica,sans-Serif" font-size="10.00"> $allowInlineLineBreaks</text>
<text text-anchor="start" x="14" y="-239.5" font-family="Helvetica,sans-Serif" font-size="10.00">=false, bool $ignoreEmptyContext</text>
<text text-anchor="start" x="14" y="-228.25" font-family="Helvetica,sans-Serif" font-size="10.00">AndExtra=false, bool $includeStacktraces=false)</text>
<text text-anchor="start" x="4" y="-213.5" font-family="Helvetica,sans-Serif" font-size="10.00">+</text>
<text text-anchor="start" x="14" y="-213.5" font-family="Helvetica,sans-Serif" font-size="10.00">includeStacktraces</text>
<text text-anchor="start" x="14" y="-202.25" font-family="Helvetica,sans-Serif" font-size="10.00">(bool $include=true,</text>
<text text-anchor="start" x="14" y="-191" font-family="Helvetica,sans-Serif" font-size="10.00"> ?callable $parser=null)</text>
<text text-anchor="start" x="4" y="-176.5" font-family="Helvetica,sans-Serif" font-size="10.00">+</text>
<text text-anchor="start" x="14" y="-176.5" font-family="Helvetica,sans-Serif" font-size="10.00">allowInlineLineBreaks</text>
<text text-anchor="start" x="14" y="-165.25" font-family="Helvetica,sans-Serif" font-size="10.00">(bool $allow=true)</text>
<text text-anchor="start" x="4" y="-150.5" font-family="Helvetica,sans-Serif" font-size="10.00">+</text>
<text text-anchor="start" x="14" y="-150.5" font-family="Helvetica,sans-Serif" font-size="10.00">ignoreEmptyContextAndExtra</text>
<text text-anchor="start" x="14" y="-139.25" font-family="Helvetica,sans-Serif" font-size="10.00">(bool $ignore=true)</text>
<text text-anchor="start" x="4" y="-124.5" font-family="Helvetica,sans-Serif" font-size="10.00">+</text>
<text text-anchor="start" x="14" y="-124.5" font-family="Helvetica,sans-Serif" font-size="10.00">format(array $record)</text>
<text text-anchor="start" x="4" y="-109.5" font-family="Helvetica,sans-Serif" font-size="10.00">+</text>
<text text-anchor="start" x="14" y="-109.5" font-family="Helvetica,sans-Serif" font-size="10.00">formatBatch(array</text>
<text text-anchor="start" x="14" y="-98.25" font-family="Helvetica,sans-Serif" font-size="10.00"> $records)</text>
<text text-anchor="start" x="4" y="-83.5" font-family="Helvetica,sans-Serif" font-size="10.00">+</text>
<text text-anchor="start" x="14" y="-83.5" font-family="Helvetica,sans-Serif" font-size="10.00">stringify($value)</text>
<text text-anchor="start" x="4.38" y="-68.5" font-family="Helvetica,sans-Serif" font-size="10.00">#</text>
<text text-anchor="start" x="14" y="-68.5" font-family="Helvetica,sans-Serif" font-size="10.00">normalizeException</text>
<text text-anchor="start" x="14" y="-57.25" font-family="Helvetica,sans-Serif" font-size="10.00">(\Throwable $e, int</text>
<text text-anchor="start" x="14" y="-46" font-family="Helvetica,sans-Serif" font-size="10.00"> $depth=0)</text>
<text text-anchor="start" x="4.38" y="-31.5" font-family="Helvetica,sans-Serif" font-size="10.00">#</text>
<text text-anchor="start" x="14" y="-31.5" font-family="Helvetica,sans-Serif" font-size="10.00">convertToString($data)</text>
<text text-anchor="start" x="4.38" y="-16.5" font-family="Helvetica,sans-Serif" font-size="10.00">#</text>
<text text-anchor="start" x="14" y="-16.5" font-family="Helvetica,sans-Serif" font-size="10.00">replaceNewlines(string</text>
<text text-anchor="start" x="14" y="-5.25" font-family="Helvetica,sans-Serif" font-size="10.00"> $str)</text>
<polygon fill="#666666" stroke="#666666" points="0,-386 0,-386 231,-386 231,-386 0,-386"/>
<polygon fill="#666666" stroke="#666666" points="0,-296 0,-296 12,-296 12,-296 0,-296"/>
<polygon fill="#666666" stroke="#666666" points="12,-296 12,-296 231,-296 231,-296 12,-296"/>
<polygon fill="none" stroke="#666666" points="0,0 0,-403 231,-403 231,0 0,0"/>
</a>
</g>
</g>
<!-- Node2 -->
<g id="Node000002" class="node">
<title>Node2</title>
<g id="a_Node000002"><a xlink:href="class_monolog_1_1_formatter_1_1_normalizer_formatter.html" target="_top" xlink:title=" ">
<polygon fill="white" stroke="none" points="192,-875 39,-875 39,-439 192,-439 192,-875"/>
<text text-anchor="start" x="70.88" y="-861.5" font-family="Helvetica,sans-Serif" font-size="10.00">NormalizerFormatter</text>
<text text-anchor="start" x="43" y="-846.5" font-family="Helvetica,sans-Serif" font-size="10.00">+</text>
<text text-anchor="start" x="53" y="-846.5" font-family="Helvetica,sans-Serif" font-size="10.00">const SIMPLE_DATE</text>
<text text-anchor="start" x="43.38" y="-831.5" font-family="Helvetica,sans-Serif" font-size="10.00">#</text>
<text text-anchor="start" x="53" y="-831.5" font-family="Helvetica,sans-Serif" font-size="10.00">$dateFormat</text>
<text text-anchor="start" x="43.38" y="-816.5" font-family="Helvetica,sans-Serif" font-size="10.00">#</text>
<text text-anchor="start" x="53" y="-816.5" font-family="Helvetica,sans-Serif" font-size="10.00">$maxNormalizeDepth</text>
<text text-anchor="start" x="43.38" y="-801.5" font-family="Helvetica,sans-Serif" font-size="10.00">#</text>
<text text-anchor="start" x="53" y="-801.5" font-family="Helvetica,sans-Serif" font-size="10.00">$maxNormalizeItemCount</text>
<text text-anchor="start" x="43" y="-786.5" font-family="Helvetica,sans-Serif" font-size="10.00">+</text>
<text text-anchor="start" x="53" y="-786.5" font-family="Helvetica,sans-Serif" font-size="10.00">__construct(?string</text>
<text text-anchor="start" x="53" y="-775.25" font-family="Helvetica,sans-Serif" font-size="10.00"> $dateFormat=null)</text>
<text text-anchor="start" x="43" y="-760.5" font-family="Helvetica,sans-Serif" font-size="10.00">+</text>
<text text-anchor="start" x="53" y="-760.5" font-family="Helvetica,sans-Serif" font-size="10.00">format(array $record)</text>
<text text-anchor="start" x="43" y="-745.5" font-family="Helvetica,sans-Serif" font-size="10.00">+</text>
<text text-anchor="start" x="53" y="-745.5" font-family="Helvetica,sans-Serif" font-size="10.00">formatBatch(array</text>
<text text-anchor="start" x="53" y="-734.25" font-family="Helvetica,sans-Serif" font-size="10.00"> $records)</text>
<text text-anchor="start" x="43" y="-719.5" font-family="Helvetica,sans-Serif" font-size="10.00">+</text>
<text text-anchor="start" x="53" y="-719.5" font-family="Helvetica,sans-Serif" font-size="10.00">getDateFormat()</text>
<text text-anchor="start" x="43" y="-704.5" font-family="Helvetica,sans-Serif" font-size="10.00">+</text>
<text text-anchor="start" x="53" y="-704.5" font-family="Helvetica,sans-Serif" font-size="10.00">setDateFormat(string</text>
<text text-anchor="start" x="53" y="-693.25" font-family="Helvetica,sans-Serif" font-size="10.00"> $dateFormat)</text>
<text text-anchor="start" x="43" y="-678.5" font-family="Helvetica,sans-Serif" font-size="10.00">+</text>
<text text-anchor="start" x="53" y="-678.5" font-family="Helvetica,sans-Serif" font-size="10.00">getMaxNormalizeDepth()</text>
<text text-anchor="start" x="43" y="-663.5" font-family="Helvetica,sans-Serif" font-size="10.00">+</text>
<text text-anchor="start" x="53" y="-663.5" font-family="Helvetica,sans-Serif" font-size="10.00">setMaxNormalizeDepth</text>
<text text-anchor="start" x="53" y="-652.25" font-family="Helvetica,sans-Serif" font-size="10.00">(int $maxNormalizeDepth)</text>
<text text-anchor="start" x="43" y="-637.5" font-family="Helvetica,sans-Serif" font-size="10.00">+</text>
<text text-anchor="start" x="53" y="-637.5" font-family="Helvetica,sans-Serif" font-size="10.00">getMaxNormalizeItemCount()</text>
<text text-anchor="start" x="43" y="-622.5" font-family="Helvetica,sans-Serif" font-size="10.00">+</text>
<text text-anchor="start" x="53" y="-622.5" font-family="Helvetica,sans-Serif" font-size="10.00">setMaxNormalizeItemCount</text>
<text text-anchor="start" x="53" y="-611.25" font-family="Helvetica,sans-Serif" font-size="10.00">(int $maxNormalizeItemCount)</text>
<text text-anchor="start" x="43" y="-596.5" font-family="Helvetica,sans-Serif" font-size="10.00">+</text>
<text text-anchor="start" x="53" y="-596.5" font-family="Helvetica,sans-Serif" font-size="10.00">setJsonPrettyPrint</text>
<text text-anchor="start" x="53" y="-585.25" font-family="Helvetica,sans-Serif" font-size="10.00">(bool $enable)</text>
<text text-anchor="start" x="43" y="-570.5" font-family="Helvetica,sans-Serif" font-size="10.00">+</text>
<text text-anchor="start" x="53" y="-570.5" font-family="Helvetica,sans-Serif" font-size="10.00">addJsonEncodeOption</text>
<text text-anchor="start" x="53" y="-559.25" font-family="Helvetica,sans-Serif" font-size="10.00">(int $option)</text>
<text text-anchor="start" x="43" y="-544.5" font-family="Helvetica,sans-Serif" font-size="10.00">+</text>
<text text-anchor="start" x="53" y="-544.5" font-family="Helvetica,sans-Serif" font-size="10.00">removeJsonEncodeOption</text>
<text text-anchor="start" x="53" y="-533.25" font-family="Helvetica,sans-Serif" font-size="10.00">(int $option)</text>
<text text-anchor="start" x="43.38" y="-518.5" font-family="Helvetica,sans-Serif" font-size="10.00">#</text>
<text text-anchor="start" x="53" y="-518.5" font-family="Helvetica,sans-Serif" font-size="10.00">normalizeException</text>
<text text-anchor="start" x="53" y="-507.25" font-family="Helvetica,sans-Serif" font-size="10.00">(Throwable $e, int </text>
<text text-anchor="start" x="53" y="-496" font-family="Helvetica,sans-Serif" font-size="10.00">$depth=0)</text>
<text text-anchor="start" x="43.38" y="-481.5" font-family="Helvetica,sans-Serif" font-size="10.00">#</text>
<text text-anchor="start" x="53" y="-481.5" font-family="Helvetica,sans-Serif" font-size="10.00">toJson($data, bool</text>
<text text-anchor="start" x="53" y="-470.25" font-family="Helvetica,sans-Serif" font-size="10.00"> $ignoreErrors=false)</text>
<text text-anchor="start" x="43.38" y="-455.5" font-family="Helvetica,sans-Serif" font-size="10.00">#</text>
<text text-anchor="start" x="53" y="-455.5" font-family="Helvetica,sans-Serif" font-size="10.00">formatDate(\DateTimeInterface</text>
<text text-anchor="start" x="53" y="-444.25" font-family="Helvetica,sans-Serif" font-size="10.00"> $date)</text>
<polygon fill="#666666" stroke="#666666" points="39,-858 39,-858 192,-858 192,-858 39,-858"/>
<polygon fill="#666666" stroke="#666666" points="39,-798 39,-798 51,-798 51,-798 39,-798"/>
<polygon fill="#666666" stroke="#666666" points="51,-798 51,-798 192,-798 192,-798 51,-798"/>
<polygon fill="none" stroke="#666666" points="39,-439 39,-875 192,-875 192,-439 39,-439"/>
</a>
</g>
</g>
<!-- Node2&#45;&gt;Node1 -->
<g id="edge1_Node000001_Node000002" class="edge">
<title>Node2&#45;&gt;Node1</title>
<g id="a_edge1_Node000001_Node000002"><a xlink:title=" ">
<path fill="none" stroke="#63b8ff" d="M115.5,-427.78C115.5,-419.4 115.5,-411.02 115.5,-402.69"/>
<polygon fill="none" stroke="#63b8ff" points="112,-427.7 115.5,-437.7 119,-427.7 112,-427.7"/>
</a>
</g>
</g>
<!-- Node3 -->
<g id="Node000003" class="node">
<title>Node3</title>
<g id="a_Node000003"><a xlink:href="interface_monolog_1_1_formatter_1_1_formatter_interface.html" target="_top" xlink:title=" ">
<polygon fill="white" stroke="none" points="169.5,-986 61.5,-986 61.5,-911 169.5,-911 169.5,-986"/>
<text text-anchor="start" x="75.38" y="-972.5" font-family="Helvetica,sans-Serif" font-size="10.00">FormatterInterface</text>
<text text-anchor="start" x="114" y="-957.5" font-family="Helvetica,sans-Serif" font-size="10.00"> </text>
<text text-anchor="start" x="65.5" y="-942.5" font-family="Helvetica,sans-Serif" font-size="10.00">+</text>
<text text-anchor="start" x="75.5" y="-942.5" font-family="Helvetica,sans-Serif" font-size="10.00">format(array $record)</text>
<text text-anchor="start" x="65.5" y="-927.5" font-family="Helvetica,sans-Serif" font-size="10.00">+</text>
<text text-anchor="start" x="75.5" y="-927.5" font-family="Helvetica,sans-Serif" font-size="10.00">formatBatch(array</text>
<text text-anchor="start" x="75.5" y="-916.25" font-family="Helvetica,sans-Serif" font-size="10.00"> $records)</text>
<polygon fill="#666666" stroke="#666666" points="61.5,-969 61.5,-969 169.5,-969 169.5,-969 61.5,-969"/>
<polygon fill="#666666" stroke="#666666" points="61.5,-954 61.5,-954 169.5,-954 169.5,-954 61.5,-954"/>
<polygon fill="none" stroke="#666666" points="61.5,-911 61.5,-986 169.5,-986 169.5,-911 61.5,-911"/>
</a>
</g>
</g>
<!-- Node3&#45;&gt;Node2 -->
<g id="edge2_Node000002_Node000003" class="edge">
<title>Node3&#45;&gt;Node2</title>
<g id="a_edge2_Node000002_Node000003"><a xlink:title=" ">
<path fill="none" stroke="#63b8ff" d="M115.5,-899.63C115.5,-891.95 115.5,-883.59 115.5,-874.75"/>
<polygon fill="none" stroke="#63b8ff" points="112,-899.61 115.5,-909.61 119,-899.61 112,-899.61"/>
</a>
</g>
</g>
</g>
</svg>

<g id="navigator" transform="translate(0 0)" fill="#404254">
  <rect fill="#f2f5e9" fill-opacity="0.5" stroke="#606060" stroke-width=".5" x="0" y="0" width="60" height="60"/>
  <use id="zoomplus" xlink:href="#zoomPlus" x="17" y="9" onmousedown="handleZoom(evt,'in')"/>
  <use id="zoomminus" xlink:href="#zoomMin" x="42" y="9" onmousedown="handleZoom(evt,'out')"/>
  <use id="reset" xlink:href="#resetDef" x="30" y="36" onmousedown="handleReset()"/>
   <use id="arrowup" xlink:href="#arrowUp" x="0" y="0" onmousedown="handlePan(0,-1)"/>
  <use id="arrowright" xlink:href="#arrowRight" x="0" y="0" onmousedown="handlePan(1,0)"/>
  <use id="arrowdown" xlink:href="#arrowDown" x="0" y="0" onmousedown="handlePan(0,1)"/>
  <use id="arrowleft" xlink:href="#arrowLeft" x="0" y="0" onmousedown="handlePan(-1,0)"/>
</g>
<svg viewBox="0 0 15 15" width="100%" height="30px" preserveAspectRatio="xMaxYMin meet">
 <g id="arrow_out" transform="scale(0.3 0.3)">
  <a xlink:href="class_monolog_1_1_formatter_1_1_line_formatter__inherit__graph_org.svg" target="_base">
   <rect id="button" ry="5" rx="5" y="6" x="6" height="38" width="38"
        fill="#f2f5e9" fill-opacity="0.5" stroke="#606060" stroke-width="1.0"/>
   <path id="arrow"
     d="M 11.500037,31.436501 C 11.940474,20.09759 22.043105,11.32322 32.158766,21.979434 L 37.068811,17.246167 C 37.068811,17.246167 37.088388,32 37.088388,32 L 22.160133,31.978069 C 22.160133,31.978069 26.997745,27.140456 26.997745,27.140456 C 18.528582,18.264221 13.291696,25.230495 11.500037,31.436501 z"
     style="fill:#404040;"/>
  </a>
 </g>
</svg>

<style type='text/css'>
<![CDATA[
[data-mouse-over-selected='false'] { opacity: 0.7; }
[data-mouse-over-selected='true']  { opacity: 1.0; }
]]>
</style>
<script type="application/ecmascript"><![CDATA[
document.addEventListener('DOMContentLoaded', (event) => {
  highlightEdges();
  highlightAdjacentNodes();
});
]]></script>
</svg>
