<?xml version="1.0" encoding="UTF-8" standalone="no"?>
<!DOCTYPE svg PUBLIC "-//W3C//DTD SVG 1.1//EN"
 "http://www.w3.org/Graphics/SVG/1.1/DTD/svg11.dtd">
<!-- Generated by graphviz version 10.0.1 (20240210.2158)
 -->
<!-- Title: Callback Pages: 1 -->
<svg width="399pt" height="1006pt"
 viewBox="0.00 0.00 398.50 1006.25" xmlns="http://www.w3.org/2000/svg" xmlns:xlink="http://www.w3.org/1999/xlink">
<g id="graph0" class="graph" transform="scale(1 1) rotate(0) translate(4 1002.25)">
<title>Callback</title>
<!-- Node1 -->
<g id="Node000001" class="node">
<title>Node1</title>
<g id="a_Node000001"><a xlink:title=" ">
<polygon fill="#999999" stroke="none" points="315,-172 194,-172 194,0 315,0 315,-172"/>
<text text-anchor="start" x="235.38" y="-158.5" font-family="Helvetica,sans-Serif" font-size="10.00">Callback</text>
<text text-anchor="start" x="198.38" y="-143.5" font-family="Helvetica,sans-Serif" font-size="10.00">#</text>
<text text-anchor="start" x="208" y="-143.5" font-family="Helvetica,sans-Serif" font-size="10.00">$messageTemplates</text>
<text text-anchor="start" x="198.38" y="-128.5" font-family="Helvetica,sans-Serif" font-size="10.00">#</text>
<text text-anchor="start" x="208" y="-128.5" font-family="Helvetica,sans-Serif" font-size="10.00">$options</text>
<text text-anchor="start" x="198" y="-113.5" font-family="Helvetica,sans-Serif" font-size="10.00">+</text>
<text text-anchor="start" x="208" y="-113.5" font-family="Helvetica,sans-Serif" font-size="10.00">__construct($options</text>
<text text-anchor="start" x="208" y="-102.25" font-family="Helvetica,sans-Serif" font-size="10.00">=null)</text>
<text text-anchor="start" x="198" y="-87.5" font-family="Helvetica,sans-Serif" font-size="10.00">+</text>
<text text-anchor="start" x="208" y="-87.5" font-family="Helvetica,sans-Serif" font-size="10.00">getCallback()</text>
<text text-anchor="start" x="198" y="-72.5" font-family="Helvetica,sans-Serif" font-size="10.00">+</text>
<text text-anchor="start" x="208" y="-72.5" font-family="Helvetica,sans-Serif" font-size="10.00">setCallback($callback)</text>
<text text-anchor="start" x="198" y="-57.5" font-family="Helvetica,sans-Serif" font-size="10.00">+</text>
<text text-anchor="start" x="208" y="-57.5" font-family="Helvetica,sans-Serif" font-size="10.00">getCallbackOptions()</text>
<text text-anchor="start" x="198" y="-42.5" font-family="Helvetica,sans-Serif" font-size="10.00">+</text>
<text text-anchor="start" x="208" y="-42.5" font-family="Helvetica,sans-Serif" font-size="10.00">setCallbackOptions</text>
<text text-anchor="start" x="208" y="-31.25" font-family="Helvetica,sans-Serif" font-size="10.00">($options)</text>
<text text-anchor="start" x="198" y="-16.5" font-family="Helvetica,sans-Serif" font-size="10.00">+</text>
<text text-anchor="start" x="208" y="-16.5" font-family="Helvetica,sans-Serif" font-size="10.00">isValid($value, $context</text>
<text text-anchor="start" x="208" y="-5.25" font-family="Helvetica,sans-Serif" font-size="10.00">=null)</text>
<polygon fill="#666666" stroke="#666666" points="194,-155 194,-155 315,-155 315,-155 194,-155"/>
<polygon fill="#666666" stroke="#666666" points="194,-125 194,-125 206,-125 206,-125 194,-125"/>
<polygon fill="#666666" stroke="#666666" points="206,-125 206,-125 315,-125 315,-125 206,-125"/>
<polygon fill="none" stroke="#666666" points="194,0 194,-172 315,-172 315,0 194,0"/>
</a>
</g>
</g>
<!-- Node2 -->
<g id="Node000002" class="node">
<title>Node2</title>
<g id="a_Node000002"><a xlink:href="class_laminas_1_1_validator_1_1_abstract_validator.html" target="_top" xlink:title=" ">
<polygon fill="white" stroke="none" points="280,-745.5 107,-745.5 107,-230.5 280,-230.5 280,-745.5"/>
<text text-anchor="start" x="156.38" y="-732" font-family="Helvetica,sans-Serif" font-size="10.00">AbstractValidator</text>
<text text-anchor="start" x="111.38" y="-717" font-family="Helvetica,sans-Serif" font-size="10.00">#</text>
<text text-anchor="start" x="121" y="-717" font-family="Helvetica,sans-Serif" font-size="10.00">$value</text>
<text text-anchor="start" x="111.38" y="-702" font-family="Helvetica,sans-Serif" font-size="10.00">#</text>
<text text-anchor="start" x="121" y="-702" font-family="Helvetica,sans-Serif" font-size="10.00">$abstractOptions</text>
<text text-anchor="start" x="111" y="-687" font-family="Helvetica,sans-Serif" font-size="10.00">+</text>
<text text-anchor="start" x="121" y="-687" font-family="Helvetica,sans-Serif" font-size="10.00">__construct($options</text>
<text text-anchor="start" x="121" y="-675.75" font-family="Helvetica,sans-Serif" font-size="10.00">=null)</text>
<text text-anchor="start" x="111" y="-661" font-family="Helvetica,sans-Serif" font-size="10.00">+</text>
<text text-anchor="start" x="121" y="-661" font-family="Helvetica,sans-Serif" font-size="10.00">getOption($option)</text>
<text text-anchor="start" x="111" y="-646" font-family="Helvetica,sans-Serif" font-size="10.00">+</text>
<text text-anchor="start" x="121" y="-646" font-family="Helvetica,sans-Serif" font-size="10.00">getOptions()</text>
<text text-anchor="start" x="111" y="-631" font-family="Helvetica,sans-Serif" font-size="10.00">+</text>
<text text-anchor="start" x="121" y="-631" font-family="Helvetica,sans-Serif" font-size="10.00">setOptions($options=[])</text>
<text text-anchor="start" x="111" y="-616" font-family="Helvetica,sans-Serif" font-size="10.00">+</text>
<text text-anchor="start" x="121" y="-616" font-family="Helvetica,sans-Serif" font-size="10.00">getMessages()</text>
<text text-anchor="start" x="111" y="-601" font-family="Helvetica,sans-Serif" font-size="10.00">+</text>
<text text-anchor="start" x="121" y="-601" font-family="Helvetica,sans-Serif" font-size="10.00">__invoke($value)</text>
<text text-anchor="start" x="111" y="-586" font-family="Helvetica,sans-Serif" font-size="10.00">+</text>
<text text-anchor="start" x="121" y="-586" font-family="Helvetica,sans-Serif" font-size="10.00">getMessageVariables()</text>
<text text-anchor="start" x="111" y="-571" font-family="Helvetica,sans-Serif" font-size="10.00">+</text>
<text text-anchor="start" x="121" y="-571" font-family="Helvetica,sans-Serif" font-size="10.00">getMessageTemplates()</text>
<text text-anchor="start" x="111" y="-556" font-family="Helvetica,sans-Serif" font-size="10.00">+</text>
<text text-anchor="start" x="121" y="-556" font-family="Helvetica,sans-Serif" font-size="10.00">setMessage($messageString,</text>
<text text-anchor="start" x="121" y="-544.75" font-family="Helvetica,sans-Serif" font-size="10.00"> $messageKey=null)</text>
<text text-anchor="start" x="111" y="-530" font-family="Helvetica,sans-Serif" font-size="10.00">+</text>
<text text-anchor="start" x="121" y="-530" font-family="Helvetica,sans-Serif" font-size="10.00">setMessages(array</text>
<text text-anchor="start" x="121" y="-518.75" font-family="Helvetica,sans-Serif" font-size="10.00"> $messages)</text>
<text text-anchor="start" x="121" y="-504" font-family="Helvetica,sans-Serif" font-size="10.00">et 10 de plus...</text>
<text text-anchor="start" x="111" y="-489" font-family="Helvetica,sans-Serif" font-size="10.00">+</text>
<text text-anchor="start" x="121" y="-489" font-family="Helvetica,sans-Serif" font-size="10.00">static setDefaultTranslator</text>
<text text-anchor="start" x="121" y="-477.75" font-family="Helvetica,sans-Serif" font-size="10.00">(?Translator\TranslatorInterface</text>
<text text-anchor="start" x="121" y="-466.5" font-family="Helvetica,sans-Serif" font-size="10.00"> $translator=null, $textDomain=null)</text>
<text text-anchor="start" x="111" y="-452" font-family="Helvetica,sans-Serif" font-size="10.00">+</text>
<text text-anchor="start" x="121" y="-452" font-family="Helvetica,sans-Serif" font-size="10.00">static getDefaultTranslator()</text>
<text text-anchor="start" x="111" y="-437" font-family="Helvetica,sans-Serif" font-size="10.00">+</text>
<text text-anchor="start" x="121" y="-437" font-family="Helvetica,sans-Serif" font-size="10.00">static hasDefaultTranslator()</text>
<text text-anchor="start" x="111" y="-422" font-family="Helvetica,sans-Serif" font-size="10.00">+</text>
<text text-anchor="start" x="121" y="-422" font-family="Helvetica,sans-Serif" font-size="10.00">static setDefaultTranslator</text>
<text text-anchor="start" x="121" y="-410.75" font-family="Helvetica,sans-Serif" font-size="10.00">TextDomain($textDomain=&#39;default&#39;)</text>
<text text-anchor="start" x="111" y="-396" font-family="Helvetica,sans-Serif" font-size="10.00">+</text>
<text text-anchor="start" x="121" y="-396" font-family="Helvetica,sans-Serif" font-size="10.00">static getDefaultTranslator</text>
<text text-anchor="start" x="121" y="-384.75" font-family="Helvetica,sans-Serif" font-size="10.00">TextDomain()</text>
<text text-anchor="start" x="111" y="-370" font-family="Helvetica,sans-Serif" font-size="10.00">+</text>
<text text-anchor="start" x="121" y="-370" font-family="Helvetica,sans-Serif" font-size="10.00">static getMessageLength()</text>
<text text-anchor="start" x="111" y="-355" font-family="Helvetica,sans-Serif" font-size="10.00">+</text>
<text text-anchor="start" x="121" y="-355" font-family="Helvetica,sans-Serif" font-size="10.00">static setMessageLength</text>
<text text-anchor="start" x="121" y="-343.75" font-family="Helvetica,sans-Serif" font-size="10.00">($length=&#45;1)</text>
<text text-anchor="start" x="111.38" y="-329" font-family="Helvetica,sans-Serif" font-size="10.00">#</text>
<text text-anchor="start" x="121" y="-329" font-family="Helvetica,sans-Serif" font-size="10.00">createMessage($messageKey,</text>
<text text-anchor="start" x="121" y="-317.75" font-family="Helvetica,sans-Serif" font-size="10.00"> $value)</text>
<text text-anchor="start" x="111.38" y="-303" font-family="Helvetica,sans-Serif" font-size="10.00">#</text>
<text text-anchor="start" x="121" y="-303" font-family="Helvetica,sans-Serif" font-size="10.00">error($messageKey,</text>
<text text-anchor="start" x="121" y="-291.75" font-family="Helvetica,sans-Serif" font-size="10.00"> $value=null)</text>
<text text-anchor="start" x="111.38" y="-277" font-family="Helvetica,sans-Serif" font-size="10.00">#</text>
<text text-anchor="start" x="121" y="-277" font-family="Helvetica,sans-Serif" font-size="10.00">getValue()</text>
<text text-anchor="start" x="111.38" y="-262" font-family="Helvetica,sans-Serif" font-size="10.00">#</text>
<text text-anchor="start" x="121" y="-262" font-family="Helvetica,sans-Serif" font-size="10.00">setValue($value)</text>
<text text-anchor="start" x="111.38" y="-247" font-family="Helvetica,sans-Serif" font-size="10.00">#</text>
<text text-anchor="start" x="121" y="-247" font-family="Helvetica,sans-Serif" font-size="10.00">translateMessage(</text>
<text text-anchor="start" x="121" y="-235.75" font-family="Helvetica,sans-Serif" font-size="10.00">$messageKey, $message)</text>
<polygon fill="#666666" stroke="#666666" points="107,-728.5 107,-728.5 280,-728.5 280,-728.5 107,-728.5"/>
<polygon fill="#666666" stroke="#666666" points="107,-698.5 107,-698.5 119,-698.5 119,-698.5 107,-698.5"/>
<polygon fill="#666666" stroke="#666666" points="119,-698.5 119,-698.5 280,-698.5 280,-698.5 119,-698.5"/>
<polygon fill="none" stroke="#666666" points="107,-230.5 107,-745.5 280,-745.5 280,-230.5 107,-230.5"/>
</a>
</g>
</g>
<!-- Node2&#45;&gt;Node1 -->
<g id="edge1_Node000001_Node000002" class="edge">
<title>Node2&#45;&gt;Node1</title>
<g id="a_edge1_Node000001_Node000002"><a xlink:title=" ">
<path fill="none" stroke="#63b8ff" d="M234.31,-219.4C236.88,-202.57 239.33,-186.45 241.59,-171.63"/>
<polygon fill="none" stroke="#63b8ff" points="230.88,-218.65 232.84,-229.07 237.8,-219.71 230.88,-218.65"/>
</a>
</g>
</g>
<!-- Node3 -->
<g id="Node000003" class="node">
<title>Node3</title>
<g id="a_Node000003"><a xlink:href="interface_laminas_1_1_validator_1_1_translator_1_1_translator_aware_interface.html" target="_top" xlink:title=" ">
<polygon fill="white" stroke="none" points="133,-998.25 0,-998.25 0,-815.25 133,-815.25 133,-998.25"/>
<text text-anchor="start" x="11.75" y="-984.75" font-family="Helvetica,sans-Serif" font-size="10.00">TranslatorAwareInterface</text>
<text text-anchor="start" x="65" y="-969.75" font-family="Helvetica,sans-Serif" font-size="10.00"> </text>
<text text-anchor="start" x="4" y="-954.75" font-family="Helvetica,sans-Serif" font-size="10.00">+</text>
<text text-anchor="start" x="14" y="-954.75" font-family="Helvetica,sans-Serif" font-size="10.00">setTranslator(?Translator</text>
<text text-anchor="start" x="14" y="-943.5" font-family="Helvetica,sans-Serif" font-size="10.00">Interface $translator=null,</text>
<text text-anchor="start" x="14" y="-932.25" font-family="Helvetica,sans-Serif" font-size="10.00"> $textDomain=null)</text>
<text text-anchor="start" x="4" y="-917.75" font-family="Helvetica,sans-Serif" font-size="10.00">+</text>
<text text-anchor="start" x="14" y="-917.75" font-family="Helvetica,sans-Serif" font-size="10.00">getTranslator()</text>
<text text-anchor="start" x="4" y="-902.75" font-family="Helvetica,sans-Serif" font-size="10.00">+</text>
<text text-anchor="start" x="14" y="-902.75" font-family="Helvetica,sans-Serif" font-size="10.00">hasTranslator()</text>
<text text-anchor="start" x="4" y="-887.75" font-family="Helvetica,sans-Serif" font-size="10.00">+</text>
<text text-anchor="start" x="14" y="-887.75" font-family="Helvetica,sans-Serif" font-size="10.00">setTranslatorEnabled</text>
<text text-anchor="start" x="14" y="-876.5" font-family="Helvetica,sans-Serif" font-size="10.00">($enabled=true)</text>
<text text-anchor="start" x="4" y="-861.75" font-family="Helvetica,sans-Serif" font-size="10.00">+</text>
<text text-anchor="start" x="14" y="-861.75" font-family="Helvetica,sans-Serif" font-size="10.00">isTranslatorEnabled()</text>
<text text-anchor="start" x="4" y="-846.75" font-family="Helvetica,sans-Serif" font-size="10.00">+</text>
<text text-anchor="start" x="14" y="-846.75" font-family="Helvetica,sans-Serif" font-size="10.00">setTranslatorTextDomain</text>
<text text-anchor="start" x="14" y="-835.5" font-family="Helvetica,sans-Serif" font-size="10.00">($textDomain=&#39;default&#39;)</text>
<text text-anchor="start" x="4" y="-820.75" font-family="Helvetica,sans-Serif" font-size="10.00">+</text>
<text text-anchor="start" x="14" y="-820.75" font-family="Helvetica,sans-Serif" font-size="10.00">getTranslatorTextDomain()</text>
<polygon fill="#666666" stroke="#666666" points="0,-981.25 0,-981.25 133,-981.25 133,-981.25 0,-981.25"/>
<polygon fill="#666666" stroke="#666666" points="0,-966.25 0,-966.25 133,-966.25 133,-966.25 0,-966.25"/>
<polygon fill="none" stroke="#666666" points="0,-815.25 0,-998.25 133,-998.25 133,-815.25 0,-815.25"/>
</a>
</g>
</g>
<!-- Node3&#45;&gt;Node2 -->
<g id="edge2_Node000002_Node000003" class="edge">
<title>Node3&#45;&gt;Node2</title>
<g id="a_edge2_Node000002_Node000003"><a xlink:title=" ">
<path fill="none" stroke="#63b8ff" d="M97.41,-804.32C103.04,-785.84 109.14,-765.81 115.45,-745.12"/>
<polygon fill="none" stroke="#63b8ff" points="94.07,-803.29 94.5,-813.87 100.76,-805.33 94.07,-803.29"/>
</a>
</g>
</g>
<!-- Node4 -->
<g id="Node000004" class="node">
<title>Node4</title>
<g id="a_Node000004"><a xlink:href="interface_laminas_1_1_validator_1_1_validator_interface.html" target="_top" xlink:title=" ">
<polygon fill="white" stroke="none" points="236,-938.75 151,-938.75 151,-874.75 236,-874.75 236,-938.75"/>
<text text-anchor="start" x="155.62" y="-925.25" font-family="Helvetica,sans-Serif" font-size="10.00">ValidatorInterface</text>
<text text-anchor="start" x="192" y="-910.25" font-family="Helvetica,sans-Serif" font-size="10.00"> </text>
<text text-anchor="start" x="155.5" y="-895.25" font-family="Helvetica,sans-Serif" font-size="10.00">+</text>
<text text-anchor="start" x="166" y="-895.25" font-family="Helvetica,sans-Serif" font-size="10.00">isValid($value)</text>
<text text-anchor="start" x="155.5" y="-880.25" font-family="Helvetica,sans-Serif" font-size="10.00">+</text>
<text text-anchor="start" x="166" y="-880.25" font-family="Helvetica,sans-Serif" font-size="10.00">getMessages()</text>
<polygon fill="#666666" stroke="#666666" points="151,-921.75 151,-921.75 236,-921.75 236,-921.75 151,-921.75"/>
<polygon fill="#666666" stroke="#666666" points="151,-906.75 151,-906.75 236,-906.75 236,-906.75 151,-906.75"/>
<polygon fill="none" stroke="#666666" points="151,-874.75 151,-938.75 236,-938.75 236,-874.75 151,-874.75"/>
</a>
</g>
</g>
<!-- Node4&#45;&gt;Node2 -->
<g id="edge3_Node000002_Node000004" class="edge">
<title>Node4&#45;&gt;Node2</title>
<g id="a_edge3_Node000002_Node000004"><a xlink:title=" ">
<path fill="none" stroke="#63b8ff" d="M193.5,-863.63C193.5,-833.91 193.5,-791.34 193.5,-745.48"/>
<polygon fill="none" stroke="#63b8ff" points="190,-863.25 193.5,-873.25 197,-863.25 190,-863.25"/>
</a>
</g>
</g>
<!-- Node5 -->
<g id="Node000005" class="node">
<title>Node5</title>
<g id="a_Node000005"><a xlink:title=" ">
<polygon fill="white" stroke="none" points="288.5,-931.25 254.5,-931.25 254.5,-882.25 288.5,-882.25 288.5,-931.25"/>
<text text-anchor="start" x="259.5" y="-917.75" font-family="Helvetica,sans-Serif" font-size="10.00">static</text>
<text text-anchor="start" x="270" y="-902.75" font-family="Helvetica,sans-Serif" font-size="10.00"> </text>
<text text-anchor="start" x="270" y="-887.75" font-family="Helvetica,sans-Serif" font-size="10.00"> </text>
<polygon fill="#666666" stroke="#666666" points="254.5,-914.25 254.5,-914.25 288.5,-914.25 288.5,-914.25 254.5,-914.25"/>
<polygon fill="#666666" stroke="#666666" points="254.5,-899.25 254.5,-899.25 288.5,-899.25 288.5,-899.25 254.5,-899.25"/>
<polygon fill="none" stroke="#666666" points="254.5,-882.25 254.5,-931.25 288.5,-931.25 288.5,-882.25 254.5,-882.25"/>
</a>
</g>
</g>
<!-- Node5&#45;&gt;Node2 -->
<g id="edge4_Node000002_Node000005" class="edge">
<title>Node5&#45;&gt;Node2</title>
<g id="a_edge4_Node000002_Node000005"><a xlink:title=" ">
<path fill="none" stroke="#63b8ff" d="M267.14,-882.45C262.19,-855.99 253.53,-809.72 243.84,-757.98"/>
<polygon fill="none" stroke="#63b8ff" points="243.87,-758.12 238.83,-752.96 241.66,-746.33 246.7,-751.49 243.87,-758.12"/>
</a>
</g>
<text text-anchor="middle" x="319.38" y="-787.75" font-family="Helvetica,sans-Serif" font-size="10.00" fill="grey"> #$defaultTranslator</text>
<text text-anchor="middle" x="319.38" y="-776.5" font-family="Helvetica,sans-Serif" font-size="10.00" fill="grey">#$defaultTranslatorTextDomain</text>
<text text-anchor="middle" x="319.38" y="-765.25" font-family="Helvetica,sans-Serif" font-size="10.00" fill="grey">#$messageLength</text>
</g>
<!-- Node6 -->
<g id="Node000006" class="node">
<title>Node6</title>
<g id="a_Node000006"><a xlink:title=" ">
<polygon fill="white" stroke="none" points="332.5,-512.5 298.5,-512.5 298.5,-463.5 332.5,-463.5 332.5,-512.5"/>
<text text-anchor="start" x="303.5" y="-499" font-family="Helvetica,sans-Serif" font-size="10.00">const</text>
<text text-anchor="start" x="314" y="-484" font-family="Helvetica,sans-Serif" font-size="10.00"> </text>
<text text-anchor="start" x="314" y="-469" font-family="Helvetica,sans-Serif" font-size="10.00"> </text>
<polygon fill="#666666" stroke="#666666" points="298.5,-495.5 298.5,-495.5 332.5,-495.5 332.5,-495.5 298.5,-495.5"/>
<polygon fill="#666666" stroke="#666666" points="298.5,-480.5 298.5,-480.5 332.5,-480.5 332.5,-480.5 298.5,-480.5"/>
<polygon fill="none" stroke="#666666" points="298.5,-463.5 298.5,-512.5 332.5,-512.5 332.5,-463.5 298.5,-463.5"/>
</a>
</g>
</g>
<!-- Node6&#45;&gt;Node1 -->
<g id="edge5_Node000001_Node000006" class="edge">
<title>Node6&#45;&gt;Node1</title>
<g id="a_edge5_Node000001_Node000006"><a xlink:title=" ">
<path fill="none" stroke="#63b8ff" d="M314.21,-463.51C311.48,-418.19 304.13,-315.64 289.5,-230.5 286.94,-215.59 283.7,-199.94 280.23,-184.67"/>
<polygon fill="none" stroke="#63b8ff" points="280.2,-184.53 274.94,-179.59 277.48,-172.84 282.73,-177.77 280.2,-184.53"/>
</a>
</g>
<text text-anchor="middle" x="338" y="-203" font-family="Helvetica,sans-Serif" font-size="10.00" fill="grey"> +INVALID_CALLBACK</text>
<text text-anchor="middle" x="338" y="-191.75" font-family="Helvetica,sans-Serif" font-size="10.00" fill="grey">+INVALID_VALUE</text>
</g>
</g>
</svg>
