<?xml version="1.0" encoding="UTF-8" standalone="no"?>
<!DOCTYPE svg PUBLIC "-//W3C//DTD SVG 1.1//EN"
 "http://www.w3.org/Graphics/SVG/1.1/DTD/svg11.dtd">
<!-- Generated by graphviz version 10.0.1 (20240210.2158)
 -->
<!-- Title: box_seed_keypair Pages: 1 -->
<svg width="1293pt" height="173pt"
 viewBox="0.00 0.00 1293.25 172.50" xmlns="http://www.w3.org/2000/svg" xmlns:xlink="http://www.w3.org/1999/xlink">
<g id="graph0" class="graph" transform="scale(1 1) rotate(0) translate(4 168.5)">
<title>box_seed_keypair</title>
<!-- Node1 -->
<g id="Node000001" class="node">
<title>Node1</title>
<g id="a_Node000001"><a xlink:title=" ">
<polygon fill="#999999" stroke="#666666" points="94.75,-45.88 0,-45.88 0,-26.62 94.75,-26.62 94.75,-45.88"/>
<text text-anchor="middle" x="47.38" y="-32.38" font-family="Helvetica,sans-Serif" font-size="10.00">box_seed_keypair</text>
</a>
</g>
</g>
<!-- Node2 -->
<g id="Node000002" class="node">
<title>Node2</title>
<g id="a_Node000002"><a xlink:href="class_paragon_i_e___sodium___crypto.html#a79cfb734b2a78effc2cd56f2536aa708" target="_top" xlink:title=" ">
<polygon fill="white" stroke="#666666" points="237.5,-67.88 150.25,-67.88 150.25,-48.62 237.5,-48.62 237.5,-67.88"/>
<text text-anchor="middle" x="193.88" y="-54.38" font-family="Helvetica,sans-Serif" font-size="10.00">scalarmult_base</text>
</a>
</g>
</g>
<!-- Node1&#45;&gt;Node2 -->
<g id="edge1_Node000001_Node000002" class="edge">
<title>Node1&#45;&gt;Node2</title>
<g id="a_edge1_Node000001_Node000002"><a xlink:title=" ">
<path fill="none" stroke="#63b8ff" d="M94.89,-43.33C108.82,-45.45 124.22,-47.8 138.61,-49.99"/>
<polygon fill="#63b8ff" stroke="#63b8ff" points="137.97,-53.43 148.38,-51.48 139.02,-46.51 137.97,-53.43"/>
</a>
</g>
</g>
<!-- Node13 -->
<g id="Node000013" class="node">
<title>Node13</title>
<g id="a_Node000013"><a xlink:href="class_paragon_i_e___sodium___core___util.html#a025c3fe8ca9d8732f2c7df972955f5b2" target="_top" xlink:title=" ">
<polygon fill="white" stroke="#666666" points="257,-30.5 130.75,-30.5 130.75,0 257,0 257,-30.5"/>
<text text-anchor="start" x="138.75" y="-17" font-family="Helvetica,sans-Serif" font-size="10.00">ParagonIE_Sodium_Core</text>
<text text-anchor="middle" x="193.88" y="-5.75" font-family="Helvetica,sans-Serif" font-size="10.00">_Util\substr</text>
</a>
</g>
</g>
<!-- Node1&#45;&gt;Node13 -->
<g id="edge15_Node000001_Node000013" class="edge">
<title>Node1&#45;&gt;Node13</title>
<g id="a_edge15_Node000001_Node000013"><a xlink:title=" ">
<path fill="none" stroke="#63b8ff" d="M94.89,-29.49C102.66,-28.36 110.89,-27.16 119.14,-25.97"/>
<polygon fill="#63b8ff" stroke="#63b8ff" points="119.48,-29.45 128.88,-24.55 118.48,-22.53 119.48,-29.45"/>
</a>
</g>
</g>
<!-- Node3 -->
<g id="Node000003" class="node">
<title>Node3</title>
<g id="a_Node000003"><a xlink:href="class_paragon_i_e___sodium___core___x25519.html#a7757ccb7ab2a3ae77f6bb8c3d5ff67e8" target="_top" xlink:title=" ">
<polygon fill="white" stroke="#666666" points="427.5,-103.12 293,-103.12 293,-61.38 427.5,-61.38 427.5,-103.12"/>
<text text-anchor="start" x="301" y="-89.62" font-family="Helvetica,sans-Serif" font-size="10.00">ParagonIE_Sodium_Core</text>
<text text-anchor="start" x="301" y="-78.38" font-family="Helvetica,sans-Serif" font-size="10.00">_X25519\crypto_scalarmult</text>
<text text-anchor="middle" x="360.25" y="-67.12" font-family="Helvetica,sans-Serif" font-size="10.00">_curve25519_ref10_base</text>
</a>
</g>
</g>
<!-- Node2&#45;&gt;Node3 -->
<g id="edge2_Node000002_Node000003" class="edge">
<title>Node2&#45;&gt;Node3</title>
<g id="a_edge2_Node000002_Node000003"><a xlink:title=" ">
<path fill="none" stroke="#63b8ff" d="M237.63,-64.49C251.18,-66.47 266.6,-68.72 281.81,-70.94"/>
<polygon fill="#63b8ff" stroke="#63b8ff" points="280.91,-74.35 291.31,-72.33 281.92,-67.42 280.91,-74.35"/>
</a>
</g>
</g>
<!-- Node12 -->
<g id="Node000012" class="node">
<title>Node12</title>
<g id="a_Node000012"><a xlink:href="class_paragon_i_e___sodium___crypto.html#a513a3d36b1094ee09725f9a1d3afdd68" target="_top" xlink:title=" ">
<polygon fill="white" stroke="#666666" points="422.62,-42.88 297.88,-42.88 297.88,-23.62 422.62,-23.62 422.62,-42.88"/>
<text text-anchor="middle" x="360.25" y="-29.38" font-family="Helvetica,sans-Serif" font-size="10.00">scalarmult_throw_if_zero</text>
</a>
</g>
</g>
<!-- Node2&#45;&gt;Node12 -->
<g id="edge14_Node000002_Node000012" class="edge">
<title>Node2&#45;&gt;Node12</title>
<g id="a_edge14_Node000002_Node000012"><a xlink:title=" ">
<path fill="none" stroke="#63b8ff" d="M237.63,-51.75C252.47,-49.49 269.56,-46.89 286.15,-44.37"/>
<polygon fill="#63b8ff" stroke="#63b8ff" points="286.66,-47.83 296.02,-42.87 285.61,-40.91 286.66,-47.83"/>
</a>
</g>
</g>
<!-- Node4 -->
<g id="Node000004" class="node">
<title>Node4</title>
<g id="a_Node000004"><a xlink:href="class_paragon_i_e___sodium___core___x25519.html#a43974c2b133cfc0e61794a6f97c56283" target="_top" xlink:title=" ">
<polygon fill="white" stroke="#666666" points="630.25,-121.5 463.5,-121.5 463.5,-91 630.25,-91 630.25,-121.5"/>
<text text-anchor="start" x="471.5" y="-108" font-family="Helvetica,sans-Serif" font-size="10.00">ParagonIE_Sodium_Core</text>
<text text-anchor="middle" x="546.88" y="-96.75" font-family="Helvetica,sans-Serif" font-size="10.00">_X25519\edwards_to_montgomery</text>
</a>
</g>
</g>
<!-- Node3&#45;&gt;Node4 -->
<g id="edge3_Node000003_Node000004" class="edge">
<title>Node3&#45;&gt;Node4</title>
<g id="a_edge3_Node000003_Node000004"><a xlink:title=" ">
<path fill="none" stroke="#63b8ff" d="M427.9,-90.91C435.7,-91.93 443.75,-92.97 451.83,-94.02"/>
<polygon fill="#63b8ff" stroke="#63b8ff" points="451.36,-97.49 461.73,-95.31 452.27,-90.55 451.36,-97.49"/>
</a>
</g>
</g>
<!-- Node11 -->
<g id="Node000011" class="node">
<title>Node11</title>
<g id="a_Node000011"><a xlink:href="class_paragon_i_e___sodium___core___util.html#ac5239a72975aba227b1f5e35b8e22a34" target="_top" xlink:title=" ">
<polygon fill="white" stroke="#666666" points="610,-72.5 483.75,-72.5 483.75,-42 610,-42 610,-72.5"/>
<text text-anchor="start" x="491.75" y="-59" font-family="Helvetica,sans-Serif" font-size="10.00">ParagonIE_Sodium_Core</text>
<text text-anchor="middle" x="546.88" y="-47.75" font-family="Helvetica,sans-Serif" font-size="10.00">_Util\intToChr</text>
</a>
</g>
</g>
<!-- Node3&#45;&gt;Node11 -->
<g id="edge13_Node000003_Node000011" class="edge">
<title>Node3&#45;&gt;Node11</title>
<g id="a_edge13_Node000003_Node000011"><a xlink:title=" ">
<path fill="none" stroke="#63b8ff" d="M427.9,-73.22C442.31,-71.27 457.62,-69.2 472.27,-67.22"/>
<polygon fill="#63b8ff" stroke="#63b8ff" points="472.38,-70.73 481.82,-65.92 471.44,-63.8 472.38,-70.73"/>
</a>
</g>
</g>
<!-- Node5 -->
<g id="Node000005" class="node">
<title>Node5</title>
<g id="a_Node000005"><a xlink:href="class_paragon_i_e___sodium___core___curve25519.html#abe5662141c750d6cb9c459afd53eebc3" target="_top" xlink:title=" ">
<polygon fill="white" stroke="#666666" points="792.5,-121.5 666.25,-121.5 666.25,-91 792.5,-91 792.5,-121.5"/>
<text text-anchor="start" x="674.25" y="-108" font-family="Helvetica,sans-Serif" font-size="10.00">ParagonIE_Sodium_Core</text>
<text text-anchor="middle" x="729.38" y="-96.75" font-family="Helvetica,sans-Serif" font-size="10.00">_Curve25519\fe_invert</text>
</a>
</g>
</g>
<!-- Node4&#45;&gt;Node5 -->
<g id="edge4_Node000004_Node000005" class="edge">
<title>Node4&#45;&gt;Node5</title>
<g id="a_edge4_Node000004_Node000005"><a xlink:title=" ">
<path fill="none" stroke="#63b8ff" d="M630.73,-106.25C638.7,-106.25 646.75,-106.25 654.62,-106.25"/>
<polygon fill="#63b8ff" stroke="#63b8ff" points="654.49,-109.75 664.49,-106.25 654.49,-102.75 654.49,-109.75"/>
</a>
</g>
</g>
<!-- Node6 -->
<g id="Node000006" class="node">
<title>Node6</title>
<g id="a_Node000006"><a xlink:href="class_paragon_i_e___sodium___core___curve25519.html#a64516f7aacad228d305e021632044d36" target="_top" xlink:title=" ">
<polygon fill="white" stroke="#666666" points="954.75,-164.5 828.5,-164.5 828.5,-134 954.75,-134 954.75,-164.5"/>
<text text-anchor="start" x="836.5" y="-151" font-family="Helvetica,sans-Serif" font-size="10.00">ParagonIE_Sodium_Core</text>
<text text-anchor="middle" x="891.62" y="-139.75" font-family="Helvetica,sans-Serif" font-size="10.00">_Curve25519\fe_mul</text>
</a>
</g>
</g>
<!-- Node4&#45;&gt;Node6 -->
<g id="edge10_Node000004_Node000006" class="edge">
<title>Node4&#45;&gt;Node6</title>
<g id="a_edge10_Node000004_Node000006"><a xlink:title=" ">
<path fill="none" stroke="#63b8ff" d="M618.69,-122C634.3,-125.08 650.79,-128.04 666.25,-130.25 716.16,-137.4 772.73,-142.17 816.58,-145.14"/>
<polygon fill="#63b8ff" stroke="#63b8ff" points="816.3,-148.63 826.51,-145.79 816.76,-141.64 816.3,-148.63"/>
</a>
</g>
</g>
<!-- Node10 -->
<g id="Node000010" class="node">
<title>Node10</title>
<g id="a_Node000010"><a xlink:href="class_paragon_i_e___sodium___core___curve25519.html#a1e43e8c9928ebeed3060bc1e962a8530" target="_top" xlink:title=" ">
<polygon fill="white" stroke="#666666" points="792.5,-72.5 666.25,-72.5 666.25,-42 792.5,-42 792.5,-72.5"/>
<text text-anchor="start" x="674.25" y="-59" font-family="Helvetica,sans-Serif" font-size="10.00">ParagonIE_Sodium_Core</text>
<text text-anchor="middle" x="729.38" y="-47.75" font-family="Helvetica,sans-Serif" font-size="10.00">_Curve25519\fe_sub</text>
</a>
</g>
</g>
<!-- Node4&#45;&gt;Node10 -->
<g id="edge11_Node000004_Node000010" class="edge">
<title>Node4&#45;&gt;Node10</title>
<g id="a_edge11_Node000004_Node000010"><a xlink:title=" ">
<path fill="none" stroke="#63b8ff" d="M605.48,-90.61C622.66,-85.95 641.65,-80.79 659.47,-75.96"/>
<polygon fill="#63b8ff" stroke="#63b8ff" points="660.19,-79.39 668.93,-73.39 658.36,-72.63 660.19,-79.39"/>
</a>
</g>
</g>
<!-- Node5&#45;&gt;Node6 -->
<g id="edge5_Node000005_Node000006" class="edge">
<title>Node5&#45;&gt;Node6</title>
<g id="a_edge5_Node000005_Node000006"><a xlink:title=" ">
<path fill="none" stroke="#63b8ff" d="M788.68,-121.9C799.18,-124.71 810.21,-127.67 820.99,-130.56"/>
<polygon fill="#63b8ff" stroke="#63b8ff" points="820.07,-133.94 830.63,-133.15 821.88,-127.18 820.07,-133.94"/>
</a>
</g>
</g>
<!-- Node9 -->
<g id="Node000009" class="node">
<title>Node9</title>
<g id="a_Node000009"><a xlink:href="class_paragon_i_e___sodium___core___curve25519.html#a59f7bf4bc4e4cedd40177472cdc31cb8" target="_top" xlink:title=" ">
<polygon fill="white" stroke="#666666" points="954.75,-115.5 828.5,-115.5 828.5,-85 954.75,-85 954.75,-115.5"/>
<text text-anchor="start" x="836.5" y="-102" font-family="Helvetica,sans-Serif" font-size="10.00">ParagonIE_Sodium_Core</text>
<text text-anchor="middle" x="891.62" y="-90.75" font-family="Helvetica,sans-Serif" font-size="10.00">_Curve25519\fe_sq</text>
</a>
</g>
</g>
<!-- Node5&#45;&gt;Node9 -->
<g id="edge8_Node000005_Node000009" class="edge">
<title>Node5&#45;&gt;Node9</title>
<g id="a_edge8_Node000005_Node000009"><a xlink:title=" ">
<path fill="none" stroke="#63b8ff" d="M792.79,-103.91C800.68,-103.62 808.8,-103.31 816.84,-103.01"/>
<polygon fill="#63b8ff" stroke="#63b8ff" points="816.74,-106.52 826.6,-102.65 816.48,-99.52 816.74,-106.52"/>
</a>
</g>
</g>
<!-- Node7 -->
<g id="Node000007" class="node">
<title>Node7</title>
<g id="a_Node000007"><a xlink:href="class_paragon_i_e___sodium___core___curve25519.html#ae05bd0648b1253432e7c969447d1b77e" target="_top" xlink:title=" ">
<polygon fill="white" stroke="#666666" points="1123,-115.5 990.75,-115.5 990.75,-85 1123,-85 1123,-115.5"/>
<text text-anchor="start" x="998.75" y="-102" font-family="Helvetica,sans-Serif" font-size="10.00">ParagonIE_Sodium_Core</text>
<text text-anchor="middle" x="1056.88" y="-90.75" font-family="Helvetica,sans-Serif" font-size="10.00">_Curve25519\fe_normalize</text>
</a>
</g>
</g>
<!-- Node6&#45;&gt;Node7 -->
<g id="edge6_Node000006_Node000007" class="edge">
<title>Node6&#45;&gt;Node7</title>
<g id="a_edge6_Node000006_Node000007"><a xlink:title=" ">
<path fill="none" stroke="#63b8ff" d="M944.73,-133.61C959.97,-129.04 976.79,-123.99 992.64,-119.23"/>
<polygon fill="#63b8ff" stroke="#63b8ff" points="993.41,-122.65 1001.98,-116.43 991.39,-115.95 993.41,-122.65"/>
</a>
</g>
</g>
<!-- Node8 -->
<g id="Node000008" class="node">
<title>Node8</title>
<g id="a_Node000008"><a xlink:href="class_paragon_i_e___sodium___core___curve25519.html#a93bcc24a23d277ecec10386f3f2e38d5" target="_top" xlink:title=" ">
<polygon fill="white" stroke="#666666" points="1285.25,-115.5 1159,-115.5 1159,-85 1285.25,-85 1285.25,-115.5"/>
<text text-anchor="start" x="1167" y="-102" font-family="Helvetica,sans-Serif" font-size="10.00">ParagonIE_Sodium_Core</text>
<text text-anchor="middle" x="1222.12" y="-90.75" font-family="Helvetica,sans-Serif" font-size="10.00">_Curve25519\fe_copy</text>
</a>
</g>
</g>
<!-- Node7&#45;&gt;Node8 -->
<g id="edge7_Node000007_Node000008" class="edge">
<title>Node7&#45;&gt;Node8</title>
<g id="a_edge7_Node000007_Node000008"><a xlink:title=" ">
<path fill="none" stroke="#63b8ff" d="M1123.33,-100.25C1131.14,-100.25 1139.15,-100.25 1147.07,-100.25"/>
<polygon fill="#63b8ff" stroke="#63b8ff" points="1147.05,-103.75 1157.05,-100.25 1147.05,-96.75 1147.05,-103.75"/>
</a>
</g>
</g>
<!-- Node9&#45;&gt;Node7 -->
<g id="edge9_Node000009_Node000007" class="edge">
<title>Node9&#45;&gt;Node7</title>
<g id="a_edge9_Node000009_Node000007"><a xlink:title=" ">
<path fill="none" stroke="#63b8ff" d="M954.81,-100.25C962.71,-100.25 970.87,-100.25 978.96,-100.25"/>
<polygon fill="#63b8ff" stroke="#63b8ff" points="978.82,-103.75 988.82,-100.25 978.82,-96.75 978.82,-103.75"/>
</a>
</g>
</g>
<!-- Node10&#45;&gt;Node7 -->
<g id="edge12_Node000010_Node000007" class="edge">
<title>Node10&#45;&gt;Node7</title>
<g id="a_edge12_Node000010_Node000007"><a xlink:title=" ">
<path fill="none" stroke="#63b8ff" d="M792.58,-60.03C837.78,-62.66 900.32,-67.54 954.75,-76.25 964.69,-77.84 975.11,-79.88 985.32,-82.1"/>
<polygon fill="#63b8ff" stroke="#63b8ff" points="984.28,-85.45 994.8,-84.22 985.81,-78.62 984.28,-85.45"/>
</a>
</g>
</g>
</g>
</svg>
