<?xml version="1.0" encoding="UTF-8" standalone="no"?>
<!DOCTYPE svg PUBLIC "-//W3C//DTD SVG 1.1//EN"
 "http://www.w3.org/Graphics/SVG/1.1/DTD/svg11.dtd">
<!-- Generated by graphviz version 10.0.1 (20240210.2158)
 -->
<!-- Title: Fields Pages: 1 -->
<svg width="157pt" height="563pt"
 viewBox="0.00 0.00 157.00 563.00" xmlns="http://www.w3.org/2000/svg" xmlns:xlink="http://www.w3.org/1999/xlink">
<g id="graph0" class="graph" transform="scale(1 1) rotate(0) translate(4 559)">
<title>Fields</title>
<!-- Node1 -->
<g id="Node000001" class="node">
<title>Node1</title>
<g id="a_Node000001"><a xlink:title=" ">
<polygon fill="#999999" stroke="none" points="149,-150 0,-150 0,0 149,0 149,-150"/>
<text text-anchor="start" x="61.38" y="-136.5" font-family="Helvetica,sans-Serif" font-size="10.00">Fields</text>
<text text-anchor="start" x="73" y="-121.5" font-family="Helvetica,sans-Serif" font-size="10.00"> </text>
<text text-anchor="start" x="4" y="-106.5" font-family="Helvetica,sans-Serif" font-size="10.00">+</text>
<text text-anchor="start" x="14" y="-106.5" font-family="Helvetica,sans-Serif" font-size="10.00">__construct(string</text>
<text text-anchor="start" x="14" y="-95.25" font-family="Helvetica,sans-Serif" font-size="10.00"> $bytes)</text>
<text text-anchor="start" x="4" y="-80.5" font-family="Helvetica,sans-Serif" font-size="10.00">+</text>
<text text-anchor="start" x="14" y="-80.5" font-family="Helvetica,sans-Serif" font-size="10.00">getBytes()</text>
<text text-anchor="start" x="4" y="-65.5" font-family="Helvetica,sans-Serif" font-size="10.00">+</text>
<text text-anchor="start" x="14" y="-65.5" font-family="Helvetica,sans-Serif" font-size="10.00">getTimestamp()</text>
<text text-anchor="start" x="4" y="-50.5" font-family="Helvetica,sans-Serif" font-size="10.00">+</text>
<text text-anchor="start" x="14" y="-50.5" font-family="Helvetica,sans-Serif" font-size="10.00">getClockSeq()</text>
<text text-anchor="start" x="4" y="-35.5" font-family="Helvetica,sans-Serif" font-size="10.00">+</text>
<text text-anchor="start" x="14" y="-35.5" font-family="Helvetica,sans-Serif" font-size="10.00">getClockSeqHiAndReserved()</text>
<text text-anchor="start" x="4" y="-20.5" font-family="Helvetica,sans-Serif" font-size="10.00">+</text>
<text text-anchor="start" x="14" y="-20.5" font-family="Helvetica,sans-Serif" font-size="10.00">getClockSeqLow()</text>
<text text-anchor="start" x="4" y="-5.5" font-family="Helvetica,sans-Serif" font-size="10.00">+</text>
<text text-anchor="start" x="14" y="-5.5" font-family="Helvetica,sans-Serif" font-size="10.00">getNode()</text>
<polygon fill="#666666" stroke="#666666" points="0,-133 0,-133 149,-133 149,-133 0,-133"/>
<polygon fill="#666666" stroke="#666666" points="0,-118 0,-118 149,-118 149,-118 0,-118"/>
<polygon fill="none" stroke="#666666" points="0,0 0,-150 149,-150 149,0 0,0"/>
</a>
</g>
</g>
<!-- Node2 -->
<g id="Node000002" class="node">
<title>Node2</title>
<g id="a_Node000002"><a xlink:href="interface_ramsey_1_1_uuid_1_1_rfc4122_1_1_fields_interface.html" target="_top" xlink:title=" ">
<polygon fill="white" stroke="none" points="149,-385 0,-385 0,-186 149,-186 149,-385"/>
<text text-anchor="start" x="42.25" y="-371.5" font-family="Helvetica,sans-Serif" font-size="10.00">FieldsInterface</text>
<text text-anchor="start" x="73" y="-356.5" font-family="Helvetica,sans-Serif" font-size="10.00"> </text>
<text text-anchor="start" x="4" y="-341.5" font-family="Helvetica,sans-Serif" font-size="10.00">+</text>
<text text-anchor="start" x="14" y="-341.5" font-family="Helvetica,sans-Serif" font-size="10.00">getClockSeq()</text>
<text text-anchor="start" x="4" y="-326.5" font-family="Helvetica,sans-Serif" font-size="10.00">+</text>
<text text-anchor="start" x="14" y="-326.5" font-family="Helvetica,sans-Serif" font-size="10.00">getClockSeqHiAndReserved()</text>
<text text-anchor="start" x="4" y="-311.5" font-family="Helvetica,sans-Serif" font-size="10.00">+</text>
<text text-anchor="start" x="14" y="-311.5" font-family="Helvetica,sans-Serif" font-size="10.00">getClockSeqLow()</text>
<text text-anchor="start" x="4" y="-296.5" font-family="Helvetica,sans-Serif" font-size="10.00">+</text>
<text text-anchor="start" x="14" y="-296.5" font-family="Helvetica,sans-Serif" font-size="10.00">getNode()</text>
<text text-anchor="start" x="4" y="-281.5" font-family="Helvetica,sans-Serif" font-size="10.00">+</text>
<text text-anchor="start" x="14" y="-281.5" font-family="Helvetica,sans-Serif" font-size="10.00">getTimeHiAndVersion()</text>
<text text-anchor="start" x="4" y="-266.5" font-family="Helvetica,sans-Serif" font-size="10.00">+</text>
<text text-anchor="start" x="14" y="-266.5" font-family="Helvetica,sans-Serif" font-size="10.00">getTimeLow()</text>
<text text-anchor="start" x="4" y="-251.5" font-family="Helvetica,sans-Serif" font-size="10.00">+</text>
<text text-anchor="start" x="14" y="-251.5" font-family="Helvetica,sans-Serif" font-size="10.00">getTimeMid()</text>
<text text-anchor="start" x="4" y="-236.5" font-family="Helvetica,sans-Serif" font-size="10.00">+</text>
<text text-anchor="start" x="14" y="-236.5" font-family="Helvetica,sans-Serif" font-size="10.00">getTimestamp()</text>
<text text-anchor="start" x="4" y="-221.5" font-family="Helvetica,sans-Serif" font-size="10.00">+</text>
<text text-anchor="start" x="14" y="-221.5" font-family="Helvetica,sans-Serif" font-size="10.00">getVariant()</text>
<text text-anchor="start" x="4" y="-206.5" font-family="Helvetica,sans-Serif" font-size="10.00">+</text>
<text text-anchor="start" x="14" y="-206.5" font-family="Helvetica,sans-Serif" font-size="10.00">getVersion()</text>
<text text-anchor="start" x="4" y="-191.5" font-family="Helvetica,sans-Serif" font-size="10.00">+</text>
<text text-anchor="start" x="14" y="-191.5" font-family="Helvetica,sans-Serif" font-size="10.00">isNil()</text>
<polygon fill="#666666" stroke="#666666" points="0,-368 0,-368 149,-368 149,-368 0,-368"/>
<polygon fill="#666666" stroke="#666666" points="0,-353 0,-353 149,-353 149,-353 0,-353"/>
<polygon fill="none" stroke="#666666" points="0,-186 0,-385 149,-385 149,-186 0,-186"/>
</a>
</g>
</g>
<!-- Node2&#45;&gt;Node1 -->
<g id="edge1_Node000001_Node000002" class="edge">
<title>Node2&#45;&gt;Node1</title>
<g id="a_edge1_Node000001_Node000002"><a xlink:title=" ">
<path fill="none" stroke="#63b8ff" d="M74.5,-174.57C74.5,-166.16 74.5,-157.8 74.5,-149.71"/>
<polygon fill="none" stroke="#63b8ff" points="71,-174.54 74.5,-184.54 78,-174.54 71,-174.54"/>
</a>
</g>
</g>
<!-- Node3 -->
<g id="Node000003" class="node">
<title>Node3</title>
<g id="a_Node000003"><a xlink:href="interface_ramsey_1_1_uuid_1_1_fields_1_1_fields_interface.html" target="_top" xlink:title=" ">
<polygon fill="white" stroke="none" points="111.5,-470 37.5,-470 37.5,-421 111.5,-421 111.5,-470"/>
<text text-anchor="start" x="42.25" y="-456.5" font-family="Helvetica,sans-Serif" font-size="10.00">FieldsInterface</text>
<text text-anchor="start" x="73" y="-441.5" font-family="Helvetica,sans-Serif" font-size="10.00"> </text>
<text text-anchor="start" x="44" y="-426.5" font-family="Helvetica,sans-Serif" font-size="10.00">+</text>
<text text-anchor="start" x="56.5" y="-426.5" font-family="Helvetica,sans-Serif" font-size="10.00">getBytes()</text>
<polygon fill="#666666" stroke="#666666" points="37.5,-453 37.5,-453 111.5,-453 111.5,-453 37.5,-453"/>
<polygon fill="#666666" stroke="#666666" points="37.5,-438 37.5,-438 111.5,-438 111.5,-438 37.5,-438"/>
<polygon fill="none" stroke="#666666" points="37.5,-421 37.5,-470 111.5,-470 111.5,-421 37.5,-421"/>
</a>
</g>
</g>
<!-- Node3&#45;&gt;Node2 -->
<g id="edge2_Node000002_Node000003" class="edge">
<title>Node3&#45;&gt;Node2</title>
<g id="a_edge2_Node000002_Node000003"><a xlink:title=" ">
<path fill="none" stroke="#63b8ff" d="M74.5,-409.83C74.5,-402.12 74.5,-393.57 74.5,-384.69"/>
<polygon fill="none" stroke="#63b8ff" points="71,-409.67 74.5,-419.67 78,-409.67 71,-409.67"/>
</a>
</g>
</g>
<!-- Node4 -->
<g id="Node000004" class="node">
<title>Node4</title>
<g id="a_Node000004"><a xlink:title=" ">
<polygon fill="white" stroke="none" points="104.5,-555 44.5,-555 44.5,-506 104.5,-506 104.5,-555"/>
<text text-anchor="start" x="49.38" y="-541.5" font-family="Helvetica,sans-Serif" font-size="10.00">Serializable</text>
<text text-anchor="start" x="73" y="-526.5" font-family="Helvetica,sans-Serif" font-size="10.00"> </text>
<text text-anchor="start" x="73" y="-511.5" font-family="Helvetica,sans-Serif" font-size="10.00"> </text>
<polygon fill="#666666" stroke="#666666" points="44.5,-538 44.5,-538 104.5,-538 104.5,-538 44.5,-538"/>
<polygon fill="#666666" stroke="#666666" points="44.5,-523 44.5,-523 104.5,-523 104.5,-523 44.5,-523"/>
<polygon fill="none" stroke="#666666" points="44.5,-506 44.5,-555 104.5,-555 104.5,-506 44.5,-506"/>
</a>
</g>
</g>
<!-- Node4&#45;&gt;Node3 -->
<g id="edge3_Node000003_Node000004" class="edge">
<title>Node4&#45;&gt;Node3</title>
<g id="a_edge3_Node000003_Node000004"><a xlink:title=" ">
<path fill="none" stroke="#63b8ff" d="M74.5,-495.14C74.5,-486.6 74.5,-477.65 74.5,-469.78"/>
<polygon fill="none" stroke="#63b8ff" points="71,-494.87 74.5,-504.87 78,-494.87 71,-494.87"/>
</a>
</g>
</g>
</g>
</svg>
