<?xml version="1.0" encoding="UTF-8" standalone="no"?>
<!DOCTYPE svg PUBLIC "-//W3C//DTD SVG 1.1//EN"
 "http://www.w3.org/Graphics/SVG/1.1/DTD/svg11.dtd">
<!-- Generated by graphviz version 10.0.1 (20240210.2158)
 -->
<!-- Title: getSessionName Pages: 1 -->
<svg width="549pt" height="140pt"
 viewBox="0.00 0.00 549.25 140.25" xmlns="http://www.w3.org/2000/svg" xmlns:xlink="http://www.w3.org/1999/xlink">
<g id="graph0" class="graph" transform="scale(1 1) rotate(0) translate(4 136.25)">
<title>getSessionName</title>
<!-- Node1 -->
<g id="Node000001" class="node">
<title>Node1</title>
<g id="a_Node000001"><a xlink:title=" ">
<polygon fill="#999999" stroke="#666666" points="541.25,-94.25 450.25,-94.25 450.25,-75 541.25,-75 541.25,-94.25"/>
<text text-anchor="middle" x="495.75" y="-80.75" font-family="Helvetica,sans-Serif" font-size="10.00">getSessionName</text>
</a>
</g>
</g>
<!-- Node2 -->
<g id="Node000002" class="node">
<title>Node2</title>
<g id="a_Node000002"><a xlink:href="class_laminas_1_1_validator_1_1_csrf.html#aefa4c5bd150e2a7d525576d7959c6911" target="_top" xlink:title=" ">
<polygon fill="white" stroke="#666666" points="414.25,-94.25 349.5,-94.25 349.5,-75 414.25,-75 414.25,-94.25"/>
<text text-anchor="middle" x="381.88" y="-80.75" font-family="Helvetica,sans-Serif" font-size="10.00">getSession</text>
</a>
</g>
</g>
<!-- Node1&#45;&gt;Node2 -->
<g id="edge1_Node000001_Node000002" class="edge">
<title>Node1&#45;&gt;Node2</title>
<g id="a_edge1_Node000001_Node000002"><a xlink:title=" ">
<path fill="none" stroke="#63b8ff" d="M438.42,-84.62C430.26,-84.62 422.11,-84.62 414.67,-84.62"/>
<polygon fill="#63b8ff" stroke="#63b8ff" points="438.38,-88.13 448.38,-84.63 438.38,-81.13 438.38,-88.13"/>
</a>
</g>
</g>
<!-- Node3 -->
<g id="Node000003" class="node">
<title>Node3</title>
<g id="a_Node000003"><a xlink:href="class_laminas_1_1_validator_1_1_csrf.html#a644968433a8fda03fa2380482b10b247" target="_top" xlink:title=" ">
<polygon fill="white" stroke="#666666" points="313.5,-122.25 215.75,-122.25 215.75,-103 313.5,-103 313.5,-122.25"/>
<text text-anchor="middle" x="264.62" y="-108.75" font-family="Helvetica,sans-Serif" font-size="10.00">getValidationToken</text>
</a>
</g>
</g>
<!-- Node2&#45;&gt;Node3 -->
<g id="edge2_Node000002_Node000003" class="edge">
<title>Node2&#45;&gt;Node3</title>
<g id="a_edge2_Node000002_Node000003"><a xlink:title=" ">
<path fill="none" stroke="#63b8ff" d="M338.06,-95.03C327.99,-97.47 317.27,-100.08 307.25,-102.51"/>
<polygon fill="#63b8ff" stroke="#63b8ff" points="338.72,-98.47 347.61,-92.71 337.06,-91.67 338.72,-98.47"/>
</a>
</g>
</g>
<!-- Node5 -->
<g id="Node000005" class="node">
<title>Node5</title>
<g id="a_Node000005"><a xlink:href="class_laminas_1_1_validator_1_1_csrf.html#a4417766c77076b5e5363f2b5d7c0b23d" target="_top" xlink:title=" ">
<polygon fill="white" stroke="#666666" points="301.5,-76.25 227.75,-76.25 227.75,-57 301.5,-57 301.5,-76.25"/>
<text text-anchor="middle" x="264.62" y="-62.75" font-family="Helvetica,sans-Serif" font-size="10.00">initCsrfToken</text>
</a>
</g>
</g>
<!-- Node2&#45;&gt;Node5 -->
<g id="edge4_Node000002_Node000005" class="edge">
<title>Node2&#45;&gt;Node5</title>
<g id="a_edge4_Node000002_Node000005"><a xlink:title=" ">
<path fill="none" stroke="#63b8ff" d="M338.01,-77.93C326.09,-76.07 313.28,-74.07 301.79,-72.27"/>
<polygon fill="#63b8ff" stroke="#63b8ff" points="337.16,-81.34 347.58,-79.43 338.24,-74.42 337.16,-81.34"/>
</a>
</g>
</g>
<!-- Node4 -->
<g id="Node000004" class="node">
<title>Node4</title>
<g id="a_Node000004"><a xlink:href="class_laminas_1_1_validator_1_1_csrf.html#ad734d169714209a0291f5a993dc9c543" target="_top" xlink:title=" ">
<polygon fill="white" stroke="#666666" points="163.62,-132.25 119.12,-132.25 119.12,-113 163.62,-113 163.62,-132.25"/>
<text text-anchor="middle" x="141.38" y="-118.75" font-family="Helvetica,sans-Serif" font-size="10.00">isValid</text>
</a>
</g>
</g>
<!-- Node3&#45;&gt;Node4 -->
<g id="edge3_Node000003_Node000004" class="edge">
<title>Node3&#45;&gt;Node4</title>
<g id="a_edge3_Node000003_Node000004"><a xlink:title=" ">
<path fill="none" stroke="#63b8ff" d="M203.93,-117.55C189.6,-118.73 175.19,-119.92 163.92,-120.85"/>
<polygon fill="#63b8ff" stroke="#63b8ff" points="204.17,-121.04 213.85,-116.73 203.59,-114.06 204.17,-121.04"/>
</a>
</g>
</g>
<!-- Node6 -->
<g id="Node000006" class="node">
<title>Node6</title>
<g id="a_Node000006"><a xlink:href="class_laminas_1_1_validator_1_1_csrf.html#ab7af327ace145b87f92f8b6324a2a6f8" target="_top" xlink:title=" ">
<polygon fill="white" stroke="#666666" points="179.75,-95.25 103,-95.25 103,-76 179.75,-76 179.75,-95.25"/>
<text text-anchor="middle" x="141.38" y="-81.75" font-family="Helvetica,sans-Serif" font-size="10.00">generateHash</text>
</a>
</g>
</g>
<!-- Node5&#45;&gt;Node6 -->
<g id="edge5_Node000005_Node000006" class="edge">
<title>Node5&#45;&gt;Node6</title>
<g id="a_edge5_Node000005_Node000006"><a xlink:title=" ">
<path fill="none" stroke="#63b8ff" d="M216.36,-74.03C204.37,-75.91 191.64,-77.91 180.18,-79.7"/>
<polygon fill="#63b8ff" stroke="#63b8ff" points="216.74,-77.51 226.08,-72.51 215.66,-70.6 216.74,-77.51"/>
</a>
</g>
</g>
<!-- Node8 -->
<g id="Node000008" class="node">
<title>Node8</title>
<g id="a_Node000008"><a xlink:href="class_laminas_1_1_validator_1_1_csrf.html#a12843ca96b1c165c04fc11708a4399cf" target="_top" xlink:title=" ">
<polygon fill="white" stroke="#666666" points="173.75,-19.25 109,-19.25 109,0 173.75,0 173.75,-19.25"/>
<text text-anchor="middle" x="141.38" y="-5.75" font-family="Helvetica,sans-Serif" font-size="10.00">setSession</text>
</a>
</g>
</g>
<!-- Node5&#45;&gt;Node8 -->
<g id="edge8_Node000005_Node000008" class="edge">
<title>Node5&#45;&gt;Node8</title>
<g id="a_edge8_Node000005_Node000008"><a xlink:title=" ">
<path fill="none" stroke="#63b8ff" d="M231.92,-51.72C210.37,-41.59 182.45,-28.46 163.56,-19.58"/>
<polygon fill="#63b8ff" stroke="#63b8ff" points="230.32,-54.83 240.86,-55.92 233.3,-48.5 230.32,-54.83"/>
</a>
</g>
</g>
<!-- Node7 -->
<g id="Node000007" class="node">
<title>Node7</title>
<g id="a_Node000007"><a xlink:href="class_laminas_1_1_validator_1_1_csrf.html#aee457a3b350173c1dc161f6b4b3d7353" target="_top" xlink:title=" ">
<polygon fill="white" stroke="#666666" points="59.88,-76.25 7.12,-76.25 7.12,-57 59.88,-57 59.88,-76.25"/>
<text text-anchor="middle" x="33.5" y="-62.75" font-family="Helvetica,sans-Serif" font-size="10.00">getHash</text>
</a>
</g>
</g>
<!-- Node6&#45;&gt;Node7 -->
<g id="edge6_Node000006_Node000007" class="edge">
<title>Node6&#45;&gt;Node7</title>
<g id="a_edge6_Node000006_Node000007"><a xlink:title=" ">
<path fill="none" stroke="#63b8ff" d="M91.57,-76.87C80.68,-74.91 69.56,-72.92 60.06,-71.21"/>
<polygon fill="#63b8ff" stroke="#63b8ff" points="90.8,-80.28 101.26,-78.61 92.04,-73.39 90.8,-80.28"/>
</a>
</g>
</g>
<!-- Node7&#45;&gt;Node5 -->
<g id="edge7_Node000007_Node000005" class="edge">
<title>Node7&#45;&gt;Node5</title>
<g id="a_edge7_Node000007_Node000005"><a xlink:title=" ">
<path fill="none" stroke="#63b8ff" d="M71.67,-66.62C114.59,-66.62 184.76,-66.62 227.32,-66.62"/>
<polygon fill="#63b8ff" stroke="#63b8ff" points="71.84,-63.13 61.84,-66.63 71.84,-70.13 71.84,-63.13"/>
</a>
</g>
</g>
<!-- Node9 -->
<g id="Node000009" class="node">
<title>Node9</title>
<g id="a_Node000009"><a xlink:href="class_laminas_1_1_validator_1_1_csrf.html#ac1c029ba212384eea6a7130ab1fa39fd" target="_top" xlink:title=" ">
<polygon fill="white" stroke="#666666" points="67,-19.25 0,-19.25 0,0 67,0 67,-19.25"/>
<text text-anchor="middle" x="33.5" y="-5.75" font-family="Helvetica,sans-Serif" font-size="10.00">__construct</text>
</a>
</g>
</g>
<!-- Node8&#45;&gt;Node9 -->
<g id="edge9_Node000008_Node000009" class="edge">
<title>Node8&#45;&gt;Node9</title>
<g id="a_edge9_Node000008_Node000009"><a xlink:title=" ">
<path fill="none" stroke="#63b8ff" d="M97.21,-9.62C87.24,-9.62 76.79,-9.62 67.34,-9.62"/>
<polygon fill="#63b8ff" stroke="#63b8ff" points="97.1,-13.13 107.1,-9.63 97.1,-6.13 97.1,-13.13"/>
</a>
</g>
</g>
</g>
</svg>
