<?xml version="1.0" encoding="UTF-8" standalone="no"?>
<!DOCTYPE svg PUBLIC "-//W3C//DTD SVG 1.1//EN"
 "http://www.w3.org/Graphics/SVG/1.1/DTD/svg11.dtd">
<!-- Generated by graphviz version 10.0.1 (20240210.2158)
 -->
<!-- Title: Request Pages: 1 -->
<!--zoomable 1140 -->

<svg id="main" version="1.1" xmlns="http://www.w3.org/2000/svg" xmlns:xlink="http://www.w3.org/1999/xlink" xml:space="preserve" onload="init(evt)">
<style type="text/css"><![CDATA[
.node, .edge {opacity: 0.7;}
.node.selected, .edge.selected {opacity: 1;}
.edge:hover path { stroke: red; }
.edge:hover polygon { stroke: red; fill: red; }
]]></style>

<defs>
  <circle id="rim" cx="0" cy="0" r="7"/>
  <circle id="rim2" cx="0" cy="0" r="3.5"/>
  <g id="zoomPlus">
    <use xlink:href="#rim" fill="#404040"><set attributeName="fill" to="#808080" begin="zoomplus.mouseover" end="zoomplus.mouseout"/></use>
    <path d="M-4,0h8M0,-4v8" fill="none" stroke="white" stroke-width="1.5" pointer-events="none"/>
  </g>
  <g id="zoomMin">
    <use xlink:href="#rim" fill="#404040"><set attributeName="fill" to="#808080" begin="zoomminus.mouseover" end="zoomminus.mouseout"/></use>
    <path d="M-4,0h8" fill="none" stroke="white" stroke-width="1.5" pointer-events="none"/>
  </g>
  <g id="arrowUp" transform="translate(30 24)">
    <use xlink:href="#rim"/>
    <path pointer-events="none" fill="none" stroke="white" stroke-width="1.5" d="M0,-3.0v7 M-2.5,-0.5L0,-3.0L2.5,-0.5"/>
  </g>
  <g id="arrowRight" transform="rotate(90) translate(36 -43)">
    <use xlink:href="#rim"/>
    <path pointer-events="none" fill="none" stroke="white" stroke-width="1.5" d="M0,-3.0v7 M-2.5,-0.5L0,-3.0L2.5,-0.5"/>
  </g>
  <g id="arrowDown" transform="rotate(180) translate(-30 -48)">
    <use xlink:href="#rim"/>
    <path pointer-events="none" fill="none" stroke="white" stroke-width="1.5" d="M0,-3.0v7 M-2.5,-0.5L0,-3.0L2.5,-0.5"/>
  </g>
  <g id="arrowLeft" transform="rotate(270) translate(-36 17)">
    <use xlink:href="#rim"/>
    <path pointer-events="none" fill="none" stroke="white" stroke-width="1.5" d="M0,-3.0v7 M-2.5,-0.5L0,-3.0L2.5,-0.5"/>
  </g>
  <g id="resetDef">
    <use xlink:href="#rim2" fill="#404040"><set attributeName="fill" to="#808080" begin="reset.mouseover" end="reset.mouseout"/></use>
  </g>
</defs>
<script type="application/ecmascript">
var viewWidth = 278;
var viewHeight = 1140;
var sectionId = 'dynsection-0';
</script>
<script type="application/ecmascript" xlink:href="svg.min.js"/>
<svg id="graph" class="graph">
<g id="viewport">
<title>Request</title>
<!-- Node1 -->
<g id="Node000001" class="node">
<title>Node1</title>
<g id="a_Node000001"><a xlink:title=" ">
<polygon fill="#999999" stroke="none" points="211,-329 58,-329 58,0 211,0 211,-329"/>
<text text-anchor="start" x="116.12" y="-315.5" font-family="Helvetica,sans-Serif" font-size="10.00">Request</text>
<text text-anchor="start" x="62.38" y="-300.5" font-family="Helvetica,sans-Serif" font-size="10.00">#</text>
<text text-anchor="start" x="72" y="-300.5" font-family="Helvetica,sans-Serif" font-size="10.00">$method</text>
<text text-anchor="start" x="62.38" y="-285.5" font-family="Helvetica,sans-Serif" font-size="10.00">#</text>
<text text-anchor="start" x="72" y="-285.5" font-family="Helvetica,sans-Serif" font-size="10.00">$url</text>
<text text-anchor="start" x="62.38" y="-270.5" font-family="Helvetica,sans-Serif" font-size="10.00">#</text>
<text text-anchor="start" x="72" y="-270.5" font-family="Helvetica,sans-Serif" font-size="10.00">$absoluteUrl</text>
<text text-anchor="start" x="62.38" y="-255.5" font-family="Helvetica,sans-Serif" font-size="10.00">#</text>
<text text-anchor="start" x="72" y="-255.5" font-family="Helvetica,sans-Serif" font-size="10.00">$baseUrl</text>
<text text-anchor="start" x="62.38" y="-240.5" font-family="Helvetica,sans-Serif" font-size="10.00">#</text>
<text text-anchor="start" x="72" y="-240.5" font-family="Helvetica,sans-Serif" font-size="10.00">$postData</text>
<text text-anchor="start" x="62.38" y="-225.5" font-family="Helvetica,sans-Serif" font-size="10.00">#</text>
<text text-anchor="start" x="72" y="-225.5" font-family="Helvetica,sans-Serif" font-size="10.00">$rawServerData</text>
<text text-anchor="start" x="62" y="-210.5" font-family="Helvetica,sans-Serif" font-size="10.00">+</text>
<text text-anchor="start" x="72" y="-210.5" font-family="Helvetica,sans-Serif" font-size="10.00">__construct(string</text>
<text text-anchor="start" x="72" y="-199.25" font-family="Helvetica,sans-Serif" font-size="10.00"> $method, string $url,</text>
<text text-anchor="start" x="72" y="-188" font-family="Helvetica,sans-Serif" font-size="10.00"> array $headers=[], $body=null)</text>
<text text-anchor="start" x="62" y="-173.5" font-family="Helvetica,sans-Serif" font-size="10.00">+</text>
<text text-anchor="start" x="72" y="-173.5" font-family="Helvetica,sans-Serif" font-size="10.00">getMethod()</text>
<text text-anchor="start" x="62" y="-158.5" font-family="Helvetica,sans-Serif" font-size="10.00">+</text>
<text text-anchor="start" x="72" y="-158.5" font-family="Helvetica,sans-Serif" font-size="10.00">setMethod(string </text>
<text text-anchor="start" x="72" y="-147.25" font-family="Helvetica,sans-Serif" font-size="10.00">$method)</text>
<text text-anchor="start" x="62" y="-132.5" font-family="Helvetica,sans-Serif" font-size="10.00">+</text>
<text text-anchor="start" x="72" y="-132.5" font-family="Helvetica,sans-Serif" font-size="10.00">getUrl()</text>
<text text-anchor="start" x="62" y="-117.5" font-family="Helvetica,sans-Serif" font-size="10.00">+</text>
<text text-anchor="start" x="72" y="-117.5" font-family="Helvetica,sans-Serif" font-size="10.00">setUrl(string $url)</text>
<text text-anchor="start" x="62" y="-102.5" font-family="Helvetica,sans-Serif" font-size="10.00">+</text>
<text text-anchor="start" x="72" y="-102.5" font-family="Helvetica,sans-Serif" font-size="10.00">getQueryParameters()</text>
<text text-anchor="start" x="62" y="-87.5" font-family="Helvetica,sans-Serif" font-size="10.00">+</text>
<text text-anchor="start" x="72" y="-87.5" font-family="Helvetica,sans-Serif" font-size="10.00">setAbsoluteUrl(string</text>
<text text-anchor="start" x="72" y="-76.25" font-family="Helvetica,sans-Serif" font-size="10.00"> $url)</text>
<text text-anchor="start" x="62" y="-61.5" font-family="Helvetica,sans-Serif" font-size="10.00">+</text>
<text text-anchor="start" x="72" y="-61.5" font-family="Helvetica,sans-Serif" font-size="10.00">getAbsoluteUrl()</text>
<text text-anchor="start" x="62" y="-46.5" font-family="Helvetica,sans-Serif" font-size="10.00">+</text>
<text text-anchor="start" x="72" y="-46.5" font-family="Helvetica,sans-Serif" font-size="10.00">setBaseUrl(string</text>
<text text-anchor="start" x="72" y="-35.25" font-family="Helvetica,sans-Serif" font-size="10.00"> $url)</text>
<text text-anchor="start" x="62" y="-20.5" font-family="Helvetica,sans-Serif" font-size="10.00">+</text>
<text text-anchor="start" x="72" y="-20.5" font-family="Helvetica,sans-Serif" font-size="10.00">getBaseUrl()</text>
<text text-anchor="start" x="72" y="-5.5" font-family="Helvetica,sans-Serif" font-size="10.00">et 6 de plus...</text>
<polygon fill="#666666" stroke="#666666" points="58,-312 58,-312 211,-312 211,-312 58,-312"/>
<polygon fill="#666666" stroke="#666666" points="58,-222 58,-222 70,-222 70,-222 58,-222"/>
<polygon fill="#666666" stroke="#666666" points="70,-222 70,-222 211,-222 211,-222 70,-222"/>
<polygon fill="none" stroke="#666666" points="58,0 58,-329 211,-329 211,0 58,0"/>
</a>
</g>
</g>
<!-- Node2 -->
<g id="Node000002" class="node">
<title>Node2</title>
<g id="a_Node000002"><a xlink:href="class_sabre_1_1_h_t_t_p_1_1_message.html" target="_top" xlink:title=" ">
<polygon fill="white" stroke="none" points="125,-738 0,-738 0,-365 125,-365 125,-738"/>
<text text-anchor="start" x="42.62" y="-724.5" font-family="Helvetica,sans-Serif" font-size="10.00">Message</text>
<text text-anchor="start" x="4.38" y="-709.5" font-family="Helvetica,sans-Serif" font-size="10.00">#</text>
<text text-anchor="start" x="14" y="-709.5" font-family="Helvetica,sans-Serif" font-size="10.00">$body</text>
<text text-anchor="start" x="4.38" y="-694.5" font-family="Helvetica,sans-Serif" font-size="10.00">#</text>
<text text-anchor="start" x="14" y="-694.5" font-family="Helvetica,sans-Serif" font-size="10.00">$headers</text>
<text text-anchor="start" x="4.38" y="-679.5" font-family="Helvetica,sans-Serif" font-size="10.00">#</text>
<text text-anchor="start" x="14" y="-679.5" font-family="Helvetica,sans-Serif" font-size="10.00">$httpVersion</text>
<text text-anchor="start" x="4" y="-664.5" font-family="Helvetica,sans-Serif" font-size="10.00">+</text>
<text text-anchor="start" x="14" y="-664.5" font-family="Helvetica,sans-Serif" font-size="10.00">getBodyAsStream()</text>
<text text-anchor="start" x="4" y="-649.5" font-family="Helvetica,sans-Serif" font-size="10.00">+</text>
<text text-anchor="start" x="14" y="-649.5" font-family="Helvetica,sans-Serif" font-size="10.00">getBody()</text>
<text text-anchor="start" x="4" y="-634.5" font-family="Helvetica,sans-Serif" font-size="10.00">+</text>
<text text-anchor="start" x="14" y="-634.5" font-family="Helvetica,sans-Serif" font-size="10.00">setBody($body)</text>
<text text-anchor="start" x="4" y="-619.5" font-family="Helvetica,sans-Serif" font-size="10.00">+</text>
<text text-anchor="start" x="14" y="-619.5" font-family="Helvetica,sans-Serif" font-size="10.00">getHeaders()</text>
<text text-anchor="start" x="4" y="-604.5" font-family="Helvetica,sans-Serif" font-size="10.00">+</text>
<text text-anchor="start" x="14" y="-604.5" font-family="Helvetica,sans-Serif" font-size="10.00">hasHeader(string </text>
<text text-anchor="start" x="14" y="-593.25" font-family="Helvetica,sans-Serif" font-size="10.00">$name)</text>
<text text-anchor="start" x="4" y="-578.5" font-family="Helvetica,sans-Serif" font-size="10.00">+</text>
<text text-anchor="start" x="14" y="-578.5" font-family="Helvetica,sans-Serif" font-size="10.00">getHeader(string </text>
<text text-anchor="start" x="14" y="-567.25" font-family="Helvetica,sans-Serif" font-size="10.00">$name)</text>
<text text-anchor="start" x="4" y="-552.5" font-family="Helvetica,sans-Serif" font-size="10.00">+</text>
<text text-anchor="start" x="14" y="-552.5" font-family="Helvetica,sans-Serif" font-size="10.00">getHeaderAsArray(string</text>
<text text-anchor="start" x="14" y="-541.25" font-family="Helvetica,sans-Serif" font-size="10.00"> $name)</text>
<text text-anchor="start" x="4" y="-526.5" font-family="Helvetica,sans-Serif" font-size="10.00">+</text>
<text text-anchor="start" x="14" y="-526.5" font-family="Helvetica,sans-Serif" font-size="10.00">setHeader(string </text>
<text text-anchor="start" x="14" y="-515.25" font-family="Helvetica,sans-Serif" font-size="10.00">$name, $value)</text>
<text text-anchor="start" x="4" y="-500.5" font-family="Helvetica,sans-Serif" font-size="10.00">+</text>
<text text-anchor="start" x="14" y="-500.5" font-family="Helvetica,sans-Serif" font-size="10.00">setHeaders(array </text>
<text text-anchor="start" x="14" y="-489.25" font-family="Helvetica,sans-Serif" font-size="10.00">$headers)</text>
<text text-anchor="start" x="4" y="-474.5" font-family="Helvetica,sans-Serif" font-size="10.00">+</text>
<text text-anchor="start" x="14" y="-474.5" font-family="Helvetica,sans-Serif" font-size="10.00">addHeader(string </text>
<text text-anchor="start" x="14" y="-463.25" font-family="Helvetica,sans-Serif" font-size="10.00">$name, $value)</text>
<text text-anchor="start" x="4" y="-448.5" font-family="Helvetica,sans-Serif" font-size="10.00">+</text>
<text text-anchor="start" x="14" y="-448.5" font-family="Helvetica,sans-Serif" font-size="10.00">addHeaders(array </text>
<text text-anchor="start" x="14" y="-437.25" font-family="Helvetica,sans-Serif" font-size="10.00">$headers)</text>
<text text-anchor="start" x="4" y="-422.5" font-family="Helvetica,sans-Serif" font-size="10.00">+</text>
<text text-anchor="start" x="14" y="-422.5" font-family="Helvetica,sans-Serif" font-size="10.00">removeHeader(string</text>
<text text-anchor="start" x="14" y="-411.25" font-family="Helvetica,sans-Serif" font-size="10.00"> $name)</text>
<text text-anchor="start" x="4" y="-396.5" font-family="Helvetica,sans-Serif" font-size="10.00">+</text>
<text text-anchor="start" x="14" y="-396.5" font-family="Helvetica,sans-Serif" font-size="10.00">setHttpVersion(string</text>
<text text-anchor="start" x="14" y="-385.25" font-family="Helvetica,sans-Serif" font-size="10.00"> $version)</text>
<text text-anchor="start" x="4" y="-370.5" font-family="Helvetica,sans-Serif" font-size="10.00">+</text>
<text text-anchor="start" x="14" y="-370.5" font-family="Helvetica,sans-Serif" font-size="10.00">getHttpVersion()</text>
<polygon fill="#666666" stroke="#666666" points="0,-721 0,-721 125,-721 125,-721 0,-721"/>
<polygon fill="#666666" stroke="#666666" points="0,-676 0,-676 12,-676 12,-676 0,-676"/>
<polygon fill="#666666" stroke="#666666" points="12,-676 12,-676 125,-676 125,-676 12,-676"/>
<polygon fill="none" stroke="#666666" points="0,-365 0,-738 125,-738 125,-365 0,-365"/>
</a>
</g>
</g>
<!-- Node2&#45;&gt;Node1 -->
<g id="edge1_Node000001_Node000002" class="edge">
<title>Node2&#45;&gt;Node1</title>
<g id="a_edge1_Node000001_Node000002"><a xlink:title=" ">
<path fill="none" stroke="#63b8ff" d="M99.26,-353.96C100.83,-345.53 102.41,-337.1 103.97,-328.75"/>
<polygon fill="none" stroke="#63b8ff" points="95.86,-353.09 97.46,-363.56 102.74,-354.37 95.86,-353.09"/>
</a>
</g>
</g>
<!-- Node3 -->
<g id="Node000003" class="node">
<title>Node3</title>
<g id="a_Node000003"><a xlink:href="interface_sabre_1_1_h_t_t_p_1_1_message_interface.html" target="_top" xlink:title=" ">
<polygon fill="white" stroke="none" points="197,-1132 72,-1132 72,-774 197,-774 197,-1132"/>
<text text-anchor="start" x="95.5" y="-1118.5" font-family="Helvetica,sans-Serif" font-size="10.00">MessageInterface</text>
<text text-anchor="start" x="133" y="-1103.5" font-family="Helvetica,sans-Serif" font-size="10.00"> </text>
<text text-anchor="start" x="76" y="-1088.5" font-family="Helvetica,sans-Serif" font-size="10.00">+</text>
<text text-anchor="start" x="86" y="-1088.5" font-family="Helvetica,sans-Serif" font-size="10.00">getBodyAsStream()</text>
<text text-anchor="start" x="76" y="-1073.5" font-family="Helvetica,sans-Serif" font-size="10.00">+</text>
<text text-anchor="start" x="86" y="-1073.5" font-family="Helvetica,sans-Serif" font-size="10.00">getBodyAsString()</text>
<text text-anchor="start" x="76" y="-1058.5" font-family="Helvetica,sans-Serif" font-size="10.00">+</text>
<text text-anchor="start" x="86" y="-1058.5" font-family="Helvetica,sans-Serif" font-size="10.00">getBody()</text>
<text text-anchor="start" x="76" y="-1043.5" font-family="Helvetica,sans-Serif" font-size="10.00">+</text>
<text text-anchor="start" x="86" y="-1043.5" font-family="Helvetica,sans-Serif" font-size="10.00">setBody($body)</text>
<text text-anchor="start" x="76" y="-1028.5" font-family="Helvetica,sans-Serif" font-size="10.00">+</text>
<text text-anchor="start" x="86" y="-1028.5" font-family="Helvetica,sans-Serif" font-size="10.00">getHeaders()</text>
<text text-anchor="start" x="76" y="-1013.5" font-family="Helvetica,sans-Serif" font-size="10.00">+</text>
<text text-anchor="start" x="86" y="-1013.5" font-family="Helvetica,sans-Serif" font-size="10.00">hasHeader(string </text>
<text text-anchor="start" x="86" y="-1002.25" font-family="Helvetica,sans-Serif" font-size="10.00">$name)</text>
<text text-anchor="start" x="76" y="-987.5" font-family="Helvetica,sans-Serif" font-size="10.00">+</text>
<text text-anchor="start" x="86" y="-987.5" font-family="Helvetica,sans-Serif" font-size="10.00">getHeader(string </text>
<text text-anchor="start" x="86" y="-976.25" font-family="Helvetica,sans-Serif" font-size="10.00">$name)</text>
<text text-anchor="start" x="76" y="-961.5" font-family="Helvetica,sans-Serif" font-size="10.00">+</text>
<text text-anchor="start" x="86" y="-961.5" font-family="Helvetica,sans-Serif" font-size="10.00">getHeaderAsArray(string</text>
<text text-anchor="start" x="86" y="-950.25" font-family="Helvetica,sans-Serif" font-size="10.00"> $name)</text>
<text text-anchor="start" x="76" y="-935.5" font-family="Helvetica,sans-Serif" font-size="10.00">+</text>
<text text-anchor="start" x="86" y="-935.5" font-family="Helvetica,sans-Serif" font-size="10.00">setHeader(string </text>
<text text-anchor="start" x="86" y="-924.25" font-family="Helvetica,sans-Serif" font-size="10.00">$name, $value)</text>
<text text-anchor="start" x="76" y="-909.5" font-family="Helvetica,sans-Serif" font-size="10.00">+</text>
<text text-anchor="start" x="86" y="-909.5" font-family="Helvetica,sans-Serif" font-size="10.00">setHeaders(array </text>
<text text-anchor="start" x="86" y="-898.25" font-family="Helvetica,sans-Serif" font-size="10.00">$headers)</text>
<text text-anchor="start" x="76" y="-883.5" font-family="Helvetica,sans-Serif" font-size="10.00">+</text>
<text text-anchor="start" x="86" y="-883.5" font-family="Helvetica,sans-Serif" font-size="10.00">addHeader(string </text>
<text text-anchor="start" x="86" y="-872.25" font-family="Helvetica,sans-Serif" font-size="10.00">$name, $value)</text>
<text text-anchor="start" x="76" y="-857.5" font-family="Helvetica,sans-Serif" font-size="10.00">+</text>
<text text-anchor="start" x="86" y="-857.5" font-family="Helvetica,sans-Serif" font-size="10.00">addHeaders(array </text>
<text text-anchor="start" x="86" y="-846.25" font-family="Helvetica,sans-Serif" font-size="10.00">$headers)</text>
<text text-anchor="start" x="76" y="-831.5" font-family="Helvetica,sans-Serif" font-size="10.00">+</text>
<text text-anchor="start" x="86" y="-831.5" font-family="Helvetica,sans-Serif" font-size="10.00">removeHeader(string</text>
<text text-anchor="start" x="86" y="-820.25" font-family="Helvetica,sans-Serif" font-size="10.00"> $name)</text>
<text text-anchor="start" x="76" y="-805.5" font-family="Helvetica,sans-Serif" font-size="10.00">+</text>
<text text-anchor="start" x="86" y="-805.5" font-family="Helvetica,sans-Serif" font-size="10.00">setHttpVersion(string</text>
<text text-anchor="start" x="86" y="-794.25" font-family="Helvetica,sans-Serif" font-size="10.00"> $version)</text>
<text text-anchor="start" x="76" y="-779.5" font-family="Helvetica,sans-Serif" font-size="10.00">+</text>
<text text-anchor="start" x="86" y="-779.5" font-family="Helvetica,sans-Serif" font-size="10.00">getHttpVersion()</text>
<polygon fill="#666666" stroke="#666666" points="72,-1115 72,-1115 197,-1115 197,-1115 72,-1115"/>
<polygon fill="#666666" stroke="#666666" points="72,-1100 72,-1100 197,-1100 197,-1100 72,-1100"/>
<polygon fill="none" stroke="#666666" points="72,-774 72,-1132 197,-1132 197,-774 72,-774"/>
</a>
</g>
</g>
<!-- Node3&#45;&gt;Node2 -->
<g id="edge2_Node000002_Node000003" class="edge">
<title>Node3&#45;&gt;Node2</title>
<g id="a_edge2_Node000002_Node000003"><a xlink:title=" ">
<path fill="none" stroke="#63b8ff" d="M100.45,-763.09C98.93,-754.66 97.41,-746.2 95.89,-737.78"/>
<polygon fill="none" stroke="#63b8ff" points="96.96,-763.45 102.18,-772.67 103.85,-762.2 96.96,-763.45"/>
</a>
</g>
</g>
<!-- Node4 -->
<g id="Node000004" class="node">
<title>Node4</title>
<g id="a_Node000004"><a xlink:href="interface_sabre_1_1_h_t_t_p_1_1_request_interface.html" target="_top" xlink:title=" ">
<polygon fill="white" stroke="none" points="269.5,-706.5 143.5,-706.5 143.5,-396.5 269.5,-396.5 269.5,-706.5"/>
<text text-anchor="start" x="169" y="-693" font-family="Helvetica,sans-Serif" font-size="10.00">RequestInterface</text>
<text text-anchor="start" x="205" y="-678" font-family="Helvetica,sans-Serif" font-size="10.00"> </text>
<text text-anchor="start" x="147.5" y="-663" font-family="Helvetica,sans-Serif" font-size="10.00">+</text>
<text text-anchor="start" x="157.5" y="-663" font-family="Helvetica,sans-Serif" font-size="10.00">getMethod()</text>
<text text-anchor="start" x="147.5" y="-648" font-family="Helvetica,sans-Serif" font-size="10.00">+</text>
<text text-anchor="start" x="157.5" y="-648" font-family="Helvetica,sans-Serif" font-size="10.00">setMethod(string </text>
<text text-anchor="start" x="157.5" y="-636.75" font-family="Helvetica,sans-Serif" font-size="10.00">$method)</text>
<text text-anchor="start" x="147.5" y="-622" font-family="Helvetica,sans-Serif" font-size="10.00">+</text>
<text text-anchor="start" x="157.5" y="-622" font-family="Helvetica,sans-Serif" font-size="10.00">getUrl()</text>
<text text-anchor="start" x="147.5" y="-607" font-family="Helvetica,sans-Serif" font-size="10.00">+</text>
<text text-anchor="start" x="157.5" y="-607" font-family="Helvetica,sans-Serif" font-size="10.00">setUrl(string $url)</text>
<text text-anchor="start" x="147.5" y="-592" font-family="Helvetica,sans-Serif" font-size="10.00">+</text>
<text text-anchor="start" x="157.5" y="-592" font-family="Helvetica,sans-Serif" font-size="10.00">getAbsoluteUrl()</text>
<text text-anchor="start" x="147.5" y="-577" font-family="Helvetica,sans-Serif" font-size="10.00">+</text>
<text text-anchor="start" x="157.5" y="-577" font-family="Helvetica,sans-Serif" font-size="10.00">setAbsoluteUrl(string</text>
<text text-anchor="start" x="157.5" y="-565.75" font-family="Helvetica,sans-Serif" font-size="10.00"> $url)</text>
<text text-anchor="start" x="147.5" y="-551" font-family="Helvetica,sans-Serif" font-size="10.00">+</text>
<text text-anchor="start" x="157.5" y="-551" font-family="Helvetica,sans-Serif" font-size="10.00">getBaseUrl()</text>
<text text-anchor="start" x="147.5" y="-536" font-family="Helvetica,sans-Serif" font-size="10.00">+</text>
<text text-anchor="start" x="157.5" y="-536" font-family="Helvetica,sans-Serif" font-size="10.00">setBaseUrl(string</text>
<text text-anchor="start" x="157.5" y="-524.75" font-family="Helvetica,sans-Serif" font-size="10.00"> $url)</text>
<text text-anchor="start" x="147.5" y="-510" font-family="Helvetica,sans-Serif" font-size="10.00">+</text>
<text text-anchor="start" x="157.5" y="-510" font-family="Helvetica,sans-Serif" font-size="10.00">getPath()</text>
<text text-anchor="start" x="147.5" y="-495" font-family="Helvetica,sans-Serif" font-size="10.00">+</text>
<text text-anchor="start" x="157.5" y="-495" font-family="Helvetica,sans-Serif" font-size="10.00">getQueryParameters()</text>
<text text-anchor="start" x="147.5" y="-480" font-family="Helvetica,sans-Serif" font-size="10.00">+</text>
<text text-anchor="start" x="157.5" y="-480" font-family="Helvetica,sans-Serif" font-size="10.00">getPostData()</text>
<text text-anchor="start" x="147.5" y="-465" font-family="Helvetica,sans-Serif" font-size="10.00">+</text>
<text text-anchor="start" x="157.5" y="-465" font-family="Helvetica,sans-Serif" font-size="10.00">setPostData(array</text>
<text text-anchor="start" x="157.5" y="-453.75" font-family="Helvetica,sans-Serif" font-size="10.00"> $postData)</text>
<text text-anchor="start" x="147.5" y="-439" font-family="Helvetica,sans-Serif" font-size="10.00">+</text>
<text text-anchor="start" x="157.5" y="-439" font-family="Helvetica,sans-Serif" font-size="10.00">getRawServerValue</text>
<text text-anchor="start" x="157.5" y="-427.75" font-family="Helvetica,sans-Serif" font-size="10.00">(string $valueName)</text>
<text text-anchor="start" x="147.5" y="-413" font-family="Helvetica,sans-Serif" font-size="10.00">+</text>
<text text-anchor="start" x="157.5" y="-413" font-family="Helvetica,sans-Serif" font-size="10.00">setRawServerData(array</text>
<text text-anchor="start" x="157.5" y="-401.75" font-family="Helvetica,sans-Serif" font-size="10.00"> $data)</text>
<polygon fill="#666666" stroke="#666666" points="143.5,-689.5 143.5,-689.5 269.5,-689.5 269.5,-689.5 143.5,-689.5"/>
<polygon fill="#666666" stroke="#666666" points="143.5,-674.5 143.5,-674.5 269.5,-674.5 269.5,-674.5 143.5,-674.5"/>
<polygon fill="none" stroke="#666666" points="143.5,-396.5 143.5,-706.5 269.5,-706.5 269.5,-396.5 143.5,-396.5"/>
</a>
</g>
</g>
<!-- Node3&#45;&gt;Node4 -->
<g id="edge4_Node000004_Node000003" class="edge">
<title>Node3&#45;&gt;Node4</title>
<g id="a_edge4_Node000004_Node000003"><a xlink:title=" ">
<path fill="none" stroke="#63b8ff" d="M168.56,-763.01C171.98,-744.05 175.42,-724.95 178.76,-706.42"/>
<polygon fill="none" stroke="#63b8ff" points="165.15,-762.2 166.82,-772.67 172.04,-763.45 165.15,-762.2"/>
</a>
</g>
</g>
<!-- Node4&#45;&gt;Node1 -->
<g id="edge3_Node000001_Node000004" class="edge">
<title>Node4&#45;&gt;Node1</title>
<g id="a_edge3_Node000001_Node000004"><a xlink:title=" ">
<path fill="none" stroke="#63b8ff" d="M175.62,-385.38C172.12,-366.65 168.55,-347.57 165.05,-328.86"/>
<polygon fill="none" stroke="#63b8ff" points="172.18,-386 177.46,-395.19 179.06,-384.72 172.18,-386"/>
</a>
</g>
</g>
</g>
</svg>

<g id="navigator" transform="translate(0 0)" fill="#404254">
  <rect fill="#f2f5e9" fill-opacity="0.5" stroke="#606060" stroke-width=".5" x="0" y="0" width="60" height="60"/>
  <use id="zoomplus" xlink:href="#zoomPlus" x="17" y="9" onmousedown="handleZoom(evt,'in')"/>
  <use id="zoomminus" xlink:href="#zoomMin" x="42" y="9" onmousedown="handleZoom(evt,'out')"/>
  <use id="reset" xlink:href="#resetDef" x="30" y="36" onmousedown="handleReset()"/>
   <use id="arrowup" xlink:href="#arrowUp" x="0" y="0" onmousedown="handlePan(0,-1)"/>
  <use id="arrowright" xlink:href="#arrowRight" x="0" y="0" onmousedown="handlePan(1,0)"/>
  <use id="arrowdown" xlink:href="#arrowDown" x="0" y="0" onmousedown="handlePan(0,1)"/>
  <use id="arrowleft" xlink:href="#arrowLeft" x="0" y="0" onmousedown="handlePan(-1,0)"/>
</g>
<svg viewBox="0 0 15 15" width="100%" height="30px" preserveAspectRatio="xMaxYMin meet">
 <g id="arrow_out" transform="scale(0.3 0.3)">
  <a xlink:href="class_sabre_1_1_h_t_t_p_1_1_request__inherit__graph_org.svg" target="_base">
   <rect id="button" ry="5" rx="5" y="6" x="6" height="38" width="38"
        fill="#f2f5e9" fill-opacity="0.5" stroke="#606060" stroke-width="1.0"/>
   <path id="arrow"
     d="M 11.500037,31.436501 C 11.940474,20.09759 22.043105,11.32322 32.158766,21.979434 L 37.068811,17.246167 C 37.068811,17.246167 37.088388,32 37.088388,32 L 22.160133,31.978069 C 22.160133,31.978069 26.997745,27.140456 26.997745,27.140456 C 18.528582,18.264221 13.291696,25.230495 11.500037,31.436501 z"
     style="fill:#404040;"/>
  </a>
 </g>
</svg>

<style type='text/css'>
<![CDATA[
[data-mouse-over-selected='false'] { opacity: 0.7; }
[data-mouse-over-selected='true']  { opacity: 1.0; }
]]>
</style>
<script type="application/ecmascript"><![CDATA[
document.addEventListener('DOMContentLoaded', (event) => {
  highlightEdges();
  highlightAdjacentNodes();
});
]]></script>
</svg>
