<?xml version="1.0" encoding="UTF-8" standalone="no"?>
<!DOCTYPE svg PUBLIC "-//W3C//DTD SVG 1.1//EN"
 "http://www.w3.org/Graphics/SVG/1.1/DTD/svg11.dtd">
<!-- Generated by graphviz version 10.0.1 (20240210.2158)
 -->
<!-- Title: InstallCommand Pages: 1 -->
<svg width="606pt" height="1354pt"
 viewBox="0.00 0.00 605.50 1354.00" xmlns="http://www.w3.org/2000/svg" xmlns:xlink="http://www.w3.org/1999/xlink">
<g id="graph0" class="graph" transform="scale(1 1) rotate(0) translate(4 1350)">
<title>InstallCommand</title>
<!-- Node1 -->
<g id="Node000001" class="node">
<title>Node1</title>
<g id="a_Node000001"><a xlink:title=" ">
<polygon fill="#999999" stroke="none" points="146,-116 0,-116 0,0 146,0 146,-116"/>
<text text-anchor="start" x="37.38" y="-102.5" font-family="Helvetica,sans-Serif" font-size="10.00">InstallCommand</text>
<text text-anchor="start" x="71.5" y="-87.5" font-family="Helvetica,sans-Serif" font-size="10.00"> </text>
<text text-anchor="start" x="3.88" y="-72.5" font-family="Helvetica,sans-Serif" font-size="10.00">#</text>
<text text-anchor="start" x="13" y="-72.5" font-family="Helvetica,sans-Serif" font-size="10.00">configure()</text>
<text text-anchor="start" x="3.88" y="-57.5" font-family="Helvetica,sans-Serif" font-size="10.00">#</text>
<text text-anchor="start" x="13" y="-57.5" font-family="Helvetica,sans-Serif" font-size="10.00">execute(InputInterface</text>
<text text-anchor="start" x="13" y="-46.25" font-family="Helvetica,sans-Serif" font-size="10.00"> $input, OutputInterface</text>
<text text-anchor="start" x="13" y="-35" font-family="Helvetica,sans-Serif" font-size="10.00"> $output)</text>
<text text-anchor="start" x="3.88" y="-20.5" font-family="Helvetica,sans-Serif" font-size="10.00">#</text>
<text text-anchor="start" x="13" y="-20.5" font-family="Helvetica,sans-Serif" font-size="10.00">getDirectoryChoiceQuestion()</text>
<text text-anchor="start" x="3.88" y="-5.5" font-family="Helvetica,sans-Serif" font-size="10.00">#</text>
<text text-anchor="start" x="13" y="-5.5" font-family="Helvetica,sans-Serif" font-size="10.00">getDirectoryChoiceChoices()</text>
<polygon fill="#666666" stroke="#666666" points="0,-99 0,-99 146,-99 146,-99 0,-99"/>
<polygon fill="#666666" stroke="#666666" points="0,-84 0,-84 146,-84 146,-84 0,-84"/>
<polygon fill="none" stroke="#666666" points="0,0 0,-116 146,-116 146,0 0,0"/>
</a>
</g>
</g>
<!-- Node2 -->
<g id="Node000002" class="node">
<title>Node2</title>
<g id="a_Node000002"><a xlink:href="class_glpi_1_1_console_1_1_plugin_1_1_abstract_plugin_command.html" target="_top" xlink:title=" ">
<polygon fill="white" stroke="none" points="304.5,-273 157.5,-273 157.5,-153 304.5,-153 304.5,-273"/>
<text text-anchor="start" x="176.62" y="-259.5" font-family="Helvetica,sans-Serif" font-size="10.00">AbstractPluginCommand</text>
<text text-anchor="start" x="229.5" y="-244.5" font-family="Helvetica,sans-Serif" font-size="10.00"> </text>
<text text-anchor="start" x="161.5" y="-229.5" font-family="Helvetica,sans-Serif" font-size="10.00">+</text>
<text text-anchor="start" x="171.5" y="-229.5" font-family="Helvetica,sans-Serif" font-size="10.00">getNoPluginsOptionValue()</text>
<text text-anchor="start" x="161.88" y="-214.5" font-family="Helvetica,sans-Serif" font-size="10.00">#</text>
<text text-anchor="start" x="171.5" y="-214.5" font-family="Helvetica,sans-Serif" font-size="10.00">configure()</text>
<text text-anchor="start" x="161.88" y="-199.5" font-family="Helvetica,sans-Serif" font-size="10.00">#</text>
<text text-anchor="start" x="171.5" y="-199.5" font-family="Helvetica,sans-Serif" font-size="10.00">normalizeInput(InputInterface</text>
<text text-anchor="start" x="171.5" y="-188.25" font-family="Helvetica,sans-Serif" font-size="10.00"> $input)</text>
<text text-anchor="start" x="161.88" y="-173.5" font-family="Helvetica,sans-Serif" font-size="10.00">#</text>
<text text-anchor="start" x="171.5" y="-173.5" font-family="Helvetica,sans-Serif" font-size="10.00">getDirectoryChoiceQuestion()</text>
<text text-anchor="start" x="161.88" y="-158.5" font-family="Helvetica,sans-Serif" font-size="10.00">#</text>
<text text-anchor="start" x="171.5" y="-158.5" font-family="Helvetica,sans-Serif" font-size="10.00">getDirectoryChoiceChoices()</text>
<polygon fill="#666666" stroke="#666666" points="157.5,-256 157.5,-256 304.5,-256 304.5,-256 157.5,-256"/>
<polygon fill="#666666" stroke="#666666" points="157.5,-241 157.5,-241 304.5,-241 304.5,-241 157.5,-241"/>
<polygon fill="none" stroke="#666666" points="157.5,-153 157.5,-273 304.5,-273 304.5,-153 157.5,-153"/>
</a>
</g>
</g>
<!-- Node2&#45;&gt;Node1 -->
<g id="edge1_Node000001_Node000002" class="edge">
<title>Node2&#45;&gt;Node1</title>
<g id="a_edge1_Node000001_Node000002"><a xlink:title=" ">
<path fill="none" stroke="#63b8ff" d="M162.25,-145.42C152.05,-135.55 141.62,-125.45 131.65,-115.79"/>
<polygon fill="none" stroke="#63b8ff" points="159.66,-147.79 169.28,-152.23 164.53,-142.76 159.66,-147.79"/>
</a>
</g>
</g>
<!-- Node3 -->
<g id="Node000003" class="node">
<title>Node3</title>
<g id="a_Node000003"><a xlink:href="class_glpi_1_1_console_1_1_abstract_command.html" target="_top" xlink:title=" ">
<polygon fill="white" stroke="none" points="426,-737 220,-737 220,-310 426,-310 426,-737"/>
<text text-anchor="start" x="282.12" y="-723.5" font-family="Helvetica,sans-Serif" font-size="10.00">AbstractCommand</text>
<text text-anchor="start" x="224.38" y="-708.5" font-family="Helvetica,sans-Serif" font-size="10.00">#</text>
<text text-anchor="start" x="234" y="-708.5" font-family="Helvetica,sans-Serif" font-size="10.00">$db</text>
<text text-anchor="start" x="224.38" y="-693.5" font-family="Helvetica,sans-Serif" font-size="10.00">#</text>
<text text-anchor="start" x="234" y="-693.5" font-family="Helvetica,sans-Serif" font-size="10.00">$input</text>
<text text-anchor="start" x="224.38" y="-678.5" font-family="Helvetica,sans-Serif" font-size="10.00">#</text>
<text text-anchor="start" x="234" y="-678.5" font-family="Helvetica,sans-Serif" font-size="10.00">$output</text>
<text text-anchor="start" x="224.38" y="-663.5" font-family="Helvetica,sans-Serif" font-size="10.00">#</text>
<text text-anchor="start" x="234" y="-663.5" font-family="Helvetica,sans-Serif" font-size="10.00">$requires_db</text>
<text text-anchor="start" x="224.38" y="-648.5" font-family="Helvetica,sans-Serif" font-size="10.00">#</text>
<text text-anchor="start" x="234" y="-648.5" font-family="Helvetica,sans-Serif" font-size="10.00">$requires_db_up_to_date</text>
<text text-anchor="start" x="224.38" y="-633.5" font-family="Helvetica,sans-Serif" font-size="10.00">#</text>
<text text-anchor="start" x="234" y="-633.5" font-family="Helvetica,sans-Serif" font-size="10.00">$progress_bar</text>
<text text-anchor="start" x="224" y="-618.5" font-family="Helvetica,sans-Serif" font-size="10.00">+</text>
<text text-anchor="start" x="234" y="-618.5" font-family="Helvetica,sans-Serif" font-size="10.00">mustCheckMandatoryRequirements()</text>
<text text-anchor="start" x="224" y="-603.5" font-family="Helvetica,sans-Serif" font-size="10.00">+</text>
<text text-anchor="start" x="234" y="-603.5" font-family="Helvetica,sans-Serif" font-size="10.00">requiresUpToDateDb()</text>
<text text-anchor="start" x="224.38" y="-588.5" font-family="Helvetica,sans-Serif" font-size="10.00">#</text>
<text text-anchor="start" x="234" y="-588.5" font-family="Helvetica,sans-Serif" font-size="10.00">initialize(InputInterface</text>
<text text-anchor="start" x="234" y="-577.25" font-family="Helvetica,sans-Serif" font-size="10.00"> $input, OutputInterface</text>
<text text-anchor="start" x="234" y="-566" font-family="Helvetica,sans-Serif" font-size="10.00"> $output)</text>
<text text-anchor="start" x="224.38" y="-551.5" font-family="Helvetica,sans-Serif" font-size="10.00">#</text>
<text text-anchor="start" x="234" y="-551.5" font-family="Helvetica,sans-Serif" font-size="10.00">writelnOutputWithProgress</text>
<text text-anchor="start" x="234" y="-540.25" font-family="Helvetica,sans-Serif" font-size="10.00">Bar( $messages, ProgressBar</text>
<text text-anchor="start" x="234" y="-529" font-family="Helvetica,sans-Serif" font-size="10.00"> $progress_bar, $verbosity</text>
<text text-anchor="start" x="234" y="-517.75" font-family="Helvetica,sans-Serif" font-size="10.00">=OutputInterface::VERBOSITY_NORMAL)</text>
<text text-anchor="start" x="224.38" y="-502.5" font-family="Helvetica,sans-Serif" font-size="10.00">#</text>
<text text-anchor="start" x="234" y="-502.5" font-family="Helvetica,sans-Serif" font-size="10.00">outputSessionBufferedMessages</text>
<text text-anchor="start" x="234" y="-491.25" font-family="Helvetica,sans-Serif" font-size="10.00">($levels_to_output=[INFO,</text>
<text text-anchor="start" x="234" y="-480" font-family="Helvetica,sans-Serif" font-size="10.00"> WARNING, ERROR])</text>
<text text-anchor="start" x="224.38" y="-465.5" font-family="Helvetica,sans-Serif" font-size="10.00">#</text>
<text text-anchor="start" x="234" y="-465.5" font-family="Helvetica,sans-Serif" font-size="10.00">outputWarningOnMissingOptionnal</text>
<text text-anchor="start" x="234" y="-454.25" font-family="Helvetica,sans-Serif" font-size="10.00">Requirements()</text>
<text text-anchor="start" x="224.38" y="-439.5" font-family="Helvetica,sans-Serif" font-size="10.00">#</text>
<text text-anchor="start" x="234" y="-439.5" font-family="Helvetica,sans-Serif" font-size="10.00">askForConfirmation</text>
<text text-anchor="start" x="234" y="-428.25" font-family="Helvetica,sans-Serif" font-size="10.00">(bool $default_to_yes=true)</text>
<text text-anchor="start" x="224.38" y="-413.5" font-family="Helvetica,sans-Serif" font-size="10.00">#</text>
<text text-anchor="start" x="234" y="-413.5" font-family="Helvetica,sans-Serif" font-size="10.00">warnAboutExecutionTime()</text>
<text text-anchor="start" x="224.38" y="-398.5" font-family="Helvetica,sans-Serif" font-size="10.00">#</text>
<text text-anchor="start" x="234" y="-398.5" font-family="Helvetica,sans-Serif" font-size="10.00">iterate(iterable </text>
<text text-anchor="start" x="234" y="-387.25" font-family="Helvetica,sans-Serif" font-size="10.00">$iterable, ?callable</text>
<text text-anchor="start" x="234" y="-376" font-family="Helvetica,sans-Serif" font-size="10.00"> $message_callback=null,</text>
<text text-anchor="start" x="234" y="-364.75" font-family="Helvetica,sans-Serif" font-size="10.00"> ?int $count=null)</text>
<text text-anchor="start" x="224.38" y="-349.5" font-family="Helvetica,sans-Serif" font-size="10.00">#</text>
<text text-anchor="start" x="234" y="-349.5" font-family="Helvetica,sans-Serif" font-size="10.00">outputMessage(string</text>
<text text-anchor="start" x="234" y="-338.25" font-family="Helvetica,sans-Serif" font-size="10.00"> $message, int $verbosity</text>
<text text-anchor="start" x="234" y="-327" font-family="Helvetica,sans-Serif" font-size="10.00">=OutputInterface::VERBOSITY</text>
<text text-anchor="start" x="234" y="-315.75" font-family="Helvetica,sans-Serif" font-size="10.00">_NORMAL)</text>
<polygon fill="#666666" stroke="#666666" points="220,-720 220,-720 426,-720 426,-720 220,-720"/>
<polygon fill="#666666" stroke="#666666" points="220,-630 220,-630 232,-630 232,-630 220,-630"/>
<polygon fill="#666666" stroke="#666666" points="232,-630 232,-630 426,-630 426,-630 232,-630"/>
<polygon fill="none" stroke="#666666" points="220,-310 220,-737 426,-737 426,-310 220,-310"/>
</a>
</g>
</g>
<!-- Node3&#45;&gt;Node2 -->
<g id="edge2_Node000002_Node000003" class="edge">
<title>Node3&#45;&gt;Node2</title>
<g id="a_edge2_Node000002_Node000003"><a xlink:title=" ">
<path fill="none" stroke="#63b8ff" d="M256.52,-299.59C253.73,-290.22 251.06,-281.27 248.57,-272.93"/>
<polygon fill="none" stroke="#63b8ff" points="253.09,-300.31 259.3,-308.89 259.79,-298.31 253.09,-300.31"/>
</a>
</g>
</g>
<!-- Node4 -->
<g id="Node000004" class="node">
<title>Node4</title>
<g id="a_Node000004"><a xlink:href="class_symfony_1_1_component_1_1_console_1_1_command_1_1_command.html" target="_top" xlink:title=" ">
<polygon fill="white" stroke="none" points="379,-1227.25 223,-1227.25 223,-784.25 379,-784.25 379,-1227.25"/>
<text text-anchor="start" x="278.5" y="-1213.75" font-family="Helvetica,sans-Serif" font-size="10.00">Command</text>
<text text-anchor="start" x="299.5" y="-1198.75" font-family="Helvetica,sans-Serif" font-size="10.00"> </text>
<text text-anchor="start" x="227" y="-1183.75" font-family="Helvetica,sans-Serif" font-size="10.00">+</text>
<text text-anchor="start" x="237" y="-1183.75" font-family="Helvetica,sans-Serif" font-size="10.00">__construct(string</text>
<text text-anchor="start" x="237" y="-1172.5" font-family="Helvetica,sans-Serif" font-size="10.00"> $name=null)</text>
<text text-anchor="start" x="227" y="-1157.75" font-family="Helvetica,sans-Serif" font-size="10.00">+</text>
<text text-anchor="start" x="237" y="-1157.75" font-family="Helvetica,sans-Serif" font-size="10.00">ignoreValidationErrors()</text>
<text text-anchor="start" x="227" y="-1142.75" font-family="Helvetica,sans-Serif" font-size="10.00">+</text>
<text text-anchor="start" x="237" y="-1142.75" font-family="Helvetica,sans-Serif" font-size="10.00">setApplication(Application</text>
<text text-anchor="start" x="237" y="-1131.5" font-family="Helvetica,sans-Serif" font-size="10.00"> $application=null)</text>
<text text-anchor="start" x="227" y="-1116.75" font-family="Helvetica,sans-Serif" font-size="10.00">+</text>
<text text-anchor="start" x="237" y="-1116.75" font-family="Helvetica,sans-Serif" font-size="10.00">setHelperSet(HelperSet</text>
<text text-anchor="start" x="237" y="-1105.5" font-family="Helvetica,sans-Serif" font-size="10.00"> $helperSet)</text>
<text text-anchor="start" x="227" y="-1090.75" font-family="Helvetica,sans-Serif" font-size="10.00">+</text>
<text text-anchor="start" x="237" y="-1090.75" font-family="Helvetica,sans-Serif" font-size="10.00">getHelperSet()</text>
<text text-anchor="start" x="227" y="-1075.75" font-family="Helvetica,sans-Serif" font-size="10.00">+</text>
<text text-anchor="start" x="237" y="-1075.75" font-family="Helvetica,sans-Serif" font-size="10.00">getApplication()</text>
<text text-anchor="start" x="227" y="-1060.75" font-family="Helvetica,sans-Serif" font-size="10.00">+</text>
<text text-anchor="start" x="237" y="-1060.75" font-family="Helvetica,sans-Serif" font-size="10.00">isEnabled()</text>
<text text-anchor="start" x="227" y="-1045.75" font-family="Helvetica,sans-Serif" font-size="10.00">+</text>
<text text-anchor="start" x="237" y="-1045.75" font-family="Helvetica,sans-Serif" font-size="10.00">run(InputInterface</text>
<text text-anchor="start" x="237" y="-1034.5" font-family="Helvetica,sans-Serif" font-size="10.00"> $input, OutputInterface</text>
<text text-anchor="start" x="237" y="-1023.25" font-family="Helvetica,sans-Serif" font-size="10.00"> $output)</text>
<text text-anchor="start" x="227" y="-1008.75" font-family="Helvetica,sans-Serif" font-size="10.00">+</text>
<text text-anchor="start" x="237" y="-1008.75" font-family="Helvetica,sans-Serif" font-size="10.00">complete(CompletionInput</text>
<text text-anchor="start" x="237" y="-997.5" font-family="Helvetica,sans-Serif" font-size="10.00"> $input, CompletionSuggestions</text>
<text text-anchor="start" x="237" y="-986.25" font-family="Helvetica,sans-Serif" font-size="10.00"> $suggestions)</text>
<text text-anchor="start" x="227" y="-971.75" font-family="Helvetica,sans-Serif" font-size="10.00">+</text>
<text text-anchor="start" x="237" y="-971.75" font-family="Helvetica,sans-Serif" font-size="10.00">setCode(callable </text>
<text text-anchor="start" x="237" y="-960.5" font-family="Helvetica,sans-Serif" font-size="10.00">$code)</text>
<text text-anchor="start" x="237" y="-945.75" font-family="Helvetica,sans-Serif" font-size="10.00">et 22 de plus...</text>
<text text-anchor="start" x="227" y="-930.75" font-family="Helvetica,sans-Serif" font-size="10.00">+</text>
<text text-anchor="start" x="237" y="-930.75" font-family="Helvetica,sans-Serif" font-size="10.00">static getDefaultName()</text>
<text text-anchor="start" x="227" y="-915.75" font-family="Helvetica,sans-Serif" font-size="10.00">+</text>
<text text-anchor="start" x="237" y="-915.75" font-family="Helvetica,sans-Serif" font-size="10.00">static getDefaultDescription()</text>
<text text-anchor="start" x="227.38" y="-900.75" font-family="Helvetica,sans-Serif" font-size="10.00">#</text>
<text text-anchor="start" x="237" y="-900.75" font-family="Helvetica,sans-Serif" font-size="10.00">configure()</text>
<text text-anchor="start" x="227.38" y="-885.75" font-family="Helvetica,sans-Serif" font-size="10.00">#</text>
<text text-anchor="start" x="237" y="-885.75" font-family="Helvetica,sans-Serif" font-size="10.00">execute(InputInterface</text>
<text text-anchor="start" x="237" y="-874.5" font-family="Helvetica,sans-Serif" font-size="10.00"> $input, OutputInterface</text>
<text text-anchor="start" x="237" y="-863.25" font-family="Helvetica,sans-Serif" font-size="10.00"> $output)</text>
<text text-anchor="start" x="227.38" y="-848.75" font-family="Helvetica,sans-Serif" font-size="10.00">#</text>
<text text-anchor="start" x="237" y="-848.75" font-family="Helvetica,sans-Serif" font-size="10.00">interact(InputInterface</text>
<text text-anchor="start" x="237" y="-837.5" font-family="Helvetica,sans-Serif" font-size="10.00"> $input, OutputInterface</text>
<text text-anchor="start" x="237" y="-826.25" font-family="Helvetica,sans-Serif" font-size="10.00"> $output)</text>
<text text-anchor="start" x="227.38" y="-811.75" font-family="Helvetica,sans-Serif" font-size="10.00">#</text>
<text text-anchor="start" x="237" y="-811.75" font-family="Helvetica,sans-Serif" font-size="10.00">initialize(InputInterface</text>
<text text-anchor="start" x="237" y="-800.5" font-family="Helvetica,sans-Serif" font-size="10.00"> $input, OutputInterface</text>
<text text-anchor="start" x="237" y="-789.25" font-family="Helvetica,sans-Serif" font-size="10.00"> $output)</text>
<polygon fill="#666666" stroke="#666666" points="223,-1210.25 223,-1210.25 379,-1210.25 379,-1210.25 223,-1210.25"/>
<polygon fill="#666666" stroke="#666666" points="223,-1195.25 223,-1195.25 379,-1195.25 379,-1195.25 223,-1195.25"/>
<polygon fill="none" stroke="#666666" points="223,-784.25 223,-1227.25 379,-1227.25 379,-784.25 223,-784.25"/>
</a>
</g>
</g>
<!-- Node4&#45;&gt;Node3 -->
<g id="edge3_Node000003_Node000004" class="edge">
<title>Node4&#45;&gt;Node3</title>
<g id="a_edge3_Node000003_Node000004"><a xlink:title=" ">
<path fill="none" stroke="#63b8ff" d="M311.62,-772.82C312.17,-760.83 312.72,-748.82 313.27,-736.89"/>
<polygon fill="none" stroke="#63b8ff" points="308.13,-772.64 311.17,-782.79 315.12,-772.96 308.13,-772.64"/>
</a>
</g>
</g>
<!-- Node5 -->
<g id="Node000005" class="node">
<title>Node5</title>
<g id="a_Node000005"><a xlink:title=" ">
<polygon fill="white" stroke="none" points="209,-1346 175,-1346 175,-1297 209,-1297 209,-1346"/>
<text text-anchor="start" x="180" y="-1332.5" font-family="Helvetica,sans-Serif" font-size="10.00">const</text>
<text text-anchor="start" x="190.5" y="-1317.5" font-family="Helvetica,sans-Serif" font-size="10.00"> </text>
<text text-anchor="start" x="190.5" y="-1302.5" font-family="Helvetica,sans-Serif" font-size="10.00"> </text>
<polygon fill="#666666" stroke="#666666" points="175,-1329 175,-1329 209,-1329 209,-1329 175,-1329"/>
<polygon fill="#666666" stroke="#666666" points="175,-1314 175,-1314 209,-1314 209,-1314 175,-1314"/>
<polygon fill="none" stroke="#666666" points="175,-1297 175,-1346 209,-1346 209,-1297 175,-1297"/>
</a>
</g>
</g>
<!-- Node5&#45;&gt;Node1 -->
<g id="edge9_Node000001_Node000005" class="edge">
<title>Node5&#45;&gt;Node1</title>
<g id="a_edge9_Node000001_Node000005"><a xlink:title=" ">
<path fill="none" stroke="#63b8ff" d="M175.3,-1306.45C128.58,-1265.47 0,-1140.54 0,-1006.75 0,-1006.75 0,-1006.75 0,-212 0,-182.52 11.17,-152.69 24.78,-127.29"/>
<polygon fill="none" stroke="#63b8ff" points="24.84,-127.19 24.3,-120 30.73,-116.74 31.27,-123.93 24.84,-127.19"/>
</a>
</g>
<text text-anchor="start" x="0" y="-525.25" font-family="Helvetica,sans-Serif" font-size="10.00" fill="grey"> +ERROR_PLUGIN_INSTALLATION</text>
<text text-anchor="middle" x="81.75" y="-514" font-family="Helvetica,sans-Serif" font-size="10.00" fill="grey">_FAILED</text>
</g>
<!-- Node5&#45;&gt;Node2 -->
<g id="edge8_Node000002_Node000005" class="edge">
<title>Node5&#45;&gt;Node2</title>
<g id="a_edge8_Node000002_Node000005"><a xlink:title=" ">
<path fill="none" stroke="#63b8ff" d="M190.84,-1297.26C185.67,-1186.68 166.79,-702.75 211,-310 211.89,-302.06 213.13,-293.81 214.56,-285.62"/>
<polygon fill="none" stroke="#63b8ff" points="214.57,-285.55 211.74,-278.92 216.77,-273.75 219.6,-280.39 214.57,-285.55"/>
</a>
</g>
<text text-anchor="middle" x="230.75" y="-756.75" font-family="Helvetica,sans-Serif" font-size="10.00" fill="grey"> +DIRECTORY_ALL</text>
</g>
<!-- Node5&#45;&gt;Node4 -->
<g id="edge4_Node000004_Node000005" class="edge">
<title>Node5&#45;&gt;Node4</title>
<g id="a_edge4_Node000004_Node000005"><a xlink:title=" ">
<path fill="none" stroke="#63b8ff" d="M200.1,-1297.17C205.12,-1282.72 212.14,-1262.54 220.15,-1239.48"/>
<polygon fill="none" stroke="#63b8ff" points="220.19,-1239.36 218.38,-1232.38 224.13,-1228.03 225.94,-1235.01 220.19,-1239.36"/>
</a>
</g>
<text text-anchor="middle" x="243.75" y="-1269.5" font-family="Helvetica,sans-Serif" font-size="10.00" fill="grey"> +FAILURE</text>
<text text-anchor="middle" x="243.75" y="-1258.25" font-family="Helvetica,sans-Serif" font-size="10.00" fill="grey">+INVALID</text>
<text text-anchor="middle" x="243.75" y="-1247" font-family="Helvetica,sans-Serif" font-size="10.00" fill="grey">+SUCCESS</text>
</g>
<!-- Node6 -->
<g id="Node000006" class="node">
<title>Node6</title>
<g id="a_Node000006"><a xlink:title=" ">
<polygon fill="white" stroke="none" points="321,-1346 287,-1346 287,-1297 321,-1297 321,-1346"/>
<text text-anchor="start" x="292" y="-1332.5" font-family="Helvetica,sans-Serif" font-size="10.00">static</text>
<text text-anchor="start" x="302.5" y="-1317.5" font-family="Helvetica,sans-Serif" font-size="10.00"> </text>
<text text-anchor="start" x="302.5" y="-1302.5" font-family="Helvetica,sans-Serif" font-size="10.00"> </text>
<polygon fill="#666666" stroke="#666666" points="287,-1329 287,-1329 321,-1329 321,-1329 287,-1329"/>
<polygon fill="#666666" stroke="#666666" points="287,-1314 287,-1314 321,-1314 321,-1314 287,-1314"/>
<polygon fill="none" stroke="#666666" points="287,-1297 287,-1346 321,-1346 321,-1297 287,-1297"/>
</a>
</g>
</g>
<!-- Node6&#45;&gt;Node4 -->
<g id="edge5_Node000004_Node000006" class="edge">
<title>Node6&#45;&gt;Node4</title>
<g id="a_edge5_Node000004_Node000006"><a xlink:title=" ">
<path fill="none" stroke="#63b8ff" d="M303.78,-1297.17C303.64,-1282.85 303.45,-1262.91 303.23,-1240.12"/>
<polygon fill="none" stroke="#63b8ff" points="303.23,-1240.08 299.17,-1234.12 303.12,-1228.08 307.17,-1234.04 303.23,-1240.08"/>
</a>
</g>
<text text-anchor="middle" x="350.12" y="-1263.88" font-family="Helvetica,sans-Serif" font-size="10.00" fill="grey"> #$defaultDescription</text>
<text text-anchor="middle" x="350.12" y="-1252.62" font-family="Helvetica,sans-Serif" font-size="10.00" fill="grey">#$defaultName</text>
</g>
<!-- Node7 -->
<g id="Node000007" class="node">
<title>Node7</title>
<g id="a_Node000007"><a xlink:href="interface_glpi_1_1_console_1_1_command_1_1_glpi_command_interface.html" target="_top" xlink:title=" ">
<polygon fill="white" stroke="none" points="577,-1037.75 397,-1037.75 397,-973.75 577,-973.75 577,-1037.75"/>
<text text-anchor="start" x="436.75" y="-1024.25" font-family="Helvetica,sans-Serif" font-size="10.00">GlpiCommandInterface</text>
<text text-anchor="start" x="485.5" y="-1009.25" font-family="Helvetica,sans-Serif" font-size="10.00"> </text>
<text text-anchor="start" x="401" y="-994.25" font-family="Helvetica,sans-Serif" font-size="10.00">+</text>
<text text-anchor="start" x="411" y="-994.25" font-family="Helvetica,sans-Serif" font-size="10.00">mustCheckMandatoryRequirements()</text>
<text text-anchor="start" x="401" y="-979.25" font-family="Helvetica,sans-Serif" font-size="10.00">+</text>
<text text-anchor="start" x="411" y="-979.25" font-family="Helvetica,sans-Serif" font-size="10.00">requiresUpToDateDb()</text>
<polygon fill="#666666" stroke="#666666" points="397,-1020.75 397,-1020.75 577,-1020.75 577,-1020.75 397,-1020.75"/>
<polygon fill="#666666" stroke="#666666" points="397,-1005.75 397,-1005.75 577,-1005.75 577,-1005.75 397,-1005.75"/>
<polygon fill="none" stroke="#666666" points="397,-973.75 397,-1037.75 577,-1037.75 577,-973.75 397,-973.75"/>
</a>
</g>
</g>
<!-- Node7&#45;&gt;Node3 -->
<g id="edge6_Node000003_Node000007" class="edge">
<title>Node7&#45;&gt;Node3</title>
<g id="a_edge6_Node000003_Node000007"><a xlink:title=" ">
<path fill="none" stroke="#63b8ff" d="M472.78,-963.1C455.38,-912.14 424.62,-822.08 395.49,-736.77"/>
<polygon fill="none" stroke="#63b8ff" points="469.46,-964.21 476,-972.55 476.08,-961.95 469.46,-964.21"/>
</a>
</g>
</g>
<!-- Node8 -->
<g id="Node000008" class="node">
<title>Node8</title>
<g id="a_Node000008"><a xlink:href="interface_glpi_1_1_console_1_1_command_1_1_force_no_plugins_option_command_interface.html" target="_top" xlink:title=" ">
<polygon fill="white" stroke="none" points="597.5,-553.5 444.5,-553.5 444.5,-493.5 597.5,-493.5 597.5,-553.5"/>
<text text-anchor="start" x="449.38" y="-540" font-family="Helvetica,sans-Serif" font-size="10.00">ForceNoPluginsOptionCommand</text>
<text text-anchor="start" x="501.88" y="-528.75" font-family="Helvetica,sans-Serif" font-size="10.00">Interface</text>
<text text-anchor="start" x="519.5" y="-514" font-family="Helvetica,sans-Serif" font-size="10.00"> </text>
<text text-anchor="start" x="453" y="-499" font-family="Helvetica,sans-Serif" font-size="10.00">+</text>
<text text-anchor="start" x="467.5" y="-499" font-family="Helvetica,sans-Serif" font-size="10.00">getNoPluginsOptionValue()</text>
<polygon fill="#666666" stroke="#666666" points="444.5,-525.5 444.5,-525.5 597.5,-525.5 597.5,-525.5 444.5,-525.5"/>
<polygon fill="#666666" stroke="#666666" points="444.5,-510.5 444.5,-510.5 597.5,-510.5 597.5,-510.5 444.5,-510.5"/>
<polygon fill="none" stroke="#666666" points="444.5,-493.5 444.5,-553.5 597.5,-553.5 597.5,-493.5 444.5,-493.5"/>
</a>
</g>
</g>
<!-- Node8&#45;&gt;Node2 -->
<g id="edge7_Node000002_Node000008" class="edge">
<title>Node8&#45;&gt;Node2</title>
<g id="a_edge7_Node000002_Node000008"><a xlink:title=" ">
<path fill="none" stroke="#63b8ff" d="M514,-482.62C503.94,-435.97 481.27,-358.9 435,-310 399.76,-272.75 347.17,-248.49 304.21,-233.67"/>
<polygon fill="none" stroke="#63b8ff" points="510.55,-483.21 515.99,-492.3 517.41,-481.81 510.55,-483.21"/>
</a>
</g>
</g>
</g>
</svg>
