<?xml version="1.0" encoding="UTF-8" standalone="no"?>
<!DOCTYPE svg PUBLIC "-//W3C//DTD SVG 1.1//EN"
 "http://www.w3.org/Graphics/SVG/1.1/DTD/svg11.dtd">
<!-- Generated by graphviz version 10.0.1 (20240210.2158)
 -->
<!-- Title: deprecated Pages: 1 -->
<!--zoomable 1498 -->

<svg id="main" version="1.1" xmlns="http://www.w3.org/2000/svg" xmlns:xlink="http://www.w3.org/1999/xlink" xml:space="preserve" onload="init(evt)">
<style type="text/css"><![CDATA[
.node, .edge {opacity: 0.7;}
.node.selected, .edge.selected {opacity: 1;}
.edge:hover path { stroke: red; }
.edge:hover polygon { stroke: red; fill: red; }
]]></style>

<defs>
  <circle id="rim" cx="0" cy="0" r="7"/>
  <circle id="rim2" cx="0" cy="0" r="3.5"/>
  <g id="zoomPlus">
    <use xlink:href="#rim" fill="#404040"><set attributeName="fill" to="#808080" begin="zoomplus.mouseover" end="zoomplus.mouseout"/></use>
    <path d="M-4,0h8M0,-4v8" fill="none" stroke="white" stroke-width="1.5" pointer-events="none"/>
  </g>
  <g id="zoomMin">
    <use xlink:href="#rim" fill="#404040"><set attributeName="fill" to="#808080" begin="zoomminus.mouseover" end="zoomminus.mouseout"/></use>
    <path d="M-4,0h8" fill="none" stroke="white" stroke-width="1.5" pointer-events="none"/>
  </g>
  <g id="arrowUp" transform="translate(30 24)">
    <use xlink:href="#rim"/>
    <path pointer-events="none" fill="none" stroke="white" stroke-width="1.5" d="M0,-3.0v7 M-2.5,-0.5L0,-3.0L2.5,-0.5"/>
  </g>
  <g id="arrowRight" transform="rotate(90) translate(36 -43)">
    <use xlink:href="#rim"/>
    <path pointer-events="none" fill="none" stroke="white" stroke-width="1.5" d="M0,-3.0v7 M-2.5,-0.5L0,-3.0L2.5,-0.5"/>
  </g>
  <g id="arrowDown" transform="rotate(180) translate(-30 -48)">
    <use xlink:href="#rim"/>
    <path pointer-events="none" fill="none" stroke="white" stroke-width="1.5" d="M0,-3.0v7 M-2.5,-0.5L0,-3.0L2.5,-0.5"/>
  </g>
  <g id="arrowLeft" transform="rotate(270) translate(-36 17)">
    <use xlink:href="#rim"/>
    <path pointer-events="none" fill="none" stroke="white" stroke-width="1.5" d="M0,-3.0v7 M-2.5,-0.5L0,-3.0L2.5,-0.5"/>
  </g>
  <g id="resetDef">
    <use xlink:href="#rim2" fill="#404040"><set attributeName="fill" to="#808080" begin="reset.mouseover" end="reset.mouseout"/></use>
  </g>
</defs>
<script type="application/ecmascript">
var viewWidth = 599;
var viewHeight = 1498;
var sectionId = 'dynsection-18';
</script>
<script type="application/ecmascript" xlink:href="svg.min.js"/>
<svg id="graph" class="graph">
<g id="viewport">
<title>deprecated</title>
<!-- Node1 -->
<g id="Node000001" class="node">
<title>Node1</title>
<g id="a_Node000001"><a xlink:title=" ">
<polygon fill="#999999" stroke="#666666" points="591.25,-742.25 527.25,-742.25 527.25,-723 591.25,-723 591.25,-742.25"/>
<text text-anchor="middle" x="559.25" y="-728.75" font-family="Helvetica,sans-Serif" font-size="10.00">deprecated</text>
</a>
</g>
</g>
<!-- Node2 -->
<g id="Node000002" class="node">
<title>Node2</title>
<g id="a_Node000002"><a xlink:href="class_massive_action.html#a4ed10c56f9f47ee0856a2186d915c79e" target="_top" xlink:title=" ">
<polygon fill="white" stroke="#666666" points="462.38,-1490.25 354.88,-1490.25 354.88,-1471 462.38,-1471 462.38,-1490.25"/>
<text text-anchor="middle" x="408.62" y="-1476.75" font-family="Helvetica,sans-Serif" font-size="10.00">MassiveAction\__get</text>
</a>
</g>
</g>
<!-- Node1&#45;&gt;Node2 -->
<g id="edge1_Node000001_Node000002" class="edge">
<title>Node1&#45;&gt;Node2</title>
<g id="a_edge1_Node000001_Node000002"><a xlink:title=" ">
<path fill="none" stroke="#63b8ff" d="M557.77,-753.92C554.98,-868.44 539.37,-1408.05 491.25,-1462.62 483.86,-1471.01 473.53,-1475.97 462.7,-1478.82"/>
<polygon fill="#63b8ff" stroke="#63b8ff" points="561.26,-754.22 558,-744.14 554.26,-754.05 561.26,-754.22"/>
</a>
</g>
</g>
<!-- Node3 -->
<g id="Node000003" class="node">
<title>Node3</title>
<g id="a_Node000003"><a xlink:href="class_network_port.html#a4ed10c56f9f47ee0856a2186d915c79e" target="_top" xlink:title=" ">
<polygon fill="white" stroke="#666666" points="457.5,-1453.25 359.75,-1453.25 359.75,-1434 457.5,-1434 457.5,-1453.25"/>
<text text-anchor="middle" x="408.62" y="-1439.75" font-family="Helvetica,sans-Serif" font-size="10.00">NetworkPort\__get</text>
</a>
</g>
</g>
<!-- Node1&#45;&gt;Node3 -->
<g id="edge2_Node000001_Node000003" class="edge">
<title>Node1&#45;&gt;Node3</title>
<g id="a_edge2_Node000001_Node000003"><a xlink:title=" ">
<path fill="none" stroke="#63b8ff" d="M557.66,-753.87C554.39,-864.77 536.94,-1374.06 491.25,-1425.62 482.68,-1435.29 470.21,-1440.41 457.58,-1442.98"/>
<polygon fill="#63b8ff" stroke="#63b8ff" points="561.15,-754.23 557.94,-744.14 554.15,-754.03 561.15,-754.23"/>
</a>
</g>
</g>
<!-- Node4 -->
<g id="Node000004" class="node">
<title>Node4</title>
<g id="a_Node000004"><a xlink:href="class_profile.html#a4ed10c56f9f47ee0856a2186d915c79e" target="_top" xlink:title=" ">
<polygon fill="white" stroke="#666666" points="444,-1416.25 373.25,-1416.25 373.25,-1397 444,-1397 444,-1416.25"/>
<text text-anchor="middle" x="408.62" y="-1402.75" font-family="Helvetica,sans-Serif" font-size="10.00">Profile\__get</text>
</a>
</g>
</g>
<!-- Node1&#45;&gt;Node4 -->
<g id="edge3_Node000001_Node000004" class="edge">
<title>Node1&#45;&gt;Node4</title>
<g id="a_edge3_Node000001_Node000004"><a xlink:title=" ">
<path fill="none" stroke="#63b8ff" d="M557.53,-754.06C553.73,-861.71 534.47,-1340.11 491.25,-1388.62 479.67,-1401.63 461.01,-1406.39 444.45,-1407.79"/>
<polygon fill="#63b8ff" stroke="#63b8ff" points="561.03,-754.21 557.87,-744.1 554.03,-753.97 561.03,-754.21"/>
</a>
</g>
</g>
<!-- Node5 -->
<g id="Node000005" class="node">
<title>Node5</title>
<g id="a_Node000005"><a xlink:href="class_i_p_network.html#a3bc67272b7a63868c1d4bd8ff922180e" target="_top" xlink:title=" ">
<polygon fill="white" stroke="#666666" points="453.38,-1379.25 363.88,-1379.25 363.88,-1360 453.38,-1360 453.38,-1379.25"/>
<text text-anchor="middle" x="408.62" y="-1365.75" font-family="Helvetica,sans-Serif" font-size="10.00">IPNetwork\__set</text>
</a>
</g>
</g>
<!-- Node1&#45;&gt;Node5 -->
<g id="edge4_Node000001_Node000005" class="edge">
<title>Node1&#45;&gt;Node5</title>
<g id="a_edge4_Node000001_Node000005"><a xlink:title=" ">
<path fill="none" stroke="#63b8ff" d="M557.4,-753.82C553.08,-857.27 532.07,-1306.08 491.25,-1351.62 481.76,-1362.21 467.57,-1367.33 453.68,-1369.62"/>
<polygon fill="#63b8ff" stroke="#63b8ff" points="560.89,-754.15 557.8,-744.01 553.9,-753.86 560.89,-754.15"/>
</a>
</g>
</g>
<!-- Node6 -->
<g id="Node000006" class="node">
<title>Node6</title>
<g id="a_Node000006"><a xlink:href="class_massive_action.html#a3bc67272b7a63868c1d4bd8ff922180e" target="_top" xlink:title=" ">
<polygon fill="white" stroke="#666666" points="462.38,-1342.25 354.88,-1342.25 354.88,-1323 462.38,-1323 462.38,-1342.25"/>
<text text-anchor="middle" x="408.62" y="-1328.75" font-family="Helvetica,sans-Serif" font-size="10.00">MassiveAction\__set</text>
</a>
</g>
</g>
<!-- Node1&#45;&gt;Node6 -->
<g id="edge5_Node000001_Node000006" class="edge">
<title>Node1&#45;&gt;Node6</title>
<g id="a_edge5_Node000001_Node000006"><a xlink:title=" ">
<path fill="none" stroke="#63b8ff" d="M557.25,-753.79C552.37,-853.34 529.65,-1272.08 491.25,-1314.62 483.76,-1322.92 473.4,-1327.85 462.56,-1330.7"/>
<polygon fill="#63b8ff" stroke="#63b8ff" points="560.74,-754.04 557.73,-743.88 553.75,-753.7 560.74,-754.04"/>
</a>
</g>
</g>
<!-- Node7 -->
<g id="Node000007" class="node">
<title>Node7</title>
<g id="a_Node000007"><a xlink:href="class_network_port.html#a3bc67272b7a63868c1d4bd8ff922180e" target="_top" xlink:title=" ">
<polygon fill="white" stroke="#666666" points="457.5,-1305.25 359.75,-1305.25 359.75,-1286 457.5,-1286 457.5,-1305.25"/>
<text text-anchor="middle" x="408.62" y="-1291.75" font-family="Helvetica,sans-Serif" font-size="10.00">NetworkPort\__set</text>
</a>
</g>
</g>
<!-- Node1&#45;&gt;Node7 -->
<g id="edge6_Node000001_Node000007" class="edge">
<title>Node1&#45;&gt;Node7</title>
<g id="a_edge6_Node000001_Node000007"><a xlink:title=" ">
<path fill="none" stroke="#63b8ff" d="M557.07,-753.94C551.57,-849.81 527.2,-1238.1 491.25,-1277.62 482.66,-1287.07 470.33,-1292.15 457.84,-1294.75"/>
<polygon fill="#63b8ff" stroke="#63b8ff" points="560.55,-754.33 557.62,-744.15 553.56,-753.93 560.55,-754.33"/>
</a>
</g>
</g>
<!-- Node8 -->
<g id="Node000008" class="node">
<title>Node8</title>
<g id="a_Node000008"><a xlink:href="class_profile.html#a3bc67272b7a63868c1d4bd8ff922180e" target="_top" xlink:title=" ">
<polygon fill="white" stroke="#666666" points="444,-1268.25 373.25,-1268.25 373.25,-1249 444,-1249 444,-1268.25"/>
<text text-anchor="middle" x="408.62" y="-1254.75" font-family="Helvetica,sans-Serif" font-size="10.00">Profile\__set</text>
</a>
</g>
</g>
<!-- Node1&#45;&gt;Node8 -->
<g id="edge7_Node000001_Node000008" class="edge">
<title>Node1&#45;&gt;Node8</title>
<g id="a_edge7_Node000001_Node000008"><a xlink:title=" ">
<path fill="none" stroke="#63b8ff" d="M558.53,-754.21C559.21,-841.48 557.21,-1166.91 491.25,-1239.62 479.52,-1252.56 460.85,-1257.54 444.33,-1259.18"/>
<polygon fill="#63b8ff" stroke="#63b8ff" points="562.03,-754.2 558.43,-744.24 555.03,-754.27 562.03,-754.2"/>
</a>
</g>
</g>
<!-- Node9 -->
<g id="Node000009" class="node">
<title>Node9</title>
<g id="a_Node000009"><a xlink:href="class_notification_target_certificate.html#af044edde79441ebf609bc05fb7f3e12a" target="_top" xlink:title=" ">
<polygon fill="white" stroke="#666666" points="477.38,-1230.88 339.88,-1230.88 339.88,-1200.38 477.38,-1200.38 477.38,-1230.88"/>
<text text-anchor="start" x="347.88" y="-1217.38" font-family="Helvetica,sans-Serif" font-size="10.00">NotificationTargetCertificate</text>
<text text-anchor="middle" x="408.62" y="-1206.12" font-family="Helvetica,sans-Serif" font-size="10.00">\addDataForTemplate</text>
</a>
</g>
</g>
<!-- Node1&#45;&gt;Node9 -->
<g id="edge8_Node000001_Node000009" class="edge">
<title>Node1&#45;&gt;Node9</title>
<g id="a_edge8_Node000001_Node000009"><a xlink:title=" ">
<path fill="none" stroke="#63b8ff" d="M558.06,-753.8C556.89,-834.79 548.7,-1123.7 491.25,-1190.62 487.39,-1195.12 482.74,-1198.83 477.65,-1201.87"/>
<polygon fill="#63b8ff" stroke="#63b8ff" points="561.55,-754.02 558.17,-743.98 554.55,-753.94 561.55,-754.02"/>
</a>
</g>
</g>
<!-- Node10 -->
<g id="Node000010" class="node">
<title>Node10</title>
<g id="a_Node000010"><a xlink:href="class_notification_target_domain.html#af044edde79441ebf609bc05fb7f3e12a" target="_top" xlink:title=" ">
<polygon fill="white" stroke="#666666" points="471.75,-1181.88 345.5,-1181.88 345.5,-1151.38 471.75,-1151.38 471.75,-1181.88"/>
<text text-anchor="start" x="353.5" y="-1168.38" font-family="Helvetica,sans-Serif" font-size="10.00">NotificationTargetDomain</text>
<text text-anchor="middle" x="408.62" y="-1157.12" font-family="Helvetica,sans-Serif" font-size="10.00">\addDataForTemplate</text>
</a>
</g>
</g>
<!-- Node1&#45;&gt;Node10 -->
<g id="edge9_Node000001_Node000010" class="edge">
<title>Node1&#45;&gt;Node10</title>
<g id="a_edge9_Node000001_Node000010"><a xlink:title=" ">
<path fill="none" stroke="#63b8ff" d="M557.68,-753.75C555.22,-829.17 543.15,-1083.85 491.25,-1142.62 485.97,-1148.6 479.29,-1153.13 472.02,-1156.55"/>
<polygon fill="#63b8ff" stroke="#63b8ff" points="561.17,-754.14 557.97,-744.04 554.17,-753.93 561.17,-754.14"/>
</a>
</g>
</g>
<!-- Node11 -->
<g id="Node000011" class="node">
<title>Node11</title>
<g id="a_Node000011"><a xlink:href="class_html.html#a07a26e77d7a2655bdcb1e24cbff0fa2a" target="_top" xlink:title=" ">
<polygon fill="white" stroke="#666666" points="481.5,-1133.25 335.75,-1133.25 335.75,-1114 481.5,-1114 481.5,-1133.25"/>
<text text-anchor="middle" x="408.62" y="-1119.75" font-family="Helvetica,sans-Serif" font-size="10.00">Html\autocompletionTextField</text>
</a>
</g>
</g>
<!-- Node1&#45;&gt;Node11 -->
<g id="edge10_Node000001_Node000011" class="edge">
<title>Node1&#45;&gt;Node11</title>
<g id="a_edge10_Node000001_Node000011"><a xlink:title=" ">
<path fill="none" stroke="#63b8ff" d="M557.42,-754.23C554.22,-825.97 540.29,-1054.61 491.25,-1105.62 488.23,-1108.76 484.8,-1111.41 481.1,-1113.65"/>
<polygon fill="#63b8ff" stroke="#63b8ff" points="560.92,-754.39 557.84,-744.25 553.92,-754.1 560.92,-754.39"/>
</a>
</g>
</g>
<!-- Node12 -->
<g id="Node000012" class="node">
<title>Node12</title>
<g id="a_Node000012"><a xlink:href="class_d_bmysql_iterator.html#a79ddfa7d9c45606daf767cd9c97fbd3e" target="_top" xlink:title=" ">
<polygon fill="white" stroke="#666666" points="477,-1096.25 340.25,-1096.25 340.25,-1077 477,-1077 477,-1096.25"/>
<text text-anchor="middle" x="408.62" y="-1082.75" font-family="Helvetica,sans-Serif" font-size="10.00">DBmysqlIterator\buildQuery</text>
</a>
</g>
</g>
<!-- Node1&#45;&gt;Node12 -->
<g id="edge11_Node000001_Node000012" class="edge">
<title>Node1&#45;&gt;Node12</title>
<g id="a_edge11_Node000001_Node000012"><a xlink:title=" ">
<path fill="none" stroke="#63b8ff" d="M556.98,-753.81C552.57,-820.33 535.64,-1023.33 491.25,-1068.62 487.19,-1072.77 482.4,-1076.06 477.22,-1078.66"/>
<polygon fill="#63b8ff" stroke="#63b8ff" points="560.45,-754.44 557.59,-744.24 553.46,-754 560.45,-754.44"/>
</a>
</g>
</g>
<!-- Node14 -->
<g id="Node000014" class="node">
<title>Node14</title>
<g id="a_Node000014"><a xlink:href="class_html.html#a07b4d50c75d6966c772518c3498fd854" target="_top" xlink:title=" ">
<polygon fill="white" stroke="#666666" points="440.25,-1059.25 377,-1059.25 377,-1040 440.25,-1040 440.25,-1059.25"/>
<text text-anchor="middle" x="408.62" y="-1045.75" font-family="Helvetica,sans-Serif" font-size="10.00">Html\clean</text>
</a>
</g>
</g>
<!-- Node1&#45;&gt;Node14 -->
<g id="edge13_Node000001_Node000014" class="edge">
<title>Node1&#45;&gt;Node14</title>
<g id="a_edge13_Node000001_Node000014"><a xlink:title=" ">
<path fill="none" stroke="#63b8ff" d="M556.41,-753.84C550.65,-815.37 530.91,-992.1 491.25,-1031.62 478.09,-1044.74 457.69,-1049.24 440.57,-1050.46"/>
<polygon fill="#63b8ff" stroke="#63b8ff" points="559.88,-754.32 557.3,-744.05 552.91,-753.7 559.88,-754.32"/>
</a>
</g>
</g>
<!-- Node15 -->
<g id="Node000015" class="node">
<title>Node15</title>
<g id="a_Node000015"><a xlink:href="class_toolbox.html#a6fbb78ea499d2cae3f91d210ed58ff62" target="_top" xlink:title=" ">
<polygon fill="white" stroke="#666666" points="488.62,-1022.25 328.62,-1022.25 328.62,-1003 488.62,-1003 488.62,-1022.25"/>
<text text-anchor="middle" x="408.62" y="-1008.75" font-family="Helvetica,sans-Serif" font-size="10.00">clean_cross_side_scripting_deep</text>
</a>
</g>
</g>
<!-- Node1&#45;&gt;Node15 -->
<g id="edge14_Node000001_Node000015" class="edge">
<title>Node1&#45;&gt;Node15</title>
<g id="a_edge14_Node000001_Node000015"><a xlink:title=" ">
<path fill="none" stroke="#63b8ff" d="M555.62,-754.02C548.28,-810.19 525.85,-959.8 491.25,-993.62 487.61,-997.19 483.44,-1000.13 478.95,-1002.55"/>
<polygon fill="#63b8ff" stroke="#63b8ff" points="559.08,-754.56 556.87,-744.2 552.13,-753.68 559.08,-754.56"/>
</a>
</g>
</g>
<!-- Node16 -->
<g id="Node000016" class="node">
<title>Node16</title>
<g id="a_Node000016"><a xlink:href="class_entity.html#a08c3e521752d61f46fb02786dee96468" target="_top" xlink:title=" ">
<polygon fill="white" stroke="#666666" points="473.25,-984.88 344,-984.88 344,-954.38 473.25,-954.38 473.25,-984.88"/>
<text text-anchor="start" x="352" y="-971.38" font-family="Helvetica,sans-Serif" font-size="10.00">Entity\cleanEntitySelector</text>
<text text-anchor="middle" x="408.62" y="-960.12" font-family="Helvetica,sans-Serif" font-size="10.00">Cache</text>
</a>
</g>
</g>
<!-- Node1&#45;&gt;Node16 -->
<g id="edge15_Node000001_Node000016" class="edge">
<title>Node1&#45;&gt;Node16</title>
<g id="a_edge15_Node000001_Node000016"><a xlink:title=" ">
<path fill="none" stroke="#63b8ff" d="M557.86,-753.63C555.92,-796.07 545.41,-892.47 491.25,-945.62 486.19,-950.59 480.16,-954.54 473.7,-957.68"/>
<polygon fill="#63b8ff" stroke="#63b8ff" points="561.36,-753.93 558.18,-743.82 554.36,-753.7 561.36,-753.93"/>
</a>
</g>
</g>
<!-- Node17 -->
<g id="Node000017" class="node">
<title>Node17</title>
<g id="a_Node000017"><a xlink:href="class_html.html#a0243135cea6fb82934f7e65e9b088d3b" target="_top" xlink:title=" ">
<polygon fill="white" stroke="#666666" points="474,-936.25 343.25,-936.25 343.25,-917 474,-917 474,-936.25"/>
<text text-anchor="middle" x="408.62" y="-922.75" font-family="Helvetica,sans-Serif" font-size="10.00">Html\closeArrowMassives</text>
</a>
</g>
</g>
<!-- Node1&#45;&gt;Node17 -->
<g id="edge16_Node000001_Node000017" class="edge">
<title>Node1&#45;&gt;Node17</title>
<g id="a_edge16_Node000001_Node000017"><a xlink:title=" ">
<path fill="none" stroke="#63b8ff" d="M556.54,-753.81C552.35,-791.04 538.19,-868.11 491.25,-908.62 486.31,-912.89 480.58,-916.21 474.5,-918.79"/>
<polygon fill="#63b8ff" stroke="#63b8ff" points="560.02,-754.22 557.5,-743.93 553.05,-753.54 560.02,-754.22"/>
</a>
</g>
</g>
<!-- Node18 -->
<g id="Node000018" class="node">
<title>Node18</title>
<g id="a_Node000018"><a xlink:href="class_html.html#a67658b0ad717259e6c7493d62e62f664" target="_top" xlink:title=" ">
<polygon fill="white" stroke="#666666" points="469.12,-899.25 348.12,-899.25 348.12,-880 469.12,-880 469.12,-899.25"/>
<text text-anchor="middle" x="408.62" y="-885.75" font-family="Helvetica,sans-Serif" font-size="10.00">Html\displayDebugInfos</text>
</a>
</g>
</g>
<!-- Node1&#45;&gt;Node18 -->
<g id="edge17_Node000001_Node000018" class="edge">
<title>Node1&#45;&gt;Node18</title>
<g id="a_edge17_Node000001_Node000018"><a xlink:title=" ">
<path fill="none" stroke="#63b8ff" d="M554.17,-753.65C547.03,-784.48 529.29,-841.53 491.25,-871.62 484.88,-876.67 477.39,-880.36 469.57,-883.06"/>
<polygon fill="#63b8ff" stroke="#63b8ff" points="557.56,-754.53 556.22,-744.02 550.71,-753.07 557.56,-754.53"/>
</a>
</g>
</g>
<!-- Node19 -->
<g id="Node000019" class="node">
<title>Node19</title>
<g id="a_Node000019"><a xlink:href="class_common_dropdown.html#aa4862c157fa55141810ebbea438244e7" target="_top" xlink:title=" ">
<polygon fill="white" stroke="#666666" points="491.25,-862.25 326,-862.25 326,-843 491.25,-843 491.25,-862.25"/>
<text text-anchor="middle" x="408.62" y="-848.75" font-family="Helvetica,sans-Serif" font-size="10.00">CommonDropdown\displayHeader</text>
</a>
</g>
</g>
<!-- Node1&#45;&gt;Node19 -->
<g id="edge18_Node000001_Node000019" class="edge">
<title>Node1&#45;&gt;Node19</title>
<g id="a_edge18_Node000001_Node000019"><a xlink:title=" ">
<path fill="none" stroke="#63b8ff" d="M550.43,-753.12C540.38,-776.58 520.65,-814.37 491.25,-834.62 486.71,-837.75 481.72,-840.35 476.51,-842.5"/>
<polygon fill="#63b8ff" stroke="#63b8ff" points="553.61,-754.59 554.12,-744.01 547.12,-751.96 553.61,-754.59"/>
</a>
</g>
</g>
<!-- Node20 -->
<g id="Node000020" class="node">
<title>Node20</title>
<g id="a_Node000020"><a xlink:href="class_toolbox.html#aa220a1fab892798bcacc8e8a47449448" target="_top" xlink:title=" ">
<polygon fill="white" stroke="#666666" points="437.25,-825.25 380,-825.25 380,-806 437.25,-806 437.25,-825.25"/>
<text text-anchor="middle" x="408.62" y="-811.75" font-family="Helvetica,sans-Serif" font-size="10.00">endsWith</text>
</a>
</g>
</g>
<!-- Node1&#45;&gt;Node20 -->
<g id="edge19_Node000001_Node000020" class="edge">
<title>Node1&#45;&gt;Node20</title>
<g id="a_edge19_Node000001_Node000020"><a xlink:title=" ">
<path fill="none" stroke="#63b8ff" d="M543.63,-751.24C531.23,-765.77 512.14,-785.33 491.25,-796.62 474.61,-805.62 453.82,-810.38 437.39,-812.88"/>
<polygon fill="#63b8ff" stroke="#63b8ff" points="546.17,-753.67 549.81,-743.73 540.76,-749.23 546.17,-753.67"/>
</a>
</g>
</g>
<!-- Node21 -->
<g id="Node000021" class="node">
<title>Node21</title>
<g id="a_Node000021"><a xlink:href="class_glpi_1_1_console_1_1_system_1_1_check_status_command.html#ab31c72b72ddaf7116db5d84c055d3c0b" target="_top" xlink:title=" ">
<polygon fill="white" stroke="#666666" points="469.12,-787.5 348.12,-787.5 348.12,-745.75 469.12,-745.75 469.12,-787.5"/>
<text text-anchor="start" x="356.12" y="-774" font-family="Helvetica,sans-Serif" font-size="10.00">Glpi\Console\System</text>
<text text-anchor="start" x="356.12" y="-762.75" font-family="Helvetica,sans-Serif" font-size="10.00">\CheckStatusCommand</text>
<text text-anchor="middle" x="408.62" y="-751.5" font-family="Helvetica,sans-Serif" font-size="10.00">\execute</text>
</a>
</g>
</g>
<!-- Node1&#45;&gt;Node21 -->
<g id="edge20_Node000001_Node000021" class="edge">
<title>Node1&#45;&gt;Node21</title>
<g id="a_edge20_Node000001_Node000021"><a xlink:title=" ">
<path fill="none" stroke="#63b8ff" d="M516,-742.29C501.56,-745.59 485.13,-749.35 469.56,-752.91"/>
<polygon fill="#63b8ff" stroke="#63b8ff" points="516.65,-745.73 525.62,-740.09 515.09,-738.91 516.65,-745.73"/>
</a>
</g>
</g>
<!-- Node22 -->
<g id="Node000022" class="node">
<title>Node22</title>
<g id="a_Node000022"><a xlink:href="class_toolbox.html#a5cd877205abb45b9a620192afba2030f" target="_top" xlink:title=" ">
<polygon fill="white" stroke="#666666" points="451.88,-709.25 365.38,-709.25 365.38,-690 451.88,-690 451.88,-709.25"/>
<text text-anchor="middle" x="408.62" y="-695.75" font-family="Helvetica,sans-Serif" font-size="10.00">filesizeDirectory</text>
</a>
</g>
</g>
<!-- Node1&#45;&gt;Node22 -->
<g id="edge21_Node000001_Node000022" class="edge">
<title>Node1&#45;&gt;Node22</title>
<g id="a_edge21_Node000001_Node000022"><a xlink:title=" ">
<path fill="none" stroke="#63b8ff" d="M515.86,-723.21C495.94,-718.79 472.25,-713.53 452.3,-709.1"/>
<polygon fill="#63b8ff" stroke="#63b8ff" points="515.09,-726.63 525.62,-725.38 516.61,-719.79 515.09,-726.63"/>
</a>
</g>
</g>
<!-- Node23 -->
<g id="Node000023" class="node">
<title>Node23</title>
<g id="a_Node000023"><a xlink:href="class_glpi_1_1_system_1_1_status_1_1_status_checker.html#a6509059696c6d30daaca4225ee74b9ef" target="_top" xlink:title=" ">
<polygon fill="white" stroke="#666666" points="481.12,-671.88 336.12,-671.88 336.12,-641.38 481.12,-641.38 481.12,-671.88"/>
<text text-anchor="start" x="344.12" y="-658.38" font-family="Helvetica,sans-Serif" font-size="10.00">Glpi\System\Status</text>
<text text-anchor="middle" x="408.62" y="-647.12" font-family="Helvetica,sans-Serif" font-size="10.00">\StatusChecker\getFullStatus</text>
</a>
</g>
</g>
<!-- Node1&#45;&gt;Node23 -->
<g id="edge23_Node000001_Node000023" class="edge">
<title>Node1&#45;&gt;Node23</title>
<g id="a_edge23_Node000001_Node000023"><a xlink:title=" ">
<path fill="none" stroke="#63b8ff" d="M539.86,-715.27C527.08,-704.02 509.18,-689.8 491.25,-680.62 485.2,-677.53 478.69,-674.77 472.08,-672.33"/>
<polygon fill="#63b8ff" stroke="#63b8ff" points="537.31,-717.68 547.07,-721.81 542.01,-712.5 537.31,-717.68"/>
</a>
</g>
</g>
<!-- Node24 -->
<g id="Node000024" class="node">
<title>Node24</title>
<g id="a_Node000024"><a xlink:href="class_toolbox.html#a2d038703f4106fcd356a15d88f98fc31" target="_top" xlink:title=" ">
<polygon fill="white" stroke="#666666" points="455.62,-623.25 361.62,-623.25 361.62,-604 455.62,-604 455.62,-623.25"/>
<text text-anchor="middle" x="408.62" y="-609.75" font-family="Helvetica,sans-Serif" font-size="10.00">getHtmlToDisplay</text>
</a>
</g>
</g>
<!-- Node1&#45;&gt;Node24 -->
<g id="edge24_Node000001_Node000024" class="edge">
<title>Node1&#45;&gt;Node24</title>
<g id="a_edge24_Node000001_Node000024"><a xlink:title=" ">
<path fill="none" stroke="#63b8ff" d="M550.12,-712.24C539.89,-689.27 520.08,-652.54 491.25,-632.62 480.84,-625.43 468.07,-620.93 455.76,-618.13"/>
<polygon fill="#63b8ff" stroke="#63b8ff" points="546.78,-713.32 553.9,-721.16 553.22,-710.59 546.78,-713.32"/>
</a>
</g>
</g>
<!-- Node25 -->
<g id="Node000025" class="node">
<title>Node25</title>
<g id="a_Node000025"><a xlink:href="class_g_l_p_i.html#a0402831500bc33566403caea76c5b47a" target="_top" xlink:title=" ">
<polygon fill="white" stroke="#666666" points="455.62,-586.25 361.62,-586.25 361.62,-567 455.62,-567 455.62,-586.25"/>
<text text-anchor="middle" x="408.62" y="-572.75" font-family="Helvetica,sans-Serif" font-size="10.00">GLPI\getLogLevel</text>
</a>
</g>
</g>
<!-- Node1&#45;&gt;Node25 -->
<g id="edge25_Node000001_Node000025" class="edge">
<title>Node1&#45;&gt;Node25</title>
<g id="a_edge25_Node000001_Node000025"><a xlink:title=" ">
<path fill="none" stroke="#63b8ff" d="M554.12,-711.75C546.93,-681.14 529.11,-624.49 491.25,-594.62 481.22,-586.72 468.45,-582.12 455.99,-579.49"/>
<polygon fill="#63b8ff" stroke="#63b8ff" points="550.65,-712.27 556.19,-721.3 557.49,-710.78 550.65,-712.27"/>
</a>
</g>
</g>
<!-- Node26 -->
<g id="Node000026" class="node">
<title>Node26</title>
<g id="a_Node000026"><a xlink:href="class_auth_l_d_a_p.html#ad9817dc66a9ae853e22aeb98faf20c82" target="_top" xlink:title=" ">
<polygon fill="white" stroke="#666666" points="474.75,-549.25 342.5,-549.25 342.5,-530 474.75,-530 474.75,-549.25"/>
<text text-anchor="middle" x="408.62" y="-535.75" font-family="Helvetica,sans-Serif" font-size="10.00">AuthLDAP\getObjectByDn</text>
</a>
</g>
</g>
<!-- Node1&#45;&gt;Node26 -->
<g id="edge26_Node000001_Node000026" class="edge">
<title>Node1&#45;&gt;Node26</title>
<g id="a_edge26_Node000001_Node000026"><a xlink:title=" ">
<path fill="none" stroke="#63b8ff" d="M556.5,-711.56C552.25,-674.53 537.99,-597.89 491.25,-557.62 486.41,-553.46 480.83,-550.19 474.89,-547.64"/>
<polygon fill="#63b8ff" stroke="#63b8ff" points="553,-711.77 557.47,-721.38 559.97,-711.08 553,-711.77"/>
</a>
</g>
</g>
<!-- Node27 -->
<g id="Node000027" class="node">
<title>Node27</title>
<g id="a_Node000027"><a xlink:href="class_common_i_t_i_l_object.html#a6380a1a86ca6891dab61cba770a319e1" target="_top" xlink:title=" ">
<polygon fill="white" stroke="#666666" points="486,-511.88 331.25,-511.88 331.25,-481.38 486,-481.38 486,-511.88"/>
<text text-anchor="start" x="339.25" y="-498.38" font-family="Helvetica,sans-Serif" font-size="10.00">CommonITILObject\getTimeline</text>
<text text-anchor="middle" x="408.62" y="-487.12" font-family="Helvetica,sans-Serif" font-size="10.00">Items</text>
</a>
</g>
</g>
<!-- Node1&#45;&gt;Node27 -->
<g id="edge27_Node000001_Node000027" class="edge">
<title>Node1&#45;&gt;Node27</title>
<g id="a_edge27_Node000001_Node000027"><a xlink:title=" ">
<path fill="none" stroke="#63b8ff" d="M557.8,-711.12C555.73,-668.59 544.96,-573.27 491.25,-520.62 487.98,-517.42 484.3,-514.64 480.37,-512.23"/>
<polygon fill="#63b8ff" stroke="#63b8ff" points="554.3,-711.14 558.15,-721.01 561.3,-710.89 554.3,-711.14"/>
</a>
</g>
</g>
<!-- Node34 -->
<g id="Node000034" class="node">
<title>Node34</title>
<g id="a_Node000034"><a xlink:href="class_auth_l_d_a_p.html#a4c93fd436c58e80768b07e691648908f" target="_top" xlink:title=" ">
<polygon fill="white" stroke="#666666" points="471,-463.25 346.25,-463.25 346.25,-444 471,-444 471,-463.25"/>
<text text-anchor="middle" x="408.62" y="-449.75" font-family="Helvetica,sans-Serif" font-size="10.00">AuthLDAP\getUserByDn</text>
</a>
</g>
</g>
<!-- Node1&#45;&gt;Node34 -->
<g id="edge34_Node000001_Node000034" class="edge">
<title>Node1&#45;&gt;Node34</title>
<g id="a_edge34_Node000001_Node000034"><a xlink:title=" ">
<path fill="none" stroke="#63b8ff" d="M555.61,-711.31C548.24,-655.36 525.74,-506.32 491.25,-472.62 485.63,-467.13 478.75,-463.12 471.39,-460.19"/>
<polygon fill="#63b8ff" stroke="#63b8ff" points="552.12,-711.61 556.86,-721.09 559.06,-710.72 552.12,-711.61"/>
</a>
</g>
</g>
<!-- Node35 -->
<g id="Node000035" class="node">
<title>Node35</title>
<g id="a_Node000035"><a xlink:href="autoload_8function_8php.html#ad9076177351f4336de1e91b5c6789e40" target="_top" xlink:title=" ">
<polygon fill="white" stroke="#666666" points="445.12,-426.25 372.12,-426.25 372.12,-407 445.12,-407 445.12,-426.25"/>
<text text-anchor="middle" x="408.62" y="-412.75" font-family="Helvetica,sans-Serif" font-size="10.00">glpi_autoload</text>
</a>
</g>
</g>
<!-- Node1&#45;&gt;Node35 -->
<g id="edge35_Node000001_Node000035" class="edge">
<title>Node1&#45;&gt;Node35</title>
<g id="a_edge35_Node000001_Node000035"><a xlink:title=" ">
<path fill="none" stroke="#63b8ff" d="M556.4,-711.48C550.61,-650.15 530.8,-474.01 491.25,-434.62 479.32,-422.75 461.45,-417.94 445.46,-416.23"/>
<polygon fill="#63b8ff" stroke="#63b8ff" points="552.9,-711.59 557.29,-721.23 559.87,-710.96 552.9,-711.59"/>
</a>
</g>
</g>
<!-- Node36 -->
<g id="Node000036" class="node">
<title>Node36</title>
<g id="a_Node000036"><a xlink:href="class_mail_collector.html#af5ca575eac95900350fd1f89cb117778" target="_top" xlink:title="return supported encodings in lowercase.">
<polygon fill="white" stroke="#666666" points="475.88,-389.25 341.38,-389.25 341.38,-370 475.88,-370 475.88,-389.25"/>
<text text-anchor="middle" x="408.62" y="-375.75" font-family="Helvetica,sans-Serif" font-size="10.00">MailCollector\listEncodings</text>
</a>
</g>
</g>
<!-- Node1&#45;&gt;Node36 -->
<g id="edge36_Node000001_Node000036" class="edge">
<title>Node1&#45;&gt;Node36</title>
<g id="a_edge36_Node000001_Node000036"><a xlink:title=" ">
<path fill="none" stroke="#63b8ff" d="M556.95,-711.09C552.46,-644.33 535.44,-442.69 491.25,-397.62 486.88,-393.17 481.68,-389.7 476.04,-387.02"/>
<polygon fill="#63b8ff" stroke="#63b8ff" points="553.45,-711.29 557.58,-721.04 560.44,-710.84 553.45,-711.29"/>
</a>
</g>
</g>
<!-- Node37 -->
<g id="Node000037" class="node">
<title>Node37</title>
<g id="a_Node000037"><a xlink:href="class_toolbox.html#af402d5237e60810d1f5c451f2a688a64" target="_top" xlink:title=" ">
<polygon fill="white" stroke="#666666" points="433.5,-352.25 383.75,-352.25 383.75,-333 433.5,-333 433.5,-352.25"/>
<text text-anchor="middle" x="408.62" y="-338.75" font-family="Helvetica,sans-Serif" font-size="10.00">logError</text>
</a>
</g>
</g>
<!-- Node1&#45;&gt;Node37 -->
<g id="edge37_Node000001_Node000037" class="edge">
<title>Node1&#45;&gt;Node37</title>
<g id="a_edge37_Node000001_Node000037"><a xlink:title=" ">
<path fill="none" stroke="#63b8ff" d="M557.41,-711.08C554.19,-639.53 540.18,-411.49 491.25,-360.62 476.56,-345.36 452.08,-341.65 433.75,-341.28"/>
<polygon fill="#63b8ff" stroke="#63b8ff" points="553.91,-711.18 557.83,-721.03 560.91,-710.89 553.91,-711.18"/>
</a>
</g>
</g>
<!-- Node38 -->
<g id="Node000038" class="node">
<title>Node38</title>
<g id="a_Node000038"><a xlink:href="class_toolbox.html#ab291f8a584f12e4c251e5cdc5e91b7f5" target="_top" xlink:title=" ">
<polygon fill="white" stroke="#666666" points="437.25,-315.25 380,-315.25 380,-296 437.25,-296 437.25,-315.25"/>
<text text-anchor="middle" x="408.62" y="-301.75" font-family="Helvetica,sans-Serif" font-size="10.00">logNotice</text>
</a>
</g>
</g>
<!-- Node1&#45;&gt;Node38 -->
<g id="edge38_Node000001_Node000038" class="edge">
<title>Node1&#45;&gt;Node38</title>
<g id="a_edge38_Node000001_Node000038"><a xlink:title=" ">
<path fill="none" stroke="#63b8ff" d="M557.81,-711.43C555.79,-635.76 545.03,-380.43 491.25,-323.62 477.68,-309.29 455.49,-305.11 437.67,-304.34"/>
<polygon fill="#63b8ff" stroke="#63b8ff" points="554.3,-711.26 558.04,-721.17 561.3,-711.09 554.3,-711.26"/>
</a>
</g>
</g>
<!-- Node39 -->
<g id="Node000039" class="node">
<title>Node39</title>
<g id="a_Node000039"><a xlink:href="class_toolbox.html#abdc21bf30103dc3409491aed5fb986ae" target="_top" xlink:title=" ">
<polygon fill="white" stroke="#666666" points="440.62,-278.25 376.62,-278.25 376.62,-259 440.62,-259 440.62,-278.25"/>
<text text-anchor="middle" x="408.62" y="-264.75" font-family="Helvetica,sans-Serif" font-size="10.00">logWarning</text>
</a>
</g>
</g>
<!-- Node1&#45;&gt;Node39 -->
<g id="edge39_Node000001_Node000039" class="edge">
<title>Node1&#45;&gt;Node39</title>
<g id="a_edge39_Node000001_Node000039"><a xlink:title=" ">
<path fill="none" stroke="#63b8ff" d="M558.12,-711.09C557.19,-630.66 549.73,-349.22 491.25,-286.62 478.57,-273.05 458.16,-268.55 440.93,-267.45"/>
<polygon fill="#63b8ff" stroke="#63b8ff" points="554.62,-711.1 558.21,-721.07 561.62,-711.04 554.62,-711.1"/>
</a>
</g>
</g>
<!-- Node40 -->
<g id="Node000040" class="node">
<title>Node40</title>
<g id="a_Node000040"><a xlink:href="class_d_bmysql.html#ac9fddec3f6bd1db128887a1b211d90f0" target="_top" xlink:title=" ">
<polygon fill="white" stroke="#666666" points="450.38,-241.25 366.88,-241.25 366.88,-222 450.38,-222 450.38,-241.25"/>
<text text-anchor="middle" x="408.62" y="-227.75" font-family="Helvetica,sans-Serif" font-size="10.00">DBmysql\query</text>
</a>
</g>
</g>
<!-- Node1&#45;&gt;Node40 -->
<g id="edge40_Node000001_Node000040" class="edge">
<title>Node1&#45;&gt;Node40</title>
<g id="a_edge40_Node000001_Node000040"><a xlink:title=" ">
<path fill="none" stroke="#63b8ff" d="M558.4,-711.23C558.52,-626.82 554.57,-318.17 491.25,-249.62 480.91,-238.43 465.32,-233.39 450.53,-231.34"/>
<polygon fill="#63b8ff" stroke="#63b8ff" points="554.9,-711.06 558.36,-721.07 561.9,-711.09 554.9,-711.06"/>
</a>
</g>
</g>
<!-- Node41 -->
<g id="Node000041" class="node">
<title>Node41</title>
<g id="a_Node000041"><a xlink:href="class_d_bmysql.html#aa94454ef6b04d177f048a7031147f659" target="_top" xlink:title=" ">
<polygon fill="white" stroke="#666666" points="463.12,-204.25 354.12,-204.25 354.12,-185 463.12,-185 463.12,-204.25"/>
<text text-anchor="middle" x="408.62" y="-190.75" font-family="Helvetica,sans-Serif" font-size="10.00">DBmysql\queryOrDie</text>
</a>
</g>
</g>
<!-- Node1&#45;&gt;Node41 -->
<g id="edge41_Node000001_Node000041" class="edge">
<title>Node1&#45;&gt;Node41</title>
<g id="a_edge41_Node000001_Node000041"><a xlink:title=" ">
<path fill="none" stroke="#63b8ff" d="M558.63,-711.31C559.75,-623.02 559.4,-287.12 491.25,-212.62 483.9,-204.59 473.86,-199.72 463.32,-196.85"/>
<polygon fill="#63b8ff" stroke="#63b8ff" points="555.13,-711.12 558.48,-721.17 562.13,-711.22 555.13,-711.12"/>
</a>
</g>
</g>
<!-- Node42 -->
<g id="Node000042" class="node">
<title>Node42</title>
<g id="a_Node000042"><a xlink:href="class_s_l_m.html#afabaecb42b33dcf2265772e7d36648e5" target="_top" xlink:title=" ">
<polygon fill="white" stroke="#666666" points="468,-167.25 349.25,-167.25 349.25,-148 468,-148 468,-167.25"/>
<text text-anchor="middle" x="408.62" y="-153.75" font-family="Helvetica,sans-Serif" font-size="10.00">SLM\setTicketCalendar</text>
</a>
</g>
</g>
<!-- Node1&#45;&gt;Node42 -->
<g id="edge42_Node000001_Node000042" class="edge">
<title>Node1&#45;&gt;Node42</title>
<g id="a_edge42_Node000001_Node000042"><a xlink:title=" ">
<path fill="none" stroke="#63b8ff" d="M557.14,-711.46C551.85,-614.56 528.01,-216.14 491.25,-175.62 485.11,-168.85 477.05,-164.32 468.38,-161.35"/>
<polygon fill="#63b8ff" stroke="#63b8ff" points="553.64,-711.54 557.67,-721.34 560.63,-711.17 553.64,-711.54"/>
</a>
</g>
</g>
<!-- Node43 -->
<g id="Node000043" class="node">
<title>Node43</title>
<g id="a_Node000043"><a xlink:href="class_r_s_s_feed.html#a5f4a66775dd8222a7cd9d3ce4618313d" target="_top" xlink:title=" ">
<polygon fill="white" stroke="#666666" points="489.38,-130.25 327.88,-130.25 327.88,-111 489.38,-111 489.38,-130.25"/>
<text text-anchor="middle" x="408.62" y="-116.75" font-family="Helvetica,sans-Serif" font-size="10.00">RSSFeed\showDiscoveredFeeds</text>
</a>
</g>
</g>
<!-- Node1&#45;&gt;Node43 -->
<g id="edge43_Node000001_Node000043" class="edge">
<title>Node1&#45;&gt;Node43</title>
<g id="a_edge43_Node000001_Node000043"><a xlink:title=" ">
<path fill="none" stroke="#63b8ff" d="M557.3,-711.34C552.59,-610.3 530.42,-182.12 491.25,-138.62 488.43,-135.5 485.21,-132.85 481.7,-130.61"/>
<polygon fill="#63b8ff" stroke="#63b8ff" points="553.79,-711.34 557.75,-721.17 560.79,-711.02 553.79,-711.34"/>
</a>
</g>
</g>
<!-- Node44 -->
<g id="Node000044" class="node">
<title>Node44</title>
<g id="a_Node000044"><a xlink:href="class_toolbox.html#a0791e8f1153e3bf193c797f072a734f6" target="_top" xlink:title=" ">
<polygon fill="white" stroke="#666666" points="449.62,-93.25 367.62,-93.25 367.62,-74 449.62,-74 449.62,-93.25"/>
<text text-anchor="middle" x="408.62" y="-79.75" font-family="Helvetica,sans-Serif" font-size="10.00">sodiumDecrypt</text>
</a>
</g>
</g>
<!-- Node1&#45;&gt;Node44 -->
<g id="edge44_Node000001_Node000044" class="edge">
<title>Node1&#45;&gt;Node44</title>
<g id="a_edge44_Node000001_Node000044"><a xlink:title=" ">
<path fill="none" stroke="#63b8ff" d="M557.45,-711.34C553.29,-606.5 532.85,-148.13 491.25,-101.62 480.9,-90.05 464.94,-85.01 449.87,-83.06"/>
<polygon fill="#63b8ff" stroke="#63b8ff" points="553.94,-711.19 557.82,-721.05 560.93,-710.92 553.94,-711.19"/>
</a>
</g>
</g>
<!-- Node45 -->
<g id="Node000045" class="node">
<title>Node45</title>
<g id="a_Node000045"><a xlink:href="class_toolbox.html#a6be0023ed2a7bec2a3eb13420492ce7d" target="_top" xlink:title=" ">
<polygon fill="white" stroke="#666666" points="449.25,-56.25 368,-56.25 368,-37 449.25,-37 449.25,-56.25"/>
<text text-anchor="middle" x="408.62" y="-42.75" font-family="Helvetica,sans-Serif" font-size="10.00">sodiumEncrypt</text>
</a>
</g>
</g>
<!-- Node1&#45;&gt;Node45 -->
<g id="edge45_Node000001_Node000045" class="edge">
<title>Node1&#45;&gt;Node45</title>
<g id="a_edge45_Node000001_Node000045"><a xlink:title=" ">
<path fill="none" stroke="#63b8ff" d="M557.58,-711.48C553.97,-603.21 535.3,-114.16 491.25,-64.62 480.84,-52.91 464.68,-47.88 449.48,-45.97"/>
<polygon fill="#63b8ff" stroke="#63b8ff" points="554.08,-711.34 557.9,-721.22 561.07,-711.11 554.08,-711.34"/>
</a>
</g>
</g>
<!-- Node46 -->
<g id="Node000046" class="node">
<title>Node46</title>
<g id="a_Node000046"><a xlink:href="class_toolbox.html#ae68a2ebfff5bb00e895fd85b642f303e" target="_top" xlink:title=" ">
<polygon fill="white" stroke="#666666" points="439.12,-19.25 378.12,-19.25 378.12,0 439.12,0 439.12,-19.25"/>
<text text-anchor="middle" x="408.62" y="-5.75" font-family="Helvetica,sans-Serif" font-size="10.00">startsWith</text>
</a>
</g>
</g>
<!-- Node1&#45;&gt;Node46 -->
<g id="edge46_Node000001_Node000046" class="edge">
<title>Node1&#45;&gt;Node46</title>
<g id="a_edge46_Node000001_Node000046"><a xlink:title=" ">
<path fill="none" stroke="#63b8ff" d="M557.7,-711.37C554.58,-599.3 537.73,-80.16 491.25,-27.62 478.56,-13.28 457.25,-8.94 439.59,-8.1"/>
<polygon fill="#63b8ff" stroke="#63b8ff" points="554.19,-711.3 557.96,-721.2 561.19,-711.11 554.19,-711.3"/>
</a>
</g>
</g>
<!-- Node13 -->
<g id="Node000013" class="node">
<title>Node13</title>
<g id="a_Node000013"><a xlink:href="class_d_bmysql_iterator.html#a7ebc5cefe4f353bdcc7adfe5e6d64b54" target="_top" xlink:title=" ">
<polygon fill="white" stroke="#666666" points="276.5,-1096.25 151.75,-1096.25 151.75,-1077 276.5,-1077 276.5,-1096.25"/>
<text text-anchor="middle" x="214.12" y="-1082.75" font-family="Helvetica,sans-Serif" font-size="10.00">DBmysqlIterator\execute</text>
</a>
</g>
</g>
<!-- Node12&#45;&gt;Node13 -->
<g id="edge12_Node000012_Node000013" class="edge">
<title>Node12&#45;&gt;Node13</title>
<g id="a_edge12_Node000012_Node000013"><a xlink:title=" ">
<path fill="none" stroke="#63b8ff" d="M328.57,-1086.62C311.34,-1086.62 293.36,-1086.62 276.92,-1086.62"/>
<polygon fill="#63b8ff" stroke="#63b8ff" points="328.24,-1090.13 338.24,-1086.63 328.24,-1083.13 328.24,-1090.13"/>
</a>
</g>
</g>
<!-- Node22&#45;&gt;Node22 -->
<g id="edge22_Node000022_Node000022" class="edge">
<title>Node22&#45;&gt;Node22</title>
<g id="a_edge22_Node000022_Node000022"><a xlink:title=" ">
<path fill="none" stroke="#63b8ff" d="M435.63,-720.32C432.52,-724.37 423.52,-727.25 408.62,-727.25 382.15,-727.25 374.29,-718.15 385.04,-709.54"/>
<polygon fill="#63b8ff" stroke="#63b8ff" points="439.03,-719.45 432.66,-710.98 432.36,-721.57 439.03,-719.45"/>
</a>
</g>
</g>
<!-- Node28 -->
<g id="Node000028" class="node">
<title>Node28</title>
<g id="a_Node000028"><a xlink:href="class_common_i_t_i_l_object.html#a93a8283336cdbc32abed8dd9cbbe2fc9" target="_top" xlink:title=" ">
<polygon fill="white" stroke="#666666" points="290,-554.88 138.25,-554.88 138.25,-524.38 290,-524.38 290,-554.88"/>
<text text-anchor="start" x="146.25" y="-541.38" font-family="Helvetica,sans-Serif" font-size="10.00">CommonITILObject\addDefault</text>
<text text-anchor="middle" x="214.12" y="-530.12" font-family="Helvetica,sans-Serif" font-size="10.00">FormTab</text>
</a>
</g>
</g>
<!-- Node27&#45;&gt;Node28 -->
<g id="edge28_Node000027_Node000028" class="edge">
<title>Node27&#45;&gt;Node28</title>
<g id="a_edge28_Node000027_Node000028"><a xlink:title=" ">
<path fill="none" stroke="#63b8ff" d="M326.1,-514.83C312.62,-517.85 298.75,-520.95 285.57,-523.89"/>
<polygon fill="#63b8ff" stroke="#63b8ff" points="326.84,-518.26 335.83,-512.66 325.31,-511.43 326.84,-518.26"/>
</a>
</g>
</g>
<!-- Node32 -->
<g id="Node000032" class="node">
<title>Node32</title>
<g id="a_Node000032"><a xlink:href="class_common_i_t_i_l_object.html#ad9ff7dc815340fcc80632e01c3acb287" target="_top" xlink:title=" ">
<polygon fill="white" stroke="#666666" points="289.25,-506.25 139,-506.25 139,-487 289.25,-487 289.25,-506.25"/>
<text text-anchor="middle" x="214.12" y="-492.75" font-family="Helvetica,sans-Serif" font-size="10.00">CommonITILObject\showForm</text>
</a>
</g>
</g>
<!-- Node27&#45;&gt;Node32 -->
<g id="edge32_Node000027_Node000032" class="edge">
<title>Node27&#45;&gt;Node32</title>
<g id="a_edge32_Node000027_Node000032"><a xlink:title=" ">
<path fill="none" stroke="#63b8ff" d="M319.71,-496.62C309.65,-496.62 299.47,-496.62 289.61,-496.62"/>
<polygon fill="#63b8ff" stroke="#63b8ff" points="319.48,-500.13 329.48,-496.63 319.48,-493.13 319.48,-500.13"/>
</a>
</g>
</g>
<!-- Node33 -->
<g id="Node000033" class="node">
<title>Node33</title>
<g id="a_Node000033"><a xlink:href="class_ticket.html#ad9ff7dc815340fcc80632e01c3acb287" target="_top" xlink:title=" ">
<polygon fill="white" stroke="#666666" points="260,-469.25 168.25,-469.25 168.25,-450 260,-450 260,-469.25"/>
<text text-anchor="middle" x="214.12" y="-455.75" font-family="Helvetica,sans-Serif" font-size="10.00">Ticket\showForm</text>
</a>
</g>
</g>
<!-- Node27&#45;&gt;Node33 -->
<g id="edge33_Node000027_Node000033" class="edge">
<title>Node27&#45;&gt;Node33</title>
<g id="a_edge33_Node000027_Node000033"><a xlink:title=" ">
<path fill="none" stroke="#63b8ff" d="M319.69,-479.72C299.2,-475.78 278.21,-471.75 260.46,-468.34"/>
<polygon fill="#63b8ff" stroke="#63b8ff" points="319.02,-483.16 329.5,-481.61 320.34,-476.28 319.02,-483.16"/>
</a>
</g>
</g>
<!-- Node29 -->
<g id="Node000029" class="node">
<title>Node29</title>
<g id="a_Node000029"><a xlink:href="class_change.html#ae5e0ec8c762b06578c493e9a6a34e5e4" target="_top" xlink:title=" ">
<polygon fill="white" stroke="#666666" points="101.12,-586.25 1.12,-586.25 1.12,-567 101.12,-567 101.12,-586.25"/>
<text text-anchor="middle" x="51.12" y="-572.75" font-family="Helvetica,sans-Serif" font-size="10.00">Change\defineTabs</text>
</a>
</g>
</g>
<!-- Node28&#45;&gt;Node29 -->
<g id="edge29_Node000028_Node000029" class="edge">
<title>Node28&#45;&gt;Node29</title>
<g id="a_edge29_Node000028_Node000029"><a xlink:title=" ">
<path fill="none" stroke="#63b8ff" d="M133.86,-557.84C120.74,-560.86 107.57,-563.88 95.76,-566.6"/>
<polygon fill="#63b8ff" stroke="#63b8ff" points="134.41,-561.31 143.37,-555.66 132.84,-554.48 134.41,-561.31"/>
</a>
</g>
</g>
<!-- Node30 -->
<g id="Node000030" class="node">
<title>Node30</title>
<g id="a_Node000030"><a xlink:href="class_problem.html#ae5e0ec8c762b06578c493e9a6a34e5e4" target="_top" xlink:title=" ">
<polygon fill="white" stroke="#666666" points="102.25,-549.25 0,-549.25 0,-530 102.25,-530 102.25,-549.25"/>
<text text-anchor="middle" x="51.12" y="-535.75" font-family="Helvetica,sans-Serif" font-size="10.00">Problem\defineTabs</text>
</a>
</g>
</g>
<!-- Node28&#45;&gt;Node30 -->
<g id="edge30_Node000028_Node000030" class="edge">
<title>Node28&#45;&gt;Node30</title>
<g id="a_edge30_Node000028_Node000030"><a xlink:title=" ">
<path fill="none" stroke="#63b8ff" d="M126.32,-539.62C118.2,-539.62 110.17,-539.62 102.56,-539.62"/>
<polygon fill="#63b8ff" stroke="#63b8ff" points="126.3,-543.13 136.3,-539.63 126.3,-536.13 126.3,-543.13"/>
</a>
</g>
</g>
<!-- Node31 -->
<g id="Node000031" class="node">
<title>Node31</title>
<g id="a_Node000031"><a xlink:href="class_ticket.html#ae5e0ec8c762b06578c493e9a6a34e5e4" target="_top" xlink:title=" ">
<polygon fill="white" stroke="#666666" points="97.75,-512.25 4.5,-512.25 4.5,-493 97.75,-493 97.75,-512.25"/>
<text text-anchor="middle" x="51.12" y="-498.75" font-family="Helvetica,sans-Serif" font-size="10.00">Ticket\defineTabs</text>
</a>
</g>
</g>
<!-- Node28&#45;&gt;Node31 -->
<g id="edge31_Node000028_Node000031" class="edge">
<title>Node28&#45;&gt;Node31</title>
<g id="a_edge31_Node000028_Node000031"><a xlink:title=" ">
<path fill="none" stroke="#63b8ff" d="M133.86,-521.41C120.74,-518.39 107.57,-515.37 95.76,-512.65"/>
<polygon fill="#63b8ff" stroke="#63b8ff" points="132.84,-524.77 143.37,-523.59 134.41,-517.94 132.84,-524.77"/>
</a>
</g>
</g>
</g>
</svg>

<g id="navigator" transform="translate(0 0)" fill="#404254">
  <rect fill="#f2f5e9" fill-opacity="0.5" stroke="#606060" stroke-width=".5" x="0" y="0" width="60" height="60"/>
  <use id="zoomplus" xlink:href="#zoomPlus" x="17" y="9" onmousedown="handleZoom(evt,'in')"/>
  <use id="zoomminus" xlink:href="#zoomMin" x="42" y="9" onmousedown="handleZoom(evt,'out')"/>
  <use id="reset" xlink:href="#resetDef" x="30" y="36" onmousedown="handleReset()"/>
   <use id="arrowup" xlink:href="#arrowUp" x="0" y="0" onmousedown="handlePan(0,-1)"/>
  <use id="arrowright" xlink:href="#arrowRight" x="0" y="0" onmousedown="handlePan(1,0)"/>
  <use id="arrowdown" xlink:href="#arrowDown" x="0" y="0" onmousedown="handlePan(0,1)"/>
  <use id="arrowleft" xlink:href="#arrowLeft" x="0" y="0" onmousedown="handlePan(-1,0)"/>
</g>
<svg viewBox="0 0 15 15" width="100%" height="30px" preserveAspectRatio="xMaxYMin meet">
 <g id="arrow_out" transform="scale(0.3 0.3)">
  <a xlink:href="class_toolbox_a2d970c2444920f6cb87bbc716732bab1_icgraph_org.svg" target="_base">
   <rect id="button" ry="5" rx="5" y="6" x="6" height="38" width="38"
        fill="#f2f5e9" fill-opacity="0.5" stroke="#606060" stroke-width="1.0"/>
   <path id="arrow"
     d="M 11.500037,31.436501 C 11.940474,20.09759 22.043105,11.32322 32.158766,21.979434 L 37.068811,17.246167 C 37.068811,17.246167 37.088388,32 37.088388,32 L 22.160133,31.978069 C 22.160133,31.978069 26.997745,27.140456 26.997745,27.140456 C 18.528582,18.264221 13.291696,25.230495 11.500037,31.436501 z"
     style="fill:#404040;"/>
  </a>
 </g>
</svg>

<style type='text/css'>
<![CDATA[
[data-mouse-over-selected='false'] { opacity: 0.7; }
[data-mouse-over-selected='true']  { opacity: 1.0; }
]]>
</style>
<script type="application/ecmascript"><![CDATA[
document.addEventListener('DOMContentLoaded', (event) => {
  highlightEdges();
  highlightAdjacentNodes();
});
]]></script>
</svg>
