<?xml version="1.0" encoding="UTF-8" standalone="no"?>
<!DOCTYPE svg PUBLIC "-//W3C//DTD SVG 1.1//EN"
 "http://www.w3.org/Graphics/SVG/1.1/DTD/svg11.dtd">
<!-- Generated by graphviz version 10.0.1 (20240210.2158)
 -->
<!-- Title: __construct Pages: 1 -->
<svg width="366pt" height="88pt"
 viewBox="0.00 0.00 365.75 87.50" xmlns="http://www.w3.org/2000/svg" xmlns:xlink="http://www.w3.org/1999/xlink">
<g id="graph0" class="graph" transform="scale(1 1) rotate(0) translate(4 83.5)">
<title>__construct</title>
<!-- Node1 -->
<g id="Node000001" class="node">
<title>Node1</title>
<g id="a_Node000001"><a xlink:title=" ">
<polygon fill="#999999" stroke="#666666" points="67,-48.88 0,-48.88 0,-29.62 67,-29.62 67,-48.88"/>
<text text-anchor="middle" x="33.5" y="-35.38" font-family="Helvetica,sans-Serif" font-size="10.00">__construct</text>
</a>
</g>
</g>
<!-- Node2 -->
<g id="Node000002" class="node">
<title>Node2</title>
<g id="a_Node000002"><a xlink:href="class_laminas_1_1_mail_1_1_header_1_1_generic_header.html#ae63830fbc86882e56f80f10ff378d112" target="_top" xlink:title=" ">
<polygon fill="white" stroke="#666666" points="179.75,-70.88 103,-70.88 103,-51.62 179.75,-51.62 179.75,-70.88"/>
<text text-anchor="middle" x="141.38" y="-57.38" font-family="Helvetica,sans-Serif" font-size="10.00">setFieldName</text>
</a>
</g>
</g>
<!-- Node1&#45;&gt;Node2 -->
<g id="edge1_Node000001_Node000002" class="edge">
<title>Node1&#45;&gt;Node2</title>
<g id="a_edge1_Node000001_Node000002"><a xlink:title=" ">
<path fill="none" stroke="#63b8ff" d="M67.42,-46.09C75.1,-47.69 83.44,-49.42 91.64,-51.12"/>
<polygon fill="#63b8ff" stroke="#63b8ff" points="90.68,-54.5 101.18,-53.11 92.1,-47.64 90.68,-54.5"/>
</a>
</g>
</g>
<!-- Node4 -->
<g id="Node000004" class="node">
<title>Node4</title>
<g id="a_Node000004"><a xlink:href="class_laminas_1_1_mail_1_1_header_1_1_generic_header.html#ad203646f547c413733d1ee5d840a02d4" target="_top" xlink:title=" ">
<polygon fill="white" stroke="#666666" points="178.62,-30.88 104.12,-30.88 104.12,-11.62 178.62,-11.62 178.62,-30.88"/>
<text text-anchor="middle" x="141.38" y="-17.38" font-family="Helvetica,sans-Serif" font-size="10.00">setFieldValue</text>
</a>
</g>
</g>
<!-- Node1&#45;&gt;Node4 -->
<g id="edge3_Node000001_Node000004" class="edge">
<title>Node1&#45;&gt;Node4</title>
<g id="a_edge3_Node000001_Node000004"><a xlink:title=" ">
<path fill="none" stroke="#63b8ff" d="M67.42,-33.65C75.35,-32.31 83.98,-30.84 92.44,-29.4"/>
<polygon fill="#63b8ff" stroke="#63b8ff" points="93.02,-32.85 102.3,-27.72 91.85,-25.95 93.02,-32.85"/>
</a>
</g>
</g>
<!-- Node3 -->
<g id="Node000003" class="node">
<title>Node3</title>
<g id="a_Node000003"><a xlink:href="class_laminas_1_1_mail_1_1_header_1_1_header_name.html#a5d72c3ea082f8ee671437b5d3cc4bd94" target="_top" xlink:title=" ">
<polygon fill="white" stroke="#666666" points="340.88,-79.5 232.62,-79.5 232.62,-49 340.88,-49 340.88,-79.5"/>
<text text-anchor="start" x="240.62" y="-66" font-family="Helvetica,sans-Serif" font-size="10.00">Laminas\Mail\Header</text>
<text text-anchor="middle" x="286.75" y="-54.75" font-family="Helvetica,sans-Serif" font-size="10.00">\HeaderName\isValid</text>
</a>
</g>
</g>
<!-- Node2&#45;&gt;Node3 -->
<g id="edge2_Node000002_Node000003" class="edge">
<title>Node2&#45;&gt;Node3</title>
<g id="a_edge2_Node000002_Node000003"><a xlink:title=" ">
<path fill="none" stroke="#63b8ff" d="M180.05,-62.04C192.61,-62.3 207,-62.6 221.03,-62.9"/>
<polygon fill="#63b8ff" stroke="#63b8ff" points="220.57,-66.39 230.65,-63.1 220.72,-59.39 220.57,-66.39"/>
</a>
</g>
</g>
<!-- Node5 -->
<g id="Node000005" class="node">
<title>Node5</title>
<g id="a_Node000005"><a xlink:href="class_laminas_1_1_mail_1_1_header_1_1_header_wrap.html#a17503acf5aa0826bc430e78a29c301bb" target="_top" xlink:title=" ">
<polygon fill="white" stroke="#666666" points="357.75,-30.5 215.75,-30.5 215.75,0 357.75,0 357.75,-30.5"/>
<text text-anchor="start" x="223.75" y="-17" font-family="Helvetica,sans-Serif" font-size="10.00">Laminas\Mail\Header</text>
<text text-anchor="middle" x="286.75" y="-5.75" font-family="Helvetica,sans-Serif" font-size="10.00">\HeaderWrap\canBeEncoded</text>
</a>
</g>
</g>
<!-- Node4&#45;&gt;Node5 -->
<g id="edge4_Node000004_Node000005" class="edge">
<title>Node4&#45;&gt;Node5</title>
<g id="a_edge4_Node000004_Node000005"><a xlink:title=" ">
<path fill="none" stroke="#63b8ff" d="M178.93,-19.72C186.8,-19.39 195.43,-19.03 204.26,-18.66"/>
<polygon fill="#63b8ff" stroke="#63b8ff" points="204.15,-22.17 213.99,-18.25 203.86,-15.17 204.15,-22.17"/>
</a>
</g>
</g>
</g>
</svg>
