<?xml version="1.0" encoding="UTF-8" standalone="no"?>
<!DOCTYPE svg PUBLIC "-//W3C//DTD SVG 1.1//EN"
 "http://www.w3.org/Graphics/SVG/1.1/DTD/svg11.dtd">
<!-- Generated by graphviz version 10.0.1 (20240210.2158)
 -->
<!-- Title: formatUserName Pages: 1 -->
<svg width="677pt" height="263pt"
 viewBox="0.00 0.00 676.50 263.25" xmlns="http://www.w3.org/2000/svg" xmlns:xlink="http://www.w3.org/1999/xlink">
<g id="graph0" class="graph" transform="scale(1 1) rotate(0) translate(4 259.25)">
<title>formatUserName</title>
<!-- Node1 -->
<g id="Node000001" class="node">
<title>Node1</title>
<g id="a_Node000001"><a xlink:title=" ">
<polygon fill="#999999" stroke="#666666" points="668.5,-126.25 577.5,-126.25 577.5,-107 668.5,-107 668.5,-126.25"/>
<text text-anchor="middle" x="623" y="-112.75" font-family="Helvetica,sans-Serif" font-size="10.00">formatUserName</text>
</a>
</g>
</g>
<!-- Node2 -->
<g id="Node000002" class="node">
<title>Node2</title>
<g id="a_Node000002"><a xlink:href="class_contact.html#a29827f6c6205287c29e2f620559a5b25" target="_top" xlink:title=" ">
<polygon fill="white" stroke="#666666" points="541.12,-240.25 389.38,-240.25 389.38,-221 541.12,-221 541.12,-240.25"/>
<text text-anchor="middle" x="465.25" y="-226.75" font-family="Helvetica,sans-Serif" font-size="10.00">Contact\computeFriendlyName</text>
</a>
</g>
</g>
<!-- Node1&#45;&gt;Node2 -->
<g id="edge1_Node000001_Node000002" class="edge">
<title>Node1&#45;&gt;Node2</title>
<g id="a_edge1_Node000001_Node000002"><a xlink:title=" ">
<path fill="none" stroke="#63b8ff" d="M610.43,-136.57C596.75,-158.35 571.94,-192.64 541.5,-211.62 535.67,-215.26 529.17,-218.2 522.51,-220.58"/>
<polygon fill="#63b8ff" stroke="#63b8ff" points="613.41,-138.4 615.6,-128.03 607.42,-134.77 613.41,-138.4"/>
</a>
</g>
</g>
<!-- Node3 -->
<g id="Node000003" class="node">
<title>Node3</title>
<g id="a_Node000003"><a xlink:href="class_common_i_t_i_l_object.html#a82d3e41d211b2a8114a8d3f31e23c1a5" target="_top" xlink:title=" ">
<polygon fill="white" stroke="#666666" points="538.5,-202.88 392,-202.88 392,-172.38 538.5,-172.38 538.5,-202.88"/>
<text text-anchor="start" x="400" y="-189.38" font-family="Helvetica,sans-Serif" font-size="10.00">CommonITILObject\getActors</text>
<text text-anchor="middle" x="465.25" y="-178.12" font-family="Helvetica,sans-Serif" font-size="10.00">ForType</text>
</a>
</g>
</g>
<!-- Node1&#45;&gt;Node3 -->
<g id="edge2_Node000001_Node000003" class="edge">
<title>Node1&#45;&gt;Node3</title>
<g id="a_edge2_Node000001_Node000003"><a xlink:title=" ">
<path fill="none" stroke="#63b8ff" d="M597.03,-132.61C581.46,-142.14 560.79,-154.01 541.5,-162.62 534.08,-165.94 526.09,-169.05 518.18,-171.88"/>
<polygon fill="#63b8ff" stroke="#63b8ff" points="598.52,-135.8 605.17,-127.55 594.83,-129.86 598.52,-135.8"/>
</a>
</g>
</g>
<!-- Node10 -->
<g id="Node000010" class="node">
<title>Node10</title>
<g id="a_Node000010"><a xlink:href="class_common_i_t_i_l_object.html#aaa7e0999165b7854e4b0b5ec5cc05208" target="_top" xlink:title=" ">
<polygon fill="white" stroke="#666666" points="541.5,-153.88 389,-153.88 389,-123.38 541.5,-123.38 541.5,-153.88"/>
<text text-anchor="start" x="397" y="-140.38" font-family="Helvetica,sans-Serif" font-size="10.00">CommonITILObject\getContent</text>
<text text-anchor="middle" x="465.25" y="-129.12" font-family="Helvetica,sans-Serif" font-size="10.00">TemplatesParametersClass</text>
</a>
</g>
</g>
<!-- Node1&#45;&gt;Node10 -->
<g id="edge9_Node000001_Node000010" class="edge">
<title>Node1&#45;&gt;Node10</title>
<g id="a_edge9_Node000001_Node000010"><a xlink:title=" ">
<path fill="none" stroke="#63b8ff" d="M566.08,-124.52C558.18,-125.64 549.96,-126.8 541.77,-127.96"/>
<polygon fill="#63b8ff" stroke="#63b8ff" points="566.46,-128.01 575.87,-123.14 565.48,-121.07 566.46,-128.01"/>
</a>
</g>
</g>
<!-- Node11 -->
<g id="Node000011" class="node">
<title>Node11</title>
<g id="a_Node000011"><a xlink:href="class_log.html#a482e60ffdd5a6182ff3d7c72d8d98865" target="_top" xlink:title=" ">
<polygon fill="white" stroke="#666666" points="515.62,-105.25 414.88,-105.25 414.88,-86 515.62,-86 515.62,-105.25"/>
<text text-anchor="middle" x="465.25" y="-91.75" font-family="Helvetica,sans-Serif" font-size="10.00">Log\getHistoryData</text>
</a>
</g>
</g>
<!-- Node1&#45;&gt;Node11 -->
<g id="edge10_Node000001_Node000011" class="edge">
<title>Node1&#45;&gt;Node11</title>
<g id="a_edge10_Node000001_Node000011"><a xlink:title=" ">
<path fill="none" stroke="#63b8ff" d="M566.29,-109.11C549.9,-106.9 532.08,-104.5 516.09,-102.34"/>
<polygon fill="#63b8ff" stroke="#63b8ff" points="565.49,-112.54 575.87,-110.4 566.43,-105.6 565.49,-112.54"/>
</a>
</g>
</g>
<!-- Node12 -->
<g id="Node000012" class="node">
<title>Node12</title>
<g id="a_Node000012"><a xlink:href="class_notification_target_object_lock.html#a448557d1caa590a39b8a6ec144b59d94" target="_top" xlink:title=" ">
<polygon fill="white" stroke="#666666" points="525.75,-67.88 404.75,-67.88 404.75,-37.38 525.75,-37.38 525.75,-67.88"/>
<text text-anchor="start" x="412.75" y="-54.38" font-family="Helvetica,sans-Serif" font-size="10.00">NotificationTargetObject</text>
<text text-anchor="middle" x="465.25" y="-43.12" font-family="Helvetica,sans-Serif" font-size="10.00">Lock\getSender</text>
</a>
</g>
</g>
<!-- Node1&#45;&gt;Node12 -->
<g id="edge11_Node000001_Node000012" class="edge">
<title>Node1&#45;&gt;Node12</title>
<g id="a_edge11_Node000001_Node000012"><a xlink:title=" ">
<path fill="none" stroke="#63b8ff" d="M593.98,-101.39C578.73,-93.43 559.36,-83.86 541.5,-76.62 534.26,-73.69 526.51,-70.87 518.84,-68.26"/>
<polygon fill="#63b8ff" stroke="#63b8ff" points="592.01,-104.3 602.49,-105.89 595.28,-98.12 592.01,-104.3"/>
</a>
</g>
</g>
<!-- Node14 -->
<g id="Node000014" class="node">
<title>Node14</title>
<g id="a_Node000014"><a xlink:href="class_notepad.html#a4e3be38eb1aed7560f3d340c8de3d98c" target="_top" xlink:title=" ">
<polygon fill="white" stroke="#666666" points="521.62,-19.25 408.88,-19.25 408.88,0 521.62,0 521.62,-19.25"/>
<text text-anchor="middle" x="465.25" y="-5.75" font-family="Helvetica,sans-Serif" font-size="10.00">Notepad\showForItem</text>
</a>
</g>
</g>
<!-- Node1&#45;&gt;Node14 -->
<g id="edge13_Node000001_Node000014" class="edge">
<title>Node1&#45;&gt;Node14</title>
<g id="a_edge13_Node000001_Node000014"><a xlink:title=" ">
<path fill="none" stroke="#63b8ff" d="M609.45,-97.26C595.34,-77.07 570.56,-45.99 541.5,-28.62 535.49,-25.03 528.81,-22.11 521.99,-19.75"/>
<polygon fill="#63b8ff" stroke="#63b8ff" points="606.48,-99.12 614.97,-105.44 612.28,-95.2 606.48,-99.12"/>
</a>
</g>
</g>
<!-- Node4 -->
<g id="Node000004" class="node">
<title>Node4</title>
<g id="a_Node000004"><a xlink:href="class_common_i_t_i_l_object.html#adc9e85da71b721d44d3694d195e08d35" target="_top" xlink:title=" ">
<polygon fill="white" stroke="#666666" points="344.75,-223.88 199,-223.88 199,-193.38 344.75,-193.38 344.75,-223.88"/>
<text text-anchor="start" x="207" y="-210.38" font-family="Helvetica,sans-Serif" font-size="10.00">CommonITILObject\transform</text>
<text text-anchor="middle" x="271.88" y="-199.12" font-family="Helvetica,sans-Serif" font-size="10.00">ActorsInput</text>
</a>
</g>
</g>
<!-- Node3&#45;&gt;Node4 -->
<g id="edge3_Node000003_Node000004" class="edge">
<title>Node3&#45;&gt;Node4</title>
<g id="a_edge3_Node000003_Node000004"><a xlink:title=" ">
<path fill="none" stroke="#63b8ff" d="M380.44,-196.82C368.67,-198.11 356.66,-199.43 345.13,-200.7"/>
<polygon fill="#63b8ff" stroke="#63b8ff" points="380.56,-200.33 390.12,-195.76 379.8,-193.37 380.56,-200.33"/>
</a>
</g>
</g>
<!-- Node7 -->
<g id="Node000007" class="node">
<title>Node7</title>
<g id="a_Node000007"><a xlink:href="class_common_i_t_i_l_object.html#ac01536f2487087fcf73f8ce3c0089847" target="_top" xlink:title=" ">
<polygon fill="white" stroke="#666666" points="353,-175.25 190.75,-175.25 190.75,-156 353,-156 353,-175.25"/>
<text text-anchor="middle" x="271.88" y="-161.75" font-family="Helvetica,sans-Serif" font-size="10.00">CommonITILObject\updateActors</text>
</a>
</g>
</g>
<!-- Node3&#45;&gt;Node7 -->
<g id="edge6_Node000003_Node000007" class="edge">
<title>Node3&#45;&gt;Node7</title>
<g id="a_edge6_Node000003_Node000007"><a xlink:title=" ">
<path fill="none" stroke="#63b8ff" d="M380.39,-177.98C371.44,-176.96 362.35,-175.91 353.44,-174.89"/>
<polygon fill="#63b8ff" stroke="#63b8ff" points="379.79,-181.44 390.12,-179.1 380.59,-174.48 379.79,-181.44"/>
</a>
</g>
</g>
<!-- Node5 -->
<g id="Node000005" class="node">
<title>Node5</title>
<g id="a_Node000005"><a xlink:href="class_change.html#a8514339160707e9b58a5b00109ac1421" target="_top" xlink:title=" ">
<polygon fill="white" stroke="#666666" points="153.62,-255.25 1.12,-255.25 1.12,-236 153.62,-236 153.62,-255.25"/>
<text text-anchor="middle" x="77.38" y="-241.75" font-family="Helvetica,sans-Serif" font-size="10.00">Change\prepareInputForUpdate</text>
</a>
</g>
</g>
<!-- Node4&#45;&gt;Node5 -->
<g id="edge4_Node000004_Node000005" class="edge">
<title>Node4&#45;&gt;Node5</title>
<g id="a_edge4_Node000004_Node000005"><a xlink:title=" ">
<path fill="none" stroke="#63b8ff" d="M187.44,-224.66C168.23,-228.35 148.33,-232.18 130.86,-235.54"/>
<polygon fill="#63b8ff" stroke="#63b8ff" points="188,-228.12 197.16,-222.79 186.68,-221.24 188,-228.12"/>
</a>
</g>
</g>
<!-- Node6 -->
<g id="Node000006" class="node">
<title>Node6</title>
<g id="a_Node000006"><a xlink:href="class_problem.html#a8514339160707e9b58a5b00109ac1421" target="_top" xlink:title=" ">
<polygon fill="white" stroke="#666666" points="154.75,-218.25 0,-218.25 0,-199 154.75,-199 154.75,-218.25"/>
<text text-anchor="middle" x="77.38" y="-204.75" font-family="Helvetica,sans-Serif" font-size="10.00">Problem\prepareInputForUpdate</text>
</a>
</g>
</g>
<!-- Node4&#45;&gt;Node6 -->
<g id="edge5_Node000004_Node000006" class="edge">
<title>Node4&#45;&gt;Node6</title>
<g id="a_edge5_Node000004_Node000006"><a xlink:title=" ">
<path fill="none" stroke="#63b8ff" d="M187.21,-208.62C176.57,-208.62 165.72,-208.62 155.19,-208.62"/>
<polygon fill="#63b8ff" stroke="#63b8ff" points="187.13,-212.13 197.13,-208.63 187.13,-205.13 187.13,-212.13"/>
</a>
</g>
</g>
<!-- Node8 -->
<g id="Node000008" class="node">
<title>Node8</title>
<g id="a_Node000008"><a xlink:href="class_common_i_t_i_l_object.html#ae03b1a7770dde04429eb011796379a5e" target="_top" xlink:title=" ">
<polygon fill="white" stroke="#666666" points="139,-180.88 15.75,-180.88 15.75,-150.38 139,-150.38 139,-180.88"/>
<text text-anchor="start" x="23.75" y="-167.38" font-family="Helvetica,sans-Serif" font-size="10.00">CommonITILObject\post</text>
<text text-anchor="middle" x="77.38" y="-156.12" font-family="Helvetica,sans-Serif" font-size="10.00">_addItem</text>
</a>
</g>
</g>
<!-- Node7&#45;&gt;Node8 -->
<g id="edge7_Node000007_Node000008" class="edge">
<title>Node7&#45;&gt;Node8</title>
<g id="a_edge7_Node000007_Node000008"><a xlink:title=" ">
<path fill="none" stroke="#63b8ff" d="M179.06,-165.62C165.54,-165.62 151.92,-165.62 139.24,-165.62"/>
<polygon fill="#63b8ff" stroke="#63b8ff" points="178.84,-169.13 188.84,-165.63 178.84,-162.13 178.84,-169.13"/>
</a>
</g>
</g>
<!-- Node9 -->
<g id="Node000009" class="node">
<title>Node9</title>
<g id="a_Node000009"><a xlink:href="class_common_i_t_i_l_object.html#a5c71a949f2e6627d428f770a21534210" target="_top" xlink:title=" ">
<polygon fill="white" stroke="#666666" points="139,-131.88 15.75,-131.88 15.75,-101.38 139,-101.38 139,-131.88"/>
<text text-anchor="start" x="23.75" y="-118.38" font-family="Helvetica,sans-Serif" font-size="10.00">CommonITILObject\post</text>
<text text-anchor="middle" x="77.38" y="-107.12" font-family="Helvetica,sans-Serif" font-size="10.00">_updateItem</text>
</a>
</g>
</g>
<!-- Node7&#45;&gt;Node9 -->
<g id="edge8_Node000007_Node000009" class="edge">
<title>Node7&#45;&gt;Node9</title>
<g id="a_edge8_Node000007_Node000009"><a xlink:title=" ">
<path fill="none" stroke="#63b8ff" d="M220.45,-152.79C195.62,-146.47 165.48,-138.8 139.35,-132.15"/>
<polygon fill="#63b8ff" stroke="#63b8ff" points="219.43,-156.14 229.99,-155.22 221.16,-149.36 219.43,-156.14"/>
</a>
</g>
</g>
<!-- Node13 -->
<g id="Node000013" class="node">
<title>Node13</title>
<g id="a_Node000013"><a xlink:href="class_notification_target_object_lock.html#ac68ddd503fd07faf4646572a7d7d68ea" target="_top" xlink:title=" ">
<polygon fill="white" stroke="#666666" points="332.38,-67.88 211.38,-67.88 211.38,-37.38 332.38,-37.38 332.38,-67.88"/>
<text text-anchor="start" x="219.38" y="-54.38" font-family="Helvetica,sans-Serif" font-size="10.00">NotificationTargetObject</text>
<text text-anchor="middle" x="271.88" y="-43.12" font-family="Helvetica,sans-Serif" font-size="10.00">Lock\getReplyTo</text>
</a>
</g>
</g>
<!-- Node12&#45;&gt;Node13 -->
<g id="edge12_Node000012_Node000013" class="edge">
<title>Node12&#45;&gt;Node13</title>
<g id="a_edge12_Node000012_Node000013"><a xlink:title=" ">
<path fill="none" stroke="#63b8ff" d="M393.03,-52.62C373.23,-52.62 351.93,-52.62 332.84,-52.62"/>
<polygon fill="#63b8ff" stroke="#63b8ff" points="392.97,-56.13 402.97,-52.63 392.97,-49.13 392.97,-56.13"/>
</a>
</g>
</g>
</g>
</svg>
