<?xml version="1.0" encoding="UTF-8" standalone="no"?>
<!DOCTYPE svg PUBLIC "-//W3C//DTD SVG 1.1//EN"
 "http://www.w3.org/Graphics/SVG/1.1/DTD/svg11.dtd">
<!-- Generated by graphviz version 10.0.1 (20240210.2158)
 -->
<!-- Title: Graphe hiérarchique des classes Pages: 1 -->
<svg width="217pt" height="175pt"
 viewBox="0.00 0.00 217.00 175.25" xmlns="http://www.w3.org/2000/svg" xmlns:xlink="http://www.w3.org/1999/xlink">
<g id="graph0" class="graph" transform="scale(1 1) rotate(0) translate(4 171.25)">
<title>Graphe hiérarchique des classes</title>
<!-- Node0 -->
<g id="Node000000" class="node">
<title>Node0</title>
<g id="a_Node000000"><a xlink:href="class_league_1_1_o_auth2_1_1_client_1_1_grant_1_1_abstract_grant.html" target="_top" xlink:title=" ">
<polygon fill="white" stroke="#666666" points="76.75,-93.25 0,-93.25 0,-74 76.75,-74 76.75,-93.25"/>
<text text-anchor="middle" x="38.38" y="-79.75" font-family="Helvetica,sans-Serif" font-size="10.00">AbstractGrant</text>
</a>
</g>
</g>
<!-- Node1 -->
<g id="Node000001" class="node">
<title>Node1</title>
<g id="a_Node000001"><a xlink:href="class_league_1_1_o_auth2_1_1_client_1_1_grant_1_1_authorization_code.html" target="_top" xlink:title=" ">
<polygon fill="white" stroke="#666666" points="209,-167.25 112.75,-167.25 112.75,-148 209,-148 209,-167.25"/>
<text text-anchor="middle" x="160.88" y="-153.75" font-family="Helvetica,sans-Serif" font-size="10.00">AuthorizationCode</text>
</a>
</g>
</g>
<!-- Node0&#45;&gt;Node1 -->
<g id="edge22_Node000000_Node000001" class="edge">
<title>Node0&#45;&gt;Node1</title>
<g id="a_edge22_Node000000_Node000001"><a xlink:title=" ">
<path fill="none" stroke="#63b8ff" d="M58.52,-100.69C72.73,-112.73 93,-128.62 112.75,-139.62 118.11,-142.61 124.06,-145.31 129.87,-147.65"/>
<polygon fill="#63b8ff" stroke="#63b8ff" points="61.11,-98.31 51.26,-94.41 56.53,-103.6 61.11,-98.31"/>
</a>
</g>
</g>
<!-- Node2 -->
<g id="Node000002" class="node">
<title>Node2</title>
<g id="a_Node000002"><a xlink:href="class_league_1_1_o_auth2_1_1_client_1_1_grant_1_1_client_credentials.html" target="_top" xlink:title=" ">
<polygon fill="white" stroke="#666666" points="206.38,-130.25 115.38,-130.25 115.38,-111 206.38,-111 206.38,-130.25"/>
<text text-anchor="middle" x="160.88" y="-116.75" font-family="Helvetica,sans-Serif" font-size="10.00">ClientCredentials</text>
</a>
</g>
</g>
<!-- Node0&#45;&gt;Node2 -->
<g id="edge23_Node000000_Node000002" class="edge">
<title>Node0&#45;&gt;Node2</title>
<g id="a_edge23_Node000000_Node000002"><a xlink:title=" ">
<path fill="none" stroke="#63b8ff" d="M83.06,-97.04C97.56,-101.49 113.44,-106.37 126.99,-110.53"/>
<polygon fill="#63b8ff" stroke="#63b8ff" points="84.34,-93.77 73.75,-94.18 82.28,-100.46 84.34,-93.77"/>
</a>
</g>
</g>
<!-- Node3 -->
<g id="Node000003" class="node">
<title>Node3</title>
<g id="a_Node000003"><a xlink:href="class_league_1_1_o_auth2_1_1_client_1_1_grant_1_1_password.html" target="_top" xlink:title=" ">
<polygon fill="white" stroke="#666666" points="190.62,-93.25 131.12,-93.25 131.12,-74 190.62,-74 190.62,-93.25"/>
<text text-anchor="middle" x="160.88" y="-79.75" font-family="Helvetica,sans-Serif" font-size="10.00">Password</text>
</a>
</g>
</g>
<!-- Node0&#45;&gt;Node3 -->
<g id="edge24_Node000000_Node000003" class="edge">
<title>Node0&#45;&gt;Node3</title>
<g id="a_edge24_Node000000_Node000003"><a xlink:title=" ">
<path fill="none" stroke="#63b8ff" d="M88.5,-83.62C102.95,-83.62 118.28,-83.62 131.01,-83.62"/>
<polygon fill="#63b8ff" stroke="#63b8ff" points="88.68,-80.13 78.68,-83.63 88.68,-87.13 88.68,-80.13"/>
</a>
</g>
</g>
<!-- Node4 -->
<g id="Node000004" class="node">
<title>Node4</title>
<g id="a_Node000004"><a xlink:href="class_league_1_1_o_auth2_1_1_client_1_1_grant_1_1_refresh_token.html" target="_top" xlink:title=" ">
<polygon fill="white" stroke="#666666" points="199.25,-56.25 122.5,-56.25 122.5,-37 199.25,-37 199.25,-56.25"/>
<text text-anchor="middle" x="160.88" y="-42.75" font-family="Helvetica,sans-Serif" font-size="10.00">RefreshToken</text>
</a>
</g>
</g>
<!-- Node0&#45;&gt;Node4 -->
<g id="edge25_Node000000_Node000004" class="edge">
<title>Node0&#45;&gt;Node4</title>
<g id="a_edge25_Node000000_Node000004"><a xlink:title=" ">
<path fill="none" stroke="#63b8ff" d="M83.06,-70.21C97.56,-65.76 113.44,-60.88 126.99,-56.72"/>
<polygon fill="#63b8ff" stroke="#63b8ff" points="82.28,-66.79 73.75,-73.07 84.34,-73.48 82.28,-66.79"/>
</a>
</g>
</g>
<!-- Node5 -->
<g id="Node000005" class="node">
<title>Node5</title>
<g id="a_Node000005"><a xlink:href="class_the_networg_1_1_o_auth2_1_1_client_1_1_grant_1_1_jwt_bearer.html" target="_top" xlink:title=" ">
<polygon fill="white" stroke="#666666" points="191,-19.25 130.75,-19.25 130.75,0 191,0 191,-19.25"/>
<text text-anchor="middle" x="160.88" y="-5.75" font-family="Helvetica,sans-Serif" font-size="10.00">JwtBearer</text>
</a>
</g>
</g>
<!-- Node0&#45;&gt;Node5 -->
<g id="edge26_Node000000_Node000005" class="edge">
<title>Node0&#45;&gt;Node5</title>
<g id="a_edge26_Node000000_Node000005"><a xlink:title=" ">
<path fill="none" stroke="#63b8ff" d="M58.52,-66.56C72.73,-54.52 93,-38.63 112.75,-27.62 118.26,-24.56 124.4,-21.79 130.37,-19.4"/>
<polygon fill="#63b8ff" stroke="#63b8ff" points="56.53,-63.65 51.26,-72.84 61.11,-68.94 56.53,-63.65"/>
</a>
</g>
</g>
</g>
</svg>
