<?xml version="1.0" encoding="UTF-8" standalone="no"?>
<!DOCTYPE svg PUBLIC "-//W3C//DTD SVG 1.1//EN"
 "http://www.w3.org/Graphics/SVG/1.1/DTD/svg11.dtd">
<!-- Generated by graphviz version 10.0.1 (20240210.2158)
 -->
<!-- Title: Graphe hiérarchique des classes Pages: 1 -->
<svg width="558pt" height="619pt"
 viewBox="0.00 0.00 558.00 619.25" xmlns="http://www.w3.org/2000/svg" xmlns:xlink="http://www.w3.org/1999/xlink">
<g id="graph0" class="graph" transform="scale(1 1) rotate(0) translate(4 615.25)">
<title>Graphe hiérarchique des classes</title>
<!-- Node0 -->
<g id="Node000000" class="node">
<title>Node0</title>
<g id="a_Node000000"><a xlink:href="interface_twig_1_1_token_parser_1_1_token_parser_interface.html" target="_top" xlink:title=" ">
<polygon fill="white" stroke="#666666" points="109,-315.25 0,-315.25 0,-296 109,-296 109,-315.25"/>
<text text-anchor="middle" x="54.5" y="-301.75" font-family="Helvetica,sans-Serif" font-size="10.00">TokenParserInterface</text>
</a>
</g>
</g>
<!-- Node1 -->
<g id="Node000001" class="node">
<title>Node1</title>
<g id="a_Node000001"><a xlink:href="class_twig_1_1_token_parser_1_1_abstract_token_parser.html" target="_top" xlink:title=" ">
<polygon fill="white" stroke="#666666" points="252.5,-315.25 145,-315.25 145,-296 252.5,-296 252.5,-315.25"/>
<text text-anchor="middle" x="198.75" y="-301.75" font-family="Helvetica,sans-Serif" font-size="10.00">AbstractTokenParser</text>
</a>
</g>
</g>
<!-- Node0&#45;&gt;Node1 -->
<g id="edge2613_Node000000_Node000001" class="edge">
<title>Node0&#45;&gt;Node1</title>
<g id="a_edge2613_Node000000_Node000001"><a xlink:title=" ">
<path fill="none" stroke="#63b8ff" d="M120.63,-305.62C128.73,-305.62 136.95,-305.62 144.84,-305.62"/>
<polygon fill="#63b8ff" stroke="#63b8ff" points="120.79,-302.13 110.79,-305.63 120.79,-309.13 120.79,-302.13"/>
</a>
</g>
</g>
<!-- Node2 -->
<g id="Node000002" class="node">
<title>Node2</title>
<g id="a_Node000002"><a xlink:href="class_twig_1_1_token_parser_1_1_apply_token_parser.html" target="_top" xlink:title=" ">
<polygon fill="white" stroke="#666666" points="398.25,-611.25 302.75,-611.25 302.75,-592 398.25,-592 398.25,-611.25"/>
<text text-anchor="middle" x="350.5" y="-597.75" font-family="Helvetica,sans-Serif" font-size="10.00">ApplyTokenParser</text>
</a>
</g>
</g>
<!-- Node1&#45;&gt;Node2 -->
<g id="edge2614_Node000001_Node000002" class="edge">
<title>Node1&#45;&gt;Node2</title>
<g id="a_edge2614_Node000001_Node000002"><a xlink:title=" ">
<path fill="none" stroke="#63b8ff" d="M200.12,-326.98C202.22,-378.68 214.88,-511.61 288.5,-583.62 292.53,-587.56 297.37,-590.65 302.54,-593.06"/>
<polygon fill="#63b8ff" stroke="#63b8ff" points="203.63,-327.08 199.83,-317.19 196.63,-327.29 203.63,-327.08"/>
</a>
</g>
</g>
<!-- Node3 -->
<g id="Node000003" class="node">
<title>Node3</title>
<g id="a_Node000003"><a xlink:href="class_twig_1_1_token_parser_1_1_auto_escape_token_parser.html" target="_top" xlink:title=" ">
<polygon fill="white" stroke="#666666" points="412.5,-574.25 288.5,-574.25 288.5,-555 412.5,-555 412.5,-574.25"/>
<text text-anchor="middle" x="350.5" y="-560.75" font-family="Helvetica,sans-Serif" font-size="10.00">AutoEscapeTokenParser</text>
</a>
</g>
</g>
<!-- Node1&#45;&gt;Node3 -->
<g id="edge2615_Node000001_Node000003" class="edge">
<title>Node1&#45;&gt;Node3</title>
<g id="a_edge2615_Node000001_Node000003"><a xlink:title=" ">
<path fill="none" stroke="#63b8ff" d="M201.34,-326.94C205.98,-373.7 223.64,-485.9 288.5,-546.62 291.89,-549.79 295.8,-552.41 299.98,-554.56"/>
<polygon fill="#63b8ff" stroke="#63b8ff" points="204.83,-326.75 200.48,-317.1 197.86,-327.36 204.83,-326.75"/>
</a>
</g>
</g>
<!-- Node4 -->
<g id="Node000004" class="node">
<title>Node4</title>
<g id="a_Node000004"><a xlink:href="class_twig_1_1_token_parser_1_1_block_token_parser.html" target="_top" xlink:title=" ">
<polygon fill="white" stroke="#666666" points="398.25,-537.25 302.75,-537.25 302.75,-518 398.25,-518 398.25,-537.25"/>
<text text-anchor="middle" x="350.5" y="-523.75" font-family="Helvetica,sans-Serif" font-size="10.00">BlockTokenParser</text>
</a>
</g>
</g>
<!-- Node1&#45;&gt;Node4 -->
<g id="edge2616_Node000001_Node000004" class="edge">
<title>Node1&#45;&gt;Node4</title>
<g id="a_edge2616_Node000001_Node000004"><a xlink:title=" ">
<path fill="none" stroke="#63b8ff" d="M202.92,-326.72C210.24,-368.04 232.23,-459.9 288.5,-509.62 292.55,-513.21 297.29,-516.08 302.3,-518.38"/>
<polygon fill="#63b8ff" stroke="#63b8ff" points="206.38,-326.21 201.31,-316.91 199.47,-327.34 206.38,-326.21"/>
</a>
</g>
</g>
<!-- Node5 -->
<g id="Node000005" class="node">
<title>Node5</title>
<g id="a_Node000005"><a xlink:href="class_twig_1_1_token_parser_1_1_deprecated_token_parser.html" target="_top" xlink:title=" ">
<polygon fill="white" stroke="#666666" points="411,-500.25 290,-500.25 290,-481 411,-481 411,-500.25"/>
<text text-anchor="middle" x="350.5" y="-486.75" font-family="Helvetica,sans-Serif" font-size="10.00">DeprecatedTokenParser</text>
</a>
</g>
</g>
<!-- Node1&#45;&gt;Node5 -->
<g id="edge2617_Node000001_Node000005" class="edge">
<title>Node1&#45;&gt;Node5</title>
<g id="a_edge2617_Node000001_Node000005"><a xlink:title=" ">
<path fill="none" stroke="#63b8ff" d="M205.11,-326.54C215.27,-361.94 240.72,-433.62 288.5,-472.62 292.35,-475.77 296.73,-478.36 301.34,-480.5"/>
<polygon fill="#63b8ff" stroke="#63b8ff" points="208.55,-325.83 202.54,-317.1 201.79,-327.67 208.55,-325.83"/>
</a>
</g>
</g>
<!-- Node6 -->
<g id="Node000006" class="node">
<title>Node6</title>
<g id="a_Node000006"><a xlink:href="class_twig_1_1_token_parser_1_1_do_token_parser.html" target="_top" xlink:title=" ">
<polygon fill="white" stroke="#666666" points="392.25,-463.25 308.75,-463.25 308.75,-444 392.25,-444 392.25,-463.25"/>
<text text-anchor="middle" x="350.5" y="-449.75" font-family="Helvetica,sans-Serif" font-size="10.00">DoTokenParser</text>
</a>
</g>
</g>
<!-- Node1&#45;&gt;Node6 -->
<g id="edge2618_Node000001_Node000006" class="edge">
<title>Node1&#45;&gt;Node6</title>
<g id="a_edge2618_Node000001_Node000006"><a xlink:title=" ">
<path fill="none" stroke="#63b8ff" d="M208.21,-325.88C221.23,-354.57 248.89,-406.78 288.5,-435.62 294.39,-439.91 301.3,-443.19 308.31,-445.69"/>
<polygon fill="#63b8ff" stroke="#63b8ff" points="211.48,-324.63 204.28,-316.86 205.07,-327.43 211.48,-324.63"/>
</a>
</g>
</g>
<!-- Node7 -->
<g id="Node000007" class="node">
<title>Node7</title>
<g id="a_Node000007"><a xlink:href="class_twig_1_1_token_parser_1_1_extends_token_parser.html" target="_top" xlink:title=" ">
<polygon fill="white" stroke="#666666" points="403.88,-426.25 297.12,-426.25 297.12,-407 403.88,-407 403.88,-426.25"/>
<text text-anchor="middle" x="350.5" y="-412.75" font-family="Helvetica,sans-Serif" font-size="10.00">ExtendsTokenParser</text>
</a>
</g>
</g>
<!-- Node1&#45;&gt;Node7 -->
<g id="edge2619_Node000001_Node000007" class="edge">
<title>Node1&#45;&gt;Node7</title>
<g id="a_edge2619_Node000001_Node000007"><a xlink:title=" ">
<path fill="none" stroke="#63b8ff" d="M213.26,-324.92C228.99,-346.01 256.9,-379.34 288.5,-398.62 293.68,-401.79 299.46,-404.42 305.32,-406.61"/>
<polygon fill="#63b8ff" stroke="#63b8ff" points="216.14,-322.94 207.44,-316.9 210.48,-327.05 216.14,-322.94"/>
</a>
</g>
</g>
<!-- Node8 -->
<g id="Node000008" class="node">
<title>Node8</title>
<g id="a_Node000008"><a xlink:href="class_twig_1_1_token_parser_1_1_flush_token_parser.html" target="_top" xlink:title=" ">
<polygon fill="white" stroke="#666666" points="397.88,-389.25 303.12,-389.25 303.12,-370 397.88,-370 397.88,-389.25"/>
<text text-anchor="middle" x="350.5" y="-375.75" font-family="Helvetica,sans-Serif" font-size="10.00">FlushTokenParser</text>
</a>
</g>
</g>
<!-- Node1&#45;&gt;Node8 -->
<g id="edge2620_Node000001_Node000008" class="edge">
<title>Node1&#45;&gt;Node8</title>
<g id="a_edge2620_Node000001_Node000008"><a xlink:title=" ">
<path fill="none" stroke="#63b8ff" d="M222.2,-322.25C239.58,-334.49 264.63,-350.83 288.5,-361.62 295.14,-364.63 302.41,-367.28 309.54,-369.56"/>
<polygon fill="#63b8ff" stroke="#63b8ff" points="224.32,-319.46 214.15,-316.47 220.23,-325.14 224.32,-319.46"/>
</a>
</g>
</g>
<!-- Node9 -->
<g id="Node000009" class="node">
<title>Node9</title>
<g id="a_Node000009"><a xlink:href="class_twig_1_1_token_parser_1_1_for_token_parser.html" target="_top" xlink:title=" ">
<polygon fill="white" stroke="#666666" points="393,-352.25 308,-352.25 308,-333 393,-333 393,-352.25"/>
<text text-anchor="middle" x="350.5" y="-338.75" font-family="Helvetica,sans-Serif" font-size="10.00">ForTokenParser</text>
</a>
</g>
</g>
<!-- Node1&#45;&gt;Node9 -->
<g id="edge2621_Node000001_Node000009" class="edge">
<title>Node1&#45;&gt;Node9</title>
<g id="a_edge2621_Node000001_Node000009"><a xlink:title=" ">
<path fill="none" stroke="#63b8ff" d="M251.66,-318.45C270.31,-323.06 291.05,-328.18 308.63,-332.53"/>
<polygon fill="#63b8ff" stroke="#63b8ff" points="252.69,-315.1 242.14,-316.1 251.01,-321.9 252.69,-315.1"/>
</a>
</g>
</g>
<!-- Node10 -->
<g id="Node000010" class="node">
<title>Node10</title>
<g id="a_Node000010"><a xlink:href="class_twig_1_1_token_parser_1_1_from_token_parser.html" target="_top" xlink:title=" ">
<polygon fill="white" stroke="#666666" points="397.12,-315.25 303.88,-315.25 303.88,-296 397.12,-296 397.12,-315.25"/>
<text text-anchor="middle" x="350.5" y="-301.75" font-family="Helvetica,sans-Serif" font-size="10.00">FromTokenParser</text>
</a>
</g>
</g>
<!-- Node1&#45;&gt;Node10 -->
<g id="edge2622_Node000001_Node000010" class="edge">
<title>Node1&#45;&gt;Node10</title>
<g id="a_edge2622_Node000001_Node000010"><a xlink:title=" ">
<path fill="none" stroke="#63b8ff" d="M264.36,-305.62C277.5,-305.62 291.07,-305.62 303.41,-305.62"/>
<polygon fill="#63b8ff" stroke="#63b8ff" points="264.48,-302.13 254.48,-305.63 264.48,-309.13 264.48,-302.13"/>
</a>
</g>
</g>
<!-- Node11 -->
<g id="Node000011" class="node">
<title>Node11</title>
<g id="a_Node000011"><a xlink:href="class_twig_1_1_token_parser_1_1_if_token_parser.html" target="_top" xlink:title=" ">
<polygon fill="white" stroke="#666666" points="388.88,-278.25 312.12,-278.25 312.12,-259 388.88,-259 388.88,-278.25"/>
<text text-anchor="middle" x="350.5" y="-264.75" font-family="Helvetica,sans-Serif" font-size="10.00">IfTokenParser</text>
</a>
</g>
</g>
<!-- Node1&#45;&gt;Node11 -->
<g id="edge2623_Node000001_Node000011" class="edge">
<title>Node1&#45;&gt;Node11</title>
<g id="a_edge2623_Node000001_Node000011"><a xlink:title=" ">
<path fill="none" stroke="#63b8ff" d="M251.67,-292.8C271.41,-287.92 293.52,-282.46 311.71,-277.96"/>
<polygon fill="#63b8ff" stroke="#63b8ff" points="251.01,-289.35 242.14,-295.15 252.69,-296.15 251.01,-289.35"/>
</a>
</g>
</g>
<!-- Node12 -->
<g id="Node000012" class="node">
<title>Node12</title>
<g id="a_Node000012"><a xlink:href="class_twig_1_1_token_parser_1_1_import_token_parser.html" target="_top" xlink:title=" ">
<polygon fill="white" stroke="#666666" points="399.75,-241.25 301.25,-241.25 301.25,-222 399.75,-222 399.75,-241.25"/>
<text text-anchor="middle" x="350.5" y="-227.75" font-family="Helvetica,sans-Serif" font-size="10.00">ImportTokenParser</text>
</a>
</g>
</g>
<!-- Node1&#45;&gt;Node12 -->
<g id="edge2624_Node000001_Node000012" class="edge">
<title>Node1&#45;&gt;Node12</title>
<g id="a_edge2624_Node000001_Node000012"><a xlink:title=" ">
<path fill="none" stroke="#63b8ff" d="M222.2,-289C239.58,-276.76 264.63,-260.42 288.5,-249.62 295.14,-246.62 302.41,-243.97 309.54,-241.69"/>
<polygon fill="#63b8ff" stroke="#63b8ff" points="220.23,-286.11 214.15,-294.78 224.32,-291.79 220.23,-286.11"/>
</a>
</g>
</g>
<!-- Node13 -->
<g id="Node000013" class="node">
<title>Node13</title>
<g id="a_Node000013"><a xlink:href="class_twig_1_1_token_parser_1_1_include_token_parser.html" target="_top" xlink:title=" ">
<polygon fill="white" stroke="#666666" points="401.62,-204.25 299.38,-204.25 299.38,-185 401.62,-185 401.62,-204.25"/>
<text text-anchor="middle" x="350.5" y="-190.75" font-family="Helvetica,sans-Serif" font-size="10.00">IncludeTokenParser</text>
</a>
</g>
</g>
<!-- Node1&#45;&gt;Node13 -->
<g id="edge2625_Node000001_Node000013" class="edge">
<title>Node1&#45;&gt;Node13</title>
<g id="a_edge2625_Node000001_Node000013"><a xlink:title=" ">
<path fill="none" stroke="#63b8ff" d="M213.26,-286.33C228.99,-265.24 256.9,-231.91 288.5,-212.62 293.68,-209.46 299.46,-206.83 305.32,-204.64"/>
<polygon fill="#63b8ff" stroke="#63b8ff" points="210.48,-284.2 207.44,-294.35 216.14,-288.31 210.48,-284.2"/>
</a>
</g>
</g>
<!-- Node15 -->
<g id="Node000015" class="node">
<title>Node15</title>
<g id="a_Node000015"><a xlink:href="class_twig_1_1_token_parser_1_1_macro_token_parser.html" target="_top" xlink:title=" ">
<polygon fill="white" stroke="#666666" points="399.38,-167.25 301.62,-167.25 301.62,-148 399.38,-148 399.38,-167.25"/>
<text text-anchor="middle" x="350.5" y="-153.75" font-family="Helvetica,sans-Serif" font-size="10.00">MacroTokenParser</text>
</a>
</g>
</g>
<!-- Node1&#45;&gt;Node15 -->
<g id="edge2627_Node000001_Node000015" class="edge">
<title>Node1&#45;&gt;Node15</title>
<g id="a_edge2627_Node000001_Node000015"><a xlink:title=" ">
<path fill="none" stroke="#63b8ff" d="M208.21,-285.37C221.23,-256.68 248.89,-204.47 288.5,-175.62 292.87,-172.44 297.81,-169.82 302.93,-167.65"/>
<polygon fill="#63b8ff" stroke="#63b8ff" points="205.07,-283.82 204.28,-294.39 211.48,-286.62 205.07,-283.82"/>
</a>
</g>
</g>
<!-- Node16 -->
<g id="Node000016" class="node">
<title>Node16</title>
<g id="a_Node000016"><a xlink:href="class_twig_1_1_token_parser_1_1_sandbox_token_parser.html" target="_top" xlink:title=" ">
<polygon fill="white" stroke="#666666" points="405,-130.25 296,-130.25 296,-111 405,-111 405,-130.25"/>
<text text-anchor="middle" x="350.5" y="-116.75" font-family="Helvetica,sans-Serif" font-size="10.00">SandboxTokenParser</text>
</a>
</g>
</g>
<!-- Node1&#45;&gt;Node16 -->
<g id="edge2628_Node000001_Node000016" class="edge">
<title>Node1&#45;&gt;Node16</title>
<g id="a_edge2628_Node000001_Node000016"><a xlink:title=" ">
<path fill="none" stroke="#63b8ff" d="M205.11,-284.71C215.27,-249.31 240.72,-177.63 288.5,-138.62 292.35,-135.48 296.73,-132.89 301.34,-130.75"/>
<polygon fill="#63b8ff" stroke="#63b8ff" points="201.79,-283.58 202.54,-294.15 208.55,-285.42 201.79,-283.58"/>
</a>
</g>
</g>
<!-- Node17 -->
<g id="Node000017" class="node">
<title>Node17</title>
<g id="a_Node000017"><a xlink:href="class_twig_1_1_token_parser_1_1_set_token_parser.html" target="_top" xlink:title=" ">
<polygon fill="white" stroke="#666666" points="393.38,-93.25 307.62,-93.25 307.62,-74 393.38,-74 393.38,-93.25"/>
<text text-anchor="middle" x="350.5" y="-79.75" font-family="Helvetica,sans-Serif" font-size="10.00">SetTokenParser</text>
</a>
</g>
</g>
<!-- Node1&#45;&gt;Node17 -->
<g id="edge2629_Node000001_Node000017" class="edge">
<title>Node1&#45;&gt;Node17</title>
<g id="a_edge2629_Node000001_Node000017"><a xlink:title=" ">
<path fill="none" stroke="#63b8ff" d="M202.92,-284.53C210.24,-243.21 232.23,-151.35 288.5,-101.62 293.88,-96.87 300.46,-93.37 307.28,-90.8"/>
<polygon fill="#63b8ff" stroke="#63b8ff" points="199.47,-283.91 201.31,-294.34 206.38,-285.04 199.47,-283.91"/>
</a>
</g>
</g>
<!-- Node18 -->
<g id="Node000018" class="node">
<title>Node18</title>
<g id="a_Node000018"><a xlink:href="class_twig_1_1_token_parser_1_1_use_token_parser.html" target="_top" xlink:title=" ">
<polygon fill="white" stroke="#666666" points="394.88,-56.25 306.12,-56.25 306.12,-37 394.88,-37 394.88,-56.25"/>
<text text-anchor="middle" x="350.5" y="-42.75" font-family="Helvetica,sans-Serif" font-size="10.00">UseTokenParser</text>
</a>
</g>
</g>
<!-- Node1&#45;&gt;Node18 -->
<g id="edge2630_Node000001_Node000018" class="edge">
<title>Node1&#45;&gt;Node18</title>
<g id="a_edge2630_Node000001_Node000018"><a xlink:title=" ">
<path fill="none" stroke="#63b8ff" d="M201.34,-284.31C205.98,-237.55 223.64,-125.35 288.5,-64.62 293.42,-60.02 299.45,-56.59 305.8,-54.03"/>
<polygon fill="#63b8ff" stroke="#63b8ff" points="197.86,-283.89 200.48,-294.15 204.83,-284.5 197.86,-283.89"/>
</a>
</g>
</g>
<!-- Node19 -->
<g id="Node000019" class="node">
<title>Node19</title>
<g id="a_Node000019"><a xlink:href="class_twig_1_1_token_parser_1_1_with_token_parser.html" target="_top" xlink:title=" ">
<polygon fill="white" stroke="#666666" points="396,-19.25 305,-19.25 305,0 396,0 396,-19.25"/>
<text text-anchor="middle" x="350.5" y="-5.75" font-family="Helvetica,sans-Serif" font-size="10.00">WithTokenParser</text>
</a>
</g>
</g>
<!-- Node1&#45;&gt;Node19 -->
<g id="edge2631_Node000001_Node000019" class="edge">
<title>Node1&#45;&gt;Node19</title>
<g id="a_edge2631_Node000001_Node000019"><a xlink:title=" ">
<path fill="none" stroke="#63b8ff" d="M200.12,-284.27C202.22,-232.57 214.88,-99.64 288.5,-27.62 293.08,-23.15 298.71,-19.77 304.69,-17.24"/>
<polygon fill="#63b8ff" stroke="#63b8ff" points="196.63,-283.96 199.83,-294.06 203.63,-284.17 196.63,-283.96"/>
</a>
</g>
</g>
<!-- Node14 -->
<g id="Node000014" class="node">
<title>Node14</title>
<g id="a_Node000014"><a xlink:href="class_twig_1_1_token_parser_1_1_embed_token_parser.html" target="_top" xlink:title=" ">
<polygon fill="white" stroke="#666666" points="550,-204.25 448.5,-204.25 448.5,-185 550,-185 550,-204.25"/>
<text text-anchor="middle" x="499.25" y="-190.75" font-family="Helvetica,sans-Serif" font-size="10.00">EmbedTokenParser</text>
</a>
</g>
</g>
<!-- Node13&#45;&gt;Node14 -->
<g id="edge2626_Node000013_Node000014" class="edge">
<title>Node13&#45;&gt;Node14</title>
<g id="a_edge2626_Node000013_Node000014"><a xlink:title=" ">
<path fill="none" stroke="#63b8ff" d="M413.41,-194.62C425,-194.62 436.98,-194.62 448.15,-194.62"/>
<polygon fill="#63b8ff" stroke="#63b8ff" points="413.52,-191.13 403.52,-194.63 413.52,-198.13 413.52,-191.13"/>
</a>
</g>
</g>
</g>
</svg>
