<?xml version="1.0" encoding="UTF-8" standalone="no"?>
<!DOCTYPE svg PUBLIC "-//W3C//DTD SVG 1.1//EN"
 "http://www.w3.org/Graphics/SVG/1.1/DTD/svg11.dtd">
<!-- Generated by graphviz version 10.0.1 (20240210.2158)
 -->
<!-- Title: Graphe hiérarchique des classes Pages: 1 -->
<svg width="306pt" height="138pt"
 viewBox="0.00 0.00 305.75 138.25" xmlns="http://www.w3.org/2000/svg" xmlns:xlink="http://www.w3.org/1999/xlink">
<g id="graph0" class="graph" transform="scale(1 1) rotate(0) translate(4 134.25)">
<title>Graphe hiérarchique des classes</title>
<!-- Node0 -->
<g id="Node000000" class="node">
<title>Node0</title>
<g id="a_Node000000"><a xlink:href="class_league_1_1_o_auth2_1_1_client_1_1_provider_1_1_abstract_provider.html" target="_top" xlink:title=" ">
<polygon fill="white" stroke="#666666" points="88.75,-93.25 0,-93.25 0,-74 88.75,-74 88.75,-93.25"/>
<text text-anchor="middle" x="44.38" y="-79.75" font-family="Helvetica,sans-Serif" font-size="10.00">AbstractProvider</text>
</a>
</g>
</g>
<!-- Node1 -->
<g id="Node000001" class="node">
<title>Node1</title>
<g id="a_Node000001"><a xlink:href="class_league_1_1_o_auth2_1_1_client_1_1_provider_1_1_generic_provider.html" target="_top" xlink:title=" ">
<polygon fill="white" stroke="#666666" points="212.75,-130.25 127,-130.25 127,-111 212.75,-111 212.75,-130.25"/>
<text text-anchor="middle" x="169.88" y="-116.75" font-family="Helvetica,sans-Serif" font-size="10.00">GenericProvider</text>
</a>
</g>
</g>
<!-- Node0&#45;&gt;Node1 -->
<g id="edge31_Node000000_Node000001" class="edge">
<title>Node0&#45;&gt;Node1</title>
<g id="a_edge31_Node000000_Node000001"><a xlink:title=" ">
<path fill="none" stroke="#63b8ff" d="M90.14,-97.04C105,-101.49 121.29,-106.37 135.17,-110.53"/>
<polygon fill="#63b8ff" stroke="#63b8ff" points="91.16,-93.69 80.57,-94.17 89.15,-100.39 91.16,-93.69"/>
</a>
</g>
</g>
<!-- Node2 -->
<g id="Node000002" class="node">
<title>Node2</title>
<g id="a_Node000002"><a xlink:href="class_league_1_1_o_auth2_1_1_client_1_1_provider_1_1_google.html" target="_top" xlink:title=" ">
<polygon fill="white" stroke="#666666" points="193.25,-93.25 146.5,-93.25 146.5,-74 193.25,-74 193.25,-93.25"/>
<text text-anchor="middle" x="169.88" y="-79.75" font-family="Helvetica,sans-Serif" font-size="10.00">Google</text>
</a>
</g>
</g>
<!-- Node0&#45;&gt;Node2 -->
<g id="edge32_Node000000_Node000002" class="edge">
<title>Node0&#45;&gt;Node2</title>
<g id="a_edge32_Node000000_Node000002"><a xlink:title=" ">
<path fill="none" stroke="#63b8ff" d="M99.99,-83.62C116.23,-83.62 133.14,-83.62 146.13,-83.62"/>
<polygon fill="#63b8ff" stroke="#63b8ff" points="100.43,-80.13 90.43,-83.63 100.43,-87.13 100.43,-80.13"/>
</a>
</g>
</g>
<!-- Node6 -->
<g id="Node000006" class="node">
<title>Node6</title>
<g id="a_Node000006"><a xlink:href="class_the_networg_1_1_o_auth2_1_1_client_1_1_provider_1_1_azure.html" target="_top" xlink:title=" ">
<polygon fill="white" stroke="#666666" points="190.62,-19.25 149.12,-19.25 149.12,0 190.62,0 190.62,-19.25"/>
<text text-anchor="middle" x="169.88" y="-5.75" font-family="Helvetica,sans-Serif" font-size="10.00">Azure</text>
</a>
</g>
</g>
<!-- Node0&#45;&gt;Node6 -->
<g id="edge34_Node000000_Node000006" class="edge">
<title>Node0&#45;&gt;Node6</title>
<g id="a_edge34_Node000000_Node000006"><a xlink:title=" ">
<path fill="none" stroke="#63b8ff" d="M66.48,-66.73C82,-54.82 103.92,-39.03 124.75,-27.62 132.3,-23.49 140.99,-19.75 148.66,-16.76"/>
<polygon fill="#63b8ff" stroke="#63b8ff" points="64.64,-63.73 58.91,-72.64 68.95,-69.25 64.64,-63.73"/>
</a>
</g>
</g>
<!-- Node3 -->
<g id="Node000003" class="node">
<title>Node3</title>
<g id="a_Node000003"><a xlink:href="class_glpi_1_1_mail_1_1_s_m_t_p_1_1_oauth_provider_1_1_google.html" target="_top" xlink:title=" ">
<polygon fill="white" stroke="#666666" points="297.75,-74.25 251,-74.25 251,-55 297.75,-55 297.75,-74.25"/>
<text text-anchor="middle" x="274.38" y="-60.75" font-family="Helvetica,sans-Serif" font-size="10.00">Google</text>
</a>
</g>
</g>
<!-- Node2&#45;&gt;Node3 -->
<g id="edge33_Node000002_Node000003" class="edge">
<title>Node2&#45;&gt;Node3</title>
<g id="a_edge33_Node000002_Node000003"><a xlink:title=" ">
<path fill="none" stroke="#63b8ff" d="M204.63,-77.37C219.74,-74.57 237.17,-71.34 250.69,-68.83"/>
<polygon fill="#63b8ff" stroke="#63b8ff" points="204.31,-73.87 195.11,-79.13 205.58,-80.75 204.31,-73.87"/>
</a>
</g>
</g>
<!-- Node5 -->
<g id="Node000005" class="node">
<title>Node5</title>
<g id="a_Node000005"><a xlink:href="class_glpi_1_1_mail_1_1_s_m_t_p_1_1_oauth_provider_1_1_azure.html" target="_top" xlink:title=" ">
<polygon fill="white" stroke="#666666" points="295.12,-28.25 253.62,-28.25 253.62,-9 295.12,-9 295.12,-28.25"/>
<text text-anchor="middle" x="274.38" y="-14.75" font-family="Helvetica,sans-Serif" font-size="10.00">Azure</text>
</a>
</g>
</g>
<!-- Node6&#45;&gt;Node5 -->
<g id="edge35_Node000006_Node000005" class="edge">
<title>Node6&#45;&gt;Node5</title>
<g id="a_edge35_Node000006_Node000005"><a xlink:title=" ">
<path fill="none" stroke="#63b8ff" d="M202.05,-12.36C218.71,-13.83 238.74,-15.58 253.32,-16.86"/>
<polygon fill="#63b8ff" stroke="#63b8ff" points="202.41,-8.88 192.15,-11.49 201.8,-15.85 202.41,-8.88"/>
</a>
</g>
</g>
<!-- Node4 -->
<g id="Node000004" class="node">
<title>Node4</title>
<g id="a_Node000004"><a xlink:href="interface_glpi_1_1_mail_1_1_s_m_t_p_1_1_oauth_provider_1_1_provider_interface.html" target="_top" xlink:title=" ">
<polygon fill="white" stroke="#666666" points="215,-56.25 124.75,-56.25 124.75,-37 215,-37 215,-56.25"/>
<text text-anchor="middle" x="169.88" y="-42.75" font-family="Helvetica,sans-Serif" font-size="10.00">ProviderInterface</text>
</a>
</g>
</g>
<!-- Node4&#45;&gt;Node3 -->
<g id="edge37_Node000004_Node000003" class="edge">
<title>Node4&#45;&gt;Node3</title>
<g id="a_edge37_Node000004_Node000003"><a xlink:title=" ">
<path fill="none" stroke="#63b8ff" d="M226.48,-56.39C235.03,-57.89 243.41,-59.36 250.67,-60.64"/>
<polygon fill="#63b8ff" stroke="#63b8ff" points="227.18,-52.96 216.73,-54.68 225.97,-59.85 227.18,-52.96"/>
</a>
</g>
</g>
<!-- Node4&#45;&gt;Node5 -->
<g id="edge36_Node000004_Node000005" class="edge">
<title>Node4&#45;&gt;Node5</title>
<g id="a_edge36_Node000004_Node000005"><a xlink:title=" ">
<path fill="none" stroke="#63b8ff" d="M218.91,-33.5C231.09,-30.18 243.5,-26.79 253.4,-24.08"/>
<polygon fill="#63b8ff" stroke="#63b8ff" points="218.06,-30.11 209.34,-36.12 219.91,-36.86 218.06,-30.11"/>
</a>
</g>
</g>
</g>
</svg>
