<?xml version="1.0" encoding="UTF-8" standalone="no"?>
<!DOCTYPE svg PUBLIC "-//W3C//DTD SVG 1.1//EN"
 "http://www.w3.org/Graphics/SVG/1.1/DTD/svg11.dtd">
<!-- Generated by graphviz version 10.0.1 (20240210.2158)
 -->
<!-- Title: Graphe hiérarchique des classes Pages: 1 -->
<svg width="451pt" height="101pt"
 viewBox="0.00 0.00 450.50 101.25" xmlns="http://www.w3.org/2000/svg" xmlns:xlink="http://www.w3.org/1999/xlink">
<g id="graph0" class="graph" transform="scale(1 1) rotate(0) translate(4 97.25)">
<title>Graphe hiérarchique des classes</title>
<!-- Node0 -->
<g id="Node000000" class="node">
<title>Node0</title>
<g id="a_Node000000"><a xlink:href="interface_ramsey_1_1_uuid_1_1_converter_1_1_time_converter_interface.html" target="_top" xlink:title=" ">
<polygon fill="white" stroke="#666666" points="118.75,-56.25 0,-56.25 0,-37 118.75,-37 118.75,-56.25"/>
<text text-anchor="middle" x="59.38" y="-42.75" font-family="Helvetica,sans-Serif" font-size="10.00">TimeConverterInterface</text>
</a>
</g>
</g>
<!-- Node1 -->
<g id="Node000001" class="node">
<title>Node1</title>
<g id="a_Node000001"><a xlink:href="class_ramsey_1_1_uuid_1_1_converter_1_1_time_1_1_big_number_time_converter.html" target="_top" xlink:title=" ">
<polygon fill="white" stroke="#666666" points="284,-93.25 154.75,-93.25 154.75,-74 284,-74 284,-93.25"/>
<text text-anchor="middle" x="219.38" y="-79.75" font-family="Helvetica,sans-Serif" font-size="10.00">BigNumberTimeConverter</text>
</a>
</g>
</g>
<!-- Node0&#45;&gt;Node1 -->
<g id="edge2600_Node000000_Node000001" class="edge">
<title>Node0&#45;&gt;Node1</title>
<g id="a_edge2600_Node000000_Node000001"><a xlink:title=" ">
<path fill="none" stroke="#63b8ff" d="M114.59,-59.32C134.41,-63.96 156.54,-69.14 175.25,-73.53"/>
<polygon fill="#63b8ff" stroke="#63b8ff" points="115.56,-55.95 105.02,-57.08 113.96,-62.77 115.56,-55.95"/>
</a>
</g>
</g>
<!-- Node3 -->
<g id="Node000003" class="node">
<title>Node3</title>
<g id="a_Node000003"><a xlink:href="class_ramsey_1_1_uuid_1_1_converter_1_1_time_1_1_generic_time_converter.html" target="_top" xlink:title=" ">
<polygon fill="white" stroke="#666666" points="276.5,-56.25 162.25,-56.25 162.25,-37 276.5,-37 276.5,-56.25"/>
<text text-anchor="middle" x="219.38" y="-42.75" font-family="Helvetica,sans-Serif" font-size="10.00">GenericTimeConverter</text>
</a>
</g>
</g>
<!-- Node0&#45;&gt;Node3 -->
<g id="edge2602_Node000000_Node000003" class="edge">
<title>Node0&#45;&gt;Node3</title>
<g id="a_edge2602_Node000000_Node000003"><a xlink:title=" ">
<path fill="none" stroke="#63b8ff" d="M130.48,-46.62C140.98,-46.62 151.69,-46.62 161.85,-46.62"/>
<polygon fill="#63b8ff" stroke="#63b8ff" points="130.72,-43.13 120.72,-46.63 130.72,-50.13 130.72,-43.13"/>
</a>
</g>
</g>
<!-- Node4 -->
<g id="Node000004" class="node">
<title>Node4</title>
<g id="a_Node000004"><a xlink:href="class_ramsey_1_1_uuid_1_1_converter_1_1_time_1_1_php_time_converter.html" target="_top" xlink:title=" ">
<polygon fill="white" stroke="#666666" points="268.25,-19.25 170.5,-19.25 170.5,0 268.25,0 268.25,-19.25"/>
<text text-anchor="middle" x="219.38" y="-5.75" font-family="Helvetica,sans-Serif" font-size="10.00">PhpTimeConverter</text>
</a>
</g>
</g>
<!-- Node0&#45;&gt;Node4 -->
<g id="edge2603_Node000000_Node000004" class="edge">
<title>Node0&#45;&gt;Node4</title>
<g id="a_edge2603_Node000000_Node000004"><a xlink:title=" ">
<path fill="none" stroke="#63b8ff" d="M114.59,-33.93C134.41,-29.29 156.54,-24.11 175.25,-19.72"/>
<polygon fill="#63b8ff" stroke="#63b8ff" points="113.96,-30.48 105.02,-36.17 115.56,-37.3 113.96,-30.48"/>
</a>
</g>
</g>
<!-- Node2 -->
<g id="Node000002" class="node">
<title>Node2</title>
<g id="a_Node000002"><a xlink:href="class_ramsey_1_1_uuid_1_1_converter_1_1_time_1_1_degraded_time_converter.html" target="_top" xlink:title=" ">
<polygon fill="white" stroke="#666666" points="442.5,-93.25 320,-93.25 320,-74 442.5,-74 442.5,-93.25"/>
<text text-anchor="middle" x="381.25" y="-79.75" font-family="Helvetica,sans-Serif" font-size="10.00">DegradedTimeConverter</text>
</a>
</g>
</g>
<!-- Node1&#45;&gt;Node2 -->
<g id="edge2601_Node000001_Node000002" class="edge">
<title>Node1&#45;&gt;Node2</title>
<g id="a_edge2601_Node000001_Node000002"><a xlink:title=" ">
<path fill="none" stroke="#63b8ff" d="M295.97,-83.62C303.86,-83.62 311.81,-83.62 319.5,-83.62"/>
<polygon fill="#63b8ff" stroke="#63b8ff" points="295.99,-80.13 285.99,-83.63 295.99,-87.13 295.99,-80.13"/>
</a>
</g>
</g>
</g>
</svg>
