<?xml version="1.0" encoding="UTF-8" standalone="no"?>
<!DOCTYPE svg PUBLIC "-//W3C//DTD SVG 1.1//EN"
 "http://www.w3.org/Graphics/SVG/1.1/DTD/svg11.dtd">
<!-- Generated by graphviz version 10.0.1 (20240210.2158)
 -->
<!-- Title: StreamFactoryInterface Pages: 1 -->
<svg width="224pt" height="476pt"
 viewBox="0.00 0.00 224.00 476.00" xmlns="http://www.w3.org/2000/svg" xmlns:xlink="http://www.w3.org/1999/xlink">
<g id="graph0" class="graph" transform="scale(1 1) rotate(0) translate(4 472)">
<title>StreamFactoryInterface</title>
<!-- Node1 -->
<g id="Node000001" class="node">
<title>Node1</title>
<g id="a_Node000001"><a xlink:title=" ">
<polygon fill="#999999" stroke="none" points="178.5,-468 37.5,-468 37.5,-345 178.5,-345 178.5,-468"/>
<text text-anchor="start" x="56.62" y="-454.5" font-family="Helvetica,sans-Serif" font-size="10.00">StreamFactoryInterface</text>
<text text-anchor="start" x="106.5" y="-439.5" font-family="Helvetica,sans-Serif" font-size="10.00"> </text>
<text text-anchor="start" x="41.5" y="-424.5" font-family="Helvetica,sans-Serif" font-size="10.00">+</text>
<text text-anchor="start" x="51.5" y="-424.5" font-family="Helvetica,sans-Serif" font-size="10.00">createStream(string</text>
<text text-anchor="start" x="51.5" y="-413.25" font-family="Helvetica,sans-Serif" font-size="10.00"> $content=&#39;&#39;)</text>
<text text-anchor="start" x="41.5" y="-398.5" font-family="Helvetica,sans-Serif" font-size="10.00">+</text>
<text text-anchor="start" x="51.5" y="-398.5" font-family="Helvetica,sans-Serif" font-size="10.00">createStreamFromFile</text>
<text text-anchor="start" x="51.5" y="-387.25" font-family="Helvetica,sans-Serif" font-size="10.00">(string $filename, string</text>
<text text-anchor="start" x="51.5" y="-376" font-family="Helvetica,sans-Serif" font-size="10.00"> $mode=&#39;r&#39;)</text>
<text text-anchor="start" x="41.5" y="-361.5" font-family="Helvetica,sans-Serif" font-size="10.00">+</text>
<text text-anchor="start" x="51.5" y="-361.5" font-family="Helvetica,sans-Serif" font-size="10.00">createStreamFromResource</text>
<text text-anchor="start" x="51.5" y="-350.25" font-family="Helvetica,sans-Serif" font-size="10.00">($resource)</text>
<polygon fill="#666666" stroke="#666666" points="37.5,-451 37.5,-451 178.5,-451 178.5,-451 37.5,-451"/>
<polygon fill="#666666" stroke="#666666" points="37.5,-436 37.5,-436 178.5,-436 178.5,-436 37.5,-436"/>
<polygon fill="none" stroke="#666666" points="37.5,-345 37.5,-468 178.5,-468 178.5,-345 37.5,-345"/>
</a>
</g>
</g>
<!-- Node2 -->
<g id="Node000002" class="node">
<title>Node2</title>
<g id="a_Node000002"><a xlink:href="class_guzzle_http_1_1_psr7_1_1_http_factory.html" target="_top" xlink:title=" ">
<polygon fill="white" stroke="none" points="216,-309 0,-309 0,0 216,0 216,-309"/>
<text text-anchor="start" x="82.12" y="-295.5" font-family="Helvetica,sans-Serif" font-size="10.00">HttpFactory</text>
<text text-anchor="start" x="106.5" y="-280.5" font-family="Helvetica,sans-Serif" font-size="10.00"> </text>
<text text-anchor="start" x="4" y="-265.5" font-family="Helvetica,sans-Serif" font-size="10.00">+</text>
<text text-anchor="start" x="14" y="-265.5" font-family="Helvetica,sans-Serif" font-size="10.00">createUploadedFile</text>
<text text-anchor="start" x="14" y="-254.25" font-family="Helvetica,sans-Serif" font-size="10.00">(StreamInterface $stream,</text>
<text text-anchor="start" x="14" y="-243" font-family="Helvetica,sans-Serif" font-size="10.00"> int $size=null, int $error</text>
<text text-anchor="start" x="14" y="-231.75" font-family="Helvetica,sans-Serif" font-size="10.00">=\UPLOAD_ERR_OK, string $clientFilename</text>
<text text-anchor="start" x="14" y="-220.5" font-family="Helvetica,sans-Serif" font-size="10.00">=null, string $clientMediaType=null)</text>
<text text-anchor="start" x="4" y="-205.5" font-family="Helvetica,sans-Serif" font-size="10.00">+</text>
<text text-anchor="start" x="14" y="-205.5" font-family="Helvetica,sans-Serif" font-size="10.00">createStream(string</text>
<text text-anchor="start" x="14" y="-194.25" font-family="Helvetica,sans-Serif" font-size="10.00"> $content=&#39;&#39;)</text>
<text text-anchor="start" x="4" y="-179.5" font-family="Helvetica,sans-Serif" font-size="10.00">+</text>
<text text-anchor="start" x="14" y="-179.5" font-family="Helvetica,sans-Serif" font-size="10.00">createStreamFromFile</text>
<text text-anchor="start" x="14" y="-168.25" font-family="Helvetica,sans-Serif" font-size="10.00">(string $file, string</text>
<text text-anchor="start" x="14" y="-157" font-family="Helvetica,sans-Serif" font-size="10.00"> $mode=&#39;r&#39;)</text>
<text text-anchor="start" x="4" y="-142.5" font-family="Helvetica,sans-Serif" font-size="10.00">+</text>
<text text-anchor="start" x="14" y="-142.5" font-family="Helvetica,sans-Serif" font-size="10.00">createStreamFromResource</text>
<text text-anchor="start" x="14" y="-131.25" font-family="Helvetica,sans-Serif" font-size="10.00">($resource)</text>
<text text-anchor="start" x="4" y="-116.5" font-family="Helvetica,sans-Serif" font-size="10.00">+</text>
<text text-anchor="start" x="14" y="-116.5" font-family="Helvetica,sans-Serif" font-size="10.00">createServerRequest</text>
<text text-anchor="start" x="14" y="-105.25" font-family="Helvetica,sans-Serif" font-size="10.00">(string $method, $uri,</text>
<text text-anchor="start" x="14" y="-94" font-family="Helvetica,sans-Serif" font-size="10.00"> array $serverParams=[])</text>
<text text-anchor="start" x="4" y="-79.5" font-family="Helvetica,sans-Serif" font-size="10.00">+</text>
<text text-anchor="start" x="14" y="-79.5" font-family="Helvetica,sans-Serif" font-size="10.00">createResponse(int</text>
<text text-anchor="start" x="14" y="-68.25" font-family="Helvetica,sans-Serif" font-size="10.00"> $code=200, string </text>
<text text-anchor="start" x="14" y="-57" font-family="Helvetica,sans-Serif" font-size="10.00">$reasonPhrase=&#39;&#39;)</text>
<text text-anchor="start" x="4" y="-42.5" font-family="Helvetica,sans-Serif" font-size="10.00">+</text>
<text text-anchor="start" x="14" y="-42.5" font-family="Helvetica,sans-Serif" font-size="10.00">createRequest(string</text>
<text text-anchor="start" x="14" y="-31.25" font-family="Helvetica,sans-Serif" font-size="10.00"> $method, $uri)</text>
<text text-anchor="start" x="4" y="-16.5" font-family="Helvetica,sans-Serif" font-size="10.00">+</text>
<text text-anchor="start" x="14" y="-16.5" font-family="Helvetica,sans-Serif" font-size="10.00">createUri(string </text>
<text text-anchor="start" x="14" y="-5.25" font-family="Helvetica,sans-Serif" font-size="10.00">$uri=&#39;&#39;)</text>
<polygon fill="#666666" stroke="#666666" points="0,-292 0,-292 216,-292 216,-292 0,-292"/>
<polygon fill="#666666" stroke="#666666" points="0,-277 0,-277 216,-277 216,-277 0,-277"/>
<polygon fill="none" stroke="#666666" points="0,0 0,-309 216,-309 216,0 0,0"/>
</a>
</g>
</g>
<!-- Node1&#45;&gt;Node2 -->
<g id="edge1_Node000001_Node000002" class="edge">
<title>Node1&#45;&gt;Node2</title>
<g id="a_edge1_Node000001_Node000002"><a xlink:title=" ">
<path fill="none" stroke="#63b8ff" d="M108,-334.04C108,-325.89 108,-317.37 108,-308.65"/>
<polygon fill="none" stroke="#63b8ff" points="104.5,-333.79 108,-343.79 111.5,-333.79 104.5,-333.79"/>
</a>
</g>
</g>
</g>
</svg>
