<?xml version="1.0" encoding="UTF-8" standalone="no"?>
<!DOCTYPE svg PUBLIC "-//W3C//DTD SVG 1.1//EN"
 "http://www.w3.org/Graphics/SVG/1.1/DTD/svg11.dtd">
<!-- Generated by graphviz version 10.0.1 (20240210.2158)
 -->
<!-- Title: ValidatorPluginManagerAwareInterface Pages: 1 -->
<svg width="147pt" height="105pt"
 viewBox="0.00 0.00 147.00 105.00" xmlns="http://www.w3.org/2000/svg" xmlns:xlink="http://www.w3.org/1999/xlink">
<g id="graph0" class="graph" transform="scale(1 1) rotate(0) translate(4 101)">
<title>ValidatorPluginManagerAwareInterface</title>
<!-- Node1 -->
<g id="Node000001" class="node">
<title>Node1</title>
<g id="a_Node000001"><a xlink:title=" ">
<polygon fill="#999999" stroke="none" points="139,-97 0,-97 0,0 139,0 139,-97"/>
<text text-anchor="start" x="4.62" y="-83.5" font-family="Helvetica,sans-Serif" font-size="10.00">ValidatorPluginManagerAware</text>
<text text-anchor="start" x="50.38" y="-72.25" font-family="Helvetica,sans-Serif" font-size="10.00">Interface</text>
<text text-anchor="start" x="68" y="-57.5" font-family="Helvetica,sans-Serif" font-size="10.00"> </text>
<text text-anchor="start" x="4" y="-42.5" font-family="Helvetica,sans-Serif" font-size="10.00">+</text>
<text text-anchor="start" x="14" y="-42.5" font-family="Helvetica,sans-Serif" font-size="10.00">setValidatorPluginManager</text>
<text text-anchor="start" x="14" y="-31.25" font-family="Helvetica,sans-Serif" font-size="10.00">(ValidatorPluginManager</text>
<text text-anchor="start" x="14" y="-20" font-family="Helvetica,sans-Serif" font-size="10.00"> $pluginManager)</text>
<text text-anchor="start" x="4" y="-5.5" font-family="Helvetica,sans-Serif" font-size="10.00">+</text>
<text text-anchor="start" x="14" y="-5.5" font-family="Helvetica,sans-Serif" font-size="10.00">getValidatorPluginManager()</text>
<polygon fill="#666666" stroke="#666666" points="0,-69 0,-69 139,-69 139,-69 0,-69"/>
<polygon fill="#666666" stroke="#666666" points="0,-54 0,-54 139,-54 139,-54 0,-54"/>
<polygon fill="none" stroke="#666666" points="0,0 0,-97 139,-97 139,0 0,0"/>
</a>
</g>
</g>
</g>
</svg>
