<?xml version="1.0" encoding="UTF-8" standalone="no"?>
<!DOCTYPE svg PUBLIC "-//W3C//DTD SVG 1.1//EN"
 "http://www.w3.org/Graphics/SVG/1.1/DTD/svg11.dtd">
<!-- Generated by graphviz version 10.0.1 (20240210.2158)
 -->
<!-- Title: UuidInterface Pages: 1 -->
<!--zoomable 664 -->

<svg id="main" version="1.1" xmlns="http://www.w3.org/2000/svg" xmlns:xlink="http://www.w3.org/1999/xlink" xml:space="preserve" onload="init(evt)">
<style type="text/css"><![CDATA[
.node, .edge {opacity: 0.7;}
.node.selected, .edge.selected {opacity: 1;}
.edge:hover path { stroke: red; }
.edge:hover polygon { stroke: red; fill: red; }
]]></style>

<defs>
  <circle id="rim" cx="0" cy="0" r="7"/>
  <circle id="rim2" cx="0" cy="0" r="3.5"/>
  <g id="zoomPlus">
    <use xlink:href="#rim" fill="#404040"><set attributeName="fill" to="#808080" begin="zoomplus.mouseover" end="zoomplus.mouseout"/></use>
    <path d="M-4,0h8M0,-4v8" fill="none" stroke="white" stroke-width="1.5" pointer-events="none"/>
  </g>
  <g id="zoomMin">
    <use xlink:href="#rim" fill="#404040"><set attributeName="fill" to="#808080" begin="zoomminus.mouseover" end="zoomminus.mouseout"/></use>
    <path d="M-4,0h8" fill="none" stroke="white" stroke-width="1.5" pointer-events="none"/>
  </g>
  <g id="arrowUp" transform="translate(30 24)">
    <use xlink:href="#rim"/>
    <path pointer-events="none" fill="none" stroke="white" stroke-width="1.5" d="M0,-3.0v7 M-2.5,-0.5L0,-3.0L2.5,-0.5"/>
  </g>
  <g id="arrowRight" transform="rotate(90) translate(36 -43)">
    <use xlink:href="#rim"/>
    <path pointer-events="none" fill="none" stroke="white" stroke-width="1.5" d="M0,-3.0v7 M-2.5,-0.5L0,-3.0L2.5,-0.5"/>
  </g>
  <g id="arrowDown" transform="rotate(180) translate(-30 -48)">
    <use xlink:href="#rim"/>
    <path pointer-events="none" fill="none" stroke="white" stroke-width="1.5" d="M0,-3.0v7 M-2.5,-0.5L0,-3.0L2.5,-0.5"/>
  </g>
  <g id="arrowLeft" transform="rotate(270) translate(-36 17)">
    <use xlink:href="#rim"/>
    <path pointer-events="none" fill="none" stroke="white" stroke-width="1.5" d="M0,-3.0v7 M-2.5,-0.5L0,-3.0L2.5,-0.5"/>
  </g>
  <g id="resetDef">
    <use xlink:href="#rim2" fill="#404040"><set attributeName="fill" to="#808080" begin="reset.mouseover" end="reset.mouseout"/></use>
  </g>
</defs>
<script type="application/ecmascript">
var viewWidth = 1562;
var viewHeight = 664;
var sectionId = 'dynsection-0';
</script>
<script type="application/ecmascript" xlink:href="svg.min.js"/>
<svg id="graph" class="graph">
<g id="viewport">
<title>UuidInterface</title>
<!-- Node1 -->
<g id="Node000001" class="node">
<title>Node1</title>
<g id="a_Node000001"><a xlink:title=" ">
<polygon fill="#999999" stroke="none" points="715,-198 647,-198 647,-149 715,-149 715,-198"/>
<text text-anchor="start" x="651.75" y="-184.5" font-family="Helvetica,sans-Serif" font-size="10.00">UuidInterface</text>
<text text-anchor="start" x="679.5" y="-169.5" font-family="Helvetica,sans-Serif" font-size="10.00"> </text>
<text text-anchor="start" x="654.5" y="-154.5" font-family="Helvetica,sans-Serif" font-size="10.00">+</text>
<text text-anchor="start" x="668" y="-154.5" font-family="Helvetica,sans-Serif" font-size="10.00">getUrn()</text>
<polygon fill="#666666" stroke="#666666" points="647,-181 647,-181 715,-181 715,-181 647,-181"/>
<polygon fill="#666666" stroke="#666666" points="647,-166 647,-166 715,-166 715,-166 647,-166"/>
<polygon fill="none" stroke="#666666" points="647,-149 647,-198 715,-198 715,-149 647,-149"/>
</a>
</g>
</g>
<!-- Node6 -->
<g id="Node000006" class="node">
<title>Node6</title>
<g id="a_Node000006"><a xlink:href="class_ramsey_1_1_uuid_1_1_nonstandard_1_1_uuid_v6.html" target="_top" xlink:title=" ">
<polygon fill="white" stroke="none" points="234,-105.5 0,-105.5 0,-7.5 234,-7.5 234,-105.5"/>
<text text-anchor="start" x="100.88" y="-92" font-family="Helvetica,sans-Serif" font-size="10.00">UuidV6</text>
<text text-anchor="start" x="115.5" y="-77" font-family="Helvetica,sans-Serif" font-size="10.00"> </text>
<text text-anchor="start" x="4" y="-62" font-family="Helvetica,sans-Serif" font-size="10.00">+</text>
<text text-anchor="start" x="14" y="-62" font-family="Helvetica,sans-Serif" font-size="10.00">__construct(Rfc4122Fields</text>
<text text-anchor="start" x="14" y="-50.75" font-family="Helvetica,sans-Serif" font-size="10.00">Interface $fields, NumberConverter</text>
<text text-anchor="start" x="14" y="-39.5" font-family="Helvetica,sans-Serif" font-size="10.00">Interface $numberConverter, CodecInterface</text>
<text text-anchor="start" x="14" y="-28.25" font-family="Helvetica,sans-Serif" font-size="10.00"> $codec, TimeConverterInterface $timeConverter)</text>
<text text-anchor="start" x="4" y="-13" font-family="Helvetica,sans-Serif" font-size="10.00">+</text>
<text text-anchor="start" x="14" y="-13" font-family="Helvetica,sans-Serif" font-size="10.00">getDateTime()</text>
<polygon fill="#666666" stroke="#666666" points="0,-88.5 0,-88.5 234,-88.5 234,-88.5 0,-88.5"/>
<polygon fill="#666666" stroke="#666666" points="0,-73.5 0,-73.5 234,-73.5 234,-73.5 0,-73.5"/>
<polygon fill="none" stroke="#666666" points="0,-7.5 0,-105.5 234,-105.5 234,-7.5 0,-7.5"/>
</a>
</g>
</g>
<!-- Node1&#45;&gt;Node6 -->
<g id="edge5_Node000001_Node000006" class="edge">
<title>Node1&#45;&gt;Node6</title>
<g id="a_edge5_Node000001_Node000006"><a xlink:title=" ">
<path fill="none" stroke="#63b8ff" d="M635.94,-170.53C555.59,-166.11 382.91,-152.47 243,-113 235.29,-110.83 227.45,-108.27 219.63,-105.47"/>
<polygon fill="none" stroke="#63b8ff" points="635.42,-174.01 645.59,-171.04 635.79,-167.02 635.42,-174.01"/>
</a>
</g>
</g>
<!-- Node7 -->
<g id="Node000007" class="node">
<title>Node7</title>
<g id="a_Node000007"><a xlink:href="class_ramsey_1_1_uuid_1_1_rfc4122_1_1_nil_uuid.html" target="_top" xlink:title=" ">
<polygon fill="white" stroke="none" points="294,-81 252,-81 252,-32 294,-32 294,-81"/>
<text text-anchor="start" x="256.88" y="-67.5" font-family="Helvetica,sans-Serif" font-size="10.00">NilUuid</text>
<text text-anchor="start" x="271.5" y="-52.5" font-family="Helvetica,sans-Serif" font-size="10.00"> </text>
<text text-anchor="start" x="271.5" y="-37.5" font-family="Helvetica,sans-Serif" font-size="10.00"> </text>
<polygon fill="#666666" stroke="#666666" points="252,-64 252,-64 294,-64 294,-64 252,-64"/>
<polygon fill="#666666" stroke="#666666" points="252,-49 252,-49 294,-49 294,-49 252,-49"/>
<polygon fill="none" stroke="#666666" points="252,-32 252,-81 294,-81 294,-32 252,-32"/>
</a>
</g>
</g>
<!-- Node1&#45;&gt;Node7 -->
<g id="edge6_Node000001_Node000007" class="edge">
<title>Node1&#45;&gt;Node7</title>
<g id="a_edge6_Node000001_Node000007"><a xlink:title=" ">
<path fill="none" stroke="#63b8ff" d="M635.84,-170.35C547.51,-165.35 355.88,-150.41 303,-113 292.09,-105.28 284.77,-92.32 280.09,-80.86"/>
<polygon fill="none" stroke="#63b8ff" points="635.41,-173.83 645.58,-170.88 635.79,-166.84 635.41,-173.83"/>
</a>
</g>
</g>
<!-- Node8 -->
<g id="Node000008" class="node">
<title>Node8</title>
<g id="a_Node000008"><a xlink:href="class_ramsey_1_1_uuid_1_1_rfc4122_1_1_uuid_v1.html" target="_top" xlink:title=" ">
<polygon fill="white" stroke="none" points="546,-105.5 312,-105.5 312,-7.5 546,-7.5 546,-105.5"/>
<text text-anchor="start" x="412.88" y="-92" font-family="Helvetica,sans-Serif" font-size="10.00">UuidV1</text>
<text text-anchor="start" x="427.5" y="-77" font-family="Helvetica,sans-Serif" font-size="10.00"> </text>
<text text-anchor="start" x="316" y="-62" font-family="Helvetica,sans-Serif" font-size="10.00">+</text>
<text text-anchor="start" x="326" y="-62" font-family="Helvetica,sans-Serif" font-size="10.00">__construct(Rfc4122Fields</text>
<text text-anchor="start" x="326" y="-50.75" font-family="Helvetica,sans-Serif" font-size="10.00">Interface $fields, NumberConverter</text>
<text text-anchor="start" x="326" y="-39.5" font-family="Helvetica,sans-Serif" font-size="10.00">Interface $numberConverter, CodecInterface</text>
<text text-anchor="start" x="326" y="-28.25" font-family="Helvetica,sans-Serif" font-size="10.00"> $codec, TimeConverterInterface $timeConverter)</text>
<text text-anchor="start" x="316" y="-13" font-family="Helvetica,sans-Serif" font-size="10.00">+</text>
<text text-anchor="start" x="326" y="-13" font-family="Helvetica,sans-Serif" font-size="10.00">getDateTime()</text>
<polygon fill="#666666" stroke="#666666" points="312,-88.5 312,-88.5 546,-88.5 546,-88.5 312,-88.5"/>
<polygon fill="#666666" stroke="#666666" points="312,-73.5 312,-73.5 546,-73.5 546,-73.5 312,-73.5"/>
<polygon fill="none" stroke="#666666" points="312,-7.5 312,-105.5 546,-105.5 546,-7.5 312,-7.5"/>
</a>
</g>
</g>
<!-- Node1&#45;&gt;Node8 -->
<g id="edge7_Node000001_Node000008" class="edge">
<title>Node1&#45;&gt;Node8</title>
<g id="a_edge7_Node000001_Node000008"><a xlink:title=" ">
<path fill="none" stroke="#63b8ff" d="M636.6,-152.24C608.12,-139.24 569.87,-121.79 533.97,-105.4"/>
<polygon fill="none" stroke="#63b8ff" points="635.09,-155.39 645.64,-156.36 637.99,-149.03 635.09,-155.39"/>
</a>
</g>
</g>
<!-- Node9 -->
<g id="Node000009" class="node">
<title>Node9</title>
<g id="a_Node000009"><a xlink:href="class_ramsey_1_1_uuid_1_1_rfc4122_1_1_uuid_v2.html" target="_top" xlink:title=" ">
<polygon fill="white" stroke="none" points="798,-113 564,-113 564,0 798,0 798,-113"/>
<text text-anchor="start" x="664.88" y="-99.5" font-family="Helvetica,sans-Serif" font-size="10.00">UuidV2</text>
<text text-anchor="start" x="679.5" y="-84.5" font-family="Helvetica,sans-Serif" font-size="10.00"> </text>
<text text-anchor="start" x="568" y="-69.5" font-family="Helvetica,sans-Serif" font-size="10.00">+</text>
<text text-anchor="start" x="578" y="-69.5" font-family="Helvetica,sans-Serif" font-size="10.00">__construct(Rfc4122Fields</text>
<text text-anchor="start" x="578" y="-58.25" font-family="Helvetica,sans-Serif" font-size="10.00">Interface $fields, NumberConverter</text>
<text text-anchor="start" x="578" y="-47" font-family="Helvetica,sans-Serif" font-size="10.00">Interface $numberConverter, CodecInterface</text>
<text text-anchor="start" x="578" y="-35.75" font-family="Helvetica,sans-Serif" font-size="10.00"> $codec, TimeConverterInterface $timeConverter)</text>
<text text-anchor="start" x="568" y="-20.5" font-family="Helvetica,sans-Serif" font-size="10.00">+</text>
<text text-anchor="start" x="578" y="-20.5" font-family="Helvetica,sans-Serif" font-size="10.00">getDateTime()</text>
<text text-anchor="start" x="568" y="-5.5" font-family="Helvetica,sans-Serif" font-size="10.00">+</text>
<text text-anchor="start" x="578" y="-5.5" font-family="Helvetica,sans-Serif" font-size="10.00">getLocalDomainName()</text>
<polygon fill="#666666" stroke="#666666" points="564,-96 564,-96 798,-96 798,-96 564,-96"/>
<polygon fill="#666666" stroke="#666666" points="564,-81 564,-81 798,-81 798,-81 564,-81"/>
<polygon fill="none" stroke="#666666" points="564,0 564,-113 798,-113 798,0 564,0"/>
</a>
</g>
</g>
<!-- Node1&#45;&gt;Node9 -->
<g id="edge8_Node000001_Node000009" class="edge">
<title>Node1&#45;&gt;Node9</title>
<g id="a_edge8_Node000001_Node000009"><a xlink:title=" ">
<path fill="none" stroke="#63b8ff" d="M681,-137.78C681,-129.82 681,-121.17 681,-112.58"/>
<polygon fill="none" stroke="#63b8ff" points="677.5,-137.71 681,-147.71 684.5,-137.71 677.5,-137.71"/>
</a>
</g>
</g>
<!-- Node10 -->
<g id="Node000010" class="node">
<title>Node10</title>
<g id="a_Node000010"><a xlink:href="class_ramsey_1_1_uuid_1_1_rfc4122_1_1_uuid_v3.html" target="_top" xlink:title=" ">
<polygon fill="white" stroke="none" points="1050,-98 816,-98 816,-15 1050,-15 1050,-98"/>
<text text-anchor="start" x="916.88" y="-84.5" font-family="Helvetica,sans-Serif" font-size="10.00">UuidV3</text>
<text text-anchor="start" x="931.5" y="-69.5" font-family="Helvetica,sans-Serif" font-size="10.00"> </text>
<text text-anchor="start" x="820" y="-54.5" font-family="Helvetica,sans-Serif" font-size="10.00">+</text>
<text text-anchor="start" x="830" y="-54.5" font-family="Helvetica,sans-Serif" font-size="10.00">__construct(Rfc4122Fields</text>
<text text-anchor="start" x="830" y="-43.25" font-family="Helvetica,sans-Serif" font-size="10.00">Interface $fields, NumberConverter</text>
<text text-anchor="start" x="830" y="-32" font-family="Helvetica,sans-Serif" font-size="10.00">Interface $numberConverter, CodecInterface</text>
<text text-anchor="start" x="830" y="-20.75" font-family="Helvetica,sans-Serif" font-size="10.00"> $codec, TimeConverterInterface $timeConverter)</text>
<polygon fill="#666666" stroke="#666666" points="816,-81 816,-81 1050,-81 1050,-81 816,-81"/>
<polygon fill="#666666" stroke="#666666" points="816,-66 816,-66 1050,-66 1050,-66 816,-66"/>
<polygon fill="none" stroke="#666666" points="816,-15 816,-98 1050,-98 1050,-15 816,-15"/>
</a>
</g>
</g>
<!-- Node1&#45;&gt;Node10 -->
<g id="edge9_Node000001_Node000010" class="edge">
<title>Node1&#45;&gt;Node10</title>
<g id="a_edge9_Node000001_Node000010"><a xlink:title=" ">
<path fill="none" stroke="#63b8ff" d="M725.18,-152.34C758.05,-137.34 804.02,-116.36 844.37,-97.95"/>
<polygon fill="none" stroke="#63b8ff" points="724.01,-149.03 716.36,-156.36 726.91,-155.39 724.01,-149.03"/>
</a>
</g>
</g>
<!-- Node11 -->
<g id="Node000011" class="node">
<title>Node11</title>
<g id="a_Node000011"><a xlink:href="class_ramsey_1_1_uuid_1_1_rfc4122_1_1_uuid_v4.html" target="_top" xlink:title=" ">
<polygon fill="white" stroke="none" points="1302,-98 1068,-98 1068,-15 1302,-15 1302,-98"/>
<text text-anchor="start" x="1168.88" y="-84.5" font-family="Helvetica,sans-Serif" font-size="10.00">UuidV4</text>
<text text-anchor="start" x="1183.5" y="-69.5" font-family="Helvetica,sans-Serif" font-size="10.00"> </text>
<text text-anchor="start" x="1072" y="-54.5" font-family="Helvetica,sans-Serif" font-size="10.00">+</text>
<text text-anchor="start" x="1082" y="-54.5" font-family="Helvetica,sans-Serif" font-size="10.00">__construct(Rfc4122Fields</text>
<text text-anchor="start" x="1082" y="-43.25" font-family="Helvetica,sans-Serif" font-size="10.00">Interface $fields, NumberConverter</text>
<text text-anchor="start" x="1082" y="-32" font-family="Helvetica,sans-Serif" font-size="10.00">Interface $numberConverter, CodecInterface</text>
<text text-anchor="start" x="1082" y="-20.75" font-family="Helvetica,sans-Serif" font-size="10.00"> $codec, TimeConverterInterface $timeConverter)</text>
<polygon fill="#666666" stroke="#666666" points="1068,-81 1068,-81 1302,-81 1302,-81 1068,-81"/>
<polygon fill="#666666" stroke="#666666" points="1068,-66 1068,-66 1302,-66 1302,-66 1068,-66"/>
<polygon fill="none" stroke="#666666" points="1068,-15 1068,-98 1302,-98 1302,-15 1068,-15"/>
</a>
</g>
</g>
<!-- Node1&#45;&gt;Node11 -->
<g id="edge10_Node000001_Node000011" class="edge">
<title>Node1&#45;&gt;Node11</title>
<g id="a_edge10_Node000001_Node000011"><a xlink:title=" ">
<path fill="none" stroke="#63b8ff" d="M726.04,-169.2C797.74,-163.1 941.71,-147.43 1059,-113 1072.99,-108.89 1087.47,-103.59 1101.41,-97.9"/>
<polygon fill="none" stroke="#63b8ff" points="725.94,-165.69 716.26,-170 726.52,-172.67 725.94,-165.69"/>
</a>
</g>
</g>
<!-- Node12 -->
<g id="Node000012" class="node">
<title>Node12</title>
<g id="a_Node000012"><a xlink:href="class_ramsey_1_1_uuid_1_1_rfc4122_1_1_uuid_v5.html" target="_top" xlink:title=" ">
<polygon fill="white" stroke="none" points="1554,-98 1320,-98 1320,-15 1554,-15 1554,-98"/>
<text text-anchor="start" x="1420.88" y="-84.5" font-family="Helvetica,sans-Serif" font-size="10.00">UuidV5</text>
<text text-anchor="start" x="1435.5" y="-69.5" font-family="Helvetica,sans-Serif" font-size="10.00"> </text>
<text text-anchor="start" x="1324" y="-54.5" font-family="Helvetica,sans-Serif" font-size="10.00">+</text>
<text text-anchor="start" x="1334" y="-54.5" font-family="Helvetica,sans-Serif" font-size="10.00">__construct(Rfc4122Fields</text>
<text text-anchor="start" x="1334" y="-43.25" font-family="Helvetica,sans-Serif" font-size="10.00">Interface $fields, NumberConverter</text>
<text text-anchor="start" x="1334" y="-32" font-family="Helvetica,sans-Serif" font-size="10.00">Interface $numberConverter, CodecInterface</text>
<text text-anchor="start" x="1334" y="-20.75" font-family="Helvetica,sans-Serif" font-size="10.00"> $codec, TimeConverterInterface $timeConverter)</text>
<polygon fill="#666666" stroke="#666666" points="1320,-81 1320,-81 1554,-81 1554,-81 1320,-81"/>
<polygon fill="#666666" stroke="#666666" points="1320,-66 1320,-66 1554,-66 1554,-66 1320,-66"/>
<polygon fill="none" stroke="#666666" points="1320,-15 1320,-98 1554,-98 1554,-15 1320,-15"/>
</a>
</g>
</g>
<!-- Node1&#45;&gt;Node12 -->
<g id="edge11_Node000001_Node000012" class="edge">
<title>Node1&#45;&gt;Node12</title>
<g id="a_edge11_Node000001_Node000012"><a xlink:title=" ">
<path fill="none" stroke="#63b8ff" d="M726.15,-173.14C830.79,-173.57 1097.29,-168.6 1311,-113 1325.69,-109.18 1340.84,-103.84 1355.33,-97.97"/>
<polygon fill="none" stroke="#63b8ff" points="726.32,-169.64 716.29,-173.08 726.27,-176.64 726.32,-169.64"/>
</a>
</g>
</g>
<!-- Node2 -->
<g id="Node000002" class="node">
<title>Node2</title>
<g id="a_Node000002"><a xlink:href="interface_ramsey_1_1_uuid_1_1_uuid_interface.html" target="_top" xlink:title=" ">
<polygon fill="white" stroke="none" points="744.5,-399 617.5,-399 617.5,-234 744.5,-234 744.5,-399"/>
<text text-anchor="start" x="651.75" y="-385.5" font-family="Helvetica,sans-Serif" font-size="10.00">UuidInterface</text>
<text text-anchor="start" x="679.5" y="-370.5" font-family="Helvetica,sans-Serif" font-size="10.00"> </text>
<text text-anchor="start" x="621.5" y="-355.5" font-family="Helvetica,sans-Serif" font-size="10.00">+</text>
<text text-anchor="start" x="631.5" y="-355.5" font-family="Helvetica,sans-Serif" font-size="10.00">compareTo(UuidInterface</text>
<text text-anchor="start" x="631.5" y="-344.25" font-family="Helvetica,sans-Serif" font-size="10.00"> $other)</text>
<text text-anchor="start" x="621.5" y="-329.5" font-family="Helvetica,sans-Serif" font-size="10.00">+</text>
<text text-anchor="start" x="631.5" y="-329.5" font-family="Helvetica,sans-Serif" font-size="10.00">equals(?object $other)</text>
<text text-anchor="start" x="621.5" y="-314.5" font-family="Helvetica,sans-Serif" font-size="10.00">+</text>
<text text-anchor="start" x="631.5" y="-314.5" font-family="Helvetica,sans-Serif" font-size="10.00">getBytes()</text>
<text text-anchor="start" x="621.5" y="-299.5" font-family="Helvetica,sans-Serif" font-size="10.00">+</text>
<text text-anchor="start" x="631.5" y="-299.5" font-family="Helvetica,sans-Serif" font-size="10.00">getFields()</text>
<text text-anchor="start" x="621.5" y="-284.5" font-family="Helvetica,sans-Serif" font-size="10.00">+</text>
<text text-anchor="start" x="631.5" y="-284.5" font-family="Helvetica,sans-Serif" font-size="10.00">getHex()</text>
<text text-anchor="start" x="621.5" y="-269.5" font-family="Helvetica,sans-Serif" font-size="10.00">+</text>
<text text-anchor="start" x="631.5" y="-269.5" font-family="Helvetica,sans-Serif" font-size="10.00">getInteger()</text>
<text text-anchor="start" x="621.5" y="-254.5" font-family="Helvetica,sans-Serif" font-size="10.00">+</text>
<text text-anchor="start" x="631.5" y="-254.5" font-family="Helvetica,sans-Serif" font-size="10.00">toString()</text>
<text text-anchor="start" x="621.5" y="-239.5" font-family="Helvetica,sans-Serif" font-size="10.00">+</text>
<text text-anchor="start" x="631.5" y="-239.5" font-family="Helvetica,sans-Serif" font-size="10.00">__toString()</text>
<polygon fill="#666666" stroke="#666666" points="617.5,-382 617.5,-382 744.5,-382 744.5,-382 617.5,-382"/>
<polygon fill="#666666" stroke="#666666" points="617.5,-367 617.5,-367 744.5,-367 744.5,-367 617.5,-367"/>
<polygon fill="none" stroke="#666666" points="617.5,-234 617.5,-399 744.5,-399 744.5,-234 617.5,-234"/>
</a>
</g>
</g>
<!-- Node2&#45;&gt;Node1 -->
<g id="edge1_Node000001_Node000002" class="edge">
<title>Node2&#45;&gt;Node1</title>
<g id="a_edge1_Node000001_Node000002"><a xlink:title=" ">
<path fill="none" stroke="#63b8ff" d="M681,-222.9C681,-213.75 681,-205.15 681,-197.81"/>
<polygon fill="none" stroke="#63b8ff" points="677.5,-222.78 681,-232.78 684.5,-222.78 677.5,-222.78"/>
</a>
</g>
</g>
<!-- Node3 -->
<g id="Node000003" class="node">
<title>Node3</title>
<g id="a_Node000003"><a xlink:href="interface_ramsey_1_1_uuid_1_1_deprecated_uuid_interface.html" target="_top" xlink:title=" ">
<polygon fill="white" stroke="none" points="622.5,-656 479.5,-656 479.5,-435 622.5,-435 622.5,-656"/>
<text text-anchor="start" x="496.62" y="-642.5" font-family="Helvetica,sans-Serif" font-size="10.00">DeprecatedUuidInterface</text>
<text text-anchor="start" x="549.5" y="-627.5" font-family="Helvetica,sans-Serif" font-size="10.00"> </text>
<text text-anchor="start" x="483.5" y="-612.5" font-family="Helvetica,sans-Serif" font-size="10.00">+</text>
<text text-anchor="start" x="493.5" y="-612.5" font-family="Helvetica,sans-Serif" font-size="10.00">getNumberConverter()</text>
<text text-anchor="start" x="483.5" y="-597.5" font-family="Helvetica,sans-Serif" font-size="10.00">+</text>
<text text-anchor="start" x="493.5" y="-597.5" font-family="Helvetica,sans-Serif" font-size="10.00">getFieldsHex()</text>
<text text-anchor="start" x="483.5" y="-582.5" font-family="Helvetica,sans-Serif" font-size="10.00">+</text>
<text text-anchor="start" x="493.5" y="-582.5" font-family="Helvetica,sans-Serif" font-size="10.00">getClockSeqHiAndReserved</text>
<text text-anchor="start" x="493.5" y="-571.25" font-family="Helvetica,sans-Serif" font-size="10.00">Hex()</text>
<text text-anchor="start" x="483.5" y="-556.5" font-family="Helvetica,sans-Serif" font-size="10.00">+</text>
<text text-anchor="start" x="493.5" y="-556.5" font-family="Helvetica,sans-Serif" font-size="10.00">getClockSeqLowHex()</text>
<text text-anchor="start" x="483.5" y="-541.5" font-family="Helvetica,sans-Serif" font-size="10.00">+</text>
<text text-anchor="start" x="493.5" y="-541.5" font-family="Helvetica,sans-Serif" font-size="10.00">getClockSequenceHex()</text>
<text text-anchor="start" x="483.5" y="-526.5" font-family="Helvetica,sans-Serif" font-size="10.00">+</text>
<text text-anchor="start" x="493.5" y="-526.5" font-family="Helvetica,sans-Serif" font-size="10.00">getDateTime()</text>
<text text-anchor="start" x="483.5" y="-511.5" font-family="Helvetica,sans-Serif" font-size="10.00">+</text>
<text text-anchor="start" x="493.5" y="-511.5" font-family="Helvetica,sans-Serif" font-size="10.00">getLeastSignificantBits</text>
<text text-anchor="start" x="493.5" y="-500.25" font-family="Helvetica,sans-Serif" font-size="10.00">Hex()</text>
<text text-anchor="start" x="483.5" y="-485.5" font-family="Helvetica,sans-Serif" font-size="10.00">+</text>
<text text-anchor="start" x="493.5" y="-485.5" font-family="Helvetica,sans-Serif" font-size="10.00">getMostSignificantBitsHex()</text>
<text text-anchor="start" x="483.5" y="-470.5" font-family="Helvetica,sans-Serif" font-size="10.00">+</text>
<text text-anchor="start" x="493.5" y="-470.5" font-family="Helvetica,sans-Serif" font-size="10.00">getNodeHex()</text>
<text text-anchor="start" x="483.5" y="-455.5" font-family="Helvetica,sans-Serif" font-size="10.00">+</text>
<text text-anchor="start" x="493.5" y="-455.5" font-family="Helvetica,sans-Serif" font-size="10.00">getTimeHiAndVersionHex()</text>
<text text-anchor="start" x="493.5" y="-440.5" font-family="Helvetica,sans-Serif" font-size="10.00">et 6 de plus...</text>
<polygon fill="#666666" stroke="#666666" points="479.5,-639 479.5,-639 622.5,-639 622.5,-639 479.5,-639"/>
<polygon fill="#666666" stroke="#666666" points="479.5,-624 479.5,-624 622.5,-624 622.5,-624 479.5,-624"/>
<polygon fill="none" stroke="#666666" points="479.5,-435 479.5,-656 622.5,-656 622.5,-435 479.5,-435"/>
</a>
</g>
</g>
<!-- Node3&#45;&gt;Node2 -->
<g id="edge2_Node000002_Node000003" class="edge">
<title>Node3&#45;&gt;Node2</title>
<g id="a_edge2_Node000002_Node000003"><a xlink:title=" ">
<path fill="none" stroke="#63b8ff" d="M619.13,-425.54C624.28,-416.54 629.41,-407.58 634.39,-398.89"/>
<polygon fill="none" stroke="#63b8ff" points="616.21,-423.59 614.28,-434.01 622.28,-427.07 616.21,-423.59"/>
</a>
</g>
</g>
<!-- Node4 -->
<g id="Node000004" class="node">
<title>Node4</title>
<g id="a_Node000004"><a xlink:title=" ">
<polygon fill="white" stroke="none" points="721.5,-570 640.5,-570 640.5,-521 721.5,-521 721.5,-570"/>
<text text-anchor="start" x="645.38" y="-556.5" font-family="Helvetica,sans-Serif" font-size="10.00">JsonSerializable</text>
<text text-anchor="start" x="679.5" y="-541.5" font-family="Helvetica,sans-Serif" font-size="10.00"> </text>
<text text-anchor="start" x="679.5" y="-526.5" font-family="Helvetica,sans-Serif" font-size="10.00"> </text>
<polygon fill="#666666" stroke="#666666" points="640.5,-553 640.5,-553 721.5,-553 721.5,-553 640.5,-553"/>
<polygon fill="#666666" stroke="#666666" points="640.5,-538 640.5,-538 721.5,-538 721.5,-538 640.5,-538"/>
<polygon fill="none" stroke="#666666" points="640.5,-521 640.5,-570 721.5,-570 721.5,-521 640.5,-521"/>
</a>
</g>
</g>
<!-- Node4&#45;&gt;Node2 -->
<g id="edge3_Node000002_Node000004" class="edge">
<title>Node4&#45;&gt;Node2</title>
<g id="a_edge3_Node000002_Node000004"><a xlink:title=" ">
<path fill="none" stroke="#63b8ff" d="M681,-509.74C681,-480.29 681,-436.91 681,-398.81"/>
<polygon fill="none" stroke="#63b8ff" points="677.5,-509.55 681,-519.55 684.5,-509.55 677.5,-509.55"/>
</a>
</g>
</g>
<!-- Node5 -->
<g id="Node000005" class="node">
<title>Node5</title>
<g id="a_Node000005"><a xlink:title=" ">
<polygon fill="white" stroke="none" points="800,-570 740,-570 740,-521 800,-521 800,-570"/>
<text text-anchor="start" x="744.88" y="-556.5" font-family="Helvetica,sans-Serif" font-size="10.00">Serializable</text>
<text text-anchor="start" x="768.5" y="-541.5" font-family="Helvetica,sans-Serif" font-size="10.00"> </text>
<text text-anchor="start" x="768.5" y="-526.5" font-family="Helvetica,sans-Serif" font-size="10.00"> </text>
<polygon fill="#666666" stroke="#666666" points="740,-553 740,-553 800,-553 800,-553 740,-553"/>
<polygon fill="#666666" stroke="#666666" points="740,-538 740,-538 800,-538 800,-538 740,-538"/>
<polygon fill="none" stroke="#666666" points="740,-521 740,-570 800,-570 800,-521 740,-521"/>
</a>
</g>
</g>
<!-- Node5&#45;&gt;Node2 -->
<g id="edge4_Node000002_Node000005" class="edge">
<title>Node5&#45;&gt;Node2</title>
<g id="a_edge4_Node000002_Node000005"><a xlink:title=" ">
<path fill="none" stroke="#63b8ff" d="M758.52,-510.61C751.01,-488.88 740.81,-460.13 731,-435 726.4,-423.23 721.38,-410.87 716.34,-398.78"/>
<polygon fill="none" stroke="#63b8ff" points="755.13,-511.53 761.69,-519.85 761.75,-509.25 755.13,-511.53"/>
</a>
</g>
</g>
</g>
</svg>

<g id="navigator" transform="translate(0 0)" fill="#404254">
  <rect fill="#f2f5e9" fill-opacity="0.5" stroke="#606060" stroke-width=".5" x="0" y="0" width="60" height="60"/>
  <use id="zoomplus" xlink:href="#zoomPlus" x="17" y="9" onmousedown="handleZoom(evt,'in')"/>
  <use id="zoomminus" xlink:href="#zoomMin" x="42" y="9" onmousedown="handleZoom(evt,'out')"/>
  <use id="reset" xlink:href="#resetDef" x="30" y="36" onmousedown="handleReset()"/>
   <use id="arrowup" xlink:href="#arrowUp" x="0" y="0" onmousedown="handlePan(0,-1)"/>
  <use id="arrowright" xlink:href="#arrowRight" x="0" y="0" onmousedown="handlePan(1,0)"/>
  <use id="arrowdown" xlink:href="#arrowDown" x="0" y="0" onmousedown="handlePan(0,1)"/>
  <use id="arrowleft" xlink:href="#arrowLeft" x="0" y="0" onmousedown="handlePan(-1,0)"/>
</g>
<svg viewBox="0 0 15 15" width="100%" height="30px" preserveAspectRatio="xMaxYMin meet">
 <g id="arrow_out" transform="scale(0.3 0.3)">
  <a xlink:href="interface_ramsey_1_1_uuid_1_1_rfc4122_1_1_uuid_interface__inherit__graph_org.svg" target="_base">
   <rect id="button" ry="5" rx="5" y="6" x="6" height="38" width="38"
        fill="#f2f5e9" fill-opacity="0.5" stroke="#606060" stroke-width="1.0"/>
   <path id="arrow"
     d="M 11.500037,31.436501 C 11.940474,20.09759 22.043105,11.32322 32.158766,21.979434 L 37.068811,17.246167 C 37.068811,17.246167 37.088388,32 37.088388,32 L 22.160133,31.978069 C 22.160133,31.978069 26.997745,27.140456 26.997745,27.140456 C 18.528582,18.264221 13.291696,25.230495 11.500037,31.436501 z"
     style="fill:#404040;"/>
  </a>
 </g>
</svg>

<style type='text/css'>
<![CDATA[
[data-mouse-over-selected='false'] { opacity: 0.7; }
[data-mouse-over-selected='true']  { opacity: 1.0; }
]]>
</style>
<script type="application/ecmascript"><![CDATA[
document.addEventListener('DOMContentLoaded', (event) => {
  highlightEdges();
  highlightAdjacentNodes();
});
]]></script>
</svg>
