<?xml version="1.0" encoding="UTF-8" standalone="no"?>
<!DOCTYPE svg PUBLIC "-//W3C//DTD SVG 1.1//EN"
 "http://www.w3.org/Graphics/SVG/1.1/DTD/svg11.dtd">
<!-- Generated by graphviz version 10.0.1 (20240210.2158)
 -->
<!-- Title: TypeInterface Pages: 1 -->
<svg width="168pt" height="157pt"
 viewBox="0.00 0.00 167.50 157.00" xmlns="http://www.w3.org/2000/svg" xmlns:xlink="http://www.w3.org/1999/xlink">

<svg id="main" version="1.1" xmlns="http://www.w3.org/2000/svg" xmlns:xlink="http://www.w3.org/1999/xlink" xml:space="preserve" onload="init(evt)">
<style type="text/css"><![CDATA[
.node, .edge {opacity: 0.7;}
.node.selected, .edge.selected {opacity: 1;}
.edge:hover path { stroke: red; }
.edge:hover polygon { stroke: red; fill: red; }
]]></style>
<script type="application/ecmascript" xlink:href="svg.min.js"/>
<svg id="graph" class="graph">
<g id="graph0" class="graph" transform="scale(1 1) rotate(0) translate(4 153)">
<title>TypeInterface</title>
<!-- Node1 -->
<g id="Node000001" class="node">
<title>Node1</title>
<g id="a_Node000001"><a xlink:title=" ">
<polygon fill="#999999" stroke="none" points="119,-64 50,-64 50,0 119,0 119,-64"/>
<text text-anchor="start" x="54.88" y="-50.5" font-family="Helvetica,sans-Serif" font-size="10.00">TypeInterface</text>
<text text-anchor="start" x="83" y="-35.5" font-family="Helvetica,sans-Serif" font-size="10.00"> </text>
<text text-anchor="start" x="54" y="-20.5" font-family="Helvetica,sans-Serif" font-size="10.00">+</text>
<text text-anchor="start" x="64" y="-20.5" font-family="Helvetica,sans-Serif" font-size="10.00">toString()</text>
<text text-anchor="start" x="54" y="-5.5" font-family="Helvetica,sans-Serif" font-size="10.00">+</text>
<text text-anchor="start" x="64" y="-5.5" font-family="Helvetica,sans-Serif" font-size="10.00">__toString()</text>
<polygon fill="#666666" stroke="#666666" points="50,-47 50,-47 119,-47 119,-47 50,-47"/>
<polygon fill="#666666" stroke="#666666" points="50,-32 50,-32 119,-32 119,-32 50,-32"/>
<polygon fill="none" stroke="#666666" points="50,0 50,-64 119,-64 119,0 50,0"/>
</a>
</g>
</g>
<!-- Node2 -->
<g id="Node000002" class="node">
<title>Node2</title>
<g id="a_Node000002"><a xlink:title=" ">
<polygon fill="white" stroke="none" points="81,-149 0,-149 0,-100 81,-100 81,-149"/>
<text text-anchor="start" x="4.88" y="-135.5" font-family="Helvetica,sans-Serif" font-size="10.00">JsonSerializable</text>
<text text-anchor="start" x="39" y="-120.5" font-family="Helvetica,sans-Serif" font-size="10.00"> </text>
<text text-anchor="start" x="39" y="-105.5" font-family="Helvetica,sans-Serif" font-size="10.00"> </text>
<polygon fill="#666666" stroke="#666666" points="0,-132 0,-132 81,-132 81,-132 0,-132"/>
<polygon fill="#666666" stroke="#666666" points="0,-117 0,-117 81,-117 81,-117 0,-117"/>
<polygon fill="none" stroke="#666666" points="0,-100 0,-149 81,-149 81,-100 0,-100"/>
</a>
</g>
</g>
<!-- Node2&#45;&gt;Node1 -->
<g id="edge1_Node000001_Node000002" class="edge">
<title>Node2&#45;&gt;Node1</title>
<g id="a_edge1_Node000001_Node000002"><a xlink:title=" ">
<path fill="none" stroke="#63b8ff" d="M56.75,-90.08C60.94,-81.45 65.43,-72.22 69.56,-63.74"/>
<polygon fill="none" stroke="#63b8ff" points="53.72,-88.31 52.49,-98.83 60.01,-91.37 53.72,-88.31"/>
</a>
</g>
</g>
<!-- Node3 -->
<g id="Node000003" class="node">
<title>Node3</title>
<g id="a_Node000003"><a xlink:title=" ">
<polygon fill="white" stroke="none" points="159.5,-149 99.5,-149 99.5,-100 159.5,-100 159.5,-149"/>
<text text-anchor="start" x="104.38" y="-135.5" font-family="Helvetica,sans-Serif" font-size="10.00">Serializable</text>
<text text-anchor="start" x="128" y="-120.5" font-family="Helvetica,sans-Serif" font-size="10.00"> </text>
<text text-anchor="start" x="128" y="-105.5" font-family="Helvetica,sans-Serif" font-size="10.00"> </text>
<polygon fill="#666666" stroke="#666666" points="99.5,-132 99.5,-132 159.5,-132 159.5,-132 99.5,-132"/>
<polygon fill="#666666" stroke="#666666" points="99.5,-117 99.5,-117 159.5,-117 159.5,-117 99.5,-117"/>
<polygon fill="none" stroke="#666666" points="99.5,-100 99.5,-149 159.5,-149 159.5,-100 99.5,-100"/>
</a>
</g>
</g>
<!-- Node3&#45;&gt;Node1 -->
<g id="edge2_Node000001_Node000003" class="edge">
<title>Node3&#45;&gt;Node1</title>
<g id="a_edge2_Node000001_Node000003"><a xlink:title=" ">
<path fill="none" stroke="#63b8ff" d="M112.88,-90.08C108.59,-81.45 104,-72.22 99.78,-63.74"/>
<polygon fill="none" stroke="#63b8ff" points="109.65,-91.44 117.24,-98.84 115.92,-88.33 109.65,-91.44"/>
</a>
</g>
</g>
</g>
</svg>
</svg>

<style type='text/css'>
<![CDATA[
[data-mouse-over-selected='false'] { opacity: 0.7; }
[data-mouse-over-selected='true']  { opacity: 1.0; }
]]>
</style>
<script type="application/ecmascript"><![CDATA[
document.addEventListener('DOMContentLoaded', (event) => {
  highlightEdges();
  highlightAdjacentNodes();
});
]]></script>
</svg>
