<?xml version="1.0" encoding="UTF-8" standalone="no"?>
<!DOCTYPE svg PUBLIC "-//W3C//DTD SVG 1.1//EN"
 "http://www.w3.org/Graphics/SVG/1.1/DTD/svg11.dtd">
<!-- Generated by graphviz version 10.0.1 (20240210.2158)
 -->
<!-- Title: TypedMapInterface Pages: 1 -->
<!--zoomable 525 -->

<svg id="main" version="1.1" xmlns="http://www.w3.org/2000/svg" xmlns:xlink="http://www.w3.org/1999/xlink" xml:space="preserve" onload="init(evt)">
<style type="text/css"><![CDATA[
.node, .edge {opacity: 0.7;}
.node.selected, .edge.selected {opacity: 1;}
.edge:hover path { stroke: red; }
.edge:hover polygon { stroke: red; fill: red; }
]]></style>

<defs>
  <circle id="rim" cx="0" cy="0" r="7"/>
  <circle id="rim2" cx="0" cy="0" r="3.5"/>
  <g id="zoomPlus">
    <use xlink:href="#rim" fill="#404040"><set attributeName="fill" to="#808080" begin="zoomplus.mouseover" end="zoomplus.mouseout"/></use>
    <path d="M-4,0h8M0,-4v8" fill="none" stroke="white" stroke-width="1.5" pointer-events="none"/>
  </g>
  <g id="zoomMin">
    <use xlink:href="#rim" fill="#404040"><set attributeName="fill" to="#808080" begin="zoomminus.mouseover" end="zoomminus.mouseout"/></use>
    <path d="M-4,0h8" fill="none" stroke="white" stroke-width="1.5" pointer-events="none"/>
  </g>
  <g id="arrowUp" transform="translate(30 24)">
    <use xlink:href="#rim"/>
    <path pointer-events="none" fill="none" stroke="white" stroke-width="1.5" d="M0,-3.0v7 M-2.5,-0.5L0,-3.0L2.5,-0.5"/>
  </g>
  <g id="arrowRight" transform="rotate(90) translate(36 -43)">
    <use xlink:href="#rim"/>
    <path pointer-events="none" fill="none" stroke="white" stroke-width="1.5" d="M0,-3.0v7 M-2.5,-0.5L0,-3.0L2.5,-0.5"/>
  </g>
  <g id="arrowDown" transform="rotate(180) translate(-30 -48)">
    <use xlink:href="#rim"/>
    <path pointer-events="none" fill="none" stroke="white" stroke-width="1.5" d="M0,-3.0v7 M-2.5,-0.5L0,-3.0L2.5,-0.5"/>
  </g>
  <g id="arrowLeft" transform="rotate(270) translate(-36 17)">
    <use xlink:href="#rim"/>
    <path pointer-events="none" fill="none" stroke="white" stroke-width="1.5" d="M0,-3.0v7 M-2.5,-0.5L0,-3.0L2.5,-0.5"/>
  </g>
  <g id="resetDef">
    <use xlink:href="#rim2" fill="#404040"><set attributeName="fill" to="#808080" begin="reset.mouseover" end="reset.mouseout"/></use>
  </g>
</defs>
<script type="application/ecmascript">
var viewWidth = 328;
var viewHeight = 525;
var sectionId = 'dynsection-1';
</script>
<script type="application/ecmascript" xlink:href="svg.min.js"/>
<svg id="graph" class="graph">
<g id="viewport">
<title>TypedMapInterface</title>
<!-- Node1 -->
<g id="Node000001" class="node">
<title>Node1</title>
<g id="a_Node000001"><a xlink:title=" ">
<polygon fill="#999999" stroke="none" points="173.5,-64 80.5,-64 80.5,0 173.5,0 173.5,-64"/>
<text text-anchor="start" x="85.38" y="-50.5" font-family="Helvetica,sans-Serif" font-size="10.00">TypedMapInterface</text>
<text text-anchor="start" x="125.5" y="-35.5" font-family="Helvetica,sans-Serif" font-size="10.00"> </text>
<text text-anchor="start" x="87" y="-20.5" font-family="Helvetica,sans-Serif" font-size="10.00">+</text>
<text text-anchor="start" x="99.5" y="-20.5" font-family="Helvetica,sans-Serif" font-size="10.00">getKeyType()</text>
<text text-anchor="start" x="87" y="-5.5" font-family="Helvetica,sans-Serif" font-size="10.00">+</text>
<text text-anchor="start" x="99.5" y="-5.5" font-family="Helvetica,sans-Serif" font-size="10.00">getValueType()</text>
<polygon fill="#666666" stroke="#666666" points="80.5,-47 80.5,-47 173.5,-47 173.5,-47 80.5,-47"/>
<polygon fill="#666666" stroke="#666666" points="80.5,-32 80.5,-32 173.5,-32 173.5,-32 80.5,-32"/>
<polygon fill="none" stroke="#666666" points="80.5,0 80.5,-64 173.5,-64 173.5,0 80.5,0"/>
</a>
</g>
</g>
<!-- Node2 -->
<g id="Node000002" class="node">
<title>Node2</title>
<g id="a_Node000002"><a xlink:href="interface_ramsey_1_1_collection_1_1_map_1_1_map_interface.html" target="_top" xlink:title=" ">
<polygon fill="white" stroke="none" points="191.5,-317 62.5,-317 62.5,-100 191.5,-100 191.5,-317"/>
<text text-anchor="start" x="98.5" y="-303.5" font-family="Helvetica,sans-Serif" font-size="10.00">MapInterface</text>
<text text-anchor="start" x="125.5" y="-288.5" font-family="Helvetica,sans-Serif" font-size="10.00"> </text>
<text text-anchor="start" x="66.5" y="-273.5" font-family="Helvetica,sans-Serif" font-size="10.00">+</text>
<text text-anchor="start" x="76.5" y="-273.5" font-family="Helvetica,sans-Serif" font-size="10.00">containsKey($key)</text>
<text text-anchor="start" x="66.5" y="-258.5" font-family="Helvetica,sans-Serif" font-size="10.00">+</text>
<text text-anchor="start" x="76.5" y="-258.5" font-family="Helvetica,sans-Serif" font-size="10.00">containsValue($value)</text>
<text text-anchor="start" x="66.5" y="-243.5" font-family="Helvetica,sans-Serif" font-size="10.00">+</text>
<text text-anchor="start" x="76.5" y="-243.5" font-family="Helvetica,sans-Serif" font-size="10.00">keys()</text>
<text text-anchor="start" x="66.5" y="-228.5" font-family="Helvetica,sans-Serif" font-size="10.00">+</text>
<text text-anchor="start" x="76.5" y="-228.5" font-family="Helvetica,sans-Serif" font-size="10.00">get($key, $defaultValue</text>
<text text-anchor="start" x="76.5" y="-217.25" font-family="Helvetica,sans-Serif" font-size="10.00">=null)</text>
<text text-anchor="start" x="66.5" y="-202.5" font-family="Helvetica,sans-Serif" font-size="10.00">+</text>
<text text-anchor="start" x="76.5" y="-202.5" font-family="Helvetica,sans-Serif" font-size="10.00">put($key, $value)</text>
<text text-anchor="start" x="66.5" y="-187.5" font-family="Helvetica,sans-Serif" font-size="10.00">+</text>
<text text-anchor="start" x="76.5" y="-187.5" font-family="Helvetica,sans-Serif" font-size="10.00">putIfAbsent($key,</text>
<text text-anchor="start" x="76.5" y="-176.25" font-family="Helvetica,sans-Serif" font-size="10.00"> $value)</text>
<text text-anchor="start" x="66.5" y="-161.5" font-family="Helvetica,sans-Serif" font-size="10.00">+</text>
<text text-anchor="start" x="76.5" y="-161.5" font-family="Helvetica,sans-Serif" font-size="10.00">remove($key)</text>
<text text-anchor="start" x="66.5" y="-146.5" font-family="Helvetica,sans-Serif" font-size="10.00">+</text>
<text text-anchor="start" x="76.5" y="-146.5" font-family="Helvetica,sans-Serif" font-size="10.00">removeIf($key, $value)</text>
<text text-anchor="start" x="66.5" y="-131.5" font-family="Helvetica,sans-Serif" font-size="10.00">+</text>
<text text-anchor="start" x="76.5" y="-131.5" font-family="Helvetica,sans-Serif" font-size="10.00">replace($key, $value)</text>
<text text-anchor="start" x="66.5" y="-116.5" font-family="Helvetica,sans-Serif" font-size="10.00">+</text>
<text text-anchor="start" x="76.5" y="-116.5" font-family="Helvetica,sans-Serif" font-size="10.00">replaceIf($key, $oldValue,</text>
<text text-anchor="start" x="76.5" y="-105.25" font-family="Helvetica,sans-Serif" font-size="10.00"> $newValue)</text>
<polygon fill="#666666" stroke="#666666" points="62.5,-300 62.5,-300 191.5,-300 191.5,-300 62.5,-300"/>
<polygon fill="#666666" stroke="#666666" points="62.5,-285 62.5,-285 191.5,-285 191.5,-285 62.5,-285"/>
<polygon fill="none" stroke="#666666" points="62.5,-100 62.5,-317 191.5,-317 191.5,-100 62.5,-100"/>
</a>
</g>
</g>
<!-- Node2&#45;&gt;Node1 -->
<g id="edge1_Node000001_Node000002" class="edge">
<title>Node2&#45;&gt;Node1</title>
<g id="a_edge1_Node000001_Node000002"><a xlink:title=" ">
<path fill="none" stroke="#63b8ff" d="M120.65,-89.16C120.89,-80.07 121.24,-71.5 121.7,-63.92"/>
<polygon fill="none" stroke="#63b8ff" points="117.15,-88.88 120.44,-98.95 124.15,-89.03 117.15,-88.88"/>
</a>
</g>
</g>
<!-- Node2&#45;&gt;Node1 -->
<g id="edge10_Node000001_Node000002" class="edge">
<title>Node2&#45;&gt;Node1</title>
<g id="a_edge10_Node000001_Node000002"><a xlink:title=" ">
<path fill="none" stroke="#63b8ff" d="M133.35,-89.16C133.11,-80.07 132.76,-71.5 132.3,-63.92"/>
<polygon fill="none" stroke="#63b8ff" points="129.85,-89.03 133.56,-98.95 136.85,-88.88 129.85,-89.03"/>
</a>
</g>
</g>
<!-- Node3 -->
<g id="Node000003" class="node">
<title>Node3</title>
<g id="a_Node000003"><a xlink:href="interface_ramsey_1_1_collection_1_1_array_interface.html" target="_top" xlink:title=" ">
<polygon fill="white" stroke="none" points="162.5,-432 91.5,-432 91.5,-353 162.5,-353 162.5,-432"/>
<text text-anchor="start" x="96.25" y="-418.5" font-family="Helvetica,sans-Serif" font-size="10.00">ArrayInterface</text>
<text text-anchor="start" x="125.5" y="-403.5" font-family="Helvetica,sans-Serif" font-size="10.00"> </text>
<text text-anchor="start" x="98" y="-388.5" font-family="Helvetica,sans-Serif" font-size="10.00">+</text>
<text text-anchor="start" x="110.5" y="-388.5" font-family="Helvetica,sans-Serif" font-size="10.00">clear()</text>
<text text-anchor="start" x="98" y="-373.5" font-family="Helvetica,sans-Serif" font-size="10.00">+</text>
<text text-anchor="start" x="110.5" y="-373.5" font-family="Helvetica,sans-Serif" font-size="10.00">toArray()</text>
<text text-anchor="start" x="98" y="-358.5" font-family="Helvetica,sans-Serif" font-size="10.00">+</text>
<text text-anchor="start" x="110.5" y="-358.5" font-family="Helvetica,sans-Serif" font-size="10.00">isEmpty()</text>
<polygon fill="#666666" stroke="#666666" points="91.5,-415 91.5,-415 162.5,-415 162.5,-415 91.5,-415"/>
<polygon fill="#666666" stroke="#666666" points="91.5,-400 91.5,-400 162.5,-400 162.5,-400 91.5,-400"/>
<polygon fill="none" stroke="#666666" points="91.5,-353 91.5,-432 162.5,-432 162.5,-353 91.5,-353"/>
</a>
</g>
</g>
<!-- Node3&#45;&gt;Node2 -->
<g id="edge2_Node000002_Node000003" class="edge">
<title>Node3&#45;&gt;Node2</title>
<g id="a_edge2_Node000002_Node000003"><a xlink:title=" ">
<path fill="none" stroke="#63b8ff" d="M120.92,-342.11C120.65,-334.15 120.45,-325.64 120.35,-316.93"/>
<polygon fill="none" stroke="#63b8ff" points="117.41,-341.99 121.32,-351.83 124.41,-341.7 117.41,-341.99"/>
</a>
</g>
</g>
<!-- Node3&#45;&gt;Node2 -->
<g id="edge9_Node000002_Node000003" class="edge">
<title>Node3&#45;&gt;Node2</title>
<g id="a_edge9_Node000002_Node000003"><a xlink:title=" ">
<path fill="none" stroke="#63b8ff" d="M133.08,-342.11C133.35,-334.15 133.55,-325.64 133.65,-316.93"/>
<polygon fill="none" stroke="#63b8ff" points="129.59,-341.7 132.68,-351.83 136.59,-341.99 129.59,-341.7"/>
</a>
</g>
</g>
<!-- Node4 -->
<g id="Node000004" class="node">
<title>Node4</title>
<g id="a_Node000004"><a xlink:title=" ">
<polygon fill="white" stroke="none" points="66,-517 0,-517 0,-468 66,-468 66,-517"/>
<text text-anchor="start" x="4.88" y="-503.5" font-family="Helvetica,sans-Serif" font-size="10.00">ArrayAccess</text>
<text text-anchor="start" x="31.5" y="-488.5" font-family="Helvetica,sans-Serif" font-size="10.00"> </text>
<text text-anchor="start" x="31.5" y="-473.5" font-family="Helvetica,sans-Serif" font-size="10.00"> </text>
<polygon fill="#666666" stroke="#666666" points="0,-500 0,-500 66,-500 66,-500 0,-500"/>
<polygon fill="#666666" stroke="#666666" points="0,-485 0,-485 66,-485 66,-485 0,-485"/>
<polygon fill="none" stroke="#666666" points="0,-468 0,-517 66,-517 66,-468 0,-468"/>
</a>
</g>
</g>
<!-- Node4&#45;&gt;Node3 -->
<g id="edge3_Node000003_Node000004" class="edge">
<title>Node4&#45;&gt;Node3</title>
<g id="a_edge3_Node000003_Node000004"><a xlink:title=" ">
<path fill="none" stroke="#63b8ff" d="M57.1,-459.74C67.68,-448.14 80.25,-435.07 91.83,-423.62"/>
<polygon fill="none" stroke="#63b8ff" points="54.52,-457.37 50.45,-467.15 59.73,-462.05 54.52,-457.37"/>
</a>
</g>
</g>
<!-- Node4&#45;&gt;Node3 -->
<g id="edge5_Node000003_Node000004" class="edge">
<title>Node4&#45;&gt;Node3</title>
<g id="a_edge5_Node000003_Node000004"><a xlink:title=" ">
<path fill="none" stroke="#63b8ff" d="M69.52,-460.04C78.61,-451.02 88.22,-441.08 96.96,-431.71"/>
<polygon fill="none" stroke="#63b8ff" points="67.15,-457.47 62.46,-466.97 72.05,-462.47 67.15,-457.47"/>
</a>
</g>
</g>
<!-- Node5 -->
<g id="Node000005" class="node">
<title>Node5</title>
<g id="a_Node000005"><a xlink:title=" ">
<polygon fill="white" stroke="none" points="169.5,-517 84.5,-517 84.5,-468 169.5,-468 169.5,-517"/>
<text text-anchor="start" x="89.5" y="-503.5" font-family="Helvetica,sans-Serif" font-size="10.00">IteratorAggregate</text>
<text text-anchor="start" x="125.5" y="-488.5" font-family="Helvetica,sans-Serif" font-size="10.00"> </text>
<text text-anchor="start" x="125.5" y="-473.5" font-family="Helvetica,sans-Serif" font-size="10.00"> </text>
<polygon fill="#666666" stroke="#666666" points="84.5,-500 84.5,-500 169.5,-500 169.5,-500 84.5,-500"/>
<polygon fill="#666666" stroke="#666666" points="84.5,-485 84.5,-485 169.5,-485 169.5,-485 84.5,-485"/>
<polygon fill="none" stroke="#666666" points="84.5,-468 84.5,-517 169.5,-517 169.5,-468 84.5,-468"/>
</a>
</g>
</g>
<!-- Node5&#45;&gt;Node3 -->
<g id="edge4_Node000003_Node000005" class="edge">
<title>Node5&#45;&gt;Node3</title>
<g id="a_edge4_Node000003_Node000005"><a xlink:title=" ">
<path fill="none" stroke="#63b8ff" d="M120.52,-456.93C120.21,-448.83 120.17,-440.14 120.39,-431.88"/>
<polygon fill="none" stroke="#63b8ff" points="117.01,-456.98 121.07,-466.76 124,-456.58 117.01,-456.98"/>
</a>
</g>
</g>
<!-- Node5&#45;&gt;Node3 -->
<g id="edge7_Node000003_Node000005" class="edge">
<title>Node5&#45;&gt;Node3</title>
<g id="a_edge7_Node000003_Node000005"><a xlink:title=" ">
<path fill="none" stroke="#63b8ff" d="M133.48,-456.93C133.79,-448.83 133.83,-440.14 133.61,-431.88"/>
<polygon fill="none" stroke="#63b8ff" points="130,-456.58 132.93,-466.76 136.99,-456.98 130,-456.58"/>
</a>
</g>
</g>
<!-- Node6 -->
<g id="Node000006" class="node">
<title>Node6</title>
<g id="a_Node000006"><a xlink:title=" ">
<polygon fill="white" stroke="none" points="242,-517 188,-517 188,-468 242,-468 242,-517"/>
<text text-anchor="start" x="192.88" y="-503.5" font-family="Helvetica,sans-Serif" font-size="10.00">Countable</text>
<text text-anchor="start" x="213.5" y="-488.5" font-family="Helvetica,sans-Serif" font-size="10.00"> </text>
<text text-anchor="start" x="213.5" y="-473.5" font-family="Helvetica,sans-Serif" font-size="10.00"> </text>
<polygon fill="#666666" stroke="#666666" points="188,-500 188,-500 242,-500 242,-500 188,-500"/>
<polygon fill="#666666" stroke="#666666" points="188,-485 188,-485 242,-485 242,-485 188,-485"/>
<polygon fill="none" stroke="#666666" points="188,-468 188,-517 242,-517 242,-468 188,-468"/>
</a>
</g>
</g>
<!-- Node6&#45;&gt;Node3 -->
<g id="edge6_Node000003_Node000006" class="edge">
<title>Node6&#45;&gt;Node3</title>
<g id="a_edge6_Node000003_Node000006"><a xlink:title=" ">
<path fill="none" stroke="#63b8ff" d="M186.47,-459.73C178.5,-450.85 169.74,-441.1 161.46,-431.88"/>
<polygon fill="none" stroke="#63b8ff" points="183.85,-462.05 193.13,-467.15 189.06,-457.37 183.85,-462.05"/>
</a>
</g>
</g>
<!-- Node7 -->
<g id="Node000007" class="node">
<title>Node7</title>
<g id="a_Node000007"><a xlink:title=" ">
<polygon fill="white" stroke="none" points="320,-517 260,-517 260,-468 320,-468 320,-517"/>
<text text-anchor="start" x="264.88" y="-503.5" font-family="Helvetica,sans-Serif" font-size="10.00">Serializable</text>
<text text-anchor="start" x="288.5" y="-488.5" font-family="Helvetica,sans-Serif" font-size="10.00"> </text>
<text text-anchor="start" x="288.5" y="-473.5" font-family="Helvetica,sans-Serif" font-size="10.00"> </text>
<polygon fill="#666666" stroke="#666666" points="260,-500 260,-500 320,-500 320,-500 260,-500"/>
<polygon fill="#666666" stroke="#666666" points="260,-485 260,-485 320,-485 320,-485 260,-485"/>
<polygon fill="none" stroke="#666666" points="260,-468 260,-517 320,-517 320,-468 260,-468"/>
</a>
</g>
</g>
<!-- Node7&#45;&gt;Node3 -->
<g id="edge8_Node000003_Node000007" class="edge">
<title>Node7&#45;&gt;Node3</title>
<g id="a_edge8_Node000003_Node000007"><a xlink:title=" ">
<path fill="none" stroke="#63b8ff" d="M250.67,-467.81C215.57,-446.69 185.07,-428.36 162.28,-414.68"/>
<polygon fill="none" stroke="#63b8ff" points="248.52,-470.6 258.9,-472.75 252.13,-464.6 248.52,-470.6"/>
</a>
</g>
</g>
</g>
</svg>

<g id="navigator" transform="translate(0 0)" fill="#404254">
  <rect fill="#f2f5e9" fill-opacity="0.5" stroke="#606060" stroke-width=".5" x="0" y="0" width="60" height="60"/>
  <use id="zoomplus" xlink:href="#zoomPlus" x="17" y="9" onmousedown="handleZoom(evt,'in')"/>
  <use id="zoomminus" xlink:href="#zoomMin" x="42" y="9" onmousedown="handleZoom(evt,'out')"/>
  <use id="reset" xlink:href="#resetDef" x="30" y="36" onmousedown="handleReset()"/>
   <use id="arrowup" xlink:href="#arrowUp" x="0" y="0" onmousedown="handlePan(0,-1)"/>
  <use id="arrowright" xlink:href="#arrowRight" x="0" y="0" onmousedown="handlePan(1,0)"/>
  <use id="arrowdown" xlink:href="#arrowDown" x="0" y="0" onmousedown="handlePan(0,1)"/>
  <use id="arrowleft" xlink:href="#arrowLeft" x="0" y="0" onmousedown="handlePan(-1,0)"/>
</g>
<svg viewBox="0 0 15 15" width="100%" height="30px" preserveAspectRatio="xMaxYMin meet">
 <g id="arrow_out" transform="scale(0.3 0.3)">
  <a xlink:href="interface_ramsey_1_1_collection_1_1_map_1_1_typed_map_interface__coll__graph_org.svg" target="_base">
   <rect id="button" ry="5" rx="5" y="6" x="6" height="38" width="38"
        fill="#f2f5e9" fill-opacity="0.5" stroke="#606060" stroke-width="1.0"/>
   <path id="arrow"
     d="M 11.500037,31.436501 C 11.940474,20.09759 22.043105,11.32322 32.158766,21.979434 L 37.068811,17.246167 C 37.068811,17.246167 37.088388,32 37.088388,32 L 22.160133,31.978069 C 22.160133,31.978069 26.997745,27.140456 26.997745,27.140456 C 18.528582,18.264221 13.291696,25.230495 11.500037,31.436501 z"
     style="fill:#404040;"/>
  </a>
 </g>
</svg>

<style type='text/css'>
<![CDATA[
[data-mouse-over-selected='false'] { opacity: 0.7; }
[data-mouse-over-selected='true']  { opacity: 1.0; }
]]>
</style>
<script type="application/ecmascript"><![CDATA[
document.addEventListener('DOMContentLoaded', (event) => {
  highlightEdges();
  highlightAdjacentNodes();
});
]]></script>
</svg>
