<?xml version="1.0" encoding="UTF-8" standalone="no"?>
<!DOCTYPE svg PUBLIC "-//W3C//DTD SVG 1.1//EN"
 "http://www.w3.org/Graphics/SVG/1.1/DTD/svg11.dtd">
<!-- Generated by graphviz version 10.0.1 (20240210.2158)
 -->
<!-- Title: copyInto Pages: 1 -->
<svg width="358pt" height="27pt"
 viewBox="0.00 0.00 357.50 27.25" xmlns="http://www.w3.org/2000/svg" xmlns:xlink="http://www.w3.org/1999/xlink">
<g id="graph0" class="graph" transform="scale(1 1) rotate(0) translate(4 23.25)">
<title>copyInto</title>
<!-- Node1 -->
<g id="Node000001" class="node">
<title>Node1</title>
<g id="a_Node000001"><a xlink:title=" ">
<polygon fill="#999999" stroke="#666666" points="349.5,-19.25 296,-19.25 296,0 349.5,0 349.5,-19.25"/>
<text text-anchor="middle" x="322.75" y="-5.75" font-family="Helvetica,sans-Serif" font-size="10.00">copyInto</text>
</a>
</g>
</g>
<!-- Node2 -->
<g id="Node000002" class="node">
<title>Node2</title>
<g id="a_Node000002"><a xlink:href="class_sabre_1_1_d_a_v_1_1_tree.html#aa2158cb4ac7389d477139823c89a9b33" target="_top" xlink:title=" ">
<polygon fill="white" stroke="#666666" points="260,-19.25 149.5,-19.25 149.5,0 260,0 260,-19.25"/>
<text text-anchor="middle" x="204.75" y="-5.75" font-family="Helvetica,sans-Serif" font-size="10.00">Sabre\DAV\Tree\copy</text>
</a>
</g>
</g>
<!-- Node1&#45;&gt;Node2 -->
<g id="edge1_Node000001_Node000002" class="edge">
<title>Node1&#45;&gt;Node2</title>
<g id="a_edge1_Node000001_Node000002"><a xlink:title=" ">
<path fill="none" stroke="#63b8ff" d="M284.47,-9.62C276.72,-9.62 268.39,-9.62 260.17,-9.62"/>
<polygon fill="#63b8ff" stroke="#63b8ff" points="284.2,-13.13 294.2,-9.63 284.2,-6.13 284.2,-13.13"/>
</a>
</g>
</g>
<!-- Node3 -->
<g id="Node000003" class="node">
<title>Node3</title>
<g id="a_Node000003"><a xlink:href="class_sabre_1_1_d_a_v_1_1_tree.html#a091c1c1674edd72d58aa13aa51c20258" target="_top" xlink:title=" ">
<polygon fill="white" stroke="#666666" points="113.5,-19.25 0,-19.25 0,0 113.5,0 113.5,-19.25"/>
<text text-anchor="middle" x="56.75" y="-5.75" font-family="Helvetica,sans-Serif" font-size="10.00">Sabre\DAV\Tree\move</text>
</a>
</g>
</g>
<!-- Node2&#45;&gt;Node3 -->
<g id="edge2_Node000002_Node000003" class="edge">
<title>Node2&#45;&gt;Node3</title>
<g id="a_edge2_Node000002_Node000003"><a xlink:title=" ">
<path fill="none" stroke="#63b8ff" d="M138,-9.62C129.86,-9.62 121.6,-9.62 113.62,-9.62"/>
<polygon fill="#63b8ff" stroke="#63b8ff" points="137.87,-13.13 147.87,-9.63 137.87,-6.13 137.87,-13.13"/>
</a>
</g>
</g>
</g>
</svg>
