<?xml version="1.0" encoding="UTF-8" standalone="no"?>
<!DOCTYPE svg PUBLIC "-//W3C//DTD SVG 1.1//EN"
 "http://www.w3.org/Graphics/SVG/1.1/DTD/svg11.dtd">
<!-- Generated by graphviz version 10.0.1 (20240210.2158)
 -->
<!-- Title: SimplePie_Cache_Base Pages: 1 -->
<!--zoomable 601 -->

<svg id="main" version="1.1" xmlns="http://www.w3.org/2000/svg" xmlns:xlink="http://www.w3.org/1999/xlink" xml:space="preserve" onload="init(evt)">
<style type="text/css"><![CDATA[
.node, .edge {opacity: 0.7;}
.node.selected, .edge.selected {opacity: 1;}
.edge:hover path { stroke: red; }
.edge:hover polygon { stroke: red; fill: red; }
]]></style>

<defs>
  <circle id="rim" cx="0" cy="0" r="7"/>
  <circle id="rim2" cx="0" cy="0" r="3.5"/>
  <g id="zoomPlus">
    <use xlink:href="#rim" fill="#404040"><set attributeName="fill" to="#808080" begin="zoomplus.mouseover" end="zoomplus.mouseout"/></use>
    <path d="M-4,0h8M0,-4v8" fill="none" stroke="white" stroke-width="1.5" pointer-events="none"/>
  </g>
  <g id="zoomMin">
    <use xlink:href="#rim" fill="#404040"><set attributeName="fill" to="#808080" begin="zoomminus.mouseover" end="zoomminus.mouseout"/></use>
    <path d="M-4,0h8" fill="none" stroke="white" stroke-width="1.5" pointer-events="none"/>
  </g>
  <g id="arrowUp" transform="translate(30 24)">
    <use xlink:href="#rim"/>
    <path pointer-events="none" fill="none" stroke="white" stroke-width="1.5" d="M0,-3.0v7 M-2.5,-0.5L0,-3.0L2.5,-0.5"/>
  </g>
  <g id="arrowRight" transform="rotate(90) translate(36 -43)">
    <use xlink:href="#rim"/>
    <path pointer-events="none" fill="none" stroke="white" stroke-width="1.5" d="M0,-3.0v7 M-2.5,-0.5L0,-3.0L2.5,-0.5"/>
  </g>
  <g id="arrowDown" transform="rotate(180) translate(-30 -48)">
    <use xlink:href="#rim"/>
    <path pointer-events="none" fill="none" stroke="white" stroke-width="1.5" d="M0,-3.0v7 M-2.5,-0.5L0,-3.0L2.5,-0.5"/>
  </g>
  <g id="arrowLeft" transform="rotate(270) translate(-36 17)">
    <use xlink:href="#rim"/>
    <path pointer-events="none" fill="none" stroke="white" stroke-width="1.5" d="M0,-3.0v7 M-2.5,-0.5L0,-3.0L2.5,-0.5"/>
  </g>
  <g id="resetDef">
    <use xlink:href="#rim2" fill="#404040"><set attributeName="fill" to="#808080" begin="reset.mouseover" end="reset.mouseout"/></use>
  </g>
</defs>
<script type="application/ecmascript">
var viewWidth = 726;
var viewHeight = 601;
var sectionId = 'dynsection-0';
</script>
<script type="application/ecmascript" xlink:href="svg.min.js"/>
<svg id="graph" class="graph">
<g id="viewport">
<title>SimplePie_Cache_Base</title>
<!-- Node1 -->
<g id="Node000001" class="node">
<title>Node1</title>
<g id="a_Node000001"><a xlink:title=" ">
<polygon fill="#999999" stroke="none" points="404.5,-593 289.5,-593 289.5,-443 404.5,-443 404.5,-593"/>
<text text-anchor="start" x="294.12" y="-579.5" font-family="Helvetica,sans-Serif" font-size="10.00">SimplePie_Cache_Base</text>
<text text-anchor="start" x="293.5" y="-564.5" font-family="Helvetica,sans-Serif" font-size="10.00">+</text>
<text text-anchor="start" x="303.5" y="-564.5" font-family="Helvetica,sans-Serif" font-size="10.00">const TYPE_FEED</text>
<text text-anchor="start" x="293.5" y="-549.5" font-family="Helvetica,sans-Serif" font-size="10.00">+</text>
<text text-anchor="start" x="303.5" y="-549.5" font-family="Helvetica,sans-Serif" font-size="10.00">const TYPE_IMAGE</text>
<text text-anchor="start" x="293.5" y="-534.5" font-family="Helvetica,sans-Serif" font-size="10.00">+</text>
<text text-anchor="start" x="303.5" y="-534.5" font-family="Helvetica,sans-Serif" font-size="10.00">__construct($location,</text>
<text text-anchor="start" x="303.5" y="-523.25" font-family="Helvetica,sans-Serif" font-size="10.00"> $name, $type)</text>
<text text-anchor="start" x="293.5" y="-508.5" font-family="Helvetica,sans-Serif" font-size="10.00">+</text>
<text text-anchor="start" x="303.5" y="-508.5" font-family="Helvetica,sans-Serif" font-size="10.00">save($data)</text>
<text text-anchor="start" x="293.5" y="-493.5" font-family="Helvetica,sans-Serif" font-size="10.00">+</text>
<text text-anchor="start" x="303.5" y="-493.5" font-family="Helvetica,sans-Serif" font-size="10.00">load()</text>
<text text-anchor="start" x="293.5" y="-478.5" font-family="Helvetica,sans-Serif" font-size="10.00">+</text>
<text text-anchor="start" x="303.5" y="-478.5" font-family="Helvetica,sans-Serif" font-size="10.00">mtime()</text>
<text text-anchor="start" x="293.5" y="-463.5" font-family="Helvetica,sans-Serif" font-size="10.00">+</text>
<text text-anchor="start" x="303.5" y="-463.5" font-family="Helvetica,sans-Serif" font-size="10.00">touch()</text>
<text text-anchor="start" x="293.5" y="-448.5" font-family="Helvetica,sans-Serif" font-size="10.00">+</text>
<text text-anchor="start" x="303.5" y="-448.5" font-family="Helvetica,sans-Serif" font-size="10.00">unlink()</text>
<polygon fill="#666666" stroke="#666666" points="289.5,-576 289.5,-576 404.5,-576 404.5,-576 289.5,-576"/>
<polygon fill="#666666" stroke="#666666" points="289.5,-546 289.5,-546 301.5,-546 301.5,-546 289.5,-546"/>
<polygon fill="#666666" stroke="#666666" points="301.5,-546 301.5,-546 404.5,-546 404.5,-546 301.5,-546"/>
<polygon fill="none" stroke="#666666" points="289.5,-443 289.5,-593 404.5,-593 404.5,-443 289.5,-443"/>
</a>
</g>
</g>
<!-- Node2 -->
<g id="Node000002" class="node">
<title>Node2</title>
<g id="a_Node000002"><a xlink:href="class_simple_pie___cache___d_b.html" target="_top" xlink:title=" ">
<polygon fill="white" stroke="none" points="126,-334 0,-334 0,-274 126,-274 126,-334"/>
<text text-anchor="start" x="14.25" y="-320.5" font-family="Helvetica,sans-Serif" font-size="10.00">SimplePie_Cache_DB</text>
<text text-anchor="start" x="61.5" y="-305.5" font-family="Helvetica,sans-Serif" font-size="10.00"> </text>
<text text-anchor="start" x="3.88" y="-290.5" font-family="Helvetica,sans-Serif" font-size="10.00">#</text>
<text text-anchor="start" x="13" y="-290.5" font-family="Helvetica,sans-Serif" font-size="10.00">static prepare_simplepie</text>
<text text-anchor="start" x="13" y="-279.25" font-family="Helvetica,sans-Serif" font-size="10.00">_object_for_cache($data)</text>
<polygon fill="#666666" stroke="#666666" points="0,-317 0,-317 126,-317 126,-317 0,-317"/>
<polygon fill="#666666" stroke="#666666" points="0,-302 0,-302 126,-302 126,-302 0,-302"/>
<polygon fill="none" stroke="#666666" points="0,-274 0,-334 126,-334 126,-274 0,-274"/>
</a>
</g>
</g>
<!-- Node1&#45;&gt;Node2 -->
<g id="edge1_Node000001_Node000002" class="edge">
<title>Node1&#45;&gt;Node2</title>
<g id="a_edge1_Node000001_Node000002"><a xlink:title=" ">
<path fill="none" stroke="#63b8ff" d="M279.47,-491.82C235.13,-473.03 177.67,-444.22 135,-407 111.15,-386.2 91.09,-355.94 78.25,-333.79"/>
<polygon fill="none" stroke="#63b8ff" points="277.9,-494.95 288.47,-495.56 280.58,-488.49 277.9,-494.95"/>
</a>
</g>
</g>
<!-- Node4 -->
<g id="Node000004" class="node">
<title>Node4</title>
<g id="a_Node000004"><a xlink:href="class_simple_pie___cache___file.html" target="_top" xlink:title=" ">
<polygon fill="white" stroke="none" points="258,-394 144,-394 144,-214 258,-214 258,-394"/>
<text text-anchor="start" x="151.5" y="-380.5" font-family="Helvetica,sans-Serif" font-size="10.00">SimplePie_Cache_File</text>
<text text-anchor="start" x="148.38" y="-365.5" font-family="Helvetica,sans-Serif" font-size="10.00">#</text>
<text text-anchor="start" x="158" y="-365.5" font-family="Helvetica,sans-Serif" font-size="10.00">$location</text>
<text text-anchor="start" x="148.38" y="-350.5" font-family="Helvetica,sans-Serif" font-size="10.00">#</text>
<text text-anchor="start" x="158" y="-350.5" font-family="Helvetica,sans-Serif" font-size="10.00">$filename</text>
<text text-anchor="start" x="148.38" y="-335.5" font-family="Helvetica,sans-Serif" font-size="10.00">#</text>
<text text-anchor="start" x="158" y="-335.5" font-family="Helvetica,sans-Serif" font-size="10.00">$extension</text>
<text text-anchor="start" x="148.38" y="-320.5" font-family="Helvetica,sans-Serif" font-size="10.00">#</text>
<text text-anchor="start" x="158" y="-320.5" font-family="Helvetica,sans-Serif" font-size="10.00">$name</text>
<text text-anchor="start" x="148" y="-305.5" font-family="Helvetica,sans-Serif" font-size="10.00">+</text>
<text text-anchor="start" x="158" y="-305.5" font-family="Helvetica,sans-Serif" font-size="10.00">__construct($location,</text>
<text text-anchor="start" x="158" y="-294.25" font-family="Helvetica,sans-Serif" font-size="10.00"> $name, $type)</text>
<text text-anchor="start" x="148" y="-279.5" font-family="Helvetica,sans-Serif" font-size="10.00">+</text>
<text text-anchor="start" x="158" y="-279.5" font-family="Helvetica,sans-Serif" font-size="10.00">save($data)</text>
<text text-anchor="start" x="148" y="-264.5" font-family="Helvetica,sans-Serif" font-size="10.00">+</text>
<text text-anchor="start" x="158" y="-264.5" font-family="Helvetica,sans-Serif" font-size="10.00">load()</text>
<text text-anchor="start" x="148" y="-249.5" font-family="Helvetica,sans-Serif" font-size="10.00">+</text>
<text text-anchor="start" x="158" y="-249.5" font-family="Helvetica,sans-Serif" font-size="10.00">mtime()</text>
<text text-anchor="start" x="148" y="-234.5" font-family="Helvetica,sans-Serif" font-size="10.00">+</text>
<text text-anchor="start" x="158" y="-234.5" font-family="Helvetica,sans-Serif" font-size="10.00">touch()</text>
<text text-anchor="start" x="148" y="-219.5" font-family="Helvetica,sans-Serif" font-size="10.00">+</text>
<text text-anchor="start" x="158" y="-219.5" font-family="Helvetica,sans-Serif" font-size="10.00">unlink()</text>
<polygon fill="#666666" stroke="#666666" points="144,-377 144,-377 258,-377 258,-377 144,-377"/>
<polygon fill="#666666" stroke="#666666" points="144,-317 144,-317 156,-317 156,-317 144,-317"/>
<polygon fill="#666666" stroke="#666666" points="156,-317 156,-317 258,-317 258,-317 156,-317"/>
<polygon fill="none" stroke="#666666" points="144,-214 144,-394 258,-394 258,-214 144,-214"/>
</a>
</g>
</g>
<!-- Node1&#45;&gt;Node4 -->
<g id="edge3_Node000001_Node000004" class="edge">
<title>Node1&#45;&gt;Node4</title>
<g id="a_edge3_Node000001_Node000004"><a xlink:title=" ">
<path fill="none" stroke="#63b8ff" d="M286.63,-433.72C280.29,-424.73 273.98,-415.7 268,-407 264.7,-402.2 261.34,-397.25 257.96,-392.24"/>
<polygon fill="none" stroke="#63b8ff" points="283.73,-435.67 292.37,-441.8 289.44,-431.62 283.73,-435.67"/>
</a>
</g>
</g>
<!-- Node5 -->
<g id="Node000005" class="node">
<title>Node5</title>
<g id="a_Node000005"><a xlink:href="class_simple_pie___cache___memcache.html" target="_top" xlink:title=" ">
<polygon fill="white" stroke="none" points="417.5,-386.5 276.5,-386.5 276.5,-221.5 417.5,-221.5 417.5,-386.5"/>
<text text-anchor="start" x="281.38" y="-373" font-family="Helvetica,sans-Serif" font-size="10.00">SimplePie_Cache_Memcache</text>
<text text-anchor="start" x="287.38" y="-358" font-family="Helvetica,sans-Serif" font-size="10.00">#</text>
<text text-anchor="start" x="303.5" y="-358" font-family="Helvetica,sans-Serif" font-size="10.00">$cache</text>
<text text-anchor="start" x="287.38" y="-343" font-family="Helvetica,sans-Serif" font-size="10.00">#</text>
<text text-anchor="start" x="303.5" y="-343" font-family="Helvetica,sans-Serif" font-size="10.00">$options</text>
<text text-anchor="start" x="287.38" y="-328" font-family="Helvetica,sans-Serif" font-size="10.00">#</text>
<text text-anchor="start" x="303.5" y="-328" font-family="Helvetica,sans-Serif" font-size="10.00">$name</text>
<text text-anchor="start" x="287" y="-313" font-family="Helvetica,sans-Serif" font-size="10.00">+</text>
<text text-anchor="start" x="303.5" y="-313" font-family="Helvetica,sans-Serif" font-size="10.00">__construct($location,</text>
<text text-anchor="start" x="303.5" y="-301.75" font-family="Helvetica,sans-Serif" font-size="10.00"> $name, $type)</text>
<text text-anchor="start" x="287" y="-287" font-family="Helvetica,sans-Serif" font-size="10.00">+</text>
<text text-anchor="start" x="303.5" y="-287" font-family="Helvetica,sans-Serif" font-size="10.00">save($data)</text>
<text text-anchor="start" x="287" y="-272" font-family="Helvetica,sans-Serif" font-size="10.00">+</text>
<text text-anchor="start" x="303.5" y="-272" font-family="Helvetica,sans-Serif" font-size="10.00">load()</text>
<text text-anchor="start" x="287" y="-257" font-family="Helvetica,sans-Serif" font-size="10.00">+</text>
<text text-anchor="start" x="303.5" y="-257" font-family="Helvetica,sans-Serif" font-size="10.00">mtime()</text>
<text text-anchor="start" x="287" y="-242" font-family="Helvetica,sans-Serif" font-size="10.00">+</text>
<text text-anchor="start" x="303.5" y="-242" font-family="Helvetica,sans-Serif" font-size="10.00">touch()</text>
<text text-anchor="start" x="287" y="-227" font-family="Helvetica,sans-Serif" font-size="10.00">+</text>
<text text-anchor="start" x="303.5" y="-227" font-family="Helvetica,sans-Serif" font-size="10.00">unlink()</text>
<polygon fill="#666666" stroke="#666666" points="276.5,-369.5 276.5,-369.5 417.5,-369.5 417.5,-369.5 276.5,-369.5"/>
<polygon fill="#666666" stroke="#666666" points="276.5,-324.5 276.5,-324.5 301.5,-324.5 301.5,-324.5 276.5,-324.5"/>
<polygon fill="#666666" stroke="#666666" points="301.5,-324.5 301.5,-324.5 417.5,-324.5 417.5,-324.5 301.5,-324.5"/>
<polygon fill="none" stroke="#666666" points="276.5,-221.5 276.5,-386.5 417.5,-386.5 417.5,-221.5 276.5,-221.5"/>
</a>
</g>
</g>
<!-- Node1&#45;&gt;Node5 -->
<g id="edge4_Node000001_Node000005" class="edge">
<title>Node1&#45;&gt;Node5</title>
<g id="a_edge4_Node000001_Node000005"><a xlink:title=" ">
<path fill="none" stroke="#63b8ff" d="M347,-431.78C347,-416.74 347,-401.11 347,-386.18"/>
<polygon fill="none" stroke="#63b8ff" points="343.5,-431.64 347,-441.64 350.5,-431.64 343.5,-431.64"/>
</a>
</g>
</g>
<!-- Node6 -->
<g id="Node000006" class="node">
<title>Node6</title>
<g id="a_Node000006"><a xlink:href="class_simple_pie___cache___memcached.html" target="_top" xlink:title=" ">
<polygon fill="white" stroke="none" points="582,-386.5 436,-386.5 436,-221.5 582,-221.5 582,-386.5"/>
<text text-anchor="start" x="440.75" y="-373" font-family="Helvetica,sans-Serif" font-size="10.00">SimplePie_Cache_Memcached</text>
<text text-anchor="start" x="448.38" y="-358" font-family="Helvetica,sans-Serif" font-size="10.00">#</text>
<text text-anchor="start" x="466" y="-358" font-family="Helvetica,sans-Serif" font-size="10.00">$cache</text>
<text text-anchor="start" x="448.38" y="-343" font-family="Helvetica,sans-Serif" font-size="10.00">#</text>
<text text-anchor="start" x="466" y="-343" font-family="Helvetica,sans-Serif" font-size="10.00">$options</text>
<text text-anchor="start" x="448.38" y="-328" font-family="Helvetica,sans-Serif" font-size="10.00">#</text>
<text text-anchor="start" x="466" y="-328" font-family="Helvetica,sans-Serif" font-size="10.00">$name</text>
<text text-anchor="start" x="448" y="-313" font-family="Helvetica,sans-Serif" font-size="10.00">+</text>
<text text-anchor="start" x="466" y="-313" font-family="Helvetica,sans-Serif" font-size="10.00">__construct($location,</text>
<text text-anchor="start" x="466" y="-301.75" font-family="Helvetica,sans-Serif" font-size="10.00"> $name, $type)</text>
<text text-anchor="start" x="448" y="-287" font-family="Helvetica,sans-Serif" font-size="10.00">+</text>
<text text-anchor="start" x="466" y="-287" font-family="Helvetica,sans-Serif" font-size="10.00">save($data)</text>
<text text-anchor="start" x="448" y="-272" font-family="Helvetica,sans-Serif" font-size="10.00">+</text>
<text text-anchor="start" x="466" y="-272" font-family="Helvetica,sans-Serif" font-size="10.00">load()</text>
<text text-anchor="start" x="448" y="-257" font-family="Helvetica,sans-Serif" font-size="10.00">+</text>
<text text-anchor="start" x="466" y="-257" font-family="Helvetica,sans-Serif" font-size="10.00">mtime()</text>
<text text-anchor="start" x="448" y="-242" font-family="Helvetica,sans-Serif" font-size="10.00">+</text>
<text text-anchor="start" x="466" y="-242" font-family="Helvetica,sans-Serif" font-size="10.00">touch()</text>
<text text-anchor="start" x="448" y="-227" font-family="Helvetica,sans-Serif" font-size="10.00">+</text>
<text text-anchor="start" x="466" y="-227" font-family="Helvetica,sans-Serif" font-size="10.00">unlink()</text>
<polygon fill="#666666" stroke="#666666" points="436,-369.5 436,-369.5 582,-369.5 582,-369.5 436,-369.5"/>
<polygon fill="#666666" stroke="#666666" points="436,-324.5 436,-324.5 464,-324.5 464,-324.5 436,-324.5"/>
<polygon fill="#666666" stroke="#666666" points="464,-324.5 464,-324.5 582,-324.5 582,-324.5 464,-324.5"/>
<polygon fill="none" stroke="#666666" points="436,-221.5 436,-386.5 582,-386.5 582,-221.5 436,-221.5"/>
</a>
</g>
</g>
<!-- Node1&#45;&gt;Node6 -->
<g id="edge5_Node000001_Node000006" class="edge">
<title>Node1&#45;&gt;Node6</title>
<g id="a_edge5_Node000001_Node000006"><a xlink:title=" ">
<path fill="none" stroke="#63b8ff" d="M410.1,-434.43C422.21,-418.58 434.89,-401.99 446.96,-386.18"/>
<polygon fill="none" stroke="#63b8ff" points="407.64,-431.88 404.35,-441.95 413.2,-436.13 407.64,-431.88"/>
</a>
</g>
</g>
<!-- Node7 -->
<g id="Node000007" class="node">
<title>Node7</title>
<g id="a_Node000007"><a xlink:href="class_simple_pie___cache___redis.html" target="_top" xlink:title=" ">
<polygon fill="white" stroke="none" points="718,-407 600,-407 600,-201 718,-201 718,-407"/>
<text text-anchor="start" x="604.62" y="-393.5" font-family="Helvetica,sans-Serif" font-size="10.00">SimplePie_Cache_Redis</text>
<text text-anchor="start" x="604.38" y="-378.5" font-family="Helvetica,sans-Serif" font-size="10.00">#</text>
<text text-anchor="start" x="614" y="-378.5" font-family="Helvetica,sans-Serif" font-size="10.00">$cache</text>
<text text-anchor="start" x="604.38" y="-363.5" font-family="Helvetica,sans-Serif" font-size="10.00">#</text>
<text text-anchor="start" x="614" y="-363.5" font-family="Helvetica,sans-Serif" font-size="10.00">$options</text>
<text text-anchor="start" x="604.38" y="-348.5" font-family="Helvetica,sans-Serif" font-size="10.00">#</text>
<text text-anchor="start" x="614" y="-348.5" font-family="Helvetica,sans-Serif" font-size="10.00">$name</text>
<text text-anchor="start" x="604.38" y="-333.5" font-family="Helvetica,sans-Serif" font-size="10.00">#</text>
<text text-anchor="start" x="614" y="-333.5" font-family="Helvetica,sans-Serif" font-size="10.00">$data</text>
<text text-anchor="start" x="604" y="-318.5" font-family="Helvetica,sans-Serif" font-size="10.00">+</text>
<text text-anchor="start" x="614" y="-318.5" font-family="Helvetica,sans-Serif" font-size="10.00">__construct($location,</text>
<text text-anchor="start" x="614" y="-307.25" font-family="Helvetica,sans-Serif" font-size="10.00"> $name, $options=null)</text>
<text text-anchor="start" x="604" y="-292.5" font-family="Helvetica,sans-Serif" font-size="10.00">+</text>
<text text-anchor="start" x="614" y="-292.5" font-family="Helvetica,sans-Serif" font-size="10.00">setRedisClient(\Redis</text>
<text text-anchor="start" x="614" y="-281.25" font-family="Helvetica,sans-Serif" font-size="10.00"> $cache)</text>
<text text-anchor="start" x="604" y="-266.5" font-family="Helvetica,sans-Serif" font-size="10.00">+</text>
<text text-anchor="start" x="614" y="-266.5" font-family="Helvetica,sans-Serif" font-size="10.00">save($data)</text>
<text text-anchor="start" x="604" y="-251.5" font-family="Helvetica,sans-Serif" font-size="10.00">+</text>
<text text-anchor="start" x="614" y="-251.5" font-family="Helvetica,sans-Serif" font-size="10.00">load()</text>
<text text-anchor="start" x="604" y="-236.5" font-family="Helvetica,sans-Serif" font-size="10.00">+</text>
<text text-anchor="start" x="614" y="-236.5" font-family="Helvetica,sans-Serif" font-size="10.00">mtime()</text>
<text text-anchor="start" x="604" y="-221.5" font-family="Helvetica,sans-Serif" font-size="10.00">+</text>
<text text-anchor="start" x="614" y="-221.5" font-family="Helvetica,sans-Serif" font-size="10.00">touch()</text>
<text text-anchor="start" x="604" y="-206.5" font-family="Helvetica,sans-Serif" font-size="10.00">+</text>
<text text-anchor="start" x="614" y="-206.5" font-family="Helvetica,sans-Serif" font-size="10.00">unlink()</text>
<polygon fill="#666666" stroke="#666666" points="600,-390 600,-390 718,-390 718,-390 600,-390"/>
<polygon fill="#666666" stroke="#666666" points="600,-330 600,-330 612,-330 612,-330 600,-330"/>
<polygon fill="#666666" stroke="#666666" points="612,-330 612,-330 718,-330 718,-330 612,-330"/>
<polygon fill="none" stroke="#666666" points="600,-201 600,-407 718,-407 718,-201 600,-201"/>
</a>
</g>
</g>
<!-- Node1&#45;&gt;Node7 -->
<g id="edge6_Node000001_Node000007" class="edge">
<title>Node1&#45;&gt;Node7</title>
<g id="a_edge6_Node000001_Node000007"><a xlink:title=" ">
<path fill="none" stroke="#63b8ff" d="M415.16,-497.7C467.52,-480.33 539.38,-450.76 591,-407 594.25,-404.25 597.4,-401.3 600.46,-398.21"/>
<polygon fill="none" stroke="#63b8ff" points="414.17,-494.34 405.74,-500.75 416.33,-501 414.17,-494.34"/>
</a>
</g>
</g>
<!-- Node3 -->
<g id="Node000003" class="node">
<title>Node3</title>
<g id="a_Node000003"><a xlink:href="class_simple_pie___cache___my_s_q_l.html" target="_top" xlink:title=" ">
<polygon fill="white" stroke="none" points="126,-165 0,-165 0,0 126,0 126,-165"/>
<text text-anchor="start" x="4.88" y="-151.5" font-family="Helvetica,sans-Serif" font-size="10.00">SimplePie_Cache_MySQL</text>
<text text-anchor="start" x="7.38" y="-136.5" font-family="Helvetica,sans-Serif" font-size="10.00">#</text>
<text text-anchor="start" x="20" y="-136.5" font-family="Helvetica,sans-Serif" font-size="10.00">$mysql</text>
<text text-anchor="start" x="7.38" y="-121.5" font-family="Helvetica,sans-Serif" font-size="10.00">#</text>
<text text-anchor="start" x="20" y="-121.5" font-family="Helvetica,sans-Serif" font-size="10.00">$options</text>
<text text-anchor="start" x="7.38" y="-106.5" font-family="Helvetica,sans-Serif" font-size="10.00">#</text>
<text text-anchor="start" x="20" y="-106.5" font-family="Helvetica,sans-Serif" font-size="10.00">$id</text>
<text text-anchor="start" x="7" y="-91.5" font-family="Helvetica,sans-Serif" font-size="10.00">+</text>
<text text-anchor="start" x="20" y="-91.5" font-family="Helvetica,sans-Serif" font-size="10.00">__construct($location,</text>
<text text-anchor="start" x="20" y="-80.25" font-family="Helvetica,sans-Serif" font-size="10.00"> $name, $type)</text>
<text text-anchor="start" x="7" y="-65.5" font-family="Helvetica,sans-Serif" font-size="10.00">+</text>
<text text-anchor="start" x="20" y="-65.5" font-family="Helvetica,sans-Serif" font-size="10.00">save($data)</text>
<text text-anchor="start" x="7" y="-50.5" font-family="Helvetica,sans-Serif" font-size="10.00">+</text>
<text text-anchor="start" x="20" y="-50.5" font-family="Helvetica,sans-Serif" font-size="10.00">load()</text>
<text text-anchor="start" x="7" y="-35.5" font-family="Helvetica,sans-Serif" font-size="10.00">+</text>
<text text-anchor="start" x="20" y="-35.5" font-family="Helvetica,sans-Serif" font-size="10.00">mtime()</text>
<text text-anchor="start" x="7" y="-20.5" font-family="Helvetica,sans-Serif" font-size="10.00">+</text>
<text text-anchor="start" x="20" y="-20.5" font-family="Helvetica,sans-Serif" font-size="10.00">touch()</text>
<text text-anchor="start" x="7" y="-5.5" font-family="Helvetica,sans-Serif" font-size="10.00">+</text>
<text text-anchor="start" x="20" y="-5.5" font-family="Helvetica,sans-Serif" font-size="10.00">unlink()</text>
<polygon fill="#666666" stroke="#666666" points="0,-148 0,-148 126,-148 126,-148 0,-148"/>
<polygon fill="#666666" stroke="#666666" points="0,-103 0,-103 18,-103 18,-103 0,-103"/>
<polygon fill="#666666" stroke="#666666" points="18,-103 18,-103 126,-103 126,-103 18,-103"/>
<polygon fill="none" stroke="#666666" points="0,0 0,-165 126,-165 126,0 0,0"/>
</a>
</g>
</g>
<!-- Node2&#45;&gt;Node3 -->
<g id="edge2_Node000002_Node000003" class="edge">
<title>Node2&#45;&gt;Node3</title>
<g id="a_edge2_Node000002_Node000003"><a xlink:title=" ">
<path fill="none" stroke="#63b8ff" d="M63,-262.83C63,-235.42 63,-198.16 63,-164.7"/>
<polygon fill="none" stroke="#63b8ff" points="59.5,-262.79 63,-272.79 66.5,-262.79 59.5,-262.79"/>
</a>
</g>
</g>
</g>
</svg>

<g id="navigator" transform="translate(0 0)" fill="#404254">
  <rect fill="#f2f5e9" fill-opacity="0.5" stroke="#606060" stroke-width=".5" x="0" y="0" width="60" height="60"/>
  <use id="zoomplus" xlink:href="#zoomPlus" x="17" y="9" onmousedown="handleZoom(evt,'in')"/>
  <use id="zoomminus" xlink:href="#zoomMin" x="42" y="9" onmousedown="handleZoom(evt,'out')"/>
  <use id="reset" xlink:href="#resetDef" x="30" y="36" onmousedown="handleReset()"/>
   <use id="arrowup" xlink:href="#arrowUp" x="0" y="0" onmousedown="handlePan(0,-1)"/>
  <use id="arrowright" xlink:href="#arrowRight" x="0" y="0" onmousedown="handlePan(1,0)"/>
  <use id="arrowdown" xlink:href="#arrowDown" x="0" y="0" onmousedown="handlePan(0,1)"/>
  <use id="arrowleft" xlink:href="#arrowLeft" x="0" y="0" onmousedown="handlePan(-1,0)"/>
</g>
<svg viewBox="0 0 15 15" width="100%" height="30px" preserveAspectRatio="xMaxYMin meet">
 <g id="arrow_out" transform="scale(0.3 0.3)">
  <a xlink:href="interface_simple_pie___cache___base__inherit__graph_org.svg" target="_base">
   <rect id="button" ry="5" rx="5" y="6" x="6" height="38" width="38"
        fill="#f2f5e9" fill-opacity="0.5" stroke="#606060" stroke-width="1.0"/>
   <path id="arrow"
     d="M 11.500037,31.436501 C 11.940474,20.09759 22.043105,11.32322 32.158766,21.979434 L 37.068811,17.246167 C 37.068811,17.246167 37.088388,32 37.088388,32 L 22.160133,31.978069 C 22.160133,31.978069 26.997745,27.140456 26.997745,27.140456 C 18.528582,18.264221 13.291696,25.230495 11.500037,31.436501 z"
     style="fill:#404040;"/>
  </a>
 </g>
</svg>

<style type='text/css'>
<![CDATA[
[data-mouse-over-selected='false'] { opacity: 0.7; }
[data-mouse-over-selected='true']  { opacity: 1.0; }
]]>
</style>
<script type="application/ecmascript"><![CDATA[
document.addEventListener('DOMContentLoaded', (event) => {
  highlightEdges();
  highlightAdjacentNodes();
});
]]></script>
</svg>
