<?xml version="1.0" encoding="UTF-8" standalone="no"?>
<!DOCTYPE svg PUBLIC "-//W3C//DTD SVG 1.1//EN"
 "http://www.w3.org/Graphics/SVG/1.1/DTD/svg11.dtd">
<!-- Generated by graphviz version 10.0.1 (20240210.2158)
 -->
<!-- Title: write Pages: 1 -->
<!--zoomable 304 -->

<svg id="main" version="1.1" xmlns="http://www.w3.org/2000/svg" xmlns:xlink="http://www.w3.org/1999/xlink" xml:space="preserve" onload="init(evt)">
<style type="text/css"><![CDATA[
.node, .edge {opacity: 0.7;}
.node.selected, .edge.selected {opacity: 1;}
.edge:hover path { stroke: red; }
.edge:hover polygon { stroke: red; fill: red; }
]]></style>

<defs>
  <circle id="rim" cx="0" cy="0" r="7"/>
  <circle id="rim2" cx="0" cy="0" r="3.5"/>
  <g id="zoomPlus">
    <use xlink:href="#rim" fill="#404040"><set attributeName="fill" to="#808080" begin="zoomplus.mouseover" end="zoomplus.mouseout"/></use>
    <path d="M-4,0h8M0,-4v8" fill="none" stroke="white" stroke-width="1.5" pointer-events="none"/>
  </g>
  <g id="zoomMin">
    <use xlink:href="#rim" fill="#404040"><set attributeName="fill" to="#808080" begin="zoomminus.mouseover" end="zoomminus.mouseout"/></use>
    <path d="M-4,0h8" fill="none" stroke="white" stroke-width="1.5" pointer-events="none"/>
  </g>
  <g id="arrowUp" transform="translate(30 24)">
    <use xlink:href="#rim"/>
    <path pointer-events="none" fill="none" stroke="white" stroke-width="1.5" d="M0,-3.0v7 M-2.5,-0.5L0,-3.0L2.5,-0.5"/>
  </g>
  <g id="arrowRight" transform="rotate(90) translate(36 -43)">
    <use xlink:href="#rim"/>
    <path pointer-events="none" fill="none" stroke="white" stroke-width="1.5" d="M0,-3.0v7 M-2.5,-0.5L0,-3.0L2.5,-0.5"/>
  </g>
  <g id="arrowDown" transform="rotate(180) translate(-30 -48)">
    <use xlink:href="#rim"/>
    <path pointer-events="none" fill="none" stroke="white" stroke-width="1.5" d="M0,-3.0v7 M-2.5,-0.5L0,-3.0L2.5,-0.5"/>
  </g>
  <g id="arrowLeft" transform="rotate(270) translate(-36 17)">
    <use xlink:href="#rim"/>
    <path pointer-events="none" fill="none" stroke="white" stroke-width="1.5" d="M0,-3.0v7 M-2.5,-0.5L0,-3.0L2.5,-0.5"/>
  </g>
  <g id="resetDef">
    <use xlink:href="#rim2" fill="#404040"><set attributeName="fill" to="#808080" begin="reset.mouseover" end="reset.mouseout"/></use>
  </g>
</defs>
<script type="application/ecmascript">
var viewWidth = 646;
var viewHeight = 304;
var sectionId = 'dynsection-7';
</script>
<script type="application/ecmascript" xlink:href="svg.min.js"/>
<svg id="graph" class="graph">
<g id="viewport">
<title>write</title>
<!-- Node1 -->
<g id="Node000001" class="node">
<title>Node1</title>
<g id="a_Node000001"><a xlink:title=" ">
<polygon fill="#999999" stroke="#666666" points="637.75,-165.5 600.75,-165.5 600.75,-146.25 637.75,-146.25 637.75,-165.5"/>
<text text-anchor="middle" x="619.25" y="-152" font-family="Helvetica,sans-Serif" font-size="10.00">write</text>
</a>
</g>
</g>
<!-- Node2 -->
<g id="Node000002" class="node">
<title>Node2</title>
<g id="a_Node000002"><a xlink:href="class_symfony_1_1_component_1_1_console_1_1_command_1_1_dump_completion_command.html#ab31c72b72ddaf7116db5d84c055d3c0b" target="_top" xlink:title=" ">
<polygon fill="white" stroke="#666666" points="564.75,-295.75 377,-295.75 377,-254 564.75,-254 564.75,-295.75"/>
<text text-anchor="start" x="385" y="-282.25" font-family="Helvetica,sans-Serif" font-size="10.00">Symfony\Component\Console</text>
<text text-anchor="start" x="385" y="-271" font-family="Helvetica,sans-Serif" font-size="10.00">\Command\DumpCompletionCommand</text>
<text text-anchor="middle" x="470.88" y="-259.75" font-family="Helvetica,sans-Serif" font-size="10.00">\execute</text>
</a>
</g>
</g>
<!-- Node1&#45;&gt;Node2 -->
<g id="edge1_Node000001_Node000002" class="edge">
<title>Node1&#45;&gt;Node2</title>
<g id="a_edge1_Node000001_Node000002"><a xlink:title=" ">
<path fill="none" stroke="#63b8ff" d="M610.93,-176.28C602.69,-196.47 587.41,-226.88 564.75,-244.88 560.64,-248.14 556.16,-251.06 551.46,-253.66"/>
<polygon fill="#63b8ff" stroke="#63b8ff" points="614.12,-177.75 614.43,-167.16 607.58,-175.24 614.12,-177.75"/>
</a>
</g>
</g>
<!-- Node3 -->
<g id="Node000003" class="node">
<title>Node3</title>
<g id="a_Node000003"><a xlink:href="classwapmorgan_1_1_unified_archive_1_1_commands_1_1_test_command.html#ab31c72b72ddaf7116db5d84c055d3c0b" target="_top" xlink:title=" ">
<polygon fill="white" stroke="#666666" points="557.62,-236.12 384.12,-236.12 384.12,-205.62 557.62,-205.62 557.62,-236.12"/>
<text text-anchor="start" x="392.12" y="-222.62" font-family="Helvetica,sans-Serif" font-size="10.00">wapmorgan\UnifiedArchive</text>
<text text-anchor="middle" x="470.88" y="-211.38" font-family="Helvetica,sans-Serif" font-size="10.00">\Commands\TestCommand\execute</text>
</a>
</g>
</g>
<!-- Node1&#45;&gt;Node3 -->
<g id="edge2_Node000001_Node000003" class="edge">
<title>Node1&#45;&gt;Node3</title>
<g id="a_edge2_Node000001_Node000003"><a xlink:title=" ">
<path fill="none" stroke="#63b8ff" d="M596.69,-172.48C587.26,-179.17 575.84,-186.55 564.75,-191.88 554.24,-196.92 542.65,-201.35 531.33,-205.13"/>
<polygon fill="#63b8ff" stroke="#63b8ff" points="598.49,-175.5 604.47,-166.76 594.34,-169.86 598.49,-175.5"/>
</a>
</g>
</g>
<!-- Node4 -->
<g id="Node000004" class="node">
<title>Node4</title>
<g id="a_Node000004"><a xlink:href="class_symfony_1_1_component_1_1_console_1_1_helper_1_1_process_helper.html#afcead53299f32450578ab6746763fd83" target="_top" xlink:title=" ">
<polygon fill="white" stroke="#666666" points="341,-171.12 193.75,-171.12 193.75,-140.62 341,-140.62 341,-171.12"/>
<text text-anchor="start" x="201.75" y="-157.62" font-family="Helvetica,sans-Serif" font-size="10.00">Symfony\Component\Console</text>
<text text-anchor="middle" x="267.38" y="-146.38" font-family="Helvetica,sans-Serif" font-size="10.00">\Helper\ProcessHelper\run</text>
</a>
</g>
</g>
<!-- Node1&#45;&gt;Node4 -->
<g id="edge3_Node000001_Node000004" class="edge">
<title>Node1&#45;&gt;Node4</title>
<g id="a_edge3_Node000001_Node000004"><a xlink:title=" ">
<path fill="none" stroke="#63b8ff" d="M589.11,-157.81C581.21,-158.25 572.65,-158.65 564.75,-158.88 488.62,-161.01 401.46,-159.67 341.47,-158.17"/>
<polygon fill="#63b8ff" stroke="#63b8ff" points="589.14,-161.31 598.92,-157.22 588.72,-154.32 589.14,-161.31"/>
</a>
</g>
</g>
<!-- Node6 -->
<g id="Node000006" class="node">
<title>Node6</title>
<g id="a_Node000006"><a xlink:href="class_symfony_1_1_component_1_1_console_1_1_helper_1_1_process_helper.html#a363052ede1eb924e2604f398d7b6082d" target="_top" xlink:title=" ">
<polygon fill="white" stroke="#666666" points="559.5,-150.12 382.25,-150.12 382.25,-119.62 559.5,-119.62 559.5,-150.12"/>
<text text-anchor="start" x="390.25" y="-136.62" font-family="Helvetica,sans-Serif" font-size="10.00">Symfony\Component\Console</text>
<text text-anchor="middle" x="470.88" y="-125.38" font-family="Helvetica,sans-Serif" font-size="10.00">\Helper\ProcessHelper\wrapCallback</text>
</a>
</g>
</g>
<!-- Node1&#45;&gt;Node6 -->
<g id="edge5_Node000001_Node000006" class="edge">
<title>Node1&#45;&gt;Node6</title>
<g id="a_edge5_Node000001_Node000006"><a xlink:title=" ">
<path fill="none" stroke="#63b8ff" d="M588.97,-151.67C580.27,-150.43 570.25,-148.99 559.82,-147.49"/>
<polygon fill="#63b8ff" stroke="#63b8ff" points="588.41,-155.13 598.8,-153.09 589.4,-148.2 588.41,-155.13"/>
</a>
</g>
</g>
<!-- Node7 -->
<g id="Node000007" class="node">
<title>Node7</title>
<g id="a_Node000007"><a xlink:href="class_symfony_1_1_component_1_1_console_1_1_helper_1_1_question_helper.html#aff7ac10c46e2471c9a45578ef093fc6d" target="_top" xlink:title=" ">
<polygon fill="white" stroke="#666666" points="544.5,-101.75 397.25,-101.75 397.25,-60 544.5,-60 544.5,-101.75"/>
<text text-anchor="start" x="405.25" y="-88.25" font-family="Helvetica,sans-Serif" font-size="10.00">Symfony\Component\Console</text>
<text text-anchor="start" x="405.25" y="-77" font-family="Helvetica,sans-Serif" font-size="10.00">\Helper\QuestionHelper</text>
<text text-anchor="middle" x="470.88" y="-65.75" font-family="Helvetica,sans-Serif" font-size="10.00">\writePrompt</text>
</a>
</g>
</g>
<!-- Node1&#45;&gt;Node7 -->
<g id="edge7_Node000001_Node000007" class="edge">
<title>Node1&#45;&gt;Node7</title>
<g id="a_edge7_Node000001_Node000007"><a xlink:title=" ">
<path fill="none" stroke="#63b8ff" d="M600.75,-138.14C590.88,-128.96 577.92,-118.17 564.75,-110.88 558.38,-107.34 551.52,-104.15 544.53,-101.29"/>
<polygon fill="#63b8ff" stroke="#63b8ff" points="598.15,-140.5 607.78,-144.93 603.02,-135.46 598.15,-140.5"/>
</a>
</g>
</g>
<!-- Node8 -->
<g id="Node000008" class="node">
<title>Node8</title>
<g id="a_Node000008"><a xlink:href="class_symfony_1_1_component_1_1_console_1_1_helper_1_1_symfony_question_helper.html#aff7ac10c46e2471c9a45578ef093fc6d" target="_top" xlink:title=" ">
<polygon fill="white" stroke="#666666" points="549.38,-41.75 392.38,-41.75 392.38,0 549.38,0 549.38,-41.75"/>
<text text-anchor="start" x="400.38" y="-28.25" font-family="Helvetica,sans-Serif" font-size="10.00">Symfony\Component\Console</text>
<text text-anchor="start" x="400.38" y="-17" font-family="Helvetica,sans-Serif" font-size="10.00">\Helper\SymfonyQuestionHelper</text>
<text text-anchor="middle" x="470.88" y="-5.75" font-family="Helvetica,sans-Serif" font-size="10.00">\writePrompt</text>
</a>
</g>
</g>
<!-- Node1&#45;&gt;Node8 -->
<g id="edge8_Node000001_Node000008" class="edge">
<title>Node1&#45;&gt;Node8</title>
<g id="a_edge8_Node000001_Node000008"><a xlink:title=" ">
<path fill="none" stroke="#63b8ff" d="M612.87,-134.99C605.73,-111.32 590.87,-73.14 564.75,-50.88 560.11,-46.92 554.94,-43.48 549.47,-40.49"/>
<polygon fill="#63b8ff" stroke="#63b8ff" points="609.45,-135.74 615.51,-144.42 616.19,-133.85 609.45,-135.74"/>
</a>
</g>
</g>
<!-- Node5 -->
<g id="Node000005" class="node">
<title>Node5</title>
<g id="a_Node000005"><a xlink:href="class_symfony_1_1_component_1_1_console_1_1_helper_1_1_process_helper.html#a14e5dc6e17adc977f5963b162098d35f" target="_top" xlink:title=" ">
<polygon fill="white" stroke="#666666" points="157.75,-171.12 0,-171.12 0,-140.62 157.75,-140.62 157.75,-171.12"/>
<text text-anchor="start" x="8" y="-157.62" font-family="Helvetica,sans-Serif" font-size="10.00">Symfony\Component\Console</text>
<text text-anchor="middle" x="78.88" y="-146.38" font-family="Helvetica,sans-Serif" font-size="10.00">\Helper\ProcessHelper\mustRun</text>
</a>
</g>
</g>
<!-- Node4&#45;&gt;Node5 -->
<g id="edge4_Node000004_Node000005" class="edge">
<title>Node4&#45;&gt;Node5</title>
<g id="a_edge4_Node000004_Node000005"><a xlink:title=" ">
<path fill="none" stroke="#63b8ff" d="M182.16,-155.88C174.11,-155.88 165.96,-155.88 157.97,-155.88"/>
<polygon fill="#63b8ff" stroke="#63b8ff" points="181.95,-159.38 191.95,-155.88 181.95,-152.38 181.95,-159.38"/>
</a>
</g>
</g>
<!-- Node6&#45;&gt;Node4 -->
<g id="edge6_Node000006_Node000004" class="edge">
<title>Node6&#45;&gt;Node4</title>
<g id="a_edge6_Node000006_Node000004"><a xlink:title=" ">
<path fill="none" stroke="#63b8ff" d="M370.62,-145.22C360.7,-146.25 350.76,-147.29 341.19,-148.29"/>
<polygon fill="#63b8ff" stroke="#63b8ff" points="370.7,-148.73 380.28,-144.21 369.97,-141.77 370.7,-148.73"/>
</a>
</g>
</g>
</g>
</svg>

<g id="navigator" transform="translate(0 0)" fill="#404254">
  <rect fill="#f2f5e9" fill-opacity="0.5" stroke="#606060" stroke-width=".5" x="0" y="0" width="60" height="60"/>
  <use id="zoomplus" xlink:href="#zoomPlus" x="17" y="9" onmousedown="handleZoom(evt,'in')"/>
  <use id="zoomminus" xlink:href="#zoomMin" x="42" y="9" onmousedown="handleZoom(evt,'out')"/>
  <use id="reset" xlink:href="#resetDef" x="30" y="36" onmousedown="handleReset()"/>
   <use id="arrowup" xlink:href="#arrowUp" x="0" y="0" onmousedown="handlePan(0,-1)"/>
  <use id="arrowright" xlink:href="#arrowRight" x="0" y="0" onmousedown="handlePan(1,0)"/>
  <use id="arrowdown" xlink:href="#arrowDown" x="0" y="0" onmousedown="handlePan(0,1)"/>
  <use id="arrowleft" xlink:href="#arrowLeft" x="0" y="0" onmousedown="handlePan(-1,0)"/>
</g>
<svg viewBox="0 0 15 15" width="100%" height="30px" preserveAspectRatio="xMaxYMin meet">
 <g id="arrow_out" transform="scale(0.3 0.3)">
  <a xlink:href="interface_symfony_1_1_component_1_1_console_1_1_output_1_1_output_interface_ad943776a3207b259dc10e4c562b2aeea_icgraph_org.svg" target="_base">
   <rect id="button" ry="5" rx="5" y="6" x="6" height="38" width="38"
        fill="#f2f5e9" fill-opacity="0.5" stroke="#606060" stroke-width="1.0"/>
   <path id="arrow"
     d="M 11.500037,31.436501 C 11.940474,20.09759 22.043105,11.32322 32.158766,21.979434 L 37.068811,17.246167 C 37.068811,17.246167 37.088388,32 37.088388,32 L 22.160133,31.978069 C 22.160133,31.978069 26.997745,27.140456 26.997745,27.140456 C 18.528582,18.264221 13.291696,25.230495 11.500037,31.436501 z"
     style="fill:#404040;"/>
  </a>
 </g>
</svg>

<style type='text/css'>
<![CDATA[
[data-mouse-over-selected='false'] { opacity: 0.7; }
[data-mouse-over-selected='true']  { opacity: 1.0; }
]]>
</style>
<script type="application/ecmascript"><![CDATA[
document.addEventListener('DOMContentLoaded', (event) => {
  highlightEdges();
  highlightAdjacentNodes();
});
]]></script>
</svg>
