<?xml version="1.0" encoding="UTF-8" standalone="no"?>
<!DOCTYPE svg PUBLIC "-//W3C//DTD SVG 1.1//EN"
 "http://www.w3.org/Graphics/SVG/1.1/DTD/svg11.dtd">
<!-- Generated by graphviz version 10.0.1 (20240210.2158)
 -->
<!-- Title: isDebug Pages: 1 -->
<svg width="437pt" height="39pt"
 viewBox="0.00 0.00 437.00 38.50" xmlns="http://www.w3.org/2000/svg" xmlns:xlink="http://www.w3.org/1999/xlink">
<g id="graph0" class="graph" transform="scale(1 1) rotate(0) translate(4 34.5)">
<title>isDebug</title>
<!-- Node1 -->
<g id="Node000001" class="node">
<title>Node1</title>
<g id="a_Node000001"><a xlink:title=" ">
<polygon fill="#999999" stroke="#666666" points="429,-24.88 377,-24.88 377,-5.63 429,-5.63 429,-24.88"/>
<text text-anchor="middle" x="403" y="-11.38" font-family="Helvetica,sans-Serif" font-size="10.00">isDebug</text>
</a>
</g>
</g>
<!-- Node2 -->
<g id="Node000002" class="node">
<title>Node2</title>
<g id="a_Node000002"><a xlink:href="class_symfony_1_1_component_1_1_console_1_1_helper_1_1_process_helper.html#afcead53299f32450578ab6746763fd83" target="_top" xlink:title=" ">
<polygon fill="white" stroke="#666666" points="341,-30.5 193.75,-30.5 193.75,0 341,0 341,-30.5"/>
<text text-anchor="start" x="201.75" y="-17" font-family="Helvetica,sans-Serif" font-size="10.00">Symfony\Component\Console</text>
<text text-anchor="middle" x="267.38" y="-5.75" font-family="Helvetica,sans-Serif" font-size="10.00">\Helper\ProcessHelper\run</text>
</a>
</g>
</g>
<!-- Node1&#45;&gt;Node2 -->
<g id="edge1_Node000001_Node000002" class="edge">
<title>Node1&#45;&gt;Node2</title>
<g id="a_edge1_Node000001_Node000002"><a xlink:title=" ">
<path fill="none" stroke="#63b8ff" d="M365.06,-15.25C357.61,-15.25 349.53,-15.25 341.33,-15.25"/>
<polygon fill="#63b8ff" stroke="#63b8ff" points="365.04,-18.75 375.04,-15.25 365.04,-11.75 365.04,-18.75"/>
</a>
</g>
</g>
<!-- Node3 -->
<g id="Node000003" class="node">
<title>Node3</title>
<g id="a_Node000003"><a xlink:href="class_symfony_1_1_component_1_1_console_1_1_helper_1_1_process_helper.html#a14e5dc6e17adc977f5963b162098d35f" target="_top" xlink:title=" ">
<polygon fill="white" stroke="#666666" points="157.75,-30.5 0,-30.5 0,0 157.75,0 157.75,-30.5"/>
<text text-anchor="start" x="8" y="-17" font-family="Helvetica,sans-Serif" font-size="10.00">Symfony\Component\Console</text>
<text text-anchor="middle" x="78.88" y="-5.75" font-family="Helvetica,sans-Serif" font-size="10.00">\Helper\ProcessHelper\mustRun</text>
</a>
</g>
</g>
<!-- Node2&#45;&gt;Node3 -->
<g id="edge2_Node000002_Node000003" class="edge">
<title>Node2&#45;&gt;Node3</title>
<g id="a_edge2_Node000002_Node000003"><a xlink:title=" ">
<path fill="none" stroke="#63b8ff" d="M182.16,-15.25C174.11,-15.25 165.96,-15.25 157.97,-15.25"/>
<polygon fill="#63b8ff" stroke="#63b8ff" points="181.95,-18.75 191.95,-15.25 181.95,-11.75 181.95,-18.75"/>
</a>
</g>
</g>
</g>
</svg>
