<?xml version="1.0" encoding="UTF-8" standalone="no"?>
<!DOCTYPE svg PUBLIC "-//W3C//DTD SVG 1.1//EN"
 "http://www.w3.org/Graphics/SVG/1.1/DTD/svg11.dtd">
<!-- Generated by graphviz version 10.0.1 (20240210.2158)
 -->
<!-- Title: Exception Pages: 1 -->
<svg width="63pt" height="142pt"
 viewBox="0.00 0.00 63.00 142.00" xmlns="http://www.w3.org/2000/svg" xmlns:xlink="http://www.w3.org/1999/xlink">
<g id="graph0" class="graph" transform="scale(1 1) rotate(0) translate(4 138)">
<title>Exception</title>
<!-- Node1 -->
<g id="Node000001" class="node">
<title>Node1</title>
<g id="a_Node000001"><a xlink:title=" ">
<polygon fill="#999999" stroke="none" points="54,-49 1,-49 1,0 54,0 54,-49"/>
<text text-anchor="start" x="5.75" y="-35.5" font-family="Helvetica,sans-Serif" font-size="10.00">Exception</text>
<text text-anchor="start" x="26" y="-20.5" font-family="Helvetica,sans-Serif" font-size="10.00"> </text>
<text text-anchor="start" x="26" y="-5.5" font-family="Helvetica,sans-Serif" font-size="10.00"> </text>
<polygon fill="#666666" stroke="#666666" points="1,-32 1,-32 54,-32 54,-32 1,-32"/>
<polygon fill="#666666" stroke="#666666" points="1,-17 1,-17 54,-17 54,-17 1,-17"/>
<polygon fill="none" stroke="#666666" points="1,0 1,-49 54,-49 54,0 1,0"/>
</a>
</g>
</g>
<!-- Node2 -->
<g id="Node000002" class="node">
<title>Node2</title>
<g id="a_Node000002"><a xlink:title=" ">
<polygon fill="white" stroke="none" points="55,-134 0,-134 0,-85 55,-85 55,-134"/>
<text text-anchor="start" x="5" y="-120.5" font-family="Helvetica,sans-Serif" font-size="10.00">Throwable</text>
<text text-anchor="start" x="26" y="-105.5" font-family="Helvetica,sans-Serif" font-size="10.00"> </text>
<text text-anchor="start" x="26" y="-90.5" font-family="Helvetica,sans-Serif" font-size="10.00"> </text>
<polygon fill="#666666" stroke="#666666" points="0,-117 0,-117 55,-117 55,-117 0,-117"/>
<polygon fill="#666666" stroke="#666666" points="0,-102 0,-102 55,-102 55,-102 0,-102"/>
<polygon fill="none" stroke="#666666" points="0,-85 0,-134 55,-134 55,-85 0,-85"/>
</a>
</g>
</g>
<!-- Node2&#45;&gt;Node1 -->
<g id="edge1_Node000001_Node000002" class="edge">
<title>Node2&#45;&gt;Node1</title>
<g id="a_edge1_Node000001_Node000002"><a xlink:title=" ">
<path fill="none" stroke="#63b8ff" d="M27.5,-74.14C27.5,-65.6 27.5,-56.65 27.5,-48.78"/>
<polygon fill="none" stroke="#63b8ff" points="24,-73.87 27.5,-83.87 31,-73.87 24,-73.87"/>
</a>
</g>
</g>
</g>
</svg>
