<?xml version="1.0" encoding="UTF-8" standalone="no"?>
<!DOCTYPE svg PUBLIC "-//W3C//DTD SVG 1.1//EN"
 "http://www.w3.org/Graphics/SVG/1.1/DTD/svg11.dtd">
<!-- Generated by graphviz version 10.0.1 (20240210.2158)
 -->
<!-- Title: ConsoleOutputInterface Pages: 1 -->
<!--zoomable 590 -->

<svg id="main" version="1.1" xmlns="http://www.w3.org/2000/svg" xmlns:xlink="http://www.w3.org/1999/xlink" xml:space="preserve" onload="init(evt)">
<style type="text/css"><![CDATA[
.node, .edge {opacity: 0.7;}
.node.selected, .edge.selected {opacity: 1;}
.edge:hover path { stroke: red; }
.edge:hover polygon { stroke: red; fill: red; }
]]></style>

<defs>
  <circle id="rim" cx="0" cy="0" r="7"/>
  <circle id="rim2" cx="0" cy="0" r="3.5"/>
  <g id="zoomPlus">
    <use xlink:href="#rim" fill="#404040"><set attributeName="fill" to="#808080" begin="zoomplus.mouseover" end="zoomplus.mouseout"/></use>
    <path d="M-4,0h8M0,-4v8" fill="none" stroke="white" stroke-width="1.5" pointer-events="none"/>
  </g>
  <g id="zoomMin">
    <use xlink:href="#rim" fill="#404040"><set attributeName="fill" to="#808080" begin="zoomminus.mouseover" end="zoomminus.mouseout"/></use>
    <path d="M-4,0h8" fill="none" stroke="white" stroke-width="1.5" pointer-events="none"/>
  </g>
  <g id="arrowUp" transform="translate(30 24)">
    <use xlink:href="#rim"/>
    <path pointer-events="none" fill="none" stroke="white" stroke-width="1.5" d="M0,-3.0v7 M-2.5,-0.5L0,-3.0L2.5,-0.5"/>
  </g>
  <g id="arrowRight" transform="rotate(90) translate(36 -43)">
    <use xlink:href="#rim"/>
    <path pointer-events="none" fill="none" stroke="white" stroke-width="1.5" d="M0,-3.0v7 M-2.5,-0.5L0,-3.0L2.5,-0.5"/>
  </g>
  <g id="arrowDown" transform="rotate(180) translate(-30 -48)">
    <use xlink:href="#rim"/>
    <path pointer-events="none" fill="none" stroke="white" stroke-width="1.5" d="M0,-3.0v7 M-2.5,-0.5L0,-3.0L2.5,-0.5"/>
  </g>
  <g id="arrowLeft" transform="rotate(270) translate(-36 17)">
    <use xlink:href="#rim"/>
    <path pointer-events="none" fill="none" stroke="white" stroke-width="1.5" d="M0,-3.0v7 M-2.5,-0.5L0,-3.0L2.5,-0.5"/>
  </g>
  <g id="resetDef">
    <use xlink:href="#rim2" fill="#404040"><set attributeName="fill" to="#808080" begin="reset.mouseover" end="reset.mouseout"/></use>
  </g>
</defs>
<script type="application/ecmascript">
var viewWidth = 235;
var viewHeight = 590;
var sectionId = 'dynsection-1';
</script>
<script type="application/ecmascript" xlink:href="svg.min.js"/>
<svg id="graph" class="graph">
<g id="viewport">
<title>ConsoleOutputInterface</title>
<!-- Node1 -->
<g id="Node000001" class="node">
<title>Node1</title>
<g id="a_Node000001"><a xlink:title=" ">
<polygon fill="#999999" stroke="none" points="152,-90 0,-90 0,0 152,0 152,-90"/>
<text text-anchor="start" x="24.25" y="-76.5" font-family="Helvetica,sans-Serif" font-size="10.00">ConsoleOutputInterface</text>
<text text-anchor="start" x="74.5" y="-61.5" font-family="Helvetica,sans-Serif" font-size="10.00"> </text>
<text text-anchor="start" x="4" y="-46.5" font-family="Helvetica,sans-Serif" font-size="10.00">+</text>
<text text-anchor="start" x="14" y="-46.5" font-family="Helvetica,sans-Serif" font-size="10.00">getErrorOutput()</text>
<text text-anchor="start" x="4" y="-31.5" font-family="Helvetica,sans-Serif" font-size="10.00">+</text>
<text text-anchor="start" x="14" y="-31.5" font-family="Helvetica,sans-Serif" font-size="10.00">setErrorOutput(OutputInterface</text>
<text text-anchor="start" x="14" y="-20.25" font-family="Helvetica,sans-Serif" font-size="10.00"> $error)</text>
<text text-anchor="start" x="4" y="-5.5" font-family="Helvetica,sans-Serif" font-size="10.00">+</text>
<text text-anchor="start" x="14" y="-5.5" font-family="Helvetica,sans-Serif" font-size="10.00">section()</text>
<polygon fill="#666666" stroke="#666666" points="0,-73 0,-73 152,-73 152,-73 0,-73"/>
<polygon fill="#666666" stroke="#666666" points="0,-58 0,-58 152,-58 152,-58 0,-58"/>
<polygon fill="none" stroke="#666666" points="0,0 0,-90 152,-90 152,0 0,0"/>
</a>
</g>
</g>
<!-- Node2 -->
<g id="Node000002" class="node">
<title>Node2</title>
<g id="a_Node000002"><a xlink:href="interface_symfony_1_1_component_1_1_console_1_1_output_1_1_output_interface.html" target="_top" xlink:title=" ">
<polygon fill="white" stroke="none" points="149.5,-407 2.5,-407 2.5,-127 149.5,-127 149.5,-407"/>
<text text-anchor="start" x="42.25" y="-393.5" font-family="Helvetica,sans-Serif" font-size="10.00">OutputInterface</text>
<text text-anchor="start" x="74.5" y="-378.5" font-family="Helvetica,sans-Serif" font-size="10.00"> </text>
<text text-anchor="start" x="6.5" y="-363.5" font-family="Helvetica,sans-Serif" font-size="10.00">+</text>
<text text-anchor="start" x="16.5" y="-363.5" font-family="Helvetica,sans-Serif" font-size="10.00">write($messages, bool</text>
<text text-anchor="start" x="16.5" y="-352.25" font-family="Helvetica,sans-Serif" font-size="10.00"> $newline=false, int </text>
<text text-anchor="start" x="16.5" y="-341" font-family="Helvetica,sans-Serif" font-size="10.00">$options=0)</text>
<text text-anchor="start" x="6.5" y="-326.5" font-family="Helvetica,sans-Serif" font-size="10.00">+</text>
<text text-anchor="start" x="16.5" y="-326.5" font-family="Helvetica,sans-Serif" font-size="10.00">writeln($messages,</text>
<text text-anchor="start" x="16.5" y="-315.25" font-family="Helvetica,sans-Serif" font-size="10.00"> int $options=0)</text>
<text text-anchor="start" x="6.5" y="-300.5" font-family="Helvetica,sans-Serif" font-size="10.00">+</text>
<text text-anchor="start" x="16.5" y="-300.5" font-family="Helvetica,sans-Serif" font-size="10.00">setVerbosity(int </text>
<text text-anchor="start" x="16.5" y="-289.25" font-family="Helvetica,sans-Serif" font-size="10.00">$level)</text>
<text text-anchor="start" x="6.5" y="-274.5" font-family="Helvetica,sans-Serif" font-size="10.00">+</text>
<text text-anchor="start" x="16.5" y="-274.5" font-family="Helvetica,sans-Serif" font-size="10.00">getVerbosity()</text>
<text text-anchor="start" x="6.5" y="-259.5" font-family="Helvetica,sans-Serif" font-size="10.00">+</text>
<text text-anchor="start" x="16.5" y="-259.5" font-family="Helvetica,sans-Serif" font-size="10.00">isQuiet()</text>
<text text-anchor="start" x="6.5" y="-244.5" font-family="Helvetica,sans-Serif" font-size="10.00">+</text>
<text text-anchor="start" x="16.5" y="-244.5" font-family="Helvetica,sans-Serif" font-size="10.00">isVerbose()</text>
<text text-anchor="start" x="6.5" y="-229.5" font-family="Helvetica,sans-Serif" font-size="10.00">+</text>
<text text-anchor="start" x="16.5" y="-229.5" font-family="Helvetica,sans-Serif" font-size="10.00">isVeryVerbose()</text>
<text text-anchor="start" x="6.5" y="-214.5" font-family="Helvetica,sans-Serif" font-size="10.00">+</text>
<text text-anchor="start" x="16.5" y="-214.5" font-family="Helvetica,sans-Serif" font-size="10.00">isDebug()</text>
<text text-anchor="start" x="6.5" y="-199.5" font-family="Helvetica,sans-Serif" font-size="10.00">+</text>
<text text-anchor="start" x="16.5" y="-199.5" font-family="Helvetica,sans-Serif" font-size="10.00">setDecorated(bool</text>
<text text-anchor="start" x="16.5" y="-188.25" font-family="Helvetica,sans-Serif" font-size="10.00"> $decorated)</text>
<text text-anchor="start" x="6.5" y="-173.5" font-family="Helvetica,sans-Serif" font-size="10.00">+</text>
<text text-anchor="start" x="16.5" y="-173.5" font-family="Helvetica,sans-Serif" font-size="10.00">isDecorated()</text>
<text text-anchor="start" x="6.5" y="-158.5" font-family="Helvetica,sans-Serif" font-size="10.00">+</text>
<text text-anchor="start" x="16.5" y="-158.5" font-family="Helvetica,sans-Serif" font-size="10.00">setFormatter(OutputFormatter</text>
<text text-anchor="start" x="16.5" y="-147.25" font-family="Helvetica,sans-Serif" font-size="10.00">Interface $formatter)</text>
<text text-anchor="start" x="6.5" y="-132.5" font-family="Helvetica,sans-Serif" font-size="10.00">+</text>
<text text-anchor="start" x="16.5" y="-132.5" font-family="Helvetica,sans-Serif" font-size="10.00">getFormatter()</text>
<polygon fill="#666666" stroke="#666666" points="2.5,-390 2.5,-390 149.5,-390 149.5,-390 2.5,-390"/>
<polygon fill="#666666" stroke="#666666" points="2.5,-375 2.5,-375 149.5,-375 149.5,-375 2.5,-375"/>
<polygon fill="none" stroke="#666666" points="2.5,-127 2.5,-407 149.5,-407 149.5,-127 2.5,-127"/>
</a>
</g>
</g>
<!-- Node2&#45;&gt;Node1 -->
<g id="edge1_Node000001_Node000002" class="edge">
<title>Node2&#45;&gt;Node1</title>
<g id="a_edge1_Node000001_Node000002"><a xlink:title=" ">
<path fill="none" stroke="#63b8ff" d="M76,-115.86C76,-106.65 76,-97.87 76,-89.84"/>
<polygon fill="none" stroke="#63b8ff" points="72.5,-115.78 76,-125.78 79.5,-115.78 72.5,-115.78"/>
</a>
</g>
</g>
<!-- Node3 -->
<g id="Node000003" class="node">
<title>Node3</title>
<g id="a_Node000003"><a xlink:title=" ">
<polygon fill="white" stroke="none" points="93,-582 59,-582 59,-533 93,-533 93,-582"/>
<text text-anchor="start" x="64" y="-568.5" font-family="Helvetica,sans-Serif" font-size="10.00">const</text>
<text text-anchor="start" x="74.5" y="-553.5" font-family="Helvetica,sans-Serif" font-size="10.00"> </text>
<text text-anchor="start" x="74.5" y="-538.5" font-family="Helvetica,sans-Serif" font-size="10.00"> </text>
<polygon fill="#666666" stroke="#666666" points="59,-565 59,-565 93,-565 93,-565 59,-565"/>
<polygon fill="#666666" stroke="#666666" points="59,-550 59,-550 93,-550 93,-550 59,-550"/>
<polygon fill="none" stroke="#666666" points="59,-533 59,-582 93,-582 93,-533 59,-533"/>
</a>
</g>
</g>
<!-- Node3&#45;&gt;Node2 -->
<g id="edge2_Node000002_Node000003" class="edge">
<title>Node3&#45;&gt;Node2</title>
<g id="a_edge2_Node000002_Node000003"><a xlink:title=" ">
<path fill="none" stroke="#63b8ff" d="M76,-533.38C76,-507.77 76,-464.18 76,-419.64"/>
<polygon fill="none" stroke="#63b8ff" points="76,-419.66 72,-413.66 76,-407.66 80,-413.66 76,-419.66"/>
</a>
</g>
<text text-anchor="middle" x="151.38" y="-505.5" font-family="Helvetica,sans-Serif" font-size="10.00" fill="grey"> +OUTPUT_NORMAL</text>
<text text-anchor="middle" x="151.38" y="-494.25" font-family="Helvetica,sans-Serif" font-size="10.00" fill="grey">+OUTPUT_PLAIN</text>
<text text-anchor="middle" x="151.38" y="-483" font-family="Helvetica,sans-Serif" font-size="10.00" fill="grey">+OUTPUT_RAW</text>
<text text-anchor="middle" x="151.38" y="-471.75" font-family="Helvetica,sans-Serif" font-size="10.00" fill="grey">+VERBOSITY_DEBUG</text>
<text text-anchor="middle" x="151.38" y="-460.5" font-family="Helvetica,sans-Serif" font-size="10.00" fill="grey">+VERBOSITY_NORMAL</text>
<text text-anchor="middle" x="151.38" y="-449.25" font-family="Helvetica,sans-Serif" font-size="10.00" fill="grey">+VERBOSITY_QUIET</text>
<text text-anchor="middle" x="151.38" y="-438" font-family="Helvetica,sans-Serif" font-size="10.00" fill="grey">+VERBOSITY_VERBOSE</text>
<text text-anchor="middle" x="151.38" y="-426.75" font-family="Helvetica,sans-Serif" font-size="10.00" fill="grey">+VERBOSITY_VERY_VERBOSE</text>
</g>
</g>
</svg>

<g id="navigator" transform="translate(0 0)" fill="#404254">
  <rect fill="#f2f5e9" fill-opacity="0.5" stroke="#606060" stroke-width=".5" x="0" y="0" width="60" height="60"/>
  <use id="zoomplus" xlink:href="#zoomPlus" x="17" y="9" onmousedown="handleZoom(evt,'in')"/>
  <use id="zoomminus" xlink:href="#zoomMin" x="42" y="9" onmousedown="handleZoom(evt,'out')"/>
  <use id="reset" xlink:href="#resetDef" x="30" y="36" onmousedown="handleReset()"/>
   <use id="arrowup" xlink:href="#arrowUp" x="0" y="0" onmousedown="handlePan(0,-1)"/>
  <use id="arrowright" xlink:href="#arrowRight" x="0" y="0" onmousedown="handlePan(1,0)"/>
  <use id="arrowdown" xlink:href="#arrowDown" x="0" y="0" onmousedown="handlePan(0,1)"/>
  <use id="arrowleft" xlink:href="#arrowLeft" x="0" y="0" onmousedown="handlePan(-1,0)"/>
</g>
<svg viewBox="0 0 15 15" width="100%" height="30px" preserveAspectRatio="xMaxYMin meet">
 <g id="arrow_out" transform="scale(0.3 0.3)">
  <a xlink:href="interface_symfony_1_1_component_1_1_console_1_1_output_1_1_console_output_interface__coll__graph_org.svg" target="_base">
   <rect id="button" ry="5" rx="5" y="6" x="6" height="38" width="38"
        fill="#f2f5e9" fill-opacity="0.5" stroke="#606060" stroke-width="1.0"/>
   <path id="arrow"
     d="M 11.500037,31.436501 C 11.940474,20.09759 22.043105,11.32322 32.158766,21.979434 L 37.068811,17.246167 C 37.068811,17.246167 37.088388,32 37.088388,32 L 22.160133,31.978069 C 22.160133,31.978069 26.997745,27.140456 26.997745,27.140456 C 18.528582,18.264221 13.291696,25.230495 11.500037,31.436501 z"
     style="fill:#404040;"/>
  </a>
 </g>
</svg>

<style type='text/css'>
<![CDATA[
[data-mouse-over-selected='false'] { opacity: 0.7; }
[data-mouse-over-selected='true']  { opacity: 1.0; }
]]>
</style>
<script type="application/ecmascript"><![CDATA[
document.addEventListener('DOMContentLoaded', (event) => {
  highlightEdges();
  highlightAdjacentNodes();
});
]]></script>
</svg>
