<?xml version="1.0" encoding="UTF-8" standalone="no"?>
<!DOCTYPE svg PUBLIC "-//W3C//DTD SVG 1.1//EN"
 "http://www.w3.org/Graphics/SVG/1.1/DTD/svg11.dtd">
<!-- Generated by graphviz version 10.0.1 (20240210.2158)
 -->
<!-- Title: clear Pages: 1 -->
<svg width="377pt" height="150pt"
 viewBox="0.00 0.00 377.00 149.88" xmlns="http://www.w3.org/2000/svg" xmlns:xlink="http://www.w3.org/1999/xlink">
<g id="graph0" class="graph" transform="scale(1 1) rotate(0) translate(4 145.88)">
<title>clear</title>
<!-- Node1 -->
<g id="Node000001" class="node">
<title>Node1</title>
<g id="a_Node000001"><a xlink:title=" ">
<polygon fill="#999999" stroke="#666666" points="37,-85.88 0,-85.88 0,-66.62 37,-66.62 37,-85.88"/>
<text text-anchor="middle" x="18.5" y="-72.38" font-family="Helvetica,sans-Serif" font-size="10.00">clear</text>
</a>
</g>
</g>
<!-- Node2 -->
<g id="Node000002" class="node">
<title>Node2</title>
<g id="a_Node000002"><a xlink:href="namespace_symfony_1_1_component_1_1_cache_1_1_traits.html#a9a1364588f45471de354755c9c66d6c3" target="_top" xlink:title=" ">
<polygon fill="white" stroke="#666666" points="167.75,-141.88 118,-141.88 118,-122.62 167.75,-122.62 167.75,-141.88"/>
<text text-anchor="middle" x="142.88" y="-128.38" font-family="Helvetica,sans-Serif" font-size="10.00">doClear</text>
</a>
</g>
</g>
<!-- Node1&#45;&gt;Node2 -->
<g id="edge1_Node000001_Node000002" class="edge">
<title>Node1&#45;&gt;Node2</title>
<g id="a_edge1_Node000001_Node000002"><a xlink:title=" ">
<path fill="none" stroke="#63b8ff" d="M31.05,-86.34C41.39,-94.9 57.31,-106.93 73,-114.25 83.47,-119.14 95.49,-122.86 106.52,-125.61"/>
<polygon fill="#63b8ff" stroke="#63b8ff" points="105.54,-128.98 116.07,-127.8 107.11,-122.15 105.54,-128.98"/>
</a>
</g>
</g>
<!-- Node4 -->
<g id="Node000004" class="node">
<title>Node4</title>
<g id="a_Node000004"><a xlink:href="namespace_symfony_1_1_component_1_1_cache_1_1_traits.html#a2bd88e756b4955f54e454254f6f7a714" target="_top" xlink:title=" ">
<polygon fill="white" stroke="#666666" points="168.5,-104.88 117.25,-104.88 117.25,-85.62 168.5,-85.62 168.5,-104.88"/>
<text text-anchor="middle" x="142.88" y="-91.38" font-family="Helvetica,sans-Serif" font-size="10.00">doFetch</text>
</a>
</g>
</g>
<!-- Node1&#45;&gt;Node4 -->
<g id="edge3_Node000001_Node000004" class="edge">
<title>Node1&#45;&gt;Node4</title>
<g id="a_edge3_Node000001_Node000004"><a xlink:title=" ">
<path fill="none" stroke="#63b8ff" d="M37.29,-79.01C55.13,-81.78 83.11,-86.13 105.64,-89.62"/>
<polygon fill="#63b8ff" stroke="#63b8ff" points="104.93,-93.06 115.35,-91.13 106,-86.14 104.93,-93.06"/>
</a>
</g>
</g>
<!-- Node5 -->
<g id="Node000005" class="node">
<title>Node5</title>
<g id="a_Node000005"><a xlink:href="namespace_symfony_1_1_component_1_1_cache_1_1_traits.html#a82d0e96c65151de8ee31a37e08ed01f1" target="_top" xlink:title=" ">
<polygon fill="white" stroke="#666666" points="167.38,-67.88 118.38,-67.88 118.38,-48.62 167.38,-48.62 167.38,-67.88"/>
<text text-anchor="middle" x="142.88" y="-54.38" font-family="Helvetica,sans-Serif" font-size="10.00">doSave</text>
</a>
</g>
</g>
<!-- Node1&#45;&gt;Node5 -->
<g id="edge4_Node000001_Node000005" class="edge">
<title>Node1&#45;&gt;Node5</title>
<g id="a_edge4_Node000001_Node000005"><a xlink:title=" ">
<path fill="none" stroke="#63b8ff" d="M37.29,-73.63C55.47,-70.96 84.17,-66.74 106.92,-63.39"/>
<polygon fill="#63b8ff" stroke="#63b8ff" points="107.3,-66.87 116.68,-61.96 106.28,-59.95 107.3,-66.87"/>
</a>
</g>
</g>
<!-- Node6 -->
<g id="Node000006" class="node">
<title>Node6</title>
<g id="a_Node000006"><a xlink:href="class_symfony_1_1_component_1_1_cache_1_1_cache_item.html#a1bd414acdc6b85e2ba70555f481bdf99" target="_top" xlink:title=" ">
<polygon fill="white" stroke="#666666" points="212.75,-30.5 73,-30.5 73,0 212.75,0 212.75,-30.5"/>
<text text-anchor="start" x="81" y="-17" font-family="Helvetica,sans-Serif" font-size="10.00">Symfony\Component\Cache</text>
<text text-anchor="middle" x="142.88" y="-5.75" font-family="Helvetica,sans-Serif" font-size="10.00">\CacheItem\log</text>
</a>
</g>
</g>
<!-- Node1&#45;&gt;Node6 -->
<g id="edge5_Node000001_Node000006" class="edge">
<title>Node1&#45;&gt;Node6</title>
<g id="a_edge5_Node000001_Node000006"><a xlink:title=" ">
<path fill="none" stroke="#63b8ff" d="M31.65,-66.42C42.13,-58.31 57.9,-46.92 73,-39.25 75.66,-37.9 78.41,-36.59 81.22,-35.33"/>
<polygon fill="#63b8ff" stroke="#63b8ff" points="82.29,-38.68 90.16,-31.58 79.58,-32.23 82.29,-38.68"/>
</a>
</g>
</g>
<!-- Node3 -->
<g id="Node000003" class="node">
<title>Node3</title>
<g id="a_Node000003"><a xlink:href="namespace_symfony_1_1_component_1_1_cache_1_1_traits.html#a387a4f79893754a5285ea1d43e633949" target="_top" xlink:title=" ">
<polygon fill="white" stroke="#666666" points="336,-141.88 281.75,-141.88 281.75,-122.62 336,-122.62 336,-141.88"/>
<text text-anchor="middle" x="308.88" y="-128.38" font-family="Helvetica,sans-Serif" font-size="10.00">doUnlink</text>
</a>
</g>
</g>
<!-- Node2&#45;&gt;Node3 -->
<g id="edge2_Node000002_Node000003" class="edge">
<title>Node2&#45;&gt;Node3</title>
<g id="a_edge2_Node000002_Node000003"><a xlink:title=" ">
<path fill="none" stroke="#63b8ff" d="M168.07,-132.25C194.94,-132.25 238.64,-132.25 270.03,-132.25"/>
<polygon fill="#63b8ff" stroke="#63b8ff" points="269.89,-135.75 279.89,-132.25 269.89,-128.75 269.89,-135.75"/>
</a>
</g>
</g>
<!-- Node7 -->
<g id="Node000007" class="node">
<title>Node7</title>
<g id="a_Node000007"><a xlink:href="interface_psr_1_1_log_1_1_logger_interface.html#aa9f94dcb1a687e36bc7f838a8801feec" target="_top" xlink:title=" ">
<polygon fill="white" stroke="#666666" points="369,-30.5 248.75,-30.5 248.75,0 369,0 369,-30.5"/>
<text text-anchor="start" x="256.75" y="-17" font-family="Helvetica,sans-Serif" font-size="10.00">Psr\Log\LoggerInterface</text>
<text text-anchor="middle" x="308.88" y="-5.75" font-family="Helvetica,sans-Serif" font-size="10.00">\warning</text>
</a>
</g>
</g>
<!-- Node6&#45;&gt;Node7 -->
<g id="edge6_Node000006_Node000007" class="edge">
<title>Node6&#45;&gt;Node7</title>
<g id="a_edge6_Node000006_Node000007"><a xlink:title=" ">
<path fill="none" stroke="#63b8ff" d="M212.95,-15.25C220.98,-15.25 229.18,-15.25 237.24,-15.25"/>
<polygon fill="#63b8ff" stroke="#63b8ff" points="236.98,-18.75 246.98,-15.25 236.98,-11.75 236.98,-18.75"/>
</a>
</g>
</g>
</g>
</svg>
