<?xml version="1.0" encoding="UTF-8" standalone="no"?>
<!DOCTYPE svg PUBLIC "-//W3C//DTD SVG 1.1//EN"
 "http://www.w3.org/Graphics/SVG/1.1/DTD/svg11.dtd">
<!-- Generated by graphviz version 10.0.1 (20240210.2158)
 -->
<!-- Title: normalize Pages: 1 -->
<svg width="262pt" height="64pt"
 viewBox="0.00 0.00 262.25 64.25" xmlns="http://www.w3.org/2000/svg" xmlns:xlink="http://www.w3.org/1999/xlink">

<svg id="main" version="1.1" xmlns="http://www.w3.org/2000/svg" xmlns:xlink="http://www.w3.org/1999/xlink" xml:space="preserve" onload="init(evt)">
<style type="text/css"><![CDATA[
.node, .edge {opacity: 0.7;}
.node.selected, .edge.selected {opacity: 1;}
.edge:hover path { stroke: red; }
.edge:hover polygon { stroke: red; fill: red; }
]]></style>
<script type="application/ecmascript" xlink:href="svg.min.js"/>
<svg id="graph" class="graph">
<g id="graph0" class="graph" transform="scale(1 1) rotate(0) translate(4 60.25)">
<title>normalize</title>
<!-- Node1 -->
<g id="Node000001" class="node">
<title>Node1</title>
<g id="a_Node000001"><a xlink:title=" ">
<polygon fill="#999999" stroke="#666666" points="58,-37.25 0,-37.25 0,-18 58,-18 58,-37.25"/>
<text text-anchor="middle" x="29" y="-23.75" font-family="Helvetica,sans-Serif" font-size="10.00">normalize</text>
</a>
</g>
</g>
<!-- Node2 -->
<g id="Node000002" class="node">
<title>Node2</title>
<g id="a_Node000002"><a xlink:href="namespace_sabre_1_1_uri.html#a05383c03702ec0525c86be0e88e2023e" target="_top" xlink:title=" ">
<polygon fill="white" stroke="#666666" points="132.12,-56.25 95.88,-56.25 95.88,-37 132.12,-37 132.12,-56.25"/>
<text text-anchor="middle" x="114" y="-42.75" font-family="Helvetica,sans-Serif" font-size="10.00">build</text>
</a>
</g>
</g>
<!-- Node1&#45;&gt;Node2 -->
<g id="edge1_Node000001_Node000002" class="edge">
<title>Node1&#45;&gt;Node2</title>
<g id="a_edge1_Node000001_Node000002"><a xlink:title=" ">
<path fill="none" stroke="#63b8ff" d="M58.1,-34.06C66.64,-36.01 76.02,-38.16 84.58,-40.12"/>
<polygon fill="#63b8ff" stroke="#63b8ff" points="83.57,-43.48 94.1,-42.3 85.13,-36.66 83.57,-43.48"/>
</a>
</g>
</g>
<!-- Node3 -->
<g id="Node000003" class="node">
<title>Node3</title>
<g id="a_Node000003"><a xlink:href="namespace_sabre_1_1_uri.html#a282c0fa09e3895aad7195d6c7071ca16" target="_top" xlink:title=" ">
<polygon fill="white" stroke="#666666" points="134,-19.25 94,-19.25 94,0 134,0 134,-19.25"/>
<text text-anchor="middle" x="114" y="-5.75" font-family="Helvetica,sans-Serif" font-size="10.00">parse</text>
</a>
</g>
</g>
<!-- Node1&#45;&gt;Node3 -->
<g id="edge2_Node000001_Node000003" class="edge">
<title>Node1&#45;&gt;Node3</title>
<g id="a_edge2_Node000001_Node000003"><a xlink:title=" ">
<path fill="none" stroke="#63b8ff" d="M58.1,-21.53C65.94,-19.83 74.49,-17.98 82.46,-16.25"/>
<polygon fill="#63b8ff" stroke="#63b8ff" points="83.06,-19.7 92.09,-14.16 81.57,-12.86 83.06,-19.7"/>
</a>
</g>
</g>
<!-- Node4 -->
<g id="Node000004" class="node">
<title>Node4</title>
<g id="a_Node000004"><a xlink:href="namespace_sabre_1_1_uri.html#a7560381bbee5cad477c431c98733d37c" target="_top" xlink:title=" ">
<polygon fill="white" stroke="#666666" points="254.25,-19.25 170,-19.25 170,0 254.25,0 254.25,-19.25"/>
<text text-anchor="middle" x="212.12" y="-5.75" font-family="Helvetica,sans-Serif" font-size="10.00">_parse_fallback</text>
</a>
</g>
</g>
<!-- Node3&#45;&gt;Node4 -->
<g id="edge3_Node000003_Node000004" class="edge">
<title>Node3&#45;&gt;Node4</title>
<g id="a_edge3_Node000003_Node000004"><a xlink:title=" ">
<path fill="none" stroke="#63b8ff" d="M134.45,-9.62C141.55,-9.62 149.95,-9.62 158.55,-9.62"/>
<polygon fill="#63b8ff" stroke="#63b8ff" points="158.35,-13.13 168.35,-9.63 158.35,-6.13 158.35,-13.13"/>
</a>
</g>
</g>
</g>
</svg>
</svg>

<style type='text/css'>
<![CDATA[
[data-mouse-over-selected='false'] { opacity: 0.7; }
[data-mouse-over-selected='true']  { opacity: 1.0; }
]]>
</style>
<script type="application/ecmascript"><![CDATA[
document.addEventListener('DOMContentLoaded', (event) => {
  highlightEdges();
  highlightAdjacentNodes();
});
]]></script>
</svg>
