<?xml version="1.0" encoding="UTF-8" standalone="no"?>
<!DOCTYPE svg PUBLIC "-//W3C//DTD SVG 1.1//EN"
 "http://www.w3.org/Graphics/SVG/1.1/DTD/svg11.dtd">
<!-- Generated by graphviz version 10.0.1 (20240210.2158)
 -->
<!-- Title: normalize Pages: 1 -->
<!--zoomable 125 -->

<svg id="main" version="1.1" xmlns="http://www.w3.org/2000/svg" xmlns:xlink="http://www.w3.org/1999/xlink" xml:space="preserve" onload="init(evt)">
<style type="text/css"><![CDATA[
.node, .edge {opacity: 0.7;}
.node.selected, .edge.selected {opacity: 1;}
.edge:hover path { stroke: red; }
.edge:hover polygon { stroke: red; fill: red; }
]]></style>

<defs>
  <circle id="rim" cx="0" cy="0" r="7"/>
  <circle id="rim2" cx="0" cy="0" r="3.5"/>
  <g id="zoomPlus">
    <use xlink:href="#rim" fill="#404040"><set attributeName="fill" to="#808080" begin="zoomplus.mouseover" end="zoomplus.mouseout"/></use>
    <path d="M-4,0h8M0,-4v8" fill="none" stroke="white" stroke-width="1.5" pointer-events="none"/>
  </g>
  <g id="zoomMin">
    <use xlink:href="#rim" fill="#404040"><set attributeName="fill" to="#808080" begin="zoomminus.mouseover" end="zoomminus.mouseout"/></use>
    <path d="M-4,0h8" fill="none" stroke="white" stroke-width="1.5" pointer-events="none"/>
  </g>
  <g id="arrowUp" transform="translate(30 24)">
    <use xlink:href="#rim"/>
    <path pointer-events="none" fill="none" stroke="white" stroke-width="1.5" d="M0,-3.0v7 M-2.5,-0.5L0,-3.0L2.5,-0.5"/>
  </g>
  <g id="arrowRight" transform="rotate(90) translate(36 -43)">
    <use xlink:href="#rim"/>
    <path pointer-events="none" fill="none" stroke="white" stroke-width="1.5" d="M0,-3.0v7 M-2.5,-0.5L0,-3.0L2.5,-0.5"/>
  </g>
  <g id="arrowDown" transform="rotate(180) translate(-30 -48)">
    <use xlink:href="#rim"/>
    <path pointer-events="none" fill="none" stroke="white" stroke-width="1.5" d="M0,-3.0v7 M-2.5,-0.5L0,-3.0L2.5,-0.5"/>
  </g>
  <g id="arrowLeft" transform="rotate(270) translate(-36 17)">
    <use xlink:href="#rim"/>
    <path pointer-events="none" fill="none" stroke="white" stroke-width="1.5" d="M0,-3.0v7 M-2.5,-0.5L0,-3.0L2.5,-0.5"/>
  </g>
  <g id="resetDef">
    <use xlink:href="#rim2" fill="#404040"><set attributeName="fill" to="#808080" begin="reset.mouseover" end="reset.mouseout"/></use>
  </g>
</defs>
<script type="application/ecmascript">
var viewWidth = 1178;
var viewHeight = 125;
var sectionId = 'dynsection-3';
</script>
<script type="application/ecmascript" xlink:href="svg.min.js"/>
<svg id="graph" class="graph">
<g id="viewport">
<title>normalize</title>
<!-- Node1 -->
<g id="Node000001" class="node">
<title>Node1</title>
<g id="a_Node000001"><a xlink:title=" ">
<polygon fill="#999999" stroke="#666666" points="1169.5,-45.88 1111.5,-45.88 1111.5,-26.62 1169.5,-26.62 1169.5,-45.88"/>
<text text-anchor="middle" x="1140.5" y="-32.38" font-family="Helvetica,sans-Serif" font-size="10.00">normalize</text>
</a>
</g>
</g>
<!-- Node2 -->
<g id="Node000002" class="node">
<title>Node2</title>
<g id="a_Node000002"><a xlink:href="class_sabre_1_1_d_a_v_1_1_server.html#a9b0da9a3a6e6d9e5440d7873ab3e5078" target="_top" xlink:title=" ">
<polygon fill="white" stroke="#666666" points="1075.5,-67.88 925.25,-67.88 925.25,-48.62 1075.5,-48.62 1075.5,-67.88"/>
<text text-anchor="middle" x="1000.38" y="-54.38" font-family="Helvetica,sans-Serif" font-size="10.00">Sabre\DAV\Server\calculateUri</text>
</a>
</g>
</g>
<!-- Node1&#45;&gt;Node2 -->
<g id="edge1_Node000001_Node000002" class="edge">
<title>Node1&#45;&gt;Node2</title>
<g id="a_edge1_Node000001_Node000002"><a xlink:title=" ">
<path fill="none" stroke="#63b8ff" d="M1100.19,-42.51C1089.12,-44.27 1076.78,-46.24 1064.68,-48.17"/>
<polygon fill="#63b8ff" stroke="#63b8ff" points="1100.4,-46.02 1109.72,-40.99 1099.29,-39.11 1100.4,-46.02"/>
</a>
</g>
</g>
<!-- Node10 -->
<g id="Node000010" class="node">
<title>Node10</title>
<g id="a_Node000010"><a xlink:href="class_sabre_1_1_h_t_t_p_1_1_request.html#a30c5c67b2bf8e2e2ccc7e361faa20afe" target="_top" xlink:title=" ">
<polygon fill="white" stroke="#666666" points="1055.62,-30.5 945.12,-30.5 945.12,0 1055.62,0 1055.62,-30.5"/>
<text text-anchor="start" x="953.12" y="-17" font-family="Helvetica,sans-Serif" font-size="10.00">Sabre\HTTP\Request</text>
<text text-anchor="middle" x="1000.38" y="-5.75" font-family="Helvetica,sans-Serif" font-size="10.00">\getPath</text>
</a>
</g>
</g>
<!-- Node1&#45;&gt;Node10 -->
<g id="edge9_Node000001_Node000010" class="edge">
<title>Node1&#45;&gt;Node10</title>
<g id="a_edge9_Node000001_Node000010"><a xlink:title=" ">
<path fill="none" stroke="#63b8ff" d="M1100.17,-30.27C1086.39,-28.18 1070.67,-25.79 1055.88,-23.54"/>
<polygon fill="#63b8ff" stroke="#63b8ff" points="1099.31,-33.68 1109.72,-31.72 1100.36,-26.76 1099.31,-33.68"/>
</a>
</g>
</g>
<!-- Node3 -->
<g id="Node000003" class="node">
<title>Node3</title>
<g id="a_Node000003"><a xlink:href="class_sabre_1_1_d_a_v_1_1_server.html#aff14e9b61cd9e1c90737fab45b7848a3" target="_top" xlink:title=" ">
<polygon fill="white" stroke="#666666" points="874.62,-116.5 739.38,-116.5 739.38,-86 874.62,-86 874.62,-116.5"/>
<text text-anchor="start" x="747.38" y="-103" font-family="Helvetica,sans-Serif" font-size="10.00">Sabre\DAV\Server\getCopy</text>
<text text-anchor="middle" x="807" y="-91.75" font-family="Helvetica,sans-Serif" font-size="10.00">AndMoveInfo</text>
</a>
</g>
</g>
<!-- Node2&#45;&gt;Node3 -->
<g id="edge2_Node000002_Node000003" class="edge">
<title>Node2&#45;&gt;Node3</title>
<g id="a_edge2_Node000002_Node000003"><a xlink:title=" ">
<path fill="none" stroke="#63b8ff" d="M943.33,-70.84C921.96,-75.64 897.38,-81.17 875.09,-86.18"/>
<polygon fill="#63b8ff" stroke="#63b8ff" points="944.04,-74.27 953.03,-68.66 942.51,-67.44 944.04,-74.27"/>
</a>
</g>
</g>
<!-- Node4 -->
<g id="Node000004" class="node">
<title>Node4</title>
<g id="a_Node000004"><a xlink:href="class_sabre_1_1_d_a_v_1_1_server.html#a211a0f9ca1b4020f08f026cef6e5ded4" target="_top" xlink:title=" ">
<polygon fill="white" stroke="#666666" points="889.25,-67.88 724.75,-67.88 724.75,-48.62 889.25,-48.62 889.25,-67.88"/>
<text text-anchor="middle" x="807" y="-54.38" font-family="Helvetica,sans-Serif" font-size="10.00">Sabre\DAV\Server\getIfConditions</text>
</a>
</g>
</g>
<!-- Node2&#45;&gt;Node4 -->
<g id="edge3_Node000002_Node000004" class="edge">
<title>Node2&#45;&gt;Node4</title>
<g id="a_edge3_Node000002_Node000004"><a xlink:title=" ">
<path fill="none" stroke="#63b8ff" d="M913.36,-58.25C905.46,-58.25 897.48,-58.25 889.62,-58.25"/>
<polygon fill="#63b8ff" stroke="#63b8ff" points="913.32,-61.75 923.32,-58.25 913.32,-54.75 913.32,-61.75"/>
</a>
</g>
</g>
<!-- Node9 -->
<g id="Node000009" class="node">
<title>Node9</title>
<g id="a_Node000009"><a xlink:href="class_sabre_1_1_d_a_v_1_1_server.html#af9082177972a203cdb3d869a6d8f85da" target="_top" xlink:title=" ">
<polygon fill="white" stroke="#666666" points="887.75,-30.88 726.25,-30.88 726.25,-11.62 887.75,-11.62 887.75,-30.88"/>
<text text-anchor="middle" x="807" y="-17.38" font-family="Helvetica,sans-Serif" font-size="10.00">Sabre\DAV\Server\getRequestUri</text>
</a>
</g>
</g>
<!-- Node2&#45;&gt;Node9 -->
<g id="edge8_Node000002_Node000009" class="edge">
<title>Node2&#45;&gt;Node9</title>
<g id="a_edge8_Node000002_Node000009"><a xlink:title=" ">
<path fill="none" stroke="#63b8ff" d="M936.04,-46C911.45,-41.25 883.64,-35.87 860.23,-31.35"/>
<polygon fill="#63b8ff" stroke="#63b8ff" points="935.11,-49.39 945.59,-47.85 936.44,-42.52 935.11,-49.39"/>
</a>
</g>
</g>
<!-- Node5 -->
<g id="Node000005" class="node">
<title>Node5</title>
<g id="a_Node000005"><a xlink:href="class_sabre_1_1_d_a_v_1_1_server.html#a6fe9bae87fa5b97cad8a0e6dbd362a14" target="_top" xlink:title=" ">
<polygon fill="white" stroke="#666666" points="688.75,-67.88 504.75,-67.88 504.75,-48.62 688.75,-48.62 688.75,-67.88"/>
<text text-anchor="middle" x="596.75" y="-54.38" font-family="Helvetica,sans-Serif" font-size="10.00">Sabre\DAV\Server\checkPreconditions</text>
</a>
</g>
</g>
<!-- Node4&#45;&gt;Node5 -->
<g id="edge4_Node000004_Node000005" class="edge">
<title>Node4&#45;&gt;Node5</title>
<g id="a_edge4_Node000004_Node000005"><a xlink:title=" ">
<path fill="none" stroke="#63b8ff" d="M712.86,-58.25C705,-58.25 697.06,-58.25 689.21,-58.25"/>
<polygon fill="#63b8ff" stroke="#63b8ff" points="712.78,-61.75 722.78,-58.25 712.78,-54.75 712.78,-61.75"/>
</a>
</g>
</g>
<!-- Node6 -->
<g id="Node000006" class="node">
<title>Node6</title>
<g id="a_Node000006"><a xlink:href="class_sabre_1_1_d_a_v_1_1_server.html#a0012c4d85a4b1ca8d0a59a76035e6d8f" target="_top" xlink:title=" ">
<polygon fill="white" stroke="#666666" points="468.75,-67.88 309.5,-67.88 309.5,-48.62 468.75,-48.62 468.75,-67.88"/>
<text text-anchor="middle" x="389.12" y="-54.38" font-family="Helvetica,sans-Serif" font-size="10.00">Sabre\DAV\Server\invokeMethod</text>
</a>
</g>
</g>
<!-- Node5&#45;&gt;Node6 -->
<g id="edge5_Node000005_Node000006" class="edge">
<title>Node5&#45;&gt;Node6</title>
<g id="a_edge5_Node000005_Node000006"><a xlink:title=" ">
<path fill="none" stroke="#63b8ff" d="M492.98,-58.25C484.92,-58.25 476.85,-58.25 468.99,-58.25"/>
<polygon fill="#63b8ff" stroke="#63b8ff" points="492.85,-61.75 502.85,-58.25 492.85,-54.75 492.85,-61.75"/>
</a>
</g>
</g>
<!-- Node7 -->
<g id="Node000007" class="node">
<title>Node7</title>
<g id="a_Node000007"><a xlink:href="class_sabre_1_1_d_a_v_1_1_server.html#af8fa59992209e36dccb3eefb0f75531f" target="_top" xlink:title=" ">
<polygon fill="white" stroke="#666666" points="273.5,-67.88 155.5,-67.88 155.5,-48.62 273.5,-48.62 273.5,-67.88"/>
<text text-anchor="middle" x="214.5" y="-54.38" font-family="Helvetica,sans-Serif" font-size="10.00">Sabre\DAV\Server\start</text>
</a>
</g>
</g>
<!-- Node6&#45;&gt;Node7 -->
<g id="edge6_Node000006_Node000007" class="edge">
<title>Node6&#45;&gt;Node7</title>
<g id="a_edge6_Node000006_Node000007"><a xlink:title=" ">
<path fill="none" stroke="#63b8ff" d="M297.68,-58.25C289.58,-58.25 281.52,-58.25 273.8,-58.25"/>
<polygon fill="#63b8ff" stroke="#63b8ff" points="297.62,-61.75 307.62,-58.25 297.62,-54.75 297.62,-61.75"/>
</a>
</g>
</g>
<!-- Node8 -->
<g id="Node000008" class="node">
<title>Node8</title>
<g id="a_Node000008"><a xlink:href="class_sabre_1_1_d_a_v_1_1_server.html#ac72ad9f570c48e1d61faf54bb6067ffd" target="_top" xlink:title=" ">
<polygon fill="white" stroke="#666666" points="119.5,-67.88 0,-67.88 0,-48.62 119.5,-48.62 119.5,-67.88"/>
<text text-anchor="middle" x="59.75" y="-54.38" font-family="Helvetica,sans-Serif" font-size="10.00">Sabre\DAV\Server\exec</text>
</a>
</g>
</g>
<!-- Node7&#45;&gt;Node8 -->
<g id="edge7_Node000007_Node000008" class="edge">
<title>Node7&#45;&gt;Node8</title>
<g id="a_edge7_Node000007_Node000008"><a xlink:title=" ">
<path fill="none" stroke="#63b8ff" d="M143.99,-58.25C135.9,-58.25 127.71,-58.25 119.78,-58.25"/>
<polygon fill="#63b8ff" stroke="#63b8ff" points="143.8,-61.75 153.8,-58.25 143.8,-54.75 143.8,-61.75"/>
</a>
</g>
</g>
</g>
</svg>

<g id="navigator" transform="translate(0 0)" fill="#404254">
  <rect fill="#f2f5e9" fill-opacity="0.5" stroke="#606060" stroke-width=".5" x="0" y="0" width="60" height="60"/>
  <use id="zoomplus" xlink:href="#zoomPlus" x="17" y="9" onmousedown="handleZoom(evt,'in')"/>
  <use id="zoomminus" xlink:href="#zoomMin" x="42" y="9" onmousedown="handleZoom(evt,'out')"/>
  <use id="reset" xlink:href="#resetDef" x="30" y="36" onmousedown="handleReset()"/>
   <use id="arrowup" xlink:href="#arrowUp" x="0" y="0" onmousedown="handlePan(0,-1)"/>
  <use id="arrowright" xlink:href="#arrowRight" x="0" y="0" onmousedown="handlePan(1,0)"/>
  <use id="arrowdown" xlink:href="#arrowDown" x="0" y="0" onmousedown="handlePan(0,1)"/>
  <use id="arrowleft" xlink:href="#arrowLeft" x="0" y="0" onmousedown="handlePan(-1,0)"/>
</g>
<svg viewBox="0 0 15 15" width="100%" height="30px" preserveAspectRatio="xMaxYMin meet">
 <g id="arrow_out" transform="scale(0.3 0.3)">
  <a xlink:href="namespace_sabre_1_1_uri_ae53435a758cbc72a19a0b3d2794b5ccf_icgraph_org.svg" target="_base">
   <rect id="button" ry="5" rx="5" y="6" x="6" height="38" width="38"
        fill="#f2f5e9" fill-opacity="0.5" stroke="#606060" stroke-width="1.0"/>
   <path id="arrow"
     d="M 11.500037,31.436501 C 11.940474,20.09759 22.043105,11.32322 32.158766,21.979434 L 37.068811,17.246167 C 37.068811,17.246167 37.088388,32 37.088388,32 L 22.160133,31.978069 C 22.160133,31.978069 26.997745,27.140456 26.997745,27.140456 C 18.528582,18.264221 13.291696,25.230495 11.500037,31.436501 z"
     style="fill:#404040;"/>
  </a>
 </g>
</svg>

<style type='text/css'>
<![CDATA[
[data-mouse-over-selected='false'] { opacity: 0.7; }
[data-mouse-over-selected='true']  { opacity: 1.0; }
]]>
</style>
<script type="application/ecmascript"><![CDATA[
document.addEventListener('DOMContentLoaded', (event) => {
  highlightEdges();
  highlightAdjacentNodes();
});
]]></script>
</svg>
