<?xml version="1.0" encoding="UTF-8" standalone="no"?>
<!DOCTYPE svg PUBLIC "-//W3C//DTD SVG 1.1//EN"
 "http://www.w3.org/Graphics/SVG/1.1/DTD/svg11.dtd">
<!-- Generated by graphviz version 10.0.1 (20240210.2158)
 -->
<!-- Title: standardSerializer Pages: 1 -->
<svg width="647pt" height="284pt"
 viewBox="0.00 0.00 646.50 283.50" xmlns="http://www.w3.org/2000/svg" xmlns:xlink="http://www.w3.org/1999/xlink">
<g id="graph0" class="graph" transform="scale(1 1) rotate(0) translate(4 279.5)">
<title>standardSerializer</title>
<!-- Node1 -->
<g id="Node000001" class="node">
<title>Node1</title>
<g id="a_Node000001"><a xlink:title=" ">
<polygon fill="#999999" stroke="#666666" points="638.5,-146.88 544.5,-146.88 544.5,-127.62 638.5,-127.62 638.5,-146.88"/>
<text text-anchor="middle" x="591.5" y="-133.38" font-family="Helvetica,sans-Serif" font-size="10.00">standardSerializer</text>
</a>
</g>
</g>
<!-- Node1&#45;&gt;Node1 -->
<g id="edge1_Node000001_Node000001" class="edge">
<title>Node1&#45;&gt;Node1</title>
<g id="a_edge1_Node000001_Node000001"><a xlink:title=" ">
<path fill="none" stroke="#63b8ff" d="M616.37,-158.28C613.26,-162.15 604.97,-164.88 591.5,-164.88 566.87,-164.88 559.56,-155.77 569.56,-147.16"/>
<polygon fill="#63b8ff" stroke="#63b8ff" points="619.76,-157.4 613.82,-148.63 612.99,-159.19 619.76,-157.4"/>
</a>
</g>
</g>
<!-- Node2 -->
<g id="Node000002" class="node">
<title>Node2</title>
<g id="a_Node000002"><a xlink:href="class_sabre_1_1_xml_1_1_writer.html#aa438eeb4ffc5f1897b4ad42be429cef1" target="_top" xlink:title=" ">
<polygon fill="white" stroke="#666666" points="508.5,-146.88 394.25,-146.88 394.25,-127.62 508.5,-127.62 508.5,-146.88"/>
<text text-anchor="middle" x="451.38" y="-133.38" font-family="Helvetica,sans-Serif" font-size="10.00">Sabre\Xml\Writer\write</text>
</a>
</g>
</g>
<!-- Node1&#45;&gt;Node2 -->
<g id="edge2_Node000001_Node000002" class="edge">
<title>Node1&#45;&gt;Node2</title>
<g id="a_edge2_Node000001_Node000002"><a xlink:title=" ">
<path fill="none" stroke="#63b8ff" d="M532.77,-137.25C524.89,-137.25 516.8,-137.25 508.94,-137.25"/>
<polygon fill="#63b8ff" stroke="#63b8ff" points="532.61,-140.75 542.61,-137.25 532.61,-133.75 532.61,-140.75"/>
</a>
</g>
</g>
<!-- Node3 -->
<g id="Node000003" class="node">
<title>Node3</title>
<g id="a_Node000003"><a xlink:href="class_sabre_1_1_xml_1_1_writer.html#ad4e290d2e8ccd36032ddf13242b9bf03" target="_top" xlink:title=" ">
<polygon fill="white" stroke="#666666" points="358.25,-146.88 208,-146.88 208,-127.62 358.25,-127.62 358.25,-146.88"/>
<text text-anchor="middle" x="283.12" y="-133.38" font-family="Helvetica,sans-Serif" font-size="10.00">Sabre\Xml\Writer\writeElement</text>
</a>
</g>
</g>
<!-- Node2&#45;&gt;Node3 -->
<g id="edge3_Node000002_Node000003" class="edge">
<title>Node2&#45;&gt;Node3</title>
<g id="a_edge3_Node000002_Node000003"><a xlink:title=" ">
<path fill="none" stroke="#63b8ff" d="M382.66,-137.25C374.74,-137.25 366.63,-137.25 358.63,-137.25"/>
<polygon fill="#63b8ff" stroke="#63b8ff" points="382.58,-140.75 392.58,-137.25 382.58,-133.75 382.58,-140.75"/>
</a>
</g>
</g>
<!-- Node4 -->
<g id="Node000004" class="node">
<title>Node4</title>
<g id="a_Node000004"><a xlink:href="class_sabre_1_1_cal_d_a_v_1_1_xml_1_1_property_1_1_allowed_sharing_modes.html#a6f00760b1f920df7bb8ecf88455eb143" target="_top" xlink:title=" ">
<polygon fill="white" stroke="#666666" points="172,-275.5 0,-275.5 0,-245 172,-245 172,-275.5"/>
<text text-anchor="start" x="8" y="-262" font-family="Helvetica,sans-Serif" font-size="10.00">Sabre\CalDAV\Xml\Property</text>
<text text-anchor="middle" x="86" y="-250.75" font-family="Helvetica,sans-Serif" font-size="10.00">\AllowedSharingModes\xmlSerialize</text>
</a>
</g>
</g>
<!-- Node3&#45;&gt;Node4 -->
<g id="edge4_Node000003_Node000004" class="edge">
<title>Node3&#45;&gt;Node4</title>
<g id="a_edge4_Node000003_Node000004"><a xlink:title=" ">
<path fill="none" stroke="#63b8ff" d="M266.29,-155.61C246.39,-177.58 210.18,-214.06 172,-235.25 165.54,-238.83 158.52,-241.95 151.37,-244.65"/>
<polygon fill="#63b8ff" stroke="#63b8ff" points="268.76,-158.1 272.78,-148.3 263.52,-153.46 268.76,-158.1"/>
</a>
</g>
</g>
<!-- Node5 -->
<g id="Node000005" class="node">
<title>Node5</title>
<g id="a_Node000005"><a xlink:href="class_sabre_1_1_d_a_v_1_1_xml_1_1_element_1_1_response.html#a6f00760b1f920df7bb8ecf88455eb143" target="_top" xlink:title=" ">
<polygon fill="white" stroke="#666666" points="147.62,-226.5 24.38,-226.5 24.38,-196 147.62,-196 147.62,-226.5"/>
<text text-anchor="start" x="32.38" y="-213" font-family="Helvetica,sans-Serif" font-size="10.00">Sabre\DAV\Xml\Element</text>
<text text-anchor="middle" x="86" y="-201.75" font-family="Helvetica,sans-Serif" font-size="10.00">\Response\xmlSerialize</text>
</a>
</g>
</g>
<!-- Node3&#45;&gt;Node5 -->
<g id="edge5_Node000003_Node000005" class="edge">
<title>Node3&#45;&gt;Node5</title>
<g id="a_edge5_Node000003_Node000005"><a xlink:title=" ">
<path fill="none" stroke="#63b8ff" d="M251.46,-152.21C229.61,-162.54 199.39,-176.18 172,-186.25 163.05,-189.54 153.45,-192.7 144.04,-195.61"/>
<polygon fill="#63b8ff" stroke="#63b8ff" points="252.88,-155.41 260.39,-147.94 249.86,-149.1 252.88,-155.41"/>
</a>
</g>
</g>
<!-- Node6 -->
<g id="Node000006" class="node">
<title>Node6</title>
<g id="a_Node000006"><a xlink:href="class_sabre_1_1_d_a_v_1_1_xml_1_1_element_1_1_sharee.html#a6f00760b1f920df7bb8ecf88455eb143" target="_top" xlink:title=" ">
<polygon fill="white" stroke="#666666" points="147.62,-177.5 24.38,-177.5 24.38,-147 147.62,-147 147.62,-177.5"/>
<text text-anchor="start" x="32.38" y="-164" font-family="Helvetica,sans-Serif" font-size="10.00">Sabre\DAV\Xml\Element</text>
<text text-anchor="middle" x="86" y="-152.75" font-family="Helvetica,sans-Serif" font-size="10.00">\Sharee\xmlSerialize</text>
</a>
</g>
</g>
<!-- Node3&#45;&gt;Node6 -->
<g id="edge6_Node000003_Node000006" class="edge">
<title>Node3&#45;&gt;Node6</title>
<g id="a_edge6_Node000003_Node000006"><a xlink:title=" ">
<path fill="none" stroke="#63b8ff" d="M196.33,-148.24C180.03,-150.33 163.28,-152.48 147.95,-154.44"/>
<polygon fill="#63b8ff" stroke="#63b8ff" points="196.55,-151.74 206.02,-147 195.66,-144.8 196.55,-151.74"/>
</a>
</g>
</g>
<!-- Node7 -->
<g id="Node000007" class="node">
<title>Node7</title>
<g id="a_Node000007"><a xlink:href="class_sabre_1_1_d_a_v_1_1_xml_1_1_property_1_1_invite.html#a6f00760b1f920df7bb8ecf88455eb143" target="_top" xlink:title=" ">
<polygon fill="white" stroke="#666666" points="148,-128.5 24,-128.5 24,-98 148,-98 148,-128.5"/>
<text text-anchor="start" x="32" y="-115" font-family="Helvetica,sans-Serif" font-size="10.00">Sabre\DAV\Xml\Property</text>
<text text-anchor="middle" x="86" y="-103.75" font-family="Helvetica,sans-Serif" font-size="10.00">\Invite\xmlSerialize</text>
</a>
</g>
</g>
<!-- Node3&#45;&gt;Node7 -->
<g id="edge7_Node000003_Node000007" class="edge">
<title>Node3&#45;&gt;Node7</title>
<g id="a_edge7_Node000003_Node000007"><a xlink:title=" ">
<path fill="none" stroke="#63b8ff" d="M196.39,-126.7C180.18,-124.71 163.53,-122.66 148.26,-120.78"/>
<polygon fill="#63b8ff" stroke="#63b8ff" points="195.67,-130.14 206.02,-127.89 196.52,-123.19 195.67,-130.14"/>
</a>
</g>
</g>
<!-- Node8 -->
<g id="Node000008" class="node">
<title>Node8</title>
<g id="a_Node000008"><a xlink:href="class_sabre_1_1_d_a_v_1_1_xml_1_1_response_1_1_multi_status.html#a6f00760b1f920df7bb8ecf88455eb143" target="_top" xlink:title=" ">
<polygon fill="white" stroke="#666666" points="151.75,-79.5 20.25,-79.5 20.25,-49 151.75,-49 151.75,-79.5"/>
<text text-anchor="start" x="28.25" y="-66" font-family="Helvetica,sans-Serif" font-size="10.00">Sabre\DAV\Xml\Response</text>
<text text-anchor="middle" x="86" y="-54.75" font-family="Helvetica,sans-Serif" font-size="10.00">\MultiStatus\xmlSerialize</text>
</a>
</g>
</g>
<!-- Node3&#45;&gt;Node8 -->
<g id="edge8_Node000003_Node000008" class="edge">
<title>Node3&#45;&gt;Node8</title>
<g id="a_edge8_Node000003_Node000008"><a xlink:title=" ">
<path fill="none" stroke="#63b8ff" d="M251.02,-122.45C229.19,-112.37 199.17,-99.12 172,-89.25 163.04,-85.99 153.43,-82.85 144.02,-79.95"/>
<polygon fill="#63b8ff" stroke="#63b8ff" points="249.42,-125.56 259.96,-126.62 252.37,-119.22 249.42,-125.56"/>
</a>
</g>
</g>
<!-- Node9 -->
<g id="Node000009" class="node">
<title>Node9</title>
<g id="a_Node000009"><a xlink:href="class_sabre_1_1_d_a_v_a_c_l_1_1_xml_1_1_property_1_1_principal.html#a6f00760b1f920df7bb8ecf88455eb143" target="_top" xlink:title=" ">
<polygon fill="white" stroke="#666666" points="157.38,-30.5 14.62,-30.5 14.62,0 157.38,0 157.38,-30.5"/>
<text text-anchor="start" x="22.62" y="-17" font-family="Helvetica,sans-Serif" font-size="10.00">Sabre\DAVACL\Xml\Property</text>
<text text-anchor="middle" x="86" y="-5.75" font-family="Helvetica,sans-Serif" font-size="10.00">\Principal\xmlSerialize</text>
</a>
</g>
</g>
<!-- Node3&#45;&gt;Node9 -->
<g id="edge9_Node000003_Node000009" class="edge">
<title>Node3&#45;&gt;Node9</title>
<g id="a_edge9_Node000003_Node000009"><a xlink:title=" ">
<path fill="none" stroke="#63b8ff" d="M265.94,-118.75C245.94,-96.98 209.87,-61.14 172,-40.25 165.54,-36.68 158.51,-33.58 151.35,-30.88"/>
<polygon fill="#63b8ff" stroke="#63b8ff" points="263.19,-120.92 272.48,-126.01 268.39,-116.24 263.19,-120.92"/>
</a>
</g>
</g>
</g>
</svg>
